<?xml version="1.0" encoding="UTF-8"?>
<svg id="Ebene_1" xmlns="http://www.w3.org/2000/svg" version="1.1" viewBox="0 0 409.6 409.6">
  <!-- Generator: Adobe Illustrator 29.5.1, SVG Export Plug-In . SVG Version: 2.1.0 Build 141)  -->
  <defs>
    <style>
      .st0 {
        fill: #a96100;
      }

      .st1 {
        fill: #4e8f1e;
      }

      .st2 {
        fill: #5eab24;
      }

      .st3 {
        fill: #6dc72a;
      }
    </style>
  </defs>
  <path class="st2" d="M310.59,371.94c-13.46,20.55-21.87,34.72-49.5,37.51h-16.77c-10.69-1.3-20.87-4.61-30.54-9.94-11.24-4.05-21.31,1.02-31.13,6.32-6.45,2.35-12.11,3.13-18.98,3.61-4.65-.32-9.8.44-14.37,0-13.5-1.31-29.64-9.1-38.3-19.58-19.5-32.61-42.85-64.44-61.34-97.51-26.46-47.31-25.32-103.55,11.82-144.71l1.34,1.02c-16.65,39.83-15.71,75.48,5.58,115.03,15.49,28.77,34.14,58.69,52.48,85.82,10.91,16.14,20.58,27.19,40.34,31.45,19.5,4.2,35.55-1.66,52.27-9.92,5.84-2.15,12.21-2.22,18.24-.54l26.09,9.59c17.89,5.98,35.76-.09,51.03-9.07l1.73.9v.02Z"/>
  <path class="st3" d="M198.81,130.9c1.5-.93,3.55-.78,6.16.46,2.78-1.14,4.98-1.29,6.61-.46,20.02-8.69,29.03-16.44,53.06-17.59,93.46-4.47,140.22,96.73,98.78,174.57-14.68,27.57-35.55,57.68-52.83,84.07l-13.95,7.2c-23.67,9.2-36.84,4.36-58.42-4.69-22.73-9.53-28.17,2.83-47.39,7.47-25.43,6.14-50.4-1.72-65.5-23.13-17.72-25.13-36.36-56.81-52.21-83.5-19.83-33.39-29.45-62.87-20.19-102.26l8.55-25.38c29.12-32.27,77.36-43.44,118.16-26.73,6.69,2.74,12.59,7.1,19.17,9.97h0Z"/>
  <path class="st2" d="M303.41,33.52c-3.94,1.99-8.56,2.95-13.85,2.88-3.7,1.25-7.07,1.62-10.1,1.11l-1.7.26c-2.62-2.43-6.13-2.17-10.54.8,0,0-19.07,11.06-57.2,33.18l-2.42.08c-2.27.16-2.7-1.15-.8-2.39,9.9-27.83,28.57-49.02,58.28-55.48,8.61-1.87,27.54-3.59,35.79-1.44,4.2,1.09,7.73,5.08,7.86,9.56.12,4.21-3.37,8-5.31,11.45h0Z"/>
  <path class="st0" d="M206.8,69.44c.26.77.57,1.64.8,2.39,2.45-.28,4.68,9.61,4.59,11.58l-1.4,1.19c2.68,15.18,1.67,30.99.8,46.29-6.34,2.75-6.52,2.72-12.78,0,7.09-43.69-7.46-88.19-47.37-110.28-4.25-2.35-17.43-7.01-19.66-9.08-4.66-4.32-.7-12.14,7-10.19,29.87,7.57,58.43,39.65,68.01,68.1h0Z"/>
  <path class="st3" d="M303.41,33.52c-17.64,31.26-52.21,62.74-91.02,51.08.68-.99,1.39-1.96,2.19-2.85s1.59-1.74,2.52-2.39c18.69-13.17,39.23-25.06,59.15-35.19,1.96-1.38,2.99-2.96,2.07-5.27l1.14-1.39c7.26-3.23,16.08-3.29,23.95-3.99h0Z"/>
  <path class="st1" d="M279.45,37.51c3.75,7.73-6.75,9.84-11.71,12.63-18.92,10.65-37.69,21.88-55.35,34.46-.42-.13-1.1.08-1.6,0-.59-3.31-2.18-9.48-3.19-12.77,12.73-6.67,24.53-15.22,36.99-22.49,5.35-3.12,25.58-15.51,30.4-15.02,1.69.17,3.74,1.7,4.47,3.18h-.01Z"/>
</svg>