<?xml version="1.0" standalone="no"?>
<!DOCTYPE svg PUBLIC "-//W3C//DTD SVG 20010904//EN" "http://www.w3.org/TR/2001/REC-SVG-20010904/DTD/svg10.dtd">
<!-- Created using Krita: https://krita.org -->
<svg xmlns="http://www.w3.org/2000/svg" 
    xmlns:xlink="http://www.w3.org/1999/xlink"
    xmlns:krita="http://krita.org/namespaces/svg/krita"
    xmlns:sodipodi="http://sodipodi.sourceforge.net/DTD/sodipodi-0.dtd"
    width="2034.72pt"
    height="1149.12pt"
    viewBox="0 0 2034.72 1149.12">
<defs/>
<g id="group0" transform="matrix(0.845222926700259 0 0 2.40545821660408 -109.439976766857 -2199.11721238892)" fill="none">
  <path id="shape0" transform="translate(-0.5, -0.5)" fill="#fefefe" fill-rule="evenodd" stroke-opacity="0" stroke="#000000" stroke-width="0" stroke-linecap="square" stroke-linejoin="bevel" d="M0 0C149.667 0 299.333 0 449 0C448.667 272.501 449 544.834 450 817C451.068 817.934 452.401 818.268 454 818C455.419 818.951 457.085 819.284 459 819C459.342 819.838 460.008 820.172 461 820C462.068 820.934 463.401 821.268 465 821C465.333 821 465.667 821 466 821C471.53 819.989 476.863 818.656 482 817C492.86 815.36 503.527 813.36 514 811C583.105 797.712 652.105 784.046 721 770C743.952 765.543 766.952 761.21 790 757C791.676 757.683 792.343 759.017 792 761C1205.33 761 1618.67 761 2032 761C2032 760 2032 759 2032 758C2033 758 2034 758 2035 758C2071.07 764.747 2107.07 771.747 2143 779C2164.88 783.308 2186.88 787.641 2209 792C2231.48 796.562 2254.15 800.895 2277 805C2291.08 808.638 2305.42 811.638 2320 814C2330.7 816.887 2341.7 818.887 2353 820C2353.34 820.838 2354.01 821.172 2355 821C2355.99 821.172 2356.66 820.838 2357 820C2357.67 820 2358.33 820 2359 820C2360.11 819.943 2361.11 819.61 2362 819C2363.29 819.237 2364.29 818.904 2365 818C2366 818 2367 818 2368 818C2369 818.086 2369.83 817.752 2370.5 817C2371 544.667 2371.17 272.334 2371 0C2522.67 0 2674.33 0 2826 0C2826 492.333 2826 984.667 2826 1477C1884 1477 942 1477 0 1477C0 984.667 0 492.333 0 0Z" sodipodi:nodetypes="ccccccccccccccccccccccccccccccccc"/>
 </g><g id="group110" transform="matrix(0.72 0 0 2.61378197427027 2.27373675443232e-13 -3021.16913994821)" fill="none">
  <path id="shape110" transform="translate(-0.5, 1476.5)" fill="#1a2a0d" fill-rule="evenodd" stroke-opacity="0" stroke="#000000" stroke-width="0" stroke-linecap="square" stroke-linejoin="bevel" d="M0 0C942 0 1884 0 2826 0C2826 1.67 2826 3.33 2826 5C1884 5 942 5 0 5C0 3.33 0 1.67 0 0Z" sodipodi:nodetypes="ccccc"/>
 </g><g id="group111" transform="matrix(0.72 0 0 2.61378197427027 2.27373675443232e-13 -3021.16913994821)" fill="none">
  <path id="shape111" transform="translate(-0.5, 1481.5)" fill="#1d2e0f" fill-rule="evenodd" stroke-opacity="0" stroke="#000000" stroke-width="0" stroke-linecap="square" stroke-linejoin="bevel" d="M0 0C942 0 1884 0 2826 0C2826 4.33 2826 8.67 2826 13C1884 13 942 13 0 13C0 8.67 0 4.33 0 0Z" sodipodi:nodetypes="ccccc"/>
 </g><g id="group112" transform="matrix(0.72 0 0 2.61378197427027 2.27373675443232e-13 -3021.16913994821)" fill="none">
  <path id="shape112" transform="translate(-0.5, 1494.5)" fill="#203112" fill-rule="evenodd" stroke-opacity="0" stroke="#000000" stroke-width="0" stroke-linecap="square" stroke-linejoin="bevel" d="M0 0C942 0 1884 0 2826 0C2826 1.33 2826 2.67 2826 4C1884 4 942 4 0 4C0 2.67 0 1.33 0 0Z" sodipodi:nodetypes="ccccc"/>
 </g><g id="group113" transform="matrix(0.72 0 0 2.61378197427027 2.27373675443232e-13 -3021.16913994821)" fill="none">
  <path id="shape113" transform="translate(-0.5, 1498.5)" fill="#223514" fill-rule="evenodd" stroke-opacity="0" stroke="#000000" stroke-width="0" stroke-linecap="square" stroke-linejoin="bevel" d="M0 0C942 0 1884 0 2826 0C2826 3.67 2826 7.33 2826 11C1884 11 942 11 0 11C0 7.33 0 3.67 0 0Z" sodipodi:nodetypes="ccccc"/>
 </g><g id="group114" transform="matrix(0.72 0 0 2.61378197427027 2.27373675443232e-13 -3021.16913994821)" fill="none">
  <path id="shape114" transform="translate(-0.5, 1509.5)" fill="#263a16" fill-rule="evenodd" stroke-opacity="0" stroke="#000000" stroke-width="0" stroke-linecap="square" stroke-linejoin="bevel" d="M0 0C942 0 1884 0 2826 0C2826 3.33 2826 6.67 2826 10C1884 10 942 10 0 10C0 6.67 0 3.33 0 0Z" sodipodi:nodetypes="ccccc"/>
 </g><g id="group115" transform="matrix(0.72 0 0 2.61378197427027 2.27373675443232e-13 -3021.16913994821)" fill="none">
  <path id="shape115" transform="translate(-0.5, 1519.5)" fill="#293c19" fill-rule="evenodd" stroke-opacity="0" stroke="#000000" stroke-width="0" stroke-linecap="square" stroke-linejoin="bevel" d="M0 0C942 0 1884 0 2826 0C2826 2 2826 4 2826 6C1884 6 942 6 0 6C0 4 0 2 0 0Z" sodipodi:nodetypes="ccccc"/>
 </g><g id="group116" transform="matrix(0.72 0 0 2.61378197427027 2.27373675443232e-13 -3021.16913994821)" fill="none">
  <path id="shape116" transform="translate(-0.5, 1525.5)" fill="#2a3f19" fill-rule="evenodd" stroke-opacity="0" stroke="#000000" stroke-width="0" stroke-linecap="square" stroke-linejoin="bevel" d="M0 0C942 0 1884 0 2826 0C2826 0.67 2826 1.33 2826 2C1884 2 942 2 0 2C0 1.33 0 0.67 0 0Z" sodipodi:nodetypes="ccccc"/>
 </g><g id="group117" transform="matrix(0.72 0 0 2.61378197427027 2.27373675443232e-13 -3021.16913994821)" fill="none">
  <path id="shape117" transform="translate(-0.5, 1527.5)" fill="#2d401a" fill-rule="evenodd" stroke-opacity="0" stroke="#000000" stroke-width="0" stroke-linecap="square" stroke-linejoin="bevel" d="M0 0C942 0 1884 0 2826 0C2826 9.67 2826 19.33 2826 29C1884 29 942 29 0 29C0 19.33 0 9.67 0 0Z" sodipodi:nodetypes="ccccc"/>
 </g><g id="group118" transform="matrix(0.72 0 0 2.61378197427027 2.27373675443232e-13 -3021.16913994821)" fill="none">
  <path id="shape118" transform="translate(-0.5, 1556.5)" fill="#33431d" fill-rule="evenodd" stroke-opacity="0" stroke="#000000" stroke-width="0" stroke-linecap="square" stroke-linejoin="bevel" d="M0 0C942 0 1884 0 2826 0C2826 1.33 2826 2.67 2826 4C1884 4 942 4 0 4C0 2.67 0 1.33 0 0Z" sodipodi:nodetypes="ccccc"/>
 </g><g id="group119" transform="matrix(0.72 0 0 2.61378197427027 2.27373675443232e-13 -3021.16913994821)" fill="none">
  <path id="shape119" transform="translate(-0.5, 1560.5)" fill="#35451e" fill-rule="evenodd" stroke-opacity="0" stroke="#000000" stroke-width="0" stroke-linecap="square" stroke-linejoin="bevel" d="M0 0C942 0 1884 0 2826 0C2826 1 2826 2 2826 3C1884 3 942 3 0 3C0 2 0 1 0 0Z" sodipodi:nodetypes="ccccc"/>
 </g><g id="group120" transform="matrix(0.72 0 0 2.61378197427027 2.27373675443232e-13 -3021.16913994821)" fill="none">
  <path id="shape120" transform="translate(-0.5, 1563.5)" fill="#37461f" fill-rule="evenodd" stroke-opacity="0" stroke="#000000" stroke-width="0" stroke-linecap="square" stroke-linejoin="bevel" d="M0 0C942 0 1884 0 2826 0C2826 0.67 2826 1.33 2826 2C1884 2 942 2 0 2C0 1.33 0 0.67 0 0Z" sodipodi:nodetypes="ccccc"/>
 </g><g id="group121" transform="matrix(0.72 0 0 2.61378197427027 2.27373675443232e-13 -3021.16913994821)" fill="none">
  <path id="shape121" transform="translate(-0.5, 1565.5)" fill="#3b4721" fill-rule="evenodd" stroke-opacity="0" stroke="#000000" stroke-width="0" stroke-linecap="square" stroke-linejoin="bevel" d="M0 0C942 0 1884 0 2826 0C2826 2 2826 4 2826 6C1884 6 942 6 0 6C0 4 0 2 0 0Z" sodipodi:nodetypes="ccccc"/>
 </g><g id="group122" transform="matrix(0.72 0 0 2.61378197427027 2.27373675443232e-13 -3021.16913994821)" fill="none">
  <path id="shape122" transform="translate(-0.5, 1571.5)" fill="#404922" fill-rule="evenodd" stroke-opacity="0" stroke="#000000" stroke-width="0" stroke-linecap="square" stroke-linejoin="bevel" d="M0 0C942 0 1884 0 2826 0C2826 1 2826 2 2826 3C1884 3 942 3 0 3C0 2 0 1 0 0Z" sodipodi:nodetypes="ccccc"/>
 </g><g id="group123" transform="matrix(0.72 0 0 2.61378197427027 2.27373675443232e-13 -3021.16913994821)" fill="none">
  <path id="shape123" transform="translate(-0.5, 1574.5)" fill="#434b24" fill-rule="evenodd" stroke-opacity="0" stroke="#000000" stroke-width="0" stroke-linecap="square" stroke-linejoin="bevel" d="M0 0C942 0 1884 0 2826 0C2826 1 2826 2 2826 3C1884 3 942 3 0 3C0 2 0 1 0 0Z" sodipodi:nodetypes="ccccc"/>
 </g><g id="group124" transform="matrix(0.72 0 0 2.61378197427027 2.27373675443232e-13 -3021.16913994821)" fill="none">
  <path id="shape124" transform="translate(-0.5, 1577.5)" fill="#474d26" fill-rule="evenodd" stroke-opacity="0" stroke="#000000" stroke-width="0" stroke-linecap="square" stroke-linejoin="bevel" d="M0 0C942 0 1884 0 2826 0C2826 1 2826 2 2826 3C1884 3 942 3 0 3C0 2 0 1 0 0Z" sodipodi:nodetypes="ccccc"/>
 </g><g id="group125" transform="matrix(0.72 0 0 2.61378197427027 2.27373675443232e-13 -3021.16913994821)" fill="none">
  <path id="shape125" transform="translate(-0.5, 1580.5)" fill="#4c4f28" fill-rule="evenodd" stroke-opacity="0" stroke="#000000" stroke-width="0" stroke-linecap="square" stroke-linejoin="bevel" d="M0 0C942 0 1884 0 2826 0C2826 1.33 2826 2.67 2826 4C1884 4 942 4 0 4C0 2.67 0 1.33 0 0Z" sodipodi:nodetypes="ccccc"/>
 </g><g id="group126" transform="matrix(0.72 0 0 2.61378197427027 2.27373675443232e-13 -3021.16913994821)" fill="none">
  <path id="shape126" transform="translate(-0.5, 1584.5)" fill="#52522a" fill-rule="evenodd" stroke-opacity="0" stroke="#000000" stroke-width="0" stroke-linecap="square" stroke-linejoin="bevel" d="M0 0C942 0 1884 0 2826 0C2826 0.67 2826 1.33 2826 2C1884 2 942 2 0 2C0 1.33 0 0.67 0 0Z" sodipodi:nodetypes="ccccc"/>
 </g><g id="group127" transform="matrix(0.72 0 0 2.61378197427027 2.27373675443232e-13 -3021.16913994821)" fill="none">
  <path id="shape127" transform="translate(-0.5, 1586.5)" fill="#54532c" fill-rule="evenodd" stroke-opacity="0" stroke="#000000" stroke-width="0" stroke-linecap="square" stroke-linejoin="bevel" d="M0 0C942 0 1884 0 2826 0C2826 0.67 2826 1.33 2826 2C1884 2 942 2 0 2C0 1.33 0 0.67 0 0Z" sodipodi:nodetypes="ccccc"/>
 </g><g id="group128" transform="matrix(0.72 0 0 2.61378197427027 2.27373675443232e-13 -3021.16913994821)" fill="none">
  <path id="shape128" transform="translate(-0.5, 1588.5)" fill="#5a562e" fill-rule="evenodd" stroke-opacity="0" stroke="#000000" stroke-width="0" stroke-linecap="square" stroke-linejoin="bevel" d="M0 0C942 0 1884 0 2826 0C2826 1 2826 2 2826 3C1884 3 942 3 0 3C0 2 0 1 0 0Z" sodipodi:nodetypes="ccccc"/>
 </g><g id="group129" transform="matrix(0.72 0 0 2.61378197427027 2.27373675443232e-13 -3021.16913994821)" fill="none">
  <path id="shape129" transform="translate(-0.5, 1591.5)" fill="#605a35" fill-rule="evenodd" stroke-opacity="0" stroke="#000000" stroke-width="0" stroke-linecap="square" stroke-linejoin="bevel" d="M0 0C942 0 1884 0 2826 0C2826 1.33 2826 2.67 2826 4C1884 4 942 4 0 4C0 2.67 0 1.33 0 0Z" sodipodi:nodetypes="ccccc"/>
 </g>
</svg>
