<?xml version="1.0" encoding="UTF-8"?>
<svg id="Ebene_1" xmlns="http://www.w3.org/2000/svg" version="1.1" viewBox="0 0 409.6 409.6">
  <!-- Generator: Adobe Illustrator 29.5.1, SVG Export Plug-In . SVG Version: 2.1.0 Build 141)  -->
  <defs>
    <style>
      .st0 {
        fill: #edbe00;
      }

      .st1 {
        fill: #fed322;
      }

      .st2 {
        fill: #fedd55;
      }

      .st3 {
        fill: #a96100;
      }

      .st4 {
        fill: #fee377;
      }

      .st5 {
        fill: #fef4cb;
      }

      .st6 {
        fill: #feea98;
      }
    </style>
  </defs>
  <path class="st4" d="M408.8,144.52h.8v6.39c-4.33,10.43-18.92,12.99-29.1,13.61-23.41,1.44-47.78-2.32-70.99.87-27.28,3.75-50.61,16.2-70.77,34.23l-.96,3.03c-9.68,8.71-18.12,18.67-24.95,29.77l-2.83,1.54c-.49-.3-.97-.61-1.37-1.01-4.78-4.72-1.76-31.23-.24-38.39,16.96-79.86,104.27-112.4,173.33-72.9,10.01,5.72,21.13,12.93,27.1,22.87Z"/>
  <path class="st1" d="M238.73,199.61c5.24,9.89,10.79,19.68,16.75,29.16,23.33,37.11,53.22,73.26,84.23,104.2,9.82,9.79,24.84,19.79,31.56,31.92,5.02,3.22,7.11,11.88,3.22,16.64-1.8,2.2-6.46,5.7-8.81,3.32-18.21.27-37.3-7.1-54.06-14.12-58.27-24.41-109.99-63.55-141.22-119.38-.43-.76-.62-1.66-.82-2.58s-.27-1.88-.32-2.84c2.83-2.3,6.59-3.38,11.28-3.22,4.85-1.1,9.07-.83,12.67.82,1.96-2.8,8.13-1.7,11.2-.55.75-3.05,2.09-5.85,3.52-8.66l2.04-.37c8.64-14.21,16.59-23.47,28.74-34.33Z"/>
  <path class="st5" d="M213.18,139.73l-.27,3.61c-17.64,29.7-17.71,63.06-7.77,95.47.2,4.58-.23,5.14-4.29,2.78-13.77-13-28.78-25.09-46.56-32.1l-2.59-2.69c-.62-.59-1.22-1.21-1.73-1.89s-.98-1.33-1.22-2.05c-17.65-54.48-28.46-141.18,16.25-185.07,3.36-3.3,9.33-8,13.84-8.2,18.5,7.87,14.21,25.42,15.18,41.11,1.77,28.75,7.75,58.71,17.13,85.87.43,1.24.53,2.66,2.02,3.17Z"/>
  <path class="st2" d="M408.8,144.52c-54.08-55.02-147.69-51.71-186.97,18.63-11.2,20.06-18.03,48.3-11.84,70.8-1.77,2.92-2.77,6.38-4.78,9.19-3.93.84-8.01.25-11.99.39l-14.57-9.09C87.25,188.35-6.84,274.33,20.5,370.64l-.54,3.82C3.21,365.83-.16,326.25.81,309.4c3.23-56.23,45.88-106.15,103.79-108.99,5.27-.66,10.56-.77,15.88-.33,2.55-1.35,5.77-1.49,9.64-.39,6.9.78,16.72,2.47,21.59,7.11,20.94,7.52,36.77,20.83,52.69,35.93-2.48-11.29-5.64-22.54-7.05-34.07-2.93-23.95,3.42-48.45,15.84-68.93,28.54-47.09,84.87-64.7,136.35-45.73,22.63,8.34,51.93,26.28,59.27,50.52Z"/>
  <path class="st4" d="M193.22,243.52c-8.85.3-15.21.81-23.95,2.4-.68.84-1.44,1.72-2.48,2.09-4.18,1.49-13.88,4.05-18.27,4.84-1.09.2-2.19-.16-3.2-.54-27.28,10.15-51.56,29.11-67.57,53.39-10.22,15.49-31.18,65.62-48.18,69.99-4.26,1.1-6.06.61-9.6-1.22-11.2-36.02-5.15-79.33,17.7-109.65,32.92-43.68,92.85-57.36,141.72-31.81,4.54,2.37,11.47,5.96,13.84,10.51Z"/>
  <path class="st6" d="M178.85,9.58c-4.5,3.37-9.42,6.1-13.49,10.06-37.77,36.75-33.36,108.69-22.69,155.87,2.4,10.61,5.71,20.96,9.04,31.28-16.33-5.86-29.7-7.24-47.11-6.39,2.27-2.03,15.86.04,16.76-.8-1.53-7.83-4.25-15.35-5.99-23.14-6.79-30.27-11.27-73.39-4.64-103.66,6.17-28.14,31.91-78.63,68.12-63.22Z"/>
  <path class="st0" d="M169.27,245.92c29.33,55.34,79.9,95.95,136.79,120.7,19.15,8.33,38.83,15.27,59.62,18.23-1.79,2.67-4.98,3.46-9.58,2.4-7.57-2.41-20.17-2.55-28.89-4.24-19.66-3.8-40.33-12.07-58.42-20.62-50.49-23.85-95.93-60.97-123.47-110.07,8.12-3.02,15.46-4.85,23.95-6.39Z"/>
  <path class="st3" d="M356.1,387.24c3.11-1.16,6.35-1.47,9.58-2.4,11.53-3.29,10.81-10.53,5.59-19.96,7.66,4.34,31.73,12.23,33.96,20.74,2.98,11.38-5.2,19.77-16.61,17.41-8.05-1.67-23.15-12.81-32.52-15.79Z"/>
</svg>