<?xml version="1.0" encoding="UTF-8"?>
<svg id="Ebene_1" xmlns="http://www.w3.org/2000/svg" version="1.1" viewBox="0 0 384 384">
  <!-- Generator: Adobe Illustrator 29.5.1, SVG Export Plug-In . SVG Version: 2.1.0 Build 141)  -->
  <defs>
    <style>
      .st0 {
        fill: #e78e29;
      }

      .st1 {
        fill: #d45a06;
      }

      .st2 {
        fill: #1e1e1e;
      }

      .st3 {
        fill: #fe9c2d;
      }

      .st4 {
        fill: #fec078;
      }

      .st5 {
        fill: #e78f29;
      }

      .st6 {
        fill: #e2c0c0;
      }

      .st7 {
        fill: #1d1e1e;
      }

      .st8 {
        fill: #f8d3d3;
      }

      .st9 {
        fill: #e96307;
      }
    </style>
  </defs>
  <path class="st3" d="M76.5,30.69l1.03-.08c1.45,4.43,15.55,31.41,16.37,13.62.26-5.76-.9-11.76-2.08-17.37l1.19-1.4c4.88-1.07,8.47-1.76,13.5-2.25l1.79,1.58c.23,4.09,3.05,29.94,10.24,25.95,4.05-2.25,6.57-21.31,6.73-26.35l1.49-1.17c5.15.46,8.6,1.23,13.5,2.25l1.44,1.17c-6.01,25.99,1.17,34.05,13.67,5.15l2.14-1.08c2.7.49,16.01-6.78,19.74-8.37,11.31-4.83,28.19-12.34,40.26-13.34.55.26,1.35.67,1.31,1.13-.32,3.58-3.31,20.89-4.45,23.3l-2.11,3.27-.59,2.67c-5,5.49-9.96,11.88-12.21,18.84,2.5,2.27,3.52,4.33,3.05,6.19.25,8.39,2.12,16.78,5.61,25.16,1.66,8.34,5.36,31.26,1.67,38.26-.24.46-1.32.32-2.03.21l-1.4.76c-9.37-3.5-21.86-3.02-30.52,2.27-6.05,3.69-7.54,10.06,1.06,6.86,5.53-2.91,10.46-5.45,16.99-5.4,2.9.03,10.11,1.61,11.63,3.74,4.24.07-.5,9.6-2.03,12.3-1.41,3.94-3.23,5.33-5.47,4.17l-1.53.85c-4.71-2.66-19.43-5.28-23.03-.73-3.97,5.03,8.41,4.8,10.74,4.07,2.83.25,8.34.82,8.56,4.04l.26,2.35c-24.49,32.25-74.57,33.93-111.97,30.21-20.07-2-42.04-6.24-58.54-16.84-5.28-2.39-8.36-10.27-10.51-15.77-6.67-17.09-6.64-36.57-2.68-54.31.94-4.19,4.57-18.46,7.23-20.45.44-.33.94-.58,1.45-.8.11-5.59,5.4-13.85,9.09-18.24l2.16-.47-.06-2.3,5.32-6.45C28.42,44.05,16.19,30.69,1.18,26.45l-1.18-1.75v-8.23c1.86-3.02,1.93-6.08,5.98-7.13,13.3-3.45,39.61,8.31,52.28,13.74,3.43,1.47,15.67,8.2,18.24,7.62Z"/>
  <path class="st0" d="M384,194.62v11.23c-2.11,2.15-2.72,5.08-4.96,7.4-7.9,8.2-21.05,6.94-27.17-2.66-3.95-6.19-1.68-14.29-6.54-21.16-9.04-12.77-27.03-5.75-25.82,9.3,2.28,28.38,42.29,53.45,44.98,89.09,3.14,41.61-33.63,73.45-74.46,63.2-8.13,15.68-21.08,23.89-38.78,24.74-2.98.57-21.6,1.1-21.95-.14-.31-1.11.35-1.86,1.43-2.15,37.89-7.56,37.06-46.22,32.07-77.08l1.19-2.22,1.44-1.43,10.32-.14c5.85.2,10.68-1.02,14.49-3.67,1.68,8.86,3.34,17.72,3.1,26.84,2.89,1.29,5.79,1.81,8.9,2.35,2.5.32,5,.35,7.5,0,19.93-3.93,24.52-24.34,15.88-40.92-12.8-24.55-37.69-43.29-40.53-74.08-3.48-37.75,37.98-68.41,72.13-48.79,15.17,8.71,22.77,23.81,26.77,40.28Z"/>
  <path class="st6" d="M29.25,66.62l-2.01-1.18c-4.54-11.25-13.48-20.34-24.01-26.21l-1.72-2.55c-.49-2.3-.16-5.46-1.5-7.49v-4.49c7.78,1.23,15.73,6.66,21.39,11.96,3.5,3.27,14.81,17.07,14.57,21.39-.08,1.38-5.5,6.85-6.71,8.57Z"/>
  <path class="st0" d="M204,65.87l2.11.39c4.19,5.03,9.28,13.44,9.89,19.83,11.12,24.86,13.28,55.16,2.19,80.37,7.9,5.44,14.58,12.18,21.06,19.19l.77,1.45c-4.14,5.28-8.28,10.56-12.42,15.84l-1.85-.07c-.21.65-.46.64-.75,0l-1.55.02c-4.25-7.24-10.02-13.7-15.86-19.74-24.61,23.72-64.15,28.01-97.11,27.13-7.98-.21-44.64-3.09-48.81-7.58-.36-.39-.65-.85-.92-1.33-15.17-4.73-28.48-12-38.25-24.7.49-1.58,2.21.03,2.93.44,33.49,19.02,111.18,22.41,144.83,3.69,8.27-4.6,17.54-11.75,22.48-19.85.38-.53,1-1.12,1.52-.91,4.42,1.77,9.05,3.31,5.59-3.64-1.53-1.13-2.15-2.36-1.86-3.69,2.7-.55,4.3-5.37,5.38-7.73.96-2.1,3.44-6.66,2.12-8.74.89-2.72,1.64-5.46,2.25-8.23,1.15-1.04,1.37-2.66,1.5-4.12.98-11.18-.21-24.4-2.9-35.27-1.7-6.84-5.69-13.95-5.39-20.9.06-1.4-.15-2.81,1.54-3.33,1.8-1.14,2.18-.45,1.5,1.5Z"/>
  <path class="st1" d="M285,267.23c2.25,7.19,3.85,14.31,5.25,21.71-.2,1.64.95,2.38-1.09,3.04-6.73,2.16-18.09,2.63-25.16,2.2-3.05-4.59-4.72-12.54-3.75-17.96.7-.9,1.45-1.87,2.52-2.34,3.51-1.54,18.09-7.33,20.42-7.07.61.07,1.21.23,1.81.43Z"/>
  <path class="st1" d="M267,224.56c4.19,7.62,7.24,15.22,10.5,23.2l-1.33,2.28c-6.46,2.99-13.2,5.47-20.29,6.45l-2.37-1.25c-4.14-4.45-7.25-11.9-7.5-17.96.29-.89.63-1.86,1.38-2.48,1.84-1.51,16.81-11.77,17.86-11.63l1.76,1.38Z"/>
  <path class="st8" d="M231.75,38.18c-3.16,14.91-9.47,29.7-14.9,43.89-.52,1.36-1.13,2.45-.85,4.01-2.79-6.23-7.98-14.61-12-20.21l-.63-2.09c4.81-8.95,11.18-17.55,19.4-23.68,2.28-1.7,8.86-6.52,8.98-1.92Z"/>
  <path class="st0" d="M285,267.23c-8.35,2.84-16.23,6.53-24.75,8.98-3.87-5.31-6.87-13.69-6.75-20.21-.65-.25-.65-.5,0-.75,8.35-.69,16.54-3.9,24-7.49,2.63,6.45,5.42,12.8,7.5,19.46Z"/>
  <path class="st0" d="M267,224.56c-1.68-.33-2.31.68-3.43,1.44-6.03,4.11-11.04,7.78-17.57,11.29-4.67-4.49-9.48-12.34-10.5-18.71-.67-.21-.66-.46,0-.75l1.19-2.02c5.74-2.65,11.05-6.01,15.94-10.08l2.36.12c4.21,6.15,8.4,12.16,12,18.71Z"/>
  <path class="st1" d="M255,205.85c-6.13,4.46-12.15,9.6-19.5,11.98-4.48-2.97-8.61-9.73-9.75-14.97l13.5-17.22c6.48,7.01,10.41,12.41,15.75,20.21Z"/>
  <path class="st6" d="M231.75,38.18c-1.29-1.02-1.99-.52-3.23.1-10.06,5.05-19.7,17.65-24.52,27.59-.22-.31-.97-.78-1.5-1.5-.95-1.28-5.1-5.76-4.94-6.77,3.7-7.6,8.48-15.14,14.69-20.93l1.96-3.65c5.21-4.53,11.14-7.38,17.7-9.4-.76-3.47-.31-5.61,1.34-6.41,1.4,6.68-.06,14.17-1.5,20.96Z"/>
  <path class="st9" d="M126.75,23.2c.26,5.3-2.85,26.53-7.49,28.82s-7.49-3.27-8.84-6.91c-2.55-6.89-2.6-14.74-3.92-21.91,7.47-.73,12.73-.67,20.25,0Z"/>
  <path class="st5" d="M233.25,17.22c-.34,1.67.55,6.36-.1,7.38-.29.45-7.86,2.88-9.87,3.99-3.37,1.86-8.2,5.46-11.02,8.09l5.25-27.7c8.64-.72,13.81-1.02,15.75,8.23Z"/>
  <path class="st9" d="M157.5,30.69c-1.72,3.64-3.09,7.48-5.12,10.98s-9.64,15.37-13.25,7.73c-3.16-6.68.92-16.88,1.12-23.95,3.33.69,6.16,1.06,9.57,2.05,2.25.65,6.33,2.95,7.68,3.19Z"/>
  <path class="st9" d="M93,25.45c1.32,4.69,4.99,24.44-.53,26.08-6.76,2.01-14.24-15.64-15.97-20.84.15-.03.76-.91,1.47-1.12,5.35-1.6,9.51-2.9,15.03-4.11Z"/>
  <path class="st4" d="M309.75,318.13c-4.08.8-3.56.68-7.5,0h7.5Z"/>
  <path class="st7" d="M120.75,144.47c2.3,4.02-.86,17.9,1.49,20.59,1.41,1.61,5.74,2.16,7.84,1.82,3.71-.59,6.68-7.09,11.35-3.75,7.72,5.51-7.93,13.56-13.56,13.52-4.97-.03-8.82-4.1-10.63-4.37-.66-.1-7.46,4.48-12.39,4.21-5.68-.32-20.3-8.53-12.28-13.35,4.94-2.96,6.83,3.34,12.05,3.82,12.55,1.13,6.52-14.73,7.88-22.49,1.4-1.3,6.82-1.25,8.25,0Z"/>
  <path class="st8" d="M29.25,66.62c-3.77,5.34-8.58,12.83-11.25,18.71C12.14,69.56,5,53.19,1.5,36.68c11.96,5.63,23.59,17.31,27.75,29.94Z"/>
  <path class="st2" d="M35.85,125.23c6.61-.68,12.52.17,18.66,2.64,3.89,1.56,11.17,4.88,9.68,9.89-2.03,6.84-8.64.57-11.92-.91-3.01-1.36-8.91-2.85-12.14-2.85-4.43,0-12.53,4.56-14.99-.76-2.73-5.91,6.88-7.61,10.71-8Z"/>
  <path class="st7" d="M207.75,128c1.9,2.17.61,7.59-2.25,8.23-1.66.37-8.8-2.21-11.63-2.24-1.1-.01-5.49.57-6.67.82-4.94,1.03-14.72,9.41-17.3,3.65-3.48-7.74,14.11-12.84,19.57-13.37,3.51-.34,16.01.31,18.28,2.9Z"/>
  <path class="st7" d="M67.76,100.8c-10-9.99,5.73-24.7,15.16-14.75s-5.65,24.25-15.16,14.75Z"/>
  <path class="st7" d="M169.24,100.8c-9.52,9.49-24.45-4.94-15.16-14.75,9.5-10.03,25.05,4.88,15.16,14.75Z"/>
  <path class="st8" d="M126,123.51c2.7,2.2-.6,7.9-2.29,10.41-3.27,4.86-10.21,11.11-15.71,6.06-4.26-5-8.33-11.21-1.53-16.12,5.46-3.94,14.02-3.45,19.53-.34Z"/>
  <path class="st7" d="M47.08,149.17c4.5-.54,15.32-1.03,15.22,5.43s-9.45,3.03-13.74,3.54c-1.81.22-4.63,1.15-6.34,1.91-2.95,1.31-6.36,5.51-9.97,2-6.59-6.41,10.13-12.32,14.82-12.88Z"/>
  <path class="st7" d="M198,152.7c3.38,2.07,7.4,7.77,2.23,10.09-3.38,1.51-4.81-.63-7.48-1.85-7.65-3.5-7.57-2.45-15.37-2.18-6.7.23-7.71-6.19-3.16-8.45,5.84-2.91,18.3-.95,23.78,2.4Z"/>
  <path class="st6" d="M120.75,144.47c-2.27,1.13-5.99,1.08-8.25,0-.97-.46-3.62-3.45-4.5-4.49,9.02,3.29,17.41-8.37,18-16.47,4.28,2.41,5.53,3.53,4.33,9.19-.64,3.03-6.85,10.42-9.58,11.77Z"/>
  <path class="st3" d="M225,202.85l.54,1.83c-5.11,5.15-10.58,9.95-16.41,14.37-13.49,11.98,20.44.73,23.76-1.13l2.61.65c3.64,6.17,7.39,12.05,10.5,18.71l.25,1c-9.17,4.41-18.29,8.99-27.34,13.72,1.52,3.8,28.02,3.59,32.77,2.57l1.82,1.43c2.41,6.6,4.94,13.42,6.75,20.21l.04,1.03c-8.46,2.08-16.81,4.46-25.03,7.13,1.81,4.11,22.62,8,27.13,8.19l1.62,1.62c2.04,13.78,3.93,34.48,1.15,47.93-3.52,17.03-17.63,30.37-34.9,32.92-.18,1.3,1.71.71,2.61.74,5.82.22,12.59.28,18.38,0-.78,1.24-2.85.75-4.11.76-57.96.72-116.67.59-174.39-.76q.8-1.24,0,0c-7.79-.18-21.73,1.26-28.55-.32-4.39-1.02-7.82-5.41-8.2-9.79-.96-10.83,8.72-13.91,14.24-20.97,16.02-20.49,15.46-91.41,13.51-117.5-.64-8.62-2.17-17.24-2.99-25.83,36.96,11.53,105.1,11.45,137.49-12.11,3.33-2.42,6.35-5.05,9.14-8.08,1.41,0,17.08,18.34,17.63,21.69Z"/>
  <path class="st9" d="M235.5,217.82c.11.18-.11.56,0,.75-6.62,2.34-13.11,5.26-20.1,6.52-2.53.45-14.24,2.66-10.69-3.18s16.08-12.58,20.29-19.05h.75c3.67,4.71,6.7,9.86,9.75,14.97Z"/>
  <path class="st9" d="M260.25,276.21c1.53,5.73,2.88,12.1,3.75,17.96-6-.37-13.57-1.79-19.32-3.55-2.24-.69-14.42-4.37-9.93-8.06,1.72-1.41,21.31-5.15,25.5-6.35Z"/>
  <path class="st9" d="M253.5,255.25c.08.22-.08.53,0,.75-10.13.3-22.34,2.28-32.08-1.29-2.21-.81-5.42-1.52-3.22-4.38,1.14-1.49,23.51-10.74,27.8-13.05,2.69,5.78,5.29,11.99,7.5,17.96Z"/>
  <path class="st9" d="M129,375.77c11.61-10.75,13.35-28.91,15.63-43.91,2.86-18.91,4.53-38.37,5.41-57.48.2-4.4-1.23-18.59,1.49-20.96,2.48-2.16,6.86-.9,7.46,2.23.96,5.01.25,18.89.05,24.72-.35,9.81-1.32,20.11-2.29,29.9-.93,9.38-2.65,18.72-3.74,28.08,5.69-4.8,12.48-7.94,19.65-9.94,11.84-3.31,25.45-2.79,36.6-6.14,4.11-1.23,7.48-6.39,11.67-3.43,6.09,4.3-3.53,10.05-7.35,11.48-10.81,4.05-24.73,3.53-36.3,6.44-19.98,5.02-31.64,17.63-30.28,39.02h-18Z"/>
  <path class="st9" d="M72.75,375.77c-.3-.13-2.07-4.09-2.2-4.91-3.13-20.01,14.5-22.74,20.23-38.85,7.42-20.85,5.94-40.18,7.44-61.44.25-3.53.46-10.72,5.49-9.95,5.85.89,4.44,12.21,4.33,16.75-.47,17.82-3.57,52.18-12.91,67.2-6.37,10.25-24.46,17.35-11.12,31.19-2.47-.54-9.52.76-11.25,0Z"/>
</svg>