<?xml version="1.0" encoding="UTF-8"?>
<svg id="Ebene_1" xmlns="http://www.w3.org/2000/svg" version="1.1" viewBox="0 0 384 384">
  <!-- Generator: Adobe Illustrator 29.5.1, SVG Export Plug-In . SVG Version: 2.1.0 Build 141)  -->
  <defs>
    <style>
      .st0 {
        fill: #a7cfe0;
      }

      .st1 {
        fill: #5d6972;
      }

      .st2 {
        fill: #7a838b;
      }

      .st3 {
        fill: #f7c360;
      }

      .st4 {
        fill: #7a828a;
      }

      .st5 {
        fill: #f9ae42;
      }

      .st6 {
        fill: #a6cfe0;
      }

      .st7 {
        fill: #7a838a;
      }

      .st8 {
        fill: #fefefe;
      }

      .st9 {
        fill: #80bacd;
      }

      .st10 {
        fill: #f9af43;
      }
    </style>
  </defs>
  <path class="st3" d="M222,138.48c7.59-2.38,16.38-2.27,24,0,17.53-.09,36.64-.9,54,0,1.15.87,1.88,1.98,1.72,3.43l-.68,27.22c-1.37,13.34,6.16,25.56,19.7,27.75,17.35-.02,34.73-.02,52.12.02l1.39,1.47c4.92,11.59,4.92,20.53.75,32.19-8.22,10.61-23.42,12.01-36.07,10.65-23.31.33-46.63.76-69.94,1.3-40.51.79-80.2-13.39-101.01-49.43-7.3-11.51-19.4-12.11-32.45-11.98-22.81.21-45.57.31-68.27.32l-2.01-1.01c-2.17-.09-3.25-4.82-1.5-5.99l79.68-.19c12.22-1.65,22.39-17.27,32.06-24.89,15.63-12.32,27.74-10.6,46.51-10.84Z"/>
  <path class="st5" d="M375,230.55c-7.65,21.42-23.75,27.17-45,27.7-5.31,2.43-12.63,2.28-18,0-27.89,2.53-56.11,2.49-84,0-5.52,2.26-12.52,2.38-18,0-4.66-.09-9.88.42-14.43-.19-26.01-3.5-29.44-58.58-58.67-59.72l-73.15.03c-1.75-1.16-.67-5.9,1.5-5.99-1.2-1.26-1.47-3.2-.82-5.82-.64-2.74-.36-4.79.82-6.16,26.63.16,58.53-2.25,84.4-.03,17.06,1.47,20.29,15.19,29.96,26.24,44.18,50.45,111.84,29.22,171,33.66,9.23-.88,16.99-4.38,24.39-9.72Z"/>
  <path class="st3" d="M198,306.15c-9.94-1.38-9.94-16.59,0-17.96,3.99-.05,8.01.02,12,0,5.95-2.08,12.04-2.04,18,0,27.87-2.42,56.12-2.25,84,0,5.95-2.07,12.04-2.02,18,0,4.56-.03,9.43-.69,13.5-.75l7.53-.94c7.85.79,15.42-.86,22.71-4.96l2.01.66c5.81,6.52.66,12.14-5.8,14.79-8.68,3.56-18.86,5.44-27.64,9.1-48.09-.32-96.23.65-144.31.07Z"/>
  <path class="st1" d="M42,157.19l1.5.65v9.52c2.47-1.56,4.87-3.58,7.2-6.06l1.8.38c4.35,2.9,5.36,3.93,8.25,8.23l.65,1.5-6.53,7.01c3.56.18,7.02.84,10.38,1.97.91,5.14.91,6.82,0,11.98l-.66,1.5h-9.54c1.56,2.46,3.59,4.86,6.07,7.19l-.38,1.79c-2.84,4.24-3.9,5.41-8.25,8.23l-1.8.38-7.25-6.72.18,9.62-1.63,1.22c-1.73,3.12-10.7,3.19-12,0l-1.38-.65c.11-3.52-.09-6.75-.59-9.7l-6.73,6.24-1.8-.38c-1.6,1.71-5.69-.82-4.5-2.99-1.55-1.5-2.61-3.43-3.75-5.24l-.38-1.79c2.49-2.33,4.51-4.72,6.07-7.18H7.8s-1.05-1.5-1.05-1.5c-.97-5-.97-6.95,0-11.98l.66-1.38c3.53.11,6.77-.09,9.72-.59l-6.26-6.72.38-1.79c1.26-1.99,2.74-4.42,4.5-5.99-.38-2.22,2.08-4.04,3.75-2.25l1.8-.38c2.33,2.48,4.73,4.5,7.2,6.06v-9.13s1.51-1.05,1.51-1.05c1.12-3.16,10.84-3.1,12,0Z"/>
  <path class="st6" d="M258,115.27c-.58-.16-1.44-.4-1.5-.87-.27-2.04-.37-14.33,0-16l1.5-1.09c32.11,1.36,64.26,2.98,96.34,4.52,5.9.28,16.2-1.46,20.69,2.55,5.33,4.75,3.09,14.55-4.15,15.4s-15.2-.58-22.49-.8c-30.13-.91-60.23-2.44-90.41-3.71Z"/>
  <path class="st6" d="M210,97.31c.58.16,1.38.37,1.5.87.37,1.55.25,14.05,0,16l-1.5,1.09c-30.1,1.25-60.19,2.8-90.41,3.71-7.29.22-15.1,1.67-22.49.8-9.33-1.1-10.41-16.38,2.35-17.9,15.54-1.85,34.91-.86,50.95-1.55,19.81-.85,39.7-2.14,59.59-3.03Z"/>
  <path class="st9" d="M318,142.97l1.47,1.54c-.8,12.68,0,25.64,12.03,32.89,1.69-1.39,3.04-.61,3,1.5,7.33.06,14.68.12,22.07-.07l3.43,1.56c5.96,6.28,10.59,9.35,14.25,17.96h-53.63c-9.71-1.05-19.28-10.18-20.56-19.9-1.61-12.23,1.06-27.43-.06-39.98,7.61.4,11.3,1.46,18,4.49Z"/>
  <path class="st7" d="M246,97.31c2.47,5.29,2.33,12.63,0,17.96,0,3.73,0,7.5,0,11.23-.07.58-.25,1.45-.67,1.5-4.51.5-17.9.62-22.24,0l-1.09-1.5c0-3.73,0-7.49,0-11.23-2.33-5.34-2.47-12.67,0-17.96.13-4.44-.75-8.96,1.61-12.99,4.47-7.65,16.3-7.66,20.78,0,2.36,4.03,1.48,8.54,1.61,12.99Z"/>
  <path class="st3" d="M42.75,147.46l-2.07.66c-8.99-3.84-19.25-2.55-27.18,3.08-2.45-12.21-5.42-24.38-7.5-36.68h23.62c5.46,10.51,8.66,22.04,13.12,32.94Z"/>
  <path class="st0" d="M360,180.4c-8.55-.39-17.27,1.18-25.5-1.5l.95-1.52c11.8-.51-1.11-15.96-7.44-13.87-6.52,2.15,1.17,9.81,3.91,11.96l-.43,1.94c-14.94-7.25-13.8-19.54-13.5-34.43,14.47,6.55,30.77,25.6,42,37.43Z"/>
  <path class="st5" d="M42.75,147.46c1.42,3.47,4.07,7.43,5.25,11.23-1.17,1.75-5.91.67-6-1.5-5.08-.89-6.9-.98-12,0-.59,1.51-2.1,2.47-4.54,2.87-2.28,1.69-4.27,2.23-5.96,1.62-1.2.76-2.67,1.28-3.75,2.25-.93-4.19-1.41-8.53-2.25-12.73-.41-2.28.11-1.8,1.45-2.65,8.05-5.08,19.41-5.5,27.8-1.1Z"/>
  <path class="st5" d="M198,288.19c-7.97,5.17-7.98,12.79,0,17.96-8.07-.1-24.47,3.03-24.06-9.36.38-11.54,16.08-8.5,24.06-8.6Z"/>
  <path class="st4" d="M228,270.22l1.5.87v16l-1.5,1.09c-5.99.02-12.01-.04-18,0v-17.96c.16-.58.39-1.42.87-1.5,2.12-.34,14-.36,16.03,0l1.09,1.5Z"/>
  <path class="st4" d="M330,270.22v17.96c-5.99.04-12.01-.02-18,0-.59-.16-1.46-.41-1.5-.87-.37-4.11-.36-11.89,0-16l1.5-1.09c.16-.58.39-1.42.87-1.5,2.12-.34,14-.36,16.03,0l1.09,1.5Z"/>
  <path class="st5" d="M19.5,211.09c1.69-.61,3.68-.07,5.96,1.62,2.44.4,3.95,1.36,4.54,2.87,5,.97,7.03.95,12,0-.53,3.81-5.88,9.57-8.25,12.73-3.17,2.32-8.76-.52-12.13-2.24s-9.38-5.05-9.62-8.99c.93-2.77,1.04-6.5,3-8.98,1.32,1.27,2.98,2.04,4.5,2.99Z"/>
  <path class="st1" d="M246,126.5v11.98c-7.99.04-16.01-.1-24,0v-11.98h24Z"/>
  <path class="st3" d="M33.75,228.3c-1.35,1.79-2.11,4.5-4.12,5.99H6c1.34-5.94,4.08-11.5,6-17.22,6.15,5.99,13.03,10.12,21.75,11.23Z"/>
  <path class="st9" d="M222,97.31c-.17,5.96,0,12,0,17.96-3.67-.54-7.45.48-10.9.64-.57.03-1-.64-1.1-.64v-17.96c3.98-.18,8.02.13,12,0Z"/>
  <path class="st1" d="M228,258.25l1.5.85c.43,2.47.68,10.06-1.5,11.12h-18v-11.98c5.98.12,12.01-.04,18,0Z"/>
  <path class="st1" d="M330,258.25v11.98h-18c-2.46-1.23-2.35-10.53,0-11.98,5.98-.05,12.02.15,18,0Z"/>
  <path class="st9" d="M258,97.31v17.96c-3.98-.17-8.02.12-12,0,0-5.96.17-12.01,0-17.96,3.98.12,8.02-.17,12,0Z"/>
  <path class="st10" d="M375.75,282.2c-4.25,1.96-11.65,5.33-16.19,5.92-5.45.72-11.38-.75-16.06-.68l25.21-8.21c2.51-.19,5.39,1.12,7.04,2.97Z"/>
  <path class="st2" d="M11.25,169.92l9.75,10.47H6.75c.88-4.56,2.06-6.64,4.5-10.47Z"/>
  <path class="st7" d="M63.75,174.41c.74,1.72,1.17,4.11,1.5,5.99-4.74-.03-9.51.03-14.25,0l9.75-10.47c.79,1.18,2.51,3.36,3,4.49Z"/>
  <path class="st2" d="M6.75,192.37h14.25s-9.75,10.48-9.75,10.48c-2.44-3.84-3.61-5.91-4.5-10.48Z"/>
  <path class="st7" d="M65.25,192.37c-.33,1.88-.76,4.26-1.5,5.99-.49,1.13-2.21,3.31-3,4.49l-9.75-10.47h14.25Z"/>
  <path class="st7" d="M48,158.69c1.13.49,3.32,2.21,4.5,2.99l-10.49,9.73v-14.22c1.88.33,4.26.76,5.99,1.5Z"/>
  <path class="st7" d="M52.5,211.09c-3.78,2.45-6,3.63-10.5,4.49.6-4.32-.44-9.76,0-14.22l10.49,9.73Z"/>
  <path class="st9" d="M204,156.44l1.39,1.42c-1.28,11.24.78,23.09,14.93,21.21l1.68,1.33c-.16,6.7.37,15.37-8.23,17.61-2.93.76-15.19.79-18.35.3-4.29-.66-8.92-5.74-9.44-10.04-.48-4-.48-20.86.59-24.14,2.64-8.05,10.68-7.72,17.42-7.69Z"/>
  <path class="st9" d="M264,156.44l1.39,1.42c-1.28,11.24.78,23.09,14.93,21.21l1.68,1.33c-.16,6.7.37,15.37-8.23,17.61-2.93.76-15.19.79-18.35.3-4.29-.66-8.92-5.74-9.44-10.04-.48-4-.48-20.86.59-24.14,2.64-8.05,10.68-7.72,17.42-7.69Z"/>
  <path class="st6" d="M222,180.4c-17.63,2.2-19.28-9.56-18-23.95,6.27.03,12.17-.74,16.09,5.28,2.85,4.37,2.04,13.36,1.91,18.68Z"/>
  <path class="st6" d="M282,180.4c-17.63,2.2-19.28-9.56-18-23.95,6.27.03,12.17-.74,16.09,5.28,2.85,4.37,2.04,13.36,1.91,18.68Z"/>
  <path class="st8" d="M312,258.25v29.94c-27.99.11-56.01-.1-84,0v-29.94c27.97.18,56.03.24,84,0Z"/>
  <path class="st7" d="M30,215.58c-4.58-.89-6.65-2.06-10.5-4.49l10.49-9.73v14.22Z"/>
  <path class="st7" d="M30,157.19v14.22s-10.5-9.73-10.5-9.73c3.84-2.43,5.93-3.61,10.5-4.49Z"/>
  <path class="st8" d="M334.5,178.9c-1.7-.55-1.89-.96-3-1.5-2.67-4.17-10.53-7.69-6.35-13.46,6.78-9.37,27.59,15.01,9.35,14.95Z"/>
</svg>