<?xml version="1.0" encoding="UTF-8"?>
<svg id="Ebene_1" xmlns="http://www.w3.org/2000/svg" version="1.1" viewBox="0 0 384 384">
  <!-- Generator: Adobe Illustrator 29.5.1, SVG Export Plug-In . SVG Version: 2.1.0 Build 141)  -->
  <defs>
    <style>
      .st0 {
        fill: #bcc2c6;
      }

      .st1 {
        fill: #e47e25;
      }

      .st2 {
        fill: #7e8b8c;
      }

      .st3 {
        fill: #f19b1f;
      }

      .st4 {
        fill: #efc319;
      }

      .st5 {
        fill: #fefefe;
      }

      .st6 {
        fill: #94a4a4;
      }

      .st7 {
        fill: #393f4a;
      }
    </style>
  </defs>
  <path class="st7" d="M65.22,231.3c1.73-.43,3.46-.82,5.21-1.11s3.5-.57,5.25-.6c31.99-.62,64.03-.62,96.02,0,1.75.03,3.49.31,5.25.6s3.49.68,5.21,1.11c15.35.34,25.53.86,38.78,9.56,46.18,30.35,27.93,101.63-26.38,107.24-46.27-2.49-95.87,3.22-141.75,0-22.49-1.57-43.07-18.74-50.03-39.87l-2.79-10.32v-17.22c4.78-20.05,16.28-36.69,35.72-44.81,10.76-4.49,18.15-4.34,29.51-4.6Z"/>
  <path class="st6" d="M367.35,238.04c4.95.51,9.41,7.66,11.89,12.06,3.09,5.47,4.18,10.27,4.6,16.38.5,4.18-.37,9.18,0,13.47-5.88,33.64-43.63,50.58-72.22,30.56-3.89-2.73-6.26-5.83-9.5-8.86l-.71-1.42c19.98-20.43,39.97-40.87,59.97-61.32l2.97-.89c.95-1.94,2.1-1.96,3,0Z"/>
  <path class="st3" d="M371.84,199.86c5.84,2.11,10.06,8.65,11.99,14.22v8.98c-.3,7.77-8.73,16.93-16.49,14.97-.83.13-2.09.03-3,0-4.15,2.76-10.81-1.16-14.17-4.16s-7.93-9-5.32-13.06c-.19-1.65-.28-5.98,0-7.49-2.08-7.55,8.03-13.53,14.43-15.19,3.67-.95,10.63-2.05,12.56,1.72Z"/>
  <path class="st5" d="M383.84,266.48c-.15-1.26-1.42-5.21-1.91-6.7-2.7-8.25-7.98-16.19-14.59-21.74.71-.11,4.85-1.67,5.76-2.11,5.5-2.7,8.38-7.47,10.74-12.86v43.42Z"/>
  <path class="st4" d="M143.19,42.67l1.5.52-.03,88.91c.1,3.28,1.81,6.19,3.96,8.56l71.84,30.34.71,1.93,1.5.79c.7,7.18.88,19.88-.24,26.89-.74,4.65-1.85,6.27-5.76,9-8.92,3.9-24.33,2.17-34.49,2.25-38.88,2.63-78.07,2.62-116.95,0-8.26-.06-21.09,1.11-28.68-.18-5.38-.91-10-6.01-10.34-11.39,1.6-21.68-2-46.08,0-67.43.52-5.53,3.99-10.09,9.45-11.53,21.68-1.37,45.25,1.66,66.7-.02,7.19-.56,13.69-3.72,14.59-11.63,1.88-16.49-1.49-36.38-.03-53.17,1.37-15.82,14.31-13.58,26.27-13.82Z"/>
  <path class="st7" d="M221.16,94.32c2.42,26.09,2.48,52.51,0,78.6l-73.44-31.09c-2.52-2.58-4.45-5.96-4.56-9.67l.03-89.48c19.52-.39,45.14-1.65,64.12-.03,6.43.55,12.8,4.05,13.78,10.95,1.57,11.05.02,28.85.07,40.73Z"/>
  <path class="st1" d="M371.84,199.86c-10.01-3.61-24.95,2.53-26.99,13.47l-44.98-81.59.82-2.13c36.22-22.74,9.6-72.41-30.41-55.65l-2.64-.61c-4.49-9.42-17.47-22.97-7.9-32.96,2.28-2.38,4.98-3.44,8.24-3.75,11.41-1.07,38.3-1.25,49.51.03,6.12.7,9.96,5.46,11.24,11.23l43.11,151.95Z"/>
  <path class="st3" d="M299.87,131.74c-11.15,5.6-25.85,9.35-37.26,15.2l-37.4,56.6c-2.49,3.07-5.11,4.55-8.55,6.06l3.15-4.72c2.6-5.03,1.3-24.97,1.35-31.96.18-26.18.1-52.42,0-78.6,14.64-6.93,29.51-13.51,44.55-19.55.85-.34,1.55-1.25,1.93-1.41,50.34-19.78,69.11,39.86,32.24,58.39Z"/>
  <path class="st3" d="M182.17,211.84v19.46c-38.29-.85-78.66-.85-116.95,0v-19.46c38.95.27,78.01.29,116.95,0Z"/>
  <path class="st0" d="M364.35,238.04l-62.22,63.63c-6.14-5.73-12.08-11.64-18.04-17.56l-.63-2.13,61.39-61.16c1.14,9.8,9.84,16.85,19.49,17.22Z"/>
  <path class="st2" d="M56.83,244.25c44.69-3.67,94.73,1.52,139.78.72,51.86,10.38,48.66,83.82-3.65,90.29-44.64-2.29-92.91,3.38-137.12.13-55.63-4.09-58.01-86.28,1-91.13Z"/>
  <path class="st5" d="M167.72,75.75c2.55-.56,3.82-.04,5.83,1.35,3.36,2.32,24.29,23.22,26.61,26.57,4.56,6.57-2.16,14-9.7,8.93-3.37-2.27-23.08-21.96-25.54-25.4-3.03-4.26-3.04-10.17,2.79-11.45Z"/>
  <path class="st5" d="M186.45,63.04c1.64-.38,3.89-.44,5.45.23.56.24,8.07,7.79,8.6,8.62,3.91,6.2-2.39,11.94-8.57,9.31-.56-.24-8.06-7.78-8.6-8.62-2.11-3.32-.79-8.64,3.12-9.53Z"/>
  <path class="st7" d="M284.67,95.21c10.01-2.2,10.54,13.82.65,12.56-6.93-.88-7.57-11.04-.65-12.56Z"/>
  <path class="st0" d="M53.05,264.43c40.78-5.9,41.15,53.8,3.57,51.44-30.73-1.93-31.28-47.43-3.57-51.44Z"/>
  <path class="st0" d="M182.73,264.41c41.47-6.41,41,53.76,4.33,51.46-30.97-1.95-31.64-47.23-4.33-51.46Z"/>
  <path class="st0" d="M111.52,283.14c5.11-.74,22.18-.81,26.75.59,7.46,2.3,5.76,11.62-.75,12.64-3.82.6-24.83.66-28.29-.12-6.76-1.52-7.62-11.69,2.29-13.12Z"/>
</svg>