<?xml version="1.0" encoding="UTF-8"?>
<svg id="Ebene_1" xmlns="http://www.w3.org/2000/svg" version="1.1" viewBox="0 0 384 384">
  <!-- Generator: Adobe Illustrator 29.5.1, SVG Export Plug-In . SVG Version: 2.1.0 Build 141)  -->
  <defs>
    <style>
      .st0 {
        fill: #2ab02a;
      }

      .st1 {
        fill: #3bc33b;
      }

      .st2 {
        fill: #b25d23;
      }

      .st3 {
        fill: #28a928;
      }

      .st4 {
        fill: #964914;
      }

      .st5 {
        fill: #b15d23;
      }

      .st6 {
        fill: #a45016;
      }

      .st7 {
        fill: #3bc23b;
      }

      .st8 {
        fill: #fee069;
      }

      .st9 {
        fill: #c36627;
      }

      .st10 {
        fill: #41d541;
      }

      .st11 {
        fill: #1d1e1e;
      }

      .st12 {
        fill: #e7cc60;
      }
    </style>
  </defs>
  <path class="st10" d="M88.5,193.87l1.19,1.54c-5.79,13.88,14.52,23.12,25.03,27.57,33.04,14,71.68,16.97,107.26,15.62,1.35,1.06,3.11,1.62,5.27,1.68,2.84.58,5.09.33,6.75-.75.96-2.1,2.77-2.07,3.75,0,2.23.74,3.98.49,5.25-.75,3.26-2.58,9.74-3.24,13.5-1.5,2.62.63,7.11.16,9-1.5,1.8-2.51,4.87-3.11,7.5-1.5,4.26.76,9.18-.61,12.75-2.99-.46-2.07.1-2.3,1.5-.75,3.87-.22,7.82-.74,10.5-3.74.23-2.03.89-1.92,1.5,0,2.12.05,3.62-.69,4.5-2.25-.28-2.13.98-2.45,2.25-.75l1.23.55c1.76.2,19.09-11.1,21.3-13.24,1.53-2.11,3.02-4.12,4.47-6.03,6.3,2.66,16.23,4.62,23.09,5.77,6,1,12.23,1.1,18.16,2.46-16.13,14.07-35.9,23.55-56.64,29.2-8.15.91-4.72,12.81-2.61,17.96.15,3.03.67,5.76.75,8.98-2.51,2.88-3.57,6.59-3.19,11.14-.36,2.54-2.73,7.86-5.44,6.08-.06.59-.28,1.48-.7,1.5-13.85.46-30.21.71-43.99,0-2.76.51-4.49.02-5.19-1.5l-.64-1.88c4.04-4.96,6.74-10.19,8.02-16.41l1.62-.8c-.58-.07-1.45-.25-1.5-.67-.28-2.28-.27-9.42,0-11.74l1.5-1.07c-14.72,1.44-30.29,2.53-45.86,2.85-21.65-.57-43.04-.16-64.16,1.24-.82,5.95-1.16,12.1-1.02,18.45-.44,3.31-2.27,12.78-6.33,10.02-.06.59-.28,1.48-.69,1.5-13.61.46-29.79.71-43.33,0-2.75.51-4.45.01-5.11-1.5l-.99-1.53c6.7-9.1,9.57-19.87,7.94-31.27-22.84-4.44-48.69-12.54-59.55-35.19-1.79-7.15-4.82-13.07-9.09-17.77-4.71-1.57-6.64-3.93-5.8-7.06l-1.63-.6c-.77-4.56-4.34-4.68-10.73-.35-5.54,1.65-15.19,3.15-19.14-1.3-.13-.94.45-2.46-.75-2.99v-18.71c1.69-4.04,2.15-8.38,3.55-12.55,4.86-14.52,16.16-26.92,32.17-28.52,42.48-4.24,53.13,29.5,52.78,65.03Z"/>
  <path class="st1" d="M384,214.83v1.5c-13.84,24.15-42.97,34.77-68.25,42.67-2.64-.46-3.68-10.35-2.99-12.5.89-2.79,2.05-3.13,4.76-3.93,20.88-5.64,40.41-15.26,57.48-29.23,3.18-.21,6.16-.04,9,1.5Z"/>
  <path class="st8" d="M236.25,91.32c3.08-1.93,9.19,2.57,12.06,4.76,2.6,1.44,3.83,3.1,3.69,4.97,1.2,1.29.96,3.38-.72,6.27-.19,1.03-.31,2.62.15,3.56,5.34,10.76,12.02,22.33,18.41,32.49,5.36,2.26,11.4,1.98,18.14-.82l1.52,1.17c.6-.11,1.5-.26,1.73.14,2.31,3.94,5.77,11.18,7.4,15.45l-.88,1.63-.99,1.79c-8.31,1.31-16.24,3.5-23.8,6.58l-21.45,43.02c-.59,2.06-.47,4.25.54,6.15l-.8,1.59c-1.39.91-2.86,1.76-4.52,2.05-18.88,3.36-55.33,3.35-74.22,0-1.65-.29-3.13-1.14-4.52-2.05-.99-.97-1.04-2.33-.16-4.09-3.46-13.77-11.62-30.7-19.5-42.76-2.77-4.24-3.56-5-8.5-6.45-11.2-2.27-22.23-4.69-33.31-8.25-.7-.23-1.33-.69-1.98-1.17s-1.24-1.06-1.81-1.65c2.88-6.11,5.49-11.42,9-17.22l2.26-.89c8.51,2.88,17.02,5.46,25.81,7.32,2.05.43,7.71.92,8.93-1.01,6.93-10.93,13.38-22.73,19.17-34.15-1.83-6.29-4.3-12.44-7.43-18.43,6.23-3.08,12.77-5.71,19.5-7.49l1.69.33c1.45,7.22,4.86,12.09,10.23,14.6,5.03,1.09,33.61,1.23,37.5-.66,1.37-.67,2.45-2.22,3.3-3.46.85-2.38,2.03-3.49,3.53-3.32Z"/>
  <path class="st6" d="M168,220.07c26.29,3.36,56.96,3.38,83.25,0l4.59-2.16c17.5-2.97,34.6-7.5,51.29-13.58l2.62.02.28,2.41c-8.45,19.73-63.2,30.84-83.35,31.97l.57.8c.65.21.65.46,0,.75-11.68-.65-23.95.58-35.66.03-27.57-1.29-76.19-9.37-97.49-27.71-7.99-6.88-7.94-8.47-5.61-18.73.18-.79,1.29-2.16,1.5-2.99l3.28.82c20.41,16.28,46.51,22.87,71.92,26.49l2.8,1.88Z"/>
  <path class="st9" d="M168,220.07c-26.9-3.44-57.41-11.01-78-29.19,3.39-13.42,6.91-22.78,12.75-35.18,6.36,2.13,12.84,4.11,19.34,5.78,6.31,1.62,15.82,2.71,21.34,4.9,2.58,1.02,3.73,2.29,5.21,4.53,4.7,7.08,16.93,31.48,19.71,39.46,1.44,4.13,1.49,5.64-.36,9.72Z"/>
  <path class="st9" d="M160.5,91.32c1.82-.4,1.55.92,2.11,1.97,1.84,3.46,7.3,12.97,6.87,16.3-.22,1.69-2.01,4.51-2.85,6.19-4.91,9.76-11.5,19.33-16.69,29-2.42,2.33-5.32,2.2-8.49,1.85-9.15-1.01-20.74-5.58-29.7-8.15,12.23-20.18,27.27-36.54,48.75-47.16Z"/>
  <path class="st9" d="M239.25,83.84c1.88,1.57-.48,7.83-3,7.49-1.75,3.44-3.97,7.99-8.05,8.81-5.1,1.03-30.97.89-36.51.1-6.75-.96-9.79-10.71-11.69-16.4,19.11-5.04,40.12-5.04,59.25,0Z"/>
  <path class="st2" d="M306.75,137.73l.82,2.14c-.05.9-15.05,5.13-17.32,3.1-.77.43-1.69.56-2.74.41-9.19-15.2-20.42-28.42-33.68-39.65l-1.07-2.68c-2.11-2.19,2.09-10.85,5.25-9.73,21.36,10.56,36.45,26.22,48.75,46.41Z"/>
  <path class="st4" d="M331.5,204.35c1.42,2.26-2.12,6.08-4.06,7.78-5.15,4.51-14.12,9.21-20.62,12.4l-.82-.72c-.6.27-1.47.42-2.25.75-.58,1.65-2.08,2.4-4.5,2.25-.49.01-1.06-.08-1.5,0-2.26,3.04-6.91,3.59-10.5,3.74-.89.23-1.42.73-1.5.75-3.58,2.41-8.48,3.77-12.75,2.99-2.46.55-5.03,1.02-7.5,1.5-1.91,1.61-6.39,2.18-9,1.5-4.63.69-8.84,1.09-13.5,1.5-1.04,1.37-2.79,1.62-5.25.75-1.24.07-2.5-.04-3.75,0-1.66,1.42-3.91,1.42-6.75,0-1.49-.03-3,.03-4.5,0-.2-.98,1.38-1.19,2.05-1.3,24.77-4.04,71.59-10.32,84.94-33.87-.92-1.19-.52-1.57.75-.75v-1.74c5.65-3.06,11.02-6.64,16.1-10.74l2.65-.25c.95,3.71,3.22,10.06,2.25,13.47Z"/>
  <path class="st5" d="M316.5,155.7c5.28,11.29,9.64,23.08,12.75,35.18-2.54,2.09-5,4.26-7.71,6.15-2.99,2.08-8.91,4.7-11.04,6.57l-1.63-.26c-3.86-13.71-7.71-27.43-11.57-41.15l1.2-1.26c4.98-3.68,11.82-5.76,18-5.24Z"/>
  <path class="st12" d="M316.5,155.7c-5.98,1.79-11.96,3.64-18,5.24-.2.66-.45.65-.75,0l-8.25-17.22c-1.18-.6-.93-.85.75-.75,4.8-1.14,9.51-1.95,14.26-3.39,1.23-.37,2.67.16,2.24-1.85,3.63,5.95,6.79,11.62,9.75,17.96Z"/>
  <path class="st10" d="M374.25,213.33c.24-.04.5.02.75,0-10.92,12.58-27.21,20.09-42.56,26.01-3.06,1.18-16.21,4.76-17.45,5.79-1.14.94-.84,3.77-.77,5.28.13,2.66,1.39,6.29,1.53,8.58.02.36-.77,1.18-.75,1.5-1.53.02-2.22-.9-2.66-2.21-.98-2.92-2.09-13.01-.01-15.05,1.46-1.43,14.6-4.88,17.86-6.13,8.79-3.37,17.96-7.36,26-12.22,4.59-2.77,13.85-10.93,18.06-11.54Z"/>
  <path class="st12" d="M258,91.32c-2.6,2.32-4.07,6.5-5.25,9.73-.25.65-.5.65-.75,0-1.94-1.4-3.64-3.28-6.06-4.8-3.04-1.91-6.18-3.94-9.69-4.93,1.08-2.11,2.11-5.2,3-7.49,6.83,1.8,12.55,4.42,18.75,7.49Z"/>
  <path class="st10" d="M333,205.1c-.36,2.89-2.65,6.56-4.98,8.14-.94.64-2.68.56-3.12,1.04-.33.35.02,1.54-.28,1.86-.69.75-2.98.12-3.63.63-3.39,2.66-7.42,6.51-11.96,8.2-1.17.43-3.52,1.25-3.03-1.16,7.23-3.28,23.26-11.54,25.5-19.46.51.22.99.53,1.5.75Z"/>
  <path class="st1" d="M95.25,285.94c1.84,1.07,3.84,1.95,6,2.64,12.36,1.29,25.02,1.29,37.48.74,14.91-.66,15.85-2.76,16.92-17.45.29-3.97.35-7.94-.21-11.85.33-1.58,1.46-2.21,3-2.26,34.82.87,69.42-.19,103.81-3.18l1.9.65c1.21,1.67,1.42,13.98-1.64,14.99-.65.46-1.32.89-2.03,1.23-3.45,1.65-24.44,3.71-28.01,2.67-.76-.22-1.49-.55-2.21-.9-4.23.16-8.52-.07-12.75,0-20.15-.53-40.15-.28-60,.75.56,4.31-.44,8.59-.75,12.73-2.1,6.17-8.52,6.91-14.39,7.1-14.13.58-28.46.95-42.51-.48-2.97-.62-7.43-2.72-5.35-5.87-1.62-1.29-1.28-1.82.75-1.5Z"/>
  <path class="st10" d="M32.25,193.87c.08.09,1.43-.34,1.55.49.11.73-.91,1.97-.49,2.55s3.03,1.18,4.15,1.87c7.69,4.74,6.42,9.02,9.43,16.04,11.01,25.73,35.76,32.08,60.77,38.15,1.74,8.76.7,17.95-3.27,25.99-1.3,2.63-3.68,4.99-4.63,7.73h49.12c3.87,0,5.19-11.78,5.34-14.73.14-2.68-1.76-14.02,1.51-15.12.87-.29,8.61-.79,10.37-.88,27.45-1.36,53.9.56,81.78-1.47,2.21-.16,18.38-3.18,18.38-.37v13.47c0,1.71-2.33,8.34-3.22,10.26-1.56,3.37-4.07,5.66-5.78,8.83h49.88c.65,0,3.29-3.5,3.63-4.61,1.22-3.99-.82-12.6,5-12.6.06,2.48,0,5,0,7.49l-1.29,4.67c.09,10.22-10.08,10.61-18,10.61-6.73.27-37.14.74-41.52-1.99-1.45-.9-2.68-1.72-2.19-3.56l-.56-1.79c4.11-4.03,6.97-8.62,8.57-13.76l1.74-.92c1.01-4.86.81-9.22.75-14.23l-35.6,3.03-69.03-.03c-3.28.6-1.07,2.81-1.2,4.78-.34,5.24-.28,13.97-1.63,18.59-1.66,5.68-5.84,7.61-11.4,8.08-10.43.89-30.09.89-40.51-.04-2.9-.26-8.23-.84-8.64-4.48l-.5-1.8c3.81-3.81,6.4-8.18,7.75-13.11l1.75-.81c-.05-.77-.44-1.36-1.12-1.8.86-4.1,1.32-8.19,1.38-12.28-28.45-4.39-56.72-17.3-64.28-47.15-2.27-5.17-6.7-8.13-13.29-8.89l.06-1.75c-.24-2.14,3.17-5,5.25-4.49Z"/>
  <path class="st7" d="M104.25,270.22c-5.46-.47-26.87-5.09-29.22-8.28-.32-.44-.56-.94-.78-1.45-5.69-2.65-11.07-6.46-15.75-10.48-.79-2.58-2.6-4.55-5.25-5.24-.39-.45-.94-.79-1.5-1.5-.58-2.44-1.58-3.94-3-4.49-1.01-1.65-2.18-3.05-3.01-4.86-2.81-6.11-3.28-14.86-9.33-18.39-4.52-2.64-15.94-1.63-22.17-4.07-2.89-1.14-4.74-2.65-6.75-4.87l-1.07-3.61c2.62.21,4.97-.08,7.07-.88,1.38-1.6,3.57-2.47,6.56-2.63,2.61-1.35,4.92-1.72,6.94-1.12,2.55,1.93,5.89,1.36,8.78,2.84,6.54,3.35,8.3,16.21,12.36,22.85,12.03,19.71,36.04,26.59,57.29,31.15.95,5.02,0,10.15-1.18,15.02Z"/>
  <path class="st3" d="M104.25,270.22c-2.1,8.68-4.1,9.29-9,15.72-.43.56-.5,1.08-.75,1.5l.54,1.59c-3.65,4.03-.15,10.59,3.79,13.43.11,1,.11,1.26-.33,2.11-.63,1.19-24.16-.03-26.95-.26-.87-.07-1.71-.2-2.55-.4-3.96-1.01-6.92-3.18-7.92-7.43-2.32-9.85,6.22-12.25,9.78-19.53,2.39-4.89,3.32-11.02,3.39-16.45,8.59,4.01,17.77,5.7,26.88,7.97,1.23.31,2.66.28,3.12,1.76Z"/>
  <path class="st0" d="M262.5,270.22c-1.89,9.09-5.27,10-9.75,16.47l.69,1.69c-3.38,5.46-1.31,10.81,3.87,14.15.25.83.1,1.52-.56,2.04-9.87.33-19.7.11-29.5-.66-3.86-.91-7.19-3.03-8.08-7.28-2.41-11.6,9.16-13.18,11.08-23.41,10.77-.41,21.55-1.83,32.25-2.99Z"/>
  <path class="st7" d="M315.75,279.95l-.75,7.49c-.14,7.28-.03,15.18-8.81,17.04-24.6-1.3-52.14,2.33-76.41.23-1.46-.13-1.87-.64-2.54-.8h29.25c-.91-1.4-2.5-1.82-3.74-3.37-3.5-4.39-3.06-9.43,0-13.84,1.2.6,1.98,1.86,3.21,2.41,4.68,2.09,41.35,2.05,48.08,1.25,3.12-.37,6.05-1.44,7.96-4.03,2.38-3.22,1.44-6.5,3.74-9.36,0,1,0,2,0,2.99Z"/>
  <path class="st7" d="M156.75,286.69c-.59,7.9,1.4,15.3-8.81,17.79-24.51-1.38-52.27,2.44-76.41.23-1.46-.13-1.82-.62-2.54-.8h29.25c-4.43-3.46-7.15-7.79-5.84-13.7.43-1.93,1.65-2.05,2.09-2.77.81,2.82,3.6,4.18,6.36,4.51,9.97,1.19,35.63,1.02,45.81.02,2.36-.23,4.62-1.06,6.61-2.39,1.64-1.1,1.54-3.06,3.48-2.89Z"/>
  <path class="st11" d="M32.25,193.87c-1.37,1.87-3.22,3.37-5.25,4.49-3.9,2.15-9.05,3.43-13.5,3.74-2.68.87-7.28,2-9,0-1.81-3.4-3.22-6.51-3.75-10.48,7.15,1.72,12.46,2.01,19.48-.39,3.75-1.28,7.44-5.79,10.88-1.09.98,1.33,1.01,3.58,1.14,3.73Z"/>
  <path class="st10" d="M217.5,273.22l-60,.75c.08-1.03,1.1-.69,1.83-.78,16.55-2.05,40.59.33,58.17.03Z"/>
  <path class="st7" d="M13.5,202.11c-.45,2.57-5.52,1.04-6,1.49v3c-1.37-1.52-2.05-2.72-3-4.49,2.98-.14,6.03.21,9,0Z"/>
  <path class="st7" d="M58.5,250.01c-2.16-1.86-3.38-3.09-5.25-5.24,1.48-2.31,7.33,3.26,5.25,5.24Z"/>
  <path class="st7" d="M48.75,238.78l.38-.74c1.65-.26,2.45,3.49,2.62,5.23-1.3-1.64-1.94-2.78-3-4.49Z"/>
  <path class="st10" d="M315,287.44c.05-2.37-.65-5.75.75-7.49-.01,2.35.62,5.76-.75,7.49Z"/>
  <path class="st11" d="M37.31,149.12c11.45-2.22,13.62,15.77,2.75,17.04-10.72,1.26-13.18-15.01-2.75-17.04Z"/>
  <path class="st10" d="M285.75,231.3c-.61,3.03-11.09,5.84-12.75,2.99,4.13-.92,8.72-1.96,12.75-2.99Z"/>
  <path class="st10" d="M287.25,230.55c2.93-.77,8.08-3.31,10.5-3.74.12,4.57-7.49,4.73-10.5,3.74Z"/>
  <path class="st10" d="M265.5,235.79c-.18,3.58-2.54,1.48-4,1.72-1.59.26-2.41,2.63-5-.22,2.89-.43,6.12-.95,9-1.5Z"/>
  <path class="st10" d="M234,239.53c.11,1.95-1.44,2.65-3.27,2.25-.57-.12.37-1.29-3.48-1.51v-.75c2.23.05,4.52.08,6.75,0Z"/>
  <path class="st10" d="M243,238.78c-.5,3.97-2.89,1.54-5.25.75,1.01-.05,3.51-.6,5.25-.75Z"/>
  <path class="st10" d="M299.25,226.81c1.31-.97,3-1.61,4.5-2.25.1,4.78-2.48,2.19-4.5,2.25Z"/>
  <path class="st9" d="M189.55,119.19c9.22.02,18.36.74,27.61.61,7.77-.12,12.95-3.83,18.19,4.23s13.55,22.32,17.31,30.63c.99,2.19,1.88,3.81,1.27,6.27-1.3,5.29-17.05,36.56-20.53,41.69-2.08,3.05-4.4,3.68-7.99,4-8.17.72-22.56.61-30.81,0-4.53-.33-6.86-.88-9.49-4.75-4.45-6.55-10.46-20.29-14-27.95-2.16-4.67-7.05-12.84-5.75-17.51,6.58-10.09,11.54-22.14,18.08-32.1,1.73-2.63,2.7-4.51,6.12-5.12Z"/>
  <path class="st9" d="M298.5,160.94l12,42.67c-.28.25-.53.36-.75.75-18.7,7.66-38.38,13.13-58.5,15.72-1.65-2.49-2.02-5.36-1.14-8.26l21.38-43.03c.81-1.2,1.89-1.58,3.16-2.09,5.87-2.34,16.39-4,23.1-5.76.23-.06.52.06.75,0Z"/>
  <path class="st9" d="M290.25,142.97c-.22.05-.52.69-.75.75-5.87,1.34-16.91,5.35-21.01.38-6.81-8.24-11.88-23.49-18.38-32.55-1.52-4.07.74-6.9,1.89-10.5.16.12.59-.12.75,0,17,12.5,22.99,23.32,34.77,39.78.76,1.06,1.07,2.23,2.73,2.14Z"/>
</svg>