<?xml version="1.0" standalone="no"?>
<!DOCTYPE svg PUBLIC "-//W3C//DTD SVG 20010904//EN" "http://www.w3.org/TR/2001/REC-SVG-20010904/DTD/svg10.dtd">
<!-- Created using Krita: https://krita.org -->
<svg xmlns="http://www.w3.org/2000/svg" 
    xmlns:xlink="http://www.w3.org/1999/xlink"
    xmlns:krita="http://krita.org/namespaces/svg/krita"
    xmlns:sodipodi="http://sodipodi.sourceforge.net/DTD/sodipodi-0.dtd"
    width="437.76pt"
    height="421.2pt"
    viewBox="0 0 437.76 421.2">
<defs/>
<path id="shape0" transform="matrix(0.820841870346169 0 0 0.823934406014415 4.32 2.85394585836724)" fill="#d7e6ef" stroke-opacity="0" stroke="#000000" stroke-width="0" stroke-linecap="square" stroke-linejoin="bevel" d="M277.741 1.34241C421.85 -15.4345 529.901 128.149 533.306 258.274C533.12 393.625 431.348 506.488 275.771 511.237C122.889 507.283 8.3403 429.95 0 253.958C4.534 106.92 136.587 -13.4441 277.741 1.34241Z" sodipodi:nodetypes="ccccc"/><path id="shape1" transform="matrix(1.18808896051423 0 0 1.14501932939621 101.896366604686 41.6382723186189)" fill="#923c4d" stroke-opacity="0" stroke="#000000" stroke-width="0" stroke-linecap="square" stroke-linejoin="bevel" d="M176 0C175.393 2.80709 174.553 5.07506 173.145 7.57422C172.772 8.23784 172.399 8.90147 172.015 9.58521C171.618 10.279 171.221 10.9727 170.813 11.6875C170.41 12.3999 170.007 13.1124 169.592 13.8464C166.941 18.4909 164.137 22.9676 160.996 27.3008C159.747 29.1031 159.747 29.1031 160 32C167.106 31.6169 167.106 31.6169 173.813 29.4375C176.908 28.0413 178.669 27.6972 182 28C181.632 36.8329 176.203 42.1231 170 48C169.278 48.7631 168.556 49.5262 167.813 50.3125C166 52 166 52 164 52C164.287 53.5564 164.574 55.1126 164.864 56.6685C165.128 58.0907 165.388 59.5136 165.646 60.937C166.357 64.8099 167.136 68.64 168.09 72.4609C175.879 104.735 170.963 136.327 154.117 164.612C149.014 172.858 143.05 180.437 137 188C136.08 189.17 135.161 190.341 134.242 191.512C129.782 197.112 129.782 197.112 128 199C127.34 199 126.68 199 126 199C125.752 199.619 125.505 200.238 125.25 200.875C123.763 203.404 122.563 203.718 120 205C119.711 205.598 119.422 206.196 119.125 206.813C118 209 118 209 115.01 211.134C112.246 213.395 104.107 212.684 103.137 216.403C103.006 217.845 103.358 216.734 90.7932 224.751C90.6605 226.422 54.8347 249.287 48.6743 252.582C47.9078 252.988 47.1413 253.394 46.3516 253.813C45.566 254.231 44.7805 254.65 43.9712 255.082C42 256 42 256 40 256C40.66 248.74 41.32 241.48 42 234C39.9175 235.303 39.9175 235.303 37.793 236.633C18.6977 248.545 18.6977 248.545 10 253C8.83211 253.613 8.83211 253.613 7.64063 254.238C2.28802 257 2.28802 257 0 257C1.92006 248.767 4.28871 240.814 7.08984 232.84C7.47564 231.729 7.86144 230.618 8.25893 229.473C9.48026 225.959 10.7088 222.448 11.9375 218.938C12.7576 216.58 13.5773 214.223 14.3965 211.865C20.3757 194.684 20.3757 194.684 22.9678 187.621C25.3369 181.131 27.5324 174.585 29.7383 168.039C30.8834 164.662 32.032 161.286 33.18 157.91C34.3655 154.421 35.5468 150.931 36.7195 147.438C37.8681 144.018 39.0282 140.602 40.1958 137.188C40.8411 135.292 41.4746 133.392 42.1077 131.491C48.8621 111.829 48.8621 111.829 55.8125 105.063C60.7916 98.0917 60.0346 87.6982 60.6914 79.3564C63.9486 38.2411 63.9486 38.2411 77.3242 26.4297C77.8772 25.9579 78.4302 25.4861 79 25C79.6355 24.3426 80.271 23.6852 80.9258 23.0078C90.735 13.5127 103.672 10.3621 116.913 10.4548C127.28 10.8455 135.985 14.4759 144 21C147.897 19.434 150.111 16.927 152.938 13.875C158.894 7.67699 167.075 0 176 0Z" sodipodi:nodetypes="cccccccccccccccccccccccccccccccccccccccccccccccccccccc"/><path id="shape2" transform="matrix(1.18808896051423 0 0 1.14501932939621 149.419925025255 143.544992634881)" fill="#7a0d2f" stroke-opacity="0" stroke="#000000" stroke-width="0" stroke-linecap="square" stroke-linejoin="bevel" d="M98 0C100.02 0.601837 102.021 1.27306 104 2C104.495 2.99 104.495 2.99 105 4C105.66 4 106.32 4 107 4C106.67 4.99 106.34 5.98 106 7C108.128 9.34059 110.116 10.707 113 12C114.32 10.68 115.64 9.36 117 8C117.99 8.33 118.98 8.66 120 9C119.424 12.3386 118.409 13.691 116 16C115.505 17.485 115.505 17.485 115 19C116.46 18.7176 117.918 18.4237 119.375 18.125C120.187 17.9626 120.999 17.8002 121.836 17.6328C124.187 17.1334 124.187 17.1334 126 15C126.402 15.9591 126.402 15.9591 126.813 16.9375C127.887 19.3313 127.887 19.3313 131 20C131.754 50.4037 115.296 76.1267 97 99C96.0802 100.17 95.1609 101.341 94.2422 102.512C89.7824 108.112 89.7824 108.112 88 110C87.34 110 86.68 110 86 110C85.7525 110.619 85.505 111.237 85.25 111.875C83.7626 114.404 82.5632 114.718 80 116C79.7113 116.598 79.4225 117.196 79.125 117.813C78 120 78 120 75.0095 122.134C72.2456 124.395 72.0012 124.995 71.0315 128.714C70.9004 130.156 70.7991 131.601 70.7227 133.047C70.6588 133.831 70.5949 134.615 70.5291 135.424C70.3963 137.094 64.3553 125.002 64.2465 126.674C64.0812 129.206 34.1129 153.449 35.4729 142.909C29.3077 146.196 14.8347 160.287 8.67432 163.582C7.90781 163.988 7.1413 164.394 6.35156 164.813C5.56604 165.231 4.78052 165.65 3.97119 166.082C2 167 2 167 0 167C0.252709 162.325 0.604235 157.665 1 153C1.04125 152.125 1.0825 151.249 1.125 150.348C1.54948 146.574 2.3026 144.649 5.12109 142.027C8.01815 139.912 11.0017 137.969 14 136C16.3023 134.29 18.5579 132.522 20.8125 130.75C23.882 128.355 26.9232 126.051 30.1758 123.91C32.571 122.29 34.4092 120.778 36.375 118.688C41.1763 113.737 46.3047 108.915 52 105C52.66 105 53.32 105 54 105C54.0825 104.402 54.165 103.804 54.25 103.188C55.2158 100.371 56.4887 99.522 59 98C59.66 98 60.32 98 61 98C61 97.34 61 96.68 61 96C62.3223 94.6558 63.6589 93.3255 65 92C67.4189 89.0477 69.7109 85.9944 72.0215 82.957C72.4901 82.3499 72.9586 81.7427 73.4414 81.1172C73.8611 80.5666 74.2807 80.016 74.7131 79.4487C76 78 76 78 79 76C80.2142 74.0534 80.2142 74.0534 81.1875 71.875C81.7038 70.7883 81.7038 70.7883 82.2305 69.6797C82.4844 69.1254 82.7384 68.5711 83 68C83.6188 68.8044 84.2375 69.6088 84.875 70.4375C86.7416 73.0387 86.7416 73.0387 89 74C89.1856 73.1338 89.1856 73.1338 89.375 72.25C90.0065 69.9766 90.8886 68.0746 92 66C90.8244 66.3094 90.8244 66.3094 89.625 66.625C88.7587 66.7488 87.8925 66.8725 87 67C86.34 66.34 85.68 65.68 85 65C85.5902 63.3491 86.1977 61.7044 86.8125 60.0625C87.1489 59.146 87.4854 58.2295 87.832 57.2852C89 55 89 55 92 54C91.8157 53.2743 91.6313 52.5485 91.4414 51.8008C90.9775 48.8575 91.2286 47.0556 91.9375 44.1875C93.858 35.3428 92.8901 27.5209 90.375 18.8438C89.8652 16.3373 90.705 15.1329 92 13C92.33 13 92.66 13 93 13C93.33 12.34 93.66 11.68 94 11C94.9802 9.98059 95.978 8.97754 97 8C96.01 5.525 96.01 5.525 95 3C95.99 2.34 96.98 1.68 98 1C98 0.67 98 0.34 98 0Z" sodipodi:nodetypes="ccccccccccccccccccccccccccccccccccccccccccccccccccccccccccccccccccccccccc"/><path id="shape3" transform="matrix(1.18808896051423 0 0 1.14501932939621 172.826350217796 41.6382723186188)" fill="#7b0d2f" stroke-opacity="0" stroke="#000000" stroke-width="0" stroke-linecap="square" stroke-linejoin="bevel" d="M116.299 0C115.692 2.80709 114.852 5.07506 113.444 7.57422C113.071 8.23784 112.698 8.90147 112.314 9.58521C111.918 10.279 111.521 10.9727 111.112 11.6875C110.709 12.3999 110.306 13.1124 109.891 13.8464C107.24 18.4909 104.437 22.9676 101.295 27.3008C100.046 29.1031 100.046 29.1031 100.299 32C107.405 31.6169 107.405 31.6169 114.112 29.4375C117.208 28.0413 118.968 27.6972 122.299 28C121.931 36.8329 116.502 42.1231 110.299 48C109.577 48.7631 108.855 49.5262 108.112 50.3125C106.299 52 106.299 52 104.299 52C104.586 53.5571 104.874 55.114 105.163 56.6707C105.426 58.0858 105.686 59.5013 105.945 60.9172C106.68 64.8921 107.476 68.8392 108.389 72.7773C111.159 85.0032 111.751 96.4838 111.299 109C108.432 108.427 107.438 108.139 105.299 106C103.814 106.495 103.814 106.495 102.299 107C99.969 107.355 97.6358 107.691 95.2991 108C95.8777 104.644 96.9391 103.36 99.2991 101C99.2991 100.01 99.2991 99.02 99.2991 98C96.8311 99.1517 95.2513 100.048 93.2991 102C89.9332 100.557 87.7886 98.6674 85.2991 96C85.9591 95.67 86.6191 95.34 87.2991 95C87.2991 94.34 87.2991 93.68 87.2991 93C85.8141 93.495 85.8141 93.495 84.2991 94C84.2991 93.01 84.2991 92.02 84.2991 91C82.8141 91.495 82.8141 91.495 81.2991 92C80.6391 91.34 79.9791 90.68 79.2991 90C77.7366 91.312 77.7366 91.312 76.2991 93C76.2991 93.99 76.2991 94.98 76.2991 96C76.9591 96.33 77.6191 96.66 78.2991 97C76.6491 98.65 74.9991 100.3 73.2991 102C73.9591 102 74.6191 102 75.2991 102C74.9691 102.66 74.6391 103.32 74.2991 104C73.6391 104 72.9791 104 72.2991 104C71.6391 104.66 70.9791 105.32 70.2991 106C69.9691 105.01 69.6391 104.02 69.2991 103C68.6391 103 67.9791 103 67.2991 103C65.2991 100 65.2991 100 65.2991 97C64.3091 97 63.3191 97 62.2991 97C62.2991 96.34 62.2991 95.68 62.2991 95C61.2376 94.8298 61.2376 94.8298 60.1546 94.6563C57.0651 93.9462 54.4899 92.822 51.6116 91.5C39.5081 86.4139 26.684 87.5332 14.3968 92.0117C10.4039 93.8929 6.86937 96.4263 3.2991 99C1.8141 99.99 1.8141 99.99 0.299097 101C-0.487828 78.6164 -0.824419 47.9729 14.1702 29.7227C15.8178 28.0467 17.5125 26.5243 19.2991 25C19.9346 24.3426 20.5701 23.6852 21.2249 23.0078C31.0341 13.5127 43.9711 10.3621 57.2119 10.4548C67.5793 10.8455 76.2838 14.4759 84.2991 21C88.1962 19.434 90.4099 16.927 93.2366 13.875C99.1926 7.67699 107.374 0 116.299 0Z" sodipodi:nodetypes="cccccccccccccccccccccccccccccccccccccccccccccccccccccc"/><path id="shape4" transform="matrix(1.18808896051423 0 0 1.14501932939621 258.724109392564 41.6382723186188)" fill="#780c2d" stroke-opacity="0" stroke="#000000" stroke-width="0" stroke-linecap="square" stroke-linejoin="bevel" d="M44 0C43.3932 2.80709 42.5528 5.07506 41.1445 7.57422C40.7719 8.23784 40.3993 8.90147 40.0154 9.58521C39.6184 10.279 39.2215 10.9727 38.8125 11.6875C38.4097 12.3999 38.007 13.1124 37.592 13.8464C34.9409 18.4909 32.1374 22.9676 28.9961 27.3008C27.7471 29.1031 27.7471 29.1031 28 32C35.1064 31.6169 35.1064 31.6169 41.8125 29.4375C44.9084 28.0413 46.6692 27.6972 50 28C49.632 36.8329 44.2034 42.1231 38 48C37.2781 48.7631 36.5562 49.5262 35.8125 50.3125C34 52 34 52 32 52C32.2871 53.5571 32.5746 55.114 32.864 56.6707C33.1267 58.0858 33.3872 59.5013 33.6458 60.9172C34.381 64.8921 35.177 68.8392 36.0898 72.7773C38.86 85.0032 39.4524 96.4838 39 109C36.1328 108.427 35.1385 108.139 33 106C31.515 106.495 31.515 106.495 30 107C27.6699 107.355 25.3367 107.691 23 108C23.5786 104.644 24.64 103.36 27 101C27 100.01 27 99.02 27 98C24.532 99.1517 22.9522 100.048 21 102C17.6341 100.557 15.4895 98.6674 13 96C13.99 95.505 13.99 95.505 15 95C15 94.34 15 93.68 15 93C13.515 93.495 13.515 93.495 12 94C12 93.01 12 92.02 12 91C11.34 90.67 10.68 90.34 10 90C10.33 89.01 10.66 88.02 11 87C11.99 87 12.98 87 14 87C15.7171 84.555 15.7171 84.555 17 82C15.02 82.99 15.02 82.99 13 84C12.34 82.35 11.68 80.7 11 79C10.01 79.495 10.01 79.495 9 80C8.67 79.34 8.34 78.68 8 78C7.01 77.67 6.02 77.34 5 77C5 75.68 5 74.36 5 73C5.66 73 6.32 73 7 73C8.06877 70.8625 8.72774 69.3822 9 67C7.64599 64.2702 7.64599 64.2702 6 62C6.66 61.01 7.32 60.02 8 59C7.01 59.495 7.01 59.495 6 60C4.02 58.68 2.04 57.36 0 56C0.66 54.35 1.32 52.7 2 51C3.32 52.32 4.64 53.64 6 55C6.99 54.505 6.99 54.505 8 54C8.66 54 9.32 54 10 54C12.1485 53.468 12.1485 53.468 14 52C14.74 48.9773 14.74 48.9773 15 46C15.495 45.505 15.495 45.505 16 45C15.5907 42.946 15.5907 42.946 15 41C16.98 40.505 16.98 40.505 19 40C19 39.34 19 38.68 19 38C19.66 38 20.32 38 21 38C21 38.99 21 39.98 21 41C21.66 41 22.32 41 23 41C23.33 41.99 23.66 42.98 24 44C26.475 43.505 26.475 43.505 29 43C29.33 44.98 29.66 46.96 30 49C37.089 44.8503 41.9213 39.0853 46 32C45.2266 32.3004 44.4531 32.6007 43.6563 32.9102C37.2384 35.2533 32.689 36.7027 26 35C25.01 34.34 24.02 33.68 23 33C23.5013 27.8569 26.1149 24.273 28.875 20.0625C31.85 15.4714 34.6563 10.959 37 6C36.4457 6.43313 35.8914 6.86625 35.3203 7.3125C34.5959 7.86937 33.8714 8.42625 33.125 9C32.4057 9.55687 31.6864 10.1137 30.9453 10.6875C29 12 29 12 27 12C27 12.66 27 13.32 27 14C25.3906 15.6563 25.3906 15.6563 23.25 17.5C22.5539 18.1084 21.8578 18.7169 21.1406 19.3438C19.1554 20.8798 17.2813 21.9724 15 23C15.7746 16.6241 22.3067 11.9375 27 8C37.7283 0 37.7283 0 44 0Z" sodipodi:nodetypes="ccccccccccccccccccccccccccccccccccccccccccccccccccccccccccccccccccccccccccc"/><path id="shape5" transform="matrix(1.18808896051423 0 0 1.14501932939621 149.419925025255 267.207080209672)" fill="#7b0e30" stroke-opacity="0" stroke="#000000" stroke-width="0" stroke-linecap="square" stroke-linejoin="bevel" d="M50 0C50.625 2.8125 50.625 2.8125 51 6C50.34 6.99 49.68 7.98 49 9C49.99 9 50.98 9 52 9C53.32 9 54.64 9 56 9C56.33 8.01 56.66 7.02 57 6C57.66 6.33 58.32 6.66 59 7C59 7.99 59 8.98 59 10C59.99 10.66 60.98 11.32 62 12C61.34 12.66 60.68 13.32 60 14C60.99 14 61.98 14 63 14C63.4744 14.9694 63.9488 15.9388 64.4375 16.9375C65.7019 19.8048 65.7019 19.8048 67 21C67.0406 22.6662 67.0427 24.3339 67 26C66.01 24.515 66.01 24.515 65 23C64.1933 23.5357 64.1933 23.5357 63.3704 24.0823C53.9793 30.3012 44.6629 36.4629 34.6445 41.6328C32.3326 42.8281 30.1053 44.0984 27.875 45.4375C25 47 25 47 22 47C22 48.65 22 50.3 22 52C21.67 51.01 21.34 50.02 21 49C20.4349 49.3029 19.8698 49.6059 19.2876 49.918C16.7357 51.2829 14.1804 52.6415 11.625 54C10.7355 54.477 9.84609 54.9539 8.92969 55.4453C8.07891 55.8965 7.22812 56.3477 6.35156 56.8125C5.56604 57.2314 4.78052 57.6504 3.97119 58.082C2 59 2 59 0 59C0.252709 54.3249 0.604235 49.6651 1 45C1.04125 44.1247 1.0825 43.2495 1.125 42.3477C1.54948 38.5737 2.3026 36.6486 5.12109 34.0273C8.01815 31.9124 11.0017 29.9685 14 28C16.3023 26.2899 18.5579 24.5223 20.8125 22.75C23.882 20.3554 26.9232 18.0506 30.1758 15.9102C32.571 14.2902 34.4092 12.778 36.375 10.6875C38.9418 8.04643 41.5654 5.51653 44.3125 3.0625C44.9686 2.47598 45.6248 1.88945 46.3008 1.28516C48 0 48 0 50 0Z" sodipodi:nodetypes="ccccccccccccccccccccccccccccccccccccc"/><path id="shape6" transform="matrix(1.18808896051423 0 0 1.14501932939621 237.97554705229 47.3633689655998)" fill="#7d1031" stroke-opacity="0" stroke="#000000" stroke-width="0" stroke-linecap="square" stroke-linejoin="bevel" d="M54.4638 0C54.9588 0.99 54.9588 0.99 55.4638 2C54.5234 3.96777 54.5234 3.96777 53.0419 6.35938C52.5108 7.2282 51.9798 8.09703 51.4326 8.99219C50.8654 9.90227 50.2982 10.8123 49.7138 11.75C44.7787 19.7039 44.7787 19.7039 40.4638 28C48.2335 31.3868 55.6196 29.1393 63.4638 27C61.4933 34.0063 55.3321 39.976 49.4638 44C48.8038 44 48.1438 44 47.4638 44C46.9688 41.03 46.9688 41.03 46.4638 38C44.1538 38.66 41.8438 39.32 39.4638 40C39.7938 38.68 40.1238 37.36 40.4638 36C39.8038 36 39.1438 36 38.4638 36C38.4638 35.01 38.4638 34.02 38.4638 33C37.8038 33 37.1438 33 36.4638 33C36.4638 33.66 36.4638 34.32 36.4638 35C34.4838 35.495 34.4838 35.495 32.4638 36C33.4538 37.65 34.4438 39.3 35.4638 41C34.8038 41.66 34.1438 42.32 33.4638 43C33.3401 43.66 33.2163 44.32 33.0888 45C32.4638 47 32.4638 47 30.4638 48.125C29.8038 48.4138 29.1438 48.7025 28.4638 49C28.1338 49.66 27.8038 50.32 27.4638 51C25.9788 50.505 25.9788 50.505 24.4638 50C23.4738 50.495 23.4738 50.495 22.4638 51C21.8038 49.68 21.1438 48.36 20.4638 47C19.4738 47.99 18.4838 48.98 17.4638 50C17.7938 48.68 18.1238 47.36 18.4638 46C17.4854 46.0522 17.4854 46.0522 16.4873 46.1055C11.0572 46.2737 7.07971 46.2311 2.46381 43C-0.475889 38.3514 -0.266773 33.3075 0.463812 28C1.53175 25.43 2.76551 23.2105 4.27241 20.875C5.62939 18.9064 5.62939 18.9064 6.46381 16C7.12381 16 7.78381 16 8.46381 16C8.79381 15.34 9.12381 14.68 9.46381 14C10.1238 14.33 10.7838 14.66 11.4638 15C11.1338 13.02 10.8038 11.04 10.4638 9C13.7281 7.96 15.189 7.89419 18.4365 9.14453C19.4561 9.69496 20.4758 10.2454 21.5263 10.8125C22.5485 11.3552 23.5708 11.8979 24.624 12.457C25.5611 12.9662 26.4983 13.4754 27.4638 14C28.2256 14.3545 28.9875 14.709 29.7724 15.0742C31.4638 16 31.4638 16 32.4638 18C32.9949 17.5179 33.526 17.0358 34.0732 16.5391C34.7796 15.9074 35.486 15.2758 36.2138 14.625C36.9099 13.9985 37.606 13.372 38.3232 12.7266C40.3089 11.1249 42.1434 10.0348 44.4638 9C44.4638 8.34 44.4638 7.68 44.4638 7C46.6513 5.27344 46.6513 5.27344 49.4638 3.375C50.856 2.42754 50.856 2.42754 52.2763 1.46094C52.9982 0.978828 53.7201 0.496719 54.4638 0Z" sodipodi:nodetypes="ccccccccccccccccccccccccccccccccccccccccccccccccccc"/><path id="shape7" transform="matrix(1.18808896051423 0 0 1.14501932939621 155.360369827826 287.817428138804)" fill="#30302f" stroke-opacity="0" stroke="#000000" stroke-width="0" stroke-linecap="square" stroke-linejoin="bevel" d="M66 0C64.1845 30.5652 64.1845 30.5652 62.9375 45.625C62.8584 46.5937 62.7793 47.5625 62.6978 48.5605C62.309 53.1152 61.7547 57.472 61 62C78.325 62.495 78.325 62.495 96 63C95.67 64.65 95.34 66.3 95 68C89.555 68.99 89.555 68.99 84 70C85.485 70.99 85.485 70.99 87 72C86.505 73.98 86.505 73.98 86 76C83.2271 75.5107 80.7171 74.8977 78.0625 73.9375C74.873 72.9611 72.3141 72.8422 69 73C68.505 74.98 68.505 74.98 68 77C66.25 76.8125 66.25 76.8125 64 76C63.4019 75.175 62.8038 74.35 62.1875 73.5C59.844 70.8217 58.7079 70.322 55.2148 70.0469C50.4748 69.9466 45.7406 69.9299 41 70C42.65 71.32 44.3 72.64 46 74C45.505 75.485 45.505 75.485 45 77C39.6167 76.3118 34.7314 74.6926 29.625 72.9375C28.7936 72.6558 27.9621 72.3742 27.1055 72.084C25.0689 71.3934 23.0343 70.6973 21 70C21.5014 70.7773 22.0029 71.5546 22.5195 72.3555C24 75 24 75 23.6875 77.3125C23.4606 77.8694 23.2338 78.4262 23 79C21.1875 78.7891 21.1875 78.7891 19 78C17.5 75.8984 17.5 75.8984 16 73.375C14.3156 70.839 14.3156 70.839 12 69C7.81964 68.503 4.08878 69.0802 0 70C0.152344 68.1406 0.152344 68.1406 1 66C3.50391 64.7344 3.50391 64.7344 6.5625 63.75C7.57441 63.4148 8.58633 63.0797 9.62891 62.7344C10.4114 62.492 11.1938 62.2497 12 62C12.0804 61.3201 12.1608 60.6402 12.2437 59.9397C12.6161 56.8134 12.9955 53.688 13.375 50.5625C13.5013 49.4932 13.6277 48.4239 13.7578 47.3223C14.5181 41.1066 15.5278 35.0872 17 29C18.32 28.67 19.64 28.34 21 28C20.5794 36.3234 20.0247 44.6015 19 52.875C18.917 53.5582 18.834 54.2414 18.7485 54.9453C18.128 59.7441 18.128 59.7441 17 62C26.1264 62.6544 35.2231 63.1038 44.375 63.125C45.1888 63.1295 46.0026 63.134 46.8411 63.1387C50.1478 63.1303 52.8416 63.0528 56 62C56.0582 61.339 56.1164 60.6781 56.1764 59.9971C56.7849 53.1017 57.4029 46.2072 58.0264 39.3132C58.2576 36.7422 58.4865 34.1709 58.7129 31.5994C59.0392 27.8977 59.3742 24.1969 59.7109 20.4961C59.8595 18.7785 59.8595 18.7785 60.0111 17.0262C60.5242 11.4786 61.0336 6.23674 63 1C65 0 65 0 66 0Z" sodipodi:nodetypes="cccccccccccccccccccccccccccccccccccccccccccccccccc"/><path id="shape8" transform="matrix(1.18808896051423 0 0 1.14501932939621 276.545443800277 41.6382723186188)" fill="#333332" stroke-opacity="0" stroke="#000000" stroke-width="0" stroke-linecap="square" stroke-linejoin="bevel" d="M29 0C28.3932 2.80709 27.5528 5.07506 26.1445 7.57422C25.7719 8.23784 25.3993 8.90147 25.0154 9.58521C24.6184 10.279 24.2215 10.9727 23.8125 11.6875C23.4097 12.3999 23.007 13.1124 22.592 13.8464C19.9409 18.4909 17.1374 22.9676 13.9961 27.3008C12.7471 29.1031 12.7471 29.1031 13 32C20.1064 31.6169 20.1064 31.6169 26.8125 29.4375C29.9084 28.0413 31.6692 27.6972 35 28C34.632 36.8329 29.2034 42.1231 23 48C22.2369 48.7631 21.4737 49.5262 20.6875 50.3125C20.1306 50.8694 19.5738 51.4263 19 52C17.515 51.505 17.515 51.505 16 51C17.1278 47.6167 17.9636 47.023 20.6875 44.875C25.1156 41.149 28.0442 36.9375 31 32C30.2266 32.3004 29.4531 32.6007 28.6563 32.9102C22.2384 35.2533 17.689 36.7027 11 35C10.01 34.34 9.02 33.68 8 33C8.50128 27.8569 11.1149 24.273 13.875 20.0625C16.85 15.4714 19.6563 10.959 22 6C21.4457 6.43313 20.8914 6.86625 20.3203 7.3125C19.2336 8.14781 19.2336 8.14781 18.125 9C17.4057 9.55687 16.6864 10.1137 15.9453 10.6875C14 12 14 12 12 12C12 12.66 12 13.32 12 14C10.3906 15.6563 10.3906 15.6563 8.25 17.5C7.55391 18.1084 6.85781 18.7169 6.14063 19.3438C4.15539 20.8798 2.28128 21.9724 0 23C0.774639 16.6241 7.30673 11.9375 12 8C22.7283 0 22.7283 0 29 0Z" sodipodi:nodetypes="cccccccccccccccccccccccccccccc"/><path id="shape9" transform="matrix(1.18808896051423 0 0 1.14501932939621 242.777727875662 74.5596983126947)" fill="#383837" stroke-opacity="0" stroke="#000000" stroke-width="0" stroke-linecap="square" stroke-linejoin="bevel" d="M12.4219 0.248148C15.9159 1.91577 17.2486 2.98821 19.4219 6.24815C20.0192 10.7708 19.752 12.7238 17.2969 16.6231C14.102 19.5402 12.717 20.3376 8.42188 20.2481C4.27018 18.5102 2.20059 16.3673 0.421875 12.2481C-0.140625 8.74815 -0.140625 8.74815 0.421875 5.24815C4.12918 1.0995 6.84041 -0.701889 12.4219 0.248148Z" sodipodi:nodetypes="ccccccc"/><path id="shape10" transform="matrix(1.18808896051423 0 0 1.14501932939621 238.024432362499 71.0294035063398)" fill="#e7e4e4" stroke-opacity="0" stroke="#000000" stroke-width="0" stroke-linecap="square" stroke-linejoin="bevel" d="M17.4227 0.331323C21.3255 2.42213 22.7358 3.58613 24.3328 7.64382C25.3875 11.7868 25.8537 15.2198 24.2977 19.2688C22.4572 22.2749 21.3737 23.5344 18.4227 25.3313C12.6388 26.3048 7.29469 25.7417 2.42267 22.3313C-0.524127 17.7181 -0.210573 12.6109 0.422666 7.33132C1.45688 4.70248 2.46329 3.45865 4.42267 1.33132C8.79687 -0.126745 12.8554 -0.265331 17.4227 0.331323ZM4.42267 8.33132C3.62886 12.6973 4.10149 14.7234 6.17267 18.6438C8.78126 21.8396 8.78126 21.8396 12.4227 23.3313C16.6819 23.3313 18.1206 22.6071 21.2977 19.7063C23.7928 15.7435 24.2577 13.9242 23.4227 9.33132C20.4693 5.75619 18.3026 3.58768 13.6727 2.95632C9.18134 3.47455 7.40962 4.98878 4.42267 8.33132Z" sodipodi:nodetypes="ccccccccccccccc"/><path id="shape11" transform="matrix(1.18808896051423 0 0 1.14501932939621 274.169265879249 47.3633689655998)" fill="#e8ac55" stroke-opacity="0" stroke="#000000" stroke-width="0" stroke-linecap="square" stroke-linejoin="bevel" d="M24 0C24.33 0.66 24.66 1.32 25 2C24.0596 3.96777 24.0596 3.96777 22.5781 6.35938C22.047 7.2282 21.5159 8.09703 20.9688 8.99219C20.4016 9.90227 19.8344 10.8123 19.25 11.75C14.3149 19.7039 14.3149 19.7039 10 28C9 27 8 26 7 25C6.15437 24.175 5.30875 23.35 4.4375 22.5C2 20 2 20 0 17C0.66 16.67 1.32 16.34 2 16C2 16.66 2 17.32 2 18C2.53109 17.5179 3.06219 17.0358 3.60938 16.5391C4.31578 15.9074 5.02219 15.2758 5.75 14.625C6.44609 13.9985 7.14219 13.372 7.85938 12.7266C9.84509 11.1249 11.6795 10.0348 14 9C14 8.34 14 7.68 14 7C16.1875 5.27344 16.1875 5.27344 19 3.375C19.9281 2.74336 20.8562 2.11172 21.8125 1.46094C22.5344 0.978828 23.2563 0.496719 24 0Z" sodipodi:nodetypes="ccccccccccccccccccc"/><path id="shape12" transform="matrix(1.18808896051423 0 0 1.14501932939621 286.050155484391 78.2788908592974)" fill="#e6ab54" stroke-opacity="0" stroke="#000000" stroke-width="0" stroke-linecap="square" stroke-linejoin="bevel" d="M23 0C21.0295 7.00632 14.8683 12.976 9 17C8.34 17 7.68 17 7 17C6.74605 16.3477 6.49211 15.6955 6.23047 15.0234C4.34261 10.2296 2.39996 5.55993 0 1C0.804375 1.35062 1.60875 1.70125 2.4375 2.0625C10.2052 4.10663 15.5838 0 23 0Z" sodipodi:nodetypes="ccccccc"/><path id="shape13" transform="matrix(1.18808896051423 0 0 1.14501932939621 237.338508103308 251.176809598125)" fill="#841939" stroke-opacity="0" stroke="#000000" stroke-width="0" stroke-linecap="square" stroke-linejoin="bevel" d="M18 0C18.33 0.66 18.66 1.32 19 2C20.65 1.67 22.3 1.34 24 1C24 5.11389 22.3461 6.11388 19.5625 9.0625C16.4143 12.2738 16.4143 12.2738 14 16C13.34 16 12.68 16 12 16C11.7525 16.6187 11.505 17.2375 11.25 17.875C9.7626 20.4036 8.56322 20.7184 6 22C5.67 22.66 5.34 23.32 5 24C3.75492 26.4902 2.53283 26.9869 0 28C0.753769 23.4774 1.72319 20.2768 5 17C5 16.34 5 15.68 5 15C6.65 15.33 8.3 15.66 10 16C9.67 14.35 9.34 12.7 9 11C10.65 10.34 12.3 9.68 14 9C13.67 8.67 13.34 8.34 13 8C13.66 6.02 14.32 4.04 15 2C15.66 2.33 16.32 2.66 17 3C17.33 2.01 17.66 1.02 18 0Z" sodipodi:nodetypes="ccccccccccccccccccc"/><path id="shape14" transform="matrix(1.18808896051423 0 0 1.14501932939621 283.673977563362 127.514722023334)" fill="#841638" stroke-opacity="0" stroke="#000000" stroke-width="0" stroke-linecap="square" stroke-linejoin="bevel" d="M14 0C16.4168 3.86684 16.7865 7.51621 17 12C15.5625 14 15.5625 14 14 15C13.5669 14.505 13.1337 14.01 12.6875 13.5C11.0026 11.6678 11.0026 11.6678 8 12C6.68 12 5.36 12 4 12C3.34 12.66 2.68 13.32 2 14C1.34 12.35 0.68 10.7 0 9C0.99 9 1.98 9 3 9C3.33 8.01 3.66 7.02 4 6C4.99 6.33 5.98 6.66 7 7C7 5.68 7 4.36 7 3C7.66 2.34 8.32 1.68 9 1C9.66 1.33 10.32 1.66 11 2C11.33 2.99 11.66 3.98 12 5C12.66 3.35 13.32 1.7 14 0Z" sodipodi:nodetypes="cccccccccccccccc"/><path id="shape15" transform="matrix(1.18808896051423 0 0 1.14501932939621 168.429348393482 302.702679420954)" fill="#811938" stroke-opacity="0" stroke="#000000" stroke-width="0" stroke-linecap="square" stroke-linejoin="bevel" d="M9 0C9.33 1.32 9.66 2.64 10 4C9.34 4 8.68 4 8 4C7.34 6.31 6.68 8.62 6 11C7.32 11 8.64 11 10 11C10.33 10.34 10.66 9.68 11 9C13.475 9.99 13.475 9.99 16 11C13.8733 13.3394 11.9378 14.8065 9 16C8.01 16 7.02 16 6 16C6 17.65 6 19.3 6 21C5.67 20.01 5.34 19.02 5 18C3.35 18.33 1.7 18.66 0 19C0.185625 17.9275 0.37125 16.855 0.5625 15.75C0.930457 12.5961 1.04465 10.9018 0 8C0.66 7.67 1.32 7.34 2 7C2 7.66 2 8.32 2 9C4.42084 8.05872 4.42084 8.05872 5.5 4.5C7 1 7 1 9 0Z" sodipodi:nodetypes="cccccccccccccccccc"/><path id="shape16" transform="matrix(1.18808896051423 0 0 1.14501932939621 274.169265879249 47.3633689655998)" fill="#d39f55" stroke-opacity="0" stroke="#000000" stroke-width="0" stroke-linecap="square" stroke-linejoin="bevel" d="M24 0C24.33 0.66 24.66 1.32 25 2C23.2647 6.35473 21.0978 10.1164 17.4375 13.0625C15 14 15 14 11 14C9.02072 15.2833 9.02072 15.2833 7.25 17C6.63641 17.5569 6.02281 18.1137 5.39063 18.6875C4.93172 19.1206 4.47281 19.5538 4 20C2.68 19.34 1.36 18.68 0 18C0.66 17.34 1.32 16.68 2 16C2 16.66 2 17.32 2 18C2.53109 17.5179 3.06219 17.0358 3.60938 16.5391C4.31578 15.9074 5.02219 15.2758 5.75 14.625C6.44609 13.9985 7.14219 13.372 7.85938 12.7266C9.84509 11.1249 11.6795 10.0348 14 9C14 8.34 14 7.68 14 7C16.1875 5.27344 16.1875 5.27344 19 3.375C19.9281 2.74336 20.8562 2.11172 21.8125 1.46094C22.5344 0.978828 23.2563 0.496719 24 0Z" sodipodi:nodetypes="cccccccccccccccccc"/><path id="shape17" transform="matrix(1.18808896051423 0 0 1.14501932939621 238.36379063097 84.0039875062785)" fill="#edebeb" stroke-opacity="0" stroke="#000000" stroke-width="0" stroke-linecap="square" stroke-linejoin="bevel" d="M0.137032 0C3.59912 1.39647 4.75411 2.68542 6.38703 6C7.82857 8.49445 8.59674 9.75048 11.2347 10.9688C13.6765 11.5937 13.6765 11.5937 17.137 12C16.807 12.66 16.477 13.32 16.137 14C10.5672 14.2881 6.94033 14.2022 2.13703 11C-0.495613 7.64936 -0.0213688 4.11843 0.137032 0Z" sodipodi:nodetypes="ccccccc"/><path id="shape18" transform="matrix(1.18808896051423 0 0 1.14501932939621 230.395613240302 82.8589681768823)" fill="#851b3b" stroke-opacity="0" stroke="#000000" stroke-width="0" stroke-linecap="square" stroke-linejoin="bevel" d="M5.84375 0C6.17375 0 6.50375 0 6.84375 0C7.50375 3.96 8.16375 7.92 8.84375 12C7.85375 12 6.86375 12 5.84375 12C5.84375 12.66 5.84375 13.32 5.84375 14C4.19375 14.33 2.54375 14.66 0.84375 15C-0.28125 8.25 -0.28125 8.25 0.84375 6C1.50375 5.34 2.16375 4.68 2.84375 4C3.83375 4 4.82375 4 5.84375 4C5.84375 2.68 5.84375 1.36 5.84375 0Z" sodipodi:nodetypes="cccccccccc"/><path id="shape19" transform="matrix(1.18808896051423 0 0 1.14501932939621 291.990600286962 160.720282575824)" fill="#851839" stroke-opacity="0" stroke="#000000" stroke-width="0" stroke-linecap="square" stroke-linejoin="bevel" d="M5 0C5.43313 0.639375 5.86625 1.27875 6.3125 1.9375C7.91239 4.26746 7.91239 4.26746 11 5C11 7.97 11 10.94 11 14C10.2575 13.1544 9.515 12.3087 8.75 11.4375C7.8425 10.6331 6.935 9.82875 6 9C3.72477 9.04498 3.72477 9.04498 2 10C1.34 7.69 0.68 5.38 0 3C0.639375 2.87625 1.27875 2.7525 1.9375 2.625C2.95844 2.31562 2.95844 2.31562 4 2C4.33 1.34 4.66 0.68 5 0Z" sodipodi:nodetypes="ccccccccccc"/><path id="shape20" transform="matrix(1.18808896051423 0 0 1.14501932939621 286.050155484391 199.650939775295)" fill="#86193a" stroke-opacity="0" stroke="#000000" stroke-width="0" stroke-linecap="square" stroke-linejoin="bevel" d="M5 0C5.99 0.33 6.98 0.66 8 1C7.34 1.66 6.68 2.32 6 3C6.39188 3.84563 6.78375 4.69125 7.1875 5.5625C8.28031 10.1859 7.15115 11.8632 5 16C3 12.25 3 12.25 3 10C2.01 10 1.02 10 0 10C0 9.34 0 8.68 0 8C0.45375 7.56688 0.9075 7.13375 1.375 6.6875C3.34309 4.64371 4.06727 2.6547 5 0Z" sodipodi:nodetypes="cccccccccc"/><path id="shape21" transform="matrix(1.18808896051423 0 0 1.14501932939621 204.072017208909 56.5235236007695)" fill="#891e3d" stroke-opacity="0" stroke="#000000" stroke-width="0" stroke-linecap="square" stroke-linejoin="bevel" d="M12 0C12.66 0.33 13.32 0.66 14 1C12.515 1.86625 12.515 1.86625 11 2.75C10.01 3.4925 9.02 4.235 8 5C8 6.32 8 7.64 8 9C5.50935 9.68708 3.62114 10 1 10C0.67 8.68 0.34 7.36 0 6C1.95331 4.96959 3.91282 3.95091 5.875 2.9375C6.96555 2.36902 8.05609 1.80055 9.17969 1.21484C10.5757 0.613496 10.5757 0.613496 12 0Z" sodipodi:nodetypes="cccccccccc"/><path id="shape22" transform="matrix(1.18808896051423 0 0 1.14501932939621 257.536020432049 77.1338715299012)" fill="#ddd6d6" stroke-opacity="0" stroke="#000000" stroke-width="0" stroke-linecap="square" stroke-linejoin="bevel" d="M6 0C8.45665 2.45665 8.68588 4.44387 9.03125 7.83594C8.9796 11.4124 7.74428 13.9325 6 17C3.8125 18.9375 3.8125 18.9375 2 20C1.34 19.67 0.68 19.34 0 19C0 18.34 0 17.68 0 17C1.65003 15.6461 3.31744 14.3132 5 13C6.48337 10.0333 6.05659 7.28247 6 4C6 2.68 6 1.36 6 0Z" sodipodi:nodetypes="ccccccccc"/><path id="shape23" transform="matrix(1.18808896051423 0 0 1.14501932939621 244.467041866393 63.3936395771467)" fill="#8f2a47" stroke-opacity="0" stroke="#000000" stroke-width="0" stroke-linecap="square" stroke-linejoin="bevel" d="M3 0C4.65 0.33 6.3 0.66 8 1C7.34 2.65 6.68 4.3 6 6C7.65 6 9.3 6 11 6C11 6.33 11 6.66 11 7C7.37 7.33 3.74 7.66 0 8C0.33 6.02 0.66 4.04 1 2C1.66 2 2.32 2 3 2C3 1.34 3 0.68 3 0Z" sodipodi:nodetypes="ccccccccc"/><path id="shape24" transform="matrix(1.18808896051423 0 0 1.14501932939621 286.050155484391 79.4239101886936)" fill="#d59b4f" stroke-opacity="0" stroke="#000000" stroke-width="0" stroke-linecap="square" stroke-linejoin="bevel" d="M0 0C1.26844 0.495 1.26844 0.495 2.5625 1C6.20989 2.06106 9.22275 2.15109 13 2C11 4 9 6 7 8C3.70852 6.86501 3.00401 6.00717 1.25 2.875C0.8375 1.92625 0.425 0.9775 0 0Z" sodipodi:nodetypes="cccccc"/>
</svg>
