<?xml version="1.0" encoding="UTF-8"?>
<svg id="Ebene_1" xmlns="http://www.w3.org/2000/svg" version="1.1" viewBox="0 0 2034.72 1149.12">
  <!-- Generator: Adobe Illustrator 29.5.1, SVG Export Plug-In . SVG Version: 2.1.0 Build 141)  -->
  <defs>
    <style>
      .st0 {
        fill: #0e0806;
      }

      .st1 {
        fill: #27201b;
      }

      .st2 {
        fill: #385a13;
      }

      .st3 {
        fill: #090605;
      }

      .st4 {
        fill: #cccccb;
      }

      .st5 {
        fill: #848d79;
      }

      .st6 {
        fill: #110c0a;
      }

      .st7 {
        fill: #fafaf6;
      }

      .st8 {
        fill: #120f0d;
      }

      .st9 {
        fill: #130c07;
      }

      .st10 {
        fill: #fcfcfc;
      }

      .st11 {
        fill: #c9dce0;
      }

      .st12 {
        fill: #080808;
      }

      .st13 {
        fill: #0d0805;
      }

      .st14 {
        fill: #d9d8d7;
      }

      .st15 {
        fill: #f1efee;
      }

      .st16 {
        fill: #080605;
      }

      .st17 {
        fill: #29221d;
      }

      .st18 {
        fill: #c9c9c9;
      }

      .st19 {
        fill: #070604;
      }

      .st20 {
        fill: #060504;
      }

      .st21 {
        fill: #050505;
      }

      .st22 {
        fill: #fefffe;
      }

      .st23 {
        fill: #eeeeec;
      }

      .st24 {
        fill: #dddcdb;
      }

      .st25 {
        fill: #ae7044;
      }

      .st26 {
        fill: #bbbbba;
      }

      .st27 {
        fill: #f9f9f9;
      }

      .st28 {
        fill: #cac8bb;
      }

      .st29 {
        fill: #7d532f;
      }

      .st30 {
        fill: #493e36;
      }

      .st31 {
        fill: #ddd;
      }

      .st32 {
        fill: #0e0805;
      }

      .st33 {
        fill: #fafaf9;
      }

      .st34 {
        fill: #b46f3c;
      }

      .st35 {
        fill: #e5f8fd;
      }

      .st36 {
        fill: #c6c6c6;
      }

      .st37 {
        fill: #cb050b;
      }

      .st38 {
        fill: #dcdbda;
      }

      .st39 {
        fill: #bebebe;
      }
    </style>
  </defs>
  <path class="st10" d="M547.12-.24l1.92.92-.05,452.36c1.19,10.52,1.49,21.06.89,31.64,2.8.65,5.65.54,8.46.04l2.22,1.56c.55-1.83,2.79-2.47,6.72-1.92,42.75-12.94,86.55-23.1,130.56-30.71l2.88-.96c2.73-3.65,9.4-4.89,13.44-2.88l602.12.05,11.32.91c4.99.27,10.03.55,14.92,1.64,29.08,6.48,58.18,13.1,87.17,19.94,2.41.57,4.76,1.44,7.11,2.32s4.66,1.91,6.95,2.96c9.47.69,18.95,2.84,28.45,6.44,6.23,2.58,11.84,2.46,16.81-.38l-.14-482.74,1.92-1.2h544.32v837.73c-.27.84-.59.83-.96,0l-.93,1.92H1.14l-1.22-1.92V-.24h547.2Z"/>
  <path class="st2" d="M2034.16,837.49c.84,100.74.84,207.75,0,309.02l-.93,2.85H1.14l-1.22-2.85v-309.02h2034.24Z"/>
  <path class="st22" d="M1283.44-.24l1.92.92v420.1l-1.92,1.2-.92,1.92h-526.84l-1.2-1.92c-.53-.1-.94-.2-.94-.3-.16-138.9.06-283.28.94-421.92h528.96Z"/>
  <path class="st38" d="M1384.24-.24l1.93.88.47,66.64c18.83-1.93,37.7-4.18,56.62-6.76l.49-59.61,1.93-1.14h45.12v484.13c.38,1.96-6.73,4.12-7.99,4.07-9.3-.31-28.95-7.91-39.05-10.32-.51-1.9.06-2.59,1.81-2.95-2.9-4.13-4.69-5.14-9.91-5.18-16.53-5.84-33.45-10.99-50.74-13.88-6.4,1.47-8.98.54-14.01-2.95-7.79,2.45-11.95.13-12.48-6.98-4.59-2.44-9.69-4.18-15.31-5.23l-.86-2.27c1.16-4.35,1.15-8.16.71-12.38l3.3-1.28c4.85.43,17.18,2.63,21.77,3.97,1.15.34,2.01,1.23,2.78,2.11l-1.92-.66v-83.11l1.92-1.16c-5.89,1.01-32.51-1.61-33.49-3-.44-.62-.28-1.51-.11-2.28-.17-1.57,1.18-2.32,4.05-2.24-.81-3.94-.56-7.03.75-9.28,6.95-1.78,17.54-.52,25.05.8,1.44.25,2.64,1.18,3.75,2.08l-1.92-.66v-115.24l1.92-1.17c-5.58,2.37-39.16,3.28-40.95,1.31-.52-.58-.47-1.48-.33-2.27l.84-1.92,10.51-.11c-1.17-4.43-.8-7.59,1.13-9.49l3.04-1.87c5.11-.55,17.55-.91,22.59-.56,1.2.08,2.24.77,3.18,1.47l-1.92-.66v-115.24l1.92-1.17c-8.33,3.36-20.11,4.91-28.8,2.88l-1.3-1.44c.43-3.38.68-7.25-1.58-10.07l2.33-2.28c9.03-1.94,18.18-3.09,27.43-3.68V.91s1.92-1.15,1.92-1.15h13.44Z"/>
  <path class="st31" d="M754.48-.24v422.22h528.96V-.24h5.76l1.32,6.75c.17,133.92.19,268.46.06,403.64l-.73,24.04c2.62.06,5.77,4.46,4.8,6.62,9.33,1.54,18.65,4.07,27.79,6.67.93.26,1.79.79,2.66,1.34s1.71,1.24,2.5,1.95l-7.16,1.01-601.06.02-5.22-1.98c-.99-2.45-.09-2.64,1.92-.96l1.31-1.63c11.49-2.54,22.59-5.6,33.3-9.19l.9-437.08,1.92-1.2h.96Z"/>
  <path class="st36" d="M1316.08-.24l1.93.64.93,75.46c2.61-1.2,4.54-.98,5.78.67,2.1-3.33,11.58-3.6,14.4-.96.74.1,2.5-.29,2.81.05.56.62,1.78,10.05.07,11.46-4.41,3.48-13.1,4.1-18.24,1.92l1.92.66v109.97l-1.92,1.16c5.47-.47,11.15-.63,17.03-.47l1.21,1.91.96,11.52h-13.44c-.66,1.1-1.95,1.97-3.87,2.62v108.85s15.36,1.66,15.36,1.66l.99,2.02c1.21,1.61,1.38,11.12.97,11.52-.32.31-4.59-.22-5.77,0-2.59,1.57-5.81,2.12-9.66,1.63l-1.91,78.79c5.36,1.36,10.84,2.32,16.46,2.88l.88,2.11c5.25,3.66.12,11.48,1.41,13.46.46.71,13.13,1.21,15.68,5.44.79,1.3,1.65,6.54,2.2,6.93.84.6,6.42-1.2,8.95-.85,3.27.46,4.48,3.29,6.03,3.65,1.74.4,5.56-1.25,9.19-.59,16.21,2.97,33.25,7.83,48.86,13.53,2.32.85,5.13.32,7.3,1.34,2.02.95,2.22,3.49,4.99,4.61s14.09,2.06,15.39,3.34c.92.91.22,2.01-1.42,1.91-6.41-.39-12.1-4.66-17.77-.96-38.63-9.24-77.6-17.35-116.16-26.87-11.3-2.79-22.54-6.13-33.94-8.58-.96-4.07-1.9-5.31-5.44-7.45,2.22-106.66.12-213.63-.03-320.26-.06-38.29,1.36-76.43,1.01-114.72h26.88Z"/>
  <path class="st18" d="M592.24-.24l1.92.88.13,59.73c5.62,1.09,11.65,1.87,18.07,2.35l2.92,2.29c6.73.66,7.3,13.72,0,12.47l-3.91,1.59c-5.84-.69-11.57-.68-17.21.03v120.98s-1.92,1.18-1.92,1.18c7.79.63,15.62.77,23.48.44,5.64-1.25,5.45,10.15,2.72,12.18-6.84.04-13.65.31-20.44.82-.78,1.25-2.06,2.11-3.85,2.57v120.56c5.06.01,10.12-.28,15.21-.87l4,1.52c1.92-.45,6.08-1.29,7.43-.08.47.42,1.22,11.91-1.67,11.6-7.16,4-19.08,6.24-26.88,3.84l1.92.67v90.28l-1.92,1.17c6.77-3.75,16.45-5.34,24-3.84,2.93-.35,4.23,1.49,3.92,5.53-1.09,5.58-.07,7.6,3.06,6.07,7.49-3.27,12.2-2.13,14.14,3.42,24.66-4.87,49.17-10.16,73.52-15.88,5.06-1.02,10.26,4.56,5.2,7.58-.86.21-1.55.87-1.92.96-4.42,1.08-9.01,1.79-13.44,2.88l-2.88.96c-43.41,10.6-87.01,20.68-130.56,30.71-3.56,1.14-5.49.65-5.78-1.48l.02-481.92,1.92-1.2h28.8Z"/>
  <path class="st14" d="M667.12-.24l1.92.88v68.58s1.92,2.51,1.92,2.51c4.44.74,4.13,11.93,0,12.47l-1.93,2.59-.04,112.71c1,.71,1.97,1.62,2.93,2.73,2.98,1.04,2.04,10.71-.96,11.52l-1.93,2.58-.05,113.16-.9,2.3c6.4-1.08,8.23,8.92,4.8,12.47.06,1.77-1.19,2.43-3.76,1.98-.16,29.46-.19,57.9-.08,85.35,4.29-.85,5.92,2.68,4.92,10.57,5.32.22,10.78-.8,16.1-1.84,15.29-3.64,30.36-7.01,45.21-10.1V.96s1.93-1.2,1.93-1.2h16.32l-.95,438.07c0,1.3-.61,1.65-1.6,2.24-1.46.87-11.39,3.55-13.98,4.26-6.85,1.89-14.03,2.83-20.91,4.53,1.87-9.91-10.23-4.17-15.16-3.16-20.33,4.2-41.12,9.69-60.97,12.15-.94.12-1.96,1.63-2.95,1.5-2.16-.3-2.37-5.09-4.07-5.62-1.85-.57-11.35,3.52-14.77,1.85-.85-.85,1.7-11.69-1.92-13.44l2.9-2.57c5.53-1.71,30.13-7.78,33.66-6.23.65.29,1.25.69,1.84,1.13l-1.92-.67v-85.49l1.92-1.17-2.62,1.8c-10.67,1.08-21.26,2.06-31.77,2.93l-1.13-1.85v-11.52s-5.76,0-5.76,0c-.33-.68-.63-1.52-.23-2.09,1.28-1.83,35.66-4.35,41.51-2.7l-1.92-.66v-117.16l1.92-1.17-3.31,1.35c-15.4,1-31.14.71-46.65.4-1.11-.02-2.22-.28-3.33-.57s-2.25-.72-3.35-1.18c3.52-2.72,16.57.46,19.06-1.09,1.45-.91,1.44-9.14.24-10.82-1.44-2.03-21.56,1.09-25.07-1.52,1-.47,2.01-.91,3.05-1.22s2.03-.58,3.04-.61c18.86-.58,38.3-.55,56.31,1.35l-1.92-.66v-116.68l1.92-1.17c-12.46,1.84-26.42.43-38.27-2.64l-1.09-2.16c4.71-.52,3.63-11,0-12.47,1.1-.37,2.21-.7,3.35-.9s2.22-.38,3.27-.27c9.97,1.07,19.97,2.18,29.86,3.81V.92s1.93-1.16,1.93-1.16h13.44Z"/>
  <path class="st31" d="M737.2-.24v430.38c-.18,1.97-1.85,2.74-3.61,3.11-17.82,1.3-39.08,9.73-56.36,10.84-1.76.11-3.56-.1-5.32-.03-.2-2.55.68-10.91-1.12-12.35-.53-.43-1.38,0-1.76-.13l.46-2.06c15.77-3.27,31.3-6.58,46.58-9.94-.76-.08-1.91-.36-1.92-.89-.62-24.62-.62-51.05,0-75.69l1.92-1.15c-2.71-.44-5.57-.47-8.58-.07l-33.21,4.23-1.41-1.76c-.21-2.82-.46-7.94-1.6-10.35-.72-1.53-2.28-1.14-3.2-2.13l.69-2,44.36-4.57c1.64-1.04,2.14-28.16,2.22-32.68.47-25.65.06-52.65-1.13-77.29-12.69.55-26.11.9-38.87.23-1.6-.08-3.05-.93-4.39-1.72l.96-11.52,3.37-1.74c12.69-.17,25.3-.8,37.83-1.91l1.04-107.26-39.5-4.99-3.7-2.13c1.14-3.93,1.8-8.64,0-12.47,2.47-.57,5.02-1.15,7.57-.93l34.67,3.58V.92s1.92-1.16,1.92-1.16h22.08Z"/>
  <path class="st4" d="M556.72-.24l1.32,26.76c.52,151.53.83,303.07.95,454.61,2.16,1.44,2.68,3.15,1.57,5.15-4.72.84-7.55,1.23-12.43-.05-.52-10.98.96-22.18-1.05-33.02l.04-453.45h9.6Z"/>
  <polygon class="st35" points="1445.68 -.24 1445.26 62.19 1384.73 69.83 1384.24 -.24 1445.68 -.24"/>
  <path class="st35" d="M653.68-.24v70.05c-12.72-2.03-25.61-3.27-38.4-4.79-6.84-.81-13.72-1.89-20.65-1.91l-2.26-1.58-.13-61.76h61.44Z"/>
  <path class="st35" d="M715.12-.24v76.77c-14.71-1.43-29.53-2.73-44.16-4.8-1.21-.17-2.6.13-3.84,0V-.24h48Z"/>
  <path class="st35" d="M1370.8-.24v71.97c-5.2,0-10.56.43-15.72,1.08s-10.71,2.09-15.96,2.76c-4.42.56-9.92.38-14.4.96l-1.92-.89V.92l1.92-1.16h46.08Z"/>
  <path class="st24" d="M563.44-.24l-.02,484.04,3.86.56c-1.67,1.24-4.62,1.54-6.72,1.92l-3.38-4.77c-1.08-160.49-.16-321.19-.46-481.75h6.72Z"/>
  <path class="st28" d="M2034.16,1148.4c.27-.84.59-.83.96,0v.96H-.08v-.96h2034.24Z"/>
  <path class="st11" d="M1324.72-.24v76.77c-2.19.28-5.41,1.35-7.67,1.92l-.97-78.69h8.64Z"/>
  <polygon class="st5" points="2035.12 1148.4 2034.16 1148.4 2034.16 1124.41 2034.16 1100.42 2034.16 1045.72 2034.16 837.49 2035.12 837.49 2035.12 1148.4"/>
  <path class="st31" d="M700.72,452.69c-.48.12-1.61.65-2.88.96l2.88-.96Z"/>
  <polygon class="st35" points="1445.68 76.53 1445.68 201.28 1384.24 201.28 1384.24 82.29 1445.68 76.53"/>
  <polygon class="st35" points="1445.68 214.71 1445.68 340.42 1384.24 333.7 1384.24 214.71 1445.68 214.71"/>
  <polygon class="st35" points="1445.68 353.85 1445.68 445.97 1384.24 434.46 1384.24 347.13 1445.68 353.85"/>
  <path class="st35" d="M1342,87.08c9.57-1.1,19.15-2.51,28.8-2.88v117.07c-9.2,1.58-19.36,1.1-28.8.96-2.71-.04-18.24.86-18.24-1.44v-111.79c6.03-.96,12.18-1.22,18.24-1.92Z"/>
  <path class="st35" d="M1329.52,213.75c.33.03,1.46.97,3.25,1.03,12.64.4,25.39-.44,38.03-.07v117.07c-9.66-.25-19.23-1.79-28.8-2.88-2.55-.29-18.08-1.21-18.3-2.48l.05-110.28c.2-2.91,3.37-2.61,5.76-2.4Z"/>
  <path class="st35" d="M1337.2,340.42c.18.02,1.09.87,2.32,1,9.61,1.04,19.25,2.05,28.88,2.83.78-.03,2.4.91,2.4,1.44v84.92c-9.33-.42-18.66-2.99-27.84-4.8-4.93-.97-13.34-1.48-17.58-3.06-1.17-.44-1.59-.95-1.63-2.21l1.93-81.1c3.8.53,7.72.58,11.52.97Z"/>
  <rect class="st39" x="1381.36" y="82.29" width="1.92" height="118.99"/>
  <rect class="st39" x="1381.36" y="214.71" width="1.92" height="118.99"/>
  <path class="st35" d="M615.28,77.49c1.98.2,5.52,1.62,8.17,1.91,10.36,1.12,20.82,1.89,31.19,2.89v118.51c0,3.25-14.42.51-16.76.44-15.18-.43-30.46.4-45.64.04v-124.75c7.51.1,15.58.23,23.04.96Z"/>
  <path class="st35" d="M598,214.71c18.82-.66,37.81.49,56.64,0v118.99c-12.93,1.69-25.99,2.39-38.96,3.8-1.26.14-2.13.98-2.32,1-6.97.79-14.14,1.05-21.12,1.92v-125.72c1.91-.05,3.85.07,5.76,0Z"/>
  <path class="st35" d="M619.12,350.01c1.95-.24,4.17.22,6.22,0,9.76-1.07,19.4-3.6,29.3-2.87v87.32c-13.08.97-25.7,5.12-38.4,7.68-7.85,1.58-16.02,2.94-24,3.84v-92.12c8.99-.79,17.96-2.74,26.88-3.84Z"/>
  <path class="st35" d="M670.96,213.75c14.36-.87,29.61.56,44.06.11.44,2.02.96,4.01,1.1,6.1,1.94,28.28,1.85,71.54,0,99.87-.16,2.42-.97,4.7-1.04,7.12l-47,4.84c-.68-.73-1.22-1.01-1.01-2.3l.05-115.74c1.27-.06,2.57.08,3.84,0Z"/>
  <path class="st35" d="M670.96,84.2c14.62.57,30.44,4.13,45.14,5.34l-1.08,111.62c-14.33-.81-28.79,2.14-43.1,1.06-2.77-.21-4.93.59-4.85-3.31l.04-114.72c1.27.02,2.57-.04,3.84,0Z"/>
  <path class="st35" d="M672.88,344.26c5.58-.64,40.19-5.76,42.08-4.64.11.06,1.12,2.12,1.12,2.24v77.73c0,.61-1.26,2.59-2.3,2.56l-44.74,9.43c-.58-.22-2.05.56-1.94-.57l-.03-83.44c-.12-4.39,2.95-2.98,5.81-3.31Z"/>
  <rect class="st26" x="721.84" y="89.96" width="1.92" height="111.31"/>
  <g>
    <path class="st21" d="M901.57,419.39c.58-4.26-4.67,13.88-.61-21.96,1.13-9.94,3.93-19.67,5.86-29.4-1.89-.41-9.44-4.67-9.84-6.14-.13-.48-.1-.96.02-1.44,7.76-17.39,13.87-36.43,22.13-53.5,11.78-24.34,30.97-31.67,54.86-39.73,4.47-1.51,10.61-1.75,13.71-5.53"/>
    <path class="st21" d="M1153.62,421.13c-.34-1.78-86.15-163.34-87.6-164.04-1.81-.88-80.14,4.41-80.27,2.22l-70.36,104.84-15.07,55.42"/>
    <path class="st21" d="M1065.49,262.27c2.06,2.31,16.36,4.71,20.65,6.09,25.56,8.21,39.16,18.08,50.43,43.14,7.21,16.02,12.75,32.95,19.79,49.06.47,3.17-7.64,6.74-10.23,8.05,1.97,10.06,3.88,20.29,5.93,30.43,5.8,28.68,1.67,19.83,1.56,22.82"/>
    <path class="st7" d="M937.39,420.63c4.65-36.17,8.63-56.98,10.45-93.28.13-2.55-.07-5.12,0-7.67-1.61,1.05-1.83,4.18-2.13,6.05-2.6,15.98-2.68,32.45-5.12,48.46-14.02-.3-29.48-4.19-40.83-12.8,7-16.23,12.9-33.47,20.31-49.47,2.42-5.22,5.17-10.99,8.74-15.47,11.74-14.78,32.16-21.54,49.24-27.24,2.9,7.71,5.38,13.76,12.26,18.54,25.11,17.43,75.04,15.9,85.47-18.63,7.71,1.42,15.18,4.17,22.31,7.45,18.22,8.37,26.64,15.68,35.16,34.39,7.39,16.23,13.02,33.85,20.33,50.18.19.75-.41,1.04-.9,1.42-9.89,7.68-28.16,11.77-40.4,12.26-1.71-15.84-2.21-32.2-4.51-47.95-.14-.97-.79-6.39-1.03-6.62-.33-.31-1.99.07-2.15.9l9.08,99.98"/>
    <path class="st34" d="M901.57,419.39c1.96-12.53,4.68-37.37,7.52-49.71,10.12,3.76,20.7,6.59,31.55,6.83-1.95,11.29-4.48,31.46-5.31,42.88"/>
    <path class="st34" d="M1117.32,420.74c-6.43-30.17-2.71-3.72-5.8-34.83-.29-2.91-.5-5.9-.59-8.83,10.97-.37,22.11-3.12,32.18-7.4,3.22,12.69,8.4,39.36,10.51,52.29"/>
    <path class="st34" d="M1060.79,253.73c.18,8.75,3.2,13.78,12.18,14.21-8.34,29.03-47.98,32.07-71.25,22.26-9.76-4.11-18.16-10.27-20.6-21.49-.26-1.18.15-.47.74-.79,6.65-3.6,9.12-6.3,10.27-14.77"/>
    <path class="st37" d="M1088.06,251.54"/>
    <path class="st37" d="M1089.24,249.17"/>
    <path class="st21" d="M987.24,264.38c-13.28,2.88-23.97,3.43-37.34.83-11.1-2.16-21.84-5.68-26.34-16.52-.31,5.9,2.87,12,6.27,16.81h-6.74c-1.22,0-6-1.3-7.45-1.75-19.67-6.09-33.1-28.66-35.55-47.33l-1.38,6.42c.08,6.73-.57,13.56,1.39,20.11-.9.23-.9-.34-1.31-.74-16.59-16-15.9-49.96-11.48-70.47,8.51-39.41,32.49-89.47,57.03-122.19,19.1-25.46,58.38-55.15,93.34-45.19,2.21.63,8.78,3.79,10,3.78,1.7,0,9.47-3.13,12.39-3.71,56.39-11.17,101.08,56.37,120.39,97.58,14.6,31.17,32.78,86.02,22.56,119.36-2.26,7.39-6.55,15.48-11.95,21.13.85-6.38,1.04-12.81.94-19.25l-1.41-6.39c-3.4,22.69-21.18,45.72-46.49,48.2,3.11-3.83,5.71-9.02,6.06-13.91.03-.47.32-2.08-.47-2-4.31,10.54-15.22,13.9-25.95,15.78-9.95,1.74-18.42,1.94-28.44,1.47-3.11,0-4.04-1.78-7.13-2.08l-2.7-2.04c-1.26.76,1.88,4.58-3.06,1.26l-1.99-4.69c-.45-1.49-.85-4.71-.46-5.72l1.61-1.71c31.09-14.57,46.41-44.18,52.99-75.29,1.15-2.49,3.03-1.15,2.66,1.01-.7,5.07-1.73,10.1-3.07,15.11-2.06,6.95,8.82,1.58,11.54-.15,12.01-7.63,15.75-25.92,14.25-38.78-1.63-13.89-18.33-10.08-21.24,1.01-1.06.42-1.73.63-2.01-.56.13-21.12-15.22-38.12-35.83-44.74-13.66-4.94-27.39-9.73-41.17-14.36-18.97-6.42-35.96-17.12-50.49-30.13-5.99,10.95-12.55,22.16-21.26,31.46-16.61,14.33-32.69,32.44-31.68,55.05-.11,1.38-.82,1.23-2.06.92-3.45-4.56-9.19-10.71-15.84-7.65-11.84,5.45-4.05,30.59.21,39.55.65,0,1.31.01,1.84.47,2.49,4.42,5.56,7.31,10.56,9.11,1.25.45,7.58,2.1,6.73-.43-1.52-3.9-4.16-20.32-2.98-21.1,1-.66,2.12-.23,2.28,1.03l5.34,20.52c6.64,27.85,30.25,48.69,56.53,60.55,18.97,8.56,35.71,7.6,55.16.59l1.75.3c1.01-.26,5.17-2.81,4.99-1.73-.33,1.98-19.23,6.81-21.66,7.44-17.26,4.48-31.05.03-46.4-7.44-.78,2.71-.75,4.44-1.99,7.05l-3.51,4.17Z"/>
    <path class="st12" d="M1075.32,266.39c-2.98-.26-6.48.57-9.3-.44,3.19,0,6.29.3,9.3.44Z"/>
    <path class="st25" d="M1055.8,254.89c-11.46,4.34-27.46,7.65-39.59,5.61-21.63-3.64-51.21-23.79-63.14-41.2-10.1-14.75-12.81-30.31-17.19-47.1-.79-.11-.5,1.05-.45,1.54.37,4.26.77,8.49,1.53,12.7,1.15,6.4,5.22,10.54-5.26,8.1-3.99-.93-7.15-3.26-9.73-6.22-.81-.92-1.57-2.82-2.11-3.33-.65-.61-1.43.14-1.84-.39-1.69-2.18-4.59-11.98-5.21-14.97-1.36-6.53-3.19-16.72.87-22.35,2.69-3.73,6.12-5.31,10.79-4.22,6.14,1.43,6.98,5.06,10.97,8.79-1.23-17.73,8.27-32.88,20.22-45.56,4.3-4.56,9.8-8.64,13.9-13.31,7.58-8.61,13.26-19.68,19.58-29.15,9.28,6.9,18.29,14.55,28.57,20.13,22.1,12.01,48.61,17.24,71.44,27.56,17.43,7.88,28.89,24.42,28.51,42.97l1.6-3.55c3.94-7.42,14.28-10.96,19.97-3.05,3.25,4.52,1.61,17.97.51,23.43-2.19,10.82-8.08,20.42-19.46,24.39-2.15.75-7.5,1.95-7.25-1.56.34-4.8,2.8-10.73,3.22-15.99.05-.6.4-2.74-.45-2.87-3.58,13.1-7.12,27.27-13.87,39.21-9.32,16.48-23.92,30.74-41.91,38.62-1.22.54-2.99,1.32-4.18,1.77Z"/>
    <path class="st33" d="M999.09,154.06c.54,7.15-.58,13.51-6.5,18.36-9.32,7.63-26.35,6.48-33.94-2.88-22.35-23.95,21.76-51.2,38.14-24.87,1.52,2.45,3.48,6.94,2.3,9.4Z"/>
    <path class="st27" d="M1092.52,171.75c-1.23,1.41-2.94,2.59-5.11,3.54-6.8,2.47-13.44,3.41-20.44.66-9.63-3.79-14.71-13.13-12.56-22.77,2.4-20.77,31.69-24.67,42.5-7.11,4.94,8.02,3.73,20.13-4.38,25.69Z"/>
    <path class="st3" d="M1066.39,111.3c8.5-.93,23.66,2.41,30.54,7.39,1.48,1.07,8.36,8.06,8.14,9.5-.12.76-.78.48-1.28.35-8.4-2.08-14.42-7.34-23.65-8.47-3.28-.4-7.29-.17-10.63-.5-1.28-.13-7.04-.75-7.68-1.1-1.15-.64-1.78-3.88-1.16-5.09.7-1.36,4.25-1.92,5.72-2.08Z"/>
    <path class="st19" d="M948.89,125.76c-.32-1.66.65-2.77,1.48-4.11,5.87-9.4,15.92-12.95,27.12-12.71,2.45.05,6.95.2,9.24.5,1.12.15,7.54,2.57,7.71,3.29.61,2.54-8.29,2.67-9.93,2.93-8.13,1.29-19.46,2.9-27,5.71-1.11.41-8.3,4.74-8.63,4.39Z"/>
    <path class="st0" d="M990.72,212c.11-.09.21-3.17,1.39-2.21.17.14,1.68,2.99,2.34,3.75,6.49,7.44,25.83,10.6,35.57,9.98,6.42-.41,22.89-4.98,27.19-9.5,1.1-1.16.81-2.36.91-2.46.24-.25,5.32,1.99,4.19-3.09,3.98,4.82.1,4.49-2.76,6-1.8.95-4.33,3.5-6.58,4.8-16.59,9.53-41.51,9.75-57.09-1.78-.94-.7-2.65-2.78-3.32-3.06-1.37-.59-2.13.66-3.48-.17-1.24-.77-3.06-2.92-2.32-4.45,1.41-2.87,2.1,3.67,3.95,2.2Z"/>
    <path class="st6" d="M958.65,169.54c-.19.88-1.19-.46-1.39-.66-11.9-11.67-4.34-29.37,10.23-34.93,17.87-6.82,35.58,7.27,32.52,24.98l-.92-4.86c-.73-9.73-9.54-18.16-19.76-19.01-20.46-1.7-33.34,18.87-20.68,34.49Z"/>
    <path class="st8" d="M1092.98,172.19c-.65.59-.89.34-.46-.44,7.66-6.76,8.49-19.69,2.05-27.38-12.37-14.79-36.07-9.57-40.17,8.81-1.06-1.01-.18-2.91.14-4.07,2.83-10.45,13.1-16.78,24.26-15.82,20.03,1.71,30.37,25.83,14.18,38.91Z"/>
    <path class="st13" d="M1020.9,184.1c-.09.12-2.04.69-2.73,1.17-2.23,1.57-6.27,6.45-2.99,8.53,2.81,1.79,9.5,2.53,12.83,2.16,2.19-.24,12.88-3.89,13.36-3.42,1.22,1.17-2.02,3.22-2.82,3.72-6.17,3.86-15.7,4.61-22.28,1.37-4.51-2.22-6.16-5.22-4.4-9.95.46-1.22,4.11-6.27,5.21-6.57,2.13-.59,4.71,1.78,3.82,2.98Z"/>
    <path class="st9" d="M1129.24,158.49c1.86,1.76-6.53,5.57-7.2,7.08-1.57,3.56,2.54,12.63-3.96,12.81.16-1.24,1.3-1.96,1.36-3.35.12-2.72-1.97-5.76-.54-9.35,1.21-3.03,6.53-8.15,10.33-7.2Z"/>
    <path class="st32" d="M933.55,177.94c-.69.73-3.47-3.38-3.6-3.86-.78-2.87,1.19-7.14.11-9.39-.27-.57-7.37-6.61-6.73-7.08,2.03.14,4.47,1.22,6.01,2.46,5.09,4.12,2.8,7.97,3.29,13.23.15,1.58,1.03,3.02.92,4.65Z"/>
    <path class="st9" d="M1038.59,232.78c.4.44-.05,1.72-.77,2.14-3.33,1.94-11.67,2.17-15.52,1.64-1.34-.19-8.78-2.35-8.8-3.56-.02-1.8,5.95.87,6.78,1.06,4.47.98,10.2.18,14.77-.45.69-.09,3.42-.96,3.54-.83Z"/>
    <path class="st30" d="M1092.98,172.19c-2.68,2.16-2.52,1.99-5.58,3.1,1.18-1.4,3.81-2.39,5.11-3.54l.46.44Z"/>
    <path class="st29" d="M973.52,171.75c-.74-.12-.98-.33-1.39-.44-6.53-2.52-12.36-8.18-11.08-16.97,2.89-19.92,34.68-16.29,32.12,4.26-1.28,10.31-9.79,13.93-19.65,13.16Z"/>
    <path class="st17" d="M973.52,171.75c2.33-.91,4.92-.22,7.46-.64,14.51-2.39,16.3-23.83,1.94-28.43-21.33-6.82-30.55,21.23-10.5,28.13l-.29.49c-17.6-4.67-14.11-29.07,2.54-30.53,25.95-2.29,25.35,35.36-1.14,30.98Z"/>
    <path class="st29" d="M1087.87,168.66c-1.51,1.15-3.78,2.41-5.58,3.1-7.01,1.42-13.72.96-18.42-4.86-5.64-6.99-4.06-17.93,4.16-22.46,17.13-9.45,33.48,11.33,19.84,24.22Z"/>
    <path class="st1" d="M1087.87,168.66l3.49-5.75c4.07-8.01-2.53-18.83-11.67-19.85-23.51-2.63-24.33,26.86-5.52,28.69h8.13c-19.74,7.56-31.11-19.3-13.33-28.38,17.56-8.97,33.15,14.46,18.91,25.29Z"/>
    <path class="st16" d="M980.03,149.64l.55.85c-1.4,2.5.46,3.68,2.65,1.91l.98.34c.18.57.74.98.89,2.02,1.67,11.96-16.58,11.6-15.72,1.35.47-5.62,5.69-6.84,10.65-6.47Z"/>
    <path class="st15" d="M984.21,152.74c-3.22,3.08-6.71.61-4.18-3.1,1.76.13,3.22-.65,3.97,1.32.25.65.08,1.35.21,1.77Z"/>
    <path class="st20" d="M1080.43,150.52c-.69,3.19-.31,4.13,3.25,3.54,1.39-.25.92.68.93,1.53.1,6.41-4.76,10.74-11.33,8.14-7.48-2.96-5.31-12.27,2.37-13.54,2.17-.36,3.13.18,4.77.34Z"/>
    <path class="st23" d="M1083.68,154.06c-2.36,3.11-6.74-1.02-3.25-3.54.15.01.77-.49,1.51-.36,1.95.32,2.94,2.33,1.74,3.9Z"/>
  </g>
</svg>