<?xml version="1.0" standalone="no"?>
<!DOCTYPE svg PUBLIC "-//W3C//DTD SVG 20010904//EN" "http://www.w3.org/TR/2001/REC-SVG-20010904/DTD/svg10.dtd">
<!-- Created using Krita: https://krita.org -->
<svg xmlns="http://www.w3.org/2000/svg" 
    xmlns:xlink="http://www.w3.org/1999/xlink"
    xmlns:krita="http://krita.org/namespaces/svg/krita"
    xmlns:sodipodi="http://sodipodi.sourceforge.net/DTD/sodipodi-0.dtd"
    width="2034.72pt"
    height="1149.12pt"
    viewBox="0 0 2034.72 1149.12">
<defs/>
<g id="group0" transform="matrix(1.89915887757667 0 0 1.17058555790124 -1656.39994604285 1.07999996291658)" fill="none">
  <path id="shape0" transform="translate(870.5, -0.5)" fill="#fefffe" fill-rule="evenodd" stroke-opacity="0" stroke="#000000" stroke-width="0" stroke-linecap="square" stroke-linejoin="bevel" d="M0 0C359.33 0 718.67 0 1078 0C1078 236.667 1078 473.333 1078 710C718.67 710 359.33 710 0 710C0 473.333 0 236.667 0 0Z" sodipodi:nodetypes="ccccc"/>
 </g><g id="group1" transform="matrix(0.72 0 0 2.72873973357185 0 -3204.94424491388)" fill="none">
  <path id="shape1" transform="translate(-0.5, 1476.5)" fill="#1a2a0d" fill-rule="evenodd" stroke-opacity="0" stroke="#000000" stroke-width="0" stroke-linecap="square" stroke-linejoin="bevel" d="M0 0C942 0 1884 0 2826 0C2826 1.67 2826 3.33 2826 5C1884 5 942 5 0 5C0 3.33 0 1.67 0 0Z" sodipodi:nodetypes="ccccc"/>
 </g><g id="group2" transform="matrix(0.720654635532879 0 0 2.72873973357185 -1.49000001591594 -3206.56424490654)" fill="none">
  <path id="shape2" transform="translate(-0.5, 1481.5)" fill="#1d2e0f" fill-rule="evenodd" stroke-opacity="0" stroke="#000000" stroke-width="0" stroke-linecap="square" stroke-linejoin="bevel" d="M0 0C942 0 1884 0 2826 0C2826 4.33 2826 8.67 2826 13C1884 13 942 13 0 13C0 8.67 0 4.33 0 0Z" sodipodi:nodetypes="ccccc"/>
 </g><g id="group3" transform="matrix(0.72 0 0 2.72873973357185 0 -3209.94424491388)" fill="none">
  <path id="shape3" transform="translate(-0.5, 1494.5)" fill="#203112" fill-rule="evenodd" stroke-opacity="0" stroke="#000000" stroke-width="0" stroke-linecap="square" stroke-linejoin="bevel" d="M0 0C942 0 1884 0 2826 0C2826 1.33 2826 2.67 2826 4C1884 4 942 4 0 4C0 2.67 0 1.33 0 0Z" sodipodi:nodetypes="ccccc"/>
 </g><g id="group4" transform="matrix(0.72 0 0 2.72873973357185 0 -3209.94424491388)" fill="none">
  <path id="shape4" transform="translate(-0.5, 1498.5)" fill="#223514" fill-rule="evenodd" stroke-opacity="0" stroke="#000000" stroke-width="0" stroke-linecap="square" stroke-linejoin="bevel" d="M0 0C942 0 1884 0 2826 0C2826 3.67 2826 7.33 2826 11C1884 11 942 11 0 11C0 7.33 0 3.67 0 0Z" sodipodi:nodetypes="ccccc"/>
 </g><g id="group5" transform="matrix(0.72 0 0 2.72873973357185 0 -3214.94424491388)" fill="none">
  <path id="shape5" transform="translate(-0.5, 1509.5)" fill="#263a16" fill-rule="evenodd" stroke-opacity="0" stroke="#000000" stroke-width="0" stroke-linecap="square" stroke-linejoin="bevel" d="M0 0C942 0 1884 0 2826 0C2826 3.33 2826 6.67 2826 10C1884 10 942 10 0 10C0 6.67 0 3.33 0 0Z" sodipodi:nodetypes="ccccc"/>
 </g><g id="group6" transform="matrix(0.72 0 0 2.72873973357185 0 -3219.94424491388)" fill="none">
  <path id="shape6" transform="translate(-0.5, 1519.5)" fill="#293c19" fill-rule="evenodd" stroke-opacity="0" stroke="#000000" stroke-width="0" stroke-linecap="square" stroke-linejoin="bevel" d="M0 0C942 0 1884 0 2826 0C2826 2 2826 4 2826 6C1884 6 942 6 0 6C0 4 0 2 0 0Z" sodipodi:nodetypes="ccccc"/>
 </g><g id="group7" transform="matrix(0.721132342408002 0 0 9.65392580299487 -0.320019054177262 -13819.1439911335)" fill="none">
  <path id="shape7" transform="translate(-0.5, 1527.5)" fill="#2d401a" fill-rule="evenodd" stroke-opacity="0" stroke="#000000" stroke-width="0" stroke-linecap="square" stroke-linejoin="bevel" d="M0 0C942 0 1884 0 2826 0C2826 9.67 2826 19.33 2826 29C1884 29 942 29 0 29C0 19.33 0 9.67 0 0Z" sodipodi:nodetypes="ccccc"/>
 </g><g id="group8" transform="matrix(0.72 0 0 11.9964771634324 7.01999996816699 -3097.53142959122)" fill="none">
  <path id="shape8" transform="translate(-0.5, 1556.5)" fill="#33431d" fill-rule="evenodd" stroke-opacity="0" stroke="#000000" stroke-width="0" stroke-linecap="square" stroke-linejoin="bevel" d="M0 0C942 0 1884 0 2826 0C2826 1.33 2826 2.67 2826 4C1884 4 942 4 0 4C0 2.67 0 1.33 0 0Z" sodipodi:nodetypes="ccccc"/>
 </g>
</svg>
