<?xml version="1.0" standalone="no"?>
<!DOCTYPE svg PUBLIC "-//W3C//DTD SVG 20010904//EN" "http://www.w3.org/TR/2001/REC-SVG-20010904/DTD/svg10.dtd">
<!-- Created using Krita: https://krita.org -->
<svg xmlns="http://www.w3.org/2000/svg" 
    xmlns:xlink="http://www.w3.org/1999/xlink"
    xmlns:krita="http://krita.org/namespaces/svg/krita"
    xmlns:sodipodi="http://sodipodi.sourceforge.net/DTD/sodipodi-0.dtd"
    width="2034.72pt"
    height="1149.12pt"
    viewBox="0 0 2034.72 1149.12">
<defs/>
<g id="group0" transform="matrix(0.845222926700259 0 0 2.40545821660408 -237.5999873859 -2696.63719137371)" fill="none">
  <path id="shape0" transform="translate(-0.5, -0.5)" fill="#fefefe" fill-rule="evenodd" stroke-opacity="0" stroke="#000000" stroke-width="0" stroke-linecap="square" stroke-linejoin="bevel" d="M0 0C149.667 0 299.333 0 449 0C448.667 272.501 449 544.834 450 817C451.068 817.934 452.401 818.268 454 818C455.419 818.951 457.085 819.284 459 819C459.342 819.838 460.008 820.172 461 820C462.068 820.934 463.401 821.268 465 821C465.333 821 465.667 821 466 821C471.53 819.989 476.863 818.656 482 817C492.86 815.36 503.527 813.36 514 811C583.105 797.712 652.105 784.046 721 770C743.952 765.543 766.952 761.21 790 757C791.676 757.683 792.343 759.017 792 761C1205.33 761 1618.67 761 2032 761C2032 760 2032 759 2032 758C2033 758 2034 758 2035 758C2071.07 764.747 2107.07 771.747 2143 779C2164.88 783.308 2186.88 787.641 2209 792C2231.48 796.562 2254.15 800.895 2277 805C2291.08 808.638 2305.42 811.638 2320 814C2330.7 816.887 2341.7 818.887 2353 820C2353.34 820.838 2354.01 821.172 2355 821C2355.99 821.172 2356.66 820.838 2357 820C2357.67 820 2358.33 820 2359 820C2360.11 819.943 2361.11 819.61 2362 819C2363.29 819.237 2364.29 818.904 2365 818C2366 818 2367 818 2368 818C2369 818.086 2369.83 817.752 2370.5 817C2371 544.667 2371.17 272.334 2371 0C2522.67 0 2674.33 0 2826 0C2826 492.333 2826 984.667 2826 1477C1884 1477 942 1477 0 1477C0 984.667 0 492.333 0 0Z" sodipodi:nodetypes="ccccccccccccccccccccccccccccccccc"/>
 </g><g id="group1" transform="matrix(0.491065181569921 0 0 0.59496557334909 326.298566051764 -0.0625172133254659)" fill="none">
  <path id="shape1" transform="translate(448.375140620603, -0.5)" fill="#bfbfbf" fill-rule="evenodd" stroke-opacity="0" stroke="#000000" stroke-width="0" stroke-linecap="square" stroke-linejoin="bevel" d="M0.124859 0C0.791859 0 1.45786 0 2.12486 0C2.45786 272.501 2.12486 544.834 1.12486 817C0.124859 544.834 -0.208141 272.501 0.124859 0Z" sodipodi:nodetypes="cccc"/>
 </g><g id="group2" transform="matrix(0.491065181569921 0 0 0.59496557334909 326.298566051764 -0.0625172133254659)" fill="none">
  <path id="shape2" transform="translate(449.5, -0.5)" fill="#c5c5c4" fill-rule="evenodd" stroke-opacity="0" stroke="#000000" stroke-width="0" stroke-linecap="square" stroke-linejoin="bevel" d="M1 0C2 0 3 0 4 0C4 272.667 4 545.333 4 818C2.401 818.268 1.068 817.934 0 817C1 544.834 1.333 272.501 1 0Z" sodipodi:nodetypes="ccccc"/>
 </g><g id="group3" transform="matrix(0.491065181569921 0 0 0.59496557334909 326.298566051764 -0.0625172133254659)" fill="none">
  <path id="shape3" transform="translate(453.5, -0.5)" fill="#cbcbca" fill-rule="evenodd" stroke-opacity="0" stroke="#000000" stroke-width="0" stroke-linecap="square" stroke-linejoin="bevel" d="M0 0C0.667 0 1.333 0 2 0C2.666 273.002 1.999 545.669 0 818C0 545.333 0 272.667 0 0Z" sodipodi:nodetypes="cccc"/>
 </g><g id="group4" transform="matrix(0.491065181569921 0 0 0.59496557334909 326.298566051764 -0.0625172133254659)" fill="none">
  <path id="shape4" transform="translate(453.5, -0.5)" fill="#d1d1d0" fill-rule="evenodd" stroke-opacity="0" stroke="#000000" stroke-width="0" stroke-linecap="square" stroke-linejoin="bevel" d="M2 0C3 0 4 0 5 0C5 273 5 546 5 819C3.085 819.284 1.419 818.951 0 818C1.999 545.669 2.666 273.002 2 0Z" sodipodi:nodetypes="ccccc"/>
 </g><g id="group5" transform="matrix(0.491065181569921 0 0 0.59496557334909 326.298566051764 -0.0625172133254659)" fill="none">
  <path id="shape5" transform="translate(458.5, -0.5)" fill="#d7d7d6" fill-rule="evenodd" stroke-opacity="0" stroke="#000000" stroke-width="0" stroke-linecap="square" stroke-linejoin="bevel" d="M0 0C1 0 2 0 3 0C3.333 273.501 3 546.834 2 820C1.008 820.172 0.342 819.838 0 819C0 546 0 273 0 0Z" sodipodi:nodetypes="ccccc"/>
 </g><g id="group6" transform="matrix(0.491065181569921 0 0 0.59496557334909 326.298566051764 -0.0625172133254659)" fill="none">
  <path id="shape6" transform="translate(460.5, -0.5)" fill="#dddcdb" fill-rule="evenodd" stroke-opacity="0" stroke="#000000" stroke-width="0" stroke-linecap="square" stroke-linejoin="bevel" d="M1 0C2 0 3 0 4 0C4 273.667 4 547.333 4 821C2.401 821.268 1.068 820.934 0 820C1 546.834 1.333 273.501 1 0Z" sodipodi:nodetypes="ccccc"/>
 </g><g id="group7" transform="matrix(0.491065181569921 0 0 0.59496557334909 326.298566051764 -0.0625172133254659)" fill="none">
  <path id="shape7" transform="translate(464.5, -0.5)" fill="#c5c5c4" fill-rule="evenodd" stroke-opacity="0" stroke="#000000" stroke-width="0" stroke-linecap="square" stroke-linejoin="bevel" d="M0 0C1 0 2 0 3 0C3 272.333 3 544.667 3 817C1.9 818.105 1.233 819.438 1 821C0.667 821 0.333 821 0 821C0 547.333 0 273.667 0 0Z" sodipodi:nodetypes="cccccc"/>
 </g><g id="group8" transform="matrix(0.491065181569921 0 0 0.59496557334909 326.298566051764 -0.0625172133254659)" fill="none">
  <path id="shape8" transform="translate(467.5, -0.5)" fill="#cececd" fill-rule="evenodd" stroke-opacity="0" stroke="#000000" stroke-width="0" stroke-linecap="square" stroke-linejoin="bevel" d="M0 0C0.667 0 1.333 0 2 0C2.167 272 2 544 1.5 816C1.117 816.556 0.617 816.889 0 817C0 544.667 0 272.333 0 0Z" sodipodi:nodetypes="ccccc"/>
 </g><g id="group9" transform="matrix(0.491065181569921 0 0 0.59496557334909 326.298566051764 -0.0625172133254659)" fill="none">
  <path id="shape9" transform="translate(465.5, -0.5)" fill="#d3d3d2" fill-rule="evenodd" stroke-opacity="0" stroke="#000000" stroke-width="0" stroke-linecap="square" stroke-linejoin="bevel" d="M4 0C4.667 0 5.333 0 6 0C5.833 270.667 6 541.334 6.5 812C7.981 811.029 8.815 809.696 9 808C11.561 805.86 13.895 803.527 16 801C16 806.333 16 811.667 16 817C10.863 818.656 5.53 819.989 0 821C0.233 819.438 0.9 818.105 2 817C2.617 816.889 3.117 816.556 3.5 816C4 544 4.167 272 4 0Z" sodipodi:nodetypes="cccccccccc"/>
 </g><g id="group10" transform="matrix(0.491065181569921 0 0 0.59496557334909 326.298566051764 -0.0625172133254659)" fill="none">
  <path id="shape10" transform="translate(471.437359366222, -0.5)" fill="#d8d8d7" fill-rule="evenodd" stroke-opacity="0" stroke="#000000" stroke-width="0" stroke-linecap="square" stroke-linejoin="bevel" d="M0.0626406 0C1.06264 0 2.06264 0 3.06264 0C3.06264 269.333 3.06264 538.667 3.06264 808C2.87764 809.696 2.04364 811.029 0.562641 812C0.0626406 541.334 -0.104359 270.667 0.0626406 0Z" sodipodi:nodetypes="ccccc"/>
 </g><g id="group11" transform="matrix(0.491065181569921 0 0 0.59496557334909 326.298566051764 -0.0625172133254659)" fill="none">
  <path id="shape11" transform="translate(474.5, -0.5)" fill="#dedddc" fill-rule="evenodd" stroke-opacity="0" stroke="#000000" stroke-width="0" stroke-linecap="square" stroke-linejoin="bevel" d="M0 0C2.333 0 4.667 0 7 0C7 267 7 534 7 801C4.895 803.527 2.561 805.86 0 808C0 538.667 0 269.333 0 0Z" sodipodi:nodetypes="ccccc"/>
 </g><g id="group12" transform="matrix(0.491065181569921 0 0 0.59496557334909 326.298566051764 -0.0625172133254659)" fill="none">
  <path id="shape12" transform="translate(481.5, -0.5)" fill="#c9c9c9" fill-rule="evenodd" stroke-opacity="0" stroke="#000000" stroke-width="0" stroke-linecap="square" stroke-linejoin="bevel" d="M0 0C6 0 12 0 18 0C17.667 261.167 18 522.167 19 783C19.709 783.904 20.709 784.237 22 784C22 522.667 22 261.333 22 0C22.333 0 22.667 0 23 0C23 261.333 23 522.667 23 784C29.107 783.556 35.107 782.556 41 781C51.042 779.592 61.042 777.925 71 776C71.326 767.151 70.993 758.484 70 750C81.768 747.372 93.768 745.372 106 744C107 744 108 744 109 744C109 752.333 109 760.667 109 769C121.222 766.963 133.222 764.963 145 763C144.42 767.149 145.086 770.816 147 774C108.17 781.235 69.17 788.235 30 795C29.387 800.771 30.054 806.104 32 811C21.527 813.36 10.86 815.36 0 817C0 811.667 0 806.333 0 801C0 534 0 267 0 0Z" sodipodi:nodetypes="cccccccccccccccccccc"/>
 </g><g id="group13" transform="matrix(0.491065181569921 0 0 0.59496557334909 326.298566051764 -0.0625172133254659)" fill="none">
  <path id="shape13" transform="translate(499.375140620603, -0.5)" fill="#a9a8a8" fill-rule="evenodd" stroke-opacity="0" stroke="#000000" stroke-width="0" stroke-linecap="square" stroke-linejoin="bevel" d="M0.124859 0C1.12486 0 2.12486 0 3.12486 0C3.79086 261.335 3.12386 522.335 1.12486 783C0.124859 522.167 -0.208141 261.167 0.124859 0Z" sodipodi:nodetypes="cccc"/>
 </g><g id="group14" transform="matrix(0.491065181569921 0 0 0.59496557334909 326.298566051764 -0.0625172133254659)" fill="none">
  <path id="shape14" transform="translate(500.5, -0.5)" fill="#c1c0c0" fill-rule="evenodd" stroke-opacity="0" stroke="#000000" stroke-width="0" stroke-linecap="square" stroke-linejoin="bevel" d="M2 0C2.333 0 2.667 0 3 0C3 261.333 3 522.667 3 784C1.709 784.237 0.709 783.904 0 783C1.999 522.335 2.666 261.335 2 0Z" sodipodi:nodetypes="ccccc"/>
 </g><g id="group15" transform="matrix(0.491065181569921 0 0 0.59496557334909 326.298566051764 -0.0625172133254659)" fill="none">
  <path id="shape15" transform="translate(504.5, -0.5)" fill="#bfbfbf" fill-rule="evenodd" stroke-opacity="0" stroke="#000000" stroke-width="0" stroke-linecap="square" stroke-linejoin="bevel" d="M0 0C6 0 12 0 18 0C18 260.333 18 520.667 18 781C12.107 782.556 6.107 783.556 0 784C0 522.667 0 261.333 0 0Z" sodipodi:nodetypes="ccccc"/>
 </g><g id="group16" transform="matrix(0.491065181569921 0 0 0.59496557334909 326.298566051764 -0.0625172133254659)" fill="none">
  <path id="shape16" transform="translate(522.5, -0.5)" fill="#c3c3c2" fill-rule="evenodd" stroke-opacity="0" stroke="#000000" stroke-width="0" stroke-linecap="square" stroke-linejoin="bevel" d="M0 0C6 0 12 0 18 0C18 35.3333 18 70.6667 18 106C22.019 106.146 26.019 106.479 30 107C30.325 114.519 29.992 121.852 29 129C25.667 129 22.333 129 19 129C18.001 199.165 17.667 269.498 18 340C22 340 26 340 30 340C30 347.333 30 354.667 30 362C26 362 22 362 18 362C18 432.333 18 502.667 18 573C20.333 573 22.667 573 25 573C26.667 573 28.333 573 30 573C30 580.333 30 587.667 30 595C25.966 595.005 21.966 595.338 18 596C18 647.667 18 699.333 18 751C21.635 750.386 25.302 750.052 29 750C29.993 758.484 30.326 767.151 30 776C20.042 777.925 10.042 779.592 0 781C0 520.667 0 260.333 0 0Z" sodipodi:nodetypes="cccccccccccccccccccc"/>
 </g><g id="group17" transform="matrix(0.491065181569921 0 0 0.59496557334909 326.298566051764 -0.0625172133254659)" fill="none">
  <path id="shape17" transform="translate(540.5, -0.5)" fill="#e5f8fd" fill-rule="evenodd" stroke-opacity="0" stroke="#000000" stroke-width="0" stroke-linecap="square" stroke-linejoin="bevel" d="M0 0C41.667 0 83.333 0 125 0C125 39.3333 125 78.6667 125 118C115.635 117.264 106.302 116.264 97 115C81.341 113.601 65.674 112.267 50 111C37.376 109.339 24.709 108.005 12 107C8.019 106.479 4.019 106.146 0 106C0 70.6667 0 35.3333 0 0Z" sodipodi:nodetypes="cccccccc"/>
 </g><g id="group18" transform="matrix(0.491065181569921 0 0 0.59496557334909 326.298566051764 -0.0625172133254659)" fill="none">
  <path id="shape18" transform="translate(635.5, -0.5)" fill="#d9d8d7" fill-rule="evenodd" stroke-opacity="0" stroke="#000000" stroke-width="0" stroke-linecap="square" stroke-linejoin="bevel" d="M30 0C30.333 0 30.667 0 31 0C31 39.3333 31 78.6667 31 118C32.419 118.951 34.085 119.284 36 119C36 79.3333 36 39.6667 36 0C43.333 0 50.667 0 58 0C58 40.3333 58 80.6667 58 121C61.679 121.224 65.346 121.558 69 122C69 129 69 136 69 143C65.333 143 61.667 143 58 143C58 208.667 58 274.333 58 340C75.333 340 92.667 340 110 340C110 340.333 110 340.667 110 341C96.333 341 82.667 341 69 341C69 347.667 69 354.333 69 361C65.333 361 61.667 361 58 361C58 427 58 493 58 559C60.667 559 63.333 559 66 559C67 559 68 559 69 559C68.705 566.088 69.038 573.088 70 580C65.981 580.146 61.981 580.479 58 581C58 629.333 58 677.667 58 726C61.654 725.558 65.321 725.224 69 725C69 733 69 741 69 749C47.774 753.093 26.44 756.76 5 760C5 751.667 5 743.333 5 735C13.631 733.451 22.297 732.117 31 731C31 682 31 633 31 584C22.311 584.402 13.644 585.069 5 586C5 579 5 572 5 565C3.333 565 1.667 565 0 565C10.138 563.471 20.471 562.471 31 562C31 495.333 31 428.667 31 362C28.333 362 25.667 362 23 362C17.19 361.01 11.19 360.677 5 361C5 354 5 347 5 340C13.667 340 22.333 340 31 340C31 273.333 31 206.667 31 140C21.172 139.169 11.506 138.169 2 137C3 137 4 137 5 137C5 130 5 123 5 116C3.709 116.237 2.709 115.904 2 115C11.302 116.264 20.635 117.264 30 118C30 78.6667 30 39.3333 30 0Z" sodipodi:nodetypes="cccccccccccccccccccccccccccccccccccccccccccc"/>
 </g><g id="group19" transform="matrix(0.491065181569921 0 0 0.59496557334909 326.298566051764 -0.0625172133254659)" fill="none">
  <path id="shape19" transform="translate(666.5, -0.5)" fill="#d0cfcf" fill-rule="evenodd" stroke-opacity="0" stroke="#000000" stroke-width="0" stroke-linecap="square" stroke-linejoin="bevel" d="M3 0C3.667 0 4.333 0 5 0C5 39.6667 5 79.3333 5 119C3.085 119.284 1.419 118.951 0 118C1 118 2 118 3 118C3 78.6667 3 39.3333 3 0Z" sodipodi:nodetypes="cccccc"/>
 </g><g id="group20" transform="matrix(0.491065181569921 0 0 0.59496557334909 326.298566051764 -0.0625172133254659)" fill="none">
  <path id="shape20" transform="translate(666.5, -0.5)" fill="#aeaeae" fill-rule="evenodd" stroke-opacity="0" stroke="#000000" stroke-width="0" stroke-linecap="square" stroke-linejoin="bevel" d="M0 0C1 0 2 0 3 0C3 39.3333 3 78.6667 3 118C2 118 1 118 0 118C0 78.6667 0 39.3333 0 0Z" sodipodi:nodetypes="ccccc"/>
 </g><g id="group21" transform="matrix(0.491065181569921 0 0 0.59496557334909 326.298566051764 -0.0625172133254659)" fill="none">
  <path id="shape21" transform="translate(693.5, -0.5)" fill="#e5f8fd" fill-rule="evenodd" stroke-opacity="0" stroke="#000000" stroke-width="0" stroke-linecap="square" stroke-linejoin="bevel" d="M0 0C32.667 0 65.333 0 98 0C98 43.3333 98 86.6667 98 130C68.976 127.627 39.976 124.96 11 122C7.346 121.558 3.679 121.224 0 121C0 80.6667 0 40.3333 0 0Z" sodipodi:nodetypes="cccccc"/>
 </g><g id="group22" transform="matrix(0.491065181569921 0 0 0.59496557334909 326.298566051764 -0.0625172133254659)" fill="none">
  <path id="shape22" transform="translate(791.5, -0.5)" fill="#c7dadf" fill-rule="evenodd" stroke-opacity="0" stroke="#000000" stroke-width="0" stroke-linecap="square" stroke-linejoin="bevel" d="M0 0C4 0 8 0 12 0C12 44 12 88 12 132C7.895 131.391 3.895 130.725 0 130C0 86.6667 0 43.3333 0 0Z" sodipodi:nodetypes="ccccc"/>
 </g><g id="group23" transform="matrix(0.491065181569921 0 0 0.59496557334909 326.298566051764 -0.0625172133254659)" fill="none">
  <path id="shape23" transform="translate(803.5, -0.5)" fill="#a8a8a8" fill-rule="evenodd" stroke-opacity="0" stroke="#000000" stroke-width="0" stroke-linecap="square" stroke-linejoin="bevel" d="M0 0C0.667 0 1.333 0 2 0C2 44 2 88 2 132C1.333 132 0.667 132 0 132C0 88 0 44 0 0Z" sodipodi:nodetypes="ccccc"/>
 </g><g id="group24" transform="matrix(0.491065181569921 0 0 0.59496557334909 326.298566051764 -0.0625172133254659)" fill="none">
  <path id="shape24" transform="translate(805.5, -0.5)" fill="#c4c3c3" fill-rule="evenodd" stroke-opacity="0" stroke="#000000" stroke-width="0" stroke-linecap="square" stroke-linejoin="bevel" d="M0 0C0.667 0 1.333 0 2 0C2.661 44.346 1.995 88.346 0 132C0 88 0 44 0 0Z" sodipodi:nodetypes="cccc"/>
 </g><g id="group25" transform="matrix(0.491065181569921 0 0 0.59496557334909 326.298566051764 -0.0625172133254659)" fill="none">
  <path id="shape25" transform="translate(701.5, -0.5)" fill="#dedddc" fill-rule="evenodd" stroke-opacity="0" stroke="#000000" stroke-width="0" stroke-linecap="square" stroke-linejoin="bevel" d="M106 0C115.333 0 124.667 0 134 0C134 242.333 134 484.667 134 727C114.239 729.819 94.572 733.152 75 737C50.999 741 26.999 745 3 749C3 741 3 733 3 725C31.89 719.907 60.89 714.907 90 710C94.034 709.995 98.034 709.662 102 709C102 662.667 102 616.333 102 570C98.019 570.521 94.019 570.854 90 571C61.302 573.855 32.635 576.855 4 580C3.038 573.088 2.705 566.088 3 559C2 559 1 559 0 559C29.989 555.88 59.989 552.88 90 550C93.937 550.293 97.77 549.96 101.5 549C102 486.334 102.167 423.668 102 361C98 361 94 361 90 361C61 361 32 361 3 361C3 354.333 3 347.667 3 341C16.667 341 30.333 341 44 341C63.333 341 82.667 341 102 341C102.332 277.831 101.999 214.831 101 152C97.285 152.077 93.619 151.744 90 151C60.801 148.912 31.801 146.246 3 143C3 136 3 129 3 122C31.976 124.96 60.976 127.627 90 130C93.895 130.725 97.895 131.391 102 132C102.667 132 103.333 132 104 132C105.995 88.346 106.661 44.346 106 0Z" sodipodi:nodetypes="ccccccccccccccccccccccccccccc"/>
 </g><g id="group26" transform="matrix(0.491065181569921 0 0 0.59496557334909 326.298566051764 -0.0625172133254659)" fill="none">
  <path id="shape26" transform="translate(775.42111870328, -0.5)" fill="#d8d8d7" fill-rule="evenodd" stroke-opacity="0" stroke="#000000" stroke-width="0" stroke-linecap="square" stroke-linejoin="bevel" d="M60.0789 0C71.4119 0 82.7459 0 94.0789 0C94.4119 247.001 94.0789 494.001 93.0789 741C85.1309 742.923 77.1309 744.59 69.0789 746C69.0789 742.667 69.0789 739.333 69.0789 736C51.2699 738.363 33.6029 741.363 16.0789 745C11.7029 745.409 7.36888 746.075 3.07888 747C2.07888 747 1.07888 747 0.0788813 747C-0.168119 743.561 0.164881 740.228 1.07888 737C20.6509 733.152 40.3179 729.819 60.0789 727C60.0789 484.667 60.0789 242.333 60.0789 0Z" sodipodi:nodetypes="ccccccccccc"/>
 </g><g id="group27" transform="matrix(0.491065181569921 0 0 0.59496557334909 326.298566051764 -0.0625172133254659)" fill="none">
  <path id="shape27" transform="translate(1949.5, -0.5)" fill="#d7d7d6" fill-rule="evenodd" stroke-opacity="0" stroke="#000000" stroke-width="0" stroke-linecap="square" stroke-linejoin="bevel" d="M0 0C1.33 0 2.67 0 4 0C4 247.333 4 494.667 4 742C2.79 741.266 1.46 740.933 0 741C0 494 0 247 0 0Z" sodipodi:nodetypes="ccccc"/>
 </g><g id="group28" transform="matrix(0.491065181569921 0 0 0.59496557334909 326.298566051764 -0.0625172133254659)" fill="none">
  <path id="shape28" transform="translate(1953.5, -0.5)" fill="#d3d3d2" fill-rule="evenodd" stroke-opacity="0" stroke="#000000" stroke-width="0" stroke-linecap="square" stroke-linejoin="bevel" d="M0 0C2.33 0 4.67 0 7 0C6.58 244.5 5.92 488.833 5 733C7.67 733.333 10.33 733.667 13 734C13 737.333 13 740.667 13 744C8.65 743.441 4.31 742.775 0 742C0 494.667 0 247.333 0 0Z" sodipodi:nodetypes="ccccccc"/>
 </g><g id="group29" transform="matrix(0.491065181569921 0 0 0.59496557334909 326.298566051764 -0.0625172133254659)" fill="none">
  <path id="shape29" transform="translate(1958.5, -0.5)" fill="#c8c8c8" fill-rule="evenodd" stroke-opacity="0" stroke="#000000" stroke-width="0" stroke-linecap="square" stroke-linejoin="bevel" d="M2 0C9.33 0 16.67 0 24 0C23.83 242 24 484 24.5 726C29.77 727.933 35.27 728.933 41 729C51.07 731.73 61.4 733.73 72 735C72 727 72 719 72 711C72.33 711 72.67 711 73 711C85.33 713 97.67 715 110 717C109.83 725.007 110 733.007 110.5 741C122.24 743.31 133.74 745.643 145 748C145.99 751.607 146.32 755.274 146 759C104.76 751.015 63.42 743.682 22 737C22 740.333 22 743.667 22 747C17.21 746.51 12.55 745.51 8 744C8 740.667 8 737.333 8 734C5.33 733.667 2.67 733.333 0 733C0.92 488.833 1.58 244.5 2 0Z" sodipodi:nodetypes="ccccccccccccccccc"/>
 </g><g id="group30" transform="matrix(0.491065181569921 0 0 0.59496557334909 326.298566051764 -0.0625172133254659)" fill="none">
  <path id="shape30" transform="translate(1982.43609288194, -0.5)" fill="#bfbfbe" fill-rule="evenodd" stroke-opacity="0" stroke="#000000" stroke-width="0" stroke-linecap="square" stroke-linejoin="bevel" d="M0.0639071 0C6.06391 0 12.0639 0 18.0639 0C18.3939 243.167 18.0639 486.167 17.0639 729C11.3339 728.933 5.83391 727.933 0.563907 726C0.0639071 484 -0.106093 242 0.0639071 0Z" sodipodi:nodetypes="ccccc"/>
 </g><g id="group31" transform="matrix(0.491065181569921 0 0 0.59496557334909 326.298566051764 -0.0625172133254659)" fill="none">
  <path id="shape31" transform="translate(1999.5, -0.5)" fill="#c4c4c3" fill-rule="evenodd" stroke-opacity="0" stroke="#000000" stroke-width="0" stroke-linecap="square" stroke-linejoin="bevel" d="M1 0C4.33 0 7.67 0 11 0C11.67 176 12.33 176 13 0C14 0 15 0 16 0C15.83 44.0013 16 88.0013 16.5 132C20.9 131.033 25.4 130.7 30 131C30.99 137.479 31.32 144.146 31 151C26.02 151.553 21.02 151.887 16 152C16 215 16 278 16 341C21 341 26 341 31 341C31 347.667 31 354.333 31 361C26 361 21 361 16 361C16 424 16 487 16 550C21.03 550.003 26.03 550.336 31 551C31 557.667 31 564.333 31 571C25.96 571.087 20.96 570.754 16 570C16 616.333 16 662.667 16 709C21.05 709.342 26.05 710.008 31 711C31 719 31 727 31 735C20.4 733.73 10.07 731.73 0 729C1 486.167 1.33 243.167 1 0Z" sodipodi:nodetypes="ccccccccccccccccccccc"/>
 </g><g id="group32" transform="matrix(0.491065181569921 0 0 0.59496557334909 326.298566051764 -0.0625172133254659)" fill="none">
  <path id="shape32" transform="translate(2010.5, -0.5)" fill="#ababab" fill-rule="evenodd" stroke-opacity="0" stroke="#000000" stroke-width="0" stroke-linecap="square" stroke-linejoin="bevel" d="M0 0C0.67 0 1.33 0 2 0C1.33 176 0.67 176 0 0Z" sodipodi:nodetypes="ccc"/>
 </g><g id="group33" transform="matrix(0.491065181569921 0 0 0.59496557334909 326.298566051764 -0.0625172133254659)" fill="none">
  <path id="shape33" transform="translate(2015.43609288194, -0.5)" fill="#c9dce0" fill-rule="evenodd" stroke-opacity="0" stroke="#000000" stroke-width="0" stroke-linecap="square" stroke-linejoin="bevel" d="M0.0639071 0C5.39391 0 10.7339 0 16.0639 0C16.0639 43.3333 16.0639 86.6667 16.0639 130C15.0739 129.828 14.4039 130.162 14.0639 131C9.46391 130.7 4.96391 131.033 0.563907 132C0.0639071 88.0013 -0.106093 44.0013 0.0639071 0Z" sodipodi:nodetypes="cccccc"/>
 </g><g id="group34" transform="matrix(0.491065181569921 0 0 0.59496557334909 326.298566051764 -0.0625172133254659)" fill="none">
  <path id="shape34" transform="translate(2031.5, -0.5)" fill="#e5f8fd" fill-rule="evenodd" stroke-opacity="0" stroke="#000000" stroke-width="0" stroke-linecap="square" stroke-linejoin="bevel" d="M0 0C31.33 0 62.67 0 94 0C94 40.3333 94 80.6667 94 121C74.46 122.354 55.12 124.354 36 127C23.97 127.707 11.97 128.707 0 130C0 86.6667 0 43.3333 0 0Z" sodipodi:nodetypes="cccccc"/>
 </g><g id="group35" transform="matrix(0.491065181569921 0 0 0.59496557334909 326.298566051764 -0.0625172133254659)" fill="none">
  <path id="shape35" transform="translate(2041.5, -0.5)" fill="#d6d6d5" fill-rule="evenodd" stroke-opacity="0" stroke="#000000" stroke-width="0" stroke-linecap="square" stroke-linejoin="bevel" d="M84 0C91.33 0 98.67 0 106 0C106 39.6667 106 79.3333 106 119C107.33 119 108.67 119 110 119C110 79.3333 110 39.6667 110 0C110.33 0 110.67 0 111 0C111 39.3333 111 78.6667 111 118C119.3 117.003 127.64 116.336 136 116C137.67 116 139.33 116 141 116C141 123 141 130 141 137C131 137.898 121 138.898 111 140C111 206.667 111 273.333 111 340C115 340 119 340 123 340C123 347 123 354 123 361C134.51 360.672 145.85 361.005 157 362C141.67 362 126.33 362 111 362C111 428.667 111 495.333 111 562C115 562.333 119 562.667 123 563C123 570 123 577 123 584C121.33 584 119.67 584 118 584C115.67 584 113.33 584 111 584C111 633 111 682 111 731C115.08 731.392 119.08 732.058 123 733C123 741.333 123 749.667 123 758C103.67 754.667 84.33 751.333 65 748C65.3 739.582 64.97 731.248 64 723C70.61 724.372 77.27 725.372 84 726C84 677.667 84 629.333 84 581C64.92 579.326 45.92 577.326 27 575C27 568 27 561 27 554C45.95 556.163 64.95 557.829 84 559C84 493.333 84 427.667 84 362C55.83 362.331 27.83 361.998 0 361C9 361 18 361 27 361C27 354.333 27 347.667 27 341C22.67 341 18.33 341 14 341C14 340.667 14 340.333 14 340C37.33 340 60.67 340 84 340C84.17 273.999 84 207.999 83.5 142C64.76 144.147 45.93 145.814 27 147C27.32 140.146 26.99 133.479 26 127C45.12 124.354 64.46 122.354 84 121C84 80.6667 84 40.3333 84 0Z" sodipodi:nodetypes="ccccccccccccccccccccccccccccccccccccccccccc"/>
 </g><g id="group36" transform="matrix(0.491065181569921 0 0 0.59496557334909 326.298566051764 -0.0625172133254659)" fill="none">
  <path id="shape36" transform="translate(2147.5, -0.5)" fill="#bcbbbb" fill-rule="evenodd" stroke-opacity="0" stroke="#000000" stroke-width="0" stroke-linecap="square" stroke-linejoin="bevel" d="M0 0C1.33 0 2.67 0 4 0C4 39.6667 4 79.3333 4 119C2.67 119 1.33 119 0 119C0 79.3333 0 39.6667 0 0Z" sodipodi:nodetypes="ccccc"/>
 </g><g id="group37" transform="matrix(0.491065181569921 0 0 0.59496557334909 326.298566051764 -0.0625172133254659)" fill="none">
  <path id="shape37" transform="translate(2152.5, -0.5)" fill="#e5f8fd" fill-rule="evenodd" stroke-opacity="0" stroke="#000000" stroke-width="0" stroke-linecap="square" stroke-linejoin="bevel" d="M0 0C42 0 84 0 126 0C126 35.3333 126 70.6667 126 106C92.12 108.621 58.45 111.955 25 116C16.64 116.336 8.3 117.003 0 118C0 78.6667 0 39.3333 0 0Z" sodipodi:nodetypes="cccccc"/>
 </g><g id="group38" transform="matrix(0.491065181569921 0 0 0.59496557334909 326.298566051764 -0.0625172133254659)" fill="none">
  <path id="shape38" transform="translate(2159.5, -0.5)" fill="#dfdedd" fill-rule="evenodd" stroke-opacity="0" stroke="#000000" stroke-width="0" stroke-linecap="square" stroke-linejoin="bevel" d="M119 0C131 0 143 0 155 0C155 261.333 155 522.667 155 784C135.04 780.451 115.04 777.117 95 774C65.07 768.456 35.07 763.122 5 758C5 749.667 5 741.333 5 733C42.96 739.216 80.96 745.216 119 751C119 699.333 119 647.667 119 596C79.13 592.58 39.46 588.58 0 584C1.67 584 3.33 584 5 584C5 577 5 570 5 563C42.65 566.581 80.31 569.914 118 573C119 502.835 119.33 432.502 119 362C115 362 111 362 107 362C84.33 362 61.67 362 39 362C27.85 361.005 16.51 360.672 5 361C5 354 5 347 5 340C17.67 340 30.33 340 43 340C68.33 340 93.67 340 119 340C119.33 269.498 119 199.165 118 129C86.32 131.468 54.65 134.135 23 137C23 130 23 123 23 116C21.33 116 19.67 116 18 116C51.45 111.955 85.12 108.621 119 106C119 70.6667 119 35.3333 119 0Z" sodipodi:nodetypes="ccccccccccccccccccccccccc"/>
 </g><g id="group39" transform="matrix(0.491065181569921 0 0 0.59496557334909 326.298566051764 -0.0625172133254659)" fill="none">
  <path id="shape39" transform="translate(2314.5, -0.5)" fill="#afaeae" fill-rule="evenodd" stroke-opacity="0" stroke="#000000" stroke-width="0" stroke-linecap="square" stroke-linejoin="bevel" d="M0 0C0.67 0 1.33 0 2 0C2 261.333 2 522.667 2 784C1.33 784 0.67 784 0 784C0 522.667 0 261.333 0 0Z" sodipodi:nodetypes="ccccc"/>
 </g><g id="group40" transform="matrix(0.491065181569921 0 0 0.59496557334909 326.298566051764 -0.0625172133254659)" fill="none">
  <path id="shape40" transform="translate(2316.5, -0.5)" fill="#cbcaca" fill-rule="evenodd" stroke-opacity="0" stroke="#000000" stroke-width="0" stroke-linecap="square" stroke-linejoin="bevel" d="M0 0C0.67 0 1.33 0 2 0C2.17 261 2 522 1.5 783C1.12 783.556 0.62 783.889 0 784C0 522.667 0 261.333 0 0Z" sodipodi:nodetypes="ccccc"/>
 </g><g id="group41" transform="matrix(0.491065181569921 0 0 0.59496557334909 326.298566051764 -0.0625172133254659)" fill="none">
  <path id="shape41" transform="translate(2254.34860715371, -0.5)" fill="#d8d8d7" fill-rule="evenodd" stroke-opacity="0" stroke="#000000" stroke-width="0" stroke-linecap="square" stroke-linejoin="bevel" d="M64.1514 0C70.4814 0 76.8214 0 83.1514 0C82.8214 267.403 83.1514 534.736 84.1514 802C84.4814 803 85.1514 803.667 86.1514 804C86.7714 805.127 87.6114 806.127 88.6514 807C89.1514 538 89.3214 269 89.1514 0C90.4814 0 91.8214 0 93.1514 0C92.9814 271 93.1514 542 93.6514 813C95.4014 815.234 96.9014 817.568 98.1514 820C86.8514 818.887 75.8514 816.887 65.1514 814C66.4614 811.757 67.1314 809.09 67.1514 806C67.1314 803.079 66.7914 800.246 66.1514 797.5C50.8914 794.215 35.5614 791.381 20.1514 789C14.2314 787.569 8.23139 786.569 2.15139 786C0.331393 782.327 -0.328607 778.327 0.151393 774C20.1914 777.117 40.1914 780.451 60.1514 784C60.8214 784 61.4814 784 62.1514 784C62.7714 783.889 63.2714 783.556 63.6514 783C64.1514 522 64.3214 261 64.1514 0Z" sodipodi:nodetypes="ccccccccccccccccccc"/>
 </g><g id="group42" transform="matrix(0.491065181569921 0 0 0.59496557334909 326.298566051764 -0.0625172133254659)" fill="none">
  <path id="shape42" transform="translate(2337.37640580778, -0.5)" fill="#c2c2c1" fill-rule="evenodd" stroke-opacity="0" stroke="#000000" stroke-width="0" stroke-linecap="square" stroke-linejoin="bevel" d="M0.123594 0C0.793594 0 1.45359 0 2.12359 0C2.45359 267.501 2.12359 534.834 1.12359 802C0.123594 534.736 -0.206406 267.403 0.123594 0Z" sodipodi:nodetypes="cccc"/>
 </g><g id="group43" transform="matrix(0.491065181569921 0 0 0.59496557334909 326.298566051764 -0.0625172133254659)" fill="none">
  <path id="shape43" transform="translate(2338.5, -0.5)" fill="#cacac9" fill-rule="evenodd" stroke-opacity="0" stroke="#000000" stroke-width="0" stroke-linecap="square" stroke-linejoin="bevel" d="M1 0C1.67 0 2.33 0 3 0C3.33 268.167 3 536.167 2 804C1 803.667 0.33 803 0 802C1 534.834 1.33 267.501 1 0Z" sodipodi:nodetypes="ccccc"/>
 </g><g id="group44" transform="matrix(0.491065181569921 0 0 0.59496557334909 326.298566051764 -0.0625172133254659)" fill="none">
  <path id="shape44" transform="translate(2340.5, -0.5)" fill="#d0d0cf" fill-rule="evenodd" stroke-opacity="0" stroke="#000000" stroke-width="0" stroke-linecap="square" stroke-linejoin="bevel" d="M1 0C1.67 0 2.33 0 3 0C3.17 269 3 538 2.5 807C1.46 806.127 0.62 805.127 0 804C1 536.167 1.33 268.167 1 0Z" sodipodi:nodetypes="ccccc"/>
 </g><g id="group45" transform="matrix(0.491065181569921 0 0 0.59496557334909 326.298566051764 -0.0625172133254659)" fill="none">
  <path id="shape45" transform="translate(2347.43609288194, -0.5)" fill="#dddcdb" fill-rule="evenodd" stroke-opacity="0" stroke="#000000" stroke-width="0" stroke-linecap="square" stroke-linejoin="bevel" d="M0.0639071 0C2.39391 0 4.73391 0 7.06391 0C7.06391 273.667 7.06391 547.333 7.06391 821C6.07391 821.172 5.40391 820.838 5.06391 820C3.81391 817.568 2.31391 815.234 0.563907 813C0.0639071 542 -0.106093 271 0.0639071 0Z" sodipodi:nodetypes="cccccc"/>
 </g><g id="group46" transform="matrix(0.491065181569921 0 0 0.59496557334909 326.298566051764 -0.0625172133254659)" fill="none">
  <path id="shape46" transform="translate(2354.5, -0.5)" fill="#bebebe" fill-rule="evenodd" stroke-opacity="0" stroke="#000000" stroke-width="0" stroke-linecap="square" stroke-linejoin="bevel" d="M0 0C0.67 0 1.33 0 2 0C2 273.333 2 546.667 2 820C1.66 820.838 0.99 821.172 0 821C0 547.333 0 273.667 0 0Z" sodipodi:nodetypes="ccccc"/>
 </g><g id="group47" transform="matrix(0.491065181569921 0 0 0.59496557334909 326.298566051764 -0.0625172133254659)" fill="none">
  <path id="shape47" transform="translate(2356.5, -0.5)" fill="#c3c3c3" fill-rule="evenodd" stroke-opacity="0" stroke="#000000" stroke-width="0" stroke-linecap="square" stroke-linejoin="bevel" d="M0 0C0.67 0 1.33 0 2 0C2 273.333 2 546.667 2 820C1.33 820 0.67 820 0 820C0 546.667 0 273.333 0 0Z" sodipodi:nodetypes="ccccc"/>
 </g><g id="group48" transform="matrix(0.491065181569921 0 0 0.59496557334909 326.298566051764 -0.0625172133254659)" fill="none">
  <path id="shape48" transform="translate(2358.5, -0.5)" fill="#cacac9" fill-rule="evenodd" stroke-opacity="0" stroke="#000000" stroke-width="0" stroke-linecap="square" stroke-linejoin="bevel" d="M0 0C1 0 2 0 3 0C3 273 3 546 3 819C2.11 819.61 1.11 819.943 0 820C0 546.667 0 273.333 0 0Z" sodipodi:nodetypes="ccccc"/>
 </g><g id="group49" transform="matrix(0.491065181569921 0 0 0.59496557334909 326.298566051764 -0.0625172133254659)" fill="none">
  <path id="shape49" transform="translate(2361.5, -0.5)" fill="#d1d0cf" fill-rule="evenodd" stroke-opacity="0" stroke="#000000" stroke-width="0" stroke-linecap="square" stroke-linejoin="bevel" d="M0 0C1 0 2 0 3 0C3 272.667 3 545.333 3 818C2.29 818.904 1.29 819.237 0 819C0 546 0 273 0 0Z" sodipodi:nodetypes="ccccc"/>
 </g><g id="group50" transform="matrix(0.491065181569921 0 0 0.59496557334909 326.298566051764 -0.0625172133254659)" fill="none">
  <path id="shape50" transform="translate(2364.5, -0.5)" fill="#d7d6d5" fill-rule="evenodd" stroke-opacity="0" stroke="#000000" stroke-width="0" stroke-linecap="square" stroke-linejoin="bevel" d="M0 0C1 0 2 0 3 0C3 272.667 3 545.333 3 818C2 818 1 818 0 818C0 545.333 0 272.667 0 0Z" sodipodi:nodetypes="ccccc"/>
 </g><g id="group51" transform="matrix(0.491065181569921 0 0 0.59496557334909 326.298566051764 -0.0625172133254659)" fill="none">
  <path id="shape51" transform="translate(2367.5, -0.5)" fill="#dddcdb" fill-rule="evenodd" stroke-opacity="0" stroke="#000000" stroke-width="0" stroke-linecap="square" stroke-linejoin="bevel" d="M0 0C1 0 2 0 3 0C3.17 272.334 3 544.667 2.5 817C1.83 817.752 1 818.086 0 818C0 545.333 0 272.667 0 0Z" sodipodi:nodetypes="ccccc"/>
 </g><g id="group52" transform="matrix(0.491065181569921 0 0 0.59496557334909 326.298566051764 -0.0625172133254659)" fill="none">
  <path id="shape52" transform="translate(551.5, 106.5)" fill="#cbcbca" fill-rule="evenodd" stroke-opacity="0" stroke="#000000" stroke-width="0" stroke-linecap="square" stroke-linejoin="bevel" d="M1 0C13.709 1.005 26.376 2.339 39 4C39 11 39 18 39 25C37 25 35 25 33 25C21.805 24.554 10.805 23.554 0 22C0.992 14.852 1.325 7.519 1 0Z" sodipodi:nodetypes="cccccc"/>
 </g><g id="group53" transform="matrix(0.491065181569921 0 0 0.59496557334909 326.298566051764 -0.0625172133254659)" fill="none">
  <path id="shape53" transform="translate(584.5, 110.5)" fill="#d2d2d1" fill-rule="evenodd" stroke-opacity="0" stroke="#000000" stroke-width="0" stroke-linecap="square" stroke-linejoin="bevel" d="M6 0C21.674 1.267 37.341 2.601 53 4C53.709 4.904 54.709 5.237 56 5C56 12 56 19 56 26C55 26 54 26 53 26C35.146 24.783 17.479 23.116 0 21C2 21 4 21 6 21C6 14 6 7 6 0Z" sodipodi:nodetypes="cccccccc"/>
 </g><g id="group54" transform="matrix(0.491065181569921 0 0 0.59496557334909 326.298566051764 -0.0625172133254659)" fill="none">
  <path id="shape54" transform="translate(2029.5, 126.5)" fill="#cbcbca" fill-rule="evenodd" stroke-opacity="0" stroke="#000000" stroke-width="0" stroke-linecap="square" stroke-linejoin="bevel" d="M38 0C38.99 6.479 39.32 13.146 39 20C26.71 21.451 14.37 22.785 2 24C1.67 24 1.33 24 1 24C1.32 17.146 0.99 10.479 0 4C0.34 3.162 1.01 2.828 2 3C13.97 1.707 25.97 0.707 38 0Z" sodipodi:nodetypes="ccccccc"/>
 </g><g id="group55" transform="matrix(0.491065181569921 0 0 0.59496557334909 326.298566051764 -0.0625172133254659)" fill="none">
  <path id="shape55" transform="translate(540.375281091757, 128.5)" fill="#d9e7e9" fill-rule="evenodd" stroke-opacity="0" stroke="#000000" stroke-width="0" stroke-linecap="square" stroke-linejoin="bevel" d="M1.12472 0C1.12472 70 1.12472 140 1.12472 210C17.2997 209.67 33.2997 210.004 49.1247 211C36.7917 211 24.4577 211 12.1247 211C8.12472 211 4.12472 211 0.124719 211C-0.208281 140.498 0.125719 70.165 1.12472 0Z" sodipodi:nodetypes="cccccc"/>
 </g><g id="group56" transform="matrix(0.491065181569921 0 0 0.59496557334909 326.298566051764 -0.0625172133254659)" fill="none">
  <path id="shape56" transform="translate(541.5, 128.5)" fill="#e5f8fd" fill-rule="evenodd" stroke-opacity="0" stroke="#000000" stroke-width="0" stroke-linecap="square" stroke-linejoin="bevel" d="M0 0C3.333 0 6.667 0 10 0C20.805 1.554 31.805 2.554 43 3C60.479 5.116 78.146 6.783 96 8C105.506 9.169 115.172 10.169 125 11C125 77.667 125 144.333 125 211C116.333 211 107.667 211 99 211C82.333 211 65.667 211 49 211C48.667 211 48.333 211 48 211C32.175 210.004 16.175 209.67 0 210C0 140 0 70 0 0Z" sodipodi:nodetypes="ccccccccccc"/>
 </g><g id="group57" transform="matrix(0.491065181569921 0 0 0.59496557334909 326.298566051764 -0.0625172133254659)" fill="none">
  <path id="shape57" transform="translate(2152.5, 128.5)" fill="#e5f8fd" fill-rule="evenodd" stroke-opacity="0" stroke="#000000" stroke-width="0" stroke-linecap="square" stroke-linejoin="bevel" d="M125 0C125 70 125 140 125 210C99.83 209.669 74.83 210.002 50 211C37.33 211 24.67 211 12 211C8 211 4 211 0 211C0 144.333 0 77.667 0 11C10 9.898 20 8.898 30 8C61.65 5.135 93.32 2.468 125 0Z" sodipodi:nodetypes="cccccccc"/>
 </g><g id="group58" transform="matrix(0.491065181569921 0 0 0.59496557334909 326.298566051764 -0.0625172133254659)" fill="none">
  <path id="shape58" transform="translate(2202.5, 128.5)" fill="#ddebee" fill-rule="evenodd" stroke-opacity="0" stroke="#000000" stroke-width="0" stroke-linecap="square" stroke-linejoin="bevel" d="M75 0C76 70.165 76.33 140.498 76 211C50.67 211 25.33 211 0 211C24.83 210.002 49.83 209.669 75 210C75 140 75 70 75 0Z" sodipodi:nodetypes="ccccc"/>
 </g><g id="group59" transform="matrix(0.491065181569921 0 0 0.59496557334909 326.298566051764 -0.0625172133254659)" fill="none">
  <path id="shape59" transform="translate(667.5, 139.5)" fill="#bdbcbc" fill-rule="evenodd" stroke-opacity="0" stroke="#000000" stroke-width="0" stroke-linecap="square" stroke-linejoin="bevel" d="M2 0C2 66.667 2 133.333 2 200C0.667 167.007 0 133.673 0 100C0 66.327 0.667 32.993 2 0Z" sodipodi:nodetypes="cccc"/>
 </g><g id="group60" transform="matrix(0.491065181569921 0 0 0.59496557334909 326.298566051764 -0.0625172133254659)" fill="none">
  <path id="shape60" transform="translate(2147.5, 139.5)" fill="#b5b5b5" fill-rule="evenodd" stroke-opacity="0" stroke="#000000" stroke-width="0" stroke-linecap="square" stroke-linejoin="bevel" d="M0 0C1 0 2 0 3 0C3 66.667 3 133.333 3 200C2 200 1 200 0 200C0 133.333 0 66.667 0 0Z" sodipodi:nodetypes="ccccc"/>
 </g><g id="group61" transform="matrix(0.491065181569921 0 0 0.59496557334909 326.298566051764 -0.0625172133254659)" fill="none">
  <path id="shape61" transform="translate(669.5, 139.5)" fill="#b5b5b6" fill-rule="evenodd" stroke-opacity="0" stroke="#000000" stroke-width="0" stroke-linecap="square" stroke-linejoin="bevel" d="M0 0C1.333 32.993 2 66.327 2 100C2 133.673 1.333 167.007 0 200C0 133.333 0 66.667 0 0Z" sodipodi:nodetypes="cccc"/>
 </g><g id="group62" transform="matrix(0.491065181569921 0 0 0.59496557334909 326.298566051764 -0.0625172133254659)" fill="none">
  <path id="shape62" transform="translate(693.5, 142.5)" fill="#e5f8fd" fill-rule="evenodd" stroke-opacity="0" stroke="#000000" stroke-width="0" stroke-linecap="square" stroke-linejoin="bevel" d="M11 0C39.801 3.246 68.801 5.912 98 8C98 71 98 134 98 197C82.667 197 67.333 197 52 197C34.667 197 17.333 197 0 197C0 131.333 0 65.667 0 0C3.667 0 7.333 0 11 0Z" sodipodi:nodetypes="ccccccc"/>
 </g><g id="group63" transform="matrix(0.491065181569921 0 0 0.59496557334909 326.298566051764 -0.0625172133254659)" fill="none">
  <path id="shape63" transform="translate(2031.5, 141.5)" fill="#e5f8fd" fill-rule="evenodd" stroke-opacity="0" stroke="#000000" stroke-width="0" stroke-linecap="square" stroke-linejoin="bevel" d="M24 198C16 198 8 198 0 198C0 135 0 72 0 9C12.37 7.785 24.71 6.451 37 5C55.93 3.814 74.76 2.147 93.5 0C94 65.999 94.17 131.999 94 198C70.67 198 47.33 198 24 198Z" sodipodi:nodetypes="ccccccc"/>
 </g><g id="group64" transform="matrix(0.491065181569921 0 0 0.59496557334909 326.298566051764 -0.0625172133254659)" fill="none">
  <path id="shape64" transform="translate(2015.5, 150.5)" fill="#c9dce0" fill-rule="evenodd" stroke-opacity="0" stroke="#000000" stroke-width="0" stroke-linecap="square" stroke-linejoin="bevel" d="M15 0C15.33 0 15.67 0 16 0C16 63 16 126 16 189C24 189 32 189 40 189C40 189.333 40 189.667 40 190C31.67 190 23.33 190 15 190C10 190 5 190 0 190C0 127 0 64 0 1C5.02 0.887 10.02 0.553 15 0Z" sodipodi:nodetypes="ccccccccc"/>
 </g><g id="group65" transform="matrix(0.491065181569921 0 0 0.59496557334909 326.298566051764 -0.0625172133254659)" fill="none">
  <path id="shape65" transform="translate(791.5, 150.5)" fill="#c9dbe0" fill-rule="evenodd" stroke-opacity="0" stroke="#000000" stroke-width="0" stroke-linecap="square" stroke-linejoin="bevel" d="M0 0C3.619 0.744 7.285 1.077 11 1C11 63.667 11 126.333 11 189C7.333 189 3.667 189 0 189C0 126 0 63 0 0Z" sodipodi:nodetypes="ccccc"/>
 </g><g id="group66" transform="matrix(0.491065181569921 0 0 0.59496557334909 326.298566051764 -0.0625172133254659)" fill="none">
  <path id="shape66" transform="translate(745.5, 151.5)" fill="#d2dee0" fill-rule="evenodd" stroke-opacity="0" stroke="#000000" stroke-width="0" stroke-linecap="square" stroke-linejoin="bevel" d="M57 0C57.999 62.831 58.332 125.831 58 189C38.667 189 19.333 189 0 189C0 188.667 0 188.333 0 188C15.333 188 30.667 188 46 188C49.667 188 53.333 188 57 188C57 125.333 57 62.667 57 0Z" sodipodi:nodetypes="ccccccc"/>
 </g><g id="group67" transform="matrix(0.491065181569921 0 0 0.59496557334909 326.298566051764 -0.0625172133254659)" fill="none">
  <path id="shape67" transform="translate(804.5, 151.410496202752)" fill="#c8c7c7" fill-rule="evenodd" stroke-opacity="0" stroke="#000000" stroke-width="0" stroke-linecap="square" stroke-linejoin="bevel" d="M4 1.0895C3 1.0895 2 1.0895 1 1.0895C1 63.4225 1 125.757 1 188.09C2 188.09 3 188.09 4 188.09C2.932 189.024 1.599 189.358 0 189.09C0 126.09 0 63.0895 0 0.0895038C1.599 -0.178496 2.932 0.155504 4 1.0895Z" sodipodi:nodetypes="ccccccc"/>
 </g><g id="group68" transform="matrix(0.491065181569921 0 0 0.59496557334909 326.298566051764 -0.0625172133254659)" fill="none">
  <path id="shape68" transform="translate(805.5, 152.5)" fill="#b1b2b1" fill-rule="evenodd" stroke-opacity="0" stroke="#000000" stroke-width="0" stroke-linecap="square" stroke-linejoin="bevel" d="M3 0C3 62.333 3 124.667 3 187C2 187 1 187 0 187C0 124.667 0 62.333 0 0C1 0 2 0 3 0Z" sodipodi:nodetypes="ccccc"/>
 </g><g id="group69" transform="matrix(0.491065181569921 0 0 0.59496557334909 326.298566051764 -0.0625172133254659)" fill="none">
  <path id="shape69" transform="translate(2010.37640580778, 152.5)" fill="#aaabab" fill-rule="evenodd" stroke-opacity="0" stroke="#000000" stroke-width="0" stroke-linecap="square" stroke-linejoin="bevel" d="M0.123594 0C1.45359 30.826 2.12359 61.993 2.12359 93.5C1.79359 124.667 1.45359 155.833 1.12359 187C0.123594 124.67 -0.206406 62.337 0.123594 0Z" sodipodi:nodetypes="cccc"/>
 </g><g id="group70" transform="matrix(0.491065181569921 0 0 0.59496557334909 326.298566051764 -0.0625172133254659)" fill="none">
  <path id="shape70" transform="translate(552.5, 339.5)" fill="#cbcbca" fill-rule="evenodd" stroke-opacity="0" stroke="#000000" stroke-width="0" stroke-linecap="square" stroke-linejoin="bevel" d="M0 0C12.333 0 24.667 0 37 0C37.333 0 37.667 0 38 0C38 7.333 38 14.667 38 22C25.333 22 12.667 22 0 22C0 14.667 0 7.333 0 0Z" sodipodi:nodetypes="cccccc"/>
 </g><g id="group71" transform="matrix(0.491065181569921 0 0 0.59496557334909 326.298566051764 -0.0625172133254659)" fill="none">
  <path id="shape71" transform="translate(590.5, 339.5)" fill="#d2d2d1" fill-rule="evenodd" stroke-opacity="0" stroke="#000000" stroke-width="0" stroke-linecap="square" stroke-linejoin="bevel" d="M0 0C16.667 0 33.333 0 50 0C50 7 50 14 50 21C56.19 20.677 62.19 21.01 68 22C45.333 22 22.667 22 0 22C0 14.667 0 7.333 0 0Z" sodipodi:nodetypes="cccccc"/>
 </g><g id="group72" transform="matrix(0.491065181569921 0 0 0.59496557334909 326.298566051764 -0.0625172133254659)" fill="none">
  <path id="shape72" transform="translate(2030.5, 340.5)" fill="#cbcbca" fill-rule="evenodd" stroke-opacity="0" stroke="#000000" stroke-width="0" stroke-linecap="square" stroke-linejoin="bevel" d="M0 0C8.33 0 16.67 0 25 0C29.33 0 33.67 0 38 0C38 6.667 38 13.333 38 20C29 20 20 20 11 20C7.67 20 4.33 20 1 20C0.67 20 0.33 20 0 20C0 13.333 0 6.667 0 0Z" sodipodi:nodetypes="cccccccc"/>
 </g><g id="group73" transform="matrix(0.491065181569921 0 0 0.59496557334909 326.298566051764 -0.0625172133254659)" fill="none">
  <path id="shape73" transform="translate(693.5, 360.5)" fill="#e5f8fd" fill-rule="evenodd" stroke-opacity="0" stroke="#000000" stroke-width="0" stroke-linecap="square" stroke-linejoin="bevel" d="M11 0C40 0 69 0 98 0C98 63 98 126 98 189C67.989 191.88 37.989 194.88 8 198C5.333 198 2.667 198 0 198C0 132 0 66 0 0C3.667 0 7.333 0 11 0Z" sodipodi:nodetypes="ccccccc"/>
 </g><g id="group74" transform="matrix(0.491065181569921 0 0 0.59496557334909 326.298566051764 -0.0625172133254659)" fill="none">
  <path id="shape74" transform="translate(791.5, 360.5)" fill="#c9dce0" fill-rule="evenodd" stroke-opacity="0" stroke="#000000" stroke-width="0" stroke-linecap="square" stroke-linejoin="bevel" d="M0 0C4 0 8 0 12 0C12.167 62.668 12 125.334 11.5 188C7.77 188.96 3.937 189.293 0 189C0 126 0 63 0 0Z" sodipodi:nodetypes="ccccc"/>
 </g><g id="group75" transform="matrix(0.491065181569921 0 0 0.59496557334909 326.298566051764 -0.0625172133254659)" fill="none">
  <path id="shape75" transform="translate(804.5, 360.5)" fill="#bfbebe" fill-rule="evenodd" stroke-opacity="0" stroke="#000000" stroke-width="0" stroke-linecap="square" stroke-linejoin="bevel" d="M2 0C2 62.667 2 125.333 2 188C0.667 157.007 0 125.674 0 94C0 62.326 0.667 30.993 2 0Z" sodipodi:nodetypes="cccc"/>
 </g><g id="group76" transform="matrix(0.491065181569921 0 0 0.59496557334909 326.298566051764 -0.0625172133254659)" fill="none">
  <path id="shape76" transform="translate(806.5, 360.5)" fill="#aeafae" fill-rule="evenodd" stroke-opacity="0" stroke="#000000" stroke-width="0" stroke-linecap="square" stroke-linejoin="bevel" d="M0 0C1.333 30.993 2 62.326 2 94C2 125.674 1.333 157.007 0 188C0 125.333 0 62.667 0 0Z" sodipodi:nodetypes="cccc"/>
 </g><g id="group77" transform="matrix(0.491065181569921 0 0 0.59496557334909 326.298566051764 -0.0625172133254659)" fill="none">
  <path id="shape77" transform="translate(2010.37640580778, 360.5)" fill="#aaabab" fill-rule="evenodd" stroke-opacity="0" stroke="#000000" stroke-width="0" stroke-linecap="square" stroke-linejoin="bevel" d="M0.123594 0C1.45359 30.993 2.12359 62.326 2.12359 94C1.79359 125.333 1.45359 156.667 1.12359 188C0.123594 125.337 -0.206406 62.67 0.123594 0Z" sodipodi:nodetypes="cccc"/>
 </g><g id="group78" transform="matrix(0.491065181569921 0 0 0.59496557334909 326.298566051764 -0.0625172133254659)" fill="none">
  <path id="shape78" transform="translate(2015.5, 360.5)" fill="#c9dce0" fill-rule="evenodd" stroke-opacity="0" stroke="#000000" stroke-width="0" stroke-linecap="square" stroke-linejoin="bevel" d="M15 0C15.33 0 15.67 0 16 0C16 63.333 16 126.667 16 190C15.67 190 15.33 190 15 190C10.03 189.336 5.03 189.003 0 189C0 126 0 63 0 0C5 0 10 0 15 0Z" sodipodi:nodetypes="ccccccc"/>
 </g><g id="group79" transform="matrix(0.491065181569921 0 0 0.59496557334909 326.298566051764 -0.0625172133254659)" fill="none">
  <path id="shape79" transform="translate(2031.5, 360.5)" fill="#e5f8fd" fill-rule="evenodd" stroke-opacity="0" stroke="#000000" stroke-width="0" stroke-linecap="square" stroke-linejoin="bevel" d="M0 0C3.33 0 6.67 0 10 0C37.83 0.998 65.83 1.331 94 1C94 66.667 94 132.333 94 198C74.95 196.829 55.95 195.163 37 193C24.64 192.301 12.31 191.301 0 190C0 126.667 0 63.333 0 0Z" sodipodi:nodetypes="ccccccc"/>
 </g><g id="group80" transform="matrix(0.491065181569921 0 0 0.59496557334909 326.298566051764 -0.0625172133254659)" fill="none">
  <path id="shape80" transform="translate(540.5, 361.5)" fill="#e5f8fd" fill-rule="evenodd" stroke-opacity="0" stroke="#000000" stroke-width="0" stroke-linecap="square" stroke-linejoin="bevel" d="M12 0C24.667 0 37.333 0 50 0C72.667 0 95.333 0 118 0C120.667 0 123.333 0 126 0C126 66.667 126 133.333 126 200C115.471 200.471 105.138 201.471 95 203C80.13 203.685 65.463 205.018 51 207C36.14 207.793 21.473 209.126 7 211C4.667 211 2.333 211 0 211C0 140.667 0 70.333 0 0C4 0 8 0 12 0Z" sodipodi:nodetypes="ccccccccccc"/>
 </g><g id="group81" transform="matrix(0.491065181569921 0 0 0.59496557334909 326.298566051764 -0.0625172133254659)" fill="none">
  <path id="shape81" transform="translate(667.5, 361.5)" fill="#b9b9b9" fill-rule="evenodd" stroke-opacity="0" stroke="#000000" stroke-width="0" stroke-linecap="square" stroke-linejoin="bevel" d="M0 0C1.333 0 2.667 0 4 0C4 66.667 4 133.333 4 200C2.667 200 1.333 200 0 200C0 133.333 0 66.667 0 0Z" sodipodi:nodetypes="ccccc"/>
 </g><g id="group82" transform="matrix(0.491065181569921 0 0 0.59496557334909 326.298566051764 -0.0625172133254659)" fill="none">
  <path id="shape82" transform="translate(2147.5, 361.5)" fill="#b5b5b5" fill-rule="evenodd" stroke-opacity="0" stroke="#000000" stroke-width="0" stroke-linecap="square" stroke-linejoin="bevel" d="M0 0C1 0 2 0 3 0C3 66.667 3 133.333 3 200C2 200 1 200 0 200C0 133.333 0 66.667 0 0Z" sodipodi:nodetypes="ccccc"/>
 </g><g id="group83" transform="matrix(0.491065181569921 0 0 0.59496557334909 326.298566051764 -0.0625172133254659)" fill="none">
  <path id="shape83" transform="translate(2152.5, 361.5)" fill="#e5f8fd" fill-rule="evenodd" stroke-opacity="0" stroke="#000000" stroke-width="0" stroke-linecap="square" stroke-linejoin="bevel" d="M46 0C68.67 0 91.33 0 114 0C117.46 0.982 121.13 1.315 125 1C125 71 125 141 125 211C87.31 207.914 49.65 204.581 12 201C8 200.667 4 200.333 0 200C0 133.333 0 66.667 0 0C15.33 0 30.67 0 46 0Z" sodipodi:nodetypes="cccccccc"/>
 </g><g id="group84" transform="matrix(0.491065181569921 0 0 0.59496557334909 326.298566051764 -0.0625172133254659)" fill="none">
  <path id="shape84" transform="translate(2266.5, 361.5)" fill="#deedf0" fill-rule="evenodd" stroke-opacity="0" stroke="#000000" stroke-width="0" stroke-linecap="square" stroke-linejoin="bevel" d="M0 0C4 0 8 0 12 0C12.33 70.502 12 140.835 11 211C11 141 11 71 11 1C7.13 1.315 3.46 0.982 0 0Z" sodipodi:nodetypes="ccccc"/>
 </g><g id="group85" transform="matrix(0.491065181569921 0 0 0.59496557334909 326.298566051764 -0.0625172133254659)" fill="none">
  <path id="shape85" transform="translate(2030.5, 550.5)" fill="#cbcbca" fill-rule="evenodd" stroke-opacity="0" stroke="#000000" stroke-width="0" stroke-linecap="square" stroke-linejoin="bevel" d="M0 0C0.33 0 0.67 0 1 0C13.31 1.301 25.64 2.301 38 3C38 10 38 17 38 24C26.33 23.073 14.66 22.073 3 21C2.29 20.096 1.29 19.763 0 20C0 13.333 0 6.667 0 0Z" sodipodi:nodetypes="ccccccc"/>
 </g><g id="group86" transform="matrix(0.491065181569921 0 0 0.59496557334909 326.298566051764 -0.0625172133254659)" fill="none">
  <path id="shape86" transform="translate(591.5, 564.5)" fill="#d2d3d2" fill-rule="evenodd" stroke-opacity="0" stroke="#000000" stroke-width="0" stroke-linecap="square" stroke-linejoin="bevel" d="M44 0C45.667 0 47.333 0 49 0C49 7 49 14 49 21C34.031 22.694 19.031 24.027 4 25C4 18 4 11 4 4C2.667 4 1.333 4 0 4C14.463 2.018 29.13 0.685 44 0Z" sodipodi:nodetypes="ccccccc"/>
 </g><g id="group87" transform="matrix(0.491065181569921 0 0 0.59496557334909 326.298566051764 -0.0625172133254659)" fill="none">
  <path id="shape87" transform="translate(547.5, 568.5)" fill="#cbcccb" fill-rule="evenodd" stroke-opacity="0" stroke="#000000" stroke-width="0" stroke-linecap="square" stroke-linejoin="bevel" d="M44 0C45.333 0 46.667 0 48 0C48 7 48 14 48 21C33.836 22.958 19.503 24.624 5 26C5 18.667 5 11.333 5 4C3.333 4 1.667 4 0 4C14.473 2.126 29.14 0.793 44 0Z" sodipodi:nodetypes="ccccccc"/>
 </g><g id="group88" transform="matrix(0.491065181569921 0 0 0.59496557334909 326.298566051764 -0.0625172133254659)" fill="none">
  <path id="shape88" transform="translate(791.5, 569.5)" fill="#c9dce0" fill-rule="evenodd" stroke-opacity="0" stroke="#000000" stroke-width="0" stroke-linecap="square" stroke-linejoin="bevel" d="M0 140C0 93.667 0 47.333 0 1C4.019 0.854 8.019 0.521 12 0C12 46.333 12 92.667 12 139C8.034 139.662 4.034 139.995 0 140Z" sodipodi:nodetypes="ccccc"/>
 </g><g id="group89" transform="matrix(0.491065181569921 0 0 0.59496557334909 326.298566051764 -0.0625172133254659)" fill="none">
  <path id="shape89" transform="translate(805.5, 568.5)" fill="#b2b2b1" fill-rule="evenodd" stroke-opacity="0" stroke="#000000" stroke-width="0" stroke-linecap="square" stroke-linejoin="bevel" d="M0 0C1 0 2 0 3 0C3 46.333 3 92.667 3 139C2 139 1 139 0 139C0 92.667 0 46.333 0 0Z" sodipodi:nodetypes="ccccc"/>
 </g><g id="group90" transform="matrix(0.491065181569921 0 0 0.59496557334909 326.298566051764 -0.0625172133254659)" fill="none">
  <path id="shape90" transform="translate(2010.37640580778, 569.5)" fill="#ababac" fill-rule="evenodd" stroke-opacity="0" stroke="#000000" stroke-width="0" stroke-linecap="square" stroke-linejoin="bevel" d="M0.123594 0C1.45359 22.657 2.12359 45.657 2.12359 69C1.79359 92 1.45359 115 1.12359 138C0.123594 92.005 -0.206406 46.005 0.123594 0Z" sodipodi:nodetypes="cccc"/>
 </g><g id="group91" transform="matrix(0.491065181569921 0 0 0.59496557334909 326.298566051764 -0.0625172133254659)" fill="none">
  <path id="shape91" transform="translate(2015.5, 569.5)" fill="#c9dce0" fill-rule="evenodd" stroke-opacity="0" stroke="#000000" stroke-width="0" stroke-linecap="square" stroke-linejoin="bevel" d="M15 1C16.29 0.763 17.29 1.096 18 2C16 47.988 15.34 94.321 16 141C15.67 141 15.33 141 15 141C10.05 140.008 5.05 139.342 0 139C0 92.667 0 46.333 0 0C4.96 0.754 9.96 1.087 15 1Z" sodipodi:nodetypes="ccccccc"/>
 </g><g id="group92" transform="matrix(0.491065181569921 0 0 0.59496557334909 326.298566051764 -0.0625172133254659)" fill="none">
  <path id="shape92" transform="translate(693.5, 570.5)" fill="#e5f8fd" fill-rule="evenodd" stroke-opacity="0" stroke="#000000" stroke-width="0" stroke-linecap="square" stroke-linejoin="bevel" d="M98 0C98 46.333 98 92.667 98 139C68.89 143.907 39.89 148.907 11 154C7.321 154.224 3.654 154.558 0 155C0 106.667 0 58.333 0 10C3.981 9.479 7.981 9.146 12 9C40.635 5.855 69.302 2.855 98 0Z" sodipodi:nodetypes="ccccccc"/>
 </g><g id="group93" transform="matrix(0.491065181569921 0 0 0.59496557334909 326.298566051764 -0.0625172133254659)" fill="none">
  <path id="shape93" transform="translate(2031.25281161556, 571.5)" fill="#e5f8fd" fill-rule="evenodd" stroke-opacity="0" stroke="#000000" stroke-width="0" stroke-linecap="square" stroke-linejoin="bevel" d="M2.24719 0C13.9072 1.073 25.5772 2.073 37.2472 3C56.1672 5.326 75.1672 7.326 94.2472 9C94.2472 57.333 94.2472 105.667 94.2472 154C87.5172 153.372 80.8572 152.372 74.2472 151C61.8572 149.324 49.5272 147.324 37.2472 145C24.9172 143 12.5772 141 0.247188 139C-0.412812 92.321 0.247188 45.988 2.24719 0Z" sodipodi:nodetypes="cccccccc"/>
 </g><g id="group94" transform="matrix(0.491065181569921 0 0 0.59496557334909 326.298566051764 -0.0625172133254659)" fill="none">
  <path id="shape94" transform="translate(540.5, 583.5)" fill="#e5f8fd" fill-rule="evenodd" stroke-opacity="0" stroke="#000000" stroke-width="0" stroke-linecap="square" stroke-linejoin="bevel" d="M100 151C82.154 153.696 64.488 156.696 47 160C34.768 161.372 22.768 163.372 11 166C7.302 166.052 3.635 166.386 0 167C0 115.333 0 63.667 0 12C3.966 11.338 7.966 11.005 12 11C26.503 9.624 40.836 7.958 55 6C70.031 5.027 85.031 3.694 100 2C108.644 1.069 117.311 0.402 126 0C126 49 126 98 126 147C117.297 148.117 108.631 149.451 100 151Z" sodipodi:nodetypes="ccccccccccc"/>
 </g><g id="group95" transform="matrix(0.491065181569921 0 0 0.59496557334909 326.298566051764 -0.0625172133254659)" fill="none">
  <path id="shape95" transform="translate(667.375702768285, 582.5)" fill="#c7c6c6" fill-rule="evenodd" stroke-opacity="0" stroke="#000000" stroke-width="0" stroke-linecap="square" stroke-linejoin="bevel" d="M1.1243 0C0.462297 49.345 1.1293 98.345 3.1243 147C2.4153 147.904 1.4153 148.237 0.124297 148C-0.207703 98.497 0.125297 49.164 1.1243 0Z" sodipodi:nodetypes="cccc"/>
 </g><g id="group96" transform="matrix(0.491065181569921 0 0 0.59496557334909 326.298566051764 -0.0625172133254659)" fill="none">
  <path id="shape96" transform="translate(668.252668521432, 582.5)" fill="#b5b5b5" fill-rule="evenodd" stroke-opacity="0" stroke="#000000" stroke-width="0" stroke-linecap="square" stroke-linejoin="bevel" d="M0.247331 0C1.24733 0 2.24733 0 3.24733 0C3.57933 49.17 3.24633 98.17 2.24733 147C0.252331 98.345 -0.414669 49.345 0.247331 0Z" sodipodi:nodetypes="cccc"/>
 </g><g id="group97" transform="matrix(0.491065181569921 0 0 0.59496557334909 326.298566051764 -0.0625172133254659)" fill="none">
  <path id="shape97" transform="translate(2147.5, 582.5)" fill="#bcbbbb" fill-rule="evenodd" stroke-opacity="0" stroke="#000000" stroke-width="0" stroke-linecap="square" stroke-linejoin="bevel" d="M0 0C1.33 0 2.67 0 4 0C4 49.333 4 98.667 4 148C2.67 148 1.33 148 0 148C0 98.667 0 49.333 0 0Z" sodipodi:nodetypes="ccccc"/>
 </g><g id="group98" transform="matrix(0.491065181569921 0 0 0.59496557334909 326.298566051764 -0.0625172133254659)" fill="none">
  <path id="shape98" transform="translate(2152.5, 583.5)" fill="#e5f8fd" fill-rule="evenodd" stroke-opacity="0" stroke="#000000" stroke-width="0" stroke-linecap="square" stroke-linejoin="bevel" d="M7 0C46.46 4.58 86.13 8.58 126 12C126 63.667 126 115.333 126 167C87.96 161.216 49.96 155.216 12 149C8.08 148.058 4.08 147.392 0 147C0 98 0 49 0 0C2.33 0 4.67 0 7 0Z" sodipodi:nodetypes="ccccccc"/>
 </g><g id="group99" transform="matrix(0.491065181569921 0 0 0.59496557334909 326.298566051764 -0.0625172133254659)" fill="none">
  <path id="shape99" transform="translate(789.5, -0.5)" fill="#dddddd" fill-rule="evenodd" stroke-opacity="0" stroke="#000000" stroke-width="0" stroke-linecap="square" stroke-linejoin="bevel" d="M80 0C80.333 0 80.667 0 81 0C81 236.667 81 473.333 81 710C440.33 710 799.67 710 1159 710C1159 473.333 1159 236.667 1159 0C1159.33 0 1159.67 0 1160 0C1160 247 1160 494 1160 741C1161.46 740.933 1162.79 741.266 1164 742C1168.31 742.775 1172.65 743.441 1177 744C1181.55 745.51 1186.21 746.51 1191 747C1209.18 750.436 1227.18 754.103 1245 758C1244 758 1243 758 1242 758C1242 759 1242 760 1242 761C828.67 761 415.33 761 2 761C2.343 759.017 1.676 757.683 0 757C0.342 756.162 1.008 755.828 2 756C19.769 753.18 37.435 749.846 55 746C63.052 744.59 71.052 742.923 79 741C80 494.001 80.333 247.001 80 0Z" sodipodi:nodetypes="ccccccccccccccccccc"/>
 </g><g id="group100" transform="matrix(0.491065181569921 0 0 0.59496557334909 326.298566051764 -0.0625172133254659)" fill="none">
  <path id="shape100" transform="translate(870.5, -0.5)" fill="#fefffe" fill-rule="evenodd" stroke-opacity="0" stroke="#000000" stroke-width="0" stroke-linecap="square" stroke-linejoin="bevel" d="M0 0C359.33 0 718.67 0 1078 0C1078 236.667 1078 473.333 1078 710C718.67 710 359.33 710 0 710C0 473.333 0 236.667 0 0Z" sodipodi:nodetypes="ccccc"/>
 </g><g id="group101" transform="matrix(0.491065181569921 0 0 0.59496557334909 326.298566051764 -0.0625172133254659)" fill="none">
  <path id="shape101" transform="translate(791.5, 735.5)" fill="#d2d2d1" fill-rule="evenodd" stroke-opacity="0" stroke="#000000" stroke-width="0" stroke-linecap="square" stroke-linejoin="bevel" d="M53 10C35.435 13.846 17.769 17.18 0 20C0 16.333 0 12.667 0 9C17.524 5.363 35.191 2.363 53 0C53 3.333 53 6.667 53 10Z" sodipodi:nodetypes="ccccc"/>
 </g><g id="group102" transform="matrix(0.491065181569921 0 0 0.59496557334909 326.298566051764 -0.0625172133254659)" fill="none">
  <path id="shape102" transform="translate(1980.5, 736.5)" fill="#c0c0c0" fill-rule="evenodd" stroke-opacity="0" stroke="#000000" stroke-width="0" stroke-linecap="square" stroke-linejoin="bevel" d="M124 22C137.72 24.183 151.39 26.517 165 29C165 33.333 165 37.667 165 42C164 42 163 42 162 42C126.07 34.747 90.07 27.747 54 21C36.18 17.103 18.18 13.436 0 10C0 6.667 0 3.333 0 0C41.42 6.682 82.76 14.015 124 22Z" sodipodi:nodetypes="cccccccc"/>
 </g><g id="group103" transform="matrix(0.491065181569921 0 0 0.59496557334909 326.298566051764 -0.0625172133254659)" fill="none">
  <path id="shape103" transform="translate(587.5, 734.5)" fill="#d2d2d1" fill-rule="evenodd" stroke-opacity="0" stroke="#000000" stroke-width="0" stroke-linecap="square" stroke-linejoin="bevel" d="M53 0C53 8.333 53 16.667 53 25C74.44 21.76 95.774 18.093 117 14C140.999 10 164.999 6 189 2C188.086 5.228 187.753 8.561 188 12C189 12 190 12 191 12C171.667 15.667 152.333 19.333 133 23C102.25 27.683 71.584 33.016 41 39C39.086 35.816 38.42 32.149 39 28C27.222 29.963 15.222 31.963 3 34C3 25.667 3 17.333 3 9C2 9 1 9 0 9C17.488 5.696 35.154 2.696 53 0Z" sodipodi:nodetypes="ccccccccccccc"/>
 </g><g id="group104" transform="matrix(0.491065181569921 0 0 0.59496557334909 326.298566051764 -0.0625172133254659)" fill="none">
  <path id="shape104" transform="translate(720.5, 744.5)" fill="#cbcbca" fill-rule="evenodd" stroke-opacity="0" stroke="#000000" stroke-width="0" stroke-linecap="square" stroke-linejoin="bevel" d="M71 0C71 3.667 71 7.333 71 11C70.008 10.828 69.342 11.162 69 12C45.952 16.21 22.952 20.543 0 25C0 21 0 17 0 13C19.333 9.333 38.667 5.667 58 2C62.29 1.075 66.624 0.409 71 0Z" sodipodi:nodetypes="ccccccc"/>
 </g><g id="group105" transform="matrix(0.491065181569921 0 0 0.59496557334909 326.298566051764 -0.0625172133254659)" fill="none">
  <path id="shape105" transform="translate(2068.43609288194, 716.5)" fill="#d1d1d1" fill-rule="evenodd" stroke-opacity="0" stroke="#000000" stroke-width="0" stroke-linecap="square" stroke-linejoin="bevel" d="M0.0639071 0C12.3439 2.324 24.6739 4.324 37.0639 6C38.0339 14.248 38.3639 22.582 38.0639 31C57.3939 34.333 76.7339 37.667 96.0639 41C126.134 46.122 156.134 51.456 186.064 57C185.584 61.327 186.244 65.327 188.064 69C172.764 66.117 157.434 63.451 142.064 61C120.624 56.652 98.9539 52.652 77.0639 49C63.4539 46.517 49.7839 44.183 36.0639 42C36.3839 38.274 36.0539 34.607 35.0639 31C23.8039 28.643 12.3039 26.31 0.563907 24C0.0639071 16.007 -0.106093 8.007 0.0639071 0Z" sodipodi:nodetypes="cccccccccccc"/>
 </g><g id="group106" transform="matrix(0.491065181569921 0 0 0.59496557334909 326.298566051764 -0.0625172133254659)" fill="none">
  <path id="shape106" transform="translate(2142.5, 765.5)" fill="#c5c5c4" fill-rule="evenodd" stroke-opacity="0" stroke="#000000" stroke-width="0" stroke-linecap="square" stroke-linejoin="bevel" d="M3 0C24.89 3.652 46.56 7.652 68 12C68.6 17.119 67.94 21.785 66 26C43.88 21.641 21.88 17.308 0 13C1 13 2 13 3 13C3 8.667 3 4.333 3 0Z" sodipodi:nodetypes="cccccc"/>
 </g><g id="group107" transform="matrix(0.491065181569921 0 0 0.59496557334909 326.298566051764 -0.0625172133254659)" fill="none">
  <path id="shape107" transform="translate(511.279809119921, 757.5)" fill="#c0c0c0" fill-rule="evenodd" stroke-opacity="0" stroke="#000000" stroke-width="0" stroke-linecap="square" stroke-linejoin="bevel" d="M209.22 0C209.22 4 209.22 8 209.22 12C140.325 26.046 71.3252 39.712 2.22019 53C0.274191 48.104 -0.392809 42.771 0.220191 37C39.3902 30.235 78.3902 23.235 117.22 16C147.804 10.016 178.47 4.683 209.22 0Z" sodipodi:nodetypes="cccccc"/>
 </g><g id="group108" transform="matrix(0.491065181569921 0 0 0.59496557334909 326.298566051764 -0.0625172133254659)" fill="none">
  <path id="shape108" transform="translate(2208.5, 777.5)" fill="#cbcbca" fill-rule="evenodd" stroke-opacity="0" stroke="#000000" stroke-width="0" stroke-linecap="square" stroke-linejoin="bevel" d="M2 0C17.37 2.451 32.7 5.117 48 8C54.08 8.569 60.08 9.569 66 11C67.87 16.032 68.54 21.365 68 27C45.15 22.895 22.48 18.562 0 14C1.94 9.785 2.6 5.119 2 0Z" sodipodi:nodetypes="cccccc"/>
 </g><g id="group109" transform="matrix(0.491065181569921 0 0 0.59496557334909 326.298566051764 -0.0625172133254659)" fill="none">
  <path id="shape109" transform="translate(2274.5, 788.5)" fill="#d1d1d0" fill-rule="evenodd" stroke-opacity="0" stroke="#000000" stroke-width="0" stroke-linecap="square" stroke-linejoin="bevel" d="M0 0C15.41 2.381 30.74 5.215 46 8.5C46.64 11.246 46.98 14.079 47 17C46.98 20.09 46.31 22.757 45 25C30.42 22.638 16.08 19.638 2 16C2.54 10.365 1.87 5.032 0 0Z" sodipodi:nodetypes="cccccc"/>
 </g><g id="group110" transform="matrix(0.72 0 0 2.61378197427027 2.27373675443232e-13 -3021.16913994821)" fill="none">
  <path id="shape110" transform="translate(-0.5, 1476.5)" fill="#1a2a0d" fill-rule="evenodd" stroke-opacity="0" stroke="#000000" stroke-width="0" stroke-linecap="square" stroke-linejoin="bevel" d="M0 0C942 0 1884 0 2826 0C2826 1.67 2826 3.33 2826 5C1884 5 942 5 0 5C0 3.33 0 1.67 0 0Z" sodipodi:nodetypes="ccccc"/>
 </g><g id="group111" transform="matrix(0.72 0 0 2.61378197427027 2.27373675443232e-13 -3021.16913994821)" fill="none">
  <path id="shape111" transform="translate(-0.5, 1481.5)" fill="#1d2e0f" fill-rule="evenodd" stroke-opacity="0" stroke="#000000" stroke-width="0" stroke-linecap="square" stroke-linejoin="bevel" d="M0 0C942 0 1884 0 2826 0C2826 4.33 2826 8.67 2826 13C1884 13 942 13 0 13C0 8.67 0 4.33 0 0Z" sodipodi:nodetypes="ccccc"/>
 </g><g id="group112" transform="matrix(0.72 0 0 2.61378197427027 2.27373675443232e-13 -3021.16913994821)" fill="none">
  <path id="shape112" transform="translate(-0.5, 1494.5)" fill="#203112" fill-rule="evenodd" stroke-opacity="0" stroke="#000000" stroke-width="0" stroke-linecap="square" stroke-linejoin="bevel" d="M0 0C942 0 1884 0 2826 0C2826 1.33 2826 2.67 2826 4C1884 4 942 4 0 4C0 2.67 0 1.33 0 0Z" sodipodi:nodetypes="ccccc"/>
 </g><g id="group113" transform="matrix(0.72 0 0 2.61378197427027 2.27373675443232e-13 -3021.16913994821)" fill="none">
  <path id="shape113" transform="translate(-0.5, 1498.5)" fill="#223514" fill-rule="evenodd" stroke-opacity="0" stroke="#000000" stroke-width="0" stroke-linecap="square" stroke-linejoin="bevel" d="M0 0C942 0 1884 0 2826 0C2826 3.67 2826 7.33 2826 11C1884 11 942 11 0 11C0 7.33 0 3.67 0 0Z" sodipodi:nodetypes="ccccc"/>
 </g><g id="group114" transform="matrix(0.72 0 0 2.61378197427027 2.27373675443232e-13 -3021.16913994821)" fill="none">
  <path id="shape114" transform="translate(-0.5, 1509.5)" fill="#263a16" fill-rule="evenodd" stroke-opacity="0" stroke="#000000" stroke-width="0" stroke-linecap="square" stroke-linejoin="bevel" d="M0 0C942 0 1884 0 2826 0C2826 3.33 2826 6.67 2826 10C1884 10 942 10 0 10C0 6.67 0 3.33 0 0Z" sodipodi:nodetypes="ccccc"/>
 </g><g id="group115" transform="matrix(0.72 0 0 2.61378197427027 2.27373675443232e-13 -3021.16913994821)" fill="none">
  <path id="shape115" transform="translate(-0.5, 1519.5)" fill="#293c19" fill-rule="evenodd" stroke-opacity="0" stroke="#000000" stroke-width="0" stroke-linecap="square" stroke-linejoin="bevel" d="M0 0C942 0 1884 0 2826 0C2826 2 2826 4 2826 6C1884 6 942 6 0 6C0 4 0 2 0 0Z" sodipodi:nodetypes="ccccc"/>
 </g><g id="group116" transform="matrix(0.72 0 0 2.61378197427027 2.27373675443232e-13 -3021.16913994821)" fill="none">
  <path id="shape116" transform="translate(-0.5, 1525.5)" fill="#2a3f19" fill-rule="evenodd" stroke-opacity="0" stroke="#000000" stroke-width="0" stroke-linecap="square" stroke-linejoin="bevel" d="M0 0C942 0 1884 0 2826 0C2826 0.67 2826 1.33 2826 2C1884 2 942 2 0 2C0 1.33 0 0.67 0 0Z" sodipodi:nodetypes="ccccc"/>
 </g><g id="group117" transform="matrix(0.72 0 0 2.61378197427027 2.27373675443232e-13 -3021.16913994821)" fill="none">
  <path id="shape117" transform="translate(-0.5, 1527.5)" fill="#2d401a" fill-rule="evenodd" stroke-opacity="0" stroke="#000000" stroke-width="0" stroke-linecap="square" stroke-linejoin="bevel" d="M0 0C942 0 1884 0 2826 0C2826 9.67 2826 19.33 2826 29C1884 29 942 29 0 29C0 19.33 0 9.67 0 0Z" sodipodi:nodetypes="ccccc"/>
 </g><g id="group118" transform="matrix(0.72 0 0 2.61378197427027 2.27373675443232e-13 -3021.16913994821)" fill="none">
  <path id="shape118" transform="translate(-0.5, 1556.5)" fill="#33431d" fill-rule="evenodd" stroke-opacity="0" stroke="#000000" stroke-width="0" stroke-linecap="square" stroke-linejoin="bevel" d="M0 0C942 0 1884 0 2826 0C2826 1.33 2826 2.67 2826 4C1884 4 942 4 0 4C0 2.67 0 1.33 0 0Z" sodipodi:nodetypes="ccccc"/>
 </g><g id="group119" transform="matrix(0.72 0 0 2.61378197427027 2.27373675443232e-13 -3021.16913994821)" fill="none">
  <path id="shape119" transform="translate(-0.5, 1560.5)" fill="#35451e" fill-rule="evenodd" stroke-opacity="0" stroke="#000000" stroke-width="0" stroke-linecap="square" stroke-linejoin="bevel" d="M0 0C942 0 1884 0 2826 0C2826 1 2826 2 2826 3C1884 3 942 3 0 3C0 2 0 1 0 0Z" sodipodi:nodetypes="ccccc"/>
 </g><g id="group120" transform="matrix(0.72 0 0 2.61378197427027 2.27373675443232e-13 -3021.16913994821)" fill="none">
  <path id="shape120" transform="translate(-0.5, 1563.5)" fill="#37461f" fill-rule="evenodd" stroke-opacity="0" stroke="#000000" stroke-width="0" stroke-linecap="square" stroke-linejoin="bevel" d="M0 0C942 0 1884 0 2826 0C2826 0.67 2826 1.33 2826 2C1884 2 942 2 0 2C0 1.33 0 0.67 0 0Z" sodipodi:nodetypes="ccccc"/>
 </g><g id="group121" transform="matrix(0.72 0 0 2.61378197427027 2.27373675443232e-13 -3021.16913994821)" fill="none">
  <path id="shape121" transform="translate(-0.5, 1565.5)" fill="#3b4721" fill-rule="evenodd" stroke-opacity="0" stroke="#000000" stroke-width="0" stroke-linecap="square" stroke-linejoin="bevel" d="M0 0C942 0 1884 0 2826 0C2826 2 2826 4 2826 6C1884 6 942 6 0 6C0 4 0 2 0 0Z" sodipodi:nodetypes="ccccc"/>
 </g><g id="group122" transform="matrix(0.72 0 0 2.61378197427027 2.27373675443232e-13 -3021.16913994821)" fill="none">
  <path id="shape122" transform="translate(-0.5, 1571.5)" fill="#404922" fill-rule="evenodd" stroke-opacity="0" stroke="#000000" stroke-width="0" stroke-linecap="square" stroke-linejoin="bevel" d="M0 0C942 0 1884 0 2826 0C2826 1 2826 2 2826 3C1884 3 942 3 0 3C0 2 0 1 0 0Z" sodipodi:nodetypes="ccccc"/>
 </g><g id="group123" transform="matrix(0.72 0 0 2.61378197427027 2.27373675443232e-13 -3021.16913994821)" fill="none">
  <path id="shape123" transform="translate(-0.5, 1574.5)" fill="#434b24" fill-rule="evenodd" stroke-opacity="0" stroke="#000000" stroke-width="0" stroke-linecap="square" stroke-linejoin="bevel" d="M0 0C942 0 1884 0 2826 0C2826 1 2826 2 2826 3C1884 3 942 3 0 3C0 2 0 1 0 0Z" sodipodi:nodetypes="ccccc"/>
 </g><g id="group124" transform="matrix(0.72 0 0 2.61378197427027 2.27373675443232e-13 -3021.16913994821)" fill="none">
  <path id="shape124" transform="translate(-0.5, 1577.5)" fill="#474d26" fill-rule="evenodd" stroke-opacity="0" stroke="#000000" stroke-width="0" stroke-linecap="square" stroke-linejoin="bevel" d="M0 0C942 0 1884 0 2826 0C2826 1 2826 2 2826 3C1884 3 942 3 0 3C0 2 0 1 0 0Z" sodipodi:nodetypes="ccccc"/>
 </g><g id="group125" transform="matrix(0.72 0 0 2.61378197427027 2.27373675443232e-13 -3021.16913994821)" fill="none">
  <path id="shape125" transform="translate(-0.5, 1580.5)" fill="#4c4f28" fill-rule="evenodd" stroke-opacity="0" stroke="#000000" stroke-width="0" stroke-linecap="square" stroke-linejoin="bevel" d="M0 0C942 0 1884 0 2826 0C2826 1.33 2826 2.67 2826 4C1884 4 942 4 0 4C0 2.67 0 1.33 0 0Z" sodipodi:nodetypes="ccccc"/>
 </g><g id="group126" transform="matrix(0.72 0 0 2.61378197427027 2.27373675443232e-13 -3021.16913994821)" fill="none">
  <path id="shape126" transform="translate(-0.5, 1584.5)" fill="#52522a" fill-rule="evenodd" stroke-opacity="0" stroke="#000000" stroke-width="0" stroke-linecap="square" stroke-linejoin="bevel" d="M0 0C942 0 1884 0 2826 0C2826 0.67 2826 1.33 2826 2C1884 2 942 2 0 2C0 1.33 0 0.67 0 0Z" sodipodi:nodetypes="ccccc"/>
 </g><g id="group127" transform="matrix(0.72 0 0 2.61378197427027 2.27373675443232e-13 -3021.16913994821)" fill="none">
  <path id="shape127" transform="translate(-0.5, 1586.5)" fill="#54532c" fill-rule="evenodd" stroke-opacity="0" stroke="#000000" stroke-width="0" stroke-linecap="square" stroke-linejoin="bevel" d="M0 0C942 0 1884 0 2826 0C2826 0.67 2826 1.33 2826 2C1884 2 942 2 0 2C0 1.33 0 0.67 0 0Z" sodipodi:nodetypes="ccccc"/>
 </g><g id="group128" transform="matrix(0.72 0 0 2.61378197427027 2.27373675443232e-13 -3021.16913994821)" fill="none">
  <path id="shape128" transform="translate(-0.5, 1588.5)" fill="#5a562e" fill-rule="evenodd" stroke-opacity="0" stroke="#000000" stroke-width="0" stroke-linecap="square" stroke-linejoin="bevel" d="M0 0C942 0 1884 0 2826 0C2826 1 2826 2 2826 3C1884 3 942 3 0 3C0 2 0 1 0 0Z" sodipodi:nodetypes="ccccc"/>
 </g><g id="group129" transform="matrix(0.72 0 0 2.61378197427027 2.27373675443232e-13 -3021.16913994821)" fill="none">
  <path id="shape129" transform="translate(-0.5, 1591.5)" fill="#605a35" fill-rule="evenodd" stroke-opacity="0" stroke="#000000" stroke-width="0" stroke-linecap="square" stroke-linejoin="bevel" d="M0 0C942 0 1884 0 2826 0C2826 1.33 2826 2.67 2826 4C1884 4 942 4 0 4C0 2.67 0 1.33 0 0Z" sodipodi:nodetypes="ccccc"/>
 </g>
</svg>
