<?xml version="1.0" standalone="no"?>
<!DOCTYPE svg PUBLIC "-//W3C//DTD SVG 20010904//EN" "http://www.w3.org/TR/2001/REC-SVG-20010904/DTD/svg10.dtd">
<!-- Created using Krita: https://krita.org -->
<svg xmlns="http://www.w3.org/2000/svg" 
    xmlns:xlink="http://www.w3.org/1999/xlink"
    xmlns:krita="http://krita.org/namespaces/svg/krita"
    xmlns:sodipodi="http://sodipodi.sourceforge.net/DTD/sodipodi-0.dtd"
    width="437.76pt"
    height="421.2pt"
    viewBox="0 0 437.76 421.2">
<defs/>
<path id="shape0" transform="matrix(0.820841870346169 0 0 0.823934406014415 523.934614244712 7.50672361678649)" fill="#d7e6ef" stroke-opacity="0" stroke="#000000" stroke-width="0" stroke-linecap="square" stroke-linejoin="bevel" d="M317.115 1.98656C515.108 49.4035 488.483 99.8844 532.223 235.154C535.105 310.155 545.648 456.054 292.785 510.574C151.788 514.482 12.2837 476.126 0 267.517C17.6858 66.8827 129.968 -14.099 317.115 1.98656Z" sodipodi:nodetypes="ccccc"/><path id="shape1" transform="matrix(1.09486409710096 0 0 1.19537968608134 85.5945663238697 3.29777385938917)" fill="#923c4d" stroke-opacity="0" stroke="#000000" stroke-width="0" stroke-linecap="square" stroke-linejoin="bevel" d="M176 0C175.393 2.80709 174.553 5.07506 173.145 7.57422C172.772 8.23784 172.399 8.90147 172.015 9.58521C171.618 10.279 171.221 10.9727 170.813 11.6875C170.41 12.3999 170.007 13.1124 169.592 13.8464C166.941 18.4909 164.137 22.9676 160.996 27.3008C159.747 29.1031 159.747 29.1031 160 32C167.106 31.6169 167.106 31.6169 173.813 29.4375C176.908 28.0413 178.669 27.6972 182 28C181.632 36.8329 176.203 42.1231 170 48C169.278 48.7631 168.556 49.5262 167.813 50.3125C166 52 166 52 164 52C164.287 53.5564 164.574 55.1126 164.864 56.6685C165.128 58.0907 165.388 59.5136 165.646 60.937C166.357 64.8099 167.136 68.64 168.09 72.4609C175.879 104.735 170.963 136.327 154.117 164.612C149.014 172.858 143.05 180.437 137 188C136.08 189.17 135.161 190.341 134.242 191.512C129.782 197.112 129.782 197.112 128 199C127.34 199 126.68 199 126 199C125.752 199.619 125.505 200.238 125.25 200.875C123.763 203.404 122.563 203.718 120 205C119.711 205.598 119.422 206.196 119.125 206.813C118 209 118 209 115.01 211.134C112.246 213.395 59.64 256.54 61 246C54.8347 249.287 131.776 195.379 125.615 198.674C124.849 199.081 124.082 199.487 123.293 199.905C122.507 200.324 121.722 200.743 120.912 201.174C118.941 202.092 118.941 202.092 116.941 202.092C117.601 194.832 41.32 241.48 42 234C39.9175 235.303 39.9175 235.303 37.793 236.633C18.6977 248.545 18.6977 248.545 10 253C8.83211 253.613 8.83211 253.613 7.64063 254.238C2.28802 257 2.28802 257 0 257C1.92006 248.767 4.28871 240.814 7.08984 232.84C7.47564 231.729 7.86144 230.618 8.25893 229.473C9.48026 225.959 10.7088 222.448 11.9375 218.938C12.7576 216.58 13.5773 214.223 14.3965 211.865C20.3757 194.684 20.3757 194.684 22.9678 187.621C25.3369 181.131 27.5324 174.585 29.7383 168.039C30.8834 164.662 32.032 161.286 33.18 157.91C34.3655 154.421 35.5468 150.931 36.7195 147.438C37.8681 144.018 39.0282 140.602 40.1958 137.188C40.8411 135.292 41.4746 133.392 42.1077 131.491C48.8621 111.829 48.8621 111.829 55.8125 105.063C60.7916 98.0917 60.0346 87.6982 60.6914 79.3564C63.9486 38.2411 63.9486 38.2411 77.3242 26.4297C77.8772 25.9579 78.4302 25.4861 79 25C79.6355 24.3426 80.271 23.6852 80.9258 23.0078C90.735 13.5127 103.672 10.3621 116.913 10.4548C127.28 10.8455 135.985 14.4759 144 21C147.897 19.434 150.111 16.927 152.938 13.875C158.894 7.67699 167.075 0 176 0Z" sodipodi:nodetypes="ccccccccccccccccccccccccccccccccccccccccccccccccccccc"/><path id="shape2" transform="matrix(1.09486409710096 0 0 1.19537968608134 129.389130207908 109.686565920629)" fill="#7a0d2f" stroke-opacity="0" stroke="#000000" stroke-width="0" stroke-linecap="square" stroke-linejoin="bevel" d="M98 0C100.02 0.601837 102.021 1.27306 104 2C104.495 2.99 104.495 2.99 105 4C105.66 4 106.32 4 107 4C106.67 4.99 106.34 5.98 106 7C108.128 9.34059 110.116 10.707 113 12C114.32 10.68 115.64 9.36 117 8C117.99 8.33 118.98 8.66 120 9C119.424 12.3386 118.409 13.691 116 16C115.505 17.485 115.505 17.485 115 19C116.46 18.7176 117.918 18.4237 119.375 18.125C120.187 17.9626 120.999 17.8002 121.836 17.6328C124.187 17.1334 124.187 17.1334 126 15C126.402 15.9591 126.402 15.9591 126.813 16.9375C127.887 19.3313 127.887 19.3313 131 20C131.754 50.4037 115.296 76.1267 97 99C96.0802 100.17 95.1609 101.341 94.2422 102.512C89.7824 108.112 89.7824 108.112 88 110C87.34 110 86.68 110 86 110C85.7525 110.619 85.505 111.237 85.25 111.875C83.7626 114.404 82.5632 114.718 80 116C79.7113 116.598 79.4225 117.196 79.125 117.813C78 120 78 120 75.0095 122.134C72.2456 124.395 19.64 167.54 21 157C14.8347 160.287 14.8347 160.287 8.67432 163.582C7.90781 163.988 7.1413 164.394 6.35156 164.813C5.56604 165.231 4.78052 165.65 3.97119 166.082C2 167 2 167 0 167C0.252709 162.325 0.604235 157.665 1 153C1.04125 152.125 1.0825 151.249 1.125 150.348C1.54948 146.574 2.3026 144.649 5.12109 142.027C8.01815 139.912 11.0017 137.969 14 136C16.3023 134.29 18.5579 132.522 20.8125 130.75C23.882 128.355 26.9232 126.051 30.1758 123.91C32.571 122.29 34.4092 120.778 36.375 118.688C41.1763 113.737 46.3047 108.915 52 105C52.66 105 53.32 105 54 105C54.0825 104.402 54.165 103.804 54.25 103.188C55.2158 100.371 56.4887 99.522 59 98C59.66 98 60.32 98 61 98C61 97.34 61 96.68 61 96C62.3223 94.6558 63.6589 93.3255 65 92C67.4189 89.0477 69.7109 85.9944 72.0215 82.957C72.4901 82.3499 72.9586 81.7427 73.4414 81.1172C73.8611 80.5666 74.2807 80.016 74.7131 79.4487C76 78 76 78 79 76C80.2142 74.0534 80.2142 74.0534 81.1875 71.875C81.7038 70.7883 81.7038 70.7883 82.2305 69.6797C82.4844 69.1254 82.7384 68.5711 83 68C83.6188 68.8044 84.2375 69.6088 84.875 70.4375C86.7416 73.0387 86.7416 73.0387 89 74C89.1856 73.1338 89.1856 73.1338 89.375 72.25C90.0065 69.9766 90.8886 68.0746 92 66C90.8244 66.3094 90.8244 66.3094 89.625 66.625C88.7587 66.7488 87.8925 66.8725 87 67C86.34 66.34 85.68 65.68 85 65C85.5902 63.3491 86.1977 61.7044 86.8125 60.0625C87.1489 59.146 87.4854 58.2295 87.832 57.2852C89 55 89 55 92 54C91.8157 53.2743 91.6313 52.5485 91.4414 51.8008C90.9775 48.8575 91.2286 47.0556 91.9375 44.1875C93.858 35.3428 92.8901 27.5209 90.375 18.8438C89.8652 16.3373 90.705 15.1329 92 13C92.33 13 92.66 13 93 13C93.33 12.34 93.66 11.68 94 11C94.9802 9.98059 95.978 8.97754 97 8C96.01 5.525 96.01 5.525 95 3C95.99 2.34 96.98 1.68 98 1C98 0.67 98 0.34 98 0Z" sodipodi:nodetypes="ccccccccccccccccccccccccccccccccccccccccccccccccccccccccccccccccccccc"/><path id="shape3" transform="matrix(1.09486409710096 0 0 1.19537968608134 150.958941422804 3.29777385938911)" fill="#7b0d2f" stroke-opacity="0" stroke="#000000" stroke-width="0" stroke-linecap="square" stroke-linejoin="bevel" d="M116.299 0C115.692 2.80709 114.852 5.07506 113.444 7.57422C113.071 8.23784 112.698 8.90147 112.314 9.58521C111.918 10.279 111.521 10.9727 111.112 11.6875C110.709 12.3999 110.306 13.1124 109.891 13.8464C107.24 18.4909 104.437 22.9676 101.295 27.3008C100.046 29.1031 100.046 29.1031 100.299 32C107.405 31.6169 107.405 31.6169 114.112 29.4375C117.208 28.0413 118.968 27.6972 122.299 28C121.931 36.8329 116.502 42.1231 110.299 48C109.577 48.7631 108.855 49.5262 108.112 50.3125C106.299 52 106.299 52 104.299 52C104.586 53.5571 104.874 55.114 105.163 56.6707C105.426 58.0858 105.686 59.5013 105.945 60.9172C106.68 64.8921 107.476 68.8392 108.389 72.7773C111.159 85.0032 111.751 96.4838 111.299 109C108.432 108.427 107.438 108.139 105.299 106C103.814 106.495 103.814 106.495 102.299 107C99.969 107.355 97.6358 107.691 95.2991 108C95.8777 104.644 96.9391 103.36 99.2991 101C99.2991 100.01 99.2991 99.02 99.2991 98C96.8311 99.1517 95.2513 100.048 93.2991 102C89.9332 100.557 87.7886 98.6674 85.2991 96C85.9591 95.67 86.6191 95.34 87.2991 95C87.2991 94.34 87.2991 93.68 87.2991 93C85.8141 93.495 85.8141 93.495 84.2991 94C84.2991 93.01 84.2991 92.02 84.2991 91C82.8141 91.495 82.8141 91.495 81.2991 92C80.6391 91.34 79.9791 90.68 79.2991 90C77.7366 91.312 77.7366 91.312 76.2991 93C76.2991 93.99 76.2991 94.98 76.2991 96C76.9591 96.33 77.6191 96.66 78.2991 97C76.6491 98.65 74.9991 100.3 73.2991 102C73.9591 102 74.6191 102 75.2991 102C74.9691 102.66 74.6391 103.32 74.2991 104C73.6391 104 72.9791 104 72.2991 104C71.6391 104.66 70.9791 105.32 70.2991 106C69.9691 105.01 69.6391 104.02 69.2991 103C68.6391 103 67.9791 103 67.2991 103C65.2991 100 65.2991 100 65.2991 97C64.3091 97 63.3191 97 62.2991 97C62.2991 96.34 62.2991 95.68 62.2991 95C61.2376 94.8298 61.2376 94.8298 60.1546 94.6563C57.0651 93.9462 54.4899 92.822 51.6116 91.5C39.5081 86.4139 26.684 87.5332 14.3968 92.0117C10.4039 93.8929 6.86937 96.4263 3.2991 99C1.8141 99.99 1.8141 99.99 0.299097 101C-0.487828 78.6164 -0.824419 47.9729 14.1702 29.7227C15.8178 28.0467 17.5125 26.5243 19.2991 25C19.9346 24.3426 20.5701 23.6852 21.2249 23.0078C31.0341 13.5127 43.9711 10.3621 57.2119 10.4548C67.5793 10.8455 76.2838 14.4759 84.2991 21C88.1962 19.434 90.4099 16.927 93.2366 13.875C99.1926 7.67699 107.374 0 116.299 0Z" sodipodi:nodetypes="cccccccccccccccccccccccccccccccccccccccccccccccccccccc"/><path id="shape4" transform="matrix(1.09486409710096 0 0 1.19537968608134 230.116627141196 3.29777385938911)" fill="#780c2d" stroke-opacity="0" stroke="#000000" stroke-width="0" stroke-linecap="square" stroke-linejoin="bevel" d="M44 0C43.3932 2.80709 42.5528 5.07506 41.1445 7.57422C40.7719 8.23784 40.3993 8.90147 40.0154 9.58521C39.6184 10.279 39.2215 10.9727 38.8125 11.6875C38.4097 12.3999 38.007 13.1124 37.592 13.8464C34.9409 18.4909 32.1374 22.9676 28.9961 27.3008C27.7471 29.1031 27.7471 29.1031 28 32C35.1064 31.6169 35.1064 31.6169 41.8125 29.4375C44.9084 28.0413 46.6692 27.6972 50 28C49.632 36.8329 44.2034 42.1231 38 48C37.2781 48.7631 36.5562 49.5262 35.8125 50.3125C34 52 34 52 32 52C32.2871 53.5571 32.5746 55.114 32.864 56.6707C33.1267 58.0858 33.3872 59.5013 33.6458 60.9172C34.381 64.8921 35.177 68.8392 36.0898 72.7773C38.86 85.0032 39.4524 96.4838 39 109C36.1328 108.427 35.1385 108.139 33 106C31.515 106.495 31.515 106.495 30 107C27.6699 107.355 25.3367 107.691 23 108C23.5786 104.644 24.64 103.36 27 101C27 100.01 27 99.02 27 98C24.532 99.1517 22.9522 100.048 21 102C17.6341 100.557 15.4895 98.6674 13 96C13.99 95.505 13.99 95.505 15 95C15 94.34 15 93.68 15 93C13.515 93.495 13.515 93.495 12 94C12 93.01 12 92.02 12 91C11.34 90.67 10.68 90.34 10 90C10.33 89.01 10.66 88.02 11 87C11.99 87 12.98 87 14 87C15.7171 84.555 15.7171 84.555 17 82C15.02 82.99 15.02 82.99 13 84C12.34 82.35 11.68 80.7 11 79C10.01 79.495 10.01 79.495 9 80C8.67 79.34 8.34 78.68 8 78C7.01 77.67 6.02 77.34 5 77C5 75.68 5 74.36 5 73C5.66 73 6.32 73 7 73C8.06877 70.8625 8.72774 69.3822 9 67C7.64599 64.2702 7.64599 64.2702 6 62C6.66 61.01 7.32 60.02 8 59C7.01 59.495 7.01 59.495 6 60C4.02 58.68 2.04 57.36 0 56C0.66 54.35 1.32 52.7 2 51C3.32 52.32 4.64 53.64 6 55C6.99 54.505 6.99 54.505 8 54C8.66 54 9.32 54 10 54C12.1485 53.468 12.1485 53.468 14 52C14.74 48.9773 14.74 48.9773 15 46C15.495 45.505 15.495 45.505 16 45C15.5907 42.946 15.5907 42.946 15 41C16.98 40.505 16.98 40.505 19 40C19 39.34 19 38.68 19 38C19.66 38 20.32 38 21 38C21 38.99 21 39.98 21 41C21.66 41 22.32 41 23 41C23.33 41.99 23.66 42.98 24 44C26.475 43.505 26.475 43.505 29 43C29.33 44.98 29.66 46.96 30 49C37.089 44.8503 41.9213 39.0853 46 32C45.2266 32.3004 44.4531 32.6007 43.6563 32.9102C37.2384 35.2533 32.689 36.7027 26 35C25.01 34.34 24.02 33.68 23 33C23.5013 27.8569 26.1149 24.273 28.875 20.0625C31.85 15.4714 34.6563 10.959 37 6C36.4457 6.43313 35.8914 6.86625 35.3203 7.3125C34.5959 7.86937 33.8714 8.42625 33.125 9C32.4057 9.55687 31.6864 10.1137 30.9453 10.6875C29 12 29 12 27 12C27 12.66 27 13.32 27 14C25.3906 15.6563 25.3906 15.6563 23.25 17.5C22.5539 18.1084 21.8578 18.7169 21.1406 19.3438C19.1554 20.8798 17.2813 21.9724 15 23C15.7746 16.6241 22.3067 11.9375 27 8C37.7283 0 37.7283 0 44 0Z" sodipodi:nodetypes="ccccccccccccccccccccccccccccccccccccccccccccccccccccccccccccccccccccccccccc"/><path id="shape5" transform="matrix(1.09486409710096 0 0 1.19537968608134 363.69004726123 274.288599465841)" fill="#638140" stroke-opacity="0" stroke="#000000" stroke-width="0" stroke-linecap="square" stroke-linejoin="bevel" d="M38.4414 0.0475571C49.1975 -0.548937 56.913 4.53646 64.6729 11.3281C67.1859 13.5825 69.6495 15.8775 72 18.3015C70.4873 24.5411 65.1603 28.1449 60.0938 31.6022C49.5706 37.9484 36.1239 35.8158 24.6797 33.2819C15.8371 30.9258 7.3765 27.7977 0 22.3015C0 19.3015 0 19.3015 2 17.0515C2.99339 16.1276 3.99423 15.2118 5 14.3015C5.58137 13.7394 6.16273 13.1774 6.76172 12.5983C16.3045 3.6943 25.7063 1.37201 38.4414 0.0475571Z" sodipodi:nodetypes="cccccccccc"/><path id="shape6" transform="matrix(1.09486409710096 0 0 1.19537968608134 129.389130207908 238.787572017413)" fill="#7b0e30" stroke-opacity="0" stroke="#000000" stroke-width="0" stroke-linecap="square" stroke-linejoin="bevel" d="M50 0C50.625 2.8125 50.625 2.8125 51 6C50.34 6.99 49.68 7.98 49 9C49.99 9 50.98 9 52 9C53.32 9 54.64 9 56 9C56.33 8.01 56.66 7.02 57 6C57.66 6.33 58.32 6.66 59 7C59 7.99 59 8.98 59 10C59.99 10.66 60.98 11.32 62 12C61.34 12.66 60.68 13.32 60 14C60.99 14 61.98 14 63 14C63.4744 14.9694 63.9488 15.9388 64.4375 16.9375C65.7019 19.8048 65.7019 19.8048 67 21C67.0406 22.6662 67.0427 24.3339 67 26C66.01 24.515 66.01 24.515 65 23C64.1933 23.5357 64.1933 23.5357 63.3704 24.0823C53.9793 30.3012 44.6629 36.4629 34.6445 41.6328C32.3326 42.8281 30.1053 44.0984 27.875 45.4375C25 47 25 47 22 47C22 48.65 22 50.3 22 52C21.67 51.01 21.34 50.02 21 49C20.4349 49.3029 19.8698 49.6059 19.2876 49.918C16.7357 51.2829 14.1804 52.6415 11.625 54C10.7355 54.477 9.84609 54.9539 8.92969 55.4453C8.07891 55.8965 7.22812 56.3477 6.35156 56.8125C5.56604 57.2314 4.78052 57.6504 3.97119 58.082C2 59 2 59 0 59C0.252709 54.3249 0.604235 49.6651 1 45C1.04125 44.1247 1.0825 43.2495 1.125 42.3477C1.54948 38.5737 2.3026 36.6486 5.12109 34.0273C8.01815 31.9124 11.0017 29.9685 14 28C16.3023 26.2899 18.5579 24.5223 20.8125 22.75C23.882 20.3554 26.9232 18.0506 30.1758 15.9102C32.571 14.2902 34.4092 12.778 36.375 10.6875C38.9418 8.04643 41.5654 5.51653 44.3125 3.0625C44.9686 2.47598 45.6248 1.88945 46.3008 1.28516C48 0 48 0 50 0Z" sodipodi:nodetypes="ccccccccccccccccccccccccccccccccccccc"/><path id="shape7" transform="matrix(1.09486409710096 0 0 1.19537968608134 210.996126296719 9.27467228979589)" fill="#7d1031" stroke-opacity="0" stroke="#000000" stroke-width="0" stroke-linecap="square" stroke-linejoin="bevel" d="M54.4638 0C54.9588 0.99 54.9588 0.99 55.4638 2C54.5234 3.96777 54.5234 3.96777 53.0419 6.35938C52.5108 7.2282 51.9798 8.09703 51.4326 8.99219C50.8654 9.90227 50.2982 10.8123 49.7138 11.75C44.7787 19.7039 44.7787 19.7039 40.4638 28C48.2335 31.3868 55.6196 29.1393 63.4638 27C61.4933 34.0063 55.3321 39.976 49.4638 44C48.8038 44 48.1438 44 47.4638 44C46.9688 41.03 46.9688 41.03 46.4638 38C44.1538 38.66 41.8438 39.32 39.4638 40C39.7938 38.68 40.1238 37.36 40.4638 36C39.8038 36 39.1438 36 38.4638 36C38.4638 35.01 38.4638 34.02 38.4638 33C37.8038 33 37.1438 33 36.4638 33C36.4638 33.66 36.4638 34.32 36.4638 35C34.4838 35.495 34.4838 35.495 32.4638 36C33.4538 37.65 34.4438 39.3 35.4638 41C34.8038 41.66 34.1438 42.32 33.4638 43C33.3401 43.66 33.2163 44.32 33.0888 45C32.4638 47 32.4638 47 30.4638 48.125C29.8038 48.4138 29.1438 48.7025 28.4638 49C28.1338 49.66 27.8038 50.32 27.4638 51C25.9788 50.505 25.9788 50.505 24.4638 50C23.4738 50.495 23.4738 50.495 22.4638 51C21.8038 49.68 21.1438 48.36 20.4638 47C19.4738 47.99 18.4838 48.98 17.4638 50C17.7938 48.68 18.1238 47.36 18.4638 46C17.4854 46.0522 17.4854 46.0522 16.4873 46.1055C11.0572 46.2737 7.07971 46.2311 2.46381 43C-0.475889 38.3514 -0.266773 33.3075 0.463812 28C1.53175 25.43 2.76551 23.2105 4.27241 20.875C5.62939 18.9064 5.62939 18.9064 6.46381 16C7.12381 16 7.78381 16 8.46381 16C8.79381 15.34 9.12381 14.68 9.46381 14C10.1238 14.33 10.7838 14.66 11.4638 15C11.1338 13.02 10.8038 11.04 10.4638 9C13.7281 7.96 15.189 7.89419 18.4365 9.14453C19.4561 9.69496 20.4758 10.2454 21.5263 10.8125C22.5485 11.3552 23.5708 11.8979 24.624 12.457C25.5611 12.9662 26.4983 13.4754 27.4638 14C28.2256 14.3545 28.9875 14.709 29.7724 15.0742C31.4638 16 31.4638 16 32.4638 18C32.9949 17.5179 33.526 17.0358 34.0732 16.5391C34.7796 15.9074 35.486 15.2758 36.2138 14.625C36.9099 13.9985 37.606 13.372 38.3232 12.7266C40.3089 11.1249 42.1434 10.0348 44.4638 9C44.4638 8.34 44.4638 7.68 44.4638 7C46.6513 5.27344 46.6513 5.27344 49.4638 3.375C50.856 2.42754 50.856 2.42754 52.2763 1.46094C52.9982 0.978828 53.7201 0.496719 54.4638 0Z" sodipodi:nodetypes="ccccccccccccccccccccccccccccccccccccccccccccccccccc"/><path id="shape8" transform="matrix(1.09486409710096 0 0 1.19537968608134 5.66948723549946 335.653043183044)" fill="#efb154" stroke-opacity="0" stroke="#000000" stroke-width="0" stroke-linecap="square" stroke-linejoin="bevel" d="M124 0.966775C121 2.96677 121 2.96677 119 3.96677C118.67 4.95677 118.34 5.94677 118 6.96677C118.785 6.72959 119.57 6.4924 120.379 6.24802C123.718 5.42874 126.557 4.87673 130 4.96677C133.14 7.11755 135.103 9.68733 137 12.9668C137 13.2968 137 13.6268 137 13.9668C136.229 13.9447 135.458 13.9226 134.664 13.8999C131.129 13.8283 127.598 13.8345 124.063 13.8418C122.85 13.8057 121.638 13.7696 120.389 13.7324C113.391 13.7178 113.391 13.7178 107.559 17.1345C106.12 18.9218 104.699 20.7236 103.296 22.539C99.18 26.891 94.0114 27.6126 88.3125 28.7793C87.138 29.0522 85.9635 29.3252 84.7534 29.6064C81.1761 30.4304 77.5907 31.2033 74 31.9668C70.8307 32.6641 67.6631 33.3681 64.4968 34.0788C62.6314 34.4932 60.7631 34.8952 58.8918 35.2824C50.2917 37.1231 45.5181 41.1064 39.25 47.0918C38.5384 47.7647 37.8269 48.4376 37.0938 49.1308C32.6373 53.3595 28.268 57.664 23.957 62.041C21.315 64.6408 18.5374 67.0587 15.7109 69.4551C13.8357 71.047 13.8357 71.047 11.8125 73.4668C10 74.9668 10 74.9668 7.5625 74.9668C4.53008 73.7834 2.49478 72.0326 0 69.9668C6.81667 63.739 13.6758 57.5743 20.6577 51.5322C21.9205 50.4394 23.1828 49.3459 24.4446 48.2519C25.778 47.0993 27.1152 45.9509 28.4558 44.8066C31.1545 42.4941 33.7593 40.2229 36.1953 37.6308C43.6804 29.7072 54.914 27.2509 65 23.9668C66.213 23.5659 67.426 23.165 68.6758 22.7519C70.5575 22.1313 72.4402 21.5138 74.3242 20.9004C78.3933 19.4807 82.3467 17.8078 86.3086 16.1152C89 14.9668 89 14.9668 91.5938 14.2011C94.9552 12.4768 96.0579 10.0117 98.0625 6.84177C104.383 -2.0196 114.215 -0.144216 124 0.966775Z" sodipodi:nodetypes="ccccccccccccccccccccccccccccccccccc"/><path id="shape9" transform="matrix(1.09486409710096 0 0 1.19537968608134 134.863450693413 260.304406366878)" fill="#30302f" stroke-opacity="0" stroke="#000000" stroke-width="0" stroke-linecap="square" stroke-linejoin="bevel" d="M66 0C64.1845 30.5652 64.1845 30.5652 62.9375 45.625C62.8584 46.5937 62.7793 47.5625 62.6978 48.5605C62.309 53.1152 61.7547 57.472 61 62C78.325 62.495 78.325 62.495 96 63C95.67 64.65 95.34 66.3 95 68C89.555 68.99 89.555 68.99 84 70C85.485 70.99 85.485 70.99 87 72C86.505 73.98 86.505 73.98 86 76C83.2271 75.5107 80.7171 74.8977 78.0625 73.9375C74.873 72.9611 72.3141 72.8422 69 73C68.505 74.98 68.505 74.98 68 77C66.25 76.8125 66.25 76.8125 64 76C63.4019 75.175 62.8038 74.35 62.1875 73.5C59.844 70.8217 58.7079 70.322 55.2148 70.0469C50.4748 69.9466 45.7406 69.9299 41 70C42.65 71.32 44.3 72.64 46 74C45.505 75.485 45.505 75.485 45 77C39.6167 76.3118 34.7314 74.6926 29.625 72.9375C28.7936 72.6558 27.9621 72.3742 27.1055 72.084C25.0689 71.3934 23.0343 70.6973 21 70C21.5014 70.7773 22.0029 71.5546 22.5195 72.3555C24 75 24 75 23.6875 77.3125C23.4606 77.8694 23.2338 78.4262 23 79C21.1875 78.7891 21.1875 78.7891 19 78C17.5 75.8984 17.5 75.8984 16 73.375C14.3156 70.839 14.3156 70.839 12 69C7.81964 68.503 4.08878 69.0802 0 70C0.152344 68.1406 0.152344 68.1406 1 66C3.50391 64.7344 3.50391 64.7344 6.5625 63.75C7.57441 63.4148 8.58633 63.0797 9.62891 62.7344C10.4114 62.492 11.1938 62.2497 12 62C12.0804 61.3201 12.1608 60.6402 12.2437 59.9397C12.6161 56.8134 12.9955 53.688 13.375 50.5625C13.5013 49.4932 13.6277 48.4239 13.7578 47.3223C14.5181 41.1066 15.5278 35.0872 17 29C18.32 28.67 19.64 28.34 21 28C20.5794 36.3234 20.0247 44.6015 19 52.875C18.917 53.5582 18.834 54.2414 18.7485 54.9453C18.128 59.7441 18.128 59.7441 17 62C26.1264 62.6544 35.2231 63.1038 44.375 63.125C45.1888 63.1295 46.0026 63.134 46.8411 63.1387C50.1478 63.1303 52.8416 63.0528 56 62C56.0582 61.339 56.1164 60.6781 56.1764 59.9971C56.7849 53.1017 57.4029 46.2072 58.0264 39.3132C58.2576 36.7422 58.4865 34.1709 58.7129 31.5994C59.0392 27.8977 59.3742 24.1969 59.7109 20.4961C59.8595 18.7785 59.8595 18.7785 60.0111 17.0262C60.5242 11.4786 61.0336 6.23674 63 1C65 0 65 0 66 0Z" sodipodi:nodetypes="cccccccccccccccccccccccccccccccccccccccccccccccccc"/><path id="shape10" transform="matrix(1.09486409710096 0 0 1.19537968608134 225.737170752792 305.779005191936)" fill="#efb154" stroke-opacity="0" stroke="#000000" stroke-width="0" stroke-linecap="square" stroke-linejoin="bevel" d="M117 0.958029C117.99 1.94803 117.99 1.94803 119 2.95803C118.433 3.23888 117.866 3.51974 117.282 3.8091C87.6503 17.6762 87.6503 17.6762 60.1328 35.169C56.0305 37.5117 52.8386 37.6283 48.1875 37.708C47.3133 37.737 46.439 37.7659 45.5383 37.7957C31.3685 38.1906 17.1736 38.0415 3 37.958C3 36.638 3 35.318 3 33.958C2.01 32.968 1.02 31.978 0 30.958C3.96 30.298 7.92 29.638 12 28.958C12.33 27.968 12.66 26.978 13 25.958C14.1152 26.0063 15.2304 26.0545 16.3794 26.1043C41.6116 27.0438 60.1331 25.1048 81.7861 11.8921C86.6263 8.97934 91.6182 6.44336 96.6875 3.95803C97.4826 3.53143 98.2777 3.10483 99.0969 2.6653C105.115 -0.343569 110.436 -0.64297 117 0.958029Z" sodipodi:nodetypes="cccccccccccccccc"/><path id="shape11" transform="matrix(1.09486409710096 0 0 1.19537968608134 353.836270113605 315.291871926619)" fill="#648241" stroke-opacity="0" stroke="#000000" stroke-width="0" stroke-linecap="square" stroke-linejoin="bevel" d="M1 0C1.99 0 2.98 0 4 0C4 0.66 4 1.32 4 2C5.27875 2.22688 6.5575 2.45375 7.875 2.6875C17.8754 4.95174 25.8952 9.71781 31.5391 18.3555C35.3967 25.3056 36.2435 30.5864 34.0898 38.2305C33.1243 41.1824 32.1006 44.0961 31 47C23.1867 46.6383 17.5448 44.7852 11.375 39.9375C1.83875 28.1427 0.226821 15.6561 0 1C0.33 0.67 0.66 0.34 1 0Z" sodipodi:nodetypes="cccccccccc"/><path id="shape12" transform="matrix(1.09486409710096 0 0 1.19537968608134 334.757679697235 236.396812645251)" fill="#638140" stroke-opacity="0" stroke="#000000" stroke-width="0" stroke-linecap="square" stroke-linejoin="bevel" d="M11.4255 0C15.0037 1.27739 17.0254 3.48929 19.488 6.3125C20.1596 7.07176 20.8312 7.83102 21.5232 8.61328C25.9327 14.1455 28.7269 19.4999 28.488 26.6875C27.4242 34.8892 22.5563 41.6904 16.113 46.6875C12.7974 49 12.7974 49 10.4255 49C9.76553 50.32 9.10553 51.64 8.42553 53C7.43553 52.67 6.44553 52.34 5.42553 52C4.34252 49.704 3.34757 47.3652 2.42553 45C2.07209 44.3738 1.71864 43.7475 1.35449 43.1023C-0.534367 38.8277 0.099191 33.9107 0.113033 29.3125C0.09692 28.2613 0.080806 27.21 0.064205 26.127C0.05921 18.1 0.737528 10.1182 6.48803 4C6.99463 3.44313 7.50124 2.88625 8.02319 2.3125C9.42553 1 9.42553 1 11.4255 0Z" sodipodi:nodetypes="ccccccccccccccc"/><path id="shape13" transform="matrix(1.09486409710096 0 0 1.19537968608134 246.539588597711 3.29777385938911)" fill="#333332" stroke-opacity="0" stroke="#000000" stroke-width="0" stroke-linecap="square" stroke-linejoin="bevel" d="M29 0C28.3932 2.80709 27.5528 5.07506 26.1445 7.57422C25.7719 8.23784 25.3993 8.90147 25.0154 9.58521C24.6184 10.279 24.2215 10.9727 23.8125 11.6875C23.4097 12.3999 23.007 13.1124 22.592 13.8464C19.9409 18.4909 17.1374 22.9676 13.9961 27.3008C12.7471 29.1031 12.7471 29.1031 13 32C20.1064 31.6169 20.1064 31.6169 26.8125 29.4375C29.9084 28.0413 31.6692 27.6972 35 28C34.632 36.8329 29.2034 42.1231 23 48C22.2369 48.7631 21.4737 49.5262 20.6875 50.3125C20.1306 50.8694 19.5738 51.4263 19 52C17.515 51.505 17.515 51.505 16 51C17.1278 47.6167 17.9636 47.023 20.6875 44.875C25.1156 41.149 28.0442 36.9375 31 32C30.2266 32.3004 29.4531 32.6007 28.6563 32.9102C22.2384 35.2533 17.689 36.7027 11 35C10.01 34.34 9.02 33.68 8 33C8.50128 27.8569 11.1149 24.273 13.875 20.0625C16.85 15.4714 19.6563 10.959 22 6C21.4457 6.43313 20.8914 6.86625 20.3203 7.3125C19.2336 8.14781 19.2336 8.14781 18.125 9C17.4057 9.55687 16.6864 10.1137 15.9453 10.6875C14 12 14 12 12 12C12 12.66 12 13.32 12 14C10.3906 15.6563 10.3906 15.6563 8.25 17.5C7.55391 18.1084 6.85781 18.7169 6.14063 19.3438C4.15539 20.8798 2.28128 21.9724 0 23C0.774639 16.6241 7.30673 11.9375 12 8C22.7283 0 22.7283 0 29 0Z" sodipodi:nodetypes="cccccccccccccccccccccccccccccc"/><path id="shape14" transform="matrix(1.09486409710096 0 0 1.19537968608134 353.836270113605 315.291871926619)" fill="#5e7c3d" stroke-opacity="0" stroke="#000000" stroke-width="0" stroke-linecap="square" stroke-linejoin="bevel" d="M1 0C1.99 0 2.98 0 4 0C5.91127 2.08229 7.61318 4.12941 9.3125 6.375C9.80017 7.0097 10.2878 7.6444 10.7903 8.29834C21 21.7675 21 21.7675 21 28C20.4019 28.1031 19.8038 28.2063 19.1875 28.3125C16.7176 29.0888 15.6775 30.0709 14 32C13.67 31.34 13.34 30.68 13 30C11.68 30.99 10.36 31.98 9 33C8.87625 32.4637 8.7525 31.9275 8.625 31.375C7.87794 28.5362 6.94697 25.7778 6 23C6.33 22.67 6.66 22.34 7 22C6.19562 21.7319 5.39125 21.4638 4.5625 21.1875C3.71687 20.7956 2.87125 20.4037 2 20C0.76967 16.309 0.605152 12.7267 0.375 8.875C0.323437 8.13379 0.271875 7.39258 0.21875 6.62891C0.102261 4.75481 0.046194 2.87715 0 1C0.33 0.67 0.66 0.34 1 0Z" sodipodi:nodetypes="cccccccccccccccccc"/><path id="shape15" transform="matrix(1.09486409710096 0 0 1.19537968608134 215.421498087919 37.6671533622667)" fill="#383837" stroke-opacity="0" stroke="#000000" stroke-width="0" stroke-linecap="square" stroke-linejoin="bevel" d="M12.4219 0.248148C15.9159 1.91577 17.2486 2.98821 19.4219 6.24815C20.0192 10.7708 19.752 12.7238 17.2969 16.6231C14.102 19.5402 12.717 20.3376 8.42188 20.2481C4.27018 18.5102 2.20059 16.3673 0.421875 12.2481C-0.140625 8.74815 -0.140625 8.74815 0.421875 5.24815C4.12918 1.0995 6.84041 -0.701889 12.4219 0.248148Z" sodipodi:nodetypes="ccccccc"/><path id="shape16" transform="matrix(1.09486409710096 0 0 1.19537968608134 211.04117576086 33.9815887704266)" fill="#e7e4e4" stroke-opacity="0" stroke="#000000" stroke-width="0" stroke-linecap="square" stroke-linejoin="bevel" d="M17.4227 0.331323C21.3255 2.42213 22.7358 3.58613 24.3328 7.64382C25.3875 11.7868 25.8537 15.2198 24.2977 19.2688C22.4572 22.2749 21.3737 23.5344 18.4227 25.3313C12.6388 26.3048 7.29469 25.7417 2.42267 22.3313C-0.524127 17.7181 -0.210573 12.6109 0.422666 7.33132C1.45688 4.70248 2.46329 3.45865 4.42267 1.33132C8.79687 -0.126745 12.8554 -0.265331 17.4227 0.331323ZM4.42267 8.33132C3.62886 12.6973 4.10149 14.7234 6.17267 18.6438C8.78126 21.8396 8.78126 21.8396 12.4227 23.3313C16.6819 23.3313 18.1206 22.6071 21.2977 19.7063C23.7928 15.7435 24.2577 13.9242 23.4227 9.33132C20.4693 5.75619 18.3026 3.58768 13.6727 2.95632C9.18134 3.47455 7.40962 4.98878 4.42267 8.33132Z" sodipodi:nodetypes="ccccccccccccccc"/><path id="shape17" transform="matrix(1.09486409710096 0 0 1.19537968608134 244.349860403509 9.27467228979589)" fill="#e8ac55" stroke-opacity="0" stroke="#000000" stroke-width="0" stroke-linecap="square" stroke-linejoin="bevel" d="M24 0C24.33 0.66 24.66 1.32 25 2C24.0596 3.96777 24.0596 3.96777 22.5781 6.35938C22.047 7.2282 21.5159 8.09703 20.9688 8.99219C20.4016 9.90227 19.8344 10.8123 19.25 11.75C14.3149 19.7039 14.3149 19.7039 10 28C9 27 8 26 7 25C6.15437 24.175 5.30875 23.35 4.4375 22.5C2 20 2 20 0 17C0.66 16.67 1.32 16.34 2 16C2 16.66 2 17.32 2 18C2.53109 17.5179 3.06219 17.0358 3.60938 16.5391C4.31578 15.9074 5.02219 15.2758 5.75 14.625C6.44609 13.9985 7.14219 13.372 7.85938 12.7266C9.84509 11.1249 11.6795 10.0348 14 9C14 8.34 14 7.68 14 7C16.1875 5.27344 16.1875 5.27344 19 3.375C19.9281 2.74336 20.8562 2.11172 21.8125 1.46094C22.5344 0.978828 23.2563 0.496719 24 0Z" sodipodi:nodetypes="ccccccccccccccccccc"/><path id="shape18" transform="matrix(1.09486409710096 0 0 1.19537968608134 225.737170752793 336.808706276084)" fill="#ecbf78" stroke-opacity="0" stroke="#000000" stroke-width="0" stroke-linecap="square" stroke-linejoin="bevel" d="M13 0C20.26 0 27.52 0 35 0C30.0029 2.49854 26.5625 1.99326 21.0938 1.67969C17.8785 1.72168 17.8785 1.72168 15.5938 4.00781C15.0678 4.66523 14.5419 5.32266 14 6C14.99 5.34 15.98 4.68 17 4C18.5 5.3125 18.5 5.3125 20 7C20 7.99 20 8.98 20 10C25.28 10.33 30.56 10.66 36 11C36 11.33 36 11.66 36 12C25.11 12 14.22 12 3 12C3 10.68 3 9.36 3 8C2.01 7.01 1.02 6.02 0 5C3.96 4.34 7.92 3.68 12 3C12.33 2.01 12.66 1.02 13 0ZM13 7C14 9 14 9 14 9Z" sodipodi:nodetypes="cccccccccccccccccc"/><path id="shape19" transform="matrix(1.09486409710096 0 0 1.19537968608134 255.298501374519 41.5499238139921)" fill="#e6ab54" stroke-opacity="0" stroke="#000000" stroke-width="0" stroke-linecap="square" stroke-linejoin="bevel" d="M23 0C21.0295 7.00632 14.8683 12.976 9 17C8.34 17 7.68 17 7 17C6.74605 16.3477 6.49211 15.6955 6.23047 15.0234C4.34261 10.2296 2.39996 5.55993 0 1C0.804375 1.35062 1.60875 1.70125 2.4375 2.0625C10.2052 4.10663 15.5838 0 23 0Z" sodipodi:nodetypes="ccccccc"/><path id="shape20" transform="matrix(1.09486409710096 0 0 1.19537968608134 210.409073393379 222.052256412275)" fill="#841939" stroke-opacity="0" stroke="#000000" stroke-width="0" stroke-linecap="square" stroke-linejoin="bevel" d="M18 0C18.33 0.66 18.66 1.32 19 2C20.65 1.67 22.3 1.34 24 1C24 5.11389 22.3461 6.11388 19.5625 9.0625C16.4143 12.2738 16.4143 12.2738 14 16C13.34 16 12.68 16 12 16C11.7525 16.6187 11.505 17.2375 11.25 17.875C9.7626 20.4036 8.56322 20.7184 6 22C5.67 22.66 5.34 23.32 5 24C3.75492 26.4902 2.53283 26.9869 0 28C0.753769 23.4774 1.72319 20.2768 5 17C5 16.34 5 15.68 5 15C6.65 15.33 8.3 15.66 10 16C9.67 14.35 9.34 12.7 9 11C10.65 10.34 12.3 9.68 14 9C13.67 8.67 13.34 8.34 13 8C13.66 6.02 14.32 4.04 15 2C15.66 2.33 16.32 2.66 17 3C17.33 2.01 17.66 1.02 18 0Z" sodipodi:nodetypes="ccccccccccccccccccc"/><path id="shape21" transform="matrix(1.09486409710096 0 0 1.19537968608134 341.792765045494 236.396812645251)" fill="#668542" stroke-opacity="0" stroke="#000000" stroke-width="0" stroke-linecap="square" stroke-linejoin="bevel" d="M5 0C8.66786 1.50349 10.6891 3.63729 13.25 6.625C13.9564 7.44227 14.6628 8.25953 15.3906 9.10156C15.9217 9.72805 16.4528 10.3545 17 11C16.01 11.495 16.01 11.495 15 12C14.34 11.67 13.68 11.34 13 11C13 11.66 13 12.32 13 13C7.65745 16.0355 7.65745 16.0355 4.6875 15.875C3 15 3 15 2 12C2.4375 9.3125 2.4375 9.3125 3 7C2.01 6.34 1.02 5.68 0 5C1.65 3.35 3.3 1.7 5 0Z" sodipodi:nodetypes="cccccccccccc"/><path id="shape22" transform="matrix(1.09486409710096 0 0 1.19537968608134 353.836270113605 315.291871926619)" fill="#2f302e" stroke-opacity="0" stroke="#000000" stroke-width="0" stroke-linecap="square" stroke-linejoin="bevel" d="M1 0C1.99 0 2.98 0 4 0C5.91127 2.08229 7.61318 4.12941 9.3125 6.375C9.80017 7.0097 10.2878 7.6444 10.7903 8.29834C21 21.7675 21 21.7675 21 28C19.2383 27.875 19.2383 27.875 17 27C15.1055 24.375 15.1055 24.375 13.1875 21C7.96463 11.1553 7.96463 11.1553 0 4C0.33 2.68 0.66 1.36 1 0Z" sodipodi:nodetypes="ccccccccc"/><path id="shape23" transform="matrix(1.09486409710096 0 0 1.19537968608134 177.56315048035 342.673649033565)" fill="#f0b355" stroke-opacity="0" stroke="#000000" stroke-width="0" stroke-linecap="square" stroke-linejoin="bevel" d="M0 0.093657C19.4367 -0.148965 19.4367 -0.148965 23.4375 3.03116C25 5.09366 25 5.09366 25 7.09366C22.1026 7.22905 19.2115 7.32792 16.3125 7.40616C15.4959 7.44805 14.6793 7.48995 13.8379 7.53311C9.38909 7.62317 7.61814 7.59421 4.04297 4.69913C3.36879 3.83932 2.69461 2.97952 2 2.09366C1.34 1.43366 0.68 0.773657 0 0.093657Z" sodipodi:nodetypes="cccccccc"/><path id="shape24" transform="matrix(1.09486409710096 0 0 1.19537968608134 363.690046987514 291.598033022842)" fill="#2c2d2b" stroke-opacity="0" stroke="#000000" stroke-width="0" stroke-linecap="square" stroke-linejoin="bevel" d="M24.25 0.196182C25.2864 0.286416 26.3228 0.376651 27.3906 0.46962C30 0.821182 30 0.821182 32 1.82118C32 2.81118 32 3.80118 32 4.82118C30.5672 4.76898 30.5672 4.76898 29.1055 4.71571C21.6727 4.56009 15.4757 4.87846 8.32031 7.15321C5.49262 7.96725 2.92525 8.05837 0 7.82118C0 6.83118 0 5.84118 0 4.82118C1.873 4.16957 3.74851 3.52516 5.625 2.88368C6.66914 2.52403 7.71328 2.16439 8.78906 1.79384C14.1344 0.174616 18.6889 -0.320802 24.25 0.196182Z" sodipodi:nodetypes="ccccccccccc"/><path id="shape25" transform="matrix(1.09486409710096 0 0 1.19537968608134 340.697900948393 267.476684483366)" fill="#2e2f2d" stroke-opacity="0" stroke="#000000" stroke-width="0" stroke-linecap="square" stroke-linejoin="bevel" d="M6 0C7.32 0.33 8.64 0.66 10 1C10.5625 11.11 9.84968 19.1229 3 27C2.01 26.67 1.02 26.34 0 26C0.458418 23.5245 1.00775 21.9889 2.46875 19.9063C4.50569 16.0402 4.79404 12.4939 5.1875 8.1875C5.26936 7.39924 5.35121 6.61098 5.43555 5.79883C5.63459 3.86698 5.81879 1.93361 6 0Z" sodipodi:nodetypes="cccccccc"/><path id="shape26" transform="matrix(1.09486409710096 0 0 1.19537968608134 253.108773180317 92.9512503154898)" fill="#841638" stroke-opacity="0" stroke="#000000" stroke-width="0" stroke-linecap="square" stroke-linejoin="bevel" d="M14 0C16.4168 3.86684 16.7865 7.51621 17 12C15.5625 14 15.5625 14 14 15C13.5669 14.505 13.1337 14.01 12.6875 13.5C11.0026 11.6678 11.0026 11.6678 8 12C6.68 12 5.36 12 4 12C3.34 12.66 2.68 13.32 2 14C1.34 12.35 0.68 10.7 0 9C0.99 9 1.98 9 3 9C3.33 8.01 3.66 7.02 4 6C4.99 6.33 5.98 6.66 7 7C7 5.68 7 4.36 7 3C7.66 2.34 8.32 1.68 9 1C9.66 1.33 10.32 1.66 11 2C11.33 2.99 11.66 3.98 12 5C12.66 3.35 13.32 1.7 14 0Z" sodipodi:nodetypes="cccccccccccccccc"/><path id="shape27" transform="matrix(1.09486409710096 0 0 1.19537968608134 105.302120071687 345.176364078653)" fill="#eba948" stroke-opacity="0" stroke="#000000" stroke-width="0" stroke-linecap="square" stroke-linejoin="bevel" d="M10 0C12 1 12 1 12 1ZM10 1C10 1.66 10 2.32 10 3C9.34 3 8.68 3 8 3C8.57453 6.93076 8.57453 6.93076 11 10C11 10.66 11 11.32 11 12C11.66 12.66 12.32 13.32 13 14C10.9324 16.7973 9.8556 17.0269 6.3125 17.6875C5.21937 17.7906 4.12625 17.8938 3 18C3.66 17.67 4.32 17.34 5 17C4.63906 16.4457 4.27813 15.8914 3.90625 15.3203C3.44219 14.5959 2.97813 13.8714 2.5 13.125C2.03594 12.4057 1.57188 11.6864 1.09375 10.9453C0 9 0 9 0 7C1.67969 5.49219 1.67969 5.49219 3.875 3.875C4.5943 3.33617 5.31359 2.79734 6.05469 2.24219C8 1 8 1 10 1Z" sodipodi:nodetypes="ccccccccccccccccccc"/><path id="shape28" transform="matrix(1.09486409710096 0 0 1.19537968608134 146.906955761523 275.844342285935)" fill="#811938" stroke-opacity="0" stroke="#000000" stroke-width="0" stroke-linecap="square" stroke-linejoin="bevel" d="M9 0C9.33 1.32 9.66 2.64 10 4C9.34 4 8.68 4 8 4C7.34 6.31 6.68 8.62 6 11C7.32 11 8.64 11 10 11C10.33 10.34 10.66 9.68 11 9C13.475 9.99 13.475 9.99 16 11C13.8733 13.3394 11.9378 14.8065 9 16C8.01 16 7.02 16 6 16C6 17.65 6 19.3 6 21C5.67 20.01 5.34 19.02 5 18C3.35 18.33 1.7 18.66 0 19C0.185625 17.9275 0.37125 16.855 0.5625 15.75C0.930457 12.5961 1.04465 10.9018 0 8C0.66 7.67 1.32 7.34 2 7C2 7.66 2 8.32 2 9C4.42084 8.05872 4.42084 8.05872 5.5 4.5C7 1 7 1 9 0Z" sodipodi:nodetypes="cccccccccccccccccc"/><path id="shape29" transform="matrix(1.09486409710096 0 0 1.19537968608134 244.349860403509 9.27467228979589)" fill="#d39f55" stroke-opacity="0" stroke="#000000" stroke-width="0" stroke-linecap="square" stroke-linejoin="bevel" d="M24 0C24.33 0.66 24.66 1.32 25 2C23.2647 6.35473 21.0978 10.1164 17.4375 13.0625C15 14 15 14 11 14C9.02072 15.2833 9.02072 15.2833 7.25 17C6.63641 17.5569 6.02281 18.1137 5.39063 18.6875C4.93172 19.1206 4.47281 19.5538 4 20C2.68 19.34 1.36 18.68 0 18C0.66 17.34 1.32 16.68 2 16C2 16.66 2 17.32 2 18C2.53109 17.5179 3.06219 17.0358 3.60938 16.5391C4.31578 15.9074 5.02219 15.2758 5.75 14.625C6.44609 13.9985 7.14219 13.372 7.85938 12.7266C9.84509 11.1249 11.6795 10.0348 14 9C14 8.34 14 7.68 14 7C16.1875 5.27344 16.1875 5.27344 19 3.375C19.9281 2.74336 20.8562 2.11172 21.8125 1.46094C22.5344 0.978828 23.2563 0.496719 24 0Z" sodipodi:nodetypes="cccccccccccccccccc"/><path id="shape30" transform="matrix(1.09486409710096 0 0 1.19537968608134 239.970404015105 337.537790305945)" fill="#e8a544" stroke-opacity="0" stroke="#000000" stroke-width="0" stroke-linecap="square" stroke-linejoin="bevel" d="M12.8125 0.0775816C13.5054 0.100141 14.1982 0.122699 14.9121 0.145941C16.609 0.204455 18.3048 0.294127 20 0.390082C19.67 1.38008 19.34 2.37008 19 3.39008C16.69 3.39008 14.38 3.39008 12 3.39008C12.1856 4.35946 12.3712 5.32883 12.5625 6.32758C12.7069 7.33821 12.8513 8.34883 13 9.39008C12 10.3901 12 10.3901 9.4375 10.4526C8.63312 10.432 7.82875 10.4113 7 10.3901C6.34 8.74008 5.68 7.09008 5 5.39008C4.34 5.39008 3.68 5.39008 3 5.39008C2.01 5.39008 1.02 5.39008 0 5.39008C3.92197 0.554258 6.80834 -0.295883 12.8125 0.0775816Z" sodipodi:nodetypes="ccccccccccccc"/><path id="shape31" transform="matrix(1.09486409710096 0 0 1.19537968608134 288.144424287547 332.027187531758)" fill="#eaaa4c" stroke-opacity="0" stroke="#000000" stroke-width="0" stroke-linecap="square" stroke-linejoin="bevel" d="M5 0C5.66 0 6.32 0 7 0C7.33 0.99 7.66 1.98 8 3C8.66 3.33 9.32 3.66 10 4C10 3.34 10 2.68 10 2C10.66 2 11.32 2 12 2C12 2.66 12 3.32 12 4C12.66 4 13.32 4 14 4C14 4.66 14 5.32 14 6C11.6641 7.76172 11.6641 7.76172 8.625 9.6875C7.62727 10.3307 6.62953 10.974 5.60156 11.6367C4.74305 12.0866 3.88453 12.5365 3 13C2.34 12.67 1.68 12.34 1 12C1.33 11.34 1.66 10.68 2 10C1.34 9.67 0.68 9.34 0 9C1.375 6.5 1.375 6.5 3 4C3.66 4 4.32 4 5 4C5 2.68 5 1.36 5 0Z" sodipodi:nodetypes="cccccccccccccccccc"/><path id="shape32" transform="matrix(1.09486409710096 0 0 1.19537968608134 211.353905864878 47.5268222443988)" fill="#edebeb" stroke-opacity="0" stroke="#000000" stroke-width="0" stroke-linecap="square" stroke-linejoin="bevel" d="M0.137032 0C3.59912 1.39647 4.75411 2.68542 6.38703 6C7.82857 8.49445 8.59674 9.75048 11.2347 10.9688C13.6765 11.5937 13.6765 11.5937 17.137 12C16.807 12.66 16.477 13.32 16.137 14C10.5672 14.2881 6.94033 14.2022 2.13703 11C-0.495613 7.64936 -0.0213688 4.11843 0.137032 0Z" sodipodi:nodetypes="ccccccc"/><path id="shape33" transform="matrix(1.09486409710096 0 0 1.19537968608134 204.010961325945 46.3314425583175)" fill="#851b3b" stroke-opacity="0" stroke="#000000" stroke-width="0" stroke-linecap="square" stroke-linejoin="bevel" d="M5.84375 0C6.17375 0 6.50375 0 6.84375 0C7.50375 3.96 8.16375 7.92 8.84375 12C7.85375 12 6.86375 12 5.84375 12C5.84375 12.66 5.84375 13.32 5.84375 14C4.19375 14.33 2.54375 14.66 0.84375 15C-0.28125 8.25 -0.28125 8.25 0.84375 6C1.50375 5.34 2.16375 4.68 2.84375 4C3.83375 4 4.82375 4 5.84375 4C5.84375 2.68 5.84375 1.36 5.84375 0Z" sodipodi:nodetypes="cccccccccc"/><path id="shape34" transform="matrix(1.09486409710096 0 0 1.19537968608134 376.828416152725 358.325540625548)" fill="#6b8948" stroke-opacity="0" stroke="#000000" stroke-width="0" stroke-linecap="square" stroke-linejoin="bevel" d="M13 0C11.125 7.625 11.125 7.625 10 11C7.03 10.67 4.06 10.34 1 10C1.66 9.67 2.32 9.34 3 9C2.01 7.35 1.02 5.7 0 4C0.66 4 1.32 4 2 4C2 3.34 2 2.68 2 2C2.66 2.33 3.32 2.66 4 3C3.67 3.66 3.34 4.32 3 5C5.31 4.34 7.62 3.68 10 3C9.67 2.34 9.34 1.68 9 1C11 0 11 0 13 0Z" sodipodi:nodetypes="cccccccccccc"/><path id="shape35" transform="matrix(1.09486409710096 0 0 1.19537968608134 260.772821860023 127.617261211849)" fill="#851839" stroke-opacity="0" stroke="#000000" stroke-width="0" stroke-linecap="square" stroke-linejoin="bevel" d="M5 0C5.43313 0.639375 5.86625 1.27875 6.3125 1.9375C7.91239 4.26746 7.91239 4.26746 11 5C11 7.97 11 10.94 11 14C10.2575 13.1544 9.515 12.3087 8.75 11.4375C7.8425 10.6331 6.935 9.82875 6 9C3.72477 9.04498 3.72477 9.04498 2 10C1.34 7.69 0.68 5.38 0 3C0.639375 2.87625 1.27875 2.7525 1.9375 2.625C2.95844 2.31562 2.95844 2.31562 4 2C4.33 1.34 4.66 0.68 5 0Z" sodipodi:nodetypes="ccccccccccc"/><path id="shape36" transform="matrix(1.09486409710096 0 0 1.19537968608134 187.416927354259 342.78560470649)" fill="#daa352" stroke-opacity="0" stroke="#000000" stroke-width="0" stroke-linecap="square" stroke-linejoin="bevel" d="M0 0C1.91753 0.0603 3.83417 0.149167 5.75 0.25C7.35102 0.319609 7.35102 0.319609 8.98438 0.390625C12.5494 1.11102 13.7975 2.15597 16 5C16 5.66 16 6.32 16 7C12.7 7 9.4 7 6 7C6.66 6.67 7.32 6.34 8 6C7.01 5.67 6.02 5.34 5 5C4.67 4.34 4.34 3.68 4 3C1.9833 1.8665 1.9833 1.8665 0 1C0 0.67 0 0.34 0 0Z" sodipodi:nodetypes="ccccccccccc"/><path id="shape37" transform="matrix(1.09486409710096 0 0 1.19537968608134 30.8513614688215 390.600792149744)" fill="#eaaa4c" stroke-opacity="0" stroke="#000000" stroke-width="0" stroke-linecap="square" stroke-linejoin="bevel" d="M11 0C11.66 0 12.32 0 13 0C12.8511 4.91501 10.2365 7.39649 6.85547 10.6172C5 12 5 12 2.0625 12.4375C1.04156 12.2209 1.04156 12.2209 0 12C1 9 1 9 3 6C3.99 6 4.98 6 6 6C6.33 4.68 6.66 3.36 7 2C7.66 2 8.32 2 9 2C9.66 1.34 10.32 0.68 11 0Z" sodipodi:nodetypes="cccccccccc"/><path id="shape38" transform="matrix(1.09486409710096 0 0 1.19537968608134 157.855596732533 343.980984392572)" fill="#dea653" stroke-opacity="0" stroke="#000000" stroke-width="0" stroke-linecap="square" stroke-linejoin="bevel" d="M0 0C6.41991 0.570659 12.0159 2.67345 18 5C18 5.33 18 5.66 18 6C15.5613 6.10799 13.1274 6.18727 10.6875 6.25C9.99721 6.28352 9.30691 6.31703 8.5957 6.35156C3.47198 6.45057 3.47198 6.45057 1.01953 4.10938C0 2 0 2 0 0Z" sodipodi:nodetypes="ccccccc"/><path id="shape39" transform="matrix(1.09486409710096 0 0 1.19537968608134 339.603036851292 268.672064169447)" fill="#59733e" stroke-opacity="0" stroke="#000000" stroke-width="0" stroke-linecap="square" stroke-linejoin="bevel" d="M6 0C6.33 0 6.66 0 7 0C7.2362 6.40353 6.82332 11.8463 5 18C3.35 18.33 1.7 18.66 0 19C0.350625 18.2987 0.70125 17.5975 1.0625 16.875C2.26228 13.9985 2.26228 13.9985 1.375 10.9375C1.25125 9.96813 1.1275 8.99875 1 8C2.875 5.875 2.875 5.875 5 4C5.78727 1.8618 5.78727 1.8618 6 0Z" sodipodi:nodetypes="ccccccccc"/><path id="shape40" transform="matrix(1.09486409710096 0 0 1.19537968608134 225.737170752793 341.510848257866)" fill="#e4a84f" stroke-opacity="0" stroke="#000000" stroke-width="0" stroke-linecap="square" stroke-linejoin="bevel" d="M12 0.066403C12 0.726403 12 1.3864 12 2.0664C11.01 2.5614 11.01 2.5614 10 3.0664C10.33 4.3864 10.66 5.7064 11 7.0664C8.69 7.0664 6.38 7.0664 4 7.0664C3.67 6.0764 3.34 5.0864 3 4.0664C1.50014 2.3993 1.50014 2.3993 0 1.0664C3.98138 -0.260723 7.85045 -0.00275603 12 0.066403Z" sodipodi:nodetypes="cccccccc"/><path id="shape41" transform="matrix(1.09486409710096 0 0 1.19537968608134 329.749259977384 309.314973496212)" fill="#e9a849" stroke-opacity="0" stroke="#000000" stroke-width="0" stroke-linecap="square" stroke-linejoin="bevel" d="M7 0C7 0.99 7 1.98 7 3C7.33 3 7.66 3 8 3C8 4.65 8 6.3 8 8C6.03534 9.06775 4.03145 10.0655 2 11C1.34 10.67 0.68 10.34 0 10C0 5.70613 0.602846 4.41133 3 1C5 0 5 0 7 0Z" sodipodi:nodetypes="cccccccc"/><path id="shape42" transform="matrix(1.09486409710096 0 0 1.19537968608134 255.298501374518 168.260170538614)" fill="#86193a" stroke-opacity="0" stroke="#000000" stroke-width="0" stroke-linecap="square" stroke-linejoin="bevel" d="M5 0C5.99 0.33 6.98 0.66 8 1C7.34 1.66 6.68 2.32 6 3C6.39188 3.84563 6.78375 4.69125 7.1875 5.5625C8.28031 10.1859 7.15115 11.8632 5 16C3 12.25 3 12.25 3 10C2.01 10 1.02 10 0 10C0 9.34 0 8.68 0 8C0.45375 7.56688 0.9075 7.13375 1.375 6.6875C3.34309 4.64371 4.06727 2.6547 5 0Z" sodipodi:nodetypes="cccccccccc"/><path id="shape43" transform="matrix(1.09486409710096 0 0 1.19537968608134 118.440489117148 336.673000330276)" fill="#efbb6a" stroke-opacity="0" stroke="#000000" stroke-width="0" stroke-linecap="square" stroke-linejoin="bevel" d="M2.94946 0C3.78212 0.005237 4.61477 0.010474 5.47266 0.015869C6.37178 0.019092 7.2709 0.022314 8.19727 0.025635C9.61556 0.038203 9.61556 0.038203 11.0625 0.051025C12.0119 0.055537 12.9613 0.060049 13.9395 0.064697C16.293 0.076524 18.6465 0.093005 21 0.113525C21 0.443525 21 0.773525 21 1.11353C16.38 1.44353 11.76 1.77353 7 2.11353C6.67 3.43352 6.34 4.75352 6 6.11353C5.01 6.44353 4.02 6.77353 3 7.11353C2.34 6.78353 1.68 6.45352 1 6.11353C0.3125 3.61353 0.3125 3.61353 0 1.11353C1 0.113525 1 0.113525 2.94946 0Z" sodipodi:nodetypes="ccccccccccccc"/><path id="shape44" transform="matrix(1.09486409710096 0 0 1.19537968608134 179.752878674552 18.8377097784465)" fill="#891e3d" stroke-opacity="0" stroke="#000000" stroke-width="0" stroke-linecap="square" stroke-linejoin="bevel" d="M12 0C12.66 0.33 13.32 0.66 14 1C12.515 1.86625 12.515 1.86625 11 2.75C10.01 3.4925 9.02 4.235 8 5C8 6.32 8 7.64 8 9C5.50935 9.68708 3.62114 10 1 10C0.67 8.68 0.34 7.36 0 6C1.95331 4.96959 3.91282 3.95091 5.875 2.9375C6.96555 2.36902 8.05609 1.80055 9.17969 1.21484C10.5757 0.613496 10.5757 0.613496 12 0Z" sodipodi:nodetypes="cccccccccc"/><path id="shape45" transform="matrix(1.09486409710096 0 0 1.19537968608134 229.021763044096 40.3545441279107)" fill="#ddd6d6" stroke-opacity="0" stroke="#000000" stroke-width="0" stroke-linecap="square" stroke-linejoin="bevel" d="M6 0C8.45665 2.45665 8.68588 4.44387 9.03125 7.83594C8.9796 11.4124 7.74428 13.9325 6 17C3.8125 18.9375 3.8125 18.9375 2 20C1.34 19.67 0.68 19.34 0 19C0 18.34 0 17.68 0 17C1.65003 15.6461 3.31744 14.3132 5 13C6.48337 10.0333 6.05659 7.28247 6 4C6 2.68 6 1.36 6 0Z" sodipodi:nodetypes="ccccccccc"/><path id="shape46" transform="matrix(1.09486409710096 0 0 1.19537968608134 209.314209296278 346.290724706054)" fill="#deab5f" stroke-opacity="0" stroke="#000000" stroke-width="0" stroke-linecap="square" stroke-linejoin="bevel" d="M0 0.0677768C5.80222 -0.294862 9.63999 0.810932 15 3.06778C15 3.39778 15 3.72778 15 4.06778C10.38 4.06778 5.76 4.06778 1 4.06778C0.67 2.74778 0.34 1.42778 0 0.0677768Z" sodipodi:nodetypes="ccccc"/><path id="shape47" transform="matrix(1.09486409710096 0 0 1.19537968608134 294.713608870153 330.831807845677)" fill="#f6c168" stroke-opacity="0" stroke="#000000" stroke-width="0" stroke-linecap="square" stroke-linejoin="bevel" d="M0 0C0.66 0 1.32 0 2 0C2 0.66 2 1.32 2 2C2.80438 2 3.60875 2 4.4375 2C5.625 2 6.8125 2 8 2C8.5775 1.64938 9.155 1.29875 9.75 0.9375C12.5634 -0.23477 14.1144 0.198456 17 1C14.1555 3.31777 11.5112 4.89119 8 6C7.34 5.67 6.68 5.34 6 5C6 4.34 6 3.68 6 3C5.34 3 4.68 3 4 3C4 3.66 4 4.32 4 5C3.01 4.67 2.02 4.34 1 4C0.3125 1.9375 0.3125 1.9375 0 0Z" sodipodi:nodetypes="cccccccccccccc"/><path id="shape48" transform="matrix(1.09486409710096 0 0 1.19537968608134 322.085211297677 311.705732868375)" fill="#f4b95c" stroke-opacity="0" stroke="#000000" stroke-width="0" stroke-linecap="square" stroke-linejoin="bevel" d="M8 0C8.33 0.66 8.66 1.32 9 2C8.67 2.61875 8.34 3.2375 8 3.875C6.80468 6.41506 7.077 7.41559 8 10C7.34 10 6.68 10 6 10C6 9.34 6 8.68 6 8C5.01 8.33 4.02 8.66 3 9C3 8.34 3 7.68 3 7C2.34 6.67 1.68 6.34 1 6C0.67 5.34 0.34 4.68 0 4C2.64 2.68 5.28 1.36 8 0Z" sodipodi:nodetypes="ccccccccccc"/><path id="shape49" transform="matrix(1.09486409710096 0 0 1.19537968608134 216.978257975985 26.0099878949346)" fill="#8f2a47" stroke-opacity="0" stroke="#000000" stroke-width="0" stroke-linecap="square" stroke-linejoin="bevel" d="M3 0C4.65 0.33 6.3 0.66 8 1C7.34 2.65 6.68 4.3 6 6C7.65 6 9.3 6 11 6C11 6.33 11 6.66 11 7C7.37 7.33 3.74 7.66 0 8C0.33 6.02 0.66 4.04 1 2C1.66 2 2.32 2 3 2C3 1.34 3 0.68 3 0Z" sodipodi:nodetypes="ccccccccc"/><path id="shape50" transform="matrix(1.09486409710096 0 0 1.19537968608134 116.250761042696 351.15326250906)" fill="#f5ba5d" stroke-opacity="0" stroke="#000000" stroke-width="0" stroke-linecap="square" stroke-linejoin="bevel" d="M2 0C4.475 0.99 4.475 0.99 7 2C6.3125 4.375 6.3125 4.375 5 7C2.375 8.3125 2.375 8.3125 0 9C0 5.20442 0.501789 3.37097 2 0Z" sodipodi:nodetypes="ccccc"/><path id="shape51" transform="matrix(1.09486409710096 0 0 1.19537968608134 255.298501374519 42.7453035000734)" fill="#d59b4f" stroke-opacity="0" stroke="#000000" stroke-width="0" stroke-linecap="square" stroke-linejoin="bevel" d="M0 0C1.26844 0.495 1.26844 0.495 2.5625 1C6.20989 2.06106 9.22275 2.15109 13 2C11 4 9 6 7 8C3.70852 6.86501 3.00401 6.00717 1.25 2.875C0.8375 1.92625 0.425 0.9775 0 0Z" sodipodi:nodetypes="cccccc"/>
</svg>
