<?xml version="1.0" encoding="UTF-8"?>
<svg id="Layer_1" xmlns="http://www.w3.org/2000/svg" version="1.1" viewBox="0 0 1024 1536">
  <!-- Generator: Adobe Illustrator 29.5.1, SVG Export Plug-In . SVG Version: 2.1.0 Build 141)  -->
  <defs>
    <style>
      .st0 {
        fill: #1a0201;
      }

      .st1 {
        fill: #360702;
      }

      .st2 {
        fill: #0c0302;
      }

      .st3 {
        fill: #170402;
      }

      .st4 {
        fill: #530902;
      }

      .st5 {
        fill: #2d0401;
      }

      .st6 {
        fill: #200302;
      }

      .st7 {
        fill: #1f0401;
      }

      .st8 {
        fill: #650c03;
      }

      .st9 {
        fill: #120201;
      }

      .st10 {
        fill: #230402;
      }

      .st11 {
        fill: #5c0903;
      }

      .st12 {
        fill: #140301;
      }

      .st13 {
        fill: #2b0503;
      }

      .st14 {
        fill: #b81f0a;
      }

      .st15 {
        fill: #cb210b;
      }

      .st16 {
        fill: #970f03;
      }

      .st17 {
        fill: #1a0403;
      }

      .st18 {
        fill: #180302;
      }

      .st19 {
        fill: #4f0602;
      }

      .st20 {
        fill: #0e0201;
      }

      .st21 {
        fill: #720c04;
      }

      .st22 {
        fill: #0c0101;
      }

      .st23 {
        fill: #250401;
      }

      .st24 {
        fill: #180201;
      }

      .st25 {
        fill: #240503;
      }

      .st26 {
        fill: #b5230f;
      }

      .st27 {
        fill: #090202;
      }

      .st28 {
        fill: #bb1d09;
      }

      .st29 {
        fill: #0a0604;
      }

      .st30 {
        fill: #0a0201;
      }

      .st31 {
        fill: #240401;
      }

      .st32 {
        fill: #db210a;
      }

      .st33 {
        fill: #0f0202;
      }

      .st34 {
        fill: #1a0402;
      }

      .st35 {
        fill: #470804;
      }

      .st36 {
        fill: #130302;
      }

      .st37 {
        fill: #830f04;
      }

      .st38 {
        fill: #de230b;
      }

      .st39 {
        fill: #bc1e09;
      }

      .st40 {
        fill: #300503;
      }

      .st41 {
        fill: #d9220d;
      }

      .st42 {
        fill: #540903;
      }

      .st43 {
        fill: #340602;
      }

      .st44 {
        fill: #0f0101;
      }

      .st45 {
        fill: #dd210a;
      }

      .st46 {
        fill: #430603;
      }

      .st47 {
        fill: #150202;
      }

      .st48 {
        fill: #280603;
      }

      .st49 {
        fill: #070101;
      }

      .st50 {
        fill: #370502;
      }

      .st51 {
        fill: #110201;
      }

      .st52 {
        fill: #5a0702;
      }

      .st53 {
        fill: #1d0403;
      }

      .st54 {
        fill: #bb1f0a;
      }

      .st55 {
        fill: #240402;
      }

      .st56 {
        fill: #260401;
      }

      .st57 {
        fill: #230401;
      }

      .st58 {
        fill: #140303;
      }

      .st59 {
        fill: #be1f0a;
      }

      .st60 {
        fill: #170201;
      }

      .st61 {
        fill: #230201;
      }

      .st62 {
        fill: #f1521a;
      }

      .st63 {
        fill: #370804;
      }

      .st64 {
        fill: #0a0303;
      }

      .st65 {
        fill: #bc1f0a;
      }

      .st66 {
        fill: #510802;
      }

      .st67 {
        fill: #120606;
      }

      .st68 {
        fill: #1f0402;
      }

      .st69 {
        fill: #440804;
      }

      .st70 {
        fill: #1e0403;
      }

      .st71 {
        fill: #060202;
      }

      .st72 {
        fill: #780b03;
      }

      .st73 {
        fill: #1e0402;
      }

      .st74 {
        fill: #070202;
      }

      .st75 {
        fill: #050202;
      }

      .st76 {
        fill: #bb1f09;
      }

      .st77 {
        fill: #c9200a;
      }

      .st78 {
        fill: #070201;
      }

      .st79 {
        fill: #0a0302;
      }

      .st80 {
        fill: #3b0704;
      }

      .st81 {
        fill: #2b0402;
      }

      .st82 {
        fill: #810b02;
      }

      .st83 {
        fill: #0f0201;
      }

      .st84 {
        fill: #210401;
      }

      .st85 {
        fill: #170301;
      }

      .st86 {
        fill: #150301;
      }

      .st87 {
        fill: #b71e09;
      }

      .st88 {
        fill: #2e0603;
      }

      .st89 {
        fill: #d6210b;
      }

      .st90 {
        fill: #180303;
      }

      .st91 {
        fill: #b71c08;
      }

      .st92 {
        fill: #190403;
      }

      .st93 {
        fill: #8e0e02;
      }

      .st94 {
        fill: #080201;
      }

      .st95 {
        fill: #b51e0a;
      }

      .st96 {
        fill: #b51a07;
      }

      .st97 {
        fill: #1e0302;
      }

      .st98 {
        fill: #ed4115;
      }

      .st99 {
        fill: #df250d;
      }

      .st100 {
        fill: #160302;
      }

      .st101 {
        fill: #330402;
      }

      .st102 {
        fill: #610701;
      }

      .st103 {
        fill: #2d0703;
      }

      .st104 {
        fill: #0c0201;
      }

      .st105 {
        fill: #dc240d;
      }

      .st106 {
        fill: #360602;
      }

      .st107 {
        fill: #4a0702;
      }

      .st108 {
        fill: #480603;
      }

      .st109 {
        fill: #f2541b;
      }

      .st110 {
        fill: #dd230a;
      }

      .st111 {
        fill: #2b0502;
      }

      .st112 {
        fill: #210301;
      }

      .st113 {
        fill: #300603;
      }

      .st114 {
        fill: #530803;
      }

      .st115 {
        fill: #470703;
      }

      .st116 {
        fill: #0b0202;
      }

      .st117 {
        fill: #750d05;
      }

      .st118 {
        fill: #1c0302;
      }

      .st119 {
        fill: #ef4c17;
      }

      .st120 {
        fill: #d8220c;
      }

      .st121 {
        fill: #0b0201;
      }

      .st122 {
        fill: #130202;
      }

      .st123 {
        fill: #5e0802;
      }

      .st124 {
        fill: #320603;
      }

      .st125 {
        fill: #220302;
      }

      .st126 {
        fill: #140201;
      }

      .st127 {
        fill: #c01f0a;
      }

      .st128 {
        fill: #140302;
      }

      .st129 {
        fill: #510b03;
      }

      .st130 {
        fill: #030201;
      }

      .st131 {
        fill: #370501;
      }

      .st132 {
        fill: #250503;
      }

      .st133 {
        fill: #130201;
      }

      .st134 {
        fill: #140101;
      }

      .st135 {
        fill: #170302;
      }

      .st136 {
        fill: #bd1d09;
      }

      .st137 {
        fill: #650a03;
      }

      .st138 {
        fill: #190302;
      }

      .st139 {
        fill: #640802;
      }

      .st140 {
        fill: #530702;
      }

      .st141 {
        fill: #180402;
      }

      .st142 {
        fill: #0a0202;
      }

      .st143 {
        fill: #120302;
      }

      .st144 {
        fill: #dc210a;
      }

      .st145 {
        fill: #2a0502;
      }

      .st146 {
        fill: #2d0502;
      }

      .st147 {
        fill: #260502;
      }

      .st148 {
        fill: #310603;
      }

      .st149 {
        fill: #180301;
      }

      .st150 {
        fill: #410703;
      }

      .st151 {
        fill: #650702;
      }

      .st152 {
        fill: #1b0403;
      }

      .st153 {
        fill: #d4220e;
      }

      .st154 {
        fill: #d4240d;
      }

      .st155 {
        fill: #3b0501;
      }

      .st156 {
        fill: #c1220d;
      }

      .st157 {
        fill: #0d0201;
      }

      .st158 {
        fill: #dd220a;
      }

      .st159 {
        fill: #080202;
      }

      .st160 {
        fill: #0c0202;
      }

      .st161 {
        fill: #730801;
      }

      .st162 {
        fill: #160301;
      }

      .st163 {
        fill: #000100;
      }

      .st164 {
        fill: #0e0302;
      }

      .st165 {
        fill: #100201;
      }

      .st166 {
        fill: #110202;
      }

      .st167 {
        fill: #5f0802;
      }

      .st168 {
        fill: #1f0301;
      }

      .st169 {
        fill: #020101;
      }

      .st170 {
        fill: #150302;
      }

      .st171 {
        fill: #c31f0a;
      }

      .st172 {
        fill: #100302;
      }

      .st173 {
        fill: #0a0101;
      }

      .st174 {
        fill: #9e1407;
      }

      .st175 {
        fill: #110403;
      }

      .st176 {
        fill: #ad1d0a;
      }

      .st177 {
        fill: #280402;
      }

      .st178 {
        fill: #920f02;
      }

      .st179 {
        fill: #610a04;
      }

      .st180 {
        fill: #4c0a03;
      }

      .st181 {
        fill: #380502;
      }

      .st182 {
        fill: #360603;
      }

      .st183 {
        fill: #0d0202;
      }

      .st184 {
        fill: #bf1e0a;
      }

      .st185 {
        fill: #760e07;
      }

      .st186 {
        fill: #ef4b17;
      }

      .st187 {
        fill: #350401;
      }

      .st188 {
        fill: #db230c;
      }

      .st189 {
        fill: #120d09;
      }

      .st190 {
        fill: #bb1e0a;
      }

      .st191 {
        fill: #110301;
      }

      .st192 {
        fill: #270505;
      }

      .st193 {
        fill: #1f0502;
      }

      .st194 {
        fill: #1a0302;
      }

      .st195 {
        fill: #1a0301;
      }

      .st196 {
        fill: #b31c08;
      }

      .st197 {
        fill: #160201;
      }

      .st198 {
        fill: #200603;
      }

      .st199 {
        fill: #090201;
      }

      .st200 {
        fill: #e73b12;
      }

      .st201 {
        fill: #0f0302;
      }

      .st202 {
        fill: #dd240c;
      }

      .st203 {
        fill: #280502;
      }

      .st204 {
        fill: #070303;
      }

      .st205 {
        fill: #290502;
      }

      .st206 {
        fill: #ee4917;
      }

      .st207 {
        fill: #bd1f0a;
      }

      .st208 {
        fill: #790c02;
      }

      .st209 {
        fill: #210403;
      }

      .st210 {
        fill: #c1200b;
      }

      .st211 {
        fill: #ed4516;
      }

      .st212 {
        fill: #0e0202;
      }

      .st213 {
        fill: #030202;
      }

      .st214 {
        fill: #590b04;
      }

      .st215 {
        fill: #2c0502;
      }

      .st216 {
        fill: #100202;
      }
    </style>
  </defs>
  <path class="st163" d="M821.99,690c-3.1-2.34-.9,2.52-.91,3.51-.34,45.07,2.26,90.75,3.96,135.95,5.35,141.79,12.36,283.28,18.92,425.08.55,11.89,3.58,28.64,2.09,40.01-.65,5.01-7.93,8.11-12.27,9.73-34.54,12.9-91.33,13.2-129.28,16.72-34.36,3.19-68.45,7.68-102.97,9.04-78.48,3.1-153.03-1.73-231.05-8.04-54.56-4.41-115.45-7.9-168.68-20.32-8.42-1.97-29.82-6.4-29.82-17.18,0-8.94,2.41-20.67,3-30.02,10.79-171.06,18.98-342.57,25.05-513.95.6-16.84-.73-33.82,1.95-50.54-8.48,10.04-15.39,25.02-31.05,22.55-9.75-1.54-25.98-12.69-34.86-18.13-32.21-19.75-102.73-66.41-121.28-97.72-6.09-10.28-2.15-13.12,2.34-23.06,31.18-68.92,77.12-145.19,117.44-209.56,8.1-12.93,17.59-29.56,26.58-41.42,7.33-9.66,18.71-14.97,29.16-20.84,42.62-23.95,88.47-41.34,133.95-59.05,2.46-1.59,3.17-4.79,5.18-6.82,3.07-3.1,34.48-16.39,39.35-16.73,9.05-.62,28.92,13.33,38.92,17.53,57.27,24.02,143.22,24.27,199.94-1.59,6.29-2.87,28.37-17.06,32.65-16.92s23.09,12.15,28.99,14.92c8.42,3.95,7.14,2.15,14.64,8.36,13.55,11.23,68.37,27.4,88.72,36.28,28.15,12.28,60.33,27.88,87,43,1.76,1,3.94,2.22,5.18,3.82,6.13,7.93,12.59,23.23,17.62,32.38,41.78,75.96,82.15,152.67,124.91,228.09,4.18,9.81,1.43,12.56-4.42,20.37-19.83,26.48-70.15,57.32-98.84,76.16-9.95,6.53-46.07,31.44-54.86,33.13-13.43,2.59-19.55-12.12-26.14-21.43-.74-1.04-1.01-3.22-1.15-3.33Z"/>
  <path class="st29" d="M836.5,1329.01l.28,2.82"/>
  <path class="st189" d="M810,1327.01"/>
  <path class="st32" d="M224,301c27.82-13.28,56.36-24.38,84.36-37.14,2.64-1.21,19.81-10.66,20.64-9.86,4.89,50.25,29.03,105.17,72.7,132.82,81.74,51.75,185.28,39.58,245.28-38.34,20.24-26.28,25.47-45.73,35.03-76.47,1.32-5.4,5.97-4.23,6,0,1.11.44,1.09.88.8,1.73-3.32,9.87-11.88,37.03-3.06,9.9l2.26-.63c3.83-7.54,10.87,2.41,4,5,.06,3.15-.69,6.29-2.26,9.4.49-.82,1.27-1.25,2.26-1.4,3.55-4.21,16.04-2.53,8,2l.99,1.16c-2.04,3.68-1.71,4.29,1.01,1.84-.27-1.67,2.96-13.27,4.05-14.26,2.3-2.1,6.41.94,6.95,3.26,4.59,2.14,4.92,1.48,1-2-3.34-.25-5.85-1.29-7.53-3.12l-3.93-13.91c-4.13-2-3.22-5.7,1.46-3.97,42.56,18.42,86.31,32.22,127.88,53.62,2.5,1.29,14.79,7.34,15.07,8.99-4.21,6.02-9.35,11.3-13.37,17.47-19.87,30.52-23.87,67.87-33.58,101.92-2.57,12.77-4.77,25.59-6.59,38.47l-2.26,4.77c.01,5.62-.08,10.12-5.32,13.55l-1.81,18.52c1.7,3.27,3.01,6.03-.65,8.56,1.67,4.64.57,9.44-3.3,14.39,6.64,10.44,3.99,26.28,1.19,37.95.67,2.93.92,5.53.75,7.79l.78,1.25c-1.89,2.9-1.82,3.82.22,2.75,3.18-.88,3.76,2.91,2,5,.61.45,1.03,1.03.76,1.67-1.33,3.1-4.66,7.83-6.76,10.33,3.63,1.42,4.97,2.75,4,4,.57.33,1,.61.97.71-3.55,9.07-8.55,12.35-2.32,4.28.17-.21.71-.14,1.35.02,3.69-1.87,3.08,3.08,2,6-.06,3-2.34,9.57-5,11,.11,2.78.78,5.44,2,8,2.17,1.83-1.24,7.3-4,7,.91,1.85-.03,2.39-1.51,3.07,2.76.12,4.04,1.57,4.68,4.16.75,3.07-2.4,15.45-6.17,15.77-1.15,1.85-1.15,2.85,0,3,4.13,2.49,7.14,11.59,2.11,15.34,2.2,1.27,2.04,3.28.93,5.35,2.68-.15,5.04.2,3.97,3.31,1.45,2.52-1.13,6.35-4,6-1.23,2.7-.05,4.69,2.75,2.89.97,2.76.72,5.79-.75,9.11,1.93,1.71-.93,5.29-3,5,1.4,4.68,3.09,12.46.46,18.23.29,5.92,1.58,11.69,3.88,17.32l-1.33,3.45c-.86,1.85-.5,3.73,1.07,5.64,3.86-2.88,5.84-2.76,5.93.36,1.92,2.24-1.38,7.07-3,9,3.81,3.92,2.53,8.6.13,13.09l1.82,5.32c2.6.25,2.1,1.46,1.05,3.59-2.05,5.81-3.41,11.06-.3,17.75-1.49,3.12-1.7,5.9-.62,8.37l-1.08,3.88c.95.99.09,1.49-1,2,2.06.76,2.43,2.81,1.09,6.15l1.77,2.11c-.09,6.59-.24,13.27-.44,20.03,2.34-.15,3.5.28,2.59,2.7-.92,1.35-1.66,4.43-3,5.99,1.34,1.27,5.12-3.96,6-4.99,2.27-1.86,3.98.94,2,3,.47,2.78-5.13,10.6-8,11,.23,2.31.88,3.92,2.05,5.94-.84,3.3-.85,6.32-.05,9.06,1.75,1,.99,2.45-1,2-1.06,4.27-.41,8.85,1.95,13.73l.72,16.59c2.36-.28,2.8,1.28,1.33,4.68,1.19,1.34,1,2.76-.58,4.26,3.51-.58,7.74.16,4.58,3.74.98,1.55-.21,3.05-2,3-2.49,8.86-.64,14.72,5.56,17.57l-.56,2.43c-.95,1.29-4.38,6.56-4.79,7.71-.51,1.42-.73,2.69,1.28,2.28l17.02-20.99c2.39-1.19,1.61,6.47,1.44,7.44-.92,5.17-20.97,24.56-17.94,27.55,1.17,1.16,2.42-.34,3.3-1.23,5.5-5.59,9.41-15.01,15.2-20.76.65,2.34.87,6.18.55,8.55-.65,4.81-14.56,17.16-17.91,23.08-2.62,4.62-.69,6.9,3.37,2.38,4.59-5.11,7.95-12.83,12.51-17.49.95-.97,1.3-1.9,2.97-1.52,3.28,13.72-14.62,19.47-17.98,30.51-.48,1.57.16,1.59,1.51,1.51,6.63-.37,10.73-13.75,14.99-18.03,3.72,11.17-5.08,15.3-10.92,23.08-2.41,3.21-4.66,6.87-6.6,10.4.95,1.46,2.48.35,3.47-.53,2.42-2.15,8.83-10.11,10.98-13.02.95-1.29,3.87-9.7,4.56-4.46,1.43,10.87-4.25,11.09-9.97,18.05-1.97,2.39-3.36,4.93-5.03,7.47l.86,2.24c-3.64,1.69-.94,8.18,2.23,5.48l1.91,1.28c-.86,3.17-3.5,5.5-5,8,.33,6.44.92,14.48,2.89,21.5l-1.19,2.79c2.51,1.4,5.05,5.6,2.3,7.71-1.34,2.63-1.12,5.42.66,8.37l-.59,7.15c1.64,2.23,1.95,4.39.93,6.48-.32.63-2.25,6.14.49,4.99l13.5-13.99c1.86,9.35-7.81,14.65-12.02,22.47-.67,1.24-2.97,4.97-.45,5.53,3.98.88,8.8-10.68,11.19-13.73.64-.81-.03-1.84,2.28-1.26,1.88,8.28-3.72,9.92-7.83,15.67-1.03,1.44-6.26,9.27-5.16,10.32,2.62.6,3.05-.94,4.54-2.42,2.65-2.63,4.93-6.16,7.37-8.93.89-1.01,1.98-1.06,2.09-.14,3.39,13.95-13.22,20.14-15,32.49l8.99-8.5,5.01-9.5c7.13,8.2-5.16,15.28-9.42,22.08-1.43,2.28-5.95,9.13-1.58,9.43l11.01-16.51,1.98.49c2.28,8.11-10.41,17.26-14,23.5.75,4.69-.93,12.31-7,12-2.45,4.58-2.12,5.58,1,3,2.24-5.98,8.97-7.55,4.54-.12.31.44.54.87.53,1.3-.08,3.26-.03,3.56,2.92,5.25.67.38.41,1.66.01,2.57-2.03,2.59-4.1,5.32-6,8,1.31,1.71,1.12,2.14-.37,3.39,2.81,2.7-1.15,8.38-3.13,11.14-2.13,2.97-7.39,8.9-10.5,7.47-1.53,1.34-5.39,5.78-5.77,5.98-5.32,2.83-18.08,2.77-24.23,3.01,3.8-6.42,14.9-11.14,18.52-16.97.85-1.37.99-2.37-1-2l-22.28,18.73-14.24,1.25,9.99-8.5c.26-1.48,0-1.78-1.5-1.5-3.1.57-10.44,9.49-13.17,9.86-1.25.17-2.48-1.96-4.73-1.88-2.73.1-4.48,3.67-7.58,3.03l10.98-10.51,1.52-4.48c-4.66,2.44-12.86,13.8-16.52,15.48s-9.84-.5-13.97,1.52c-.38-1.67.53-2.03,1.51-2.98,9.24-8.97,27.93-21.21,35.03-30.97.99-1.36,1.87-2.08,1.44-4.05l-7.19,5.06-35.75,33.49c-133.13,8.61-267.4,8.62-400.54.44l-95.51-10.99c1.31-1.79,2.26-2.17,2.86-1.14-1.16-4.65-2.31-12.23,1.14-15.86,2.73-3.59,2.73-4.59,0-3-.38-12.72-.32-25.43.17-38.14,12.44-210.41,23.74-425.13,26.09-633.19l-1.74-1.38c.79-29.33-2.3-58.84-7.23-88.35l-4.14-38.07c-2.75-19.41-5.94-40.15-19.2-54.37.92-6.74-1.37-16.28-4.41-22.5-7.05-4.19-8.23-19.55,1.7-20.76l7.53-8.07c8.47-2.21,13.88-5.93,16.23-11.17Z"/>
  <path class="st45" d="M209,1245c25.26,3.37,50.62,6.71,76,9.01,1.45,1.23-8.87,10.26-9.97,11.48-.84.94-7.73,8.88-7.02,9.51,2.02.43,2.67-.44,4.04-1.45,1.48-1.09,7.37-6.23,8.51-7.49,2.23-2.47,4.67-9.25,7.46-10.54,4.08-1.88,9.48,1.41,13.99.49.38,1.67-.53,2.03-1.51,2.98-4.84,4.7-10.56,8.77-15,14-.78.92-5.24,6.32-4.48,7.01,1.03.93,3.1-.76,4.04-1.45,4.24-3.13,10.25-8.82,14.48-12.52,1.88-1.64,6.36-7.61,7.17-8.08,2.55-1.51,11.68-1.41,9.82,1.06-3.02,1-3.81,3.79-5.52,5.49-3.89,3.88-14.66,12.08-16.99,16.22-.76,1.35-1.2,2.71-1,4.28,1.73,1.85,18.67-14.97,20.51-16.98,3.08-3.37,4.73-9.47,9.93-10.06,20.34.8,40.7,3.24,61.01,4.09,69.87,2.93,139.36,1.09,209.05-1.03,3.23-.1,11.62-.6,13.92.94.99.66.68.98.54,2.02-8.05,4.58-14.12,11.49-21.04,17.46-1.9,1.64-5.24,2.61-7.42,4.57-1.2,1.08-8.54,9.95-7.5,10.99,4.62-.49,7.21-5.23,10.52-7.97,10.1-8.34,23.69-16.04,29.08-28.09,37.16-1.25,74.43-3.84,111.39-7.93.57,2.3-.43,1.64-1.26,2.28-3.75,2.9-11.99,7.39-11.24,12.7l16.55-14.45c.79-.68,1.68-1.05,2.68-1.32,4.69-1.29,33.65-3.28,37.63-2.23,1.05.28.3,2.34,1.14,2.01,3.72-3.91,8.36-4.48,13.51-3.99-5.39,7.52-13.29,11.14-18,18.99,0,1.66.33,1.99,1,1,3.82-3.81,9.17-6.96,12.59-11,1.15-1.35.68-2.71,1.79-4.01,6.49-7.57,13.99-7.79,23.61-7.99l6.67-.94c1.54,4.22-.37,4.29-3.67,3.94l.11,1.44c-8.56,8.22-17.66,15.85-27.27,22.88l2.16.68c.66-.4,1.48-.85,2.23-.66,3.87.94-5.96,9.82-7.42,10.45,3.65.68,5.71,2.09,6.19,4.21-10.77,1.43-21.7,3.92-32.52,4.98-8.48.83-17.95-.32-26.48,2.01-.38-1.66.53-2.03,1.51-2.98,9.85-9.59,23.61-19.08,34.01-28.99,1.4-1.33,4.74-3.46,1.96-5.02-13.95,12.07-28.18,23.71-41.5,36.48-4.5.3-9.01,1.16-13.47,1.59-15.68,1.54-32.02.36-48.05.88-78.57,2.57-157.22,6.73-235.97,2.05-71.36-4.24-143.87-5.93-214.49-17.01-2.21-.73-3.22-2.69-3.04-5.87l2.9-28.87,2.14-1.26Z"/>
  <path class="st144" d="M847,348c1.81-1.18,2.92.07,3.3,3.76l.7,2.24c1.88,1.31,1.27,2.2-1,2-.21,4.01-.03,7.88.54,11.61l.46,1.39c.38,1.14,1.71,1.47,4,1,1.41-1.33,1.92-.77,1,1,.29,4.14.85,4.53,1.66,1.17l2.34-.17c2.37-.88,2.7.12,1,3-.11,2.01.89,2.34,3,1,2.63-2.77,6.1,1.44,3,4-.2,3.52.47,4.85,2,4,3.67-.67,10.45,7.62,4,8-.28,3.08.39,3.75,2,2,2.48,1.37,3.48,4.04,3,8l.83,1.08c-5.1,7.12-9.62,14.58-13.57,22.37,4.26-5.84,8.08-11.98,11.46-18.42l2.28-.02c3.52-3.19,4.03,1.09,1,4l.77,2.12c-4.73,6.34-9.59,13.03-13.29,20-1.14,2.14,13.37-19.04,13.02-19.12h2.5c3.29-5.13,9.2.23,5.81,4.61-1.49-1.68-3.13-.34-3.81,1.38l.9,1c-9.14,15.92-9.9,17.65-2.26,5.19l2.36-.2c3.42-5.44,6.37,2.04,3,5-.06,1.4.94,1.73,3,1,3.16-4.07,8.32,2.76,4,6l.89,1.01c-11.92,19.93-12.67,21.65-2.24,5.17l2.34-.18c3.26-.98,3.84,4.72,2,7,.6.72,1.94,1.06,4,1,2.79-1.81,7.32,4.06,4,6,1.36,2.6-6.67,10.62-3.45,7.05l2.45-.05c4.38-4.82,5.27.16,4,4l.76,1.13c-9.41,11.42-15.74,23.64-1.06,2.69l2.3.18,2.15-1.64c.49.06,2.97,7.75,2.85,8.64.11,2.95-1.81,5.8-5.76,8.56,2.62-3.49,5.2-5.01,7.76-4.56,1.59-4.52,7.13-3.42,4,1-.17,1.37.83,1.71,3,1,2.68-3.91,5-1.01,2.66,2.55,1.71,2.56,1.77,5.19-1.66,5.45,1.72,1.18.85,2.51-.26,3.93l2.26.07c3.24-5.36,9.41,3.25,4,5,.73,1.28.18,2.9-1.65,4.89l-12.98,14.7,12.26-13.66,2.37.08c2.07-3.82,8.56,2.5,5,5l.78,1.11c-12.16,17.12-13.19,19-3.09,5.67l2.31.22c3.7-2.59,5.69,2.87,3,6-2.2,2.48-16.24,16.55-13.99,19,1.75.35,2.47-.9,3.51-1.98,2.91-3.02,7.41-7.84,10-11,1.79-2.19,8.19-13.44,9.97-13.01l20.41,36.6c2.82,6.58.63,4.4-2.82,6.95-2.32,1.72-14.25,12.06-16.07,10.44,1.13-4.29,5.03-7.49,7.39-11.1.83-1.27.95-2.96,1.75-4.25.26-.42,8.48-10.22,3.37-7.63-.52.26-6.02,7.79-6.91,9.1-2.39,3.52-6.49,12.95-8.91,15.59-1.72,1.87-5.56,2.21-7.86,3.64-14.71,9.09-29.62,19.27-43.74,29.26-21.47,15.18-43.23,31.54-57.11,54.4-4.21.92-.37-3.87-1.07-4.85-.33-.46-2.85-.78-2.9-1.64-.04-.77,7.59-10.53,8.98-12.5.74-2.62.41-3.62-1-3-4.98,5.57-9.02,12.03-13.5,18-1.75-5.06,2.66-9.99,4.74-14.28,3.08-6.35,4.35-7.16,8.2-12.78,1.11-1.62,2.5-3.93,2.55-5.94-6.97,5.91-11.45,14.75-17.98,21-2.02-2.83,5.55-11.53,6.88-14.61,1.14-2.64,2.09-6.34,2.81-9.19,8.85-35.17,10.86-74.17,17.3-110.2.61-4.74-1.25-3.25-3.18-.01-2.91.33-8.45,2.57-9.82,6.01-.66,1.67.34,2,3,1,.74-4.76,7.99-11.5,7-5-9.4,18.19-24.95,34.76-34.83,53.67-.91,1.75-2.36,2.63.83,2.33,1.5,3.29,1.17,6.95-1,11-1.51,1.57-.94,1.47-1-.48-.63-19.68-.09-24.39,3.73-43.29,7.89-39,15.83-77.46,24.27-116.23-.1-1.74-.66-5.86-.98-6.01-.63-.3-9.53,6.68-10.6,8.53l-1.42-.52c-3.38,0-3.45-2.72-2.28-5.36,4.29-5.92,5.97-14.12,6.39-21.3-2.43-5.16-1.8-8.08,2.49-11.95-1.17-7.73,3.35-18.08,7.6-24.43-.49-3.43-.89-6.75-1.2-9.95,1.1-1.76,2.46-2.26,3-3Z"/>
  <path class="st144" d="M154,390c6.66-7.67,14.61-4.64,7.07,4.46.2,5.23.99,7.47,6.26,7.97l-1.34,3.57c1.01,1.24,2.5.18,4.48-3.17l1.52.17c3.86-.96,4.94,7.74,1,9-1.37,4.52-1.04,5.86,1,4,.18-2.98.84-5.83,1.96-8.55-1.81-2.65-2.46-4.8-1.96-6.45-.9-.26-.88-.59,0-1-.19-3.87.81-5.2,3-4,1.17,5.77,2.59,11.31,4,17,.36,3.17-.76,4.58-3.36,4.23.73,3.31.18,5.57-1.64,6.77,1.48,1.75,1,4.05-1.46,6.91l1.46.09c2.77-2.85,5.94-.11,3,3l1.03,1.62-4.54,9.13,1.51.25c2.77-1.55,7.43,2.74,4,5,1.72,1.13,1.9,2.74.56,4.81l1.44.19c2.65-3.43,5.53,2.76,1,3,1.15,1.07.94,2.7-.63,4.87l1.63.13c2.08-3.11,4.43,1.05,5,4l.76,1.18c-3.6,4.29-4.19,6.23-1.76,5.82,2.4-1.61,3.5,4.65,3,7l.76,1.33-5.26,8.26c.69-.66,1.53-.82,2.5-.59,3.45-2.79,4.17-.89,2.16,5.7l-.16,2.3c.47,2.67-.82,5.51-3.87,8.52,2.03-3.43,4.32-5.27,6.87-5.52,3.44.2,3.15,2.67-.88,7.42,1.02,2.77,1.31,5.29.88,7.58l.86,2.18c-2.15,2.54-1.77,3.15,1.14,1.82,2.98-.89,4.17,3.14,2,5l.45,1.47c-3.7,5.53-6.68,10.32-8.94,14.35l1.49.18c3.89-1.38,2.85,4.99,2,7,.45.92.51,1.73-.13,2.32l7.71-9.59,1.42.27c3.7-5.14,3.83,2.43,2,6l-27.99,36.52c-.94,2.79,2.77.21,3.5-.51,7.09-7.01,13.8-16.06,20.3-23.7l7.18-11.31c-.42,2.76.63,6.82.03,9.29-.08.32-3.41,2.62-4.67,4.56-2.3,3.54-3.39,8.63-5.89,12.12-3.34,4.66-11.84,11.11-15.97,16-1.97,2.33-12.27,14.66-10.48,17.01,7.27-8.93,17.1-16.16,24.5-24.99,2.76-3.29,3.95-7.61,7.48-10.01-1.32,3.38-.55,7.06-1.21,10.28-1.46,7.04-26.23,27.2-32.3,34.7-.93,1.15-4.93,6.76-5.31,7.69-.49,1.19-.47,3.08,1.33,2.33,4.78-1.98,11.75-17.12,18.51-18.99,2.93,2.74,4.49,6.5,0,9-1.57,2.36-16.72,17.23-15,19-.22-.2-2.63-.52-3.94-1.53-36.07-27.93-67.05-53.2-109.06-72.47l-.5-2.95c9.97-21.11,22.2-43.25,34.25-64.78,10.49-18.75,21-37.49,31.59-56.18,8.82-15.58,18.04-30.34,28.09-44.86.49-.71,1.23-1.24,2.01-1.79s1.67-1.02,2.57-1.44Z"/>
  <path class="st119" d="M224,301c5.78,6.83-12.52,10.34-15.72,13.28-1.74,1.59-3.81,5.41-7.08,7.69-1.07.75-3.09.3-4.68,2.06-2.38,2.64-1.2,9.81.22,12.76.86,1.79,3.02,2.01,3.6,3.45.93,2.28,5.09,15.28,5.2,17.32.11,1.89-2.28,3.07.15,7.18,1.08,1.82,2.67,1.73,3.35,2.69,14.57,20.65,16.02,61.53,18.97,86.09,2,16.66,5.53,34.48,6.46,49.94.73,12.01,1.61,28.73.64,40.13-.04.5,1.85-.02,2.01,1.89.56,6.67-.73,18.86-.74,26.21-.17,120.27-6.12,240.44-11.77,360.65-4.45,94.76-10.23,189.56-15.61,284.68,1.84.27,1.84,1.27,0,3-.3,5.63.22,11.37,0,17.01-1.33.02-2.67-.01-4,0-3.85.02-8.02-.35-11.57-1.93-.86-1.19-.55-12.99-.47-15.61.24-7.88,1.72-17,2.08-24.92,9.39-203.46,20.19-406.72,24.92-610.08,1.66-71.48,2.32-140.2-19.94-208.98-5.81-17.95-13.48-32.71-22.78-49,.24-2.81,35.86-21.13,41.09-23.66,1.88-.91,4.18-1.11,5.68-1.82Z"/>
  <path class="st110" d="M386,293c.19.8.31,1.62.23,2.44-.54,5.64-.97,12.1,4.82,15.43,3.87,13.46,11.97,19.12,23.42,26.18,3.89,6.86,7.99,10.24,14.84,14.24,16.6,9.69,36.57,17.5,55.88,18.06l2.01,1.9c6.58-1.26,10.17.33,10.78,4.77.89,1.28,1.56.61,2-2-4.45-4.82,2.2-4.21,6.65-2.65l3.86,1.24,36.19-4.81c2.18-.01,4.28.4,6.3,1.22.64.3.63.63,0,1,.69.23,1.26.51,1.39.92,1.02,3.11.49,13.54-1.39,16.08l1.16,5.99c-1.14,2.24-8.86-.5-7.16-3.99-1.44-1.39-1.94-3.33-1.49-5.81-.54,3.05-.8,8.32.49,9.81,4.11-1.81,3.94,4.3.06,5.31l-.24,1.83c1.89.32,3.21.56,3.18,2.86-50.51,11.33-90.05,5.74-134.85-19.65-50.29-28.5-69.55-76.74-80.15-131.35-.39-3.73.68-4.48,4.48-3.38,7.35-4.82,14.94-7.83,22.77-9.02l.75,2.41c-2.59,2.7-5.62,5.65-8,8.5-.94,1.12-2.42,1.63-1.99,3.5,8.05-2.5,11.69-11.22,17.98-15.99,1.44,19.12,7.71,37.81,16.01,55Z"/>
  <path class="st76" d="M800,449c.71,6.84-2.63,13.19-3.75,19.75-4.64,27.17-3.77,50.31-2.26,77.76,4.05,73.61,9.02,147.29,10.22,220.99.05,3.09,1.87,7.18,1.81,10.04-.14,6.94-13.04,12.35-14.04,19.95,1.59,2.09,1.67.06,2.31-.75,2.74-3.46,5.64-8.04,8.73-11.22.95-.98,1.31-1.89,2.98-1.51l-.96,11.48c-.49,13.47,3.79,31.28,3.06,44.05-.44,7.72-14.52,20.75-19.09,27.47-.56-1.89-3.44.39-3.99.01-1.31-.91-.11-11.25-.14-13.56-.05-3.29-1.06-.57.08-5.99s-2.63-1.73-2.96-3.99c2.3-2.45,1.42-5.56,2.01-7.47,4.43-3.63,4.77-4.3,1-2-.11-2.3-2.04-5.52-1.91-7.55.09-1.37,1.57-2.24,1.65-3.74.14-2.72-2.33-6.52-2.26-8.81.1-3.36,2.48-7.46,4.52-9.9,1.7-.12-.15,3.2-.09,3.03,1.21-1.91,1.24-2.92.09-3.03.08-.65-.02-1.34,0-2l-2.98,2c.95-3.19-1.6-6.33-1.86-8.76s2.14-3.96,2.41-6.13c.24-1.95-1.33-2.55-.56-7.11,1.72-2.72,3.37-5.55,4.94-8.5l-1.94-.5c-1.68-2.02-5.05,2.27-6.47,2.01-1.96-.36-2.27-6.54-.53-8.01q3.43.03,0,0c-1.2-7.8-5.04-12.37-4.52-21.02.08-1.32,1.4-2.89,1.47-4.55.15-3.98-1.81-9.26.05-13.43,1.96.8,7.55-6.99,3-5-1.93-2.71-.52-5.19,0-8l-3.99.99c-.26-2.05,1.1-3.42,1.99-5,1.86,1.92,7.75-6.78,4-6-1.22-2.44-6.76-.73-6.99-1-.9-1.04,2.12-3.83,2.04-5.49-.02-.45-2.03-.58-2.1-1.01-.43-2.94,2.82-3.58,2.97-5.92.2-2.99-2.76-7.05-2.93-10.58-2.5.32-1.23-1.48,0-3,.65-3.13,6.87-14.93,3.04-17.56-1.44-.99-5.58.72-4.02-2.91.65-1.51,3.36-1.85,3.97-2.53.36-.29.72-.54,1.12-.62,2.43-.5,7.36-8.72,2.88-6.38-5.97-3.31-4.16-2.75-2-8l1.17.46c1.61-4.79,3.57-9.43,6.56-13.56.1-.17-1.5,3.28-2.73,2.1.76-3.51-1.77-.66-1.99-.99-.08-1.66,2.05-4.15,0-5.01-2.04-1.17,3.8-8.7,1.26-4.76l-1.26-.24-.52-1.01c-4.53,2.91-5.02,1.81-3.48-2.99,2.69-3.57,5.21-7.4,7.55-11.49l-1.55-.51-2-5-.91-1.13c1.86-2.87,1.83-3.83-.09-2.87-5.84-5.18-.88-13.51-.2-19.46.62-5.47-.05-16.36-1.02-21.85-.52-2.93-3.01-2.33-2.81-4.09.37-3.26,3.86-6.07,4.42-9.78.39-2.62-1.5-3.9-1.25-5.17.24-1.2,2.48-2.08,2.73-3.29.26-1.3-1.71-3.08-1.84-4.9-.12-1.68,1.51-17.95,1.97-19.74.17-.68,3.6-2.31,4.47-4.76,1.09-3.09.02-6.09.97-9.02.79-2.41,3.37-2.69,3.59-3.63,2.96-12.78,3.05-24.5,6.98-38.29Z"/>
  <path class="st87" d="M549,403l-7.99-2.01c-.33-1.9,1.94-.42,2.82-1.19.25-.22.09-1.68.87-2.84.27-.4,1.82-.47,2.26-1.61.5-1.29-.96-2.22-.96-2.35-1.69-1.12-1.28-4.48,1-4l1,2.49,1.48-2.48c3.03,5.63,4,3.2,3.51-2.01.74.21,1.34.17,1.42-.42.61-4.22,1.1-13.47-1.42-16.58v-1c-.39-3.19,5.34-3.71,8.04-3.55,2.6-5.68,11.65-7.62,16.96-8.45q6.26,9.98,0,0c.82-3.01,3.34-5.26,7.55-6.76,3.24-.75,4.94-2.3,5.08-4.65,7.99-2.89,13.36-9.73,18.43-16.67,9.75-13.36,18.92-28.17,24.17-43.82-.39-6.51,12.45-39.82,16.78-42.17,2.82-1.53,8.88.45,7.99,4.07q-.28,2.04,0,0c.23-1.57.76-2.95,2-4,3.25,1.74,14.94,4.93,15.86,8.68-1.68,32.48-13.36,59.64-32.03,85.65-20.78,28.96-59.74,57.79-94.83,65.67Z"/>
  <path class="st45" d="M53,567c6.74,3.16,14.36,6.1,20.88,9.62,32.84,17.77,60.75,45.08,91.94,65.52,1.68,2.74-7.24,6.96-7.82,10.84,6.55.74,6.92-12.14,13.52-6,4.33,4.03-7.91,8.54-6.51,14.01.74.85,6.31-4.26,6.99-5,3.28-1.11,3.61.55,1,5,2.53,1.13.22,3.98-2,4-1.73,5.01,1.12,9.93,8.54,14.77,1.03.97.28,2.06-.54,3.23-2,1.83-2.19,4.29-5.99,2.5-40.23-36.3-85.08-66.62-133.01-91.5l-2.41-1.55c-.86-1.5,11.18-23.44,15.41-25.45Z"/>
  <path class="st45" d="M959,608c-22.85,15.04-48.81,35.75-70.91,52.59-11.13,8.48-21.45,17.96-32.6,26.4-3.27,1.29,1.3-5.43-1.97-3.98-.7.31-9.05,7.6-9.5,6.99-1.94-3.39,8.13-12.79,6.98-14-3.98.22-7.55,8.29-9.64,8.87-2.36.65-3.81-1.12-3.39-3.31.07-.35,4.23-2.99,5.56-4.55,1.23-1.45,7.08-8.58,7.48-9.52.51-1.18-.29-1.98-1.48-1.48-3.42,1.45-6.78,10.04-10.5,11.99.71-3.86,3.5-7.31,4.57-11.02.62-2.16-.96-3.48.32-5.5,1.81-2.85,10.99-11.05,14.09-13.99,26.38-25.07,62.57-48.05,94.34-65.66,3.05-1.69,6.77-5.83,9.67-5.33-10.33,9.32-15.27,20.2,0,3.5,2.75-2.24,3.08-.24,1,6l.73,1.19c-9.32,10.95-11.35,13.4-6.1,7.35l1.38.46c.93-.12,1.85.01,2.58.66,1.28,1.13-1.73,10.49-2.58,12.34Z"/>
  <path class="st186" d="M181,351c1.46,1.75.45,2.93-3.01,3.56.34,6.55-6.76,13.41-10.99,17.44-.07,6.9-7.39,13.94-13,18-9.3,13.89-17.95,26.38-26.38,41.12-21.22,37.1-42.35,74.9-62.48,112.52-3.19,5.97-5.31,12.67-9.14,18.36-3.34-1.53-13.36-2.68-11.58-8.02,39.33-74.77,82.08-147.68,125.6-219.98,5.6,3.93,7.97,11.2,10.98,17Z"/>
  <path class="st211" d="M660,243c1.21,2.91.58,3.66-2,4-2.97-1.64-6.05-4.59-8.43-.93-.4.61-3.23,6.23-3.3,6.59-1.36,7.76-9.67,16.62-11.09,26.1-.26,1.72.64,3.33.46,4.58-1.91,13.55-27.27,54.73-39.08,61.72-4.17,2.46-5.46-1.63-3.57,5.94-.83-.09-1.37-.71-2.32-.6-2.99.37-9.36,4.68-12.67,6.6-.44.25-.83,1.55-1.73,2.01-5.41,2.73-15.08,2.75-13.28,9.99-2.5,1.15-1.81-1.92-2.41-1.9-1.9.08-5.88,1.7-7.58,1.9-14,1.69-28.75,4.07-42.54,5.56-.85.09-5.83-2.85-8.45-.55l-.5-3.01c-1.4.65-1.07,2.29-1.5,3,.44,2.1-.06,3.46-2,2-2.49.71-2.1-2.44-3.63-2.89-1.3-.38-5.65.8-8.63-.18-.89-.29-.75-1.93-1.32-1.95-14.71-.51-19.01-1.53-32.82-7.09-9.43-3.8-27.85-11.57-34.6-19.4-1.12-1.3-1.33-3.28-2.95-5.05-4.41-4.83-12.78-7.13-18.09-13.91-2.72-3.47-4.92-10.61-6.56-13.56-.55-1-4.19-2.85-5.09-5.65-.41-1.29.37-3.99.33-5.67-.06-2.39-2.95-4.43,1.35-7.65,36.49,75.61,126.03,96.42,196.69,53.19,21.46-13.13,38.08-42.97,48.69-65.31,5.61-11.82,6.32-15.93,7.62-28.88l-.29-10.25c-2.56-1.93-.29-7.42,3.29-7.75,6.49.32,12.3,5.95,18,9Z"/>
  <path class="st158" d="M589,292c3.67-.98,4.41,1.01,2.2,5.97,3.52-.35,4.79.66,3.8,3.03-35.08,14.2-78.61,21.43-116.38,16.88-4.74-.57-39.47-7-39.6-10.38,1.77-2.26,4.49-1.13,6.94-2.04,1.99-.74,4.31-3.9,6.65-4.18,44.78,9.36,92.75,2.12,136.39-9.28Z"/>
  <path class="st54" d="M792,868c5.42-6.36,10.03-13.14,13.91-20.57.34-.66.52-3.45,2.08-1.43.47.61-.19,12.91.02,15.48.91,11.32,1.61,20.53,1.94,32.05.34,11.89.46,21.24,2.1,32.91.43,3.07.55,22.43-.04,24.85-.09.39-4.9,4.06-6.07,5.19-2.86,2.78-5.6,5.33-7.95,8.52-1.46-2.66-5.87-2.38-6.8-5.71-.22-.79-1.12-9.89-1.02-10.59.34-2.39,2.01-2.64,2.81-3.71.68-.03,1.28-.13,1.6-.49,6.6-7.35,14.45-18.83,1.59-2.07l-1.19-.45c.81-3.84-5.58-.51-7-2.01-.2-2.55,1.94-4.18,3-5.99q1.98-.55,0,0c-.83-2.62,1.75-3.88-2.99-2-.61-.76-.57-16.56-1.1-19.41-.81-4.31-4.04-7.1-2.16-11.36.57-1.3,1.9-1.7,2.25-2.22,1.44,1.92,4.54-3.78,1-2-5.46-1.21-1.13-5.46-1.98-9.33-.28-1.27-4.35.37-.02-5.67,2.1-.25,9.19-9.18,9.86-10.77l-1.86-.23-2-3Z"/>
  <path class="st190" d="M480,341c-5.44-3.05-13.06-6.24-17.73-9.77-1.47-1.11-3.6-1.92-3.26-4.23,9.56-.42,18.92,2.5,28.45,3.04,32.05,1.82,64.24-3.06,94.54-13.04.11,4.38-4.24,5.53-6.52,7.97-12.66,13.58-21.44,19.32-39.47,25.02-2.5-.25-4.84.42-7,2-.98.1-2.01-.05-3,0-1.47-.81-2.81-.81-4,0-2.2-.04-5.06.47-7-.5l12-11.49c-5.96,1.37-12.34,13.58-18.36,12.02-.99-.26-.23-1.84-1.14-2.04-2.3-.5-1.06,1.82-2.11,2.07-2.78.65-11.71-4.79-15.38-5.07-1.5-2.08,7.85-5.61,6.99-8.98-5.8,1.23-6.2,9.48-12.99,5.99-1.04-1.66-2.11-2.59-4-3Z"/>
  <path class="st200" d="M844,351c2.81,2.47,3.82,7.84,2.97,11.31-.18.71-1.61.57-1.91,1.44-2.01,5.89-4.64,11.55-6.03,17.89-.31,1.42.85,3.12.41,4.42-.41,1.19-3.64,3.52-3.99,5.9-.15,1.02,1.58,3.05,1.67,5.53.19,5.29-2.43,13.7-4.37,18.76-1.03,2.68-4.28,3.3-1.75,7.76l.43,1.33,8.29-7.75c1.78-.48,2.01.7,1.27,2.42-.04,1.73-.61,3.34-1,5-6.22,8.27-12.11,16.79-17.67,25.58.61,6.74.24,10.43-3.27,16.46,2.32,8.45,2.37,11.93-4.11,18.43-2.38,3.51-2.86,7.44-.44,11.11.48,1.74-1.82,13.67-2.33,14.19-.42.43-5.62,1.4-6.33,1.33-2.34-.21-1.48-10.14-.85-13.11,1.04-36.97,19.53-116.79,39-148Z"/>
  <path class="st206" d="M610,249c5.44,3.3-.4,6.61-5.16,6.32-.9,2.55-2.18,3.78-3.84,3.68l-1.07,1.98c-2.7-.18-5.36.12-7.93,1.02-1.74,2.47-5.54,4.77-7.8,2.56-2.91,1.74-4.97,2.22-6.2,1.44-.52,2.18-2.46,2.7-5.83,1.58-4.34,3.6-6.99,3.39-7.95-.63-.36,1.1-1.44,2.11-3.22,3.05-1.35,2.89-4.02,1.84-6.34.39l-2.66.61c-3.48,2.43-9.26,6.28-10.02.99-6.12,4.67-8.15,4.76-14.98,2.01-4.7,4.58-9.62,22.15-11.66,22.84-1.04.35-5.37.56-5.35-.35.61-6.29,6.41-12.79,7.97-18.04.66-2.22-1.56-1.35-2.95-1.44-3.23,3.27-5.84,2.97-7.94-.84-1.83,1.35-3.18,1.63-4.06.84l-4.99,1.05c-.52-1.45-3.83-1.11-5.31.03-5.19-.71-10.34-1.32-15.44-1.83-.2-1.82-.94-2.05-2.27-1.25-1.44,1.51-4.31,1.9-5.32.06-3.1,1.23-8.13-.21-10.52-2.27-3.39,1.76-18.14-7.95-18.34-9.73-.23-2.03,1.43-2.6,3.17-2.06,54.31,8.21,114.09,8.53,166-12Z"/>
  <path class="st38" d="M181,351c4.04,7.79,7.63,14.68,10.28,23.22,8.79,28.28,12.49,57.32,14.71,86.78l-13.19-31.3c-4.71-15.9-10.62-31.34-16.8-46.7-3.15-1.25-5.09-4.2-5.81-8.85-1.85.13-2.91-.58-3.19-2.15.2-.3-.12-1.86.55-2.91,1.29-1.99,8.04-10.11,8.24-10.79.48-1.65-.03-6.08.2-6.3.41-.39,4.37.83,5.01-1Z"/>
  <path class="st77" d="M803,1245l18.77-4.82c1.05-.32,2.15-.22,2.77.77,2,3.2,2.08,25.01,1.95,30.05-3.02,1.83-5.47,3.27-4.52,7.36.21.91,3.02.18,2.02,2.63-9.15,1.79-18.4,3.53-27.64,4.87-4.64.68-9.92.56-14.36,1.14l-6.5-1.99-4.5.98c-1.38-1.39,7.63-7.98,9.01-9.48.74-.81,3.36-2.66.99-3.51l-.55-1.27c8.89-7.2,17.55-14.77,26-22.71l-.45-1.02c.97-1.04,2.62-1.62,3-2.99-1.99,0-4.01-.05-6,0Z"/>
  <path class="st59" d="M941,527c.03-2.39-.68-4.93-3-6-1.41-1.54-.99-3.59,1.25-6.16l-1.25-.84c.09-1.75-3.25-5.09-5-5-2.52-.85.14-5.29.79-4.11l-.79-1.89c-.3-.26,1.84-5.76-4-5l-2-4c2.02-4.09-.64-4.09-.67-5.53-.01-.69,4.25-5.1-.33-2.47-.95-.4-1.95-.74-3-1,.56-3.36-1.52-1.58-4-1-1.29-.48-1.96-1.81-2-4-.85-.43-2.9-2.42-3.31-3.29-1.16-2.49,1.84-4.26-1.69-3.71,0-2.82-.67-4.16-2-4-1.57-1.74-2.16-2.8-1-4.99l-3,.99c-2.73-2.43,6.08-10.9,2.17-6.24l-1.17-.76v-1.32s-4-4.68-4-4.68c.04-1.39-1.29-1.72-4-1l-2-7c-2.82-.59-.14-5.74,1.06-7.1.57-.64.04,3.06-2.06,1.1.42-3.12-.59-5.66-4-6l-3-1-1.01-6-1.99,1c-1.79-.79-1.73-2.55.17-5.28l-1.17-.72c-.65-2.57,2.72-2.71,2.96-3.06,1.14-1.62-3.21-5.37-4.96-2.94-2.18-1.73-1.76-2.56,1-2,1.13-4.21,2.79-5.55,5-4,16.23,29.67,32.94,58.68,48.83,88.67,2.27,4.28,12.06,17.52,11.02,21.63-.33,1.31-6.44,7.11-7.85,8.7Z"/>
  <path class="st184" d="M840,425c-3.57,15.05-10.05,27.22-14.27,42.23-4.93,17.56-9.35,35.84-14,54-.33,1.31-4.66,16.3-5.72,14.77-1.94-10.68-2.14-20.67-2.03-31.51.02-1.69-.64-4.45,1.02-5.49-.11,3.98.07,8.01.01,11.99,1.69.45.43-1.95,1.59-2.09,1.31-.16,2.94,1.25,4.4,1.1-1.43-3.84,1.97-8.72,1.92-11.52-.03-1.67-1.61-3.2-1.88-5.05-1.28-8.82,7.39-13.46,7.85-17.16.19-1.54-2.47-6.78-1.67-10.55.51-2.39,3.31-4.52,3.58-7.44.25-2.77-1.52-4.68-.35-8.33,1.3-4.08,12.36-18.26,15.74-22.27,1.14-1.35,1.6-2.74,3.82-2.68Z"/>
  <path class="st15" d="M421,279c-7.7,7.11-6.47,2.11-2.01-3.51-.4-2.65-9.12,10.05-8.97,4.01.06-2.25,16.21-17.41,17.99-21.05,3.28-.37,7.64-.19,5.29,3.49-3.72,5.84-9.91,9.03-12.31,17.06,5.43-5.01,13.05-18.27,19.65-19.01,2.27-.26,2.88.94,3.35,1.01l-2.02,1.52c4.46,1.78,7.96,6.01,12.49,7.52,5.83,1.94,14.53,4.43,20.54,4.96-.15.1-1.65,2.46-2,3-1.39,1.16-2.43,1.69-3,0v-2.5c-6.32,4.92-7.27,13.61-13.5,18.5-.29-5.85,7.13-10.87,7.49-16.99-4.27,1.08-9.47,14.8-11.2,15.78-1.01.57-4.25,1.07-3.81-1.29.35-1.85,11.25-16.24,10.01-17.48-1.79-1.79-8.63,10.44-9.54,11.95-1.49,2.46-.76,5.21-3.93,6.07-5.7,1.54,1.34-6.71,2.34-8.67.7-1.38,4.59-9.87,4.14-10.35-6.3.6-4.7,6.81-5.57,9.04-.22.56-7.91,8.27-8.47,8.5-1.3.55-4.74-.23-3.95-2.03l11.99-16.5c-1.15-1.04-9.45,7.7-10.51,8.98-1.73,2.08-3.34,6.6-3.63,6.85-1.12.95-6.95.82-6.57-2.37l15.7-18.47c-.68-.66-8.15,5.66-9.01,6.48-1.92,1.83-9.66,12.8-11.98,10.51-.08-1.74.51-3.37,1-4.99Z"/>
  <path class="st127" d="M642,234c-3.82,5.27-2.41,12.12-3,18l-1.01-11c-2.89,2.57-10.96,10.11-12.24,13.25-1.12,2.75-.59,5.78-1.37,8.63-1.76,6.45-2.43,7.37-7.38,11.12-1.18.4-2.3.92-3,2-3.16,1.92-6.25,3.3-9.51,4.99-4.23,1.39,10.78-25.28,11.3-26.71s.73-2.69-1.27-2.28c-1.53.63-9.05,15.09-10.25,17.76s-2.6,9.85-3.76,11.24c-.91,1.09-4.02,1.42-4.51.98-1.09-.96,6.16-14.43,6.77-16.72.27-1.02,1.51-7.15-1.77-4.27-2.62-.38-2.52-1.19,0-2,.51-1.41,1.37-4.3,2.4-5.1,3.24-2.5,7.92,1.85,6.6-4.9,3.02-1.2,8.85-4.04,11.89-5.61,7.11-3.68,11.26-9.83,20.11-9.39Z"/>
  <path class="st14" d="M962,580c.35-1.2,2.9-6.41,3.71-7.05.44-.35,9.44-4.74,9.99-4.82,1.12-.17,1.15.15,1.79.88,1.01,1.15,8.07,13.41,8.33,14.74.75,3.83-1.24,4.9-1.81,8.25l3.01-2.99c1.5-.32,1.24,1.64,1,2.5-1.39,5-10.05,4.21-13.02,6.49-3.17.28-4.47,1.16-7,4-2.49,1.39-6.29,4.22-9,6-3.15-4.87,3.14-8.91,0-13l-.78-1.09,6.82-7.91h-2.04c-3.08-2.87-.51-3.08.01-5.48.13-.62-1.03-.47-1.01-.52Z"/>
  <path class="st109" d="M209,1245l-3.08,30.51,1.08,5.49c-5.56-.87-11.51-.78-16.87-3.13-.18-11.64,2.9-23.13,1.86-34.87,5.8-.5,11.37,1.25,17,2Z"/>
  <path class="st91" d="M704,267c-5.35.46-.19,2.32,0,2.69,2.86,5.27,2.61,12.17,4.97,15.6.88,1.28,2.69.55,3.95,1.25.74.41.92,1.38,1.08,1.47-.41.71-.75,1.38-1,2-1.68-.83-2.49-1.94-2.66-1.99-4.56-1.3-2.77,1.39-3.82,3.98-1.24,3.07-3.13,6.01-4.52,9.01-1.44-.59-1.81-1.67-2-3-.13-.19,1.4-2.65,1-2.99-3.4.13-5.46,2.43-9,.99-.44-.23-.84-.48-1.15-.83-.33-.38,1.5-5.84,1.93-6.85.55-1.29.62,2.11-.79-.33,1.82-4.34.85-7.64-4-5-2.62-3.87,1.04-10.73,3.61-14.39.17-.25-2.35,5.32-3.61,3.39l-.5-.98-2.5,1.99v-3.01c-2.2-.5-1.94.55-3.01,2.01,1.35-4.33,2.94-8.6,4.01-13,1.2-1.12,15.8,7.05,17.99,8Z"/>
  <path class="st54" d="M205,547c-.37-2.76,1.4-6.81-2-6l-1.3-.33c-2.31,3.62-4.88,6.07-7.7,7.33v-1.35c-3.98-.89.41-3.78-2-5.65,1.26-5.46,4.04-10.61,8.34-15.45l-1.34-.55-2-5c-.1-3.2-.77-4.53-2-4-.96-2.66-3.14-4.2-2.89-7.56.21-2.72,4.94-4.93,2.89-7.44l-1-2.16c2.6-2.59,3.27-4.53,2-5.84-5.15-.76-2.2-7.1-.33-10.31l-.67-1.69c-1.61,2.07-2.09,1.52-2-1-4.01-2.72-1.78-8.75,3-9,3.68,15.2,10.9,38.45,11.99,53.51.5,6.92,1.27,16.98-2.99,22.49Z"/>
  <path class="st207" d="M859,352c10.5,18.53,19.82,37.39,30,56-1.37,1.18-3.93,2.78-5,4-.36-1.03-1.69-1.36-4-1,.66-1.84,1.33-3.33-1-4-1.58-.83-1.45-2.32.37-4.48l-1.37-.52c-3.45-2.75-2.02-4.77-3-8-2.17.13-2.28,0-2-2-.07-.13,1.34-1.78.54-3-.47-.72-3.94-2.72-4.54-5-3.51.15-.05-5.9.84-5.95.23-.01-1.74,4.21-2.84,1.95-.07-1.97-1.27-3.24-3-4-.1-1.13-1.1-1.47-3-1l-1-3c-.34-1.03-1.67-1.36-4-1l-1-1c-.62-1.22-1.95-1.56-4-1l-4.98-.5c3.23-2.45,1.48-6.37,2.17-9.85.31-1.55,1.47-1.98,1.81-2.65,1.9.84,5.75-3.74,7.24-5.74l1.76,1.74Z"/>
  <path class="st39" d="M176,424c.15-4.1-1.51-6.39,1.01-11l1.99,3,2-3c4.81,19.36,10.37,38.85,15,58,.76,2.37-2.28,2.02-2.85,3.64-.6,1.71.17,3.85-.15,5.36,1.28,1.39.71,1.95-1,1,.1-4.12-4.84.59-2.23-6.41l-.77-.59c-2.3.05,1.16-5.92,1.97-6.96.07-.09.8,1.54-.97-.04-.44.03-2.53-1.12-4,0,.84-1.89,1.41-3.24-1-3.99-.41-1.79-.74-3.46-1-5-.13-.13,1.58-2.59-1-3-.37-1.9-1.04-3.57-2-5,.43-2.43-2.94-2.85-4-5l-.97-1.04c1.22-3.3,2.99-6.49,4.73-9.58l-1.76-.39c.55-2.25-1.29-2.28-3-3l-1.02-.87c2.05-2.28,2.39-4.32,1.02-6.13Z"/>
  <path class="st171" d="M804,1212l2.03,2.53c4.57-5.24,8.83-10.46,12.98-16.06.64-.86,2.31-1.1,2.72-1.74.84-1.31-.2-4.21,2.26-4.73-.38,3.3.86,7.98-.51,10.98-.62,1.36-14.22,14.92-16.95,18.08-1.76,2.04-5.11,2.21-4.55,6.43.83,1.48,2.58.13,3.55-.45,6.5-3.94,12.01-15.61,17.97-21.03.57,1.96,1.07,8.45.29,9.8-.17.3-4.49,2.53-5.8,3.69-6.13,5.42-11.46,12-17.01,17.99l-13.98,2.51c-.74-.99,8.13-6.38,3-5.99,4.36-3.81,11.36-9.91,12.94-15.59.55-1.98-2.64-.86-1.91-2.86.36-.97,2.22-2.5,2.97-3.55Z"/>
  <path class="st39" d="M167,372h4.99c.02,4.12,2.54,7.35,4.01,11-2.17-1.5-2.45-1.39-1.8,1.29.96,3.96,1.98,7.69,2.8,11.71l-3,4c-2.15.44-.41-1.97-.44-1.83-.51,2.23-5.13,8.42-7.56,7.83.7-7.86-5.37,2.63-7,.99,4.16-4.75-.6-8.67-.04-12.44.37-2.47,4.28-3.98,3.03-7.54l-7.99,2.99c4.06-6.07,9.18-12.17,13-18Z"/>
  <path class="st62" d="M53,567c-3.93,7.76-8.58,15.27-12.57,23-.7,1.36-1.66,2.5-.43,4-1.78-.36-11.53-4.58-11.88-5.12-1.73-2.74,10.43-23.67,12.84-27.43,1.79-1.05,9.83,4.51,12.03,5.55Z"/>
  <path class="st210" d="M184,608c2.12-4.08,10.54-11.25,13.99-15,.2,3.75-3.12,7.42-3.76,10.73-1.32,6.83-1.45,12.44-4.78,19.22-1.84,3.75-8.77,7.46-9.49,13.52-.79,6.59,4.28-1.63,6.03-2.47.46,19.11-5.82,12.7-15.54,5.01-1.27-1-1.28-2.85-1.45-3.01,1.89.42,2.37-1.06,3.5-2,6.54-5.39,11.41-12.67,17.49-18.52-.2-4.23-3.72,1.95-5.99,1.51,3.42-5.15-2.1-4.97,0-9Z"/>
  <path class="st65" d="M800,1054c-.56,2.79,1.53,2.55,3.02,1.52,3.39-2.36,8.42-13.77,12.97-16.52,3.92,12.89-13.17,17.23-11.49,28.99,2.39-3.18,6.24-6.47,8.5-9.5,1.61-2.15,2.05-5.15,3.99-6.49-.35,2.94.81,7.38-.48,10-.69,1.4-3.33,2.09-4.5,3.5-3.5,4.2-5.06,9.3-10,12.01-1.26,2.49,4.14,1.15,4.99,1.49,2.54-1.37,4.42,1.84,3,4-.36.51-2.73,4.45-3,5-1.81,3.7-6.34,1.32-3-2-2.52-5.87-5.69-20.56-5.74-27.11-.03-3.37.42-2.69,1.74-4.89Z"/>
  <path class="st99" d="M503,277c2.02-1.03,4.11-1.71,5.99-3.01-.93,4.61,2.43,2.77,6.01,3.01-2.52,2.36-7.51,20.76-8.61,21.06-1.91.52-7.16-.09-9.38-.56,3.49-6.74,8.95-12.98,10.48-20.52-5.86,1.26-10.26,19.07-12.45,20.55-1.85,1.25-6.65.09-9.04.45-.77-.7,8.16-17.24,10-17.99-.31-2.6,2.53-4.19,4.12-2.31l2.88-.69Z"/>
  <path class="st95" d="M404.01,277c-1.41-7.46,1.62-7.35,5.35-11.14,3.03-3.08,1.09-5.69-.87-3.88-.81.75-5.9,8.81-7.48,7.01-1.28-6.7,7.81-7.24,7.99-12.99-1.56-1.65-8.68,9.08-12.55,8.99-1.32-.03-2.75-1.13-2.44-2.48.26-1.15,13.36-11.28,14.28-11.29,2.12-.02,16.68,6.11,16.7,7.28-1.96,1.6-19.16,20.59-20.98,18.5Z"/>
  <path class="st154" d="M475,275c.13.01.76-.91,1.48-.84,4.57.41,14.14,2.3,18.02,1.96,2.2-.2,2.61-4.75,5.49-3.11.77.44-3.96,5.47,3,3.99-3.1,1.59-4.01,1.77-7,3l-.49-2.99c-4.24,3.8-7.66,9.79-10.01,14.99s.44,6.99-7.5,5.99c.41-6.62,7.06-11.45,8.8-17.69.41-1.47.77-2.69-1.29-2.29l-9.69,18.83c-.61.53-1.96.1-2.82.16-1.85-.22-3.85-.55-6-1-.36-2.98,10.3-15.95,10.01-20.49.11-.85-1.81-.65-2.01-.51Z"/>
  <path class="st207" d="M808,1180c-.43,2.73.09,4.18,3,2.5,4.6-2.66,6.42-11,11.99-13.5.78,10.87-11.96,16.94-15.98,26.51,2.56,1.69,5.75-2.6,7.51-4.49,1.13-1.22,8.14-12.55,9.48-11.01-.18,2.58.62,5.51-.51,7.98-1.54,3.36-10.61,12.35-13.48,16.02-.64-1.84-4.59-.62-5-1.01-.32-.3.91-2.2.72-3.33-.16-.95-1.8-1.88-1.64-3.03s3.99-2.89,2.91-5.63c-1.15,2.09-4.25,3.31-4.99,4-.34-.8-.67-1.8-1-3,6.84-6.73,3.59-6.08,7-12Z"/>
  <path class="st98" d="M334,252c-.25-1.31-1.47-2.13-.85-4.26,1.08-3.76,19.85-10.93,24.52-13.57,2.06-1.17,11.11-8.14,11.83-8.15,3.32-.05-.15,9.12-1.18,10.71-1.35,2.07-4.57,3.46-6.32,5.27-1.92-.88-2.62-.78-4.53-.12-6.75,2.35-14.66,6.6-20.98,10.11l-.5-2.99-1.99,2.99Z"/>
  <path class="st136" d="M172,656c.72-.77,1.31-5.1,4.32-4.85,1.27.1,7.75,6.8,8.21,7.83,1.36,3-8.87,13.28-5.52,16.02,1.48,1.2,7.54-8.55,8.98-6.99-1.74,5.75-4.55,10.92-8.99,14.99-1.75-5.74-13.56-9.32-10.48-16.02.53-1.16,2.17-1.53,2.48-1.98,4.16-2.65,4.83-3.98,2-4-.06-1.6.62-4.15-1-5Z"/>
  <path class="st105" d="M817,582c.32-3.3-.92-8.22,1-11,.37-.54,2.18-1.26,3-2.47,9.45-13.92,19.13-27.61,27.01-42.52,1.7-.26,1.07,2.4.98,3.47-1.47,16.12-18.17,28.91-26.2,41.81-2.33,3.75-2.15,6.94-5.79,10.71Z"/>
  <path class="st207" d="M805,1108c-.13-2.26-2.33-3.65-2.81-5.71-.74-3.22.8-5.66.5-7.62-.39-2.58-4.57-5.85,1.3-8.67.21.48-.24,1.81,0,2.01.39.32,2.71-1.35,3-.01-1.57,3.21.2,6.83,2.95,4.96.62-.42,5.18-11.71,7.55-12.96,7.18,13.85-7.9,18.88-12.5,28Z"/>
  <path class="st202" d="M552,271c-2.46,4.39-5.12,8.7-7.19,13.31-3.49,7.76-.34,11.1-12.81,9.68,2.12-4.83,10.55-15.77,10.01-20.48-.11-.94-1.17-.46-1.99-.5l-10.58,20.94c-1.11,2.06-10.06,3.64-9.46.55.46-2.35,4.23-8.36,5.47-11.54.75-1.92,3.21-7.19,1.55-8.95,3.27-3.19,2.85-.31,6.46.02,5.13.47,5.84-2.18,8.05-3.02,1.96-.74,1.39,1.95,1.91,1.95,2.72,0,4.34-3.12,8.58-1.95Z"/>
  <path class="st28" d="M589,292c7.73-2.02,15.12-5.45,22.99-7,1.65,11.17-9.21,12.84-16.99,16-.7-1.8-4.06-.46-4.87-1.13-3.14-2.6,3.37-8.09-1.13-7.87Z"/>
  <path class="st176" d="M800,1037l1.51,2.02c4.16-4.8,8.07-9.94,12.19-14.75.62-.72-.03-1.89,2.29-1.27-.46,3.52.93,8.81-.51,11.98-.31.69-9.4,10.24-10.48,11.02-.16.11-2.12,1.03-2.99,1.48-3.91,1.98-2.39-.42-3.57-2.37-3.32-5.46-1.62-3.25,1.57-8.11Z"/>
  <path class="st41" d="M561,270c.87-2.05,2.93-9.68,5.56-5.02.5.89-.96,2.68-.56,3.01,1.4,1.19,5.33-1.55,6.78-1.82,1.75-.33,2.84.38,5.23-.18,4.44-2.14-.33,5.34-2.09,6.53-.48.32-1.29-.13-1.91-.53.86-2.35-.93-4.38-2.88-2.89s-5.98,15.07-7.68,17.82c-1.19,1.92-4.05,4.08-6.43,4.06-1.18-1.22,9.27-19.29,6.99-21.99-1.18-.4-2.42.95-2.99,1Z"/>
  <path class="st89" d="M561,270c-3.02,7.12-4.93,15.42-9.06,21.44-3.18,1.24-7.11,3.74-5.72-1.72,1.2-4.72,7.18-12.9,7.77-17.25.33-2.4-.75-1.14-1.99-1.48.52-.93.89-2.91,1.01-3,.34-.24,4.72,2.26,7.99,2Z"/>
  <path class="st120" d="M601,259c-.19.52.19,1.49,0,2-2.49,6.65-6,12.9-7.57,19.93-1.57,2.9-7.27,4.73-6.39,1.62.82-2.92,8.35-18.83,6.96-20.54-.65.03-1.36-.1-1.99,0,.32-.73-.78-1.51,1.19-2.32,2.4-.98,5.27-.69,7.81-.68Z"/>
  <path class="st188" d="M592,262c-1.77,4.02-8.12,22.25-10.05,23.45-.87.55-4.89,1.87-5.97,1.03,1.28-6.8,7.49-13.68,8.96-20.05.66-2.86-2.87-.82-3.63-.11-3.23,3.02-9.45,20.9-10.48,21.5-.96.56-2.64.04-3.83.17-.92-.85,5.71-14.28,6.99-15.99,1.04-1.38,4.38-2.89,4.98-5.51l-.98-.49c4.64-1.08,9.17-3.31,14-4Z"/>
  <path class="st153" d="M837,561.01c-.83,13.28-11.23,20.36-18.99,29.99.68-8.83,9.1-18.69,14.61-25.89,1.22-1.59,2.12-4.55,4.38-4.1Z"/>
  <path class="st171" d="M805,1236.99l18.99-18.99c-.42,3.54.64,8.17.01,11.5-.84,4.48-14.84,6.89-19,7.49Z"/>
  <path class="st74" d="M614,276c.8-3.16-1.03-6.68-.93-9.43.22-6.15,8.28-12.52,11.44-17.57-.25,3.06-.03,12.02-1.75,13.75-.77.77-2.69.81-3.71,1.76-.55.51-7.01,10.13-2.04,9.48-1.14.86-1.81,1.28-3,2Z"/>
  <path class="st207" d="M807,1079c3.13-3.06,5.17-8.61,8.01-11.49,3.97-4.01,3.62,6.84,2.77,8.28-.29.49-2.15.81-2.82,1.63-1.34,1.62-4.07,4.32-4.97,5.58-1.06-.47-2.75-3.9-3-4Z"/>
  <path class="st207" d="M847,348c1.77-2.43,2.61-6.99,6.43-7.04.72,0,1.83,4.73,2.57,6.04,2.84,4.1-.91,8.07-5,7l-4.01-1.01c-.43-.38,2.21-4.52,0-4.99Z"/>
  <path class="st201" d="M765,1268c-.02.36-.92,1.05-.89,1.53.05.7,2.57-.07,1.88,1.96-1.08,3.2-15.99,13.13-19.99,14.51-2.27-2.14,14.57-12.69,15.62-13.96.76-.92,1.19-3.06,2.38-5.03.15.41,1,.92,1,1Z"/>
  <path class="st156" d="M831.99,582c1.8,2.05-10.38,18.89-12.98,21-.39-6.4,5.44-14.17,9.57-18.92,1-1.15,1.55-2.46,3.42-2.07Z"/>
  <path class="st52" d="M831,424c3.01-2.5,10.39-10.36,13.49-11.02,1.6-.34,1.58-.12,1.32,1.3-.48,2.58-1.25,5.19-1.8,7.72v-3c-1.05.21-1.92.85-3,1-.1.01-.84-1.43-1.94-.58-3.12,2.4-6.57,9.23-11.55,8.59-3.35-.43,2.97-3.57,3.49-4.01Z"/>
  <path class="st11" d="M522,352c5.49-8.19,13.2-14.48,20.49-21.01.73,2-2.75,5.62-3.98,7.02-3.55,4.09-8.11,6.89-11.57,10.47-1.15,1.19-2.43,1.78-.95,3.52-1.32.06-2.68.03-4,0Z"/>
  <path class="st11" d="M529,352c3.09-5.19,9.54-7.86,13.54-11.96,1.56-1.6,3.7-6.4,4.97-7.03,1.54-.76,1.83.42,1,2-3.71,7.03-7.04,8.82-12.85,13.15-1.71,1.27-2.95,2.06.34,1.84-2.81.89-3.14,1.62-7,2Z"/>
  <path class="st96" d="M855,513c-.12-1.53.65-3.36-.99-2.99.04,2-1.18,3.38-2.01,4.99l-.5-2c-2.19,2.24-4.53,4.59-6.5,7l-3-1c-.55-6.5,10.08-7.37,10.49-7.94,1.31-1.81.81-5.45,3.01-7.06,1.74,3.02-.07,6.56-.5,8.99Z"/>
  <path class="st206" d="M473,278c-2.02,3.1-6.74,14.35-8.5,16-.94.87-2.71,1.86-3.49.51.62-1.9,7.95-15.75,8.99-16.51.37-.27,1.95-.17,2.51-.97l.49.97Z"/>
  <path class="st198" d="M467,296c6.87.64,3.97-.26,5.48-3.99,1.64-4.05,4.34-8.6,6.94-12.12.37-.5,1.09-3.68,2.57-1.89,1.29,1.55-8.68,15.79-8.99,18.99-1.58.12-5.81.56-6-1Z"/>
  <path class="st180" d="M968,602c1.79-5.29,3.1-6.74,7.26-10.02,1-.79.67-1.91.76-1.97.49-.3,2.29,1.29,1.98,2.48-.09.35-8.1,5.6-3,5.51-4.34,3.35-3.79,2.21-7,4Z"/>
  <path class="st26" d="M401,247.01c-3.56,4.3-8.73,6.87-13.99,7.99l5.64-5.86,8.35-2.13Z"/>
  <path class="st129" d="M859,352c-3.3-1.06-8.86,12.66-9,4,.33-.67.36-1.31,1-2,3.52-3.84,5.99.23,5-7,.94,1.66,2.04,3.3,3,5Z"/>
  <path class="st8" d="M844,641c.76-.85,4.67-6.44,5.99-5,1.56,1.7-3.96,6.53-4.99,8l-1-3Z"/>
  <path class="st214" d="M480,341c2.62.69,8.96-5.87,9.99-4.99,1.76,1.49-7.05,5.11-5.99,7.99-.59-.31-2.51-2.16-4-3Z"/>
  <path class="st169" d="M316,846.01c-2.47,10.86-6.52,21.27-9.51,31.98-16.27,58.37-32.78,120.57-58.22,175.82-.65,1.42.59,2.73-2.26,2.18,5.95-33.33,16.34-65.79,28-97.51l-1.98-1.47-18.04,24.98c-.82-.04-1.92.44-1.99-.5-.33-4.25,18.56-26.61,21.84-33.16,2.4-4.8,2.86-10.43,6.16-14.85l-2.01-1c-8.39,9.65-15.98,20.05-24.14,29.86-.7.84-1.66,2.85-2.84,1.17,2.22-4.17,5.14-8.27,8.01-11.99,16.34-21.14,34.59-33.42,37-63.01.09-1.15.18-2.18-1.03-1.02-5.62,5.37-11.63,17.07-16.98,23.74-3.48,4.34-10.78,12.99-14.5,16.79-1.16,1.19-3.57,3.83-3.5.5,10.72-15.1,23.32-28.93,33.82-44.19,4.59-6.68,13.45-19.32,15.1-26.9.13-.59.72-4.43-.94-2.94-12.15,15.16-25.09,29.43-38.5,43.51-.75.16-.67-1.02-.48-1.48,1.66-4.07,15.1-16.78,18.93-21.31,8.93-10.57,11.49-16.37,22.98-24.78,1.71-1.25,2.11-4.88,5.07-4.42Z"/>
  <path class="st130" d="M306,996c-11.78,21.06-20.25,47.78-31.46,70.04-14.96,29.7-32.76,63.18-51.55,90.45-1.16,1.69-3.38,4.14-4.97,5.52,0-1.74-.26-3.54.23-5.26,1.82-6.36,11.59-23.93,15.24-30.76,6.48-12.13,14.79-24.36,21.33-36.67,16.13-30.35,31.16-65.42,49.19-94.31,2.12-3.51,4.02-2.86,2,1Z"/>
  <path class="st75" d="M317.99,278c.47,1.99-1.85,2.48-1.81,4.31.08,3.34,4.96,18.4,6.35,22.65,3.42,10.44,8.98,20.35,11.45,31.04-6.58-8.93-12.2-22.13-15.73-32.76-2.09-6.28-3.61-12.65-4.26-19.25-1.4-.18-2.68.09-4.03.47-11.33,3.24-35.19,14.69-46.86,20.14-16.65,7.78-32.28,17.96-49.11,25.38,31.65-22.3,66.38-41.77,103.99-51.99Z"/>
  <path class="st75" d="M360.99,1158c.17,1.69-.05,3.19-.75,4.74-2.79,6.17-29.2,28.78-35.77,35.23-10.26,10.07-20.22,20.45-30.46,30.54l-14.01,10.49c-.79-.82,2.74-5.1,3.48-6.01,5.18-6.29,12.5-11.32,18.06-16.95,15.45-15.65,30.05-31.87,46.41-46.6,1.83-1.65,5.43-3.02,7.59-5.37s2.41-5.8,5.45-6.06Z"/>
  <path class="st204" d="M767.01,485c-.16-2.56.92-4.92,1.03-7.46,1.59-37.62,8.23-74.85,14.05-111.95.16-1.04.4-3.74,1.9-3.58-.38,8.02.56,16.52,0,24.48-1.56,21.95-8.56,45.3-11.87,67.13-1.26,8.33-1,18.57-2.36,26.64-.27,1.58-.93,4.25-2.75,4.74Z"/>
  <path class="st75" d="M640.42,384.42c-12.67,11.31-37.93,31.53-53.71,36.8-1.91.64-2.15,1.4-3.7-.73-.31-1.61,1.84-2.46,2.86-3.12,6.48-4.18,13.5-7.76,19.87-12.13,21.39-14.69,41.58-31.71,61.26-48.23.22.99-.04,1.29-.47,2.01-2.95,4.97-20.74,20.62-26.1,25.4Z"/>
  <path class="st78" d="M366,1120.01c-5.14,10.35-15.68,18.33-23.51,26.98-21.91,24.19-43.01,49.31-66.48,72.01l1.54-4.95c23.15-26.33,47.06-51.93,70.89-77.64l17.56-16.4Z"/>
  <path class="st204" d="M714,288c13.59,7.18,29.63,10.75,43.86,16.64,17.52,7.25,37.71,15.9,54.51,24.49,1.32.68,3.23,1.23,3.63,2.86-6.81.35-12.12-4.11-18.03-6.46-29.24-11.62-56.62-21.58-84.97-35.53-1.28-2.04-1.67-2.17,1-2Z"/>
  <path class="st74" d="M369.99,1078.01l-86.98,100.99c-.52-2,.66-2.72,1.45-4.04,19.23-32.44,55.55-63.93,80.02-93l5.52-3.95Z"/>
  <path class="st49" d="M337.65,1135.65c-16.26,17.72-34.13,35.43-49.06,54.43-3.12,3.97-4.97,9.26-9.58,11.91,4.58-10.58,12.68-20.53,20.01-29.47,13.08-15.94,29.56-33.04,43.95-48.05,7.99-8.33,16.52-16.16,24.53-24.47,1.46,1.98-1.36,4.94-2.53,6.47-7.08,9.15-19.08,20.21-27.32,29.18Z"/>
  <path class="st71" d="M609.99,1126.01c.46,2.05-.45,2.67-1.45,4.04-18.15,24.86-46.51,44.91-67.03,68-1.77.07-8.27,9.38-9.51,7.95s3.94-7.17,5.02-8.47c17.62-21.14,41.79-38.25,59.45-59.55l13.52-11.97Z"/>
  <path class="st27" d="M332.35,1176.35c-13.6,14.54-26.95,29.47-41.41,43.09l-10.93,6.56,83.99-87.51c5.47,1.68-3,6.76-4.54,8.47-8.95,9.93-18.07,19.73-27.11,29.39Z"/>
  <path class="st74" d="M543.65,1113.65c-2.85,2.66-6.79,5.22-9.66,7.84-1.73,1.57-6.99,8.25-7.5,8.51-3.47,1.75.26-4.1.99-5.01,8.92-11.13,23.31-22.83,33.54-33.46,15.45-16.03,29.67-33.38,46.96-47.53.41,1.96-.44,2.69-1.44,4.05-4.87,6.62-14.11,15.52-20.03,21.97-13.69,14.89-28.07,29.85-42.86,43.64Z"/>
  <path class="st94" d="M575.65,1103.65c-13.26,14.38-26.97,29.74-40.63,43.87-1.13,1.17-2.16,2.78-4.02,2.47-1.11-1.16,8.57-12.67,10.02-14.47,19.8-24.55,42.7-46.3,64.96-68.53.12,1.88-1.54,3.44-2.59,4.9-7.46,10.35-18.93,22.19-27.75,31.75Z"/>
  <path class="st30" d="M289.01,1154l6.76-13.73c22.21-29.96,50.61-54.37,75.22-82.27-.31,2.93-3.23,7.24-4.99,9.5-14.54,18.67-36.4,37.28-52.52,55.48-8.81,9.95-16.36,20.69-24.48,31.01Z"/>
  <path class="st71" d="M354.99,1179c-1.1,7.44-9.94,14.94-15.34,20.64-10.63,11.23-24.59,25.97-36.06,35.91-1.28,1.1-10.67,9.38-11.58,8.43-.43-1.87,1.05-2.38,1.99-3.5,5.77-6.87,12.5-12.9,17.98-20.02l43.02-41.47Z"/>
  <path class="st159" d="M382.99,981.01c1.92,2.05-15.87,18.24-17.97,20.48-10.04,10.76-21.17,22.3-30.55,33.5-8.31,9.92-15.71,20.68-23.47,31.02.25-5.77,5.38-11.93,8.77-16.72,14.15-20.04,32.75-38.17,48.57-56.93l14.64-11.34Z"/>
  <path class="st159" d="M612.99,1161.01c-2.99,8.22-10.4,14.93-16.47,21.02-16.42,16.49-35.02,30.72-52.18,46.32-2.57,2.34-4.71,8.14-9.35,7.64-2.14-1.67,35.74-35.44,39.01-37.48l38.98-37.51Z"/>
  <path class="st27" d="M346.99,749.01c1.16,1.23-10.15,15.73-11.69,17.73-11.28,14.64-23.8,28.21-35.82,42.25-5.6,6.54-11.02,15.1-16.97,21.03-1.06,1.06-1.73,2.35-3.52,1.97,13.65-18.37,27.28-36.94,42.03-54.46,6.86-8.16,15.54-18.73,22.78-26.22.98-1.02.98-2.83,3.19-2.3Z"/>
  <path class="st159" d="M382.99,1000c.43,2.01-.43,2.67-1.45,4.04-7.08,9.57-16.14,17.2-24.06,25.94-15.29,16.86-30,34.31-45.48,51.01.95-4.61,5.53-10.09,8.57-13.92,18.24-22.96,39.41-43.36,59.01-64.99,1.01-1.11,1.48-2.51,3.4-2.09Z"/>
  <path class="st94" d="M323.58,1087.58c-6.08,6.6-13.3,13.73-18.62,20.92-.97,1.31-.86,3.36-.97,3.5-1.53,1.76-2.45-.74-1.46-2.97,10.33-23.34,49.23-51.28,66.02-71.98,1.43-1.76,1.36-4.22,3.44-5.05.87,4.51-2.81,7.82-5.48,11.01-12.65,15.17-29.31,29.78-42.93,44.57Z"/>
  <path class="st104" d="M607.99,1024.01c-.32,4.17-4.38,8.23-7.02,11.47-17.32,21.23-36.92,40-56.62,58.88-4.25,4.08-8.1,9.65-12.85,13.65-1.12.95-1.63,2.42-3.5,1.99l79.99-85.99Z"/>
  <path class="st104" d="M587.99,950.01c-1.13,3.12-3.95,6.64-6.05,9.2-11.58,14.14-26.78,27.28-38.92,41.32-11.26,13.01-21.17,27.15-32.02,40.47,3.18-7.43,8.37-14.76,13.16-21.33,13.12-18.01,28.67-34.17,43.81-50.19l20.02-19.47Z"/>
  <path class="st199" d="M591.58,1167.58c-15.16,15.9-32.45,32.01-49.11,46.39-1.94,1.68-5.01,4.38-7.47,5.02l73.5-72.99c1.38,1.28-.27,3.76-1.05,4.95-2.69,4.05-11.85,12.41-15.87,16.63Z"/>
  <path class="st30" d="M604.99,1112.01c.21,2.06-1.33,3.54-2.48,5.01-17.49,22.59-46.27,43.84-64.49,66.22-3.52,3.14-4.27,1.38-1.57-2.29,6.14-8.34,17.96-19.58,25.52-27.48,11.55-12.06,27.03-29.14,39.52-39.48,1.13-.93,1.62-2.43,3.5-1.99Z"/>
  <path class="st27" d="M532.01,1165.99c-.83-.85,4.66-7.66,5.6-8.89,10.64-13.95,23.96-24.94,36.05-37.45,8.34-8.63,15.85-18.16,24.34-26.65.36,2.5-1.36,4.08-2.59,5.9-12.59,18.72-40.88,45.35-57.38,62.62-.85.89-4.98,5.53-6.02,4.47Z"/>
  <path class="st104" d="M545.58,1033.58c-7.82,8.7-16.07,16.95-23.09,26.41l.69-3.31c21.07-28.3,46.14-53.55,69.8-79.69.17,3.56-2.87,6.8-5.02,9.47-12.75,15.83-28.66,31.83-42.39,47.11Z"/>
  <path class="st27" d="M347.99,729.01l-55.98,74.99c.67-7.49,7.41-12.36,11.42-18.07,11.7-16.64,24.36-37.2,38.05-51.95.86-.93,5.43-6.06,6.51-4.98Z"/>
  <path class="st199" d="M387,952.01c1.03.93-4.12,7.32-5.03,8.46-9.03,11.42-19.93,21.12-29.62,31.88-9.62,10.68-18.49,22.16-28.34,32.65.76-4.39,4.83-9.25,7.57-12.92,11.97-16.01,27.36-30.41,40.93-45.07,3.83-4.13,7.56-9.74,11.18-13.79.9-1,2.13-2.27,3.3-1.22Z"/>
  <path class="st20" d="M604,1008.01l-75.99,83.99,2.01-4.48c23.8-25.55,44.66-53.94,70.13-77.87,1.31-1.23,1.43-2.16,3.85-1.63Z"/>
  <path class="st75" d="M353.99,1198.01c.71.67-5.18,7.51-6.02,8.47-8.42,9.59-25.26,27.52-34.96,35.04-1.48,1.15-2.96,2.69-5.01,2.48l6.99-10.5c7.04-5.62,11.97-13.76,18.04-20,5.63-5.79,13.35-13.21,20.96-15.49Z"/>
  <path class="st27" d="M387.99,925.01c.29,1.61-.9,2.51-1.72,3.72-15.96,23.47-35.66,43.92-54.27,65.28.69-4.21,4.4-9.04,7.01-12.48,8.3-10.95,19.17-21.42,27.95-32.05,5.32-6.43,9.75-14.47,15.52-20.48.81-.84,4.49-5.06,5.51-3.98Z"/>
  <path class="st20" d="M518,1007c12.68-18.27,27.81-34.47,42.51-50.99,8.53-9.58,15.88-20.54,26.48-28.01.41,1.95-.44,2.69-1.44,4.05-2.86,3.9-9.02,8.76-12.54,12.74-16.6,18.79-40.17,43.21-54.01,63.21-1.41,1.33-1.92.77-1-1Z"/>
  <path class="st173" d="M613.99,1182.01c.45,2.04-.44,2.67-1.45,4.04-4.46,6.04-16.08,16.29-22.02,21.98-11.61,11.12-25.82,24.85-38.02,34.98-1.13.93-1.62,2.42-3.5,1.99-.43-1.88,1.06-2.37,1.99-3.5,13.82-16.67,33.68-30.45,47.99-47.01l15.01-12.48Z"/>
  <path class="st175" d="M240.01,481c.71-9.21-1.49-18.33-2.05-27.46-.38-6.29.49-12.74.03-19.03-1.24-17-5.87-33.73-7.98-50.51,1.93.57,2.4,2.83,3.03,4.46,7.6,19.49,5.9,42.6,6.97,63.03.45,8.6,3.1,16.42,2.02,26.05-.17,1.5-.21,3.09-2.03,3.46Z"/>
  <path class="st121" d="M276.01,857c-.34-1.69.82-2.65,1.6-3.89,3.46-5.52,8.96-12.61,12.98-18.02,13.56-18.25,28.39-37.08,44.4-53.09l-58.98,75Z"/>
  <path class="st121" d="M578,978c-12.26,13.87-23.33,29.05-35.49,43.01-8.52,9.79-18.23,18.89-26.5,28.99,2.27-5.61,7.12-11.67,11.02-16.47,14.87-18.33,32.78-39.47,48.97-56.53,1.99-1.41,2.39-1.62,2,1Z"/>
  <path class="st142" d="M303.01,768c-.28-3.13,1.97-5.53,3.58-7.91,5.67-8.39,14.09-16.55,20.38-24.62,8.5-10.89,15.67-23.23,26.02-32.47-.35,3-2.5,5.89-4.16,8.33-6.03,8.84-13.78,19.13-20.41,27.59-7.76,9.91-16.57,20.25-25.41,29.08Z"/>
  <path class="st121" d="M275.98,875.99c-.62.54-2.46.38-1.93-1.43.57-1.95,8.65-12.96,10.53-15.48,7.88-10.54,16.19-21.3,24.44-31.56,5.96-7.41,12.53-14.53,18.96-21.53l-52.01,69.99Z"/>
  <path class="st160" d="M293.99,517c1.59,1.74-8.85,16.51-10.58,18.91-10.79,14.98-23.48,29.02-35.41,43.08,1.2-3.63,4.01-7.15,6.17-10.32,9.49-13.9,20.17-28.2,30.4-41.6.95-1.25,8.11-11.5,9.41-10.08Z"/>
  <path class="st83" d="M579,916c2.2-1.59,3.14-.04,1.55,2.16-4.84,4.61-9.02,9.55-12.55,14.84-6.64,6.78-13.98,13.03-20.51,19.99-10.94,11.66-20.47,24.86-31.99,36.01l-.49-1.48c8.67-10,16.74-20.59,25.48-30.53,11.08-12.6,26.23-30.2,38.51-40.99Z"/>
  <path class="st27" d="M397,406c2.95,3.35,1.74,4.27-2,2-16.82-11.73-33.29-24-46.51-39.99-.84-1.02-5.19-6.21-4.48-7.01,10.91,9.17,21.07,19.33,31.98,28.51,5.99,5.05,14.52,12.64,21.01,16.49Z"/>
  <path class="st83" d="M594,1000c-9.5,13.07-20.24,22.28-30.51,33.99-9.97,11.36-19.61,25.14-30.08,35.92-.63.65-2.3,3.16-3.4,2.09-1.29-1.25,14.26-17.75,15.02-20.47,15.39-18.42,33.71-34.16,47.98-53.52,2.22-1.07,1.83.12,1,2Z"/>
  <path class="st160" d="M741.99,1180.01l-10.47,12.02c-15.15,11.59-27.54,26.81-42.05,38.95-.95.79-5.71,4.7-6.47,4.02,13.85-17.83,32.18-31.58,49.01-46.48,1.35-1.2,8.68-9.72,9.98-8.51Z"/>
  <path class="st160" d="M294.99,501.01l-44.98,60.99c-.23-1.69.35-2.93,1.13-4.35,5.94-10.78,19.22-27.62,27.04-37.96,3.63-4.79,9.26-12.72,13.3-16.7,1.07-1.05,1.73-2.35,3.51-1.98Z"/>
  <path class="st160" d="M248.01,593.99l14.6-21.89,27.39-34.1c-4.5,13.38-15.82,24.12-24.4,35.09-4.22,5.39-8.2,12.22-12.61,17.39-.71.83-3.92,4.58-4.97,3.52Z"/>
  <path class="st212" d="M291.99,565.01c.33,1.69-.84,2.64-1.6,3.89-10.18,16.7-24.69,30.24-35.42,46.58l-2.97,2.52c-.33-.39,3.51-7.37,4.15-8.34,7.9-12.07,21.01-31.12,30.81-41.19.79-.81,4.04-4.51,5.02-3.47Z"/>
  <path class="st104" d="M246.01,608.99l44.98-57.99c.28,1.68-.39,2.94-1.14,4.35-7.86,14.78-26.5,30.64-35.34,45.66l-8.51,7.98Z"/>
  <path class="st104" d="M738,1198c3.24-3.01,4.39-1.61,2,2-12.16,12.8-30.46,27.98-44.52,38.98-3.67,2.87-8.6,4.73-3.38-.38,14.44-14.13,31.91-26.41,45.91-40.59Z"/>
  <path class="st22" d="M731.99,1168.01c.81.66-2.97,4.43-3.47,4.98-6.19,6.87-13.17,11.44-19.54,17.5-7.15,6.79-16.65,18.72-23.94,24.06-1.36,1-2.09,1.86-4.05,1.44-.37-.29,2.37-3.93,2.95-4.54,10.98-11.62,23.07-22.3,35.06-32.94,2.02-1.79,10.74-12.33,12.98-10.51Z"/>
  <path class="st138" d="M773.99,998c.39,2.73-1.75,4.38-3.19,6.35-3.92,5.41-13.02,13.31-15.72,18.31-1.3,2.42,0,3.72-.6,5.28-.87,2.23-9.62,10.52-11.97,10.06-4-.78,3.5-9.17,4.51-10.47,6.1-7.86,16.46-21.08,23.62-27.36,1.01-.89,1.22-2.7,3.35-2.16Z"/>
  <path class="st83" d="M530.01,885.99l46.99-55.99-2.98,7.51c-14.23,14.14-25.65,31.08-39.5,45.5-.78.81-3.47,3.98-4.51,2.98Z"/>
  <path class="st20" d="M576,905c-12.81,13.67-24.73,28.33-37.49,42.01-6.48,6.95-13.54,13.54-20.5,19.99-.44-1.88,1.05-2.38,1.99-3.5,6.49-7.77,13.76-14.94,20.52-22.48,11.32-12.65,22.66-24.79,34.49-37.01,1.41-1.33,1.92-.77,1,1Z"/>
  <path class="st104" d="M695.65,1187.65c-2.21,2.06-11.33,11.14-12.67,11.83-1,.52-1.87.66-2.98.51-.31-.24,1.95-3.37,2.48-4.01,8.48-10.45,28.88-28.89,39.51-38.49,2.5-2.26,5.54-4.15,8-6.49.23,2.06-1.32,3.54-2.47,5.02-7.35,9.39-22.71,23.11-31.87,31.63Z"/>
  <path class="st157" d="M434.01,1206.99c-.77-.8,3.25-5.23,4.05-6.2,10.09-12.23,22.72-27.25,33.9-38.34.67-.66,5.8-4.76,6.04-4.45.52,2.05-.61,2.7-1.46,4.03-7.75,12.13-22.4,22.19-30.5,34.5l-12.02,10.47Z"/>
  <path class="st33" d="M275.59,511.6c-6.04,8.28-13.01,16.1-19.08,24.42-3.47,2.79.15-3.97.47-4.53l40.01-54.48c.28,2.47-1.12,4.29-2.19,6.3-4.52,8.45-13.37,20.29-19.21,28.29Z"/>
  <path class="st160" d="M534.58,799.58c-1.25,1.46-6.58,8.19-7.1,8.41-3.49,1.48.6-5.12,1.1-5.9,9.48-14.78,24.49-28.19,35.4-42.09.26,1.86-.03,2.94-.94,4.55-5.89,10.35-20.29,25.47-28.46,35.04Z"/>
  <path class="st157" d="M285.99,605c.3,1.7-.4,2.92-1.14,4.35-4.67,8.94-17.67,21.89-24.26,30.74-4.16,5.58-7.05,12.59-12.58,16.91,4.46-10.27,11.84-20.86,18.58-29.91,4.67-6.28,10.82-14.24,16.21-19.79.98-1.01.98-2.83,3.19-2.3Z"/>
  <path class="st212" d="M565.99,737.01c-.55,4.11-4.16,8.49-6.58,11.91-6.49,9.15-15.18,19.9-22.44,28.56-3.7,4.42-7.9,8.47-11.97,12.52.14-2.49,2.15-4.96,3.57-6.92,9.71-13.33,21.82-28.98,32.45-41.54,1.36-1.61,2.78-4.79,4.96-4.53Z"/>
  <path class="st20" d="M435.01,1225c-.3-1.65.76-2.69,1.58-3.92,4.04-6.09,11.05-14.34,15.9-20.1,8.62-10.22,18.95-20.63,28.5-29.99-2.14,5.63-7.46,11.3-11.48,16.01-4.72,5.55-10.22,10.54-15.03,15.97-6.47,7.3-11.85,15.85-19.48,22.01Z"/>
  <path class="st83" d="M573.99,813.01c-2.56,5.85-7.79,11.37-12.05,16.2-10.98,12.45-23.99,23.25-34.93,35.79-.52-2,.66-2.72,1.45-4.04,4.39-7.38,14.7-17.01,21.07-22.93l24.47-25.02Z"/>
  <path class="st183" d="M401.99,880c.44,3.65-2.5,7.08-4.58,9.91-7.59,10.38-18.03,22.56-26.45,32.54-1.35,1.6-2.78,4.79-4.96,4.53-.56-2.07.66-2.71,1.46-4.03,6.23-10.4,16.06-20.02,22.57-30.43l11.96-12.52Z"/>
  <path class="st212" d="M327.59,719.6c-3.52,4.55-7.43,8.95-11,13.49-1.06,1.34-2.4,4.72-2.61,4.9-1.55,1.33-2.75-.78-1.48-2.99,5.42-9.46,17.93-24.92,25.09-33.91,5.04-6.34,10.16-12.93,16.4-18.09-1.38,3.74-4.23,7.68-6.58,10.91-6.14,8.47-13.35,17.33-19.82,25.68Z"/>
  <path class="st142" d="M801,1192c2.77-.46,2.46.92,1,3-10.31,9.64-20.34,21.46-30.99,30.51-.95.81-6.29,5.22-7.01,4.48-.43-1.88,1.06-2.37,1.99-3.5,10.53-12.66,23.35-23.04,35-34.5Z"/>
  <path class="st20" d="M719.99,1141.01c.43,1.88-1.06,2.37-1.99,3.5-11.97,14.44-27.03,26.94-39.99,40.5,1.16-5.58,7.11-11.19,11.02-15.51,7.28-8.04,19.14-19.58,27.47-26.49,1.13-.93,1.62-2.42,3.5-1.99Z"/>
  <path class="st20" d="M759.59,991.6c-5.08,7.05-14.24,20.94-20.69,25.81-.87.66-4.16,3.34-4.9,2.59.04-3.9,4.04-5.18,5.99-7.49,8.55-10.12,17.83-27.15,26.59-35.41.96-.91,2.14-1.68,3.4-2.09,1.25,1.61-8.7,14.24-10.4,16.6Z"/>
  <path class="st20" d="M576.42,1236.42c-1.19,1.02-10.53,11.35-8.93,5.57l44.51-43.98c.28,1.8-.17,3-.91,4.58-3.22,6.81-27.67,27.88-34.66,33.84Z"/>
  <path class="st33" d="M526,843.99l8.05-11.2,35.94-37.79c-3.15,7.06-9.26,14.18-14.48,20.01-7.44,8.32-15.76,16.38-23.49,24.51-.87.91-4.94,5.51-6.03,4.46Z"/>
  <path class="st116" d="M713.39,1104.38c-7.86,9.41-21.25,22.05-30.36,30.86-.86.83-1.87,1.42-3.01,1.76-.79-.82,7.87-12.16,9.02-13.47,8.12-9.25,19.62-17.74,28.47-26.53,1.75,3.34-2.64,5.6-4.12,7.37Z"/>
  <path class="st104" d="M759.99,905.01c.87.92-3.2,6.36-4.02,7.47-8.97,12.25-21.07,23.47-30.48,35.5-2.99-1.86.05-4.52,1.53-6.45,7.02-9.22,18.59-23.1,26.46-31.54.84-.9,5.47-6.08,6.51-4.98Z"/>
  <path class="st79" d="M692,296c-3.73,11.71-11.34,26.91-19.5,36-.76.14-.63-.95-.51-1.51.53-2.49,6.41-12.4,8.02-15.99,3.89-8.7,8.45-18.05,12-26.5l2.01-.49c-1.19,2.6-1.23,6.02-2.01,8.49Z"/>
  <path class="st183" d="M391.58,879.58c-5.49,7.19-14.24,19.18-20.17,25.33-.62.64-2.31,3.17-3.4,2.09-.89-.88,9.58-14.8,10.6-16.89l23.38-28.11c1.87,2.55-8.36,14.89-10.41,17.58Z"/>
  <path class="st83" d="M719.98,901.99c-4.12,3.57.45-5.52,1.06-6.46,6.36-9.85,20.1-27.06,28-36,.81-.92,1.74-2.22,2.96-2.53-5.03,14.88-17.9,26.76-27.96,38.53-1.18,1.38-3.76,6.21-4.05,6.46Z"/>
  <path class="st116" d="M544.35,741.35c-1.75,1.81-3.08,5.73-6.35,5.64-.36-.33,4.33-6.59,5.03-7.46,7.91-9.93,19.55-26.42,27.95-34.77.5-.49,2.8-2.04,3.01-1.76.28,3.14-1.98,5.53-3.58,7.91-7.33,10.92-16.96,21.03-26.06,30.44Z"/>
  <path class="st83" d="M677.01,1163c-.38-2.61,1.06-4.15,2.47-6.02,5.6-7.45,22.04-22.91,29.51-29.49,3.73-3.29,8.56-5.68,12-9.49.2,2.34-1.65,3.91-2.96,5.53-7.07,8.66-20.13,18.35-28.55,26.45-4.34,4.18-8.25,8.74-12.46,13.03Z"/>
  <path class="st216" d="M524.01,829l1.44-4.05,40.54-43.95c-.46,2.56-2.67,5.19-4.17,7.32-10.5,14.91-24.61,28.16-37.81,40.68Z"/>
  <path class="st212" d="M254,1134c-4.13,4.86-10.04,13.6-14.3,19.26-5.86,7.79-10.76,17.7-18.19,23.75-1.36-.61.12-2.58.5-3.5,5.47-13.15,21.53-27.13,29.99-39.51,1.87-2.61,2.94-3.66,2,0Z"/>
  <path class="st104" d="M760.99,919c.5,4.49-5.06,7.23-7.02,9.75-4.88,6.28-8.82,13.66-14,19.72-1.51,1.76-12.51,12.47-13.47,12.51-.51.02-2-1.5-1.02-3,.84-1.3,8.79-7.37,11.04-9.97,4.75-5.49,8.7-12.87,13.52-18.48l10.96-10.53Z"/>
  <path class="st216" d="M798.99,1186c.43,2.02-.44,2.67-1.45,4.04-6.15,8.36-23.54,22.72-32.07,29.93-2.38,2.01-5.58,5.04-8.47,6.02-1.13-1.16,8.65-10.25,9.98-11.51,8.5-8.02,17.82-15.47,26.51-23.49,1.81-1.67,2.45-5.22,5.5-4.99Z"/>
  <path class="st104" d="M799.99,1170.01l-11.02,14.47c-8.42,7.91-14.89,17.93-25.97,22.52l36.99-36.99Z"/>
  <path class="st142" d="M783.99,1070c.29,1.86,0,2.95-.95,4.55-2.11,3.6-23.41,24.28-28.03,28.69-.86.83-1.87,1.42-3.01,1.76-1.48-1.87,7.78-12.1,9.48-14.01,5.3-5.96,11.67-11.07,16.99-17.03l5.52-3.95Z"/>
  <path class="st51" d="M475.99,1140.01c-.4,3.77-4.87,7.93-7.48,11.01-8.02,9.44-19,23.2-27.51,31.49-.59.58-3.72,2.81-3.99,2.5,1.26-6.31,7.31-9.82,10.48-15.01l28.51-29.98Z"/>
  <path class="st183" d="M796,1144.01c.42,1.92-.98,2.39-2.09,3.4-9.17,8.32-17.04,18.03-26.32,26.15-1.17,1.02-6.04,5.67-7.58,4.44.53-1.49,1.48-2.8,2.48-4.01,5.52-6.78,17.76-18.68,24.51-24.49,1.29-1.11,7.66-6.71,9.01-5.48Z"/>
  <path class="st100" d="M357.99,659.01c1.26,1.31-5.17,7.66-5.95,8.77-8.44,11.96-16.74,25.56-25.74,36.96-.43.54-3.38,4.33-4.3,3.26-.54-.64,3.24-6.33,3.97-7.52,7.27-11.69,19.66-29.18,28.81-39.19.99-1.08,1.05-2.79,3.21-2.28Z"/>
  <path class="st33" d="M283.99,589.01c-3.75,9.43-11.82,16.76-17.97,24.52-3.84,4.85-7.06,10.19-11.06,14.93-1.35,1.6-2.78,4.79-4.96,4.53,3.57-7.47,8.98-14.83,14.02-21.47,4.02-5.29,9.12-11.48,13.46-16.54,1.67-1.95,3.99-5.56,6.51-5.98Z"/>
  <path class="st33" d="M723,936.99c-1.18-1.07,5.25-6.21,5.02-8.25,2.63-1.63,24.83-35.09,26.96-32.75,0,2.38-1.92,4.43-3.17,6.32-5.75,8.62-13.91,19.46-20.4,27.6-1.14,1.43-6.59,8.74-8.41,7.08Z"/>
  <path class="st212" d="M717.98,889c-2.53,2.42-1.93-2.66-1.05-4.57,2.76-5.99,20.93-28.94,26.1-34.9.49-.57,3.56-3.97,3.96-3.53l-29.01,43Z"/>
  <path class="st20" d="M754.99,884.01l-32.98,40.99c-.02-5.49,6.54-10.19,9.96-14.53,5.12-6.49,10.22-14.35,15.52-20.48.81-.94,6.43-7.06,7.51-5.98Z"/>
  <path class="st166" d="M781.99,1056.01c.95,1.09-1.4,2.78-1.99,3.5-5.4,6.48-11.89,14.41-17.49,20.51-3.14,3.42-7.99,9.4-12.51,9.98-.87-.81,8.59-12.01,9.48-13.01,5.33-5.95,11.65-11.08,16.99-17.03,1.17.05,4.41-5.21,5.52-3.95Z"/>
  <path class="st83" d="M768.99,965.01c1.26,1.31-12.67,16.84-14.41,19.08-5.17,6.66-11.01,16.34-16.71,22.29-4.68,4.88-4.07.51-1.31-3.31,6.23-8.63,14.7-19.05,21.47-27.53,1.02-1.28,9.57-11.98,10.97-10.52Z"/>
  <path class="st44" d="M733.8,983.76c-2.42,1.4-3.79-.27-2.33-2.8.67-1.15,5.28-3.94,7.04-5.96,9.06-10.38,14.96-24.58,26.48-33.01l-2.58,5.91-28.61,35.86Z"/>
  <path class="st47" d="M579.99,851.01l-13.02,17.47c-7.95,6.98-13.43,16.78-21.47,23.53-1.12.94-1.62,2.42-3.5,1.99l37.99-42.99Z"/>
  <path class="st9" d="M762.99,930.01c.42,1.86-.55,2.76-1.34,4.15-5.85,10.3-20.01,27.16-29.15,34.85-1.12.94-1.62,2.42-3.5,1.99l33.99-40.99Z"/>
  <path class="st100" d="M773.99,986.01c.27,1.62-.76,2.71-1.58,3.92-5.25,7.77-21.1,27.14-27.95,33.05-.98.85-6.73,5.69-7.47,5.02,10.98-10.57,19.32-23.81,29.05-35.2.99-1.16,6.81-7.96,7.94-6.79Z"/>
  <path class="st133" d="M765.99,955c.19,1.57-.24,2.94-1,4.28-3.27,5.74-22.98,30.62-27.94,34.26-1.36,1-2.09,1.86-4.05,1.44l32.99-39.99Z"/>
  <path class="st164" d="M700,298c.13.19,3.09-.48,2,3-3.75,8.09-7.27,17.95-12.2,25.3-.83,1.23-3.69,6.71-5.8,4.69-1.32-1.27,14.83-28.98,15.99-32.99Z"/>
  <path class="st133" d="M733.99,685.01c.56,2.08-.65,2.71-1.46,4.03-6.88,11.37-17.01,25.24-25.57,35.42-1.35,1.6-2.79,4.79-4.96,4.53l31.99-43.99Z"/>
  <path class="st212" d="M672.01,1107c-.18-2.96,2.68-5.8,4.48-8.01,8.28-10.22,18.87-19.6,28.01-28.98v3s-32.48,34-32.48,34Z"/>
  <path class="st133" d="M740,804.01c-1.88,6.37-7.31,9.84-10.97,14.52-5.76,7.36-12.55,18.72-19.53,24.47-1.13.93-1.61,2.43-3.49,2-1.61-1.66,12.31-15.74,13.95-17.77,5.55-6.85,10.46-14.77,16.63-21.13,1.04-1.07,1.44-2.54,3.41-2.08Z"/>
  <path class="st18" d="M704.99,803.99l-.45-3.95c10.55-12.96,19.88-26.94,31.45-39.04l-31,42.99Z"/>
  <path class="st166" d="M553.99,620c1.05,1.14-3.81,8.23-4.77,9.72-6.28,9.79-14.08,19.58-20.77,29.27-.75,1.09.29,2.62-2.46,2,1.08-5.19,4.86-10.31,7.77-14.72,5.32-8.06,11.4-16.07,17.04-23.96.5-.7,1.98-3.61,3.17-2.32Z"/>
  <path class="st216" d="M705.59,708.59c-.13.17-4.24,5.25-3.61,1.9,8.45-14.11,18.78-27.57,30.01-39.49-3.24,10.52-11.8,17.81-18.41,26.08-2.79,3.49-5.18,8-7.99,11.51Z"/>
  <path class="st20" d="M779.99,1031c.12,3.09-3.09,6.04-5.01,8.48-7.28,9.19-15.34,18.05-23.48,26.5-2.3-1.77-1.07-1.46-.11-3.08,6.65-11.22,19.38-22.58,28.6-31.9Z"/>
  <path class="st157" d="M327,1239.99c2.82-4.34,20.17-27.1,23.51-26.97,1.19,1.09,1.93,1.25,1.01,2.99-.86,1.64-7.27,9.04-9,11-2.56,2.9-8.63,9.45-11.47,11.53-1.36,1-2.09,1.86-4.05,1.44Z"/>
  <path class="st20" d="M613.99,1214c.53,2.04-.65,2.71-1.45,4.03-.87,1.45-6.72,8.66-8.01,10-5.95,6.2-14.8,12.42-21.53,17.96-2.12-2.51,10.54-11.99,12.51-13.96,4.87-4.86,10.28-11.82,14.96-16.07,1.11-1,1.72-2.35,3.52-1.97Z"/>
  <path class="st83" d="M722.01,912c-.43-2.01.43-2.67,1.45-4.04,6.5-8.78,13.64-17.97,20.58-26.42,2.72-3.31,5.51-6.92,8.96-9.53-1.09,4.59-4.77,9.08-7.58,12.91-5.13,7.01-14.15,19.09-20.01,24.99-1.04,1.05-1.43,2.54-3.4,2.09Z"/>
  <path class="st183" d="M797,1159.01c1.19,1.15-20.3,22.11-22.53,23.96-1.11.92-9.8,7.7-10.46,7.02-.43-1.88,1.06-2.37,1.99-3.5,5.6-6.73,16.67-16.56,23.53-22.47.95-.82,6.76-5.71,7.47-5.02Z"/>
  <path class="st58" d="M688,283c-1.02,3.54-4.9,17.69-7.51,18.99-1.39.7-1.54-.32-1.52-1.51.08-5.31,6.24-23.69,9.03-28.48.13-.23,3.3-4.06,4.01-3.49-1.85,4.7-2.61,9.65-4.01,14.49Z"/>
  <path class="st170" d="M741.99,814l-31.98,43.99c2.11-6.31,6.75-12.41,10.58-17.91,4.41-6.35,12.49-18.39,17.44-23.56,1.15-1.19,1.97-2.88,3.96-2.53Z"/>
  <path class="st60" d="M725.58,863.58c-3.43,4.07-7.39,7.69-10.09,12.41-2.02.35-1.77-.58-1.09-2.09,3.37-7.4,18.53-23.47,24.57-30.42,2.07-2.39,2.52-5.72,6.02-6.48,1.54,1.69-17.18,23.93-19.41,26.58Z"/>
  <path class="st44" d="M791.99,1118.01c.7.69-4.65,7.06-5.48,8.01-4.61,5.29-10.33,9.73-14.99,15.01l-12.52,9.97c-.43-1.88,1.05-2.37,1.99-3.5,6.55-7.83,19.67-20.98,27.5-27.5,1.12-.94,1.62-2.42,3.5-1.99Z"/>
  <path class="st6" d="M747,1079.99c10.03-13.2,22.43-24.26,34.99-34.99.38,4.66-4.81,6.29-7.52,8.97-7.16,7.1-12.96,13.59-20.52,20.48-2.29,2.09-2.82,6.27-6.95,5.54Z"/>
  <path class="st157" d="M209,1217c5.85-5.28,12.96-10.49,18.55-15.95,2.67-2.61,5.26-8.88,9.46-8.54-6.31,10.86-17.4,20.92-28.01,27.49.05-1-.06-2.01,0-3Z"/>
  <path class="st170" d="M531.01,708c-.31-2.68,1.62-4.51,3.02-6.47,4.66-6.54,16.84-21.91,22.33-27.17.48-.46,3.48-2.51,3.64-2.35l-11.01,16.48c-6.4,6.12-10.94,14.08-17.97,19.52Z"/>
  <path class="st20" d="M733,713.01c-7.02,9.1-14.43,18.67-22.49,27-2.27,2.35-4.99,6.26-8.51,5.98l23.35-27.64,7.65-5.34Z"/>
  <path class="st51" d="M678.36,1120.4c-.19.16-1.62,4.49-2.35.11,11.62-11.3,21.49-24.14,33.98-34.51.41,1.95-.44,2.69-1.44,4.05-6.24,8.49-21.81,23.56-30.19,30.35Z"/>
  <path class="st162" d="M702.01,770c.81-4.98,6.05-10.17,9.48-14.01,7.06-7.94,15.37-15.07,22.5-22.99.3,1.65-.76,2.7-1.57,3.92-8.07,12.13-21.05,21.93-30.41,33.08Z"/>
  <path class="st33" d="M786,1106c-1.4,1.59-2.33,3.74-3.98,5.53-6.94,7.48-14.59,14.49-22.01,21.47-.27-2.79,1.87-5,3.48-7.01,5.37-6.72,15.07-15.84,21.51-21.99,2.65-1.07,2.76-.01,1,2Z"/>
  <path class="st6" d="M741.99,828.01l-23.46,32.02c-.91.3-5.66,6.08-6.52,4.97-1.67-2.16,3.67-4.89,4.97-6.52,6.58-8.27,12.16-17.68,19.06-25.7.77-.89,5.02-5.72,5.95-4.77Z"/>
  <path class="st118" d="M709.98,813.99c-.65.57-2.37.43-1.89-1.38,1.85-6.92,13.13-18.39,17.88-24.13,3.26-3.94,4.87-9.41,10.01-11.48l-26.01,36.99Z"/>
  <path class="st86" d="M737,794.01l-28.99,34.99c-.45-1.99.5-2.69,1.44-4.05,4.2-6.07,9.9-13.7,14.57-19.42,3.09-3.78,8.29-10.87,12.97-11.52Z"/>
  <path class="st122" d="M743,1048.99l28.99-31.99c.51,2.05-.6,2.7-1.46,4.03-2.98,4.61-9.18,11.86-13.01,15.99-4.07,4.38-8.96,9.64-14.51,11.98Z"/>
  <path class="st143" d="M404.99,838.01c.7.73-1.97,4.92-2.58,5.91-5.57,9.05-13.37,19.25-20.4,27.09-.42-1.83.62-2.77,1.35-4.14,3.39-6.37,9.51-15.23,13.83-21.17.82-1.13,6.3-9.24,7.81-7.68Z"/>
  <path class="st100" d="M731.99,747.01c.65.66-7.52,12.43-8.58,13.91-4.15,5.77-11.41,16.25-16.01,20.99-5.77,5.95-2.14-1.59.16-4.84,5.57-7.86,14.99-20.98,21.23-27.77.99-1.08,1.04-2.79,3.21-2.28Z"/>
  <path class="st81" d="M291.99,467c.77.81-4.5,8.86-5.35,10.14-7.19,10.83-16.04,22.26-24.64,31.85-.28-1.62.74-2.72,1.57-3.92,4.77-6.96,10.98-14.08,15.83-21.17,2.97-4.34,5.92-11.11,9.17-14.83.63-.72,2.43-3.11,3.41-2.08Z"/>
  <path class="st93" d="M786.35,1144.35c-3.57,3.47-6.87,5.89-10.39,9.1-1.36,1.24-9.92,12.39-11.95,10.54l7.94-10.53,20.56-17.46c1.74,3.88-4.05,6.3-6.16,8.35Z"/>
  <path class="st135" d="M773,1030.01l-26.99,27.98c1.38-4.02,5.13-8.3,7.97-11.52,3.25-3.69,11.35-12.35,14.98-15.02,1.36-1,2.09-1.85,4.05-1.44Z"/>
  <path class="st191" d="M777,1231.99c-1.48-1.17,20.24-22.22,23.99-21.99,2.16,2.35-10.31,10.99-12,12.49-1.91,1.69-9.74,11.28-11.99,9.5Z"/>
  <path class="st51" d="M785,1088.01c-6.42,10.95-16.79,18.59-25.99,26.99-.41-1.95.44-2.69,1.44-4.05,3.46-4.7,16.24-16.92,21.05-20.95,1.12-.94,1.63-2.43,3.5-1.99Z"/>
  <path class="st135" d="M559.01,912c.42-3.23,3.44-6.48,5.48-9.01,6.16-7.67,14.3-15.25,21.5-21.99-.1,2.18-2.13,4.39-3.48,6.01-7.06,8.52-15.59,17.29-23.5,24.99Z"/>
  <path class="st51" d="M697.99,1058.01c1.05,1.07-9.59,13.77-11.02,15.47-4.12,4.89-9.19,10.26-13.96,14.53,3.1-8.38,10.7-14.55,16.5-20.99,1.04-1.16,6.88-10.64,8.48-9.01Z"/>
  <path class="st47" d="M547.99,613.01c1.97,2.43-16.67,27.72-19.98,30.99-1.13-3.94,1.26-3.54,2.3-5.24,4.9-7.97,9.55-16.33,15.11-23.87.37-.5,1.11-3.69,2.57-1.89Z"/>
  <path class="st10" d="M538.99,923c1.01,1.12-3.28,5.82-2.94,7.54-5.58,4.69-9.21,10.77-13.48,16.56-.83,1.13,0,2.48-2.58,1.88-1.17-1.39,6.75-12.3,8.18-14.31.98-1.37,9.25-13.41,10.81-11.68Z"/>
  <path class="st115" d="M289.99,437.01c1.41,1.64-18.5,33.83-21.98,36.99,3.35-10.25,10.65-19.24,16.2-28.29.39-.64,3.9-10.89,5.78-8.7Z"/>
  <path class="st24" d="M533.01,687c-.24-1.84,1.01-3.15,2.01-4.48,4.04-5.41,10.88-13.4,15.47-18.53,1.91-2.13,4.15-4.34,6.5-5.99-5.1,11.04-15.08,20.75-23.98,29Z"/>
  <path class="st114" d="M266.01,489.99l21.99-35.99c-4.85,11.13-10.54,24.65-18.57,33.92-.99,1.15-1.55,2.46-3.42,2.07Z"/>
  <path class="st31" d="M465.58,1137.59c-1.53,1.86-16.22,21.83-17.57,20.41l8.58-12.91c5.43-5.23,9.01-14.21,16.42-16.58-1.88,3.34-4.94,6.05-7.43,9.08Z"/>
  <path class="st20" d="M788,897c3.12-4.47,10.75-14.78,14.98-17.52,1.35-.87,2.53-.89,2,1-.33,1.18-13.65,17.56-15.31,19.18-.9.88-3.37,2.53-2.67-.66.29-.44.45-1.22,1-2Z"/>
  <path class="st181" d="M361,633.01l-22.99,31.99c3.19-9.48,12.34-22.94,19.47-30.02,1.07-1.06,1.73-2.35,3.52-1.97Z"/>
  <path class="st140" d="M263.99,678c.66.75-.62,3.35-1.14,4.35-2.72,5.18-10.32,15.9-14.03,20.97-.74,1.01-1.48,2.41-2.81,2.68-.23-2.42,1.07-4.35,2.17-6.32,3.11-5.6,8.83-14.04,12.65-19.35.49-.69,2.01-3.64,3.17-2.32Z"/>
  <path class="st128" d="M778,655c1.87-2.08,2.77-5.28,4-7,3.69-5.14,7.09-10.99,11.99-15,.22,1.15-.1,1.93-.54,2.95-.69,1.59-10.61,17.81-11.4,18.59-1.12,1.09-3.07,2.67-4.04.46Z"/>
  <path class="st118" d="M555,888.01c-6.51,7.32-12.39,16.12-19.08,23.18-.58.61-2.97,3.89-3.92,2.81-.73-.82,2.83-4.87,3.6-5.89,3.4-4.54,10.09-13.51,13.86-17.14.86-.83,4.5-3.86,5.54-2.95Z"/>
  <path class="st185" d="M519,1008c-.63.91-3.49,5.48-2.99,5.99l4.5-2.99c.74-.16.68,1.05.49,1.48-.82,1.78-11.33,13.2-12.99,11.51,1.82-6.58,6.26-11.62,9.99-16.99l1,1Z"/>
  <path class="st118" d="M561,695.01c-6.5,9.57-12.87,19.68-21.99,26.99l5.97-9.48c4.79-4.04,7.92-10.65,12.05-14.99,1.14-1.2,1.98-2.88,3.97-2.52Z"/>
  <path class="st193" d="M767.99,525.01c-.66,6.4-2.01,15.36-4.04,21.45-.55,1.64-.76,2.9-2.95,2.54.8-7.18,2.31-14.92,4.91-21.63.56-1.44-.96-2.91,2.08-2.36Z"/>
  <path class="st138" d="M795,942c.34-.46,1.65-.96,2.42-2.03,3.95-5.49,6.89-11.65,11.09-16.96.33,9.29-10.35,17.21-15.02,24.99l-.49-2.99c.81-1.08,1.36-2.15,2-3Z"/>
  <path class="st132" d="M783,597c-2.24,4.22-4.72,9.93-7.99,13,.18-5.47,4.02-12.43,6.99-17,1.89-2.91,3.95-6.18,6.99-8,.48.57-5.12,10.36-5.99,12Z"/>
  <path class="st194" d="M794,871c.78-.91,7.98-7.75,8.51-7.99.44-.2,1.64-.26,1.48.49-2.94,5.04-7.24,8.71-10.97,13.03-.67.77-6.48,11.56-7.02,5.48,2.27-3.17,5.69-8.31,8-11Z"/>
  <path class="st125" d="M456.01,1215.99l10.02-13.47,9.97-10.52c.28,2.6-1.56,4.59-3.02,6.47-3.18,4.11-9.36,11.48-12.95,15.05-1.16,1.16-2.13,2.79-4.02,2.47Z"/>
  <path class="st55" d="M487.99,1088.01c.72.68-5.14,6.66-5.95,7.51-5.08,5.37-10.52,10.57-16.04,15.48.58-3.05,3.82-6.18,5.95-8.52,3.45-3.8,8.68-9.25,12.54-12.48.68-.57,2.47-2.97,3.5-1.99Z"/>
  <path class="st97" d="M257.58,661.58c-1.37,1.45-2.85,2.81-4.1,4.41l-1.48-1.48,19.98-21.51c.2,2.85-2.35,5.4-4.02,7.47-2.76,3.43-7.2,7.75-10.39,11.11Z"/>
  <path class="st117" d="M579,916c1.4-1.23,2.41-3.59,4.99-4,.08,1.37.12,2.7-.51,3.98-1.89,3.9-11.96,13.41-15.48,17.02-.01-5.25,5.19-8.52,8.53-12.01.38-.4,4.8-4.24,2.47-4.99Z"/>
  <path class="st16" d="M252,1134c1.52-2.22,4.15-9.14,5.99-10.52,1.04-.79,2.75,2.36,3.99,1.52.21-.14.99-4.01,3.01-3.99.08,2.53-3.25,7.68-4.95,9.27-1.37,1.29-4.42,1.82-6.04,3.73l-.5-.97-1.5.97Z"/>
  <path class="st68" d="M378.99,922.01c1.11,1.08-11.59,16.07-13.46,18.02l-3.54,1.96c4.03-6.09,8.41-12.72,13.48-18.01.67-.7,2.58-2.89,3.51-1.98Z"/>
  <path class="st170" d="M787,773c.56-.9,7.93-9.69,8.51-9.99,1.17-.61,1.85.26,1.47,1.47-.78,2.55-7.88,11.77-9.99,15.07-.83,1.3-.86,2.92-3,2.45.48-2.83,1.42-6.47,3-9Z"/>
  <path class="st19" d="M553,638.01c-4.94,10.38-14.74,16.49-21.99,24.99l2.47-5.02,19.52-19.97Z"/>
  <path class="st46" d="M270.01,448c2.22-8.58,8.5-17.18,14.98-23-.06,5.27-5.55,9-8.43,13.06-2.17,3.07-3.11,7.71-6.55,9.94Z"/>
  <path class="st122" d="M782,705c.88-1.12,7.94-8.77,8.51-8.99.44-.17,1.01.03,1.49,0-3.41,3.59-8.66,15.14-11.97,17.52-2.53,1.82-2.18-1.09-2.03-2.53.95-1.69,2.8-4.47,4-6Z"/>
  <path class="st86" d="M780,723c2.87-3.94,8.26-8.14,11.5-12,1.15.33.42,2.2-.02,2.98-1.02,1.81-10.26,13.1-12.04,14.96-1.68,1.75-2.78,1.76-2.44-.94.49-1.09,2.26-3.98,3-5Z"/>
  <path class="st108" d="M236.01,734c.22-2.96,2.89-6.49,4.55-8.94,2.72-3.99,6.7-9.09,10.43-12.06-3.16,7.75-8.89,15.34-14.98,21Z"/>
  <path class="st178" d="M397,406c.74.44,1.94,1.72,2.5,1.69,1.03-.05,1.7-2.3,3.5-1.69-.72,4.31,3.36,6.52,5,9.99-1.8,1.41-11.08-6.65-13-7.99,2.13.24,2.24.13,2-2Z"/>
  <path class="st139" d="M576,977c5.14-5.41,11.14-10.24,15.99-16-1.68,6.57-7.87,11.7-12.31,16.7-.42.47-1.57.17-1.68.3l-2-1Z"/>
  <path class="st66" d="M448.01,1245l9.94-12.55,6.04-4.45c.71.77-3.64,6.03-4.48,7.01-1.04,1.23-10.79,10.73-11.5,9.99Z"/>
  <path class="st113" d="M785,602c.76-1.04,6.57-6.66,4.99-2.52-1.07,2.8-6.13,9.59-8.14,12.86-.28.45-2.31,3.76-2.84,1.66,1.09-3.39,3.94-9.17,6-12Z"/>
  <path class="st50" d="M545.99,660.01l-8.48,12.01c-.57.86-2.72,2.76-3.51,1.98-1.13-1.12,10.18-15.84,11.99-13.99Z"/>
  <path class="st35" d="M785,629c.54-.9,2.8-4.8,3.02-4.99.59-.53,2.64-.24,1.97,1.48-.72,1.84-4.14,6.18-5.38,8.63-.97,1.92-1.33,5.67-2.54,7.27-1.33,1.76-2.57.5-2.08-1.38,1.46-3.56,3.05-7.73,5-11Z"/>
  <path class="st161" d="M246.01,689.99c-.85-.89,8.14-15.41,9.98-16.99.36,1.85-.28,2.98-.93,4.56-.53,1.25-7.26,14.31-9.05,12.44Z"/>
  <path class="st145" d="M229.01,1186c1.09-5.78,6.53-11.43,10.98-15-1.42,5.36-6.89,11.17-10.98,15Z"/>
  <path class="st40" d="M689.99,1050.01c1.22,1.48-6.36,11.04-7.77,12.72-.96,1.14-1.13,2.75-3.23,2.26-.84-.83,7.23-11.49,8.42-13.1.37-.5,1.1-3.69,2.57-1.89Z"/>
  <path class="st179" d="M738,1198c.91-.93,6.18-10.58,9-7.99,1.27,1.17-5.77,8.71-7,9.99.24-2.13.13-2.24-2-2Z"/>
  <path class="st90" d="M725.99,656.01c1.24,1.25-9.9,14.38-11.99,14.99l8.57-12.92c.46-1,2.63-2.87,3.42-2.07Z"/>
  <path class="st151" d="M575,904c3.84-3.97,7.78-9.91,12.99-11.99,1.53,1.53-10.76,11.67-11.99,12.99l-1-1Z"/>
  <path class="st82" d="M304,995c.3-.49.13-1.92.95-2.51l7.05-6.48c.56,4.03-4.54,7.4-5.99,9.99.17-2.67.04-2.28-2-1Z"/>
  <path class="st5" d="M552,717.01c-.73,1.82-9.39,13.45-11,11.98,1.08-1.33,8.88-13.99,11-11.98Z"/>
  <path class="st182" d="M783,618c.4-.7,3.06-3.7,3.02-1.48-.02,1.34-2.2,4.96-3.02,6.48-.67,1.24-2.78,5.76-3.02,6-.6.6-2.35.41-2.01-1.51.09-.53,4.26-8.17,5.02-9.49Z"/>
  <path class="st69" d="M785,834c1.45-2.88,5.19-6.59,7.5-9,.27,2.77-4.46,11.35-8.5,11,.36-1.19.65-1.31,1-2Z"/>
  <path class="st21" d="M250,1002.01c-2.08,4.29-3.52,9.44-7.99,11.99-.16-1.79,6.28-13.7,7.99-11.99Z"/>
  <path class="st208" d="M785,1104c2.27-2.17,3.95-6.56,8-5.99,1.42,1.31-5.83,6.68-7,7.99l-1-2Z"/>
  <path class="st72" d="M593,998c1.63-2.22,2.14-7.07,5.99-7,1.3,1.4-4.23,7.94-4.99,9l-1-2Z"/>
  <path class="st4" d="M775,681l-4.51,4.99c-1.49-2.95,1.92-6.53,4.51-7.99-.03.16-.02,2.68,0,3Z"/>
  <path class="st27" d="M806,1248c3.03-.37,1.93.7.81,2.31-2.78,3.97-20.89,18.74-25.81,22.69-4,3.22-15.36,12.63-19.26,14.24-1.92.79-3.7.92-5.74.75-.13-.91-.12-1.27.47-2.02,3.45-4.36,15.35-10.73,20.44-14.57,8.63-6.51,22.09-15.98,29.09-23.41Z"/>
  <path class="st116" d="M744.99,1255.01c1.22,1.25-8.42,9.79-9.79,10.94-7.06,5.95-15.43,11.13-22.68,17.08-1.69,1.38-10.78,11.49-12.53,9.96,6.14-7.85,13.33-14.43,20.77-20.95l24.22-17.04Z"/>
  <path class="st9" d="M538.01,1297c-.11-3.83,3.79-7.88,6.34-10.65,6.61-7.16,16.97-14.13,24.64-20.35.41,1.95-.44,2.69-1.44,4.05-4.7,6.39-14.59,11.78-20.56,17.44-3.24,3.06-5.43,6.85-8.98,9.51Z"/>
  <path class="st165" d="M331.99,1266.01l-.93,4.56c-2.5.86-21.14,19.54-22.06,18.43-.3-1.65.77-2.69,1.57-3.92,2.83-4.28,13.13-14.52,17.37-17.63,1.37-1,2.02-1.89,4.04-1.45Z"/>
  <path class="st212" d="M619.99,1270c1.08,5.4-4.93,7.41-7.64,10.35-1.59,1.73-3.1,4.74-4.7,6.29-1.7,1.65-11.02,10.61-12.65,9.34l6.98-9.51,18.02-16.47Z"/>
  <path class="st133" d="M586.99,1267c.43,2.02-.44,2.67-1.45,4.04-2.79,3.78-19.32,20.31-22.97,22.03-1.58.75-2.78,1.19-4.58.91l28.99-26.99Z"/>
  <path class="st170" d="M343.99,1273.01c2.36,2.36-12.29,14.81-13.99,12.99-.94-1.01.77-3.11,1.45-4.04,1.18-1.62,11.08-10.41,12.54-8.95Z"/>
  <path class="st7" d="M554,1264.01c.91.79-14.38,16.93-15.99,17.99-1.08-4,13.9-19.82,15.99-17.99Z"/>
  <path class="st177" d="M690.01,1288.99c-.43-1.88,1.06-2.37,1.99-3.5,2.88-3.48,9.16-8.49,13.01-10.99,1.49-.97,1.06-2.46,2.97,0-3.67,2.9-6.96,6.5-10.51,9.47-.96.81-6.78,5.73-7.47,5.02Z"/>
  <path class="st197" d="M700.99,1262.01c1.2,1.21-6.61,8.24-7.98,8.99-.32-4.55,3.91-8.03,7.98-8.99Z"/>
  <path class="st96" d="M838,506c2.08-3.03,3.54-7.09,7-9.5-1.28-.9-5.6-.21-4.99-2.98.18-.8,9.63-10.93,10.95-12.06s4.11-1.68,4.64-2.42c1.22-1.71-2.58-6.16,2.4-6.03-.34,2.95.54,6.69,0,9.48s-1.48,2.96-2.17,7.74c-.21,1.43-1.61,3.32-1.51,4.3.15,1.36,3.19,1.96,2.54,4.73-1.06,4.45-8.77,6.96-11.37,10.74l-1.49-3c-1.24.73-2.81,1.22-3.99,2.01-2.44.17-2.04-1.48-.89-2.97.07-.09.33,1.95-1.11-.03Z"/>
  <path class="st30" d="M953,530.01c1.67,1.38-17.48,23.72-19.95,25.54-9.29,6.81,1.06-7.84,3.44-10.56,2.17-2.48,4.85-3.99,6.91-6.09,1.4-1.43,7.25-10.84,9.6-8.89Z"/>
  <path class="st64" d="M878,402c.83-.94,2.8-2.21,3.99-1.99.29.27-2.48,6.02-2.99,6.99-2.59,4.89-8.32,14.75-11.57,18.93-1.23,1.59-3.16,4.15-5.43,4.06-.71-.8,2.96-9.2,3.79-10.7,1.81-3.3,9.74-14.52,12.21-17.29Z"/>
  <path class="st64" d="M880,411c3.21-3.34,6.69-5.07,4,1-.75.85-.77,1.71-1,2-3.73,4.76-10.91,17.91-14.29,20.69-1.33,1.09-3.02,1.43-4.7,1.3-.57-.52,2.93-5.86,3.58-6.91,2.96-4.83,8.76-14.28,12.42-18.08Z"/>
  <path class="st142" d="M912,473c-1.37,2.11-12.12,16.87-12.99,17.52-3.74,2.75.93-9.36,1.57-10.44,1.28-2.18,7.37-8.99,9.43-11.07,1.73-1.75,4.08-3.41,5.99-5,.15,3.48-2.23,6.28-3.99,9Z"/>
  <path class="st27" d="M927,494c3.84-.69,3.51.89,2,4-1.12,2.3-12.11,16.46-14.15,18.35-7.09,6.58-.93-5.09.9-8.1,2.65-4.36,9.58-10.88,11.24-14.26Z"/>
  <path class="st183" d="M938,514c.55-.56,3.29-2.97,4.01-1.49-1.08,2.31-2.68,6.59-4.01,8.49-2.06,2.95-12.69,16.45-14.97,18.53-1.26,1.14-3.15,2.99-3.05-.04,3.86-5.04,6.92-11.5,10.6-16.4,1.62-2.16,5.72-7.36,7.41-9.09Z"/>
  <path class="st172" d="M869,384c-.78,2.49-9.23,16.79-10.95,18.55-1.13,1.16-4.22,2.2-5.05,1.44-1.49-1.37,9.47-15.51,10.84-17.65,1.57-2.45.42-3.62,3.16-6.35.37-.37,2.85-2.18,2.99-2-.61,1.68-.56,4.63-.99,6Z"/>
  <path class="st212" d="M933,503c.17.15,2.06-.36,2.07.54,0,.29-1.78,4.97-2.07,5.46-1.48,2.58-12.7,15.19-15,16.5-.8.45-1.57.65-2.49.51l-.57-2.55,18.06-20.45Z"/>
  <path class="st157" d="M956.99,537.01l-2.01,4.48-19.97,22.52c.56-3.89,3.69-9.24,5.99-12.5,1.23-1.73,14.32-16.26,16-14.49Z"/>
  <path class="st36" d="M926,486c-2.39,4.07-11.17,16.99-14.32,19.67-3.6,3.06-4.79,1.45-2.21-2.7,3.31-5.31,9.26-13.48,13.53-17.97.5-.52,4.79-4.25,4.99-4-.22,1.4-1.3,3.82-1.99,5Z"/>
  <path class="st2" d="M897,444c-1.29,2.88-7.95,12.5-10.15,15.35-3.01,3.91-4.97,2.06-2.69-2.69,1.55-3.23,9.63-16.06,11.84-18.66.44-.52,2.22-1.59,2.99-2,.4.52-1.51,6.94-1.99,8Z"/>
  <path class="st128" d="M903,452c-.27.39-1.68.96-2.42,2.03-2.75,3.99-6.56,11.72-9.27,14.74-.9,1-2.16,2.27-3.3,1.22-1.59-1.46,9.03-16.86,11-18.99,2.09-2.27,4.33-4.39,6.99-6,.1,2.38-1.7,5.11-2.99,7Z"/>
  <path class="st83" d="M917,480c.52.26,2.15-.2,3,0l-1,3.99-16.99,16c1.71-8.71,9.39-13.92,14.99-20Z"/>
  <path class="st33" d="M873,392c.11.2,1.06-1.1,2,2-4.4,6.03-7.67,13.58-11.81,19.69-.87,1.28-1.14,2.73-3.19,2.3-1.78-2.06,9.88-21.73,12.99-24Z"/>
  <path class="st83" d="M906,465c-2.14,3.23-9.22,11.83-12.68,12.82-1.45.42-2.72.74-2.31-1.31,6.23-4.78,10.63-13.43,15.99-18.51.68-.65,1.9-1.07,2.5-1.99,1.19,2.18-2.06,6.82-3.5,8.99Z"/>
  <path class="st183" d="M886,426c-1.22,2.61-6.64,10.7-8.58,12.92-3.66,4.18-4.27,1.93-2.47-2.47,1.21-2.95,8.01-13.97,10.05-16.45.43-.52,2.22-1.6,2.99-2,.69.92-1.36,6.65-1.99,8Z"/>
  <path class="st83" d="M892,432c-.39,1.84-9,14.49-10.78,16.72-.94,1.18-1.13,2.74-3.22,2.27-2.01-2.31,8.82-17.74,10.99-20,.35-.36,2.84-2.16,2.99-2-.09.95.19,2.14,0,3Z"/>
  <path class="st47" d="M940.01,569.99l7.02-10.47,13.97-14.52c-2.98,6.46-9.13,14.1-14.02,19.47-.86.95-5.85,6.67-6.97,5.52Z"/>
  <path class="st143" d="M845,520c-3.79,4.62-6.82,10.34-10.78,14.72-.98,1.09-1.08,2.79-3.22,2.27,1.64-6.54,5.88-13.51,11-17.99.59-.52,3.83-3.19,3.99-3l-.99,4Z"/>
  <path class="st143" d="M856,371l5.99-5.99c-.09,2.07-1.09,5.18-1.99,6.99-2.5,5-8.1,13.09-11.99,17-.33-1.71.53-2.92,1.12-4.37,1.41-3.48,4.91-10.48,6.87-13.63Z"/>
  <path class="st216" d="M861,375c.38-.53,5.23-5.82,5.99-4.99.18,2.45-2.03,4.03-2.99,5.99-2.75,5.61-5.6,11.32-9.99,16-.53-4.73,4.17-13.03,6.99-17Z"/>
  <path class="st203" d="M851,369c.71-1.21,7.42-11.61,8.99-9.99.42.43-4.4,10-4.99,10.99-4.52,7.55-10.19,9.53-4-1Z"/>
  <path class="st37" d="M823.99,549.01c1.84,1.95-5.62,11.58-6.99,9.99-.61-4,2.14-10.32,6.99-9.99Z"/>
  <path class="st102" d="M840,509c-2.68,1.8-4.55,5.81-7.99,7-.24-4.13,4.04-7.16,5.99-10l1.99-1v4Z"/>
  <path class="st196" d="M172,537c-.68-1.51-.97-3.74-1.11-3.88-.45-.46-2.98.31-4.42-1.07s-.91-4.34-1.76-5.76c-.74-1.23-5.73-5.58-6.64-7.12-3.17-5.36-4.36-12.23-6.85-17.87-3.55-8.02-8.56-15.99-11.13-24.05-2.03-6.35,2.23-6.47,1.8-9.51-.32-2.26-3.15-3.69-3.66-5.44s.14-4.07-.42-5.58c-1.05-2.87-4.21-7.25-4.49-10.34-.25-2.79,1.87-6.75,1.79-9.9-.09-3.71-3.1-5.21-1.62-8.45,1.23-2.68,5.12-3.08,6.27-4.26,1.45-1.5,1.23-6.21,3.75-7.74l3.49,4.97v-10.99c3.65-.38,3.27,6.71,4.01,8.99l-.42,2.45c7.97,37.18,15.63,74.27,22.98,111.27-.12,1.56-.65,2.99-1.56,4.28Z"/>
  <path class="st213" d="M151,419c10.92,17.14,19.18,59.92,22.75,80.75,1.88,10.99,4.57,25.9,5.24,36.76.09,1.41.73,21.01-2.99,16.49.28-5.54-1.77-11-4.01-16-1.4-16.2-6.49-31.86-9.75-47.75-1.06-5.17-1.43-11.34-2.5-16.5-3.91-18.9-9.14-37.63-11.74-56.75,1.12.38,2.37,2.02,2.99,3Z"/>
  <path class="st174" d="M142,571c.07-.03.76.95,1.35.78,1.18-.33,3.64-3.95,4.64-2.78,2.02,2.37-3.13,3.98-4.09,5.45-.78,1.18.17,2.62-.4,3.5-.62.97-12.88,10.89-13.49,10.05-.71-4.3.61-5.47,3.99-7.5-4.48-1.53-1.02-2.05,0-3.5,1.91-1.37,4.16-3.58,6.76-6.64l1.24.64Z"/>
  <path class="st56" d="M203,541l-21.5,27c-1.48-.77.21-2.41.71-3.29,3.23-5.71,7.73-11.54,11.8-16.7,2.99-3.79,5.89-7.73,9.5-11l-.5,4Z"/>
  <path class="st36" d="M199,525c.7-.7,3.91-3.84,4.99-2.51-3.9,6.19-7.65,12.64-11.99,18.51-1.35,1.82-1.62,3.71-4.51,4.99-1.19-.36-.31-2.15,0-3.01,1.47-4.22,8.29-14.75,11.51-17.99Z"/>
  <path class="st163" d="M196,493c6.17-3.91.65,5.47-1,8-1.23,1.88-5.05,6.56-6.77,8.73-3.11,3.91-5.09,2.13-3.04-2.04,1.76-3.6,4.49-6.52,6.81-9.69-1.57-2.55,1.39-5.31,4-5Z"/>
  <path class="st215" d="M151,518.01c-7.15,9.5-14.68,19.64-22.99,27.99l14.02-20.47c2.06-.95,6.55-9.38,8.97-7.52Z"/>
  <path class="st3" d="M195,516c1.13-1.77,2.58-5.15,4.99-5,.32,3.04-1.52,6.35-2.99,9-2.23,3.99-6.61,10.06-9.99,13,.89-5.37,4.97-12.29,7.99-17Z"/>
  <path class="st24" d="M195,481c.85,2.93-1.43,9.04-5,9-2.14,3.24-4.95,6.17-6.99,9.51-1.49,1.39-1.14-1.11-.93-1.93,1.54-5.89,6.93-11.41,9.92-16.58.17-.29.91-.58,1-1,.83.04,1.38.68,2,1Z"/>
  <path class="st112" d="M150,531.01c-2.28,5.86-9.59,12.88-14.49,17-1.12.94-1.63,2.43-3.5,1.99l6.97-9.52,11.02-9.47Z"/>
  <path class="st39" d="M195,481c.43.22,1.89-.58,2.06.56.55,2.62-1.8,4.14-2.07,6.02-.3,2.09,1.14,4.14,1.01,5.42-.16,1.62-3.16,3.86-4,5l-3-2.01c-.55-.77,5.46-6.81,1-5.99,1.86-2.82,3.47-5.98,5-9Z"/>
  <path class="st20" d="M189,474c-3.56,1.78-4.94,8.46-8.51,9.99-1.23.53-1.84-.18-1.47-1.47,1.43-4.94,8.23-10.97,10.98-15.52.44-.03,1.75-1.4,1.99-1,.94,3.65-2.33,4.89-2.99,8Z"/>
  <path class="st111" d="M150,544.01c-6.59,8.29-13.97,16.02-21.99,22.99.18-2.45,2.45-4.74,3.96-6.53,3.54-4.17,10.34-10.95,14.52-14.48,1.12-.94,1.63-2.42,3.5-1.99Z"/>
  <path class="st126" d="M174,400c.09.32-.1.72,0,1,1.17,2.23.35,2.68-2,2-1.55,1.99-7.06,10.38-8.51,10.99-4.02,1.7,2.01-7.29,2.51-7.99,2.26-3.14,5.46-5.63,7.5-9,1.09.27.26,2.14.5,3Z"/>
  <path class="st53" d="M176,424c6.28-.76,1.47,4.25,0,7-1.26,2.36-3.17,8.51-7.01,7.49.89-5.06,6.84-9.76,7.01-14.49Z"/>
  <path class="st92" d="M179,434c1.4-1.88,4.87-3.51,3.99-.52-.32,1.09-4.88,9.33-5.99,11.52-.62,1.23-4.79,6.51-4.01,2.49.37-1.89,4.83-11.9,6.01-13.49Z"/>
  <path class="st195" d="M183,455c-.38.77-4.3,6.28-5.05,7.23-.44.55-3.05,3.78-3.94,2.77-.63-.72,5.32-9.72,6.22-11.32.75-1.32.5-3.18.78-3.68.09-.16,2.88-2.14,2.99-2,.17,2.59.2,4.61-.99,7Z"/>
  <path class="st155" d="M142,571c-2.5.9-5.19,5.35-7.5,6.98l-.5-.98c4.59-6.5,9.8-11.47,15.5-17,.83,4.71-5.66,7.25-7.5,11Z"/>
  <path class="st39" d="M174,416c-2.44-.35-2.19-2.15-1-4-.16-1.9,1.44-6.78-1-9,.6-.77.91-1.69,2-2,.72,2.05,3.94,3.55,3.93,6.5,0,1.56-2.91,6.83-3.93,8.5Z"/>
  <path class="st101" d="M139.82,592.78c-.6.35-2.68.68-2.82-.28,5.42-5.48,9.9-11.94,16.99-15.5.53,2.03-1.12,2.33-2.11,3.38-3.07,3.26-6.61,6.1-9.93,9.09-1.01.9-1.91,3.19-2.12,3.31Z"/>
  <path class="st60" d="M174,416c-1.08,1.78-3.95,5.34-5.4,7.12-.37.46-1.14,3.66-2.6,1.87-1.36-1.67,5.05-11.6,6.99-12.99.05.53,1.78,2.49,1,4Z"/>
  <path class="st84" d="M184,458c.56.57,3.87-.5,1,5-.42.8-2.97,4.45-3.8,5.7s-1.15,2.71-3.19,2.29l5.99-13Z"/>
  <path class="st128" d="M366,260.01c-1.53,2.07-20.59,19.5-21.99,17.99-1.29-1.39,1.53-4.05,2.51-4.98,2.89-2.74,12.07-9.92,15.35-11.66,1.37-.73,2.3-1.78,4.14-1.35Z"/>
  <path class="st128" d="M367.99,267c.91,1.02-.58,3.04-1.48,4.01-3.54,3.83-11.91,11.56-16.01,14.99-1.12.94-1.62,2.42-3.5,1.99-.91-.88,5.97-8.48,6.95-9.51,1.77-1.85,3.65-3.75,5.57-5.46.91-.81,7.83-6.74,8.47-6.02Z"/>
  <path class="st12" d="M368,281.01c.53,2.22-1.29,2.21-2.3,3.19-3.45,3.36-11.35,10.28-15.21,12.8-1.31.86-2.53.71-2.47-.49.14-2.78,17.61-17.58,19.98-15.5Z"/>
  <path class="st191" d="M363.99,249c2.22,2.55-11.98,13.69-14.26,15.23-3.46,2.33-8.67,5.11-3.75-.75l18.01-14.48Z"/>
  <path class="st57" d="M351,305.99c-1.14-1,4.12-5.7,4.98-6.51,4.65-4.35,10.81-7.82,16-11.49,1.1,1.12-4.99,6.59-5.98,7.51-2.58,2.4-8.18,7.22-10.99,9.01-.92.59-2.87,2.49-4.02,1.47Z"/>
  <path class="st63" d="M507.97,395.99c-.4.34-3.12.89-2.98-1.48.2-3.37.69-8.55,1.14-11.88,1.23-9.14,4.32-10.56,3.91-.08-.07,1.76-1.56,13-2.07,13.44Z"/>
  <path class="st100" d="M377.99,306.01c1.08,1.09-1.45,2.78-2.09,3.4-3.06,2.99-9.2,7.98-12.71,10.53-1.27.92-2.5,2.28-4.19,2.06-1.07-1.09,3.3-6.3,4.52-6.97,1.87-.94,13.6-9.89,14.47-9.02Z"/>
  <path class="st106" d="M535.99,372c.3.32,1.91,7.44,2.02,8.49.22,2.15.15,12.66-1.02,13.5-3.81,2.74-1.92-10.78-1.95-12.54-.01-.68-2.52-13.24.95-9.46Z"/>
  <path class="st162" d="M491.99,375c-.71,5.54-3.23,14.64-5.95,19.54-.77,1.39-.81,2.91-3.04,2.45,2.13-6.64,2.91-13.92,6.51-20.02.76-1.29-.18-2.52,2.48-1.97Z"/>
  <path class="st73" d="M475.99,372.01c-3.68,7.69-5.42,17.04-11.98,22.99-.36-1.85.27-2.98.93-4.56,1.52-3.6,5.84-13.65,7.64-16.36.82-1.24,1.68-2.4,3.42-2.07Z"/>
  <path class="st67" d="M546,393c-3.03.56-1.92-1.53-2-3.45-.26-6.49.18-13.05,0-19.54,2.62-.23,1.66-.13,1.96,1.5,1.06,5.7,1.3,11.71,1.03,17.49-.02.39-1.02,1.74-1,4Z"/>
  <path class="st13" d="M483.99,373.01c.53.65-5.05,13.93-5.82,15.67-1.15,2.6-2.5,6.03-5.17,7.32,1.96-6.33,4.7-15.82,8.4-21.12.38-.54,1.15-3.64,2.59-1.87Z"/>
  <path class="st111" d="M457.98,390c-1.17,1.12-2.02.05-2.03-1.52-.03-3.95,3.93-16.48,8.03-18.48-.93,3.48-4.16,18.23-6.01,20Z"/>
  <path class="st205" d="M500,374c2.94,3.38-1.71,20.06-4.02,21.99-.2.17-2.02.36-2-.51.05-1.71,3.17-8.42,3.78-11.22s-.31-6.39.24-8.27c.04-.14,1.35-.95,2-2Z"/>
  <path class="st18" d="M375,299.01c-3.66,3.07-10.54,9.82-14.46,12.03-1.6.91-2.68,1.21-4.54.95,4.47-5.6,12.04-11.36,19-12.98Z"/>
  <path class="st56" d="M392.01,359.99c-1.4-1.39,11.26-14.61,13.98-14.99.41,1.95-.43,2.69-1.44,4.05-1.16,1.56-10.9,12.58-12.55,10.94Z"/>
  <path class="st48" d="M517.99,374.01c.05,5.98-.55,12.77-1.97,18.56-.41,1.69.99,2.91-2.02,2.43-.43-6.28.47-12.49,1.97-18.57.42-1.69-.99-2.91,2.02-2.42Z"/>
  <path class="st146" d="M400,340.01c-1.08,2.59-12.74,16.06-15,13.98-.43-1.88,1.06-2.37,1.99-3.5,1.55-1.88,11-12.05,13-10.49Z"/>
  <path class="st152" d="M456,368.01c-2.37,4.16-3.99,8.86-6.59,12.9-1.05,1.63-2,4.38-4.41,4.08.92-2.27,6.98-20.14,11-16.98Z"/>
  <path class="st1" d="M526.99,378.01c-.65,5.07,2.16,15.88-3.99,17.99,1.03-4.67.63-9.54,1.28-14.23.22-1.58.2-4.5,2.71-3.76Z"/>
  <path class="st167" d="M392.99,324.01l-2.09,3.4-13.9,10.59c-1.1-1.09,5-6.62,5.98-7.51,1.28-1.17,8.94-7.5,10.01-6.48Z"/>
  <path class="st177" d="M415.01,374.99c-1.36-1.44,8.26-14.14,10.99-14.99.36,2.44-9.08,17.02-10.99,14.99Z"/>
  <path class="st123" d="M395.99,331.01c1.37,1.43-8.02,8.94-8.95,10.54-11.74,5.63,7.94-11.59,8.95-10.54Z"/>
  <path class="st0" d="M437.98,381c-.68.67-2.24.44-1.98-1.47.46-3.38,6.02-13.25,8.99-15.52-.55,2.62-5.97,15.99-7.01,17Z"/>
  <path class="st103" d="M433.58,367.61c-.86,1.81-2.77,5.35-4.11,7.4-.77,1.18.25,2.58-2.47,1.99-.75-2.27,6.61-15.76,7.98-13.99.49,2.03-.71,3.14-1.41,4.61Z"/>
  <path class="st137" d="M407.99,355.01c1.46,1.56-7.72,11.34-8.99,9.99-.88-2.48,7.83-11.22,8.99-9.99Z"/>
  <path class="st131" d="M416.99,358.01c1.05,1.08-6.52,10.53-7.99,8.99-.85-2.34,6.77-10.25,7.99-8.99Z"/>
  <path class="st139" d="M383,317.01c.84.7-6.51,8.13-8.99,6.98l5.08-5.42,3.92-1.57Z"/>
  <path class="st149" d="M780,767c7.6-8.25,12.66-18.72,19.99-27-4.91,11.3-10.68,22.21-19.5,30.99-1.09-.61-.31-2.82-.5-3.99Z"/>
  <path class="st209" d="M796.99,732.01c.28,1.63-.77,2.7-1.58,3.91-5.07,7.58-10.3,15.35-16.41,22.08,2.06-6.44,7.02-13.89,11.16-19.33,1.61-2.11,4.13-6.16,6.83-6.66Z"/>
  <path class="st88" d="M789.67,857.66c-.4.4-3.28,2.55-2.66-.15,6.27-6.55,10.31-15.58,16.98-21.51-2.72,7.02-9.05,16.31-14.32,21.66Z"/>
  <path class="st147" d="M789.98,820.99c-.82-.04-2,.42-1.99-.51,0-2.76,8.63-14.87,12-16.49-1.38,6.18-7.45,11.23-10.01,16.99Z"/>
  <path class="st70" d="M796,676.01l-13.99,18.99c.02-2.57,1.69-5.35,3.01-7.48.89-1.44,9.35-13.03,10.98-11.51Z"/>
  <path class="st149" d="M786.01,848c.4-6.54,7.62-12.36,11.98-17-2.54,5.89-7.14,12.77-11.98,17Z"/>
  <path class="st50" d="M797.99,776.01c.77.77-2.31,4.53-3.02,5.47-.64.85-6.02,7.53-6.97,6.52-.6-.64,5.69-8.97,6.59-9.9.62-.64,2.32-3.18,3.4-2.09Z"/>
  <path class="st148" d="M784.01,667c.34-4.87,3.91-11.23,7.98-14l-7.98,14Z"/>
  <path class="st187" d="M795.99,720.01c1.56,1.9-5.84,10.16-7.98,10.99.91-3.14,3.47-6.48,5.41-9.11.37-.5,1.1-3.68,2.57-1.89Z"/>
  <path class="st145" d="M787,804c1.1-1.31,1.98-3.34,4-2.99l-3.51,6.98c-2.93.49-.64-2.7-.49-3.99Z"/>
  <path class="st126" d="M623.99,355c-1.27,1.37-6.26-6.48-6.96-7.53-1.08-1.59-7.83-12.55-7.02-13.46,2.21-.09,4.26,2.49,5.43,4.06s9.34,16.09,8.56,16.93Z"/>
  <path class="st126" d="M566.01,389c-1.18-7.94-2.37-15.95-2-24,2.65,2.2,3.71,9.13,3.97,12.52.25,3.11,1.1,9.84-1.97,11.48Z"/>
  <path class="st20" d="M603.99,368c-5.09-5.21-8.67-13.99-9.98-21,5.73,4.44,9.51,13.88,9.98,21Z"/>
  <path class="st134" d="M553,370c2.65-2.01,2.87.73,3.05,2.45.63,6.12-.56,13.29-.05,19.54-2.08,1.17-2.92-4.32-2.99-4.99-.59-5.34.42-11.54,0-17Z"/>
  <path class="st17" d="M596,372.99c-1.99.4-2.39-.94-3.19-2.3-2.75-4.64-4.41-12.56-6.8-17.69,3.04-3.18,10.25,17.71,9.99,19.99Z"/>
  <path class="st197" d="M578,357c2.01-.31,2.94,1.22,3.77,2.73,2.39,4.34,4.25,13.2,5.22,18.27-5.43-5.09-5.98-14.26-8.99-21Z"/>
  <path class="st192" d="M576.99,384c-4.63-4.5-3.01-13.89-3.98-19.99,1.94-.3,2.67.77,2.98,2.51.97,5.35.94,12.01,1.01,17.48Z"/>
  <path class="st83" d="M640.99,329l-13.99-14.99c6.51.48,13.16,8.78,13.99,14.99Z"/>
  <path class="st122" d="M647.99,316l-13.99-13.99c6.03.93,13.06,7.95,13.99,13.99Z"/>
  <path class="st23" d="M627.65,322.35c3.2,3.04,7.2,9.3,8.35,13.64-2.13.27-3.67-2.97-4.96-4.54-1.44-1.77-8.17-9.98-7.03-11.46,1.15.62,2.73,1.49,3.64,2.35Z"/>
  <path class="st168" d="M652.99,307l-15.99-13.99c3.08-.47,5.25,1.22,7.49,3l8.5,10.99Z"/>
  <path class="st126" d="M659,278.99c-1.91.34-2.71-.31-4.06-1.43-1.05-.87-4.32-4.76-5.69-6.27-.99-1.09-1.82-.62-1.24-3.29,2.33-2.37,11.96,10.13,10.99,10.99Z"/>
  <path class="st107" d="M629.99,344c-2.41-1.27-13.67-13.14-11.98-14.99.97-1.07,3.35,1.85,3.96,2.53,2.94,3.22,6.32,8.39,8.02,12.47Z"/>
  <path class="st138" d="M612.99,358.99c-2.19,2.26-10.99-12.97-9.99-13.99,1.81-.36,2.49.89,3.43,2.06.83,1.03,7.03,11.44,6.56,11.93Z"/>
  <path class="st42" d="M662.99,266c-.48.51-10.6-6.76-11.7-7.79s-2.79-1.04-2.28-3.21c1.85-1.64,10.31,6.05,11.9,7.59,1.07,1.03,2.54,1.44,2.08,3.41Z"/>
  <path class="st34" d="M657,287.99c-4.07-.66-8.42-5.41-11-8.49-.94-1.12-2.43-1.63-1.99-3.5.9-.97,12.18,10.23,12.99,11.99Z"/>
  <path class="st61" d="M658,247l9,6.99c-2.17-.92-12.04-4.03-13-5.01-2.37-2.43,3.47-1.92,4-1.98Z"/>
  <path class="st150" d="M652.99,295.99c-.79.78-10.48-6.4-8.99-7.99,2.1-.32,10.5,6.5,8.99,7.99Z"/>
  <path class="st124" d="M173,661c.7-.82,4.23-4.83,4.53-4.97,6.39-2.87-3.3,12.69-6.53,8.97.91-1.34,1.52-3.44,2-4Z"/>
  <path class="st43" d="M963,586c2.08-2.3,6.56-6.47,8.99-8.51.79-.66,2-2.62,3-1-3.99,4.59-7.87,9.6-12.02,14.02-1.32,1.41-3.06,3.55-3.98,4.48-1.24,1.25-3.39,2.32-4.5,4-.75.16-.67-1.02-.48-1.48.55-1.35,7.49-9.86,8.99-11.52Z"/>
  <path class="st85" d="M790.01,909c3.76-8.96,10.92-18.44,17.98-25-3.94,8.8-10.82,18.49-17.98,25Z"/>
  <path class="st141" d="M791,934c4.24-7.27,9.43-15.34,14.42-22.11.38-.52,1.08-3.66,2.58-1.89.93,1.1-13.38,23.34-14.98,24.51-1.1.81-1.54,1-2.02-.52Z"/>
  <path class="st25" d="M795,960.99c4.6-6.5,9.13-13.65,14.99-18.99-.01,3.2-2.76,6.35-4.58,8.91-1.04,1.46-8.85,11.49-10.41,10.08Z"/>
  <path class="st80" d="M808,898.01c-3.8,4.74-6.17,10.39-9.16,15.33-.81,1.34-2.85,5.09-4.84,4.65.54-4.17,4.01-9.55,6.55-12.96.93-1.25,2.36-1.5,3.12-2.36,1.08-1.24.9-5.23,4.33-4.66Z"/>
  <path class="st163" d="M821.99,1250.01c1.13,1.17-8.65,10.24-9.98,11.51-8.94,8.54-18.14,17.11-28,24.49-1.5-1.68,10.32-12.96,11.98-14.51,5.35-5.04,11.9-10.53,17.54-15.46.98-.85,7.79-6.72,8.47-6.02Z"/>
  <path class="st163" d="M824,1260.01c.54,2.12-1.24,2.33-2.14,3.34-3.27,3.64-9.03,9.09-12.84,12.17-3.06,2.47-7.06,6.19-11.01,6.48-1.02-.81,17.28-16.74,18.8-17.93,1.3-1.02,5.78-5.33,7.2-4.05Z"/>
</svg>