<?xml version="1.0" encoding="UTF-8"?>
<svg id="Layer_1" xmlns="http://www.w3.org/2000/svg" version="1.1" viewBox="0 0 1024 1536">
  <!-- Generator: Adobe Illustrator 29.5.1, SVG Export Plug-In . SVG Version: 2.1.0 Build 141)  -->
  <defs>
    <style>
      .st0 {
        fill: #051420;
      }

      .st1 {
        fill: #0e81b8;
      }

      .st2 {
        fill: #030509;
      }

      .st3 {
        fill: #030c13;
      }

      .st4 {
        fill: #14678d;
      }

      .st5 {
        fill: #030307;
      }

      .st6 {
        fill: #0b2f45;
      }

      .st7 {
        fill: #1473a2;
      }

      .st8 {
        fill: #030c14;
      }

      .st9 {
        fill: #095178;
      }

      .st10 {
        fill: #23aad5;
      }

      .st11 {
        fill: #03070e;
      }

      .st12 {
        fill: #07283d;
      }

      .st13 {
        fill: #040b12;
      }

      .st14 {
        fill: #03101b;
      }

      .st15 {
        fill: #03080d;
      }

      .st16 {
        fill: #0c6595;
      }

      .st17 {
        fill: #010102;
      }

      .st18 {
        fill: #2cc3e9;
      }

      .st19 {
        fill: #1c7daa;
      }

      .st20 {
        fill: #062c43;
      }

      .st21 {
        fill: #051117;
      }

      .st22 {
        fill: #0a4f75;
      }

      .st23 {
        fill: #0c7cb2;
      }

      .st24 {
        fill: #0a4462;
      }

      .st25 {
        fill: #0c4769;
      }

      .st26 {
        fill: #052436;
      }

      .st27 {
        fill: #1080b6;
      }

      .st28 {
        fill: #030b13;
      }

      .st29 {
        fill: #0c5a84;
      }

      .st30 {
        fill: #0c496a;
      }

      .st31 {
        fill: #020409;
      }

      .st32 {
        fill: #084669;
      }

      .st33 {
        fill: #094e74;
      }

      .st34 {
        fill: #2cc0e5;
      }

      .st35 {
        fill: #05334b;
      }

      .st36 {
        fill: #22b5db;
      }

      .st37 {
        fill: #04090f;
      }

      .st38 {
        fill: #21b6dd;
      }

      .st39 {
        fill: #020202;
      }

      .st40 {
        fill: #0a4a6c;
      }

      .st41 {
        fill: #020f16;
      }

      .st42 {
        fill: #0a567f;
      }

      .st43 {
        fill: #03070d;
      }

      .st44 {
        fill: #02080d;
      }

      .st45 {
        fill: #21b0d6;
      }

      .st46 {
        fill: #040f17;
      }

      .st47 {
        fill: #030c16;
      }

      .st48 {
        fill: #074465;
      }

      .st49 {
        fill: #03121b;
      }

      .st50 {
        fill: #10597e;
      }

      .st51 {
        fill: #0c628d;
      }

      .st52 {
        fill: #1fb1d9;
      }

      .st53 {
        fill: #020c15;
      }

      .st54 {
        fill: #030a0f;
      }

      .st55 {
        fill: #020408;
      }

      .st56 {
        fill: #0d7aaf;
      }

      .st57 {
        fill: #0b3a53;
      }

      .st58 {
        fill: #03090e;
      }

      .st59 {
        fill: #0d547b;
      }

      .st60 {
        fill: #0b5278;
      }

      .st61 {
        fill: #030f1a;
      }

      .st62 {
        fill: #01253b;
      }

      .st63 {
        fill: #29b6dd;
      }

      .st64 {
        fill: #040e17;
      }

      .st65 {
        fill: #0b5379;
      }

      .st66 {
        fill: #1187b8;
      }

      .st67 {
        fill: #0f78a4;
      }

      .st68 {
        fill: #020204;
      }

      .st69 {
        fill: #020302;
      }

      .st70 {
        fill: #0a79b0;
      }

      .st71 {
        fill: #03060b;
      }

      .st72 {
        fill: #05263a;
      }

      .st73 {
        fill: #02090f;
      }

      .st74 {
        fill: #0c405a;
      }

      .st75 {
        fill: #187bab;
      }

      .st76 {
        fill: #02060c;
      }

      .st77 {
        fill: #051421;
      }

      .st78 {
        fill: #12638a;
      }

      .st79 {
        fill: #03090f;
      }

      .st80 {
        fill: #030d16;
      }

      .st81 {
        fill: #23b1d8;
      }

      .st82 {
        fill: #04070d;
      }

      .st83 {
        fill: #030205;
      }

      .st84 {
        fill: #061e30;
      }

      .st85 {
        fill: #3dbfda;
      }

      .st86 {
        fill: #1cabd4;
      }

      .st87 {
        fill: #1584b9;
      }

      .st88 {
        fill: #0b527a;
      }

      .st89 {
        fill: #0c77ac;
      }

      .st90 {
        fill: #020307;
      }

      .st91 {
        fill: #0a557c;
      }

      .st92 {
        fill: #0b4362;
      }

      .st93 {
        fill: #05466a;
      }

      .st94 {
        fill: #020e17;
      }

      .st95 {
        fill: #020205;
      }

      .st96 {
        fill: #29b8dc;
      }

      .st97 {
        fill: #1b90bf;
      }

      .st98 {
        fill: #12749d;
      }

      .st99 {
        fill: #1281b5;
      }

      .st100 {
        fill: #0d3b52;
      }

      .st101 {
        fill: #05060b;
      }

      .st102 {
        fill: #083147;
      }

      .st103 {
        fill: #0e5478;
      }

      .st104 {
        fill: #063c5b;
      }

      .st105 {
        fill: #2fbbdf;
      }

      .st106 {
        fill: #030910;
      }

      .st107 {
        fill: #195e81;
      }

      .st108 {
        fill: #0a4360;
      }

      .st109 {
        fill: #020c14;
      }

      .st110 {
        fill: #114862;
      }

      .st111 {
        fill: #126f99;
      }

      .st112 {
        fill: #27bee5;
      }

      .st113 {
        fill: #030204;
      }

      .st114 {
        fill: #106692;
      }

      .st115 {
        fill: #030407;
      }

      .st116 {
        fill: #0d3248;
      }

      .st117 {
        fill: #052e4c;
      }

      .st118 {
        fill: #020407;
      }

      .st119 {
        fill: #051d2c;
      }

      .st120 {
        fill: #1398c8;
      }

      .st121 {
        fill: #2fcced;
      }

      .st122 {
        fill: #031a2b;
      }

      .st123 {
        fill: #27bbe1;
      }

      .st124 {
        fill: #1e6987;
      }

      .st125 {
        fill: #030c15;
      }

      .st126 {
        fill: #051b2a;
      }

      .st127 {
        fill: #02060b;
      }

      .st128 {
        fill: #0c547c;
      }

      .st129 {
        fill: #084263;
      }

      .st130 {
        fill: #062034;
      }

      .st131 {
        fill: #042438;
      }

      .st132 {
        fill: #09405d;
      }

      .st133 {
        fill: #02080f;
      }

      .st134 {
        fill: #1aa8d4;
      }

      .st135 {
        fill: #0a3e59;
      }

      .st136 {
        fill: #107bae;
      }

      .st137 {
        fill: #03121d;
      }

      .st138 {
        fill: #03070c;
      }

      .st139 {
        fill: #2dc9eb;
      }

      .st140 {
        fill: #2ab0d8;
      }

      .st141 {
        fill: #1685b6;
      }

      .st142 {
        fill: #0d3a52;
      }

      .st143 {
        fill: #030c18;
      }

      .st144 {
        fill: #02070c;
      }

      .st145 {
        fill: #02070e;
      }

      .st146 {
        fill: #0a364f;
      }

      .st147 {
        fill: #0d78ac;
      }

      .st148 {
        fill: #02050b;
      }

      .st149 {
        fill: #0d7eb5;
      }

      .st150 {
        fill: #041522;
      }

      .st151 {
        fill: #093954;
      }

      .st152 {
        fill: #02050a;
      }

      .st153 {
        fill: #062132;
      }

      .st154 {
        fill: #084262;
      }

      .st155 {
        fill: #0f4865;
      }

      .st156 {
        fill: #23b4da;
      }

      .st157 {
        fill: #2cc5e8;
      }

      .st158 {
        fill: #030306;
      }

      .st159 {
        fill: #020508;
      }

      .st160 {
        fill: #2dc5ea;
      }

      .st161 {
        fill: #030a11;
      }

      .st162 {
        fill: #0f71a2;
      }

      .st163 {
        fill: #04111a;
      }

      .st164 {
        fill: #09537a;
      }

      .st165 {
        fill: #05324d;
      }

      .st166 {
        fill: #1891c6;
      }

      .st167 {
        fill: #0a7ab0;
      }

      .st168 {
        fill: #03192b;
      }

      .st169 {
        fill: #0a78af;
      }

      .st170 {
        fill: #1b85b7;
      }

      .st171 {
        fill: #0c4c70;
      }

      .st172 {
        fill: #03060a;
      }

      .st173 {
        fill: #020306;
      }

      .st174 {
        fill: #020b13;
      }

      .st175 {
        fill: #041019;
      }

      .st176 {
        fill: #020a13;
      }

      .st177 {
        fill: #052e46;
      }

      .st178 {
        fill: #0b3f5d;
      }

      .st179 {
        fill: #2396c8;
      }

      .st180 {
        fill: #04283d;
      }

      .st181 {
        fill: #0a557e;
      }

      .st182 {
        fill: #37c5dd;
      }

      .st183 {
        fill: #1170a0;
      }

      .st184 {
        fill: #030b12;
      }

      .st185 {
        fill: #041c2a;
      }

      .st186 {
        fill: #073e5e;
      }

      .st187 {
        fill: #041626;
      }

      .st188 {
        fill: #030e18;
      }

      .st189 {
        fill: #0978ae;
      }

      .st190 {
        fill: #0f71a4;
      }

      .st191 {
        fill: #06273f;
      }

      .st192 {
        fill: #0a79af;
      }

      .st193 {
        fill: #085782;
      }

      .st194 {
        fill: #083c5b;
      }

      .st195 {
        fill: #071823;
      }

      .st196 {
        fill: #020509;
      }

      .st197 {
        fill: #1f8cbf;
      }

      .st198 {
        fill: #1c86ab;
      }

      .st199 {
        fill: #0a5d8a;
      }

      .st200 {
        fill: #0f7cb3;
      }

      .st201 {
        fill: #030a10;
      }

      .st202 {
        fill: #020206;
      }

      .st203 {
        fill: #020305;
      }

      .st204 {
        fill: #106b9c;
      }

      .st205 {
        fill: #040e18;
      }

      .st206 {
        fill: #02070d;
      }

      .st207 {
        fill: #23b5db;
      }

      .st208 {
        fill: #0a4363;
      }

      .st209 {
        fill: #1d92ca;
      }

      .st210 {
        fill: #1371a1;
      }

      .st211 {
        fill: #0f567b;
      }

      .st212 {
        fill: #051825;
      }

      .st213 {
        fill: #041521;
      }

      .st214 {
        fill: #21b1d7;
      }

      .st215 {
        fill: #0976ad;
      }
    </style>
  </defs>
  <path class="st69" d="M180,682c-4.77,5.27-6.98,2.13-3.23-4.13,1.83-3.06,7.72-10.52,11.23-7.87.38.34.71.7.86,1.12.23.66-7.44,9.41-8.86,10.88Z"/>
  <path class="st69" d="M822.99,693.01c-1.64-.27-.92,1.35-.99,2.47-1.07,19.59,2.37,46.29,3.01,67.01,4.94,161.48,8.25,323.39,16,485,.68,14.23,3.92,29.67,1.9,43.92-.43,3.01-1.33,4.51-3.36,6.64-13.75,14.37-66.7,16.89-87.05,18.95-124.18,12.57-243.34,17.81-367.99,8.99-55.66-3.94-128.05-7.94-181.52-20.48-13.5-3.17-28.05-5.68-28.02-22.97.01-5.84.74-13.79.99-20.08,6.5-159.62,18.71-319.58,22.08-478.92.63-29.84-1.07-59.85.95-89.54-3.56,5.95-10.11,10.39-14,15.49s-.97,9.22-10.81,6.82c-16.54-4.03-58.99-33.47-74.49-44.5-23.48-16.69-53.65-39.98-73.2-60.8-4.97-5.3-17.18-17.98-15.26-25.26,44.16-91.36,95.69-179.49,151.11-264.42,23.03-15.15,47.35-28.43,72.31-40.19,27.4-12.91,62.36-23.26,87.74-37.26,4.37-2.41,3.17-3.78,5.7-6.3,4.69-4.67,34.85-18.3,41.42-18.37,10.82-.11,35.09,13.7,46.54,18.26,60.59,24.1,125.96,22.98,186.22-1.72,10.43-4.28,29.89-16.34,40.11-15.69,5.87.38,32.2,13.67,37.57,17.52,27.67,19.85,62.32,26.29,94.05,38.95,23.38,9.33,67.04,28.5,85.51,44.49,21.26,18.42,44.23,77.43,57.67,104.33,27.5,55.07,57.86,107.46,90.26,159.74,2.66,5.72,3.47,8.67.77,14.58-7.85,17.16-70.99,61.87-89.45,74.55-23.21,15.93-48.06,29.33-72.03,44.05-.95.61-1.59.74-2.66.28-.75-.32-10.28-10.06-11.54-11.54-3.37-3.96-6.86-9.47-9.5-14Z"/>
  <path class="st215" d="M326,264c14.04,53.35,33.86,100.6,83.69,129.81,64.81,37.99,128.74,32.48,192.64-2.97,38.83-21.54,68.06-72.06,78.2-114.8,1.02-4.31.15-13.17,5.2-13.87l118.23,45.37c14.02,5.21,27,13.47,40.36,19.68,2.02.94,5.36.31,3.46,3.61-.22.39-5.99,3.65-7.34,5.13-6.68,7.34-19.87,42.64-23.47,53.53-29.05,87.96-23.75,154.59-18.97,245.01.46,8.73,4.6,37.87,1.04,44.06-.84,1.47-4.17,3.73-5.57,5.43-4.08,4.97-9.91,11.52-13.31,16.69-1.12,1.7-2.59,3-2.17,5.32l22.98-25.99c-1.34,4.94,2.08,13.11.81,17.29-.56,1.86-11.53,13.38-13.77,16.23s-5.09,6.1-6.02,9.47c6.57-5.24,11.69-12.08,16.99-18.55.96-1.18,1.03-3.95,3-1.95-.28,6.24.78,12.29,1,18.5l1,20c0,4.98.04,10,0,15-2.29,4.24-5.42,8.14-9.4,11.69-2.48,4.1-5.35,7.2-8.6,9.31-.95,2.87-2.93,5.74-5.94,8.62-1.78,2.04,1.55,12.39,2.14,12.68.39.19,6.16-3.63,5.79-5.3l.23-1.59c2.63.23,4.54-1.8,4.77-4.41,1.7-1.79,9.15-11.15,10-11.51,1.21-.51,1.41.32,1.86,1.15,1.18,13.52.72,26.79,1.14,40.36-.07,1.74-.75,2.78-2.04,3.11l-6.84,7.51c-4.7.97-14.55,13.61-11.13,17.76.25.31,5.01-4.1,5.02-5.38-.6-.84-.54-1.39.05-1.99,5.27-5.32,9.89-10.16,13.95-16.01,1.16,6.01,1.83,12.34,2,19,.03,5.46-.47,11,.76,16.38l-4.76,4.62c-.52-.43-.94-.74-1.02-.67-3.07,2.67-8.16,7.87-8.98,10.67-3.79,4.5-8.83,11.32-9.99,17l24.49-27.99c1.09,4.21.24,8.71.5,12.99-.34,2-1.01,2.67-2,2-.95,3.01-5.49,9.43-9,8-.38-1.84.52-4.04,2.7-6.61-1.25-2.12,0-3.47.75-1.18.26.78-7.75,12.58-9.95,12.7-2.8-4.5-5.66,9.55-5.72,11.41-.2,6.78,4.2,1.6,5.22-2.32-.23-.62-.37-1.22-.22-1.74.59-2.03,13.18-15.81,15.85-18.71.3-.33.81-.47,1.37-.55,1.75,3.7,3.69,11.68-2.51,12.06-3.38,3.17-14.88,16.89-16.07,20.62-2.35,7.38.55,14.38,4.58,3.32-1.82-4.26,10.71-13.89,1.73-5.16l-2.73.16c-.77.7-1.95,1.07-2.43.35-.68-1.05,13.12-18.43,14.88-19.65,1.18-.82,3.17-.97,4.55-.7.35,8.55,2.4,14.07-1,22q-7.94,8.49,0,0c.65-.06,1.34.03,1.99,0l1.02,42.3c-3.65,1.85-20.58,18.55-20.02,21.19,1.12,5.2,4.67-2.22,5.59-3.39,3.96-5.06,8.06-9.02,12.43-13.61.96-1.01.9-4.05,2.98-1.97-.48,3.68.67,8.56,0,12-.46,2.42-7.82,6.83-10.05,8.95-2.85,2.71-4.35,5.5-7.96,8.54-3.15,3.83-2.94,6.34,2,3,.24-.37.27-1.5.95-2.51,3.09-4.64,10.98-9.7,14.56-14.49,3.46,8.18-2.52,9.73-7.02,14.98s-9.08,11.31-13.49,17c1.88.44,2.38-1.04,3.5-1.99,6.89-5.79,11.61-13.71,18-20,3.16,7.73-4.12,9.27-8.52,13.48-3.16,3.03-6.02,6.32-8.99,9.51-.58,2.16-.1,3.55,1.42,4.16,5.66-3.88,5.85-1.93.58,5.84,2.41-.16.98,2.97-1,2-2.34,3.35-2.49,6.69-.45,10.01l16.02-16.38,2.43.37c.12,4,.75,17.63-.17,20.33-.46,1.35-17.77,13.03-17.83,18.66,1.88.44,2.38-1.04,3.5-1.99,5.08-4.26,9.06-10.08,14.49-14,1.35,6.13-3.43,6.31-7,9.49-2.84,2.52-5.64,5.51-7.99,8.5l15.99-10.99c1.75,7.13-3.18,6.63-6.99,10.5-2.31,2.35-8.46,8.71-7.51,11.49l14.01-13.99c3.7,9.14-9.55,11.72-13.56,18.44-1.44,2.41-.64,3.47-.94,5.55,1.08,2.78.87,6.06-.65,9.83-1.92,5.85-1.37,8.25,1.65,7.17-1.29-1.61.13-3.01,2-2v1c.44.67.79,1.18.85,1.14,2.48-1.7,6.47-5.61,8.15-8.14-2.85-.91,2.65-6.84,4-3-.02,1.66.06,3.34,0,5l.79,4.93c1.46,2.55,2.27,4.77.21,7.07.09.98-.03,2.01,0,3l-.89,3.17c-4.8,4.14-8.83,8.75-12.11,13.83-.34,1.33,0,2.26,1,2.81l-3.58,8.07c-.34,2.02-.05,2.6,2.37,1.57,3.9-4.14,8.13-7.92,12.7-11.34l1.51,8.88c-.15,1.43.28,2.19-.99,3.49-2.44,2.51-11.7,6.3-14.13,9.98-1.2,1.82.41,3.02-.77,5.05-2.47,4.26-19.62,19.04-24.62,24.47-6.54,7.1-13.31,14.42-18.48,22.52,1,1.62,2.21-.33,3-1,3.22-2.71,7.04-6.85,10.02-9.98,15.31-16.1,29.17-33.82,45.96-48.53-1.69,5.43,2.2,20.46.85,24.34-.64,1.83-10.36,7.44-10.85,11.15l11-9.49,2.05,62.3c-5.55,5.08-11.64,9.98-17.08,15.16-2.2,2.1-5.82,8.53-8.66,9.34-4.19,1.2-13.8,1.21-18.3.7,6.36-5.26,11.89-11.51,17.98-17.02,4.79-4.34,22.47-17.4,23.84-22.17.37-1.31.53-3.07-1.31-2.31-1.6.66-8.26,8.54-10.5,10.51-6.44,5.65-27.73,21.23-31.08,26.93-.94,1.61-.78,4.11-1.07,4.42-.89.96-13.69,1.76-15.86.64l58.85-57.15c-.05-5.96-2.04-.69-2.91.05-20.98,17.63-40.2,37.14-59.39,56.66-13.57,3.25-28.12,1.91-42.05,2.95-15.39,1.15-30.73,3.75-46.02,4.98-88.12,7.09-177.72,4.05-265.95,1.97-14.87-.35-29.73.63-44.54-.97l7-6.98c-6.9-2.35-9.63,5.23-14.18,6.33-2.31.56-5.32-.81-7.82-.35l8.97-9.52,4.52-6.48c-4.66,1.61-15.01,14.86-18.2,15.81-5.07,1.5-24.6-1.19-31.29-1.8-5.05-1.04-3.71-3.04,4-6,1.34-1.32,1.87-2.66,1-4-3.03,2.09-6.69,5.12-8.13,8.4l-2.87.6c-2.47-.2-5.03.18-7.52,0-1.49-.11-2.89.78-2.48-1.49,25.38-27.36,52.62-52.79,80.47-77.53l.51-4.98c-23.37,21.34-48.84,42.95-70.02,66.47-4.78,5.31-9.62,10.75-12.97,17.1-9.4-1.43-19.08.1-28.49-.59-14.15-1.04-33.68-3.18-47.52-5.98l-1.49-3.66c-1.83-34.74-.54-70.21.91-105.56,5.91-122.79,12.12-244.8,18.6-366.03l-1.6-1.87c3.48-21.48,5.03-44.18,4.63-68.12l2.14-116.59c1.43-20.11-.48-38.76-5.72-55.95l1.51-5.83c-5.08-29.29-10.07-57.42-14.98-84.4-3.81-27.85-15.23-73.47-32-96,5.56-6.33,13.4-10.65,23.51-12.95,9.87-6.28,20.08-11.08,30.64-14.4,10.99-7.35,21.93-14.34,35.3-17.76l2.54,1.11c-1.62,3.42-4.75,6.16-9.4,8.22l-31.92,16.9,67.74-35.56c-1.71.88-3.03,1.11-4.43-.56-.72.24-1.55.44-2.28.15-5-1.99,9.94-8.73,11.61-8.83,1.75-4.45,6.11-6.29,13.09-5.51-3.01-3.95,2.5-7.41,5.59-4.8Z"/>
  <path class="st215" d="M817,1101c.02,4.41-.18,8.56,0,13-4.52,4.03-9.05,8.4-13.58,13.1-4.62,1.03.53-8.89,3.18-10.19-3,1.23-3.35-.16-2.6-2.9,2.58-4.41,7.62-10.22,11.71-13.37.21-.16.71.05,1.29.37Z"/>
  <path class="st215" d="M804,760c-.05,3.25.68,10.62-.49,13.01-.48.97-5.37,4.09-7.02,5.98-2.96,3.4-5.51,7.45-8.49,11.01v3c-3.47,8.61-8.48,2.73-8.58-4.25-.05-3.78,5.33-9.66,8.58-10.75-.83-1.89,13.11-18.62,14.62-18.53.47.03.93.25,1.38.53Z"/>
  <path class="st70" d="M846,341c2.2-4.08,6.38-4.69,6.67.71,2.88.06,5.6,4.3,4.7,7.1,11.84,3.13,3.23,13.22-2.2,19.32-.97,4.28,9.98-4.28,10.59-7.28l1.25.15c6.09,7.8,9.5,17.28,14,26,1.85,3.8,1.59,6.84-.78,9.14,2.16,1.13,2.09,2.41-.22,3.86.36.75.52,1.58.06,2.33-1.95,3.14-15.08,23.03-16.5,23.02-.52,0-1.04-.16-1.56-.35-3.55,2.99-5.38-2.76-2.12-5.31-1.15-1.65-1.51-3.83-1.09-6.53-2.04-2.94-2.31-5.32-.8-7.16-.86-1.31-2.53-.31-5,3,2.83,4.37,4.3,9.94,4.39,16.71,2.89,6.01,5.94,12.04,9.16,18.09.64,9.8,5.47,5.99,5.45-1.8-.73-.75-1.39-1.42-2-2-1.96,4.91-5.23-.1-6.28-3.46-.48-1.54-1.32-6.57.28-6.54-.4-.56-.71-1.13-.74-1.7-.1-2.6,12.06-19.92,14.78-23.37l2.96-.93,2.3-1.33c1.65-4.23,3.22-4.79,4.7-1.67,11.96,23.2,23.2,46.81,35,70,1.08,2.25,1.37,3.39-1.3,4.11,1.14,2.96.57,4.92-1.7,5.89l.98.53c-5.36,10.64-11.02,21.13-16.98,31.47,3.15,1.65,3.92,4.72,2.32,9.21l4.56,7.41c-.7,3.49.08,5.45,2.32,5.91.91,11.27,6.31,4.48.97.13l.83-4.65c-.71-1.59-.14-2.77.58-4.15,4.34-8.3,8.47-16.57,12.58-24.98.64-1.31,1.42-2.34,2.84-2.87l-.65-1.63c-3.92,1.75-2.8-3.22-1.33-5.97-2.65,3.27-5.31,6.7-7.98,10.28l1.96,1.32c2.15,1.33.47,5.52-2,5-3.33,5.05-16.18,15.06-14,3-.28-1.07-.41-2.07-.05-2.84,4.19-8.86,9.3-18.56,15.05-26.16l.35-1.11c-.35-2.46.33-9.23,3.65-4.89,11.82,23.26,23.07,47,38.19,68.31l8.8,17.69c-10.83,3.23-22.58,9.36-32.51,15-39.41,22.38-79.43,57.28-110.49,90.01-5.17,4.52-6.79-6.84-2-8l.26-3.05c6.12-7.25,5.7-7.56-1.26-.95-4.11,5.92-2.51-6.07-1.27-9.24,3.1-4.04,4.52-7.96,4.27-11.76,5.73-15.91,6.76-25.33,10.28-41.22,4.59-20.74,12.75-46.76,13.72-67.78,1.56-4.43-.69-15.48-3-4.72l-3,5.72c-5.69,21.13-13.12,41.77-18.5,63.01-.33,3.86-4.07,1.47-5.04,2.98-.45.7.75,2.22.05,3.93-.48,1.18-8.06,8.56-7.52,9.08-.85-6.76-2.19-14.02-3-21,.54-2,.21-4-1-6-.28-2.55.24-5.42,0-8,1.94-7.66,2.17-9.66.7-5.99-5.44,1.23.4-15.79,2.3-18.01,3.29-16.14,8.15-31.69,11.73-47.77,3.96-17.79,11.43-48.49,12.3-65.7.06-1.17-.05-2.36-.04-3.53-1.07-1.49-6.94,14.67-7.44,16.05-6.48,17.88-10.44,36.66-15.55,54.95-2.64,1.12-4.2,4.25-4.68,9.4-1.3,2.84-3.12,6.47-6.32,4.6-1.4-36.68,4.99-70.01,14.28-105.22,6.45-24.44,12.38-46.49,25.72-67.78Z"/>
  <path class="st169" d="M213,1249c11.84,2.61,27.31,4.15,39.51,4.99,118.82,8.18,238.78,11.53,357.95,7.97,24.18-.72,46.89-1.57,71.04-3.96,12.17-1.2,24.28-4.02,36.51-3.98l-6.97,6.52-8.52,12.48c5.84-4,10.47-9.58,15.52-14.48,1.14-1.11,2.16-3.56,2.98-4.02,4.16-2.34,14.97-.67,19.98-2.51.55,2.39-.41,1.62-1.3,2.23-7.04,4.81-12.72,10.29-19.22,15.74l-13.96,15.04c13.47-9.43,26.11-20.62,37.15-32.85l43.33-1.15-12.97,13.55c-1.04,1-5.97,2.61-1.54,3.42,11.63-7.25,20.12-21.18,35.51-18.98l-33.99,32.5c.71,3.27,3.88,3.97,6,1.49,2.76,1.41,3.09,6.95,0,8-.74.03-1.99-.72-3.3-.64-7.01.42-15.33,3.14-22.7,2.63l12.99-13.49-1.48-.49c-5.44,3.57-13.04,14.08-19.11,14.89-10.66,1.43-23.12.49-33.89,1.11-39.41,2.28-78.58,4.82-118.02,6.98-109.05,5.98-218.28-2.75-327-11.98-20-1.7-38.33-1.45-58.49-5.01l-2.82-1.56c-.93-1.45,2.92-30.87,5.07-33.09.51-.52,1.11-.95,1.75-1.36Z"/>
  <path class="st192" d="M168,336c.64-1.47,1.23-2.48,3.01-1.55,1.65.86,9.26,10.6,10.39,12.65,18.94,34.16,24.21,83.88,26.64,122.36.08,1.33.74,6.24-1.03,6.54-7.73-32.73-18.97-64.45-30.52-95.99-3.47,6.37,4.64,18.17,3.58,23.31-.19.92-2.24,1.13-3.06,2.15-1.77,2.18-13.29,16.99-12,18.54,7.58-3.69,9.22-13.44,15.98-18-.66,3.05,2.44,7.79,1.84,10.3-1.07,4.5-12.6,12.4-10.82,18.7l11.49-12.98c1.16-.04,2.62,7.06,2.34,8.28-.44,1.88-14.56,15.75-16.87,20.17-.84,1.6-1.27,2.64-.96,4.53,7.17-5.95,12.2-14.15,18.49-20.99.37,3.56,3.21,7.82,2.54,11.45-.17.94-2.69.38-3.99,1.07-3.97,2.09-10.27,12.43-13.05,16.48l.26,2.46c-3.95,1.85-1.39,9.02,2.87,5.61,2.1,1.66,4.06,1.97,5.87.93-.96-1.36-.58-3.06,1.13-5.11l-2.13.11c-2.35,6.48-9.49.64-5-3,5.02-5.65,8.62-12.62,14.99-17l4.04,20.3c-5.6,5.34-13.26,12.48-14.02,20.7l14.49-16.98c1.33,0,2.91,7.78,2.56,9.28-.2.84-2.51,1.37-3.5,2.73-1.6,2.18-2.63,4.86-4.12,6.9-1.35,1.85-9.26,10.56-9.22,11.58.02.39,2.12,2.47,2.29,2.47,1.29.02,14.84-17.5,14.51-20.97,1.85.53,3.05,7.17,2.54,7.98-.48.75-2.43,1.34-3.41,2.66-2.08,2.81-3.35,6.12-5.18,8.82-3.49,5.17-9.74,9.88-8.96,16.53l3.99-3c2.17,2.11-1.23,7.4-4,7-6.66-22.74-14.81-45.94-23.51-67.99-.48-1.21-1.04-2.75-2.48-3.01,2.38,10.55,2.42,21.66,4.24,32.25,3.77,21.92,10.66,44.69,15.46,66.54.92,4.2,5.49,22.55,4.07,25.01-.33.57-8.04,6.69-9.8,8.68-3.76,4.25-8.82,10.45-10.96,15.53,5.94-4.22,10.12-10.3,14.95-15.54,2.08-2.25,6.07-2.97,6.05-7.45,1.43-.3,1.05,1.13,1.31,2.16.76,3.08,2.33,8.67.75,11.38-4.49,5.08-10.09,10-14.07,15.45-1.56,1.16-8.12,6.96-8.85,8.14-1.33,2.15-.5,6.05,2.09,2.28.76-1.87,2.35-3.01,4.76-3.42,5.76-6.81,12.24-13.17,17.99-20-.05,4.2,4.67,13.77,3.83,17.24-.36,1.49-16.79,22.33-18.82,24.26-3.02,2.87-6.19-1.3-5.91-2.85.33-1.84,14.08-17.37,16.35-20.71,1.04-1.52,1.74-3.29,2.56-4.93-1.09-1.11-6.69,5.06-7.51,5.98-2.49,2.78-12.36,18.25-14.8,17.87-2.1-.32-18.79-16.93-22.21-19.84-22.23-18.88-52.11-39.6-78.47-52.03l-.92-3.33c33.81-66.34,72.26-135.12,110.53-197.33,1.55-1.17,2.56-11.83,2.33-12.43-3.23-2.35-4.28-5.15-2.93-8.9Z"/>
  <path class="st81" d="M216,434c.9-2.53,1.67,1.23,1.73,1.76,2.98,26.37,12.17,54.4,15.2,80.84.46,3.97-1.64,6.18-1.5,7.49.23,2.26,2.98,7.17,3.55,11.43,4.06,30.61,1.38,66.76.94,97.99s-.5,63.38-1.91,95.04c-.4,8.93-.71,29.13-4.02,35.96-.39.8,1.83-.26,2.08,1.91.48,4.05-.83,7.69-.95,11.21-4.78,136.09-16.71,273.09-19.13,408.89-.33,18.61-.89,36.96,0,55.49-3.83-.77-17.69-3.11-18.03-7.49l3.07-34.96c6.06-183.23,16.87-365.99,22-549,1.95-69.63,6.37-147.81-3.04-216.54Z"/>
  <path class="st70" d="M368,238c.31,9.26,2.34,20.12,3.93,27.75,1.27,6.11,2.41,12.24,4.07,18.25.34.89.2,1.75-.68,2.03,4.07,3.07,3.24,5.89-2.47,8.48,7.15,3.03,11.17,8.98,12.06,17.85,3.8,1.84,6.35,4.83,7.66,8.98l8.58,8.7c.32,5.38,4.2,5.76,6.85,1.97,1.01.97,5.63,4.9,7,6l1.71,2.11c-4,5.48-3.53,7.47,1.4,5.98,1.94,1.33,4.01,2.36,6.22,3.1,2.21,3.13,8.23,7.35,11.88,4.28,1.9.86,3.83,1.37,5.79,1.53,32,15.49,73.78,20.94,108,10,5.4,1.85,16.88,4.17,15.71-3.97,13.18-5.61,25.44-13.46,36.8-23.57l5.3-2.34c-1.42-3.93.26-7.06,5.06-9.39l5.42-10.16,2.72-.57,1.37.23c3.24,7.23,7.8-8.09.95-.22l-2.32-.02c-2.02-1.88-2.02-5.21,0-10,1.31-2.3,2.81-4.65,4-7,2.91.69,10.81-14.14,10.45-15.34-.1-.32-.66-.51-1.36-.65-.15-.46-.29-.93-.38-1.4-.34-1.7,9.17-29.61,13.3-31.61,2.73-.67,9-.55,12.05.19,1.65.4,9.06,3.8,9.35,4.28,1.69,2.75-4.8,5.41-6.95,5.77-.88,1.89-1.37,3.81-1.46,5.76,4.66.59,6.7,2.2,6.14,4.85,2.01,2.36,1.92,3.12-1.14,2.15-6.62-.92-13.19.65-19.99-3-3.11,2.96,13.61,6.75,14.99,7l1.9.93c.32,3.46,1.49,4.75,3.52,3.87-.51-3.03,2.6-4.56,4.58-2.8-.59,6.27-4.26,13.58-5.01,20-1.03.9-18.61-9.4-21.98-10-.36,2.04,1.28,2.85,2.66,3.83,2.36,1.68,17.22,7.85,17.42,8.81.25,1.22-1.52,9.17-3.57,8.35-4.38-6.03-10.74-10.94-18.51-10.98l18.08,12.62c.38,1.85-6.66,16.87-8.07,17.89-1,.72-1.8-.8-2.52-1.5-1.71-1.68-12.79-14.52-13.49-16.01l-2.27-.68c-.53-8.37-1.47-9.32-2.82-2.87,1.99,1.57,2.68,3.08,2.1,4.55,4.45,5.33,8.84,10.88,13.45,16.06,1.01,1.13,3.58,1.98,3.57,2.46-.04,1.72-12.17,17.11-13.01,16.48-2.54-7.72-7.71-14.97-14-20l11.97,22.53c-.04,1.81-7.35,8.55-8.98,10.47h-1c-1.2.57-2.24-.17-3.12-2.25l-.88,1.25c1.67,2.72.53,4.84-2.77,4.5-1.25,3.11-3.44,7.86-5.23,2.5-1.5-.43-2.5-.1-3,1,2.41,4.97-4,9.84-8,7-2.15-2.78-3.15-2.78-3,0l1.07,5.46c2.14-.3,2.12.55-.07,2.54-14.48,8.73-39.97,20.56-56.74,23.77-1.04.2-3.5,1.03-3.26-.76,2.26-1.29,7.37-3.03,9.02-4.55.31-.29,2.97-7.54,2.97-7.97v-16c0-1.48-3-1.48-3,0v19c0,2.01-10.63,8.84-12.97,10.03-18.65,9.5-62.86,3.05-83.04-3.02-7.77-2.34-15.09-6.5-22.99-8.52l14.02-20.47,1.98-5.51c-1.88-.39-2.42.93-3.42,2.07-2.89,3.3-12.21,20.2-15.22,20.76-10.75-5.09-21-11.58-30.35-18.84-3.32-2.77-1.82-5.6,1.82-4.49l1.18-1.51c2.75-3.99,3.08-5.65,1-5-2.87,5.89-10.05,5.43-7-1,.49-1.09-.51-1.42-3-1-1.21,3.34-2.88,4.34-5,3-.97-1.02-1.85-1.66-3-3-1.41-2.24-.07-3.24,4-3,.07-1.83-.93-2.83-3-3-.45,2.94-1.78,3.61-4,2-.9-1.26-3.09-2.87-3.98-4.5,0-1.53,18.39-6.73,17.97-12.5-5.46,1.3-10.56,6.6-15.94,7.57-1.21.22-3.05.15-3.03-1.07.04-1.92,17.81-10.35,17.96-12s-2.42-1.18-3.7-.73c-2.59.9-8.7,4.79-11.58,6.43s-5.84,5.88-8.41,3.5c-2.19-2.03-10.18-15.02-12.09-18.39-6-10.61-9.38-20.84-13.19-32.31-1.11-3.57-.56-7.12,3-4l-.27-1.33c5.45-2.44,11.14-4.13,16.88-5.81l-.61-1.86c-3.05.07-3.78-5.98-1-7-.87-.9-.39-1.37.56-1.38,1.1,0-18.71,4.84-20.56,4.38-.37,2.76-1.37,3.09-3,1-.8-2.96-2.17-5.82-2-9,8.47.2,16.83-2.03,25-4.02-.81-2.55-3.94-2.05-6-1.99-2.21-2.74,6.85-5.2,7.85-5.01,2.37.46,4.51,6.33,3.03,8.43.25.63,1.25,1.66,1.25,1.56.01-8.45-1.32-17.16-3.34-25.32-.2-3.41,2.39-4.48,4.21-1.67Z"/>
  <path class="st169" d="M981,596l-1.67-.83c-1.33,1.81-3.07,3.35-5.33,3.83-6.15,5.36-19.36,10.78-26.92,15.58-35.98,22.87-69.46,50.24-99.58,80.4-4.33-5.8-9.01-11.33-13.5-16.98l.19-2.11c3.75-.37,5.44-2.19,5.07-5.46,2.9-2.15,4.48-4.63,4.74-7.43,23.91-25.7,52.54-50.39,82.08-69.42,15.63-10.07,33.06-20.86,50.93-25.17.48,5.45,14.48,18.58,14.88,21.25.35,2.33-8.76,5.74-10.9,6.34Z"/>
  <path class="st189" d="M55,564c37.55,16.21,70.49,44.73,100.76,71.49l-2.75,5.51c2.04-3.26,8.24-4.04,7.84.33-.23,2.51-9.29,11.65-7.85,16.67,2.56.61,1.75-.78,2.61-1.87,3.26-4.08,6.81-7.86,9.89-12.11,2.56,2.75,5.52,3.67,3.99,7.93-1.94,5.41-12.24,14.07-14.98,20.03-24.6-24.46-53.4-46-83.19-63.79-9.98-5.96-22.02-13.02-32.31-18.19,3.68-7.54,8.08-16.1,12.51-23.83.29-.51.85-.88,1.45-1.26s1.33-.67,2.05-.91Z"/>
  <path class="st45" d="M168,336c1.26,3.68,2.42,8.12,7,8.01-4.94,2.79-1.16,6.27-3.22,11.19-4.39,10.48-14.8,23.81-20.77,34.31-29.01,51-57.84,102.87-85.86,154.14-2.45,4.48-4.46,9.56-6.15,14.35-4.4-2.08-9.31-3.68-14-5.01l.42-2.06,122.58-214.93Z"/>
  <path class="st214" d="M326,264c-.68,1.22-5.01,1.17-4.98,2.5,0,.43,3.56,2.34.99,4.02-.88.58-10.23.29-11.8,1.7-.45.4-.26,2.23-1.21,3.25-1.66,1.8-7.36,3.06-9.72,4.32-1.7.91-2.95,1.24-1.29,3.21l-1.31,2.73-17.69,8.95-3-.68c-5.83,2.58-13.62,4.43-19.15,7.14-3.03,1.49-7.69,5.29-10.96,7.25-1.53.91-3.83,1.13-4.98,2.12-.97.84.21,2.43.1,2.49-.49.27-2.89-.72-4.71-.24-6.86,1.82-20.53,10.6-27.93,14.11-5.36,2.54-12.42,4.28-17.29,6.71-2.12,1.06-3.69,4.64-7.07,4.43-1.42-1.91-8.88-8.7-7.99-9.98,47.84-26.7,98.24-48.27,148.5-69.99,2.44,1.42,1.04,4.24,1.49,5.98Z"/>
  <path class="st134" d="M424,303c-1.78-3.2.6-2.95,3-1,3.64.51,7.72,2.62,11.62,2.9l.85-1.89c36.46,6.39,73.97,10.81,110.75,2.71,20.34-4.48,41.22-12.4,59.77-21.72,2.58,2.66-13.89,14.21-16.07,15.42-40.83,22.5-128.77,26.03-169.92,3.58Z"/>
  <path class="st38" d="M561,265c7.47.02-3.2,7.2-6.42,6.18-3.66-2.34-8.27,2.72-8.58,6.82-2.18,7.18-5.35,12.6-9,19-1.47,2.49-3.03,3-4,0,1.42-2.44,10.26-20.23,10-21.48-.31-1.52-1.45-1.29-2.69-.72-4.05,1.86-11.86,24.93-16.93,27.09-1.16.49-2.95.55-2.37-1.36l13.97-24.02c.05-1.21-1.36-1.23-2.65-.69-5.78,2.43-12.22,19.21-16.02,24.92-.91,1.37-1.56,1.42-2.82,2.26-1.31-.64-.07-2.73.31-3.69,2.6-6.63,10.34-14.91,12.01-21,1.31-4.78-3.43-.68-4.81.7l-2.09.37c-.63-2.23-2.6-2.69-5.91-1.37-.31.19-.63.7-1,1-2.75,1.98-4.91,1.06-4.9-2.53-6.03,2.7-9.07,1.86-9.1-2.5-3.94,2.18-8.37,3.67-13.3,4.48-2.26-2.01-4.5-2.83-6.7-2.45-2.4.98-3.46,1.98-5,4-2.02,2.02-2.97,2.02-3-1,.67-.94,2.98-4.06,1.99-4.99-4.5-4.27-16.05,17.77-18.46,20.03-6.83,6.42-3.46-1.22-.97-4.97,2.06-3.1,10.46-11.56,11.29-13.72.25-.65.59-2.29-.35-2.35-1.53-.07-3.06-.18-4.5.5-1.72.82-11.81,17.85-14.13,20.87s-5.8,2.01-3.69-1.68c1.94-3.39,14.47-17.72,14.81-19.22.61-2.7-3.31-2.12-3.98-2.47-1.43.94-1.99.37-1.68-1.72-1.65-.7-2.43-1.46-2.32-2.28-3.01,1.67-7.34-.69-5-4,39.19,6.21,78.77,10.9,118,2Z"/>
  <path class="st207" d="M213,1249c-2.83,10.06-3.72,20.58-4.54,31.04-.14,1.79-.94,3.22.54,4.96-3.11-.55-16-2.09-16.86-4.64l.85-33.87,1.5-4.49c5.02,4.2,12.23,5.61,18.51,6.99Z"/>
  <path class="st36" d="M334,257c-.39-1.89-1.29-7.49,0-8.49l32.54-16.48c2.48-.71,1.41,4.34,1.47,5.98l-3.98.98c1.42-.14,1.72.09,2.08,1.45,2.93,10.88,2.33,23.51,4.9,34.57-6.72,1.54-3.58-4.65-5.17-8.33-.75-1.73-2.64-1.5-2.79-1.71-.71-1,1.59-2.69,1.6-3.43,0-.24-1.56-4.25-1.73-4.41-1.39-1.22-6.47,1.7-7.9,2.89-5.02.16-17.29,4.69-20,0-.01-1.9-.34-2.9-1-3Z"/>
  <path class="st167" d="M780,1283c.43-4.06,7.68-8.2,10.53-10.97,9.91-9.67,17.76-22.52,31.96-26.04.87-.01.66,6.41.46,7.47-1.12,6.12-23.37,24.19-28.95,29.55.12,3.07-1.88,5.74-6,8-2.64.16-5.35-.11-8,0,.19-2.38-.21-5.98,0-8Z"/>
  <path class="st52" d="M621,315c-2.6,3.91-4.35,8.47-6.56,11.94-.89,1.4-5.11,2.85-5.36,4.69-.22,1.66,2.37,1.76,1.01,3.87-1.63,2.54-4.69,2.33-6.5,3.63-10.93,7.84-20.08,16.68-32.69,22.3-1.39.62-3.77.43-3.92.57-.47.44,1.07,3.12.55,4.05-1.37,2.47-17.1,4.92-17.54-1.06,31.53-10.08,54.98-31.76,71-60,1.52,2.49-.38,6.33,0,10Z"/>
  <path class="st120" d="M664,244c2.88,2.73,1.21,3.73-5,3l-1.3,2.12-10.47-1.03-.23.91c1.85,2.47-1.73,3.5-2.55,5.95-2.01,6.01-3.97,12.01-6.24,17.73-.3.76-5.81,8.89-1.94,8.05,5.09-1.11,5.43,3.62,1,3.48l-8.43,15.61-3.85-1.82c10.78-21.27,13.11-33.98,15.01-57.49.3-3.76.26-10.79,4.4-10.51s15.9,10.75,19.59,14Z"/>
  <path class="st66" d="M577,260c7.04-.1,13.78-3.02,19.57-6.81,5-2.42,8.12,2.96,3.43,3.81-.57-2.05-3.3,1.79-3.43,2.07-3.82,8.59-5.64,19.44-12.08,26.92-1.86-4.25,8.86-22.18,7.49-24-7.65.75-16.15,28.81-18.5,29.99-.46.23-1.7.2-1.48-.49,3.79-3.82,3.19-9.19,4.67-13.33,1.74-4.84,5.4-8.99,5.31-14.18-1.9-2.07-7.27,7.55-7.99,9-2.4-.25-3.4-1.25-3-3-.24-.19.92-2.42-1.51-2.03-1.82.29-2.91,1.75-3.92,3.1-3.56,4.73-8.85,16.18-11.1,21.91-1.08,2.74.7,6.86-4.46,5.52l10.98-27.51c-7.38,2.07-10.94-1.16-14.99,7,.28-.92-.29-2.74.21-4.25.66-1.99,6.63-6.13,8.25-5.74,1.43.34.87,3.26,2.53,2.99-1.75-3.09,9.75-5.76,4.01-5.99,5.38-1.22,10.79-3.19,16-5Z"/>
  <path class="st156" d="M55,564c-3.86,6.69-7,13.9-10.99,20.51-1.04,1.72-2.63,5.67-5.01,5.49-1.34-.67-13.22-4.67-12.99-5.49l14.11-25.39c1.67-1.06,12.34,3.78,14.88,4.88Z"/>
  <path class="st36" d="M408,332v4.99c-.43.4-6.71-1.36-7.4-1.88-1.02-.77-.41-2.75-1.16-4.07-.81-1.43-6.82-6.64-8.48-8.55-1.38-1.59.03-4.4-3.97-3.51l2-2.98c-8.77,1.06-6.88-11.34-9.49-15.05-.43-.61-8.23-4.66-8.49-5.51-1.22-3.98,5.92-4.69,5.96-5.95-3.86-2.9-8.35-5-9.85-10.15-.52-1.78.07-1.12,1.11-1.6,5.86-2.67,3.5,2.53,5.67,5.64.81,1.16,1.97.47,2.09.6,3.09,3.42,4.22,11.5,7.16,16.34,5.01,8.22,17.97,25.08,24.84,31.66Z"/>
  <path class="st56" d="M192,528c3.89,2.7,3.93,6.12.13,10.26l-.13,2.74v1c-1.25,3.35,2.61-.35,4-2,2.83-4.4,6.51-8.4,9.01-12.99,1.76-.19,1.08,3.43.97,4.48-.25,2.52-.99,5.61-2.13,7.87-2.1,4.18-9.19,9.95-10.84,14.16-.48,1.21.28,1.99,1.48,1.48,4.32-1.86,6.88-9.2,10.5-11.99,1.93,11.98-4.71,17.9-10.49,26.99-1.16-8.86-7.2-20.44-7.5-29l-1.57-11.06c-.07-5.23.34-10.54,6.57-8.94-.46,2.1-2.18,5.46,0,7Z"/>
  <path class="st23" d="M192,521c-1.85,1.92-8.85,4.9-2.99,4.51-3.17,5.03-.92,7.48-.89,12.07,0,1.88-1.12,3.25-1.11,3.43-2.99-5.38-3.34-12.35-5-18,.93-2.58,2.64-4.54,4-7,4.1-7.38,8.32-14.99,14.5-20.98,1.01-.03,3.6,11.2,3.34,12.28-.21.88-10.31,12.11-11.84,13.7Z"/>
  <path class="st163" d="M817,1101l-13,13c.25-.55-.02-1.84.56-2.9,3.23-5.87,9.11-8.7,12.44-14.1.04,1.33,0,2.67,0,4Z"/>
  <path class="st163" d="M804,1114l.49,1.99c3.34-2.23,7.1-6.99,11.5-6.5-3.55,6.21-11.28,9.87-13.49,16.51,4.98-3.36,8.69-9.68,14.49-12.01.11,2.9,1.43,5.97,1,10l-1.5-8c-3.36,3.4-7.26,5.94-10.53,9.47-1.62,1.74-3.65,6.87-4.47,2.53l-42.5,42.99c.16-3.35,4.19-7.38,6.48-10.01,8.54-9.8,27.42-24.53,33.55-34.45,1.69-2.74,3.3-8.89,4.97-12.53Z"/>
  <path class="st173" d="M816,1082c1.58.88.61,3.22,1.29,4.74s5.67,3.34-.29,7.26c-.19-2,.83-4.08-2.02-2.52l-59.98,64.52c-.31-1.99.55-3.36,1.55-4.94,6.81-10.81,21.53-23.13,30.39-32.56,8.58-9.13,16.55-18.78,25.52-27.55.92-.9,3.16-1.88,3.31-2.15.7-1.22.15-4.96.22-6.8Z"/>
  <path class="st147" d="M166,683l16.5-21c1.98,2.65,3.75,5.15,5.5,8-.27-.29-5.38,3.75-6.04,4.46-1.98,2.09-5.88,7.24-5.46,9.54.76-1.5,2.65-1.45,3.5-2l-6.02,11c-1.88,1.29-7.55-9.51-7.98-10-.16-.18-1.79-.12-2.52-.98-2.46-2.86-4.71-5.89-7.46-8.52,3.62-1.69,15.62-20.8,17.31-20.39,1.92.46,6.38,4.82,6.38,6.39,0,3.08-15.7,17.16-13.71,23.5Z"/>
  <path class="st147" d="M180,682l8-12c.24.39,2.31.77,1.97,2.4-3.21,3-6.28,7.26-9.97,9.6Z"/>
  <path class="st167" d="M798,1289l-.73-2.2c6.29-4.53,11.53-9.8,15.73-15.8,3.39-2.94,6.49-6.2,9.99-9-.8,5.33,2.89,11.63.06,16.56-.45.78-8.33,7.23-9.32,7.68-3.85,1.75-11.28,1.99-15.74,2.76Z"/>
  <path class="st195" d="M659,247c4.82-1.23,7.66-.49,8.52,2.22l1.48-.22c.2.84-.14,2.05.01,3,1.98-1.34,3.36-2.52,5.98-1.99,1.35,1.34-2.56,12.85-2.99,15-3.29,1.21-9.31,2.48-12,0-.55-1.47-6.92-1.92-6.98-3.5-.11-2.79,6.45-.07,6.98-.51-3.36-4.91,5.02-3.12,7-6.98-6.45-3.48-13.7-3.37-20-5.01-.68-.18-2.01-1.13-2-1.99,5.35.21,8.69.91,14,0Z"/>
  <path class="st155" d="M574,323c.12.04.39,1.25,1.41.99,1.19-.31,2.69-4.26,4.58-2.49-5.93,6.34-16.4,14.38-24.51,17.49-2.79,1.07.82-3.16-1.96-1.97-4.07,1.75-5.87,5.58-8.21,6.79-2.6,1.34-7.52,1.91-10.28,2.92s-5.12,2.96-7.95,3.85c-.92.29-3.33,1.23-3.07-.57l3.99-3.01c-.02-.66.03-1.21.32-1.4,4.98-3.24,11.31-6.97,16.68-8.6,9.19-5.58,18.86-10.25,29-14Z"/>
  <path class="st86" d="M442,355l-2,3.99.47-2.98c-3.79-2.49-5.08,1.2-7.73.87-2.08-.26-5.38-3.59-8.53-3.07-.75-6.41-4.53-2.08-5.21-2.8-.3-.32.29-2.7,0-3.01-.35-.35-6.94,3.04-7.02-3.52-.02-1.73,3.53-3.77,3.02-6.48,6.55,5.25,19.48,13.36,27,17Z"/>
  <path class="st4" d="M424,265c1.71-1.52,2.32-4.55,6-4.01l-2-2.98c.58-.44,13.01,2.51,14.27,3.03,1.15.47.56,1.67.73,1.96,2.77,4.72,1.48,2.21,5,4,1.09,1.77-5.39,4.81-6,2,1.77-2.32.82-2.4-1.54-2.05-3.87.56-2.67,1.99-4.56,3.45-5.79,4.46-11.77,8.27-16.88,13.61,2.74-6.66,7.95-13.42,12.96-18.57,2.14-2.2,6.04-1.28.05-5.43-.21,3.61-5.06,4.22-7.02,6-1.41,1.33-1.92.77-1-1Z"/>
  <path class="st136" d="M804,1068c1.15-1.28,10.65-12.51,11.99-10.99-.06,6.65.1,13.34,0,19.99-4.36-.19-3.76,2.81-4,3-1.84,2.44-6.26,7.32-9,7v-1c.04-2.49-.62-3.49-2-3-3.66,2.27-.6-7.66.45-10.08,1.48-1,2.33-2.64,2.55-4.92Z"/>
  <path class="st162" d="M175.98,643.99c-1.1.8-6.33-3.44-5.61-6.02,1.36-4.86,15.05-16.71,18.12-21.96,5.03,6.21-.18,7.01-2.93,11.05-3.54,5.21-6.45,11.43-9.59,16.93Z"/>
  <path class="st149" d="M821.9,1237.9l-21.9,4.09,20.5-18.98c2.61,4.41,1.26,10.01,1.39,14.9Z"/>
  <path class="st162" d="M191.99,624c-.37,4.27,3.09,8.05,1.82,12.28-2.87,1.64-10.47,15.07-12.23,14.67-1.05-.23-4.25-3.72-3.47-5.25l13.88-21.71Z"/>
  <path class="st23" d="M192,541c-3.15-3.16,2.15-5.63,1.99-8.99l-4.98.49c2.11-1.15,2.15-3,2.98-4.5,3.25-5.86,7.76-11.32,12.5-16,.24,2.29,1.61,5.35,1.55,7.55-.11,4.29-12.58,15.92-14.06,21.44Z"/>
  <path class="st140" d="M619.99,242l-9.5,23.99c-1.11-6.37,6.7-13.17,2.01-18.97-3.6.03-7.79,25.8-9.42,29.56-.48,1.1-2,3.64-3.08,2.41-.84-.95,5.67-20.36,5.93-24.65.11-1.89-1.35-5.62-.88-6.26.5-.68,12.85-5.45,14.94-6.08Z"/>
  <path class="st29" d="M620,359c1.25-.28,2.59.06,4,1h1c-9.91,11.69-12.8,14.04-26,22l-1-8c1.95,1.47,2.95,1.47,3,0,3.11-1.41,8.65-2.85,8-7,1.16.08,2.19-.12,3-1,2.86,1.89,1.47.77,2.33-1.12s2.03-3.48,1.68-5.88l1.98,3.51,2.01-3.51Z"/>
  <path class="st63" d="M577,260c9.19-3.18,17.94-7.51,26.99-11,1.2,1.32-8.85,33.13-10.51,33.99-2.07.4-1.69-.81-1.28-2.28,2.31-8.37,5.76-14.08,7.8-23.71.04-.17,1.42-.87,1-1.99-6.07-2.24-4.32.44-6.04,1.41-4,2.25-13.7,6.36-17.96,3.58Z"/>
  <path class="st65" d="M797,1017c-.71.96-3.81,4.18-2.99,4.99.92.91,2.85-1.29,3.51-1.98,3.74-3.88,8.18-9.75,11.9-14.1,1.63-1.91,2.52-6.42,4.59-4.41.05,2.5-.08,5.01,0,7.5l-18.51,19c-3.66-2.9-2.64-8.15-1.28-12.32.72-2.21,1.67-.63,1.79-.68,1.94-1.09,2.27-.42,1,2Z"/>
  <path class="st42" d="M888,401l-1.98-1c-.4,2.3-2.78,5.93-5.02,4-1.47-.73-1.34-1.86.39-3.39l-1.39-.61c.4-1.83-.4-3.06-2.09-1.36-1.84,1.86-3.74,5.7-6.42,7.35-.75.16-.67-1.02-.48-1.48,1.41-3.41,6.74-8.01,8.81-11.19.54-.84,2.09-2.63.68-3.32-4.21,1.6-10.05,10.71-13.02,11.99-1.18.51-1.99-.29-1.48-1.48,1.43-3.34,11.87-10.77,14.99-13.51,2.4,4.65,4.62,9.38,7,14Z"/>
  <path class="st25" d="M798,1289c-3.41.59-7.22,1.83-10,2,.16-3.38,3.57-5.67,6-8,.25,1.75,2.98-.43,3.66-.84,6.41-3.81,9.76-6.31,15.34-11.16-.26,8.41-10.22,12.23-15,18Z"/>
  <path class="st57" d="M807,841c-2.45-6.29.28-12.5-2-19-1.14.32-1.3-.43-.63-1.16.4-.43-3.93,9.94-6.37,8.16-2.95,1.53-7.06,4.79-8,8l.79,1.12c-2.14,2.04-2.07,2.67.21,1.88-.15,4.12-3.78,7.82-6.99,10,.45-3.52-.93-8.81.51-11.98,2.2-4.85,17.56-15.67,21.48-21.02.24,7.98.96,15.89,1,24Z"/>
  <path class="st89" d="M341,274c2.87,1.6.01.93.18.86,1.18-.45,7.42-2.28,7.84-2.01s.71.68.99,1.14c3.37-.52,5.04,1.48,5,6l-.5,2.29c-3.82.79-6.66,2.36-8.5,4.71-2.26.96-3.68,1.1-3,4-1.76-5.28-3.54-10.6-5-16,.9-.63,2.02-.65,3-1Z"/>
  <path class="st32" d="M809,888c-6.69,3.91-11.28,10.52-15.99,16.51-.65.83-3.47,2.55-1.01,3.49l.82,2.16c-2.35,2.61-2.29,3.56.18,2.84.47,4.64-2.08,8.26-7,7.99-.3-.27,1.55-6.25,1.51-7.93-.04-1.49-1.57-2.43-1.4-3.41.2-1.19,13.3-16.09,15.35-18.7.83-1.06,1.35-3.58,1.68-3.79,1.16-.73,4.44.23,4.86-.15.61-.57.02-8.24-1.01-10.01-1.36,1.36-1.93.74-1-1,.56-.51.88-1.75,2-2,.27,4.59.81,9.26,1,14Z"/>
  <path class="st30" d="M846,341c1.43-2.28,2.45-10.97,6.54-8.05,1.29.92,8.5,11.8,8.44,12.56-1.29,1.64-3.71.74-2.99,3.48,6.41-1.55,5.14,6.49,6.01,10,.71.85-.16,1.68-.97,2.42.59-.68.91-1.48.97-2.42.21-.19.05-1.43,1.49-1,1.33.51,1.15,2.53,1.51,3-1.25,1.44-11.65,13.44-12.99,12,.48-1.69-1.11-4.23-.85-5.43.34-1.58,10.64-8.29,9.88-13.97-.11-.86-1.94-.82-2.47-1.56-.47-.66.53-1.97.44-2.02-.63-.38-3.32.51-3.96-.1-1.11-1.05,2.31-4.67-7.05-1.92l5-4.49c-7.34,1.2-3.56-3.17-3.99-3.49-.67-.5-4,.27-5,.99Z"/>
  <path class="st116" d="M499,333c2.15.11,2.91,2.04,4.5,2.03.39,0,.87-4.94,3.5-.03-6.75,5.7-14.09,10.03-22,13-3.22-.21-4.72-2.14-7-3l.51-1.78c6.98-3.22,13.81-6.62,20.49-10.22Z"/>
  <path class="st99" d="M797,1017l-1-2c1.39-.54.93-.66,1-2,1.61-3.56,4.4-7.69,6.91-11.04-1.41,1.3-2.44,1.59-3.91.04.39-.56.4-1.79,1.43-3.02,3.18-3.8,8.14-6.58,11.08-10.97,3.91,12.77-8.57,19.65-15.5,28.99Z"/>
  <path class="st102" d="M561,326c-2.3,4.57-11.86,10.7-17,10-8.81,6.13-19.35,12.35-30,16-1.27.13-2.69-.02-4,0,13.2-8.15,26.2-16.15,39-24,5.74-2.3.08.59,3.49.99,2.2-3.16,4.85-3.37,8.51-2.99Z"/>
  <path class="st74" d="M521,339l-.02,1.62c-4.47,2.96-8.79,5.75-12.98,8.38.87.28.86.62,0,1,2.07.92.84,1.58-1,2-2.08-.12-4.17.32-6.25-.23-3.04-.82-4.68-3.64-9.75-1.77-.65-3.11,1.24-1.54,2-1.99,3.98-.56,7.44-2.93,10.57-5.38l1.43.38,16-4Z"/>
  <path class="st108" d="M660,276c3.1.54,7.26,1.3,9.99,0,0,.66.07,1.34,0,2-4.23-.33-1.72,3.92-2.91,4.54-1.65.85-7.17.48-8.09,1.48-1.85,2.02,5.25,3.57,5.89,5.6.42,1.34-.57,3.39-1.39,3.36-.86-.03-13.2-10.02-11.49-11.98,2.15-.73,3.31,2.74,4.47,2.74.24,0,4.35-1.6,4.52-1.77.36-.37-1.56-4.6-1-5.97Z"/>
  <path class="st40" d="M175,464c.85,1.17-.63,6.25,5,3,1.08,1.29,1.42,2.96,1,5-.41.82-.85,3.87-1.01,4-2.4.65-3.54-3.44-5.47-3-2.16.49-1.42,6.02-4.52,5,1.54-3.3-1.96-8.47-1.8-10.33.23-2.71,3.03-3.55,3.8-4.66.39,2.57,2.89.85,3,1Z"/>
  <path class="st141" d="M574,323l-27.53,15.98c-2.54.4-.62-.79-1.47-1.98-.87.2-1.2-.13-1-1,5.5-2.88,11.51-7.48,17-10,3.75-1.72,9.41-4.12,13-3Z"/>
  <path class="st67" d="M478,276c5.62-2.3,6.72,1.3,9.45,1.07.58-.05.43-2.02,1.15-2.07s1.8.92,2.78.76c1.37-.22,5.38-5.01,8.63-3.76v5c2.42.72,5.4-1.22,7.35-1.04.28.03,2.45,3.47,4.66,3.03-.2.16-2.88,2.83-3,3-1.67,1.12-3,1.45-4,1l1.99-6c-.66-.66-5.2,2.15-5.99,3-1.47,1.02-2.47,1.02-3,0,3.53-5.35-3.57-2.5-6,0h-1l1-1.99c-5.58-1.02-5.63.72-9,3.99-1.85,1.23-4.22,1.55-5-1,1.28-1.61,2.44-2.27,3.98-3.5-.99-1.42-2.31-1.7-3.98-1.5Z"/>
  <path class="st42" d="M168,606c-.96,1.33-4.71,6.97-3.99,8l1.99-1c-3.75,4.43-1.44,4.2-7.5,7.97-1.09.68-2.08,2.62-3.01,3.02-3.9,1.68.81-5.37,1.05-5.96.62-1.51.14-3.54.99-5.01.53-.91,3.72-2.45,5.05-3.96,2.46-2.79-.27-5.48,5.43-3.07Z"/>
  <path class="st27" d="M817,605l9.99-8c.89,5.96-4.35,9.55-5.98,13.52-1.15,2.82,2.91-.85,2,1.99-1,3.14-4.16,5.26-3.03,9.48-1.49.18-1.48-2.68-1.69-3.79-.84-4.36-.77-8.96-1.3-13.21Z"/>
  <path class="st170" d="M549,328c2.25.84-1.52,2.18-2,2.5-12.09,7.92-24.06,14.98-37,21.5-.99.01-2.01.05-3,0l1-2c5.2-2.2,10.2-4.86,15-8-4.58,3.13-9.47,6.19-15,7-.9.41-4.3,2.75-1.99-.49,5.63-2.21,10.06-6.25,14.99-9.51,6.7-4.43,10.87-8.86,20-8.99l-18,11.99c8.39-4.07,18.08-10.83,26-14Z"/>
  <path class="st138" d="M816,546c-.3,1.48.38,3.48-.2,5.28-.66,2.04-3.26,2.52-3.78,5.24-.2,1.02-.8,6.32.97,6.48l.02-5.99c2.31.19-.58,3.99,2.97,2.99l10.04-16.98c1.42-.1,2.41-.48,1.89,1.39-2.1,7.66-11.23,18.13-14.91,25.6-.82-8.81-5.28-16.05,3-24Z"/>
  <path class="st146" d="M806,514c2.03-1.09,3.92-3.7,4.74-5.76,1.16-2.93,1.62-14.56,6.26-8.24-1.6,5.73-3.25,11.32-5,17-1.68,2.7-3.35,4.03-5,4-.91-2.31-.91-4.57-1-7Z"/>
  <path class="st103" d="M474,344c-2.04-.96-3.75-2.55-6-3.01-1.19-1.74,19.14-9.38,21.99-6.98l-2.75,1.74.75,1.25c-1.88,3.72-9.57,6.06-14,7Z"/>
  <path class="st208" d="M801,1083c.54.99.54,2.66,0,5-1.54,1.37-1.58,2.71-5,1.99,1.73-6.09,3.06-12.62,4-18.99l.5.98c1.34-1.17,2.32-2.67,3.5-3.98-.15,3.51.5,1.62,1.98.48,2.06-1.59,5.76-6.37,8-2.98-4.14,4.56-9.89,5.38-12.54,11.21-.17.38-2.01,6.17-.44,6.29Z"/>
  <polygon class="st10" points="554.99 274 545.5 299 541 299.99 551.58 276.08 554.99 274"/>
  <path class="st193" d="M926,476c-3.48-.46-.77.87-1.49,2.95-.41,1.18-1.94,2.09-2.51,3.05-.7-.42-1.36-.75-2-1,.3-1.23.23-4.79-.5-6l-17.01,15.99c-.74.16-.68-1.05-.49-1.48,1.35-3.03,11.5-11.28,14.55-14.5.79-.83,1.35-2.74,1.6-2.89,1.67-1.05,5.48,3.11,4.84-1.12.76,1.49,2.07,3.17,3,5Z"/>
  <path class="st34" d="M501,280c-3.12,3.33-7.75,14.73-10.51,16.99-1.76,1.45-3.39,1.07-5.49,1-.9-.65,10.82-16.64,13-17.99.55-.34,1.81-.39,2.52-.78l.48.78Z"/>
  <path class="st4" d="M405,264c1.65-2.53,2.82-5.95,5.5-7.99v3.99c5.73-7.57,8.63-6.6,16.49-2.5-4.15,1.75-6.76,3.38-10,6.5-2.09,1.13-2.42.47-1-2,7.63-9.83-3.29-2.09-7,1-1.05.54-2.38.88-4,1Z"/>
  <path class="st6" d="M830,634c-.16,3.39.49,1.98,1.82.32,3.49-4.34,5.73-9.96,10.17-13.32.89,1.18-3.23,8.73-4.17,10.32-2.34,4-10.07,11.82-11.33,14.71-.53,1.22.37,2.48.16,3.31-.36,1.41-2.42,4.64-1.64,5.65.16.21,1.83-.21,1.99,0,2.27-.66,2.6.68,1,4,.07,1.84-3.02,8.16,2,8-1.04,1.1-2.64,4.38-4.48,4-3.79-4.17-1.53-9.45-1.47-13.54.04-2.35-1.27-4.36-.89-6.7.58-3.59,5.35-12.62,6.84-16.75Z"/>
  <path class="st51" d="M390,359c1.08.21,2.08.55,3,1,2.51,6.28,3.13,3.51,7,1l1.17,1.12c-4.04,4.07-4.76,5.36-2.17,3.88-.13.12.18,1.2-.29,1.68-1.32,1.36-4.9,1.74-2.71,4.32-4.82-3.74-6.69-5.45-11-10,1.13-1.58,4.01-2.25,5-3Z"/>
  <path class="st183" d="M196,648c.4,3.26,2.89,16.59-3.34,14.9-1.01-.27-4.36-4.74-4.36-5.4,0-.49,4.61-6.95,5.47-8.19.6-.87-.18-1.86,2.22-1.31Z"/>
  <path class="st200" d="M196.01,581l-.87-9.27,7.85-8.72c.48,7.28-.06,14.08-6.98,17.99Z"/>
  <path class="st145" d="M813,578l2.01,2.51,8.02-10.98,8.97-9.52c-2.63,10.32-11.33,16.38-18,23.99-.2-1.75-.75-3.77-1-6Z"/>
  <path class="st112" d="M483,282c-5.73,5.55-9.49,12.32-14.99,18-.23-6.48,5.97-13.95,9.99-19,1.6.06,4.15-.62,5,1Z"/>
  <path class="st166" d="M499,333c.17,2.32-4.59,4.24-6.33,5.18-4.79,2.57-9.92,4.23-14.67,6.82-1.05-.4-2.36-.23-4-1,3.76-3.24,9.43-5.15,14-7,3.46-1.4,6.85-4.21,11-4Z"/>
  <path class="st179" d="M493,348c7.75-4.67,21.85-14.64,29.95-16.56,1.01-.24,3.27-1.32,3.04.54-7.21,3.1-14.16,7.17-20.99,11.01-1.91,1.07-2.76,2.65-4.78,3.73-.69.37-6.47,2.71-7.22,1.27Z"/>
  <path class="st21" d="M334,257c8.71-2.74,16.65-6.65,26-3.99,1.76,1.42-.18,1.77-1.51,1.97-6.72,1-13.37,1.84-20.06,3-1.87.32-4-1.13-3.43,2.02-.91-1.57-.67-1.42-1-3Z"/>
  <path class="st97" d="M448,267c3.44,1.75,3.12,3.54,4,4-.73,1.55-1.94,2.7-3,4-2.28,1.19-2.61.52-1-2,.94-1.08,3.72-4.63.49-4.02-4.78.91-16.16,14.36-18.49,19.02-6.42-.83,2.36-10.85,6-12,.9-1.08,5.58-6.82,6-7,1.31-.55,4.84.56,6-2Z"/>
  <path class="st142" d="M844,663l1.99,3.48c-.78,1.88-4.46,3.19-4.77,3.74-.66,1.19.16,3.27-.7,4.79-.73,1.27-4.89,2.64-6.52,2.99-.43-.54-2.32-.7-1.97-2.4,4.11-4.09,8.03-8.36,11.97-12.6Z"/>
  <path class="st160" d="M473,280c-2.47,3.24-7.18,10.39-9,14-2.32,4.38-6.72,2.39-4-2,3.06-4.51,6.89-8.61,10-13l3,1Z"/>
  <path class="st139" d="M449,275c-4.2,5.12-7.61,11.09-12,16-3.86,2.87-4.05.44-2-3,4.39-6.76,8.23-9.53,13-15l1,2Z"/>
  <path class="st18" d="M571,270c1.17.92,3.7.35,3,3-1.3,2.61-2.57,6.84-4,10-1.72,2.79-6.02,6.01-5,1,1.63-4.58,3.18-10.2,6-14Z"/>
  <path class="st209" d="M507,335c.45-.21,5.68-2.47,4.51,0-7.26,3.1-18.68,13.5-26.51,13-.61-2.73,1.47-1.85,2.93-2.52,6.6-3.02,12.58-7.49,19.07-10.48Z"/>
  <path class="st197" d="M544,336c.44.24.72.6,1,1-5.74,2.53-11.65,7.23-17,10s-8.05,4.37-14,5l30-16Z"/>
  <path class="st121" d="M509,282c-3.18,4.48-4.81,10.11-7,15-1.14,2.75-5.56.8-5-2,1.88-3.05,5.64-9.99,8-12,.99-.85,2.18-1.69,3.48-2.01l.52,1.01Z"/>
  <path class="st50" d="M436,276c-1.99,2.4-8.27,9.15-6,12-.4.8,0,2.38-1.55,2.99-1.23-.68-6.04-1.45-5.35-3.37.89-2.48,7.15-8.66,9.4-10.65,1.22-1.07,1.66-2.52,3.5-.97Z"/>
  <path class="st198" d="M628.01,250l.98-9-6.49,5.99c-3.09-7.3,4.22-8.12,9.5-9.99,1.17,1.6-1.08,11.72-3.98,13Z"/>
  <path class="st157" d="M518,283c-2.55,3.64-4.85,8.96-7,13-1.22,2.73-3.86,1.94-4-1,1.68-3.83,3.69-7.5,6-11,1.28-2.58,6.1-4.78,5-1Z"/>
  <path class="st96" d="M425,266c-4.74,4.3-7.28,10.04-11,14.5-1.02,1.23-2.17,2.8-4,2.49-2.86-3.29,11.48-15.77,13.99-18l1,1Z"/>
  <path class="st59" d="M672,265c-.07.32.07.68,0,1-1.56,1.8-1.56,2.8,0,3-.33,1.66-.39,3.37-1.06,4.97-2.13.93-5-1.83-5.94-1.97,2.28-.45-.37-3.42-1.48-4.1-1.59-.97-3.24.41-3.52.1s.26-2.3,0-3l5.17-.78,6.83.78Z"/>
  <path class="st105" d="M492,280c-4.18,4.29-8.19,13.07-12.14,17.36-2.85,3.09-5.15,2.53-2.67-1.67,3.16-5.34,9.08-11.67,13.81-15.69h1Z"/>
  <path class="st65" d="M311,1240c.2,1.11-.14,2.44-1,4-1.07,3.28-2.36,4.45-6,4.01v.98s2,1.01,2,1.01c-2.26-.2-4.66-.89-6-1,2.42-3.1,6.17-11,11-9Z"/>
  <path class="st26" d="M804,760l-8.51,7.99c-2.59,3.29-5.09,6.59-7.49,10.01-1.77,2.14-2.45,1.69-2-1,6.2-6.91,10.95-14.99,18-21-.01,1.33.02,2.67,0,4Z"/>
  <path class="st178" d="M854,525c.07-1.4.42-3.98-.5-5l-5.5,6c.63-2.32,1.32-11.13,3.6-11.92,6.33-2.19,4.71,7.93,2.4,10.92Z"/>
  <path class="st9" d="M632,312c-1.11-1.33-3.84-1.9-4.05-4.56-.03-.39,1.85-6.18,2.1-6.4,1.07-.95,8.75,1.85,2.94,3.44,2.32,1.76,1.07,4.53,2.01,6.52l-3,1Z"/>
  <path class="st7" d="M474,331.01c-3.93,4.63-7.96,9.98-13.99,5.98l8.7-5.78,5.29-.2Z"/>
  <path class="st132" d="M793,872c-2.37-.82.32-2.69.95-3.55,2.91-3.94,5.8-6.51,9.08-9.97.74-.78.85-2.35.99-2.47.61-.54,2.71-.16,1.97,1.48-.11.25-2.49,3.78-2.99,4.51-2.88,4.17-7.17,6.64-10,10Z"/>
  <path class="st204" d="M570,283c-.99,2.19-4.1,11.24-5.51,11.99-2.32,1.24-1.61-5.81-1.51-6.53.4-3.08,1.6-3.28,2.03-4.46l.47.89,4.53-1.89Z"/>
  <path class="st210" d="M812,517c-1.42,4.61-2.73,9.34-4.01,13.99-1.53-.1-1.98-4.51-2.01-5.55-.08-2.48,0-2.42,1.02-4.44.85-1.66,3.43-4.15,4.5-6l.5,2Z"/>
  <path class="st182" d="M417,264c-1.32,1.27-11.24,14.77-12.99,12.99,2.51-5.93,8.13-10.02,11.99-14.99l1,2Z"/>
  <path class="st16" d="M502,297c-.43.96-1.95,4.67-2.15,4.85-.82.73-5.28-.15-6.85.14.91-2.58,2.59-4.7,4-6.99l5,2Z"/>
  <path class="st151" d="M981,596c-1.75,2.13-4.19,3.36-7,3,3.59-3.13,5.08-8.64,9.51-10.99l-2.51,7.99Z"/>
  <path class="st78" d="M202,580.01l-2.49,12.99c-2.81-4.43-4.32-11.82,2.49-12.99Z"/>
  <path class="st110" d="M427,302c-1-.14-2.62-.19-3,1-1.02-.56-10.57-6.51-8.99-7.99,4.09,1.36,9.59,3.28,11.99,6.99Z"/>
  <path class="st75" d="M185.01,655c-1.39-1.56,6.69-11.98,8.98-12.99.42,1.83-.61,2.77-1.35,4.14-.54,1-6.29,10.36-7.64,8.85Z"/>
  <path class="st100" d="M460,292c-.67,2.46,2.19,3.17,4,2-1.34,2.66-1,7.79-5.01,5.52-4.37-2.47-.55-5.23,1.01-7.52Z"/>
  <path class="st211" d="M669,249c-1.1,3.57-3.03,4.59-5,1.01l2-2-6.99-1.01c2.81-.49,4.06,1.27,5-3,2.27,2.01,4.13,1.34,5,5Z"/>
  <path class="st190" d="M511,296c-1.99,3.74-1.99,9.3-6.99,5.51,1.43-1.96,2.03-4.33,2.99-6.51l4,1Z"/>
  <path class="st98" d="M513,278c2.55-1.53,6.5-2.2,8,1-.18.18-2.59,3.41-3,4-.71-2.18-3.56.5-5,1,.42-.64.1-2.06,1.42-3.08,1.2-.93,3.37-.59,3.59-1.43.68-2.55-2.85-1.22-5.01-1.49Z"/>
  <path class="st124" d="M409.99,253.01l-11.98,11.99c2.17-4.96,6.8-10.17,11.98-11.99Z"/>
  <path class="st135" d="M794,984c-2.02,2.89-1.26,3.36,2,3-.88,1.34-1.16,3.86-3.51,5-2.14-2.37-3.91-3.91-.97-7.02.92-.97,2.23-.77,2.47-.98Z"/>
  <path class="st19" d="M464,329.01c-1.92,3.37-7.24,4.95-11,4.98,1.01-1.38,4.53-4.06,5.94-4.55,1.64-.57,3.37-.49,5.06-.43Z"/>
  <path class="st114" d="M537,297c-1.61,2.83-.12,4.56-4.46,5.05-5.65.64-.46-3.46.46-5.05h4Z"/>
  <path class="st85" d="M409,263c-2.3,1.92-4.75,6.08-7.5,8-1.63-2.69,2.09-4.83,3.5-7,1.14-.68,3.45-3.23,4-1Z"/>
  <path class="st26" d="M804,741c-2-6.08-.78-13.53-1-20,1.84,6.03,1.01,13.6,1,20Z"/>
  <path class="st51" d="M383,353c1.4.77,2.4,1.77,3,3-1.32,1.17-2.8,1.77-4,3-1.56-1.82-1.77-2.28-3-4,1.07-1.26,2.84-1.38,4-2Z"/>
  <path class="st24" d="M196,540c-1.91,2.97-1.47,8.83-6.99,3.49-.5-2.57,1.75-1.11,2.99-1.49,1.56-.47,2.77-.84,4-2Z"/>
  <polygon class="st107" points="825.01 1287.01 820 1286.99 824.5 1280 825.01 1287.01"/>
  <path class="st181" d="M793,787l2,1.5c-1.8,2.39-4.58,3.03-7,4.5-.78-.08-2.04.41-2.01-.51-.42-1.66,1.46-1.83,2.01-2.49l.52,1c2.13-.16,3.06-2.51,4.48-4Z"/>
  <path class="st181" d="M788,778c-2.47,3.53-7,8.2-7.12,12.55-.04,1.4,3.13,5.37,3.6,5.42,1.15.12,3-2.65,3.52-2.97.68.07,2.03-.41,1.99.49-1.97.48-8.66,10.05-9.99,8.5,1.77-6.35-6.31-14.69.5-20.03,3.11-2.43,2.53-1.65,5.49-4.96l2,1Z"/>
  <path class="st195" d="M672,266c-.18.89.18,2.1,0,3-7.74,5.08-6.41-2.71,0-3Z"/>
  <path class="st111" d="M435,288c-.04,2.37-.67,3.47,2,3-1.03,1.16-4.18,5.48-5,1.48-.3-1.43,2.24-3.29,3-4.48Z"/>
  <path class="st39" d="M240.01,1068l15.96-48.55c-.02-2.75,0-1.99-1.26-.25-3.92,5.4-7.07,11.41-12.22,15.8-.74.16-.67-1.03-.48-1.48,3.41-8.13,13.26-17.07,17.19-25.81,6.16-13.7,8.62-30.35,14.81-44.2l-.02-1.51-25.49,31.99c-.53-3,2.82-7.46,4.69-10.31,10.85-16.52,27.02-28.29,29.73-49.29.35-2.72-.18-1.86-1.21-.2-6.73,10.79-14.85,20.13-24.21,28.8l-.49-1.48,26.83-33.18,8.15-24.34c-1.1-1.46-21.47,26-23.5,27.99-.71.7-9.27,7.67-7.49,3.52.5-1.17,4.64-4.45,5.96-6.04,6.94-8.32,21.59-24.19,26.44-32.56,4.6-7.95,6.01-20.07,10.56-28.46,0-2.75-.05-2.24-1.19-.19-1.9,3.4-3.73,6.85-5.96,10.06-8.1,11.63-18.62,26.69-27.84,37.17-1.11,1.26-4.08,5.32-5.97,4.02,11.75-16.56,24.02-32.72,35.58-49.42,7.38-10.66,15.17-23.3,17.34-36.67.17-1.02.66-2.68-.91-2.41-1.52,4.53-4.8,9.06-7.6,12.91-13.86,19.05-29.33,37.41-43.4,56.09l.24-3.25c18.62-27.86,41.37-52.92,58.23-81.77.64-1.1,1.02-2.74,2.51-2.98-3.94,11.51-4.68,23.41-7.28,35.21-15.31,69.45-38.09,141.15-68.85,205.15-2.48,5.16-5.1,11.48-8.85,15.64Z"/>
  <path class="st17" d="M223.01,1167l79.98-169c.25,1.69-.27,3.2-.69,4.8-11.6,43.86-33.94,97.66-57.88,136.12-5.91,9.49-13.29,20.59-21.41,28.08Z"/>
  <path class="st95" d="M380,1116.01c-1.28,2.31-1.86,4.86-3.45,7.04-7.74,10.52-28.19,26.9-38.59,37.44-1.99,2.01-3.93,5.02-5.91,7.04-15.99,16.19-32.42,31.94-48.03,48.48,1.98-7.27,7.07-12.14,11.96-17.53,18.06-19.89,40.1-41.75,59.5-60.5,6.39-6.17,14.47-14.49,21.02-19.98,1.12-.94,1.63-2.43,3.5-1.99Z"/>
  <path class="st83" d="M298,283c2.98-1.22,6.48-1.72,9.49-3.02l.38,2.88c-28.32,14.22-55.83,30.45-84.5,43.99-4.45,2.1-13.82,7.11-17.88,8.12-.55.14-1.63.29-1.47-.48,18.34-12.58,38.95-21.96,58.67-32.33,4.52-2.38,8.88-5.85,13.33-8.17,6.75-3.53,15.09-8.17,22-11Z"/>
  <path class="st173" d="M789.99,370l-17.98,136.99c.29-8.45-.44-17.03,0-25.48,1.68-32.39,7.9-74.2,15.15-105.84.43-1.89.01-6.47,2.83-5.66Z"/>
  <path class="st202" d="M279.01,1241c1.31-6.58,7.53-10.33,11.5-14.99,20.82-24.41,49.91-54.83,73.96-76.04,3.1-2.74,12.95-11.56,8.51-2.49-18.29,15.71-34.54,33.45-51.46,50.54-6.59,6.65-14.03,12.6-20.55,19.45-1.74,1.83-20.54,25.1-21.96,23.53Z"/>
  <path class="st95" d="M288.01,1187.99l7.5-10.99,83.48-80c.18,9.81-11.54,15.31-18,21.48-22.13,21.12-46.53,48.4-69.48,67.52-1.12.94-1.62,2.42-3.5,1.99Z"/>
  <path class="st113" d="M820.99,335.02c3.71,4.34-9.62-1.39-10.67-1.85-28.37-12.46-56.59-26.17-84.68-39.32-2.51-1.17-6.12-2.46-7.64-4.85,11.57,2.62,22.82,7.04,33.68,11.81,12.54,5.52,26.3,12.26,38.68,18.32,10.33,5.06,20.59,10.29,30.63,15.88Z"/>
  <path class="st95" d="M385.99,1073.01c.21,2.05-1.33,3.54-2.48,5.01-16.09,20.56-46.57,44.59-66.53,62.47-6.84,6.13-13.66,14.74-20.94,20.06-1.37,1-2.01,1.89-4.04,1.45l93.99-88.99Z"/>
  <path class="st95" d="M609.99,1151c.23,2.14-1.02,4.11-2.35,5.64-12.44,14.33-34.58,27.95-47.66,42.84-9.09,8.28-16.51,18.18-24.96,27.04-1.08,1.13-7.91,8.58-9.02,7.47-.11-1.89,1.55-3.43,2.6-4.89,19.36-27.04,48-48.18,72.3-70.7,2.65-2.46,4.41-7.32,9.1-7.39Z"/>
  <path class="st173" d="M367.65,1075.65c-10.36,10.29-22.56,20.1-33.18,30.32-11.72,11.3-23.79,25.82-35.97,36.03-1.12.94-1.63,2.43-3.5,1.99,25.45-33.3,59.42-58.99,88.5-88.99,1.38,1.28-.27,3.76-1.05,4.95-2.16,3.25-11.46,12.38-14.8,15.7Z"/>
  <path class="st95" d="M615.99,1163c.73,3.87-2.05,5.66-4.47,8.02-10.44,10.19-22.45,18.95-33.04,28.93-13.51,12.73-26.94,29.83-41.01,41.02-.9.72-4.71,3.77-5.47,3.02-.43-1.88,1.06-2.37,1.99-3.5,20-24.13,54.09-55.47,78.5-75.5,1.13-.93,1.61-2.43,3.5-1.99Z"/>
  <path class="st68" d="M698,280c.15.9-.09,2.03,0,3-.38,5.14-1.04,14.19-5,17-8.87,18.3-16.03,38.21-30.5,53-1.28-.61-.11-2.76.29-3.71,5.46-13.12,14.14-26.78,20.22-40.28l-.52-2.09c4.35-11.23,8.53-22.54,12.54-33.92,3.87-1.06,4.86,1.27,2.98,7.01Z"/>
  <path class="st202" d="M584.99,918c.21,2.17.17,3.6-.94,5.55-1.54,2.72-10.96,11.21-14.03,14.97-17.73,21.78-35.29,50.64-55.03,69.97-1.58,1.55-4.75,4.06-6.99,4.5-.71-.71,4.2-6.45,5.02-7.47,22.04-27.51,45.32-59.81,68.57-85.43,1.01-1.11,1.48-2.51,3.4-2.09Z"/>
  <path class="st95" d="M394.99,1005.01c.53,6.74-4.75,7.4-8.52,10.97l-81.47,80.02c-.25-1.84,1.02-3.15,2.01-4.48,12.14-16.38,29.23-29.5,43.51-43.49,12.86-12.61,27.48-30.27,40.56-41.44,1.09-.93,2.37-1.79,3.91-1.58Z"/>
  <path class="st95" d="M604.99,1035c1.7,1.86-6.85,11.16-8.48,13.01-10.86,12.31-23.81,23.82-35.03,35.97-2.55,2.77-31.69,37.92-33.48,36.01.75-2.92,3.2-6.08,5.01-8.48,15.56-20.63,34.83-37.57,52.63-55.87,5.54-5.7,10.55-13.2,15.83-18.67,1.04-1.08,1.76-2.33,3.51-1.98Z"/>
  <path class="st95" d="M515,1048.99l72.5-87.97c1.45,1.1,1.61,1.49,1.33,3.28-.52,3.33-16.47,20.04-19.8,24.22-14.07,17.67-27.18,35.74-43,52-3.03,3.11-6.65,7.78-11.03,8.46Z"/>
  <path class="st158" d="M244.01,473c-3.2-24.68-6.67-49.76-12.48-74.03-2.32-9.68-6.59-19.06-7.52-28.97,2.72,1.8,3.83,6.42,5.01,9.48,9.56,24.91,15.74,58.35,16.97,85.02.12,2.61.97,7.28-1.98,8.49Z"/>
  <path class="st173" d="M387.65,1035.65c-16.54,16.41-34.31,32.06-51.18,48.32-10.11,9.75-20.46,22.2-30.97,31.03-1.12.94-1.63,2.43-3.5,1.99,22.02-28.06,50.04-50.71,75.65-75.34,4.58-4.4,6.67-7.25,11.85-11.65,2.23-1.89,3.89-4.53,6.49-6-.44,3.64-5.62,8.95-8.34,11.65Z"/>
  <path class="st173" d="M550,433.99c.71-1.93,3.55-2.49,5.33-3.16,24.61-9.34,44.35-18.15,65.15-34.85,8.24-6.62,14.85-15.01,23.51-20.98.73.81-2.28,4.55-3.02,5.47-17.62,22.09-51.11,42.89-78.21,50.79-4.12,1.2-8.46,2.48-12.76,2.73Z"/>
  <path class="st202" d="M515.01,1072.99c-.75-.79,2.31-4.53,3.02-5.47,12.78-16.88,29.18-35.81,43.46-51.54,9.91-10.92,20.98-21.12,31.01-31.97,3.09,1.86-.45,5.11-1.99,6.99-7.89,9.63-19.54,18.48-28.03,27.97-13.57,15.18-26.18,32.99-39.97,48.03-.87.95-6.45,7.1-7.51,5.98Z"/>
  <path class="st95" d="M534,1203c16.41-17.81,35.92-32.4,51.97-50.53l19.52-18.48-.44,4.56c-22.07,21.37-43.14,44-66.05,64.45-4.31,3.27-5.97,3.27-5,0Z"/>
  <path class="st95" d="M538.65,1127.65c-2.4,2.35-11.56,12.65-13.17,13.34-3.89,1.67,1.35-5.23,2-6,7.78-9.37,18.09-17.6,26.54-26.46,16.83-17.65,32.71-36.28,49.96-53.53.79,5.03-5.04,10.16-8.48,14.01-17.5,19.65-38.02,40.15-56.86,58.64Z"/>
  <path class="st95" d="M217.01,1196c.08-2.61,1.38-5.62,2.6-7.89,5.47-10.17,16.75-23.15,23.61-33.39,9.35-13.96,17.56-29.28,28.77-41.72.08,3.04-1.8,5.75-3.19,8.3-6.22,11.43-15.46,25.25-22.78,36.22-8.77,13.13-18.35,27.01-29.01,38.48Z"/>
  <path class="st95" d="M602.73,1081.74c-.55.55-2.52.54-3.78,1.69-23.43,21.29-44.28,51.25-67.45,70.57-1.12.94-1.62,2.42-3.5,1.99-.69-.67,5.62-8.04,6.48-9.01,20.61-23.17,42.22-45.05,63.49-67.51.67-.7,4.21-4.44,4.53-4.45,2.06-.06,1.24,5.71.23,6.72Z"/>
  <path class="st173" d="M602.99,1118.01c.33,1.68-.83,2.64-1.6,3.89-9.57,15.48-56.85,56.41-72.92,69.08-1.5,1.19-3.49,3.01-5.47,3.01l79.99-75.99Z"/>
  <path class="st95" d="M395.99,983c1.8,1.96-10.48,14.71-12.34,16.65-9.61,9.98-19.87,20.05-29.62,29.88-12.19,12.28-24.04,25.24-38.02,35.47-.84-.93,3.12-5.58,3.97-6.52,20.42-22.69,45.67-44.58,67.05-66.95.91-.95,7.38-10.25,8.97-8.52Z"/>
  <path class="st95" d="M595.59,1007.63c-21.86,20.27-41.15,43.21-61.56,64.9-3.02,3.21-7,7.9-11.02,9.47-1.6-1.62,11.74-16.09,13.48-18.01,19.31-21.28,40.75-40.69,59.51-62.5,3.78.04.7,4.5-.4,6.15Z"/>
  <path class="st173" d="M508.01,991c.11-3.3,3.03-6.9,5.01-9.48,7.04-9.14,16.51-17.92,23.95-27.05,14.07-17.27,26.84-35.67,41.53-52.45l1.09,3.05c-23.78,28.66-45.02,59.73-71.58,85.93Z"/>
  <path class="st95" d="M518.01,1027l67.98-88c.12,2.46.38,4.28-.93,6.56-2.01,3.49-8.99,10.07-12.02,13.98-17.72,22.93-34.28,47.21-55.03,67.46Z"/>
  <path class="st95" d="M545,1248.99c21.27-26.26,48.85-46.51,72.99-69.99,2.25,4.17-2.48,7.2-5.46,10.02-13.33,12.62-28.13,23.95-41.54,36.46-3.05,2.85-23.09,25.88-25.99,23.5Z"/>
  <path class="st90" d="M601.99,1020c.39,2.64-1.06,4.13-2.48,6.01-11.07,14.76-33.88,33.18-47.55,47.45-4.68,4.89-9.27,11.15-13.95,16.05-1.16,1.21-8.9,9.59-10.02,8.47.01-1.99,1.83-3.95,3.02-5.47,4.91-6.29,11.91-13.6,17.46-19.54,13.57-14.51,35.48-39,50.01-50.99,1.13-.93,1.61-2.43,3.5-1.99Z"/>
  <path class="st202" d="M334.01,1008l66.98-78c-.42,8.23-8.24,15.87-13.48,22.01-8.39,9.84-18.24,18.52-27.03,27.97-2.02,2.17-24.64,29.87-26.48,28.01Z"/>
  <path class="st173" d="M505.01,949l67.98-82c.07,1.7.13,3.41-.44,5.05-1.03,2.98-14.38,16.6-17.53,20.47-11.62,14.3-22.07,26.88-34.54,40.46-1.43,1.56-13.88,17.6-15.48,16.01Z"/>
  <path class="st90" d="M532.01,1173c.1-2.19,2.13-4.39,3.48-6.01,8.57-10.36,20.58-23.24,30-33,11.27-11.67,24.17-22.31,35.5-33.99,1.33,6.51-4.89,8.4-8.52,11.97-15.18,14.96-29.06,30.96-43.95,46.05-4.88,4.95-11.58,9.79-16.52,14.97Z"/>
  <path class="st173" d="M343,976.99c1.26-2.78,2.79-5.43,4.58-7.91,12.89-17.76,29.34-38.71,43.44-55.56,1.6-1.91,19.94-22.64,20.96-21.53-3.6,8.82-11.91,15.15-17.97,22.52-15.24,18.57-30.17,41.65-46.06,58.94-.8.87-3.86,4.61-4.97,3.52Z"/>
  <path class="st203" d="M241.01,582.99c-1.19-1.24,6.77-10.92,8.02-12.47,11.29-14.06,25.27-30.22,37.46-43.54,1.6-1.75,3.49-3.73,5.5-4.99.3,5-4.02,9.67-7.02,13.47-8.15,10.33-18.69,20.59-27.48,30.52-1.41,1.59-14.2,19.39-16.48,17.01Z"/>
  <path class="st203" d="M296.01,777l53.98-67.99c.3,1.39.74,2.3.37,3.8-.71,2.81-15.33,20.83-18.38,24.67-7.09,8.94-15.89,20.31-23.46,28.54-3.77,4.09-7.91,7.85-12.5,10.99Z"/>
  <path class="st173" d="M348,731.01c-2.27,8.6-9.16,16.75-14.58,23.91-10.47,13.82-24.18,29.17-35.9,42.1-1.27,1.4-2.84,3.1-4.5,3.99.76-4.38,4.83-9.26,7.58-12.91,12.35-16.42,28.77-30.51,39.43-48.57l7.98-8.51Z"/>
  <path class="st90" d="M389.99,966.01c-3.26,11.15-14.62,17.66-22.02,25.47-14.23,15-26.48,31.78-41.96,45.53.76-2.84,3.19-6.2,5.01-8.48,17.08-21.33,37.25-40.21,55.57-60.43,1.01-1.11,1.48-2.51,3.4-2.09Z"/>
  <path class="st173" d="M350,360.99c-2.53-.33-4.9-4.14-6.41-6.08-9.36-12.09-22.91-38.68-27.8-53.2-.54-1.59-1.06-2.98-.78-4.71,8.76,10.01,13.52,23.86,19.82,35.67,5.01,9.39,12.07,18.11,15.17,28.32Z"/>
  <path class="st173" d="M310,1244c.07-.22-1.59-2.23,1-4l56.5-55c1,.6.61,3.37.29,4.29-.65,1.85-14.17,14.7-16.78,17.22-13.3,12.83-27.93,24.41-41.01,37.49Z"/>
  <path class="st173" d="M744.99,1181c.35,2.59-1.03,4.16-2.47,6.02-8.33,10.69-24.41,22.97-34.54,33.46-4.71,4.87-9.45,10.81-14.14,15.86-.96,1.03-.89,2.4-2.84,1.17-4.02-2.54,3.31-6.11,4.54-7.47,13.72-15.06,29.69-33.73,45.44-46.56.65-.53,3.77-2.78,4.01-2.48Z"/>
  <path class="st118" d="M304.01,754c1.89-6.73,6.58-13.23,10.58-18.91,9.06-12.88,20.63-26.93,30.46-39.54,3.35-4.3,6.82-8.95,10.95-12.54-2.32,7.38-8.03,14.6-12.58,20.91-12.37,17.19-27.15,32.77-39.4,50.09Z"/>
  <path class="st90" d="M739.99,1168c2.2,2.5-5.8,9.42-7.47,11.02-13.24,12.71-27.68,24.28-40.01,37.94l-6.02,3.03c0-1.62,1.97-3.78,3-5.01,10.3-12.44,34.24-34.51,47.01-44.99,1.13-.93,1.61-2.43,3.5-1.99Z"/>
  <path class="st88" d="M683,309c.59-2.3-2.06-1.49-2.11-3.47-.13-5.77,3.27-13.76,5.44-19.23.14-.34,1.51-.45,1.97-1.54,1.6-3.82,1.73-8.75,4.55-12.45.36-3.61-7.32-2.64-5.84-7.31,3.85-.49,5.95,2.19,8.74,3.76,1.09.62,3.82.92,4.13,1.35.89,1.25-.37,8.36-1.87,9.88-.33-1.91.9-5.11-1.99-6-2.47,12.3-7.91,23.68-13.01,35Z"/>
  <path class="st90" d="M242.01,600c-.25-2.84,1.87-4.99,3.48-7,5.74-7.17,14.68-13.94,21.02-20.98,7.69-8.53,14.26-18.83,22.48-27.01.15,2.44-.4,4.78-1.57,6.92-5.87,10.71-31.96,37.85-41.92,46.08-1.13.93-1.62,2.43-3.5,1.99Z"/>
  <path class="st173" d="M816.99,1146.01c1.84,1.95-14.18,15.63-15.99,17.5-11.46,11.85-25.29,29.43-37.5,39.5-4.06,3.34-5,1.97-2.05-2.05,6.25-8.5,20.59-22.33,28.52-30.48,5.91-6.08,12.72-13.51,19.01-18.99.94-.81,7.33-6.19,8.01-5.48Z"/>
  <path class="st173" d="M748.99,1196c1.2,1.25-3.1,6.34-4.02,7.47-8.66,10.59-33.23,33.36-44.31,42.17-1.08.86-2.18,1.59-3.65,1.36-.75-.7,3.69-6.08,4.48-7.01,9.57-11.29,32.33-32.31,44.01-41.99,1.13-.93,1.62-2.43,3.5-1.99Z"/>
  <path class="st90" d="M287.01,824c1.85-5.43,6.4-10.97,10.02-15.47,11.23-13.97,25.35-30.29,37.46-43.54,1.6-1.75,3.49-3.73,5.5-4.99-.58,5.3-5.69,10.23-9.01,14.48-11.46,14.63-25.87,30.74-38.46,44.54-1.6,1.75-3.49,3.73-5.5,4.99Z"/>
  <path class="st55" d="M572,891.01c-.2,2.79-1.69,5.07-3.16,7.33-10.15,15.68-38.31,49.92-52.34,61.66-1.12.94-1.62,2.42-3.5,1.99l58.99-70.99Z"/>
  <path class="st71" d="M280.01,857l51.98-71c-.21,3.74-2.23,7.25-4.15,10.34-5.85,9.43-15.89,22.07-22.88,31.12-7.85,10.16-16.32,20.04-24.95,29.54Z"/>
  <path class="st90" d="M317.01,716c2.37-7.98,9.38-16.08,14.58-22.91,8.89-11.7,18.81-23.09,28.4-34.09.33,4.72-3.84,9.1-6.58,12.91-8.95,12.5-22.21,29.1-32.44,40.56-1.12,1.26-2.4,2.86-3.96,3.53Z"/>
  <path class="st5" d="M817.99,1169.01c2.11,2.23-14.68,15.21-16.52,16.97-10.23,9.78-20.39,22.05-30.95,31.05-2.6,2.22-6.13,5.45-9.53,5.96l33.99-35.5,23.01-18.48Z"/>
  <path class="st173" d="M721.99,1098l-.94,5.55c-15.09,13.92-27.59,30.51-41.85,45.14-.98,1.01-.98,2.83-3.19,2.3-.4-2.78.53-4.38,1.99-6.5,4.58-6.6,13.01-12.55,17.49-19.51l26.51-26.98Z"/>
  <path class="st152" d="M510.01,874.99c-.76-.79,1.94-3.98,2.59-4.9,7.47-10.42,17.29-18.74,25.91-28.09,10.95-11.86,21.03-24.59,33.48-35.01l-12.48,16.01c-15.92,14.75-29.07,32.35-44,48-.81.85-4.48,5.05-5.51,3.98Z"/>
  <path class="st173" d="M728.99,1136c2.65,3.01-10.37,13.61-12.53,15.93-5.91,6.38-11.74,13.01-17.44,19.59l-17.02,15.47c-.25-1.85.01-2.95.94-4.55,2.83-4.84,18.46-18.06,23.56-23.43,4.16-4.38,8.28-10.18,12.46-14.54,1.07-1.12,8.98-9.65,10.02-8.47Z"/>
  <path class="st95" d="M726.99,1114c1.69,1.87-6.85,11.16-8.48,13.01-11.18,12.66-24.19,25.76-36,38-1.04,1.08-1.76,2.33-3.51,1.98-.34-2.3.78-3.76,2-5.49,6.07-8.64,20.68-21.09,28.51-29.49,4.47-4.79,8.93-10.86,13.46-15.54,1.13-1.17,2.16-2.78,4.02-2.47Z"/>
  <path class="st90" d="M252,552c-1.83,1.06-2.16.39-1-2,13.05-18.7,28.68-35.48,41.99-54,.81,4.99-2.62,8.44-5.17,12.31-9.84,14.9-26.21,29.19-35.81,43.69Z"/>
  <path class="st144" d="M440.99,427.01l-3.25.76c-20.08-5.65-39.33-15-54.75-29.25-1.16-1.07-8.04-7.34-6.98-8.51,19.83,15.15,41.08,29.15,64.98,37.01Z"/>
  <path class="st90" d="M711.99,1065l-.24,4.77c-7.86,8.84-16.51,17.31-24.27,26.22-6.6,7.58-12.1,16.29-19.48,23.01,1.46-5.77,6.34-11.71,10.02-16.47,7.91-10.26,17.72-19.11,25.46-29.54l8.51-7.98Z"/>
  <path class="st118" d="M291.99,477c.2,2.6-1.24,4.84-2.56,6.93-8.48,13.38-28.52,37.27-39.46,49.54-1.43,1.6-3.08,3.49-4.96,4.53-.3-1.95.57-3.39,1.54-4.95,11.19-17.86,30.82-35.41,42.03-53.97l3.42-2.07Z"/>
  <path class="st90" d="M525,897.99l48.99-55.99c.32,1.89-.13,2.92-.96,4.53-2.33,4.48-16.21,19.57-20.51,24.49-5.98,6.82-14.16,16.42-20.47,22.53-.81.78-6.32,5.09-7.04,4.45Z"/>
  <path class="st158" d="M688.01,1200c-1.25-1.36,5.25-8.62,6.48-10.01,6.21-6.99,14.02-12.82,20.54-19.46,5.83-5.95,10.77-12.9,16.96-18.53.41,3.22-.25,4.98-1.99,7.5-4.91,7.12-31.03,32.35-38.5,38.5-.64.53-2.57,3.01-3.5,1.99Z"/>
  <path class="st173" d="M568,1242.99c14.27-17.72,34.81-29.91,50.99-45.99.53,3.99-1.45,5.97-3.97,8.52-9.83,9.93-30.99,26.88-42.54,35.46-1.33.99-2.64,2.25-4.48,2.01Z"/>
  <path class="st55" d="M324.01,687l41.98-57c.3,1.82-.2,2.99-.92,4.57-3.19,6.99-15.96,22.78-21.26,29.74-1.59,2.09-18.1,24.42-19.81,22.68Z"/>
  <path class="st196" d="M247,613c-6.95,9.38-6.79-1.23,0-5,15.21-13.11,27.88-29.14,40.99-44,0,.5.06,1,.03,1.51-.42,8.34-33.3,40.09-41.02,47.49Z"/>
  <path class="st173" d="M704,825.99c-.87-.81,8.23-11.59,9.49-13,10.63-11.98,22.56-23.26,33.5-34.99.86,4.81-4.28,9.37-7.48,13.01-8.54,9.75-22.32,24.87-32.01,32.99-1.12.94-1.63,2.43-3.5,1.99Z"/>
  <path class="st90" d="M717.99,1081c.55,3.36-1.58,5.62-3.49,8-9.67,12.14-24.94,27.53-35.99,39.01-1.04,1.08-1.76,2.33-3.51,1.98-.72-.74,2.26-5.52,3-6.49,8.43-11.2,21.01-21.13,29.49-32.51l10.51-9.98Z"/>
  <path class="st55" d="M220,1214c-6,6.96-8.34,7.29-7,1,2.25-4.64,13.84-15.49,17.98-20.52,6.61-8.06,12.72-16.57,19.53-24.47,1.43.71-.2,2.45-.65,3.35-7.07,13.96-20.47,27.85-29.85,40.65Z"/>
  <path class="st173" d="M283.99,588.01c-.45,9.36-9.94,14.21-15.52,19.97-7.74,8-15.35,16.89-23.97,24.03-1.13.93-1.62,2.43-3.5,1.99-.21-2.06,1.33-3.54,2.48-5.01,8.53-11.01,26.79-27.96,37.32-38.68.98-1,.98-2.83,3.2-2.29Z"/>
  <path class="st55" d="M520,883.99c15.64-20.66,31.8-41.48,50.99-58.99-2.94,7.38-10.81,13.38-15.96,19.53-10.28,12.25-19.68,25.66-31,37-1.16,1.16-2.14,2.79-4.03,2.46Z"/>
  <path class="st31" d="M744.99,760c.65,3.74-.94,5.75-3.02,8.47-7.67,10.02-19.72,20.1-28.48,29.52-3.34,3.59-5.45,8.7-9.99,10.99l-1.01-2.99,42.51-45.98Z"/>
  <path class="st173" d="M758.99,905c.63,3.51-2.12,5.93-4.02,8.47-8.65,11.54-21.14,21.48-29.45,33.54l-5.51,4.98c.56-5.71,7.11-12.93,11.02-17.47,7.9-9.15,16.41-18.46,24.56-27.44,1.01-1.11,1.48-2.51,3.4-2.09Z"/>
  <path class="st173" d="M788.99,1073c-.03,1.74.3,3.57-.2,5.29-1.04,3.52-19.36,21.26-23.3,25.7-2.1,2.36-12.42,16.33-13.97,16.01-4.11-.86,4.24-9.99,5.51-11.47,10.19-11.87,22.6-22.68,31.96-35.53Z"/>
  <path class="st118" d="M248.01,514l39.98-57c.34,5.84-4.94,11.45-8.17,16.32-9.32,13.99-19.78,29.01-31.81,40.68Z"/>
  <path class="st90" d="M768.99,974.01l-1.99,6.5-34,40.49c-.17-6.04,6.22-12.56,10.02-17.47,6.21-8.02,15.87-20.12,22.77-27.23.98-1.01.98-2.83,3.19-2.3Z"/>
  <path class="st196" d="M570.99,766.01l-53.99,58.99c.32-2.27,2.59-4.66,4.01-6.48,12.73-16.26,31.25-35.32,45.95-50.05,1.16-1.16,2.13-2.79,4.02-2.47Z"/>
  <path class="st55" d="M368.99,1205c.27,2.46-.9,4.31-2.45,6.04-7.7,8.6-24.45,24.02-33.53,31.47-.89.73-5.2,4.29-6.01,3.48-.43-1.88,1.06-2.37,1.99-3.5,8.85-10.68,20.51-19.83,29.99-30.01l10.01-7.48Z"/>
  <path class="st5" d="M724.01,968c-.68-4.18,2.43-6.84,4.6-9.89,9.22-12.97,22.66-23.98,31.89-37.1l1,3.97-37.49,43.02Z"/>
  <path class="st55" d="M740.99,745c1.57,1.78-5.11,9.31-6.48,11.01-7.59,9.41-18.05,20.73-26.49,29.51-.8.83-5.07,5.59-6.02,4.47-.34-1.91.14-2.92.97-4.52,2.54-4.9,28.98-32.16,34.83-38.17.98-1.01.98-2.83,3.19-2.3Z"/>
  <path class="st173" d="M766.99,956c3.09,3.55-11.68,16.73-13.96,19.53-7.4,9.07-14.21,18.72-22.02,27.47l-.56-4.96c11.98-11.98,21.67-27.74,33.35-39.74.98-1.01.98-2.83,3.19-2.3Z"/>
  <path class="st55" d="M241.01,656c1.57-4.94,6.09-9.97,9.48-14.01,8.82-10.54,19.4-19.7,28.5-29.99-.47,4.76-3.65,8.44-6.48,12.01-8.98,11.34-21.21,21.78-31.5,31.99Z"/>
  <path class="st152" d="M500,1066.01c-1.3,3.86-3.9,7.03-6.18,10.31-9.79,14.02-22.03,29.84-32.85,43.15-3,3.69-6.13,7.64-9.96,10.53l7.58-11.91c13.88-15.02,24.85-34.83,37.99-50.01,1-1.15,1.54-2.47,3.42-2.07Z"/>
  <path class="st5" d="M790.99,1095c2.84,3.26-11.74,15.24-14.34,18.11-6.65,7.32-12.71,15.64-19.25,22.79-1.01,1.11-1.47,2.51-3.4,2.09-.31-1.7.4-2.92,1.14-4.35,4.18-8.06,24.03-28.47,31.33-35.67,1.28-1.26,2.47-3.23,4.52-2.97Z"/>
  <path class="st2" d="M550.58,765.58c-8.13,9.05-16.76,17.99-25.57,26.42-.18-2.96,2.68-5.8,4.48-8.01,12.53-15.47,27.81-29.1,41.02-43.98,1.41.69-.13,2.49-.68,3.32-4.54,6.96-13.47,15.82-19.24,22.26Z"/>
  <path class="st90" d="M756.99,887c.29,1.97-.53,3.38-1.55,4.94-4.45,6.88-15.95,17.17-21.97,24.03-3.32,3.79-7.87,11.13-10.95,14.05-.96.91-3.35,3.05-4.53,1.96-2.44-2.23,24.92-29.98,26.97-33.52l12.02-11.47Z"/>
  <path class="st90" d="M763.99,939c.61,3.62-2.78,6.74-5.02,9.47-7.33,8.93-16.62,20.31-24.46,28.54-.82.86-5.5,6.12-6.51,4.98-.34-2.3.77-3.76,2-5.49,6.68-9.45,17.67-18.82,24.48-28.52l9.51-8.98Z"/>
  <path class="st196" d="M737.99,727.01c1.34,6.27-1.05,5.05-2.99,7.46-7.7,9.62-17.24,21.67-25.49,30.55-2.43,2.62-8.37,9.69-7.02,1.99l35.5-40Z"/>
  <path class="st55" d="M708,879.99l43.99-47.99c.68,5.26-5.8,10.94-9.48,15.01-8.41,9.32-21.56,23.03-31.01,30.99-1.12.95-1.63,2.42-3.5,1.99Z"/>
  <path class="st152" d="M483.99,1136.01c.23,1.83-1.03,3.14-2.01,4.48-8.35,11.36-19.87,22.99-28.96,34.04-3.73,4.54-7.28,10.99-11.06,14.94-1.14,1.2-1.98,2.89-3.97,2.52-1.03-.98,13.43-19.47,15.03-21.46,8.01-9.99,18.78-23.48,27.57-32.43,1.04-1.06,1.44-2.54,3.4-2.09Z"/>
  <path class="st115" d="M779.99,1041c.11,1.72.2,3.33-.52,4.97-.84,1.94-11.15,13.64-13.5,16.5-4.07,4.95-9.94,12.35-14.45,16.55-1.66,1.54-4.18,3.75-6.52,3.97-1.81-1.88,9.01-11.26,10.51-12.98,7.64-8.75,14.57-18.12,21.88-27.14.85-1.05.02-2.49,2.6-1.87Z"/>
  <path class="st173" d="M242.01,676c-.19-3.66,2.89-6.69,5.02-9.47,6.71-8.77,15.66-15.81,22.41-24.59l3.56-7.93c1.28,11.33-7.99,19-14.96,26.52-5.02,5.41-10.54,10.54-16.02,15.47Z"/>
  <path class="st55" d="M748.99,816.01c.24,1.84-1.04,3.13-2.01,4.48-5.31,7.39-24.86,30.62-31.51,35.49-1.34.98-2.64,2.25-4.47,2.01-.34-4.59,4.74-5.98,7.52-8.97,7.77-8.35,14.68-18.38,22.45-26.55.91-.96,6.97-7.61,8.02-6.47Z"/>
  <path class="st55" d="M719.58,733.58c-4.43,5.15-9.04,10.62-13.64,15.62-1.52,1.65-3.67,4.68-5.94,4.79-1.02-1.17,5.38-9.36,6.58-10.91,5.27-6.8,13.48-16.34,19.39-22.61,2.99-3.17,6.57-5.31,9.53-8.47.76-.16.64.96.48,1.47-1.11,3.62-12.98,16.12-16.4,20.1Z"/>
  <path class="st118" d="M741.01,1050c-1.18-1.28,3.09-6.33,4.02-7.47,9.59-11.69,21.58-22.42,30.96-34.53.41,3.22-.25,4.98-1.99,7.5-5.33,7.71-18.99,21.7-25.97,29.03-.86.9-5.99,6.59-7.02,5.47Z"/>
  <path class="st69" d="M716,1245.99l35.99-35.99c.18,1.96,1.44,2.48.11,4.51-2.8,4.25-18.46,18.95-23.08,23-3.55,3.11-8.4,7.86-13.01,8.48Z"/>
  <path class="st152" d="M752.99,871.01c.74.78-2.28,5.47-2.99,6.5-6.76,9.74-19.28,23.33-27.49,32.51-1.91,2.14-4.15,4.34-6.5,5.99,3.84-8.25,10.32-15.4,16.01-22.48,4.55-5.66,10.61-13.44,15.46-18.54.8-.84,4.49-5.06,5.51-3.98Z"/>
  <path class="st152" d="M487,1109.01l-43,54.98c3.92-8.79,10.2-16.79,16.03-24.46s14.77-19.44,21.46-26.54c.84-.89,4.42-5.01,5.51-3.98Z"/>
  <path class="st196" d="M708,840.99c11.65-16.04,25.93-30.08,39.99-43.99.25,5.83-6.8,9.78-10.5,13.99-8.32,9.44-16.3,19.88-25.98,28.02-1.12.94-1.63,2.43-3.5,1.99Z"/>
  <path class="st31" d="M444,1205.99c-2.52-2.42,34.15-46.15,38.99-48.99.22,2.95-2.37,5.27-4.02,7.47-4.1,5.48-9.62,10.65-13.95,16.05-5.79,7.23-11.82,16.77-17.6,23.4-.99,1.14-1.54,2.48-3.42,2.07Z"/>
  <path class="st31" d="M786.99,1056c-1.37,6.25-8.05,13.05-12.48,18.01s-14.97,16.94-19.5,20.5c-1.47,1.15-2.96,2.69-5.01,2.48l36.99-40.99Z"/>
  <path class="st55" d="M716,891c9.06-11.08,19.73-24.9,29.48-35.02,3.8-3.94,4.88-1.34,2.57,2.57-4.81,8.16-23.59,27.3-31.05,34.45-2.59,1.09-2.16.09-1-2Z"/>
  <path class="st90" d="M770.99,994c1.34,7.38-6.94,12-11.5,16.99-2.97,3.24-18.45,21.86-20.99,21.99-.46.02-2.21-1.71-.5-2.48l32.99-36.5Z"/>
  <path class="st55" d="M702.01,704c-.13-3.57,2.37-6.48,4.18-9.31,7.25-11.34,17.6-23.96,26.8-33.69.36,2.96-1.74,5.05-3.18,7.31-7.61,11.96-19.02,24.43-27.8,35.69Z"/>
  <path class="st159" d="M753.58,1057.58c-1.36,1.55-8.39,10.35-9.08,10.4-2.54.16-.74-3.69.07-4.91,4.38-6.64,13.08-14.33,18.41-20.59,4.35-5.11,7.63-11.4,13.02-15.47l-.51,4.98c-8.04,7.89-14.5,17.17-21.9,25.6Z"/>
  <path class="st31" d="M701.99,719.99c-1.84.24-.87-2.1-.53-3.03,2.18-5.87,20.73-27.14,26.03-32.98,2.25-2.47,4.81-4.99,7.5-6.99.26,1.86-.04,2.94-.95,4.54-4.88,8.64-21.71,24.29-29.02,32.98-1.3,1.54-2.61,3.47-3.04,5.47Z"/>
  <path class="st185" d="M618.99,1219c2.64,3.02-7.03,8.8-9.01,10.48-2.3,1.95-4.2,4.52-6.49,6.51-1.06-4.36-2.1.23-4,2-2.09.32-8.05,8.24-9.49,7-.32-.27-.77-2.44-.11-3.5,1.16-1.84,13.82-14.3,15.6-14.54,2.06-.28.95,1.24,2,2.04,1.42-.92,10.22-11.46,11.5-9.99Z"/>
  <path class="st144" d="M564,722.01c.99,1.18-9.46,14.48-11.02,16.47-8.49,10.78-18.05,22.16-27.96,31.53l8.02-12.47c10.64-10.2,18.71-22.66,28.37-33.65.38-.43,1.11-3.64,2.6-1.87Z"/>
  <path class="st152" d="M704.01,681c1.4-6.4,6.71-13.43,10.58-18.91,6.2-8.77,13.59-16.81,20.4-25.09l-2.58,6.91-28.4,37.09Z"/>
  <path class="st174" d="M368.01,925c1.1-4.21,4.35-8.13,6.77-11.72,9.99-14.8,21.3-28.92,34.21-41.28l-40.98,53Z"/>
  <path class="st152" d="M527.01,646l2-5.49,32.98-42.51c-2.15,7.3-8.53,14.93-13.18,21.31-6.74,9.25-13.97,18.34-21.8,26.69Z"/>
  <path class="st152" d="M701,734c11.52-10.59,19.91-24.94,30.79-36.71.99-1.07,1.04-2.79,3.21-2.28,2.24,2.62-9.89,13.88-11.97,16.52-6.11,7.72-11.93,15.74-18.02,23.48-3,2.98-6.05,4.1-4-1Z"/>
  <path class="st55" d="M270,662.01c2.33,2.22-22.58,28.79-25.99,30.99,1.02-4.99,5.76-10.42,9.02-14.47s9.67-11.35,13.47-14.53c1.12-.94,1.63-2.43,3.5-1.99Z"/>
  <path class="st55" d="M255.01,480l27.98-42c-.99,6.34-5.52,12.07-8.97,17.52-5.31,8.4-11.53,18.06-19.01,24.48Z"/>
  <path class="st196" d="M225,1230c-2.17,6.44-8.54.87-2-2,4.09-5.61,10.77-11.55,15.51-16.99,1.32-1.51,12.2-16.37,13.48-15.01-1.34,4.19-4.39,8.02-7.02,11.47-3.73,4.91-15.59,19.47-19.97,22.53Z"/>
  <path class="st92" d="M790,898c.6,3.73-2.03,7.33-5.99,6.99.36-9.57-1.35-16.39,7.5-22.99.72,1.01-3.5,7.76.51,4.52,3.1-2.51,5.54-9.06,7.49-12.52,1.05,4.58,1.66-1.08,4.49.49l-7,9.5c.7.66.93,1.43.62,2.33l-9.13,11.32,1.5.35Z"/>
  <path class="st143" d="M421,833.01l-41,44.98c7.21-9.55,15.4-20.14,23.49-29,3.93-4.3,9.64-10.3,14.01-13.99,1.12-.95,1.63-2.42,3.5-1.99Z"/>
  <path class="st11" d="M534.01,686l13.82-18.67,13.16-20.33c-.37,7.21-6.06,14.48-10.17,20.31-4.88,6.9-10.04,13.48-16.81,18.68Z"/>
  <path class="st69" d="M807,877c-3.91,8.22-10.97,14.33-17,21-1.5,1.66-2.79,3.52-4.5,4.99-.76.16-.64-.97-.48-1.48,1.37-4.36,8.72-13.86,11.99-17.52,2.27-2.54,6.35-5.59,9-8,.32.32.78.61,1,1Z"/>
  <path class="st206" d="M540.01,702.99l25.99-30.99c-1.81,6.88-8.28,14.05-13.02,19.47-1.53,1.75-11.05,13.29-12.97,11.52Z"/>
  <path class="st12" d="M780,814.99c1.11-5.2-1.73-9.86,4.99-11.99l-1.5,5.99,20.5-21.99c-.49,2.51-2.66,5.25-4.16,7.33-4.34,6.03-11.57,13.71-16.85,19.15-.95.98-1.31,1.9-2.98,1.51Z"/>
  <path class="st145" d="M453.01,1221c.22-2.73,2.44-5.34,4.01-7.48,7.63-10.36,17.18-21.12,25.97-30.52l-25.02,33.47-4.96,4.53Z"/>
  <path class="st148" d="M534.01,659l24.98-33c-5.44,12.32-14.81,24.17-24.98,33Z"/>
  <path class="st144" d="M803.99,805c1.23,1.35-3.96,7.17-5.02,8.47-3.3,4.03-8.54,10.46-11.99,14.01-.95.98-1.3,1.89-2.97,1.51l-1-7.99c1.96-.31.55,2.41,1,3,1.32,1.74,15.29-15.48,16.58-16.91,1.01-1.11,1.48-2.51,3.4-2.09Z"/>
  <path class="st8" d="M778.01,745c5.64-12.1,13.7-23.42,22.98-33-.18,3.58-3.42,7.92-5.55,10.94-5.13,7.25-11.92,14.95-17.43,22.06Z"/>
  <path class="st73" d="M794.99,628.01l-1.16,4.33-17.83,26.66c-.13-1.72-.05-3.36.46-5.03.96-3.17,11.44-18.11,14.13-21.87,1.09-1.52,2.25-4.55,4.39-4.09Z"/>
  <path class="st76" d="M792,908c2.29-2.88,7.69-8.69,10.5-11,4.07-3.35,4.66-2.44,2.04,2.04-2.25,3.84-8.28,9.95-11.54,13.96-1.43,1.76-2.94,3.97-4.99,5,.38-4.28,1.4-6.75,3.99-10Z"/>
  <path class="st14" d="M778.01,759c1.2-5.6,7.02-10.58,10.41-15.08.7-.93.55-3.03,1.54-4.46,2.57-3.69,8.69-8.11,12.02-11.47.05,5.86-6.19,8.94-9.5,12.99-4.81,5.88-8.9,13.02-14.48,18.01Z"/>
  <path class="st26" d="M801.99,746.01c1.48,1.47-5.03,5.37-6.04,6.45-2.01,2.14-11.35,12.6-11.77,14.32-.6,2.42,2.07,5.9-3.18,6.21,2.58-3.85-1.31-2.27-1.04-4.45s13.57-16.98,16.03-19.05c.88-.74,5.21-4.28,6.01-3.48Z"/>
  <path class="st152" d="M737,1243.99l20.99-19.99c.15,1.66-.06,3.21-.75,4.74-1.52,3.39-15.71,14.6-20.24,15.25Z"/>
  <path class="st164" d="M800,1002c3.78-1.7,6.04-5.02,8.99-7.51.79-.67,2.01-2.62,3-1l-6.99,7.01,1.99.99-10,11.5c0-.12-.96-.66-.82-1.34.37-1.88,4.33-3,3.81-5.66-3.12,2.6-5.39,2.97-7.97-.5.61-1.19,2.28-1.75,2.98-2.5l1.5,4c.94-1.91,2.4-3.43,3.5-5Z"/>
  <path class="st175" d="M795.99,663.01c.84.83-6.32,8.95-6.59,10.9-3.8,4.38-6.76,9.28-9.93,14.1-.77,1.16.25,2.58-2.47,1.98l5.96-13.53c2.44-.73,11-15.47,13.03-13.46Z"/>
  <path class="st206" d="M808,910c-.85,1.98-1.39,3.89-3.03,5.47l-15.96,18.52c.28-5.97,14.24-23.55,18.99-24Z"/>
  <path class="st176" d="M809,924.01c1.12,1.09-18.73,21.53-20.99,22.99-.52-2,.66-2.72,1.45-4.04,1.7-2.86,8.96-10.96,11.55-13.45.83-.8,7.28-6.19,7.99-5.5Z"/>
  <path class="st188" d="M794.99,647c.97,1.04-1.69,4.86-2.59,5.9l-17.4,21.09c4.19-7.83,10.78-18.24,16.57-24.92.62-.72,2.45-3.11,3.42-2.07Z"/>
  <polygon class="st165" points="665.01 1098 666.13 1092.63 680.99 1073 679.91 1079.33 665.01 1098"/>
  <path class="st138" d="M805,822c-1.59,6.65-8.85,13.59-14,18-.98.84-1.53,2.12-2.5,2.98-2.93-1.78-.31-3.97,1.5-5.98,1-3.24,5.04-6.36,8-8,2.71-3.29,3.83-6.76,6.99-9,.12.63-.16,1.52,0,2Z"/>
  <path class="st60" d="M698,283c.02.22.99,1.1,1.04,2.42.26,7.8-2.15,12.35-3.04,19.58-1.88,2.3-3.03-4.44-2.99-5,.27-5.02,3.1-12.28,5-17Z"/>
  <path class="st184" d="M246.01,1013c-.38-.44,3.85-7.86,4.55-8.94,3.62-5.61,8.77-12.44,13.43-17.06,1.03,3.18-16.94,27.21-17.98,26Z"/>
  <path class="st212" d="M804.99,837.01c1.13,1.21-9.87,14.26-11.48,16.01-1.08,1.18-8.39,9.1-9.51,7.98-.43-1.88,1.06-2.37,1.99-3.5,4.68-5.62,10.82-13.05,15.8-18.2.98-1.01.98-2.83,3.19-2.3Z"/>
  <path class="st131" d="M686.01,1076c3.25-8.19,9.3-16.34,15.98-22-2.23,8.65-9.7,15.91-15.98,22Z"/>
  <path class="st77" d="M415.65,817.65l-24.65,24.34c7.48-11.72,18.56-20.44,28-30.5,2.53-.9.55,1.28,0,2-1,1.32-2.57,2.47-3.35,4.15Z"/>
  <path class="st69" d="M803,1086c-.54.56-1.5,1.55-2,2-3.74.78-1.21-3.09,0-5,1.08-1.7,13.16-14.06,13.99-13,.41,1.95-.44,2.69-1.44,4.05-2.31,3.13-7.7,9-10.55,11.95Z"/>
  <path class="st47" d="M457,1237.99c-1.34-1.23,20.45-26.23,22.99-27.99.28,1.62-.74,2.72-1.57,3.92-3.7,5.37-13.48,17.22-18.02,21.98-1.03,1.08-1.44,2.54-3.4,2.09Z"/>
  <path class="st133" d="M784.01,870c.58-2.64,3.21-5.51,4.96-7.53,5.02-5.78,11.35-10.39,17.02-15.47.41,1.95-.44,2.69-1.44,4.05-4.63,6.29-15.22,12.55-20.54,18.95Z"/>
  <path class="st22" d="M223,1228c-.44.6-2.23,2.81-2,2.99,1.4.14,2.85-.19,4-.99,2.46,3.22-2.03,4.59-4.07,6.45-.97.88-2.02,3.46-2.43,3.58-4.14,1.21-1.51-1.82-1.78-3.39-.35-2.1-3.39-4.58-.72-6.64,1.68.07,3.15-.95,4.42-3.06l1.58.06,1,1Z"/>
  <path class="st122" d="M222,1227c-1.68,2.04-3.7,4.03-5.5,6l-.5-3,21.5-24c1.3,1.22-1.34,3.92-2.1,4.9-3.48,4.48-7.78,8.35-11.41,12.62-.96,1.13-1.34,2.68-1.99,3.47Z"/>
  <path class="st119" d="M699.01,307.01c1.77-.26.98,2.26.76,3.26-1.15,5.19-3.16,11.77-5.46,16.54-.56,1.16-.82,3.58-2.79,3.19-2.13-1.55-1.38-1.79-.73-3.7,2.15-6.31,6.37-12.74,8.23-19.29Z"/>
  <path class="st137" d="M556.01,802l5.99-9.5,12.99-13.5c-3.57,8.92-11.97,16.58-18.98,23Z"/>
  <path class="st20" d="M793,955c1.37-1.21,12.16-15.87,13.99-13.99l-10.46,15.03-5.53,3.96c.1-1.97,1.37-2.9,1.99-5-.83.73-4.22,3.75-5,2.99,2.36-2.28,1.62-5.39,2.76-7.73,2.38-4.91,9.12-10.58,13.23-14.26-1.8,5.47-8.13,9.13-10.21,14.3-.8,2-.41,3.47-.78,4.7Z"/>
  <path class="st137" d="M554.99,803.01l-19.99,23.99c2.51-6.32,9.21-14.41,13.96-19.53.85-.91,4.96-5.51,6.02-4.47Z"/>
  <path class="st33" d="M247,608c-.58,2.96-5.31,5.08-3.5,8,.87-1.33,2.51-2.04,3.5-3l-5.01,11c-2.61,2.63-2.17-6.44-2.05-7.56.43-3.89,1.57-5.03,4.56-7.48.89-.73,2.25-.74,2.5-.96Z"/>
  <path class="st205" d="M775.01,640l5.19-10.3,8.8-12.69c2.03,3.65-13.07,24.06-13.98,22.99Z"/>
  <path class="st126" d="M786,590.01l-11.99,23.99c.08-5.87,3.48-12.94,6.45-18.04,1-1.71,3.13-6.13,5.53-5.96Z"/>
  <path class="st213" d="M677.01,1069c1.53-4.24,4.84-8.37,7.59-11.9,2.47-3.16,5.06-6.82,8.39-9.1l-1.54,4.95-14.44,16.05Z"/>
  <path class="st84" d="M781.01,582l1.51-5.98,7.47-15.02c-2.15,7.03-2.15,17.04-8.98,21Z"/>
  <path class="st48" d="M247.99,1221.01c.91.91-7.13,10.83-7.56,12.93-10.79,6.7,1.34-7.97,4.16-10.84.62-.63,2.31-3.18,3.4-2.09Z"/>
  <path class="st46" d="M560,706.01c-2.55,5.24-7.4,10.69-11.49,15-.84.89-4.42,5.02-5.51,3.98l7.49-10,9.51-8.98Z"/>
  <path class="st104" d="M605,1251.99c-.56-.43,2.47-2.44,2-2.98-.32-.37-2.39.82-2-1,4.46.12,6.57-7.07,10.98-9.01,1.67,3.71-8.54,14.86-10.99,12.99Z"/>
  <path class="st130" d="M702.01,319c1.79-7.48,3.4-17.65,8.98-23-2.08,5.78-3.55,11.97-5.82,17.67-.71,1.79-1.21,4.61-3.16,5.33Z"/>
  <path class="st94" d="M796.01,1037.99c-1.08-1.1,1.45-2.78,2.09-3.4,1.35-1.31,14.23-13.31,14.9-12.59-1.36,3.69-5.97,7.89-8.98,10.51-.95.83-7.32,6.18-8.01,5.48Z"/>
  <path class="st177" d="M252,552c-1.95,2.95-2.26,10.39-7.99,11-.51-5.18,4.21-9.01,6.99-13l1,2Z"/>
  <path class="st72" d="M809,947.01l-16.99,18.99c-.2-1.74-.2-2.45.67-3.98.42-.74,6.6-7.61,7.67-8.67.9-.88,7.9-7.03,8.65-6.34Z"/>
  <path class="st129" d="M220,1214c-1.8,2.46-4.08,7.22-6.02,9.99-2.93,2.49-2.26-6.36-.98-8.99-.34,7.18,3.33-.64,7-1Z"/>
  <path class="st187" d="M812,1080c1.47,1.02-.78,2.28-1.49,3-3.51,3.56-6.78,7.19-10.01,10.99-.82-1.1,2.02-6.36,2.5-7,2.02-2.62,6.61-5.03,9-7Z"/>
  <path class="st168" d="M542,727.01c-4.06,4.42-7.63,9.37-11.79,13.7-.98,1.01-1,2.83-3.21,2.28,2.88-5.15,6.98-10.19,11.5-13.99,1.12-.94,1.63-2.42,3.5-1.99Z"/>
  <path class="st12" d="M799.99,787.01c.43,1.88-1.05,2.37-1.99,3.5-3.18,3.81-7.28,7.22-10.99,10.5,1.1-2.82,4.41-6.84,6.48-9.01.86-.9,5.45-6.09,6.51-4.98Z"/>
  <path class="st117" d="M778.01,711c-1.64-1.78,12.67-12.37,13.98-14,.52,2.42-.4,2.54-1.63,3.86-3.33,3.54-8.69,6.77-12.35,10.14Z"/>
  <path class="st154" d="M539,1203c-2.32,2.07-2.2,4.55-6.47,5.04-6.35.73.48-3.98,1.47-5.04l.6.77,4.4-.77Z"/>
  <path class="st62" d="M811,1125.01l-8.99,8.99c1.05-3.49,5.58-8.01,8.99-8.99Z"/>
  <path class="st186" d="M701,734c-.56,3.36,1.52,1.58,4,1-1.55,1.97-2.89,4.63-4.99,6-.36-3.24-1.74-4.49.99-7Z"/>
  <path class="st152" d="M580.99,797c.99,1.02-5.05,6.95-5.49,6.98-4.55.29,4.64-7.85,5.49-6.98Z"/>
  <path class="st61" d="M817.99,1176.01c1.14,1.1-6.41,7.19-7.99,6.99.67-1.33,6.8-8.14,7.99-6.99Z"/>
  <path class="st71" d="M333.01,785c.05-2.88,2.6-5.67,4.98-7-.05,2.88-2.6,5.67-4.98,7Z"/>
  <path class="st69" d="M810,962.01l-6.99,6.99c.37-2.76,4.18-6.59,6.99-6.99Z"/>
  <path class="st186" d="M717,893c-1.36,1.3-2.31,4.38-4.99,3.99-.95-.93,3.19-5.02,3.99-5.99l1,2Z"/>
  <path class="st128" d="M858,406c1.17,5.13,4.6,6.21,2,11.99l5-1.98c.88.75-4.87,6.08-4.98,6.58-.33,1.58,1.91,2.21,1.98,2.41,1.02,1.12,1.69,2.78,2,5l.5,2,2.49-2c-1.21,5.41-2.92,4.2.45,9.12,1.07,1.56-.16,2.79,2.56.88.59.23,1.06.45,1.05.66-.08,2.81-2.69,2.14-.57,1.17.4-.18.94-.05,1.52.16,2.19,8.28,1.31,8.98-6.99,9.99,2.89-5.91-2.32-8.45-3.02-14.01l-2.98,1.01c2.68-4.8-2.62-9.22-3.6-12.96-.79-3.01-.86-7.87-1.44-11.49-.47-2.88-2.37-1.54-.96-5.54,1.75-2.73,3.42-3.73,5-3Z"/>
  <path class="st91" d="M921,508c1.78,1.57-.67,4.77-2.09,6.42-6.13,3.06-7.91,6.56-5.36,10.48l-.55,4.1c.28,1.58.95,2.24,2,2-.17,7.18,7.7,4.35.97,12.98-4.61.1-3.23-4.23-4.04-6.23-.88-2.16-1.81-4.77-2.87-7.31-.89-2.14-4.63-6.85-4.82-8.1-.37-2.52,2.36-4.29-.24-9.34,2.88-3,1.43.38.76-.09-1.1-.77.29-2.96,2.24-1.91,1.12,9.22,10.8-.12,14-3Z"/>
  <path class="st1" d="M923,503c-3.05-.83,2.24-8.58,3.69-8.95,1.32-.34,3.97,4.43,1.31,5.95.4.44.68.85.58,1.1-3.3,8.4-9.16,19.8-13.9,27.38-.24.38-.9.49-1.68.52-1.99-6.29-5.44-8.1.5-13.01,4.7-3.88,3.91-1.79,7.5-7.99,2.16-3.72,1.12-2.19,2-5Z"/>
  <path class="st196" d="M880,400c1.15-.99,2.56-2.23,3.99-1.99.5.5-2.24,4.88-2.99,5.99-5.74,8.49-13.14,16.27-17,26l-2.99,1c-.43-1.74,1.52-4.63.99-6,6.9-6.35,11.17-19.09,18-25Z"/>
  <path class="st71" d="M930,560c6.26-11.15,11.78-22.83,18.02-34,1.79-.1,2.11-.48,2.02,1.51-.21,4.43-11.25,20.72-14.03,26.49.07,1.18-1.85,8.94-2.11,9.38-1.33,2.3-7.14-.23-3.89-3.38Z"/>
  <path class="st28" d="M913.99,461.01c1.63,1.73-13.95,27.93-15.87,31.62-1.4,2.68-.87,7.41-5.12,7.37-1.7-1.76,11.68-23.61,13.52-26.97.73-1.33,5.49-14.13,7.47-12.02Z"/>
  <path class="st79" d="M870,440c3.82-7.53,11.04-21.04,16.17-27.33.59-.73,2.68-3.85,3.82-2.67,1.27,1.32-17.76,27.47-17.99,31.99-1.88,1.55-1.85,6.53-5,5.99-.45-.53,2.36-6.74,3-7.99Z"/>
  <path class="st106" d="M921.01,547c.32-5.46,3.93-11.1,6.47-16.02,3.4-6.6,7.67-14.64,12.51-19.98,0,2.75-1.48,5.43-2.62,7.87-3.56,7.63-9.32,18.03-13.62,25.37-.64,1.1-1.38,2.47-2.74,2.75Z"/>
  <path class="st91" d="M923,503l-10.99,5.51c5.16-6.54,12.35-11.57,16.01-19.5,6.47.24.32,7.29.99,7.99l3.99-.99c.43.37-1.67,2.42-2,2.99-1.27,1.16-2.27,1.49-3,1-.72-2.2-.27-4.71-3-4,1.13,3.24-1.41,5.1-2,7Z"/>
  <path class="st43" d="M931,499c-5.72,10.01-10.31,21.7-16,32-1.06,1.92-1.5,5.51-4,4.99-.13-2.55,1.06-4.75,2-6.99,2.42-5.81,6.47-11.43,9.52-16.98,1.73-3.15,3.84-9.89,5.48-12.02.38-.5,2.04-1.08,2.5-1.98l.5.98Z"/>
  <path class="st172" d="M858,406c-.73.98-3.66,2.46-4.5,3.98l-.5-.98c3.46-9.85,13.8-21.89,20.5-30,1.17.61.35,2.97-.05,3.95-1.46,3.51-10.9,14.87-13.91,19.12-.97,1.37-1.19,3.45-1.54,3.92Z"/>
  <path class="st37" d="M922,482c-5.5,9.4-10.01,19.33-15,29-.51.98-1.27,1.76-1.01,3l-1.99-1c-1.13-2.19-3.12-1.4-2.99-2.99,1.87.14,2.64-.33,3.9-1.6,1.79-1.8,14.52-25.09,15.09-27.41,2.04-1.28,2.17-1.67,2,1Z"/>
  <path class="st28" d="M903,440.01l-18.99,35.99c-.64-4.23,1.71-7.43,3.47-11.02,3.35-6.84,8.91-16.56,13.04-22.99.77-1.2-.23-2.57,2.47-1.98Z"/>
  <path class="st196" d="M827,655c3.89-4.97,7.65-10.04,11.42-15.11.83-1.11-.02-2.49,2.57-1.89,2.36,3.06-10.98,17.73-12.99,21,0-.21-.87-3.84-1-4Z"/>
  <path class="st106" d="M892.99,432.01c.8.8-8.21,11.67-8.56,13.93-5.05,4.3-6.9,11.34-12.43,15.06-.35-1.69.87-2.63,1.59-3.9,3.42-6.02,11.51-17.86,15.98-23.02.64-.74,2.4-3.08,3.42-2.07Z"/>
  <path class="st80" d="M886.01,484c3.19-9.83,10.08-20.23,17.98-27l-14.55,23.94-3.43,3.06Z"/>
  <path class="st0" d="M831,542.99c4.7-10.25,9.77-21.28,16.99-29.99.14,4.5-3.97,8.36-6.16,12.33-2.56,4.65-5.05,11.38-7.62,15.38-.86,1.34-1.2,2.7-3.21,2.28Z"/>
  <path class="st28" d="M945.98,565.99c-.19.16-1.88.38-1.99-.5-.27-2.23,5.53-12.2,7.19-14.81,1.16-1.84,3.05-4.4,4.81-5.68-.79,3.23-2.61,7.43-4.11,10.38-.76,1.5-5.44,10.22-5.9,10.61Z"/>
  <path class="st161" d="M854.01,386c-.23-1.83.01-2.97.94-4.55,2.3-3.96,11.63-10.56,15.04-14.45.41,1.95-.44,2.69-1.44,4.05-3.38,4.59-10.49,10.5-14.54,14.95Z"/>
  <path class="st171" d="M936,554c4.55,1.98-2.6,5.5-2.06,9.42.03.23,3.77,1.49,2.07,3.56-.19.23-5.72,1.17-5.94.97s-2.06-5.2-2.08-5.5c-.08-1.86,1.82-2.1,2.02-2.46-.71,2.26,1.28,2.85,3.06,1.56,1.32-.96.72-4.11,1.4-5.64.45-1.03,1.35-1.54,1.54-1.92Z"/>
  <path class="st93" d="M932,539.99l12.99-15.99c.58,5.37-5.67,10.79-9.49,14-1.12.94-1.63,2.43-3.5,1.99Z"/>
  <path class="st28" d="M823.82,589.78c-.6.35-2.68.68-2.82-.28l9.99-10.5c.34,1.75-6.6,10.46-7.17,10.78Z"/>
  <path class="st153" d="M761,1257.01c-8.46,11.5-19.97,20.1-30.99,28.99l21.98-27.51,2.02.02-1.52,4.48,8.5-5.99Z"/>
  <path class="st79" d="M316.01,1292l7.45-10.04,20.53-17.96c-5.46,11.93-17.68,20.22-27.98,28Z"/>
  <path class="st206" d="M605.99,1270.01c2.12,2.29-14.79,15.75-17.09,17.39-1.47,1.05-3.01,2.71-4.9,2.59-1.37-1.36,8.02-9.05,8.98-10.51l13.01-9.48Z"/>
  <path class="st194" d="M753,1276c-1.55-1.98-.75-2.42.44-4.03,1.25-1.71,15.97-16.49,17.08-16.96,4.19-1.8-2.88,6.75-3.51,7.49-3.87,4.57-3.8,6.65-7,10.5-1.89.09-3.76,1.26-5.61,3.52l-1.39-.52Z"/>
  <path class="st79" d="M307,1260.01c-5.7,5.15-15.52,13.93-22.43,17.06-1.58.72-2.75,1.22-4.57.92,7.69-7.07,17.39-13.88,27-17.98Z"/>
  <path class="st127" d="M580.99,1273.01c1.53,1.63-7.52,10.27-8.98,11.51-3.26,2.77-8.03,5.82-12.01,7.48,3.76-4.28,7.72-8.72,11.99-12.5.96-.85,8.35-7.18,9.01-6.48Z"/>
  <path class="st206" d="M538,1292.99c1.96-1.91,22.89-23.19,23.99-21.99-1.34,5.3-6.55,8.62-9.98,12.51l-14.01,9.48Z"/>
  <path class="st206" d="M327,1264.01c-3.67,4.4-9.37,9.02-14.08,12.41-3.25,2.34-7.17,5.19-10.92,6.57,7.15-7.01,15.18-16.1,25-18.98Z"/>
  <path class="st184" d="M354,1270.01c-4.48,6.43-9.51,12.88-15.47,18.02-2.52,2.17-6.21,5.91-9.53,5.96,7.44-7.08,14.45-14.49,21.59-21.9,1.03-1.07,1.44-2.54,3.41-2.08Z"/>
  <path class="st159" d="M753,1276c2.02-1.91,7.75-7.84,7-3-2.11,2.53-19.19,19.45-20.52,19.99-.46.19-1.64.26-1.48-.48,4.75-5.55,9.68-11.48,14.99-16.51Z"/>
  <path class="st54" d="M625,1272.01l-3.98,5.51-17.02,12.47c-1.08-1.07,4.05-5.65,4.98-6.51,2.91-2.7,7.84-6.53,11.11-8.89.93-.67,4.06-3.34,4.9-2.59Z"/>
  <path class="st28" d="M549,1268.01l-7.08,7.41-14.92,9.57c-.92-.89,10.27-10.1,11.5-10.99,2.93-2.12,7.14-4.59,10.5-5.99Z"/>
  <path class="st180" d="M730,1278.01c-2.53,5.99-6.39,12.12-12.99,13.99-.68-.67,5.66-8.16,6.48-9.01.88-.93,5.42-6.07,6.51-4.98Z"/>
  <path class="st13" d="M289,1259.01c-3.74,5.14-10.64,9.71-17,9.98,4.04-4.99,11.12-7.79,17-9.98Z"/>
  <path class="st199" d="M139.01,579c1.49-.64,3.78-.17,5.01-.63.95-.35,2.21-3.06,2.99-1.86-2.44,4.63-4.56,10.08-8.04,13.96-2.46,2.74-6.81,7.22-7.01,1.03l2.04-1.49-2.99-1.5,2.99-4.51-4.99.99.16-2.33c5.51-4.53,9.08-17.09,16.05-19.04,2.93-.82,4.87,1.1,7.77-2.63.48,4.73-6.12,5.84-8.46,9.03l-5.53,8.96Z"/>
  <path class="st64" d="M125.01,573c2.36-10.35,11.25-19.24,18.98-26l-1.57,3.92-17.41,22.08Z"/>
  <path class="st106" d="M170.99,562c1.9,2.15-13.7,21.13-16.98,22.99-.65-.73,7.48-12.36,8.6-13.89.79-1.08,7.15-10.5,8.39-9.1Z"/>
  <path class="st152" d="M181,472c-2.63-.76-1.76-3.04-1-5,.7-1.81,6.91-9.99,8.5-11.01,1.29-.83,2.23-1.06,2.5.53.22,1.26-8.62,12.69-10,15.48Z"/>
  <path class="st133" d="M172.99,389c.74,2.72-7.08,14.94-8.49,14.98-1.29-1.14-1.81-1.2-1.02-2.98,1.48-3.34,6.58-9.63,9.51-12Z"/>
  <path class="st106" d="M453.99,371.01c1.61,1.59-3.35,6.78-4.19,8.3-2.45,4.41-4.66,10.72-7.58,14.42-.52.66-2.08,3.51-3.22,2.27-.68-.75,6.12-14.37,7.2-16.29.87-1.55,5.48-10.97,7.79-8.7Z"/>
  <path class="st37" d="M612,366c.24,1.53-.16,3.4,0,5h-1.99c.45-1.78-.42-2.67-1.01-4-1.3-2.95-8.21-20.59-6.99-22,1.95-.38,2.4.91,3.2,2.29,1.01,1.73,6.5,16.8,6.8,18.7Z"/>
  <path class="st44" d="M598,374c-1.8-6.82-4.75-12.78-6.35-19.16-.34-1.36-1.72-3.23.84-2.85,4.08,6.77,6.9,14.25,8.51,22.01.48,2.3,2.71,5.17-1.49,6.01-.16-2.16-.99-4.03-1.51-6.01Z"/>
  <path class="st144" d="M410,376.01c.15-.15,2.83.13,3.46-1.03l14.53-15.98c2.52,4.85-13.83,20.53-16.43,19.98-.86-.18-2.13-2.41-1.56-2.97Z"/>
  <path class="st69" d="M558,372c6.08,6.42,4.03,15.85,2.02,23.56-.43,1.66,1.03,2.92-2.02,2.44v-26Z"/>
  <path class="st206" d="M383,353c6.87-3.66,11.92-9.9,18.99-12.99,2.29,2.39-13.86,14.11-15.99,15.99-2.6.23-4.95-.74-3-3Z"/>
  <path class="st37" d="M393,360c-2.86,1.98-5.54,3.82-3-1,6.92-5.23,12.58-12.59,20.99-16,.38,1.79-.92,2.45-1.97,3.52-3.95,3.97-11.41,10.3-16.02,13.48Z"/>
  <path class="st15" d="M356.01,321c-.19-.21-.46-2.35.67-3.01,2.31-1.34,15.65-6.49,18.08-6.75,1.24-.13,4.28-.31,4.22,1.27-.04,1.23-22.16,9.41-22.97,8.5Z"/>
  <path class="st71" d="M449.01,397c1.9-8.1,6.31-17.93,11.98-24-1.23,8.16-5.68,18.6-11.98,24Z"/>
  <path class="st201" d="M420,384.99c-.83-.75,9.42-14.49,10.58-15.91s2.67-3.25,4.41-4.08c.08,2.72-1.51,5.4-2.8,7.69-1.21,2.15-9.56,14.66-12.19,12.3Z"/>
  <path class="st69" d="M362,278c2.72-.46,4.48,1.22,3,2.99-.64.76-16.19,4.82-19,6.01l-2.01-2.51c3.69-.87,7.61-3.4,11.01-4.49-.91-3.04,5.69-4.75,7-2Z"/>
  <path class="st123" d="M361,271l1,7c-1.29.22-5.45,1.5-7,2h-3c1.36-2.66.45-4.55-2-6,.73-2.9,8.41-4.22,11-3Z"/>
  <path class="st109" d="M400,361c4.72-3.06,8.39-7.93,12.44-10.06.93-.49,2.85-1.83,3.56-.44-3.63,6.96-11.79,10.51-16.99,15.51-.8.59-2.49,1.84-3,.5,1.55-1.7,3.89-2.97,4-5.5Z"/>
  <path class="st201" d="M573,392.01h-2.99c.52-8.41-3.88-16.74-.99-25l2.87,10.61,1.12,14.38Z"/>
  <path class="st101" d="M534,380.01c.19,1.95-3.37.48-3.76,2.44-.1.47.98,4.03.84,6.07-.3,4.51-.68,12.28-5.06,14.49,1.82-6.53-1.43-24.08,7.99-22.99Z"/>
  <path class="st201" d="M370,297.99c-.64.93-19.22,5.72-21.99,5.01-.51-2.84.68-1.64,2.19-2.25,4.21-1.7,8.76-2.59,13.07-3.97,1.44-.46,4.94-2.76,5.23-2.75,1.03.04,2.07,3.13,1.49,3.96Z"/>
  <path class="st44" d="M509.99,380.01c-.14,7.53.43,19.04-5.98,23.99,1.32-7.05,1.76-14.86,3.87-21.67.5-1.62-.82-2.83,2.12-2.33Z"/>
  <path class="st69" d="M374,306.99c-7.51.38-14.43,4.39-21.99,4,1.43-3.55,18.12-7.55,20.32-6.86,1.29.41,1.95,1.51,1.67,2.86Z"/>
  <path class="st64" d="M580.01,387c-.74-6.43-2.98-13.61-3.57-19.96-.52-5.59,1.62-4.71,3.08-.06,1.37,4.38,4.12,16.9.49,20.02Z"/>
  <path class="st201" d="M588.99,382.99c-2.4.41-1.89-.26-2.46-1.98-2.02-6.14-2.21-13.65-3.53-20.01,2.42-.38,2.64,1.52,3.3,3.19,2.09,5.31,2.58,13.11,2.69,18.8Z"/>
  <path class="st184" d="M543,377.01c.18,1.7-2.25.85-2.87,2.61-1.15,3.24-.01,11.53-1.85,17.2-.54,1.68.44,2.64-2.27,2.18.02-2.15-.13-4.33,0-6.49.19-3.03,2.34-10.85,2.08-12.91-.15-1.16-2.53.1-2.08-1.59l6.99-1Z"/>
  <path class="st58" d="M419.99,355c1.03,1.12-.9,3.11-1.47,4.02-1.45,2.3-12.17,14.83-14.52,12.96,3.35-5.02,7.86-11.18,12.5-14.99.64-.53,2.57-3.01,3.5-1.99Z"/>
  <path class="st82" d="M500.99,379.01c-1.75,7-.24,16.66-5.98,21.99.58-5.93.86-13.99,3-19.49.6-1.55.83-2.89,2.98-2.51Z"/>
  <path class="st53" d="M522,380.01c-1.5,5.61-.83,11.59-2.31,17.22-.49,1.85-.23,3.33-2.68,2.76-.22-5.76.24-11.6,1.29-17.25.51-2.76.73-3.13,3.71-2.74Z"/>
  <path class="st3" d="M491.99,379c-.92,6.42-2.05,15.28-7.98,19,.69-4.7,2.38-11.87,4.49-16,.79-1.56,1.25-3.37,3.5-2.99Z"/>
  <path class="st80" d="M615.51,333.01c1.85-.3,2.3,1.86,3.01,2.97,1.79,2.79,4.48,7.93,5.99,11,.87,1.76,3.43,4.6.98,6-3.75-5.72-7.35-10.54-10.08-16.91-.33-.77-2.53-2.64.1-3.07Z"/>
  <path class="st69" d="M341,274c7.09-2.49,14.26-5.78,22-4.99.36.74-1.65,1.86-2,1.99-2.57,1-8.06,2.29-11,3-3.11.75-6.43.89-9.49,2.01l.49-2.01Z"/>
  <path class="st125" d="M462.01,395c-.55-.62,3.87-14.08,4.47-16.02.3-.97,1-3.89,2.03-3.95,2.04-.14.67,2.95.63,3.58-.12,1.74-3.74,20.2-7.12,16.39Z"/>
  <path class="st69" d="M366,288.01c-4.91,4.99-13.19,6.99-20,6.98,2.2-2.35,7.4-4.07,10.47-5.02s6.26-1.98,9.53-1.96Z"/>
  <path class="st9" d="M621,315c1.45-2.18,1.67-4.52,5.5-4.04,7.77.98-4.3,15.67-5.5,4.04Z"/>
  <path class="st41" d="M620,359c-1.77-2.36-8.19-12.28-8.01-14.49.07-.94,1.17-.47,1.99-.5l10.02,15.99c-2.86,1.83-2.52.98-4-1Z"/>
  <path class="st184" d="M479.99,379c.69.81-3.01,16.8-6.98,16.99.87-4.32,1.99-10.72,3.93-14.56.39-.78,1.86-3.83,3.06-2.43Z"/>
  <path class="st49" d="M385.99,321c.3.32.4,3.18-1.22,3.3l-17.77,10.69c1.22-1.97,3.24-4.02,5.07-5.42,1.33-1.02,13.37-9.16,13.93-8.56Z"/>
  <path class="st35" d="M653.99,319.99c-.7.74-8.4-6.12-9.46-7.03-1.62-1.4-4.78-2.75-4.53-4.96,3.06-.59,16.2,9.66,13.99,11.99Z"/>
  <path class="st69" d="M375.99,323.01c2.82,2.5-13.36,6.64-14.99,5.99-.43-2.32,1.06-2.24,2.54-2.95,1.63-.78,11.86-3.56,12.45-3.04Z"/>
  <path class="st69" d="M637.99,337.99c-.94.92-9.48-5.41-7.99-6.99,3.24,1.08,7.48,3.09,7.99,6.99Z"/>
  <path class="st150" d="M977.99,577.01c.86.85-4.69,7.68-5.63,8.87-1.29,1.62-2.03,4.57-4.36,4.12,1.4-3.08,3.92-8,6-10.49.61-.73,3.02-3.46,3.99-2.5Z"/>
  <path class="st87" d="M798,829c-2.67,3.24-5.54,5.28-8,8-1.88-.34.57-3.04,1.02-3.52.84-.88,2.73-2.5,3.78-3.41.42-.36,3.03-2.85,3.19-1.07Z"/>
  <path class="st191" d="M523,342c-3.67,3.92-9.68,7.08-15,8v-1c4.96-2.28,10.09-4.62,15-7Z"/>
  <path class="st70" d="M864,359c.02.1,1.25.39.98,1.39-.25.93-5.45,6.83-6.97,7.61.25-2.94,3.86-7.07,5.99-9Z"/>
</svg>