<?xml version="1.0" encoding="UTF-8"?>
<svg id="Layer_1" xmlns="http://www.w3.org/2000/svg" version="1.1" viewBox="0 0 1024 1536">
  <!-- Generator: Adobe Illustrator 29.5.1, SVG Export Plug-In . SVG Version: 2.1.0 Build 141)  -->
  <defs>
    <style>
      .st0 {
        fill: #051420;
      }

      .st1 {
        fill: #0e81b8;
      }

      .st2 {
        fill: #030509;
      }

      .st3 {
        fill: #030c13;
      }

      .st4 {
        fill: #14678d;
      }

      .st5 {
        fill: #030307;
      }

      .st6 {
        fill: #0b2f45;
      }

      .st7 {
        fill: #1473a2;
      }

      .st8 {
        fill: #030c14;
      }

      .st9 {
        fill: #095178;
      }

      .st10 {
        fill: #23aad5;
      }

      .st11 {
        fill: #03070e;
      }

      .st12 {
        fill: #07283d;
      }

      .st13 {
        fill: #040b12;
      }

      .st14 {
        fill: #03101b;
      }

      .st15 {
        fill: #03080d;
      }

      .st16 {
        fill: #0c6595;
      }

      .st17 {
        fill: #010102;
      }

      .st18 {
        fill: #2cc3e9;
      }

      .st19 {
        fill: #1c7daa;
      }

      .st20 {
        fill: #062c43;
      }

      .st21 {
        fill: #051117;
      }

      .st22 {
        fill: #0a4f75;
      }

      .st23 {
        fill: #0c7cb2;
      }

      .st24 {
        fill: #0a4462;
      }

      .st25 {
        fill: #0c4769;
      }

      .st26 {
        fill: #052436;
      }

      .st27 {
        fill: #1080b6;
      }

      .st28 {
        fill: #030b13;
      }

      .st29 {
        fill: #0c5a84;
      }

      .st30 {
        fill: #0c496a;
      }

      .st31 {
        fill: #020409;
      }

      .st32 {
        fill: #084669;
      }

      .st33 {
        fill: #094e74;
      }

      .st34 {
        fill: #2cc0e5;
      }

      .st35 {
        fill: #05334b;
      }

      .st36 {
        fill: #22b5db;
      }

      .st37 {
        fill: #04090f;
      }

      .st38 {
        fill: #21b6dd;
      }

      .st39 {
        fill: #020202;
      }

      .st40 {
        fill: #0a4a6c;
      }

      .st41 {
        fill: #020f16;
      }

      .st42 {
        fill: #0a567f;
      }

      .st43 {
        fill: #03070d;
      }

      .st44 {
        fill: #02080d;
      }

      .st45 {
        fill: #21b0d6;
      }

      .st46 {
        fill: #040f17;
      }

      .st47 {
        fill: #030c16;
      }

      .st48 {
        fill: #074465;
      }

      .st49 {
        fill: #03121b;
      }

      .st50 {
        fill: #10597e;
      }

      .st51 {
        fill: #0c628d;
      }

      .st52 {
        fill: #1fb1d9;
      }

      .st53 {
        fill: #020c15;
      }

      .st54 {
        fill: #030a0f;
      }

      .st55 {
        fill: #020408;
      }

      .st56 {
        fill: #0d7aaf;
      }

      .st57 {
        fill: #0b3a53;
      }

      .st58 {
        fill: #03090e;
      }

      .st59 {
        fill: #0d547b;
      }

      .st60 {
        fill: #0b5278;
      }

      .st61 {
        fill: #030f1a;
      }

      .st62 {
        fill: #01253b;
      }

      .st63 {
        fill: #29b6dd;
      }

      .st64 {
        fill: #040e17;
      }

      .st65 {
        fill: #0b5379;
      }

      .st66 {
        fill: #1187b8;
      }

      .st67 {
        fill: #0f78a4;
      }

      .st68 {
        fill: #020204;
      }

      .st69 {
        fill: #020302;
      }

      .st70 {
        fill: #0a79b0;
      }

      .st71 {
        fill: #03060b;
      }

      .st72 {
        fill: #05263a;
      }

      .st73 {
        fill: #02090f;
      }

      .st74 {
        fill: #0c405a;
      }

      .st75 {
        fill: #187bab;
      }

      .st76 {
        fill: #02060c;
      }

      .st77 {
        fill: #051421;
      }

      .st78 {
        fill: #12638a;
      }

      .st79 {
        fill: #03090f;
      }

      .st80 {
        fill: #030d16;
      }

      .st81 {
        fill: #23b1d8;
      }

      .st82 {
        fill: #04070d;
      }

      .st83 {
        fill: #030205;
      }

      .st84 {
        fill: #061e30;
      }

      .st85 {
        fill: #3dbfda;
      }

      .st86 {
        fill: #1cabd4;
      }

      .st87 {
        fill: #1584b9;
      }

      .st88 {
        fill: #0b527a;
      }

      .st89 {
        fill: #0c77ac;
      }

      .st90 {
        fill: #020307;
      }

      .st91 {
        fill: #0a557c;
      }

      .st92 {
        fill: #0b4362;
      }

      .st93 {
        fill: #05466a;
      }

      .st94 {
        fill: #020e17;
      }

      .st95 {
        fill: #020205;
      }

      .st96 {
        fill: #29b8dc;
      }

      .st97 {
        fill: #1b90bf;
      }

      .st98 {
        fill: #12749d;
      }

      .st99 {
        fill: #1281b5;
      }

      .st100 {
        fill: #0d3b52;
      }

      .st101 {
        fill: #05060b;
      }

      .st102 {
        fill: #083147;
      }

      .st103 {
        fill: #0e5478;
      }

      .st104 {
        fill: #063c5b;
      }

      .st105 {
        fill: #2fbbdf;
      }

      .st106 {
        fill: #030910;
      }

      .st107 {
        fill: #195e81;
      }

      .st108 {
        fill: #0a4360;
      }

      .st109 {
        fill: #020c14;
      }

      .st110 {
        fill: #114862;
      }

      .st111 {
        fill: #126f99;
      }

      .st112 {
        fill: #27bee5;
      }

      .st113 {
        fill: #030204;
      }

      .st114 {
        fill: #106692;
      }

      .st115 {
        fill: #030407;
      }

      .st116 {
        fill: #0d3248;
      }

      .st117 {
        fill: #052e4c;
      }

      .st118 {
        fill: #020407;
      }

      .st119 {
        fill: #051d2c;
      }

      .st120 {
        fill: #1398c8;
      }

      .st121 {
        fill: #2fcced;
      }

      .st122 {
        fill: #031a2b;
      }

      .st123 {
        fill: #27bbe1;
      }

      .st124 {
        fill: #1e6987;
      }

      .st125 {
        fill: #030c15;
      }

      .st126 {
        fill: #051b2a;
      }

      .st127 {
        fill: #02060b;
      }

      .st128 {
        fill: #0c547c;
      }

      .st129 {
        fill: #084263;
      }

      .st130 {
        fill: #062034;
      }

      .st131 {
        fill: #042438;
      }

      .st132 {
        fill: #09405d;
      }

      .st133 {
        fill: #02080f;
      }

      .st134 {
        fill: #1aa8d4;
      }

      .st135 {
        fill: #0a3e59;
      }

      .st136 {
        fill: #107bae;
      }

      .st137 {
        fill: #03121d;
      }

      .st138 {
        fill: #03070c;
      }

      .st139 {
        fill: #2dc9eb;
      }

      .st140 {
        fill: #2ab0d8;
      }

      .st141 {
        fill: #1685b6;
      }

      .st142 {
        fill: #0d3a52;
      }

      .st143 {
        fill: #030c18;
      }

      .st144 {
        fill: #02070c;
      }

      .st145 {
        fill: #02070e;
      }

      .st146 {
        fill: #0a364f;
      }

      .st147 {
        fill: #0d78ac;
      }

      .st148 {
        fill: #02050b;
      }

      .st149 {
        fill: #0d7eb5;
      }

      .st150 {
        fill: #041522;
      }

      .st151 {
        fill: #093954;
      }

      .st152 {
        fill: #02050a;
      }

      .st153 {
        fill: #062132;
      }

      .st154 {
        fill: #084262;
      }

      .st155 {
        fill: #0f4865;
      }

      .st156 {
        fill: #23b4da;
      }

      .st157 {
        fill: #2cc5e8;
      }

      .st158 {
        fill: #030306;
      }

      .st159 {
        fill: #020508;
      }

      .st160 {
        fill: #2dc5ea;
      }

      .st161 {
        fill: #030a11;
      }

      .st162 {
        fill: #0f71a2;
      }

      .st163 {
        fill: #04111a;
      }

      .st164 {
        fill: #09537a;
      }

      .st165 {
        fill: #05324d;
      }

      .st166 {
        fill: #1891c6;
      }

      .st167 {
        fill: #0a7ab0;
      }

      .st168 {
        fill: #03192b;
      }

      .st169 {
        fill: #0a78af;
      }

      .st170 {
        fill: #1b85b7;
      }

      .st171 {
        fill: #0c4c70;
      }

      .st172 {
        fill: #03060a;
      }

      .st173 {
        fill: #020306;
      }

      .st174 {
        fill: #020b13;
      }

      .st175 {
        fill: #041019;
      }

      .st176 {
        fill: #020a13;
      }

      .st177 {
        fill: #052e46;
      }

      .st178 {
        fill: #0b3f5d;
      }

      .st179 {
        fill: #2396c8;
      }

      .st180 {
        fill: #04283d;
      }

      .st181 {
        fill: #0a557e;
      }

      .st182 {
        fill: #37c5dd;
      }

      .st183 {
        fill: #1170a0;
      }

      .st184 {
        fill: #030b12;
      }

      .st185 {
        fill: #041c2a;
      }

      .st186 {
        fill: #073e5e;
      }

      .st187 {
        fill: #041626;
      }

      .st188 {
        fill: #030e18;
      }

      .st189 {
        fill: #0978ae;
      }

      .st190 {
        fill: #0f71a4;
      }

      .st191 {
        fill: #06273f;
      }

      .st192 {
        fill: #0a79af;
      }

      .st193 {
        fill: #085782;
      }

      .st194 {
        fill: #083c5b;
      }

      .st195 {
        fill: #071823;
      }

      .st196 {
        fill: #020509;
      }

      .st197 {
        fill: #1f8cbf;
      }

      .st198 {
        fill: #1c86ab;
      }

      .st199 {
        fill: #0a5d8a;
      }

      .st200 {
        fill: #0f7cb3;
      }

      .st201 {
        fill: #030a10;
      }

      .st202 {
        fill: #020206;
      }

      .st203 {
        fill: #020305;
      }

      .st204 {
        fill: #106b9c;
      }

      .st205 {
        fill: #040e18;
      }

      .st206 {
        fill: #02070d;
      }

      .st207 {
        fill: #23b5db;
      }

      .st208 {
        fill: #0a4363;
      }

      .st209 {
        fill: #1d92ca;
      }

      .st210 {
        fill: #1371a1;
      }

      .st211 {
        fill: #0f567b;
      }

      .st212 {
        fill: #051825;
      }

      .st213 {
        fill: #041521;
      }

      .st214 {
        fill: #21b1d7;
      }

      .st215 {
        fill: #0976ad;
      }
    </style>
  </defs>
  <path class="st69" d="M179.99,679.48c-4.77,6.3-6.98,2.55-3.23-4.94,1.83-3.66,7.72-12.57,11.23-9.4.38.41.71.84.86,1.34.23.79-7.44,11.24-8.86,13Z"/>
  <path class="st69" d="M822.98,692.64c-1.64-.32-.92,1.61-.99,2.95-1.07,23.41,2.37,55.31,3.01,80.07,4.94,192.96,8.25,386.44,16,579.56.68,17,3.92,35.45,1.9,52.48-.43,3.6-1.33,5.39-3.36,7.93-13.75,17.17-66.7,20.18-87.05,22.64-124.18,15.02-243.34,21.28-367.99,10.74-55.66-4.71-128.05-9.49-181.52-24.47-13.5-3.79-28.05-6.79-28.02-27.45,0-6.98.74-16.48.99-23.99,6.5-190.74,18.71-381.89,22.08-572.29.63-35.66-1.07-71.52.95-107-3.56,7.11-10.11,12.42-14,18.51s-.97,11.02-10.81,8.15c-16.54-4.82-58.99-40-74.49-53.18-23.48-19.94-53.65-47.77-73.2-72.65-4.97-6.33-17.18-21.49-15.26-30.18,44.16-109.17,95.69-214.48,151.11-315.97,23.03-18.1,47.35-33.97,72.31-48.03,27.4-15.43,62.36-27.79,87.74-44.52,4.37-2.88,3.17-4.52,5.7-7.53,4.69-5.58,34.85-21.87,41.42-21.95,10.82-.13,35.09,16.37,46.54,21.82,60.59,28.8,125.96,27.46,186.22-2.06,10.43-5.11,29.89-19.53,40.11-18.75,5.87.45,32.2,16.34,37.57,20.94,27.67,23.72,62.32,31.42,94.05,46.54,23.38,11.15,67.04,34.06,85.51,53.16,21.26,22.01,44.23,92.53,57.67,124.67,27.5,65.81,57.86,128.41,90.26,190.88,2.66,6.84,3.47,10.36.77,17.42-7.85,20.51-70.99,73.93-89.45,89.08-23.21,19.04-48.06,35.05-72.03,52.64-.95.73-1.59.88-2.66.33-.75-.38-10.28-12.02-11.54-13.79-3.37-4.73-6.86-11.32-9.5-16.73h-.04Z"/>
  <path class="st215" d="M325.99,179.99c14.04,63.75,33.86,120.21,83.69,155.12,64.81,45.4,128.74,38.81,192.64-3.55,38.83-25.74,68.06-86.11,78.2-137.18,1.02-5.15.15-15.74,5.2-16.57l118.23,54.22c14.02,6.23,27,16.1,40.36,23.52,2.02,1.12,5.36.37,3.46,4.31-.22.47-5.99,4.36-7.34,6.13-6.68,8.77-19.87,50.95-23.47,63.97-29.05,105.11-23.75,184.73-18.97,292.78.46,10.43,4.6,45.25,1.04,52.65-.84,1.76-4.17,4.46-5.57,6.49-4.08,5.94-9.91,13.77-13.31,19.94-1.12,2.03-2.59,3.58-2.17,6.36l22.98-31.06c-1.34,5.9,2.08,15.67.81,20.66-.56,2.22-11.53,15.99-13.77,19.39s-5.09,7.29-6.02,11.32c6.57-6.26,11.69-14.44,16.99-22.17.96-1.41,1.03-4.72,3-2.33-.28,7.46.78,14.69,1,22.11l1,23.9c0,5.95.04,11.95,0,17.92-2.29,5.07-5.42,9.73-9.4,13.97-2.48,4.9-5.35,8.6-8.6,11.13-.95,3.43-2.93,6.86-5.94,10.3-1.78,2.44,1.55,14.81,2.14,15.15.39.23,6.16-4.34,5.79-6.33l.23-1.9c2.63.27,4.54-2.15,4.77-5.27,1.7-2.14,9.15-13.32,10-13.75,1.21-.61,1.41.38,1.86,1.37,1.18,16.16.72,32.01,1.14,48.23-.07,2.08-.75,3.32-2.04,3.72l-6.84,8.97c-4.7,1.16-14.55,16.26-11.13,21.22.25.37,5.01-4.9,5.02-6.43-.6-1-.54-1.66.05-2.38,5.27-6.36,9.89-12.14,13.95-19.13,1.16,7.18,1.83,14.75,2,22.7.03,6.52-.47,13.14.76,19.57l-4.76,5.52c-.52-.51-.94-.88-1.02-.8-3.07,3.19-8.16,9.4-8.98,12.75-3.79,5.38-8.83,13.53-9.99,20.31l24.49-33.45c1.09,5.03.24,10.41.5,15.52-.34,2.39-1.01,3.19-2,2.39-.95,3.6-5.49,11.27-9,9.56-.38-2.2.52-4.83,2.7-7.9-1.25-2.53,0-4.15.75-1.41.26.93-7.75,15.03-9.95,15.18-2.8-5.38-5.66,11.41-5.72,13.63-.2,8.1,4.2,1.91,5.22-2.77-.23-.74-.37-1.46-.22-2.08.59-2.43,13.18-18.89,15.85-22.36.3-.39.81-.56,1.37-.66,1.75,4.42,3.69,13.96-2.51,14.41-3.38,3.79-14.88,20.18-16.07,24.64-2.35,8.82.55,17.18,4.58,3.97-1.82-5.09,10.71-16.6,1.73-6.17l-2.73.19c-.77.84-1.95,1.28-2.43.42-.68-1.25,13.12-22.02,14.88-23.48,1.18-.98,3.17-1.16,4.55-.84.35,10.22,2.4,16.81-1,26.29q-5.29,6.76,0,0c.65-.07,1.34.04,1.99,0l1.02,50.55c-3.65,2.21-20.58,22.17-20.02,25.32,1.12,6.21,4.67-2.65,5.59-4.05,3.96-6.05,8.06-10.78,12.43-16.26.96-1.21.9-4.84,2.98-2.35-.48,4.4.67,10.23,0,14.34-.46,2.89-7.82,8.16-10.05,10.69-2.85,3.24-4.35,6.57-7.96,10.2-3.15,4.58-2.94,7.58,2,3.58.24-.44.27-1.79.95-3,3.09-5.54,10.98-11.59,14.56-17.32,3.46,9.77-2.52,11.63-7.02,17.9s-9.08,13.52-13.49,20.31c1.88.53,2.38-1.24,3.5-2.38,6.89-6.92,11.61-16.38,18-23.9,3.16,9.24-4.12,11.08-8.52,16.11-3.16,3.62-6.02,7.55-8.99,11.36-.58,2.58-.1,4.24,1.42,4.97,5.66-4.64,5.85-2.31.58,6.98,2.41-.19.98,3.55-1,2.39-2.34,4-2.49,7.99-.45,11.96l16.02-19.57,2.43.44c.12,4.78.75,21.07-.17,24.29-.46,1.61-17.77,15.57-17.83,22.3,1.88.53,2.38-1.24,3.5-2.38,5.08-5.09,9.06-12.05,14.49-16.73,1.35,7.33-3.43,7.54-7,11.34-2.84,3.01-5.64,6.58-7.99,10.16l15.99-13.13c1.75,8.52-3.18,7.92-6.99,12.55-2.31,2.81-8.46,10.41-7.51,13.73l14.01-16.72c3.7,10.92-9.55,14-13.56,22.04-1.44,2.88-.64,4.15-.94,6.63,1.08,3.32.87,7.24-.65,11.75-1.92,6.99-1.37,9.86,1.65,8.57-1.29-1.92.13-3.6,2-2.39v1.19c.44.8.79,1.41.85,1.36,2.48-2.03,6.47-6.7,8.15-9.73-2.85-1.09,2.65-8.17,4-3.58-.02,1.98.06,3.99,0,5.97l.79,5.89c1.46,3.05,2.27,5.7.21,8.45.09,1.17-.03,2.4,0,3.58l-.89,3.79c-4.8,4.95-8.83,10.46-12.11,16.53-.34,1.59,0,2.7,1,3.36l-3.58,9.64c-.34,2.41-.05,3.11,2.37,1.88,3.9-4.95,8.13-9.46,12.7-13.55l1.51,10.61c-.15,1.71.28,2.62-.99,4.17-2.44,3-11.7,7.53-14.13,11.93-1.2,2.17.41,3.61-.77,6.03-2.47,5.09-19.62,22.75-24.62,29.24-6.54,8.48-13.31,17.23-18.48,26.91,1,1.94,2.21-.39,3-1.19,3.22-3.24,7.04-8.19,10.02-11.93,15.31-19.24,29.17-40.41,45.96-57.99-1.69,6.49,2.2,24.45.85,29.09-.64,2.19-10.36,8.89-10.85,13.32l11-11.34,2.05,74.45c-5.55,6.07-11.64,11.93-17.08,18.12-2.2,2.51-5.82,10.19-8.66,11.16-4.19,1.43-13.8,1.45-18.3.84,6.36-6.29,11.89-13.75,17.98-20.34,4.79-5.19,22.47-20.79,23.84-26.49.37-1.57.53-3.67-1.31-2.76-1.6.79-8.26,10.21-10.5,12.56-6.44,6.75-27.73,25.37-31.08,32.18-.94,1.92-.78,4.91-1.07,5.28-.89,1.15-13.69,2.1-15.86.76l58.85-68.29c-.05-7.12-2.04-.82-2.91.06-20.98,21.07-40.2,44.38-59.39,67.71-13.57,3.88-28.12,2.28-42.05,3.53-15.39,1.37-30.73,4.48-46.02,5.95-88.12,8.47-177.72,4.84-265.95,2.35-14.87-.42-29.73.75-44.54-1.16l7-8.34c-6.9-2.81-9.63,6.25-14.18,7.56-2.31.67-5.32-.97-7.82-.42l8.97-11.38,4.52-7.74c-4.66,1.92-15.01,17.76-18.2,18.89-5.07,1.79-24.6-1.42-31.29-2.15-5.05-1.24-3.71-3.63,4-7.17,1.34-1.58,1.87-3.18,1-4.78-3.03,2.5-6.69,6.12-8.13,10.04l-2.87.72c-2.47-.24-5.03.22-7.52,0-1.49-.13-2.89.93-2.48-1.78,25.38-32.69,52.62-63.08,80.47-92.65l.51-5.95c-23.37,25.5-48.84,51.32-70.02,79.43-4.78,6.35-9.62,12.85-12.97,20.43-9.4-1.71-19.08.12-28.49-.7-14.15-1.24-33.68-3.8-47.52-7.15l-1.49-4.37c-1.83-41.51-.54-83.9.91-126.14,5.91-146.73,12.12-292.53,18.6-437.39l-1.6-2.23c3.48-25.67,5.03-52.79,4.63-81.4l2.14-139.32c1.43-24.03-.48-46.32-5.72-66.86l1.51-6.97c-5.08-35-10.07-68.61-14.98-100.86-3.81-33.28-15.23-87.79-32-114.72,5.56-7.56,13.4-12.73,23.51-15.47,9.87-7.5,20.08-13.24,30.64-17.21,10.99-8.78,21.93-17.14,35.3-21.22l2.54,1.33c-1.62,4.09-4.75,7.36-9.4,9.82l-31.92,20.19,67.74-42.49c-1.71,1.05-3.03,1.33-4.43-.67-.72.29-1.55.53-2.28.18-5-2.38,9.94-10.43,11.61-10.55,1.75-5.32,6.11-7.52,13.09-6.58-3.01-4.72,2.5-8.85,5.59-5.74l.09.04Z"/>
  <path class="st215" d="M816.99,1180.17c.02,5.27-.18,10.23,0,15.53-4.52,4.82-9.05,10.04-13.58,15.65-4.62,1.23.53-10.62,3.18-12.18-3,1.47-3.35-.19-2.6-3.47,2.58-5.27,7.62-12.21,11.71-15.98.21-.19.71.06,1.29.44h0Z"/>
  <path class="st215" d="M803.99,772.69c-.05,3.88.68,12.69-.49,15.55-.48,1.16-5.37,4.89-7.02,7.15-2.96,4.06-5.51,8.9-8.49,13.16v3.58c-3.47,10.29-8.48,3.26-8.58-5.08-.05-4.52,5.33-11.54,8.58-12.85-.83-2.26,13.11-22.25,14.62-22.14.47.04.93.3,1.38.63Z"/>
  <path class="st70" d="M845.99,272c2.2-4.88,6.38-5.6,6.67.85,2.88.07,5.6,5.14,4.7,8.48,11.84,3.74,3.23,15.8-2.2,23.09-.97,5.11,9.98-5.11,10.59-8.7l1.25.18c6.09,9.32,9.5,20.65,14,31.07,1.85,4.54,1.59,8.17-.78,10.92,2.16,1.35,2.09,2.88-.22,4.61.36.9.52,1.89.06,2.78-1.95,3.75-15.08,27.52-16.5,27.51-.52,0-1.04-.19-1.56-.42-3.55,3.57-5.38-3.3-2.12-6.35-1.15-1.97-1.51-4.58-1.09-7.8-2.04-3.51-2.31-6.36-.8-8.56-.86-1.57-2.53-.37-5,3.58,2.83,5.22,4.3,11.88,4.39,19.97,2.89,7.18,5.94,14.39,9.16,21.62.64,11.71,5.47,7.16,5.45-2.15-.73-.9-1.39-1.7-2-2.39-1.96,5.87-5.23-.12-6.28-4.13-.48-1.84-1.32-7.85.28-7.82-.4-.67-.71-1.35-.74-2.03-.1-3.11,12.06-23.8,14.78-27.93l2.96-1.11,2.3-1.59c1.65-5.05,3.22-5.72,4.7-2,11.96,27.72,23.2,55.94,35,83.65,1.08,2.69,1.37,4.05-1.3,4.91,1.14,3.54.57,5.88-1.7,7.04l.98.63c-5.36,12.71-11.02,25.25-16.98,37.61,3.15,1.97,3.92,5.64,2.32,11.01l4.56,8.85c-.7,4.17.08,6.51,2.32,7.06.91,13.47,6.31,5.35.97.16l.83-5.56c-.71-1.9-.14-3.31.58-4.96,4.34-9.92,8.47-19.8,12.58-29.85.64-1.57,1.42-2.8,2.84-3.43l-.65-1.95c-3.92,2.09-2.8-3.85-1.33-7.13-2.65,3.91-5.31,8.01-7.98,12.28l1.96,1.58c2.15,1.59.47,6.6-2,5.97-3.33,6.03-16.18,18-14,3.58-.28-1.28-.41-2.47-.05-3.39,4.19-10.59,9.3-22.18,15.05-31.26l.35-1.33c-.35-2.94.33-11.03,3.65-5.84,11.82,27.79,23.07,56.16,38.19,81.63l8.8,21.14c-10.83,3.86-22.58,11.18-32.51,17.92-39.41,26.74-79.43,68.45-110.49,107.56-5.17,5.4-6.79-8.17-2-9.56l.26-3.64c6.12-8.66,5.7-9.03-1.26-1.14-4.11,7.07-2.51-7.25-1.27-11.04,3.1-4.83,4.52-9.51,4.27-14.05,5.73-19.01,6.76-30.27,10.28-49.26,4.59-24.78,12.75-55.88,13.72-80.99,1.56-5.29-.69-18.5-3-5.64l-3,6.84c-5.69,25.25-13.12,49.91-18.5,75.29-.33,4.61-4.07,1.76-5.04,3.56-.45.84.75,2.65.05,4.7-.48,1.41-8.06,10.23-7.52,10.85-.85-8.08-2.19-16.75-3-25.09.54-2.39.21-4.78-1-7.17-.28-3.05.24-6.48,0-9.56,1.94-9.15,2.17-11.54.7-7.16-5.44,1.47.4-18.87,2.3-21.52,3.29-19.29,8.15-37.87,11.73-57.08,3.96-21.26,11.43-57.94,12.3-78.51.06-1.4-.05-2.82-.04-4.22-1.07-1.78-6.94,17.53-7.44,19.18-6.48,21.37-10.44,43.81-15.55,65.66-2.64,1.34-4.2,5.08-4.68,11.23-1.3,3.39-3.12,7.73-6.32,5.5-1.4-43.83,4.99-83.66,14.28-125.73,6.45-29.2,12.38-55.55,25.72-80.99l.02-.02Z"/>
  <path class="st169" d="M212.99,1357.03c11.84,3.12,27.31,4.96,39.51,5.96,118.82,9.77,238.78,13.78,357.95,9.52,24.18-.86,46.89-1.88,71.04-4.73,12.17-1.43,24.28-4.8,36.51-4.76l-6.97,7.79-8.52,14.91c5.84-4.78,10.47-11.45,15.52-17.3,1.14-1.33,2.16-4.25,2.98-4.8,4.16-2.8,14.97-.8,19.98-3,.55,2.86-.41,1.94-1.3,2.66-7.04,5.75-12.72,12.3-19.22,18.81l-13.96,17.97c13.47-11.27,26.11-24.64,37.15-39.25l43.33-1.37-12.97,16.19c-1.04,1.19-5.97,3.12-1.54,4.09,11.63-8.66,20.12-25.31,35.51-22.68l-33.99,38.84c.71,3.91,3.88,4.74,6,1.78,2.76,1.68,3.09,8.3,0,9.56-.74.04-1.99-.86-3.3-.76-7.01.5-15.33,3.75-22.7,3.14l12.99-16.12-1.48-.59c-5.44,4.27-13.04,16.83-19.11,17.79-10.66,1.71-23.12.59-33.89,1.33-39.41,2.72-78.58,5.76-118.02,8.34-109.05,7.15-218.28-3.29-327-14.32-20-2.03-38.33-1.73-58.49-5.99l-2.82-1.86c-.93-1.73,2.92-36.89,5.07-39.54.51-.62,1.11-1.14,1.75-1.63h-.01Z"/>
  <path class="st192" d="M167.99,266.02c.64-1.76,1.23-2.96,3.01-1.85,1.65,1.03,9.26,12.67,10.39,15.12,18.94,40.82,24.21,100.23,26.64,146.22.08,1.59.74,7.46-1.03,7.82-7.73-39.11-18.97-77.02-30.52-114.7-3.47,7.61,4.64,21.71,3.58,27.85-.19,1.1-2.24,1.35-3.06,2.57-1.77,2.61-13.29,20.3-12,22.15,7.58-4.41,9.22-16.06,15.98-21.51-.66,3.64,2.44,9.31,1.84,12.31-1.07,5.38-12.6,14.82-10.82,22.35l11.49-15.51c1.16-.05,2.62,8.44,2.34,9.89-.44,2.25-14.56,18.82-16.87,24.1-.84,1.91-1.27,3.15-.96,5.41,7.17-7.11,12.2-16.91,18.49-25.08.37,4.25,3.21,9.34,2.54,13.68-.17,1.12-2.69.45-3.99,1.28-3.97,2.5-10.27,14.85-13.05,19.69l.26,2.94c-3.95,2.21-1.39,10.78,2.87,6.7,2.1,1.98,4.06,2.35,5.87,1.11-.96-1.63-.58-3.66,1.13-6.11l-2.13.13c-2.35,7.74-9.49.76-5-3.58,5.02-6.75,8.62-15.08,14.99-20.31l4.04,24.26c-5.6,6.38-13.26,14.91-14.02,24.74l14.49-20.29c1.33,0,2.91,9.3,2.56,11.09-.2,1-2.51,1.64-3.5,3.26-1.6,2.61-2.63,5.81-4.12,8.25-1.35,2.21-9.26,12.62-9.22,13.84.02.47,2.12,2.95,2.29,2.95,1.29.02,14.84-20.91,14.51-25.06,1.85.63,3.05,8.57,2.54,9.54-.48.9-2.43,1.6-3.41,3.18-2.08,3.36-3.35,7.31-5.18,10.54-3.49,6.18-9.74,11.81-8.96,19.75l3.99-3.58c2.17,2.52-1.23,8.84-4,8.36-6.66-27.17-14.81-54.9-23.51-81.25-.48-1.45-1.04-3.29-2.48-3.6,2.38,12.61,2.42,25.88,4.24,38.54,3.77,26.19,10.66,53.4,15.46,79.51.92,5.02,5.49,26.95,4.07,29.89-.33.68-8.04,7.99-9.8,10.37-3.76,5.08-8.82,12.49-10.96,18.56,5.94-5.04,10.12-12.31,14.95-18.57,2.08-2.69,6.07-3.55,6.05-8.9,1.43-.36,1.05,1.35,1.31,2.58.76,3.68,2.33,10.36.75,13.6-4.49,6.07-10.09,11.95-14.07,18.46-1.56,1.39-8.12,8.32-8.85,9.73-1.33,2.57-.5,7.23,2.09,2.72.76-2.23,2.35-3.6,4.76-4.09,5.76-8.14,12.24-15.74,17.99-23.9-.05,5.02,4.67,16.45,3.83,20.6-.36,1.78-16.79,26.68-18.82,28.99-3.02,3.43-6.19-1.55-5.91-3.41.33-2.2,14.08-20.76,16.35-24.75,1.04-1.82,1.74-3.93,2.56-5.89-1.09-1.33-6.69,6.05-7.51,7.15-2.49,3.32-12.36,21.81-14.8,21.35-2.1-.38-18.79-20.23-22.21-23.71-22.23-22.56-52.11-47.32-78.47-62.17l-.92-3.98c33.81-79.27,72.26-161.46,110.53-235.8,1.55-1.4,2.56-14.14,2.33-14.85-3.23-2.81-4.28-6.15-2.93-10.64l-.03-.04Z"/>
  <path class="st81" d="M215.99,383.13c.9-3.02,1.67,1.47,1.73,2.1,2.98,31.51,12.17,65.01,15.2,96.6.46,4.74-1.64,7.38-1.5,8.95.23,2.7,2.98,8.57,3.55,13.66,4.06,36.58,1.38,79.78.94,117.09s-.5,75.74-1.91,113.57c-.4,10.67-.71,34.81-4.02,42.97-.39.96,1.83-.31,2.08,2.28.48,4.84-.83,9.19-.95,13.4-4.78,162.62-16.71,326.33-19.13,488.61-.33,22.24-.89,44.17,0,66.31-3.83-.92-17.69-3.72-18.03-8.95l3.07-41.78c6.06-218.95,16.87-437.35,22-656.04,1.95-83.21,6.37-176.63-3.04-258.76v-.02Z"/>
  <path class="st70" d="M367.99,148.92c.31,11.07,2.34,24.04,3.93,33.16,1.27,7.3,2.41,14.63,4.07,21.81.34,1.06.2,2.09-.68,2.43,4.07,3.67,3.24,7.04-2.47,10.13,7.15,3.62,11.17,10.73,12.06,21.33,3.8,2.2,6.35,5.77,7.66,10.73l8.58,10.4c.32,6.43,4.2,6.88,6.85,2.35,1.01,1.16,5.63,5.86,7,7.17l1.71,2.52c-4,6.55-3.53,8.93,1.4,7.15,1.94,1.59,4.01,2.82,6.22,3.7,2.21,3.74,8.23,8.78,11.88,5.11,1.9,1.03,3.83,1.64,5.79,1.83,32,18.51,73.78,25.02,108,11.95,5.4,2.21,16.88,4.98,15.71-4.74,13.18-6.7,25.44-16.08,36.8-28.17l5.3-2.8c-1.42-4.7.26-8.44,5.06-11.22l5.42-12.14,2.72-.68,1.37.27c3.24,8.64,7.8-9.67.95-.26l-2.32-.02c-2.02-2.25-2.02-6.23,0-11.95,1.31-2.75,2.81-5.56,4-8.36,2.91.82,10.81-16.9,10.45-18.33-.1-.38-.66-.61-1.36-.78-.15-.55-.29-1.11-.38-1.67-.34-2.03,9.17-35.38,13.3-37.77,2.73-.8,9-.66,12.05.23,1.65.48,9.06,4.54,9.35,5.11,1.69,3.29-4.8,6.46-6.95,6.89-.88,2.26-1.37,4.55-1.46,6.88,4.66.71,6.7,2.63,6.14,5.8,2.01,2.82,1.92,3.73-1.14,2.57-6.62-1.1-13.19.78-19.99-3.58-3.11,3.54,13.61,8.07,14.99,8.36l1.9,1.11c.32,4.13,1.49,5.68,3.52,4.62-.51-3.62,2.6-5.45,4.58-3.35-.59,7.49-4.26,16.23-5.01,23.9-1.03,1.08-18.61-11.23-21.98-11.95-.36,2.44,1.28,3.41,2.66,4.58,2.36,2.01,17.22,9.38,17.42,10.53.25,1.46-1.52,10.96-3.57,9.98-4.38-7.21-10.74-13.07-18.51-13.12l18.08,15.08c.38,2.21-6.66,20.16-8.07,21.38-1,.86-1.8-.96-2.52-1.79-1.71-2.01-12.79-17.35-13.49-19.13l-2.27-.81c-.53-10-1.47-11.14-2.82-3.43,1.99,1.88,2.68,3.68,2.1,5.44,4.45,6.37,8.84,13,13.45,19.19,1.01,1.35,3.58,2.37,3.57,2.94-.04,2.06-12.17,20.45-13.01,19.69-2.54-9.23-7.71-17.89-14-23.9l11.97,26.92c-.04,2.16-7.35,10.22-8.98,12.51h-1c-1.2.68-2.24-.2-3.12-2.69l-.88,1.49c1.67,3.25.53,5.78-2.77,5.38-1.25,3.72-3.44,9.39-5.23,2.99-1.5-.51-2.5-.12-3,1.19,2.41,5.94-4,11.76-8,8.36-2.15-3.32-3.15-3.32-3,0l1.07,6.52c2.14-.36,2.12.66-.07,3.04-14.48,10.43-39.97,24.57-56.74,28.4-1.04.24-3.5,1.23-3.26-.91,2.26-1.54,7.37-3.62,9.02-5.44.31-.35,2.97-9.01,2.97-9.52v-19.12c0-1.77-3-1.77-3,0v22.7c0,2.4-10.63,10.56-12.97,11.99-18.65,11.35-62.86,3.64-83.04-3.61-7.77-2.8-15.09-7.77-22.99-10.18l14.02-24.46,1.98-6.58c-1.88-.47-2.42,1.11-3.42,2.47-2.89,3.94-12.21,24.14-15.22,24.81-10.75-6.08-21-13.84-30.35-22.51-3.32-3.31-1.82-6.69,1.82-5.37l1.18-1.8c2.75-4.77,3.08-6.75,1-5.97-2.87,7.04-10.05,6.49-7-1.19.49-1.3-.51-1.7-3-1.19-1.21,3.99-2.88,5.19-5,3.58-.97-1.22-1.85-1.98-3-3.58-1.41-2.68-.07-3.87,4-3.58.07-2.19-.93-3.38-3-3.58-.45,3.51-1.78,4.31-4,2.39-.9-1.51-3.09-3.43-3.98-5.38,0-1.83,18.39-8.04,17.97-14.94-5.46,1.55-10.56,7.89-15.94,9.05-1.21.26-3.05.18-3.03-1.28.04-2.29,17.81-12.37,17.96-14.34s-2.42-1.41-3.7-.87c-2.59,1.08-8.7,5.72-11.58,7.68s-5.84,7.03-8.41,4.18c-2.19-2.43-10.18-17.95-12.09-21.98-6-12.68-9.38-24.9-13.19-38.61-1.11-4.27-.56-8.51,3-4.78l-.27-1.59c5.45-2.92,11.14-4.94,16.88-6.94l-.61-2.22c-3.05.08-3.78-7.15-1-8.36-.87-1.08-.39-1.64.56-1.65,1.1,0-18.71,5.78-20.56,5.23-.37,3.3-1.37,3.69-3,1.19-.8-3.54-2.17-6.95-2-10.75,8.47.24,16.83-2.43,25-4.8-.81-3.05-3.94-2.45-6-2.38-2.21-3.27,6.85-6.21,7.85-5.99,2.37.55,4.51,7.56,3.03,10.07.25.75,1.25,1.98,1.25,1.86.01-10.1-1.32-20.51-3.34-30.26-.2-4.07,2.39-5.35,4.21-2l-.04.02Z"/>
  <path class="st169" d="M980.99,576.71l-1.67-.99c-1.33,2.16-3.07,4-5.33,4.58-6.15,6.4-19.36,12.88-26.92,18.62-35.98,27.33-69.46,60.04-99.58,96.08-4.33-6.93-9.01-13.54-13.5-20.29l.19-2.52c3.75-.44,5.44-2.62,5.07-6.52,2.9-2.57,4.48-5.53,4.74-8.88,23.91-30.71,52.54-60.21,82.08-82.95,15.63-12.03,33.06-24.93,50.93-30.08.48,6.51,14.48,22.2,14.88,25.39.35,2.78-8.76,6.86-10.9,7.58h.01Z"/>
  <path class="st189" d="M54.99,538.48c37.55,19.37,70.49,53.45,100.76,85.43l-2.75,6.58c2.04-3.9,8.24-4.83,7.84.39-.23,3-9.29,13.92-7.85,19.92,2.56.73,1.75-.93,2.61-2.23,3.26-4.88,6.81-9.39,9.89-14.47,2.56,3.29,5.52,4.39,3.99,9.48-1.94,6.46-12.24,16.81-14.98,23.94-24.6-29.23-53.4-54.97-83.19-76.23-9.98-7.12-22.02-15.56-32.31-21.74,3.68-9.01,8.08-19.24,12.51-28.48.29-.61.85-1.05,1.45-1.51s1.33-.8,2.05-1.09h-.02Z"/>
  <path class="st45" d="M167.99,266.02c1.26,4.4,2.42,9.7,7,9.57-4.94,3.33-1.16,7.49-3.22,13.37-4.39,12.52-14.8,28.45-20.77,41-29.01,60.94-57.84,122.93-85.86,184.19-2.45,5.35-4.46,11.42-6.15,17.15-4.4-2.49-9.31-4.4-14-5.99l.42-2.46,122.58-256.83Z"/>
  <path class="st214" d="M325.99,179.99c-.68,1.46-5.01,1.4-4.98,2.99,0,.51,3.56,2.8.99,4.8-.88.69-10.23.35-11.8,2.03-.45.48-.26,2.66-1.21,3.88-1.66,2.15-7.36,3.66-9.72,5.16-1.7,1.09-2.95,1.48-1.29,3.84l-1.31,3.26-17.69,10.69-3-.81c-5.83,3.08-13.62,5.29-19.15,8.53-3.03,1.78-7.69,6.32-10.96,8.66-1.53,1.09-3.83,1.35-4.98,2.53-.97,1,.21,2.9.1,2.98-.49.32-2.89-.86-4.71-.29-6.86,2.17-20.53,12.67-27.93,16.86-5.36,3.04-12.42,5.11-17.29,8.02-2.12,1.27-3.69,5.54-7.07,5.29-1.42-2.28-8.88-10.4-7.99-11.93,47.84-31.91,98.24-57.68,148.5-83.64,2.44,1.7,1.04,5.07,1.49,7.15v-.02Z"/>
  <path class="st134" d="M423.99,226.59c-1.78-3.82.6-3.53,3-1.19,3.64.61,7.72,3.13,11.62,3.47l.85-2.26c36.46,7.64,73.97,12.92,110.75,3.24,20.34-5.35,41.22-14.82,59.77-25.95,2.58,3.18-13.89,16.98-16.07,18.43-40.83,26.89-128.77,31.1-169.92,4.28h0Z"/>
  <path class="st38" d="M560.99,181.18c7.47.02-3.2,8.6-6.42,7.38-3.66-2.8-8.27,3.25-8.58,8.15-2.18,8.58-5.35,15.06-9,22.7-1.47,2.98-3.03,3.58-4,0,1.42-2.92,10.26-24.17,10-25.67-.31-1.82-1.45-1.54-2.69-.86-4.05,2.22-11.86,29.79-16.93,32.37-1.16.59-2.95.66-2.37-1.63l13.97-28.7c.05-1.45-1.36-1.47-2.65-.82-5.78,2.9-12.22,22.96-16.02,29.78-.91,1.64-1.56,1.7-2.82,2.7-1.31-.76-.07-3.26.31-4.41,2.6-7.92,10.34-17.82,12.01-25.09,1.31-5.71-3.43-.81-4.81.84l-2.09.44c-.63-2.66-2.6-3.21-5.91-1.64-.31.23-.63.84-1,1.19-2.75,2.37-4.91,1.27-4.9-3.02-6.03,3.23-9.07,2.22-9.1-2.99-3.94,2.61-8.37,4.39-13.3,5.35-2.26-2.4-4.5-3.38-6.7-2.93-2.4,1.17-3.46,2.37-5,4.78-2.02,2.41-2.97,2.41-3-1.19.67-1.12,2.98-4.85,1.99-5.96-4.5-5.1-16.05,21.23-18.46,23.94-6.83,7.67-3.46-1.46-.97-5.94,2.06-3.7,10.46-13.81,11.29-16.39.25-.78.59-2.74-.35-2.81-1.53-.08-3.06-.22-4.5.6-1.72.98-11.81,21.33-14.13,24.94s-5.8,2.4-3.69-2.01c1.94-4.05,14.47-21.17,14.81-22.97.61-3.23-3.31-2.53-3.98-2.95-1.43,1.12-1.99.44-1.68-2.06-1.65-.84-2.43-1.74-2.32-2.72-3.01,2-7.34-.82-5-4.78,39.19,7.42,78.77,13.03,118,2.39h0Z"/>
  <path class="st207" d="M212.99,1357.03c-2.83,12.02-3.72,24.59-4.54,37.09-.14,2.14-.94,3.85.54,5.93-3.11-.66-16-2.5-16.86-5.54l.85-40.47,1.5-5.37c5.02,5.02,12.23,6.7,18.51,8.35h0Z"/>
  <path class="st36" d="M333.99,171.62c-.39-2.26-1.29-8.95,0-10.15l32.54-19.69c2.48-.85,1.41,5.19,1.47,7.15l-3.98,1.17c1.42-.17,1.72.11,2.08,1.73,2.93,13,2.33,28.09,4.9,41.31-6.72,1.84-3.58-5.56-5.17-9.95-.75-2.07-2.64-1.79-2.79-2.04-.71-1.19,1.59-3.21,1.6-4.1,0-.29-1.56-5.08-1.73-5.27-1.39-1.46-6.47,2.03-7.9,3.45-5.02.19-17.29,5.6-20,0-.01-2.27-.34-3.47-1-3.58l-.02-.02Z"/>
  <path class="st167" d="M779.99,1397.66c.43-4.85,7.68-9.8,10.53-13.11,9.91-11.56,17.76-26.91,31.96-31.12.87-.01.66,7.66.46,8.93-1.12,7.31-23.37,28.91-28.95,35.31.12,3.67-1.88,6.86-6,9.56-2.64.19-5.35-.13-8,0,.19-2.84-.21-7.15,0-9.56h0Z"/>
  <path class="st52" d="M620.99,240.93c-2.6,4.67-4.35,10.12-6.56,14.27-.89,1.67-5.11,3.41-5.36,5.6-.22,1.98,2.37,2.1,1.01,4.62-1.63,3.04-4.69,2.78-6.5,4.34-10.93,9.37-20.08,19.93-32.69,26.65-1.39.74-3.77.51-3.92.68-.47.53,1.07,3.73.55,4.84-1.37,2.95-17.1,5.88-17.54-1.27,31.53-12.05,54.98-37.95,71-71.7,1.52,2.98-.38,7.56,0,11.95h0Z"/>
  <path class="st120" d="M663.99,156.09c2.88,3.26,1.21,4.46-5,3.58l-1.3,2.53-10.47-1.23-.23,1.09c1.85,2.95-1.73,4.18-2.55,7.11-2.01,7.18-3.97,14.35-6.24,21.19-.3.91-5.81,10.62-1.94,9.62,5.09-1.33,5.43,4.33,1,4.16l-8.43,18.65-3.85-2.17c10.78-25.42,13.11-40.6,15.01-68.7.3-4.49.26-12.89,4.4-12.56s15.9,12.85,19.59,16.73h0Z"/>
  <path class="st66" d="M576.99,175.21c7.04-.12,13.78-3.61,19.57-8.14,5-2.89,8.12,3.54,3.43,4.55-.57-2.45-3.3,2.14-3.43,2.47-3.82,10.26-5.64,23.23-12.08,32.17-1.86-5.08,8.86-26.5,7.49-28.68-7.65.9-16.15,34.43-18.5,35.84-.46.27-1.7.24-1.48-.59,3.79-4.56,3.19-10.98,4.67-15.93,1.74-5.78,5.4-10.74,5.31-16.94-1.9-2.47-7.27,9.02-7.99,10.75-2.4-.3-3.4-1.49-3-3.58-.24-.23.92-2.89-1.51-2.43-1.82.35-2.91,2.09-3.92,3.7-3.56,5.65-8.85,19.33-11.1,26.18-1.08,3.27.7,8.2-4.46,6.6l10.98-32.87c-7.38,2.47-10.94-1.39-14.99,8.36.28-1.1-.29-3.27.21-5.08.66-2.38,6.63-7.33,8.25-6.86,1.43.41.87,3.9,2.53,3.57-1.75-3.69,9.75-6.88,4.01-7.16,5.38-1.46,10.79-3.81,16-5.97v.02Z"/>
  <path class="st156" d="M54.99,538.48c-3.86,7.99-7,16.61-10.99,24.51-1.04,2.06-2.63,6.78-5.01,6.56-1.34-.8-13.22-5.58-12.99-6.56l14.11-30.34c1.67-1.27,12.34,4.52,14.88,5.83Z"/>
  <path class="st36" d="M407.99,261.24v5.96c-.43.48-6.71-1.63-7.4-2.25-1.02-.92-.41-3.29-1.16-4.86-.81-1.71-6.82-7.93-8.48-10.22-1.38-1.9.03-5.26-3.97-4.19l2-3.56c-8.77,1.27-6.88-13.55-9.49-17.98-.43-.73-8.23-5.57-8.49-6.58-1.22-4.76,5.92-5.6,5.96-7.11-3.86-3.47-8.35-5.97-9.85-12.13-.52-2.13.07-1.34,1.11-1.91,5.86-3.19,3.5,3.02,5.67,6.74.81,1.39,1.97.56,2.09.72,3.09,4.09,4.22,13.74,7.16,19.53,5.01,9.82,17.97,29.97,24.84,37.83v.02Z"/>
  <path class="st56" d="M191.99,495.46c3.89,3.23,3.93,7.31.13,12.26l-.13,3.27v1.19c-1.25,4,2.61-.42,4-2.39,2.83-5.26,6.51-10.04,9.01-15.52,1.76-.23,1.08,4.1.97,5.35-.25,3.01-.99,6.7-2.13,9.4-2.1,4.99-9.19,11.89-10.84,16.92-.48,1.45.28,2.38,1.48,1.77,4.32-2.22,6.88-10.99,10.5-14.33,1.93,14.32-4.71,21.39-10.49,32.25-1.16-10.59-7.2-24.43-7.5-34.65l-1.57-13.22c-.07-6.25.34-12.59,6.57-10.68-.46,2.51-2.18,6.52,0,8.36h0Z"/>
  <path class="st23" d="M191.99,487.09c-1.85,2.29-8.85,5.86-2.99,5.39-3.17,6.01-.92,8.94-.89,14.42,0,2.25-1.12,3.88-1.11,4.1-2.99-6.43-3.34-14.76-5-21.51.93-3.08,2.64-5.43,4-8.36,4.1-8.82,8.32-17.91,14.5-25.07,1.01-.04,3.6,13.38,3.34,14.67-.21,1.05-10.31,14.47-11.84,16.37h0Z"/>
  <path class="st163" d="M816.99,1180.17l-13,15.53c.25-.66-.02-2.2.56-3.47,3.23-7.01,9.11-10.4,12.44-16.85.04,1.59,0,3.19,0,4.78Z"/>
  <path class="st163" d="M803.99,1195.71l.49,2.38c3.34-2.66,7.1-8.35,11.5-7.77-3.55,7.42-11.28,11.79-13.49,19.73,4.98-4.02,8.69-11.57,14.49-14.35.11,3.47,1.43,7.13,1,11.95l-1.5-9.56c-3.36,4.06-7.26,7.1-10.53,11.32-1.62,2.08-3.65,8.21-4.47,3.02l-42.5,51.37c.16-4,4.19-8.82,6.48-11.96,8.54-11.71,27.42-29.31,33.55-41.17,1.69-3.27,3.3-10.62,4.97-14.97h.01Z"/>
  <path class="st173" d="M815.99,1157.47c1.58,1.05.61,3.85,1.29,5.66s5.67,3.99-.29,8.68c-.19-2.39.83-4.88-2.02-3.01l-59.98,77.1c-.31-2.38.55-4.02,1.55-5.9,6.81-12.92,21.53-27.64,30.39-38.91,8.58-10.91,16.55-22.44,25.52-32.92.92-1.08,3.16-2.25,3.31-2.57.7-1.46.15-5.93.22-8.13h.01Z"/>
  <path class="st147" d="M165.99,680.68l16.5-25.09c1.98,3.17,3.75,6.15,5.5,9.56-.27-.35-5.38,4.48-6.04,5.33-1.98,2.5-5.88,8.65-5.46,11.4.76-1.79,2.65-1.73,3.5-2.39l-6.02,13.14c-1.88,1.54-7.55-11.36-7.98-11.95-.16-.22-1.79-.14-2.52-1.17-2.46-3.42-4.71-7.04-7.46-10.18,3.62-2.02,15.62-24.86,17.31-24.37,1.92.55,6.38,5.76,6.38,7.64,0,3.68-15.7,20.51-13.71,28.08h0Z"/>
  <path class="st147" d="M179.99,679.48l8-14.34c.24.47,2.31.92,1.97,2.87-3.21,3.58-6.28,8.68-9.97,11.47Z"/>
  <path class="st167" d="M797.99,1404.83l-.73-2.63c6.29-5.41,11.53-11.71,15.73-18.88,3.39-3.51,6.49-7.41,9.99-10.75-.8,6.37,2.89,13.9.06,19.79-.45.93-8.33,8.64-9.32,9.18-3.85,2.09-11.28,2.38-15.74,3.3h.01Z"/>
  <path class="st195" d="M658.99,159.67c4.82-1.47,7.66-.59,8.52,2.65l1.48-.26c.2,1-.14,2.45.01,3.58,1.98-1.6,3.36-3.01,5.98-2.38,1.35,1.6-2.56,15.36-2.99,17.92-3.29,1.45-9.31,2.96-12,0-.55-1.76-6.92-2.29-6.98-4.18-.11-3.33,6.45-.08,6.98-.61-3.36-5.87,5.02-3.73,7-8.34-6.45-4.16-13.7-4.03-20-5.99-.68-.22-2.01-1.35-2-2.38,5.35.25,8.69,1.09,14,0v-.02Z"/>
  <path class="st155" d="M573.99,250.49c.12.05.39,1.49,1.41,1.18,1.19-.37,2.69-5.09,4.58-2.98-5.93,7.58-16.4,17.18-24.51,20.9-2.79,1.28.82-3.78-1.96-2.35-4.07,2.09-5.87,6.67-8.21,8.11-2.6,1.6-7.52,2.28-10.28,3.49s-5.12,3.54-7.95,4.6c-.92.35-3.33,1.47-3.07-.68l3.99-3.6c-.02-.79.03-1.45.32-1.67,4.98-3.87,11.31-8.33,16.68-10.28,9.19-6.67,18.86-12.25,29-16.73h0Z"/>
  <path class="st86" d="M441.99,288.73l-2,4.77.47-3.56c-3.79-2.98-5.08,1.43-7.73,1.04-2.08-.31-5.38-4.29-8.53-3.67-.75-7.66-4.53-2.49-5.21-3.35-.3-.38.29-3.23,0-3.6-.35-.42-6.94,3.63-7.02-4.21-.02-2.07,3.53-4.51,3.02-7.74,6.55,6.27,19.48,15.96,27,20.31h0Z"/>
  <path class="st4" d="M423.99,181.18c1.71-1.82,2.32-5.44,6-4.79l-2-3.56c.58-.53,13.01,3,14.27,3.62,1.15.56.56,2,.73,2.34,2.77,5.64,1.48,2.64,5,4.78,1.09,2.12-5.39,5.75-6,2.39,1.77-2.77.82-2.87-1.54-2.45-3.87.67-2.67,2.38-4.56,4.12-5.79,5.33-11.77,9.88-16.88,16.26,2.74-7.96,7.95-16.04,12.96-22.19,2.14-2.63,6.04-1.53.05-6.49-.21,4.31-5.06,5.04-7.02,7.17-1.41,1.59-1.92.92-1-1.19h0Z"/>
  <path class="st136" d="M803.99,1140.74c1.15-1.53,10.65-14.95,11.99-13.13-.06,7.95.1,15.94,0,23.89-4.36-.23-3.76,3.36-4,3.58-1.84,2.92-6.26,8.75-9,8.36v-1.19c.04-2.98-.62-4.17-2-3.58-3.66,2.71-.6-9.15.45-12.05,1.48-1.19,2.33-3.15,2.55-5.88h.01Z"/>
  <path class="st162" d="M175.97,634.06c-1.1.96-6.33-4.11-5.61-7.19,1.36-5.81,15.05-19.97,18.12-26.24,5.03,7.42-.18,8.38-2.93,13.2-3.54,6.23-6.45,13.66-9.59,20.23h0Z"/>
  <path class="st149" d="M821.89,1343.76l-21.9,4.89,20.5-22.68c2.61,5.27,1.26,11.96,1.39,17.81h.01Z"/>
  <path class="st162" d="M191.98,610.17c-.37,5.1,3.09,9.62,1.82,14.67-2.87,1.96-10.47,18.01-12.23,17.53-1.05-.27-4.25-4.45-3.47-6.27l13.88-25.94h0Z"/>
  <path class="st23" d="M191.99,510.99c-3.15-3.78,2.15-6.73,1.99-10.74l-4.98.59c2.11-1.37,2.15-3.58,2.98-5.38,3.25-7,7.76-13.53,12.5-19.12.24,2.74,1.61,6.39,1.55,9.02-.11,5.13-12.58,19.02-14.06,25.62h.02Z"/>
  <path class="st140" d="M619.98,153.7l-9.5,28.67c-1.11-7.61,6.7-15.74,2.01-22.67-3.6.04-7.79,30.83-9.42,35.32-.48,1.31-2,4.35-3.08,2.88-.84-1.14,5.67-24.33,5.93-29.46.11-2.26-1.35-6.72-.88-7.48.5-.81,12.85-6.51,14.94-7.27Z"/>
  <path class="st29" d="M619.99,293.51c1.25-.33,2.59.07,4,1.19h1c-9.91,13.97-12.8,16.78-26,26.29l-1-9.56c1.95,1.76,2.95,1.76,3,0,3.11-1.68,8.65-3.41,8-8.36,1.16.1,2.19-.14,3-1.19,2.86,2.26,1.47.92,2.33-1.34s2.03-4.16,1.68-7.03l1.98,4.19,2.01-4.19Z"/>
  <path class="st63" d="M576.99,175.21c9.19-3.8,17.94-8.97,26.99-13.14,1.2,1.58-8.85,39.59-10.51,40.62-2.07.48-1.69-.97-1.28-2.72,2.31-10,5.76-16.83,7.8-28.33.04-.2,1.42-1.04,1-2.38-6.07-2.68-4.32.53-6.04,1.68-4,2.69-13.7,7.6-17.96,4.28h0Z"/>
  <path class="st65" d="M796.99,1079.79c-.71,1.15-3.81,4.99-2.99,5.96.92,1.09,2.85-1.54,3.51-2.37,3.74-4.64,8.18-11.65,11.9-16.85,1.63-2.28,2.52-7.67,4.59-5.27.05,2.99-.08,5.99,0,8.96l-18.51,22.7c-3.66-3.47-2.64-9.74-1.28-14.72.72-2.64,1.67-.75,1.79-.81,1.94-1.3,2.27-.5,1,2.39h-.01Z"/>
  <path class="st42" d="M887.99,343.7l-1.98-1.19c-.4,2.75-2.78,7.09-5.02,4.78-1.47-.87-1.34-2.22.39-4.05l-1.39-.73c.4-2.19-.4-3.66-2.09-1.63-1.84,2.22-3.74,6.81-6.42,8.78-.75.19-.67-1.22-.48-1.77,1.41-4.07,6.74-9.57,8.81-13.37.54-1,2.09-3.14.68-3.97-4.21,1.91-10.05,12.8-13.02,14.33-1.18.61-1.99-.35-1.48-1.77,1.43-3.99,11.87-12.87,14.99-16.14,2.4,5.56,4.62,11.21,7,16.73h.01Z"/>
  <path class="st25" d="M797.99,1404.83c-3.41.7-7.22,2.19-10,2.39.16-4.04,3.57-6.78,6-9.56.25,2.09,2.98-.51,3.66-1,6.41-4.55,9.76-7.54,15.34-13.34-.26,10.05-10.22,14.61-15,21.51Z"/>
  <path class="st57" d="M806.99,869.48c-2.45-7.52.28-14.94-2-22.7-1.14.38-1.3-.51-.63-1.39.4-.51-3.93,11.88-6.37,9.75-2.95,1.83-7.06,5.72-8,9.56l.79,1.34c-2.14,2.44-2.07,3.19.21,2.25-.15,4.92-3.78,9.34-6.99,11.95.45-4.21-.93-10.53.51-14.32,2.2-5.8,17.56-18.73,21.48-25.12.24,9.54.96,18.99,1,28.68Z"/>
  <path class="st89" d="M340.99,191.94c2.87,1.91.01,1.11.18,1.03,1.18-.54,7.42-2.72,7.84-2.4s.71.81.99,1.36c3.37-.62,5.04,1.77,5,7.17l-.5,2.74c-3.82.94-6.66,2.82-8.5,5.63-2.26,1.15-3.68,1.31-3,4.78-1.76-6.31-3.54-12.67-5-19.12.9-.75,2.02-.78,3-1.19h0Z"/>
  <path class="st32" d="M808.99,925.64c-6.69,4.67-11.28,12.57-15.99,19.73-.65.99-3.47,3.05-1.01,4.17l.82,2.58c-2.35,3.12-2.29,4.25.18,3.39.47,5.54-2.08,9.87-7,9.55-.3-.32,1.55-7.47,1.51-9.48-.04-1.78-1.57-2.9-1.4-4.07.2-1.42,13.3-19.23,15.35-22.35.83-1.27,1.35-4.28,1.68-4.53,1.16-.87,4.44.27,4.86-.18.61-.68.02-9.85-1.01-11.96-1.36,1.63-1.93.88-1-1.19.56-.61.88-2.09,2-2.39.27,5.48.81,11.07,1,16.73h.01Z"/>
  <path class="st30" d="M845.99,272c1.43-2.72,2.45-13.11,6.54-9.62,1.29,1.1,8.5,14.1,8.44,15.01-1.29,1.96-3.71.88-2.99,4.16,6.41-1.85,5.14,7.76,6.01,11.95.71,1.02-.16,2.01-.97,2.89.59-.81.91-1.77.97-2.89.21-.23.05-1.71,1.49-1.19,1.33.61,1.15,3.02,1.51,3.58-1.25,1.72-11.65,16.06-12.99,14.34.48-2.02-1.11-5.05-.85-6.49.34-1.89,10.64-9.91,9.88-16.69-.11-1.03-1.94-.98-2.47-1.86-.47-.79.53-2.35.44-2.41-.63-.45-3.32.61-3.96-.12-1.11-1.25,2.31-5.58-7.05-2.29l5-5.37c-7.34,1.43-3.56-3.79-3.99-4.17-.67-.6-4,.32-5,1.18h-.01Z"/>
  <path class="st116" d="M498.99,262.44c2.15.13,2.91,2.44,4.5,2.43.39,0,.87-5.9,3.5-.04-6.75,6.81-14.09,11.99-22,15.53-3.22-.25-4.72-2.56-7-3.58l.51-2.13c6.98-3.85,13.81-7.91,20.49-12.21Z"/>
  <path class="st99" d="M796.99,1079.79l-1-2.39c1.39-.65.93-.79,1-2.39,1.61-4.25,4.4-9.19,6.91-13.19-1.41,1.55-2.44,1.9-3.91.05.39-.67.4-2.14,1.43-3.61,3.18-4.54,8.14-7.86,11.08-13.11,3.91,15.26-8.57,23.48-15.5,34.64h-.01Z"/>
  <path class="st102" d="M560.99,254.07c-2.3,5.46-11.86,12.79-17,11.95-8.81,7.33-19.35,14.76-30,19.12-1.27.16-2.69-.02-4,0,13.2-9.74,26.2-19.3,39-28.68,5.74-2.75.08.71,3.49,1.18,2.2-3.78,4.85-4.03,8.51-3.57Z"/>
  <path class="st74" d="M520.99,269.61l-.02,1.94c-4.47,3.54-8.79,6.87-12.98,10.01.87.33.86.74,0,1.19,2.07,1.1.84,1.89-1,2.39-2.08-.14-4.17.38-6.25-.27-3.04-.98-4.68-4.35-9.75-2.12-.65-3.72,1.24-1.84,2-2.38,3.98-.67,7.44-3.5,10.57-6.43l1.43.45,16-4.78h0Z"/>
  <path class="st108" d="M659.99,194.33c3.1.65,7.26,1.55,9.99,0,0,.79.07,1.6,0,2.39-4.23-.39-1.72,4.68-2.91,5.43-1.65,1.02-7.17.57-8.09,1.77-1.85,2.41,5.25,4.27,5.89,6.69.42,1.6-.57,4.05-1.39,4.02-.86-.04-13.2-11.97-11.49-14.32,2.15-.87,3.31,3.27,4.47,3.27.24,0,4.35-1.91,4.52-2.12.36-.44-1.56-5.5-1-7.13h.01Z"/>
  <path class="st40" d="M174.99,418.98c.85,1.4-.63,7.47,5,3.58,1.08,1.54,1.42,3.54,1,5.97-.41.98-.85,4.62-1.01,4.78-2.4.78-3.54-4.11-5.47-3.58-2.16.59-1.42,7.19-4.52,5.97,1.54-3.94-1.96-10.12-1.8-12.34.23-3.24,3.03-4.24,3.8-5.57.39,3.07,2.89,1.02,3,1.19h0Z"/>
  <path class="st141" d="M573.99,250.49l-27.53,19.1c-2.54.48-.62-.94-1.47-2.37-.87.24-1.2-.16-1-1.19,5.5-3.44,11.51-8.94,17-11.95,3.75-2.06,9.41-4.92,13-3.58Z"/>
  <path class="st67" d="M477.99,194.33c5.62-2.75,6.72,1.55,9.45,1.28.58-.06.43-2.41,1.15-2.47s1.8,1.1,2.78.91c1.37-.26,5.38-5.99,8.63-4.49v5.97c2.42.86,5.4-1.46,7.35-1.24.28.04,2.45,4.15,4.66,3.62-.2.19-2.88,3.38-3,3.58-1.67,1.34-3,1.73-4,1.19l1.99-7.17c-.66-.79-5.2,2.57-5.99,3.58-1.47,1.22-2.47,1.22-3,0,3.53-6.39-3.57-2.99-6,0h-1l1-2.38c-5.58-1.22-5.63.86-9,4.77-1.85,1.47-4.22,1.85-5-1.19,1.28-1.92,2.44-2.71,3.98-4.18-.99-1.7-2.31-2.03-3.98-1.79h-.02Z"/>
  <path class="st42" d="M167.99,588.66c-.96,1.59-4.71,8.33-3.99,9.56l1.99-1.19c-3.75,5.29-1.44,5.02-7.5,9.52-1.09.81-2.08,3.13-3.01,3.61-3.9,2.01.81-6.42,1.05-7.12.62-1.8.14-4.23.99-5.99.53-1.09,3.72-2.93,5.05-4.73,2.46-3.33-.27-6.55,5.43-3.67h-.01Z"/>
  <path class="st27" d="M816.99,587.47l9.99-9.56c.89,7.12-4.35,11.41-5.98,16.16-1.15,3.37,2.91-1.02,2,2.38-1,3.75-4.16,6.29-3.03,11.33-1.49.22-1.48-3.2-1.69-4.53-.84-5.21-.77-10.71-1.3-15.79h.01Z"/>
  <path class="st170" d="M548.99,256.46c2.25,1-1.52,2.61-2,2.99-12.09,9.46-24.06,17.9-37,25.69-.99.01-2.01.06-3,0l1-2.39c5.2-2.63,10.2-5.81,15-9.56-4.58,3.74-9.47,7.4-15,8.36-.9.49-4.3,3.29-1.99-.59,5.63-2.64,10.06-7.47,14.99-11.36,6.7-5.29,10.87-10.59,20-10.74l-18,14.33c8.39-4.86,18.08-12.94,26-16.73Z"/>
  <path class="st138" d="M815.99,516.97c-.3,1.77.38,4.16-.2,6.31-.66,2.44-3.26,3.01-3.78,6.26-.2,1.22-.8,7.55.97,7.74l.02-7.16c2.31.23-.58,4.77,2.97,3.57l10.04-20.29c1.42-.12,2.41-.57,1.89,1.66-2.1,9.15-11.23,21.66-14.91,30.59-.82-10.53-5.28-19.18,3-28.68h0Z"/>
  <path class="st146" d="M805.99,478.73c2.03-1.3,3.92-4.42,4.74-6.88,1.16-3.5,1.62-17.4,6.26-9.85-1.6,6.85-3.25,13.53-5,20.31-1.68,3.23-3.35,4.82-5,4.78-.91-2.76-.91-5.46-1-8.36Z"/>
  <path class="st103" d="M473.99,275.58c-2.04-1.15-3.75-3.05-6-3.6-1.19-2.08,19.14-11.21,21.99-8.34l-2.75,2.08.75,1.49c-1.88,4.45-9.57,7.24-14,8.36h.01Z"/>
  <path class="st208" d="M800.99,1158.66c.54,1.18.54,3.18,0,5.97-1.54,1.64-1.58,3.24-5,2.38,1.73-7.28,3.06-15.08,4-22.69l.5,1.17c1.34-1.4,2.32-3.19,3.5-4.76-.15,4.19.5,1.94,1.98.57,2.06-1.9,5.76-7.61,8-3.56-4.14,5.45-9.89,6.43-12.54,13.4-.17.45-2.01,7.37-.44,7.52Z"/>
  <polygon class="st10" points="554.98 191.94 545.49 221.81 540.99 222.99 551.57 194.42 554.98 191.94"/>
  <path class="st193" d="M925.99,433.32c-3.48-.55-.77,1.04-1.49,3.53-.41,1.41-1.94,2.5-2.51,3.64-.7-.5-1.36-.9-2-1.19.3-1.47.23-5.72-.5-7.17l-17.01,19.11c-.74.19-.68-1.25-.49-1.77,1.35-3.62,11.5-13.48,14.55-17.33.79-.99,1.35-3.27,1.6-3.45,1.67-1.25,5.48,3.72,4.84-1.34.76,1.78,2.07,3.79,3,5.97h.01Z"/>
  <path class="st34" d="M500.99,199.11c-3.12,3.98-7.75,17.6-10.51,20.3-1.76,1.73-3.39,1.28-5.49,1.19-.9-.78,10.82-19.88,13-21.5.55-.41,1.81-.47,2.52-.93l.48.93Z"/>
  <path class="st4" d="M404.99,179.99c1.65-3.02,2.82-7.11,5.5-9.55v4.77c5.73-9.05,8.63-7.89,16.49-2.99-4.15,2.09-6.76,4.04-10,7.77-2.09,1.35-2.42.56-1-2.39,7.63-11.75-3.29-2.5-7,1.19-1.05.65-2.38,1.05-4,1.19h.01Z"/>
  <path class="st6" d="M829.99,622.12c-.16,4.05.49,2.37,1.82.38,3.49-5.19,5.73-11.9,10.17-15.92.89,1.41-3.23,10.43-4.17,12.33-2.34,4.78-10.07,14.12-11.33,17.58-.53,1.46.37,2.96.16,3.96-.36,1.68-2.42,5.54-1.64,6.75.16.25,1.83-.25,1.99,0,2.27-.79,2.6.81,1,4.78.07,2.2-3.02,9.75,2,9.56-1.04,1.31-2.64,5.23-4.48,4.78-3.79-4.98-1.53-11.29-1.47-16.18.04-2.81-1.27-5.21-.89-8.01.58-4.29,5.35-15.08,6.84-20.02h0Z"/>
  <path class="st51" d="M389.99,293.51c1.08.25,2.08.66,3,1.19,2.51,7.5,3.13,4.19,7,1.19l1.17,1.34c-4.04,4.86-4.76,6.4-2.17,4.64-.13.14.18,1.43-.29,2.01-1.32,1.63-4.9,2.08-2.71,5.16-4.82-4.47-6.69-6.51-11-11.95,1.13-1.89,4.01-2.69,5-3.58Z"/>
  <path class="st183" d="M195.99,638.85c.4,3.9,2.89,19.82-3.34,17.81-1.01-.32-4.36-5.66-4.36-6.45,0-.59,4.61-8.31,5.47-9.79.6-1.04-.18-2.22,2.22-1.57h0Z"/>
  <path class="st200" d="M196,558.79l-.87-11.08,7.85-10.42c.48,8.7-.06,16.83-6.98,21.5h0Z"/>
  <path class="st145" d="M812.99,555.21l2.01,3,8.02-13.12,8.97-11.38c-2.63,12.33-11.33,19.57-18,28.67-.2-2.09-.75-4.51-1-7.17Z"/>
  <path class="st112" d="M482.99,201.5c-5.73,6.63-9.49,14.72-14.99,21.51-.23-7.74,5.97-16.67,9.99-22.7,1.6.07,4.15-.74,5,1.19Z"/>
  <path class="st166" d="M498.99,262.44c.17,2.77-4.59,5.07-6.33,6.19-4.79,3.07-9.92,5.05-14.67,8.15-1.05-.48-2.36-.27-4-1.19,3.76-3.87,9.43-6.15,14-8.36,3.46-1.67,6.85-5.03,11-4.78Z"/>
  <path class="st179" d="M492.99,280.36c7.75-5.58,21.85-17.49,29.95-19.79,1.01-.29,3.27-1.58,3.04.65-7.21,3.7-14.16,8.57-20.99,13.16-1.91,1.28-2.76,3.17-4.78,4.46-.69.44-6.47,3.24-7.22,1.52h0Z"/>
  <path class="st21" d="M333.99,171.62c8.71-3.27,16.65-7.95,26-4.77,1.76,1.7-.18,2.12-1.51,2.35-6.72,1.19-13.37,2.2-20.06,3.58-1.87.38-4-1.35-3.43,2.41-.91-1.88-.67-1.7-1-3.58h0Z"/>
  <path class="st97" d="M447.99,183.57c3.44,2.09,3.12,4.23,4,4.78-.73,1.85-1.94,3.23-3,4.78-2.28,1.42-2.61.62-1-2.39.94-1.29,3.72-5.53.49-4.8-4.78,1.09-16.16,17.16-18.49,22.73-6.42-.99,2.36-12.97,6-14.34.9-1.29,5.58-8.15,6-8.36,1.31-.66,4.84.67,6-2.39Z"/>
  <path class="st142" d="M843.99,656.78l1.99,4.16c-.78,2.25-4.46,3.81-4.77,4.47-.66,1.42.16,3.91-.7,5.72-.73,1.52-4.89,3.15-6.52,3.57-.43-.65-2.32-.84-1.97-2.87,4.11-4.89,8.03-9.99,11.97-15.06h0Z"/>
  <path class="st160" d="M472.99,199.11c-2.47,3.87-7.18,12.42-9,16.73-2.32,5.23-6.72,2.86-4-2.39,3.06-5.39,6.89-10.29,10-15.53l3,1.19Z"/>
  <path class="st139" d="M448.99,193.13c-4.2,6.12-7.61,13.25-12,19.12-3.86,3.43-4.05.53-2-3.58,4.39-8.08,8.23-11.39,13-17.92l1,2.39Z"/>
  <path class="st18" d="M570.99,187.16c1.17,1.1,3.7.42,3,3.58-1.3,3.12-2.57,8.17-4,11.95-1.72,3.33-6.02,7.18-5,1.19,1.63-5.47,3.18-12.19,6-16.73Z"/>
  <path class="st209" d="M506.99,264.83c.45-.25,5.68-2.95,4.51,0-7.26,3.7-18.68,16.13-26.51,15.53-.61-3.26,1.47-2.21,2.93-3.01,6.6-3.61,12.58-8.95,19.07-12.52Z"/>
  <path class="st197" d="M543.99,266.02c.44.29.72.72,1,1.19-5.74,3.02-11.65,8.64-17,11.95s-8.05,5.22-14,5.97l30-19.12Z"/>
  <path class="st121" d="M508.99,201.5c-3.18,5.35-4.81,12.08-7,17.92-1.14,3.29-5.56.96-5-2.39,1.88-3.64,5.64-11.94,8-14.34.99-1.02,2.18-2.02,3.48-2.4l.52,1.21Z"/>
  <path class="st50" d="M435.99,194.33c-1.99,2.87-8.27,10.93-6,14.34-.4.96,0,2.84-1.55,3.57-1.23-.81-6.04-1.73-5.35-4.03.89-2.96,7.15-10.35,9.4-12.73,1.22-1.28,1.66-3.01,3.5-1.16Z"/>
  <path class="st198" d="M628,163.26l.98-10.75-6.49,7.16c-3.09-8.72,4.22-9.7,9.5-11.94,1.17,1.91-1.08,14-3.98,15.53h-.01Z"/>
  <path class="st157" d="M517.99,202.69c-2.55,4.35-4.85,10.71-7,15.53-1.22,3.26-3.86,2.32-4-1.19,1.68-4.58,3.69-8.96,6-13.14,1.28-3.08,6.1-5.71,5-1.19Z"/>
  <path class="st96" d="M424.99,182.38c-4.74,5.14-7.28,12-11,17.33-1.02,1.47-2.17,3.35-4,2.98-2.86-3.93,11.48-18.84,13.99-21.51l1,1.19h.01Z"/>
  <path class="st59" d="M671.99,181.18c-.07.38.07.81,0,1.19-1.56,2.15-1.56,3.35,0,3.58-.33,1.98-.39,4.03-1.06,5.94-2.13,1.11-5-2.19-5.94-2.35,2.28-.54-.37-4.09-1.48-4.9-1.59-1.16-3.24.49-3.52.12s.26-2.75,0-3.58l5.17-.93,6.83.93Z"/>
  <path class="st105" d="M491.99,199.11c-4.18,5.13-8.19,15.62-12.14,20.74-2.85,3.69-5.15,3.02-2.67-2,3.16-6.38,9.08-13.95,13.81-18.75h1Z"/>
  <path class="st65" d="M310.99,1346.27c.2,1.33-.14,2.92-1,4.78-1.07,3.92-2.36,5.32-6,4.79v1.17l2,1.21c-2.26-.24-4.66-1.06-6-1.19,2.42-3.7,6.17-13.14,11-10.75Z"/>
  <path class="st26" d="M803.99,772.69l-8.51,9.55c-2.59,3.93-5.09,7.87-7.49,11.96-1.77,2.56-2.45,2.02-2-1.19,6.2-8.26,10.95-17.91,18-25.09-.01,1.59.02,3.19,0,4.78Z"/>
  <path class="st178" d="M853.99,491.87c.07-1.67.42-4.76-.5-5.97l-5.5,7.17c.63-2.77,1.32-13.3,3.6-14.24,6.33-2.62,4.71,9.48,2.4,13.05Z"/>
  <path class="st9" d="M631.99,237.34c-1.11-1.59-3.84-2.27-4.05-5.45-.03-.47,1.85-7.38,2.1-7.65,1.07-1.14,8.75,2.21,2.94,4.11,2.32,2.1,1.07,5.41,2.01,7.79l-3,1.19Z"/>
  <path class="st7" d="M473.99,260.06c-3.93,5.53-7.96,11.93-13.99,7.15l8.7-6.91,5.29-.24h0Z"/>
  <path class="st132" d="M792.99,906.53c-2.37-.98.32-3.21.95-4.24,2.91-4.71,5.8-7.78,9.08-11.91.74-.93.85-2.81.99-2.95.61-.65,2.71-.19,1.97,1.77-.11.3-2.49,4.52-2.99,5.39-2.88,4.98-7.17,7.93-10,11.95h0Z"/>
  <path class="st204" d="M569.99,202.69c-.99,2.62-4.1,13.43-5.51,14.33-2.32,1.48-1.61-6.94-1.51-7.8.4-3.68,1.6-3.92,2.03-5.33l.47,1.06,4.53-2.26h-.01Z"/>
  <path class="st210" d="M811.99,482.31c-1.42,5.51-2.73,11.16-4.01,16.72-1.53-.12-1.98-5.39-2.01-6.63-.08-2.96,0-2.89,1.02-5.31.85-1.98,3.43-4.96,4.5-7.17l.5,2.39Z"/>
  <path class="st182" d="M416.99,179.99c-1.32,1.52-11.24,17.65-12.99,15.52,2.51-7.09,8.13-11.97,11.99-17.91l1,2.39Z"/>
  <path class="st16" d="M501.99,219.42c-.43,1.15-1.95,5.58-2.15,5.8-.82.87-5.28-.18-6.85.17.91-3.08,2.59-5.62,4-8.35l5,2.39h0Z"/>
  <path class="st151" d="M980.99,576.71c-1.75,2.55-4.19,4.02-7,3.58,3.59-3.74,5.08-10.32,9.51-13.13l-2.51,9.55Z"/>
  <path class="st78" d="M201.99,557.61l-2.49,15.52c-2.81-5.29-4.32-14.12,2.49-15.52Z"/>
  <path class="st110" d="M426.99,225.4c-1-.17-2.62-.23-3,1.19-1.02-.67-10.57-7.78-8.99-9.55,4.09,1.63,9.59,3.92,11.99,8.35Z"/>
  <path class="st75" d="M185,647.22c-1.39-1.86,6.69-14.32,8.98-15.52.42,2.19-.61,3.31-1.35,4.95-.54,1.19-6.29,12.38-7.64,10.58h.01Z"/>
  <path class="st100" d="M459.99,213.45c-.67,2.94,2.19,3.79,4,2.39-1.34,3.18-1,9.31-5.01,6.6-4.37-2.95-.55-6.25,1.01-8.99Z"/>
  <path class="st211" d="M668.99,162.06c-1.1,4.27-3.03,5.48-5,1.21l2-2.39-6.99-1.21c2.81-.59,4.06,1.52,5-3.58,2.27,2.4,4.13,1.6,5,5.97h-.01Z"/>
  <path class="st190" d="M510.99,218.23c-1.99,4.47-1.99,11.11-6.99,6.58,1.43-2.34,2.03-5.17,2.99-7.78l4,1.19Z"/>
  <path class="st98" d="M512.99,196.72c2.55-1.83,6.5-2.63,8,1.19-.18.22-2.59,4.07-3,4.78-.71-2.61-3.56.6-5,1.19.42-.76.1-2.46,1.42-3.68,1.2-1.11,3.37-.71,3.59-1.71.68-3.05-2.85-1.46-5.01-1.78h0Z"/>
  <path class="st124" d="M409.98,166.85l-11.98,14.33c2.17-5.93,6.8-12.15,11.98-14.33Z"/>
  <path class="st135" d="M793.99,1040.36c-2.02,3.45-1.26,4.02,2,3.58-.88,1.6-1.16,4.61-3.51,5.97-2.14-2.83-3.91-4.67-.97-8.39.92-1.16,2.23-.92,2.47-1.17h.01Z"/>
  <path class="st19" d="M463.99,257.67c-1.92,4.03-7.24,5.92-11,5.95,1.01-1.65,4.53-4.85,5.94-5.44,1.64-.68,3.37-.59,5.06-.51h0Z"/>
  <path class="st114" d="M536.99,219.42c-1.61,3.38-.12,5.45-4.46,6.03-5.65.76-.46-4.13.46-6.03h4Z"/>
  <path class="st85" d="M408.99,178.79c-2.3,2.29-4.75,7.27-7.5,9.56-1.63-3.21,2.09-5.77,3.5-8.36,1.14-.81,3.45-3.86,4-1.19Z"/>
  <path class="st26" d="M803.99,749.98c-2-7.27-.78-16.17-1-23.9,1.84,7.21,1.01,16.25,1,23.9Z"/>
  <path class="st51" d="M382.99,286.34c1.4.92,2.4,2.12,3,3.58-1.32,1.4-2.8,2.12-4,3.58-1.56-2.17-1.77-2.72-3-4.78,1.07-1.51,2.84-1.65,4-2.39Z"/>
  <path class="st24" d="M195.99,509.8c-1.91,3.55-1.47,10.55-6.99,4.17-.5-3.07,1.75-1.33,2.99-1.78,1.56-.56,2.77-1,4-2.39Z"/>
  <polygon class="st107" points="825 1402.45 819.99 1402.42 824.49 1394.07 825 1402.45"/>
  <path class="st181" d="M792.99,804.95l2,1.79c-1.8,2.86-4.58,3.62-7,5.38-.78-.1-2.04.49-2.01-.61-.42-1.98,1.46-2.19,2.01-2.98l.52,1.19c2.13-.19,3.06-3,4.48-4.78Z"/>
  <path class="st181" d="M787.99,794.2c-2.47,4.22-7,9.8-7.12,15-.04,1.67,3.13,6.42,3.6,6.48,1.15.14,3-3.17,3.52-3.55.68.08,2.03-.49,1.99.59-1.97.57-8.66,12.01-9.99,10.16,1.77-7.59-6.31-17.55.5-23.94,3.11-2.9,2.53-1.97,5.49-5.93l2,1.19h.01Z"/>
  <path class="st195" d="M671.99,182.38c-.18,1.06.18,2.51,0,3.58-7.74,6.07-6.41-3.24,0-3.58Z"/>
  <path class="st111" d="M434.99,208.67c-.04,2.83-.67,4.15,2,3.58-1.03,1.39-4.18,6.55-5,1.77-.3-1.71,2.24-3.93,3-5.35Z"/>
  <path class="st39" d="M240,1140.74l15.96-58.02c-.02-3.29,0-2.38-1.26-.3-3.92,6.45-7.07,13.63-12.22,18.88-.74.19-.67-1.23-.48-1.77,3.41-9.72,13.26-20.4,17.19-30.84,6.16-16.37,8.62-36.27,14.81-52.82l-.02-1.8-25.49,38.23c-.53-3.58,2.82-8.91,4.69-12.32,10.85-19.74,27.02-33.81,29.73-58.9.35-3.25-.18-2.22-1.21-.24-6.73,12.89-14.85,24.05-24.21,34.41l-.49-1.77,26.83-39.65,8.15-29.09c-1.1-1.74-21.47,31.07-23.5,33.45-.71.84-9.27,9.17-7.49,4.21.5-1.4,4.64-5.32,5.96-7.22,6.94-9.94,21.59-28.91,26.44-38.91,4.6-9.5,6.01-23.98,10.56-34.01,0-3.29-.05-2.68-1.19-.23-1.9,4.06-3.73,8.19-5.96,12.02-8.1,13.9-18.62,31.89-27.84,44.42-1.11,1.51-4.08,6.36-5.97,4.8,11.75-19.79,24.02-39.1,35.58-59.06,7.38-12.74,15.17-27.84,17.34-43.82.17-1.22.66-3.2-.91-2.88-1.52,5.41-4.8,10.83-7.6,15.43-13.86,22.76-29.33,44.7-43.4,67.03l.24-3.88c18.62-33.29,41.37-63.24,58.23-97.71.64-1.31,1.02-3.27,2.51-3.56-3.94,13.75-4.68,27.97-7.28,42.07-15.31,82.99-38.09,168.67-68.85,245.15-2.48,6.17-5.1,13.72-8.85,18.69h0Z"/>
  <path class="st17" d="M223,1259.04l79.98-201.95c.25,2.02-.27,3.82-.69,5.74-11.6,52.41-33.94,116.7-57.88,162.66-5.91,11.34-13.29,24.6-21.41,33.55h0Z"/>
  <path class="st95" d="M379.99,1198.11c-1.28,2.76-1.86,5.81-3.45,8.41-7.74,12.57-28.19,32.14-38.59,44.74-1.99,2.4-3.93,6-5.91,8.41-15.99,19.35-32.42,38.17-48.03,57.93,1.98-8.69,7.07-14.51,11.96-20.95,18.06-23.77,40.1-49.89,59.5-72.3,6.39-7.37,14.47-17.32,21.02-23.88,1.12-1.12,1.63-2.9,3.5-2.38h0Z"/>
  <path class="st83" d="M297.99,202.69c2.98-1.46,6.48-2.06,9.49-3.61l.38,3.44c-28.32,16.99-55.83,36.39-84.5,52.57-4.45,2.51-13.82,8.5-17.88,9.7-.55.17-1.63.35-1.47-.57,18.34-15.03,38.95-26.24,58.67-38.63,4.52-2.84,8.88-6.99,13.33-9.76,6.75-4.22,15.09-9.76,22-13.14h-.02Z"/>
  <path class="st173" d="M789.98,306.65l-17.98,163.7c.29-10.1-.44-20.35,0-30.45,1.68-38.7,7.9-88.67,15.15-126.48.43-2.26.01-7.73,2.83-6.76h0Z"/>
  <path class="st202" d="M279,1347.47c1.31-7.86,7.53-12.34,11.5-17.91,20.82-29.17,49.91-65.52,73.96-90.87,3.1-3.27,12.95-13.81,8.51-2.98-18.29,18.77-34.54,39.97-51.46,60.39-6.59,7.95-14.03,15.06-20.55,23.24-1.74,2.19-20.54,29.99-21.96,28.12h0Z"/>
  <path class="st95" d="M288,1284.12l7.5-13.13,83.48-95.6c.18,11.72-11.54,18.29-18,25.67-22.13,25.24-46.53,57.84-69.48,80.68-1.12,1.12-1.62,2.89-3.5,2.38Z"/>
  <path class="st113" d="M820.98,264.85c3.71,5.19-9.62-1.66-10.67-2.21-28.37-14.89-56.59-31.27-84.68-46.99-2.51-1.4-6.12-2.94-7.64-5.8,11.57,3.13,22.82,8.41,33.68,14.11,12.54,6.6,26.3,14.65,38.68,21.89,10.33,6.05,20.59,12.3,30.63,18.98h0Z"/>
  <path class="st95" d="M385.98,1146.72c.21,2.45-1.33,4.23-2.48,5.99-16.09,24.57-46.57,53.28-66.53,74.65-6.84,7.33-13.66,17.61-20.94,23.97-1.37,1.19-2.01,2.26-4.04,1.73l93.99-106.34h0Z"/>
  <path class="st95" d="M609.98,1239.92c.23,2.56-1.02,4.91-2.35,6.74-12.44,17.12-34.58,33.4-47.66,51.19-9.09,9.89-16.51,21.72-24.96,32.31-1.08,1.35-7.91,10.25-9.02,8.93-.11-2.26,1.55-4.1,2.6-5.84,19.36-32.31,48-57.57,72.3-84.48,2.65-2.94,4.41-8.75,9.1-8.83h0Z"/>
  <path class="st173" d="M367.64,1149.88c-10.36,12.3-22.56,24.02-33.18,36.23-11.72,13.5-23.79,30.85-35.97,43.05-1.12,1.12-1.63,2.9-3.5,2.38,25.45-39.79,59.42-70.49,88.5-106.34,1.38,1.53-.27,4.49-1.05,5.92-2.16,3.88-11.46,14.79-14.8,18.76h0Z"/>
  <path class="st95" d="M615.98,1254.26c.73,4.62-2.05,6.76-4.47,9.58-10.44,12.18-22.45,22.64-33.04,34.57-13.51,15.21-26.94,35.65-41.01,49.02-.9.86-4.71,4.51-5.47,3.61-.43-2.25,1.06-2.83,1.99-4.18,20-28.83,54.09-66.28,78.5-90.22,1.13-1.11,1.61-2.9,3.5-2.38h0Z"/>
  <path class="st68" d="M697.99,199.11c.15,1.08-.09,2.43,0,3.58-.38,6.14-1.04,16.96-5,20.31-8.87,21.87-16.03,45.66-30.5,63.33-1.28-.73-.11-3.3.29-4.43,5.46-15.68,14.14-32,20.22-48.13l-.52-2.5c4.35-13.42,8.53-26.93,12.54-40.53,3.87-1.27,4.86,1.52,2.98,8.38h0Z"/>
  <path class="st202" d="M584.98,961.49c.21,2.59.17,4.3-.94,6.63-1.54,3.25-10.96,13.4-14.03,17.89-17.73,26.03-35.29,60.51-55.03,83.61-1.58,1.85-4.75,4.85-6.99,5.38-.71-.85,4.2-7.71,5.02-8.93,22.04-32.87,45.32-71.47,68.57-102.09,1.01-1.33,1.48-3,3.4-2.5h0Z"/>
  <path class="st95" d="M394.98,1065.47c.53,8.05-4.75,8.84-8.52,13.11l-81.47,95.62c-.25-2.2,1.02-3.76,2.01-5.35,12.14-19.57,29.23-35.25,43.51-51.97,12.86-15.07,27.48-36.17,40.56-49.52,1.09-1.11,2.37-2.14,3.91-1.89h0Z"/>
  <path class="st95" d="M604.98,1101.3c1.7,2.22-6.85,13.34-8.48,15.55-10.86,14.71-23.81,28.46-35.03,42.98-2.55,3.31-31.69,45.31-33.48,43.03.75-3.49,3.2-7.27,5.01-10.13,15.56-24.65,34.83-44.89,52.63-66.76,5.54-6.81,10.55-15.77,15.83-22.31,1.04-1.29,1.76-2.78,3.51-2.37h0Z"/>
  <path class="st95" d="M514.99,1118.02l72.5-105.12c1.45,1.31,1.61,1.78,1.33,3.92-.52,3.98-16.47,23.95-19.8,28.94-14.07,21.12-27.18,42.71-43,62.14-3.03,3.72-6.65,9.3-11.03,10.11h0Z"/>
  <path class="st158" d="M244,429.73c-3.2-29.49-6.67-59.46-12.48-88.46-2.32-11.57-6.59-22.78-7.52-34.62,2.72,2.15,3.83,7.67,5.01,11.33,9.56,29.77,15.74,69.73,16.97,101.6.12,3.12.97,8.7-1.98,10.15h0Z"/>
  <path class="st173" d="M387.64,1102.08c-16.54,19.61-34.31,38.31-51.18,57.74-10.11,11.65-20.46,26.53-30.97,37.08-1.12,1.12-1.63,2.9-3.5,2.38,22.02-33.53,50.04-60.6,75.65-90.03,4.58-5.26,6.67-8.66,11.85-13.92,2.23-2.26,3.89-5.41,6.49-7.17-.44,4.35-5.62,10.69-8.34,13.92Z"/>
  <path class="st173" d="M549.99,383.12c.71-2.31,3.55-2.98,5.33-3.78,24.61-11.16,44.35-21.69,65.15-41.64,8.24-7.91,14.85-17.94,23.51-25.07.73.97-2.28,5.44-3.02,6.54-17.62,26.4-51.11,51.25-78.21,60.69-4.12,1.43-8.46,2.96-12.76,3.26Z"/>
  <path class="st202" d="M515,1146.7c-.75-.94,2.31-5.41,3.02-6.54,12.78-20.17,29.18-42.79,43.46-61.59,9.91-13.05,20.98-25.24,31.01-38.2,3.09,2.22-.45,6.11-1.99,8.35-7.89,11.51-19.54,22.08-28.03,33.42-13.57,18.14-26.18,39.42-39.97,57.39-.87,1.14-6.45,8.48-7.51,7.15h.01Z"/>
  <path class="st95" d="M533.99,1302.06c16.41-21.28,35.92-38.72,51.97-60.38l19.52-22.08-.44,5.45c-22.07,25.54-43.14,52.58-66.05,77.02-4.31,3.91-5.97,3.91-5,0Z"/>
  <path class="st95" d="M538.64,1212.02c-2.4,2.81-11.56,15.12-13.17,15.94-3.89,2,1.35-6.25,2-7.17,7.78-11.2,18.09-21.03,26.54-31.62,16.83-21.09,32.71-43.35,49.96-63.97.79,6.01-5.04,12.14-8.48,16.74-17.5,23.48-38.02,47.98-56.86,70.07h0Z"/>
  <path class="st95" d="M217,1293.69c.08-3.12,1.38-6.72,2.6-9.43,5.47-12.15,16.75-27.66,23.61-39.9,9.35-16.68,17.56-34.99,28.77-49.85.08,3.63-1.8,6.87-3.19,9.92-6.22,13.66-15.46,30.17-22.78,43.28-8.77,15.69-18.35,32.28-29.01,45.98Z"/>
  <path class="st95" d="M602.72,1157.16c-.55.66-2.52.65-3.78,2.02-23.43,25.44-44.28,61.24-67.45,84.33-1.12,1.12-1.62,2.89-3.5,2.38-.69-.8,5.62-9.61,6.48-10.77,20.61-27.69,42.22-53.83,63.49-80.67.67-.84,4.21-5.31,4.53-5.32,2.06-.07,1.24,6.82.23,8.03h0Z"/>
  <path class="st173" d="M602.98,1200.5c.33,2.01-.83,3.15-1.6,4.65-9.57,18.5-56.85,67.41-72.92,82.55-1.5,1.42-3.49,3.6-5.47,3.6l79.99-90.81h0Z"/>
  <path class="st95" d="M395.98,1039.17c1.8,2.34-10.48,17.58-12.34,19.9-9.61,11.93-19.87,23.96-29.62,35.71-12.19,14.67-24.04,30.16-38.02,42.39-.84-1.11,3.12-6.67,3.97-7.79,20.42-27.11,45.67-53.27,67.05-80,.91-1.14,7.38-12.25,8.97-10.18h-.01Z"/>
  <path class="st95" d="M595.58,1068.6c-21.86,24.22-41.15,51.63-61.56,77.55-3.02,3.84-7,9.44-11.02,11.32-1.6-1.94,11.74-19.23,13.48-21.52,19.31-25.43,40.75-48.62,59.51-74.69,3.78.05.7,5.38-.4,7.35h0Z"/>
  <path class="st173" d="M508,1048.73c.11-3.94,3.03-8.25,5.01-11.33,7.04-10.92,16.51-21.41,23.95-32.32,14.07-20.64,26.84-42.62,41.53-62.68l1.09,3.64c-23.78,34.25-45.02,71.38-71.58,102.68Z"/>
  <path class="st95" d="M518,1091.74l67.98-105.16c.12,2.94.38,5.11-.93,7.84-2.01,4.17-8.99,12.03-12.02,16.71-17.72,27.4-34.28,56.41-55.03,80.61Z"/>
  <path class="st95" d="M544.99,1357.01c21.27-31.38,48.85-55.58,72.99-83.64,2.25,4.98-2.48,8.6-5.46,11.97-13.33,15.08-28.13,28.62-41.54,43.57-3.05,3.41-23.09,30.93-25.99,28.08h0Z"/>
  <path class="st90" d="M601.98,1083.38c.39,3.15-1.06,4.94-2.48,7.18-11.07,17.64-33.88,39.65-47.55,56.7-4.68,5.84-9.27,13.32-13.95,19.18-1.16,1.45-8.9,11.46-10.02,10.12.01-2.38,1.83-4.72,3.02-6.54,4.91-7.52,11.91-16.25,17.46-23.35,13.57-17.34,35.48-46.6,50.01-60.93,1.13-1.11,1.61-2.9,3.5-2.38h0Z"/>
  <path class="st202" d="M334,1069.04l66.98-93.21c-.42,9.83-8.24,18.96-13.48,26.3-8.39,11.76-18.24,22.13-27.03,33.42-2.02,2.59-24.64,35.69-26.48,33.47h.01Z"/>
  <path class="st173" d="M505,998.54l67.98-97.99c.07,2.03.13,4.07-.44,6.03-1.03,3.56-14.38,19.84-17.53,24.46-11.62,17.09-22.07,32.12-34.54,48.35-1.43,1.86-13.88,21.03-15.48,19.13h.01Z"/>
  <path class="st90" d="M532,1266.21c.1-2.62,2.13-5.25,3.48-7.18,8.57-12.38,20.58-27.77,30-39.43,11.27-13.95,24.17-26.66,35.5-40.62,1.33,7.78-4.89,10.04-8.52,14.3-15.18,17.88-29.06,37-43.95,55.03-4.88,5.92-11.58,11.7-16.52,17.89h.01Z"/>
  <path class="st173" d="M342.99,1031.98c1.26-3.32,2.79-6.49,4.58-9.45,12.89-21.22,29.34-46.26,43.44-66.39,1.6-2.28,19.94-27.05,20.96-25.73-3.6,10.54-11.91,18.1-17.97,26.91-15.24,22.19-30.17,49.77-46.06,70.43-.8,1.04-3.86,5.51-4.97,4.21l.02.02Z"/>
  <path class="st203" d="M241,561.17c-1.19-1.48,6.77-13.05,8.02-14.9,11.29-16.8,25.27-36.11,37.46-52.03,1.6-2.09,3.49-4.46,5.5-5.96.3,5.97-4.02,11.56-7.02,16.1-8.15,12.34-18.69,24.6-27.48,36.47-1.41,1.9-14.2,23.17-16.48,20.33h0Z"/>
  <path class="st203" d="M296,793l53.98-81.25c.3,1.66.74,2.75.37,4.54-.71,3.36-15.33,24.89-18.38,29.48-7.09,10.68-15.89,24.27-23.46,34.1-3.77,4.89-7.91,9.38-12.5,13.13h-.01Z"/>
  <path class="st173" d="M347.99,738.05c-2.27,10.28-9.16,20.02-14.58,28.57-10.47,16.51-24.18,34.86-35.9,50.31-1.27,1.67-2.84,3.7-4.5,4.77.76-5.23,4.83-11.07,7.58-15.43,12.35-19.62,28.77-36.46,39.43-58.04l7.98-10.17h-.01Z"/>
  <path class="st90" d="M389.98,1018.86c-3.26,13.32-14.62,21.1-22.02,30.44-14.23,17.92-26.48,37.98-41.96,54.41.76-3.39,3.19-7.41,5.01-10.13,17.08-25.49,37.25-48.05,55.57-72.21,1.01-1.33,1.48-3,3.4-2.5h0Z"/>
  <path class="st173" d="M349.99,295.89c-2.53-.39-4.9-4.95-6.41-7.27-9.36-14.45-22.91-46.22-27.8-63.57-.54-1.9-1.06-3.56-.78-5.63,8.76,11.96,13.52,28.51,19.82,42.62,5.01,11.22,12.07,21.64,15.17,33.84h0Z"/>
  <path class="st173" d="M309.99,1351.05c.07-.26-1.59-2.66,1-4.78l56.5-65.72c1,.72.61,4.03.29,5.13-.65,2.21-14.17,17.57-16.78,20.58-13.3,15.33-27.93,29.17-41.01,44.8Z"/>
  <path class="st173" d="M744.98,1275.77c.35,3.09-1.03,4.97-2.47,7.19-8.33,12.77-24.41,27.45-34.54,39.98-4.71,5.82-9.45,12.92-14.14,18.95-.96,1.23-.89,2.87-2.84,1.4-4.02-3.04,3.31-7.3,4.54-8.93,13.72-18,29.69-40.31,45.44-55.64.65-.63,3.77-3.32,4.01-2.96Z"/>
  <path class="st118" d="M304,765.52c1.89-8.04,6.58-15.81,10.58-22.6,9.06-15.39,20.63-32.18,30.46-47.25,3.35-5.14,6.82-10.69,10.95-14.98-2.32,8.82-8.03,17.45-12.58,24.99-12.37,20.54-27.15,39.16-39.4,59.86h-.01Z"/>
  <path class="st90" d="M739.98,1260.23c2.2,2.99-5.8,11.26-7.47,13.17-13.24,15.19-27.68,29.01-40.01,45.34l-6.02,3.62c0-1.94,1.97-4.52,3-5.99,10.3-14.87,34.24-41.24,47.01-53.76,1.13-1.11,1.61-2.9,3.5-2.38h-.01Z"/>
  <path class="st88" d="M682.99,233.76c.59-2.75-2.06-1.78-2.11-4.15-.13-6.89,3.27-16.44,5.44-22.98.14-.41,1.51-.54,1.97-1.84,1.6-4.56,1.73-10.46,4.55-14.88.36-4.31-7.32-3.15-5.84-8.74,3.85-.59,5.95,2.62,8.74,4.49,1.09.74,3.82,1.1,4.13,1.61.89,1.49-.37,9.99-1.87,11.81-.33-2.28.9-6.11-1.99-7.17-2.47,14.7-7.91,28.3-13.01,41.82h0Z"/>
  <path class="st90" d="M242,581.49c-.25-3.39,1.87-5.96,3.48-8.36,5.74-8.57,14.68-16.66,21.02-25.07,7.69-10.19,14.26-22.5,22.48-32.28.15,2.92-.4,5.71-1.57,8.27-5.87,12.8-31.96,45.23-41.92,55.06-1.13,1.11-1.62,2.9-3.5,2.38h.01Z"/>
  <path class="st173" d="M816.98,1233.96c1.84,2.33-14.18,18.68-15.99,20.91-11.46,14.16-25.29,35.17-37.5,47.2-4.06,3.99-5,2.35-2.05-2.45,6.25-10.16,20.59-26.68,28.52-36.42,5.91-7.27,12.72-16.14,19.01-22.69.94-.97,7.33-7.4,8.01-6.55h0Z"/>
  <path class="st173" d="M748.98,1293.69c1.2,1.49-3.1,7.58-4.02,8.93-8.66,12.65-33.23,39.86-44.31,50.39-1.08,1.03-2.18,1.9-3.65,1.63-.75-.84,3.69-7.27,4.48-8.38,9.57-13.49,32.33-38.61,44.01-50.18,1.13-1.11,1.62-2.9,3.5-2.38h0Z"/>
  <path class="st90" d="M287,849.17c1.85-6.49,6.4-13.11,10.02-18.49,11.23-16.69,25.35-36.2,37.46-52.03,1.6-2.09,3.49-4.46,5.5-5.96-.58,6.33-5.69,12.22-9.01,17.3-11.46,17.48-25.87,36.73-38.46,53.22-1.6,2.09-3.49,4.46-5.5,5.96h0Z"/>
  <path class="st55" d="M571.99,929.24c-.2,3.33-1.69,6.06-3.16,8.76-10.15,18.74-38.31,59.65-52.34,73.68-1.12,1.12-1.62,2.89-3.5,2.38l58.99-84.83h.01Z"/>
  <path class="st71" d="M280,888.6l51.98-84.84c-.21,4.47-2.23,8.66-4.15,12.36-5.85,11.27-15.89,26.37-22.88,37.19-7.85,12.14-16.32,23.95-24.95,35.3Z"/>
  <path class="st90" d="M317,720.11c2.37-9.54,9.38-19.22,14.58-27.38,8.89-13.98,18.81-27.59,28.4-40.74.33,5.64-3.84,10.87-6.58,15.43-8.95,14.94-22.21,34.77-32.44,48.47-1.12,1.51-2.4,3.42-3.96,4.22Z"/>
  <path class="st5" d="M817.98,1261.44c2.11,2.66-14.68,18.18-16.52,20.28-10.23,11.69-20.39,26.35-30.95,37.1-2.6,2.65-6.13,6.51-9.53,7.12l33.99-42.42,23.01-22.08h0Z"/>
  <path class="st173" d="M721.98,1176.59l-.94,6.63c-15.09,16.63-27.59,36.46-41.85,53.94-.98,1.21-.98,3.38-3.19,2.75-.4-3.32.53-5.23,1.99-7.77,4.58-7.89,13.01-15,17.49-23.31l26.51-32.24h-.01Z"/>
  <path class="st152" d="M510,910.1c-.76-.94,1.94-4.76,2.59-5.86,7.47-12.45,17.29-22.39,25.91-33.57,10.95-14.17,21.03-29.38,33.48-41.84l-12.48,19.13c-15.92,17.63-29.07,38.66-44,57.36-.81,1.02-4.48,6.03-5.51,4.76h.01Z"/>
  <path class="st173" d="M728.98,1222c2.65,3.6-10.37,16.26-12.53,19.04-5.91,7.62-11.74,15.55-17.44,23.41l-17.02,18.49c-.25-2.21.01-3.53.94-5.44,2.83-5.78,18.46-21.58,23.56-28,4.16-5.23,8.28-12.16,12.46-17.37,1.07-1.34,8.98-11.53,10.02-10.12h.01Z"/>
  <path class="st95" d="M726.98,1195.71c1.69,2.23-6.85,13.34-8.48,15.55-11.18,15.13-24.19,30.78-36,45.41-1.04,1.29-1.76,2.78-3.51,2.37-.34-2.75.78-4.49,2-6.56,6.07-10.32,20.68-25.2,28.51-35.24,4.47-5.72,8.93-12.98,13.46-18.57,1.13-1.4,2.16-3.32,4.02-2.95h0Z"/>
  <path class="st90" d="M251.99,524.14c-1.83,1.27-2.16.47-1-2.39,13.05-22.35,28.68-42.4,41.99-64.53.81,5.96-2.62,10.09-5.17,14.71-9.84,17.81-26.21,34.88-35.81,52.21h0Z"/>
  <path class="st144" d="M440.98,374.78l-3.25.91c-20.08-6.75-39.33-17.92-54.75-34.95-1.16-1.28-8.04-8.77-6.98-10.17,19.83,18.1,41.08,34.83,64.98,44.23h0Z"/>
  <path class="st90" d="M711.98,1137.15l-.24,5.7c-7.86,10.56-16.51,20.68-24.27,31.33-6.6,9.06-12.1,19.47-19.48,27.5,1.46-6.89,6.34-13.99,10.02-19.68,7.91-12.26,17.72-22.84,25.46-35.3l8.51-9.54h0Z"/>
  <path class="st118" d="M291.98,434.51c.2,3.11-1.24,5.78-2.56,8.28-8.48,15.99-28.52,44.54-39.46,59.2-1.43,1.91-3.08,4.17-4.96,5.41-.3-2.33.57-4.05,1.54-5.92,11.19-21.34,30.82-42.31,42.03-64.49l3.42-2.47h-.01Z"/>
  <path class="st90" d="M524.99,937.58l48.99-66.91c.32,2.26-.13,3.49-.96,5.41-2.33,5.35-16.21,23.39-20.51,29.26-5.98,8.15-14.16,19.62-20.47,26.92-.81.93-6.32,6.08-7.04,5.32h-.01Z"/>
  <path class="st158" d="M688,1298.47c-1.25-1.63,5.25-10.3,6.48-11.96,6.21-8.35,14.02-15.32,20.54-23.25,5.83-7.11,10.77-15.42,16.96-22.14.41,3.85-.25,5.95-1.99,8.96-4.91,8.51-31.03,38.66-38.5,46.01-.64.63-2.57,3.6-3.5,2.38h.01Z"/>
  <path class="st173" d="M567.99,1349.85c14.27-21.17,34.81-35.74,50.99-54.96.53,4.77-1.45,7.13-3.97,10.18-9.83,11.87-30.99,32.12-42.54,42.37-1.33,1.18-2.64,2.69-4.48,2.4h0Z"/>
  <path class="st55" d="M324,685.46l41.98-68.11c.3,2.17-.2,3.57-.92,5.46-3.19,8.35-15.96,27.22-21.26,35.54-1.59,2.5-18.1,29.18-19.81,27.1h.01Z"/>
  <path class="st196" d="M246.99,597.03c-6.95,11.21-6.79-1.47,0-5.97,15.21-15.67,27.88-34.82,40.99-52.58,0,.6.06,1.19.03,1.8-.42,9.97-33.3,47.91-41.02,56.75h0Z"/>
  <path class="st173" d="M703.99,851.54c-.87-.97,8.23-13.85,9.49-15.53,10.63-14.32,22.56-27.79,33.5-41.81.86,5.75-4.28,11.2-7.48,15.55-8.54,11.65-22.32,29.72-32.01,39.42-1.12,1.12-1.63,2.9-3.5,2.38Z"/>
  <path class="st90" d="M717.98,1156.27c.55,4.02-1.58,6.72-3.49,9.56-9.67,14.51-24.94,32.9-35.99,46.62-1.04,1.29-1.76,2.78-3.51,2.37-.72-.88,2.26-6.6,3-7.76,8.43-13.38,21.01-25.25,29.49-38.85l10.51-11.93h-.01Z"/>
  <path class="st55" d="M219.99,1315.2c-6,8.32-8.34,8.71-7,1.19,2.25-5.54,13.84-18.51,17.98-24.52,6.61-9.63,12.72-19.8,19.53-29.24,1.43.85-.2,2.93-.65,4-7.07,16.68-20.47,33.28-29.85,48.58h0Z"/>
  <path class="st173" d="M283.98,567.17c-.45,11.18-9.94,16.98-15.52,23.86-7.74,9.56-15.35,20.18-23.97,28.72-1.13,1.11-1.62,2.9-3.5,2.38-.21-2.46,1.33-4.23,2.48-5.99,8.53-13.16,26.79-33.41,37.32-46.22.98-1.19.98-3.38,3.2-2.74h-.01Z"/>
  <path class="st55" d="M519.99,920.85c15.64-24.69,31.8-49.57,50.99-70.49-2.94,8.82-10.81,15.99-15.96,23.34-10.28,14.64-19.68,30.66-31,44.21-1.16,1.39-2.14,3.33-4.03,2.94h0Z"/>
  <path class="st31" d="M744.98,772.69c.65,4.47-.94,6.87-3.02,10.12-7.67,11.97-19.72,24.02-28.48,35.28-3.34,4.29-5.45,10.4-9.99,13.13l-1.01-3.57,42.51-54.94h-.01Z"/>
  <path class="st173" d="M758.98,945.96c.63,4.19-2.12,7.09-4.02,10.12-8.65,13.79-21.14,25.67-29.45,40.08l-5.51,5.95c.56-6.82,7.11-15.45,11.02-20.88,7.9-10.93,16.41-22.06,24.56-32.79,1.01-1.33,1.48-3,3.4-2.5h0Z"/>
  <path class="st173" d="M788.98,1146.71c-.03,2.08.3,4.27-.2,6.32-1.04,4.21-19.36,25.4-23.3,30.71-2.1,2.82-12.42,19.51-13.97,19.13-4.11-1.03,4.24-11.94,5.51-13.71,10.19-14.18,22.6-27.1,31.96-42.46h0Z"/>
  <path class="st118" d="M248,478.73l39.98-68.11c.34,6.98-4.94,13.68-8.17,19.5-9.32,16.72-19.78,34.67-31.81,48.61h0Z"/>
  <path class="st90" d="M768.98,1028.42l-1.99,7.77-34,48.38c-.17-7.22,6.22-15.01,10.02-20.88,6.21-9.58,15.87-24.04,22.77-32.54.98-1.21.98-3.38,3.19-2.75h0Z"/>
  <path class="st196" d="M570.98,779.87l-53.99,70.49c.32-2.71,2.59-5.57,4.01-7.74,12.73-19.43,31.25-42.21,45.95-59.81,1.16-1.39,2.13-3.33,4.02-2.95h0Z"/>
  <path class="st55" d="M368.98,1304.45c.27,2.94-.9,5.15-2.45,7.22-7.7,10.28-24.45,28.7-33.53,37.61-.89.87-5.2,5.13-6.01,4.16-.43-2.25,1.06-2.83,1.99-4.18,8.85-12.76,20.51-23.7,29.99-35.86l10.01-8.94h0Z"/>
  <path class="st5" d="M724,1021.24c-.68-4.99,2.43-8.17,4.6-11.82,9.22-15.5,22.66-28.66,31.89-44.33l1,4.74-37.49,51.41Z"/>
  <path class="st55" d="M740.98,754.76c1.57,2.13-5.11,11.13-6.48,13.16-7.59,11.24-18.05,24.77-26.49,35.26-.8.99-5.07,6.68-6.02,5.34-.34-2.28.14-3.49.97-5.4,2.54-5.86,28.98-38.43,34.83-45.61.98-1.21.98-3.38,3.19-2.75Z"/>
  <path class="st173" d="M766.98,1006.9c3.09,4.24-11.68,19.99-13.96,23.34-7.4,10.84-14.21,22.37-22.02,32.83l-.56-5.93c11.98-14.32,21.67-33.15,33.35-47.49.98-1.21.98-3.38,3.19-2.75h0Z"/>
  <path class="st55" d="M241,648.41c1.57-5.9,6.09-11.91,9.48-16.74,8.82-12.59,19.4-23.54,28.5-35.84-.47,5.69-3.65,10.09-6.48,14.35-8.98,13.55-21.21,26.03-31.5,38.23h0Z"/>
  <path class="st152" d="M499.99,1138.36c-1.3,4.61-3.9,8.4-6.18,12.32-9.79,16.75-22.03,35.66-32.85,51.56-3,4.41-6.13,9.13-9.96,12.58l7.58-14.23c13.88-17.95,24.85-41.62,37.99-59.76,1-1.37,1.54-2.95,3.42-2.47h0Z"/>
  <path class="st5" d="M790.98,1173c2.84,3.9-11.74,18.21-14.34,21.64-6.65,8.75-12.71,18.69-19.25,27.23-1.01,1.33-1.47,3-3.4,2.5-.31-2.03.4-3.49,1.14-5.2,4.18-9.63,24.03-34.02,31.33-42.62,1.28-1.51,2.47-3.86,4.52-3.55Z"/>
  <path class="st2" d="M556.83,762.72c-8.13,10.81-16.76,21.5-25.57,31.57-.18-3.54,2.68-6.93,4.48-9.57,12.53-18.49,27.81-34.77,41.02-52.55,1.41.82-.13,2.98-.68,3.97-4.54,8.32-13.47,18.9-19.24,26.6h-.01Z"/>
  <path class="st90" d="M756.98,924.45c.29,2.35-.53,4.04-1.55,5.9-4.45,8.22-15.95,20.52-21.97,28.72-3.32,4.53-7.87,13.3-10.95,16.79-.96,1.09-3.35,3.64-4.53,2.34-2.44-2.66,24.92-35.83,26.97-40.06l12.02-13.71h.01Z"/>
  <path class="st90" d="M763.98,986.59c.61,4.33-2.78,8.05-5.02,11.32-7.33,10.67-16.62,24.27-24.46,34.1-.82,1.03-5.5,7.31-6.51,5.95-.34-2.75.77-4.49,2-6.56,6.68-11.29,17.67-22.49,24.48-34.08l9.51-10.73h0Z"/>
  <path class="st196" d="M737.98,733.27c1.34,7.49-1.05,6.03-2.99,8.91-7.7,11.5-17.24,25.89-25.49,36.51-2.43,3.13-8.37,11.58-7.02,2.38l35.5-47.8Z"/>
  <path class="st55" d="M707.99,916.07l43.99-57.35c.68,6.29-5.8,13.07-9.48,17.94-8.41,11.14-21.56,27.52-31.01,37.03-1.12,1.14-1.63,2.89-3.5,2.38Z"/>
  <path class="st152" d="M483.98,1222.01c.23,2.19-1.03,3.75-2.01,5.35-8.35,13.57-19.87,27.47-28.96,40.68-3.73,5.43-7.28,13.13-11.06,17.85-1.14,1.43-1.98,3.45-3.97,3.01-1.03-1.17,13.43-23.27,15.03-25.64,8.01-11.94,18.78-28.06,27.57-38.75,1.04-1.27,1.44-3.04,3.4-2.5Z"/>
  <path class="st115" d="M779.98,1108.47c.11,2.06.2,3.98-.52,5.94-.84,2.32-11.15,16.3-13.5,19.72-4.07,5.92-9.94,14.76-14.45,19.78-1.66,1.84-4.18,4.48-6.52,4.74-1.81-2.25,9.01-13.46,10.51-15.51,7.64-10.46,14.57-21.65,21.88-32.43.85-1.25.02-2.98,2.6-2.23h0Z"/>
  <path class="st173" d="M242,672.31c-.19-4.37,2.89-7.99,5.02-11.32,6.71-10.48,15.66-18.89,22.41-29.38l3.56-9.48c1.28,13.54-7.99,22.7-14.96,31.69-5.02,6.46-10.54,12.59-16.02,18.49h-.01Z"/>
  <path class="st55" d="M748.98,839.62c.24,2.2-1.04,3.74-2.01,5.35-5.31,8.83-24.86,36.59-31.51,42.41-1.34,1.17-2.64,2.69-4.47,2.4-.34-5.48,4.74-7.15,7.52-10.72,7.77-9.98,14.68-21.96,22.45-31.73.91-1.15,6.97-9.09,8.02-7.73h0Z"/>
  <path class="st55" d="M719.57,741.12c-4.43,6.15-9.04,12.69-13.64,18.67-1.52,1.97-3.67,5.59-5.94,5.72-1.02-1.4,5.38-11.18,6.58-13.04,5.27-8.13,13.48-19.53,19.39-27.02,2.99-3.79,6.57-6.35,9.53-10.12.76-.19.64,1.15.48,1.76-1.11,4.33-12.98,19.26-16.4,24.02h0Z"/>
  <path class="st118" d="M741,1119.23c-1.18-1.53,3.09-7.56,4.02-8.93,9.59-13.97,21.58-26.79,30.96-41.26.41,3.85-.25,5.95-1.99,8.96-5.33,9.21-18.99,25.93-25.97,34.69-.86,1.08-5.99,7.87-7.02,6.54h0Z"/>
  <path class="st69" d="M715.99,1353.43l35.99-43.01c.18,2.34,1.44,2.96.11,5.39-2.8,5.08-18.46,22.64-23.08,27.48-3.55,3.72-8.4,9.39-13.01,10.13h0Z"/>
  <path class="st152" d="M752.98,905.34c.74.93-2.28,6.54-2.99,7.77-6.76,11.64-19.28,27.88-27.49,38.85-1.91,2.56-4.15,5.19-6.5,7.16,3.84-9.86,10.32-18.4,16.01-26.86,4.55-6.76,10.61-16.06,15.46-22.15.8-1,4.49-6.05,5.51-4.76h0Z"/>
  <path class="st152" d="M486.99,1189.74l-43,65.7c3.92-10.5,10.2-20.06,16.03-29.23s14.77-23.23,21.46-31.71c.84-1.06,4.42-5.99,5.51-4.76Z"/>
  <path class="st196" d="M707.99,869.47c11.65-19.17,25.93-35.94,39.99-52.57.25,6.97-6.8,11.69-10.5,16.72-8.32,11.28-16.3,23.76-25.98,33.48-1.12,1.12-1.63,2.9-3.5,2.38h-.01Z"/>
  <path class="st31" d="M443.99,1305.63c-2.52-2.89,34.15-55.15,38.99-58.54.22,3.53-2.37,6.3-4.02,8.93-4.1,6.55-9.62,12.73-13.95,19.18-5.79,8.64-11.82,20.04-17.6,27.96-.99,1.36-1.54,2.96-3.42,2.47h0Z"/>
  <path class="st31" d="M786.98,1126.4c-1.37,7.47-8.05,15.59-12.48,21.52s-14.97,20.24-19.5,24.5c-1.47,1.37-2.96,3.21-5.01,2.96l36.99-48.98Z"/>
  <path class="st55" d="M715.99,929.23c9.06-13.24,19.73-29.75,29.48-41.85,3.8-4.71,4.88-1.6,2.57,3.07-4.81,9.75-23.59,32.62-31.05,41.17-2.59,1.3-2.16.11-1-2.39Z"/>
  <path class="st90" d="M770.98,1052.31c1.34,8.82-6.94,14.34-11.5,20.3-2.97,3.87-18.45,26.12-20.99,26.28-.46.02-2.21-2.04-.5-2.96l32.99-43.62Z"/>
  <path class="st55" d="M702,705.77c-.13-4.27,2.37-7.74,4.18-11.13,7.25-13.55,17.6-28.63,26.8-40.26.36,3.54-1.74,6.03-3.18,8.74-7.61,14.29-19.02,29.19-27.8,42.65Z"/>
  <path class="st159" d="M753.57,1128.29c-1.36,1.85-8.39,12.37-9.08,12.43-2.54.19-.74-4.41.07-5.87,4.38-7.93,13.08-17.12,18.41-24.6,4.35-6.11,7.63-13.62,13.02-18.49l-.51,5.95c-8.04,9.43-14.5,20.52-21.9,30.59h0Z"/>
  <path class="st31" d="M701.98,724.88c-1.84.29-.87-2.51-.53-3.62,2.18-7.01,20.73-32.43,26.03-39.41,2.25-2.95,4.81-5.96,7.5-8.35.26,2.22-.04,3.51-.95,5.43-4.88,10.32-21.71,29.03-29.02,39.41-1.3,1.84-2.61,4.15-3.04,6.54h.01Z"/>
  <path class="st185" d="M618.98,1321.18c2.64,3.61-7.03,10.52-9.01,12.52-2.3,2.33-4.2,5.4-6.49,7.78-1.06-5.21-2.1.27-4,2.39-2.09.38-8.05,9.85-9.49,8.36-.32-.32-.77-2.92-.11-4.18,1.16-2.2,13.82-17.09,15.6-17.37,2.06-.33.95,1.48,2,2.44,1.42-1.1,10.22-13.69,11.5-11.94Z"/>
  <path class="st144" d="M563.99,727.29c.99,1.41-9.46,17.3-11.02,19.68-8.49,12.88-18.05,26.48-27.96,37.68l8.02-14.9c10.64-12.19,18.71-27.08,28.37-40.21.38-.51,1.11-4.35,2.6-2.23h0Z"/>
  <path class="st152" d="M704,678.29c1.4-7.65,6.71-16.05,10.58-22.6,6.2-10.48,13.59-20.09,20.4-29.98l-2.58,8.26-28.4,44.32Z"/>
  <path class="st174" d="M368,969.86c1.1-5.03,4.35-9.72,6.77-14,9.99-17.69,21.3-34.56,34.21-49.33l-40.98,63.33h0Z"/>
  <path class="st152" d="M527,636.46l2-6.56,32.98-50.8c-2.15,8.72-8.53,17.84-13.18,25.46-6.74,11.05-13.97,21.92-21.8,31.89Z"/>
  <path class="st152" d="M700.99,741.62c11.52-12.65,19.91-29.8,30.79-43.87.99-1.28,1.04-3.33,3.21-2.72,2.24,3.13-9.89,16.59-11.97,19.74-6.11,9.23-11.93,18.81-18.02,28.06-3,3.56-6.05,4.9-4-1.19h-.01Z"/>
  <path class="st55" d="M269.99,655.59c2.33,2.65-22.58,34.4-25.99,37.03,1.02-5.96,5.76-12.45,9.02-17.29s9.67-13.56,13.47-17.36c1.12-1.12,1.63-2.9,3.5-2.38Z"/>
  <path class="st55" d="M255,438.1l27.98-50.19c-.99,7.58-5.52,14.42-8.97,20.94-5.31,10.04-11.53,21.58-19.01,29.25Z"/>
  <path class="st196" d="M224.99,1334.32c-2.17,7.7-8.54,1.04-2-2.39,4.09-6.7,10.77-13.8,15.51-20.3,1.32-1.8,12.2-19.56,13.48-17.94-1.34,5.01-4.39,9.58-7.02,13.71-3.73,5.87-15.59,23.27-19.97,26.92h0Z"/>
  <path class="st92" d="M789.99,937.59c.6,4.46-2.03,8.76-5.99,8.35.36-11.44-1.35-19.59,7.5-27.47.72,1.21-3.5,9.27.51,5.4,3.1-3,5.54-10.83,7.49-14.96,1.05,5.47,1.66-1.29,4.49.59l-7,11.35c.7.79.93,1.71.62,2.78l-9.13,13.53,1.5.42h.01Z"/>
  <path class="st143" d="M420.99,859.93l-41,53.75c7.21-11.41,15.4-24.07,23.49-34.65,3.93-5.14,9.64-12.31,14.01-16.72,1.12-1.14,1.63-2.89,3.5-2.38Z"/>
  <path class="st11" d="M534,684.26l13.82-22.31,13.16-24.29c-.37,8.62-6.06,17.3-10.17,24.27-4.88,8.25-10.04,16.11-16.81,22.32h0Z"/>
  <path class="st69" d="M806.99,912.5c-3.91,9.82-10.97,17.12-17,25.09-1.5,1.98-2.79,4.21-4.5,5.96-.76.19-.64-1.16-.48-1.77,1.37-5.21,8.72-16.56,11.99-20.94,2.27-3.04,6.35-6.68,9-9.56.32.38.78.73,1,1.19h-.01Z"/>
  <path class="st206" d="M540,704.56l25.99-37.03c-1.81,8.22-8.28,16.79-13.02,23.27-1.53,2.09-11.05,15.88-12.97,13.77Z"/>
  <path class="st12" d="M779.99,838.4c1.11-6.21-1.73-11.78,4.99-14.33l-1.5,7.16,20.5-26.28c-.49,3-2.66,6.27-4.16,8.76-4.34,7.21-11.57,16.38-16.85,22.88-.95,1.17-1.31,2.27-2.98,1.8h0Z"/>
  <path class="st145" d="M453,1323.57c.22-3.26,2.44-6.38,4.01-8.94,7.63-12.38,17.18-25.24,25.97-36.47l-25.02,40-4.96,5.41h0Z"/>
  <path class="st148" d="M534,652l24.98-39.43c-5.44,14.72-14.81,28.88-24.98,39.43Z"/>
  <path class="st144" d="M803.98,826.46c1.23,1.61-3.96,8.57-5.02,10.12-3.3,4.82-8.54,12.5-11.99,16.74-.95,1.17-1.3,2.26-2.97,1.8l-1-9.55c1.96-.37.55,2.88,1,3.58,1.32,2.08,15.29-18.5,16.58-20.21,1.01-1.33,1.48-3,3.4-2.5h0Z"/>
  <path class="st8" d="M778,754.76c5.64-14.46,13.7-27.99,22.98-39.43-.18,4.28-3.42,9.46-5.55,13.07-5.13,8.66-11.92,17.86-17.43,26.36Z"/>
  <path class="st73" d="M794.98,614.97l-1.16,5.17-17.83,31.86c-.13-2.06-.05-4.02.46-6.01.96-3.79,11.44-21.64,14.13-26.13,1.09-1.82,2.25-5.44,4.39-4.89h0Z"/>
  <path class="st76" d="M791.99,949.54c2.29-3.44,7.69-10.38,10.5-13.14,4.07-4,4.66-2.92,2.04,2.44-2.25,4.59-8.28,11.89-11.54,16.68-1.43,2.1-2.94,4.74-4.99,5.97.38-5.11,1.4-8.07,3.99-11.95Z"/>
  <path class="st14" d="M778,771.49c1.2-6.69,7.02-12.64,10.41-18.02.7-1.11.55-3.62,1.54-5.33,2.57-4.41,8.69-9.69,12.02-13.71.05,7-6.19,10.68-9.5,15.52-4.81,7.03-8.9,15.56-14.48,21.52h.01Z"/>
  <path class="st26" d="M801.98,755.97c1.48,1.76-5.03,6.42-6.04,7.71-2.01,2.56-11.35,15.06-11.77,17.11-.6,2.89,2.07,7.05-3.18,7.42,2.58-4.6-1.31-2.71-1.04-5.32s13.57-20.29,16.03-22.76c.88-.88,5.21-5.11,6.01-4.16h-.01Z"/>
  <path class="st152" d="M736.99,1351.04l20.99-23.89c.15,1.98-.06,3.84-.75,5.66-1.52,4.05-15.71,17.45-20.24,18.22Z"/>
  <path class="st164" d="M799.99,1061.87c3.78-2.03,6.04-6,8.99-8.97.79-.8,2.01-3.13,3-1.19l-6.99,8.38,1.99,1.18-10,13.74c0-.14-.96-.79-.82-1.6.37-2.25,4.33-3.58,3.81-6.76-3.12,3.11-5.39,3.55-7.97-.6.61-1.42,2.28-2.09,2.98-2.99l1.5,4.78c.94-2.28,2.4-4.1,3.5-5.97h.01Z"/>
  <path class="st175" d="M795.98,656.79c.84.99-6.32,10.69-6.59,13.03-3.8,5.23-6.76,11.09-9.93,16.85-.77,1.39.25,3.08-2.47,2.37l5.96-16.17c2.44-.87,11-18.49,13.03-16.08h0Z"/>
  <path class="st206" d="M807.99,951.93c-.85,2.37-1.39,4.65-3.03,6.54l-15.96,22.13c.28-7.13,14.24-28.14,18.99-28.68h0Z"/>
  <path class="st176" d="M808.99,968.68c1.12,1.3-18.73,25.73-20.99,27.47-.52-2.39.66-3.25,1.45-4.83,1.7-3.42,8.96-13.1,11.55-16.07.83-.96,7.28-7.4,7.99-6.57Z"/>
  <path class="st188" d="M794.98,637.66c.97,1.24-1.69,5.81-2.59,7.05l-17.4,25.2c4.19-9.36,10.78-21.8,16.57-29.78.62-.86,2.45-3.72,3.42-2.47h0Z"/>
  <polygon class="st165" points="665 1176.59 666.12 1170.17 680.98 1146.71 679.9 1154.28 665 1176.59"/>
  <path class="st138" d="M804.99,846.78c-1.59,7.95-8.85,16.24-14,21.51-.98,1-1.53,2.53-2.5,3.56-2.93-2.13-.31-4.74,1.5-7.15,1-3.87,5.04-7.6,8-9.56,2.71-3.93,3.83-8.08,6.99-10.75.12.75-.16,1.82,0,2.39h.01Z"/>
  <path class="st60" d="M697.99,202.69c.02.26.99,1.31,1.04,2.89.26,9.32-2.15,14.76-3.04,23.4-1.88,2.75-3.03-5.31-2.99-5.97.27-6,3.1-14.67,5-20.31h-.01Z"/>
  <path class="st184" d="M246,1075.02c-.38-.53,3.85-9.39,4.55-10.68,3.62-6.7,8.77-14.87,13.43-20.39,1.03,3.8-16.94,32.52-17.98,31.07Z"/>
  <path class="st212" d="M804.98,864.71c1.13,1.45-9.87,17.04-11.48,19.13-1.08,1.41-8.39,10.87-9.51,9.54-.43-2.25,1.06-2.83,1.99-4.18,4.68-6.72,10.82-15.59,15.8-21.75.98-1.21.98-3.38,3.19-2.75h.01Z"/>
  <path class="st131" d="M686,1150.3c3.25-9.79,9.3-19.53,15.98-26.29-2.23,10.34-9.7,19.01-15.98,26.29Z"/>
  <path class="st77" d="M415.64,841.58l-24.65,29.09c7.48-14,18.56-24.43,28-36.45,2.53-1.08.55,1.53,0,2.39-1,1.58-2.57,2.95-3.35,4.96h0Z"/>
  <path class="st69" d="M802.99,1162.25c-.54.67-1.5,1.85-2,2.39-3.74.93-1.21-3.69,0-5.97,1.08-2.03,13.16-16.8,13.99-15.53.41,2.33-.44,3.21-1.44,4.84-2.31,3.74-7.7,10.75-10.55,14.28Z"/>
  <path class="st47" d="M456.99,1343.87c-1.34-1.47,20.45-31.34,22.99-33.45.28,1.94-.74,3.25-1.57,4.68-3.7,6.42-13.48,20.58-18.02,26.27-1.03,1.29-1.44,3.04-3.4,2.5Z"/>
  <path class="st133" d="M784,904.14c.58-3.15,3.21-6.58,4.96-9,5.02-6.91,11.35-12.42,17.02-18.49.41,2.33-.44,3.21-1.44,4.84-4.63,7.52-15.22,15-20.54,22.64h0Z"/>
  <path class="st22" d="M222.99,1331.93c-.44.72-2.23,3.36-2,3.57,1.4.17,2.85-.23,4-1.18,2.46,3.85-2.03,5.48-4.07,7.71-.97,1.05-2.02,4.13-2.43,4.28-4.14,1.45-1.51-2.17-1.78-4.05-.35-2.51-3.39-5.47-.72-7.93,1.68.08,3.15-1.14,4.42-3.66l1.58.07,1,1.19h0Z"/>
  <path class="st122" d="M221.99,1330.74c-1.68,2.44-3.7,4.82-5.5,7.17l-.5-3.58,21.5-28.68c1.3,1.46-1.34,4.68-2.1,5.86-3.48,5.35-7.78,9.98-11.41,15.08-.96,1.35-1.34,3.2-1.99,4.15h0Z"/>
  <path class="st119" d="M699,231.38c1.77-.31.98,2.7.76,3.9-1.15,6.2-3.16,14.06-5.46,19.76-.56,1.39-.82,4.28-2.79,3.81-2.13-1.85-1.38-2.14-.73-4.42,2.15-7.54,6.37-15.22,8.23-23.05h-.01Z"/>
  <path class="st137" d="M556,822.88l5.99-11.35,12.99-16.13c-3.57,10.66-11.97,19.81-18.98,27.48Z"/>
  <path class="st20" d="M792.99,1005.71c1.37-1.45,12.16-18.96,13.99-16.72l-10.46,17.96-5.53,4.73c.1-2.35,1.37-3.47,1.99-5.97-.83.87-4.22,4.48-5,3.57,2.36-2.72,1.62-6.44,2.76-9.24,2.38-5.87,9.12-12.64,13.23-17.04-1.8,6.54-8.13,10.91-10.21,17.09-.8,2.39-.41,4.15-.78,5.62h.01Z"/>
  <path class="st137" d="M554.98,824.08l-19.99,28.67c2.51-7.55,9.21-17.22,13.96-23.34.85-1.09,4.96-6.58,6.02-5.34h0Z"/>
  <path class="st33" d="M246.99,591.05c-.58,3.54-5.31,6.07-3.5,9.56.87-1.59,2.51-2.44,3.5-3.58l-5.01,13.14c-2.61,3.14-2.17-7.7-2.05-9.03.43-4.65,1.57-6.01,4.56-8.94.89-.87,2.25-.88,2.5-1.15Z"/>
  <path class="st205" d="M775,629.29l5.19-12.31,8.8-15.16c2.03,4.36-13.07,28.75-13.98,27.47h-.01Z"/>
  <path class="st126" d="M785.99,569.56l-11.99,28.67c.08-7.01,3.48-15.46,6.45-21.56,1-2.04,3.13-7.33,5.53-7.12h0Z"/>
  <path class="st213" d="M677,1141.93c1.53-5.07,4.84-10,7.59-14.22,2.47-3.78,5.06-8.15,8.39-10.87l-1.54,5.92-14.44,19.18h0Z"/>
  <path class="st84" d="M781,559.99l1.51-7.15,7.47-17.95c-2.15,8.4-2.15,20.36-8.98,25.09Z"/>
  <path class="st48" d="M247.98,1323.58c.91,1.09-7.13,12.94-7.56,15.45-10.79,8.01,1.34-9.52,4.16-12.95.62-.75,2.31-3.8,3.4-2.5h0Z"/>
  <path class="st46" d="M559.99,708.17c-2.55,6.26-7.4,12.77-11.49,17.92-.84,1.06-4.42,6-5.51,4.76l7.49-11.95,9.51-10.73Z"/>
  <path class="st104" d="M604.99,1360.6c-.56-.51,2.47-2.92,2-3.56-.32-.44-2.39.98-2-1.19,4.46.14,6.57-8.45,10.98-10.77,1.67,4.43-8.54,17.76-10.99,15.52h.01Z"/>
  <path class="st130" d="M702,245.71c1.79-8.94,3.4-21.09,8.98-27.48-2.08,6.91-3.55,14.3-5.82,21.12-.71,2.14-1.21,5.51-3.16,6.37Z"/>
  <path class="st94" d="M796,1104.88c-1.08-1.31,1.45-3.32,2.09-4.06,1.35-1.57,14.23-15.9,14.9-15.04-1.36,4.41-5.97,9.43-8.98,12.56-.95.99-7.32,7.38-8.01,6.55h0Z"/>
  <path class="st177" d="M251.99,524.14c-1.95,3.53-2.26,12.42-7.99,13.14-.51-6.19,4.21-10.77,6.99-15.53l1,2.39Z"/>
  <path class="st72" d="M808.99,996.16l-16.99,22.69c-.2-2.08-.2-2.93.67-4.76.42-.88,6.6-9.09,7.67-10.36.9-1.05,7.9-8.4,8.65-7.58Z"/>
  <path class="st129" d="M219.99,1315.2c-1.8,2.94-4.08,8.63-6.02,11.94-2.93,2.98-2.26-7.6-.98-10.74-.34,8.58,3.33-.76,7-1.19Z"/>
  <path class="st187" d="M811.99,1155.08c1.47,1.22-.78,2.72-1.49,3.58-3.51,4.25-6.78,8.59-10.01,13.13-.82-1.31,2.02-7.6,2.5-8.36,2.02-3.13,6.61-6.01,9-8.36h0Z"/>
  <path class="st168" d="M541.99,733.27c-4.06,5.28-7.63,11.2-11.79,16.37-.98,1.21-1,3.38-3.21,2.72,2.88-6.15,6.98-12.18,11.5-16.72,1.12-1.12,1.63-2.89,3.5-2.38h0Z"/>
  <path class="st12" d="M799.98,804.97c.43,2.25-1.05,2.83-1.99,4.18-3.18,4.55-7.28,8.63-10.99,12.55,1.1-3.37,4.41-8.17,6.48-10.77.86-1.08,5.45-7.28,6.51-5.95h-.01Z"/>
  <path class="st117" d="M778,714.14c-1.64-2.13,12.67-14.78,13.98-16.73.52,2.89-.4,3.04-1.63,4.61-3.33,4.23-8.69,8.09-12.35,12.12Z"/>
  <path class="st154" d="M538.99,1302.06c-2.32,2.47-2.2,5.44-6.47,6.02-6.35.87.48-4.76,1.47-6.02l.6.92,4.4-.92Z"/>
  <path class="st62" d="M810.99,1208.86l-8.99,10.74c1.05-4.17,5.58-9.57,8.99-10.74Z"/>
  <path class="st186" d="M700.99,741.62c-.56,4.02,1.52,1.89,4,1.19-1.55,2.35-2.89,5.53-4.99,7.17-.36-3.87-1.74-5.37.99-8.36Z"/>
  <path class="st152" d="M580.98,816.9c.99,1.22-5.05,8.31-5.49,8.34-4.55.35,4.64-9.38,5.49-8.34Z"/>
  <path class="st61" d="M817.98,1269.81c1.14,1.31-6.41,8.59-7.99,8.35.67-1.59,6.8-9.73,7.99-8.35Z"/>
  <path class="st71" d="M333,802.56c.05-3.44,2.6-6.78,4.98-8.36-.05,3.44-2.6,6.78-4.98,8.36Z"/>
  <path class="st69" d="M809.99,1014.08l-6.99,8.35c.37-3.3,4.18-7.87,6.99-8.35Z"/>
  <path class="st186" d="M716.99,931.62c-1.36,1.55-2.31,5.23-4.99,4.77-.95-1.11,3.19-6,3.99-7.16l1,2.39Z"/>
  <path class="st128" d="M857.99,349.67c1.17,6.13,4.6,7.42,2,14.33l5-2.37c.88.9-4.87,7.27-4.98,7.86-.33,1.89,1.91,2.64,1.98,2.88,1.02,1.34,1.69,3.32,2,5.97l.5,2.39,2.49-2.39c-1.21,6.46-2.92,5.02.45,10.9,1.07,1.86-.16,3.33,2.56,1.05.59.27,1.06.54,1.05.79-.08,3.36-2.69,2.56-.57,1.4.4-.22.94-.06,1.52.19,2.19,9.89,1.31,10.73-6.99,11.94,2.89-7.06-2.32-10.1-3.02-16.74l-2.98,1.21c2.68-5.74-2.62-11.02-3.6-15.49-.79-3.6-.86-9.4-1.44-13.73-.47-3.44-2.37-1.84-.96-6.62,1.75-3.26,3.42-4.46,5-3.58h-.01Z"/>
  <path class="st91" d="M920.99,471.56c1.78,1.88-.67,5.7-2.09,7.67-6.13,3.66-7.91,7.84-5.36,12.52l-.55,4.9c.28,1.89.95,2.68,2,2.39-.17,8.58,7.7,5.2.97,15.51-4.61.12-3.23-5.05-4.04-7.44-.88-2.58-1.81-5.7-2.87-8.74-.89-2.56-4.63-8.19-4.82-9.68-.37-3.01,2.36-5.13-.24-11.16,2.88-3.58,1.43.45.76-.11-1.1-.92.29-3.54,2.24-2.28,1.12,11.02,10.8-.14,14-3.58h0Z"/>
  <path class="st1" d="M922.99,465.58c-3.05-.99,2.24-10.25,3.69-10.69,1.32-.41,3.97,5.29,1.31,7.11.4.53.68,1.02.58,1.31-3.3,10.04-9.16,23.66-13.9,32.72-.24.45-.9.59-1.68.62-1.99-7.52-5.44-9.68.5-15.55,4.7-4.64,3.91-2.14,7.5-9.55,2.16-4.45,1.12-2.62,2-5.97Z"/>
  <path class="st196" d="M879.99,342.5c1.15-1.18,2.56-2.66,3.99-2.38.5.6-2.24,5.83-2.99,7.16-5.74,10.15-13.14,19.44-17,31.07l-2.99,1.19c-.43-2.08,1.52-5.53.99-7.17,6.9-7.59,11.17-22.81,18-29.87Z"/>
  <path class="st71" d="M929.99,533.7c6.26-13.32,11.78-27.28,18.02-40.63,1.79-.12,2.11-.57,2.02,1.8-.21,5.29-11.25,24.76-14.03,31.65.07,1.41-1.85,10.68-2.11,11.21-1.33,2.75-7.14-.27-3.89-4.04h-.01Z"/>
  <path class="st28" d="M913.98,415.41c1.63,2.07-13.95,33.38-15.87,37.78-1.4,3.2-.87,8.85-5.12,8.81-1.7-2.1,11.68-28.21,13.52-32.23.73-1.59,5.49-16.88,7.47-14.36Z"/>
  <path class="st79" d="M869.99,390.3c3.82-9,11.04-25.14,16.17-32.66.59-.87,2.68-4.6,3.82-3.19,1.27,1.58-17.76,32.83-17.99,38.23-1.88,1.85-1.85,7.8-5,7.16-.45-.63,2.36-8.05,3-9.55h0Z"/>
  <path class="st106" d="M921,518.16c.32-6.52,3.93-13.26,6.47-19.14,3.4-7.89,7.67-17.49,12.51-23.88,0,3.29-1.48,6.49-2.62,9.4-3.56,9.12-9.32,21.55-13.62,30.32-.64,1.31-1.38,2.95-2.74,3.29h0Z"/>
  <path class="st91" d="M922.99,465.58l-10.99,6.58c5.16-7.82,12.35-13.83,16.01-23.3,6.47.29.32,8.71.99,9.55l3.99-1.18c.43.44-1.67,2.89-2,3.57-1.27,1.39-2.27,1.78-3,1.19-.72-2.63-.27-5.63-3-4.78,1.13,3.87-1.41,6.09-2,8.36Z"/>
  <path class="st43" d="M930.99,460.8c-5.72,11.96-10.31,25.93-16,38.24-1.06,2.29-1.5,6.58-4,5.96-.13-3.05,1.06-5.68,2-8.35,2.42-6.94,6.47-13.66,9.52-20.29,1.73-3.76,3.84-11.82,5.48-14.36.38-.6,2.04-1.29,2.5-2.37l.5,1.17h0Z"/>
  <path class="st172" d="M857.99,349.67c-.73,1.17-3.66,2.94-4.5,4.76l-.5-1.17c3.46-11.77,13.8-26.16,20.5-35.85,1.17.73.35,3.55-.05,4.72-1.46,4.19-10.9,17.77-13.91,22.85-.97,1.64-1.19,4.12-1.54,4.68h0Z"/>
  <path class="st37" d="M921.99,440.49c-5.5,11.23-10.01,23.1-15,34.65-.51,1.17-1.27,2.1-1.01,3.58l-1.99-1.19c-1.13-2.62-3.12-1.67-2.99-3.57,1.87.17,2.64-.39,3.9-1.91,1.79-2.15,14.52-29.98,15.09-32.75,2.04-1.53,2.17-2,2,1.19h0Z"/>
  <path class="st28" d="M902.99,390.31l-18.99,43.01c-.64-5.05,1.71-8.88,3.47-13.17,3.35-8.17,8.91-19.79,13.04-27.47.77-1.43-.23-3.07,2.47-2.37h.01Z"/>
  <path class="st196" d="M826.99,647.22c3.89-5.94,7.65-12,11.42-18.06.83-1.33-.02-2.98,2.57-2.26,2.36,3.66-10.98,21.19-12.99,25.09,0-.25-.87-4.59-1-4.78Z"/>
  <path class="st106" d="M892.98,380.75c.8.96-8.21,13.95-8.56,16.65-5.05,5.14-6.9,13.55-12.43,18-.35-2.02.87-3.14,1.59-4.66,3.42-7.19,11.51-21.34,15.98-27.51.64-.88,2.4-3.68,3.42-2.47Z"/>
  <path class="st80" d="M886,442.88c3.19-11.75,10.08-24.17,17.98-32.26l-14.55,28.61-3.43,3.66Z"/>
  <path class="st0" d="M830.99,513.37c4.7-12.25,9.77-25.43,16.99-35.84.14,5.38-3.97,9.99-6.16,14.73-2.56,5.56-5.05,13.6-7.62,18.38-.86,1.6-1.2,3.23-3.21,2.72h0Z"/>
  <path class="st28" d="M945.97,540.85c-.19.19-1.88.45-1.99-.6-.27-2.66,5.53-14.58,7.19-17.7,1.16-2.2,3.05-5.26,4.81-6.79-.79,3.86-2.61,8.88-4.11,12.4-.76,1.79-5.44,12.21-5.9,12.68Z"/>
  <path class="st161" d="M854,325.77c-.23-2.19.01-3.55.94-5.44,2.3-4.73,11.63-12.62,15.04-17.27.41,2.33-.44,3.21-1.44,4.84-3.38,5.48-10.49,12.55-14.54,17.86Z"/>
  <path class="st171" d="M935.99,526.53c4.55,2.37-2.6,6.57-2.06,11.26.03.27,3.77,1.78,2.07,4.25-.19.27-5.72,1.4-5.94,1.16s-2.06-6.21-2.08-6.57c-.08-2.22,1.82-2.51,2.02-2.94-.71,2.7,1.28,3.41,3.06,1.86,1.32-1.15.72-4.91,1.4-6.74.45-1.23,1.35-1.84,1.54-2.29h-.01Z"/>
  <path class="st93" d="M931.99,509.78l12.99-19.11c.58,6.42-5.67,12.89-9.49,16.73-1.12,1.12-1.63,2.9-3.5,2.38Z"/>
  <path class="st28" d="M823.81,569.28c-.6.42-2.68.81-2.82-.33l9.99-12.55c.34,2.09-6.6,12.5-7.17,12.88Z"/>
  <path class="st153" d="M760.99,1366.6c-8.46,13.74-19.97,24.02-30.99,34.64l21.98-32.87,2.02.02-1.52,5.35,8.5-7.16h.01Z"/>
  <path class="st79" d="M316,1408.41l7.45-12,20.53-21.46c-5.46,14.26-17.68,24.16-27.98,33.46Z"/>
  <path class="st206" d="M605.98,1382.13c2.12,2.74-14.79,18.82-17.09,20.78-1.47,1.25-3.01,3.24-4.9,3.09-1.37-1.63,8.02-10.81,8.98-12.56l13.01-11.33h0Z"/>
  <path class="st194" d="M752.99,1389.29c-1.55-2.37-.75-2.89.44-4.82,1.25-2.04,15.97-19.7,17.08-20.27,4.19-2.15-2.88,8.07-3.51,8.95-3.87,5.46-3.8,7.95-7,12.55-1.89.11-3.76,1.51-5.61,4.21l-1.39-.62h-.01Z"/>
  <path class="st79" d="M306.99,1370.18c-5.7,6.15-15.52,16.65-22.43,20.39-1.58.86-2.75,1.46-4.57,1.1,7.69-8.45,17.39-16.59,27-21.49h0Z"/>
  <path class="st127" d="M580.98,1385.72c1.53,1.95-7.52,12.27-8.98,13.75-3.26,3.31-8.03,6.95-12.01,8.94,3.76-5.11,7.72-10.42,11.99-14.94.96-1.02,8.35-8.58,9.01-7.74h-.01Z"/>
  <path class="st206" d="M537.99,1409.59c1.96-2.28,22.89-27.71,23.99-26.28-1.34,6.33-6.55,10.3-9.98,14.95l-14.01,11.33Z"/>
  <path class="st206" d="M326.99,1374.96c-3.67,5.26-9.37,10.78-14.08,14.83-3.25,2.8-7.17,6.2-10.92,7.85,7.15-8.38,15.18-19.24,25-22.68Z"/>
  <path class="st184" d="M353.99,1382.13c-4.48,7.68-9.51,15.39-15.47,21.53-2.52,2.59-6.21,7.06-9.53,7.12,7.44-8.46,14.45-17.32,21.59-26.17,1.03-1.28,1.44-3.04,3.41-2.49Z"/>
  <path class="st159" d="M752.99,1389.29c2.02-2.28,7.75-9.37,7-3.58-2.11,3.02-19.19,23.24-20.52,23.89-.46.23-1.64.31-1.48-.57,4.75-6.63,9.68-13.72,14.99-19.73h.01Z"/>
  <path class="st54" d="M624.99,1384.52l-3.98,6.58-17.02,14.9c-1.08-1.28,4.05-6.75,4.98-7.78,2.91-3.23,7.84-7.8,11.11-10.62.93-.8,4.06-3.99,4.9-3.09h.01Z"/>
  <path class="st28" d="M548.99,1379.74l-7.08,8.85-14.92,11.44c-.92-1.06,10.27-12.07,11.5-13.13,2.93-2.53,7.14-5.48,10.5-7.16Z"/>
  <path class="st180" d="M729.99,1391.69c-2.53,7.16-6.39,14.48-12.99,16.72-.68-.8,5.66-9.75,6.48-10.77.88-1.11,5.42-7.25,6.51-5.95Z"/>
  <path class="st13" d="M288.99,1368.99c-3.74,6.14-10.64,11.6-17,11.93,4.04-5.96,11.12-9.31,17-11.93Z"/>
  <path class="st199" d="M139,556.4c1.49-.76,3.78-.2,5.01-.75.95-.42,2.21-3.66,2.99-2.22-2.44,5.53-4.56,12.05-8.04,16.68-2.46,3.27-6.81,8.63-7.01,1.23l2.04-1.78-2.99-1.79,2.99-5.39-4.99,1.18.16-2.78c5.51-5.41,9.08-20.42,16.05-22.75,2.93-.98,4.87,1.31,7.77-3.14.48,5.65-6.12,6.98-8.46,10.79l-5.53,10.71v.02Z"/>
  <path class="st64" d="M125,549.23c2.36-12.37,11.25-22.99,18.98-31.07l-1.57,4.68s-17.41,26.38-17.41,26.38Z"/>
  <path class="st106" d="M170.98,536.09c1.9,2.57-13.7,25.25-16.98,27.47-.65-.87,7.48-14.77,8.6-16.6.79-1.29,7.15-12.55,8.39-10.87h-.01Z"/>
  <path class="st152" d="M180.99,428.54c-2.63-.91-1.76-3.63-1-5.97.7-2.16,6.91-11.94,8.5-13.16,1.29-.99,2.23-1.27,2.5.63.22,1.51-8.62,15.16-10,18.5Z"/>
  <path class="st133" d="M172.98,329.36c.74,3.25-7.08,17.85-8.49,17.9-1.29-1.36-1.81-1.43-1.02-3.56,1.48-3.99,6.58-11.51,9.51-14.34h0Z"/>
  <path class="st106" d="M453.98,307.86c1.61,1.9-3.35,8.1-4.19,9.92-2.45,5.27-4.66,12.81-7.58,17.23-.52.79-2.08,4.19-3.22,2.71-.68-.9,6.12-17.17,7.2-19.47.87-1.85,5.48-13.11,7.79-10.4h0Z"/>
  <path class="st37" d="M611.99,301.87c.24,1.83-.16,4.06,0,5.97h-1.99c.45-2.13-.42-3.19-1.01-4.78-1.3-3.53-8.21-24.6-6.99-26.29,1.95-.45,2.4,1.09,3.2,2.74,1.01,2.07,6.5,20.08,6.8,22.35h-.01Z"/>
  <path class="st44" d="M597.99,311.43c-1.8-8.15-4.75-15.27-6.35-22.9-.34-1.63-1.72-3.86.84-3.41,4.08,8.09,6.9,17.03,8.51,26.3.48,2.75,2.71,6.18-1.49,7.18-.16-2.58-.99-4.82-1.51-7.18h0Z"/>
  <path class="st144" d="M409.99,313.83c.15-.18,2.83.16,3.46-1.23l14.53-19.1c2.52,5.8-13.83,24.53-16.43,23.88-.86-.22-2.13-2.88-1.56-3.55Z"/>
  <path class="st69" d="M557.99,309.04c6.08,7.67,4.03,18.94,2.02,28.15-.43,1.98,1.03,3.49-2.02,2.92v-31.07Z"/>
  <path class="st206" d="M382.99,286.34c6.87-4.37,11.92-11.83,18.99-15.52,2.29,2.86-13.86,16.86-15.99,19.11-2.6.27-4.95-.88-3-3.58Z"/>
  <path class="st37" d="M392.99,294.7c-2.86,2.37-5.54,4.56-3-1.19,6.92-6.25,12.58-15.04,20.99-19.12.38,2.14-.92,2.93-1.97,4.21-3.95,4.74-11.41,12.31-16.02,16.11Z"/>
  <path class="st15" d="M356,248.1c-.19-.25-.46-2.81.67-3.6,2.31-1.6,15.65-7.76,18.08-8.07,1.24-.16,4.28-.37,4.22,1.52-.04,1.47-22.16,11.24-22.97,10.16h0Z"/>
  <path class="st71" d="M449,338.92c1.9-9.68,6.31-21.43,11.98-28.68-1.23,9.75-5.68,22.23-11.98,28.68Z"/>
  <path class="st201" d="M419.99,324.57c-.83-.9,9.42-17.32,10.58-19.01s2.67-3.88,4.41-4.88c.08,3.25-1.51,6.45-2.8,9.19-1.21,2.57-9.56,17.52-12.19,14.7Z"/>
  <path class="st69" d="M361.99,196.72c2.72-.55,4.48,1.46,3,3.57-.64.91-16.19,5.76-19,7.18l-2.01-3c3.69-1.04,7.61-4.06,11.01-5.37-.91-3.63,5.69-5.68,7-2.39Z"/>
  <path class="st123" d="M360.99,188.35l1,8.36c-1.29.26-5.45,1.79-7,2.39h-3c1.36-3.18.45-5.44-2-7.17.73-3.47,8.41-5.04,11-3.58Z"/>
  <path class="st109" d="M399.99,295.9c4.72-3.66,8.39-9.48,12.44-12.02.93-.59,2.85-2.19,3.56-.53-3.63,8.32-11.79,12.56-16.99,18.53-.8.71-2.49,2.2-3,.6,1.55-2.03,3.89-3.55,4-6.57h-.01Z"/>
  <path class="st201" d="M572.99,332.95h-2.99c.52-10.05-3.88-20-.99-29.87l2.87,12.68,1.12,17.18h-.01Z"/>
  <path class="st101" d="M533.99,318.61c.19,2.33-3.37.57-3.76,2.92-.1.56.98,4.82.84,7.25-.3,5.39-.68,14.67-5.06,17.32,1.82-7.8-1.43-28.77,7.99-27.47h-.01Z"/>
  <path class="st201" d="M369.99,220.6c-.64,1.11-19.22,6.84-21.99,5.99-.51-3.39.68-1.96,2.19-2.69,4.21-2.03,8.76-3.09,13.07-4.74,1.44-.55,4.94-3.3,5.23-3.29,1.03.05,2.07,3.74,1.49,4.73h0Z"/>
  <path class="st44" d="M509.98,318.61c-.14,9,.43,22.75-5.98,28.67,1.32-8.42,1.76-17.76,3.87-25.89.5-1.94-.82-3.38,2.12-2.78h0Z"/>
  <path class="st69" d="M373.99,231.36c-7.51.45-14.43,5.25-21.99,4.78,1.43-4.24,18.12-9.02,20.32-8.2,1.29.49,1.95,1.8,1.67,3.42h0Z"/>
  <path class="st64" d="M580,326.97c-.74-7.68-2.98-16.26-3.57-23.85-.52-6.68,1.62-5.63,3.08-.07,1.37,5.23,4.12,20.19.49,23.92Z"/>
  <path class="st201" d="M588.98,322.18c-2.4.49-1.89-.31-2.46-2.37-2.02-7.34-2.21-16.31-3.53-23.91,2.42-.45,2.64,1.82,3.3,3.81,2.09,6.35,2.58,15.67,2.69,22.47h0Z"/>
  <path class="st184" d="M542.99,315.03c.18,2.03-2.25,1.02-2.87,3.12-1.15,3.87-.01,13.78-1.85,20.55-.54,2.01.44,3.15-2.27,2.61.02-2.57-.13-5.17,0-7.76.19-3.62,2.34-12.97,2.08-15.43-.15-1.39-2.53.12-2.08-1.9l6.99-1.19Z"/>
  <path class="st58" d="M419.98,288.73c1.03,1.34-.9,3.72-1.47,4.8-1.45,2.75-12.17,17.72-14.52,15.49,3.35-6,7.86-13.36,12.5-17.91.64-.63,2.57-3.6,3.5-2.38h-.01Z"/>
  <path class="st82" d="M500.98,317.42c-1.75,8.36-.24,19.91-5.98,26.28.58-7.09.86-16.72,3-23.29.6-1.85.83-3.45,2.98-3h0Z"/>
  <path class="st53" d="M521.99,318.61c-1.5,6.7-.83,13.85-2.31,20.58-.49,2.21-.23,3.98-2.68,3.3-.22-6.88.24-13.86,1.29-20.61.51-3.3.73-3.74,3.71-3.27h-.01Z"/>
  <path class="st3" d="M491.98,317.41c-.92,7.67-2.05,18.26-7.98,22.7.69-5.62,2.38-14.18,4.49-19.12.79-1.86,1.25-4.03,3.5-3.57h0Z"/>
  <path class="st80" d="M615.5,262.45c1.85-.36,2.3,2.22,3.01,3.55,1.79,3.33,4.48,9.48,5.99,13.14.87,2.1,3.43,5.5.98,7.17-3.75-6.84-7.35-12.59-10.08-20.21-.33-.92-2.53-3.15.1-3.67h0Z"/>
  <path class="st69" d="M340.99,191.94c7.09-2.98,14.26-6.91,22-5.96.36.88-1.65,2.22-2,2.38-2.57,1.19-8.06,2.74-11,3.58-3.11.9-6.43,1.06-9.49,2.4l.49-2.4Z"/>
  <path class="st125" d="M462,336.53c-.55-.74,3.87-16.83,4.47-19.14.3-1.16,1-4.65,2.03-4.72,2.04-.17.67,3.53.63,4.28-.12,2.08-3.74,24.14-7.12,19.59h-.01Z"/>
  <path class="st69" d="M365.99,208.68c-4.91,5.96-13.19,8.35-20,8.34,2.2-2.81,7.4-4.86,10.47-6s6.26-2.37,9.53-2.34h0Z"/>
  <path class="st9" d="M620.99,240.93c1.45-2.61,1.67-5.4,5.5-4.83,7.77,1.17-4.3,18.73-5.5,4.83Z"/>
  <path class="st41" d="M619.99,293.51c-1.77-2.82-8.19-14.67-8.01-17.32.07-1.12,1.17-.56,1.99-.6l10.02,19.11c-2.86,2.19-2.52,1.17-4-1.19Z"/>
  <path class="st184" d="M479.98,317.41c.69.97-3.01,20.08-6.98,20.3.87-5.16,1.99-12.81,3.93-17.4.39-.93,1.86-4.58,3.06-2.9h0Z"/>
  <path class="st49" d="M385.98,248.1c.3.38.4,3.8-1.22,3.94l-17.77,12.77c1.22-2.35,3.24-4.8,5.07-6.48,1.33-1.22,13.37-10.95,13.93-10.23h-.01Z"/>
  <path class="st35" d="M653.98,246.89c-.7.88-8.4-7.31-9.46-8.4-1.62-1.67-4.78-3.29-4.53-5.93,3.06-.71,16.2,11.54,13.99,14.33h0Z"/>
  <path class="st69" d="M375.98,250.5c2.82,2.99-13.36,7.93-14.99,7.16-.43-2.77,1.06-2.68,2.54-3.53,1.63-.93,11.86-4.25,12.45-3.63h0Z"/>
  <path class="st69" d="M637.98,268.4c-.94,1.1-9.48-6.46-7.99-8.35,3.24,1.29,7.48,3.69,7.99,8.35Z"/>
  <path class="st150" d="M977.98,554.02c.86,1.02-4.69,9.18-5.63,10.6-1.29,1.94-2.03,5.46-4.36,4.92,1.4-3.68,3.92-9.56,6-12.54.61-.87,3.02-4.13,3.99-2.99Z"/>
  <path class="st87" d="M797.99,855.14c-2.67,3.87-5.54,6.31-8,9.56-1.88-.41.57-3.63,1.02-4.21.84-1.05,2.73-2.99,3.78-4.07.42-.43,3.03-3.41,3.19-1.28h0Z"/>
  <path class="st191" d="M522.99,273.19c-3.67,4.68-9.68,8.46-15,9.56v-1.19c4.96-2.72,10.09-5.52,15-8.36Z"/>
  <path class="st70" d="M863.99,293.51c.02.12,1.25.47.98,1.66-.25,1.11-5.45,8.16-6.97,9.09.25-3.51,3.86-8.45,5.99-10.75Z"/>
</svg>