<?xml version="1.0" encoding="UTF-8"?>
<svg id="Layer_1" xmlns="http://www.w3.org/2000/svg" version="1.1" viewBox="0 0 1024 1536">
  <!-- Generator: Adobe Illustrator 29.5.1, SVG Export Plug-In . SVG Version: 2.1.0 Build 141)  -->
  <defs>
    <style>
      .st0 {
        fill: #4a6321;
      }

      .st1 {
        fill: #e3b262;
      }

      .st2 {
        fill: #f7dd7f;
      }

      .st3 {
        fill: #456321;
      }

      .st4 {
        fill: #476320;
      }

      .st5 {
        fill: #47611f;
      }

      .st6 {
        fill: #3c561a;
      }

      .st7 {
        fill: #486322;
      }

      .st8 {
        fill: #3f5c1c;
      }

      .st9 {
        fill: #486421;
      }

      .st10 {
        fill: #d49e4e;
      }

      .st11 {
        fill: #46601f;
      }

      .st12 {
        fill: #466221;
      }

      .st13 {
        fill: #965412;
      }

      .st14 {
        fill: #dfa95d;
      }

      .st15 {
        fill: #466220;
      }

      .st16 {
        fill: #46611f;
      }

      .st17 {
        fill: #3d581a;
      }

      .st18 {
        fill: #23382b;
      }

      .st19 {
        fill: #4b6623;
      }

      .st20 {
        fill: #934421;
      }

      .st21 {
        fill: #476523;
      }

      .st22 {
        fill: #f6d67c;
      }

      .st23 {
        fill: #3c581b;
      }

      .st24 {
        fill: #141301;
      }

      .st25 {
        fill: #dca455;
      }

      .st26 {
        fill: #e5bc68;
      }

      .st27 {
        fill: #48611f;
      }

      .st28 {
        fill: #7d5819;
      }

      .st29 {
        fill: #e0a95b;
      }

      .st30 {
        fill: #3e5a1c;
      }

      .st31 {
        fill: #dfa758;
      }

      .st32 {
        fill: #466320;
      }

      .st33 {
        fill: #45611f;
      }

      .st34 {
        fill: #955312;
      }

      .st35 {
        fill: #42601e;
      }

      .st36 {
        fill: #476420;
      }

      .st37 {
        fill: #496521;
      }

      .st38 {
        fill: #e1ab5e;
      }

      .st39 {
        fill: #3e5a1b;
      }

      .st40 {
        fill: #945312;
      }

      .st41 {
        fill: #e0aa5e;
      }

      .st42 {
        fill: #45601f;
      }

      .st43 {
        fill: #486321;
      }

      .st44 {
        fill: #3d591b;
      }

      .st45 {
        fill: #7d5719;
      }

      .st46 {
        fill: #e0aa5c;
      }

      .st47 {
        fill: #496321;
      }

      .st48 {
        fill: #3c571b;
      }

      .st49 {
        fill: #476521;
      }

      .st50 {
        fill: #496320;
      }

      .st51 {
        fill: #d5a050;
      }

      .st52 {
        fill: #22382a;
      }

      .st53 {
        fill: #fce786;
      }

      .st54 {
        fill: #141400;
      }

      .st55 {
        fill: #426020;
      }

      .st56 {
        fill: #f5d97f;
      }

      .st57 {
        fill: #935212;
      }

      .st58 {
        fill: #f7db7f;
      }

      .st59 {
        fill: #c69646;
      }

      .st60 {
        fill: #4a6623;
      }

      .st61 {
        fill: #e0aa5b;
      }

      .st62 {
        fill: #dda556;
      }

      .st63 {
        fill: #486522;
      }

      .st64 {
        fill: #2a260c;
      }

      .st65 {
        fill: #486422;
      }

      .st66 {
        fill: #476120;
      }

      .st67 {
        fill: #45601e;
      }

      .st68 {
        fill: #dda557;
      }

      .st69 {
        fill: #496622;
      }

      .st70 {
        fill: #e0a85b;
      }

      .st71 {
        fill: #3d581b;
      }

      .st72 {
        fill: #46621f;
      }

      .st73 {
        fill: #dfaa5e;
      }

      .st74 {
        fill: #476220;
      }

      .st75 {
        fill: #486220;
      }

      .st76 {
        fill: #dea85c;
      }

      .st77 {
        fill: #191902;
      }

      .st78 {
        fill: #3c5619;
      }

      .st79 {
        fill: #3c571a;
      }

      .st80 {
        fill: #496421;
      }

      .st81 {
        fill: #49621f;
      }

      .st82 {
        fill: #3e591b;
      }
    </style>
  </defs>
  <path class="st54" d="M647.13,659.13c1.54-1,30.54,4.41,35.39,4.86,23.04,2.13,53.08,3.38,75.97,1,15.86-1.65,16.82-11.07,25.21-21.79,61.5-7.12,169.44-10.62,162.29-97.67-2.76-33.58-39.91-83.73-56.16-114.84-1.37-2.63-9.88-19.89-9.66-21.02.19-.97,8.58-12.83,10.3-16.68,6.1-13.67,5.33-25.29,14.12-37.88,10.55-15.12,37.85-38.96,36.44-58.56-.62-8.57-7.99-15.94-16.55-16.55-24.27-1.74-38.24,37.56-56.47,48.03,4.35-14.15,8.63-28.42,11.5-42.99,2.4-12.16,8.98-40.64-9.25-43.77-21.76-3.74-29.33,22.82-34.97,38.55l-9.79,39.19c-1.44-1.17-2.15-2.74-2.44-4.54-1.14-7.33-.19-17.82-1.07-25.93-1.74-15.91-6.1-37.56-26.5-36.94-22.04.67-12.93,30.37-12.45,43.9.44,12.14-.4,24.4-.05,36.54-3.6-2.45-6.99-5.65-10.99-7.5-3.52-1.63-13.98-3.38-15.42-4.38-.56-.39-2.37-9.91-4.14-13.06-6.72-11.94-22.79-19.46-35.43-12.06.12-12.25,3.4-24.26,4.03-36.46,2.5-48.44-14.12-92.61-52.58-122.5-28.5-22.15-64.29-37.41-99.95-43.05-.5-.16-.55-.53-.51-.99-31.35-4.37-64.31-5.33-95-1-10.12,1.14-21.16,3.27-31.19,5.31-27.82,5.65-55.58,15.93-80.8,28.69,12.75-78.07-94.51-127.22-137.57-55.94-33.32-16.94-74.12-7.18-95.07,23.81-12.76,18.88-17.81,45.46-6.37,66.12-37,.69-60.73,39.96-54.86,74.37,3.72,21.78,20.03,45.53,42.86,49.65-5.22,10.14-5.76,18.92-.82,29.31,1.67,3.51,9.17,12.57,9.66,14.41,1.44,5.39-4.18,8.8,1.97,19.96l37.18,44.82-19.59,44.59c7.88,8.92,10.93,26.71,22.56,34.4-14.97,22.31-33.27,42.46-48.18,64.78-34.53,51.69-42.2,101.8,27.44,124.01,27.24,8.69,57.24,9.95,85.69,9.81,3.97,21.31,23.2,19.79,40.59,18.89,14.83-.77,29.65-4.24,44.51-4.98-9.95,18.82-20.07,37.97-31.58,55.91-11.76,18.34-27.72,35.36-38.64,53.36-6.94,11.44-10.96,29.59-1.22,40.67,1.81,2.06,6.37,3.88,6.42,6.53.03,1.55-5.66,12.42-6.74,15.26-11.42,29.84-15.9,62.83-17.22,94.78-.35,8.39-1.04,23.04.08,30.9,1.73,12.24,22.21,22.51,31.72,28.28,6.82,27.49,20.41,63.39,17.19,91.81-1.04,9.22-15.96,32.71-20.47,43.53-16.7,40.07-20.18,83.08-25.73,125.76-16.37,6.63-27.12,28.87-32.51,45-15.17,45.34-11.52,65.64,23.69,97.72,37.59,34.25,104.64,57.73,154.79,43.77,46.64-12.99,51.21-69.51,16.75-99.31-6.04-5.22-12.84-7.18-17.79-10.94-.91-.69-11.7-10.41-12.2-11.07-1.89-2.51-2.15-7.45-5.57-11.43-2.14-2.5-7.84-5.48-8.47-6.53-1.31-2.17,0-6.38-.74-9.26-.66-2.55-5.34-6.28-5.29-8.82.1-5.53,6.39-23.19,8.51-29.44,19.87-58.58,63.47-130.57,70.01-189.99,1.73-15.72.73-31.72,2.02-47.48,7.34,1.52,22.99-8.18,22.99-15.51v-36.5c11.72,13.66,20.63,29.57,32.03,43.47,3.8,4.64,11.29,14.53,16.94,16.05,9.09,2.45,16.46-3.76,24.88-5.38,14.25,18.4,32.5,33.28,47.13,51.39,4.93,6.1,13.75,17.6,14.81,25.23,1.08,7.75-9.31,31.15-11.71,40.82-8.34,33.6-6.29,69.94-8.13,104.37-2.84.4-6.26.62-8.94,1.55-19.39,6.75-32.28,63.5-33,82-.36,9.36,2.83,14.79,9.34,21.14,30.37,29.61,131.84,57.38,174.11,59.39,43.33,2.06,107.07-14.3,88.05-71.05-10.18-30.38-30.04-36.32-55.53-49.47-7.02-3.62-12.99-9.1-20.73-11.29-1.56-.44-4.14.18-5.09-.4-.33-.2-2.17-5.05-3.64-6.86-2.73-3.36-9.12-6.07-10.58-8.41-1.3-2.09-1.51-6.28-2.75-9.25-3.48-8.33-12.03-14.89-21.19-15.31,10.46-39.25,23.85-78.1,32.52-117.98,9.15-42.14,10.08-60.24-9.99-99.03-11.69-22.6-26.69-43.3-40.39-64.67,4.61-5.75,6.8-10.02,5.78-17.73-.91-6.84-20.53-35.89-25.68-43.31-7.32-10.55-15.86-20.3-23.11-30.92l9.88-7.86c8.16-10.45,2.59-37.34,2-50.5.25-8.2.25-16.37,0-24.5.99-7.96.99-15.62,0-23,1.3-3.49,1.97-7.32,2-11.5l27.13-97.87ZM699.98,527.47c3.16-9.94,12.82-15.5,20.32-21.91,9.76-8.35,19.12-18.09,26.39-28.67,4.17-6.07,8.19-12.25,12.42-18.29,3.25-4.63,5.62-9.27,6.35-14.94,1.67-13.04,1.45-26.74,1.49-39.87.01-4.63,5.18-5.93,8.08-3.91.62.25,1.22.65,1.78,1.25,3.65,3.91,6.16,9.62,10.7,12.53,4.07,2.62,8.91,3.58,11.87,7.76,2.78,3.94,3,9.13,3.92,13.72,1.12,5.6,2.64,11.09,3.64,16.74,2.14,12.09,7.87,22.84,11.49,34.47,1.94,6.24,2.33,12.57,3.66,18.92,1.41,6.73,3.74,13.2,6.36,19.54,1.13,2.73-1.24,5.23-3.49,6.15-9.55,3.88-20.26,5.86-30.59,4.9-4.48-.42-8.36-2.14-11.43-5.46-1.56-1.69-2.68-3.6-5-4.29-2.33-.69-5.23.07-7.53.6-5.03,1.16-9.76,2.47-14.94,2.74-6.17.31-12.36.34-18.54.6-5.66.23-11.28.47-16.83,1.63-5.05,1.06-10.09,2.25-15.28,2.11-3.12-.08-5.84-3.14-4.82-6.33ZM384.56,542.64c-6.01.52-11.99,0-17.99-.42-6.46-.46-12.91-.43-19.39-.6-13.44-.34-26.86-1.29-40.3-1.77-13.42-.48-27.14-1.15-40.56-.43-6.3.34-11.51,2.61-17.54,4.02-6.23,1.45-12.71.1-18.82,2.11-3.73,1.23-7.04-2.62-6.15-6.15,2.8-11.09,9.56-20.11,15.08-29.91,5.73-10.17,8.79-21.77,12.31-32.82.69-2.17,2.35-3.24,4.12-3.44.68-.97,1.71-1.7,2.85-2.07,1.35-2.32,3.22-4.25,5.92-5.43,2.31-1.01,5.57-.83,6.84,1.79,2.53,5.26,5.04,10.78,9.05,15.1,4.22,4.55,9.71,8.14,15.34,10.69,12.73,5.77,27.87,6.5,41.5,4.13,4.38-.76,9.76-3.1,14.06-.96,4.66,2.32,7.39,8.46,10.28,12.48,3.69,5.15,7.09,11.46,12.53,14.93,5.64,3.6,11.12,5.56,15.18,11.21,2.42,3.36-.93,7.23-4.32,7.52Z"/>
  <path class="st2" d="M473,91l-.51-.99c32.14-3.17,64.48-3.08,96.52,1.01-.12.46-1,.83-1.01.98-21.79-1.95-43.63-3.76-65.57-3.01-8.89.3-20.65,1.02-29.43,2.01Z"/>
  <path class="st53" d="M618,816c-.37-8.23,0-16.55,0-24.5v-23c0-2.63,2.03-8.34,2-11.5l-2,59Z"/>
  <path class="st64" d="M767.06,647.04c-.35.57.14,2.73-.98,4.54-3.24,5.24-10.21,2.38-13.8,2.69-31.74,2.78-61.45-1.38-93.47-6.6-3.65-.6-3.99-1.51-4.26-1.51-.69,0-6.36,1.15-6.52.86-1.82-7,2.1-14.97,2.47-21.45.22-3.94-.59-23.01-2.74-25.32-1.59-1.72-5.86-.35-6.62.94s1.36,5.25,1.37,7.31c.03,13.13-4.85,40.02-7.78,53.73-6.47,30.34-17.76,57.51-24.26,87.74-7.17,33.35-3.25,62.97-.49,96.54,1.19,14.48-2.68,16.17-14.31,22.65-52.56,29.29-125.91,35.33-184.47,26.1-10.06-1.59-35.3-5.32-43.4-9.31-1.37-.67-1.27-2.05-2.3-2.96-.92-.17-.24,1.38-.67,1.75-1.12.97-25.13-6.54-28.38-7.7-20.4-7.28-45.11-19.5-62.68-31.38-9.68-5.71-18.87-13.13-27.57-20.42.23-3.18-2.18-7.1-2.27-9.77-.49-15.35,14.74-28.57,22.73-39.81,17.56-24.69,43.14-61.74,54.87-89.66.52-1.24.34-3.87.47-4.02.29-.34,4.53,1.08,4.82.83.62-.54.59-2.45,2.18-3.31.63-.34,12.85-3.02,13.93-3.07,1.67-.08,2.49,1.89,3.04,1.55.09-.05-.34-1.31.77-1.93,4.52-2.52,12.85-3.5,17.94-5.86,3.9-1.81,4.66-5.17,9.3-5.21-2.91-7.37-5.64-2.41-11.01-1.41-34.49,6.41-70.14,9.02-105.43,13.33-4.42-2.08-13.78.96-17.59-1.37-1.91-1.17-.35-3.52,1.05-4.07s2.84.63,4.92.04c.45-.13,6.98-5.08,7.49-5.57,21.6-20.63,31.65-73.37,17.75-100.62-4.51-8.83-9.93-10.12-17.98-14.06-1.34-.66-2.76.65-2.19-2.25,3.29.3,8.44.78,11.53.53,42.2-3.42,87.6-9.09,129.69-1.26,3.99.74,34.78,8.18,35.78,9.74.33.52-.88,1.91-.89,2.51s1.74.32,1.91,1.13c1.46,7.01,2.12,15.22,4.25,22.56,5.18,17.77,23.4,34.24,39.4,42.6,7.38,3.85,25.11,11.53,32.86,12.17.46.04.3-1.71,1.08-1.93,7.51-2.21,17.85-1.91,27.36-5.55,2.05-.78,6.22-2.69,4-4.49,6.49.29,8.63-4.17,12.49-8.03,7.94-7.94,14.49-16.72,19.6-27.4.65-1.35.79-3.09.95-4.58,3.89-.1,10.05-.61,13.96-1.42,31.21-6.51,57.15-18.25,84.91-33.18,2.61-1.4,6.31-5.08,8.86-6.14,8.72-3.59,33.41-4.88,43.8-6.16,12.95-1.6,37.26-6.24,48.91-4.08,4.7.87,10.04,17.93,11.26,22.74,2.79,10.99,4.26,30.69,2.37,41.74-2.26,13.29-5,26.88-11.59,39.51-.72,1.38-3.36,6.34-4.04,7.05-.9.95-2.36-.14-2.42-.04Z"/>
  <path class="st34" d="M351.01,467c-2.51,4.6-1.66,15.27-5.06,18.45-1.51,1.42-8.64,4.43-10.94,5.06-24.06,6.68-52.66-13.02-58.08-36.9,3.08-2.61,6.13-8.31,7.92-12.26,1.24-2.74,4.76-14.43,5.39-15.11,1.32-1.43,8-3.21,10.23-3.3,8.3-.37,13.26,4.96,18.5,10.56-19.19,7.59-18.25,38.14,4.01,39.49-2.51-8.58-10.3-12.46-7.52-23.03,3.61-13.7,11.4,1.18,16.51,2.64,5.76,1.65,5.9-2.96,4.24-7.33-1.03-2.72-10.45-19.03-12.4-21.59-6.36-8.38-17.3-11.03-27.37-10.73-2.03.06-5.92,2.32-5.46-.45.75-4.53,8.94-17.58,13.53-18.47,15.81-3.07,33.19,13.97,43.47,23.97-.19-13.36-2.68-26-2.03-39.54,3.05-63.55,53.79-100.38,52.08-168-.09-3.73-1.57-8.56-1.64-12.39-.02-1.22.1-1.28,1.09-2.04,1.29.92,2.76,1.38,4.3,1.69,46.75,9.52,100.85,18.6,145.71-2.72,15.22-7.23,34.19-22.18,38.57-38.92,35.51,3.17,71.45,20.51,93.9,48.45,25.38,31.58,23.72,65.95,28.03,103.97.39,3.42,1.02,11.1,2.25,13.75.91,1.98,12.93,8.88,16.27,11.73,49.16,41.89,46.58,106.92,5.5,153.55-88.39,100.33-215.54,116.67-328.75,45.7-30.72-19.26-34.95-33.66-50.24-63.76-.48-.94-.63-2.37-2.03-2.46Z"/>
  <path class="st34" d="M153.23,418.74c-1.09,5.44,2.25,3.2,4.81.81,11.98-11.18,18.78-20.11,33.65-29.35,11.85-7.37,23.55-11.48,37.4-13.68l.91-3.51h-18.5c-3.77-8.34-5.27-18.09-8-27-2.36-7.69-11.88-30.59-8.98-36.99,1.85-4.08,8.38-4.83,12.23-3.25,7.92,3.25,16.66,27.05,19.25,35.24-2.54,1.5-4.43-.54-5.65-6.1-1.23-1.35-7.84,1.65-8.03,2.46-.09.38-.11,6.89.04,7.64.93,4.73,5.96,5.82,10.09,5.22,1.55-2.15,3.86-4.15,5.56-1.21,2.76,9.52,4.72,19.32,7.71,28.79.93,2.93,5.2,10.9,5.21,12.71.02,3.08-7.27,7.93-9.75,11.17-5.43,7.1-10.71,19.12-5.67,27.32,5.3-10.63,10.83-21.25,21.19-27.8,3.84-2.43,14.13-5.8,16.28-7.72,2-1.78,5.42-11.61,8.6-15.4,9.9-11.79,28.68-15.24,39.39-2.55l-12.99,9.95c-21.45,18.09-13.53,33.6-24.11,54.89-6.06,12.18-16.09,22.54-29.65,25.86-4.23,11.18-7.27,22.83-11.48,34.01-8.76,23.25-23.51,66.18-36.52,85.48-3.39,5.03-9.73,8.02-8.22,15.27,14.97-4.39,24.61-22.02,30.16-35.83,11.85.21,24.53-3.8,36.39-2.22,7.21.96,11.64,16.3,12.34,22.66,2.8,25.21-4.21,54.4-21.58,73.21-6.79-.45-14.28.93-20.81.99-34.61.28-123.22-5.66-127.54-52.26-4.28-46.11,49.7-93.54,71.06-130.54,8.37,4.56,21.13,6.83,28.96.5-2.54-2.91-6.79-1.95-10.03-2.95-12.12-3.75-20.49-11.02-27.78-21.22-5.21-7.28-8.2-18.32-13.14-23.86"/>
  <path class="st34" d="M816.24,328.76c1.59,1.12,8.24,1.04,10.8,1.69,13.22,3.35,24.32,9.17,35.88,16.12,2.16.9,14.16,11.18,15.07,10.42,3.93-3.28-10.46-12.76-8.52-16.97.73-1.59,12.37-11.13,15.05-14.01,8.74-9.4,25.03-36.35,38.07-36.95,8.01-.37,9.57,6.6,8.19,13.22-3.22,15.41-31.04,39.52-39.29,54.71-4.72,8.68-4.44,16.78-7.45,25.55-5.45,15.92-13.2,21-23.95,32.05-4.79,4.92,1.17,5.94,6.11,4.1,2.84-1.05,4.24-4.41,6.68-1.06,2.68,3.69,6.28,14.02,8.95,19.05,16.68,31.34,55.82,86.3,55.21,120.77-.63,35.36-32.8,53.08-62.82,61.27-27.54,7.51-57.74,11.36-86.21,12.28,10.6-27.9,9.88-57.27,2.99-85.99l41.43-5.87c4.18,8.32,8.82,15.87,16.09,21.85,3.22,2.64,13.68,10.81,16.47,4.51l-9.5-9.48c-18.43-20.93-20.18-51.15-27.55-77.45-5.16-18.44-12.18-36.47-16.96-55.04,0-.64,11.18-2.2,11.01-6-.33-1.6-10.21-2.71-12.55-3.46-19.84-6.42-39.77-38.89-49.42-56.58-1.34-2.45-6.14-7.67-6.53-9.35-.71-3.07,3.75-11.32,2.66-15.46,1-3.24,9.33.14,11.52,1.16s11.76,7.24,13.28,8.72c3.99,3.9,3.86,9.54,11.03,12.97,5.87,2.81,20.95,5.01,25.01-1.02-8.22-1.97-22.16-5.69-23.76-15.23-1.87-11.19,1.59-28.21.8-40.8-.63-10.03-4.03-19.83-3.09-30.01.58-6.34,4.02-10.04,10.11-6.01,7.38,4.89,11.06,22.67,11.92,31.07.64,6.2-1.03,32.22,3.26,35.25Z"/>
  <path class="st18" d="M466,909c-3.01,20.67-15.88,39.66-32.5,51.98-2.22-2.33-5.1-4.9-7.76-6.59-1.82-1.16-7-3.56-9.66-5.03-3.33-1.84-1.95-.82-4.82-2-7.83-3.2-15.53-7.57-24.26-6.36-2.59,2.69,6.41,5.6,7.95,6.57,4.07,2.57,8.73,7.35,14.26,8.51l20.13,14.15c1.47,5.65.25,11.54.67,17.25.63,8.42,4.51,25.58-2.2,32.25-.6.59-12.09,2.16-14.24,2.27-47.17,2.37-107.89-.87-150.93-21.15-6.79-3.2-29.6-14.75-31.4-21.6l1.77-44.75c3.54-27.03,5.65-52.9,16.8-78.2,1-2.26,4.06-9.62,6.07-9.86,14.63,7.82,27.97,17.9,42.9,25.26,15.28,7.53,34.11,14.59,50.43,19.57,37.9,11.58,77.15,18.38,116.79,17.71Z"/>
  <path class="st40" d="M637.83,967.15c17.08,27.26,38.1,54.21,50.35,84.17,14.46,35.37,3.94,68.67-5.03,104.33-4.11,16.36-9.71,32.42-14.06,48.71-25.34,12.58-56.26,12.85-82.08,1.12-5.44-2.47-18.29-9.5-18.07-15.92.31-8.77,2.57-23.9,4.5-32.61,4.95-22.37,21.33-40.09,7.37-63.27-17.86-23.85-39.08-44.81-60.21-65.68l-.61-1.98c7.68-3.48,14.41-9.34,21.69-13.82,29.61-18.25,63.2-34.29,96.13-45.05Z"/>
  <path class="st34" d="M406.99,1032c1.64,35.59-3.23,69.37-15.98,102.51-11.78,30.64-26.08,60.7-39.21,90.79-1.1,2.51-2.69,9.72-4.07,11.43-.96,1.2-11.59,4.15-13.88,4.62-24.53,5-61.06.01-81.32-15.38-2.08-1.58-10.35-8.58-10.53-10.49-.36-3.78,4.26-23.35,5.46-28.52,3.61-15.54,9.03-32.84,15.68-47.32,11.48-24.98,19.97-29.33,17.84-60.13-1.49-21.64-10.11-45.67-15.98-66.51,34.4,14.35,71.57,17.5,108.48,19.01,1.93.08,3.84.96,5.97,1.03,9.12.29,18.58.33,27.53-1.04Z"/>
  <path class="st52" d="M597.83,880.15c6.41,9.6,14.36,18.08,20.99,27.54,7.19,10.27,16.25,23.74,22.55,34.45,1.03,1.75,3.85,7.13,4.1,8.77,1.01,6.53-6.76,5.86-10.91,7.15-17.84,5.55-35.08,13.01-51.91,21.09-31.4,15.06-60.72,33.63-90.35,51.7-1.46.22-7.34-6.28-8.71-7.92-10.04-12.08-22-29.74-31.02-42.98-.53-.78-2.73-4.71-2.56-4.92,18.08-6.11,36.78-14.16,52.71-24.79,1.44-.96,3.2-2.18,4.48-3.29,1.14-.99,3.24-2.23,2.8-3.92-2.59-2.11-29.72,11.88-35,11l.96,1.92c-11.33,4.54-23.09,7.38-34.96,11.06,17.17-15.47,30.62-34.22,33.04-57.94,20.92.1,41.61-2.92,61.97-7.53,10.9-2.47,26.81-6.1,36.98-10,3.96-1.52,22.49-12.71,24.84-11.37Z"/>
  <path class="st45" d="M615.9,1293.07c.28.19,3.84,5.22,3.9,5.56.33,1.63-3.41,8.35-3.44,12.04-.05,5.16,4.76,12.91,9.36,15.1,2.73,1.3,6.92.77,8.31,1.69,1.76,1.15,2.39,9.63,8.27,12.73,14.27,7.53,25.68-8.21,36.17-15.22,12.29-8.22,29.18-15.18,44.07-15.98,1.97-.11,6.69-.35,7.46,2-1.73.04-3.56-.24-5.26.24-27.64,7.76-49.19,26.68-59.51,53.49-1.76,4.57-.64,10.61-6.57,10.21-7.6-.51-22.07-4.94-30.07-7.01-27.8-7.2-68.68-21.09-91.82-37.96-9.72-7.09-9.21-11.51-6.47-22.18,3.41-13.33,10.91-32.57,22.23-40.77,2.01,4.17,2.07,8.93,3.72,13.26,6.84,17.98,30.92,24.55,48.05,18.51,2.22-.78,10.77-6.31,11.62-5.71Z"/>
  <path class="st28" d="M222,1296.5c1.44,11.63,12.09,23.67,22.32,28.68,2.54,1.24,11.95,3.62,12.45,4.05.18.15,1.87,4.06,1.87,4.29,0,.8-3.48,4.53-3.71,8-.45,6.78,1.92,10.37,7.15,13.89,2.01,1.35,7.62,3.29,7.92,3.6.36.37-1.94,5.5.39,9.99,9.4,18.17,28.32,1.05,40.33-3.77,15.74-6.31,40.7-9.25,57.32-5.79,4.94,1.03,9.12,3.4,13.94,4.57-.75,2.57-1.52,1.35-2.78,1.25-4-.3-8.84-2.01-12.74-2.25-24.68-1.53-52.91,6.59-70.51,24.46-2.68,2.72-14.46,19.04-15.65,19.42-3.64,1.19-23.47-11.24-27.66-14.06-19.36-13.09-49.37-40.8-51.68-65.32-1.48-15.7,11.25-36.84,21.01-48.51.49,5.56-.67,12.08,0,17.5Z"/>
  <path class="st61" d="M671,1378c3.42-16.82,11.63-30.82,24.52-41.97,22.24-19.22,54.91-28.97,73.89.06,2.73,4.18,9.26,16.22,7.85,20.61-4.03,12.55-24.5,19.63-36.21,21.85-23.36,4.43-46.65,1.79-70.05-.56Z"/>
  <path class="st10" d="M779.99,1372c-.07,12.11-9.01,20.23-18.69,25.8-45.84,26.37-120.98,3.77-167.82-12.79-16.17-5.72-64.56-23.46-68.25-41.74-.36-1.78-.65-10.25,2.16-9.18,29.6,22.19,65.38,34.86,100.98,44.03,40.23,10.36,95.9,20.3,134.99,2.73,5.81-2.61,10.74-6.55,16.64-8.85Z"/>
  <path class="st29" d="M289,1411.98c14.53-30.41,55.19-45.38,87.04-38.52,4,.86,14.34,4.31,17.33,6.67,3.58,2.83,7.29,17.02,7.27,21.54-.07,13.49-18.52,20.82-29.57,22.88-27.51,5.12-56.49-3.03-82.06-12.57Z"/>
  <path class="st51" d="M201,1354c5.37,6.34,9.48,14.46,15.49,21.01,37.62,41.05,119.77,76.23,173.57,52.54.66-.29,6.41-4.74,4.94-1.07-3.28,8.17-15.3,16.67-23.45,19.55-46.23,16.39-121.58-12.12-155.05-46.03-6.93-7.02-20.61-24.29-21.49-34.01,0-3.94-.2-7.95-.58-12.04-.47-9.07,1.72-9.05,6.58.04Z"/>
  <path class="st57" d="M440.01,564c28.82,12.25,59.82,23.1,91.45,25.04,5.52.34,18.87-1.23,22.9.1,6.56,2.16-6.61,18.55-9.33,21.38-34.44,35.93-104.5-.09-105.02-46.53Z"/>
  <path class="st38" d="M632,1251c-7.81,3.66-17.78,13.22-19.56,21.94-.7,3.45.06,6.61-.46,9.54-.67,3.72-7.79,6.79-11.18,7.82-13.76,4.18-34.69-1.14-35.84-17.76-.49-7.04.56-18.67,1-26.08.14-2.42.45-5.53,2.03-7.47l2.38-.52c16.94,11.46,38.65,12.99,58.64,10.64l2.98,1.88Z"/>
  <path class="st29" d="M239,1244c.62-3.86-.12-9.89,1.49-13.99,27.75,22.5,67.4,30.77,101.5,19,.68.86-5.24,13.68-5.99,16-.44.66-.91,1.29-1.46,1.82s-1.06.98-1.65,1.16c-24.75,7.11-58.19,5.58-80.13-8.71-5.46-3.55-13.14-8.7-13.76-15.27Z"/>
  <path class="st60" d="M336,1265c-1.9,5.92-3.31,12.92-5,19l-.71,1.67c-1.74,2.09-15.36.89-18.29.33-10.04-2.26-17.4-1.19-27-2-14.64,2.58-27.17-2.74-39.29-10.49-3.48-2.22-9.6-7.02-10.71-10.51.75-6.24,3.07-13.25,4-19,14,18.18,36.23,24.92,58.51,25.99,13.44.65,25.7-1.12,38.49-4.99Z"/>
  <path class="st40" d="M163,344l1.1,2.73c-8.12,4.91,1.04,19.12,4.36,6.33l2.54-.07c6.74,8.24,13.79,17.79,19.71,26.51-.14,1.72-15.48,12.21-17.77,13.01-1.15.41-1.56.71-2.49-.45-8.82-10.58-16.82-21.84-25.49-32.55-3.63-4.48-9-8.74-12.39-13.61-15.15-21.77,7.87-19.05,21.33-10.33,4.35,2.82,5.73,5,9.09,8.41Z"/>
  <path class="st57" d="M870,281l-1.1.83c-13.46-2.14-17.77,12.68-2.9,15.17-1.27,4.71-8.28,33.17-11.6,33.93l-18.3-6.02c1.55-19.16,6.88-40.82,15.04-58.27,3.06-6.54,12.39-24.18,19.71-11.99,5.2,8.66,1.01,17.75-.85,26.35Z"/>
  <path class="st70" d="M568,1222c-.74-5,.04-10.81.49-15.99,27.65,19.84,65.41,25.16,96.5,10,.5.63-4.32,12.81-4.99,15l-2.45,2.94c-23.47,7.5-50.16,9.32-73.31-.31-3.91-1.63-14.29-6.27-15.68-9.55-.28-.66-.44-1.36-.56-2.09Z"/>
  <path class="st69" d="M660,1231c-.65,2.15-2.59,13.12-3.18,13.82-7.87,1.88-17.46,2.73-24.82,6.18-8.15.21-16.28,1.53-24.54,1.04-10.86-.64-31.7-5.23-39.46-13.04-.51-.51-1.95-.91-1.98-1.63l1.98-15.37c26.07,20.09,62.03,19.54,92,9Z"/>
  <path class="st59" d="M681,1273.99c-14-.11-28.68,5.07-41.01,11.49-2.55,1.33-10.08,7.26-11.65,7.41-3.47.34-6.14-12.59-6.12-15.4.23-25.72,56.15-32.86,58.78-3.5Z"/>
  <path class="st59" d="M333.99,1314c-22.77-5.87-48.04,1.53-68.46,12.03-15.59-40.2,59.7-43.02,68.46-12.03Z"/>
  <path class="st46" d="M285,1284c-11.71,2.05-23.48,7.35-28.88,18.62-2.32,4.85-2.39,9.74-4.62,14.35-7.84-3.87-16.41-10.84-18.05-19.93s.36-24.14,1.55-34.05c5.24,2.54,9.1,7.28,14.08,10.42,11.88,7.48,22.48,9.44,35.92,10.58Z"/>
  <path class="st73" d="M714,1301.99c-13.38,1.58-27.78,7.05-39.12,14.38-4.9,3.16-26.86,24.87-30.67,11.91-3.61-12.27,25.24-25.39,34.27-28.31,8.79-2.85,24.31-5.92,32.81-1.75,1.49.73,3.03,1.88,2.72,3.78Z"/>
  <path class="st14" d="M346,1330.99c-20.99-4.71-41.8-1.6-60.29,9.22-5.06,2.96-14.72,13.39-19.78,6.36-6.01-8.35,15.13-18.13,20.81-20.34,17.36-6.75,46.07-11.84,59.26,4.75Z"/>
  <path class="st76" d="M306,1342c15.2-3.67,29.94-3.49,44.23.54,9.06,3.88,7.99,5.7-3.23,5.46-6.56,1.61-13.62,1.16-20.37,2.13s-15.34,3.21-21.67,6.33c-4.54,2.23-26.34,19.63-25.85,5,.26-7.72,20.11-18.29,26.89-19.46Z"/>
  <path class="st41" d="M671.78,1282.28c4.36-.49,10-.71,14.28.17,1.84.38,8.44,2.83,4.96,5.07-1.33.86-11.67,2.31-14.78,3.22-10.31,3.04-20.34,7.46-28.72,14.28-4.41,3.6-13.89,18.11-19.42,9.38-7.36-11.63,17.04-23.17,25.23-26.56,5.75-2.38,12.23-4.85,18.44-5.56Z"/>
  <path class="st13" d="M744.99,338l-26.51-20.98c-3-14.47,7.72-19.4,19.02-11.02,10.46,7.77,11.32,20.3,7.49,32Z"/>
  <path class="st20" d="M302,170.01c-10.75,12.64-20.42,26.13-29.42,40.07l-15.57,28.92c5-25.04,22.04-50.65,41.49-67,1.12-.94,1.63-2.43,3.5-1.99Z"/>
  <path class="st0" d="M228,349c-2.03-.4-4.44,2.9-4.71,2.96-6.15,1.39-12.31-1.03-13.08-7.69-.31-2.63,2.79-6.69-1.2-6.29v-.97c3.23-1.77,5.13-3.8,9.17-4.37,6.38-.9,3.25,5.88,7.82,8.36.83,2.62,1.26,5.43,2,8Z"/>
  <path class="st19" d="M870,281c-1.18,5.48-2.54,10.61-4,16-1.94,4.34-10.7-3.54-11.48-4.95-.35-.63.43-4.34.76-5.28,2-5.82,9.47-10.05,14.73-5.77Z"/>
  <path class="st7" d="M171,353c-3.35,3.7-1.2,8.4-7.46,6.97-5.71-1.3-5.13-9.64-3.5-13.96,2.67,1.93,1.91-.26,2.97-2.01,3.25,3.31,5.09,5.44,8,9Z"/>
  <path class="st1" d="M331,1284c-.51,1.82-.41,6.26-2.63,6.93-1.25.38-13.17-4.21-16.37-4.93l19-2Z"/>
  <path class="st56" d="M306,1342c14.02-2.89,32.6-5.91,45.98.52,2.4,1.15,7.66,3.58,5.51,6.48-3.59.35-7.03-.38-10.49-1.01-1.12-.2-3.24.79-2.99-.99l11.99-.51c-3.71-2.59-8.19-4.43-12.61-5.38-9.09-1.96-28.76-.62-37.38.87Z"/>
  <path class="st26" d="M195.93,358.03c1.1.82,3.46,11.7,4.06,13.97"/>
  <path class="st22" d="M195,1366c-1.74-7.52-.77-15.33-.99-22.99,2.34-.51,1.61.3,2.24,1.28,1.78,2.77,2.92,6.83,4.76,9.71-.04-.04.19,1.51-1.01.53-1.9-1.54-1.8-5.59-3.98-6.52-2.22,5.61-.53,10.9,0,16.45.15,1.59-1.03,1.45-1.02,1.54Z"/>
  <path class="st71" d="M537.79,809.24c-.27-.19-1.32.68-1.55.47-8.5-7.54-9.23-23.57-5.22-33.73l1.98,1.02-.13-3.57c4.92-2.08,8.46-7.2,13.87-8.2,16.81-3.13,26.96,6.75,28.88,22.43,2.57,20.94-16.78,34.45-35.37,24.59-1.74-.92-1.89-2.62-2.46-3.01Z"/>
  <path class="st82" d="M427.35,694.65c-3.44-3.72-5.61-14.83-4.78-19.79,2.66-15.96,16-21.88,30.98-19.89,5.06.67,11.71,5.12,14.91,9.06,3.41,4.19,3.59,14.11,2.27,19.16-1.61,6.17-5.44,11.61-10.77,15.27-3.15,2.16-12.58,4.79-16.43,4.59-4.23-.23-13.34-5.32-16.18-8.39Z"/>
  <path class="st44" d="M335.65,762.35c16.79,14.44,8.53,39.65-13.19,44.14-26.02,5.38-34.38-31.96-13.67-44.16,6.86-4.04,20.49-5.45,26.86.02Z"/>
  <path class="st44" d="M424.24,836.82c.17.29,1.87.76,2.61,1.79,7.04,9.77-2.63,29.36-15.35,30.44-3.93.33-12.55-1-15.39-3.66-4.8-4.49-7.27-10.13-7.13-16.85.11-5.3,1.31-9.25,4.6-13.48,6.5-8.33,22.9-10.8,30.03-2.12,1.9,2.31.37,3.39.64,3.87Z"/>
  <path class="st30" d="M398.34,771.65c-7.83-5.28-9.66-15.89-6.62-24.43,5.73-16.07,27.69-16.88,36.56-2.92,1.37,8.2,3.86,15.29-2.29,22.2-6.45,7.25-19.08,10.93-27.66,5.15Z"/>
  <path class="st77" d="M518.52,748.54c-2.79,2.98-6,6.6-9.3,9.46-2.25,1.96-7.5,4.25-9.29,6.46-.92,1.15-.71,3.01-1.05,3.44s-9.78-.09-6.88,4.09c-9.73,1.47-17.91,9.47-26.47,14.04-15.51,8.27-37.63,15.75-54.04,18.77-2.49.46-8.54-1.27-11.49.21-.16-.25-.15-5.75,0-6.01.05-.09,1.14.64,2.03.37,11.29-3.4,22.74-5.55,33.95-9.88,19.42-7.51,37.62-18.86,54.7-27.48,7.41-3.74,15.65-10.73,21.28-15.54,2.13-1.82,20.86-18.89,22.03-17.47.59,3.72-3.7,4.72-5.05,6.48-3.33,4.36-6.31,8.68-10.42,13.06Z"/>
  <path class="st82" d="M708.69,605.68c-5.95,4.56-17,2.35-21.72-3.16-8.69-10.15-.4-30.57,12.8-32.34,17.69-2.37,24.9,17.43,14.23,30.31-.3.36-5.01,4.95-5.31,5.18Z"/>
  <path class="st71" d="M611.69,647.7c-6.69,7.45-22.61,6.21-27.44-3.45-12.16-24.29,19.49-40.38,30.02-20.23,2.86,5.48,1.47,19.17-2.57,23.67Z"/>
  <path class="st39" d="M563.77,687.18c20.57-2.05,23.37,29.84,2.95,36.05-7.63,2.32-18.02-2.36-19.48-10.97-1.98-11.61,3.95-23.83,16.53-25.08Z"/>
  <path class="st30" d="M337.23,595.66c-.29-.12-.11-1.51-.7-1.49-.98.03-1.62,1.14-3.48.38-6.51-2.67-10.27-13.3-9.02-19.86.13-.68,1.43-.75,1.52-.96,2.75-6.47,5.26-11.13,13.17-12.48,21.03-3.61,26.91,22.51,9.74,32.73-2.43,1.45-8.67,2.73-11.25,1.69Z"/>
  <path class="st23" d="M405.66,608.34c7.96,9.43-2.35,30.77-18.3,21.26-3.03-1.81-6.03-10.38-5.22-13.11.15-.52,1.49-.46,1.54-.67.22-.8-.59-1.89-.24-2.83,3.06-8.31,16.63-11.28,22.22-4.65Z"/>
  <path class="st71" d="M484.65,823.65c-7.99,10.08-24.27,4.57-21.6-11.1,2.35-13.79,24.66-11,24.99-.1.07,2.21-2.01,9.46-3.39,11.21Z"/>
  <path class="st71" d="M314.44,642.43c-5.34,5.52-14.32,6.47-18.85-.52-3.42-5.28.05-4.77.19-5.07.42-.91-2.56-3.34,1.21-2.85.44-1.71-2.04-.47-2.07-1.53-.08-2.95,8.19-8.06,10.65-8.45,8.39-1.35,15.21,8.07,11.69,15.78-.58,1.27-1.95,1.74-2.83,2.65Z"/>
  <path class="st79" d="M500.01,714.01l-.5,2c7.66-3.55,13.18,4.51,12.37,11.39-1.55,13.06-20.56,11.53-21.89,4.08-.13-.7,1.88-.35,2-.49.49-.55-2.75-2.31-2-3.98h3.01c-4.18-4.66-.71-4.43-.24-5.49.16-.36-.53-1.76.27-2.9s2.53-1.42,2.78-1.79c.19-.29-2.22-2.97,4.19-2.81Z"/>
  <path class="st6" d="M563.99,852.01l-2-.49c1.35,2.97.35,5.8-1.92,8.04-3.95,3.88-11.76,3.54-15.01-1.32-2.96-4.44-2.78-9.92.1-14.59s7.37-4.36,12.28-3.58c6.12.97,4.86,7.09,6.56,11.94Z"/>
  <path class="st79" d="M335.74,830.26c.33.27,3.93,6.84,4.07,7.46,2.92,12.9-18.67,17.89-20.79,6.75-.47-2.45.8-10.75,1.92-12.93.54-1.04,12.13-3.5,14.81-1.28Z"/>
  <path class="st48" d="M359.39,708.64c.55.67,1.78.66,2.21,1.82,2.66,7.21-9.39,16.31-16.57,12-.34-.2-4.83-5.72-4.9-6.11-.09-.5,2.69-9.26,2.96-9.68,4.74-7.43,12.02-3.26,16.3,1.97Z"/>
  <path class="st79" d="M745.98,611.01c.13.11.17,1.59,1.07,2.39,4.06,3.61,6.86,4.15,5.9,11.02-2.93,21.04-33.95-.94-10.44-12.43,1.98,5.51,1.02-3.11,3.46-.98Z"/>
  <path class="st6" d="M510.34,654.34c7.28-7.24,20.67.79,14.07,12.57-3.53,6.3-14.24,4.87-16.91.08-1.58-2.84.57-10.39,2.84-12.65Z"/>
  <path class="st17" d="M748.3,581.73c-9.67-7.31,4.61-24.54,11.48-14,6.98,10.69-5.33,18.65-11.48,14Z"/>
  <path class="st54" d="M687.74,384.24c15.38-2.33,24.1,11.99,26.11,25.41,5.55,36.88-20.52,86.14-47.33,110.38-70.39,63.65-181.16,41.39-237.5-29.55-14-17.63-35.73-53.78-12.94-71.89,20.94-16.64,39.7-.71,59.24,7.59,52.2,22.16,138.08,26.17,181.2-16.15,9.29-9.11,16.84-23.61,31.21-25.79Z"/>
  <path class="st24" d="M398.01,393c1.9-9.37,12.71-11.46,19.98-15.49-2.77-2-3.58-8.4-6.67-9.31-8.86-.82-17.84-.93-26.65-2.2-5.55-.8,9.2-8.38,11.07-8.76,3.62-.74,8.85-.59,12.26.77-9.43-40.84,12.78-90.19,56.76-97.75,78.49-13.49,118.93,109.07,46.27,146.27-35.4,18.13-45.06,1.99-73.35-12.69-14.93-7.75-24.14-5.03-39.67-.83Z"/>
  <path class="st24" d="M697.5,338c-6.31,1.27-8.03,9.95-11.08,14.92-14.01,22.84-45.28,41.7-71.95,29.21-2.02,5.81-11.84,18.85-18.82,16.77-5.02-1.49,4.68-10.11,6.17-12.59,6.14-10.2,8.24-26.83-3.31-34.33-13.29-8.62-26.62,5.8-32.67,16.34-3.51,6.1-4.89,13.99-9.82,18.67-4.14-16.78,7.1-32.71,18.81-43.49-25.32-37.82-9.6-94.63,32.82-112.37,46.82-19.58,90.81,28.94,89.36,73.85.6.7,6.44-3.74,6.81,1.76.15,2.18-6.04,9.01-7.13,13.43-.59,2.4-2.23,9.16,1.4,9.36,5.21.29,15.81,1.18,13.91,8.45-4.33.58-10.48-.81-14.5,0Z"/>
  <path class="st54" d="M482.75,240.75c-2.68,2.32-7.4.14-10.2.2-18.75.43-35.13,10.58-48.19,23.39-1.31,1.29-10.9,14.27-12.34,12.64-1.11-19.92,10.29-38.5,26.98-48.51,11.31-6.79,26.76-10.34,38.35-2.32,3.73,2.58,9.95,10.67,5.41,14.59Z"/>
  <path class="st54" d="M664,224c-2.33,2.39-11.52-10.18-13.47-12.02-8.68-8.16-19.82-13.7-32.06-13.01-3.82.21-16.67,4.69-18.46,3.6-6.47-3.95,1.4-16.65,6.07-20,24.64-17.67,61.65,14.28,57.93,41.43Z"/>
  <path class="st72" d="M724.51,354.56c22.94.64,19.85,39.5-4.55,32.97-18.72-5.01-14.98-33.52,4.55-32.97Z"/>
  <path class="st42" d="M411.67,488.32c9.11,14.81-11.31,32.06-23.7,20.21-11.91-11.39,1.47-36.5,19.39-24.39.31.21,4.15,3.93,4.31,4.18Z"/>
  <path class="st67" d="M584.66,197.34c8.09,7.86,4.55,23.64-7.1,24.72-21.19,1.98-20.63-27.43-3.55-28.65,2.69-.19,8.73,2.06,10.64,3.93Z"/>
  <path class="st37" d="M375.7,400.69c-3.45,2.46-14.23.68-16.18-2.73-.16-.29-1.57-6.11-1.59-6.44-.6-8.81,9.48-16.61,17.48-11.41.58.37,5.27,6.09,5.42,6.6,1.17,3.89-2.02,11.77-5.12,13.98Z"/>
  <path class="st74" d="M391.79,328.78c-2.19,1.23-11.54.85-13.55-1.03-5.36-5.01-2.97-19.08,5.51-20.57,6.27-1.1,14.19,5.45,13.07,12.06-.17,1-4.57,9.27-5.04,9.53Z"/>
  <path class="st15" d="M528.23,404.24c3.78-3.8,14.02-.66,16.63,4.39,5.09,9.83-5.71,21.7-14.8,15.84-4.29-2.76-5.58-16.47-1.84-20.23Z"/>
  <path class="st66" d="M459.45,526.56c3.55,4.88,4.11,11.05-1.9,14.49-4.29,2.45-8.5.18-12.51-1.42-.63-.25-1.86.39-1.94.28-.67-.85-2.32-7.87-2.18-9.41.76-8.63,12.3-12.5,18.53-3.93Z"/>
  <path class="st80" d="M557.75,247.26c.79.76,3.17,7.03,3.14,8.26-.2,10.88-19.26,13.92-17.89-2.04.56-6.57,10.7-10.07,14.75-6.22Z"/>
  <path class="st11" d="M745.76,431.77c-2.27,3.86-12.63,4.9-15.17-1.65-3.38-8.73,6.24-16.84,13.42-12.62,2.38,1.4,3.05,12.05,1.74,14.28Z"/>
  <path class="st24" d="M586.84,384.22c.25.17,3.17,4.74,3.1,5.14-.08.47-5.05,5.52-5.91,6.16-11.37,8.44-16.09-6.43-5.25-10.27,1.1-.39,7.67-1.29,8.06-1.03Z"/>
  <path class="st65" d="M379,437.98c-4.33.97-4.78,10.07-10.45,10.08-.29,0-3.84-3.86-3.99-4.09-5.35-8.08,9.57-13.5,14.44-5.98Z"/>
  <path class="st43" d="M715.27,482.6c-.25-.09-4.13-2.97-4.22-3.22-2.13-6.16,5.9-12.18,11.37-8.3,4.83,3.42-2.05,13.43-7.15,11.52Z"/>
  <path class="st63" d="M511.99,232.01c-5.34-.24-12.27-5.57-8.87-11.39,5.48-9.37,13.98,4.59,8.87,11.39Z"/>
  <path class="st21" d="M421.24,216.25c4.36-4.37,13,3.55,7.7,8.21-4.71,4.15-12.5-3.4-7.7-8.21Z"/>
  <path class="st55" d="M635.63,403.11c7.69-2.73,10.15,12.1,1.26,8.31-4.05-1.73-4.65-7.1-1.26-8.31Z"/>
  <path class="st43" d="M179.65,534.65c-1.97,2.14-7.35,5.05-10.27,5.3-19.72,1.69-22.43-25.35-6.36-31.43,17.31-6.54,26.51,15.43,16.63,26.13Z"/>
  <path class="st5" d="M148.32,619.69c-.47-.63-1.82-4.44-2.06-5.44-6.22-26.4,33.66-29.56,27.48-.99-1.33,6.13-6.11,13.02-13.16,12.69-2.62-.12-10.77-4.25-12.27-6.26Z"/>
  <path class="st11" d="M203.45,447.44c-14.97,14.23-35.28-14.6-16.43-22.93,4.54-2.01,9.29-2.68,13.99-.83,5.78,2.28,7.52,4.71,7.6,10.98.08,5.71-1.19,9-5.16,12.77Z"/>
  <path class="st4" d="M246.74,605.75c-3.73,1.05-4.15,3.95-8.26,4.71-8.76,1.62-16.05-4.7-14.21-13.67,4.15-20.14,33.46-8.23,22.46,8.97Z"/>
  <path class="st47" d="M220.77,621.32c1.9.58,2.06,6.6,5.08,7.11-1.17,10.17-3.22,17.47-15.3,15.5-8.85-1.45-8.77-18.39,1.22-21.66.88-.29,8.37-1.15,9-.95Z"/>
  <path class="st43" d="M198.88,555.11c.18.28-.48,6.09-.63,6.61-2.31,8.37-14.71,10.21-16.58.07-.98-5.31,5.37-11.75,10.6-10.62.67.14,6.4,3.61,6.6,3.94Z"/>
  <path class="st50" d="M254.83,433.18c1.67,1.03,3.03,11.33,2.16,12.82-.06.11-1.47-1.03-2.54-.11-.9.77-1.08,2.89-2.16,3.13-2.11.48-4.97-.69-7.29.98.95-2.77-1.82-3.01-2.32-4.22-1.16-2.79-.86-7.22.86-9.75s9.12-4.2,11.29-2.87Z"/>
  <path class="st0" d="M141.89,569.9c-.33.37-2.03-.38-1.89.59l1.99,2.49c-2.21-.06-2.42,2.21-4.24,3.24-2.44,1.38-8.51,2.12-10.74.74-.38-.23.04-6.8-1.89-8.51,3.61-3.16,3.09-6.75,9.36-6.51,4.9.19,7.94,7.38,7.41,7.97Z"/>
  <path class="st81" d="M219.75,497.75c-8.46,7.68-12.81-10.31-7.75-13.31,1.71-1.02,8.5,1.23,9.53,3.62.78,1.8-.34,8.39-1.78,9.7Z"/>
  <path class="st9" d="M127.92,617.94c-.29.32-2.17-.06-2.92.06,3.33,5.26-4.23,2.11-4.9-2.57-.63-4.41-.86-6.86,4.19-5.22,2.64.85,5.2,6.05,3.63,7.73Z"/>
  <path class="st4" d="M897.3,564.7c-7.03-6.34-5.65-21.38,2.34-26.56,14.75-9.58,29.65,9.97,19.63,23.63-4.67,6.36-15.99,8.33-21.97,2.93Z"/>
  <path class="st74" d="M892.84,481.2c.35.24.66,1.97,1.62,2.81,6.56,5.67,9.26,9.87,6.03,18.98-2.91,8.2-8.53,10.76-16.75,8.77-8.65-2.09-12.45-10.55-10.52-19.05.54-2.36,6.73-10.24,8.8-11.18,1.22-.56,10.38-.63,10.83-.32Z"/>
  <path class="st74" d="M842.81,605.8c-1.2,1.66-11.34,2.61-13.33,5.21-2.45-3.02-6.81-3.2-9.49-7.49-2.14-3.43-1.24-9.02-4.98-9.53-.44-1.51,1.29-.61,2-1.68,1.71-2.59,3.47-8.93,5.98-10.72.39-.28,8.8-2.5,9.28-2.43,3.43.5,11.71,6.96,12.53,10.54.65,2.84-.49,14.02-1.98,16.09Z"/>
  <path class="st4" d="M852.64,440.44c.31.16.32,1.2.55,1.32.45.22,1.7-.85,1.79-.77.9.87,1.22,10.57,1.01,12.51-1.27,11.66-10.9,14.56-20.22,8.44-13.44-8.82-1.6-31.18,16.86-21.5Z"/>
  <path class="st75" d="M861.8,522.84c-.14.39-5.87,4.82-6.54,4.95-.3.06-5.81.1-6.1-.02-.35-.14-4.16-4.81-4.53-5.96-2.83-8.79,8.58-18.2,13.8-11.75,1.22,1.51,3.76,11.69,3.37,12.78Z"/>
  <path class="st27" d="M823.73,551.27c5.24,4.23,0,14.4-4.29,17.79-6.94-2.26-9.79-2.39-10.41-10.67-.57-7.63,10.28-10.68,14.7-7.12Z"/>
  <path class="st80" d="M890.77,602.77c-6.22,6.01-20.94-2.38-12.24-10.74,9.12-8.77,17.84,5.33,12.24,10.74Z"/>
  <path class="st32" d="M796,374.03c22.41-7.29,12.04,20.85,2.51,10.96-2.75-2.85-1.64-7.56-2.51-10.96Z"/>
  <path class="st49" d="M840.8,360.22c3.35,1.94,2.9,9.46,2.2,12.79-3.05-.96-6.32.79-9.3-.96-1.77-1.04-3.44-7.23-2.52-8.85s7.36-4.3,9.62-2.98Z"/>
  <path class="st8" d="M316.55,960.44c-1.53-2-1.95-1.65-2.44-5.03-1.04-7.17-1.96-17.37.68-24.12,4.77-12.23,23.73-19.58,35.1-13.67,9.9,5.13,13.8,11.56,17.61,21.86-1.98,6.15-1.21,13.14-5.07,18.46-2.24,3.09-10.15,9.01-13.7,10.3-8.72,3.16-26.56-.43-32.19-7.8Z"/>
  <path class="st17" d="M277,917.98l-.48,3c-5.91-1.96-14.21-2.73-16.95-9.06-.31-.73-2.35-7.2-2.37-7.59-.08-1.19,4.09-8.41,5.27-9.35,3.86-3.08,7.58-1.59,9.04-2.11.57-.2.4-1.87,1.05-1.91,5.58-.37,14.38,7.04,15.1,12.71.64,5.04-4.81,16.52-10.66,14.31Z"/>
  <path class="st79" d="M401.87,992.86c-.1.12-1.34-.53-1.84-.2-2.48,1.6-2.96,3.15-6.55,3.4-7.22.51-12.18-2.94-11.43-10.49.03-.32,1.66-5.83,1.84-6.08,1.14-1.61,3.83-2.32,4.53-3.48.38-.63-.51-1.95-.42-2,.31-.19,6.9.06,7.24.16,6.43,1.88,10.46,13.95,6.63,18.69Z"/>
  <path class="st17" d="M280.44,961.76c.12.26,1.59.19,1.53.69-.91,6.74-6.63,17.19-14.98,13.89s-8.56-9.71-4.97-16.57c.31-.59,1.63-.75,1.73-.97.21-.45-.85-1.7-.76-1.79.4-.41,10.12-2.06,11.27-1.86,3.86.68,4.99,3.9,6.18,6.61Z"/>
  <path class="st33" d="M668.58,1048.42c8.24,6.67,11.58,23.37,5.83,32.49-9.13,14.48-33.95,10.94-37.18-6.64-.7-3.81.62-7.21.33-9.83-.11-1.02-1.9-1.85-1.55-2.43.05-.09,1.33.33,1.93-.77,2.7-4.93,3.7-10.78,9.78-14.24,6.55-3.72,14.99-3.34,20.86,1.41Z"/>
  <path class="st16" d="M622.85,1113.18c.38.24,4.61,6.9,4.91,7.56,3.94,8.72-2.14,20.27-12.26,20.25-19.5-.03-19.74-28.75.19-28.67,1.77,0,2.83.93,4.3,1.23,1.09.22,2.69-.49,2.86-.37Z"/>
  <path class="st72" d="M645.7,1165.36c5.67-.76,13.27,3.25,14.24,9.2,3.97,24.39-31.36,25.41-25.68.2,1.45-6.44,4.94-8.52,11.44-9.4Z"/>
  <path class="st33" d="M583.6,1049.64c-1.12,2.27-8.19,5.38-10.76,5.7-17.33,2.16-21.68-23.07-4.1-26.1,12.24-2.11,20.06,9.92,14.87,20.4Z"/>
  <path class="st33" d="M606.32,1017.69c-2.77-3.72-2.84-10.96.26-14.62,4.3-5.09,8.79-7.22,15.5-5.64,14.96,3.52,11.11,28.38-7.5,25.52-1.75-.27-7.29-3.98-8.25-5.26Z"/>
  <path class="st74" d="M615.71,1061.3c.96.76,4.24,5.93,4.31,7.29.06,1.05-3.26,6.86-3.96,7.72-4.69,5.76-17.65-2.55-11.95-12.7,2.07-3.69,8.22-4.99,11.6-2.31Z"/>
  <path class="st16" d="M601.69,1177.31c2.9,2.09,2.89,8.04,1.19,11.08-4.49,7.99-18.97,1.48-16.13-6.05,2.19-5.8,9.58-8.88,14.94-5.03Z"/>
  <path class="st36" d="M660.24,1127.24c3.95-2.78,11.86-1.33,13.34,4.25,3.33,12.58-16.82,12.02-15.55,1.11.11-.92,1.68-4.98,2.21-5.36Z"/>
  <path class="st33" d="M356.7,1175.7c-5.97,5.55-15.52,5.41-22.41,1.51-5.19-2.93-7.24-7.15-8.18-12.81-.48-2.86,1.35-7.91-2.1-7.41-.45-1.46,1.64-.93,2.45-2.01,1.26-1.65,1.28-3.82,2.52-5.49,13.91-18.67,40.31-3.24,31.72,19.71-.39,1.05-3.3,5.84-4,6.5Z"/>
  <path class="st72" d="M338.66,1074.35c13.38,11.79-5.18,37.8-21.17,24.67s6.78-37.34,21.17-24.67Z"/>
  <path class="st43" d="M292.62,1187.42c3.22,2.32,1.78,3.12,2.45,5.98.36,1.52,1.57,2.49,1.66,3.87.49,8.22-9.88,19.15-18.06,16.62-.75-.23-.61-1.64-2.08-2.1s-3.36.37-4.53-.34c-.27-.17-3.97-4.36-4.16-4.83-6.82-16.34,9.69-30.05,24.73-19.21Z"/>
  <path class="st43" d="M388.58,1050.44c6.92,5.26,6.61,14.28.84,20.48-4.92,5.28-8.89,5.76-15.67,3.99-.75-.19-.78-1.46-1.02-1.57-.4-.19-1.23.57-1.49.37-6.85-5.15-7.25-14.42-2.1-21.06,3.63-4.68,14.51-5.96,19.44-2.21Z"/>
  <path class="st15" d="M335.71,1206.29c3.89,2.82,3.89,13.16.89,16.8-4.97,6.03-19.3,2.13-19.43-6.58-.14-9.4,11.52-15.32,18.55-10.22Z"/>
  <path class="st11" d="M298.74,1044.15c3.56-.7,11.34,3.89,12.09,7.61.37,1.82-2.94,12.27-5.52,13.05-1.58.48-10.13.33-11.34-.41-7.66-4.67-3.82-18.56,4.77-20.25Z"/>
  <path class="st47" d="M300.73,1142.27c1.23,1.53,1.44,5.8.84,7.77-.99,3.26-2.77,2.84-4.76,4.08-.83.52-.91,1.6-1,1.63-2.57,1-9.42-2.78-10.32-6.26-2.13-8.26,10.92-12.6,15.24-7.22Z"/>
  <path class="st74" d="M375.77,1113.77c-.68.66-6.18,2.12-7.3,2.1-5.13-.12-7.51-10.4-5.22-12.62,5.03-4.87,19.39,3.86,12.53,10.52Z"/>
  <path class="st71" d="M562.21,941.84c.59-3.42-2.18-5.69-2.12-9.22.06-3.71,2.64-10.95,5.5-13.51,1.71-1.52,10.82-4.37,12.89-4.13,1.92.22,2.44,1.97,3.5,2.39,2.56,1,2.91-.79,6,3.15,9.59,12.21.37,30.42-15.74,25.82-3.12-.89-6.64-3.69-10.05-4.49Z"/>
  <path class="st78" d="M526,964.98c.45-1.72-2.03-.44-2.04-1.5-.07-4.07,6.55-7.95,10.45-7.46,13.54,1.69,8.47,25.77-5.77,17.84-2.99-1.67-8.79-8.3-2.64-8.88Z"/>
  <path class="st3" d="M470.18,580.68c1.07.58,3.59-1.67,5.9,3.75,3.01,7.06.99,12.77-7.23,12.01-10.19-.94-9.27-17.12.73-17.37.44-.01.36,1.48.6,1.61Z"/>
  <path class="st35" d="M508.7,602.18c5.69-1.76,13.89,4.4,7.86,8.88-9.19,6.81-15.57-6.5-7.86-8.88Z"/>
  <path class="st68" d="M572,451c15.09-.79,30.64-2.01,44.99-7,4.77,17.12,1.7,33.64-18.59,35.89-20.12,2.23-25.89-11.32-26.4-28.88Z"/>
  <path class="st25" d="M517,448c15.2,2.6,30.52,4.75,46.01,3.99,2.88,20.1-7.92,32.03-28.44,28.94-4.47-.67-13.41-6.53-15.45-10.55-.52-1.03-2.12-7.08-2.12-7.88v-14.5Z"/>
  <path class="st62" d="M471.01,434l37.56,12.94c-1.41,13.62-5.86,22.45-21.12,21.11-17.22-1.52-19.95-20.1-16.44-34.05Z"/>
  <path class="st68" d="M625.12,441.12c10.09-4.41,20.16-9.31,28.87-16.12-.06,3.93,2.48,7.94,2.92,11.58,3.44,27.87-31.23,34.82-31.8,4.55Z"/>
  <path class="st31" d="M467,400.01c15.91,1.83,35.98-9.32,45.98-21.53,36.7-44.81-12.77-117.9-60.5-85.5-22.38,15.18-26.8,50.5-8.5,70.55,28,30.67,74.13-7.06,52.84-41.84-14.15-23.11-42.15-9.61-38.73,15.74,1.83,13.51,19.64,17.32,19.01,6.09-.45-7.9-10.03.16-10.13-9.98-.17-17.89,19.81-17.19,24.58,1.41,7.32,28.53-31.84,42.23-45.74,12.74-17.89-37.94,31.38-72.7,59.6-37.6,33.51,41.69-14.69,99.92-60.43,75.43-56.95-30.48-20.1-134.51,47.55-112.55,65.52,21.26,56.33,133.3-10.99,131.05-3.59-.12-11.96-1.48-14.54-4Z"/>
  <path class="st31" d="M682,280c5.18,20.28,7.03,41.13-1,61-5.18,16.88-26.87,34.4-44.51,35.99-5.37.48-22.19.41-19.5-7.99,35.79,2.57,59.05-29.84,57.05-63.54-1.71-28.7-26.88-62.72-58.72-49.64-39.86,16.38-32.36,93.15,9.92,86.92,23.14-3.41,32.28-38.18,18.76-55.24-16.7-21.08-41.75,3.88-29.21,26.21,4.12,7.34,14.9,6.02,11.51-3.48-1.37-3.85-7.3-1.85-5.07-12.5,2.96-14.14,17.6-5.42,19.53,6.01,4.75,28.1-28.17,41.8-39.25,12.25-10.85-28.93,14.25-68.85,44.4-46.4,34.58,25.75,17.32,94.03-24.32,89.33-8.62-.97-10.58-11.46-18.9-16.1-7.25-4.05-12.73-1.38-16.7-3.3-4.78-2.33-11.19-22.6-11.88-28.12-9.43-75.51,82.36-102.32,107.88-31.38Z"/>
  <path class="st58" d="M681,341c1.16-3.8,2.41-9.16,2.92-11.75,3.47-17.44,2.39-27.68-2.05-44.63-.35-1.32-1.67-3.8.13-4.62,6.73,18.71,7.6,42.92-1,61Z"/>
  <g>
    <path class="st54" d="M149.23,426.39c-12.01-13.59-49.5-27.76-51.4-47.59-.71-7.43,1.8-13.05,8.62-16.38,15.69-7.64,34.18,4.4,47.35,12.4l15.02,6.98"/>
    <path class="st34" d="M156.86,419.77c-6.28-7.04-23.38-15.35-31.92-22.08-9.2-7.24-33.45-29.97-4.72-27.27,5.21.49,7.46,2.18,11.62,3.87-9.31,6.96,3.22,16.18,5.93,4.92l2.07-.92c4.82,2.44,27.98,14.42,29.53,17.98.46,1.06-4.72,9.88-5.3,12.76"/>
    <path class="st12" d="M131.83,374.3c3.55,1.45,4.89,2.42,8,4-.4,13.54-18.23,8.42-12.19-2.59,1.32-2.4,1.85-1.37,4.19-1.41Z"/>
  </g>
  <g>
    <path class="st54" d="M151.55,460.3c-15.57-9.31-55.59-11.42-63.43-29.74-2.93-6.86-2.25-12.98,3.24-18.23,12.63-12.05,33.9-6.19,48.88-2.57l12.31,12.41"/>
    <path class="st34" d="M156.81,451.68c-8.12-4.8-26.93-7.53-37.12-11.34-10.96-4.1-40.97-18.4-12.78-24.55,5.12-1.12,7.77-.19,12.25.16-6.76,9.46,7.98,14.44,7.15,2.89l1.69-1.51c5.33.86,31.04,5.24,33.6,8.16.76.87-1.5,10.85-1.18,13.76"/>
    <path class="st12" d="M119.15,415.95c3.82.3,5.39.82,8.84,1.38,3.73,13.02-14.81,13.56-12.4,1.23.53-2.69,1.34-1.87,3.56-2.61Z"/>
  </g>
  <g>
    <path class="st54" d="M884.58,402.91c15.57-9.31,59.87-9.59,67.7-27.91,2.93-6.86,2.25-12.98-3.24-18.23-12.63-12.05-33.9-6.19-48.88-2.57l-8.68,2.77"/>
    <path class="st34" d="M880.38,391.13c8.12-4.8,30.16-2.54,40.35-6.35,10.96-4.1,40.97-18.4,12.78-24.55-5.12-1.12-7.77-.19-12.25.16,6.76,9.46-7.98,14.44-7.15,2.89l-1.69-1.51c-5.33.86-31.04,5.24-33.6,8.16-.76.87,1.5,10.85,1.18,13.76"/>
    <path class="st12" d="M921.26,360.39c-3.82.3-5.39.82-8.84,1.38-3.73,13.02,14.81,13.56,12.4,1.23-.53-2.69-1.34-1.87-3.56-2.61Z"/>
  </g>
</svg>