<?xml version="1.0" encoding="UTF-8"?>
<svg id="Layer_1" xmlns="http://www.w3.org/2000/svg" version="1.1" viewBox="0 0 1024 1536">
  <!-- Generator: Adobe Illustrator 29.5.1, SVG Export Plug-In . SVG Version: 2.1.0 Build 141)  -->
  <defs>
    <style>
      .st0 {
        fill: #957f4c;
      }

      .st1 {
        fill: #8e7a47;
      }

      .st2 {
        fill: #a8915b;
      }

      .st3 {
        fill: #d58425;
      }

      .st4 {
        fill: #181a0c;
      }

      .st5 {
        fill: #917c49;
      }

      .st6 {
        fill: #b09760;
      }

      .st7 {
        fill: #d48325;
      }

      .st8 {
        fill: #ac955e;
      }

      .st9 {
        fill: #d48326;
      }

      .st10 {
        fill: #181b0c;
      }

      .st11 {
        fill: #947f4c;
      }

      .st12 {
        fill: #9f8955;
      }

      .st13 {
        fill: #96814d;
      }

      .st14 {
        fill: #1a1c0d;
      }

      .st15 {
        fill: #191b0d;
      }

      .st16 {
        fill: #17190b;
      }

      .st17 {
        fill: #17190c;
      }

      .st18 {
        fill: #d9b77a;
      }

      .st19 {
        fill: #907c49;
      }

      .st20 {
        fill: #a9925b;
      }

      .st21 {
        fill: #191c0c;
      }

      .st22 {
        fill: #867342;
      }

      .st23 {
        fill: #9a8551;
      }

      .st24 {
        fill: #ad965e;
      }

      .st25 {
        fill: #dab97b;
      }

      .st26 {
        fill: #a6905a;
      }

      .st27 {
        fill: #a7915b;
      }

      .st28 {
        fill: #917d4a;
      }

      .st29 {
        fill: #ab945d;
      }

      .st30 {
        fill: #dbba7d;
      }

      .st31 {
        fill: #dcbc7f;
      }

      .st32 {
        fill: #907b48;
      }

      .st33 {
        fill: #ac945d;
      }

      .st34 {
        fill: #8e7a48;
      }

      .st35 {
        fill: #937e4b;
      }

      .st36 {
        fill: #d68526;
      }

      .st37 {
        fill: #18190b;
      }

      .st38 {
        fill: #d38123;
      }

      .st39 {
        fill: #95804c;
      }

      .st40 {
        fill: #887444;
      }

      .st41 {
        fill: #191c0d;
      }

      .st42 {
        fill: #a58e59;
      }

      .st43 {
        fill: #96814e;
      }

      .st44 {
        fill: #a7905a;
      }

      .st45 {
        fill: #c56628;
      }

      .st46 {
        fill: #d68626;
      }

      .st47 {
        fill: #d58527;
      }

      .st48 {
        fill: #d9b97b;
      }

      .st49 {
        fill: #d68627;
      }

      .st50 {
        fill: #d9b87b;
      }

      .st51 {
        fill: #a68f59;
      }

      .st52 {
        fill: #d78627;
      }

      .st53 {
        fill: #191b0c;
      }

      .st54 {
        fill: #d48425;
      }
    </style>
  </defs>
  <path class="st21" d="M855.66,301.35c6.94,6.82,10.35,21.23,10.35,30.65l13.48-21.01c36.3-34.07,66.07,19.07,58.52,53.01,13.38-5.14,26.86-.99,34.19,11.3s13.26,48.17,11.72,62.12c-2.16,19.58-21.53,39.71-38.25,48.75-4.6,2.49-15.28,8.78-15.23-.67.02-4.66,5.21-16.2,6.3-22.25,1.15-6.44,1.22-14.12,1.18-20.67l-2.92-10.09c-7.66,19.37-14.29,39.36-22.5,58.5-4.75,11.07-8.57,20.06-18.02,27.98-9.39,7.88-20.15,12.74-32.53,13.47l-6.76,18.26c16.75,30.98,14.8,68.48,28.06,100.56,16.31,39.49,51.2,65.11,53.75,111.24.13,2.32.99,12.07-3.98,9.06-1.31-.79-9.65-14.24-12.04-17.03-4.39-5.11-20.92-19.69-26.93-21.1-1.06-.25-1.82.38-2.01,1.14-1,3.98,8.29,25.49,10.8,30.1,6.42,11.81,16.05,21.52,23.2,32.8,15.57,24.58,23.15,57.45,13.48,85.52l-23.11-32.89-13.39-15.1c13.29,34.05,20.11,68.06,7.01,103.51-6.24,16.89-21.79,32.46-21,50.97.16,3.69,6.03,20.33-.45,20.49-7.26.18-17.2-15.31-19.59-21.45-5.2-13.33-1.38-23.96-1.99-37.02-1.02-21.99-9.58-45.29-21.17-63.82-3.55-5.67-7.3-11.73-12.8-15.69,3.8,13.2,5.12,28.83,4.03,42.54-.23,2.95-.74,9.06-5.03,6.97-7.37-6.29-13.52-13.82-20.48-20.54-25.28-24.39-39.71-39.83-51.81-74.19-3.52-10-2.18-20.66-14.14-24.77-.86.52-1.41,1.35-1.82,2.24-1.36,2.93-1.12,20.04-.64,24.14.79,6.8,5.08,12.52,6.45,18.54,2.53,11.15-8.37,8.37-15.24,5.25-13.92-6.33-26.72-23.51-32.8-37.2-3.43-7.72-4.94-17.91-9.13-24.87-3.75-6.23-11.21-13.08-15.78-19.22-11.3-15.18-20.65-30.43-28.09-47.91-.47-1.09-4.57-14.38-5.5-12.99-.9,12.43-3.5,25-4.05,37.46-3.03,68.82,31.34,129.63,92.68,160.4,35.44,17.78,61.89,27.99,84.18,63.82,3.44,5.53,8.35,13.91,8.17,20.32-1.48,1.53-21.92-11.82-25.11-13.38-13.16-6.44-34.29-13.32-48.66-16.34-1.77-.37-8.82-2.02-6.23.72.33.35,6.42,2.6,8.53,3.99,50.63,33.36,91.49,99.6,87.46,161.52-.24,3.77-3.31,26.69-4.54,28.46-.73,1.04-1.14,1.28-2.43,1.05-2.2-9.24-6.77-17.44-10.3-26.21l-11.7-20.79c5.25,27.79-1.6,59.92-11.26,86.24-30.06,81.91-141.06,164.86-230.95,143.46-1.85-.44-13.28-4.22-13.66-4.83-2.46-3.96,3.01-2.55,5.35-2.88,6.13-.85,13.85-1.79,19.74-3.27,12.33-3.09,23.82-11.05,32.78-19.71-56.26,23.01-130.42,16.88-176.01-25.5-18.06-16.79-28.42-38.61-53-48-4.52-1.73-10.07-1.58-4.99-9.02,7.11-10.41,25.59-5.36,36-5.99-19.7-18.91-35.53-43.45-65.51-45.49-18.6-1.27-35.59,4.44-36.48,25.51-.92,21.92,22.48,27.43,27.71,45.26,5.11,17.45,1.53,43.44-17.04,51.39-13.2,5.65-48.45,5.55-52.44-11.91-2.67-11.7,10.62-3.08,16.37-2.38,6.33.77,14.85.48,18.33-5.71,12.79-22.77-16.71-33.76-26.14-49.49-28.3-47.21,5.6-103.89,56.99-112.4,78.52-13,106.23,58.68,164.53,90.88,20.4,11.27,39.14,18.33,62.89,14.55,51.14-8.13,77.26-69,42.79-109.72,2.5,16.43-2.52,36.05-11.6,49.91-2.63,4.01-18.32,24.37-22.93,15.09-1.38-2.78,2.32-14,2.56-18.46.81-15.11-4.57-35.05-11.86-48.21-12.44-22.46-34.47-36.73-56.68-48.32l6.02,16.98c3.66,15.93,3.17,30.19-2.49,45.53-.95,2.57-5.92,16.06-9.79,11.24-2.23-6.9-4.97-13.68-8.43-20.07-20.8-38.3-63.62-46.65-93.31-75.69.36,10.06,2.7,18.92.06,29.05-1.06,4.07-7.29,18.51-12.11,11.99-7.46-16.62-18.27-30.3-29.93-44.06-13.81-16.3-26.02-28.51-37.93-47.07-45.6-71.08-54.42-154.94-48.59-237.91-1.7.72-2.74,4.53-3.27,6.21-9.72,30.89-9.25,70.47-23.53,99.47-1.3,2.63-5.52,11.41-7.99,6.62-3.03-11.93-2.34-24.8-5.29-36.71-.29-1.18-.37-2.4-1.89-2.6-.01,5.11-3.77,8.91-4.91,13.59-3.58,14.63-1.58,31.81-4.56,47.44-1.93,10.12-10.71,39.62-17.53,46.47-9.53,9.56-11.95-5.77-16.51-11.5-.82,2.69-2.27,5.26-3.02,7.97-8.99,32.61,11.72,57.57-8.28,91.72-2.52,4.31-17.54,23.09-22.74,15.35-1.84-2.74,1.13-18.31.55-23.54-2.56-23.01-21.88-28.4-33.42-43.58-20.54-27.03-11.34-60.24-14.58-90.42-.19-1.76-2.95-12.63-5.99-10.49-8.05,10.68-4.77,22.8-7.46,34.06-1.83,7.69-7.64,2.51-11.1-1.01-5.64-5.73-12.95-16.64-15.95-24.08-16.47-40.84,6.98-81.57,6.47-122.98-9.98,9.38-11.44,24.54-16,37-3.53,2.6-9.88-15.83-10.5-17.99-15.42-53.4,10.52-93.65,29.26-140.76,11.27-28.33,16.95-65.15,45.31-81.81-1.22-3.77-4.41-6.27-6.24-9.76-6.32-12.02-10.5-25.42-16.45-37.55-10.06-20.53-28.22-37.74-30.24-61.76-2.05-24.33,12.74-49.08,39.92-43.92,5.71,1.08,9.83,5.26,14.95,7.54-4-14.14-9.11-25.09-7.87-40.36,3.23-39.78,45.26-52.3,64.89-16.15l3.96,8.52c1.39-17.19,2.59-35.74,19.3-45.2,19.69-11.15,39.96.75,49.88,18.54,7.15,12.82,15.95,49.7,14.82,64.15-.26,3.34-1.99,15.57-6.47,15.53-1.33-.01-19.42-13.69-21.41-15.62-1.12-1.08-8.17-11.11-9.09-10.39-6.78,12.55-.35,24.3.04,36.47s-2.76,22.96,5.92,34.79c1.49,2.03,10.8,9.58,13.36,9.48,3.6-.14,15.05-9.9,19.65-12.27,14.67-7.55,28.46-7.7,43.99-2.95,17.73-18.55,26.01-43.79,34.02-67.53-19.81,7.26-35.09,22.2-50.01,36.48-8.48,3.21-8.56-3.29-9.03-9.94-3.08-43.75,18.94-65.76,37.21-100.87,28.92-55.57,27.03-113.09,68.85-165.15,69.45-86.46,211.55-79.34,269.39,15.56,2.21,3.63,10.49,21.76,11.54,22.46,1.4.94,6.47.34,9.1.9,57.1,12.33,27.14,97.34,29.96,137.04,2.26,31.76,19.49,51.4,9.01,87.03-6.06,20.61-16.81,29.56-26.81,46.18-6.08,10.09-3.65,16.42-.47,27.07,5.54,18.51,24.01,61,45.01,64.01,6.88.99,6.32-2.43,10.92-5.6,4.08-2.81,9.26-6.16,13.66-8.34,9.17-4.55,19.12-4.95,24.65-14.33-8.62-5.08-16.28-14.3-20.69-23.29-1.92-3.92-2.77-8.49-4.75-12.25-10.57-20.07-20.35-29.02-17.43-54.35,2.61-22.66,27.05-36.48,47.41-25.73,7.31-10.65,9.83-25.49,10.52-38.34,1.12-20.69-5.11-40.13,9.93-57.07,11.42-12.86,31.16-14.42,43.68-2.13Z"/>
  <path class="st42" d="M567,1095l-1.75-4.93c5.53-4.35,11.87,1.08,10.75,6.93-1.27,2.7-3.94,2.7-8,0-.38-.63-.61-1.39-1-2Z"/>
  <path class="st42" d="M569,1084c4.22,2.41-4.12,6.32-6.08,4.3-4.12-4.25,3.58-8.3,6.08-4.3Z"/>
  <path class="st42" d="M351,522l.87-2.47c-2.42-9.03,15.26-6.59,4.89-.45.7,6.42,14.37,12.91,7.87.32-1.55-3.15,12.23-2.17,12.8-1.73.9.69,1.45,1.59,1.61,2.71,4.2,1.33,6.77,3.36,7.96,7.62,3.34,28.19,17.75,72.7,29,99,.5,2.28.11,3.64-1.53,5.28,4.27,3.42.74,8.32-3.3,10.86.28,4.1,3.15,6.01,8.59,5.74,3.49,2.23,9.49,12.89,8.29,16.4-.4,1.17-3.14,3.88-3.74,2.16-.9-2.61,7.85,3.39,3.31,6.87,2.3,2.44,1.59,4.89-1.72,5.58l-1.02,6.56c5.77,3.83,8.56,7.83,4.09,13.72,2.03,2.73,2.81,5.03,2.35,6.9,1.4,1.39,2.08,2.15.69,3.93,1.65.26,2.97,1.5,3.94,3.71,13.21,37.44,51.72,69.36,92.79,54.51l3.28.78c4.73-1.1,4.91,1.16,3.6,5.14.29,1.36.86,2.91,2.22,1.59,3.05.79,6.17,1.75,9.35,2.88.1,6.04,2.84,7.33,8.21,3.85-1.87,2.94-4.61-1.09-1.38-2.46-4.61,11.36-9.19-1.65-4.71-4.13,1.97-1.09,7.32,1.18,4.71,4.13-2.75-4.13,3.82-12.92,5.96-5.72-1.54,1.88,1.52,6.42,3.34,6.12,3.73-4.2,14.81-1.61,11.75,4.63-1.39.18-2.08,1.51-2.05,3.97-3.31,10.83-3.13,11.25.54,1.28l1.46-.28c-.9-1.45-.29-2.5,1.25-3.16-.8-6.87,5.06-12.59,6-3.38,2.34-2.1,6.62-1.86,7.94,1.28,2.57-.21,4.21.41,3.8,3.26l1.31,3.8c-9.55,55.02,7.59,105.71,49.64,142.72.11.1.53-.16,1.05-.52,1.62-2.56,3.54-1.63,5.76-.26,4.14-5.17,8.89-.59,6.08,5.31.5-1.97,1.73-2.88,3.77-2.43,1.3.29,4.81,9.52,5.73,12,2.91,1.09,8.91,5.46,8.94,8.12.05,3.99-3.46-.25-.12-1.2,1.09-.31,14.99,5.57,16.43,6.81,1.23-2.03,2.89-2.4,4.46-.74,4.31-3.37,7.62,2.02,3.99,5.27,7-1.01,7.17,7.82,6.21,12.44,5.64-2.49,9.37,1.52,6.63,6.3,7.52.09,10.22,2.01,8.09,5.76l1.03,3.61c20.78,20.62,36.4,50.04,43.1,79.35,2.89,12.64,6.18,30.05.9,41.65-2.41,1.88-3.31,4.32-2.71,7.32,8.53-.37,5.79,5.45-.17,7.77l2.48,2.99c6.28-1.09,6.9,2.28,4.83,7.69,5.56,3.86-1.49,7.8-5.9,4.42-2.83,2.23-3.41,4.3-1.73,6.23-1.76,3.59-2.63,7.64-2.62,12.14l-2.18.42c1.5,2.64.13,7.69-.93,10.84-11.92,35.63-32.97,68.33-62.54,91.96-8.83,7.06-18.58,14.56-29.53,17.21-3.12.98-2.13,3.06.94,2.85,5.17,3.85-2.6,10.7-6.73,5.15,3.98,7.38-5.64,12.6-4.18,3.95-2.79,3.43-5.96-.91-7.74-3.95-5.54,1.91-8.4,1.03-8.59-2.63-2.51.67-5.08.87-7.7.62-5.64,2.99-15.38,6.74-21.56,8.94-9.77,3.49-20.17,5.57-29.96,9.04l-1.47-2.98c.03,2.25.9,2.35-1.49,3.03-13.23,3.74-47.07,2.02-60.91-.15-39.07-6.12-57.26-19.7-83.16-46.82-9.76-10.22-19.68-24.81-33.45-29.08-.24-1.74,2.27-.94,3.48-.98,9.53-.36,16.6,3.21,25.4,4.4,4.75.64,11.65,1.74,9.68-5.42-1.52-5.52-16.21-16.67-21.08-21.97-16.8-18.31-27.25-34.85-52.7-43.3-34.48-11.45-76.47,10.92-60.27,50.27,6.99,16.97,25.23,20.84,26.51,42.48.63,10.59-3.64,24.39-13.68,29.39-2.3,1.15-10.64,4.21-11.35,1.16,15.65-4.32,18.04-25.57,11.03-38.54-4.04-7.49-10.29-9.76-16.04-14.95-48.27-43.51-4.56-112.44,54.13-110.91,50.89,1.33,78.73,46.69,114.63,74.36,33.14,25.54,73.71,46.57,115.43,27.72,55.65-25.14,61.36-90.91,21.78-133.91-2.9-3.15-3.81-3.8-7.72-5.22-1.27-.46,1.32-1.73-2.24-.55-.54,2.96-2.35,3.87-5,4,1.29,4.61-3.77,8.41-6,4-1.94-1.69,1.43-1.37,1.27-1.33-1.7.52-4.19.76-5.94.6.02,2.51-.76,4.08-2.33,4.72-2.74,1.31-5.5-.73-3-3-.53-2.61-.08-4.98,1.35-7.12-3.35,2.08-10.65-.92-7.36-4.76l-.99-1.12c-2.68-.92-5.35-2.15-8-3.68-.9,1.61-2.57,1.51-5-.32-13.59-12.04-41.56-29.75-58.49-36.01-2.49-.92-9.25-3.59-11.08-1.06-.55.76,1.05,8.81,1.57,10.07.47,2.28.4,3.57-1.96,4.55.33,3.14.55,6.52.2,9.84,2.95,7.3-4.89,7.25-5.89.1l-2.91-.71c-2.57-3.51-5.63-4.26-2.83.75-.37,6.17-13.43,1.77-7.71-4.62-1.63-1.94-1.68-4.82-.14-8.67l-1.2-1.09c2.28,3.3-.97,6.85-3.55,3.86q-1.82-1.12,0,0c8.82,1.3-3.06,8.05-7,7-1.89-1.2-5.6-2.48-8-4-3.74-7.02,7.9-6.65,7.76-3.9-.04.88-5.04-1.86-5.65-5.19-2.93,1.73-5.56-.72-4.32-3.79l-1.71.5c-2.16-2.92-4.04-6.06-5.65-9.41-2.38-.13-4.11-.64-4.48-3.24,1.72-3.24,1.32-6.28-1.63-8.37-2.92.12-7.29-2.29-7.01-5.53-7.6,5.64-12.98-1.31-5.79-5.59.22-3.04.65-4.58,3.87-4.9-1.2-3.43-1.24-6.71-.12-9.85-1.88-.83-2.63-2.07-2.27-3.72-.56.15-1.12.25-1.64.17-13.19-2-47.59-38.35-56.83-49.93-3.66-3.21-5.51-6.62-5.53-10.25-2.07-3.36.32-4.48,7.17-3.37v-1.67c-9.61-4.6-8.58-10.29,1.75-11.07-4.46.88-11.04-4.7-7.16-9-3.27-2.53-3.96-5.92.68-6.91,1.57-4.2,2.56-6.85,6.41-2.49-3.6-1.6-7.74-2.76-12.42-3.49-.35-7.84-3.07-7.51-9.69-5.64-8.54,1.75-5.36-14.51.97-14.45-9.35-2.36-4.28-6.54,1.88-9.45-.51-2.97,1.08-6.95,4.4-5.47l4.45,4.7c14.61,30.17,35.62,56.95,59.88,79.23-63.43-69.24-89.44-165.77-84.04-259.13l1.7-3.8c.14-1.17-.39-2.4-1.59-3.7,2.14-4.15,2.05-8.18-1.02-11.56l.24-1.79c3.97-1.75,4.79-4.64,1-7.41.41-5.86,5.04-10.52,7.75-3.63l2-1.09c-8.03-3.94-7.67-16.33,1.15-17.52-.28-1.93.8-2.99,2.4-3.87l-2.4-4.83c1.87-2.95,1.15-3.93-2.16-2.94-2.19-2.68-3.32-6.24-3.37-10.66l-.58-1.6c6.53-18.32,9.69-37.66,11.35-57.01l2.23-2.38c1.54-3.64,1.87-6.97,1-10-.87-.33-.87-.67,0-1,1.45-2.47.77-5.41,0-8-2.88-3.68-2.14-10.61,1-14Z"/>
  <path class="st33" d="M330,488c-.73-6.7-3.79-22.8-7.57-27.98-.63-.86-2.3-.94-2.39-1.07-.86-1.26,5.74-7.65,6.95-9.47,36.25-54.32,43.73-124.49,56.9-187.1,1.42-18.67,5.57-37.01,9.11-55.38-2.21,1.83-3.7,6.03-4.77,8.72-10.35,25.95-14.34,56.1-20.68,83.32-3.31,14.22-7.66,28.36-10.96,42.51-.85,3.66-3.72,24.5-4.58,25.46-.21.23-2.09-.72-3.07-.45-3.92,1.05-5.64,3.35-7.71,4.36-17.72,8.66-34.04,16.37-45.72,33.07-2.26-17.02,4.1-33.24,12.14-47.86,18.47-33.58,33.98-54.35,45.42-92.67,12.98-43.48,18.93-78.38,48.97-114.94,58.87-71.65,175.67-72.46,235.49-1.53,5.39,6.39,8.15,12.87,11.68,18.86.12.2,2.7,1.18,3.83,2.63.88,1.13,4.69,7.96,4.98,9.04.23.82-2.34.09-2,.98,5.41,5.26,3.24,4.16-.31,6.66-16.99,11.94-26.38,26.82-28.69,47.84,2.66.5,1.74-.56,2.44-2,2.57-5.27,4.18-10.39,7.72-15.32,21.6-30.07,56.61-34.11,65.83,7.33,1.1,7.08-.75,9.24-5.54,6.5-.78,1.56-1.63,2.18-3.46,1.5l-2.07,1.17c-11.93-4.14-24.52,4.72-32.75,12.77-11.84,13.32-24.2,26.16-37.08,38.54-7.2,6.2-20.63,17.21-28.95,8.25,1.7-14.37,1.27-29.22-5.57-42.29,4.48,11.27,3.78,27.52-3.99,37.25-21.87,27.37-56.89-15.76-68.03-34.22-22.03-26.06-67.41-53.24-79.55-4.48.04,2.01-.13,4.18-.52,6.53,1.38,3.88,2.77,8.17,1.93,12.07-2.97,1.39-2.11,2.19,2.58,2.4l1.16,3.41c-4.59,22.47-5.59,47.98,4.79,68.84,1.05,3.23-.03,4.51-3.38,4.06-17.37-4.52-35.41,5.56-45.29,19.65,24.99-30.36,55.87-13.12,82.53,3.74,21.47,13.01,48.89,10.65,65.92-8.86l3.28-.85c2.59-2.54,4.05-1.17,5.69,1.75,2.83-.15,5.46.87,7.91,3.06-1.33-2.86,7.08-13.37,9.59-12.67,3.26,2.5,6.25,5.12,8.97,7.89,6.53-7.05,10.25-8.15,11.15-3.32,4.51,2.47,5.48,4.78,2.92,6.93,9.79,5.54,6.34,19.94-5.23,12.37l-2.34.27c-5.16-6.29-8.42-4.33-13.63.14-7.04,6.04-24.11,24.3-25.23,33.24-2.41,19.24,18.66,9.95,26.64,2.86,3.16-1.56,6.44-1.41,9.27.81,5.66,7.6,13.24,15.88,17.19,2.47l2.1-.79c-1.03-6.7,7.34-.46,7.47,1.69.08,1.38-1.6,3.62-1.74,3-.82-3.69,8.83.66,10.16,2.22,5.61-1.83,7.67-.76,6.18,3.23-.34,3.26,4.41,4.7,7.48,4.65,1.59,1.33,3.5,3.38,2.46,5.21-5.67,8.33-19.28,12.75-29.16,15.6-45.62,13.17-99.44-2.56-136.14-31.13-10-9.06-20.41-17.56-31.23-25.51-8.61-2.59-5.11-7.07,2.44-5.93l10.95.84c-42.5-21.2-56.77,22.86-65.55,55.52l-1.31.62c.62,2.61.8,4.95-.05,7.85,5,3.27,5.96,7.76-1.07,8.27-3.76.89-8.59,4.18-2.31,5.47.89,3.21,2.52,5.08,4.9,5.59,2.25,2.41-3.91,10.42-4.96,11.64,2.2,7.47-5.72,6.1-4.52-.79-4.18-.69-5.31-2.7-4.92-6.75-3.66-6.69-5.59,1.02-3.88,1.92,5.49.14,5.13,5.2,1.52,8.02,2.24,7.64-.76,8.19-9.02,1.65-2.71,5.62-5.94,3.32-9.68-6.89l-1.91-1.87.77-10.87-5.68,31.91-2.18.82c-.38,2.91-2.33,3.98-5.05,3.54-.74,3.88-5.03,4.95-6.48,1.35-.32-.79-.58-15.54-.43-16.71.01-.08.3,1.06-1.03-.18Z"/>
  <path class="st34" d="M659,564c4.13-4.13,6.68.26,6.01,5.33,5-1.33,6.91,5.09,1.99,3.67-2.6-.56-2.04,1.3-2.48,2.97-18.88,72.92-51.57,169.15-27.23,241.24,11.13,32.96,37.27,68.34,66.4,87.6,20.35,13.45,44.21,21.04,64.63,34.37,12.97,8.47,24,19.2,34.67,30.33l-26.98-11.02c-22.47-6.77-44.07-4.07-64.5-15.45-5.3-2.95-10.29-8.03-16.51-8.03l7.47,5.01c30.73,23.66,60.41,45.46,86.04,75.96,25.83,30.75,43.25,70.24,42.48,111.01l-9.17-16.32c-1.17-6.34-5.24-9.36-8.25-13.75-3.9-5.67-10.57-16.25-16.11-20.05-1.22-.84-1.38.13-1.45.12-.79.91-6.47,6.54-7.12,6.63-3.69.53-8.3-5.96-3.37-7.67-1.78-.77-2.93-1.85-3.43-3.23.1,5.18-5.12,8.93-6.41,2.63-1.33-1.33-2.55-2.78-3.66-4.36l-2.58-2.72c-6.05-29.66-23.68-53.43-46.42-72.28-3.27-.9-9.25-3.01-8.01,2.01-3-2.1-1.03.77-2.98.98-.95-5.32,4.97-4.21,5-6.98,1.28-.59,1.08,4.2,2.98,1.98.33-.39-.54-3.49,2-3.49-.51-1.02-3.88-1.43-4.53-1.32-.99.16.25,2.25-1.45,1.81l-1-3.99c.03,3.4-2.26,1.99-2.84,2.34-.5.3.46,2.08-1.17,1.65-1.72-4.02,2-5.24,2.02-5.57.15-4.04-4.18-6.93-2.02-2.43-2.68-.57-2.58-1.91-3.5,1l-4.49-5.99c.53,3.42-1.61.54-3.04,1.4-.54.33-1.09,4.25-2.96,2.58-4.26-3.83,5.6-8.74,8.98-3-.77-3.88.51-7.98-3.98-10l-1,2.99-3.01-5.5,3.01-.5-1.03-2.98c-1.69-.46-.5,1.9-1.5,2.04-2.14.3-4.19-2.41-4.48-2.05.6,3.4,3.47,4.44,3,8.49-.38,3.23-2.34-1.24-2.53-1.26-.31-.04-1.19.82-1.36.67-1.03-.9-1.38-6.29-3.16-7.85l-4.95,2.94c-.4-1.62,3.63-.48,1.97-2.97-.23-.35-3.64-2.25-4.48-2.05-.63.16.06,3.04-2.49,2.02,2.55-4.44-.99-2-3.51-4.99-3.02,5.29-1.63.42-1.76.18-.26-.51-2.67.76-.73-3.17-6.34,2.08-2.65.05-3.87-1.53-1.28-1.66-4.61-2.11-4.96-2.68-.47-.78.12-2.32-.22-3.03-.68-1.42-2.83.13-.95-3.76-5.85,1.19-.14-3.56-3.51-5-.56-.24-.89,4.38-3,4.99-.93-2.92-.81-1.56-3.49-1,4.38-4.49-.18-4.07,0-4.49.66-1.53,7.14-1.92,0-4.51l-1.51,6.01c-.44-3.46-3.08-4.83-6.5-5.01-.89-.22-1.73-.51-2.39-1.02-7.14-5.42-20.61-28.44-25.69-37.43-18.8-33.33-26.42-70.16-18.75-107.81,1.62-7.99,3.4-16.07,5.34-24.22-3.84,7.16-6.27,15.08-8.13,22.97l-2.37,1.5c-4.59-3.71-6.13,1.63-11,.99.69-2.27,5.6-1.39,4.99-4.99l-2.89.51-1.1-1.52v4.01c-7.75,1.48-.64-4.19-4.99-7l-1.09,9.99c-2.53-1.45-2.74,0-2.92,0-1.95,1.87-2.35,1.65-2-1-.98-.02-2.75,1.24-2.99,1-1.13-2.59,4.57-1.98.48-3.99-2.3-1.13-1.21,2.68-1.49,2.99-4.64-3.63.32-6.18,5-5.01.53-2.91-4.38-3.83-6.39-3.69-2.67.19-2.55,2.73-3.18,2.71-.9-.02-2.07-1.09-2.87-1.07-.7.01.15,3.02-3.55,1.04l2.05-4.46-1.56.48c-4.66-.97.02-2.68-.5-6.01-3.03.83-2.22,6.81-3.99,7-.36-3.33-.92-.41-3.99-3l-1.01,5.99c4.42-.45-.88-2.37,5-2.99.07.65-.06,1.34,0,2,.52.43,2.59-1.34,2.98-.99,1.92,1.7-1.93,2.12-1.9,2.43.07.69,1.29,2,.9,2.56-3.31-1.72-6.51,1.19-9.99.99,1.2-2.09,1.11-6.85-1.21-7.71-4.88-1.82-6.37,8.02,1.2,6.21-.97,3.35-2.55,4.7-5.98,5.52l2.99,1.48c-2.74,5.64-5.68,4.04-4-1.49-.84-.76-3.09,2.79-3-.5,0-.34,3.14-.46,1.01-4.98.85-1.38,1.66-1.14,2.99-.53-.92-2.01.5-7.31-1.5-8-1.46,4.83-7.63-2.85-3.5-5.99l-3-2.01,1.25-2.82c13.97-7.51,25.13-19.24,35.26-31.26-16.07,14.12-31.98,27.7-54.24,30.02-34.02,3.54-65.88-21.88-78.75-51.85-1.27-2.05-2.09-2.84-3.53-3.09-4.87-6.43-7.31-2.36-8-3.01-.18-.17,1.5-3.61-1-4.5,2.93-.69,2.78,3.57,6.99,2.5.63-3.17-2.27-1.23-2.88-4.43-.55-2.86.57-3.84,2.89-5.08l-2.01-1,2.01-3.48c-2.35,1.07-4.95-4.66-6.99-3.01-2.26,1.84,2.57,1.74,1.99,2.98-2.52.92-4.57,1.9-5-1.51-.05-.35,1.82-.49,2.35-1.75,1.31-3.1-.06-12.37,4.66-10.74.56-1.92-1.53-2.41-1.93-3.59-.66-1.95,1.89-1.28,1.9-1.84.01-2.01-2.19-4.23-3.97-5.07l2.01-1c.12-.5-4.09-.71-2-2.5.5-.43,2.59,1.34,2.98,1,2.02-1.76-1.91-1.96-2-2.51-.46-2.73,2.02-.38,2-2.48-2.82.65-1.72-2.73-1.99-3.02-.71-.76-3.98,2.91-5.99.99l4.98-3.01c-.72-2.4-2.22-1.8-3.98-.98,2.59-7.08-5.98-.85-7.5-5.99l-2.49,2.99c-2-3.8.85-2.66.98-3.59.15-1.02-1.42-4.16-.41-5.41,1.33-1.65,4.38-1.55,3.42-5.48,5,.47.49-2.27-2-3.01l5-6.5c27.69,64.72,81.99,132.16,155.92,77.42,41.04-30.39,72.35-91.94,87.08-140.42Z"/>
  <path class="st51" d="M692,279c-1.65-9.13,8.14-7.33,4.06.38,2.04,3.71,3.02,7.58,2.94,11.62,1.21,9.95-.75,22,.13,32.37,2.81,33.26,20.83,46.23,6.89,84.15-6.04,16.45-15.12,23.37-23.22,36.78-16,26.48-23.17,75.4-31.86,106.14-12.91,45.67-45.41,118.24-87.63,143.37-84.28,50.15-142.69-72.59-159.64-136.07-6.77-25.36-10.29-51.76-18.69-76.73-2.14.7-.14,5.25.01,6.99l-.85,4.55c-5.81-1.36-10.62-.07-14.44,3.88-6.72-.01-7.94-.67-3.64-1.98.61,1.89,2.09,1.67,3.36.25,6.69,5.81-4.68,8.23-9.42,4.87-8.56,6.46-8.79,3.47-9.01-5.57-3-2.73-2.24-11.57,1-14,3.68.48,5.64,7.63,6.01,8,2.91,2.9,1.13-2.62,1.21-2.84.08-.23,3.12-2.87,3.78-2.16.2.21-.35,2,.19,2.75.58.79,2.35.59,3.1,1.19.92.74,1.65,3,2.22,3.05,3.48.25-.51-5.19-.48-5.49.07-.64,4.83-1.76,2.97-5.48-1.62-.43-.7,1.37-1.18,1.71-3.88,2.79-1.98-1.32-2.14-2.02-.25-1.08-1.71-1.95-1.55-3.03.27-1.8,4-2.12-.11-3.15,1.39-3.84,7.76-1.94,8.01,1.49,1.81.4.63-1.68,1-1.99s1.98,1.29,1.97,1.5c0,.19-1.82,1.32-1.93,2.97-.35,5.34,3.66,2.12,4.48,3.48,1.39,2.32-1.26,6.78,2.46,6.05-2.36-5.16.19-4.27.77-5.25.43-.74-.74-1.95-.25-2.78.32-.54,1.89-.65,2.19-1.23.22-.41,1.46-4.55,1.29-4.72-1.92-1.92-2.23,4.13-3.99,1.99-.91-1.11,1.98-7.96-2-6.99.89,1.51.54,2.49.55,3.96.01,1.39,1.12,3.6-1.04,3.03l-3.51-3.5c7.01,2.07,1.35-6.45.5-6.47-.22,0-5.02,4.3-3.49.49,1.04-2.6,3.79-1.67,5.25-2.49.59-.33.67-1.55,1.53-1.95,2.3-1.08,5.99-2.9,8.2-2.08,1.8-2.89-9.63-7.17-7.49-9.99l4.5,2.99c-1.71-3.63.69-5.61,1.01-7l1.48-1.17c5.59-14.46,12.37-31.8,23.58-42.84,5.49-5.41,15.3-13.92,15.07-1.19-1.82,57.14,2.7,121.25,27.39,173.46,29.06,61.45,104.04,67.71,145.43,16.53l3.31-1.45c13.15-25.12,24.43-51.81,33.15-79.17,8.11-29.22,18.16-57.71,30.15-85.46,6.03-12.83,12.26-20.94,22.58-6.7,4.25-15.39-23.66-15.46-32.6-8.7,3.15-.6,10.08-1.34,8.05,3.34-.96,2.23-21.7,22.43-24.14,23.38-1.12.44-2.31.31-3.44-.03-.65-2.19-3.76.26-3.99,0-.54-.63,1.5-3.38.98-4-2.76,1.53-4.53.03-6.5-2l.49,2.51-1.98.49c.04-3.59-2.13-6.61,0-10-4.56-1.15-1.96,2.67-4.99,3.99l-.58-3.12c-2.1.85-7.18-3.82-8.43-2.87-.19.15,1.5,2.98,1.99,3.5.7,2.24-9.27-4.06-6.98-6.5,1.41-.53.87,4.04,3,1.99.22-.21-1.06-1.65-.87-1.88.43-.5,2.31.61,1.85-1.09-4.02.75-3.88-5.64-5.99-1.01-.85-.07-1.79-.37-1.99-1.13-2.69-10.29-4.71-17.79-8.93-27.87-2.48-3.59-3.51-6.92-3.08-10,1.78-.75-.28-3.15.07-4.38.67-2.36,4.82-.29,3.93-3.61-3.19,1.59-7.04-1.84-6,2.99l-2.99-2.49,3.5-3.5c.98,3.26,2.15,2.89,2.98-.01,7.91,4.01,2.66,5.47.52,11.01h6.99c-.78-1.19-.09-6.34-.29-6.77-.29-.6-5.84-4.82-6.7-5.73l3.99-3.49-4.99,1.98c2.91-4.83-2.28-2.82,0-6.99l-2.99,1c-.8.89,6.51,8.29-3,5.98l2.49-4c-3.33,1.16-4.17,4.98-8.49,4.01-.66,3.73,4.41,1.15,3.99,4.99-3.23-.8-5.41-.34-7.65-3.25-.2-.26.5-1.06.31-1.5-.07-.17-3.24-1.26-1.65-3.24s2.13,1.9,2.62,2.01c.85.19,3.7.6,3.37-1.01-3.58,1.1-3.58-3.2-5.5-4.01-.31-.13-2.07,4.39-5.49,2.99.25-1.02,4.99-4.05,3.99-4.98-.86-.8-4.86,3.38-5.05,3.69-.74,1.21-.82,2.9-.96,4.29l-1.98-1.99c-.6,3.09.58,6.05-2.52,7.99l-2.49-3-1,2.99c-.95-9.86-6.65-.86-8.01-2l1.44-5-3.44-.99v-3.34c6.59-9.02,10.13-19.67,12.47-30.49l2.53-2.17c1.15-3.77,3.96-4.99,8.43-3.66,2.61-4.28,5.08-5.87,7.4-4.76,4.87-4.17,4.99,1.64,3.57,5.48,2.36-2.28,4.73-3.27,7.12-2.96,1-2.7,2.5-3.73,4.48-3.1l2.02,2.22c.29,23.74,1.93,52.52,24.74,65.85l1.24,2.92c2.47,1.28,2.04,2.86-.63,3.68.92,3.11-2.11,5.22-4.49,6.8l1.24,1.29c-.8,6.62,3.3,4.83,5.48.52-.73-4.22,2.91-5.43,5.59-2.37,1.31-.25,2.1-1.31,2.5-2.54-3.85-1.11-4.94-5.23-.7-5.37l2.87-1.78c43.15,1.82,56.03-48.3,56.15-83l1.98-2.22c1.48-3.08,1.74-4.29,0-7-2.71-.93-2.7-2.08,0-3,.33-3.12,0-4.79-1-5-2.96-.84-3-5.19,0-6Z"/>
  <path class="st35" d="M330,488c4.2-2.88.48,2.98,1.01,4,.07.14,2.8-1.25,3,.53.13,1.12-1.45,2.03-1.53,2.96-.11,1.29-.32,8.5.49,9.05,1.03.69,1.92.5,3.03.46l-1.99-3.99c.81-.57,6.92,2.02,6.98-.51.04-1.81-5.07-.47-5.87-1.62-.29-.42-.28-4.71-.11-4.88.71-.72,6.93-.62,5.01,3.02l1.99-1.03c-.11,2.61-2.6,4.5,1.01,4.01l1.1,3.28c-.3,23.53-.79,47.29-2.13,70.87-.82,14.4-2.18,28.48-6.89,41.61l.92.24,1.04.7c3.03-1.6,5.08.57.95,1.8-.49,3.18,2.41-.09,3.01.5,1.82,1.81-1.63,2.05-1.71,2.16-.14.2.44,3.77-.28,4.83,2.31-3.29,5.73-1.32,5.7,1.52,0,.87-2.13,1.86-1.7,2.47.09.13,1.44-.16,1.67.22s-.52,1.16-.31,1.56c.12.23,3.09,3.58,2.62,4.22-2.13.6-4.94.48-3.19,2.52l-1.8.51,3.99,1c-.92,3.01-4.66,1.44-5.49-1.01-.26,1.9-3.22,3.97-3.32,4.23-.39.96.97,2.11.59,2.62-.19.25-1.79,0-1.81.66-.01.39,2.61,5.66,2.98,6.06,1.41,1.54,3.31,1.08,3.94,1.57.15.12.22,3.7.12,3.87-.05.09-1.26-.64-1.97-.33-2.29,1.02-2.9,2.86-6.01,1.32l1.98-2.47-2.99-1.51-.24,3.83-1.74.18c.19,1.58,2.83.53,2,3.98l1.49-2.99c1.79.68-.61,5.16,3.29,2.67.2-.13,1.81-4.52,2.28.86.13,1.47-4.43,10.26-6.05,7.98,2.66-4,6.9-8.02-1.01-7.5-.27.19,3.41,5.78.5,5.97-.18.01-2.69-3.54-3.5-.48-.21.8,1.46.23,2.05,1.18.94,1.51-.19,2.98,0,3.68.21.77,1.97.66,2.01,1.16.23,3.26-6.11,4.63-.06,9.47-.87-.15-2.43.26-3,0l-1.46.91c-9.77,56.92-2.6,118.82,19.49,173.26l-.03,4.84-3.01,3.5,3,1.49c-3.53,2.49-6.35,3.87-9.98,6.02,2.14,3.56,3.95-.61,4.2-.69.96-.32,3,.98,4.78-1.32v4c-7.18-2.66-2.03,1.22-3.42,3.03-.95,1.24-3.14.93-4.57.98l1.99,1.98-3.06.56c1.13,4.54-3.02,7.5,2.06,8.46l.51-3.02c.58,3.3,5.46.3,8.5,2l.49-2.98c1.44,2.93,3.32,7.09,1.52,9.98,2.4-.89,3.07-.45,4.99,1l.51-1.99,2.49,2,1-3c-1.45,4.59,2.63,3.51,3,6.99-5.41-5.13-2.01,5.23-7.99,4.01-.25,3.41,4.28,3.25,6,5.5-2.28-.48-4.89.44-4.97,3.46,2.38-.32,2.65,2.77,3.49,3.04,2.8.89.33-3.31,2.48-3-.62,2.51,3.89,4.02,3.89,4.42,0,1.16-1.59,3.7-.89,5.57-3.65,1.44.08-4.22-2.5-3.99-1.26.11-.9,5.89-5,1l-1.5,3.97,4-.98c-1.43,1.61-.49,4.68,1.49,3.99.34-.12,3.09-4.19,5.5-4,.82,2.62-2.59,2.53-2.93,3.13-.39.68,1,1.94.71,2.73-.07.19-1.46.02-1.55.62-.43,2.77,2.01,11.14.8,12.05-2.86,1-5.8-1.96-5.02-4.9.08-.3,4.98-2.81.5-4.63-.68-.28-.98,3.95-3.49,2.99l-.02-3.99-1.99,3c-.83-.26-1.63-.56-2.37-.97s-1.42-.79-1.81-1.36c-12.51-17.88-23.41-36.16-30.6-56.88,13.54,47.2,48.58,97.73,93.93,118.25.71.32.9,1.12.86,1.95,1.05.37,2.05.37,3,0-.25-.91.09-1.25,1-1,2.27,1.23,6.69,4.03,7,1.01-10.21-2.64,2.35-3.32,3.05-.36.2.86.15,5.74-.14,6.24l-4.91.09,4-1c.08-3.38-3.87-3.3-5.03-1.28-1.33,2.31.1,5.83.04,8.28l2-2.99,1.49,2c1.53-2.94,1.69-3.59,4.99-1.99l-.48-3.01c4.89,2.55,2.52,11.23-2,4,2.55,9.68-6.96,1.49-10.01,5.99l4.98,1.51c-2.87,3.33-.91-1.96-4.97.54l.99,1.96c-4.2-1.61-4.44.26-2.99,4,1.6.45.73-1.49,1.17-1.68,2.24-.99,4.32,1.92,3.32-3.31,2.53.98,2.11,3.75,4.5,1.99-1.59,5.2-.87,3.27,1.77,4.44.24.11.21,1.25.38,1.3,2.21.71.99-2.4,4.76,1.6,3.53,3.75-.46-3.77,3.09-4.34.28,4.96,1.03,5.64,6.01,5.01-1.83,3.32-5.49-.71-5.01,4.98l-1.98-2.99c-1.95,2.81,3.08,4.54,1.98,5.99-.47.62-3.74-2.94-2.99.99,6.53.06,3.98,2.56,4.18,2.84.3.42,1.71.44,2.24,1.14.73.95-2.33,2.75,3.57,2.04l-2.99,3.98c1.14-.78,7.57-2.86,7.83-3.19.69-.86-.73-3.13,1.15-2.8,2.19,4.64-1.48,3.02-3.41,4.96-.19.19-1.27,4.27-1.57,5.03l4.97-1.99c.41,5.69,3.06,6.15,6.01,9.5l-4,.49,1.02-1.98c-2.85.31-3.53,2.39-4.5-1l-2.5,5c-1.08-.69-1.65-1.78-2-2-1.18-1.6-2.9-3.07-5-3-18.59-11.95-39.59-23.03-54.54-39.96-3.8-4.3-4.76-10.83-11.45-11.04.19,2.42-.12,7.17,2.98,7.01.48,1.93-2.2-.03-1.99,1.98,4.83-.56,1.86,1.09,2.3,1.77,8.51,13.27,12.29,31.85,12.75,47.7.03,1.11.62,3.79-1.04,3.53-1.25-1.54-1.03-6.53-1.22-6.83-.24-.38-2.31-.73-3.27-2.17-4.37-6.52-9.14-17.83-15.88-22.68-.88-.63-2.5-.17-2.65-.31-.41-.38,1.17-2.59.94-2.91-.13-.19-1.77-.32-2.45-1.07-54.82-60.32-81.44-124.96-84.53-205.48-1.03-26.88-1.31-60.42,1.05-87.03,2.72-30.69,14.1-43.32,26.72-69.28,15.4-31.68,22.95-66.96,14.27-102.23,1.27-3.16.94-4.82-1-5-.79.25-2.74-1.33-2.99-1-.06,1.33.04,2.67,0,4-4.88,8.07-12.52-10.72-2.56-8.1l2.43-1.68c-4.84-3.71-.73-6.9,4.19-5.6l-.28-1.46c-7.64-2.4-10.73-10-.11-7.79.51-3.34,1.71-4.64,5.03-4.36-6.82-1.15-7.66-8.97-2.52-12.99l.56-2.49c-3.01-1.54-3.95-8.63-.43-8.07,1.59,1.37,4.74-.23,5.69-2.45,4.54-2.52-.09-1.6-.05-2.55.04-1.01,1.05-2.22.98-3.83-.22-4.79-.4-9.87-.92-14.62Z"/>
  <path class="st32" d="M844,830c2.92,3.44,10.53,13.21,14.49,14.02,1.47.3,1.74.06,1.42-1.41-.85-3.79-4.15-10.3-5.73-14.39-14.7-37.97-23.17-63.85-27.16-105.73-.31-3.29.18-6.68-.02-9.98.94-1.55,1.38.83,1.52,1.47.45,2.01.43,4.1.93,6.08.91,3.6,2.53,7.26,3.46,9.72,5.01,13.25,12.46,28.34,21.13,39.47,1.35,1.74,2.78-.13.96,4.76h3.98c-4.59-14.11-9.5-27.88-13.38-42.23-.6-2.21-1.63-4.48-1.79-5.13-6.95-28.43-6.4-69.4-5.87-99.19.43-24.52.48-41.54,11.96-64.02,2.46-4.82,1.72,1.44,2.15,3.01,8.22,30.17,9.54,61.73,21.46,90.55,9.97,24.1,25.7,40.25,38.3,61.7,1.98,3.37,9.6,17.01,10.2,19.8.12.55.24,1.65-.51,1.51-2.94-.55-3.15-4.34-3.42-4.49-2.89-1.58-3.3-1.86-5.83-3.52-1.86-1.22-7.12-3.26-8.27-4.49-1.21-1.3-.88-3.37-1-3.51s-2.14,1.09-3.42,1.01c-1.71-.11-3.22-1.68-5.12-1.94-14.17-1.99-13.41,5.05-12.32,16.32,3.15,32.6,29.29,51.12,42.07,77.93,2.09,4.38,3.15,9.91,5.8,14.21l-2.98,1.48c1.69-.02,2.39-.54,3.31,1.23,2.62,5.07,2.54,17.7,3.68,23.77l-8.03-13.24-16.31-18.41-17.65-15.34c-.46,5.69-1.67,9.14-.89,15.39,2.63,21.03,13.25,42.61,14.88,64.12,2.47,32.59-10.34,52.51-24.18,79.79l-3.8,13.69c-2.45-20.63,1.08-40.74-4.31-61.2-4.64-17.62-22.78-54-37.96-64.15-14.02-9.37-12.54,4.79-11.61,13.79,1.01,9.76,2.77,20.5,4.88,30.05-2.15,2.17-2.03-1.15-2.96-1.99-24.82-22.29-42.59-43.46-54.05-75.5-.83-3.71,2.23-4.01,9.17-.89,2.44,4.59,4.45,4.86,6.02.82,6.79-2.09,7.1,1.31,6.21,7.12,1.3-4.45,4.75-5.27,5.55.06,2.59-1.18,7.04-1.09,7.89,1.78l3.02-.12c-.65-3.46,1.86-5.7,4.34-7.38,2.14-1.46,12-.35,12.37,3.37l2.91-1.8c-.68-5.54,4.39-8.07,8.52-4.95,1.19,1.45,2.05,2.82,3,4,.58,1.63,1.35,2.44,3,3Z"/>
  <path class="st2" d="M718,600c-.29,1.2.38,3.04,0,4.32-.28.96-1.92.63-1.97.72-.32.48,1.5,1.37,1.52,3.02.06,6.34-3.27,18.65-3.88,26.1-2.28,27.68-.48,60.3,6.3,85.53.86,3.18,1.82,10.66,1.05,13.83l1.97.49c2.27-8.81.35-17.87.17-26.65-.84-41.17-4.08-118.25,22.87-150.82,7.44-9,17.95-14.92,27.96-20.53-11.58,30.33-20.54,58.53-18.99,91.57,1.52,32.22,10.48,78.23,22.99,107.94,14.79,35.14,37.09,59.41,60.01,87.49-4.34,1.14-9.07.24-4.99,5.99-4.55.03-7.81,7.44-9.02-.98l-3.98,2-1-3.99c-1.4,3.34.8,4.86.98,7.99-1.58.31-1.01-1.85-1.93-2.57-.8-.62-2.66.94-3.05.57-2.12-2,3.46-1.63,1.98-4-.11-.17-2.89.88-3.99,0,2.03,4.41-.56,2.5-.99,3-2.53,3.01,3.74.88,3.98,2.98-2.99.08-5.4-.06-6.49,3.02.21-1.44-2.39-1.9-2.48-2.03-1.7-2.46,2.39-1.36,1.97-2.97l-3,2.99-2.5-2-.5,3-1.51-3.02-5.48,3.01.98-5.99c-1.88-.2-.59,2.59-1.91,3.57-1.03.77-2.83.34-4.08.41l.99-7.99-5,1.01c3.64,2.6-5.6,3.23-5.99,2.98-.19-.12,1.4-2.88-.67-4.12-.88-.53-2.46.06-2.82-.12-1.18-.6-3.68-4.96-5.52-.75-.71-2-1.3-4.02-2-6,.18-1.1-.15-2.1-1-3-2.79-8.27-2.06-10.88-8.46-18.04-8.01-8.96-19.89-12.05-26.54.04-4.91,3.15-8.6.24-11.05-8.74l-2.14-.46c-2.75,3.31-6.44,1.86-6.33-2.49-6.51.65-10.37-9.78-2.31-10.1l1.34-2.87c-4.73-1.02-6.83-5.42-3.7-9.22-1.65-4.12-.04-7.69,4.84-10.7-1.37-2.78-3.36-3.04-5.98-.79l-2.65-1.64c-5.88,4.2-11.76-7.59-1.12-6.86-1.64-2.89-1.45-5.48,1.72-7.24,3.05-2.99.8-5.5-3.1-4.09-3.25-3.74-5.48-9.33-2.75-14.73-1.96-1.75-2.7-3.36-.78-5.32,6.27-4.47,5.2-9.22-1.42-11.94-.67-4.52-.55-7.67,2.95-10.88l-1.03-2.68c-5.2,1.58-10.85-4.32-4.18-5.84-1.32-2.55-1.56-4.93-.71-7.14-6.19,5.6-9.01-4.19-4.36-8.88-.61-4.96-.37-8.96,5.78-6.74,4.96-2.56,2.75,1.09.37.54s-3.61-6.69-2.69-8.79c.79-3.25,1.69-7.52-.39-10.31-4.59-3.29-3.16-5.74.51-8.6-2.37-1.4-2.42-1.87-1.82-4.49,3.53-10.71,8.4-21.5,14-31,1.33-1.92,2.38-1.64,4.01-.29,5.04-8.21,8.51-3.14,6.99,4.29Z"/>
  <path class="st2" d="M768,615c1.38-23.06,6.79-44,14.99-65.51,2.43-6.37,8.76-22.69,12.55-27.44,2.91-3.65,8.1-.2,12.92,0,10.47.45,29.23-8.08,37.01-15.08,15.01-13.5,11.81-47.74-1.46-61.97-.35,4.9,2.48,8.64,2.98,13.51,1.92,18.77-1.08,42.57-16.44,55.08-17.42.02-34.26-2.67-46.57-16.06-7.82-8.51-8.22-14.76-12.8-24.2-8.64-17.8-22.89-31.78-13.68-54.33,8.17-20.01,33.51-12.36,46.72-2,.94.74,2.92,2.91,3.77,3.99-8.91-.02-18.49,9.68-18.07,18.5.14,2.96,2.74,5.3,2.07,8.5-3.04.11-5.85.2-8.83-.67-2.61-.76-16.57-11.31-12.25-2.73,1.21,2.39,10.45,10.1,12.81,11.17,5.94,2.69,10.44.2,14.57,1.42,2.09.62,7.85,7.1,9.96,8.41,4.28,2.67,12.95,5.49,17.98,7.65,4.04,1.74,6.96,6.21,11.58,1.11-.18-16.28-1.51-28.08-9.82-42.36,1.65-1.36,3.38-.95,5.18,1.21-1.69-6,6.29-6.06,6.71-.11,1.32-2.57,3.38-3.79,5.79-1.72.73-4.82,5.37-3.26,4.57,1.1,3.71-2.34,6.63-.83,8.75,4.52.66-.53,1.57-1.22,2.25-.92,9.42,4.1,13.66,13.09,16.43,22.2,0,.03-.12-.37.04-.53.34-.33.79-.55,1.27-.74,1.48-4.06,6.4-.97,7.25,2.55.81.6,7.97,2.25,8.22,1.33-4.76-2.68-3.57-5.25,3.56-7.7.98-2.89,2.75-3.74,5.36-2.29,4.59-6.14,9.5-4.84,11.6,1.11-6.11,15.15-12.72,39.3-22.04,51.23-13.9,17.8-34.93,22.11-55.95,14.77-.6,2.31,2.12,2.84,3.7,3.77,8.03,4.7,11.07,2.1,8.26,13.61-1.81,7.45-5.67,12.8-8.18,18.91-8.77,21.39-16.21,43.65-27.8,63.7-2.27,1.62-3.01.19-3.83-1.97.32,7.99-3.96,11.67-7.52,3.15,4.68-4.56-2.43-2.6-3.88.5.14,4.53-1.27,6.73-4.22,6.61,1.2,5.18-8.99,9.98-7.84,2.64,1.45-1.11,1.25-2.2-.59-3.25-3.13,5.21-8.4,3.83-9.71-1.62,2.9-3.17,1.29-3.72-2.7-3.51l-4.71-5.55Z"/>
  <path class="st26" d="M49,741c.53-38.37,19.29-66.82,32.48-101.02,8.12-21.07,13.83-46.28,26.16-64.84,3.01-4.53,13.94-17.13,19.63-15.99.74.15,6.32,3.72,6.52,4.05,1.35,2.32-5.23,14.42-6.91,17.2-.73,1.2-2.59,1.52-2.7,1.73-.21.39.94,1.97.63,3.11-1.44,5.42-5.21,12.14-7.09,17.96-17.75,54.98-16.06,93.06-10.73,149.3,1.75,18.5,2.58,37.05,5.02,55.48,2.39.4,1.9-.25,2.46-1.98,2.84-8.71,5.07-21.17,5.96-30,.09-.93.2-3.31,1.56-3.01,8.64,43.41,28.86,83.69,33.01,127.99-.58,1.96-.44,2.49,1,4,1.43.02,2.77-.22,4-1,5.71-1.63,2.33,6.87-1.36,7.7-2.1-1.79-3.31-.36-3.64,4.3l.53-1.07c-2.01-7.68,2.35-4.73,6.83-1.61,8.85-.79-1.9,13.49-4.35,11.6-.05-2.78-.38-4.09-1-3.92-2.96,1.15-3.68-3.4-2-5-1.26,3.09-.36,4.99,2,7,2.82.76,2.75,2.15,0,3-.87,1.49-.87,3.16,0,5,.23,1.82.9,3.49,2,5,2.78,1.54,2.5,4.16-.84,7.86,3.57.24,4.27,4.27,2.69,7.03,2.48,2.63,3.96,6.43,4.44,11.37,2.13,1.62,2.47,4.04,1.02,7.27,1.45-2.72,2.89-2.15,3.7.47.45,3.34.83,8.53,1,12-2.04,2.82-4.85,1.23-5.6-1.9.59-4.83-2.49-6.38-6.9-6.25-1.16,3.47-12.59-.14-13.22-2.04-1.08-3.21,3.81-3.36,3.48-3.24-5.74,2.05-12.39,3.9-9.89-5.04-.22-1.48-.56-3.58-2.38-3.15,3.21,2.53-3.78,6.94-6.49,5.63-6.84-7.12-9.68-15.7-12-25-.35-4.14-.13-8.42.65-12.86-2.96-3.52-2.07-7.42.43-10.95-1.28-2.35-2.24-6.58,1.38-6.64.41-1.97-.19-3.7-1.81-5.2,2.2-2.84,3.05-6.53,2.34-10.49-3.95-1.52-5.22-4.25-1.23-6.86,6.62-1.62,6.75-1.81,2.24-6.39-.64-3.21-1.57-6.18-2.78-8.91l1.44-2.71c-1.85-2-.31-3.73,1.58-4.94-2.71-2.66-3.9-6.34-3.57-11.05-11.23,2.86-15.18.95-11.86-5.72,0-.81-2.94-5.22-3.72-6.13-3.93-4.59-5.16-4.81-11.06-3.37-4.38-4.76-7.64-4.29-10.11,1.49-3.91,5.38-10.27,1.08-6.32-4.22-1.44-4.36-1.92-8.45-1.95-12.7-2.25-.49-3.47-1.61-3.66-3.35,2.92-17.74,7.66-36.01,11.01-53.54.09-.47-1.99-.45-1.97-.89.16-3.36,1.49-10.46,1.97-14.57-.92-3.42-.36-5.96,1.66-7.62-.88-3.13-.1-4.26,2.34-3.38-2,3.45-4.23,1.12-3.14-2.2-7.67-12.28,11.63-4.29,3.14,2.2,4.47-4.78,0-9.93-4.98-8.05l-.65-1.81c-3.36,1.56-7.99,1.68-6.32-3.08-3.41-1.04-5.25-.58-5.51,1.37l-2.97,1.89c.28,4.14-1.07,5.77-4.05,4.88-.51,4.91-4.04,10.65-8.28,5.42-1,.77-2.08.89-3.24.38Z"/>
  <path class="st24" d="M180,552c1.31-1.49,1.94-2.89,2.99-4.51.62-1.98-5.8,3.03-6.6,3.4-53.13,24.63-60.95-38.02-80.37-69.42-10.31-16.68-22.6-28.93-19.92-50.86.67-5.46,6.13-17.22,11.19-19.81,20.42-10.47,38.55,16.59,47.7,31.19-10.24-4.05-23.65,5.36-23.01,16.01-3.98-2.39-8.23-4.75-11.91-7.58-1.69-1.3-9.27-10.31-7.63-3.4,4.41,18.48,15.48,21.1,28.04,30.98,7.07,5.56,22.88,21.19,30.45,23.54,8.31,2.58,6.11-2.05,8.05-6.54,1.41-3.87,2.45-7.68,3.11-11.43l3.28-4.69c.13-4.33,1.48-9.32,6.31-5.28.84-2.52,3.05-3.77,6.62-3.75.99-2.28,1.95-4.49,2.88-6.66,3.34-.5,6.59-1.13,9.75-1.9,8.05-7.89,7.45-.38,6.06,5.71l-.35,2.6c-14.81,12.23-18.7,37.01-13.84,54.67l2.29-16c2.95-18.99,9.95-42.89,33-43.52-3.64-1.16-7.43-.85-11.13-.16l-1.97-1.59c-1.8-2.58.64-4.28,7.33-5.09l1.21-1.5c3.05.35,5.87,1.55,8.46,3.6,2.4,4.53,19.69,16.9,24.33,16.75,2.68-.09,12.23-4.43,14.87-6.08,2-1.25,4.08-3.85,6.5-5.47,30.28-20.29,52.05-3.16,51.3,30.8-7.26-2.52-14.03-5.66-21.84-6.43-43.77-4.35-48.9,41.13-79.18,51.92-4.79,1.71-16.88,4.36-21.7,4.23-1.41-.04-10.73-3.27-11.27-2.71-.27,2.49,1.41,3.65,2.99,5,2.71,3.28-7.23,10.42-8,4Z"/>
  <path class="st51" d="M251,669c.49-30.35-3.8-61.56-16.99-89,6.74,5.76,12.82,14.41,17.41,22.08,11.08,18.52,19.32,40.06,15.59,61.91,2.86.55,1.62-.76,2.27-2.18,12.41-27.07-3.14-58.61-18.97-80.6-2.23-3.1-3.77-5.7-7.04-8.24-5.96-4.63-16.38-10.91-22.18-13.48l-9.08-5.48c9.39-1.08,19.51-5.78,26.91-11.59,19.9-15.64,25.95-44.68,58.59-41.42,8.73.87,14.31,6.07,21.47,8.52,2.65.9,6.52-.76,6.03,2.47h.97c-.32-2.59,2.38-2.08,4.02-2.99l.75,1.03c-1.58,4.31-1.86,2.22-6.75,2.97-.95,5.84,6.31,5.14,4.99,10.99l-2.98-4c1.22,5.12-3.4,3.34-3.1,8.5.32,5.44,4.95,4.62,9.09,4.51-.22,2.47-2.92.85-2.99.99-1.63,3.12,2.86.89,2.99,2.99l-8,.02c-.3,5.47,2.53,3.51,5.99,1.99-.31,6.31-3.04,2.42-3.99,3.01l.99,4.99c-3.28.4-1.87-4.31-5.02-5.54-1.55-.6-2.59.61-3.4.56-1.17-.07.16-2.46-1.57-2.01-1.25,5.36,7.58,2.98,7.06,8.48-.45,4.8-5.64-.66-7.07,3.5,4.09-.69,10.84.18,6.01,4.01l-.51-3-5.5,4.5,1.99,1.49-6.99-1.99,1.99,7.01h4c-1.21,31.91-.07,49.2-12,79.99-1.43.39-2.71,1.78-3.83,4.18-8.96-5.04-8.31.87-4.01,7.64.5,3.62-2.45,4.77-5.18,2.59l-2.09.65c.37,4.33-.26,9.89-5.22,5.71l-.65,1.91c6.27,1.2,5.05,5.61-1.03,5.8-.69,6.04-7.71,2.55-4.16.14.68-.46-.88,3.33-2.45,4.85s-4.07.2-5.53-.91c-2.88,3.04-5.99,4.46-9.34,4.25.4,3.69-1.82,6.17-5.15,3.86-4.3,3.4-7.24,3.57-6.35-2.67.11-1.32-.08-2.68,0-4l1.39-1.5c2.99.14,6.43.14,3.6-2.65-2.91,2.81-4.58,1.19-4.99-4.86Z"/>
  <path class="st44" d="M243,710c1.43,3.52-1.35,5.26-4.01,6.69-1.2,1.99-1.2,2.76,0,2.31,2.41-.27,3.47,1.69,1.59,3.68,2.41,3.83,1.48,7.55-2.88,8.89,4.29,1.32,3.41,9.26-.77,10.2-1.55,4.44-3.33,8.32-7.75,3.97.87,3.53-1.62,8.99-5.06,5.57,8.57,6.02.05,13.61-6.13,8.7-.57-4.83-2.08-9.81-2.9-14.6s-.05-12.67-4.09-16.4c-.12,2.34,1.13,5.47-2,5.01v.97c3.63-.31.9,7.55.92,10.48.2,21.67.74,43.7,1.07,65.53-3.87,7.34-11.37,8.84-6.93-1.93l-2.43-1.13c-2.12-5.47-4.32-6.14-6.59-2.01l-2.51.15c1.94,1.89,2.91,3.77,2.9,5.64,4.03,2.22,2.87,5.32-3.49,9.29l-5.55.81c6.16,7.93-9.99,10.28-12.82,6.91-.2-.24-1.64-4.32-1.99-5.41-.52-1.61-.24-4.71.41-6.32-.21-1.83-1.38-8.03-1.04-9.35.24-.95,1.93-.57,2.02-.68.32-.4-1.84-1.95-1.99-3.49s.99-3.34,1.01-4.99c.25-30.34,7.94-63.09,15.65-93.56s18.66-55.83,16.38-88.49c-.41-5.84-3.76-13.71-3.85-16.91s2.1-7.24,2.58-10.28c1.69-10.65,3.47-21.46,3.26-32.25,13.74,12.47,21.34,29.24,26.49,47,9.5,32.77,11.73,67.09,11.58,100.51,0,1.9-.6,3.7-1.08,5.49Z"/>
  <path class="st11" d="M772,1071l1.98-1.99h3.03s-1.02-2-1.02-2c3.9-.59,3.09.48,3,3.99-3.75-2.23-2.57.17-4.99,2.51l3.99-1.5-.48,5.01c2.78-.08,2.73-5.2,2.49-7l6,1-2,2.98c2.75-.47,3.21.61,4,2.99l-3.99,2c1.85-.15,2.99,2.83,4.5,3.02.51.07,2.27-5.6,7.48-5,1.5,3.11,3.63,7.73,4.54,10.96,9.08,32.24-2.47,86.42-16.35,116.74-17.66,38.59-50.25,70.3-83.21,92.78-29.84,20.36-64.11,36.29-100.98,36.51l15.46-8.98c6.06-4.66,11.57-9.97,15.38-16.66,1.88-3.29,9.34-16.94,1.16-16.34,2.49-1.32,2.73-5.11,6-4.99-5.39,7.76,1.42,0,3.96,3.04.16.19-1.18,2.35,1.55,3.96l.48-2h7.01s-1,2.99-1,2.99c2.92-.42,3.44,0,3.02,3,1.96.31.55-2.41,1-3,.14-.19,3.63,1.59,3.86,2.6.21.93-1.67,2.9-.37,3.41,4.9-3.15-2.35-8.78-1.49-9.99,1.59.86,3.95.76,5.46,1.3.58.2.52,1.29.73,1.37,6.55,2.39,5.63-6.7-1.2-2.65l-.02-3.02c-4.72,3.52-6.93-1.87-6,6.01-6.66-1.19,1.05-5.99,2.51-9,3.06,5.2,5.93,1.21,7.49-2.99l-5-1.02c1.48-3.56,2.03-.6,3.47-.41s4.24-1.84,4.52-1.58c1.69,1.58-1.66,2.05-1.95,2.74-.64,1.51-.39,2.75-.04,4.26,43.22-14.36,73.8-50.27,88-93.08,2.55-7.69,6.27-19.62,5-26.92.32-1.85,1.92-4.05.11-6.41-.99-1.3-3.37.35-3.11-1.58,5.07.79,3.14-.63,4.38-2.62.28-.45,1.68-.41,1.67-.92-.01-.49-1.82-3.86-2.21-4.31-.13-.15-2.84,2.1-1.85-1.15,4.71.61,5.47-1.9,6.99-5.55l-1.98-1.45c6.2-1.43,2.81,2.86,4.96,4.56.62.49,3.71-1,5.03-.58l-4.99-2,3-3.98c-2.78,1.1-4.39-.31-6.99-1.02,1.2-2.59,5.95,2.25,6.99-1.98-1.44-.3-6.44.45-6.94-.08-.58-.6.9-3.26-1.04-2.92l-3.01,3.01,1.99,1.97c-7.17-.56-2.84,4-5.99,8,1.71,1.26,7-5.31,6.99-1.5-2.37,2.33-5.87,2.65-8.99,2.51,2.96-4.37-2.89-2.22-1.99-6.99,1.62-.09,1.82,4.62,3.99,2.99.11-.08-.46-1.44-.25-2.68.12-.71,1.17-1.4,1.26-1.83.05-.23-3.46-.9-2-3.48.11-.2,2.86,2.11,2.5-2.01l3.48,2.01c-.81-1.24.22-5.79,0-6-.37-.35-2.19,1.44-2.88.96-.39-.27-2.51-4.84-2.11-5.95,3.19-.84,1.47,2.51,2.95,3.58,1.04.76,3.83-2.84,3.06,2.42l5.98-3.52c.21-2.99-3.96.49-5.53-2.43-.73-1.36,2.61-5.63-1.45-5.07.17-1.73,3.49-1.11,3.01-4.44l2.98,1.45,1,.71,2.3-9.67c2.27-11.46,1.82-23.32.06-34.8l1.64-2.24Z"/>
  <path class="st39" d="M888,319c1.6-.05,3.01,1.13,4.25,3.56,1.95-7.44,13.54-4.36,8.84,4.47-5.01,1.8-6.71,5.78-5.09,11.96,6.35.87,4.19,9.03-1.58,6.56-.45.05-3.45,6.77-3.59,7.99,2.03,5.59-1.5,10.39-6.51,5.84-1.02-.25-3.32,7.31-1.75,8.57.66,3.89.39,7.98-4.29,7.32,3.86,6.36,2.99,10.07-2.61,11.13-.34,2.86-2.23,5.73-5.66,8.61-.65.57-3.11,3.64-2.96,4.39,2.85,4.79,6.34,3.33,9.76,4.22,10.84,2.84,17.4,6.36,28.6,1.28,3.31-1.5,5.55-4.69,9.04-5.89,1.64,3.33,4.65,5.38,6.42,8.57,1.35,2.43,1.72,1.38,4.14,1.42,1.43,1.32,1.07,3.12-1.06,5.39,1.12,1.98,2.68,3.62,4.68,4.9-1.51,1.67-2.05,3.23-1.62,4.71-5.35,9.37-8.06,18.24-12,28l-3.95-1.59-1.07-2.41c-.93-.69-1.77,2.61-2.14,2.85-.44.28-2.28-2.6-2.85,3.15-8.31-4.72-3.35.15-4,1-2.06-1.22-4.63,2.3-7.99,2.01-1.19,1.17,10.15,4.8,3.87,5.55-4.68.56-2.61,1.26-3.36,1.46-2.92.79-2.31-1.93-2.98-1.89-1.35.08-2.84,2.47-2.53-1.13-1.35-.55-.96,4.1-2.98,1.99-1.01-1.05.66-6.5-6.01-6l-1.42-.69c-2.04-9.15-9.42-18.75-18.58-19.31-1.69-.36-4.15.27-6-.01-.53-1.41,4.02-.87,1.99-2.98-2.71-2.82-3.73,2.71-7,1.98l.49-6.99-1.5,4.99c-1.61.83-3.28-2.4-3.97-1.99-.25.15-2.65,4.23-3.04,4.99-4.16-2.72.36-7.51-5.97-5.99.91,1.82,3.59,2,2.99,4.99-5.37.3-4.92-2.1-8.99-4-2.56-4.39-7.45-10.66-10.96-14.52-4.82-5.29-10.26-9.84-16.02-14.05,5.58-9.79,10.99-24.74,11.62-36.09.19-3.48-2.28-8.98.36-12.34,1.79,1.36.58,4.86.56,4.61-.52-6.27,6.82-6.44,7.17-.65.54,1.21,1.97,1.56,4.28,1.04,3.23,11.12,7.49,24.19,12.95,33.73,1.31,2.29,3.52,7.97,6.54,7.86.48-.02,1.32-.97,2.21-1.18.76-.18,1.84.52,2.13.35.23-.14,2.63-3.91,2.93-4.51,5.89-11.95,11.52-25.14,13.22-38.77.27-2.15-.55-7.17.18-8.33.36-.57,7.58-3.52,10.29-8.21,4.96-8.62,4.77-13.7,12.55-21.95Z"/>
  <path class="st12" d="M659,564c7.57-24.92,13.71-52.78,20.55-78.95.43-1.66.51-3.35.45-5.05,2.64-.24,1.62-.06,1.98,1.5,3.89,16.97,12.52,35.32,22.19,49.83,6.99,10.48,15.48,20.49,28.82,21.69-15.54,14.41-29.53,27.76-39.38,47.11-8.62,16.93-12.78,30.8-13.62,49.88-.83,2.95-1.52,5.46-2.06,7.54.15,2.45-.15,9.19-.99,11.07s-3.7,2.65-5.62,2.02c-.51.09-2.01.71-2.07.8-.24.35-.96,7.95-.78,8.33,4.05,1.9,3.47,8.17-1.33,8.6,1.26,2.52-6,7.9-5.82,7.23.47-1.74,7.91-4.78,9.24-3.57s4.34,9.07,1.4,9.63c-2.72-.66-3.82,2.23-3.31,8.66-1.15,7.08-6.24,5.26-4.93,3.09,1.68-2.79,1.62,7.77-3.73,6.59-2.69-6.08-7.26-17.13-8.67-23.74-4.13-19.3,6.33-42.94,9.58-62.86,3.28-20.12,3.51-40.67,6.1-60.4.01-.11,1.46-.65.99-2-2.99.26-5.59.27-6.01,3.99-1.61.45-.68-1.37-1.17-1.66-.55-.33-2.94.39-3.82-1.84-.21-.65,4.03-.84,1.99-3.49l1,3.98c3.99.23,2.55-5.35,2.99-7.99-1.86-.37-.33,1.82-1.49,2.01-.74.12-.17-2.89-2.5-2.01Z"/>
  <path class="st19" d="M193,346c.63.06.75,2.84.7,2.7-2.23-5.74,3.46-5.2,6.48-.35,4.22.22,8.21.78,11.99,1.67.09,2.4.37,4.73.83,6.98l-1,3c-.88-.39-1.21,3.45,0,5,.64,3.71,4.51,12.39,4.59,14.49s-3.27,9.6-3.62,13.97c-.76,9.53,1.6,16.46,2.07,25,.34,6.22-1.58,11.8-1.02,18.03.48,5.32,5.4,18.64,7.99,23.51-.99.04-5.77,1.23-6,1-.53-.51,1.34-3.88-2-2.99l.49,3-2.48-2c.4,3.84-4.85-.38-7.01,3.99-.4,3.02-5.35,5.68-8,4-2.7-2.71-1.79-4.12,0-6.99-4.72-.67-1.93,1.09-2.5,2.03s-1.46.05-2.26.41c-.23.1-.21,1.26-.38,1.31-.79.23-1.63-.8-2.26-.76-.81.06-.44,1.79-1.06,1.83-1.11.08-5.3-.97-6.54.18-2.43,2.25,4.46,2.75,5.52,1.01,4.05,3.4-10.02,1.69-6.86,3.96,2.97,2.13.01,2.75-.67,6.02l1.01-4.98c-2.75,1.86-10.73.14-5.99,4.98l-3.01,3.01c-3.15-.98.3-5.45-3.99-4.99l-.66,5.75c-.91.8-3.16,3.7-3.45,4.73-.93,3.28,1.22,4.51.09,7.5l-1.97-2.99c-.28,2.24-2.2,4.12-3.01,5.99-.04-9.87.65-19.92-1.92-29.49-2.16-8.06-9.83-23.39-14.23-30.86-2.28-3.87-13.18-15.46-13.71-17.37-.47-1.69,2.38-11.29,1.86-16.28-.13-3.09,2.05-3.44,6.54-1.07l2.46-1.93c2.61,2.19,3.37,4.93,5.98,7.52,4.32,4.28,10.5,7,15.62,11.9,7.46,7.15,15.07,15.18,23.88,21.59,1.66,1.2,4.55,1.42,5.55,2.45,1.27,1.31.17,3.67,1.95,3.53,3.13-12.99,4.84-25.95,1.74-39.22-3.68-15.73-9.03-21.68-4.73-38.77,1.52-1.44,2.17-3.45,1.96-6.03,2.29,1.28,4.64,1.63,7.04,1.03q1.28.91,0,0c-5.16,1.33-9.19-.68-4.36-5.4-.78-4.51-1.33-5.37-1.64-2.6-2.76-2.16-.19-6.37,0-8Z"/>
  <path class="st28" d="M693,627c.42,5.04.68-1.52,3,0,.34.22-1.84,5.6,4.99,2.99.36,4.62-4.06,1.4-5,2.01,2.53,3.3-2,1.94-2.99,3.01-1.55,1.68,4.46,3.05,3.01,5.98,1.68.41.6-1.27,1.15-1.76.23-.21,1.13.65,1.62.43.28-.12.27-1.7.7-1.68,2.79.12,2.41,7.28,8.51,4.02.45,2.64-.43,1.76-2.16,2.28-5.74,1.71-4.11-.28-7.82-3.28.51,2.21-2.24,6.14-.02,7.52,9.12-2.22.54,7.78,7,2.47l-1,6.99c-.84,1.07-6-4.12-5.98-4.5.06-1.17,3.19-.78,2.98-2.49h-5c1.13,3.67.28,7.73,5,6.49l-4.5,4.5c-1.79-4.87-5.39-.36-3.03.82.2.1,3.16-.67,4.04,1.17l1.48-2.99.02,4.99,2.97-2c1.05,1.74,2.5,6.53,1.01,8-1.84,1.81-2.04-2.04-2.55-2.06-1.29-.05-3.59,1.69-5.44,1.04-.48-2.63,1.97-3.23,2.01-3.49.18-1.11-2.47.34-2.01-1.49l2.99-1-4.51-.99-.49,3-1.99.98,2.99,2h-3.99c3.52,9.7,1.53.95,8,2.01-1.27,2.41.99,3.77-2,4.48,1.76.76,1.62,3.76,2.13,4.38.3.36,7.87-.01,9.33-.82.83-.46-.73-2.34,1.04-3.05,2.75,3.07-.96,3.89-1.52,6.99-1.81.4-.63-1.69-.99-1.98-2.03-1.66-1.97,2.03-2.5,2.03-1.66-.03-2.13-1.69-3.18-1.87s-1.77,1.08-2.3,1.16c-1.32.2-6.62-.13-1.5,1.67s1.71-.91,5.49-.99c-2,2.75,2.02,1.3-.01,3.98h3.01s-2.01,2.51-2.01,2.51l2,1.49c-3.78.7-7.03,2.45-2.99,5.52-5.78,2.34.77,2.72,1.47,3.47.46.49,3.36,6.22,3.41,6.71.27,2.64-3.82,1.25-2.87,4.31,1.59.06,3.32,0,4.8-.66s.58-2.58,2.19-2.33l-1,5.99c-1.67.43-.41-1.81-1.64-2.05-1.17-.23-9.47.36-7.34,3.06,2.27-.43,6.52.21,8.77.68,1.07.22,3.6.41,2.21,2.32-.22.3-6.99.12-7.35.05-1.18-.26.03-2.47-1.62-2.04-.26,2.55-2.15,5.51-1.59,8.08.42,1.94,2.32,1.92,2.41,2.1.67,1.37-2.57,4.21.65,3.82,1.77-2.66,7.25-9.44,10.51-6,1.84,1.94-3.2,1.67-4.52,2.95-4.61,4.44-.66,3.52-.38,5.5.6,4.28-4.19,3.59-1.1,8.53l-1.99-2.47c-2.14-1.48-.98,4.17.51,4.48,2.34.48,2.32-4.87,4.49-2.99.38.33-1.38,1.45-.49,2,1.53.95,4.25.07,3.48,2.99-5.08-2.2-9.4,1.69-13.98,0-.99,3.07,1.82,2.53,2.01,4.99,2.4-.17.84-2.91.98-2.98,1.53-.78,4.12,2.59,5.52,3,.57.16.3-1.79,1.14-2,5.83-1.47,3.49,1.48,3.9,2.03.56.77,2.33.71,2.37,1.41.21,3.67-5.13,4.74-5.79,7.28-.57,2.21,1.08,4.01.94,5.68-.02.27-5.7,2.46-.08,2.1.51,2.35-1.06.85-2.02,1.99-.15.99,10.91,2.65,4.01,6l2,2.49c-2.36.73-5.38-.65-6.98,1.5,1.62,1.94,1.63,6.07,4.98,4.5.14-.07-1.55-2.7.99-2.99v3.99s4.01-.98,4.01-.98l-3,3.98c3.94,1.88,2.59-.76,3.64-.99,7.36-1.61,6.86,7,8.86,11l2.49-2.99c-2.13,9.39.67-2.43,3.01,3-.93,1.7-1.9,2.25-1.89,2.43.37,6.81-.29,5.67-1.05,11.13-1.36,9.8,2.79,18.93,3.93,28.45-26.2-20.48-32.15-55.62-37.83-86.66-1.31-7.17-1.24-16.41-2.66-22.84-.24-1.09-2.21-8.18-2.51-8.5-1.54-1.63-1.75.17-1.96,1.51-.77,4.98-.37,10.22-1.66,15.16l1.14,32.33c-11.4-16.09-21.5-32.88-29.5-51,1.52-4.01,4.51-2.12,1-5.98,1.36.39,3.6-2.36,3.99-2.02.37.32-.82,2.39,1,2-.5-1.4,1.02-4.19.79-4.82-.07-.18-2.61-1.12-2.77-2.68l3.99-.5-3.98-3.98,2.97,1.99c1.62-4.39,1.32-5.52,6.02-4l-4-3.49,1.99-2.49h-4.99c-.52,1.43,3.99.84,1.99,2.98-.92.99-7.2,2.57-4-1.98-1.98.11-1.04,3.48-3.48,3-1.35-.27.42-1.81.41-2.56,0-.54-3.75-.33-1.41-2.46l3.48,1.02c-.15-3.3-.86-4.63,3-4.01.54-1.39-4.05-.9-1.99-2.98.46-.46,4.33-.65,4.91-1.12.15-.12.15-3.64.04-3.79-.34-.47-3.92-.96-4.95-1.11-.1-1.68,1.99-.76,2.82-2.66.7-1.62.46-4.89,1.19-6.81l-2.01,1.48c-.92-1.45,1.05-6.54,2.99-4.99.36.29-.82,2.39.99,1.98-.43-3.49,1.37-.71,3.3-1.14,5.35-1.2-.79-7.2.2-1.84-3.16-2.02-8.13-.5-7.49-6.01,3.43-.71.63,1.63,1.94,2.53,1.49,1.02,8.19.18,9.05-2.04-3.65-1.03-1.18-.95,0-3.49-4.69,1.82-6.72,3.63-12,1.98-.83-3.01,3.57-7.49,3.76-8.64s-2.49-3.88,1.98-1.58c4.06,2.09-2.24,1.75.25,4.17l-3.98,2.04,4.48-1c1.86.64.38,2.9.52,3,.57.4,3.87-1.82,3.99-2.01.42-.65-2.56-2.52-1.99-2.97l4.99.99-2.99-2c-.27-1.25.45-2.39,1.51-2.99.76-.44-.27,3.53,2.49,1-.53,12.06-.35,20.23,5.95,29.76,1.83,2.77,2.8,8.56,7.04,6.23.32-1.96-2.41-.52-3.01-1-.28-.22.65-1.74.5-2.44-1.21-5.7-4.47-9.89-3.58-17.12.29-2.33,2.08-.94,2.11-1.93.03-.94-1.75,0-2.04-1.14-2.29-9,3.07-26.41,6.02-35.36Z"/>
  <path class="st35" d="M172,817c.35,3.1-1.62,8.22,3.38,8.03.39-.01,6.91-6.78,6.6-2.54-.01.2-1.85,3.36-2,3.49-2.09,1.85-1.99-3.15-2.97-1.99-.42.49-1.94,3.97-2.01,4.99l1.99-1.99c2.89-.87,1.74,2.28,2.49,2,.64-.24,1.34-1.3,2.41-1.49,3.1-.54,3.18,2.22,4.1-4.52l-3.99,2.99c-.45-3.14,3.05-5.14,3.01-5.47-.48-4.51-5.06.3-5-4.52h6.99c.52,1.45-3.96.81-1.99,2.99.95,1.05,7.88,1.3,8-1.98l-4.99.99c-.64-6.09,1.03-2.82,1.79-3.29.44-.27-.14-3.34,3.5-.69.18.13,2.97,4.73,2.68.48-.05-.78-2.54-1.16-2.86-1.69-.35-.6.67-1.81.55-2.33-.4-1.71-3.46-.24-2.17-4.47l-3.01,3.99-.99-2.99c-2.74,5.05-1.23,1.73-5.5,1.01,1.46,1.9-.25,3.95-.08,5.38.15,1.18,2.52-.09,2.07,1.6-1.51.05-2.95.54-3.48-1.49-.1-.38,1.34-2.33-1.01-1.5-1.33.47.87,3.9-2.51,3,2.3-4-2.01-5.62,3-7.5-2.78-.21-.96-2-1.22-2.34-.4-.53-2.19.53-1.77-1.14,1.23-.08,2.7.43,3.82-.26.55-.34-.46-2.18,1.17-1.75l-.98,4.99c4.03-.79,7.41,1.64,6.97-4.44-.16-2.26-2.62-3.77-.97-6.75.57-1.03,9.06-6.18,10.5-6.8.45-.19,1.64-.26,1.48.48-1.11.67-1.52,2.58-2.28,3.21-2.91,2.4-4.46-.8-2.71,5.29,2.05-.48,3.07-4.96,4-5.99s1.05,4.04,2.99,1.98c.34-.36-1.44-2.45-.99-2.99,3.35-.33,3.68,1.44,4.74,1.96,2.1,1.03,4.06-2.03,3.24,4.03-1.74.55-.26-5.13-2.97-2.98-.14.11.36,2.1-1.94,2.56-4.03.8-5.98-3.6-4.09,3.42-1.63-1.63-6.08.36-6.79-.15-.58-.42-.78-2.59-1.71-2.85-1.41-.4-3.18,1.96-2.44,2.94.08.1,1.51.32,2.33,1.13s1.23,2.49,2.14,2.91c3.52,1.61,2.16-2.65,2.49-2.96.67-.62,5.29,1.47,6.98,0-1.36,1.96,1.12,7.58,3.01,5.99.27-.22-4.39-9.18-.01-4.99.24.23,1.53,5.04,3,5.98-2.36.11-3.01,5.05-3.98,8.02,2.47-1.81,3.24-5.05,6.99-5,.58,38.76-.02,73.43-13.94,110.56-.39,1.05-.71,2.31-2.05,2.44,1.62-4.83-.95-6.33-2.41-10.11-1.36-3.51-4.29-13.33-8.29-14.72-2.45-.85-5.63.76-6.69,2.9-1.52,3.08-2.29,8.9-3.62,12.92-2.78-.63-4.11.61-3.29,3.42l-.71,6.58c-.31,1.05-.67,3.49-1,5-.75,1.85-1.47,4.01-1,6-.04.33.04.67,0,1-.72,4.24-5.29,4.82-6.63.58,1.19-4.71.08-6.36-2.37-1.58h-3.99c.14-1.88,1.32-3.06,1.99-5-1.33-1.28-1.95-4.07,0-5-.08-.96.19-2.18,0-3-1.94-.55-1.92-1.44,0-2,1.82-.51-3.24-4.64.48-2.99,2.91,1.29.31,4.79.52,4.98,1.75,1.67,3.12-3.69,5-4.5l-1.99-1.49,3.99-.51c-1.25-2.05-2.23-.66-3.57-.63-2.93.08.1-1.48-.42-1.87-2.24-1.66-1.9,2.26-2.5,1.99l-1.52-4.99c-2.63.69.6,4.77-1.99,4.99-.18-.9.26-2.15-.02-3.26-.13-.49-4.85-4.15-4.98-5.73,2.52-.24,3.48,1.12,4.5,3,.68-.05.34-5.49,2.5-3.02.46.52-.97,3.32.99,3l3-3c.68-1.71-.86-2.53-.99-3-2.08-7.53,4.03-24.15,5.73-32.77,3.27-16.6,5.93-31.68,5.3-48.73-.06-1.69-.74-4.42.97-5.5Z"/>
  <path class="st27" d="M188,548c3.4,2.9,2.23,1.05,5.29,2.03,1.07.34.25,2.84,2.7.96-3.78,24.41-7.23,49.43-14.99,73.01-1.63.89-2.3,2.55-2,5-1.47,4.02-3.32,8.06-5,12q-2.98-1.37,0,0c-1.58,3.7-3.29,8.56-5,12-2.26,2.81-3.94-.04-3.95-3.24-4.02-1.94-5.29-7.06-3.44-10.68-2.88-1.32-2.84-3.91.12-7.77-2.69,1.97-5.81,1.7-9.35-.81-6.33,5.3-8.26,3.63-10.85-2.93,1.25-4.69-.48-4.95-5.19-.76-.09,6.83-4.68,9.1-9.31,3.6-1.92.84-3.11.64-4.01-1.42,2.12-8.56,4.19-17.16,6.96-25.54,4.18-12.59,10.42-24.78,14.04-37.47,10.37,3.26,29.14-6.2,35.99-13.99l3.33.86,4.67-4.86Z"/>
  <path class="st1" d="M273,713c-.29.68-.71,1.32-1,2-1.87.9-2.21,1.57-1,2-.32.77-.77,1.43-1,2-1.78,1.1-2.45,2.77-2,5-3.16,8.05-6.98,17.72-9.68,25.82-8.98,26.97-11,55.52-17.33,83.18-2.01.26-1.64.18-2.24-1.25-2.91-6.96-3.28-16.67-6.75-24.06-.3-.63-1.76-.66-1.86-.87-.33-.66,1.8-4.75-.64-4.8-3.17-.06-4.73,9.75-5.52,12.46-.4,1.36.11,3.13-1.97,3.52.58-12.94-1.75-25.67-3-38.51-.6-6.13-.3-13.46-1.01-19.49,2.74-1.26,7.3.89,7.98-3.52.41-2.65-1.77-.77-2.72-1.67-.62-.59-.25-2.33-1.76-3.81-.42-.41-.18,4.14-2.48.5,2.34-3.01,6.31-.92,3.99-5.5l3.98,6c-1.63-5.35-.87-2.95,1-4.01,1.25-.71-4.09-1.69-2.98-3.99,3.84,2.06,2.64-.71,3.63-1,6.21-1.79.52,2.78,3.84,2.98,4.17-3.78-1.36-2.89-2.48-4.98,1.21.06,2.28-1.1,3.41-1.09s-.17,2.48,1.57,2.07c.21-1.01-.29-3.59.02-3.99,1.78-2.31,1.76,2.61,2.98,1.99l.54-6c-2.07-2.87-2.12,3.82-4.53,2-.36-.27,1.04-1.54.81-1.84-.4-.5-2.39.65-1.81-1.64.28-1.12,3.08.74,1.01-3.51,6.63,3.52,8.85-7.5,1-4-1.29-3.31,7.24-2.47,3.99-6-.6-3.62,2.43-6.11,5.83-4.17-.2-7.05,8.39-2.96,7.06,1.59-4.03,3.9-4.31,6.88-.85,8.94.92-5.85,3.36-8.09,7.32-6.69.25-2.57,1.85-3.36,4.81-2.35,2.05-6.51,7.34-11.94,9.83-3.31Z"/>
  <path class="st39" d="M123,629c3.78-.18,3.57-.21,5.99-3l.02,5,3-.99-.5,2c2.58.17,3.34-5.51,2.49-8,3.75.18,5.04,2.75,2.99-2h3.02s.48-3.02.48-3.02c1.89,1.01,1.67,3.33,1.85,3.76.26.62,2.98.42.67,5.26l2-.51v4.5c2.72-.42,4.29-1.19,5.99-3.51-3.05.03-4.38.54-3.98-3.49,3.84,1.99,8.13,5.65,12.56,5.96.49.03,0-2.68,1.91-1.95,5.31,2.03-.11,5.8-.48,7.51-.13.61,2.26.29,2.55,2.38s-1.29,2.67-1.56,3.63c-.17.62,1.95.23,2.03,1.07.06.58-1.04,1.59-.84,2.26.1.33,4.68,3.87,5.81,3.16.36,1.67-.97.7-1.32.99-1.77,1.46.16,2.43,1.32,3-8.54,17.23-22.02,36.94-44.31,32.77-2.69-.5-2.57-2.34-3.17-2.54-.95-.32-6.02.21-6.51-.24-1.04-.97,1.59-24.89,2.12-28.36,1.29-8.52,3.8-17.29,5.87-25.63Z"/>
  <path class="st29" d="M131,401c-.66-6.27-5.86-13.75-7.35-21.15-2.44-12.14-1.3-30.05,9.84-37.85,13.38-9.38,28.49,2.24,34.89,14.12,3.99,7.39,5.47,16.06,9.61,23.39-2.61,1.04-4.08-2-7.09-2-10.09,0-17.81,11.67-19.41,20.5-3.81-.05-12.33-16.27-15.48-19.01-1.93,7.14,2.78,12.31,3.99,19,.4,2.23.57,3.71-.01,5.99-1.79.4-.64-1.63-.99-1.99-.51-.51-2.68-.27-1.99,1.48,1.06,2.65,4.8.73,4.99,4.51-1.56.69-4.57-2.36-4.99-1.99-.37.33.82,2.39-1,1.99.3-2.94-.46-9.94-5.01-7Z"/>
  <path class="st43" d="M70,820c4.13.24,6.52,4.88,7.01-2,4.87,6.03-.42,4.45-1.01,5-2.68,2.48,3.09,1.2,3,2.99-7.64,1.33-2.26,3.13-2.19,3.48.19.99-.7,3.92.21,5.52,1.4.52.87-4.03,2.99-1.99.22.21-1.06,1.63-.87,1.88.36.48,2.27-.62,1.85,1.09-2.8.43-7.14,2.22-3.48,5,2.78.16,5.24-6.6,5.61-6.86,1.84-1.28,5.29,2.12,2.88-3.13,1.59-.1,1.74,3.16,2.48,2.99,2.09-.45,1.97-2.71,3.5-2.99-2.95,10.28,5.61,4.57,4.01,3-2.1-2.06-1.59,2.52-2.99,1.98l1-7,2.98,1-.97-6.52,1.98-.48v6.99s5-.5,5-.5l-6.99,2.52c.83,3.13,3.76,4.42,6.03,6.3.41.34,1.73-.33,1.86-.16.52.69-.48,3.12,2.61,3.84l-1-4c3.79,2.18,5.95,1.04,9.48,4.03-.06.85-3.27,2.97-3.49,2.97-1.5-.04.15-4.99-5.49-.97-.36,1.55,1.3.52,1.94,1.72,2.98,5.56-3.46,3.16,1.07,8.25,1.95.32.53-2.43.99-3,1.77-2.2,1.94,3.78,4,2,.66-.57-4.72-5.76-4.98-6.49l7.97-2.5c.83,1.02-3.78,8.35,0,9-.47-9.36,3.56-2.85,2.9-2.11-.43.48-2.34-.61-1.88,1.09,3.34-.36,2.67,3.62,3.03,4,.63.65,3.83-1.89,4.96.52-1.58,1.63-4.07.65-5.99.5-.43,1.69,1.71.42,1.97,1.61.15.69-.98,2.45-.09,3.73,1.67,2.41,8.05-.4-.88,6.16l2.99.49c1.03,1.12-7.4,5.66,0,5.01-3.27,7.17,2.06,8.27,5.99,12.97l-5.99,1.02,4,3.98c-2.09-.54-6.42-.23-6.01-2.98h-.97c1.16,2.79-5.24.32-.71,3.25,2.71,1.75,3.36.09,2.71,5.74l2.99-.99v4.99s-2.98-2.99-2.98-2.99c-1.34,3.89,2.09,7.41-3.01,5,1.58,2.43,3.42,2.73,2.01,5.99l3.99-1.99c.19,6.43-5.7,3.6-7,5-1.77,1.92,2.94,2.6,2.98,3.48.01.31-4.12,4.24-2.98,5.5,1.21,1.34,4.02-3.95,4.99-2.99,1.83,1.82-1.72,1.92-2,2.5-1.3,2.71,3.45-.99,2.01,2.49l-5.99-.99c1.13,3.07,3.19,4.9,5.01,7.48l-3-1.49c1.11,3.3-1.41,5.52-2.02,7.52-.09.29,5.03,1.45,0,4.48-1.81-7.26-2.43-13.69-3-21,1.69-3.43,1.89-9.56,0-10-.55-12.26.11-26.91-2.51-39.01-2.05-9.42-7.64-14.85-17.76-12.76s-13.52,18.28-13.74,26.77c-15.03-16.69-14.45-43.98-10.99-65Z"/>
  <path class="st8" d="M925,409c4.75-7.46,6.38-11.07,10.11-19.2,1.74-3.8.43-1.65.94-6.16.65-5.74,2.72-9.55,8.69-10.41,17.75-2.56,21.04,14.76,24.39,28.13,1.42,5.68,2.96,12.64,3.64,18.4.29,2.42,1.63,13.14.22,14.23-2.5-.42-4.16-4.95-5.18-5.73-.37-.28-8.13-.41-9.31-.28-5.79.63-10.14,2.86-12.99,7.99-1.13.03-2.87-9.89-3.14-11.63-.23-1.47.76-3.63.28-5.4-.64-2.4-3.96-4.09-2.64-7.96-3.59-3.77-11.65,10.65-13,13.01-4.58-2.59,1.58-3.44,0-5-.27-.27-4.61,2.54-5.99,1.99,1.96-2.9,3.82-.78,1.95-4.96-.08-.1-2.91,2.21-1.94-.51.32-.89,3.13-5.17,3.99-6.52Z"/>
  <path class="st23" d="M306,644c-9.28,23.95-23.33,46.31-33,69l-4.98-3c-1.48,4.1-3.05,11.6-8.01,7l.99,3.99c-1.39.62-5.61-1.36-5.98-1s-3.06,8.98-3.08,9.47c-.04,1.09,2.51-.22,2.05,1.52-1.51,0-3.93,1.98-4.99.52l1.99-2.49-2.99-.02,2.01-1.47c-1.63-1.97-.28-3.25-3-1.51.36-1.09-1.03-5.11-.88-5.52.27-.79,2.9.43.87-3.48,5.21,1.25,3-5.07-.99-3.99l1.99,1.48-3.5,3.5c-5.14-6.11-2.23.74-2.5,1-.43.42-1.22-1.53-2.99,0-2.13,1.84-1.19,3.79-4.99-.51l2.98-.49.02-8,2.99,2.5c-4.36,1.31-1.68,4.02.96.68.66-.84-.17-1.74,2.04-3.18.06-.04.53,1.13,1.43.09,3.3-3.81,6.09-22.45,6.57-28.09-.88,6.97,5.61.23,6.51.25.83.02,1.91,2.19,2.48,1.75.81-.64.59-4.79.01-5.99,1.83-.39,3.73,1.21,5.34,1.03.44-.05,5.02-4.46,7.18-5.05.27-.07.96,2.8,4.47,2.01l-3.99-6.99c4.31-.05,3.05,1.8,4.52,3.99,2.24-.76,4.62-2.28,2.47.99,3.27.84,1.21-2.17,2.59-3.09,1.27-.84,3.85-.77,5.41-.91-.07-1.12-6.24-1.8-6.58-1.75-1.38.2-.8,3.64-2.9,2.75-2.85-1.22-1.45-5.76,1-6.98l.49,2.98c3.34.12,4.42-3.37,3.99-6l-1.98-.47c1.21-1.77,3.01-1.64,5-1.51-1.26,1.82-.12,5.23,1.98,5.99-.41-1.44.14-5.64-.19-6.54-.28-.76-2.7.16-1.8-2.45,3.04-.55,4.76,2.47,5.49-1,1.39.48,2.47,4.67,4.5,1.48l-1.98-.48c.31-4.41-1.67-4.4-4.03-6.49-1.65-1.46.4-3.42-3.97-1.53,1.72-1.6-.18-4.81,0-4.98,1.54-1.53,4.83,4.93,5.01,5.98,1.82.34.53-1.88,1.23-2.71.99-1.17,4.26-2.3,5.27-4.28,3.62.38-1.01,5.42,4.48,3.98l-1.99-1.48,2.01-3.5,2.99,2.99Z"/>
  <path class="st20" d="M193,346c1.35-11.72,2.35-20.7,15.02-25.49,22.5-8.5,35.43,18.79,38.98,36.48-5.23-2.5-16.65,2.7-19.44,7.06-1.13,1.77-.63,7.13-4.07,6.65-4.23-.59-4.52-12.29-10.49-13.7-.8-.19-2.75.24-3,0-.22-.21.66-5.16,1-5.99-3.3-1.04-1.16,2.73-2.54,3.06-1.66.4-4.53-.39-6.45-.08l4.99-1-2.02-2.98c-1.76-.44-.65,1.7-.98,1.98-2,1.65-1.94-1.58-2.21-1.81-.53-.47-1.8.61-2.31.49-1.86-.44.22-2.2-2.96-1.91-1.28.12.22-2.76-1.03-2.76-3.6,0,.45,3.66-1,4.01-2.56.62-1.22-2.77-1.49-4Z"/>
  <path class="st2" d="M888,319c.53-.56.4-2.04,1.71-3.04,1.54-1.18,7.82-3.59,9.88-3.87,20.51-2.78,29.53,26.88,30.41,42.9-2.59.18-2.88-2.47-5.51-2.97-3.75-.72-9.73-.13-12.99,1.97-3.9,2.52-6.93,11.93-6.1,1,3.25-4.76,2.63-10.2-3.64-5.96-15.38,10.4-9.17,28.41-20.54,38.97-3.13,2.91-8.4,4.55-11.22,7v-6s2.99,1,2.99,1l1-2.99-2.98-3,3.98-1.04-.49-1.98,1.5,3c1.88,1.08,3.37-2.34,2.77-3.81-.1-.24-1.32-.1-1.52-.67-.39-1.12-.03-3.21-1.22-4.98-.62-.92-1.7.83-2.02.48-2.14-2.27,4.41-2.27,4.98-3l1,3c-.36-1.49,1.12-3.41,1.07-4.44-.05-1.09-2.52.15-2.06-1.55,4.3.26.15-2.34-1-3.99,4.31-.07,2.22-3.89,3.25-5.78.25-.46,3.88-2.47,4.25-4.23.91,4.11-.46,4.49,4.49,3.99l-2.99-2.49,2.99-.51c.44-1.76-1.73-.66-2-1-.23-.29,2.93-4.33,1.01-6.99l2.99.99c-1.91-3.53,2.11-7.6,4.99-3.99,2.87-7.29-1.5-2.25-2.99-3.01v-5.99c-1.33,0-3.03,2.52-3.01-.49,0-1.26,4.05.82,3-2.51l-2.99-.98c4.13-.59,4.18-6.09,8.99-6.03.39-1.86-1.86-.32-2-1.49-.02-.2,3.66-1.09,2.01-3.49-.43-.62-5.29-.45-5.96.06-.22.17,1.43,3.46-1.54,4.93-2.45-4.97-2.29-1.08-1.99,2-1.79-2.64-8.1-4-2.22-4.98,1.71-.29-.28-2.99-.28-4.01Z"/>
  <path class="st6" d="M812,344c-.08-13.65.28-32.91,16.01-38.49,20.77-7.36,30.5,19.04,27.98,35.49-13.2-9.56-26.16.36-26,15l-2.94-2.77c-1.53-1.11-2.22-9.06-4.54-8.21-2.73,1,1.77,12.52,2.48,14.99l-1.99,3.01,3,.99-1.5,3.99c-1.74-1.9-.84-3.75-3.5-1.99,2.18-4.12-3.91-4.95-2-8.99-1.28.03-3.01-.32-4.07.42-1.72,1.2.18,4.59-1.92,4.57-.02-2.33,0-4.67-.01-7,0-.33,0-.67,0-1-.14-3.4-.47-6.73-1-10Z"/>
  <path class="st13" d="M462,1057c.98-.37,1.84-1.13,3-1.01-.71-1.45-1.96-2.13-1.12-3.89-1.61.6-5.64-2.3-5.87-2.1-.37.32.82,2.39-1,2l-.51-2.99-2.01,1.99c-2.09-1.52,2.77-3.82,4.06-3.96.49-.05.38,1.81,1.64,2.3,2.51.98,8.24.74,8.66,5.38.18,1.93-2.18,4.69-1.57,5.83.78,1.47,4.07,1.29,2.69,3.43-.12.19-3.43.38-2.54,3.05,2.1,1.22,4.71,2.97,5.56-.02l-3.99-2.02c3.29,2.36,1.27-1.32,2.96-2.58.46-.35,4.59.36,6.02-2.41.33,1.33-1.25,2.63-.79,3.76.96,2.38,4.56,1.57,4.81,1.71.96.56-.4,6.19,3.99,5.52-4.2-4.12.81-8.48-3.01-12.98-.98-1.16-.87,4.08-2.97,1.51,1.56-3.39,1.4-5.22,5.5-3.66l2.49-2.86c7.76,18.62,19.95,29.78,17.03,53.53-.44,3.55-3.03,6.45-2.04,10.47-2.32-2.66-3.84-7.61-4-11.01l-1.97,1.02c-7.86-18.71-25.3-32.4-42.02-43.01,3.75-2.47,4.18-4.14,8.99-4.01-1.59-1.9-1.23-.59-1.99-2.99-1.63.61-2.69-1.24-.99,1.99-.91,1.01-5.01-3.07-4-3.99,1.48,1.27,4.81-.18,4.99,0,.2.21-.17,1.44,0,2Z"/>
  <path class="st35" d="M768,615c3.08-1.82,5.54,5.78,6.99,4,.87-1.06-2.73-8.06.45-4.94,2.57,4.03,5.58,9.24.56,11.94,3.8-2.09,2.86.92,3.49,1.04,3.76.68,3.26-4.05,6-4.04l2.49,3.01,2.01-3c1.48,5.12-1.94,4.36-2.98,7.99,2.69.76,1.46-1.31,2.8-1.95.67-.32,2,.13,2.19-.05.27-.24-1.66-5.22,0-6.99,5.24,6.68,2.34-.46,4.09-3.37.13-.22,3.4-3.52,3.63-3.68,1.07-.74,2.67.06,3.07-.23.76-.55,3.97-5.75,3.19-6.72l-2.98,1,.99-4.99c2.46-1.67,3.13,5.41,3.08,6.48-.1,2.08-1.24,3.07-1.61,4.55-.59,2.35,1.77,2.54-2.45,4.46l3.97,3.49c-.74-2.01-.02-9.97,1.02-10.99,1.98-1.93,3.2,5.98,4.99,6-6.35,10.98-19.96,33.8-33.64,34.95-2.3.19-4.52-1.39-6.85-.18-2.17-1.75-3-4.48-3.5-7.27-1.83-10.16-1.62-20.35-1.01-30.5Z"/>
  <path class="st33" d="M387,528l-4.5-4c-3.01,6.2-1.9-1.54-2.5-2-7.27,2.89-1.73-1.62-3-2.99-4.8,3.26-9.1-3.09-10.99.99l2.99.5c-4.12,4.7.61,2.85,1.01,6l-2-.5.99,3c-5.11,1.52-5.53-4.73-8.49,1.01-2.1-.99-.21-3.2-.63-3.79-.21-.31-1.98-.81-2.92-1.67-1.34-1.22-.04-3.42-2.95-1.52-.17-.24,1.02-5.56,1.21-5.78.66-.75,3.57-.08,3.78-2.21l-6.99,2,1.98,1.97-2.99,3.02c-2.88-8.22-3.35-20.01,0-28l6.99-1c.92,4.4-5.72.76-5.98,1-1.74,1.62,1.13,3.69,3,3.5,0,.23-5.43.79-3,3.49,1.7,1.89,2.14-1.95,2.42-1.92.75.08,1.79,1.05,2.94.99.71-.04.66-1.62,1.34-2.05,4.04-2.54,4.31,2.12,6.79,2.01.68-.03.38-1.57.74-1.82s3.78,1.33,3.73-.71c-.06-2.87-6.32,0-6.98-.51l2.01-4.98c2.27.37-.58,4.32,3.48,3.01.27-.09.35-1.31.89-1.64,1.92-1.19,3.42.76,2.62-4.37,1.74-.41.44,2,1.54,2.06.91.04,2.54-1.16,3.99-1.12,4.03.11,6.03,3.17,7.46-1.94.31,3.51,1,8.25,1,11.5v16c0,2.4.66,9.66,1,12.5Z"/>
  <path class="st11" d="M694,231l5.5-7.98-.5,4.97,2.99,1.01,1.01-6c2.03,9.14,2.47,16.02,1.99,25.49l-5.99,42.51c-.59-4.9-2.95-6.28-4.72-9.22-.18-.3.67-1.21.45-1.59-.12-.21-2.93.08-1.68-2.16.09-.16,4.07-.81,1.95-3.03-1.34-1.4-2.86,2.31-2.99,4l-2.41-1.45c-2.63-12.7-6.46-24.5-15.99-33.63-.85-4.62,15.4-10.59,19.26-6.2l1.15-6.73Z"/>
  <path class="st0" d="M598,1096c.44.22,1.84-.62,2.06.59,1.51,17.54-1.04,35.74-8.37,51.86-.28.61-1.2.62-1.56,1.34-.87,1.7-4.53,10.69-5.14,11.21-.12.1-2.12.37-1.96-.49,2.13-12.22-.92-26.5-4.03-38.5l.09-3.06c-2.24-4.16-2.27-6.14-.09-5.94.3-2.09.6-3.61,3-4,.43-2.41,1.37-2.31,2,0,4.05.65,3.41-4.34,0-5-5.08,2.62-.73-5.44,1.39-6.31.83-.34,5.51-.98,5.71-.74.59.73-.73.16.47-.68.36-.25.87-.29,1.43-.27-.09-1.5,1.58-1.5,5,0Z"/>
  <path class="st13" d="M130,966l4.14-3.78,2.86.77-4-2c-.98-1.03,6.85-6.67,7.85,2.44.21,1.86-1.95,3.33.16,5.04.42.34,2.48-1.24,2,1.52l1-3.99c1.55,2.36,5.79,1.73,5.98,2,2.11,2.9-4.53.86-2.98,4,1.56-1.36,3.7,1.25,3.98,1,.35-.3-.77-2.43.99-1.99-.33,2.63,2.88,1.27,3.52,4,2.41-6.03,1.34-2.89,3.92-2.98.51-.02.92-4.03,2.58-2.04.27.33-.33,2.27.07,2.92.16.26,2.59-1.6,4.71,2.85,2.01,4.21-1.87,5.14,4.22,6.24.11,2.34.68,4.21.46,7-.81,10.14-4.49,22.92-10.45,31,2.78-12.52-2.9-25.99-10.99-35.52-5.97-7.04-14.04-12.26-20.02-18.48Z"/>
  <path class="st18" d="M169.71,386.21c8.94-2.04,11.56,7.55,13.96,14.61,2.75,8.1,5.74,18.33.83,26.16-6.17-5.85-24.79-17.45-24.43-26.32.2-4.89,4.56-13.29,9.64-14.45Z"/>
  <path class="st25" d="M826.99,463c-7.95-2.25-28.52-10.76-29.94-19.56-1.28-7.98,2.96-16.23,11.99-15.01,10.13,1.38,21.49,24.66,17.94,34.56Z"/>
  <path class="st11" d="M49,741l3.01-4,3.01,3.99c1.06.61,4.56-4.54,2.47-4.99-2.64-.58-.5,2.29-2.47,1.99.73-2.22-6.55-3.2-4.01-5.99.42-.46,2.83,2.47,3.5,3,1.4-4.58,2.57-.5,4,0,.28.1.11-3.15,4.49-1-4.05-10.91-.76-4.89.97-5.49.81-.28,1.69-1.78,3.03-1.52l-2-2.98c2.45,1.73,4.66-1.6,6-1,.14.06-1.42,2.82.99,2.99l.51-4.01c.74,1.66,3.1,2.92,3.47,4.56.55,2.45-2.28.59-1.96,2.44,4.2,1.16,9.23-5.02,7,2.01.44.4,2.43-1.07,3.43-.85s5.03,5.97,4.56,7.86l-2.01-.49c1.62,2.72,1.28,2.91-1.98,2.48.52-1.37,1.44-2.79.92-4.36-.08-.24-3.18-3.74-3.41-3.64-4.03,1.72,3.96,4.79.45,7.43-.02.81,1.47.49,2.05.56-.19.5-1.34,1.77-1,1.99l2.99-.99c.81,3.22-3.18.88-.98,3.99-2.54-1-4.32,1.43-3.01,3,1.87,2.24,1.73-2.57,2.98-1.99.71,4.18,1.35,8.29-3.98,6.99l3-2.48-3.02-3.5c-1.83-.17-.85,2.76-.99,3.99-1.81-16.67-13.84-11.67-21.98-2.48l-9.01,15.47c-1.16-7.63-1.12-15.28-1.01-23Z"/>
  <path class="st50" d="M146.99,485c-9.66-5.56-18.17-13-27.05-19.69-5.56-11.17,8.06-19.94,17.35-15.09,6.75,3.53,10.62,27.27,9.7,34.79Z"/>
  <path class="st30" d="M845.99,387c-3.93-4.1-12.19-25.73-11.74-30.35.1-.99,2.2-4.95,2.91-5.98,6.4-9.23,18.35-6.28,17.41,5.65s-5.15,20.05-8.59,30.68Z"/>
  <path class="st30" d="M922.99,395c-1.38,1.04-15.85-23.58-10.89-31.4,2.16-3.4,11.5-5.12,14.5-2.7,5.07,4.09-.64,28.31-3.61,34.1Z"/>
  <path class="st18" d="M254.99,396.99c-1.73.45-2-.72-3-1.49-5.37-4.12-15.27-14.37-17.24-20.82-2.59-8.47,8.04-16.83,14.45-7.39s3.81,18.71,5.79,29.7Z"/>
  <path class="st31" d="M947.01,469c.32-7.65,1.02-25.55,7.04-30.46,3.24-2.64,10.98-4.27,11.96.96,1.77,9.49-7.97,28.77-18.99,29.5Z"/>
  <path class="st13" d="M159,936c-.04-2.09-2.25-6.06,1.49-6.02.26,0,3.54,3.42,3.58,3.67.44,2.77-3.96,7.28,3.92,3.35-.45,4.09.68,9.43-.02,13.48-.25,1.44-2.2,3.18-1.96,3.5.07.09,1.74-.27,1.99.68.89,3.37,1.45,11.3,1.99,15.35-4.08-2.69.08,1.61-2,2.51-1.96.84-4.03-1.82-3.76-3.85.42-3.18,4.78-4.55-3.23-3.66-.59-2.8,1.02-1.95,3-2.01-2.12-1.82-2.09-9.08-3.02-9.99-1.5-1.48-5.96,5.5-3.99,6.99l-2.99-1c-.42-2.56,2.65-3.29,3.47-5.05.45-.96-.37-2.38.07-3,1.32-1.87,3.14.54,1.44-5.94l-1.98,3.99c.3-1.45-1.09-4.66-.85-5.71.6-2.68,2.95-.96,2.84-7.28Z"/>
  <path class="st22" d="M707,596c3.31-5.62,6.98-10.4,11.03-15.47l7.97-7.52c-1.5,5.33-4.38,10.35-5.75,15.74-.86,3.41-1.32,7.4-2.25,11.25l-1.01-6.99c-2.12,1.54-.23,2.98-3.98.99v3.01c.14.21,2.5-2.63,2.68,1.69.14,3.3-2.59,3.33-2.57,3.74.09,1.43,1.53,3.59.88,5.57l1.98-1.01v3.01c-5.89-.08-4.33-3.89-7.99-5.01,7.21-5.52-.1-4.99-.02-5.49.05-.3,5.04-1.75-.99-3.5Z"/>
  <path class="st48" d="M889.01,396.99c1.82-4.44,5.79-6.97,7.87-11.62.74-1.67,1.45-3.33,1.9-5.1.7-2.75-.98-6.99,2.22-8.27-.86,4.2,6.55,14.68,5.88,17.29-1.32,5.14-12.95,9.18-17.86,7.7Z"/>
  <path class="st40" d="M594,1092c1.33,1.65.12,5.43-.89,2.56l-.11,1.44c-.14.1-.15,2.62-1.55,2.89-1.21.24-2.59-1.51-4.43-.41-.28.16-4,4.71-3.99,5.03.01.39.84.32.97.48,4.25-3.41,3.23,5.9,2.8,6.19-.52.35-2.66-.3-2.8-1.19-.31-1.53-.95-1.24-2,0-.62,4.57-2.02,3.25-3,4-2.12.5-3.23-.95-3.33-4.34l-1.67-1.66c-1.67-3.76-3.79-6.33-6-10l1.5-2.01c.19,2.43,3.55,1.77,6.5,2.01,1.31,3.2.28.61,1.77,1.35.59.3.94,1.57,1.23,1.65,2.49-4.67,4.82-6,7-4,4.24,2.74,4.66-1.08,6-4,1.03-1.06,1.56-1.53,2,0Z"/>
  <path class="st40" d="M556,1080h2.99s2-4.99,2-4.99c-.82,1.16,2.05,4.86,2.58,4.99,3.4.87,1.53-1.9,3.42-1.99-.5,2.2,1.77,4.51,2.01,5.99-3.11.57-7.26.45-5.99,4,2.47-2.75,6.52-.69,5.99-4,1.58-.29,3.17-1.65,4,.51.32.85-2.04.18-2.08,1.06-.26,6.92,8.75,1.61,7.07-.56-.13-.17-3.81,2.41-3.99-1.49.24-1.1,6.74-1.76,6.99-1.51,1.8,1.8-1.99,3.36-2,3.57-.04,1.65.16,6.78,1.99,5.43v.98c-3.95-.66-3.8,1.83-2.99,5-.66,0-1.34.06-2,0-1.32-3.22-.95-.93-2.81-2.13-.21-.13.1-3.99-1.31-4.74-.22-.12-3.45,1.38-4.87-.12v5c-3.34-5.2-7.71-12.08-11.01-15Z"/>
  <path class="st32" d="M769,816c2.32,1.85,3.77-1.74,5.66-1.86s1.91,2.92,6.38-.49l.97-2.64c2.35.44-.68,4.78,2.98,4.01.4,1.38-.96.8-1.84,1.66-2.92,2.86-1.53,1.06-2.93,1.66-.29.12-.15,1.59-.66,1.57-2.76-.11-2.72-2.76-5.07,2.1l-2.49-2.49c2.68-3.63,1.67.78,2.49.5,2.59-.88-.57-5.58-4.5-1.01-.35-1.01-.66-1.99-1-3Z"/>
  <path class="st23" d="M251,669l2,4.99,2.49-2.99c3.94,2.1,2.78,5.65,6.5,2,1.09,4.19-4.61,3.13-6.5,7-.73-3.24-2.17-.44-4.49-2,.16-2.51-.04-6.25,0-9Z"/>
  <path class="st26" d="M170,925c-.79-2.26-2.3-10.66-.98-12,.08-.08,1.3,1.01,1.78.71.34-.21,1.86-4.18,3.19,1.29-1.19,3.58-3.06,6.86-4,10Z"/>
  <path class="st20" d="M193,354c.44-1.64-1.21-3.62,2-2.99-2.07,4.04,2.62,4.5,3,5.01.75,1-4.95,3.83-4.98,4.48,1.7,2.56,4.18.58,5.97-.5.06.66-.06,1.34.01,2,1.6-1.04,1.28-1.02.02-3.52-.44-2.12,6.13,1.96.48,5.51-.91.04-.43-1.32-.5-2-.98.64-3.5,2.06-4.49,2.06-.42,0-.54-3.65-2.51-2.05-.35.29,3.34,4.36-2,4.99,1.08-4.29,1.84-8.71,3-13Z"/>
  <path class="st39" d="M179,629c-.59-5.53-1.52,2.93-3.49,1.99-1.4-.67-1.6-3.65-3.5-3.99.2,4.58,3.78,3.92-1,6.99l-.02-4.99-2.99.99c-1.18-5.29,5.42-3.37,8.99-3.01l-.99-3.99c1.82-.4.63,1.68,1,2s1.97-1.26,1.97-1.5c0-.25-2.65-2.26-.98-4.49-.39-.38-7.48,3.38-2.48-3l.47,1.97c5.43.24,3.06,2.58,5.01,6.02-.65,1.97-1.41,3.39-2,5Z"/>
  <path class="st42" d="M574,1107c5.66-2.78,1.16,2.64,3.01,5,.11.14,2.7-2.56,1.99,1-2.09,1.6.01,4.64,1.51,5.99l1.5-2.99,3.99,1-7,4.99c-1.27-4.93-2.93-10.35-5-15Z"/>
  <path class="st26" d="M115,920c-.26-3.29.15-6.7,0-10l1.23-.75c1.41,4.32,2.98,7.5-1.23,10.75Z"/>
  <path class="st0" d="M597,1088v7c-1.91,2.54-3.78-.91-3-3-.55-.14-1.37.1-2,0,1.03-2.23,2.27-3.09,5-4Z"/>
  <path class="st23" d="M270,719c-.63,1.55-1.41,3.49-2,5l-2.98-2.5c1.32-1.68,2.73-2.79,4.98-2.5Z"/>
  <path class="st35" d="M155,901c.12,1.31.8,2.68,1,4-1.64-.02-4.22-2.76-5.98-3.02l4.98-.98Z"/>
  <path class="st13" d="M169,930c-.24,1.09-.88,4.9-1,6l-3-3c2.52.8,5.17-1.47,1.59-2l2.41-1.01Z"/>
  <path class="st51" d="M321,561c.2-.06.78-1.74,1.5-1.99h1.49c-.69,2.38.8,6.04-2,6.99-.39-1.57-.33-3.42-1-5Z"/>
  <path class="st42" d="M440,1055c2.64-5.17,1.61,2.31,4.88.42l.12,2.58c-1.48-.94-3.23-1.86-5-3Z"/>
  <path class="st42" d="M594,1092c2.42.63,1.01,2.7,1.2,2.87.48.42,1.44-.04,1.8.13.33.16.63.82,1,1l-.59.78c-1.14.15-3.74-1.25-4.41-.78l-1.01-.52,2.01-3.48Z"/>
  <path class="st2" d="M844,830l-4.99,2,1.99-5c.73.9,2.07,1.91,3,3Z"/>
  <path class="st39" d="M813,354c-1.83-2.3-.98-6.86-1-10,2.55,1.98.98,6.6,1,10Z"/>
  <path class="st20" d="M212,360c.14,1.6-.25,3.53,0,5-5.88-3.53.24-1.81-.99-7,1.57-.29.9.98.99,2Z"/>
  <path class="st23" d="M272,715c-.32.77-.76,1.42-1,2l-5,.5c1.5-1.77,3.72-2.57,6-2.5Z"/>
  <path class="st14" d="M443.69,892.37c9.08,9.99,18.47,21.38,29.12,30.56,54.98,47.39,131.54,65,174.19,126.58,2.44,3.52,4.68,8.4,5.99,12.5-9.16-8.09-16.71-17.79-25.79-25.94-62.16-55.85-145.39-70.93-196.19-144.57-7.63-11.06-13.51-23.29-20-35-.22-.66.9-.74,1.48-.48,1.93.85,14.99,19.45,18,23.01,3.94,4.66,9.36,9.12,13.21,13.35Z"/>
  <path class="st53" d="M332,685c1.46,14.67-.64,29.69-.04,44.55,3.01,73.71,25.18,144.78,71.58,202.39l21.44,25.58c.42,1.25-.24,2-1.47,1.47-1.74-.75-12.61-11.69-15.04-13.97-24.44-22.94-44.18-50.11-58.48-81.02-18.38-39.75-28.17-99.43-25.36-143.09.59-9.22,1.76-26.29,4.06-34.7,1.58-5.78,2.49-1.56,3.29-1.2Z"/>
  <path class="st14" d="M368,586.01c-.62,1.42-.71,2.22-.41,3.76,17.94,92.13,37.5,182.59,103.74,252.96.46.49,2.02.08,2.48.39.29.19.95,5.96,1.17,6.88-31.66-18.88-52.36-52.73-68.37-85.12-19.36-39.17-31.11-81.27-37.55-124.46-1.15-7.69-.79-20.22-2.26-26.95-.17-.78-1.67-.31-1.8-.48-.4-.56,1.52-1.48,1.62-2.47.53-5.1-1.07-15.51-.64-22.04.13-2-.79-2.89,2-2.47Z"/>
  <path class="st15" d="M683.59,1009.45c26.43,26.49,44.39,59.89,46.4,98.06,1.74,33.04-6.19,66.35-29.51,90.53l-2.47-.53c4.67-6.74,8.61-13.71,11.75-21.25,11.62-28.01,14.6-67.12,5.78-96.28-12.53-41.41-46.63-73.08-75.51-103.47l2.98-1.02c14.08,10.68,28.07,21.42,40.58,33.96Z"/>
  <path class="st53" d="M528.99,1249.97c3-3.62-7.66-2.25-5.5-7.97,35.07,22.43,75.32,16.04,106.98-9.03,28.05-22.22,41.09-48.95,47.05-83.95l2.47-18.02c1.21,7.08,1.29,14.34.96,21.54-1.97,43.79-21.99,76.14-60.03,97.87-28.82,16.47-63.57,16.62-91.93-.45Z"/>
  <path class="st4" d="M594,789c2.29-11.1,7.47-26.66,14.99-35l-7.04,30.44c0,1.06,2.58-.1,2.05,1.54-3.81.46-4.42,10.93-4.75,14.56-5.19,57.27,14.54,90.51,46.75,134.46.66.9,2.96,3.03,1.5,4-25.58-19.02-44.29-46.85-52.02-77.98-5.3-21.36-5.92-50.49-1.49-72.01Z"/>
  <path class="st53" d="M432,711c.74-2.28,2.82.16,3.54.96,4.07,4.51,6.51,11.77,10.63,17.37,20.92,28.4,56.05,44.95,89.88,28.21,12.23-6.05,41.32-29.7,47.43-41.59,1.53-2.98-1.32-3.75,3.52-3.96.69,1.12-2.37,5.48-3.01,6.45-11.65,17.61-32.58,42.78-51.98,51.56-32.93,14.89-69.63-5.11-87.6-33.26-4.42-6.92-7.44-19.2-12.4-25.74Z"/>
  <path class="st10" d="M416,998c-.77-.16-4.53-1.15-4.74-1.27-54.41-30.86-86.4-81.8-97.99-143.5-.17-.9-2.25-10.39.72-7.23.74.79,4.56,18.08,5.53,20.98,9.03,27.21,19.45,47.15,36.48,70.02,14.83,19.9,42.19,48.21,64,60-.31.36-.63.71-1,1-2.29,1.29-3.29,1.29-3,0Z"/>
  <path class="st4" d="M352,480c-.16,4.28-.88,9.32-1,14-.25,9.3.35,18.71,0,28-.18,4.76-.8,9.38-1,14,.81,2.55,1.47,5.59,0,8-.02.33.02.67,0,1,1.08,2.64.75,5.98-1,10-1.65,18.46-4.89,45.7-13,61-.33.63-1.16,1.11-1.01,1.99-1.34.25-1.05-.34-.98-1.46.38-5.97,3.04-13.79,3.87-20.15,4.12-31.72,2.64-64.45,5.12-96.38l8.01-44.99c1.43-.25,1.42,1.68,1.58,2.67,1.05,6.37-.34,15.5-.59,22.32Z"/>
  <path class="st53" d="M723,996c4.56,1.25,2.56,1.52,4.76,3.02,22.96,15.57,39.22,44.87,44.24,71.98,2.47,13.35,3.32,35.01-3.13,47.37-.86,1.65-1.44,4-3.87,3.62.84-1.69,1.77-3.01,2-4.99,3.6-31.09-7.76-65.57-23.61-91.89l-20.39-29.11Z"/>
  <path class="st4" d="M759,1166c2.92-.57,2.13,1.56,1.99,3.45-2.33,30.61-24.03,69.47-46.34,90.2-13.87,12.88-31.1,21.69-48.63,28.35-.12-.65.12-1.43-.01-2,43-23.21,72.85-60.64,89.01-106.48,1.56-4.44,3.17-8.86,3.99-13.52Z"/>
  <path class="st17" d="M575,791c-2.41,3.12-1.6,5.41-2.76,8.74-3.31,9.49-18.2,27.45-27.03,31.97-9.86,5.05-19.2,6.96-30.21,4.28l16.99-4.49c18-8.47,32.55-23.56,41-41.5.56.01,1.57,1,2,1Z"/>
  <path class="st33" d="M368,540.01c.35.34-3.87,4.62-.49,5.99-.17-2.63,4.36-1.79,5.49,0-.75.03-1.37-.39-1.74.54-.99,2.48-3.01,4.82-4.61,7.12-.55.79-3.74.4.38,1.87l-1.99,2.49c-.53-4.84-6.3.27-5.01-7l3,.49c-2.95-3.35-2.95-2.87-3.01-7.48,4.68-.47,1.71,4.73,1.99,4.99,1.24,1.14,9.62.76,7-1.99-.29-.31-4.64,1.75-5.99-3.98,1.89.95,3.32-4.67,5-3.01Z"/>
  <path class="st35" d="M353,596.01c.29.33-3.98,9.64,0,7.5,1.92-1.03-.51-3.02,0-3.5.22-.2,2.88.94,3.99,0-2.02,4.42.56,2.49.99,3.01,1.96,2.33-3.09,1.19-1.97,3.99,6.51-3.01,2.93,5.58-2,6l-.02-8.99-2,3.99c-2.9.48-.01-5.39-2.48-3.99-1.98,1.13-2.72,4.06-1.51,5.98-4.72-.37-1.74-2.21-1.51-5l-5.49,5,1.01-7,1.98,1.01c.01-1.88-.21-4.47,2-5.01l-.49,5c.45-1.54,4.3-2.89,4.45-3.12.38-.62-.98-1.98-.73-2.7.07-.21,3.13-2.91,3.78-2.16Z"/>
  <path class="st33" d="M377.36,525.61c5.13,4.57,1.75,2.07-.31,5-.94,1.34-.39,5.48-1.12,7.64-.29.86-1.94.83-1.9,1.21.13,1.25,2.99,3.99,1.48,5.53l-5.51-2.98,3.01.48c-2.76-4.5,1.02-4.64,1.06-5.09.1-1.13-.97-2.29-1-2.97-.02-.61,1.94-.14,1.96-.94.03-1.71-2.11-2.28-2.07-3.99.01-.63,1.54-.41,1.78-.76.42-.62-1.28-3.45,1.76-4.74.83-.15.25,1.07.85,1.6Z"/>
  <path class="st11" d="M755,1125.01c3.24,2.95-3.92,1-4.5.99-1.29-.02-2.68.94-3.87.72-1.5-.27-2.99-3.77-3.62,1.28l2,.48c-2.48,2.94-5.88-4.38-5-5.49l2.97,2c2.38-7.24,4.6-2.98,8.31-.76,1.12.67,3.57.64,3.71.77Z"/>
  <path class="st0" d="M579,1100v-7s9,1.01,9,1.01c.53.65-1.44,1.6-2,1.99-.27.19-1.24.01-1.95.54-1.59,1.19-1.47,4.32-5.05,3.46Z"/>
  <path class="st33" d="M363,536c.43-4.63-.96-5.83,5-5.99.27,2.52-2.88,4.16-3.02,4.49-1,2.5,3.18-.01,3.02,2.49-1.97.51-3.42-.58-5-.99-.05.56.77,1.65.6,2.5-.26,1.32-2.74,2.63-2.61,4.5l-1.98-2.99-3.01,3.99c-.45-1.73,1.86-.44,1.85-1.43,0-.57-.99-1.58-.64-2.78,1.6-5.52,1.79-4.82,5.78-3.78Z"/>
  <path class="st35" d="M352.01,617h-4.01s1.01,2,1.01,2h-3c.98-3.21-1.17-7.88,2.7-7.78,2.91.08,3.65,3.34,3.31,5.78Z"/>
  <path class="st35" d="M448.99,1030l-3.49,4.99-.5-3.01-5.99,1.01c-.16-4.59,7.51-1.26,9.99-2.99Z"/>
  <path class="st33" d="M349,555c.3-3.34.79-6.69,1-10l2.99.48-3.99,9.52Z"/>
  <path class="st35" d="M355,620c-.31-2.49.87-1.7,2.51-2.99l-.51,2.98c11.29-1.69,2-5.93,3-6.98,4.15-1.76,6.75,2.44,3,5.98l2.99,1c-1.53,1.17-6.79-.27-6.99.01-.36.52,1.92,3.57-1,4,.75-3.75-1.48-2.8-3.01-4,.14,1.12,1.47,4.2,2.08,5.22.71,1.17,2.25.29,1.92,1.77l-5.99-2,1.99-1.48c-1.03-.62-3.21-5.27-3-5.5,1.36-1.41,2.16,1.33,3,1.99Z"/>
  <path class="st33" d="M356.78,532.79c-.06.15-2.12,2.25-2.28,2.2-2.36-.7-1.29-3.54.49-4.5l-2.99-.99c2.2-3.83,5.6,1.4,4.78,3.29Z"/>
  <path class="st35" d="M349.01,623.99c-.2.15-1.72-.3-2.72.29-.67.39.32,2.14-1.27,1.71-3.14-11.11,5.29-2.98,3.99-2Z"/>
  <path class="st34" d="M422.99,662.01c.43,1.7-1.47.61-1.89,1.1-.75.88,2.7,4.43-.59,3.88-3-2.75-1.91-7.15,2.48-4.98Z"/>
  <path class="st33" d="M350,544c.15-2.65-.12-5.35,0-8,1.71,1.6,2.65,7.12,0,8Z"/>
  <path class="st53" d="M386,444c6.18-27.37,18.29-71.79,55.78-62.28,2.09.53,15.44,5.5,16.21,6.3,1.47,1.52.66,1.34-.95,1.69-3.63.79-13.37-.99-18.56-.7-1.13.06-2.74-.66-2.48.99,1.88-.01,3.4.52,4.96,1.55,15.35,10.15,28.46,25.3,44.1,34.86,44.08,26.92,105.34,38,150.94,7.61,9.84-6.56,18.47-17.22,27-25.5l-15.99,2.01c10.77-8.79,29.46-14.6,40.9-3.91,7.02,6.56.92,8.09,1.09,15.4l-4.39-8.07c-5.87-3.97-8.93-5.34-12.8,1.38-16.77,29.1-24.99,66.31-36.03,97.97-8.02,23-17.52,50.23-30.34,70.67-.9,1.44-1.05,4.11-1.67,4.83-.75.88-2.67.56-3.51,1.5-6.2,6.99-10.03,12.28-17.76,17.67-34.61,24.13-78.6,23.06-110.51-5.42-31.82-28.4-46.12-112.44-47.98-154.02-.82-18.42.6-37.05-.02-55.49-20.21,9.92-27.3,34.67-36.99,53.49l-1-2.49Z"/>
  <path class="st14" d="M436,248c-1.01-11.38,7.12-23.92,18.01-27.49,20.85-6.83,46.66,12.21,59.96,27.02,14.48,16.12,27.68,45.19,52.51,45.36,17.74.13,23.45-19.57,21.51-34.38-.79-6.03-4.51-11.54-3.49-17.5,11.02,14.17,13.17,32.97,10.45,50.33.34,1.45,5.12,1.84,6.54,1.74,16.46-1.2,46.46-40.95,59.47-52.61,7.8-6.99,22.86-15.4,33.04-9.46,3.59,2.09.62,3.68.88,7.54.07,1.04,3.98,3.6,2.11,7.46-5.45-.93-3.25-2.3-4.73-5.75-2.17-5.07-14.14.02-17.26,3.26,11.1,8.21,13.89,22.8,17,35.49-.14,1.88-.08,4.1,0,6,1.62-.33,1.96,1.34,1,5,.05,1-.03,2,0,3,2.7,2.04,2.33,4.59,0,7,.57,37-13.88,91.79-61,87-1.5,3.23-9.76,1.73-9-2-26.31-13.09-27.81-45.35-28-71l-1.33-1.96c3.73-4.33-4.76-12.41-7.86-13.48-3.3,5.29-10.99,10.18-17.26,8.36-.27,6.11-1.79,11.47-4.55,16.08-2.96,13.67-6.24,24.74-15,36-9.19,11.81-21.89,18.26-36.8,19.78-40.82,4.16-67.34-52.17-109.21-17.29l-10.98,12.5c-.45-1.75-.81-1.75-.07-3.46,7.99-18.64,32.96-33.78,53.05-26.53-2.46-5.54-4.92-10.12-6.32-16.17-4.01-17.38-3.59-41.64,1.33-58.83-2.15-6.28,4.04-16.29,8.05-21.71,5.38-7.27,11.42-11.59,19.29-15.53-11.6-2.39-24.49,4.72-28.59,15.87l-2.75.36Z"/>
  <path class="st41" d="M590,375c4.53,5.94,14.56,31.86,14,39-.37,4.69-2.57,8.83-7.48,9.8-8.08,1.58-9.51-10.64-16.41-11.33s-17.35,14.95-28.46,8.38c-6.93-4.1-5.57-13.86-2.47-20.17,1.78-3.63,21.28-24.99,24.92-28.08,6.62-5.61,11.21-3.75,15.9,2.4Z"/>
  <path class="st4" d="M552,242.99c-4.62-.31-5.62-4.71-8.02-7.48-21.86-25.28-58.22-73.17-96.11-50.15-12.86,7.81-21.97,20.12-25.88,34.63-2.8-.79.43-5.13.65-6.66,4.27-30.62,29.08-51.32,60.58-43.05,31.62,8.31,59.35,42.45,68.78,72.71Z"/>
  <path class="st35" d="M436,248c2.07-2.24,1.93-4.36,4.05-7.22,6.65-8.95,21.64-15.15,31.94-9.27l-12.72,7.15c-9.82,7.36-15.85,18.38-19.27,30.34-.47,2.61-8.64,1.5-9,.49-.14-.38,7.87-5.29,4.5-5.46s-4.09,1.32-2.49-3.03l1.98,1.99c1.79-4.21-3.01-6.37-1-10.99l-5.99.5,3.01-3.5,1.48,1.99c1.06-1.12,2.47-1.87,3.51-3Z"/>
  <path class="st11" d="M794.03,1045.98c.14.1,1.83-1.11,1.94-.99l2,4.53c-3.7,3.08-5.97,1.62-4.75,8.01.1.51,1.48.26,1.57.94.29,2.03-.27,6.01-1.8,7.52,7.34-2.02,1.64.49,4,5.01-2.46-1.25-8.65,3.35-8.99,3-1.79-1.81,1.95-2.03,1.99-2.59.09-1.27-1.38-3.39,0-5.4l.99,3.99,3.99-1.49c-5.51-.74-.53-10.28-3.09-12.41s-5.54,2.36-5.5,4.43c.01.89,2.4,2.92.61,5.49l1.99.99c-4.45-1.06-1.78,1.96-3.99,3-2.1-4.4.99-4.05,1.06-4.59.34-2.64.2-5.34.76-9.16.19-1.33-1.02-3.03-.83-3.23,1.84-1.99,2.07,2.25,2.5,1.99.13-1.57,3.59-3.24,3.51-3.48-1.01-3.33-1.38-2.19-4.01-1.53,5.22-3.96,3.01-4.25,4.01-9.99,1.9.15,1.11,5.3,2.02,5.97Z"/>
  <path class="st42" d="M693.35,955.71c.39.53,1.97-.05,1.64.78-2.19,3.59-3.88,4.62-7.99,5.51-.41-2.67,2.22-3.02,3.99-3.01l-2.98-4.49c.8-1.69,2.12-.45,2.8-.82.48-.26-.45-2.11,1.17-1.67.08,1.41.54,2.56,1.37,3.71Z"/>
  <path class="st42" d="M547.99,781c-1.72-.78-.94-2.79-3.99-2,2.38-4.54,4.51-2.93,3.99,2Z"/>
  <path class="st4" d="M577.01,631.02l1.98.46c-3.25,4.05-4.71,8.57-8.05,12.72-8.16,10.16-25.01,18.01-37.56,19.67-20.23,2.68-43.78-8.22-53.37-26.39,2.16-1.38,3.45,2.91,5.49,4.52,28.62,22.65,71.86,18.4,91-14l.5,3.02Z"/>
  <path class="st5" d="M564,323c.66-3.04,2.36-17.36,3.02-17.98.72-.68,4.27.68,5.51.53s8.54-3.95,9.49-5.03c1.45-1.64,1.74-4.05,3.48-5.51,4.75,7.24,14.81,7.6,9.5,19-.52,1.12-6.11,6.76-1.01,7.01v.97c-2.35-.78-2.18,5.61-4.99,3.01-.34-.31,1.67-6.69-.99-6.99.65,4.9-1.35,1.8-1.84,2.18-1.62,1.27-2.93,5.13-.19,6.32-2.02,2.04-3.64-1.08-2.99,3.49l-1.74-10.67,1.74-5.32-3.49,4c-.5.27-.48-3.83-2.5-1.99-.22.2,2.8,2.61-2.99,3l3.99,1.97c-2.59,1.74-6.59-1.66-6.01,2.01-1.61.44-.67-1.26-1.17-1.63-.32-.23-2.87-.1-3.8-1.36l-.02,4.99-.98-3.49-2,1.5Z"/>
  <path class="st33" d="M398.91,454.12c.15.12,0,3.59,2.09,1.87.36-.3-.82-2.39.99-1.98-.17,2.78,2.74,2.82,5.01,3-8.29,5.72,3.27,7.91,4.72,3.69.87-2.51-2.03-6.02,3.27-3.69.45,1.66-1.87.46-2.08,1.59-.33,1.79,1.22,3.58,1.07,5.4-2.52-1.28-3.61,3.08-7.98,0l3.98,7-4.99-2.99,3,4.98c-3.45-.55-3.16,3.1-7.09,2.73-7.02-.65.05-3.85.07-4.22.02-.28-2.08-5.06-3.46-4.49-1.08.45-2.45,3.22-4.52,3h3.98s0,5.99,0,5.99h-6.99c-.69-1.94,1.74-2.66,1.99-3.51s-3.12.26-.99-2.49c-2.52-1.14-1.92,2.07-2.49,2.01-3.72-.41-2.35-3.42-1.49-6l1.96.99c.9-1.32-.2-6.71,0-6.99,2.63-3.45,8.87,6.24,10,4.98.5-3.38-3.36-5.13-3.04-8.48.15-1.58,1.77-3.33,2.95-2.39Z"/>
  <path class="st33" d="M632,387l-.99,2.99h3.98c.18,2.93-1.4,6.57-4.66,6.86-1.71.15-2.39-2.4-4.33-1.84,1.79,2.99-.72,5.31-2.96,7.26-1.37,1.19-2.86.59-3.03.73-3.01,2.41,4.79,1.54,4.99,1.99l-.97-3.52,1.98-.49c-1.23,6.75,3.67,5.84,5.02,7.02.48.42-2.09,10.07-7.01,8l3.99,2.98-7.99,1c-.45-1.61,1.77-.66,2.02-1.48,1.52-4.99-4.76.55-2.04-3.03l7-1.98-9.97-.5.98,2.51-1.98.48v-4.99c5.78,2.36,5.07-.05,6.99-5l-3.98,1c.58-3.33-1.09-4.69-2.51-7.01-1.22-2,1.9-.33,1.5-1.49-.89-2.57-5.35,1.52-4.02-3.01.13-.45,5.51-2.36,7.02-6.01.34-.82-2.79.17-1.99-1.97,1.47-2.67,4.28,1.45,3.99-2.52,3.55,1.77,5.33,1.63,9,2Z"/>
  <path class="st11" d="M693,293l5.03,1.51c-4.76,1.47.24,1.37-.03,1.99l-5,3.5c-.04-2.33.08-4.67,0-7Z"/>
  <path class="st33" d="M374.2,480.79c1.39.8,3.98-.78,3.8,1.19-4.93-.51-3.04,4.64-6.99,5.01-2.17-3.96,1.46-2.36,1.69-5.61.08-1.13-.83-2.22-.68-3.38,1.49-.03,1.51,2.4,2.19,2.79Z"/>
  <path class="st33" d="M562,357c-2.32-.31-4.01-.28-5-2.99l3.99-1.02c-.03,1.27,1.15,2.89,1.01,4,.15.02,3.11-1.92,2.98.5-.08,1.44-1.32,3.15-2.97,1.49l.98,5c-2.44-1.4-.95-3.83-4.99-2-.59-.49,3.83-3.68,4-4.99Z"/>
  <polygon class="st5" points="580 327.02 578 328.53 573.01 323.01 580 327.02"/>
  <path class="st11" d="M692,285c3.82-3.31,5.48,4.05,1.01,2v3c-.04-.7-.91-2.75-1.01-5Z"/>
  <path class="st33" d="M362.85,491.16c.54.89,0,2.68.14,3.84-5.04-.99.13-3.66-4.99-3.01.13-2.48,4.23-1.86,4.85-.83Z"/>
  <path class="st33" d="M375.02,484.02l2.97-1.02c1.89,4.83-3.43,7.05-2.97,1.02Z"/>
  <path class="st42" d="M345.12,900.79c.13.13,2.12-.66,3.62-.14,1.23.43,1.69,3.25,3.75,2.96.44-.06,3.58-1.9,3.51-2.11-.95-2.94-2.96.58-4,.07-.54-.27-1.84-1.79-2-2.56,5.63-1.43,5.07,1.09,6.98,2.41.69.48,1.96-.5,2.02-.42,2.83,4.42-6.45,3.32-7.97,4.03-.14.07,1.47,2.72-1.01,2.96-.24-5.71-2.88-5.78-8.01-6.01l2.01-2.98h.97c.05.52-.15,1.51.13,1.78Z"/>
  <path class="st51" d="M334.99,556.01l-4,.99c-.89,4.06,3.24.28,4,1v3.99c-.76.4-3.55-1.47-3.99-.99-.96,1.05,2.92,5.37-.49,4.99-2.13-.98-.22-3.12-.65-3.78s-3.78-1.28-3.87-3.2l3.99.99-.99-5.99,5.99,2.01Z"/>
  <path class="st42" d="M419,998c-.59.46-1.21,1.06-1.99,1.01-.23,1.97,2.48.05,1.98,1.97-2.82-.8-1.48,2.99-2.49,3.03l-.5-6.01c.86.18,2.05-.12,3,0Z"/>
  <path class="st42" d="M415,1023.01c.47.34-1.59,1.72-1.75,2.62-.25,1.39,2.14,5.1-.24,5.37l-2.01-7.98h4Z"/>
  <path class="st42" d="M340.23,898.4c-.29.15.08,2.32-1.72,1.59-1.52-.62-1.74-2.52-1.51-3.99,1.7,1.47,3.92-.06,4.99.48,3.1,1.57-1.63,1.85-1.77,1.92Z"/>
  <path class="st42" d="M348.81,910.23c1.97,2.21-2.29,4.67,4.19,3.77l-.49,1.98-2.51-.99v3.01c-6.13-1.58-.97-2.16-.95-2.51.1-1.78-1.98-4.55-4.06-4.51.43-2.3,2.77-1.92,3.81-.74Z"/>
  <path class="st42" d="M441.01,1051c-.14-2.6-.69-5.13,2.48-3.99s-.26,3.34-2.48,3.99Z"/>
  <path class="st42" d="M351,892.01c.22.16-2.61,4.06-2.49,4.98-3.02-1.21-.22-6.98,2.49-4.98Z"/>
  <path class="st28" d="M725.72,748.26c.15.06,2.32,2.08,2.27,2.23-.88,2.65-5.12-1.32-7.06-.03-.86.58-2.09,6.34-.93,8.01-.11,1.12-1.73-.76-2-.49-1.77,1.81,3.68,2.06.98,4l4,1c-3.5.07-5.98-1.42-8.99,1.01.37-2.49,2.45-3.24,3.41-6.09.44-1.29-.27-2.4-.07-3.24.34-1.44,2.14-1.94,1.66-3.67-1.97-.05-3.58.8-2.99-2,3.32,2.34,6.24-2.05,9.71-.74Z"/>
  <path class="st28" d="M704.99,673c.32.38-.7,1.78-.53,2.51.32,1.37,2,1.72,1.53,3.49-4.94-1.07-1.05-6.08-6.98-3v-4c1.88,2.63,5.78.76,5.98,1Z"/>
  <path class="st32" d="M794.99,824c-3.81-4.17-3.65,1.27-4.49,1-1.52-.59.14-4.97-2.49-2.98-.6.45-4.08,8.2-6,4.48,2.82-3.56,12.76-10.87,12.97-2.5Z"/>
  <path class="st37" d="M859,437l2.56-2.89c1.55,2.31,5.95,3.66,8.81,6.07,5.51,4.63,7.88,9.53,8.63,16.82.47,4.62.16,12-1.01,16.49-.36,1.38.03,3.12-1.98,3.51,1.14-8.63,1.99-16.66-1.83-24.69-2.21-4.64-10.24-14.25-15.18-15.31Z"/>
  <path class="st13" d="M157,923c-2-.66-1.74,1.52-2.5,1.78-.58.2-3.77-.93-5.49,1.22l1.99-2.01c.41-.65-2.57-2.53-2-2.98,2.4-1.88,3.36,2.83,3.99,1.98v-6s-.99,3-.99,3c-3.75-1.55-3.08-.74-4.01,3-2.89-1.14.11-4.54-2.99-6.99l3.5,1.99c.85-3.33,3.62-1.75,6.49-2,.65,3.28,1.94,4.72,2,5,.12.61-.13,1.41,0,2Z"/>
  <path class="st13" d="M154.01,964.99l1-3.99c1.96-.32.54,2.47,1,3.01.39.46,3.29-1.4,3.99-1-.71,10.51-2.3,4.68-6.68,2.08-1.56-.93-4.57-.04-5.14-2.74s2.79-3.91,4.33-5.35c.14,3.33-.45,4.9,1.51,7.99Z"/>
  <path class="st13" d="M157,926c.16,1.95,1.38,1.02,0,5-3.36-1.68-4.5-4.46,0-5Z"/>
  <path class="st43" d="M107,820.01c-1.58,3.2-7.1,2.44-5.99,7l1.99.99c-3.34,2.63-4.33-6.58-3.99-6.99,1.85-2.24,1.73,2.56,2.98,1.99.18-3.11,2.26-3.3,5.02-2.99Z"/>
  <path class="st43" d="M88,827.01l-5.99,2.99c-.27-3.87,3.87-2.36,5.99-2.99Z"/>
  <path class="st16" d="M205,463c5.13-1.37,16.18-2.35,17.99,3.99-28.46-3.11-33.8,26.77-36.99,48.51-.34,2.29-.39,16.18-4.87,9.85-3.75-5.3-2.09-22.91-.88-29.6,1.91-10.65,7.57-23.34,16.74-28.76,2.19-1.29,5.67-3.38,8-4Z"/>
  <path class="st35" d="M184,792.99c.41.31,2.98-.2,3.99.02.28,1.91-2.06.57-3,1.03-.27.13.87,4.75,0,5.95l-3.98-8.5,3.98-1.49c.46.52-1.33,2.73-.99,2.99Z"/>
  <path class="st35" d="M177.98,816c1.67,1.59,1.53,6.07-1.98,6,.77-.17-.6-8.45,1.98-6Z"/>
  <path class="st34" d="M789.21,1087.81c.28.56,2.56-.82.78,4.19-3.85-1.29-1.6-5.57-1.93-7.35-.23-1.24-2.49.05-2.05-1.64,6.07-.61,2.58,3.53,3.2,4.8Z"/>
  <path class="st12" d="M677,682.01v3.98s-5,0-5,0c.4-1.25,3.81-4.91,5-3.98Z"/>
  <path class="st2" d="M697,658.99l-6.99-.49c2.51-2.38,5.58-3.23,6.99.49Z"/>
  <path class="st12" d="M669.6,690.45c1.66,1.14-.13,1.67,4.39,1.05-3.04,3.25-4.62,1.03-7-1-.41-2.8,1.8-.6,2.61-.04Z"/>
  <path class="st2" d="M692.99,655.99c-.94.19-2.2-4.8-2-4.98.15-.14,3.04-.12,4-1.01l-2,5.99Z"/>
  <path class="st13" d="M164.69,927.69c-.3.33-2.57,1.42-2.68,1.31l-1.01-2.99c4.15,1.86,2.16-.11,4.99-2.01.16,1.37-.4,2.71-1.3,3.69Z"/>
  <path class="st39" d="M174,641c-.03.11-1.92,1.09-1.99,1l-2-5c2.17,5.29-2.19,2.43-5,5-2.54-5.97,7.43-7.93,7.96-7.01.15.26,1.12,5.72,1.03,6.01Z"/>
  <path class="st23" d="M262,724.01c-.62,4.85-3.41,1.41-3.99,2l.9,2.55-2.9,2.44c.18-2.6,1.53-4.53,0-6.99h6Z"/>
  <path class="st27" d="M159.86,643.88c-.09.11-1.88-.78-2.85.12-1.3-2.17,5.53-8.11-1.51-8.04l-1.49,2.04c-1.17-2.99,3.01-8.18,5.5-5.01.36.46,1.37,9.66.35,10.9Z"/>
  <path class="st26" d="M102,845.99c-4.08-1.89-3.19,1.3-5.99,3.01,1.33-2.08-.28-5.11-.07-6.34s4.63-.89,2.07-4.65c4.9.08.18,5.15,4,7.98Z"/>
  <path class="st26" d="M118.99,874c-1.73-.86-4.37.53-4.99-1.99,3.46-1.28,4.99-3.6,4.99,1.99Z"/>
  <path class="st39" d="M895,318.01c-1.35,1.48-1.44,4.67-3.99,3.98v-4.99s3.99,1.01,3.99,1.01Z"/>
  <path class="st42" d="M584,1104l3.98-3c-.81,3.46,3.91,1.3,3.03,3.49-.39.97-3.36.39-4.01,2.03,2.57,4.56,2.35,9.31-1.98,3.48l-2,4.99c-.03-1.28.36-5.27.99-6-.33.2-1.42-.13-2,0,.11-.8-1.02-2.22-.97-2.51.56-2.96,6.64.32,2.97,2.51.25-.29,1.75.97,2.08-1.49.38-2.86-1.1-2.35-2.08-3.51Z"/>
  <path class="st42" d="M581.99,1102c.7,3.32-3.96,1.57-1.99,4.99-3.07.51-1.25-3.62-5-4.5l6.99-.49Z"/>
  <path class="st45" d="M512.65,527.35c5.8,5.6,8.78,15.1,14.62,20.9,5.18,1.91,4.12-1.98,6.04-3.96,3.67-3.77,18.51-7.56,23.74-6.86,2.44.32,7.66,3.78,9.44,5.58,1,1.01,7.41,9.78,7.53,10.54.27,1.71-3.03,23.72-4.03,24.44-5.99-1.41-11.02-15.97-17.51-15.61s-14.53,17.41-16.98,22.59c-2.05-.03-4.07-9.3-4.81-10.69-.25-.47-1.77-.81-2.45-1.99-1.6-2.77-2.21-7.71-5.79-8.31-5.69-.96-16.34,9.92-20.44,14.01-1.09-5.34-1.19-10.86-2.31-16.2-.96-4.58-5.17-21.16-7.96-23.55-4.29-3.67-11.96,4.46-14.77,7.22-5.66,5.57-10.97,12.41-14.47,19.53-6.48-9.8-9.93-21.37-13.21-32.55,15.79-12.21,47.25-20.63,63.35-5.09Z"/>
  <path class="st3" d="M571,463.01c-3.13,8.65-5.39,21.36-10.56,28.93-4.23,6.2-10.81,11.81-16.2,3.33-5.81-9.14-4.86-24.67-6.23-35.27l32.99,3.01Z"/>
  <path class="st3" d="M530,457.01c.85,6.32-15.8,36.52-22.03,33.55-7.23-3.45-7.84-31.75-7.98-39.05-.02-1.34-2.05-6.16.99-5.02.55.2,1.31,1.39,2.3,1.73,8.85,3.02,17.66,7.57,26.71,8.79Z"/>
  <path class="st38" d="M491.99,601c-9.81-6.34-19.67-13.06-25.64-23.5,4.94-10.16,10.57-20.08,18.14-28.48,7.33,15.8,10.35,34.69,7.49,51.98Z"/>
  <path class="st54" d="M604,460c-1.08,6.99-.33,35.22-7,38.52-5.61,2.78-12.35-6.35-14.37-10.65-3.44-7.33-4.36-15.53-5.39-23.41.34-1.24,1.33-1.15,2.31-1.41,7.04-1.9,16.97-1.16,24.45-3.05Z"/>
  <path class="st49" d="M489.94,441.07c-.93,6.89-9.1,30.9-18.91,26.42-5.21-2.38-7.06-16.63-7.9-22.11-1.05-6.79-1.22-14.06-2.11-20.86l1.99-1.03c8.12,6.76,17.17,13.58,26.94,17.59Z"/>
  <path class="st7" d="M591.65,582.65c-4.27,4.63-10.06,8.91-14.64,13.35l10-60c4.94,6.97,12.39,23.01,13.02,31.51.47,6.32-4.36,10.79-8.38,15.14Z"/>
  <path class="st36" d="M566.82,601.82c-1.74,2.96-28.27,11.76-29.82,10.18.15-13.6,7.62-25.89,13.01-38,4.78,2.33,18.94,24.21,16.81,27.82Z"/>
  <path class="st9" d="M521.76,576.23c2.8,3.03,8.73,34.27,7.24,35.78-3.44.65-28.9-5.99-28.98-7.5,4.59-7.64,7.82-17.57,13.56-24.42,1.55-1.85,5.56-6.69,8.18-3.86Z"/>
  <path class="st46" d="M635.99,447c1.39,1.44-4.15,23.53-5.77,26.72-6.4,12.55-19.22-9.66-19.23-16.71l20.24-7.03c1.64-.89,1.34-3.98,4.76-2.98Z"/>
  <path class="st52" d="M548.99,301.98c-.06.08-1.74-.3-2,.66-1.11,4.07.43,14.35-.11,19.73-1.72,17.18-15.46,42.8-34.39,44.61-35.84,3.43-40.9-34.31-38.46-61.46,1.17-13,6.97-41.19,20.27-46.72,12.48-5.19,15.58,1.17,22.67,9.72,5.64,6.8,10.88,15.77,17,22,2,2.03,15.59,10.7,15.02,11.45Z"/>
  <path class="st47" d="M635.62,284.61c6.84-6.25,9.92-16.67,20.45-11.17,23.44,12.26,14.27,71.19,2.58,89.7-15.7,24.85-41.44,9.9-49.84-12.45-2.9-7.72-4.83-21.99-4.84-30.25,0-2.27,1.16-13.92,1.96-15.03,1.03-1.42,10.6-5.73,13.39-7.61,5.29-3.56,11.57-8.88,16.31-13.2Z"/>
  <path class="st51" d="M402.99,471c-7.46-5.27,1.28-9.6,1.73-4.51.09.97-1.98,3.01-1.73,4.51Z"/>
  <path class="st51" d="M626.01,390l3.98-1.5c-.45,3.07-4.57,5.11-5.29,6.76-1.29,2.96,3.09,3.67-3.7,3.74l1.99-3.99-2.99.99c-.16-5.57,2.63-3.95,2.83-4.19.62-.74.55-3.95,2.67-4.8l.51,2.99Z"/>
  <path class="st53" d="M512.76,303.27c27.67-4.01,30.61,47.68,3.61,49.4-20.33,1.3-26.37-46.1-3.61-49.4Z"/>
  <path class="st14" d="M622.76,312.2c2.11-.53,3.09-.09,4.98.57,17.6,6.16,17.53,35.49,1.8,44.27-22.35,12.47-27.12-27.52-14.03-40.03.86-.82,6.4-4.59,7.25-4.8Z"/>
</svg>