<?xml version="1.0" encoding="UTF-8"?>
<svg id="Layer_1" xmlns="http://www.w3.org/2000/svg" version="1.1" viewBox="0 0 1024 1536">
  <!-- Generator: Adobe Illustrator 29.5.1, SVG Export Plug-In . SVG Version: 2.1.0 Build 141)  -->
  <defs>
    <style>
      .st0 {
        fill: #d09106;
      }

      .st1 {
        fill: #d29306;
      }

      .st2 {
        fill: #cb6604;
      }

      .st3 {
        fill: #c73219;
      }

      .st4 {
        fill: #d29209;
      }

      .st5 {
        fill: #bf4254;
      }

      .st6 {
        fill: #25967a;
      }

      .st7 {
        fill: #ca6a04;
      }

      .st8 {
        fill: #c72e19;
      }

      .st9 {
        fill: #c14154;
      }

      .st10 {
        fill: #c24153;
      }

      .st11 {
        fill: #cc6e03;
      }

      .st12 {
        fill: #23967a;
      }

      .st13 {
        fill: #cc6f04;
      }

      .st14 {
        fill: #229479;
      }

      .st15 {
        fill: #cb6f03;
      }

      .st16 {
        fill: #0d3004;
      }

      .st17 {
        fill: #c33319;
      }

      .st18 {
        fill: #269c7f;
      }

      .st19 {
        fill: #c53914;
      }

      .st20 {
        fill: #c72f19;
      }

      .st21 {
        fill: #858e07;
      }

      .st22 {
        fill: #0f3105;
      }

      .st23 {
        fill: #c14253;
      }

      .st24 {
        fill: #c24252;
      }

      .st25 {
        fill: #858d08;
      }

      .st26 {
        fill: #23977b;
      }

      .st27 {
        fill: #d29206;
      }

      .st28 {
        fill: #868d08;
      }

      .st29 {
        fill: #c63318;
      }

      .st30 {
        fill: #c96805;
      }

      .st31 {
        fill: #5c4e72;
      }

      .st32 {
        fill: #c63119;
      }

      .st33 {
        fill: #cc6504;
      }

      .st34 {
        fill: #c62f18;
      }

      .st35 {
        fill: #25977c;
      }

      .st36 {
        fill: #c53018;
      }

      .st37 {
        fill: #239579;
      }

      .st38 {
        fill: #bf4151;
      }

      .st39 {
        fill: #878e07;
      }

      .st40 {
        fill: #b54356;
      }

      .st41 {
        fill: #bf4454;
      }

      .st42 {
        fill: #d29207;
      }

      .st43 {
        fill: #0d3105;
      }

      .st44 {
        fill: #c63218;
      }

      .st45 {
        fill: #219679;
      }

      .st46 {
        fill: #0e3005;
      }

      .st47 {
        fill: #cb6403;
      }

      .st48 {
        fill: #24977c;
      }

      .st49 {
        fill: #898f08;
      }

      .st50 {
        fill: #d29308;
      }

      .st51 {
        fill: #49205e;
      }

      .st52 {
        fill: #c14053;
      }

      .st53 {
        fill: #d29208;
      }

      .st54 {
        fill: #cb6003;
      }

      .st55 {
        fill: #22977c;
      }

      .st56 {
        fill: #868e07;
      }

      .st57 {
        fill: #bf4354;
      }

      .st58 {
        fill: #cc6f03;
      }

      .st59 {
        fill: #8c8e09;
      }

      .st60 {
        fill: #d19207;
      }

      .st61 {
        fill: #d39409;
      }

      .st62 {
        fill: #d29305;
      }

      .st63 {
        fill: #d39306;
      }

      .st64 {
        fill: #d29409;
      }

      .st65 {
        fill: #838c07;
      }

      .st66 {
        fill: #c62f1a;
      }

      .st67 {
        fill: #d09307;
      }

      .st68 {
        fill: #cb6404;
      }

      .st69 {
        fill: #cb6704;
      }

      .st70 {
        fill: #22957a;
      }

      .st71 {
        fill: #cc6703;
      }

      .st72 {
        fill: #c7301a;
      }

      .st73 {
        fill: #d09007;
      }

      .st74 {
        fill: #c14153;
      }

      .st75 {
        fill: #c04253;
      }

      .st76 {
        fill: #c04250;
      }

      .st77 {
        fill: #0e2f04;
      }

      .st78 {
        fill: #26977d;
      }

      .st79 {
        fill: #c14156;
      }

      .st80 {
        fill: #c24154;
      }

      .st81 {
        fill: #23997b;
      }

      .st82 {
        fill: #c04455;
      }

      .st83 {
        fill: #5b4f74;
      }

      .st84 {
        fill: #c63018;
      }

      .st85 {
        fill: #848e07;
      }

      .st86 {
        fill: #858d07;
      }

      .st87 {
        fill: #27977d;
      }
    </style>
  </defs>
  <path class="st43" d="M751,637.01c14.14,15.27,33.67,26.25,53.23,33.26,22.76,8.16,47.2,12.47,68.44,24.56,34.32,19.53,54.57,55.41,48.08,95.42-2.94,18.12-15.5,40.41-10.06,58.57,4.9,16.34,31.98,24.54,21.34,44.71-8.87,16.82-34.8,14.89-49.34,7.28-55.14-28.86-13.99-98.12-55.22-132.78-17.74-14.91-40.05-13.08-61.47-9.02l24.02,10.47c30.61,15.53,49.9,48.43,47.97,83.01-1.57,28.09-22.46,66.55-9.87,92.89,8.04,16.83,32.32,25.27,48.21,14.46,11.33-7.71,17.1-23.76,33.37-14.04,18.18,10.86,5.93,36.02-3.88,48.54-35.75,45.59-113.57,39.04-145.64-7.01-28.77-41.31-1.65-91.42-43.17-130.83-20.6-19.55-42.8-21.33-67.28-31.72-4.05-1.72-7.67-4.16-11.73-5.76.15,3.47-.25,7.01,0,10.48,3.31,45.23,40.42,58.61,63.82,91.18,37.31,51.94,19.95,109-30.92,142.74-9.27,6.15-30.97,14.48-35.1,23.9-3.18,7.26,1.11,14.75.19,23.19-1.6,14.67-19.02,18.77-31.22,15.21-14.83-4.33-27.4-25.2-26.83-40.24,2.04-53.49,91.45-56.53,59.92-119.85-17.8-35.76-61.78-44.53-73-89-4.8-19.02-1.85-39.31-9.11-57.89-13.68-35.01-51.91-18.34-41.71,20.71,7.81,29.88,37.05,49.86,52.77,75.23,12.15,19.6,17.54,43.39,10.19,65.84-20.25,61.8-89.69,49.53-130.49,86.51-8.12,7.36-21.07,26.44-2.01,27.96,12.29.98,18.49-7.44,28.47-12.5,40.42-20.53,48.77,24.62,24.57,48.57-50.92,50.37-150.21,18.6-144.59-58.59,2.39-32.87,23.97-47.14,42.01-69.99,43.94-55.68-30.3-76.44-59.48-110.46-17.69-20.62-26.11-44.86-19.5-72.01l-7.51,10.98c-24.24,47.95,12.82,70.11,19.41,111.62,11.47,72.23-56.2,129.35-125.93,114.93-34-7.03-70.33-46.16-42.94-79.01,11.18-13.41,36.89-14.7,46.43.52,5.6,8.94-8.44,22.82,4.1,24.9,23.45,3.89,42.24-23.28,34.63-44.63s-31.7-31.03-38.9-57.1c-12.7-45.94,12.87-76.59,27.17-116.26,3.83-10.63,8.61-31.97-7.93-33.98-30.28-3.68-50.34,28.79-51.51,55.53-.83,19.01,8.41,36.55,10.87,55.11,5.03,37.9-5.45,76.71-39.58,97.19-17.96,10.78-57.07,23.02-54.34-11.34,1.06-13.31,12.66-23.72,17.21-35.79,10.3-27.29-14.61-30.24-27.01-48.35-27.8-40.6-6.38-94.53,19.4-130.26,30.36-42.1,78.54-64.98,109.83-106.17,9.45-12.44,31.77-44.4,20.61-59.4-10.1-13.58-31.51-.04-41.02,8-27.14,22.95-50.32,74.24-89.45,77.55-43.15,3.64-48.96-39.39-35.02-71.03,27.69-62.85,104.48-80.9,138.29-137.71,16.48-27.69,22.7-59.87,34.43-89.57,41.54-105.2,141.72-194.05,251.34-222.66,129.96-33.92,227.82,58.25,265.44,174.41,14.36,44.31,12.81,78.68,14.99,124.01,2.45,50.76,24.82,119.32,89.76,96.78,25.45-8.83,37.75-19.17,67.72-16.26,45.4,4.41,58.2,62.76,16.72,83.7-24.24,12.24-43.19,2.06-67.69,4.31-23.54,2.16-38.06,22.59-57.47,32.53-20.89,10.7-44.95,12.65-67.04,4.47Z"/>
  <path class="st45" d="M743,328l-.97,2.01c-23.15,6.86-15.3,36.31,6.68,38.84l1.29,2.15c3.99,41.52-2.54,91.09,17,129l-.05,2.64c-26.54,27.62-5.86,64.7,31.16,52.16,17.7-2.99,32.99,13.64,22.9,30.26-2.18,3.6-7.89,10.92-12.02,8.94-2.48,2.67-11.82,4.26-15.71,4.03-11.73-.71-19.12-3.97-28.28-11.11l-19.03-18.49c-10.69-12.33-32.01-15.76-34.94,4.36-.3,5.73-.64,11.47-1.04,17.21,4.68,41.73,42.65,75.43,79.33,91.17,36,15.45,72.99,14.44,100.19,47.81,21,25.78,16.87,48.63,9.49,78.01l-2.65.54c-19.68-12.97-24.05-29.9-20.36-52.14-.21-19.44-22.31-45.8-43.13-39.43-20.32,9.83-31.41,13.48-46.14-6.74-12.61-23.66-24.29-38.67-52.48-27.11-16.37,3.84-24.86-11.69-27.03-25.83-1.65-16.81-5.98-49.78-30.1-43.42-14.32,3.78-16.93,18.95-5.24,27.95,16.42,9.58,18.21,22.69,17.51,40.51.2,9,3.86,16.12,9.8,22.62l-1.18,2.06c.79,3.31-1.04,6.7-.99,9.5.14,8.94,5.32,19.75,10.99,26.5-.27,2.85-2.17,2.73-3,0-4.83,2.07-15.72-3.2-20.06-6.52-3.46-1.63-5.11-3.79-4.94-6.48-.48.2-.97.37-1.47.45-2.77.42-22.28-24.75-23.47-29.36l-.06-6.09-1.58-2.37c2.97-20.2,2.62-41.21-1.29-61.3-1.62-8.31-6.22-23.51-13.13-9.56,3.77,22.62,3.99,45.03.68,67.22l-1.68,2.01c-6.27-.45-14.55-6.08-19.94-10.07-4.09-1.91-6.45-4.56-7.06-7.93l-1.56-2.97c1.83-14.96.69-30.14-1.07-45.05l1.63-2.98,1.81-1.71c37.05-.22,28.57-55.49-8.55-36.35l-2.26-.94c-.73-.64-1.44-1.31-2.04-2.06s-1.11-1.45-1.43-2.27c-4.41-11.37-8.82-22.8-13.21-34.18-.31-.81-.41-1.7-.46-2.62s.02-1.91.13-2.87l2.1-1.47c22.33,11.9,40.96-17.09,23.42-33.08-13.62-12.42-33.84-1.84-32.74,16.06l-1.78,1.48-3.27-.64c-46.25-78.55-135.79-81.2-193.42-13.21l-4.32,1.85-2.08-.38-6.73-46.16,1.81-1.46,3.68-1.89c47.16.59,89.2-30.75,107.14-73.56l3.18-2.56c2.39-4.15,17.97-22.59,21.26-23.31s12.25,6.48,12.74,10.31l2.14,2.08c1.97,17.69,7.92,35.26,18.08,49.94l-.23,2.98c1.97,2.28-1.27,6.23-4,5l-1.35.34c-15.31-27.06-13.29-4.18-4,7.95,25.12,32.78,63.11,42.43,102.76,33.63l3.59,1.08,2.48.41c11.76,26.84,46.12,5.85,33.65-17.99l.87-2.42,1.32-3.84c30.73-28.61,41.68-74.59,28.04-114.16l.64-4.01,1.14-3.06c10.87-8.91,20.73-19.05,29.57-30.42l3.28-.52c3.67,10.11,7.32,20.58,10,31Z"/>
  <path class="st47" d="M545,768c2.56,3.54,2.68,8.13.36,13.8,2.61,1.31,3.72,3.19.64,4.2-34.24-11.37-54.42,22.37-49,53l-.38,2.89c-8.78,8.04-.38,18.25,8.16,22.05l3.22,3.07c2.5,4.24,9.57,12.75,13,17l-.55,2.33c-9.96,2.62-16.18,4.57-18.39,15.81-4.47,22.81,33.97,31.78,36.74,6.34l2.2-1.48c13.25,16.94,23.01,30.51,23,53l-2.46-.58c-8.66-17.71-38.36-9.33-36.63,10.24.79,8.95,17.56,19.73,24.7,24.18l.39,2.16c-9.97,10.92-19.54,15.53-33,21-2.99.72-5.51.73-7.56.03-4.35-6.12-9.29-11.68-14.83-16.66l.39-2.37-.47-2.75c21.35-38.03,1.65-71.43-26.46-99.04l-.07-3.21-.95-2.34c8.78-15.33-1.04-37.95-20.64-29.57l-2.41-1.09c-7.19-5.61-10.39-18.51-12.26-27.62-4.77-23.21-.23-45.01,4.91-67.13,4.12-26.55-20.07,16.7-17.27,24.5l-2.38,2.26-2.17,4.21c-8.76,7.44-13.27,21.21-.41,26.99l1.57,2.81c3.39,2.7,5.08,12.22,3,16,.07,2.39-.19,4.74-.78,7.05-3.41.67-6.82,1.32-10.22,1.95l-1.87,1.45c-4.73-1.12-9.73-2.24-14.16.33-19.27,16.87-42.11-4.3-25.02-23.92,18.26-14.51,25.92-31.86,8.93-51.48l.12-2.38-2.73-.41c-7.17-11.25-16.83-20.36-28.96-27.35-6.52-5.31-11.3-9.36-5.31-16.25l.44-2.39c5.66-2.67,11.14-5.81,16.26-9.41l2.29.79c2.49,1.42,5.53,1.56,9.14.4,8.76,7.34,16.82,15.71,24.17,25.12,4.29,4.82,9.35,3.8,15.17-3.05l17.86-19.08c13.89-16.66,32.22-9.09,40.05,8.86l14.06,25.22c10.24,14.57,18.91,7.22,29.28-2.08,10.6-7.38,22.32-8.71,32.18.65,2.43,2.3,8.13,9.2,5.09,11.97Z"/>
  <path class="st78" d="M604,154c31.3,11.14,56.75,32.16,79.03,56.47,4.46,4.87,9.31,11,12.97,16.53l-1.85,1.19c-17.77-11.55-35.67-22.76-53.69-33.65l-16.42,53.45c-.7,1.68-1.91,2-3.62,2.05-6.2.18-39-26.03-42.89-29.55l-2.53-4.49-1.85-1.29c2.84-6.31-.67-11.6-5.69-5.04l-2.46.33-1.76,1.77c-3.54-.69-6.53-1.14-9.3,1.49l-29.11,44.8c-1.08,1.62-2.74,1.67-4.35.77l-40.49-37.14v-2.7s-1.84-1.29-1.84-1.29c.63-3.79-.1-24.11-6.59-16.61-2.5,29.21-25.16,44.36-52.6,47.41l-2.97-1.51-3.82-.76-22.31-20.25c-10.99,11.11-21.56,22.66-31.69,34.64l-11.17,8.38c1.46,3.17-4.29,6.33-7,5l-2.78,1.11c-5.71-5.25-10.89-11.36-14.9-18.07l.68-3.03c27.02-29.7,44.19-44.14,79-65l4.01,1.11c7.57,5.57,16.38,13.15,22.42,20.02,8.17-14.44,15.49-29.36,21.96-44.77l3.61-3.35c3.3-1.35,6.65-2.78,10-4,15.94,13.13,32.03,26.18,48.27,39.15,6.22-13.53,12.11-27.3,17.67-41.31,4.83-10.82,7.16-14.86,18.04-6.93,14.86,12.66,29.95,24.7,45.26,36.1l8.52-30.41,2.24-.6Z"/>
  <path class="st10" d="M680,729l.4,2.21c-17.7,31.73,9.59,63.15,42.77,67.29,31.85,3.44,56.59,6.62,59.21,45.04.45,6.58-.69,13.18-2.29,19.53-12.09,31.14-19.36,63.74,14.44,83.42,16.51,11.65,15.01,35.11,13.33,53.41l-1.86,3.09c-60.12-23.49-36.55-82.64-57-130,.49-1.81,2.05-3.2,4.68-4.16,23.77-26.34-6.49-44.12-31.95-31.01l-2.72-.83c-21.95-15.33-41.47-18.08-65.26-27.24-1.63-.63-11.12-4.75-11.74-5.25-4.32-3.55,8.18-21.86,3.75-26.26-3.76-3.74-9.38,2.42-11.73,5.27-15.88,19.36-14.79,55.48-5.02,77.48-1.86,3.82-7.39.91-10.37-.71-6.18-3.35-13.42-10.27-13.66-17.71,3.14-17.7,5.57-39.14-16.77-43.87-5.63-1.19-14.12,1.9-17.67,6.47l-2.53.82c-4.62-8.24-12.84-16.96-22-20,.83-3.22-2.64-1.61-3-2-.55-.6,3.3-10.97,2-16l2.06-1.56c14.09,14.43,31.17,6.92,37.48-10.57l2.46-.87,2.8-2.12c31.41-1.96,55.44-26.92,62.63-56.6l2.57-2.28c1.47,5.96,4.69,10.36,8.19,15.31,4.13,5.87,11.62,14.88,16.81,19.69Z"/>
  <path class="st87" d="M317,416c-1.43,1.74-3.43,3.07-6,4l-2.02.88c-9.18-7.95-6.48,2.1-2.92,7.43,3.95,5.91,9.32,10.85,14.89,15.18l.05,2.51,2.52,3.67,6.3,45.86c.25,1.92-.94,3.05-2.74,3.46h-53.48c-1.87,19.66-3.6,39.66-5.18,59.98-2.19,2.42-24.72,1.1-27.42-2.97-3.15-1.19-6.91-4.9-11.01-6.49-29.8-11.53-58.59,21.69-75.99,41.49l-2.04.99c-7.47-8.72-15.7-15.75-24.7-21.07-9.48,2.03-18.14,7.18-25.99,15.45-5.33,4.07-17.76,8.74-21.27,1.63,11.02-23.88,30.85-39.91,51-56l3.33-.05c8.9,9.04,18.42,17.02,28.57,23.95,3.9-14.28,6.93-28.94,9.09-43.97.77-3.21,2.07-7.5,6.14-6.4l60.99,20.71c-4.19-19.51-9.41-38.8-15.66-57.86.13-4.57,4.03-6.43,11.71-5.6,15.95,1.18,31.99,1.9,48.12,2.16l-27.34-48.44c-.93-1.66-.35-3.1,1.11-4.22l43-20.57,1.93,1.29,2.36.43c3.43,7.27,7.68,14.3,13.12,20.24l-.48,2.33Z"/>
  <path class="st45" d="M376,775c.31.43,1.69.93,2.42,2.03,9,13.55,13.69,25.27,3.01,39.9-6.56,8.99-22.1,16.34-17.97,30.11.52,1.75,4.45,6.9,6.03,7.96,10.9,7.27,18.28-5.13,27.3-5.8,2.47-.18,8.98.78,11.21,1.8,3.59-2.84,8.33,6.03,9.65,9.41,2.13,5.45,2.95,9.3,1.46,15.28.44,11.03,11.85,18.12,21.66,12.37l2.23.94c1.6.59,3.29,1.22,4.48,2.48,5.16,5.43,25.91,28.19,27.13,32.81.23.87.33,1.79.38,2.71,2.09,7.47.47,19.14-1.96,26.69-1.65,5.15-4.44,13.66-10.04,14.31l.25,1.72c-5.81,5.65-12.06,10.82-18.77,15.51l18.64,19.67c.66,1.43.19,2.69-.87,3.78l-26.39,15.95c4.19,5.56,9.27,10.94,15.24,16.12,1.01.89.6,2.07-.1,3.26-12.08,7.39-17.73,15.31-27,25-2.88.67-5.59-.73-8.12-4.19l-12.66-13.89-.22-2.92c-2-1.78-1.66-2.44,1-2l.4-1.93c7.3-7.16,15.2-14.08,23.12-20.23-5.19-5.2-10.28-10.5-15.28-15.9l.76-2.93c23.5-34.87,8.51-65.99-22-89l.5-2.37c24.61-16.3-11.2-43.03-20.24-13.44l-2.26.82c-8.09-6.13-13.52-10.09-20-18l-.99-3.24c2.39-8.28.28-21.89-11.14-19.22l-1.87-1.55c-5.4-13.57-6.36-19.98-4-35l1.25-2.17c14.53-2.11,27.36-15.01,17.19-29.22l.56-2.61c1.41-4.12,21.76-16.91,23.92-16.59l2.08,1.59Z"/>
  <path class="st20" d="M299,282c.39-.39.8-.75,1.27-.98,2.68-1.35,15.3,15.39,14.73,18.98-.46,4.41-2.38,8.82-5.77,13.23-1.61,4.81-4.02,8.41-7.23,10.77-6.52,6.24-16.48,12.09-25.16,14.65-.27.16-4.42,3.97-4.59,4.24-2.34,3.67,18.14,24.31,21.43,27.46.71,1.76,1.48,2.97,2.32,3.65l2.19.87c1.21,5.52,3.12,10.89,5.17,16.16l-1.36,1.97-44.9,21.48,29.9,52.51c-6.16-.17-12.38.25-18.54.05-7.85-.26-17.08-1.85-24.92-2.08-3.19-.09-17.91-.82-18.49,1.61,1.89,7.65,18.7,59.29,15.94,62.43l-64.39-21.87c-3.21.73-5.04,19.97-5.9,24.08-.62,3-4.89,26.62-6.25,26.84-2.75.43-7.13-2.89-9.37-4.63-7.95-6.14-15.52-15.54-24.08-21.42,26.68-21.3,57.05-37.91,77.22-66.28,26.15-36.79,33.31-82.61,51.92-123.08,10.39-22.61,23.87-41.13,38.86-60.64Z"/>
  <path class="st68" d="M286,729l.33,2.38c-4.76,3.21-3.19,7.31,4.7,12.31l6.04,9.12c15.91,9.11,26.49,23,1.87,29.84-8.26,1.05-48.96,8.16-43.98,20.8,5.39,4.87,11.17,10.5,15.89,16.16,14.38,17.25,9.93,22.36-9.39,29.59-8.7,1.34-36.84,11.34-20.42,21.23l16.33,8.08c19.3,11.34,25.32,37.49,20.97,58.26.26,12.83,19.55,36.14,30.76,42.21l.91,2.02c-4.44,15.69-14.99,33.4-29,42-.45-.62-.88-1.29-.94-2.06-.46-5.92-1.05-12.99-2.64-19.35-2.34-9.33-5.24-17.83-15.27-21.15l-1.14-2.44c2.43-16.27-3.03-33.64-14-46l-1.35-2.48c4.8-16.58-6.17-31.28-22.94-33.31l-1.71-2.21c-13.12-56.78,37.07-88.73,30.92-135.42-.5-3.77-3.75-8.58-3.92-11.58-2.77-3.54-.63-5.23,2.5-7.33l-12.26-15.53c-.48-1.03-1.19-4.87-.9-5.84.48-1.6,15.73-17.4,18.19-19.62l2.46.32,2.42.37c6.26,10.73,15.05,20.25,25.37,27.2l.22,2.43Z"/>
  <path class="st56" d="M899,807c-.68,2.71-4.72,24.93-6,25-.66,2.23-.76,5.78-.29,10.66-1.59,3.08-8.14,1.1-8.71-2.66l-2.38-1.23-6.52-15.02c-4.95-1.32-8.32-3.57-10.11-6.75-.93-14.63-5.35-34.44-13-47-1.31-12.62-3.99-25.45-19.35-25.84-4.16.92-8.04.53-11.65-1.16-6.7-.35-14.25-3.54-21.46-4.04-11.71-.81-22.16,1.78-33.54,3.04-1.14-1.23-1.66-3.17-1.56-5.82-1.75-5.52-8.04-22.96-11.3-27.16-6.14-7.9-26.87-2.84-34.97,1.04-4.93,1.86-7.98,1.17-9.16-2.07-.79-7.91-6.66-7.08-11-2-.35-1.45-5.24-6.55-6.53-8.97-7.89-14.77-1.03-29.39-7.6-42.4-2.75-5.45-13.15-10.55-17.87-17.13-12.88-18,11.76-34.96,27.71-23.71,18.42,12.98,9.89,42.45,21.84,59.16,11.04,15.43,24.03,2.89,38.82,3.17,29.21.56,28.85,47.22,55.96,45.82,12.09-.63,19.02-10.7,33.19-8.94,12.81,1.59,29.55,19.9,32.97,32.02,3.27,11.56.09,19.78.45,30.53.46,13.41,11.89,24.17,22.05,31.48Z"/>
  <path class="st60" d="M705,742l1.68,1.5c-5.75,21.69,13.47,34.77,32.93,30.66,1.79-.38,5.88-1.3,7.24-2.05-1.77-2.18-1.36-4.5,1.15-3.11,15.96,5.33,30.36,10.98,44,21l.85,2.9c-9.95,21.07,5.17,38.92,26.38,41.82l1.76,2.28c1.69,11.09.94,17.16-1,28l-2.08,1.37c-27.52-2.6-35.36,36.32-9.67,47.19l.75,2.44c-2.27,26.03,7.37,54.39,35,62l.79,2.43c-5.39,8.1-8.92,18.5-2.32,26.98l-.47,2.59c-12.4.23-24.55-2.52-36-7-.68-10.51.93-22.1-.02-32.48-2.19-24-24.59-24.66-33.49-43.51-16.32-34.57,13.41-57.78,7.05-90.05-8.18-41.47-38.87-29.37-69.33-39.67-15.77-5.33-33.26-18.5-36.11-35.89-1.41-8.59-1.97-27.1,5.89-32.39,8.05,7.44,14.81,9.59,25,13Z"/>
  <path class="st74" d="M339,731l1.01,5-3.01.5c6.46,10.02,17.68,14.7,26.01,21.99,6.08,5.34,8.73,10.54,12.99,16.51-1.72.2-3.19.98-4.67,1.82-7.18,4.06-14.25,8.94-21.33,13.18.93,2.94-3.15,4.17-5,2-1.9-14.8-20.22-2.15-26.47,3.03-16.81,13.91-31.75,38.47-33.51,60.49-1.83,22.85,6.12,38.59,14.98,58.48l.32,3.84c-5.68,14.01-1.23,28.94,11.08,37.67l1.6,3.49c.05,8.54-.69,13.83-3,22-1.86.07-3.48-.44-5-1.52-8.33-5.95-23.69-25.97-27.49-35.48-3.18-7.94,1.2-20.23.46-28.38-.28-3.04-7.31-20.97-9.13-23.96-7.97-13.14-20.42-13.08-30.98-21.02-7.49-5.64-4.14-10.05,2.21-15.07,7.84-6.2,13.16-5.61,21.48-8.52,5.96-2.08,17.03-6.48,16.02-14.1-.77-5.78-16.29-20.05-20.91-25.62-2.24-2.69-4.72-1.2-3.44-7.6,2.16-10.83,23.72-14.41,33.15-16.87,8.66-2.25,21.87-1.19,25.23-11.85,2.06-6.54-12.84-13.48-16.13-16.99-1.85-1.98-3.65-6.32-5.96-9.04-5.44-6.42-13.57-7.38-3.51-15.99l3.19-.62c14.56,6.58,31.64,6.99,46.7,1.71l3.11.91Z"/>
  <path class="st68" d="M629,861c3.59,8.09,11.97,20.44,18,27,5.47,13.3,17.61,22.94,30,30,12.02,13.35,16.53,17.63,23,35-.67,12.97-8,26.54-14.66,37.75-15.86,11.69-15.22,32.26-9.34,49.25-6.37,6.01-11.58,10.74-19.33,15.17-16.43,9.39-34.3,11.25-36.55,34.45-.56,5.75,2.05,15.84.74,19.74-.74,2.2-3.95,1.74-5.86,1.64-9.65-5.36-10.32-20.72-7.86-30.63,2.12-8.57,12.29-25.34,19.74-30.23,14.31-4.39,21.92-17.76,26.12-31.14,6.67-11.69,8.19-24.66,7-38l.99-3.23c13.52-10.51,10.56-30.38-4.51-37.57-14.87-5.26-29.19-13.44-30.07-30.96.84-10.6-1.31-18.92-6.46-24.98-9.57-2.3-18.66-5.65-27.28-10.05-3.5-2.33-11.57-9.56-6.67-12.72-.78-.09-1.94-.33-2-.88-.25-2.52-.28-19.48.67-20.46.32-.34.81-.52,1.33-.66l-2.05-.79c-2.54-4.76-5.52-9.33-8.95-13.71-1.26-5.73-4.12-13.88-7-19,1.58-5.81,11.58-9.28,16.96-9.54,9.57-.47,22.3,10.05,23.78,19.31,1.39,8.72-1.56,18.22-1.78,26.79s13.84,19.59,22.04,18.45Z"/>
  <path class="st73" d="M367,461l7,48-.7,3.89c-10.6,12.64-20.25,26.12-28.84,40.2l-3.46,1.91-3.39,1.97c-7.25-.06-14.55-.1-21.71.95l-9.75,65.19c-.42,2.05-1.82,2.78-3.85,2.45-.98.16-18.2-4.99-17.3-7.57-.78-.22-1.58-.65-1.77-1.48-2.1-8.78-6.45-5.78-10.97-.17l-2.26-.36-2.43,1.12c-8.42-3.79-16.94-6.83-25.57-9.12,2.74-5.83,7.86-20.92,8-27l1.11-1.8,35.85,8.27c2.69-21.72,5.58-43.41,8.67-65.06l.9-.62c19.14-.62,38.2-1.89,57.17-3.82-4.01-17.76-6.6-36.03-7.37-54.24-.04-.93.21-1.87.5-2.84s.71-1.94,1.17-2.88c4.91-1.77,14.82-.12,19,3Z"/>
  <path class="st52" d="M348,458c1.12,20.52,3.06,41.03,7.98,60.96-2.85,3.93-51.25,3.38-59.02,4.51l-7.97,66.53-38.99-9c.21-9.21-3.93-17.68-9-25,2.37.89,25.08,2.93,26.01,2.01l3.99-61.01h57s-7-50.99-7-50.99c4.52.61,9.09,2.42,13.71,5.44,5.44,1.34,9.87,3.53,13.29,6.56Z"/>
  <path class="st50" d="M696,227c12.19,16.26,21.72,34.43,30,53l-1.82,1.24-61.02-36.5c-4.31,10.33-7.94,20.93-10.89,31.79l-2.27.46-3.06.71c-12.29-5.1-24.71-9.9-37.26-14.4-14.39-5.82-29.71-14.73-35.46-29.79-1.61-4.23-2.9-14.83.78-17.52,10.07,7.7,19.73,16.14,30.28,23.22,2.38,1.59,14.6,10.25,16.68,8.75l17.48-56.92,56.56,35.95Z"/>
  <path class="st2" d="M912,528c7.12,0,5.21,1.59.3,4.79-5.5,10.32-9.2,13.91-20.77,15.51-21.64-.85-33-.62-38.57,23.27l-6.35,21.35-3.6,4.08c-6.85,4.2-13.29,9.47-20,14-.67.36-1.68.83-2.08.43-1.54-1.53-11.14-13.56-12.24-15.33l.32-2.1c11.9-7.27,19.2-21.5,7.04-32.54-11.88-10.8-26.71-.14-40.31-2.69-2.82-.53-10.95-4.84-13.24-6.76-15.61-13.13-10.18-40.54,4.5-52,10.51,20.39,33.88,44.86,57.78,47.72,34.29,4.1,55.29-15.97,87.22-19.72Z"/>
  <path class="st19" d="M173,761c-21.48,29.91-14.93,57.01-9,90,.98,7.77-.74,9.49-7.7,12.8l-16.5,8.15,19.26,30.96c.56,1.73.66,3.12-1.02,4.04-20.01,7.5-43.18,19.73-41.27,44.51l-1.77,2.52c-2.77.42-8.38,3.23-9.47-1.87-1.36-6.36,15.29-29.2,18.25-37.85,6.76-19.73.02-31.33-13.78-44.28l-.7-2.09,38.92-36.73c-8.72-13.35-16.83-26.91-24.33-40.7,3.28-6.07,33.56-25.19,41.56-29.75l4.55-.73c.99-2.7,3.18-1.82,3,1Z"/>
  <path class="st9" d="M710,590c-.6-5.35-1.55-10.8-1.04-16.54,1.54-17.47,18.63-21.77,31.95-11.87,17.03,12.65,25.69,32.32,50.59,34.4,5.76.48,14.12-2.64,17.49-1.99,2.1.41,12.34,14.12,14,17-6.9,4.66-13.41,9.87-21.77,12.73-30.52,10.43-64.96-2.04-76.28-33.18-1.6-4.4-1.05-14.78-8.21-13.4-4.85.93-6.22,8.67-6.74,12.85Z"/>
  <path class="st31" d="M96,784c-1.42-2.61-1.72-3.97.97-5.79,23.41-13.7,46.49-27.73,69.24-42.08,3.32.38,5.72,14.33,5.89,17.79.81,3.25.11,5.28-2.09,6.08-14.71,10.45-31.01,19.02-44.54,30.98l25.49,40.38-40.94,38.64c-6.58-6.18-10.43-8.37-16-16l1.41-3.69c9.03-8.61,17.65-17.54,25.88-26.79-9.54-11.49-17.92-23.71-25.11-36.64l-.18-2.88Z"/>
  <path class="st35" d="M258,699l-18.85,19.72.86,4.57,12.96,16.25c.76,2.15-5.26,1.97-4.96,7.45-9-9.6-18.69-14.42-32.24-12.74-3.74.46-15.47,4.02-18.76,5.74l-2.11.61c-11.87-13.8-23.75-27.6-35.63-41.41l.74-2.2c7.75-6.52,16.41-12.65,24-19l1.9-.91,26.7,26.82,37.17-33.59,2.23.68,2.02,1.61c.42,8.22,2.14,16.42,5.15,24.08l-1.17,2.3Z"/>
  <path class="st8" d="M604,154l-9.53,34c-1.35-.05-2.34-.87-3.4-1.57-15.53-10.29-31.23-27.42-47.13-37.86-1.4-.92-4.31-2.97-5.93-2.14-5.68,2.9-21.78,52.05-24.62,52.65-2.34.5-4.53-1.41-6.29-2.67-6.39-4.57-13.31-12.19-19.62-17.38-6.35-5.23-16.15-10.98-21.52-16.48-1.39-1.42-2.23-2.39-1.95-4.55,45.98-16.78,93.28-20.63,140-4Z"/>
  <path class="st80" d="M726,280c2.57,5.77,4.84,11.03,7,17-11.07,11.16-20.3,26-34,34l-3.31-2.78c-8.56-20.52-23.7-37.12-43.27-47.66l-2.43-3.56c1.69-4.65,9.91-34.31,12.6-34.92l63.4,37.92Z"/>
  <path class="st40" d="M160,697l37,43c-6.45,3.38-19.68,14.99-24,21l-3-1c1.02-6.48-1.5-14.04-3.02-20.5-.28-1.19.74-1.81-1.47-1.5-19.23,16.29-44.34,25.91-64.82,40.19-2.04,1.43-5.54,2.79-4.7,5.81-1.51,1.81-2.83,2.32-4,0,11.95-34.92,37.81-62.67,65.5-86.04.85-.72,2.21-.72,2.5-.96Z"/>
  <path class="st42" d="M463,968l2.39-1.69c6.78,4.56,13.38,9.41,19.8,14.57.4-3.62,3.94-6.24,3.81-1.88.78.94,1.15,2.02,1.24,3.22.35,4.6-7.13,17.15-10.26,21.23-.29,6.99,10.48-3.6,12.66-5.77l2.36.32,7.51,6.99c2.32,2.42,6.86,9.74,8.95,11.13,2.23,1.48,4.09-1.13,5.53.88-21.81,8.87-45.77,14.63-66,27-4.04-6.31-12.98-11.66-17.01-17.49-.59-.85-1.39-.99-.98-2.5l28.98-17.51-20.96-22c6.89-5.81,15.9-9.47,21.97-16.5Z"/>
  <path class="st23" d="M660,981c-4.63-51.89-71.6-63.83-80.73-113.77-2.51-13.7-1.22-28.34-4.27-42.23,4.29,3.14,11,8.71,11,14.5v22c0,7.67,10.92,13.57,17.2,15.8,9.12,3.24,21.46,1.7,23.56,14.44,2.67,16.19-1.5,28.88,15.36,39.64,9.59,6.12,19.14,5.62,25.72,16.28,7.5,12.15,3.73,25.47-7.84,33.34Z"/>
  <path class="st76" d="M934,530c3.95,2.7,2.56,8.74,1.29,12.87-4.74,15.48-23.66,25.05-38.76,27.01-13.16-.8-18.4-.36-21.78,13.56l-2.75,1.56c-8.54,1.56-21.5,7.41-29,12,4.02-10.26,6.35-22.16,10.2-32.3,2.55-6.71,7.32-16.4,15.36-17.64,10.29-1.59,28.67,2.47,36.45-6.55,3.19-3.7,4.66-11.4,10.98-11.53l-3.99-.99c8.88-1.04,13.16-1.63,22,2Z"/>
  <path class="st0" d="M115,954c-3.34-27.96,20.55-40.78,43-49.01l-20.89-33.51c.12-1.53,24.7-10.88,26.35-15.42.49-1.34-1.53-4.07.54-5.06,2.1,11.68,4.97,23.51,4.8,35.5-.47,32.14-20.89,62.57-53.8,67.5Z"/>
  <path class="st60" d="M256,648l1.59,1.76c-1.66,6.58-3.07,13.3-3.56,20.08l-2.04,1.16-39.69,35.87-28.31-28.87c6-5.02,14.64-12.5,20-18l2.12-.67c1.78,1.43,9.6,7.6,11.42,7.09,6.97-6.28,14.26-12.1,21.89-17.47,3.86-2.07,14.89-6.14,16.57-.96Z"/>
  <path class="st71" d="M872,585c2.01-4.63,4.13-14.17,9.26-16.24,4.24-1.71,9.71-.3,14.23-.77,18.41-1.91,42.88-16.27,38.52-37.98,21.61,8.87,25.66,34.85,6.5,49-20,14.76-46.44,1.96-68.5,6Z"/>
  <path class="st34" d="M154,591c-3.74,4.26-7.27,8.72-11,13l-2.08.55c-6.24-4.84-15.32-11.87-23.04-6.13-11.23,12.64-26.13,18.36-43.04,16.95l-.83-6.37c.47-8.82,2.42-13.25,6-21,19.93,8.38,30.24-20.27,47.48-19.06,7.82.55,19.7,17.44,26.52,22.06Z"/>
  <path class="st84" d="M270,616l1.06,2.01c-5.38,9.24-9.45,19.34-12.82,29.46l-2.24.53c-4.34-2-13.75,1.53-17.71,3.79s-18.8,16.74-20.8,16.86-11.77-6.44-13.49-8.65c12.07-12.4,30.6-36.25,38-52,1.69-1.26,3.11-1,5.02-.59,6.83,1.49,16.43,5.7,22.98,8.59Z"/>
  <path class="st69" d="M177,1004l2.39-.17c5.66,16.86,21.67,27.99,39.25,20.74,1.34-2.66,3.12-4.18,5.35-4.57,5.89-4.34,14.14-5.85,21-12,5.61.54,7.53,3.03,7.3,8.77,3.96,5.82,6.56,13.87,4.7,20.23-22.85,8.79-47.9,9.4-70.38-2.12-14.22-7.29-24.86-25.1-17.62-40.88,1.92-.42,2.86,1.04,2.84,4.36,3.28,1.86,5.01,3.74,5.16,5.64Z"/>
  <path class="st45" d="M766,742c-18.39,2.03-38.63,2.09-51.53-13.97-6.84-8.52-4.58-11.05-5.47-20.03,6.84,3.29,14.22-3.27,20.47-4.03,3.46-.42,13.65-1.03,16.95-.9,10.49.41,13.64,16.46,16.1,23.91,1.61,4.89,6.17,9.6,3.48,15.02Z"/>
  <path class="st33" d="M143,604c-7.42,8.5-12.63,16.43-22.08,23.42-22.77,16.82-48.73,15.83-46.92-18.42l1.01,5c3.5-1.96,7.7-.15,10.5-.49,4.88-.59,16.19-4.14,20.45-7.05,6.17-4.21,9.96-12.65,19.58-12.34,3.28.11,15.35,6.42,17.46,9.88Z"/>
  <path class="st29" d="M96,784c8.22,13.87,18.03,26.16,27.01,39.52-8.92,10.6-18.12,22.14-29.01,30.48-6.1-8.35-9.19-14.72-10.04-25.46-.77-9.8,1.52-37.08,8.04-44.54.12-.14,2.66-.07,2.5-2.01.37-.07,1.17,1.45,1.5,2.01Z"/>
  <path class="st24" d="M564,960c0,14.99-3.9,24.94-14,36-1.96-.16-3.82-2.51-5.3-3.53-.46-.32-1.46.14-2.18-.41-5.35-4.02-18.51-14.41-19.42-20.64-3.42-23.59,31.84-33.47,40.91-11.41Z"/>
  <path class="st32" d="M281,1023c-4.43,6.62-16.85,11.25-24,14-2.7-3.75-1.33-7.59-2.24-11.26-.43-1.73-3.44-5.96-4.38-8.44-.41-1.09.64-5.14-2.34-6.81-1.73-.97-3.13,2.97-3.04-2.49,8.56-7.67,14.3-18.62,16-30,19.19,5.22,18.12,25.95,21.72,41.73.05,1.39-1.03,2.24-1.72,3.27Z"/>
  <path class="st84" d="M705,980c-1.67,8.84-5.1,17.46-10.29,25.86l-2.71,13.14c-6.01,10.11-7.04,12.55-16,21-4.08.35-2.42.05-3.01-2.44-3.78-15.98-5.33-29.65,5.59-43.48,1.41-1.78,3.48-2.28,4.45-3.55,7.58-9.98,12.24-25.86,16.97-37.53,3.24,8.7,7.45,17.08,5,27Z"/>
  <path class="st35" d="M541,907c-3.23,33.63-52.5,17.93-38.89-11.39,4.16-8.96,10.95-8.56,18.89-11.61,6.36,7.88,13.71,14.96,20,23Z"/>
  <path class="st75" d="M865,817l11.72,5.29c2.13,6.25,5.8,11,7.28,17.71l2.49,2.45c.47,19.46,3.79,32.02,21.85,41.53,3.16,1.73,4.38,3.74,3.66,6.02-13.18,3.27-25.31-2.46-34.02-12.48-14.69-16.89-11.65-39.84-12.98-60.52Z"/>
  <path class="st37" d="M436,1111c.52,2.41-1.37,4.85-5.66,7.32,4.96,5.94,10.32,11.68,16.07,17.24l-.41,2.44c-16.31,2.99-28.14.98-43-6-1.89-2.31-.65-5.23,3.71-8.77l9.67-9.2c-5.35-6.14-11-12.02-16.93-17.67l.55-2.37c-.86-.29-.85-.62,0-1,2.47-6.35,10-12.96,15.62-17.44,1.24-.98,2.86-1.29,4.38-1.56-3.35,11.64-2.46,24.82,7.97,32.53,1.28.95,6.91,4.17,8.03,4.47Z"/>
  <path class="st66" d="M402,189c17.06-10.22,33.33-19.34,52-27-2.39,6-21.93,49.13-24.59,49.94-2.95.9-3.28-2.57-4.92-3.94-7.53-6.28-15.57-12.01-22.5-19Z"/>
  <path class="st36" d="M865,979c4.38-2.83,16.83,8.65,17.88,11.51.74,2.02.64,2.61-.88,4.49-11.87,9.47-24.66,14.71-40,15-9.02-10.32-4.8-21.96,2-32,8.46,2.33,12.51,2.27,21,1Z"/>
  <path class="st57" d="M653,1019c1.37,1.32.01,5.49-.51,7-1.82,5.25-8.4,15.89-12.55,19.44s-12.03,5.39-15.61,8.89c-1.4,1.37-10.67,15.4-11.83,17.67-6.78,13.28-6.31,26.8,2.49,38.99-16.36-.84-23.74-21.31-18.78-35.28,9.09-25.59,42.53-31.75,56.78-56.72Z"/>
  <path class="st4" d="M403,1048c7.34,6.45,12.77,15.64,21,21-1.33,1.39-2.66,3.62-4,5-6.34,6.54-13.51,12.59-20,19-.62.49-1.62,1.13-2.05.77-3.36-2.77-17.45-16.33-19.33-19.33l.38-2.45c4.1-9.63,14.52-19.59,24-24Z"/>
  <path class="st64" d="M455,1136c-3.72,1.88-5.54,1.37-9,2l-18.99-19.51,8.99-7.49c14.3,3.94,24.33-2.7,36-9,5.13-3.13,8.94,11.29,8.53,14.82-.72,6.16-19.31,16.9-25.53,19.18Z"/>
  <path class="st12" d="M749,873c-6.68-15.47-16.34-26.46-30-36,14.85-8.41,44.29-9.09,45.06,13.49.29,8.58-5.6,20.97-15.06,22.51Z"/>
  <path class="st83" d="M820,865c-3.05,17.08-9.49,33.66-11,51-15.84-5.65-24.79-26.22-13.97-40.47,5.93-7.82,14.57-14.81,24.97-10.53Z"/>
  <path class="st60" d="M323,254c2.99,6.26,8,11.8,12.68,16.87.98,1.07,2.74,3.28,4.32,3.13l-.89,3.51c-7.38,6.6-14.75,13.27-20.71,21.22l-3.4,1.28c-3.16-3.97-6.26-8.08-9.49-12.01-1.63-1.98-3.97-5.48-6.51-5.99,8.62-11.22,14.92-18.02,24-28Z"/>
  <path class="st44" d="M792,790c16.84,12.37,25.78,25.88,29,47-24.98-3.19-41.38-22.02-29-47Z"/>
  <path class="st4" d="M413,1005c.57,3.99,18.71,17.67,16.99,19.98-8.79,5.57-16.66,13.49-24.38,20.65-.51.47-1.47.23-1.62.37l-2.2.69-13.13-12.26.33-2.43c7.39-8.58,17.86-17.89,24-27Z"/>
  <path class="st50" d="M403,1132c-12.5-5.87-15.49-9-23-20,4.23-7.06,10.69-13.1,17.35-18.26l2.65.26c2.28,2.73,18.69,18.3,18.93,19.64.35,2-15.7,13.41-15.93,18.36Z"/>
  <path class="st72" d="M371,1065c1.56-2.37,3.05-.87,4.41,1.1l3.59,5.9,21,21c-.17.16.17.83,0,1-3.11,3.08-7.52,6.09-10.49,9.01s-4.97,8.11-9.51,8.99c-11.23-16.44-13.15-26.89-9-47Z"/>
  <path class="st30" d="M708,742c5.63,6.7,16.61,14.81,24.33,19.17,2.42,1.37,15.52,6.78,15.67,7.83.01.09-.85.55-1.01.96,2.01.58,5.21.74,6.01,3.03-6.13.43-12.37,3.9-18.61,3.9-2.36,0-14.06-2.25-16.72-2.9-.81-.2-.64-2-1.28-2.07-1.16-.12-3.16,1.34-3.39,1.08-.17-.19.33-1.85-.26-2.69s-4.54-3.3-5.37-4.69c-3.11-5.18-4.12-17.74-2.38-23.63.71.24,2.11-.16,3,0Z"/>
  <path class="st86" d="M743,328c3.86,15,5.52,27.64,7,43-13.81-1.05-26.18-12.86-23.76-27.27,1.19-7.09,8.97-16.02,16.76-15.73Z"/>
  <path class="st39" d="M391,916c-7.01-5.29-14.92-9.64-22-15,2.89-13.62,17.39-22.66,28.4-10.9,8.47,9.03,4.61,21.77-6.4,25.9Z"/>
  <path class="st23" d="M389,1032l15,14c-.41.38-.58,1.61-1,2-8.25,7.74-16.55,15.47-24,24-4.46,1.08-3.59-5.6-8-7,3.18-15.4,8.16-21.58,18-33Z"/>
  <path class="st67" d="M893,832c-.33,14.2,1.96,27.83,12.48,38.02,5.94,5.76,25.62,15.24,6.52,19.98-6.65-7.47-18.22-11.46-22.82-20.68-4.28-8.58-3.14-20-5.18-29.32,2.49,1.59,5.01,2.36,8,2v-11c1.15-.17.93,1,1,1Z"/>
  <path class="st48" d="M247,932c-.1-.12-1.21.13-1.64-.33-13.93-14.94-19.39-16.17-24.36-37.67,20.21,1.82,32.48,18.23,26,38Z"/>
  <path class="st14" d="M455,1136c2.42-1.22,22.94-16.57,23.47-17.95.6-1.57-2.26-15.69-6.47-16.05,4.92-2.66,15.5-10.83,21.36-8.87,3.85,1.29.86,13.93-.49,17.24-4.87,11.88-25.57,23.22-37.87,25.63Z"/>
  <path class="st41" d="M882,995c-.47-5.39-2.47-4.53-5.05-7.44-4.41-4.97-4.58-6.51-11.95-8.56,10.11-1.51,15.82-4.53,23.92-10.58,3.54-2.65,16.99-18.39,13.85-2.15-1.94,10.01-12.94,22.49-20.76,28.73Z"/>
  <path class="st82" d="M224,1020c-3.14,2.31-1.04,4.25-4.26,6.24-10.05,6.21-29.16.5-35.57-8.91-1.81-2.65-5.32-11.52-7.16-13.33l-.16-2.55c5.47-4.05,9.72-8.93,12.77-14.65l2.39-.8c2.21,3.51-3.93,9.5-3.91,14.38.06,12.02,10.64,19.3,21.69,20.34,5.27.5,9.12-.9,14.22-.72Z"/>
  <path class="st7" d="M331,824c1.1-6.99,8.6-27.92,14-32,1.14-.86,3.56-1.13,5-2,13.1,16.76-1.12,31.89-19,34Z"/>
  <path class="st6" d="M313,959c-16.11-9.98-21.83-27.66-13-45,7.63,17.12,12.87,24.76,13,45Z"/>
  <path class="st55" d="M852,770c-2.27-3.73-8.68-11.55-11.99-14.51-5.83-5.2-13.15-7.61-19.01-12.49,7.42.38,11.83-2.6,19.69.81,10.18,4.42,13.91,15.94,11.31,26.19Z"/>
  <path class="st17" d="M192,986c-2.22,7.57-9.41,12.89-15,18-.91-.9-4.62-1.49-6.49-4.04s-.22-3.89-1.51-5.96c1.6-3.48,6.53-9.2,10.16-10.33,3.87-1.22,10.55-1.31,12.84,2.33Z"/>
  <path class="st59" d="M349,883c-6.98-8.53-10.01-13.98-14-24,15.14-4.88,18.58,13.17,14,24Z"/>
  <path class="st81" d="M508,867c-12.63-2.89-24.86-17.87-11-28,1.08,6.09,7.78,22.53,11,28Z"/>
  <path class="st5" d="M677,918c-3.64-.78-7.14-2.26-10.32-4.18-7.29-4.4-15.88-13.84-19.57-21.43-.61-1.25-2.08-3.53-.11-4.39,9.55,10.39,20.15,19.06,30,30Z"/>
  <path class="st18" d="M692,1019c-3.75-15.9,9.77-25.95,13-39,1.79,1.85.24,6.01-.18,8.32-2.69,14.6-5.69,18.69-12.82,30.68Z"/>
  <path class="st77" d="M575,216c-.34,11.47-1.04,16.05,6.02,25.48,14.78,19.74,47.44,24.43,68.98,35.52,23.59,12.14,39.24,29.24,49,54,16.36,41.48,4.02,93.08-30,122l.02,2.57c-10.56,7.94-22.44,14.35-34.87,18.85l-2.15-1.42c-35.74,10.56-83.21.5-105.98-30.52-2.89-3.93-16.07-25.57-6.48-26.5,6.42-.62,8.78,9.8,11.46,14.02l3.02.91c12.56,16.69,35.1,29.05,55.79,31.61,108.76,13.46,142.98-145.8,37.21-177.86-82.08-24.88-134.97,94.56-66.73,141.3.23,1.5,1.13,2.84,2.71,4.04l3.51-.32c55.89,30.88,115.17-25.02,89.38-83.34-20.76-46.94-86.21-48.89-98.38,4.09l-2.51,2.57c.49,6.29.84,12.15.98,18.69.9,5.57,1.91,11.01,3.02,16.31l2.86,1.18c22.65,38.73,77.66,23.61,70.79-24.06-3.03-21.06-31.87-34.59-45.99-15.47l-2.66.35c-5.39,14.02-2.03,42.4,20.1,32.97,6.38-4.97.88-17.33-.78-15.13-.94,2.5-2.17,5.5-5.17,6.09-8.94,1.74-9.36-13.21-3.16-15.93-.11-6.06,10.41-7.24,15.55-5.76,14.9,4.31,15.3,27.35,7.95,38.48-6.91,10.46-22.4,14.8-33.66,9.28-4.78-2.34-14.13-9.86-13.83-15.01-2.86-3.67-4.63-7.75-5.63-12.44-.9-4.23-1.89-11,1.63-13.56-3.5-4.91,2.19-14.4,5.63-18.99,11.15-14.88,32.19-20.4,49.38-13.62,47.18,18.62,31.72,95.93-17.45,101.47-7.71.87-20.46.99-25.56-4.86-13.35.47-26.15-13.18-32.25-24.33-20.62-37.7-.06-95.46,44.36-103.72,58.31-10.85,97.62,44.59,85.44,98.35-12.69,56.06-74.96,78.38-123.27,49.84-6.67-3.94-17.11-10.55-18.29-18.13-10.7-13.21-19.18-38.07-20-55l-2.07-3.88c.99-43.07,25.9-87.97,70.17-98.29-6.84-4.98-12.83-10.76-17.97-17.36l.87-2.47c-5.54-1.76-6.25-13.75-6.37-19.43s-.06-16.91,5.37-18.57c1.77-3.52,4.57-6.72,9-4.52,4.13,2.05,1.07,8.1,1,10.52Z"/>
  <path class="st16" d="M480,219c2.3,3.12-2.55,12.94-4.89,15.97-9.35,12.13-18.97,18.79-33.56,23.76,7.72,3.62,14.58,8.15,20.57,13.6l-.13,1.66c7.39,1.79,12.94,11.54,16.62,18.27,10.75,19.68,13.62,43.93,10.66,65.97-1.15,8.56-2.47,18.11-8.28,24.76-17.81,46.33-63.35,80.45-114,78-6.98-.34-12.25-1.27-19-3-10.14-2.6-18.43-6-27-12-6.9-4.84-21.73-18.37-20.01-27.48,1.1-5.87,7.7-.62,10.01,1.48l2.93-.02c35.1,42.24,97.87,32.02,132.57-6.94,15.84-17.78,21.75-34.11,26.2-57.01.1-.53.76-.95,1.56-1.34.94-10.93.51-21.82-1.27-32.69l-2.76-2.86c-20.53-74.6-121.66-59.57-149.13,1.77l-3.11,2.09c-.45,2.23-.51,4.23-.19,6.01-6.55,18.07-7.44,35.83-1.22,54.05,2.31,6.77,4.7,13.22,9.41,18.94,2.88.89,5.5,2.94,7.86,6.15,43.82,29.82,110.47-.04,113.27-55.13,4.31-85.01-103.89-68.16-103.86,3.74.02,58.39,79.53,43.07,73.44-11.43-3.25-29.05-46.53-22.05-46.91,8.79-.22,17.84,21.03,16.54,22.15.38-15.09,6.1-18.36-9.79-3.57-15.12,12.68-4.57,20.09,1.65,20.43,14.43.97,36.84-57.55,42.49-56.05-1.57s69.96-64.33,80.06-11.71c8.75,45.6-38.91,86.29-81.42,64.68-7.44-3.78-19.14-12.56-18.4-21.2-2.87-1.03-4.56-3.63-5.06-7.8-3.47-15.27-4.06-34.97,6.06-47.2-.22-.71-.4-1.42-.45-2.15-.42-6.18,15.24-23.83,20.48-28.6,36.94-33.59,94.92-24.25,107.35,27.57,1.76,7.34,3.55,15.06.62,22.17,3.26,10.22-.18,22.35-4.33,32.47-21.58,52.66-94.62,77.53-139.75,39.03l-.92-3.5c-5.32-4.93-12.2-16.21-15-23-2.09-5.07-5.17-13.76-6-19-.58-.48-1.14-.99-1.58-1.58-4.25-5.63.36-37.12,3.89-44.11.92-1.82,1.94-3.12,3.69-4.31,3.16-8.09,8.01-16.89,13-24,7.46-10.62,15.6-17.45,25-26,1.74-1.58,4.45-2.65,7-5,18.12-15.59,41.89-20.3,64.93-23.36l4.07,1.36c26.86-4.63,44.18-10.46,52.55-38.95,1.02-3.48-.49-9.31,4.43-10.67,7.69-2.13,7.79,17.2,7.02,21.62Z"/>
  <path class="st46" d="M575,521l2.32.96c2.14,4.82,4.73,9.42,7.78,13.79l-1.1,2.25c6.52,13.84,12.46,29.23,17,44,.73.63,1.42,1.28,2.01,2.02,2.99,3.78,9.05,29.63,7.96,34.28-.22.92-.57,1.81-.97,2.69,2.02,15.17,3.62,36.06,1,51,2.97,4.62-1.74,13.03-4.58,17.63-5.37,8.68-13.95,15.7-24.05,17.89-37.74,8.19-52.33-38.46-58.14-66.85-9.34-31.57-32.98-67.95-70.31-61.86s-61.04,46.93-78.06,78c-3.04,5.27-16.84,25.61-22.02,25.51-.61-.01-1.23-.15-1.84-.32-2,6.92-15.23,8.68-22,8.03-26.31-2.52-29.58-28.32-25.28-49.8,5.87-29.29,19.49-58.17,33.51-84.3l2.77-.92c8.79-15.03,21.56-32.87,33-46,53.06-60.92,127.68-75.9,184.51-10.01,5.98,6.93,10.18,15.37,16.49,22.01Z"/>
  <path class="st54" d="M611,672c8.07,7.23,18.02,11.98,27,18,2.63,6.49-2.16,16.38-5.43,22.65-20.86,39.97-70.07,34.7-95.64,3.09-3.47-2.95-9.9-4.41-7.41,2.32l-1.51,1.94c-1.68,2.03-4.28,1.92-6,0l-2.77.25c-12.26-11.17-17.58-25.91-20.66-41.49l1.43-1.76c5.79-6.13,4.25-14.25,2.5-22.09-10.55-47.38-48.72-64.53-81.23-22.39-6.72,8.7-17.1,24.91-11.27,35.49l1.13,1.94c-2.39,7.5-12.98,31.91-17.99,34.35-.67.33-1.4.53-2.14.71-.93,3.99-11.54,7.42-15.28,4.98-1.62-2.57-3.52-4.56-5.72-5.98-1.98-1.51-3.98-3.18-6-5-2.17,1.03-2.9-.34-2.2-4.09l-7.13-5.69c-3.93-2.84-4.82-5.24-2.67-7.22,17.67-12.26,28.9-40.06,40.58-57.92,42.57-65.05,105.18-66.42,132.16,11.67,7.72,22.35,9.47,51.36,31.95,65.05,24.76,15.07,49.75-2.83,54.3-28.8Z"/>
  <path class="st1" d="M531,430l4-5c21.83,26.98,65.67,36.12,96.88,21.38,74.81-35.35,50.72-156.97-33.41-150.41-65.03,5.07-79.93,107.31-19.46,127.04.59,2.33-1.03,3.61-4.84,3.83l-9.46.86c.5,1.39-.18,2.17-1.71,2.31-74.25-43.37-23.46-168.75,59.2-148.7,111.68,27.09,82.88,191.75-27.74,183.74-22.68-1.64-51.1-15.57-63.46-35.04Z"/>
  <path class="st80" d="M566,248c2.28,4.33,6.14,7.53,9.47,11.03l12.52,9.96c-32.71,4.71-57.72,32.75-67.26,63.24-3.49,11.17-6.3,26.08-5.73,37.77l-11.49-8.78c-1.87-.06-18.6,19.87-22.51,21.78,13.27-34.53,9.58-82.8-19-109-.21-1.74.32-2.7,1.92-2.19l7.1-9.73c2.62-4.37,5.93-6.62,9.95-6.75l45.99,42.42c12.45-16.41,24.69-33.07,36.73-49.95l2.32.21Z"/>
  <path class="st43" d="M655,694c-6.89,32.78-33.08,60.3-68,61l-1.86,2c-16.01-.87-32.9-7.34-45.3-17.64-4.96-4.11-14.5-13.1-11.85-19.36-1.39-4.42-2.12-9.14,4.03-8.59,6.55.59,9.04,6.82,13.44,10.62,37.61,32.42,84.01,17.19,92.53-32.03,4.07-23.5,1.41-45.99-.94-69.45,3.98-9.57,10.22-10.61,14.22-.34,6.86,17.63,7.59,55.34,3.72,73.78Z"/>
  <path class="st65" d="M712.73,471.24c3.76-.73,9.71.09,13.49,1.03,27,6.7,17.28,47.27-10.64,43.64-23.37-3.04-26.51-40.09-2.85-44.67Z"/>
  <path class="st65" d="M662.74,522.23c25.83-4.38,36.66,25.88,16.77,39.77-4.6,3.21-10.56,3.59-16.01,2.99-24.63-2.7-23.51-38.91-.76-42.77Z"/>
  <path class="st25" d="M584,538c-2.57-5.45-7.58-10.43-9-17s2.4-16.24,8.07-20.43c19.86-14.69,45.88,9.63,30.77,31.77-8.07,11.82-17.71,9.26-29.84,5.66Z"/>
  <path class="st86" d="M744.65,409.34c19.79,22.28-17.63,47.24-35.5,26-16.81-19.98,16.91-46.93,35.5-26Z"/>
  <path class="st85" d="M601,582c8.84-5.93,23.72-7.69,31.44,1.06,14.15,16.05-1.66,42.27-22.44,37.94-1.77-13.31-5.07-26.2-9-39Z"/>
  <path class="st79" d="M499.64,439.64c-14.68,14.05-37.89-8.88-20.03-25.53,15.25-14.23,36.5,9.77,20.03,25.53Z"/>
  <path class="st21" d="M632,473c10.54-3.12,28.63-12.88,37-20,8.87,13.63,1.76,30.99-13.96,34.53-11.85,2.67-18-4.83-23.04-14.53Z"/>
  <path class="st20" d="M522,720c1.78-.92,4.18-.74,6,0,6.47,20.51,38.83,35.4,59,35-5.65,15.91-19.06,27.35-35.91,17.41-2.16-1.28-3.1-4.28-6.09-4.41-.57-2.19-2.28-5.04-3.57-6.93-7.1-10.36-17.29-12.02-28.47-6.61-8.87,4.3-15.65,16.71-26.37,12.44-9.84-3.93-11.76-12.82-16.79-21.2-3.76-6.27-7.66-13.71-11.44-19.56-5.48-8.47-15.94-13.4-25.32-7.6-7.69,4.75-18.76,20.24-27.03,26.97-4.06,3.3-8.18,7.33-13.07,4.04-6.54-4.4-21.9-26.61-26.6-27.31-2.95-.44-6.32,4.3-8.34-2.24l-.09-2.47c4.04-3.4,8.5-7.15,9.98-12.39l2.11-1.14c6.76-.15,4.16.96,6.51,3.99,2.73,3.52,10.85-2.67,14.49-2.99l2.15-.34c1.97,2.44,4.6,5.01,7.88,5.17l54.17-56.35c1.67-1.61,3.69-1.22,4.97.66,9.26,18.97,17.16,38.7,23.7,59.18,6.18,21.9,22.12,20.67,35.56,5.99l2.56.69Z"/>
  <path class="st43" d="M444,860l3.08,1.49c5.94,10.08,12.85,19.46,20.73,28.14l.19,3.37c14.18,17.21,34.91,36.21,36.98,59.52,1.2,13.51-1.37,34.52-9.98,45.48-3.19,4.06-17.98,17.06-16.81,4.71,5.47-7.05,8.78-15.12,10.81-23.71l-1.36-3.08c4.72-17.08-1.42-31.44-11.85-44.83l-.79-4.09c-9.94-13.27-21.93-24.77-32-38-.8-.22-1.58-.47-2.3-.84-6.26-3.24-22.53-36.11-22.4-43.81.01-.79.31-1.57.7-2.35-1.34-4.83-2.37-11-3-16-.57-.52-1.11-1.06-1.54-1.67-2.86-4.12-1.5-27.47,2.54-32.33,1.35-9.41,4.29-20.07,9.2-28.3,1.69-2.83,10.36-14.05,12.65-7.06,1.96,5.96-4.87,27.74-5.84,35.87-3.05,25.56-.96,44.84,10.98,67.48Z"/>
  <path class="st22" d="M285,618c.93.31,1.46.93,1.53,1.88-11.4,24.7-26.54,61.17-3.62,83.95,26.19,26.03,54.26,13.73,79.11-6.06l1.99,1.22c3.72-1.02,5.96,1.38,6,5,.06,5.91-7.6,12.65-12,16-4.79,3.66-13.47,8.63-19,11-15.84,6.79-37.75,6.29-53-2-9.42-5.12-23.44-20.25-28-30-3.44-7.35-6.07-19.9-6-28,.05-5.97,2.34-17.09,4-23,2.16-7.68,9.55-25.61,14-32,.74-1.06,4.06-4.8,5.04-5.46,5.94-4,11.46,1.22,9.96,7.46Z"/>
  <path class="st12" d="M454.73,792.22c6.29-.56,14.6,3.07,18.11,8.44,13.23,20.23-18.11,34.63-29.83,18.83-7.38-9.95.05-26.24,11.72-27.27Z"/>
  <path class="st28" d="M443,889c-10.63,7.44-24.14.8-25.79-11.76-.47-3.57.86-5.6.73-8.6-.22-4.96-5.36-15.55-9.95-17.64,1.35-4.8,8.72-2.57,9-2.99.25-.38-.32-2.28.03-3.25.39-1.08,2.59-.72,1.97-2.76,4.74,17.1,13.32,32.97,24,47Z"/>
  <path class="st26" d="M468,893c-9.67-11.73-16.65-19.07-24-33,22.39-11.16,35.57,14.24,24,33Z"/>
  <path class="st70" d="M416,826c-18.64-6.67-12.31-25.01,1-34-1.63,11.41-2.43,22.59-1,34Z"/>
  <path class="st61" d="M565,210c-5.07,10.11-4.22,28.06,1,38l-38.5,52.98-47.2-43.88c-4.16-1.09-12.22,13.4-15.26,16.26-.86.81-2.09-.12-3.04.63-3.76-3.44-8.63-5.75-12.69-8.81l-13.3-7.18c13.98-3.61,29.56-11.47,37.41-24.09,1.66-2.67,6.13-12.27,6.58-14.92l42.5,38.98,29.95-46.03c4.21-3.99,7.49-2.57,12.55-1.95Z"/>
  <path class="st53" d="M416,247c-10.62,1.83-21.31,2.91-31.76,5.74-13.17,3.56-25.5,9.48-37.24,16.26,15-13.81,27.71-31.81,42.64-45.93l26.36,23.93Z"/>
  <path class="st63" d="M311,420c.25-3.41,2.94-4.4,6-4,51.72,47.94,145.38,4.9,145-68,2.08-10.27,5.34-1.16,3.87,5.08.37.64,5.89.58,6.18.17,1.93-2.73-.79-24.49-2.09-28.59-.02-2.1.88-2.9,3.04-2.66,16.43,72.62-52.37,144.17-125,123.5-19.63-5.59-23.33-13.03-37-25.5Z"/>
  <path class="st2" d="M489,979c-1.04-2.54-1.45,1.15-1.67,1.83-.79,2.42-1.26,5.08-2.83,7.17-2.34-2.04-2.18-2.66.5-3.48-2.3-5.41-7.17-6.21-10.65-8.87-3.2-2.45-6.39-7.71-11.36-7.64,10.92-12.63,9.7-25.46,12-41,13.66,18.25,19.71,27.86,14,52Z"/>
  <path class="st49" d="M449.65,947.65c-18.77,17.24-39.43-17.53-17.06-26.56,17.69-7.14,28.99,15.59,17.06,26.56Z"/>
  <path class="st38" d="M302,324c-6.17,15.78-8.68,33.11-6,50-.42,2-2.54-1.04-3-1.5-4.83-4.83-16.79-17.02-19.99-22.22-.89-1.44-3.35-7.23-3.05-8.77.18-.94,1.89-.2,2.64-.85.92-.79,3.34-4.26,3.59-4.39.43-.22,1.7.7,2.71.21,7.96-3.92,15-9.41,23.09-12.48Z"/>
  <path class="st3" d="M341,555c-14.06,24.04-38.72,79.28-35.99,106.49,2.44,24.31,27.33,34.15,46.99,20.51.25,4.73,10.3,9.57,11.56,12,1.04,2.02-.87,3.79.44,5-1.67.46-9.85,7.44-12.47,9.03-19.92,12.06-39.74,19.07-60.84,4.79-28.95-19.6-23.87-46.7-13.96-75.59,1.86-5.41,7.28-15.1,8.27-19.23l18.99,6,10.15-67.87c8.89-1.43,17.86-1.2,26.86-1.14Z"/>
  <path class="st58" d="M563,430c2.01-1.66-4.18-1.92-1.01-3.51,4.39-2.19,12.31-.13,17.01-3.49,65.1,21.24,92.37-67.79,47.03-92.53-23.91-13.05-55.45.85-59.03,28.53-1.27,4.29-4.19,4.78-8.75,1.46-2.97,1.2-4.06-1.29-3.25-7.46,9.06-56.06,78.9-57.58,101.54-10.04,29.2,61.32-32.88,122.48-93.54,87.04Z"/>
  <path class="st15" d="M559,388c-3.21-8.83-2.3-11.16,7.89-10.69,1.15,3.01,2.52,5.57,4.11,7.69,10.56,11.65,17.71,19.68,35.55,13.05,19.79-7.36,18.34-41.1,2.91-44-7.33-1.37-9.17.47-14.45,3.95-2.37,3.99-4.16,4.37-5.37,1.12-9.35,3.98-9.52.01-5.81-7.54l.18-1.59c14.47-22.76,48.56-9.18,50.98,17.52,4.62,50.93-56.13,61.25-75.98,20.48Z"/>
  <path class="st62" d="M584,350c2.44,1.8-4.26,8.41-.47,9.01.44.07,7.62-3.02,8.47-2.02.46.54-.97,3.33.99,3.01.62-4.02,1.85-1.89,2.01-1.99-1.57,3.46-4.21,12.47.7,13.85s5.02-4.83,6.47-5.67c6.5-3.74,11.13,15.96,1.03,19.48-21.83,7.61-28.68-20.76-19.2-35.67Z"/>
  <path class="st27" d="M555,353l1.01,7,1.45-1.98c3.04.68,7.7,5.61,8.45.38l1.1.61c-1.09,8.4.67,18.25,4,26-.05-.05-.74,1.06-1.45.1-1.19-1.59-1.38-4.86-2.53-5.68-1.04-.74-8.23-.13-8.94,2.23s3.2,4.72.92,6.34c-6.08-12.48-6.21-21.31-4-35Z"/>
  <path class="st11" d="M326,402l-5.93-9.17c-3.23-4.97.49-5.98,5.16-5.5,1.24-4.3,4.21-7.14,7.76-3.33,14.77,29.93,56.76,31.67,80.01,10.51,17.75-16.16,25.54-48.87,11.42-69.44-24.03-34.99-81.75,1.54-67.47,41.46,7.4,20.67,38.4,18.73,47.21.14,4.02-8.48,4.8-26.39-7.67-26.77-5.25-.16-15.95,3.28-15.6,9.58.5,9.03,12.19,1.56,13.09,2.51.9,22.14-29.47,24.24-25.91-2.42,4.03-30.12,51.91-36.37,50.93,1.87-.54,21.03-13.04,38.46-33.81,43.24-36.25,8.35-50.78-26.62-40.93-56.93,18.74-57.62,100.23-62.32,104.76,5.68,2.16,32.36-14.54,58.07-43.68,71.4-22.98,10.51-64.45,11-79.36-12.86Z"/>
  <path class="st13" d="M473,322c-2.7,3.29.54,8.03.89,11.6.44,4.43.94,17.06-.05,20.77-.5,1.89-9.47.99-9.85.63-.4-.38.31-9.22,0-11l-1.99,3.99c-.43-82.9-94.72-89.78-128-19-2.93,6.57-5.95,7.06-9.06,1.47-7.35.87-9.64-1.01-6.87-5.64l-.07-1.83c28.9-68.73,136.99-80.6,155-1Z"/>
  <path class="st27" d="M318,323c2.23.87-.46,4.37,0,4.99.81,1.12,5.88-.13,7.74.64,1.22.5,3.19,4.48,4.77,4.35,1.33-.11,1.62-5.97,3.49-3.98-7.47,15.89-8.91,38.97-1,55-.59,1.39-2.26-.29-3.75.22-1.29.44-1.92,4.21-2.81,4.73-2.32,1.34-4.78-1.07-6.44,1.58-.15.74,5.05,9.95,6,11.48-19.82-21.78-18.88-53.12-8-79Z"/>
  <path class="st51" d="M589.64,686.64c-2.91,3-9.83,6.49-14.1,6.4-29.86-.68-33.7-48.42-41.53-69.55-29.84-80.6-102.41-77.45-148.25-12.21-11.61,16.53-25.47,51.99-42.45,60.55-21.24,10.71-25.85-7.87-23.07-25.06,7.26-44.8,42.93-110.94,76.73-141.27,100.64-90.31,179.95,6.62,197.72,108.31,3.32,18.97,9.55,57.77-5.07,72.85Z"/>
  <path class="st26" d="M500,677c1.16,1.86,3.45,14.88,5.27,19.23,3.41,8.18,9.81,18.12,16.73,23.77-2.7,1.4-7.18,6.81-10.67,8.83-5.7,3.29-14.73,5.11-20.27.62-8.5-6.89-18.49-43.29-23.57-55.43-1.11-2.65-8.67-19.7-10.01-20.02l-55.52,57.54c-3.37,1.51-9.26-3.49-10.96-6.54,3.87-5.36,7.51-11.06,10.54-16.96,2.14-4.16,6.52-17.64,8.46-20.04l.38-2.14c2.79-1.07,5.04-3.19,6.75-6.34,13.05-30.41,48.22-57.46,68.25-16.09,3.21,10.41,7.3,20.35,12.25,29.83,1.85.99,2.64,2.23,2.37,3.74Z"/>
  <path class="st16" d="M410,668c-6.46-1.5-3.71-9.31-2.51-14.01,3.65-14.32,19.18-33.7,31.84-41.16,37.42-22.06,63.23,17.36,66.56,50.77.47,4.73.22,13.24-5.89,13.4-.21-.34-2.7-1.02-3.51-1.97-5.89-6.91-9.6-24.56-14.31-33.71-13.13-25.56-36.65-19.36-52.02.36-6.07,7.79-9.41,18.99-16.83,25.21-.98.82-3.23.98-3.34,1.12Z"/>
</svg>