<?xml version="1.0" encoding="UTF-8"?>
<svg id="Layer_1" xmlns="http://www.w3.org/2000/svg" version="1.1" viewBox="0 0 1024 1536">
  <!-- Generator: Adobe Illustrator 29.5.1, SVG Export Plug-In . SVG Version: 2.1.0 Build 141)  -->
  <defs>
    <style>
      .st0 {
        fill: #d09106;
      }

      .st1 {
        fill: #d29306;
      }

      .st2 {
        fill: #cb6604;
      }

      .st3 {
        fill: #c73219;
      }

      .st4 {
        fill: #d29209;
      }

      .st5 {
        fill: #bf4254;
      }

      .st6 {
        fill: #25967a;
      }

      .st7 {
        fill: #ca6a04;
      }

      .st8 {
        fill: #c72e19;
      }

      .st9 {
        fill: #c14154;
      }

      .st10 {
        fill: #c24153;
      }

      .st11 {
        fill: #cc6e03;
      }

      .st12 {
        fill: #23967a;
      }

      .st13 {
        fill: #cc6f04;
      }

      .st14 {
        fill: #229479;
      }

      .st15 {
        fill: #cb6f03;
      }

      .st16 {
        fill: #0d3004;
      }

      .st17 {
        fill: #c33319;
      }

      .st18 {
        fill: #269c7f;
      }

      .st19 {
        fill: #c53914;
      }

      .st20 {
        fill: #c72f19;
      }

      .st21 {
        fill: #858e07;
      }

      .st22 {
        fill: #0f3105;
      }

      .st23 {
        fill: #c14253;
      }

      .st24 {
        fill: #c24252;
      }

      .st25 {
        fill: #858d08;
      }

      .st26 {
        fill: #23977b;
      }

      .st27 {
        fill: #d29206;
      }

      .st28 {
        fill: #868d08;
      }

      .st29 {
        fill: #c63318;
      }

      .st30 {
        fill: #c96805;
      }

      .st31 {
        fill: #5c4e72;
      }

      .st32 {
        fill: #c63119;
      }

      .st33 {
        fill: #cc6504;
      }

      .st34 {
        fill: #c62f18;
      }

      .st35 {
        fill: #25977c;
      }

      .st36 {
        fill: #c53018;
      }

      .st37 {
        fill: #239579;
      }

      .st38 {
        fill: #bf4151;
      }

      .st39 {
        fill: #878e07;
      }

      .st40 {
        fill: #b54356;
      }

      .st41 {
        fill: #bf4454;
      }

      .st42 {
        fill: #d29207;
      }

      .st43 {
        fill: #0d3105;
      }

      .st44 {
        fill: #c63218;
      }

      .st45 {
        fill: #219679;
      }

      .st46 {
        fill: #0e3005;
      }

      .st47 {
        fill: #cb6403;
      }

      .st48 {
        fill: #24977c;
      }

      .st49 {
        fill: #898f08;
      }

      .st50 {
        fill: #d29308;
      }

      .st51 {
        fill: #49205e;
      }

      .st52 {
        fill: #c14053;
      }

      .st53 {
        fill: #d29208;
      }

      .st54 {
        fill: #cb6003;
      }

      .st55 {
        fill: #22977c;
      }

      .st56 {
        fill: #868e07;
      }

      .st57 {
        fill: #bf4354;
      }

      .st58 {
        fill: #cc6f03;
      }

      .st59 {
        fill: #8c8e09;
      }

      .st60 {
        fill: #d19207;
      }

      .st61 {
        fill: #d39409;
      }

      .st62 {
        fill: #d29305;
      }

      .st63 {
        fill: #d39306;
      }

      .st64 {
        fill: #d29409;
      }

      .st65 {
        fill: #838c07;
      }

      .st66 {
        fill: #c62f1a;
      }

      .st67 {
        fill: #d09307;
      }

      .st68 {
        fill: #cb6404;
      }

      .st69 {
        fill: #cb6704;
      }

      .st70 {
        fill: #22957a;
      }

      .st71 {
        fill: #cc6703;
      }

      .st72 {
        fill: #c7301a;
      }

      .st73 {
        fill: #d09007;
      }

      .st74 {
        fill: #c14153;
      }

      .st75 {
        fill: #c04253;
      }

      .st76 {
        fill: #c04250;
      }

      .st77 {
        fill: #0e2f04;
      }

      .st78 {
        fill: #26977d;
      }

      .st79 {
        fill: #c14156;
      }

      .st80 {
        fill: #c24154;
      }

      .st81 {
        fill: #23997b;
      }

      .st82 {
        fill: #c04455;
      }

      .st83 {
        fill: #5b4f74;
      }

      .st84 {
        fill: #c63018;
      }

      .st85 {
        fill: #848e07;
      }

      .st86 {
        fill: #858d07;
      }

      .st87 {
        fill: #27977d;
      }
    </style>
  </defs>
  <path class="st43" d="M770.49,710.59c15.43,19.5,36.75,33.52,58.1,42.47,24.84,10.42,51.52,15.92,74.7,31.36,37.46,24.94,59.56,70.76,52.48,121.85-3.21,23.14-16.92,51.6-10.98,74.79,5.35,20.87,34.9,31.34,23.29,57.09-9.68,21.48-37.98,19.01-53.85,9.3-60.18-36.85-15.27-125.29-60.27-169.55-19.36-19.04-43.71-16.7-67.09-11.52l26.22,13.37c33.41,19.83,54.46,61.84,52.36,106-1.71,35.87-24.51,84.98-10.77,118.62,8.78,21.49,35.28,32.27,52.62,18.46,12.37-9.85,18.66-30.34,36.42-17.93,19.84,13.87,6.47,46-4.23,61.98-39.02,58.22-123.96,49.85-158.96-8.95-31.4-52.75-1.8-116.74-47.12-167.06-22.48-24.96-46.71-27.24-73.43-40.5-4.42-2.2-8.37-5.31-12.8-7.36.16,4.43-.27,8.95,0,13.38,3.61,57.76,44.12,74.84,69.66,116.43,40.72,66.32,21.77,139.19-33.75,182.27-10.12,7.85-33.8,18.49-38.31,30.52-3.47,9.27,1.21,18.84.21,29.61-1.75,18.73-20.76,23.97-34.08,19.42-16.19-5.53-29.91-32.18-29.28-51.38,2.23-68.3,99.81-72.19,65.4-153.04-19.43-45.66-67.43-56.86-79.68-113.65-5.24-24.29-2.02-50.2-9.94-73.92-14.93-44.71-56.66-23.42-45.52,26.45,8.52,38.16,40.44,63.67,57.6,96.07,13.26,25.03,19.14,55.41,11.12,84.07-22.1,78.92-97.89,63.25-142.42,110.47-8.86,9.4-23,33.76-2.19,35.7,13.41,1.25,20.18-9.5,31.07-15.96,44.12-26.22,53.23,31.44,26.82,62.02-55.58,64.32-163.95,23.75-157.81-74.82,2.61-41.97,26.16-60.2,45.85-89.37,47.96-71.1-33.07-97.61-64.92-141.05-19.31-26.33-28.5-57.28-21.28-91.95l-8.2,14.02c-26.46,61.23,13.99,89.53,21.19,142.53,12.52,92.23-61.34,165.17-137.45,146.76-37.11-8.98-76.76-58.94-46.87-100.89,12.2-17.12,40.26-18.77,50.68.66,6.11,11.42-9.21,29.14,4.47,31.8,25.59,4.97,46.1-29.73,37.8-56.99s-34.6-39.62-42.46-72.91c-13.86-58.66,14.05-97.8,29.65-148.46,4.18-13.57,9.4-40.82-8.66-43.39-33.05-4.7-54.94,36.76-56.22,70.91-.91,24.27,9.18,46.67,11.86,70.37,5.49,48.4-5.95,97.95-43.2,124.11-19.6,13.77-62.29,29.4-59.31-14.48,1.16-17,13.82-30.29,18.78-45.7,11.24-34.85-15.95-38.61-29.48-61.74-30.34-51.84-6.96-120.71,21.17-166.34,33.14-53.76,85.72-82.98,119.87-135.57,10.31-15.89,34.68-56.7,22.49-75.85-11.02-17.34-34.39-.05-44.77,10.22-29.62,29.31-54.92,94.8-97.63,99.03-47.1,4.65-53.44-50.3-38.22-90.7,30.22-80.26,114.04-103.31,150.94-175.85,17.99-35.36,24.78-76.45,37.58-114.38,45.34-134.34,154.68-247.79,274.33-284.33,141.85-43.31,248.66,74.38,289.72,222.71,15.67,56.58,13.98,100.47,16.36,158.35,2.67,64.82,27.09,152.37,97.97,123.58,27.78-11.28,41.2-24.48,73.91-20.76,49.55,5.63,63.52,80.14,18.25,106.88-26.46,15.63-47.14,2.63-73.88,5.5-25.69,2.76-41.54,28.85-62.73,41.54-22.8,13.66-49.06,16.15-73.17,5.71v-.03Z"/>
  <path class="st45" d="M761.76,316l-1.06,2.57c-25.27,8.76-16.7,46.37,7.29,49.6l1.41,2.75c4.35,53.02-2.77,116.32,18.55,164.73l-.05,3.37c-28.97,35.27-6.4,82.62,34.01,66.61,19.32-3.82,36.01,17.42,24.99,38.64-2.38,4.6-8.61,13.94-13.12,11.42-2.71,3.41-12.9,5.44-17.15,5.15-12.8-.91-20.87-5.07-30.87-14.19l-20.77-23.61c-11.67-15.74-34.94-20.12-38.14,5.57-.33,7.32-.7,14.65-1.14,21.98,5.11,53.29,46.55,96.32,86.59,116.42,39.29,19.73,79.67,18.44,109.35,61.05,22.92,32.92,18.41,62.1,10.36,99.61l-2.89.69c-21.48-16.56-26.25-38.18-22.22-66.58-.23-24.82-24.35-58.48-47.07-50.35-22.18,12.55-34.28,17.21-50.36-8.61-13.76-30.21-26.51-49.38-57.28-34.62-17.87,4.9-27.13-14.93-29.5-32.98-1.8-21.47-6.53-63.57-32.85-55.45-15.63,4.83-18.48,24.2-5.72,35.69,17.92,12.23,19.88,28.97,19.11,51.73.22,11.49,4.21,20.58,10.7,28.88l-1.29,2.63c.86,4.23-1.14,8.56-1.08,12.13.15,11.42,5.81,25.22,12,33.84-.29,3.64-2.37,3.49-3.27,0-5.27,2.64-17.16-4.09-21.89-8.33-3.78-2.08-5.58-4.84-5.39-8.27-.52.26-1.06.47-1.6.57-3.02.54-24.32-31.6-25.62-37.49l-.07-7.78-1.72-3.03c3.24-25.79,2.86-52.62-1.41-78.28-1.77-10.61-6.79-30.02-14.33-12.21,4.11,28.88,4.35,57.5.74,85.84l-1.83,2.57c-6.84-.57-15.88-7.76-21.76-12.86-4.46-2.44-7.04-5.82-7.71-10.13l-1.7-3.79c2-19.1.75-38.49-1.17-57.53l1.78-3.81,1.98-2.18c40.44-.28,31.18-70.86-9.33-46.42l-2.47-1.2c-.8-.82-1.57-1.67-2.23-2.63s-1.21-1.85-1.56-2.9c-4.81-14.52-9.63-29.11-14.42-43.65-.34-1.03-.45-2.17-.5-3.35s.02-2.44.14-3.66l2.29-1.88c24.37,15.2,44.71-21.82,25.56-42.24-14.87-15.86-36.94-2.35-35.73,20.51l-1.94,1.89-3.57-.82c-50.48-100.3-148.21-103.69-211.11-16.87l-4.72,2.36-2.27-.49-7.35-58.94,1.98-1.86,4.02-2.41c51.47.75,97.36-39.27,116.94-93.93l3.47-3.27c2.61-5.3,19.61-28.85,23.2-29.77s13.37,8.27,13.91,13.17l2.34,2.66c2.15,22.59,8.64,45.03,19.73,63.77l-.25,3.81c2.15,2.91-1.39,7.96-4.37,6.38l-1.47.43c-16.71-34.55-14.51-5.34-4.37,10.15,27.42,41.86,68.88,54.18,112.16,42.94l3.92,1.38,2.71.52c12.84,34.27,50.34,7.47,36.73-22.97l.95-3.09,1.44-4.9c33.54-36.53,45.49-95.25,30.6-145.78l.7-5.12,1.24-3.91c11.86-11.38,22.63-24.33,32.27-38.84l3.58-.66c4.01,12.91,7.99,26.28,10.91,39.59l.04.04Z"/>
  <path class="st47" d="M545.65,877.86c2.79,4.52,2.93,10.38.39,17.62,2.85,1.67,4.06,4.07.7,5.36-37.37-14.52-59.4,28.57-53.48,67.68l-.41,3.69c-9.58,10.27-.41,23.3,8.91,28.16l3.51,3.92c2.73,5.41,10.45,16.28,14.19,21.71l-.6,2.98c-10.87,3.35-17.66,5.84-20.07,20.19-4.88,29.13,37.08,40.58,40.1,8.1l2.4-1.89c14.46,21.63,25.11,38.96,25.1,67.68l-2.69-.74c-9.45-22.61-41.87-11.91-39.98,13.08.86,11.43,19.17,25.19,26.96,30.88l.43,2.76c-10.88,13.94-21.33,19.83-36.02,26.82-3.26.92-6.01.93-8.25.04-4.75-7.81-10.14-14.91-16.19-21.27l.43-3.03-.51-3.51c23.3-48.56,1.8-91.21-28.88-126.47l-.08-4.1-1.04-2.99c9.58-19.58-1.14-48.46-22.53-37.76l-2.63-1.39c-7.85-7.16-11.34-23.64-13.38-35.27-5.21-29.64-.25-57.48,5.36-85.72,4.5-33.9-21.91,21.33-18.85,31.29l-2.6,2.89-2.37,5.38c-9.56,9.5-14.48,27.08-.45,34.46l1.71,3.59c3.7,3.45,5.54,15.6,3.27,20.43.08,3.05-.21,6.05-.85,9-3.72.86-7.44,1.69-11.15,2.49l-2.04,1.85c-5.16-1.43-10.62-2.86-15.46.42-21.03,21.54-45.96-5.49-27.31-30.54,19.93-18.53,28.29-40.68,9.75-65.74l.13-3.04-2.98-.52c-7.83-14.37-18.37-26-31.61-34.92-7.12-6.78-12.33-11.95-5.8-20.75l.48-3.05c6.18-3.41,12.16-7.42,17.75-12.02l2.5,1.01c2.72,1.81,6.04,1.99,9.98.51,9.56,9.37,18.36,20.06,26.38,32.08,4.68,6.15,10.21,4.85,16.56-3.89l19.49-24.36c15.16-21.27,35.17-11.61,43.71,11.31l15.35,32.2c11.18,18.61,20.64,9.22,31.96-2.66,11.57-9.42,24.36-11.12,35.12.83,2.65,2.94,8.87,11.75,5.56,15.29l.02-.03Z"/>
  <path class="st78" d="M610.05,93.81c34.16,14.23,61.94,41.07,86.26,72.11,4.87,6.22,10.16,14.05,14.16,21.11l-2.02,1.52c-19.4-14.75-38.93-29.06-58.6-42.97l-17.92,68.25c-.76,2.15-2.08,2.55-3.95,2.62-6.77.23-42.57-33.24-46.81-37.73l-2.76-5.73-2.02-1.65c3.1-8.06-.73-14.81-6.21-6.44l-2.69.42-1.92,2.26c-3.86-.88-7.13-1.46-10.15,1.9l-31.77,57.21c-1.18,2.07-2.99,2.13-4.75.98l-44.19-47.43v-3.45l-2.01-1.65c.69-4.84-.11-30.79-7.19-21.21-2.73,37.3-27.46,56.65-57.41,60.54l-3.24-1.93-4.17-.97-24.35-25.86c-12,14.19-23.53,28.94-34.59,44.23l-12.19,10.7c1.59,4.05-4.68,8.08-7.64,6.38l-3.03,1.42c-6.23-6.7-11.89-14.51-16.26-23.07l.74-3.87c29.49-37.93,48.23-56.36,86.23-83l4.38,1.42c8.26,7.11,17.88,16.79,24.47,25.56,8.92-18.44,16.91-37.49,23.97-57.17l3.94-4.28c3.6-1.72,7.26-3.55,10.91-5.11,17.4,16.77,34.96,33.43,52.68,49.99,6.79-17.28,13.22-34.86,19.29-52.75,5.27-13.82,7.81-18.98,19.69-8.85,16.22,16.17,32.69,31.54,49.4,46.1l9.3-38.83,2.44-.77v-.03Z"/>
  <path class="st10" d="M693,828.06l.44,2.82c-19.32,40.52,10.47,80.64,46.68,85.93,34.76,4.39,61.77,8.45,64.63,57.51.49,8.4-.75,16.83-2.5,24.94-13.2,39.76-21.13,81.39,15.76,106.52,18.02,14.88,16.38,44.83,14.55,68.2l-2.03,3.95c-65.62-30-39.89-105.53-62.21-166,.53-2.31,2.24-4.09,5.11-5.31,25.94-33.63-7.08-56.34-34.87-39.6l-2.97-1.06c-23.96-19.58-45.26-23.09-71.23-34.78-1.78-.8-12.14-6.07-12.81-6.7-4.72-4.53,8.93-27.91,4.09-33.53-4.1-4.78-10.24,3.09-12.8,6.73-17.33,24.72-16.14,70.85-5.48,98.94-2.03,4.88-8.07,1.16-11.32-.91-6.75-4.28-14.65-13.11-14.91-22.61,3.43-22.6,6.08-49.98-18.3-56.02-6.14-1.52-15.41,2.43-19.29,8.26l-2.76,1.05c-5.04-10.52-14.01-21.66-24.01-25.54.91-4.11-2.88-2.06-3.27-2.55-.6-.77,3.6-14.01,2.18-20.43l2.25-1.99c15.38,18.43,34.02,8.84,40.91-13.5l2.69-1.11,3.06-2.71c34.28-2.5,60.51-34.38,68.36-72.28l2.81-2.91c1.6,7.61,5.12,13.23,8.94,19.55,4.51,7.5,12.68,19,18.35,25.14h-.01Z"/>
  <path class="st87" d="M296.8,428.37c-1.56,2.22-3.74,3.92-6.55,5.11l-2.2,1.12c-10.02-10.15-7.07,2.68-3.19,9.49,4.31,7.55,10.17,13.85,16.25,19.38l.05,3.21,2.75,4.69,6.88,58.56c.27,2.45-1.03,3.89-2.99,4.42h-58.37c-2.04,25.1-3.93,50.64-5.65,76.59-2.39,3.09-26.98,1.4-29.93-3.79-3.44-1.52-7.54-6.26-12.02-8.29-32.53-14.72-63.95,27.7-82.94,52.98l-2.23,1.26c-8.15-11.13-17.14-20.11-26.96-26.91-10.35,2.59-19.8,9.17-28.37,19.73-5.82,5.2-19.38,11.16-23.22,2.08,12.03-30.49,33.67-50.96,55.66-71.51l3.63-.06c9.71,11.54,20.1,21.73,31.18,30.58,4.26-18.23,7.56-36.95,9.92-56.15.84-4.1,2.26-9.58,6.7-8.17l66.57,26.45c-4.57-24.91-10.27-49.55-17.09-73.88.14-5.84,4.4-8.21,12.78-7.15,17.41,1.51,34.92,2.43,52.52,2.76l-29.84-61.86c-1.02-2.12-.38-3.96,1.21-5.39l46.93-26.27,2.11,1.65,2.58.55c3.74,9.28,8.38,18.26,14.32,25.85l-.52,2.98h.01Z"/>
  <path class="st45" d="M361.19,886.8c.34.55,1.84,1.19,2.64,2.59,9.82,17.3,14.94,32.27,3.29,50.95-7.16,11.48-24.12,20.87-19.61,38.45.57,2.23,4.86,8.81,6.58,10.16,11.9,9.28,19.95-6.55,29.8-7.41,2.7-.23,9.8,1,12.24,2.3,3.92-3.63,9.09,7.7,10.53,12.02,2.32,6.96,3.22,11.88,1.59,19.51.48,14.08,12.93,23.14,23.64,15.8l2.43,1.2c1.75.75,3.59,1.56,4.89,3.17,5.63,6.93,28.28,36,29.61,41.9.25,1.11.36,2.29.41,3.46,2.28,9.54.51,24.44-2.14,34.08-1.8,6.58-4.85,17.44-10.96,18.27l.27,2.2c-6.34,7.21-13.16,13.82-20.49,19.81l20.34,25.12c.72,1.83.21,3.44-.95,4.83l-28.8,20.37c4.57,7.1,10.12,13.97,16.63,20.58,1.1,1.14.65,2.64-.11,4.16-13.18,9.44-19.35,19.55-29.47,31.92-3.14.86-6.1-.93-8.86-5.35l-13.82-17.74-.24-3.73c-2.18-2.27-1.81-3.12,1.09-2.55l.44-2.46c7.97-9.14,16.59-17.98,25.23-25.83-5.66-6.64-11.22-13.41-16.68-20.3l.83-3.74c25.65-44.53,9.29-84.27-24.01-113.65l.55-3.03c26.86-20.81-12.22-54.95-22.09-17.16l-2.47,1.05c-8.83-7.83-14.76-12.88-21.83-22.99l-1.08-4.14c2.61-10.57.31-27.95-12.16-24.54l-2.04-1.98c-5.89-17.33-6.94-25.51-4.37-44.69l1.36-2.77c15.86-2.69,29.86-19.17,18.76-37.31l.61-3.33c1.54-5.26,23.75-21.59,26.11-21.18l2.27,2.03v-.03Z"/>
  <path class="st20" d="M277.15,257.26c.43-.5.87-.96,1.39-1.25,2.93-1.72,16.7,19.65,16.08,24.24-.5,5.63-2.6,11.26-6.3,16.89-1.76,6.14-4.39,10.74-7.89,13.75-7.12,7.97-17.99,15.44-27.46,18.71-.29.2-4.82,5.07-5.01,5.41-2.55,4.69,19.8,31.04,23.39,35.07.77,2.25,1.62,3.79,2.53,4.66l2.39,1.11c1.32,7.05,3.41,13.91,5.64,20.64l-1.48,2.52-49.01,27.43,32.63,67.05c-6.72-.22-13.51.32-20.24.06-8.57-.33-18.64-2.36-27.2-2.66-3.48-.11-19.55-1.05-20.18,2.06,2.06,9.77,20.41,75.71,17.4,79.72l-70.28-27.93c-3.5.93-5.5,25.5-6.44,30.75-.68,3.83-5.34,33.99-6.82,34.27-3,.55-7.78-3.69-10.23-5.91-8.68-7.84-16.94-19.84-26.28-27.35,29.12-27.2,62.27-48.41,84.28-84.64,28.54-46.98,36.36-105.49,56.67-157.17,11.34-28.87,26.05-52.52,42.41-77.43h0Z"/>
  <path class="st68" d="M262.96,828.06l.36,3.04c-5.2,4.1-3.48,9.33,5.13,15.72l6.59,11.65c17.37,11.63,28.91,29.37,2.04,38.1-9.02,1.34-53.44,10.42-48,26.56,5.88,6.22,12.19,13.41,17.34,20.64,15.7,22.03,10.84,28.55-10.25,37.79-9.5,1.71-40.21,14.48-22.29,27.11l17.82,10.32c21.07,14.48,27.64,47.87,22.89,74.4.28,16.38,21.34,46.15,33.57,53.9l.99,2.58c-4.85,20.04-16.36,42.65-31.65,53.63-.49-.79-.96-1.65-1.03-2.63-.5-7.56-1.15-16.59-2.88-24.71-2.55-11.91-5.72-22.77-16.67-27.01l-1.24-3.12c2.65-20.78-3.31-42.96-15.28-58.74l-1.47-3.17c5.24-21.17-6.73-39.94-25.04-42.54l-1.87-2.82c-14.32-72.51,40.46-113.3,33.75-172.92-.55-4.81-4.09-10.96-4.28-14.79-3.02-4.52-.69-6.68,2.73-9.36l-13.38-19.83c-.52-1.32-1.3-6.22-.98-7.46.52-2.04,17.17-22.22,19.85-25.05l2.68.41,2.64.47c6.83,13.7,16.43,25.86,27.69,34.73l.24,3.1h-.02Z"/>
  <path class="st56" d="M932.03,927.66c-.74,3.46-5.15,31.83-6.55,31.92-.72,2.85-.83,7.38-.32,13.61-1.74,3.93-8.88,1.4-9.51-3.4l-2.6-1.57-7.12-19.18c-5.4-1.69-9.08-4.56-11.03-8.62-1.02-18.68-5.84-43.98-14.19-60.02-1.43-16.12-4.35-32.5-21.12-33-4.54,1.17-8.78.68-12.72-1.48-7.31-.45-15.55-4.52-23.42-5.16-12.78-1.03-24.19,2.27-36.61,3.88-1.24-1.57-1.81-4.05-1.7-7.43-1.91-7.05-8.78-29.32-12.33-34.68-6.7-10.09-29.33-3.63-38.17,1.33-5.38,2.38-8.71,1.49-10-2.64-.86-10.1-7.27-9.04-12.01-2.55-.38-1.85-5.72-8.36-7.13-11.45-8.61-18.86-1.12-37.53-8.3-54.14-3-6.96-14.35-13.47-19.5-21.87-14.06-22.99,12.84-44.64,30.24-30.28,20.1,16.57,10.79,54.21,23.84,75.54,12.05,19.7,26.23,3.69,42.37,4.05,31.88.72,31.49,60.3,61.08,58.51,13.2-.8,20.76-13.66,36.23-11.42,13.98,2.03,32.25,25.41,35.99,40.89,3.57,14.76.1,25.26.49,38.99.5,17.12,12.98,30.86,24.07,40.2v-.03Z"/>
  <path class="st60" d="M720.28,844.66l1.83,1.92c-6.28,27.7,14.7,44.4,35.94,39.15,1.95-.49,6.42-1.66,7.9-2.62-1.93-2.78-1.48-5.75,1.26-3.97,17.42,6.81,33.14,14.02,48.02,26.82l.93,3.7c-10.86,26.91,5.64,49.7,28.79,53.4l1.92,2.91c1.84,14.16,1.03,21.91-1.09,35.75l-2.27,1.75c-30.04-3.32-38.59,46.38-10.55,60.26l.82,3.12c-2.48,33.24,8.04,69.45,38.2,79.17l.86,3.1c-5.88,10.34-9.74,23.62-2.53,34.45l-.51,3.31c-13.53.29-26.8-3.22-39.29-8.94-.74-13.42,1.02-28.22-.02-41.48-2.39-30.65-26.84-31.49-36.55-55.56-17.81-44.14,14.64-73.78,7.69-114.99-8.93-52.96-42.43-37.5-75.67-50.66-17.21-6.81-36.3-23.62-39.41-45.83-1.54-10.97-2.15-34.61,6.43-41.36,8.79,9.5,16.16,12.25,27.29,16.6h.02Z"/>
  <path class="st74" d="M320.81,830.61l1.1,6.38-3.29.64c7.05,12.8,19.3,18.77,28.39,28.08,6.64,6.82,9.53,13.46,14.18,21.08-1.88.26-3.48,1.25-5.1,2.32-7.84,5.18-15.55,11.42-23.28,16.83,1.02,3.75-3.44,5.32-5.46,2.55-2.07-18.9-22.07-2.75-28.89,3.87-18.35,17.76-34.65,49.12-36.57,77.24-2,29.18,6.68,49.28,16.35,74.68l.35,4.9c-6.2,17.89-1.34,36.95,12.09,48.1l1.75,4.46c.05,10.91-.75,17.66-3.27,28.09-2.03.09-3.8-.56-5.46-1.94-9.09-7.6-25.86-33.16-30-45.31-3.47-10.14,1.31-25.83.5-36.24-.31-3.88-7.98-26.78-9.97-30.6-8.7-16.78-22.29-16.7-33.81-26.84-8.18-7.2-4.52-12.83,2.41-19.24,8.56-7.92,14.36-7.16,23.44-10.88,6.51-2.66,18.59-8.27,17.49-18-.84-7.38-17.78-25.6-22.82-32.72-2.44-3.44-5.15-1.53-3.75-9.7,2.36-13.83,25.89-18.4,36.18-21.54,9.45-2.87,23.87-1.52,27.54-15.13,2.25-8.35-14.01-17.21-17.61-21.7-2.02-2.53-3.98-8.07-6.51-11.54-5.94-8.2-14.81-9.42-3.83-20.42l3.48-.79c15.89,8.4,34.53,8.93,50.97,2.18l3.39,1.16h0Z"/>
  <path class="st68" d="M637.33,996.62c3.92,10.33,13.06,26.1,19.65,34.48,5.97,16.98,19.22,29.29,32.74,38.31,13.12,17.05,18.04,22.51,25.1,44.69-.73,16.56-8.73,33.89-16,48.2-17.31,14.93-16.61,41.19-10.19,62.89-6.95,7.67-12.64,13.71-21.1,19.37-17.93,11.99-37.44,14.37-39.89,43.99-.61,7.34,2.24,20.23.81,25.21-.81,2.81-4.31,2.22-6.4,2.09-10.53-6.84-11.26-26.46-8.58-39.11,2.31-10.94,13.41-32.36,21.55-38.6,15.62-5.61,23.92-22.68,28.51-39.76,7.28-14.93,8.94-31.49,7.64-48.52l1.08-4.12c14.76-13.42,11.53-38.79-4.92-47.98-16.23-6.72-31.86-17.16-32.82-39.53.92-13.54-1.43-24.16-7.05-31.9-10.45-2.94-20.37-7.21-29.78-12.83-3.82-2.98-12.63-12.21-7.28-16.24-.85-.11-2.12-.42-2.18-1.12-.27-3.22-.31-24.87.73-26.13.35-.43.88-.66,1.45-.84l-2.24-1.01c-2.77-6.08-6.02-11.91-9.77-17.51-1.38-7.32-4.5-17.72-7.64-24.26,1.72-7.42,12.64-11.85,18.51-12.18,10.45-.6,24.34,12.83,25.95,24.66,1.52,11.13-1.7,23.27-1.94,34.21-.24,10.94,15.11,25.02,24.06,23.56h0Z"/>
  <path class="st73" d="M351.37,485.84l7.64,61.29-.76,4.97c-11.57,16.14-22.1,33.35-31.48,51.33l-3.78,2.44-3.7,2.52c-7.91-.08-15.88-.13-23.7,1.21l-10.64,83.24c-.46,2.62-1.99,3.55-4.2,3.13-1.07.2-19.86-6.37-18.88-9.67-.85-.28-1.72-.83-1.93-1.89-2.29-11.21-7.04-7.38-11.97-.22l-2.47-.46-2.65,1.43c-9.19-4.84-18.49-8.72-27.91-11.65,2.99-7.44,8.58-26.71,8.73-34.48l1.21-2.3,39.13,10.56c2.94-27.74,6.09-55.43,9.46-83.08l.98-.79c20.89-.79,41.69-2.41,62.4-4.88-4.38-22.68-7.2-46.01-8.04-69.26-.04-1.19.23-2.39.55-3.63s.77-2.48,1.28-3.68c5.36-2.26,16.18-.15,20.74,3.83h0Z"/>
  <path class="st52" d="M330.63,482.01c1.22,26.2,3.34,52.39,8.71,77.84-3.11,5.02-55.94,4.32-64.42,5.76l-8.7,84.96-42.56-11.49c.23-11.76-4.29-22.58-9.82-31.92,2.59,1.14,27.37,3.74,28.39,2.57l4.35-77.91h62.21l-7.64-65.11c4.93.78,9.92,3.09,14.96,6.95,5.94,1.71,10.77,4.51,14.51,8.38h0Z"/>
  <path class="st50" d="M710.46,187.03c13.3,20.76,23.71,43.97,32.74,67.68l-1.99,1.58-66.6-46.61c-4.7,13.19-8.67,26.73-11.89,40.59l-2.48.59-3.34.91c-13.41-6.51-26.97-12.64-40.67-18.39-15.71-7.43-32.43-18.81-38.7-38.04-1.76-5.4-3.17-18.94.85-22.37,10.99,9.83,21.53,20.61,33.05,29.65,2.6,2.03,15.94,13.09,18.21,11.17l19.08-72.68,61.73,45.91h0Z"/>
  <path class="st2" d="M946.22,571.39c7.77,0,5.69,2.03.33,6.12-6,13.18-10.04,17.76-22.67,19.81-23.62-1.09-36.02-.79-42.1,29.71l-6.93,27.26-3.93,5.21c-7.48,5.36-14.51,12.09-21.83,17.88-.73.46-1.83,1.06-2.27.55-1.68-1.95-12.16-17.32-13.36-19.58l.35-2.68c12.99-9.28,20.96-27.45,7.68-41.55-12.97-13.79-29.15-.18-44-3.44-3.08-.68-11.95-6.18-14.45-8.63-17.04-16.77-11.11-51.77,4.91-66.4,11.47,26.04,36.98,57.28,63.06,60.94,37.43,5.24,60.35-20.39,95.2-25.18h0Z"/>
  <path class="st19" d="M139.63,868.92c-23.44,38.19-16.3,72.8-9.82,114.93,1.07,9.92-.81,12.12-8.4,16.34l-18.01,10.41,21.02,39.53c.61,2.21.72,3.98-1.11,5.16-21.84,9.58-47.13,25.19-45.04,56.84l-1.93,3.22c-3.02.54-9.15,4.12-10.34-2.39-1.48-8.12,16.69-37.29,19.92-48.33,7.38-25.19.02-40.01-15.04-56.54l-.76-2.67,42.48-46.9c-9.52-17.05-18.37-34.36-26.56-51.97,3.58-7.75,36.63-32.17,45.36-37.99l4.97-.93c1.08-3.45,3.47-2.32,3.27,1.28v.03Z"/>
  <path class="st9" d="M725.74,650.56c-.65-6.83-1.69-13.79-1.14-21.12,1.68-22.31,20.33-27.8,34.87-15.16,18.59,16.15,28.04,41.27,55.22,43.93,6.29.61,15.41-3.37,19.09-2.54,2.29.52,13.47,18.03,15.28,21.71-7.53,5.95-14.64,12.6-23.76,16.26-33.31,13.32-70.9-2.6-83.26-42.37-1.75-5.62-1.15-18.87-8.96-17.11-5.29,1.19-6.79,11.07-7.36,16.41h.01Z"/>
  <path class="st31" d="M55.58,898.29c-1.55-3.33-1.88-5.07,1.06-7.39,25.55-17.49,50.74-35.41,75.57-53.73,3.62.49,6.24,18.3,6.43,22.72.88,4.15.12,6.74-2.28,7.76-16.06,13.34-33.85,24.29-48.61,39.56l27.82,51.56-44.68,49.34c-7.18-7.89-11.38-10.69-17.46-20.43l1.54-4.71c9.86-10.99,19.26-22.4,28.25-34.21-10.41-14.67-19.56-30.28-27.41-46.79l-.2-3.68h-.02Z"/>
  <path class="st35" d="M232.4,789.75l-20.57,25.18.94,5.84,14.15,20.75c.83,2.75-5.74,2.52-5.41,9.51-9.82-12.26-20.4-18.41-35.19-16.27-4.08.59-16.88,5.13-20.48,7.33l-2.3.78c-12.96-17.62-25.92-35.24-38.89-52.88l.81-2.81c8.46-8.33,17.91-16.15,26.2-24.26l2.07-1.16,29.14,34.25,40.57-42.89,2.43.87,2.2,2.06c.46,10.5,2.34,20.97,5.62,30.75l-1.28,2.94v.03Z"/>
  <path class="st8" d="M610.05,93.81l-10.4,43.42c-1.47-.06-2.55-1.11-3.71-2-16.95-13.14-34.09-35.01-51.44-48.35-1.53-1.17-4.7-3.79-6.47-2.73-6.2,3.7-23.77,66.47-26.87,67.23-2.55.64-4.94-1.8-6.87-3.41-6.97-5.84-14.53-15.57-21.41-22.19-6.93-6.68-17.63-14.02-23.49-21.04-1.52-1.81-2.43-3.05-2.13-5.81,50.19-21.43,101.81-26.34,152.8-5.11h-.01Z"/>
  <path class="st80" d="M743.2,254.71c2.81,7.37,5.28,14.08,7.64,21.71-12.08,14.25-22.16,33.2-37.11,43.42l-3.61-3.55c-9.34-26.2-25.87-47.4-47.23-60.86l-2.65-4.55c1.84-5.94,10.82-43.81,13.75-44.59l69.2,48.42h.01Z"/>
  <path class="st40" d="M125.44,787.2l40.38,54.91c-7.04,4.32-21.48,19.14-26.2,26.82l-3.27-1.28c1.11-8.27-1.64-17.93-3.3-26.18-.31-1.52.81-2.31-1.6-1.92-20.99,20.8-48.4,33.09-70.75,51.32-2.23,1.83-6.05,3.56-5.13,7.42-1.65,2.31-3.09,2.96-4.37,0,13.04-44.59,41.27-80.03,71.49-109.87.93-.92,2.41-.92,2.73-1.23h.01Z"/>
  <path class="st42" d="M456.15,1133.25l2.61-2.16c7.4,5.82,14.6,12.02,21.61,18.61.44-4.62,4.3-7.97,4.16-2.4.85,1.2,1.26,2.58,1.35,4.11.38,5.87-7.78,21.9-11.2,27.11-.32,8.93,11.44-4.6,13.82-7.37l2.58.41,8.2,8.93c2.53,3.09,7.49,12.44,9.77,14.21,2.43,1.89,4.46-1.44,6.04,1.12-23.8,11.33-49.96,18.68-72.04,34.48-4.41-8.06-14.17-14.89-18.57-22.33-.64-1.09-1.52-1.26-1.07-3.19l31.63-22.36-22.88-28.09c7.52-7.42,17.35-12.09,23.98-21.07h.01Z"/>
  <path class="st23" d="M671.17,1149.85c-5.05-66.26-78.15-81.51-88.11-145.28-2.74-17.49-1.33-36.19-4.66-53.93,4.68,4.01,12.01,11.12,12.01,18.52v28.09c0,9.79,11.92,17.33,18.77,20.18,9.95,4.14,23.42,2.17,25.71,18.44,2.91,20.67-1.64,36.88,16.76,50.62,10.47,7.81,20.89,7.18,28.07,20.79,8.19,15.51,4.07,32.52-8.56,42.57h0Z"/>
  <path class="st76" d="M970.23,573.95c4.31,3.45,2.79,11.16,1.41,16.43-5.17,19.77-25.82,31.99-42.3,34.49-14.36-1.02-20.08-.46-23.77,17.32l-3,1.99c-9.32,1.99-23.47,9.46-31.65,15.32,4.39-13.1,6.93-28.3,11.13-41.25,2.78-8.57,7.99-20.94,16.76-22.53,11.23-2.03,31.29,3.15,39.78-8.36,3.48-4.72,5.09-14.56,11.98-14.72l-4.35-1.26c9.69-1.33,14.36-2.08,24.01,2.55h0Z"/>
  <path class="st0" d="M76.32,1115.37c-3.65-35.7,22.43-52.07,46.93-62.58l-22.8-42.79c.13-1.95,26.96-13.89,28.76-19.69.53-1.71-1.67-5.2.59-6.46,2.29,14.91,5.42,30.02,5.24,45.33-.51,41.04-22.8,79.9-58.72,86.19Z"/>
  <path class="st60" d="M230.22,724.63l1.74,2.25c-1.81,8.4-3.35,16.98-3.89,25.64l-2.23,1.48-43.32,45.8-30.9-36.87c6.55-6.41,15.98-15.96,21.83-22.99l2.31-.86c1.94,1.83,10.48,9.7,12.46,9.05,7.61-8.02,15.56-15.45,23.89-22.31,4.21-2.64,16.25-7.84,18.09-1.23h.01Z"/>
  <path class="st71" d="M902.56,644.18c2.19-5.91,4.51-18.09,10.11-20.74,4.63-2.18,10.6-.38,15.53-.98,20.09-2.44,46.8-20.78,42.04-48.5,23.59,11.33,28.01,44.5,7.09,62.57-21.83,18.85-50.69,2.5-74.76,7.66h-.01Z"/>
  <path class="st34" d="M118.89,651.84c-4.08,5.44-7.93,11.13-12.01,16.6l-2.27.7c-6.81-6.18-16.72-15.16-25.15-7.83-12.26,16.14-28.52,23.44-46.98,21.64l-.91-8.13c.51-11.26,2.64-16.92,6.55-26.82,21.75,10.7,33.01-25.88,51.82-24.34,8.54.7,21.5,22.27,28.95,28.17h-.01Z"/>
  <path class="st84" d="M245.5,683.76l1.16,2.57c-5.87,11.8-10.31,24.7-13.99,37.62l-2.44.68c-4.74-2.55-15.01,1.95-19.33,4.84s-20.52,21.38-22.7,21.53-12.85-8.22-14.72-11.05c13.17-15.83,33.4-46.29,41.48-66.4,1.84-1.61,3.39-1.28,5.48-.75,7.45,1.9,17.93,7.28,25.08,10.97h0Z"/>
  <path class="st69" d="M143.99,1179.22l2.61-.22c6.18,21.53,23.65,35.74,42.84,26.48,1.46-3.4,3.41-5.34,5.84-5.84,6.43-5.54,15.43-7.47,22.92-15.32,6.12.69,8.22,3.87,7.97,11.2,4.32,7.43,7.16,17.71,5.13,25.83-24.94,11.22-52.28,12-76.82-2.71-15.52-9.31-27.13-32.05-19.23-52.2,2.1-.54,3.12,1.33,3.1,5.57,3.58,2.38,5.47,4.78,5.63,7.2h.01Z"/>
  <path class="st45" d="M786.86,844.66c-20.07,2.59-42.16,2.67-56.24-17.84-7.47-10.88-5-14.11-5.97-25.58,7.47,4.2,15.52-4.18,22.34-5.15,3.78-.54,14.9-1.32,18.5-1.15,11.45.52,14.89,21.02,17.57,30.53,1.76,6.24,6.73,12.26,3.8,19.18h0Z"/>
  <path class="st33" d="M106.88,668.44c-8.1,10.85-13.79,20.98-24.1,29.91-24.85,21.48-53.19,20.21-51.21-23.52l1.1,6.38c3.82-2.5,8.4-.19,11.46-.63,5.33-.75,17.67-5.29,22.32-9,6.73-5.38,10.87-16.15,21.37-15.76,3.58.14,16.75,8.2,19.06,12.62Z"/>
  <path class="st29" d="M55.58,898.29c8.97,17.71,19.68,33.41,29.48,50.47-9.74,13.54-19.78,28.27-31.66,38.92-6.66-10.66-10.03-18.8-10.96-32.51-.84-12.51,1.66-47.35,8.78-56.88.13-.18,2.9-.09,2.73-2.57.4-.09,1.28,1.85,1.64,2.57Z"/>
  <path class="st24" d="M566.39,1123.03c0,19.14-4.26,31.85-15.28,45.97-2.14-.2-4.17-3.21-5.78-4.51-.5-.41-1.59.18-2.38-.52-5.84-5.13-20.2-18.4-21.2-26.36-3.73-30.12,34.75-42.74,44.65-14.57h-.01Z"/>
  <path class="st32" d="M257.5,1203.48c-4.84,8.45-18.39,14.37-26.2,17.88-2.95-4.79-1.45-9.69-2.44-14.38-.47-2.21-3.75-7.61-4.78-10.78-.45-1.39.7-6.56-2.55-8.7-1.89-1.24-3.42,3.79-3.32-3.18,9.34-9.79,15.61-23.78,17.46-38.31,20.95,6.67,19.78,33.14,23.71,53.29.05,1.77-1.12,2.86-1.88,4.18Z"/>
  <path class="st84" d="M720.28,1148.57c-1.82,11.29-5.57,22.3-11.23,33.02l-2.96,16.78c-6.56,12.91-7.68,16.03-17.46,26.82-4.45.45-2.64.06-3.29-3.12-4.13-20.41-5.82-37.86,6.1-55.52,1.54-2.27,3.8-2.91,4.86-4.53,8.27-12.74,13.36-33.02,18.52-47.92,3.54,11.11,8.13,21.81,5.46,34.48h0Z"/>
  <path class="st35" d="M541.28,1055.36c-3.53,42.94-57.3,22.9-42.45-14.54,4.54-11.44,11.95-10.93,20.62-14.83,6.94,10.06,14.96,19.1,21.83,29.37Z"/>
  <path class="st75" d="M894.92,940.43l12.79,6.76c2.32,7.98,6.33,14.05,7.95,22.61l2.72,3.13c.51,24.85,4.14,40.89,23.85,53.03,3.45,2.21,4.78,4.78,3.99,7.69-14.39,4.18-27.62-3.14-37.13-15.94-16.03-21.57-12.72-50.87-14.17-77.28h0Z"/>
  <path class="st37" d="M426.68,1315.85c.57,3.08-1.5,6.19-6.18,9.35,5.41,7.59,11.26,14.91,17.54,22.01l-.45,3.12c-17.8,3.82-30.71,1.25-46.93-7.66-2.06-2.95-.71-6.68,4.05-11.2l10.55-11.75c-5.84-7.84-12.01-15.35-18.48-22.56l.6-3.03c-.94-.37-.93-.79,0-1.28,2.7-8.11,10.91-16.55,17.05-22.27,1.35-1.25,3.12-1.65,4.78-1.99-3.66,14.86-2.68,31.69,8.7,41.54,1.4,1.21,7.54,5.32,8.76,5.71h0Z"/>
  <path class="st66" d="M389.57,138.51c18.62-13.05,36.38-24.7,56.76-34.48-2.61,7.66-23.94,62.74-26.84,63.77-3.22,1.15-3.58-3.28-5.37-5.03-8.22-8.02-16.99-15.34-24.56-24.26h.01Z"/>
  <path class="st36" d="M894.92,1147.3c4.78-3.61,18.37,11.05,19.52,14.7.81,2.58.7,3.33-.96,5.73-12.96,12.09-26.92,18.78-43.66,19.15-9.84-13.18-5.24-28.04,2.18-40.86,9.23,2.98,13.65,2.9,22.92,1.28Z"/>
  <path class="st57" d="M663.53,1198.37c1.5,1.69.01,7.01-.56,8.94-1.99,6.7-9.17,20.29-13.7,24.82s-13.13,6.88-17.04,11.35c-1.53,1.75-11.65,19.67-12.91,22.56-7.4,16.96-6.89,34.22,2.72,49.79-17.86-1.07-25.91-27.21-20.5-45.05,9.92-32.68,46.42-40.54,61.97-72.43h.01Z"/>
  <path class="st4" d="M390.66,1235.41c8.01,8.24,13.94,19.97,22.92,26.82-1.45,1.77-2.9,4.62-4.37,6.38-6.92,8.35-14.75,16.08-21.83,24.26-.68.63-1.77,1.44-2.24.98-3.67-3.54-19.05-20.85-21.1-24.68l.41-3.13c4.47-12.3,15.85-25.02,26.2-30.65h0Z"/>
  <path class="st64" d="M447.42,1347.78c-4.06,2.4-6.05,1.75-9.82,2.55l-20.73-24.91,9.81-9.56c15.61,5.03,26.56-3.45,39.29-11.49,5.6-4,9.76,14.42,9.31,18.92-.79,7.87-21.08,21.58-27.86,24.49Z"/>
  <path class="st12" d="M768.31,1011.94c-7.29-19.75-17.83-33.79-32.74-45.97,16.21-10.74,48.34-11.61,49.18,17.23.32,10.96-6.11,26.78-16.44,28.74Z"/>
  <path class="st83" d="M845.8,1001.72c-3.33,21.81-10.36,42.98-12.01,65.12-17.29-7.21-27.06-33.48-15.25-51.68,6.47-9.99,15.9-18.91,27.25-13.45Z"/>
  <path class="st60" d="M303.35,221.51c3.26,7.99,8.73,15.07,13.84,21.54,1.07,1.37,2.99,4.19,4.72,4l-.97,4.48c-8.05,8.43-16.1,16.95-22.6,27.1l-3.71,1.63c-3.45-5.07-6.83-10.32-10.36-15.34-1.78-2.53-4.33-7-7.11-7.65,9.41-14.33,16.28-23.01,26.2-35.75h0Z"/>
  <path class="st44" d="M815.24,905.95c18.38,15.8,28.14,33.05,31.65,60.02-27.26-4.07-45.16-28.12-31.65-60.02Z"/>
  <path class="st4" d="M401.58,1180.5c.62,5.1,20.42,22.56,18.54,25.51-9.59,7.11-18.18,17.23-26.61,26.37-.56.6-1.6.29-1.77.47l-2.4.88-14.33-15.66.36-3.1c8.07-10.96,19.49-22.84,26.2-34.48h.01Z"/>
  <path class="st50" d="M390.66,1342.67c-13.64-7.5-16.91-11.49-25.1-25.54,4.62-9.02,11.67-16.73,18.94-23.32l2.89.33c2.49,3.49,20.4,23.37,20.66,25.08.38,2.55-17.14,17.12-17.39,23.44Z"/>
  <path class="st72" d="M355.74,1257.11c1.7-3.03,3.33-1.11,4.81,1.4l3.92,7.53,22.92,26.82c-.19.2.19,1.06,0,1.28-3.39,3.93-8.21,7.78-11.45,11.51s-5.42,10.36-10.38,11.48c-12.26-20.99-14.35-34.34-9.82-60.02Z"/>
  <path class="st30" d="M723.56,844.66c6.14,8.56,18.13,18.91,26.56,24.48,2.64,1.75,16.94,8.66,17.1,10,.01.11-.93.7-1.1,1.23,2.19.74,5.69.94,6.56,3.87-6.69.55-13.5,4.98-20.31,4.98-2.58,0-15.35-2.87-18.25-3.7-.88-.26-.7-2.55-1.4-2.64-1.27-.15-3.45,1.71-3.7,1.38-.19-.24.36-2.36-.28-3.44s-4.96-4.21-5.86-5.99c-3.39-6.61-4.5-22.65-2.6-30.17.77.31,2.3-.2,3.27,0h.01Z"/>
  <path class="st86" d="M761.76,316c4.21,19.15,6.02,35.29,7.64,54.91-15.07-1.34-28.57-16.42-25.93-34.82,1.3-9.05,9.79-20.46,18.29-20.09Z"/>
  <path class="st39" d="M377.57,1066.85c-7.65-6.76-16.28-12.31-24.01-19.15,3.15-17.39,18.98-28.94,31-13.92,9.24,11.53,5.03,27.8-6.99,33.07Z"/>
  <path class="st23" d="M375.38,1214.98l16.37,17.88c-.45.49-.63,2.06-1.09,2.55-9,9.88-18.06,19.75-26.2,30.65-4.87,1.38-3.92-7.15-8.73-8.94,3.47-19.67,8.91-27.56,19.65-42.14Z"/>
  <path class="st67" d="M925.48,959.58c-.36,18.13,2.14,35.54,13.62,48.55,6.48,7.36,27.96,19.46,7.12,25.51-7.26-9.54-19.89-14.63-24.91-26.41-4.67-10.96-3.43-25.54-5.65-37.44,2.72,2.03,5.47,3.01,8.73,2.55v-14.05c1.26-.22,1.02,1.28,1.09,1.28Z"/>
  <path class="st48" d="M220.39,1087.28c-.11-.15-1.32.17-1.79-.42-15.2-19.08-21.16-20.65-26.59-48.1,22.06,2.32,35.45,23.28,28.38,48.52Z"/>
  <path class="st14" d="M447.42,1347.78c2.64-1.56,25.04-21.16,25.62-22.92.65-2-2.47-20.04-7.06-20.5,5.37-3.4,16.92-13.83,23.31-11.33,4.2,1.65.94,17.79-.53,22.01-5.32,15.17-27.91,29.65-41.33,32.73Z"/>
  <path class="st41" d="M913.47,1167.73c-.51-6.88-2.7-5.78-5.51-9.5-4.81-6.35-5-8.31-13.04-10.93,11.03-1.93,17.27-5.78,26.11-13.51,3.86-3.38,18.54-23.48,15.12-2.75-2.12,12.78-14.12,28.72-22.66,36.69h-.01Z"/>
  <path class="st82" d="M195.29,1199.65c-3.43,2.95-1.14,5.43-4.65,7.97-10.97,7.93-31.83.64-38.82-11.38-1.98-3.38-5.81-14.71-7.81-17.02l-.17-3.26c5.97-5.17,10.61-11.4,13.94-18.71l2.61-1.02c2.41,4.48-4.29,12.13-4.27,18.36.07,15.35,11.61,24.65,23.67,25.97,5.75.64,9.95-1.15,15.52-.92h-.01Z"/>
  <path class="st7" d="M312.08,949.37c1.2-8.93,9.39-35.65,15.28-40.86,1.24-1.1,3.89-1.44,5.46-2.55,14.3,21.4-1.22,40.72-20.74,43.42Z"/>
  <path class="st6" d="M292.43,1121.76c-17.58-12.74-23.83-35.32-14.19-57.46,8.33,21.86,14.05,31.62,14.19,57.46Z"/>
  <path class="st55" d="M880.73,880.41c-2.48-4.76-9.47-14.75-13.09-18.53-6.36-6.64-14.35-9.72-20.75-15.95,8.1.49,12.91-3.32,21.49,1.03,11.11,5.64,15.18,20.35,12.34,33.44Z"/>
  <path class="st17" d="M160.36,1156.24c-2.42,9.67-10.27,16.46-16.37,22.99-.99-1.15-5.04-1.9-7.08-5.16s-.24-4.97-1.65-7.61c1.75-4.44,7.13-11.75,11.09-13.19,4.22-1.56,11.51-1.67,14.01,2.98Z"/>
  <path class="st59" d="M331.72,1024.71c-7.62-10.89-10.93-17.85-15.28-30.65,16.52-6.23,20.28,16.82,15.28,30.65Z"/>
  <path class="st81" d="M505.27,1004.28c-13.79-3.69-27.13-22.82-12.01-35.75,1.18,7.78,8.49,28.77,12.01,35.75Z"/>
  <path class="st5" d="M689.72,1069.4c-3.97-1-7.79-2.89-11.26-5.34-7.96-5.62-17.33-17.67-21.36-27.37-.67-1.6-2.27-4.51-.12-5.61,10.42,13.27,21.99,24.34,32.74,38.31Z"/>
  <path class="st18" d="M706.09,1198.37c-4.09-20.3,10.66-33.14,14.19-49.8,1.95,2.36.26,7.67-.2,10.62-2.94,18.64-6.21,23.87-13.99,39.18Z"/>
  <path class="st77" d="M578.39,172.98c-.37,14.65-1.14,20.5,6.57,32.54,16.13,25.21,51.78,31.2,75.29,45.36,25.75,15.5,42.83,37.34,53.48,68.96,17.86,52.97,4.39,118.86-32.74,155.79l.02,3.28c-11.53,10.14-24.49,18.32-38.06,24.07l-2.35-1.81c-39.01,13.48-90.82.64-115.67-38.97-3.15-5.02-17.54-32.65-7.07-33.84,7.01-.79,9.58,12.51,12.51,17.9l3.3,1.16c13.71,21.31,38.31,37.1,60.89,40.36,118.71,17.19,156.06-186.18,40.61-227.12-89.59-31.77-147.31,120.75-72.83,180.43.25,1.92,1.23,3.63,2.96,5.16l3.83-.41c61,39.43,125.7-31.95,97.55-106.42-22.66-59.94-94.09-62.43-107.38,5.22l-2.74,3.28c.53,8.03.92,15.51,1.07,23.87.98,7.11,2.08,14.06,3.3,20.83l3.12,1.51c24.72,49.46,84.76,30.15,77.26-30.72-3.31-26.89-34.78-44.17-50.2-19.75l-2.9.45c-5.88,17.9-2.22,54.14,21.94,42.1,6.96-6.35.96-22.13-.85-19.32-1.03,3.19-2.37,7.02-5.64,7.78-9.76,2.22-10.22-16.87-3.45-20.34-.12-7.74,11.36-9.25,16.97-7.36,16.26,5.5,16.7,34.92,8.68,49.14-7.54,13.36-24.45,18.9-36.74,11.85-5.22-2.99-15.42-12.59-15.09-19.17-3.12-4.69-5.05-9.9-6.14-15.89-.98-5.4-2.06-14.05,1.78-17.32-3.82-6.27,2.39-18.39,6.14-24.25,12.17-19,35.13-26.05,53.9-17.39,51.5,23.78,34.62,122.5-19.05,129.57-8.42,1.11-22.33,1.26-27.9-6.21-14.57.6-28.54-16.83-35.2-31.07-22.51-48.14-.07-121.9,48.42-132.45,63.64-13.85,106.55,56.94,93.25,125.59-13.85,71.59-81.82,100.09-134.54,63.64-7.28-5.03-18.67-13.47-19.96-23.15-11.68-16.87-20.93-48.61-21.83-70.23l-2.26-4.95c1.08-55,28.27-112.33,76.59-125.51-7.47-6.36-14-13.74-19.61-22.17l.95-3.15c-6.05-2.25-6.82-17.56-6.95-24.81-.13-7.25-.07-21.59,5.86-23.71,1.93-4.49,4.99-8.58,9.82-5.77,4.51,2.62,1.17,10.34,1.09,13.43h.01Z"/>
  <path class="st16" d="M474.7,176.81c2.51,3.98-2.78,16.52-5.34,20.39-10.21,15.49-20.7,23.99-36.63,30.34,8.43,4.62,15.91,10.41,22.45,17.37l-.14,2.12c8.07,2.29,14.12,14.74,18.14,23.33,11.73,25.13,14.87,56.1,11.63,84.24-1.26,10.93-2.7,23.13-9.04,31.62-19.44,59.16-69.14,102.73-124.43,99.6-7.62-.43-13.37-1.62-20.74-3.83-11.07-3.32-20.12-7.66-29.47-15.32-7.53-6.18-23.72-23.46-21.84-35.09,1.2-7.5,8.4-.79,10.93,1.89l3.2-.03c38.31,53.94,106.82,40.89,144.69-8.86,17.29-22.7,23.74-43.56,28.6-72.8.11-.68.83-1.21,1.7-1.71,1.03-13.96.56-27.86-1.39-41.74l-3.01-3.65c-22.41-95.26-132.79-76.07-162.77,2.26l-3.39,2.67c-.49,2.85-.56,5.4-.21,7.67-7.15,23.07-8.12,45.75-1.33,69.02,2.52,8.64,5.13,16.88,10.27,24.19,3.14,1.14,6,3.75,8.58,7.85,47.83,38.08,120.57-.05,123.63-70.4,4.7-108.55-113.39-87.04-113.36,4.78.02,74.56,86.8,55,80.16-14.6-3.55-37.1-50.79-28.16-51.2,11.22-.24,22.78,22.95,21.12,24.18.49-16.47,7.79-20.04-12.5-3.9-19.31,13.84-5.84,21.93,2.11,22.3,18.43,1.06,47.04-62.81,54.26-61.18-2s76.36-82.15,87.38-14.95c9.55,58.23-42.47,110.19-88.87,82.59-8.12-4.83-20.89-16.04-20.08-27.07-3.13-1.32-4.98-4.64-5.52-9.96-3.79-19.5-4.43-44.65,6.61-60.27-.24-.91-.44-1.81-.49-2.75-.46-7.89,16.63-30.43,22.35-36.52,40.32-42.89,103.6-30.97,117.17,35.21,1.92,9.37,3.87,19.23.68,28.31,3.56,13.05-.2,28.54-4.73,41.46-23.55,67.24-103.27,99-152.53,49.84l-1-4.47c-5.81-6.3-13.32-20.7-16.37-29.37-2.28-6.47-5.64-17.57-6.55-24.26-.63-.61-1.24-1.26-1.72-2.02-4.64-7.19.39-47.4,4.25-56.33,1-2.32,2.12-3.98,4.03-5.5,3.45-10.33,8.74-21.57,14.19-30.65,8.14-13.56,17.03-22.28,27.29-33.2,1.9-2.02,4.86-3.38,7.64-6.38,19.78-19.91,45.72-25.92,70.87-29.83l4.44,1.74c29.32-5.91,48.22-13.36,57.36-49.74,1.11-4.44-.53-11.89,4.84-13.63,8.39-2.72,8.5,21.96,7.66,27.61h.02Z"/>
  <path class="st46" d="M578.39,562.45l2.53,1.23c2.34,6.15,5.16,12.03,8.49,17.61l-1.2,2.87c7.12,17.67,13.6,37.33,18.55,56.19.8.8,1.55,1.63,2.19,2.58,3.26,4.83,9.88,37.84,8.69,43.77-.24,1.17-.62,2.31-1.06,3.44,2.2,19.37,3.95,46.05,1.09,65.12,3.24,5.9-1.9,16.64-5,22.51-5.86,11.08-15.23,20.05-26.25,22.84-41.19,10.46-57.12-49.11-63.46-85.36-10.19-40.31-36-86.77-76.74-78.99-40.74,7.78-66.62,59.93-85.2,99.6-3.32,6.73-18.38,32.7-24.03,32.58-.67-.01-1.34-.19-2.01-.41-2.18,8.84-16.62,11.08-24.01,10.25-28.72-3.22-32.29-36.16-27.59-63.59,6.41-37.4,21.27-74.28,36.57-107.65l3.02-1.17c9.59-19.19,23.53-41.97,36.02-58.74,57.91-77.79,139.36-96.92,201.39-12.78,6.53,8.85,11.11,19.63,18,28.11h0Z"/>
  <path class="st54" d="M617.69,755.27c8.81,9.23,19.67,15.3,29.47,22.99,2.87,8.29-2.36,20.92-5.93,28.92-22.77,51.04-76.48,44.31-104.39,3.95-3.79-3.77-10.81-5.63-8.09,2.96l-1.65,2.48c-1.83,2.59-4.67,2.45-6.55,0l-3.02.32c-13.38-14.26-19.19-33.09-22.55-52.98l1.56-2.25c6.32-7.83,4.64-18.2,2.73-28.21-11.51-60.5-53.18-82.4-88.66-28.59-7.33,11.11-18.66,31.81-12.3,45.32l1.23,2.48c-2.61,9.58-14.17,40.75-19.64,43.86-.73.42-1.53.68-2.34.91-1.02,5.1-12.6,9.47-16.68,6.36-1.77-3.28-3.84-5.82-6.24-7.64-2.16-1.93-4.34-4.06-6.55-6.38-2.37,1.32-3.17-.43-2.4-5.22l-7.78-7.27c-4.29-3.63-5.26-6.69-2.91-9.22,19.29-15.66,31.54-51.15,44.29-73.96,46.46-83.07,114.8-84.82,144.25,14.9,8.43,28.54,10.34,65.58,34.87,83.07,27.02,19.24,54.3-3.61,59.27-36.78h0Z"/>
  <path class="st1" d="M530.37,446.25l4.37-6.38c23.83,34.45,71.68,46.12,105.74,27.3,81.65-45.14,55.36-200.44-36.47-192.07-70.98,6.47-87.24,137.03-21.24,162.22.64,2.98-1.12,4.61-5.28,4.89l-10.33,1.1c.55,1.77-.2,2.77-1.87,2.95-81.04-55.38-25.61-215.49,64.61-189.88,121.89,34.59,90.46,244.86-30.28,234.63-24.75-2.09-55.77-19.88-69.26-44.74h0Z"/>
  <path class="st80" d="M568.57,213.85c2.49,5.53,6.7,9.62,10.34,14.08l13.67,12.72c-35.7,6.01-63,41.82-73.41,80.75-3.81,14.26-6.88,33.3-6.25,48.23l-12.54-11.21c-2.04-.08-20.3,25.37-24.57,27.81,14.48-44.09,10.46-105.73-20.74-139.19-.23-2.22.35-3.45,2.1-2.8l7.75-12.42c2.86-5.58,6.47-8.45,10.86-8.62l50.2,54.17c13.59-20.95,26.95-42.23,40.09-63.78l2.53.27h-.01Z"/>
  <path class="st43" d="M665.71,783.37c-7.52,41.86-36.11,77-74.22,77.89l-2.03,2.55c-17.47-1.11-35.91-9.37-49.44-22.53-5.41-5.25-15.83-16.73-12.93-24.72-1.52-5.64-2.31-11.67,4.4-10.97,7.15.75,9.87,8.71,14.67,13.56,41.05,41.4,91.69,21.95,100.99-40.9,4.44-30.01,1.54-58.73-1.03-88.68,4.34-12.22,11.15-13.55,15.52-.43,7.49,22.51,8.28,70.67,4.06,94.21h.01Z"/>
  <path class="st65" d="M728.72,498.91c4.1-.93,10.6.11,14.72,1.32,29.47,8.56,18.86,60.36-11.61,55.73-25.51-3.88-28.93-51.19-3.11-57.04Z"/>
  <path class="st65" d="M674.16,564.02c28.19-5.59,40.01,33.05,18.3,50.78-5.02,4.1-11.53,4.58-17.47,3.82-26.88-3.45-25.66-49.69-.83-54.62h0Z"/>
  <path class="st25" d="M588.22,584.16c-2.81-6.96-8.27-13.32-9.82-21.71s2.62-20.74,8.81-26.09c21.68-18.76,50.08,12.3,33.58,40.57-8.81,15.09-19.33,11.82-32.57,7.23Z"/>
  <path class="st86" d="M763.56,419.87c21.6,28.45-19.24,60.32-38.75,33.2-18.35-25.51,18.46-59.93,38.75-33.2Z"/>
  <path class="st85" d="M606.77,640.35c9.65-7.57,25.89-9.82,34.32,1.35,15.44,20.5-1.81,53.98-24.49,48.45-1.93-17-5.53-33.46-9.82-49.8Z"/>
  <path class="st79" d="M496.14,458.56c-16.02,17.94-41.36-11.34-21.86-32.6,16.64-18.17,39.84,12.48,21.86,32.6Z"/>
  <path class="st21" d="M640.61,501.16c11.5-3.98,31.25-16.45,40.38-25.54,9.68,17.4,1.92,39.57-15.24,44.09-12.93,3.41-19.65-6.17-25.15-18.55Z"/>
  <path class="st20" d="M520.55,816.57c1.94-1.17,4.56-.94,6.55,0,7.06,26.19,42.38,45.2,64.4,44.69-6.17,20.32-20.8,34.92-39.19,22.23-2.36-1.63-3.38-5.47-6.65-5.63-.62-2.8-2.49-6.44-3.9-8.85-7.75-13.23-18.87-15.35-31.07-8.44-9.68,5.49-17.08,21.34-28.78,15.89-10.74-5.02-12.84-16.37-18.33-27.07-4.1-8.01-8.36-17.51-12.49-24.98-5.98-10.82-17.4-17.11-27.64-9.7-8.39,6.07-20.48,25.85-29.5,34.44-4.43,4.21-8.93,9.36-14.27,5.16-7.14-5.62-23.9-33.98-29.03-34.87-3.22-.56-6.9,5.49-9.1-2.86l-.1-3.15c4.41-4.34,9.28-9.13,10.89-15.82l2.3-1.46c7.38-.19,4.54,1.23,7.11,5.1,2.98,4.49,11.84-3.41,15.82-3.82l2.35-.43c2.15,3.12,5.02,6.4,8.6,6.6l59.12-71.96c1.82-2.06,4.03-1.56,5.42.84,10.11,24.22,18.73,49.42,25.87,75.57,6.75,27.97,24.14,26.39,38.81,7.65l2.79.88h.01Z"/>
  <path class="st43" d="M435.41,995.34l3.36,1.9c6.48,12.87,14.03,24.85,22.63,35.93l.21,4.3c15.48,21.98,38.1,46.24,40.36,76,1.31,17.25-1.5,44.08-10.89,58.08-3.48,5.18-19.62,21.78-18.35,6.01,5.97-9,9.58-19.31,11.8-30.28l-1.48-3.93c5.15-21.81-1.55-40.15-12.93-57.25l-.86-5.22c-10.85-16.95-23.94-31.63-34.93-48.52-.87-.28-1.72-.6-2.51-1.07-6.83-4.14-24.59-46.11-24.45-55.94.01-1.01.34-2,.76-3-1.46-6.17-2.59-14.05-3.27-20.43-.62-.66-1.21-1.35-1.68-2.13-3.12-5.26-1.64-35.08,2.77-41.28,1.47-12.02,4.68-25.63,10.04-36.14,1.84-3.61,11.31-17.94,13.81-9.02,2.14,7.61-5.32,35.42-6.37,45.8-3.33,32.64-1.05,57.26,11.98,86.17h.01Z"/>
  <path class="st22" d="M261.87,686.32c1.02.4,1.59,1.19,1.67,2.4-12.44,31.54-28.97,78.11-3.95,107.2,28.59,33.24,59.22,17.53,86.35-7.74l2.17,1.56c4.06-1.3,6.51,1.76,6.55,6.38.07,7.55-8.3,16.15-13.1,20.43-5.23,4.67-14.7,11.02-20.74,14.05-17.29,8.67-41.2,8.03-57.85-2.55-10.28-6.54-25.58-25.86-30.56-38.31-3.75-9.39-6.63-25.41-6.55-35.75.05-7.62,2.55-21.82,4.37-29.37,2.36-9.81,10.42-32.7,15.28-40.86.81-1.35,4.43-6.13,5.5-6.97,6.48-5.11,12.51,1.56,10.87,9.53h-.01Z"/>
  <path class="st12" d="M447.12,908.79c6.87-.72,15.94,3.92,19.77,10.78,14.44,25.83-19.77,44.22-32.56,24.05-8.05-12.71.05-33.51,12.79-34.82h0Z"/>
  <path class="st28" d="M434.32,1032.37c-11.6,9.5-26.35,1.02-28.15-15.02-.51-4.56.94-7.15.8-10.98-.24-6.33-5.85-19.86-10.86-22.53,1.47-6.13,9.52-3.28,9.82-3.82.27-.49-.35-2.91.03-4.15.43-1.38,2.83-.92,2.15-3.52,5.17,21.84,14.54,42.1,26.2,60.02h.01Z"/>
  <path class="st26" d="M461.61,1037.48c-10.55-14.98-18.17-24.35-26.2-42.14,24.44-14.25,38.82,18.18,26.2,42.14Z"/>
  <path class="st70" d="M404.85,951.92c-20.34-8.52-13.44-31.94,1.09-43.42-1.78,14.57-2.65,28.85-1.09,43.42Z"/>
  <path class="st61" d="M567.48,165.32c-5.53,12.91-4.61,35.83,1.09,48.52l-42.02,67.65-51.52-56.03c-4.54-1.39-13.34,17.11-16.66,20.76-.94,1.03-2.28-.15-3.32.8-4.1-4.39-9.42-7.34-13.85-11.25l-14.52-9.17c15.26-4.61,32.26-14.65,40.83-30.76,1.81-3.41,6.69-15.67,7.18-19.05l46.39,49.78,32.69-58.78c4.6-5.1,8.18-3.28,13.7-2.49h0Z"/>
  <path class="st53" d="M404.85,212.57c-11.59,2.34-23.26,3.72-34.66,7.33-14.37,4.55-27.83,12.11-40.65,20.76,16.37-17.63,30.24-40.62,46.54-58.65l28.77,30.56Z"/>
  <path class="st63" d="M290.25,433.48c.27-4.35,3.21-5.62,6.55-5.11,56.45,61.22,158.68,6.26,158.26-86.83,2.27-13.11,5.83-1.48,4.22,6.49.4.82,6.43.74,6.75.22,2.11-3.49-.86-31.27-2.28-36.51-.02-2.68.96-3.7,3.32-3.4,17.93,92.73-57.16,184.1-136.43,157.7-21.43-7.14-25.46-16.64-40.38-32.56Z"/>
  <path class="st2" d="M484.53,1147.3c-1.14-3.24-1.58,1.47-1.82,2.34-.86,3.09-1.38,6.49-3.09,9.16-2.55-2.6-2.38-3.4.55-4.44-2.51-6.91-7.83-7.93-11.62-11.33-3.49-3.13-6.97-9.85-12.4-9.76,11.92-16.13,10.59-32.51,13.1-52.35,14.91,23.3,21.51,35.58,15.28,66.4h.01Z"/>
  <path class="st49" d="M441.58,1107.26c-20.49,22.01-43.04-22.38-18.62-33.92,19.31-9.12,31.64,19.91,18.62,33.92Z"/>
  <path class="st38" d="M280.43,310.89c-6.73,20.15-9.47,42.28-6.55,63.85-.46,2.55-2.77-1.33-3.27-1.92-5.27-6.17-18.33-21.73-21.82-28.37-.97-1.84-3.66-9.23-3.33-11.2.2-1.2,2.06-.26,2.88-1.09,1-1.01,3.65-5.44,3.92-5.61.47-.28,1.86.89,2.96.27,8.69-5.01,16.37-12.02,25.2-15.94h.01Z"/>
  <path class="st3" d="M322.99,605.87c-15.35,30.7-42.26,101.24-39.28,135.98,2.66,31.04,29.83,43.61,51.29,26.19.27,6.04,11.24,12.22,12.62,15.32,1.14,2.58-.95,4.84.48,6.38-1.82.59-10.75,9.5-13.61,11.53-21.74,15.4-43.37,24.35-66.4,6.12-31.6-25.03-26.05-59.63-15.24-96.52,2.03-6.91,7.95-19.28,9.03-24.56l20.73,7.66,11.08-86.67c9.7-1.83,19.49-1.53,29.32-1.46h0Z"/>
  <path class="st58" d="M565.3,446.25c2.19-2.12-4.56-2.45-1.1-4.48,4.79-2.8,13.44-.17,18.57-4.46,71.05,27.12,100.82-86.56,51.33-118.16-26.1-16.66-60.52,1.09-64.43,36.43-1.39,5.48-4.57,6.1-9.55,1.86-3.24,1.53-4.43-1.65-3.55-9.53,9.89-71.59,86.12-73.53,110.83-12.82,31.87,78.3-35.89,156.4-102.1,111.15Z"/>
  <path class="st15" d="M560.93,392.62c-3.5-11.28-2.51-14.25,8.61-13.65,1.26,3.84,2.75,7.11,4.49,9.82,11.53,14.88,19.33,25.13,38.8,16.66,21.6-9.4,20.02-52.48,3.18-56.19-8-1.75-10.01.6-15.77,5.04-2.59,5.1-4.54,5.58-5.86,1.43-10.21,5.08-10.39.01-6.34-9.63l.2-2.03c15.79-29.06,53-11.72,55.64,22.37,5.04,65.04-61.26,78.21-82.93,26.15h-.01Z"/>
  <path class="st62" d="M588.22,344.09c2.66,2.3-4.65,10.74-.51,11.51.48.09,8.32-3.86,9.24-2.58.5.69-1.06,4.25,1.08,3.84.68-5.13,2.02-2.41,2.19-2.54-1.71,4.42-4.6,15.92.76,17.69s5.48-6.17,7.06-7.24c7.09-4.78,12.15,20.38,1.12,24.88-23.83,9.72-31.3-26.51-20.96-45.55h0Z"/>
  <path class="st27" d="M556.56,347.93l1.1,8.94,1.58-2.53c3.32.87,8.4,7.16,9.22.49l1.2.78c-1.19,10.73.73,23.3,4.37,33.2-.05-.06-.81,1.35-1.58.13-1.3-2.03-1.51-6.21-2.76-7.25-1.14-.94-8.98-.17-9.76,2.85s3.49,6.03,1,8.1c-6.64-15.94-6.78-27.21-4.37-44.69h-.01Z"/>
  <path class="st11" d="M306.62,410.5l-6.47-11.71c-3.53-6.35.53-7.64,5.63-7.02,1.35-5.49,4.6-9.12,8.47-4.25,16.12,38.22,61.95,40.44,87.33,13.42,19.37-20.64,27.88-62.4,12.46-88.67-26.23-44.68-89.23,1.97-73.64,52.94,8.08,26.39,41.91,23.92,51.53.18,4.39-10.83,5.24-33.7-8.37-34.18-5.73-.2-17.41,4.19-17.03,12.23.55,11.53,13.3,1.99,14.29,3.21.98,28.27-32.17,30.95-28.28-3.09,4.4-38.46,56.66-46.44,55.59,2.39-.59,26.85-14.23,49.11-36.9,55.22-39.57,10.66-55.42-33.99-44.67-72.7,20.45-73.58,109.4-79.58,114.34,7.25,2.36,41.32-15.87,74.15-47.67,91.17-25.08,13.42-70.34,14.05-86.62-16.42l.02.04Z"/>
  <path class="st13" d="M467.06,308.34c-2.95,4.2.59,10.25.97,14.81.48,5.66,1.03,21.78-.05,26.52-.55,2.41-10.34,1.26-10.75.8-.44-.49.34-11.77,0-14.05l-2.17,5.1c-.47-105.86-103.38-114.64-139.71-24.26-3.2,8.39-6.49,9.02-9.89,1.88-8.02,1.11-10.52-1.29-7.5-7.2l-.08-2.34c31.54-87.76,149.52-102.92,169.18-1.28h0Z"/>
  <path class="st27" d="M297.89,309.62c2.43,1.11-.5,5.58,0,6.37.88,1.43,6.42-.17,8.45.82,1.33.64,3.48,5.72,5.21,5.55,1.45-.14,1.77-7.62,3.81-5.08-8.15,20.29-9.72,49.76-1.09,70.23-.64,1.77-2.47-.37-4.09.28-1.41.56-2.1,5.38-3.07,6.04-2.53,1.71-5.22-1.37-7.03,2.02-.16.94,5.51,12.71,6.55,14.66-21.63-27.81-20.61-67.83-8.73-100.88h0Z"/>
  <path class="st51" d="M594.37,773.97c-3.18,3.83-10.73,8.29-15.39,8.17-32.59-.87-36.78-61.83-45.33-88.81-32.57-102.92-111.78-98.9-161.81-15.59-12.67,21.11-27.8,66.39-46.33,77.32-23.18,13.68-28.21-10.05-25.18-32,7.92-57.21,46.86-141.66,83.75-180.39,109.84-115.32,196.41,8.45,215.8,138.31,3.62,24.22,10.42,73.77-5.53,93.03l.02-.03Z"/>
  <path class="st26" d="M496.53,761.66c1.27,2.38,3.77,19,5.75,24.56,3.72,10.45,10.71,23.14,18.26,30.35-2.95,1.79-7.84,8.7-11.65,11.28-6.22,4.2-16.08,6.53-22.12.79-9.28-8.8-20.18-55.28-25.73-70.78-1.21-3.38-9.46-25.16-10.93-25.56l-60.6,73.48c-3.68,1.93-10.11-4.46-11.96-8.35,4.22-6.84,8.2-14.12,11.5-21.66,2.34-5.31,7.12-22.53,9.23-25.59l.41-2.73c3.05-1.37,5.5-4.07,7.37-8.1,14.24-38.83,52.63-73.37,74.49-20.55,3.5,13.29,7.97,25.99,13.37,38.09,2.02,1.26,2.88,2.85,2.59,4.78h0Z"/>
  <path class="st16" d="M398.3,750.17c-7.05-1.92-4.05-11.89-2.74-17.89,3.98-18.29,20.93-43.03,34.75-52.56,40.84-28.17,69.01,22.17,72.65,64.83.51,6.04.24,16.91-6.43,17.11-.23-.43-2.95-1.3-3.83-2.52-6.43-8.82-10.48-31.36-15.62-43.05-14.33-32.64-40-24.72-56.78.46-6.63,9.95-10.27,24.25-18.37,32.19-1.07,1.05-3.53,1.25-3.65,1.43h.01Z"/>
</svg>