<?xml version="1.0" encoding="UTF-8"?>
<svg id="Layer_1" xmlns="http://www.w3.org/2000/svg" version="1.1" viewBox="0 0 1024 1536">
  <!-- Generator: Adobe Illustrator 29.5.1, SVG Export Plug-In . SVG Version: 2.1.0 Build 141)  -->
  <defs>
    <style>
      .st0 {
        fill: #e09d2c;
      }

      .st1 {
        fill: #0d140c;
      }

      .st2 {
        fill: #bebdad;
      }

      .st3 {
        fill: #e6dec7;
      }

      .st4 {
        fill: #0b0f0b;
      }

      .st5 {
        fill: #f2efe5;
      }

      .st6 {
        fill: #56594f;
      }

      .st7 {
        fill: #f8f7f3;
      }

      .st8 {
        fill: #696b5f;
      }

      .st9 {
        fill: #babaa7;
      }

      .st10 {
        fill: #40463d;
      }

      .st11 {
        fill: #f8f6ef;
      }

      .st12 {
        fill: #0a0f0a;
      }

      .st13 {
        fill: #e4dbc3;
      }

      .st14 {
        fill: #f3f1e8;
      }

      .st15 {
        fill: #f0efe7;
      }

      .st16 {
        fill: #df9d2c;
      }

      .st17 {
        fill: #f7f6f0;
      }

      .st18 {
        fill: #0c140d;
      }

      .st19 {
        fill: #9e6e3a;
      }

      .st20 {
        fill: #f8f6f0;
      }

      .st21 {
        fill: #eed398;
      }

      .st22 {
        fill: #eacd94;
      }

      .st23 {
        fill: #a1713b;
      }

      .st24 {
        fill: #efac53;
      }

      .st25 {
        fill: #f2f0e7;
      }

      .st26 {
        fill: #0c130c;
      }

      .st27 {
        fill: #845a32;
      }

      .st28 {
        fill: #f2f0e6;
      }

      .st29 {
        fill: #f4f1e8;
      }

      .st30 {
        fill: #f8f7ef;
      }

      .st31 {
        fill: #080807;
      }

      .st32 {
        fill: #df9c2c;
      }

      .st33 {
        fill: #f3f0e7;
      }

      .st34 {
        fill: #e6dec6;
      }

      .st35 {
        fill: #df9c2b;
      }

      .st36 {
        fill: #e7dec7;
      }

      .st37 {
        fill: #e7e0cb;
      }

      .st38 {
        fill: #060705;
      }

      .st39 {
        fill: #e7dec8;
      }

      .st40 {
        fill: #c9954a;
      }

      .st41 {
        fill: #e1a537;
      }

      .st42 {
        fill: #f8f6f1;
      }

      .st43 {
        fill: #e7dfc7;
      }

      .st44 {
        fill: #f8f6ed;
      }

      .st45 {
        fill: #a1a393;
      }

      .st46 {
        fill: #f7f6ee;
      }

      .st47 {
        fill: #e8cb93;
      }

      .st48 {
        fill: #5b5e53;
      }

      .st49 {
        fill: #090e09;
      }

      .st50 {
        fill: #464b42;
      }

      .st51 {
        fill: #0a0e09;
      }

      .st52 {
        fill: #e6ddc6;
      }

      .st53 {
        fill: #0b120b;
      }

      .st54 {
        fill: #e7dfc8;
      }

      .st55 {
        fill: #c5c4b3;
      }

      .st56 {
        fill: #0d140d;
      }

      .st57 {
        fill: #828375;
      }

      .st58 {
        fill: #f2efe6;
      }

      .st59 {
        fill: #0a0e0a;
      }

      .st60 {
        fill: #b6b7a5;
      }

      .st61 {
        fill: #cd832c;
      }
    </style>
  </defs>
  <path class="st56" d="M1014,1003l-444.76,117.25c-20.41,44.48,13.06,52.37,48.74,39.23,41.33-15.22,67.34-39.7,116.01-25.98,43.52,12.26,74.02,60.18,42.42,100.41-10.07,12.82-36.99,27.42-53.25,22.42-12.09-3.72,3.34-13.63,7.35-18.32,10.5-12.29,21.77-32.92,2.17-43.19-31.85-16.7-86.44,27.67-114.01,43.35-65.71,37.37-133.44,40.08-202.03,7.69-8.39-3.96-16.22-8.96-24.64-12.85,8.04,10.33,21.97,42.12,9.52,52-4.54,3.6-6.82,1.65-10.84-1.18-5.87-4.14-10.99-8.74-17.37-12.64-36.53-22.34-80.35-25.63-118.35-44.65-88.94-44.52-129.49-139.92-110.47-236.61-.57-1.24-20.82-15.6-22.17-15.81s-4.36,3.27-5.29,4.4c-10.13,12.35-12.25,31.53-11.01,46.96,1.09,13.6,13.05,36.66-12.39,24.39-11.79-5.69-24.69-19.46-31.43-30.57-17.13-28.26-18.81-62.24-14.21-94.3-6.41,6.52-10.76,15.71-14.48,24.01-2.42,5.41-5.71,20.74-12.29,6.27-19.55-43.01,17.13-110.21,13.77-158.77-.92-13.29-5.05-26.73-5.97-40.03-4.91-70.84,26.92-134.7,86.9-172.09l-51.69-108.13c-5.96-16.54,7.41-28.1,21.53-33.01,20.41-7.11,24.13,1.31,32.1,17.38,15.53,31.32,28.6,64.03,44.15,95.36,35.14-27.15,56.48-66.5,72.99-106.99-13.23,5.61-27.79,12.47-42.45,13.03-22.1.84-50.24-13.92-26.56-35.56,20.27-18.53,29.92-25.82,44.18-50.82,36.9-64.66,46.3-138.91,98.31-197.69,127.25-143.81,358.87-67.55,384.39,119.64,1.26,9.21.54,24.41,2.59,32.41.75,2.9,4.26,8.08,5.71,11.29.72,1.6,2.57,8.35,2.93,8.63.47.37,7.72-1.08,11.58,2.36,5.74,5.12,5.42,22.52-3.4,24.48-1.78.39-7.03-.05-7.29.22-.6.62-1.79,14.57-2.3,17.2-2.31,11.88-5.86,22.82-11.42,33.58l-15.1,113.44c15.33,40.84,44.47,73.74,71.98,106.64l125.33-26.86,140.49,21.99v10c-.2.77-.65,1.9-1.2,1.84-16.68-1.83-35.56-4.63-52.1-7.69-4.22.11-6.79-.94-7.7-3.16-8.42-.1-16.75-1.1-25-3l-3.07,1.57c-20.03-4.67-40.09-6.89-60.2-6.67-34.79,7.02-69.4,14.62-103.84,22.8l8.5,12.55,133.06,27.8c35.62-8.5,71.21-16.95,106.77-25.34l4.78.28v8l-.64,2.25-103.03,28.8c-.14.2.52,4.66,1.12,4.7l100.87-26.37,1.68,1.63v3c-34.17,9.32-68.58,18.25-103.24,26.82,1.99-.16,1.15.3-.76,1.18.72,4.17.92,8.77,0,13,1.28,1.8,1.9,4.23.32,5.8.08,4.45-.69,8.51-2.32,12.2.64,1.1.98,2.1,1,3,33.28-7.16,66.28-15.5,99-25,.51-3.09,3.75-4.21,6-2v9c-1.79,1.36-3.67,2.74-5.85,3.39-19.63,5.79-39.49,11.35-59.24,16.77s-39.68,10-59.57,4.71c-32.03-8.46-64.36-16.21-96.99-23.24l-.27,4.05,83.01,19.47c28.8,7.61,56.74,3.47,85.09-4.86l47.37-13.69c2.17-.29,4.32-.15,6.45.41v10l-5.32,3.29c-16.24,4.41-32.39,9.15-48.45,14.23-20.34,5.7-47.98,12.51-68.84,8.12-.58-.12-1.03-.92-1.43-1.91-4.79-.18-9.4-1.32-13.97-2.72l-1.4.65c-28.39-5.99-56.99-13.09-84.07-23.31l1.33,2.11c-.8,11.22-3.87,22.12-8.2,32.46,1.96-.84,3.4-1.2,4.05.95-1.81,1.21-2.18,31.78.76,27.32-1.44-4.29-.49-25.44,5.5-24.25.95.19,1.57,1.25,2.07,2.14l.9,24.95c2.45.54,3.8,1.86,4.07,3.98l-2-2.09v-17.97l2-1.44c-4.31-1.95,1.6-8.06,4.69-3.85-.14,8.58.37,17.04,1.54,25.38,2.31.07,3.59.34,3.76,2.97-3.14-1.61-3.2-12.71,0-14.5-.79-.22-1.78-.82-1.6-1.35,5.15-15.4,8.6-7.93,6.96,3.45-1.2,7.71,5.33,23.02,2.66,5.04.26-3.75,1.79-16.29,5.98-14.64.76.09,1.77.25,2,.87.54,1.42.73,16.45-2,16.63l2.04,1.62c2.22,10.14,3.26,8.87,3.12-3.8.7-3.89,4.58-18.27,8.04-10.76-1.29,8.04-1.06,15.24.7,21.58-.12-4.62,1.61-20.63,5.34-22.45s5.93,6.36.77,5.81c.78.1,1.93.33,2,.89.39,3.19.38,12.45,0,15.68l-2,1.43c1.76.78,3.42,1.85,5,3.19-.34-3.89-1.66-26.95,5.3-24.92,1.01.29,1.51,1.44,1.8,2.49-.32,1.64-1.66,29.37,2.99,26.69.21-.12.35-.35.47-.62-.78-4.59-1.01-19.43,1.72-22.59,6.55-7.56,5.24,8.32,4.64,12.28-1.48,1.1,2.2,18.92,3.92,14.81-.36-9.2,1.09-18.27,3.93-27.01,2.15-6.63,5.37-16.49,11.24-19.83l5.22-6.45c3.78-.93,2.81,5.5,1.7,7.96-2.42,6.87-4.58,13.74-6.02,20.83-8.76,43.08,5.6,51.05,46.86,36.56,24.97-8.67,50.27-15.93,75.91-21.78l4.32.88v11l-3.74,2.28c-36.22,11.06-72.85,20.59-109.9,28.59-49.01-18.76-100.28-36.8-149.3-50.48-6.65,4.75-14.46,9.87-22.35,11.79l5.62,1.14c44.86,21.94,91.17,40.58,137.72,58.58.67,8.53,1.29,17.01,1.89,25.43l13.23,4.97c18.44,5.43,25.86,25.72,2.47,30.87-69.22,15.11-138.64,29.68-208.26,43.74-24.5,20.89-59.73,28.37-87.19,8.54l-248.1,50.83-2.23.05c-64.23-47.49-128.22-94.92-191.97-142.28-5.59-11.01,6.63-18.14,15.63-20.66.55-.16,1.54-1.69.94-1.83l-45.73,9.04c-8.27-1.92-6.13-.46,6.41,4.38,88.5,64.53,177.58,130.23,263.6,196.2,169.83-42.66,339.49-85.98,508.99-129.95,37.08-10.15,74.5-18.56,112.28-25.22v10c-43.92,12.71-88.19,24.25-132.79,34.63-161.93,42.32-324.09,83.88-486.47,124.68-.41.11-1.21,1.11-1.44,1.7-.52,1.37-2.71,27.9-2.09,29.23l621.08-161.87,1.72,1.62v10Z"/>
  <path class="st19" d="M1014,847v106c-207.99,48.93-413.61,107.39-621.48,157-18.84-15.42-38.93-29.08-58.41-43.61-71.81-53.6-143.07-108-216.11-159.9l53-10.48c.13,7.87-4.86,6.17-10.32,9.17-5.13,2.82-10.69,8.46-7.37,14.53,17.89,13.69,36.5,26.46,54.58,39.9,45.58,33.88,90.39,69.01,136.57,101.95l250.25-51.27c28.07,20.32,60.76,12.38,85.89-8.19,68.58-16.25,139.09-26.48,207.41-43.59,8.56-2.14,16.39-4.61,13.52-15.54-2.38-9.07-21.49-13.82-29.32-17.18-2.25-8.35-.66-17.09-1.37-25.62-48.97-17.96-97.03-38.23-143.82-61.18l17.29-9.19,6.43-4.65c50.58,14.33,100.7,31.7,149.84,50.78,38.37-7.51,75.47-19.88,113.43-28.93Z"/>
  <path class="st27" d="M1014,963v30l-625,162.99,2.4-33.55,2.59-1.94c88.35-23.55,177.45-44.25,266.02-66.99,24.4-6.26,48.56-13.75,72.98-20.02,93.54-23.99,187.01-48.31,281.01-70.49Z"/>
  <path class="st8" d="M928,641c6.16,1.28,16.77,3.25,25,3l61,9v21c-37.3,8.36-73.95,19.59-111.45,27.03l-134.76-28.06-10.78-15.96c3.63-.19,7.49-.67,11.03-1.47,30.42-6.86,63.28-16.23,93.76-21.24,19.59-3.22,46.24,3.92,66.21,6.71Z"/>
  <path class="st6" d="M1014,757v13l-6.24,2.9c-33.18,8.17-65.82,16.18-97.92,24.03-16.22,1.16-19.34,44.44-12.73,52.3,5.47,6.5,20.85,2.75,28.12.93,25.76-6.46,52.64-14.01,78.79-21.44,3.3-.67,6.63-.91,9.99-.71v8c-8.86,2.61-18.1,4.11-27.01,6.49-23.23,6.2-47.83,15.9-70.78,21.22-12.11,2.81-25.86,4.23-31.96-9.44-3.03-6.79-.37-28.36,1.05-36.47,1.41-8.04,5.68-16.45,6.72-23.29.09-.59.26-1.65-.51-1.5l-5.5,5-.6-3.03c4.55-4.66,4.76-8.7.64-12.12-3.27-.34-9.93-1.11-10.04-4.84,28.06,5.79,44.74,4.66,72.22-2.28,22.07-5.58,43.51-13.85,65.78-18.72Z"/>
  <path class="st52" d="M1014,791v14c-9.86,4.37-10.41,5.18-1.64,2.44l1.64,1.56v11l-.43,1.11c-36.32,9.44-74.19,19.14-110.57,26.89-2.21-9.53-.98-19.98.72-29.55,35.45-9.31,71.21-18.13,107.28-26.45-1.43-2.78,1.8-3.91,3-1Z"/>
  <path class="st26" d="M1014,770v8l-.7,2.23-102.89,25.41-2.1,4.89,104.03-25.19,1.66,1.65v4c-1.23-.49-2.51.92-3,1-35.84,8.31-71.53,17.1-107.08,26.37-1.49.5-3.17,26-.92,29.63,36.68-8.19,73.38-17.11,110.09-26.77l.91.77v6c-25.18,6.97-50.36,14.59-75.78,20.72-12,2.89-40.19,13.61-44.92-2.5-3.17-10.79-.6-42.19,9.77-48.64,5.64-3.51,24.58-7.01,32.11-8.89,26.18-6.55,52.64-12.18,78.82-18.68Z"/>
  <path class="st34" d="M1014,715c-.28.87-.62.86-1,0-33.57,9.54-67.24,18.2-101,26l-1.15-.47c.33-5.31.72-10.49,1.15-15.53-.37,3.83-.66,7.83-.86,12h-1.14c.16-4.31-.22-8.7,0-13l.43-1.1c34.55-9.08,69.07-17.71,103.57-25.9v18Z"/>
  <path class="st10" d="M1014,740v7c-24.77,6.12-49.17,15.13-74.17,20.33-21.83,4.54-35.02,5.45-57.01,1.36-31.18-5.8-61.81-14.91-92.85-21.26l.55-8.45c20.69,5.7,41.88,9.42,62.72,14.28,11.37,2.65,22.56,6.49,33.93,9.07,20.42,4.63,28.39,3.52,48.66-1.02,26.33-5.9,51.79-15.61,78.18-21.32Z"/>
  <path class="st3" d="M1014,731c-1.96.69-4,1.46-6,2-32.71,9.5-65.71,17.83-99,25-.11.01-.73,1.44-1.99,1-.79-1.79.8-3.13.99-4,1.52-3.05,2.39-7.51,2.59-13.4l1.41.4c32.34-5.22,64.88-13.2,97.59-23.94l4.41-.06v13Z"/>
  <path class="st37" d="M1014,682v11l-102.7,26.86c-3.02.2-2.42-6.1-3.37-8.24l106.07-29.61Z"/>
  <polygon class="st39" points="1014 778 1014 787 904.99 813.49 908.74 804 1014 778"/>
  <path class="st38" d="M1014,805v4l-108,26.99c2.92-2.98,8.91-4.23,13-5.49,31.29-9.62,63.51-16.57,95-25.5Z"/>
  <path class="st38" d="M1013,715h1v3c-22.58,7.59-45.68,14.44-68.99,19.51-8.65,1.88-19.98,4.77-28.56,5.51-1.37.12-3.75.49-4.45-1.02,33.67-8.96,67.34-17.96,101-27Z"/>
  <path class="st42" d="M1014,820v2l-108.6,27.06c-1.39.31-1.65-.4-2.4-1.06l111-28Z"/>
  <path class="st44" d="M1014,696v1l-104,27c.03-.66-.11-1.32,0-1.98l103.99-26.02Z"/>
  <path class="st33" d="M365.95,377.05c-1.24,38.31,18.93,82.02,57.61,93.89,50.92,15.62,92.14-25.01,100.12-72.75.69-4.14,1.5-20.39,2.51-21.99.93-1.46,11.91-4.27,14.3-4.28,3.04,0,9.91,1.79,11.85,3.99.81.91,1.28,20.07,1.94,24.3,9.69,62.19,70.8,94.29,121.7,50.79-9.93,94.87-28.01,189.76-66,277.49-20.71,3.75-40.42,13.94-56.01,27.99-2.46,2.22-12.14,13.6-13.01,13.99-6.06,2.76-19.9,1.23-26.98,3.51,29.91-44.83,51.24-96.81,67.27-148.22,2.58-8.28,5.98-18.07,7.54-26.47.37-2-1.35-1.78-1.8-1.29-.13.14-.21,2.5-.8,3.68-26.55,53.3-47.16,114.32-75.69,165.34-6.77,12.12-6.52,7.86-16.25,14.75-11.99,8.48-9.82,18.95-14.27,23.73-2.22,2.38-18.27,11.21-22.72,14.28-4.48,3.09-8.74,6.59-12.92,10.06l-20.34-11.34c44.93-46.88,83.83-100.21,112.15-158.83l5.33-16.67c-37.32,60.41-79.26,117.85-124.52,172.5-3.64,1.69-12.02-2.66-16.35-3.64-21.22-4.81-45.72-2.45-66.63,3.13-1.18-1.44,7.21-8.46,8.5-9.99,21.97-25.92,40.76-56.16,51.47-88.53l-1.96-.47c-21.76,35.07-45.25,69.13-71.57,100.94l-40.44,15.05c-.86-17.46-3.01-34.14-9.88-50.29,30.1-32.92,54.32-72.48,71.34-113.74,9.73-23.58,18.3-49.43,20.52-74.96l-34.81,80.67c-12.09,25.02-24.89,49.61-40.16,72.84-1.59,2.41-19.6,29.56-21.01,28.48l-23.94-51.4c17.37-8.41,24.63-30.65,22.8-48.98-.31-3.09-3.88-13.97-3.68-14.99.25-1.3,4.51-4.58,5.77-6.17,24.98-31.51,41.01-89.86,21.23-127.17-.91-1.71-2.48-4.53-4.17-1.81,11.17,42.27-1.38,91.83-28.54,125.51-9.81-16.55-29.05-23.05-46.53-13.53-2.72,1.48-4.07,4.08-6.96,4.53l-34.78-73.51c62.43-52.06,91.52-134.83,112.72-211.07l86,20.63Z"/>
  <path class="st29" d="M682,304.99l-17.33-12.16c-51.88-29.19-102.01,14.39-109.67,66.17-10.06-4.26-21.28-4.5-30.98,1-3.74-34.14-28.21-69.99-63.16-77.35-47.29-9.95-84.6,28.44-91.85,72.35l-82.58-18.95,22.6-76.05c-12.33,17.94-22.3,34.4-29.28,55.23-12.55,37.45-20.7,77.07-36.28,113.72-15.09,13.83-53.3,28.43-72.01,17.06-9.82-5.97,8.69-14.37,13.57-18.5,57.22-48.46,66.97-142.8,106.18-204.82,53.14-84.07,141.9-127.43,240.81-98.19,82.47,24.38,139.08,95.84,150,180.49Z"/>
  <path class="st33" d="M516,1134.01c-8.49,14.62,1.24,44.1,19.51,45,2.07.1,2.89.57,2.49-1.99-12.09-4.21-18.64-17.04-18.03-29.55.19-3.91,2.23-14.18,5.73-16.27,7.37-4.42,23.58-4.78,31.82-9.18l-4.59,22.47c3.06,39.71,45.73,33.79,72.76,22.7,44.82-18.4,89.77-48.98,135.33-7.69,33.17,30.06,16.91,81.1-26.01,88.5,2.6-3.06,5.99-5.85,8.41-9.07,12.09-16.09,16.61-37.39-1.5-51.33-35.28-27.16-97.62,24.31-128.24,41.58-61.15,34.49-125.33,38.31-189.35,8.01-13.77-6.52-26.35-15.55-40.36-21.64-11.78-5.12-24.43-8.7-36.97-11.52,19.91,16.57,47.18,39.52,48.98,67.52.08,1.18.71,4.37-1.47,3.47-39.46-37.51-97.36-38.14-143.54-63.47-77.18-42.33-111.82-128.81-96.97-214.52,76.93,55.03,150.13,115.07,225.96,171.6,2.76.83,7.62-.8,10.66-1.47,18.69-4.09,37.62-10.93,56.15-15.85,22.97-6.09,46.07-11.91,69.22-17.27Z"/>
  <path class="st43" d="M426,832c7.78,3.91,16.46,9,23.92,13.58,43.05,26.4,87.83,58.48,129.8,87.2,17.77,12.16,35.62,24.62,52.28,38.21-17.67-8.19-35.6-16.81-54.95-20.54-80.27-15.46-141.91,47.14-220.34,45.34l-40.4-30.6-128.31-90.69c24.45-5.02,48.17-13.02,71.59-21.51l2.4.5c2.28,3.22,13.71,16.14,16.65,16.4,1.04.09,2.35-.93,2.35-1.38v-25c12.36-5.43,26.04-11.36,39-15.5l2.06.2c34.87-11.67,70.73-12.48,103.94,3.8Z"/>
  <path class="st33" d="M709.01,831c3.17-13.69,6.19-24.99,4.86-39.37-3.67-39.66-45.67-65.47-82.87-64.63-.58-2.31.45-1.65,1.26-2.28,26.31-20.63,60.93-31.34,93.73-20.72-14.48-16.74-41.67-15.78-60.99-8.99-.71-.85,1.9-3.98,2.58-4.91,8.26-11.06,22.15-19.42,35.4-23.11-.62-1.75-6.05-1.16-7.53-1.02-14.41,1.36-29.26,10.74-37.88,22.12-5.58,7.37-6.01,15.75-15.58,19.91l31.5-147.99c3.53,7.15,6.48,14.64,10.32,21.67,28.05,51.29,85.25,88.01,94.04,148.96,7.08,49.16-17.47,93.66-68.85,100.36Z"/>
  <path class="st36" d="M498.99,832.01l-8.46,6.02-3.53,3.96,18-8.98c-4.97,13.96,5.34,29.22,20.4,28.88,2.38-.05,8-2.64,9.64-1.48.58.41,3.38,7.92,4.97,10.08,2.77,3.76,8.1,8.33,13.01,8.51l-1.02,1.98c5.03-1.11,9.79-1.09,14.78-2.71,2.05-.66,8.11-4.26,8.58-4.18,1.13.2,4.09,4.23,5.71,5.34,2.35,1.61,5.99,2.5,7.91,4.09,1.45,1.2.96.82.04,1.99-1.55,1.97-8.51,5.8-11.12,7.91-.55.44-3.52.91-1.88,2.58.71.73,15.51-8.47,18.01-9.48,5.45-2.2,11.27-2.46,16.37-4.63,2.67-1.14,10.55-7.65,11.26-7.78,1-.18,8.91,6.9,18.6,5.62,15.85-2.09,19.98-14.9,28.73-18.26,10.27-3.94,29.3-4.8,40.52-5.57,2.45-.17,5.44,2.45,6.5-.9-13.93-1.33-28.25-2.09-42,.98,7.34-11.21,26.05-17.95,38.72-14.21,13.07,3.85,36.06,18.59,49.92,25.08,22.31,10.45,45.15,19.94,68.11,28.89l25.25,8.24c-16.85,2.04-33.54,5.7-50.51,7-16.58,1.27-33.43.3-49.98,2.02-37.84,3.94-77.75,21.95-106.52,46.48-2.38,2.03-7.55,9.12-10.28,8.41-57.44-50.01-123.16-89.72-186.73-131.37-1.52-1.23-.72-.99,0-2.03,1.63-2.34,26.24-17.54,28.57-17.49,2.68.29,2.81,3.58,4.45,5.51,3.58,4.22,8.37,8.61,14,9.51Z"/>
  <path class="st33" d="M137,671.01c28.24,19.37,59.89,54.93,48.5,91.99-2.49,8.11-8.26,14.9-17.51,14,.17-32.01-25.61-61.7-54.99-72-2.24,2.67,18.08,19.42,20.5,21.99,11.67,12.36,26.66,33.89,25.47,51.5-2.46,36.1-50.21,25.85-69.5,9.54-25.55-21.61-32.12-60.07-19.33-90.38,7.28-17.26,35.29-51.31,51.55-60.45,14.88-8.36,23.95-8.05,39.33-.72,27.37,13.03,60.16,54.44,56.96,86.02-.75,7.45-9.41,22.16-18.01,17.02-1.03-.62-7.07-19.21-8.51-22.48-10.06-22.73-28.14-44.09-54.47-46.02Z"/>
  <path class="st28" d="M664,811.01c-16.37.3-32,17.54-39.52,30.97s-9.52,38.2-31.51,32.54c-20.23-5.2-7.1-28.53-.39-39.44,10.83-17.59,25.14-30.1,39.94-44.11,1.02-.96,4.06-.91,1.96-2.99-27.02,7.22-49.52,33.95-58.23,59.77-1.23,3.64-3.24,15.5-4.18,16.82-3.74,5.29-20.47,6.57-24.4.14-11.49-18.77,12.72-51.87,24.34-66.2,7.45-9.18,16.55-17.01,22.97-27.03.87-2.79-11.2,4.63-11.91,5.09-22.38,14.39-44.7,46.73-48.16,73.34-18.08,6-23.94-3.9-19.22-20.72,11.31-40.37,60.8-88.76,103.82-92.18,33.87-2.7,80.54,16.42,84.36,54.61,2.44,24.45-10.69,31.27-25.4,45.35-9.08,8.69-17.93,22.58-28.15,28.85-17.6,10.79-29.32.65-19.13-18.13,7.98-14.7,21.39-24.94,32.8-36.69Z"/>
  <path class="st14" d="M121.99,596c-.46,3.88,12.09,23.81,11.01,24.99-10.87,1.79-21.95,9.19-29.51,17-4.83,4.99-8.98,13.19-13.45,17.55-4.15,4.04-9.38,5.8-14.01,10.99-30.02,33.75-32.13,102.1,8.89,128.58-3.39,12.01-7.2,24.09-10.05,36.26-3.42,14.58-7.95,33.19-6.85,48.11.11,1.57,3.17,18.79,4.97,16.52,3.92-22.03,18.41-40.77,33-57-3.57,12.73-8.47,25.07-11.5,37.99-4.78,20.33-7.51,44.53-4.21,65.24.47,2.94,1.67,9.71,2.94,12.06,2.08,3.86,18.24,10.81,18.74,13.32-13.21,15.76-18.23,34.5-17,54.93.35,5.83,2.06,11.68,2.55,17.45-33.6-19.69-42.37-59.99-40.5-96.48.31-6.13,5.44-35.72,3.53-38.55-4.43-6.58-17.6,8.1-20.51,11.57-5.01,5.96-8.49,12.88-12.53,19.47-4.46-33.3,8.99-64.44,15.83-96.17,7.75-35.92-1.52-53.58-3.37-87.28-2.85-51.78,14.84-101.76,53.57-136.52,5.23-4.69,19.15-16.36,24.9-19.1,1.21-.58,2.04-1.27,3.57-.93Z"/>
  <path class="st33" d="M437.76,297.26c89.35-11.29,96.37,154.12,12.73,160.73-88.83,7.01-88.21-151.19-12.73-160.73Z"/>
  <path class="st33" d="M626.8,299.3c85.83-6.59,80.75,162.23-5.33,155.73-72.46-5.47-68.65-150.06,5.33-155.73Z"/>
  <path class="st23" d="M105,918c.05-1.07.13-8.43,1.49-7.99,92.84,66.38,184.82,133.89,274.49,204.51l1.08,2.92c-1.06,11.34-.55,22.8-2.1,34.04-.2,1.43.94,2.95-1.44,2.52-90.4-68.92-179.92-139.01-272.51-204.99-.36-10.6-.7-20.93-1-31Z"/>
  <path class="st13" d="M582,959c3.36.75,45.6,14.17,43,17.99-2.97.15-6.18,4.57-8.65,4.81-1.64.16-8.27-3.89-10.82-4.82-41.38-14.96-85.04-7.13-125.04,8.01l-13.48,6.01c48.2-14.61,97.83-26.05,146.99-7.98-2.4,3.12-5.44,5.8-6.04,9.98-30-7.94-62.15.5-91.96,6.01-53.87,8.12-108.93,21.2-162.21,34.76-1.25.28,3.22-15.57,4.06-17.16,11.38,1.36,22.77.06,33.96-2.13,18.45-3.61,38.21-9.36,55.19-15.47-.62-1.62-2.92-1.01-4.22-.78-28.23,5-56.47,15.65-85.78,15.77l2.11-10.88c41.1,1.36,78.48-16.24,115.89-30.11l1.95.11c33.85-14.46,68.75-20.83,105.05-14.11Z"/>
  <path class="st48" d="M666.6,992.52c4.06-2.49,7.29-4.4,12.18-7.23,59.92-15.87,125.83-22.92,185.04-39.96,2.23-.64,4.84-1.03,6.88-2.12,2.15-1.14,3.74-4.03,5.83-4.24,2.26-.23,14.56,5.49,16.46,8.02-71.93,13.54-142.94,32.22-215.25,44.26-18.24,17.02-40.69,29.39-66.1,18.61-6.26-2.66-12.23-9.14-19.09-8.88-82.36,16.56-165.05,32.18-247.02,50.02-8.92-6.82-18.42-12.92-27.43-19.61s-18.07-14.97-27.21-21.79c-43.15-32.22-87.44-62.91-129.88-96.1.56-2.02,8.46-4.71,8.87-4.42.22.15,1.52,3.02,3.09,4.44,28.65,25.91,66.77,49.53,98.34,72.66,22.32,16.36,45.02,36,67.75,51.25,1.44.96,5.03,3.26,6.49,3.53,4.35.79,17.25-2.49,22.47-3.44,46.05-8.39,91.73-20.38,137.76-29.24,24.21-4.65,78.19-17.54,100.06-10.64,2.93.92,6.69,3.97,10.64,5.36,18.07,6.37,35.03-1.26,50.11-10.49Z"/>
  <path class="st50" d="M876,778l7.75,2.75,6.25.26c-3.57,4.36-1.15,2.02.39,3.98.17.21,1.68,4.2,1.62,4.46-.08.34-1.35.52-1.89,1.36-1.44,2.29-2.79,4.81-4.12,7.18-9.07,16.15-14.33,30.92-13.01,50-1.3-1.29-5.55-1.58-6.01-2.7-2.78-6.69-2.4-20.2-.98-27.29-2.79-.49-1.68.6-2.25,2.19-2.87,7.95-1.69,15.64-.75,23.8-12.98-1.54-6.89-21.84-8-30.99-1.69.62-2.71,5.05-2.91,6.58-.86,6.52.08,13.84-.09,20.42-2.88-.51-6.99-3.41-6.99-6.5v-18c0-.57,2.64-4.37.01-4.49-3.42,7.89-4.48,16.4-4.02,24.99-10.06-2.15-3.45-19.31-5-26.99l-3.87,12.62c-.07,4.11-.87,8.54.88,12.37-6.77,1.15-8-5.06-8-10.49v-17.5c-1.57.5-1.99,4.6-2.34,6.16-.56,2.48-1.64,7.09-1.69,9.39-.09,3.99,3.77,12.4-2.98,8.95-5.11-2.61-3.48-21.36-3-26.51l-3.99,9.5v14.5c-1.38-.97-4.01-.74-5.01-1.48-3-2.21-1.65-22.17-1.99-26.51-2.06-.93-2.99,2.85-2.99,3.49v21.5l-6.04-2.66-.97-27.34c-5.45,6.62-4.36,17.9-3,25.99-.41.43-5.79-1.83-6.01-2.69-2.32-9.15-.3-19.2,1.01-28.3-5.99,7.49-4.27,18.99-4,28-6.63-.99-6.28-3.6-6.96-9.59-1.02-9.09,2.98-10.35,6.14-17.74,4.97-11.62,8.52-23.94,8.84-36.67,28.18,8.64,56.59,16.97,85.48,23.02.69.14.46.97.51.98Z"/>
  <path class="st54" d="M351.99,1010l-82.99-54.99c20.84,19.77,45.05,35.77,69.08,51.41,1.89,1.23,11.4,6.16,11.8,6.7.35.48-.09,7.56-2.32,6.82-12.41-7.74-23.57-17.32-36.04-24.97-2.29-1.4-4.94-3.39-7.52-3.97,10.83,8.53,21.69,17.65,33.09,25.4,2,1.36,10.44,5.21,10.8,5.71.32.45-.67,7.04-.92,8.36-.17.88.35,2.3-1.45,1.51-1.49-.65-9.7-7.99-12.2-9.81-34.37-24.95-68.61-50.08-103-75-6.49-4.7-52.41-35.39-52.9-38.63-.6-3.94,2.71-12.23,3.08-16.54l67.5,48.99c-19.6-19.5-42.74-35.53-65.99-50.5-2.56-3.01.89-7.73,0-11.49l146.67,105.82c3.36,2.39,23.76,15.02,24.1,16.79.31,1.65-1.68,5.98-.79,8.39Z"/>
  <path class="st57" d="M902,724c-.41,3.47-.64,6.99-.68,10.54-7.48-1.82-14.59-3-21.32-3.54-28.23-5.8-56.32-13.3-85-16.5,16.17,5.84,33.21,9.29,49.98,13.02,16.46,3.66,34.04,7.76,50.63,10.37,1.52.24,6.16-.11,6.39.12.32.32-.22,5.65,0,7.01l-30-3.99,10.79,3.69c2.89.65,16.55,2.23,17.27,2.73,2.27,1.57.56,4.8-.06,6.57l-.47.84c-5.08-1.46-10.25-2.75-15.53-2.84-31.62-7.04-63.1-15-94.95-21.04-.36-11.36-4.62-22.25-8.04-32.95l120.99,25.99Z"/>
  <path class="st36" d="M716,946c18.46-4.71,37.26-8.35,56.84-10.57,30.02-1.8,59.8-5.45,89.33-10.94l1.82,11.98-88.85,18.68c-2.3.35-3.56.48-3.14-2.15-12.41-1.99-27.85,1.14-40.22,4.28-19.1,4.85-37.95,13.26-55.3,22.42l-12-7.71c16.16-10.47,33.15-19.87,51.51-25.99Z"/>
  <path class="st32" d="M197,649.99l-18.09-16.4-16.35-10.65-48.56-105.93c4.21-.3,15.48-5.56,18.49-1.99l64.51,134.97Z"/>
  <path class="st25" d="M171.77,883.76l-26.76,5.75c29.09-20.95,45.92-51.08,56.01-84.99l6.97-30.51c3.95,11.94,10.66,22.7,16.75,33.61-4.2,18.05-10.48,35.58-18.25,52.37-3.48,3.22-25.76,4.38-30.46,7.54-3.28,2.21-2.55,12.63-4.26,16.23Z"/>
  <path class="st28" d="M222.79,642.21c17.07-1.71,29.89,19.42,31.19,34.3,1.05,12.05-3.26,35.27-17.99,36.04l-28.72-60.07c4-4.92,8.84-9.6,15.52-10.27Z"/>
  <path class="st3" d="M855,912c7.4-2.81,7.14.79,6.21,7.25-30.6,4.72-61.33,8.43-92.19,11.15-29.23,4.04-60.21,9.78-85.01,25.6-3.7,2.49-7.69,4.61-11.31,7.19-2.14,1.52-9.45,8.33-10.39,8.61-3.72,1.12-10.17-1.4-14.29-1.29,16.78-15.15,36.03-27.87,57-36.5,20.01-6.16,41.3-11.91,62.82-12.95,29.26-1.29,58.4-4.44,87.18-9.05Z"/>
  <path class="st16" d="M244.14,793.86c-5.74-12.66-10.46-25.78-15.96-38.54-1.34-3.1-7.61-13.45-7.04-15.61.32-1.21,2.38-2.49,3.08-4,2.42-5.23,4.26-10.85,3.8-16.71l35.84,71.76c-1.61,10.06-12.7,1.1-19.71,3.1Z"/>
  <path class="st35" d="M157.99,623c-4.74-2.46-10-2.61-15.11-3.59l-41.74-88.16c-.57-3.87,5.9-6.19,8.37-8.23l48.48,99.98Z"/>
  <path class="st57" d="M897,709c4.33-.88,4.82,11.46,4.15,11.41-8.11-3-16.16-4.8-24.15-5.41-21.56-5.11-43.3-10.52-65-15-6.63-1.67-14.63-3.33-24-5-2.18-.25-8.33.23-9.77-1.23-.57-.58-.61-2.94-1.33-4.15-.84-1.41-6.11-8.04-2.45-7.59,15.83,3.84,31.61,8,47.53,11.49,21.43,4.69,55.98,8.33,75.01,15.49Z"/>
  <path class="st40" d="M272.99,853l-36.53-43.98c-.97-2.1,8.1-9.6,9.84-10.3,4.59-1.85,9.96,2.96,12.21,2.94,1.39-.01,7.92-5.21,8.48-4.65l6,56Z"/>
  <path class="st61" d="M112.99,472.99c-5.29-.59-9.89.81-14.69,2.81l-18.29,12.19c-.66-5.87-9.15-14.21-8.98-19.4.32-9.81,19.81-20.28,28.44-18.59,3.63.71,4.1,5.21,6.35,7.66l7.17,15.32Z"/>
  <path class="st5" d="M531,782.01l-22.49,39c-13.91,4.73-20.91-9.7-15.7-21.7,6.32-14.56,24.77-14.8,38.19-17.3Z"/>
  <path class="st0" d="M216.98,746l23.89,48.72c.48,3.26-5.64,5.26-7.38,8.26l-28.5-53.49c4.47-.24,8-1.68,11.98-3.49Z"/>
  <path class="st30" d="M716,946c34.47-11.5,66.04-11.17,101.38-15.12,15.11-1.69,30.01-4.9,45.07-6.93l2.56,13.05-167.61,35.92c-2.79.16-2.12-.16-.15-1.16,22.2-11.32,50.32-14.97,74.75-18.76,1.02.16,2.48,1.65,4.18.78l86.81-17.8-.99-10.98c-40.9,10.15-84.11,7.27-125.03,16.46-5.66,1.27-10.76,3.38-16.17,4.84-1.46.39-3.81,1.62-4.79-.31Z"/>
  <path class="st58" d="M232.98,818.01l20.02,26.98-37,13c3.31-7.14,6.96-14.36,9.76-21.73,1.95-5.12,3.08-13.36,5.24-17.64.57-1.13.91-.7,1.98-.62Z"/>
  <path class="st11" d="M516,999c-34.79,6.43-69.49,13.84-104.04,21.46-20.05,4.43-40.38,8.45-59.95,14.54-.82-1.03,5.82-15.96,3.99-18.99,31.77,2.77,60.95-9.26,91-17.01,1.94,1.44.14,1.06-1.03,1.46-14.41,4.85-31.96,9.98-46.78,13.23-13.39,2.93-27.42,5.73-41.11,3.38l-4.07,15.93c16.62-5.08,33.92-8.77,50.95-12.54,34.44-7.61,71.18-16.54,105.8-22.22,1.58-.26,4.26-.99,5.24.76Z"/>
  <path class="st20" d="M855,911c2.33-.32,4.67-.62,6.99-1l.07,9.38c-59.17,12.72-123.42,5.76-178.06,36.62,2.78-1.87,6.15-4.78,10.64-6.86,52.42-24.25,110.57-20.22,166.35-30.15l.02-7c-1.95.15-4.1-.22-6.01,0-.87-.28-.86-.62,0-1Z"/>
  <path class="st47" d="M119,485.99c-5.56-.03-11.15,1.28-16.39,3.12l-16.6,11.88c-4.51-6.45,10.13-18.22,15.09-20.39,1.93-.85,11.75-2.97,13.22-2.51,1.96.61,3.38,6.13,4.67,7.89Z"/>
  <path class="st22" d="M130,508.99c-14.66-1.3-23.51,6.28-32.98,16-4.22-6.49.93-10.28,5.98-14.51,6.7-5.62,25.03-15.4,27.01-1.49Z"/>
  <path class="st20" d="M855,911v1c-11.41,1.35-23.73,4.76-35.51,5.99-40.94,4.27-69.87,1.67-110.12,15.88-1.28.45-3.4,2.25-4.36.13,38.32-15.79,69.67-13.17,109.49-17.01,13.59-1.31,27.02-4.13,40.51-5.99Z"/>
  <path class="st44" d="M1013,715c-33.42,9.78-67.1,18.92-101,27l-.9.57c.12,3.66-.67,7.09-1.42,10.61-.14.63-.67,4.35-1.67,1.82,1.46-6.65,1.37-11.56,2-18,.02-.19.93-1.12,1.04-2.42.26-3.14-.26-6.43-.03-9.57h.99s0,15.99,0,15.99l101-26Z"/>
  <path class="st17" d="M582,959c-1,1.93-3.48.75-5.01.53-40.52-5.8-60.42-.54-97.62,13.34-1.28.48-3.43,2.21-4.37.13,37.77-14,65.85-23.15,107-14Z"/>
  <path class="st7" d="M426,832c-.6,2-3,0-4.01-.49-34.25-16.52-61.82-13.04-97.19-3.2-1.46.41-3.82,1.6-4.8-.31,37.6-12.01,70.09-14.07,106,4Z"/>
  <path class="st44" d="M1008,733c-33.78,9.17-64,20.51-99,25l99-25Z"/>
  <path class="st41" d="M103,496c.59-.39.7-2,2.73-2.75,6.61-2.44,17.77-5.14,18.27,4.74-4.72.13-12.74.1-17,2.01-4.3,3.1-7.68-1.02-4-4Z"/>
  <path class="st21" d="M103,496c.57,2.87.58,4.73,4,4-2.43,1.08-14.22,13.11-15.01,12.52-1.01-1.38-2.22-3.82-1.53-5.49.26-.62,8.31-8.63,9.51-9.6s2.39-1,3.03-1.43Z"/>
  <path class="st60" d="M897,709c.84.32,2.61-.42,3.53.95.67,1,1.96,10.52,1.47,11.05-8.29-2.17-16.66-4.02-24.99-6,.96-1.85,3.52-.87,5.05-.56,6.43,1.28,12.75,3.5,18.94,5.56-1.19-3.45.56-10.4-4.5-10l.51-.99Z"/>
  <path class="st55" d="M902,724v11c-.85.84-18.97-3.38-22-4,.92-2.66,1.74-1.4,3.44-1.02,5.84,1.29,11.61,3.21,17.55,4.02-.58-2.72,1.51-8.36-1.33-9.05l2.34-.94Z"/>
  <path class="st9" d="M788,695c6.83.78,12.63,1.83,19.33,3.16.25.05,7.33.64,4.67,1.84-7.87-1.63-16.54-1.78-24-5Z"/>
  <path class="st24" d="M106,949c-.95-.56-.93-1.43-1.06-2.39-.91-7.17-.32-20.98.06-28.61,1.66,1.04,1,3.8,1.02,5.49.09,8.49-.03,17.08-.02,25.51Z"/>
  <path class="st45" d="M928,641c8.27,1.15,16.73,1.78,25,3-7.88,2.43-17.21-2.44-25.49-2.03l.49-.97Z"/>
  <path class="st2" d="M884,752l4.84-.36,11.16,2.36c-.17.48.14,1.38-.01,2.01-5.11-2.18-10.62-2.81-15.99-4.01Z"/>
  <path class="st46" d="M1011,792l-106.05,26.45c-3.15,2.29-1.54,24.78-1.95,29.55-4.82-4.24-.47-24.56.04-30.96,36.34-6.34,71.72-18.77,107.96-25.04Z"/>
  <path class="st56" d="M427,492.01c5.37,11.19,14.27,19.98,22.98,28.51,36.96,29.79,97.67,35.79,135.48,4.46,5.43-4.5,10.19-10.75,15.53-15.48l-8.99-8c13.75-8.22,31.44,6.25,28.99,21.5-3.32.87-7.33-6.27-9.36-5.92-1.22.21-14.09,15.36-17.11,17.95-53.56,45.94-150.96,25.99-180.02-39-3.25.37-9.6,10.95-11.01,10.96-.7,0-3.14-3.55-3.31-4.69-1.48-9.89,12.45-20.09,21.42-21.18,16.15-1.96,26.77,9.94,5.39,10.89Z"/>
  <path class="st56" d="M538,452.99c-.05-3.25,4.19-4.77,6.73-5.76,11.77-4.63,23.84-2.49,31.1,8.44,12.24,18.41-2.76,42.77-23.44,45.23-5.22.62-17.32.79-19.91-4.9-3.11-6.81,12.84-4.7,16.76-5.25,13.4-1.9,25.18-16.56,16.98-29.45-6.81-10.71-18.52-4.47-28.21-8.29Z"/>
  <path class="st18" d="M403.01,268.99c1.05-18.59,26.8-35.56,43.75-37.74,5.11-.66,29.12-.82,24.75,8.72-2.25,4.9-18.18,4.31-23.73,5.29-9.81,1.74-17.68,5.72-25.9,11.1-2.55,1.67-17.26,14.29-18.86,12.63Z"/>
  <path class="st1" d="M649,269.99c-2.54,2.27-18.63-8.2-22.64-9.85-5.32-2.19-12.17-4.62-17.87-5.13-4.23-.37-16.11,1.76-17.34-2.73-1.83-6.68,8.63-10.35,13.61-11.02,17.76-2.41,37.45,13,44.24,28.73Z"/>
  <path class="st53" d="M197,1063.5c.09-.34,1.36-1.53,1.99-1.5,3.57,39.33,20.39,75.36,50,101.51,4.52,3.99,10.31,6.73,14.01,11.48-22.38-5.19-43.27-28.07-53.54-47.95-4.14-8.01-12.46-30.1-12.46-38.54,0-5.72-1.11-20.66,0-25Z"/>
  <path class="st26" d="M558.99,1204.01c.77,2.63-3.09,2.87-4.99,3.5-40.24,13.22-94.65-2.92-115-41.49,1.77-1.63,9.57,9.2,10.98,10.51,13.24,12.4,39.09,22.82,56.82,26.18,17.47,3.31,34.57,2.48,52.2,1.3Z"/>
  <path class="st12" d="M326.5,952c-.34-.09-1.53-1.36-1.5-1.99,44.33-.43,79.68-31.88,120.24-44.27,20.51-6.27,43.85-9.65,64.98-4.45,1.01.25,3.01.28,2.78,1.7-31.34-1.82-62.2,5.25-90.67,17.83-18.42,8.14-57.88,31.18-76.82,31.18-4.5,0-15.57.88-19,0Z"/>
  <path class="st12" d="M361,973c.34-1.92,2.08-1.67,3.45-2.05,4.97-1.37,10.86-1.12,15.79-2.21,52.52-11.62,87.71-51.56,147.3-47.8,7.74.49,19.45,1.97,25.45,7.04-32.77-7.84-63.65-.36-93.67,12.84-19.58,8.61-58.47,32.17-78.83,32.17h-19.5Z"/>
  <path class="st12" d="M480,881.99c-29.86-2.11-57.36,2.97-84.67,14.84-19.6,8.52-37.05,20.43-57.79,27.21-13.02,4.25-27.96,7.87-41.53,5.95-.26-1.45,1.89-1.29,2.97-1.51,8.13-1.64,16.2-2.54,24.24-4.77,49.57-13.73,97.01-59.25,153.33-43.76,1.37.38,3.11.13,3.45,2.04Z"/>
  <path class="st4" d="M444.99,860.01c.27,1.67-2.44,1.09-3.52,1.03-26.98-1.61-47.61,3.26-72.44,13.49-32.4,13.35-63.65,36.04-100.03,35.46-.22-2.6-.14-1.66,1.5-1.96,7.61-1.4,14.86-2.44,22.28-4.74,49.69-15.41,96.16-58.7,152.21-43.28Z"/>
  <path class="st49" d="M384.5,841c-47.9,4.61-97.53,52.04-145.88,46.88-1.03-.11-4.7-.4-4.62-1.87,57.24,1.06,113.46-58.25,170.18-47.69.89.17,11.69,2.19,9.82,3.67-1.46.62-2.9-.99-3.5-.99-8.16,0-18.13-.76-26,0Z"/>
  <path class="st51" d="M784,893c-.07,1.72.67,2.11-1.26,1.77-29.21-5.07-55.4-.15-82.43,11.04-22.86,9.46-43.13,24.81-67.32,31.17,1.61-2.17,4.95-3.81,7.33-5.16,39.51-22.46,78.31-47.48,126.04-41.7,5.9.71,11.64,2.76,17.63,2.88Z"/>
  <path class="st59" d="M748.99,873.01c.24,1.75-2.27.93-3.48.98-7.46.31-14.22-.79-22,.01-43.78,4.52-78.3,32.07-120.51,39.98,6.88-5.18,16.58-7.29,24.67-10.82,12.62-5.5,24.63-12.38,37.36-17.64,26.48-10.96,55.28-19.16,83.96-12.52Z"/>
  <path class="st26" d="M131,780.99c-17.05,4.66-33.69-17.54-37.99-31.99l37.99,31.99Z"/>
  <path class="st18" d="M450.74,349.23c3.58-.57,5.25-.09,8.53,1,28.07,9.37,23.05,90.14-14,78-22.6-7.4-22.84-74.48,5.47-79Z"/>
  <path class="st18" d="M606.74,349.23c11.21-1.79,18.63,7.25,21.56,16.97,4.54,15.09,3.38,50.68-14.75,56.85-34.63,11.78-36.95-68.99-6.8-73.82Z"/>
  <path class="st31" d="M214,924.99c-10.73-5.1-21.23-11.99-30-19.98,8.14,3.8,16.04,8.89,23.31,14.18,2.27,1.65,5.19,3.43,6.68,5.81Z"/>
  <path class="st25" d="M466.74,375.28c3.48,3.2,4.03,18.6-3,17.59-8.76-1.26-5.14-25.09,3-17.59Z"/>
  <path class="st15" d="M618.5,369.35c7.07,0,6.76,18.18.97,18.72-7.72.72-7.88-18.72-.97-18.72Z"/>
</svg>