<?xml version="1.0" encoding="UTF-8"?>
<svg id="Layer_1" xmlns="http://www.w3.org/2000/svg" version="1.1" viewBox="0 0 1024 1536">
  <!-- Generator: Adobe Illustrator 29.5.1, SVG Export Plug-In . SVG Version: 2.1.0 Build 141)  -->
  <defs>
    <style>
      .st0 {
        fill: #060c0e;
      }

      .st1 {
        fill: #0b0e0e;
      }

      .st2 {
        fill: #c4dfe1;
      }

      .st3 {
        fill: #e6f0f0;
      }

      .st4 {
        fill: #ebf5f4;
      }

      .st5 {
        fill: #e5f1f2;
      }

      .st6 {
        fill: #eaf4f5;
      }

      .st7 {
        fill: #0e1211;
      }

      .st8 {
        fill: #0a0e0f;
      }

      .st9 {
        fill: #1b4b5b;
      }

      .st10 {
        fill: #080f10;
      }

      .st11 {
        fill: #99d6e4;
      }

      .st12 {
        fill: #89c7d5;
      }

      .st13 {
        fill: #eef7f7;
      }

      .st14 {
        fill: #0c0e0d;
      }

      .st15 {
        fill: #5c9dae;
      }

      .st16 {
        fill: #98d0da;
      }

      .st17 {
        fill: #478b9e;
      }

      .st18 {
        fill: #bdd9dc;
      }

      .st19 {
        fill: #e7f3f3;
      }

      .st20 {
        fill: #0a0f10;
      }

      .st21 {
        fill: #e6f3f3;
      }

      .st22 {
        fill: #f3f9f9;
      }

      .st23 {
        fill: #edf6f6;
      }

      .st24 {
        fill: #0c0e0e;
      }

      .st25 {
        fill: #0c1b22;
      }

      .st26 {
        fill: #070809;
      }

      .st27 {
        fill: #5392a4;
      }

      .st28 {
        fill: #6b949c;
      }

      .st29 {
        fill: #3f717d;
      }

      .st30 {
        fill: #f5f9fa;
      }

      .st31 {
        fill: #eef8f8;
      }

      .st32 {
        fill: #5a9dad;
      }

      .st33 {
        fill: #080c0e;
      }

      .st34 {
        fill: #5196a8;
      }

      .st35 {
        fill: #468fa4;
      }

      .st36 {
        fill: #f5fafa;
      }

      .st37 {
        fill: #1b4756;
      }

      .st38 {
        fill: #0b0e0f;
      }

      .st39 {
        fill: #0b0f0f;
      }

      .st40 {
        fill: #c4dee0;
      }

      .st41 {
        fill: #71adb7;
      }

      .st42 {
        fill: #5d8790;
      }

      .st43 {
        fill: #f6fafa;
      }

      .st44 {
        fill: #4f90a2;
      }

      .st45 {
        fill: #e0eff0;
      }

      .st46 {
        fill: #42889d;
      }

      .st47 {
        fill: #9adae6;
      }

      .st48 {
        fill: #d6e6e7;
      }

      .st49 {
        fill: #f4f9f9;
      }

      .st50 {
        fill: #ebf6f7;
      }

      .st51 {
        fill: #ecf4f4;
      }

      .st52 {
        fill: #5391a2;
      }

      .st53 {
        fill: #3a6e7b;
      }

      .st54 {
        fill: #68a4b1;
      }

      .st55 {
        fill: #eff6f6;
      }

      .st56 {
        fill: #5999a9;
      }

      .st57 {
        fill: #0a0e0e;
      }

      .st58 {
        fill: #e4f1f1;
      }

      .st59 {
        fill: #eef6f6;
      }

      .st60 {
        fill: #4d8ea0;
      }

      .st61 {
        fill: #c6dfe1;
      }

      .st62 {
        fill: #c3dee1;
      }

      .st63 {
        fill: #091113;
      }

      .st64 {
        fill: #c8e1e3;
      }

      .st65 {
        fill: #060c0f;
      }

      .st66 {
        fill: #f2f8f8;
      }

      .st67 {
        fill: #ebf5f5;
      }

      .st68 {
        fill: #e6f2f2;
      }

      .st69 {
        fill: #b4d4d7;
      }

      .st70 {
        fill: #315e68;
      }

      .st71 {
        fill: #0a0f11;
      }

      .st72 {
        fill: #bcd9dc;
      }

      .st73 {
        fill: #5d98a8;
      }

      .st74 {
        fill: #f0f7f6;
      }

      .st75 {
        fill: #558593;
      }

      .st76 {
        fill: #3c6d79;
      }

      .st77 {
        fill: #749aa1;
      }

      .st78 {
        fill: #080e10;
      }

      .st79 {
        fill: #5394a7;
      }

      .st80 {
        fill: #cfe5e8;
      }

      .st81 {
        fill: #090b0a;
      }

      .st82 {
        fill: #0d1110;
      }

      .st83 {
        fill: #e8f3f4;
      }

      .st84 {
        fill: #619bab;
      }

      .st85 {
        fill: #d6eaed;
      }

      .st86 {
        fill: #e1f1f1;
      }

      .st87 {
        fill: #0c0f0f;
      }

      .st88 {
        fill: #6a9ea9;
      }

      .st89 {
        fill: #0a0d0d;
      }

      .st90 {
        fill: #eff7f7;
      }

      .st91 {
        fill: #4b8da1;
      }

      .st92 {
        fill: #7cb5be;
      }

      .st93 {
        fill: #0b0f11;
      }

      .st94 {
        fill: #78b3bd;
      }

      .st95 {
        fill: #c4dee1;
      }

      .st96 {
        fill: #090d0e;
      }

      .st97 {
        fill: #0b0d0c;
      }

      .st98 {
        fill: #32626e;
      }
    </style>
  </defs>
  <path class="st7" d="M467.79,200.29c101.13-1.98,214.25,7.83,311.2,37.21,40,12.12,126.03,41.68,126,93l-105.68,898.32c-8.27,28.42-50.72,52.46-76.35,63.65-109.64,47.87-278.69,48.02-393.18,17.25-36.12-9.71-104.85-36.14-119.97-73.03-4.65-11.34-5.36-27.75-6.81-40.19-33.74-289.36-60.69-579.58-94-869-2.97-55.05,79.35-82.67,121.99-94.99,76.1-21.98,157.7-30.66,236.79-32.21Z"/>
  <path class="st80" d="M279,400c2.7.33,6.93,1.21,9,3,3.64,1.58,8.7,3.25,12,2,139.44,25.72,285.46,29.99,425,3,6.29-.71,5.11,11.87,1,14-1.23.9-2.49,1.68-3.85,2.04-14.87,3.86-30.93,6.45-46.15,8.85-32.54,5.14-60.93,6.34-92.62,7.26-4.3.12-9.7.37-13.37,1.86.04,1.3,2.55,1.78,3.58,1.92,45.63,6.32,122.62-2.48,168.42-11.92,3.4-.58,2.63,1.9-.23,3.2l-14.42,2.42c-1.13,21.13-2.63,42.45-4.51,63.98l20.02,4.79c3.4.85,5.11,2.39,5.14,4.6-.87.28-1.74.53-2.63.64-3.14.4-25.76-5.05-28.34-6.85-.74-.51-1.4-1.14-2.03-1.8-107.97-23.21-230.86-27.78-345.41-17.9-8.06-1.14-8.92-.84-2.59.9-1.17,1.15-2.54,1.97-4.11,2.44-53.64,6.31-109.35,14.31-157.14,40.98l-4.75.58c-2.39,1.18-2.91-.72-1.38-2.85,11.43-7.7,24.55-13.31,37.48-18.32-2.05-26.79-4.01-53.54-5.88-80.26-1.87-5.22-1.58-8.17.12-12.97l3.66-.6c75.88,21.13,158.38,34.66,237.31,28.49.07,0-1.29.19-1.31-.49.53-.7,1.98-1.1,2-2-19.2-2.1-38.9-3.73-59.1-4.9-39.18-3.74-78.99-7.59-116.9-18.1-5.76-2.01-11.76-3.34-18-4-2.48.58-7.8-.8-9-3-7.72-3.39-10.06-7.36-4.27-13.68,4.5,1.79,8.92,2.68,13.27,2.68Z"/>
  <path class="st69" d="M789,1025c1.49-2.78,5.23-.83,5.45,2.01,2.49,1.01,4.67,2.34,6.55,3.99-6.88,64.35-13.55,127.35-20,189-1.45,17.96-49.52,45.09-65,52-42.17,15.07-87.33,28.77-133,32-45.89,5.96-92.93,6.26-139,2-62.38-3.55-125.77-17.9-181-46-9.56-5.86-24.07-16.56-30-26-4.63-10.63-6.99-21.05-8.82-32.87-3.06-19.79-4.78-41.74-6.09-61.75-.03-.44.38-.9.91-1.38-4.14-21.49-6.72-44.1-7-66,3.67.08,4.78-1.16,3.35-3.74,3.25-3.36,4.35-5.92,3.3-7.66l1.53-4.33c-2.18-2.25-1.56-6.65,1.82-6.27,2.08,17.31,3.75,34.65,5,52,2.46,21.83,5.35,43.65,8.68,65.46,1.61,9.05,3.68,20.55,9.32,27.54l2.64.31c7.93,10.12,18.82,17.55,29.78,24.07l.58,2.62c22.02,13.83,49.37,21.32,75,28,56.39,13.22,115.92,16.74,173,15,26.58-.92,52.25-3.25,77-7l2.85-2.64,47.83-10.05c46.18-11.6,107.66-28.1,115.89-82.5l2.42-1.81c4.94-28.57,8.94-59.57,12-93-.11-6.55,1.04-13.77,3-20-.58-1.81-.58-3.48,0-5,4.04,1.21,5.44.72,4.19-1.48-2.15,1.89-3.95,1.19-3.19-1.52-.84-4.68.05-10.23,1-15Z"/>
  <path class="st62" d="M851,595c-1.1,11.49-2.77,22.82-5,34-.49,2.74-2.2,1.86-4.17.69-3.76,2.55-9.15,4.27-8.83-1.69,3.4-21.24,4.64-42.36,3.72-63.37l-.72-.63c-.64.62-1.35.86-2.16.63-5.11-8.88-9.56-15.4-18.29-21.5-19.7-13.77-43.15-22.39-65.9-29.57l-1.65-2.56-5.78-2.72-22.22-5.29c.45-1.35,1.23-2.69,1.36-4.14,1.31-15.12,2.02-30.1,3.1-45.39.39-5.48.02-11.83.55-17.46l17.56-2.95-.56-1.04c50.16-10.34,89.15-26.85,132-54l1.43.08c-7.4,70.24-15.54,142.55-24.43,216.92Z"/>
  <path class="st40" d="M162,384c21.66,12.12,45.33,22.46,71,31,.77-.44,1.43-.75,2,0-4.21,1.82-.53,4.6-4,5.49,2.91,6.68,3.37,17.17,3.95,24.99,1.44,19.5.36,38.9,3.95,58.12.33,1.76.04,3.63.11,5.4l1.99.98c-13.01,3.83-25.25,9.82-36.92,16.59-.4.23-5.17,2.56-3.08,3.42-3.03,4.48-7.11,8.47-12.25,12-3.5,4.47-7.42,7.81-11.75,10-4.47,7.61-4.64,16.2-3.59,25.79,4.25,49.79,9.12,99.53,14.59,149.21l-.62,6.74c3.77,6.08-1.52,15.59-8.04,16.52-3.04.43-2.72-5.27-1.76-6.23,1.12-1.12.84.61-.5.07-.37-.15-.61-.62-.82-1.19.86-5.69.43-11-1.27-15.91-11.86-89.38-20.41-179.67-28.01-269.99.25,2.08-.08,3.75-.99,4.99l-9.99-96c8.17,6.51,16.88,12.84,25.99,18Z"/>
  <path class="st95" d="M742,249c28.01,6.67,55.01,15.33,81,26,20.17,9.31,59.49,29.47,58.04,55.54-1.49,26.69-40.37,51.85-62.04,62.46-28.86,11.26-59.12,22.94-90.17,29.5l-2.83-.5c.28-4.06,3.19-11.47-1-14,27.63-6.26,53.3-14.6,77-25l.74-2.5c26-11.69,76.84-36.95,42.72-68.56l-17.42-13.36-.03-2.58c-28.71-17.07-62.2-26.04-94.65-34.43-1.12-2.31-.13-3.2,1.72-4.07-.07-3.53.58-6.37,1.93-8.5.27-1.66,3.78-.97,5,0Z"/>
  <path class="st64" d="M281,243c4.15,1.12,1.1,4.52-2.85,3.6-.71,1.65-2.14,2.44-4.28,2.39,1.65,1.73.7,8.93-.54,9.35-27.7,6.49-55.92,13.57-80.32,26.65.61.66.83,1.39.56,2.2l-16.75,9.63c-42.04,27.42-8.19,57.88,23.29,72.49l.9,2.67c24.5,12.07,50.5,21.41,78,28-.12,0-.89,1.19-2.31.94-3.73-.68-7.13-1.7-10.68-2.94-.26,4.67-4.84,9.87,2.99,9.01l1,3.99-2.58.4c-17.51-5.26-34.65-10.73-51.42-16.4-25.17-10.29-54.8-24.86-72.51-45.99-26.52-31.63-.33-54.9,27.51-71.01,32.65-14.6,70.61-30.97,107.01-35.72.95-.12,1.96.23,2.99.72Z"/>
  <path class="st43" d="M742,248c.87.28.86.62,0,1-1.36-.34-3.62.34-5,0-3.06.26-6.18.46-9.21-.12-46.53-9.04-90.19-16.98-137.7-21.05-102.2-8.77-208.07-5.26-307.21,16.24l-1.88-1.07c-18.53,2.91-37.82,8.01-55.77,13.73s-33.22,12.58-50.22,20.78c-1.02.49-3.41,2.5-4.01.49,53.4-30.91,144.02-45.99,205.5-52,115.83-11.32,252.34-5.8,365.5,22Z"/>
  <path class="st13" d="M812,941v-1l1.44-25.43c8.75-88.81,18.2-175.79,28.34-260.96,1.87-4.65,2.94-9.52,3.22-14.61-2.54-1.12-1.78-3.33,1-4-2.78-.88-2.92-5.05,0-6,1.57-11.09,3.49-23.02,5-34-12.12,112.98-22.76,226.57-37.13,339.37-.26,2.02-.59,5.05-1.87,6.63Z"/>
  <path class="st55" d="M175,727c1.87,4.63,2.27,9.73,1.22,15.31,2.41.86,1.63,2.06-.22,3.69-.07.74-.15,1.17-1,1-10.03-94.95-19.81-189.96-29-285l.99-4.99c4.72,47.81,9.07,95.69,14.02,143.49,4.37,42.18,9.54,84.35,13.99,126.51Z"/>
  <path class="st49" d="M270,411c2.77.76,6.06,2.25,9,3,6.19.7,12.19,2.03,18,4,56.88,12.82,115.21,18.43,173.48,21.02,1.08.08,2.54.84,2.52,1.98-86.35-5.23-176.38-13.03-257-46,.94-2.08,3.09-.35,4.37.13,17.21,6.44,31.94,11.02,49.63,15.87Z"/>
  <path class="st50" d="M812,941c-.34,3.05.33,6.4-.01,9.49-9.88,89.87-21.3,179.62-30.99,269.51.01-.18-1.34-.78-1.05-3.44,6.95-61.86,14.06-123.71,21.05-185.56-.3-1.93-.56-3.86-.68-5.79s-.2-3.83,0-5.72c2.64-26.24,5.48-53.56,9.48-78.41l2.2-1.08c-.04.33.04.67,0,1Z"/>
  <path class="st66" d="M819,393c-60.82,29.81-156.39,47.3-224,48l-17,1c-2.66,0-5.34,0-8,0-.05-1.63,2.17-1.92,3.45-2.05,13.12-1.36,29.29,0,43.04-.96,36.34-2.54,74.07-8.92,109.51-16.99,32.87-7.49,57.76-15.55,88.63-28.87,1.28-.55,3.43-2.18,4.37-.13Z"/>
  <path class="st30" d="M471,443c.74.03,3.09-.31,1.5,1-80,4.4-161.13-5.44-237.5-29-.55-.17-1.46.17-2,0-1.21-.85-.88-1.19,1-1,66.26,20.68,151.19,31.87,220.54,30.04,5.42-.14,10.46-1.28,16.46-1.04Z"/>
  <path class="st74" d="M874,378c.51-.32,1.46-3.45,2.98-1.52-2.8,21-5.5,42.08-7.86,63.14-5.81,51.84-11.06,103.84-18.12,155.38,7.35-68.53,14.84-137.05,22.99-205.51.36-3.06,1.11-8.66.01-11.49Z"/>
  <path class="st23" d="M198,952c-.07.74-.14,1.17-1,1-7.4-68.64-14.75-137.36-22-206l1-1c10.33,68.28,17.76,137.08,22,206Z"/>
  <path class="st68" d="M444,1306c.87.28.86.62,0,1-55.95-4.32-132.89-17.49-181-47,.57-1.98,3.02-.02,4.02.48,54.47,27.77,116.13,40.89,176.98,45.52Z"/>
  <path class="st5" d="M716,1272c-39.93,17.82-88.56,28.14-132,33-.74-.07-1.17-.14-1-1,46.25-5.16,85.14-15.89,128.63-31.87,1.28-.47,3.42-2.21,4.37-.13Z"/>
  <path class="st83" d="M583,1304l1,1c-45.8,5.12-94.04,5.55-140,2v-1c44.61,3.39,94.49,2.97,139-2Z"/>
  <path class="st67" d="M210,1054c3.03.77,3.47,6.88,1.29,8.44.72,2.93.62,5.45-.29,7.56,1.91.56,1.91,1.44,0,2-.28.87-.62.86-1,0-4.32-39.65-8.72-79.35-13-119l1-1c5.88,25.25,8.78,51.9,11.39,77.84,1.13,8.04,2.1,16.11.61,24.16Z"/>
  <path class="st19" d="M233,1234c-3.76-5.99-6.52-13.79-7.72-20.78-4.01-23.3-5.61-50.35-8.28-74.22.18-2.15.35-2.77,2-1,2.74,25.62,3.28,70.05,13.51,91.99.48,1.03,2.5,3.4.49,4.01Z"/>
  <path class="st85" d="M823,275c-.93,2.04-3.09.43-4.37-.13-24.52-10.64-50.66-19.38-76.63-25.87v-1c27.25,6.69,55.54,15.25,81,27Z"/>
  <path class="st80" d="M234,414l-1,1c-23.35-7.33-47.32-17.25-69.03-28.47-.5-.26-4.18-1.77-1.97-2.53,20.13,11.4,49.83,23.08,72,30Z"/>
  <path class="st3" d="M212,1072c1.4,22.08,4.66,44.06,7,66l-2,1c-2.49-22.3-4.57-44.7-7-67h1c.24-.87.57-.85,1,0Z"/>
  <path class="st80" d="M595,441c-4.82,1.84-11.59,1-17,1,4.84-1.88,11.56-.94,17-1Z"/>
  <path class="st82" d="M715,503c10.74,2.27,22.44,4.99,33,8,22.75,6.5,63.23,21.91,79.03,39.47,2.31,2.57,8.17,13.41,8.97,13.53,1.96,5.42,2.35,13.63,1.7,19.54-16.76,153.87-33.99,307.69-51.7,461.46.28,7.37-1.2,14.95-3,22-1.56,31.65-5.23,62.99-11,94-2.29,11.34-6.42,25.78-13.58,34.92-31.87,40.65-107.69,52.05-155.42,62.08-26.05,3.91-52.61,6.96-79,6-.59,1.54-1.41,1.53-2,0l-18,1c-50.59.94-101.63-3.51-151-15-25.76-6.66-52.3-14-75-28-10.53-5.82-26.45-16.88-33-27-.99-.51-1.55-1.4-2.05-2.34-1.02-1.9-1.78-3.92-2.46-5.97-2.27-6.83-3.82-13.92-5.15-21.01-3.91-20.91-5.93-42.82-7.34-63.67-11.13-97.23-21.92-194.55-31-292-9.08-79.84-17.09-159.52-24.02-239.03-.38-6.56.62-13.23,4.02-18.97,6.6-8.7,14.77-16.1,24-22,43.24-27.64,115.48-38.88,166-44,115.56-11.44,234.19-6.6,348,17Z"/>
  <path class="st22" d="M802,383c2.46.87-.97,1.55-1.66,1.83-25.52,10.26-48.48,17.09-75.34,23.17-126.84,28.72-297.68,23.19-425-3-3.64,1.1-8.39-.36-12-2-2.87-.54-8.45-2.97-9-3-23.88-5.36-47.04-13.65-69.68-22.82l-8.32-5.18c2.13-.02,4.34,0,6.34.79,31.1,12.27,58.07,21.79,91.05,29.04,65.41,14.37,133.8,19.69,200.59,20.71,67.6,1.03,136.27-.62,202.98-12.74,33.33-6.06,61-14.87,92.71-25.89,2.35-.82,4.87-.9,7.33-.91Z"/>
  <path class="st36" d="M367,486l-4-.99c117.53-10.23,236.86-5.86,352.56,16.94l-.56,1.05c-106.49-22.5-239.81-27.96-348-17Z"/>
  <path class="st64" d="M272.01,409c1.36-4.13-2.03-3.01-2-6l7-.53c3.26,3.82-2.34,5.1-4.99,6.53Z"/>
  <path class="st64" d="M297,418c-5.99-1.35-12.04-2.48-18-4l13.86,1.64,4.14,2.36Z"/>
  <path class="st64" d="M300,405c-1.12,2.99-1.95,1.49-3.66,1.18-3.03-.55-6.37-.61-8.34-3.18,3.93.74,8.09,1.2,12,2Z"/>
  <path class="st18" d="M812,940l-2.87,17.63c-2.17,24.52-5.37,48.93-8.13,73.37-2.21-.4-2.71,3.69-5,2-.4-.29,3.11-7.29-5.99-2l2.98-4.51-3.99-1.49c13.61-129.6,27.27-252.93,41-370l1.62-.26c2.94-3.3,4.91-5.26,9.26-3.91-.13-5.23,1.25-9.17,4.12-11.83-2.36,32.89-7.37,65.7-10.99,98.51-7.47,67.48-14.59,135.08-22.01,202.49Z"/>
  <path class="st72" d="M175,727c.42,1.57,3.76,4.91,3.89,5.64.09.53-3.62,7.57-1.88,10.35l.99-3,3.98,2.51c-1.8,1.98-4.5,3.31-3.97,6.5,5.24-3.4,12.16-7.07,8.98-13.99l-4.99,3.98c4.56-4.96-.53-4.03-1.01-5.5-1.02-3.16,4.27.14,5.02-.97l1.99-5.51c3.39,27.59,6.12,55.28,8,83,8.8,79.98,17.47,159.98,26,240-1.01,1.79-1.77,6.83-1.74,8.72.05,2.98,3.04,1.24-.3,6.53-.78,1.24-2.93-.04-.94,3.23-6.3-.45,2.26,2.53.97,4.52-2.34-1.71-3.85,1.96-4.49,1.98-.23,0-2.23-2.34-3.5-2.98-.25-.12-.68.09-1,0,0-.67,0-1.33,0-2,.49-3.3.85-6.52,1.09-9.67,6.33,1.24,4.32-10.14.29-6.6-.67.59-1.57.54-2.39.27-3.31-33.77-8.41-68.23-12-102-7.29-68.56-14.75-137.43-22-206-.63-5.92-.36-12.92-1-19Z"/>
  <path class="st31" d="M833,628c2.11,2.99,2.19,4.99.22,6.03,1.43,4.25,1.03,7.24-1.22,8.97.86.33.86.67,0,1,2.93.63,1.63,5.79-.47,6.78l-.53,3.22c1.11,1.43.53,1.97-1,1-3.21,15.37-3.16,37.17-5,53.5-11.89,105.5-24.1,211.01-36,316.5-.55,4.86-.47,10.31-1,15,2.52,1.45,1.61,2.73-1,3-.18,1.63.18,3.37,0,5-.78.09-1.11-.91-1-3,17.61-153.68,33.29-307.77,50.99-461.51-.06-6.53.54-13.11-.99-19.49.09.01.56-.85.96-1.01,4.36,20.64-1.69,43.92-3.96,65.01Z"/>
  <path class="st24" d="M360,1273.99c-28.93-.16-57.33-7.77-82.3-22.18-12.89-7.44-28.03-18.65-33.68-32.8,21.09,20.53,47.17,34.62,75.23,43.26,12.04,3.71,25.78,5.65,37.4,9.6,1.31.45,3.05.29,3.37,2.12Z"/>
  <path class="st6" d="M228,1102c-.28.87-.62.86-1,0-1.96-17.27-3.09-34.73-5-52-8.84-79.95-17.73-159.99-26-240,.28-.87.62-.86,1,0,9.99,97.19,19.68,194.93,31,292Z"/>
  <path class="st97" d="M673,1269.01l55.99-21.01c.38,2.11-1.31,2.8-2.67,3.82-11.15,8.4-36.26,18.43-50.13,18.97-1.6.06-2.73.08-3.19-1.78Z"/>
  <path class="st48" d="M504,1265l18-1c.67,0,1.33.02,2,0l2,1c-1.04,1.66-3.79,1-5.49,1.02-53.34.66-116.18-1.59-167.51-16.02,49.24,10.3,100.63,14.52,151,15Z"/>
  <path class="st58" d="M784,1068c-3.5,31.16-5.21,62.68-10.95,93.56l-1.05-.56c5.99-29.62,7.5-63.65,11-94,.56-.77.89-.44,1,1Z"/>
  <path class="st21" d="M245,1195c-2.76.31-5.03-7.59-5.72-9.78-7.66-24.46-9.34-57.32-12.28-83.22h1c2.41,20.7,6.94,77.47,17,93Z"/>
  <path class="st45" d="M353,1250c-25.67-5.37-49.67-13.32-73.03-25.47-.5-.26-4.18-1.77-1.97-2.53,22.75,12.58,49.97,20.97,75,28Z"/>
  <path class="st86" d="M603,1258l3,.99c-11.88.68-23.66,2.97-35.5,4-13.82,1.21-30.84,2.78-44.49,2.01-.85-.05-1.73-.04-2-1,26.45-.61,52.72-3.28,79-6Z"/>
  <path class="st18" d="M788,1040l2.02,1.39c-.97-5.04,1.9-3.16,5.98-3.38.32,1.62-2.77,1.22-2.92,2.45-.32,2.73,6.52,7.3,4.92,9.52-.44.6-6.59.21-5.02,7.37.14.66,4.77.98.04,3.65-1.9-4.44-.11-6.63-6-4-.57-5.83.59-2.94,1.99-3.63,1.17-.58,1.98-2,2.98-2.87l-3.97.5c0-3.43,2.16-3.53,5-3.51-1.34-5-4.92,1.33-6.01-4.49.17-1.55.97-2.73,1-3Z"/>
  <path class="st42" d="M754.01,1227.99c-1.42-1.42,4.79-7.47,6.06-8.43,1.01-.76,8.99-5.86,8.91-2.07-.02.92-13.91,11.56-14.97,10.49Z"/>
  <path class="st18" d="M787,1048c-.74,6.58-2.3,13.74-3,20l-1-1c.84-7.3,2.2-15.06,3-22l1,3Z"/>
  <path class="st18" d="M795,1031.01v4.99c-.29.24-3.86-.85-3.99-1.01-.9-1.01,3.01-4.93,3.99-3.98Z"/>
  <path class="st97" d="M851,430c2.27,30.87-1.72,63.95-9,94-.19.64-2.44,2.33-2.01,3.99h-.98c-.05-.66.03-1.33-.01-1.99l-.95-1.55c.54-31.65,4.19-63.14,10.95-94.45.56-.08,1.43-.07,2,0Z"/>
  <path class="st59" d="M849,430c-3.77,18.87-6.28,38.3-8,57.5-1.09,12.14-2.73,26.5-2,38.5l-2,1.5c1.65-26.97,3.13-55.02,7.28-81.72.4-2.6,2.68-16.58,4.22-16.69.2-.01.44.92.51.91Z"/>
  <path class="st4" d="M851,430c.09.01.32-.95.5-.94,2.2.13,1.63,11.08,1.54,13.48-.92,25.38-4.45,54.64-9.57,79.44-.16.8-.37,4.6-1.47,2.02,5.37-18.31,7.91-52.82,8.99-72.51.39-7.13-.26-14.36.01-21.49Z"/>
  <path class="st18" d="M846,629c-.26,1.86.28,4.16,0,6l-2.3,1.92c-.34,7.61-5.78,14.47-12.7,17.08-.74-3.51.72-6.87,1-10,4.92-.77,4.92-1.1,0-1,.48-4.92.47-10.08,1-15,1.43.7.02,3.45,1.98,2.44s3.91-.85,4.08-.97c.86-.61.55-2.54,1.46-2.5,1.37.06,3.59,2.26,5.47,2.04Z"/>
  <path class="st28" d="M814.51,498.01c4.01-1.2,4.63,5.19,1.98,5.98-4.01,1.2-4.63-5.19-1.98-5.98Z"/>
  <path class="st14" d="M161,410c.74-.45,1.63-.93,2.41-.33,4.84,3.72,11.34,109.39,10.59,121.33-.17-.02-2.18.03-3,0-7.09-39.68-11.62-80.75-10-121Z"/>
  <path class="st90" d="M197,810h-1c-2.85-27.63-5.21-55.36-8-83-5.34-52.8-11.61-105.56-16.07-158.49.17-6.86,1.11-11.29,5.07-16.51-3.3,8.04-3.44,15.85-2.99,24.49,3.1,59.2,11.93,122.59,17.99,182.01,1.75,17.14,3.24,34.44,5,51.5Z"/>
  <path class="st81" d="M194,507c-.68-.28-1.32-.71-2-1-3.02-22.23-4.9-44.87-5.65-67.93-.35-2.95,1.12-9.96,4.72-9.33,4.18,25.52,5.52,51.28,4.04,77.29l-1.11.97Z"/>
  <path class="st80" d="M161,410c.86-.76,1.81-1.81,2.99-1,1.27.87,4.57,26.64,5,30.5,2.67,23.45,5.07,50.49,6,74,.24,6.15-.14,12.35,0,18.49-.78.26-.86-.98-.99-1-2.07-31.13-3.34-62.5-7.01-93.49-.87-7.34-1.67-16.7-3.32-23.71-.42-1.76.06-4.47-2.67-3.8Z"/>
  <path class="st51" d="M171,531c-.07,0-.41,1.08-.96,1.01-1.22-7.43-2.96-15.16-3.91-22.64-3.35-26.16-6.43-58.59-7.16-84.84-.1-3.71-.73-12.07,2.04-14.54.56,40.46,4.31,80.99,10,121Z"/>
  <path class="st80" d="M194,507c2.27-9.75.37-20.51,1.04-30.54l-4.05-47.46c-3.7,1.82-4.33,5.76-4.06,9.52l5.07,67.48-1.14.65c-1.9-18.82-4.41-38.15-4.9-57.11-.12-4.59-.89-16.63,1.47-19.61s4.5-1.92,5.55,1.59c.53,16.98,3.42,34,4.06,50.94.2,5.35.8,19.91-1.15,23.93-1.23,2.54-.76,1.07-1.89.61Z"/>
  <path class="st85" d="M737,249c1.18,1.98.49,7.57-.15,9.35s-3,.93-2.84,2.63c26.03,6.75,52.89,13.92,77.35,25.15,6.64,3.05,12.16,6.24,16.64,9.86-2.5-.18-5.03-.45-7.36-1.42-28.99-12.06-53.87-21.97-84.64-29.58-24.13-5.97-48.68-10.17-73.21-13.88,44.95,8.02,88.61,20.07,130.98,36.17l3.23,2.71-1.47,1.65-56.71-16.84-7.64,112.65c31.37-5.52,62.29-15.85,90.09-30.86,2.22-.67,3.3.09,2.73,2.41-.96,1.65-2.06,3.32-3.68,4.38-20.51,13.33-55.65,23.16-79.72,28.83-76.83,18.08-161.63,19.82-240.24,18.2-94.36-1.95-194.13-6.33-282.6-41.83l-2.76-2.57,1.43-1.68,64.69,17.8-3.31-15.13,1.24-.83c-2.72-28.16-5.02-56.6-6.89-85.32-1.83-2.09-2.32-5.03-1.48-8.82l-65.98,18.58-1.69-1.6c1.09-1.54,2.31-3.09,4-3.98,19.61-10.29,56.38-18.4,78.75-22.92,78.6-15.89,157.68-21.49,237.75-22.57-72.44-3.79-146.72,1.21-217.76,14.51-37.84,7.08-69.11,16.94-105.1,29.87-2.44.88-5.06,1.02-7.64,1.09.47-2.6,22.46-11.23,28.23-13.27,16.72-5.93,34.41-10.12,51.77-13.74.39-1.82-1.67-.63-1.99-1-.26-.29,1.63-2.49,1.83-3.71.69-4.3-3.78-5.1-3.81-5.78-.14-2.59,6.14-.19,6.77-.66.59-.44.62-2.48,1.76-2.74.95-.22,2.97,1.29,3.45.91.26-.21-.22-1.69,0-2.01,1.04-1.49,7.58-2.21,9.81-2.69,134.43-28.69,312.86-23.71,446.19,8.69Z"/>
  <path class="st87" d="M193,285c51.22-22.55,109.07-33.99,164.63-40.87,56.37-6.98,114.2-10.5,170.86-6.12,1.39.11,13.45,1.56,11.51,2.98-91.98,2.2-183.99,5.52-273.82,27.69-21.19,5.23-43.39,11.14-63.18,20.32l-.33,2.36c-29.65,15.67-55.56,31.95-16.94,57.47,9.04,5.97,19,10.52,28.84,14.82l.42,2.35c78.75,32.85,181.67,39.67,266.54,41.96,99,2.67,255.39,1.76,342.46-48.96l1.46-3.2c22.33-13.64,28.85-28.63,6.42-45.38-10.27-7.67-22.19-12.95-33.96-17.89l-.92-2.53c-50.6-20.31-104.9-30.38-157.99-42.01l8.48-.97c61.97,8.3,124.52,20.48,180.52,48.98,14.53,11.73,36.91,22.38,29.28,45.78-5.78,17.73-38.81,34.11-55.28,41.22-94.6,40.86-222.36,43.92-324.54,41.04-84.43-2.38-200.3-14.91-276.46-52.04-33.36-16.27-70.07-45.44-25.31-76.81,2.57-1.8,17.14-9.2,17.31-10.19Z"/>
  <path class="st62" d="M846,635c-.28,1.82-.84,3.08-1,4-.75,4.34-2.62,9.21-2,14-4.97.2-9.17-3.38-7,3.99l-.99-1.99c-6.57,1.82-.88,3.2-1.01,3.48-.41.93-2.27,1.57-1,3.5-4.16.87-.34-5.4-3-6.99.08-.37.91-.73,1-1,2.04-6.22,1.58-2.53,2.8-3.23,1.78-1.03,9.97-10.87,8.19-13.77l-2,3.99c-1.57.31-.94-1.79-1.99-2.55-1.34-.97-5.11,2.3-3.99-5.44,4.31.95,7.64,1.68,11.99,1.99Z"/>
  <path class="st69" d="M210,1054c3.5-7.51,6.37-1.36,8.39,1.66.37.56,1.55.29,1.6.36.21.32-4.39,5.87-4.71,6.08-1.37.85-3.19-.24-3.27-.1-1.14,2.04,2.78,6.79-1.01,8,.02-4.55-.55-11.38-1-16Z"/>
  <path class="st41" d="M714,658c2.47.33,2.28,1.56-.56,3.67l-1.07,4.82c-.07,30.17-1.86,59.34-5.38,87.51l.96,2.03c-4.15,6.38-3.99,18.05,4.32,20.79l.71,2.17c.32,4.7-4.74,3.1-6.94.51-6.53,111.96-14.49,224.61-23.89,337.95,6.67,1.67,8.28,3.19,4.83,4.54-32.56-9.73-73.54-15.07-107.51-17.99-81.99-7.06-222.14-6.8-296.49,29.99-4.59-.59-.46-3.66,2.35-4.57-10.16-111.95-20.34-226.15-30.54-342.6l-.81-22.83c2.3-7.23,5.72-3.48,8.55,1.23,2.68-.35,5.01.02,4.78,3.05,3.68,3.23,8.56-5.06,8.89-8.69,2.46-.91,4.63-2.39,6.5-4.45,5.56,1.94,6.61-3.92.61-1.81-5.03,5.74-5.45-.47-4.78-5.23-9.93,2.43-10.15-7.43-1.56-10.33,4.88-4.26-4.34-6.1-7.86-2.22-7.35,1.64-19.27-12.65-8.61-10.96,3.87,4.82,7.61,5.62,11.22,2.42.98-6.56,4.48-5.02,10.5,4.63,1.72,2.15,3.25.63,4.6-4.55l-1.07-3.34c2.44-3.64,7.57-8.12,10.77-1.98,1.71-3.29,4.19-4.23,7.63-3.25-1.73-3.54,8.22-5.46,9.37-4.46,1.61,1.41-.28,10.56-4.37,8.86-1.65,3.34-4.02,5.25-7.11,5.74,1.61,4.8,3.23,7.29,7.35,3.69-3.37-7.79,5.8-14.01,8.2-4.89,6.27,2.7,5.2,5.89-3.23,9.59,2.17,1.88,2.04,3.53-.39,4.94l-.81,2.32c-19.33,6.42-5.88,35.47,11.51,24.81l2.3.87,5.1-3.02c3.68-.16,4.96-1.24,2.15-4.32.51-6.22.78-11.16-2.25-16.98,2.61-4.02,1.91-5.89-2.1-5.6-1.09-.34-1.58-9.21-1.2-10.17,1.83-4.62,4.09-4.62,5.3.09,2.33,4.42,6.08,5.15,10.69,5.39,1.17,1.24,1.76,2.82,1.77,4.73,1.72-5.79,10.36-8.61,8.1-.62l2.97.85c1.05,3.41,2.92,3.33,5.6-.24-2.35-3.33.96-9.49,4.61-11.24l.77-2.76c-1.66-1.64-3.46-4.77-3.9-6.75-.32-1.43,2.72-9.5,4.48-10.3,4.88-.49,4.57-6.97-.63-8.8-3.5-.82-6.01-2.36-3.03-5.7,2.81-1.28,6.34-4.14,8.12-6.34.6-.74-2.15-1.96-3.1-2.05-2.7-3.11,4.06-8.9,7.34-9.09-1.41-1.75-2.08-3.41-2-4.97,9.44.76,18.83,1.91,28.19,3.45.97,4.11,3.49,4.29,7.55.53,5.81.47,11.29.43,16.46-.1,20.91,1.32,40.57,1.72,61.51,1.98,1.69.02,4.45-.64,5.49,1.02l-2.27.5,63.06-.9,5.21.39c.57-.56,1.14-1.01,1.75-1.06,18.62-1.47,37.62-2.72,56.32-3.48.11,0-1.96.24-2.08-.46l46.33-6.17c16.88-3.04,34.03-5.69,50.67-9.83Z"/>
  <path class="st32" d="M723,521c1.77,2.8,1.64,5.03-.38,6.68.65,2.31-.16,16.15-1,16.43-.48.16-1.04.06-1.62-.11l-3.96.74c-21.37-6.93-43.71-10.99-66.11-12.6,23.74,3.75,47.18,9.37,69.81,17.47.65.23,1.2.79,1.77,1.38s1.05,1.29,1.49,2.01c.74,3.01-1.89,2.91-4.46,2.42.09,3.67-.53,7.36-1.83,11.01,2.29,5.69,1.83,9.74-1.36,12.15,2.9,4.5,2.69,7.34,1.97,12.66l-3.91,4.43c3.36,1.45,3.57,4.65-.04,6.04l1.66,3.96c-1.03,3.54-.75,7.29.85,11.27-2.85,3.75-3.79,5.8-1.91,10.8.49,3.95-.09,8.18-1.1,11.52,2.92-.78,6.9-1,5.14,2.75-56.62,15.46-120.29,21.7-179,23-21.66-.94-46.37-.82-68,0-8.79-.24-17.59-1.49-26-2-17.96-2.08-35.96-3.41-54-4-15.12-1.72-30.03-4.35-45-7-.19-2.44,3.98-.48.83-.64-2.65-.13-8.31-.61-7.99-2.88.36-2.56-.46-1.24-.59.95-14.63-2.09-29.14-5.07-43.52-8.94l.13-1.83c-5.73.33-13.85-1.91-20.04-4.1l-.23-1.45c-6.41-.11-16.01-3.76-10.82-11.44-2.11-7.59,1.05-4.57-.34-2.48-2.11,3.18-5.67,1.22-6.22-2.23-8.42-2.4-1.42-5.81,4.17-5.6-.37-5.94,1.92-6.79,6.87-2.56,1.18-3.24,6.04-1.91,7.2.17.18.33.84,6.66.42,7.18-.34.42-1.1-9.04,5.13-6.14l4.26-.55c9.53,3.32,19.51,5.63,29.59,5.87l-20.29-5.2c-12.93-3.2-23.75-9.36-33.56-17.13-.69,4.03-6.84,2.28-7.14-2.06-.07-1,8.66-9.52,11.31-8.29-.22-4.52-2.02-5.56-5.42-3.11-1.17-.15-6.06-6.94-5.32-8.69,2.02-2.23,4.25-4.23,6.69-6.01-5.07-7.59-4.59-8.89,4.41-10.16,5.21-3.74,12.07-5.69,17.07-1.54.35.14-7.35-2.15-4.53-3.6,18.85-5.02,37.83-9.53,56.92-13.54,2.34-2.63,5.88-4.17,10.6-4.62-22.53,2.55-44.8,6.93-66.82,13.14l-2.77-.52c-3.1.18-5.94-.09-4.75-3.96l-2.62-1.36c-7.04,2.74-6.92-5.46-.51-6.58l1.08-2.42c-4.4,1.86-6.14.2-4.34-4.31-4.79-3.32-3.62-5.39,3.5-6.22,2.57,1.14,6.05.87,6.91-1.66,8.11-1.23,16.03-3.06,23.73-5.49,128.62-25.02,296.36-21.92,424,9Z"/>
  <path class="st46" d="M714,658c34.89-8.7,73.66-22.06,101.51-44.99l1.47,3.47c-19.32,162.7-31.56,326.47-51.99,489.01-2.19,17.42-4.42,38-9.28,54.72-.97,3.36-2.01,8.68-4.71,10.78-1.82-29.31-39.72-40.78-63.5-48.02-.7-.21-.46-.97-.51-.98,2.16-1.37-.95-1.18-2.01-1.48-1.99-.55-3.85-1.63-6-1.53,1.16-5.16,2.36-11.52,2.75-16.77,6.13-81.47,11.67-163.2,17.27-244.71,1.9-27.7,5.6-54.92,5-82.51,2.99,1.31,5,7.3,8.99,4l1.7-1.81c29.78,1.7,18.31-40.12-5.36-22.81l-2.34-.38c-2.72-5.48.15-11.35.41-16.86,1.01-21.16,1.46-42.47,2.65-63.67.22-3.97-.26-15.1,4.44-14.47l-.51-.99Z"/>
  <path class="st17" d="M520,1133c-3.41-.99-6.88-2.03-10.4-3.12-.2,1.03-.79,1.14-1.77,1.08-11.08-.62-22.56-.7-33.38-.76-5.73,1.01-7.13.34-3.59-4.3-4.88-.65-6.62-2.79-5.19-6.42-1.26.6-2.49.58-3.6-.27-1.33,4.1-3,7.26-7.02,3.05-1.77,3.51-4.18,2.7-5.57-.81-1.52-3.84,3.61-6.46,6.64-7.11,2.84-.61,26.71-.73,28.98-.36,3.49.56,6.01,1.05,8.74,3.76,3.18-.35,5.87-1.3,8.09-2.85,17.06-1.63,35.11-.55,51.9,2.04,1.37-.63,3.2-.94,4.68-.84,11.48.79,23.66,1.95,35.13,3.32,23.52,2.81,49.56,5.96,71.08,13.22,3.23,3.48,4.69,3.73,4.37.75,5.35.91,10.66,1.78,15.93,2.62,14.64,3.36,45.28,17.07,54.41,29.09,14.61,19.22-5.93,33.51-21.39,42.43-23.67,13.67-52.58,21.96-79.2,27.8-88.75,19.45-204.55,19.59-292.64-2.99-31.25-8.01-129.12-40.63-67.17-80.33l2.6-.65c3.13,4.75,3.02,7.88-.32,9.41,2.6.78,3.53,2.94,3.11,5.47,3.58-3.88,7.18-.22,7.6,3.77l.78,1.04c16.28-12.05,41.44-19.05,61.58-22.7,55.18-10.01,109.91-14.69,165.65-15.34Z"/>
  <path class="st60" d="M240,636c.57.85,1.98,2.01,4.23,3.48,1.45,8.11,2.49,16.9,3.3,25.67,2.78,30.08,5.34,60.16,7.7,90.27.11,1.4-.08,2.82-.29,4.27s-.55,2.88-.94,4.31c9.97,105.92,20.06,212.38,29.01,318.49,1.27,15.05,3.38,29.92,3.97,45.05.05,1.23,1.12,3.28,1.01,3.43-.18.24-7.44,1.62-4.99,3.04-12.08,5.98-25.02,16.05-31.5,28-1.79-3.96-2.4-8.55-3.18-12.81-4.06-22.3-4.9-45.2-7.32-67.68-17.12-159.07-32.59-318.38-48.99-477.5,1.1-1.18,17.32,13.12,19.68,14.81,7.77,5.56,19.79,13.09,28.32,17.18Z"/>
  <path class="st92" d="M428,676c-1.39,4.32-7.32-.07-9,1.01-.3.19,1.35,4.91-4,3.5l2.99-3.49c-5.05-2.52-8.87,3.93-10.51,4.08-2.51.24-3.21-2.3-5.48-2.08l1.99,3.48c-3.9,3.97-5.16-2.12-8.32.45-2.46,2,.84,6.02-2.15,6.05l-.43-6.35c4.16-.77-1.48-4.35-.08-5.63,1.78-1.63,4.52,1.46,3.49,3.99.68-2.48,5.28-2.77,5.51-3.01,4.01-4.25-15.58-3.37-16.54-3.45-2.2-.19-5.33-2.68-8.45-1.52-.24,1.6,1.63.64,2.33,2.19,1.17,2.57.28,7.29-2.35,5.79-.31-.18,2.48-2.54-.47-1.98l-5.51,5.49c.38,1.34,2.71-.71,2.97-.51.19.15,1.82,4.28,1.8,4.52-.14,1.84-3.78,1.74-3.77,3.47,2.93-.09,3.2,2.83,4.69,4.09.79.66,3.06.72,3.26.99.21.29-1.05,1.93-.95,2.42.59,2.87,2.85-.13,3.47-.13.71,0,1.66,1.49,3,1.57,4.19.25,4.93-2.84.54-4.42,4.36-5.47,3.54-.11,7.49,1.51l.52-3.53c3.79-2.13.97,4.47,3.96,6.02-.67,1.69-3.69,1.25-3.98,1.51-2.16,1.96,2.57,1.65,2,2.98-4.28,1.27-3.11-3.64-5.98-4.98l-.02,5.99-3.5-1.97c-2.15,1.79,1.06,3.83-2.97,2.96-3.55-.76-3.33-4.28-5.56-5.49-1.08-.59-3.13.9-3.95-1.01-1.13-2.62,4.47-.21,3-3.48-3.52,1.25-5.09-2.42-6.53-2.99-1.68-.67-1.32,1.33-1.83,1.64-1.31.79-4.09-.15-2.15,2.32,2.06-1.37,8.8,4.81,9.51,6.54-1.89.16-3.01,3.05-1.9,4.38,3.42,4.09,9.06-6.24,7.89,4.09l-3.99-1.99-.5,2.99c-1.68-2.21-7.44-4.82-9.04-2.03-.52.9.28,2.28-.07,3.07-1.04,2.34-5.88,4.22.6,3.47-4.89,3.67,3.17,2-1.99,4,5.62,2.76,2.96,4.45,1.99,9.51l-2.99-1,1.02,2.48c-5.19-1.33,1.07,3.2-.03,4.52-4.94-4.16-3.77.44,0,2.99-1.78-.93-5.78,3.21-5,4,1.91,1.94,2.01-2.21,2.49-1.99l2,4.99,2.49-5.99c2.23,2.87,1.5,6-1.97,7.43-1.24.51-1.91.63-3.52,1.33-.5.22-2.76-.51-3.36.39-.78,1.18.57,5.48-3.15,4.84,3.11-2.87-.25-4.4,0-7.99l3.99,1.99c-2.24-1.3-.81-4.78-1.02-4.95-.33-.27-2.13.36-2.77-.24-.53-.5.14-2.19-.81-2.9-1.31-.98-4.71.42-5.39-1.4l2.99-3.49c-4.96-3.06-6.07,9.06-9,6.99l-.9-6.27c-2.04-3.48-7.6-.05-10.09-7.73,1.73-.53,3.97.16,6.74,2.08,23.28.55,11.05-25.15-4.42-12.5l-2.31-.58q-3.42,1.21,0,0c1.74,2.31,2.07,8.88,0,11-.83-.76-.67-2.27-1.98-1.99-3.42,3.11.27,7.3-.15,8.52-.27.79-2.17.07-1.87.97.7,2.05,3.1.29,3.75.69.53.32,1.45,2.95,3.25,3.3-5.68,4.6-2.52,9.49,0,15.02.36.79-1.84.19-2.05,1.08-.79,3.35,2.7,6.65,6.05,6.42-2.69,3.93-4.94-2.38-2.99,4.99,1.21,1.25,7.38-8.52,6.97-3.5-.01.16-1.44,1.21-1.7,2.76-1.64,9.87-1.52,3.77-5.27,7.76-.96,1.03,4.15,1.11,1.98,2.98-.94.81-5.78-2.39-5.99-3.99,2.33,2.02,8.89-3.03,6.99-5-.73-.76-4.18,2.66-5.44-1.66l-8.55,1.65-.28-2.31c10.28-9.35,4.71-27.49-10.64-24.12l-2.09-1.58c-5.09-.39,1.75-.84,0-3-.16-.2-4.04,2.13-4.99.5,2.96-2.43,7.08-8.46,10.99-6.51.61-2.73-2.4-2.24-4.04-4.48-.72-.98.02-2.75-1.45-3.51-7.25-.39-1.75,9.08-2.5,9.99-.18.22-4.33-2.45-3.99,2l1.99.99c-4.67-1.45-6.95,7.83-9.49,2.01l-3.5,1.99c2.1-1.1,2.78-5.75,3.01-6,.17-.19,7.15,2.45,3.98-.98-.9-.97-4.68.08-4.88-.06-.26-.19-1.37-3.64-1.11-3.94,1.89-2.23,1.7,2.58,2.99,1.99,1.57-5.3-4.37-1.3-5.98-4.51.86-4.11,5.96-.44,9.29-2.43.38-.23,3.41-4.35,3.47-4.68.22-1.13-1.1-2.96-.77-3.36,1.74-2.1,2.75,4.27,4.99,2.99-2.29-4.85.65-2.52.99-5.99-1.28,1.87-5.81,1.27-6.06,1.47-.96.77-.51,2.86-1.58,3.65-1.31.96-3.86-.57-5.31.34-1.17.74-1.93,3.67-3.54,4.54-.62-.71-3.67-4.97-3.99-4.98s-3.24,4.02-5.5,3l3.01,4.5c-2.74.19-2.07,2.17-.48,2.49,1.45.29,2.6-2.6,4.47-2-2.36,5.5-2.86,3.39-8,3,2.03,2.89-.23,4.32-3.03,3.41-3.96-1.28-5.73-8.18-9.48-10.42l.5,5.99c-4.27-2.32-1.86,2.63-6.48-.02l.5,2.01c-2.81,1.23-8.59-7.44-10-5.99s7.67,7.6,8.74,7.85c2.56.59,6.54-3.82,8.73-3.9.76-.03.41,1.67,1.18,2.06,3.07,1.56,6.13-.29,3,5.65-1.43,2.71-6.32,4.13-6.62,4.42-.14.13-.1,3.67.05,3.79,2.25,1.8,4.4.18,5.92-.34,2.74-.94.71,4.61,1.98,6.46l-1.98,1.99c4.32-.54,1.73-4.69,4.99-3.99l.5,2,1.99-2c5.46,3.48.75,4.35,2.51,8.99-.27.31-7.82-4.56-7,0l3.95.56c.11,1.98,4.98,1.01,4.04,2.93-2.16,4.43-4.15-1.81-5.6-2.24-.82-.24-5.05.26-6.4.23-2.83,3.08,1.86.32,2,.53,1.45,2.09-1.73,2.09-2.49,2.95-1.19,1.35-3.74,4.26-4.58,5.55s.19,2.42.08,2.49c-1.73,1.05-3.91-2.01-5.5-2.03-.68,0-.1,2.77-1.99,2.03-2.94-2.12-.69-2.88.48-4.98-1.18-.5-3.55,1.13-3.88.89-.29-.21-3.72-4.86-4.13-5.88-2.92-.96-1.12,2.54-3.98,1.98-3.54-37.58-5.56-78.3-10.46-115.3-.36-2.72-.39-6.05-1.18-8.56-.84-2.65-4.15-3.11-2.36-4.14,53.29,25.59,129.23,36.28,188,40Z"/>
  <path class="st46" d="M718,642c-1.89-4.24-9.47,3.79-11.99.01l5.99-1.02-3-2.01,2.99-2.49c.55-2.95-1.83-.24-1.99-.48-1.45-2.18,1.81-1.43,2.07-3.43.62-4.76-1.04-7.3-2.07-11.58,1.96-.46-.05,2.21,1.98,1.99-2.42-4.25,1.88-4.89,1.89-5.43.08-3.21-1.43-5.76-3.88-7.56l3.99-.51c-6.81-1.4-.97-2.72-.94-3.02.21-1.94-1.89-3.49-2.09-5.96-.27-3.28,4.53,1.1,3.02-2.01-.98-2.02-2.9.04-3-1.03-.5-5.26,8.53-6.73,3.01-9.98l2.99-3.01c-1.83-1.98-5.28,4.33-5.99,3.5.37-2.7,2.05-5.71,4.99-5.01-3.54-3.18-3.75-6.44.99-8.01-.38-2.9-3.57-.64-3.99-.99-.61-.51,2.62-2.42,2.69-3.49.07-.98-2.95-5.34,1.31-8.01-4.61-1.2.12-2.81-.18-4.78-.04-.25-1.91-4.33-2.1-4.5-.92-.86-3.5.98-2.72-2.21,2.97.86,7.99,4,10.99,2l3.54-.72c11.45,4.61,22.18,10.87,31.1,19.45-9-11.98-21.36-20.45-37.08-25.39l-.56-2.34c2.17-.77-2.12-2.39-.99-4.01.25-.35,1.87,1.58,2,.5-1.59-3.11.59-9.53.01-11.83-.24-.95-2.82-.25-2.01-2.15s4.07-.6,3.98-2.5c-1.93-1.36-5.78,1.55-5-2.01l5-1c34.89,8.45,141.07,38.01,76.91,86.41-21.46,16.19-55.96,27.5-81.91,34.59Z"/>
  <path class="st54" d="M299,512l-.5,3.01c-1.62-5.07-5.89,2.85-8.99-.03l.49,2.01c-4.89-1.93-9.08.57-14.01,1.02l1.01,4.99,2-3c2.38-.33,1.35,7.66.98,7.99-2.18,1.97-1.54-2.5-2.98-1.99.15,2.56-.03,5.34-3.01,4.99,3.61-5.76,1.59-12.95-5.99-7.98v-3.01s-5.01,1.02-5.01,1.02l5,4.49-2.99,3.5c11.51-4.83,5.06,1.5,4.96,4.5-.01.41,3.85.72,2.02,2.5-.31.31-2.96-2.09-4.41-2.05-.18,0-2.63,2.37-2.58,2.55.84,2.95,3.13-.57,4.49-.53.6.02.46,1.64.77,1.76,1.61.65,5.61.91,6.72-.72.24,2.82-2.59,4.1-4.99,4.01l4,2.99-.95,2.41c-14.82,4.01-28.23,10.46-40.25,19.36,27.48-17.33,63.93-26.08,96.16-30.99l4.03,1.23-45,11.01,1.99,5.99-2.99-2.99c1.71,4.48-.5,4.2-4,2.98l3.49-5-9.49,2.02c-.45,1.72,6.36,1.7,3.99,3.99-.39.37-2.02-1.43-2.93-1.58-1.16-.2-1.9,1.21-2.53,1.19-.8-.03-1.7-1.43-2.97-1.5-4.16-.22-8.62,2.29-6.08,6.91,1.28,2.33,2.65-2,4.52-1.01.36.19-2.44,2.51.48,2,.65-4.37,3.27.27,2.51.99-5.85-.43-4.8,1.44-7.5,5-1.49-.99,1.37-4.03.5-4.99-.42-.47-2.44,1.81-3.52,0-.63-1.06,1.47-3.2-.45-4.54l-6.02.55,4.51,7.99,1.48-4c.37,2.17,1.79,6.19-1.61,6.78-2.41.41-4.47-3.16-2.39,2.22-2.19-1.19-4.61.22-4.99,2.52-.06.34,4.21,2.11,3.01,5.48,1.69.46.57-1.39,1.12-1.87.25-.22,4.5,1.07,5.88-.14-.16-3.39-2.63-8.35,1.99-6.97-2.35,4.96.75,3.53,1.02,4.5.61,2.17-1.65.97-2.36,2.74s.46,3.91-.65,5.75l2.99-.99c.59,1.96-2.15,2.71-1.87,4.33.21,1.18,2.46,1.8,1.87,3.67-5.2-.64-3.07-1.19-3.26-2.74-.46-3.82-4.15-.78-5.38,1.13-.6.93-.27,2.53-.36,2.63-.23.24-1.66-.96-2.37-.98s-.91,2.52-2.61,1.99c1.26,2.46,4.19,2.14,5.99,1.98,3.04.4,7.65,7.17,7,10,.24,1.77.91,2.44,2,2,2.92-1.28,10.51,1.68,11,5-4.26,1.08-3.05,4.28-5.5,6.99l-.51-3.99-1.98,1.99c-1.59-3.88,3.12-5.12-1.53-7.98l-.49,2.98c-2.86-1.42-3.44.76-6,1l.99-2.99h-2.98c2.22,6.93-3.03,5.28-8,6.01-.21,2.09,2.84.27,3.86,1.14.63.54-.23,3.72,2.63,3.86.63.03-.69-4.83,2.01-4.99,1.45-.09,1.5,2.9.49,3.97l5,.02-3.99,1.49c3.19,2.23,6.16,4.39,9.99,2.49.64-2.93-2.36-2.09-3.99-3.49-1.38-1.18-.37-2.34.51-2.49.64-.11,6.78,3.19,6.3,4.81-.38,1.27-6.59,3.88-7.82,4.73-.66.45-1.77,5.3-3.26,1.21-.59-1.61.38-3.15.26-4.75-5.17,2.3-1.3,4.57-1.99,7.99,4.38-2.56,2.53,3.34,7.99,2,.51-1.75-2.39-.47-1.99-1.48,1.68-4.23,3.42.39,3.65.52,1.26.73,2.91.85,4.34.98l-3.99,1.98c2.62-.76,5.84,1.78,7.69,1.83,2.25.06,2.98-3.2,4.79-2.81.82.18,2.08,2.5,1.52,2.99-.5.45-3.33-.97-3,.99l5.99,1.01-.99-4.99,5.99,1.01-3.99,1.48,6.99,3.49-4.99,1c4.71.67,6.44,1.85,9.98-1.99,1.93,5.24,0,1.26-1.98,3.99,3.24.42,6.43,1.23,9.63,1.92,1.92.42,2.95.75,4.11,1.02,4.54,1.04,7.86,2.94,11.24.05-2.88-2.99-1.59-3.97.51-6.97l2.51,3.99-3,.5,3.99,2.49-4.99,1.02c-1.41,1.36,8.47,3.36,10,2.98-2.75-4.12,2.47-1.82-.01-5.47,1.8-1.98,2.04.61,3.11,1.86,1.38,1.62,3.63,0-.1,4.61,1.88.71,4.33-.86,5.55-.85.21,0,.85,2.69,2.92,1.87l-2.47.99c-34.06-6.03-68.77-13.67-100.36-28.14-36.8-16.86-84.73-53.03-29.95-85.66,25.13-14.97,54.96-20.68,83.31-26.19Z"/>
  <path class="st52" d="M685,1136c-.12-.03-1.08,1.21-2.34.96-4.27-.86-8.24-2.9-12.66-2.95l3.01,2.98c-1.66-.25-3.65.75-5.17.5-1.77-.29-1.68-1.97-2.07-2.19-.31-.17-1.09.6-1.54.37-.34-.17.17-2.23-1.71-1.66-3.76,1.14,1.44,2.72.48,2.98-3.82,1.07-2.88-3.62-6.99-3-.82-2.11,6.74-.31,4-2.98-.72-.7-17.25-3.47-19.64-3.92-6.15-1.14-16.22-2.85-22.01-4.09-2.65-.57-6.36.46-9.34-1.01l-.5,3.01c-1.54-3.01-2.81-3.44-6.1-3.88-1.56-.21-9.13-1.2-9.82-1.15-1.04.08-.99,3.11-2.58,3.03l.48-3-31.01-3.1c-2.51-1.29-5.63,3.07-5.98,3.08-.47,0-2.29-3.18-4.78-3.74-3.14-.71-7.19-.22-8.71,2.76l.49-3-3.48,2c.29-4.11-3.74-1.17-5.59-1.08-.5.02-.27-1.59-.89-1.72-1.38-.29-20.98-.43-22.06-.21-1.78.36-2.38,1.16-2.49,3.02-1.7.46-.61-1.45-1.09-1.88-.11-.1-2.78.79-2.89.9-1.27,1.31,3.77,2.71,1,4.99l1.98-1.01v5s-1-3.01-1-3.01l-1.98,1.02c.05-2.33-1.45-7.24-4-5.51l1.99,3.5c-2.6.87-2.56-3-3.58-3.04-.95-.03-2.58,1.32-3.78,1.14-.49-.07-1.38-4.06-6.01-3.05-.58.13-.96,3.79-2.62,1.95s3.3-2.54,2.99-3.98c-2.37-.74-3.72,1.94-5.49,2.03-.27.01-1.12-3.58-4.5-2.03-.77,3.03,3.32,2.23,4.99,3,.85,1.11-5.14,6.85-5.01,4.48.07-1.38,1.44-2.84,1.01-4.49l-3.99,2.99c.64-4.4-2.67-2.49,2-5.98-3.72,1.29-17.99-.82-20.37.23-1.99.87-6.7,6.14-2.64,7.76-.27-1.11,2.17-7.79,4.01-5.99-1.1.92-.09,7.23,1.99,4.99.26-.28.43-4.64,3.52-6,1.82,5.19,2.75-.11,2.99,0l3.51,4.51c-6.71,2.85,3.54,2.96,4,3.5.35.4-.28,3-.66,3.79-.74,1.54-2.56.6-2.34,2.19,5.43,1.22,2.9-1.9,5.99-3.99-2.06,5.95.96,5.06,3.5,1,1.84.65.37,2.92.5,2.99.87.43,3.18-.86,4.5-.8,5.1.23,10.33,1.01,15.5.8l-1.48-4.01c4.04.19,2.26,3.86,2.49,4,.85.51,5.41-.33,7,0,.46-1.69-1.99-.46-2.07-1.55-.18-2.44,5.96-9.62,7.07-8.43-1.55,3.78-1.94,3.78,2,4.49-1.51,1.52-5.96,1.42-3.99,4.5.06.09,1.3-.9,2.02-.41,1.51,1.03.71,2.99,5.42,2.44,1.35-.16-.19-2.75,1.05-3.03,1.36.8,1.49,4.17.5,5-57.01-1.21-113.53,1.68-168.98,14.32-20.12,4.58-41.03,10.32-57.45,22.89l-1.57-.21c-2.61-.24-3.76-3.84-4.02-3.99-.39-.24-4.02,4.45-5.99,1.99-.31-.39,3.26-7.17-4.99-5,1.42-3.28,2.95-4.23,5.99-5.5-2.55-2.41-3.43.33-5.99.5.47-2.35,6.49-4.13,2-5.99,28.96-18.55,78.54-28.25,112.64-32.86,60.03-8.11,124.6-7.66,184.85-2.13,36.58,3.36,73.11,9.36,108.51,18.99Z"/>
  <path class="st47" d="M551,678c3.18-.72,7.06-1.05,10,0,.87.28.86.62,0,1-29.42,1.31-58.97.91-88.5,1-1.62-1.42,1.12-.98,1.98-1.01,6.82-.2,13.7.09,20.52,0,18.68-.25,37.3-1,56-1Z"/>
  <path class="st16" d="M617,674c1.12.06,3.26-.69,2.99.99-12.87.2-25.68,2.24-38.51,3-6.75.4-13.96.72-20.49,1.01v-1c-.87-.28-.86-.62,0-1,5.17-.02,11.26-1,15.5-1h16c.35,0,1.67-.96,2.96-1.04,6.77-.43,14.96-1.31,21.54-.96Z"/>
  <path class="st12" d="M391,659c1.62-1.71,5.33-1.15,7.5-.99,14.56,1.13,28.91,3.7,43.64,3.58.45,0,5.69.23,2.87,1.4-18.01-1.1-36.02-1.95-54-4Z"/>
  <path class="st11" d="M539,665c-22.21.49-45.81.6-68,0,.75-2.6,2.06-1.19,3.56-1.18,19.6.13,39.3-.08,58.95.16,1.69.02,4.45-.64,5.49,1.02Z"/>
  <path class="st69" d="M522,1264c-5.3,1.8-12.31,1.05-18,1,5.34-1.89,12.25-.94,18-1Z"/>
  <path class="st41" d="M561,677v1h-10c2.3-1.82,6.87-.99,10-1Z"/>
  <path class="st40" d="M183,749.01c.42.31-1.45,1.57-.49,1.98s5.67.73,5.48,1.5c-1.81,2.51-4.1,4.51-6.17,6.83-.89.99-.9,2.14-2.81,1.67-.74-1.6,1.34-13.93,4-11.99Z"/>
  <path class="st40" d="M189.99,761c-2.07.26-5.55-4.36-2.48-4.99,2.56-.52,2.27,3.79,2.48,4.99Z"/>
  <path class="st62" d="M832,643c2.12.63,6.05-5.66,6.03-1.49-.03,4.8-3.22,3.43-6.03,2.49.03-.33-.03-.67,0-1Z"/>
  <path class="st2" d="M797,290c33.82,13.57,79.57,38.38,27,69-1.45-1.5-2.63-.15-4,.46-5.2,2.34-10.12,5.4-15.33,7.71-23.76,10.5-50.05,18.38-75.67,22.82l8.01-117.99,59.99,18Z"/>
  <path class="st61" d="M203,289l71-19.99c-.71,2.66-1.72,6.96-1.88,9.56-.03.51,1.76-.03,1.97,1.86,1.96,17.16,2.14,34.54,3.48,51.73.77,9.8,3.92,24.19,3.48,33.38-.09,1.86.38,2.76-2.04,2.48v.97c4.76.5,1.8,3,2.12,4.56s1.42,2.35,1.59,3.25c.49,2.59-1.51,4.38,2.29,5.71l-3.02,1,2.01,1.49-68.99-18.99c-14.24-5.94-49.71-22.16-50.96-39.62-1.19-16.65,26.15-31.44,38.96-37.38Z"/>
  <path class="st38" d="M327,770c-20.9,14.81-37.78-21.55-13-28,20.99-5.46,25.53,19.12,13,28Z"/>
  <path class="st20" d="M713,779c-10.86-1.52-12.16-17.59-6-25,11.19-13.46,33.02-2.03,26.48,14.98-3.42,8.89-11.61,11.26-20.48,10.02Z"/>
  <path class="st57" d="M618.73,787.23c12.92-2.68,21.86,16.76,7.28,23.28-19.24,8.6-24.6-19.68-7.28-23.28Z"/>
  <path class="st93" d="M632.72,715.2c15.79-3.54,20.78,16.11,7.54,19.55-16.08,4.18-20.36-16.67-7.54-19.55Z"/>
  <path class="st39" d="M361.76,854.17c9.95-1.65,17.91,15.6,4.24,21.32-17.41,7.28-18.2-19.01-4.24-21.32Z"/>
  <path class="st71" d="M655.7,870.21c14.67-4.35,18.2,15.49,5.35,18.38-13.84,3.11-13.34-16.01-5.35-18.38Z"/>
  <path class="st33" d="M294.74,893.2c11.87-2.57,12.59,13.35.74,13.87-8.65.38-6.1-12.71-.74-13.87Z"/>
  <path class="st63" d="M331.76,1042.24c5.98,5.97-3.8,15.38-8.83,8.33-4.41-6.18,4.33-12.82,8.83-8.33Z"/>
  <path class="st0" d="M426.86,733.88c-.31.5-6.49,2.78-7.76,2.03-4.91-13.09,11.64-8.35,7.76-2.03Z"/>
  <path class="st76" d="M369.65,988.09c5.9,1.31,2.89,8.34-2.03,6.83-3.8-1.16-.03-6.07,2.03-6.83Z"/>
  <path class="st70" d="M556.58,831.04c3.27-.74,4.3,6.99-.06,7.01-4.75.01-3.43-6.22.06-7.01Z"/>
  <path class="st53" d="M557.99,724c-2.99,2.26-6.94-4.95-2.47-5.99,2.76-.64,4.12,4.75,2.47,5.99Z"/>
  <path class="st29" d="M371.51,805c3.38-.8,3.69,7.31-1,5.99-2.81-.79-.99-5.51,1-5.99Z"/>
  <path class="st10" d="M451.99,771.01c.17,1.47.16,4.48-1.51,4.98-4.55,1.39-5.1-6.64,1.51-4.98Z"/>
  <path class="st98" d="M551,916.99c-5.69,1.94-7.66-1.49-2.5-4.97l2.5,4.97Z"/>
  <path class="st38" d="M720,544c11.39,4.1,34.93,15.33,39.5,27,.17.44,2.42,6.93.02,5.99-9.75-11.64-22.57-18.47-36.51-23.99-15.54-6.15-34.42-11.19-50.81-14.69-15.8-3.38-31.97-6.21-48.19-6.31-1.62-1.24.02-1.81,1.48-2,5.42-.69,15.32-.31,21.07-.05,22.48,1.03,52.28,6.43,73.45,14.05Z"/>
  <path class="st89" d="M276,544c19.74-6.33,42-11.59,62.63-13.87,7.07-.78,17.01-2.01,23.89-1.13,1.51.19,2.54.35,1.47,2-9.77-.31-19.5,3.08-28.99,5-29.34,5.95-67.95,12.47-93.67,27.83-7.19,4.29-11.92,8.03-12.34,17.17-5.52-.72-2.58-7.1-.81-10.32,7.26-13.18,33.93-22.23,47.82-26.68Z"/>
  <path class="st39" d="M261,593c.11,0,.54-.97,1.44-.98,3.35-.02,3.72,2.88,5.33,3.98,16.87,11.57,38.74,14.91,58.23,20-.21,1.72-4.68,1.56-5.95,1.56-13.54.03-26.53-2.68-39.05-7.57-3.72-1.45-7.72-2.64-11-5-2.21,1.88-3.21.52-2-2-3.49-3.18-4.96-5.77-7-10Z"/>
  <path class="st26" d="M516.99,638.01c-.18,1.63-3.81,2.05-5.15,2.34-21.43,4.72-68.54.99-90.42-4.32-1.7-.41-2.91.98-2.42-2.02l61.45,4.04,36.54-.03Z"/>
  <path class="st38" d="M560.74,601.22c5.35-1.07,14.45,1.06,17.03,6.51,6.39,13.49-13.37,21.2-23.29,13.29-7.28-5.8-2.03-18.14,6.26-19.8Z"/>
  <path class="st71" d="M651.73,576.23c10.67-2.18,15.55,8.78,7.78,14.79-11.3,8.75-21.95-11.9-7.78-14.79Z"/>
  <path class="st78" d="M349,582c3.69,2.94-9.53,3.07-10.55,3.03-4.22-.16-12.77-.74-15.45-4.02,8.16-1.47,17.56.51,26,.99Z"/>
  <path class="st25" d="M407,528.01c3.17,3.45-15.18,6.18-16.99,2.48-.49-2.02,1.45-1.71,2.79-2.16,5.09-1.71,9.02-1.63,14.2-.32Z"/>
  <path class="st65" d="M570.99,552.01c3.52,2.84-11.08,3.67-11.99,2.99-3.52-2.84,11.08-3.67,11.99-2.99Z"/>
  <path class="st37" d="M754.27,877.73c-3.06-3.05,1.14-6.54,3.71-5.29,4.7,2.28-.01,8.97-3.71,5.29Z"/>
  <path class="st9" d="M716.05,688.04c3.3-2.93,9.63,6.81,2.5,5.99-3.29-.38-3.87-4.77-2.5-5.99Z"/>
  <path class="st9" d="M780.63,687.07c4.29-.71,3.84,7.25-1.11,5.93-2.75-.73-1.16-5.56,1.11-5.93Z"/>
  <path class="st1" d="M520,1133c-.33,1.12-1.44.98-2.4,1.05-54.99,4.27-108.44,3.94-162.81,16.23-17.32,3.91-44.21,10.78-59.12,19.88-1.57.96-3.26,3.44-4.18,3.83-3.16,1.33-.21-3.19.51-3.99,24.6-27.51,138.57-38.06,175.46-39.04,17.54-.47,35.12.37,52.54,2.04Z"/>
  <path class="st8" d="M503,1224.99c-49.38,4.89-100.33,1.31-148-12.49-8.72-2.52-20.99-6.14-29.01-9.99-1.58-.76-3.39-1.72-3.99-3.5,43.13,14.02,88.36,18.85,133.51,21.98,14.29.99,29.99.41,44.03,1.97,1.5.17,3.09.21,3.46,2.03Z"/>
  <path class="st39" d="M706.01,1187c-.06-1.49.91-2.7.77-4.23-1.92-21.37-50.84-30.63-67.56-35.49l-65.22-11.27c28.62-.63,57.54,1.88,85.21,9.27,14.48,3.87,41.74,12.03,48.99,26.02,2.81,5.42,2.88,11.66-2.19,15.7Z"/>
  <path class="st38" d="M334,730c-.87-2.69-1.29-8.56,0-11,.24-.46,4.52-3.71,5.42-4.07,14.25-5.77,25.63,15.54,5.84,18.83-5.98,1-7.15.04-11.27-3.76Z"/>
  <path class="st96" d="M261.71,672.22c16.23-3.69,16.78,18.19.85,15.73-8.25-1.28-8.84-13.91-.85-15.73Z"/>
  <path class="st41" d="M344.99,682c2.22,1.95-3.02,1.62-1.99,3.48.67,1.22,3.27,1.35,2.99,2.01-.1.25-2.95,4.2-3.19,4.34-1.37.78-4.03-.96-5.8.16l.99-2.99c-5.91-2.44-3.91,5.01-1.75,5.78,1.73.61,3.99-1.8,4.75,1.2-2.33-.16-3.97.55-4.02,3.01l-1.48-1.99-3.49,4.99c.59-2.1-1.65-3.55-2.01-4.5-.11-.29,4.9-1.38-.99-3.51.07-2.19,3.7-1.72,4-2,.23-.21-2.46-4.66-2.01-5.98l9.01-1,.47,1.98c2.17-.94.22-3.47.54-3.89.16-.21,3.69-1.34,3.97-1.09Z"/>
  <path class="st41" d="M314.02,664c.58.46,1.7-2.08,3.47-2.03.79.03.35,1.97.92,1.95.88-.03,2.29-1.31,3.98-.99.74.14-.12,2.74,3.6,1.56-3.34,2.51-7.42-.29-11,3.04.12,1.67-2.9,3.85-2.93,4.1-.15,1.18,1.26,3.45-.08,5.36l-1-2.99c-1.44-.51-.8,3.97-2.99,1.99-.27-.24,1.04-1.54.85-1.83-.27-.42-1.89-.38-2.55-1.61-.63-1.17,2.04-5.61.71-7.54.76-.39,3.59,1.47,3.99.99,2.49-3.01-2.8-3.12-3.75-3.68-1.19-.7-1.11-2.01-1.96-2.27-1.66-.5-9.43-1.4-9.26,1.45,5.11,1.21.79,5.09,2,6.47.36.41,6.08.04,5.98,4.02-4.8-2.13-3.23.43-5.4,1.21-.49.18-7.33,1.08-7.58.8-.18-.19.31-1.85-.26-2.68-.63-.91-2.68-.84-2.75-2.31l3.75.32,5.24-4.32-3.99-.02c1.12-1.73,2.52-6.48.99-7.99-2.34-2.29-1.32,2.19-1.93,2.55-2.14,1.26-5.91-1.88-5.05-4.54.96-.98,24.93,5.88,26.44,7.09.58.46.47,1.82.58,1.91Z"/>
  <path class="st41" d="M356,706c-1.44-.53-.84,3.99-2.99,2-2.32-2.16,1.31-8.61.95-8.9-.66-.53-3.72.18-3.96-2.08l5.99,2,2.01-3-.49,3c4.68-4.21,11.28,1.89,6.99,6.97-1.67-.86-3.53-5.63-4.98-5.74-1.08-.08-5.53,1.52-3.78,3.75,1.51,1.93.17,1.9.27,2.01.11.14,1.31-.18,1.82.11l-.33,2.89,4.01-3.97c3.68,2.43-.95,1.92-.5,2.47,1.1,1.35,1.69,1.09,3,1.5,0-3.07,2-2.68,5-2.99-.71,4.79-1.02,4.26-5,2.99,0,1.58,1.21,3.69-.04,6.27-.91,1.88-4.26-.61,1.04,3.72-3.68-1.45-2.92-.41-4.11.17-4.43,2.17-3.36-2.65-2.88-3.17-.37.28-2.07-.31-2.49,2l-3.5-3.99c3.26,1.25,4.44-.27,6.99-2.01-.52.99,1.14,2.41.86,2.85-.06.09-1.1.56-1.85,1.15.1-.11,1.83.05,2.89-.56,4.35-2.48.68-2.23.05-3.13-.92-1.3.2-3.23.06-3.31-.37-.21-7.08,2.23-7.99,2.99-1.29-5.25,4.1-.68,2.99-6Z"/>
  <path class="st41" d="M359.99,670.02c.1.08-.24,2.04.57,2.04,1.9.01,3.31-2.03,6.43-.56,3.86,1.82,1.13,3.5-.48,5.5-1.72-.79-1.32-3.8-1.52-4.01-.18-.19-3.62,1.68-5,1.03.37,3.05,1.65,4.52,3.99,6.48-2.43,2.33-4.91,3.07-7.97,3.5-.85-3.35,3.06-1.17,3.9-3.59,1.64-4.73-1.68-2.82-2.86-3.46-.15-.08.87-2.57-.05-3.42l2,.49c.21-.29-2.27-6.61,1-3.99Z"/>
  <path class="st41" d="M259,747c-.77.22-2.07-.12-2.99-.01l1.99-1.98-3.99-.51,6-.5c-.28,1.03-1,1.86-1.01,2.99,1.17-.34,1.67-1.25,2.51-2,2.2,5.82,6.26-3.3,9.49.51-1.13,2.99-4.25,2.1-3,6.48-1.71.01-1.43-2.82-2.96-3.57-.91-.45-6.07,3.51-6.03-1.42Z"/>
  <path class="st41" d="M302.99,676.01c.43,1.65-1.74.45-2.02,1.63-1.13,4.7,2.72,5-3.97,5.37v-4.01s-3,1-3,1v-3c4.48,1.46,3.29-3.81,8.98-.99Z"/>
  <path class="st41" d="M303.01,716l1.99-3.99c-1.62.49-3-.68-1.99-2.01.14-.19,2.04,1.06,3.98-1.02-.1-1.16-5-2.04-.5-2.97,5.07,5.62,2.15,7.46-3.48,9.99Z"/>
  <path class="st41" d="M280.84,705.17c.6.91.05,2.68.17,3.83l2.98-2.99c-1.84,4.33.06,1.87,1,3.98-3.02-.46-1.45,4.47-4.99,4.01l1.99-3.99c-.15-.22-6.61,2.43-4.98-.49.71-1.27,2.89-1.4,2.99-1.53.44-.62-2.77-2.27-1.99-3.98.64.4,2.73,1.03,2.83,1.17Z"/>
  <path class="st41" d="M305.99,702c2.44,2.84-3.14,3.47-3.76,4.23-1.08,1.33-.52,6.29-4.23,5.75-.41-.43,1.21-2.58.92-2.94-.35-.43-2.31.72-1.92-1.05l3.99-.02c-6.92-6.21-1.24-2.42,1.34-2.91.79-.15,2.2-4.78,3.66-3.08Z"/>
  <path class="st41" d="M318,682.01c.04,2.5-2.87,2.81-2.99,3.01-.48.77,6.01,4.05.49,6.97-1.12-2.25-6.61-5.18-1.49-4.5-2.25-2.11,2.88-6.53,3.99-5.47Z"/>
  <path class="st41" d="M257.99,723.99c-3.26-.32-.9,1.27-1.21,3.25-.43,2.77-1.35,5.44-4.77,4.75l2.01-1.49c-4.37-1.12-1.07-3.72,1.99-3.51-3.07-2.89-.71-7.78,1.99-3Z"/>
  <path class="st41" d="M367,724.99l-1.99,2.01c5.61-2.66,4.09,3.83-.05,1.54l-3.95-6.54c2.41.88,5.03-.11,5.99,2.99Z"/>
  <path class="st41" d="M331.99,710c1.41,6.71-10.64,2.73-7.98-1,.25-.35,5.33,3.56,7.98,1Z"/>
  <path class="st41" d="M292.99,716.01l.49,1.99c3.42-2.98,3.91-1.81,5.52,1.99-2.68-.58-2.56-1.91-3.49,1-1.57-1.21-8.47-3.97-2.52-4.98Z"/>
  <path class="st41" d="M334,719l-4,7.99c2.29-2.54-.99-7.09-.98-7.49.05-1.66,5.46-2.29,4.98-.5Z"/>
  <path class="st41" d="M268,760.99l-2,.5,1.99,2.5c-.5.43-2.62-1.18-2.94-.92-.43.36.72,2.32-1.05,1.92-2.33-4.47,1.03-9.81,3.99-4Z"/>
  <path class="st41" d="M348.99,696c-2.71-.22-3.48-3.04-6.48-.98-2.83-1.26,4.57-4.08,4.96-4.02,1.53.24,1.77,3.65,1.52,5Z"/>
  <path class="st41" d="M271.06,753.13c-.4.53.56,1.76.93,2.38-4.24,1.41-2.36-3.59.01-5.5l-1.99-.5,2.99-2.5c2.26,6.23-.75,4.57-1.93,6.13Z"/>
  <polygon class="st41" points="276 756.01 273.01 759.51 274.99 761.99 269 761.99 276 756.01"/>
  <path class="st41" d="M318,695.99v3c-3.49.21-3.15-4.59-6.99-4.49,1.99-2.8,5.81-1.01,6.99,1.49Z"/>
  <path class="st41" d="M327.99,671.01c.26.26-1.81,4.81-2.01,4.99-1.52,1.31-2.45-3.83-4.97-1-.6-2.85,5.3-3.16,6.99-3.99Z"/>
  <path class="st41" d="M327,722.99c-5.68.16-4.12-4.16-4.99-7.99,3.25,1.4,3.29,5.38,4.99,7.99Z"/>
  <path class="st41" d="M285.01,700.01l1.98-1.02c.75,3.28-2.86,2.3-3.55,1.02-.79-1.46,1.72-4.74-1.44-7,4.66.39,3.75,3.62,3.01,7Z"/>
  <path class="st41" d="M347,700.01c-1.59,1.06-2.79,5.72-3.01,5.99-1.54,1.93-2.11-1.58-2.3-1.71-1.18-.76-4.24.3-2.18-2.3,1.16.53,2.27.82,3.56.59,2.51-.45,1.05-3.33,3.92-2.57Z"/>
  <path class="st41" d="M295.99,704.98c-1.49-.36-3.31,3.73-4.98,2.02-1.87-1.9,2.32-8.54,4.98-2.02Z"/>
  <path class="st41" d="M340.9,674.1c.38.6-.01,2.01.09,2.9-2.08-2.52-2.35,3.46-4.51,0-1.99-3.18,2.89-5.34,4.42-2.9Z"/>
  <path class="st41" d="M268,723c3.03-8.35,5.31-1.75,3.52,1-1.28,1.97-2.26-.67-3.52-1-.17.47.13,1.38,0,2.01-2.1-1.75-4.82,2.16-5.99-.52-.93-2.14,5.16-1.71,5.99-1.48Z"/>
  <path class="st41" d="M361.01,686.01c-1.86.72,2.47,5.53,1.99,5.98-4.75-1.14-9.01-5.87-1.99-5.98Z"/>
  <path class="st41" d="M329,681.99c1.72-1.11.93-3.81,1.1-3.91.72-.41,2.47.19,2.91-.09.45-.29-2.7-3.53.48-2.98,3.56,1.97-3.44,8.07-4.48,6.98Z"/>
  <path class="st41" d="M361.99,725.01c.32,1.8-1.74.56-2.72,1.23-.87.6-.78,2.71-2.26,2.76v-7.99c1.9-.18.47,2.45,1.95,3.54.69.5,2.11.39,3.03.47Z"/>
  <path class="st41" d="M273,707.99l-6,1c3.32-2.14,2.61-4.03,4.5-6.99.19,2.75-.84,3.65,1.49,5.98Z"/>
  <rect class="st41" x="344.01" y="668" width="4" height="3.99"/>
  <path class="st41" d="M289,687.01c-1.47,2.59,1.8,6.97-3,6.98,2.26-3.57-2.31-8.21,3-6.98Z"/>
  <path class="st41" d="M367.01,691c-.76-5.41.63-2.56,3.98-5l-3.98,5Z"/>
  <path class="st41" d="M258,736.01l-2.5,2.98-1.48-1.99-1,2.99c-.43-4.67.78-5.67,4.99-3.98Z"/>
  <path class="st41" d="M305,697.99c1.82-3.02-.93-4.99-.99-7.99,3.23,1,2.02,4.41,3.96,6.51l-2.97,1.48Z"/>
  <path class="st41" d="M373.8,678.83c-.78.53-3.16.21-4.57.86-1.31.6-3.04,4.04-5.22,4.31-1.86-2.12,8.43-7.01,9.49-8.98,1.79.68,1.11,3.26.3,3.81Z"/>
  <path class="st41" d="M284,718.01c-2.4,4.28-6.18,2.96-5.99-2,1.68-.27,1.04,2.62,2.55,2.92.83.17,2.31-1.15,3.44-.92Z"/>
  <path class="st41" d="M282,683.01l-3.99,4.98c-.57-3.48,3.46-.62.98-4.48l3.01-.51Z"/>
  <path class="st41" d="M295.01,698.01c.1-.12,2.88-1.12,2.98-1.01,1.91,2.06-.45,6.21-2.98,2.48.11-.54-.17-1.28,0-1.48Z"/>
  <path class="st41" d="M357,670.99c-2.02-.72-6.08.52-7-1.98l7,1.98Z"/>
  <path class="st41" d="M274.99,701.99c-.99.96-4.54-2.57-4.99-3.99,1.8-.56,6.27,2.75,4.99,3.99Z"/>
  <path class="st41" d="M336.99,709.01l1,2.99c-3.02-2.41-3.28,1.12-3.49,1-3.21-1.71,1.59-4.77,2.49-3.99Z"/>
  <path class="st41" d="M326.01,697.99l-3.01-3.98c3.22-.37,6.8,2.7,3.01,3.98Z"/>
  <path class="st32" d="M261,524.99l-2.99,3.01,2.5-2c.78,1.95,1.21,2.28,3.5,2.01.55.46-4.27,2.36,1,4.98-2.68,1.86-4.65-.64-5.51-.64-.72,0-2.48,2.51-3.48,1.65-2.21-1.91,2.57-1.69,1.99-2.98-3.18.34-1.37-.79-.98-3l-5-1.02c.26-2,3.09.06,1.04-2.93,2.56-.74,6.51-2.53,7.96.93Z"/>
  <path class="st32" d="M270,605l-1.99,3-3-1,2.99-4c.64.58,1.7,1.78,2,2Z"/>
  <path class="st17" d="M498,1116.99c-1.08.08-2.3-.27-3.33-.02-1.28.31,0,2.44-1.66,2.02l-2.01-3.98c2.88.92,3.68,1.01,5.99-1.01l1.01,2.99Z"/>
  <path class="st77" d="M200.01,327.01c1.47-.17,4.48-.16,4.98,1.51,1.39,4.55-6.64,5.1-4.98-1.51Z"/>
  <path class="st94" d="M315.77,747.18c11.04-1.28,18.74,10.18,8.29,18.37-12.44,9.74-23.67-16.59-8.29-18.37Z"/>
  <path class="st35" d="M716.75,754.23c12.9-3.36,16.7,19.06,3.37,20.26-11.5,1.04-15.16-17.19-3.37-20.26Z"/>
  <path class="st79" d="M617.72,792.19c9.14-2.72,16.87,11.35,5.3,14.35-11.5,2.98-12.77-12.13-5.3-14.35Z"/>
  <path class="st15" d="M633.7,721.21c10.49-3.17,13.68,8.59,4.71,9.76-7.59.99-9.71-8.25-4.71-9.76Z"/>
  <path class="st44" d="M359.7,860.18c11.37-3.46,11.35,13.9.04,11.64-6.26-1.25-3.97-10.44-.04-11.64Z"/>
  <path class="st27" d="M657.71,875.14c6.1-1.69,9.85,9.21.74,8.8-4.35-.2-4.78-7.68-.74-8.8Z"/>
  <path class="st84" d="M298.76,897.26c2.68,2.59-1.4,6.94-4.75,6.74-2.74-4.21.8-10.56,4.75-6.74Z"/>
  <path class="st75" d="M326,1045.01c2.34-1.69,6,3.03,2.49,3.98s-3.68-3.13-2.49-3.98Z"/>
  <path class="st88" d="M421.01,732.99c-.75-.75-.46-4.05,2.48-2.98,3.45,1.24-1.17,4.3-2.48,2.98Z"/>
  <path class="st34" d="M557.27,617.74c-5.4-5.75,2.96-13.08,11.73-9.23,12.07,5.3-4.51,16.93-11.73,9.23Z"/>
  <path class="st91" d="M657.74,587.76c-2.88,2.95-10.62-.88-7.28-5.8s11.78,1.19,7.28,5.8Z"/>
  <path class="st56" d="M341.71,719.16c4.56-1.36,13.01,3.42,7.25,8.31-7.91,6.72-15.4-5.88-7.25-8.31Z"/>
  <path class="st73" d="M267.86,678.13c2.11,3.42-2.01,7.57-5.87,6.44-1.56-.96-2.7-6.86-2-7.57.44-.45,7.34.28,7.86,1.13Z"/>
</svg>