<?xml version="1.0" encoding="UTF-8"?>
<svg id="Layer_1" xmlns="http://www.w3.org/2000/svg" version="1.1" viewBox="0 0 1024 1536">
  <!-- Generator: Adobe Illustrator 29.5.1, SVG Export Plug-In . SVG Version: 2.1.0 Build 141)  -->
  <defs>
    <style>
      .st0 {
        fill: #57a4b0;
      }

      .st1 {
        fill: #69b8c4;
      }

      .st2 {
        fill: #b4d5d7;
      }

      .st3 {
        fill: #020202;
      }

      .st4 {
        fill: #d1eff1;
      }

      .st5 {
        fill: #8ad1db;
      }

      .st6 {
        fill: #4594a4;
      }

      .st7 {
        fill: #5daec2;
      }

      .st8 {
        fill: #8accd3;
      }

      .st9 {
        fill: #5ca7b1;
      }

      .st10 {
        fill: #c6e9ec;
      }

      .st11 {
        fill: #cdedee;
      }

      .st12 {
        fill: #2f8199;
      }

      .st13 {
        fill: #afd3d5;
      }

      .st14 {
        fill: #8bd2dc;
      }

      .st15 {
        fill: #010100;
      }

      .st16 {
        fill: #4c9ba9;
      }

      .st17 {
        fill: #000100;
      }

      .st18 {
        fill: #4191a2;
      }

      .st19 {
        fill: #a5cdd1;
      }

      .st20 {
        fill: #90d1da;
      }

      .st21 {
        fill: #80b9c1;
      }
    </style>
  </defs>
  <path class="st17" d="M186.86,1072.13c-29.32-22.73-54.76-52.1-76.08-82.4C9.23,845.41,11.78,681.97,60.5,518c17.31-58.27,40.23-116.56,69.08-169.99-1.08-5.73-4.52-10.88-5.33-16.77-9.85-72.25,112.7-101.34,164.56-111.93,145.48-29.71,344.57-27.26,486.95,16.42,49.42,15.16,127.16,43.03,108.38,109.53,85.22,159.48,140.31,360.03,77.87,537.26-25.83,73.31-70.99,137.68-128.97,188.98,27.38,31.44,9.65,85.36-14.53,113.51-77.66,90.39-261.01,105.77-372,96.98-96.99-7.68-284.43-49.05-271.39-179.37.86-8.55,4.64-16.87,8.68-24.32.99-1.82,4.27-4.08,3.07-6.17Z"/>
  <path class="st9" d="M534,453c1.04-1.66,3.8-1,5.49-1.02,56.7-.59,118.21-6.94,173.71-18.29,54.27-11.1,110.52-26.62,152.34-64.67,1.94-.47,1.23.55,1.73,1.24,3.03,4.2,7.13,11.63,9.62,16.36,32.1,60.98,57.11,133.35,72.44,200.56,37.72,165.31,6.23,338.64-122.3,455.34-1.24,1.13-2.04,2.5-4.02,2.48l-.27-2.71c3.48-2.8,4.43-5.04,2.87-6.72.87,2.99-1.31,4.61-6.55,4.88-2.12,16.31-12.28,1.57-4.13-5.01l-1.32-3.13c2.45-4.4,2.43-5.41-.06-3.01-2.31-.72-4.07.67-5.28,4.17-2.32,1.94-17.01,2.5-14.25-2.48,1.3-2.24,2.7-4.49,4.64-6.23,25.59-22.92,46.49-42.34,66.63-70.69,46.23-65.07,66.15-142.45,70.62-218.09l2.1-1c.29,2.88.62,5.54,1,8-.95-17.96-.97-37.82,0-56-.38,2.15-.72,4.48-1,7l-2.07-.72c-5.08-89.25-36.08-181.93-72.54-264.91,46.31,128.9,84.79,264.45,50.04,400.6-21.95,86.01-77.26,162.02-150.33,211.92-3.57,2.72-4.55,1.24-5.63-2.56-1.34-37.43-44.25-52.45-75.45-60.68-47.84-12.63-96.44-17.02-143-20.55l-1.03-2.1c-15.45-.79-33.36-.7-49.7-.5-.04,0,.28.22.7.5,1.58,1.97.43,2.78-1.81,3.07-43.57,1.12-89.3,5.41-131.53,14.59-26.89,5.84-61.52,13.48-83.98,29.47-13.78,9.81-14.31,18.49-14.79,33.53-2.35,3.15-5.91,2.75-10.68-1.21-162.3-105.31-186.52-329.18-125.63-500.59l36.57-110.37c-8.88,14.22-15.09,29.96-21.11,45.62-27.91,72.6-50.99,150.87-54.94,226.89l-2.1,1.01c-.3-3.56-.63-6.9-1-10,.93,19.61.91,41.17,0,61,.36-3.11.7-6.45,1-10l2.06.74c1.23,23.86,4.84,48.16,8.94,72.43l-1,4.83q-1.43.44,0,0c4.57,5.64,8.16,16.82,7,24-1.26,14.1-19.89,11.99-7.39.54-7.01,1.32-9.65,4.33-8.21,11.58,3.56-1.91,5.65-1.58,6.28.99,5.1,1.92,12.95,8.23,5.86,12.08.56,2.63-1.01,4.3-3.58,4.65-7.62.55,4.03-.86,5.09.16,3.11,2.99-2.03,12.14-5.84,5.54-3.77,2.26-6.46.9-8.38-2.74-.74.99-1.82.83-2.84.21-53.53-154.45-11.57-339.37,60.14-481.36,1.46-2.9,8.3-17.15,9.83-18.18s1.53-.2,2.55.51c2.27,1.58,4.68,4.11,7.16,5.84,73.53,51.28,187.81,64.84,275.8,70.2l18.51,1.99c29.22,1.7,58.51,2.2,87.9,1.49.25,0-4,.27-4.9-.49Z"/>
  <path class="st19" d="M646,234c49.86,4.76,161.9,28.65,199.47,61.03,24.13,20.8,14.3,46.1-7,63.94-47.91,40.13-154.08,56.64-215.47,63.03-79.05,6.05-162.05,6.36-241-1-59.08-6.81-125.68-17.42-179.68-42.82-26.84-12.63-66.86-42.24-44.76-76.11,18.29-28.03,93.34-48.91,125.44-56.06,30.87-5.73,62.2-10.4,94-14,89.27-10.36,179.74-7.25,269,2Z"/>
  <path class="st18" d="M549,1257l-65,1c-81.74-1.85-198.15-20.04-257.9-80.6-21.53-21.82-36.65-59.88-19.59-88.4l30.57,20.42c74.35,43.13,159.59,62.95,245.38,65.62,114.46,3.57,236.87-18.71,329.9-87.97,18.87,16.99,7.36,50.21-3.94,68.85-44.67,73.64-180.25,97.35-259.42,101.08Z"/>
  <path class="st6" d="M291,1107c-12.57-5.83-24.68-12.46-36.32-19.87l.79-2.61c5.52-.86,6.36-3.13,4.32-8.58l.87-2.68c-4.97-1.97-5.52-8.51.53-7.76,3.79-4.1,5.89-1.68,6.43,2.88,1.03-6.88,5.42-4.4,9.74-1.66l2.64.26,6.67.94c52.41,23.61,109.63,32.87,164.42,39.91l.91,2.15c13.07,1.07,25.4,2.32,36.99,3.76,64.11,1.46,129.94-1.87,191.04-21.66,4.17.97,5.53.75,4.09-.68,1.12-1.53,14.47-5.84,15.84-5.19.8,4.15,10.54,2.52,13.43,1,.84-5.15,5.15-10.73,8.25-4.03,4.42-6.76,7.23-4.25,8.45,7.54-3.35.76-6.95,1.84-6.75,6.12,2.37,2.78,4.92,6.3,2.26,9.77-1.48,1.93-18.99,8.72-22.61,10.11-20.1,7.68-41,13.05-61.72,17.59-4.63,1.02-10.68,2.58-14.25,3.67-75.45,14.01-177.22,16.81-252-1.5-9.31-2.28-82.03-25.51-84-29.5Z"/>
  <path class="st0" d="M77,873c5.14-6.35,3.49-.15,7.02,1.58,2.03.99,3.72-2.4,4.96-1.57.89.6,3.18,8.18,4.01-2-.5-.58-9.38,4.61-9.02-3.43.03-.61,1.82-.47,2.02-1.24.38-1.46-.95-4.45.99-4.33v5.98c7.64-.27,1.52-3.79,1.02-7.99,2.6,1.81,5.06,5.57,5.99,0-4,.88-2.42-1.66-3.29-2.72-1.08-1.33-7.31-1.74-5.72-5.29-4.03,3.28-8.04,3.12-6-2.99-3.61-1.71-3.22,10.88-5.99,8-.64-.67-3.67-15.6-4-18,4.97-.06,1.2,4.18,2.43,6.03.56.83,2.47.86,2.57.98.31.4-4.07,3.41-.49,4.97.68.3,4.09-3.16,4.41-3.63.77-1.12.15-2.55.7-3.38,1.84-2.75,11.18-8.5,12.35-3.44.54,2.36-7.26,3.84-4.47,7.47,7.57-.64,4.91-2.84,6.98-8.03,1.31-3.27,1.47,2.37,2.51.01,1.44,1.57,2.94,3.21,3.69,5.23,11.35,30.46,21.27,56.28,38.26,84.46,18.9,31.34,42.07,60.24,69.14,84.9,22.15,20.17,42.8,32.86,68.28,47.85,1.88,1.11,3.29,2.85,4.63,4.55-3.85,3.79-2.18.92-4.22-.33-7.58-4.63-5.16,3.52-7.28,4.34-3.41,1.34-2.99-3.78-3.51-6.02-3.36.67-.62,4.7-.99,4.99-3.42,2.64-2-3.87-4.99-2.99-1.36,4.79,4.5,4.51,5,5.01,1.78,1.79-1.86,2-2.03,2.6-.99,3.71,1.97,3.58,2.05,3.89.76,3.16-2.11,1.79-2.05,3.92.1,3.36,2.52,3.35,4.03,5.58-3.43.08-11.16-6.16-9.02.33.21.63,9.69,5.93,11.36,6.85,5.73,3.16,21.26,8.97,22.66,11.84-46.54-20.61-92.52-51.91-126.51-89.99-35.51-39.78-70-93.55-87.49-144.01Z"/>
  <path class="st16" d="M794,1031c1.18,2.05,2.31,1.44,4.03,1.52,1.36.06,6.92.4,7.27.32,4.52-.96,1.72-8.25,7.69-4.85l.5-4.99c2.38,4.04,7.52,6.01,1.49,8.51,4.58,6.55-.05,4.89-.85,7.13-.16.45-.64,10.02,1.86,7.35.25-.26.55-5,1.22-6.33.76-1.51,2.78-1.53,2.83-2.26.07-.94-1.23-2.76-1.05-4.82.05-.58,1.82-5.4,2.05-5.58.2-.15,3.54,1.61,4.95.99.61,3.13-4.23,3.68-4.89,5.64-1.27,3.8,3.39,6.18,2.68,3.04-.99-4.42-.14-1.46,1.63-3.76.69-.89.23-2.85,1.13-3.01,1.88-.32,6.54.48,5.43,3.57-.67,1.88-8.24-.62-1.99,4.01-2.61,2.25-4.7,4.98-7,7.51-44.58,48.94-132.14,81.14-196,93l-.5-.99c4.37-1.24,13.98-.81,15.52-5,1.72-.42.64,1.5,1.07,1.88.22.2,4.39-1.63,5.91-.9l-1-2.98c2.52-1.18,1.72,1.97,2.6,2.07.94.11,5.91-1.47,6.85-2.02.44-.26-.04-3.42,2.06-4.06l.52,2.98c1.72,1.77,42.19-12.16,47.24-14.22,4.6-1.87,7.75-4.5,11.72-6.14.87-.36,2.18.41,2.98-.1.87-.55,3.07-4.88,2.87-5.87-.06-.27-2.76-4.41-2.98-4.57-.89-.65-4.39,2.71-3.84-.57l3.99-1.53-2-2.98c1.51.55,5.36-1.58,3.99-3.01-.17-.18-5.16,1.92-4.97-.5.17-2.17,5.78-1.71,6.97-3.5l2,5c.96-2.74-1.1-4.63-1.51-6.5-.21-.98,1.36-6.75-1.72-2.2-2.01,2.97-1.65,2.9-5.27,4.7-1.03-.56,1.54-5.09-1-4.97s-3.19,7.68-3.51,7.99c-.25.24-2.29-1.24-3.42-1.1-.81.1.24,3.29-3.57,1.1-1.47,4.41,3.02,2.38,3.01,3.51-.04,2.59-3.29,2.13-3.01,2.99.78,2.4,3.77-.01,4.83.61.34.2,3.88,5.79,3.17,6.89h-4s.99,3,.99,3c-1.7-.39-4.05-2.32-4.46-3.98-.63-2.55,4.81-5.46-4.54-5.03,5.78-3.72-1.16-12.08-3.35-4.75-.23.78-1.68,6.88-1.71,7.25-.02.16,4.39,1.22,1.06,3.03-2.16,1.18-2.72-5.29-3.01-5.51-2.74,1.11-3.56,4.34-4,7-6.21-3.34.12-4.72.82-6.65.55-1.52.81-8.94,1.2-9.34l4.99,1.99-1.6-4.01-12.39,4.03c-1.34,1.69,6.96,5.35,2.48,5.99-3.98.57-7.62-5.4-9.48-3.99.52,4.37,6.38,5.42,2.49,9.99.08-6.02-2.68-3.3-3.5-4-.31-.27,2.6-4.89-1.42-4.98-.39,0-7.32,1.72-7.59,2-.32.32,1.7,2.91-.5,3.98-3,1.45,1.17-4.08-1.93-2.95l-49.53,10-.53,2.96c-.86.29-.08-1.74-1.14-2.02-3.01-.79-24.49,3.49-29.86,4.02-19.14,1.9-42.27,2.97-61.95,3.06-5.13.02-25.89-2.36-28.34-.79-.15.09-.31,3.35-2.17,1.67-.14-.13.12-3.59-2.02-1.94-.54.42.08,3.66-3.51,3-1.04-.19.06-3.11-2.13-3.88-3.43-1.21-7.36.92-9.93.77-1.49-.09-2.68-1.79-4.89-1.95-7.71-.57-15.8-.21-23.55-.95-.06-1.8,3.74-.96,4.99-.99,1.57-1.51,3.43-2.33,5.58-1.96l35.92,3c16.32-.89,32.49-.24,48.5,1.96l12-1c2.32-.97,4.71-1.91,7.24-2.09,43.5-3.12,78.94-7.05,120.75-21.26,40.71-13.84,69.67-31.43,105.05-54.87,2.1-1.39,4.54-2.14,6.96-2.78Z"/>
  <path class="st4" d="M646,234c-87.66-8.36-180.87-11.14-269-2-.87-.28-.86-.62,0-1,67.91-7.07,139.43-7.97,207.49-2.99,20.53,1.5,40.99,4.46,61.51,5.99Z"/>
  <path class="st10" d="M623,422c-79.4,8.26-161.62,8.15-241-1,1-1.6,3.86-1.16,5.48-1,79.31,7.52,149.69,6.87,228.98.96,1.87-.14,5.26-.57,6.54,1.04Z"/>
  <path class="st11" d="M377,231v1c-29.74,3.08-59.36,9.73-88.96,14.55-1.53.25-4.06,1.33-5.04-.55,30.8-6.86,62.6-11.73,94-15Z"/>
  <path class="st8" d="M451,452c4.14-.07,8.39-.17,12.54-.04,2.37.07,4.55,1.03,6.92,1.08,21.15.47,42.39-.27,63.54-.04,2.83.03,5.68-.09,8.52,0,.87.03,3.6-.41,1.98,1.01-33.53-.06-67.11.43-100.49-1.02.57-1.88,5.3-.96,6.99-.99Z"/>
  <path class="st1" d="M549,1257c-21.51,1.01-43.38,1.49-65,1l65-1Z"/>
  <path class="st17" d="M538,955l58.49,5.01c36.7,5.13,74.86,10.37,109.75,23.25,26.64,9.84,53.83,25.41,53.25,57.74,82.48-55.45,141.74-143.06,158.21-241.79,9.61-57.58,9.67-111.95,0-169.42-12.53-74.43-36.9-145.86-61.71-216.78,2.66-.56,1.73.67,2.49,1.96,12.03,20.5,23.56,53,32.26,75.78,20.88,54.68,36.8,110.43,44.24,168.76l3.01,34.49c.67,13.63.69,27.37,0,41l-4.14,43.36c-13.75,102.01-58.34,189.35-139.86,252.64-67.74,52.59-153.82,80.74-240,81l-12,1c-16.17.06-32.36-.08-48.54.04-13.41-.7-28.15-3.31-41.46-3.04l-58.19-8.31c-38.95-8.06-77.96-17.23-113.81-34.69-89.09-43.36-156.25-133.6-184-227-2.29-7.72-5.2-16.26-7-24-3.77-16.17-4.74-33.29-7.88-49.62l-2.12-28.38c-.72-13.64-.72-27.36,0-41l3.13-35.37c6.16-56.3,21.89-109.17,40.85-162.15,8.81-24.61,20.66-60.56,35.43-81.6.43-.61,1.03-3.52,2.59-1.87.79.83-5.66,19.28-6.54,21.95-28.25,86.35-58.54,161.15-62.5,254.5-5.25,123.62,39.58,261.78,145.32,333.76,2.86,1.95,13.74,9.32,16.21,9.8,2.01.39,1.34-.28,1.51-1.5,1.54-10.75-1.37-15.33,6.47-25.54,19.93-25.96,99.2-40.23,131.19-44.81,29.26-4.18,61.33-7.84,90.85-8.15,1.69-.02,4.45.64,5.49-1.02,16.3-.77,32.7-.85,49,0Z"/>
  <path class="st2" d="M229.73,459.23c22.71-4.74,12.78,26.31,8.75,37.74-7.37,20.86-18.22,40.95-25.49,62.51-13.08,38.75-19.8,78.35-23.97,119.03-1.62,15.84-.11,33.55-5.28,48.72-10.56,30.97-26.8,8.82-31.41-11.04-10.28-44.27,3.58-126.67,19.94-169.44,7.34-19.2,36.7-83.18,57.48-87.52Z"/>
  <path class="st13" d="M304.72,476.23c13.72-2.87,15.92,8.44,15.31,19.31-1.16,20.87-30.12,74.65-39.52,97.48-7.49,18.18-13.48,38.95-21.66,56.34-2.98,6.34-11.58,22.23-19.85,20.22-13.29-3.23-12.52-23.73-12.04-34.12,1.97-43.22,17.83-91.74,43.23-126.77,6.41-8.84,24.03-30.26,34.54-32.45Z"/>
  <path class="st0" d="M80.01,807.01c2.08,2.07-2.79,3.83-3.47,5.02-2.87,5.01-2.64,8.81.47,13.46-1.73,2.64-3.57.85-6,.53,1.34,5.33,2.77,9.19-4,9v-3s2.99.51,2.99.51c-1.59-1.18-1.4-5.59-2.24-6.33-.51-.45-2.25.08-2.59-.28-.52-.55.08-4.48-1.16-5.89,2.83-.97,2.07,2.57,3.5,2.99,1.27.37,5.23-2.87,5.35-3.18.41-1.07-.85-2.23-.86-3.23,0-.59,7.56-5.67-1.99-8.08.54-1.37,9.16-2.34,10-1.5Z"/>
  <path class="st0" d="M93.99,837.99c-2.31.25-4.48-.84-5.99-2.5,7.75-4.26-2.16-14.28-1.5-2.5-7.91-9.45-6.76-7.82,3.48-12.99l4.01,17.99Z"/>
  <path class="st5" d="M489,955c-1.82-.01-3.66.06-5.48,0-.87-.03-3.64.42-2.02-1.01h62.99s-6.5,1-6.5,1c-16.32-.09-32.68.12-49,0Z"/>
  <path class="st20" d="M79,697c.17,13.62.17,27.38,0,41-.04,3.32.04,6.67-.01,9.99h-.99s0-60.99,0-60.99h.99c.05,3.33-.03,6.68.01,10Z"/>
  <path class="st0" d="M89,816c.14.42.34,2.96-.5,3-3.38-3.24-1.34-8.71-7.5-6,2.02-2.32,2.89-6.46,1.87-9.37-.52-1.47-6.85-2.81-4.86-4.62,1.28-1.17,4.89,3.59,6.99,0,.2,4.31,1.45,7.69.02,11.99l1.98-1.99c-1.24,3.33,1.48,5.42,2.01,7Z"/>
  <path class="st14" d="M938,694c.05-2.32-.05-4.67.01-6.99h.99s0,55.99,0,55.99h-.99c-.05-2.66.04-5.34-.01-8-.24-13.59-.29-27.41,0-41Z"/>
  <path class="st0" d="M80.22,864.3c-1.18.9-1.32,4.51-3.21,4.69-2.64-2.79,2.97-7.94,4.49-7.97.51-.01,2.03,1.53,1,2.99-.71,1.02-1.86-.03-2.29.29Z"/>
  <path class="st0" d="M84.99,821c-2.16.58-2.37-1.37-3.34-2.17-7.54-6.19,3.99-4.43,3.34,2.17Z"/>
  <path class="st0" d="M63.35,808.66c.23.41,1.6.38,1.68.99.23,1.62-1.49,4.32-1.04,6.34-1.49-.46-1.88-5.19-1.98-6.52-.08-1.16-.05-2.32,0-3.47,1.68-.28.68,1.47,1.34,2.66Z"/>
  <path class="st0" d="M69.99,820c-2.74,1.05-5.15-6.07-2.49-5.97,1.39.05,3.22,4.33,2.49,5.97Z"/>
  <path class="st17" d="M428.99,247.01c-.14,1.42-4.45,1.74-5.62,1.87-68.97,7.75-147.76,16.53-210.74,47.26-20.5,10-43.62,24.15-36.65,50.86-3.02-1.79-5.42-5.53-6.77-8.72-18.52-44.02,67.96-65.05,96.76-71.79,53.3-12.47,108.33-17.43,163.01-19.48Z"/>
  <path class="st15" d="M630.01,248.99c.29-1.77,5.2-1.11,6.54-1.03,49.22,3.05,152.57,21.72,189.93,54.07,9.91,8.59,15.71,17.7,14.53,31.47-7.93,22.03-5.78,2.62-9.82-6.19-9.74-21.25-50.32-37.98-71.41-45.59-42.03-15.16-86.33-22.75-129.77-32.74Z"/>
  <path class="st17" d="M614.01,1227.99l1.27-2.23c19.09-5.77,38.64-12.08,56.02-21.96,12.53-7.13,44.23-29.39,11.71-33.8l1.05-2.44c24.85-7.79,50.57-14.26,72.88-28.14,4.11-1.35,3.25,5.32,3.04,8.07-2.08,28.33-38.1,52.93-62.01,62.98-25.63,10.77-56.16,17.19-83.96,17.53Z"/>
  <path class="st17" d="M314,1163.99c-23.57-.26-21.07,17.7-9.02,31.53,5.79,6.65,13.94,11.38,21.83,15.22,1.35.66,2.75-.64,2.19,2.25-28.39-4.64-68.14-26.54-76.5-55.99-1.9-6.69-3.51-17.85,3.55-21.61,9.33,5.42,18.84,11.9,28.59,16.47,8.49,3.97,18.58,5.9,26.35,9.65,1.17.56,2.75.99,3,2.49Z"/>
  <path class="st21" d="M367.32,1185.32c1.76-1.61,5.64-2.69,8.03-2.24,12.11,4.85,32.94,3.64,43.93,9.14,13.12,6.57,7.11,25.48-5.76,25.62-4.42.05-22.55-3.95-27.21-5.65-5.36-1.96-15.68-7.49-18.76-12.24-2.64-4.05-4.14-11.06-.23-14.63Z"/>
  <path class="st3" d="M427.99,1126.99c-25.78.03-53.3-5.88-77.24-15.25-4.89-1.91-11.13-3.95-14.75-7.74,30.18,5.95,59.95,14.51,90.27,20.21l1.72,2.77Z"/>
  <path class="st16" d="M664,1107.01c-2.44,9.77-3.35.57-4.02,0-1.86-1.6-2.05,2.03-2.48,2.02-1.34-.02-2.79-1.13-2.5-2.51.62-3,7.15.53,9,.49Z"/>
  <path class="st0" d="M273.99,1082.01c.35,1.58-1.84.9-2.5,1.94-.99,1.57.42,4.15-1.48,4.04l-3.01-6.99,6.99,1.01Z"/>
  <path class="st16" d="M680.21,1109.81c.44.8,3.55.67,2.78,3.19-4.02-1.46-7.87-3.22-3-7,.08,1.21-.38,2.73.22,3.81Z"/>
  <path class="st16" d="M719,1094.01l-2.02,3.98c-4.07.39,1.52-2.84-3.98-2-.8-3.57,3.92-1.54,6-1.99Z"/>
  <path class="st16" d="M688.29,1110.72c.38.54,1.59.2,1.68.3.7.8.33,2.32-1.49,2-3.78-.66-4.17-3.66-.49-5.03.03.88-.21,1.99.3,2.72Z"/>
  <path class="st16" d="M665.98,1112.02c.18.13,2.52,3.57,2.01,3.97h-4c.81-1.26-.8-5.93,1.98-3.97Z"/>
  <path class="st9" d="M806.85,1036.13c1.34,2.26-3.44,8.32-6.85,1.36,1.45.09,3.07-3.46,3.49-3.47.2,0,3.26,1.94,3.36,2.11Z"/>
  <path class="st6" d="M554,1112c-2.98,1.84-8.22.98-12,1,2.98-1.84,8.22-.99,12-1Z"/>
  <path class="st12" d="M548,1097h-59c-52.56-1.5-111.57-10.25-161.77-25.73-21.85-6.74-87.15-26.66-52.24-57.78,35.53-31.68,152.78-43.93,200.47-45.53,70.16-2.35,175.05,2.74,239.21,31.87,22.21,10.08,46.34,30.95,18.24,51.58-40.85,29.99-134.66,44.23-184.91,45.59Z"/>
  <path class="st7" d="M548,1097c-19.16.52-39.85.55-59,0h59Z"/>
</svg>