<?xml version="1.0" encoding="UTF-8"?>
<svg id="Layer_1" xmlns="http://www.w3.org/2000/svg" version="1.1" viewBox="0 0 1024 1536">
  <!-- Generator: Adobe Illustrator 29.5.1, SVG Export Plug-In . SVG Version: 2.1.0 Build 141)  -->
  <defs>
    <style>
      .st0 {
        fill: #732106;
      }

      .st1 {
        fill: #d87233;
      }

      .st2 {
        fill: #752207;
      }

      .st3 {
        fill: #e3c790;
      }

      .st4 {
        fill: #133e55;
      }

      .st5 {
        fill: #a2b395;
      }

      .st6 {
        fill: #742106;
      }

      .st7 {
        fill: #020201;
      }

      .st8 {
        fill: #552a0f;
      }

      .st9 {
        fill: #020302;
      }

      .st10 {
        fill: #b72b0f;
      }

      .st11 {
        fill: #074a58;
      }

      .st12 {
        fill: #074b59;
      }

      .st13 {
        fill: #e4972c;
      }

      .st14 {
        fill: #d97334;
      }

      .st15 {
        fill: #d97435;
      }

      .st16 {
        fill: #030201;
      }

      .st17 {
        fill: #da7435;
      }

      .st18 {
        fill: #db7636;
      }

      .st19 {
        fill: #e3c892;
      }

      .st20 {
        fill: #d97434;
      }

      .st21 {
        fill: #da7535;
      }

      .st22 {
        fill: #e3cf9f;
      }

      .st23 {
        fill: #bb2c11;
      }
    </style>
  </defs>
  <path d="M990.01,404.39c18.15-67.91,15.32-168.53-33.73-223.67-46.38-52.16-116.06-39.3-153.51,15.12-49.11,71.36-65.81,211.65-18.88,286.85,10.74,17.2,26,28.33,41.54,40.94-2.85,5.13.92,30.3-.23,32.31-1.62,2.84-7.75,1.12-10.78,1.53-46.58,6.38-68.4,68.53-51.64,108.51,1.59,3.77,10.77,17.95,10.52,19.67-3.51,4.98-6.39,10.5-10.06,15.36-8.06,10.62-23.17,25.8-34,33.6-7.18,5.17-7.91,3.19-14.86-1.03-49.55-30.07-91.44-84.7-145.79-105.93-1.54-.61-8.77-1.85-3.22-3.08,48.63-10.83,101.16-47.43,129.13-87.74,33.74-48.64,48.07-124.76-4.71-166.45-.23-11.88,1.04-23.75.63-35.7-.57-17-3.63-36.5-7.96-52.97-4.75-18.01-12.6-35.28-22.87-50.77,6.07-2.8,12.42-4.98,18.33-8.2,20.48-11.19,39.76-33.2,42.19-56.99,3.92-38.41-22.63-60.91-60.6-53.31-62.12-96.21-206.38-97.42-296.37-40.43-2.18,1.38-6.43,5.77-7.63,6.11-9.27,2.61-24.93-1.51-35.96-.83-36.38,2.22-74.58,27.71-93.57,57.74-5.13,8.11-8.55,17.11-13.93,25.07-6.23-15.75-6.07-33.95-3.42-50.55,1.36-8.52,6.02-18.2,6.92-25.69.73-6.13-6.88,2.78-8.27,4.45-22.08,26.66-19.39,72.93,11.69,91.71-.77,3.45,5.65,6.68,7.81,3.87,7.16-46.04,57.16-92.83,106.72-85.02-3.54,3.08-13.56,22.08-10.63,25.37,1.12,1.27,2.37,1.44,3.99.96,21.4-17.78,44.09-34.21,69.35-46.28,85.39-40.81,202.61-29.81,253.9,56.7,3.88,11.6,8.8,9.12,14.74-7.41,24.34-4.32,40.18,13.03,35.09,37.18-9.18,43.59-59.3,58.59-99.67,52.78l-3.46,1.71c-2.66-.03-3.01-1.43-1.06-4.19,3.61.16,6.85-1.65,9.75-5.4,12.9-8.25,34.38-54.34,29.29-68.13-1.16-3.16-1.96-4.58-5.51-2.36-14.73,38.01-51.95,77.77-95.72,79.5,27.04-12.07,49.35-30.59,61.87-57.08,2.72-5.78,8.94-22.34-2.43-20.42-38.15,59.94-110.71,86.01-180.64,78.06,35.29-13.38,64.73-28.89,85.89-59.64,2.54-3.7,16.33-26.16,3.98-23.71-49.56,58.53-133.3,83.91-209.92,72.32-3.73-.95-5.92,1.33-4.64,4.52,22.05,14.12,37.26,25.81,39.39,53.57,2.94,38.38-17.89,86.86-46.39,112.89-4.97,4.54-16.2,14.12-23.02,10.3,20.29-8.59,17.44-37.47.32-48.55-33.3-21.54-80.51,1.95-110.08,20.1-26.23-60.82-14.9-137.02,50.81-167.87,3.2-1.72,8.64-5.61,4.35-8.49-1.44-.82-2.11-3.62-3.83-3.97-5.92-1.21-29.62,9.25-35.47,12.96-58.61,37.15-59.55,126.21-30.85,182.19-5.9,5.41-12.15,10.56-17.66,16.4-29.28,31.06-50.97,68.78-67.02,108.01-24.26,59.28-61.59,192.61,4.43,235.69,27.37,17.85,69.12,25.38,101.5,23.69,3.59.94,7.66,11.68,10.14,15.21,8.6,12.29,17.06,19.62,32.78,18.8,28.5-1.48,58.22-15.35,85.8-21.87-2.3,38.83-11.85,77.05-22.86,114.28-4.15,14.05-13.55,34.14-15.35,47.77-1.63,12.34,7.74,10.46,13.28,17.14,3.21,3.87.37,5.07-.07,8.46-3.17,23.9-6.85,47.79-11.46,71.54-4.63,23.86-14.79,54.87-16.73,77.86-.2,2.41-.42,5.6.54,7.84,2.66,6.24,29.87,20.13,37.03,23.28,4.07,1.79,14.09,4.2,17.15,6.17.97.63,1.73,1.16,1.64,2.45-13.27,67.87-31.34,135.07-38.27,203.98-5.76-.05-14.74,3.18-19.1,6.87-3.21,2.73-4.95,8.3-7.45,10.48-4.07,3.55-18.56,2.44-24.66,3.2-40.39,5.04-87.62,15.55-104.98,56.76-24.86,59.02,43.79,79.91,89.64,82.1,21.53,1.03,40.48-2.83,61.24-3.19,25.56-1.32,50.08-10.64,72.73-21.94,25.75,12.36,63.01-7.63,72.98-32.94,2.03-5.15,5.28-14.45,1.16-18.5l2.02-2.78c-1.89-24.18-5.8-51.79-22.99-69.92-.51-8.25.22-16.6,2.2-25.02,11.15-55.71,23.17-113.6,35.82-170.08.12-.51.72-.63,1.21-.69,12.28-.02,27.2-2.24,38.91-6.66,5.83-2.2,11.64-4.56,12.69-11.4,9.55,2.53,20.05,5.18,29.77,3.82,20.89,67.63,40.89,135.52,60,203.69-17.56,20.23-17.16,47.76-14.19,72.94l2.49,1.92c-3.37,6.77,3.96,18.27,9.14,23.5,14.2,14.34,54.81,28.81,74.11,19.43,32.62,13.41,68.9,21.41,105.33,23.14,36.23,1.72,89.75-1.99,117.16-28.46,5.36-5.18,13.02-14.12,10.36-20.82,12.01-46.87-37.09-79.39-77.44-86.73-17.01-3.09-47.66.64-59.69-3.07-2.64-.82-3.71-2.72-5.79-3.73-2.02-1-5.69-.88-7.17-2.37-1.22-1.23-1.8-5.9-3.15-8.43-7.65-14.36-18-13.57-32.98-13.13-17.74-64.1-37.6-127.68-53.26-192.35.12-1.24-.51-3.75.18-4.55.51-.59,12.02-5,14.37-6.27,9.05-4.91,16.63-8.82,14.77-20.15-4.3-26.22-14.71-55.07-20.31-81.68-3.71-17.65-5.57-35.67-9.82-53.23.06-4.55,19.43-9.7,19.98-15.51.31-3.27-1.78-11.85-2.02-15.82-.47-7.79-.47-15.95-1.22-23.95-2.28-23.96-5.94-47.93-8.46-71.86,16.04,3.03,16.93,18.63,35.63,18.93,4.87.08,8.8-2.38,12.51-1.97,7.56.83,25.27,9.91,35.7,12.09,62.86,13.17,109.55-33.84,138.81-82.85,3.67-6.15,11.63-25.12,15.71-28.62,1.63-1.4,12.82-2.36,16.59-3.5,57.16-17.45,81.48-90.66,72.44-144.03-4.31-25.44-21.94-47.85-47.69-54.47-5.77-1.48-11.73-1.21-17.41-2.77l-.51-26.69c59.6-14.4,92.42-72.9,107-127.49l-.03-.02ZM344.5,611.19c-7.19,2.67-15.05,2.34-22.62,2.24-8.2-.1-16.36.65-24.51,1.48-18.14,1.82-36.19,4.51-54.41,5.49-17.69.96-34.83,4.89-52.26,7.96-8.27,1.46-16.61,2.02-24.9,3.26-8.99,1.34-17.69,2.32-26.61-.05-2.34-.62-3.78-2.75-3.91-5.05-.54-9.67.33-19.26,1-28.88.47-6.73.42-13.47.93-20.19.46-5.98,1.03-11.94,1.04-17.94.01-4.57.34-11.67-2.97-15.4-.17-.19-.31-.38-.45-.57-1.72-1.57-2.17-3.93-1.01-6.4,3.17-6.8,11.26-9.57,18.1-11.29,8.89-2.22,17.8-3.98,26.6-6.58,3.4-1.01,7.09-3.15,10.74-2.08,3.28.95,5.66,4.06,7.69,6.56,5.16,6.36,9.66,13.25,15.29,19.24,6.43,6.85,13.29,10.56,22.94,10.53,10-.03,20.25-1.76,30.03-3.66,5.12-1,10.07-2.47,15.12-3.69,2.92-.7,5.68-.93,8.27.85,2.99,2.07,4.64,5.84,6.51,8.8,2.21,3.49,4.19,7.25,6.91,10.4,6.05,7.01,15.02,11.56,22.4,17.07,7.91,5.89,15.55,12.12,22.4,19.19,2.95,3.04,1.36,7.38-2.35,8.76v-.04Z"/>
  <path class="st13" d="M218.92,180.03c1.04.63,5.87,3.73,6.38,3.15-.33-9.29,3.68-18.33,7.76-26.43,13.71-27.23,48.33-57.99,80.07-60.56,7.91-.64,16.13,0,23.93,1.04.95.85-5.48,7.35-6.42,8.87-2.21,3.62-5.28,11.69-6.3,15.82-.39,1.59-.02,1.74,1.53,1.5,27.09-22.91,56.91-43.24,90.75-55.29,83.94-29.9,187.8-14.11,235.28,66.49,1.91,3.24,1.77,9.71,5.24,4.78,7.08-10.04,1.02-17.48,20.56-13.41,33.3,6.93,29.45,42.59,12.95,64.24-21.99,28.88-59.63,33.97-93.9,29.64-1.44-1.2-1.49-2.47-1.06-4.19,16.87-12.13,29.74-32.62,34.4-52.61.81-3.46,4.83-21.8,1.25-22.89l-8.16,18.17c-16.32,29.41-57.24,66.71-93.82,63.08-1.32-.13-2.5.41-2.84-1.55,24.35-9.28,50.23-27.82,62.97-50.68,2.99-5.36,10.04-19.44,7.26-25.13-.71-1.46-1.27-.62-2.65-.75-10.73,18.69-29.78,36.21-47.66,48.48-31.13,21.38-66.82,29.95-104.48,31.27-12.62.44-25.3-.08-37.84-1.11.29-1.83,2.14-1.8,3.44-2.37,22.68-9.83,44.47-17.65,64.12-33.29,10.36-8.23,30.62-31.22,33.1-43.97.28-1.42.77-3.84-1.17-4.24-1.49-.3-14.23,16.73-17.53,18.36-53.01,46.58-126.92,65.29-196.91,53.98-.64,2.72.81,1.83,2.01,2.7,14.34,10.41,27.8,17.8,34.21,35.53,15.34,42.49-15.82,118.05-54.81,141.06-7.11,4.19-11.35,6.07-17.59-1.07,15.88-2.3,17.83-16,15.49-29.42-3.13-17.97-28.9-24.78-44.81-24.1-27.95,1.21-52.78,14.96-75.55,29.42-2.01.34-1.32-.44-1.84-1.34-4.32-7.34-8.35-23.42-10.05-32.02-10.65-54.3,1.47-99.11,47.65-131.71,4.56-3.22,13.59-6.84,17.25-9.97,1.37-1.17,1.54-2.61,1.83-4.25.63.36,8.12,1.09,8.81.89.92-.26,2.6-2.02,4.62-2.9,1.85-.81,3.19,1.23,2.54-3.23h0Z"/>
  <path class="st7" d="M168.9,126.57c.15-.14,3.77-.17,4.14.13.6.47,2.72,11.62,3.86,14.53,1.88,4.84,6.4,12.64,9.63,16.72,2.5,3.16,18.49,17.12,18.54,18.41.05,1.52-2.21,1.15-3.19,1.1-12.27-.68-32.97-23.93-32.97-35.7,0-2.21-.56-14.68,0-15.2h-.01Z"/>
  <path class="st15" d="M595.68,215.68c2.18.74,2.39,2.35,1.06,4.19-.63.87-3.53,2.18-4.24,3.67,0,1.88,23.19,7.71,26.58,8.4,7.91,1.61,15.82,1.29,22.89,2.62,1.21.23,2.02.47,2.55,1.67,18.73,34.15,28.93,72.02,29.92,110.94.11,4.24.56,10.78-.06,14.7-.67,4.15-5.12,5.44-4.04,9.27.6,2.14,13.17,12.79,15.79,15.98,32.71,39.57,21.69,95.39-4.42,135.03-67.1,101.89-206.68,116.79-313.09,69.75-19.55-8.65-54.57-29.11-67.7-45.49-6.11-7.61-3.32-5.54-3.17-13.57.09-4.38-2.32-14.87-7.13-16.15-5.59-1.49-2.01,7-2.75,10.62-1.26,6.19-9.01,10.65-14.41,13.07-26.93,12.09-63.18,1.32-74.72-26.46,7.61-7.58,16.77,1.44,26.16,2.52,9.96,1.14,17.92-.32,23.65-8.97,2.45-3.7,4.43-13.53,5.74-14.78,1-.96,6.46-2.55,9.34-4.95,9.95-8.28,8.21-14.26,9.66-25.08,1.06-7.89,6.24-7.68,10.34-13.93,11.22-17.06,2.44-33.74-11.47-45.92,36.82-14.25,65.29-63.12,71.87-100.07,4.45-24.98,3.63-50.91-9.1-73.43,13.62.02,27.36-.24,40.96-1.07,6.41-.39,16.88-3.09,22.39-2.95,3.24.08,10.06,3.74,14.1,4.76,19.07,4.8,36.37,5.49,56.09,4.48,10.26-.52,23.82-4.28,33-4.26,5.11,0,11.68,2.64,17.05,3.21,26.88,2.81,55.06-1.92,77.14-17.8h0Z"/>
  <path class="st10" d="M367.57,624.89c1.44,1.38,2.33,4.15,4.08,5.95,24.77,25.61,59.59,49.9,96.87,51.34,19.46.74,48.36-13.63,51.5-34.17.54-3.56-1.29-10.79,2.23-12.48,6.63-3.18,27.2,2.38,34.61,4.71,34.43,10.79,59.9,38.85,87.28,60.8,13.34,10.68,27.18,20.8,40.92,30.96-32.54,24.07-49.42,63.46-49.47,103.25-4.29-5.43-14.34-6.32-16.74-12.86-8.53-51.4-16.56-106.74-51.9-147.54,6.14,25.2,15.45,49.42,21.62,74.62,14.17,57.92,23.53,131.54,25.21,191.13.1,3.4,2.71,5.66-.48,8.98-3.19,3.32-17.81,9.28-22.65,11.23-68.53,27.56-177.45,24.94-248.49,6.24-28.68-7.55-56-18.84-81.72-33.27,21.08-52.7,35.22-108.94,38.94-165.68,12.92-6.31,37.1-26.23,39.56-40.57.32-1.86,1.22-16.68-1.88-14.45-9.57,15.37-26.3,30.13-43.43,36.9-20.66,8.16-52.98,17.06-74.93,22.64-5.57,1.42-11.42,1.78-16.78,3.9,1.19-4.56,4-8.36,5.61-12.81,12.48-34.49,7.25-87.16-14.33-117.53-1.11-1.56-8.5-8.01-7.26-9.09l55.76-7.45c27.49-6.04,55.84-13.4,84.24-12.49,8.57.27,36.18,2.46,41.64,7.71h-.02Z"/>
  <path class="st4" d="M471.34,1077.61c18.05-6.78,35.95-14.62,50.82-27,3.07-2.56,7.28-5.55,6.47-9.87-11.65,3.92-23.31,9.35-35.35,12.87-9.81,2.87-20.14,4.45-29.66,7.47-15.6,23.32-18.15,52.8-26,79.23-4.23,3.84-9.6,6-15.16,7.09-44.79,8.77-125.16-9.55-164.49-32.44-5.06-2.94-9.47-4.48-9.28-10.76.33-10.93,4.6-27.22,6.75-38.51,6.56-34.53,15.34-68.72,19.9-103.59,33.31,15.18,68.64,26.69,105.09,32.24,66.36,10.1,134.79,6.67,199.74-9.25,2.89-.71,12.77-4.91,14.51-3.67,5.53,31,15.9,61.01,23.1,91.55,1.62,6.87,2.19,14.8,3.55,21.66,1.36,6.86,6.72,10.02-.66,16.31-23.88,20.39-92.87,28.94-123.3,25.07-3.36-.43-20.95-3.49-21.76-5.82s-1.73-10.41-2.17-13.59c-.71-5.27-3.57-36.64-2.09-39.01h-.01Z"/>
  <path class="st14" d="M163.58,454.71c11.14-9.87,45.9-22.04,60.47-19.19,19.49,3.81,45.59,27.91,27.33,46.42-14.17-21.6-37.22-28.18-62.29-22.56-10.3,2.31-23.52,6.91-27.63,17.33,6.99-1.5,12.21-5.54,19.7-6.27,12.64-1.24,35.98,0,46.19,7.95,5.57,4.34,12.23,14.08,6.01,20.41-6.22,6.33-22.27-2.39-29.99-3.07-33.46-2.96-51.91,45.8-87.68,29.23-.55,5.17,7.66,7.97,9.01,10.5.72,1.36,1.44,6.05,1.6,7.86,1.93,21.07,1.2,57.03.06,78.65-1,18.85-5.01,37.19-13.88,53.94,1.34,1.27,12.55-9.36,13.84-11,3.7-4.69,8.64-18.12,12.37-20.32s28.28-5.26,32.91-4.89c5.17.42,12.72,17.14,14.52,21.87,9.2,24.09,11.15,51.23,8.44,76.64-.72.96-21,3.47-24.09,3.74-65.82,5.93-134.55-5.81-138.92-83.29s37.06-187.01,89.07-245.77c24.5-27.68,71.2-62,110.51-58.8,11.57.94,27.64,10.21,13.85,20.95-13.17,10.25-18.53,3.63-31.9,4.2-20.48.88-57.59,21.28-68.49,38.44-1.09,1.7-3.49,5.19-3.4,7.03,0,.21,3.04,2.89,3.2,2.73.13-.15.31-1.76,1.09-2.59,8.23-8.81,48.6-30.8,60.14-31.99,13.35-1.36,26.88,3.02,38.48,9.24,8.31,4.47,26.42,18.5,27.95,28.02.72,4.47-.31,13.31-2.58,17.26-1.64,2.86-5.93-5.68-6.96-6.81-17.43-19.19-36.45-22.97-61.45-16.54-13.05,3.35-37.01,14.16-41.76,27.53-.37,2.89,1.04,3.94,4.26,3.15h.01Z"/>
  <path class="st18" d="M801.08,605.68c-2.06-1.5-7.31,6.81-7.96,8.39-6.6,15.9-.77,34.82,12.19,45.65,2.02,1.69,5.06,1.7,6.3,4.29-4.04,7.68-8.14,15.92-7.19,24.91.47,4.47,3.48,8.17,3.15,12.69-.77,10.52-7.11,20.03-5.3,33.46,2.38,17.73,22.87,26.38,39.28,21.59-11.19,26.39-30.32,53.76-51.59,73.41-30.69,28.36-55.46,34.9-96.11,22.28-5.98-1.86-35.64-14.12-37.3-18.82-3.14-8.89,2.74-31.76,5.89-41.01,4.56-13.38,12.95-29.23,22.11-40.08,1.6-1.89,7.92-8.98,9.37-10.15.93-.75,2.33-1.34,3.51-1.36,1.53-.02,16.38,8.48,16.98,9.4,1.85,2.85-3.64,9.57-5.02,12.94-1.17,2.85-4.9,14.67-2.99,16.45,3.03,2.84,4.41-4.85,5.49-6.66,7.14-11.89,26.35-24.1,37.09-33.69,12.25-10.93,24.14-23.64,34-36.75,4.45-5.91,4.93-13.43,14.93-12.02l-14.29-16.84c-7.89-11.76-12.79-34.69-11.13-48.57,2.09-17.37,21.19-46.8,40.05-49.65,23.56-3.56,29.06,22.26,26.8,40.02-.9,7.11-9.21,26.36-16.15,29.17-19.08,7.74-16.99-29.57-22.09-39.04v.02Z"/>
  <path class="st12" d="M925.24,489.99c-10.08,10.58-30.23,23.62-44.37,28.11-3.82,1.22-7.25.77-10.7,2.29l-.96,40.23c-2.89-.08-5.72-.17-8.59.45-7.34,1.59-14.3,8.58-21.2,3.18-2.18-1.71-.12-3.97-.02-6.26.55-12.49.98-25.02,1.98-37.5-.75-2.76-20.81-15.24-24.99-19-71.2-63.98-51.65-238.8,7.07-306.21,44.14-50.67,102.99-35.48,133.56,19.34,41.76,74.88,28.2,212.4-31.79,275.38h.01Z"/>
  <path class="st0" d="M690.4,1356.34c.4,1.6-.26,1.68-1.12,2.54-9.87,9.73-18.56,15.88-27.41,27.51-4.5,5.91-10.71,12.61-8.7,20.25,7.01-7.14,13.75-14.86,21.26-21.5,6.32-5.6,17.87-16.05,26.18-17.19,10.74-1.47,5.15,2.94,7.82,4.7l12.84,2.54c-4.33.18-9.12,2.52-13.14,4.35-19.38,8.83-39.24,23.65-42.19,45.97,2.82,2.48,10.4-9.63,12.22-11.54,11.2-11.69,46.77-37.83,62.81-37.8,29.84.04,80.19,13.86,90.22,45.39,3.88,12.19-.22,14.91-11.72,19.45-71.88,28.45-171.97,11.31-242.17-16.78-4.4-1.76-21.86-10.06-23.65-13.4-4.52-8.45-.13-33.42,10.16-37.21,2.34-.86,11.48,3.67,15.63,4.46,9.33,1.78,34.31,3.68,43.3,2.3,10.85-1.67,26.77-25.16,38.6-30.12,6.45-2.7,16.74-3.96,22.61.37,2.63,1.95,3.19,5.28,6.44,5.72h-.01Z"/>
  <path class="st0" d="M358.33,1379.38c3.76,8.31,14.43,47.02,9.7,53.04-1.02,1.29-12.92,5.77-15.52,6.73-64.46,24.12-172.96,54.74-235.45,15.94-9.34-5.8-10.58-5.52-6.99-16.76,8.22-25.71,43.59-40.45,68.96-41.11,25.92-.67,47.86,21.23,63.95,38.67,1.07,1.16,1.58,2.63,3.62,2.19,1.39-8.69-2.65-14.65-7.96-20.98-9.48-11.28-25.56-20.62-39.91-24.11l17.69-4.05c20.13-1.5,42.92,12.02,56.29,26.05,1.4,1.48,7.75,11.75,10.09,9.45.93-.9-.94-3.39-1.45-4.33-5.12-9.68-15.87-21.54-24.82-27.97-5.07-3.64-19.42-10.11-21.14-14.89-.97-2.7,7.16-5.44,9.05-5.8,14.78-2.77,28.2,7.56,39.32,15.88,4.74,3.54,9.18,10.16,15.51,10.92,11.2,1.34,35-3.65,44.95-9.24,2.11-1.18,13.02-10.5,14.13-9.65Z"/>
  <path class="st21" d="M508.41,1153.99c24.35-.29,48.81-2.26,72.62-7.63,3.07-.69,13.94-5.18,15.23-4.03l39.4,141.68c-25.29,12.05-57.12,20.23-84.68,12.02l-42.57-142.04Z"/>
  <path class="st20" d="M384.91,1167.65l-28.63,142.08c-1.44,1.57-10.37,2.41-13.32,2.6-18.06,1.17-45.8-1.71-61.58-10.71-2.77-1.58-9.31-5.47-9.2-8.55,9.97-46.6,19.48-93.52,30.78-139.7,26.63,8.05,54.27,11.64,81.95,14.29Z"/>
  <path class="st17" d="M853.24,751.39c12.31-11.95,19.32-28.91,19.3-45.98,1.33-2.03,14.87-2.75,17.25-3.45,4.52-1.33-2.6-7.35-4.93-8.45-15.8-7.49-34.49,2.85-50.29,3.39-22.61.77-14.04-26.7.88-32.72,21.52-8.68,52.77-2.94,75.25.21-4.44-12.62-19.25-15.98-31.34-16.82-13.44-.92-27.09.45-39.95,4.24l10.48-17.45c3.57-5.38,2.36-13.83,8.89-16.41,10.72-4.24,48.67.13,58.03,6.37,2.43,1.62,2.75,4.4,5.62,4.41-8.24-28.35-43.08-26.67-65.98-17.82.85-10.32-1.49-20.29-3.16-30.36,21.48-7.4,49.7-6.58,65.43,11.48,20.15,23.14,15.17,78.94,2.14,104.87-12.18,24.23-39.57,50.56-67.6,54.48h-.01Z"/>
  <path class="st3" d="M641.44,1298.65c.31,8.05,12.43,32.81,10.5,39.1-.33,1.08-14.38,13.45-16.66,15.36-3.31,2.78-7.09,5.15-10.53,7.75-.85.65-1.15,2.7-2.45,3.33-2.95,1.43-28.35.05-33.43-.66-8.76-1.23-15.79-4.27-22.68-9.62l-10.95-42.67c11.88,4.77,25.17,3.66,37.59,1.93,17.38-2.43,32.57-7.76,48.59-14.5v-.02Z"/>
  <path class="st19" d="M353.01,1325.91c.53.62-.94,11.91-1.21,14-.68,5.25-3.31,24.74-5.18,28.17-1.42,2.58-15.75,9.65-19.34,10.58-6.05,1.57-20.86,4.05-26.47,2.35-7.4-5.61-14.29-12.06-22.38-16.74-2.78-1.61-16.5-7.39-16.78-8.57l7.29-43.4c6.39,2.33,12.58,6.92,18.97,9.09,19.09,6.48,45.25,6.33,65.1,4.54h.01Z"/>
  <path class="st6" d="M834.08,1441.23c-6.02,27.79-46.53,35.1-70.89,37.62-47.44,4.9-88.83-5.59-132.96-20.79-6.62-2.28-14.83-6.51-21.29-8.4-2.84-.83-1.18,5.85-1.55,7.82-.93,4.92-14.25.38-18.33-.82-8.94-2.61-29.64-11.13-32.3-20.6-.42-1.48-1.89-12.14-1.51-12.65,20.41,12.06,44.69,18.94,67.63,25.1,51.8,13.9,111.13,26.54,164.39,14.23,16.89-3.91,33.23-10.83,46.81-21.5h.01Z"/>
  <path class="st2" d="M329.64,1472.65c-.89-3.54-.62-7.58-1.1-10.99-.2-1.45.62-1.81-1.59-1.57-23.03,10.36-47.97,23.17-72.69,29.05-36.21,8.61-110.77,12.39-139-15.53-1.69-1.68-8.62-10.49-7.02-12.47,15.28,8.63,29.25,16.7,46.79,20.47,54.85,11.82,135.41-9.93,187.65-29.1,8.6-3.16,17.02-7.31,25.23-11.3,1.59,9.79-1.6,14.17-9.06,19.9-3.61,2.77-26.62,14.01-29.21,11.53h0Z"/>
  <path class="st1" d="M387.5,624.12c-1.75-1.71-3.8-3.47-4.67-5.85,1.87-.14,3.71-.02,5.58.26,31.1,4.75,59.28,25.26,89.69,26.96,7.48.42,14.47-1.37,21.82-1.62,6.15-.21.46,7.58-1.71,9.92-4.05,4.37-16.45,9.74-22.34,10.49-32.58,4.24-66.41-18.75-88.37-40.17h.01Z"/>
  <path class="st11" d="M853.23,709.47c.76,11.26-8.27,30.51-20.9,31.37-16.4,1.12-12.73-17.99-9.84-28.12,10.74.68,20.7,1.32,30.75-3.25Z"/>
  <path class="st23" d="M191.25,761.89c-3.79,13.62-8.85,12.29-15.95,1.56l15.95-1.56Z"/>
  <path class="st8" d="M159.32,451.56c-.76,2.9,2.22,1.98,4.26,3.15-1.55,1.37-2.54,4.73-5.31,4.19-.59-3.13.15-4.79,1.05-7.34Z"/>
  <path class="st16" d="M298.72,283.82c1.47,1.36,5.24,18.46,5.37,21.45.87,18.38-12.85,47.52-27.7,58.75-1.06.81-1.35,2.03-3.19,1.56-1.72-8.29,3.49-13.25,6.57-20.25,6.31-14.36,13.5-31.27,16.18-46.71.8-4.6.13-9.03.66-13.25.18-1.47.56-3,2.12-1.55h0Z"/>
  <path d="M415.81,434.79c3.01,23.04,22.25,31.27,43.9,26.99,3.63-.71,19.48-7.44,21.02-6.02-.36,6.32-4.77,12.34-9.64,16.18-1.43,1.12-10.05,4.62-8.44,6.87.11.15,2.02.42,3.21,1.53,18.57,17.39,31.13,26.73,57.41,31.55,21.61,3.95,53.43-.58,71.28-13.73,3.3-2.43,23.44-24.61,26.67-21.42-4.52,19.43-24.47,37.12-41.85,46.31-43.03,22.72-102.41,1.24-129.99-35.87-1.23-1.67-1.49-4.95-2.68-5.75-1.29-.87-12.3-2.62-15.96-4.19-14.69-6.26-26.19-23.09-19.24-38.84.79-1.78,1.88-3.93,4.31-3.61h.01Z"/>
  <path d="M616.97,399.16c29.47,26.42-4.66,70.49-38.71,66.95-1.91-.2-14.07-3.46-14.5-4.08-.34-.49-.01-2.4.49-3.18,1.04-1.62,17.39-5.8,21.18-7.44,7.85-3.43,18.5-11.13,22.56-18.66,5.07-9.39,5.5-21.4-7.5-23.13-8.94-1.2-31.29-.39-37.71-5.84-2.58-2.19-6.91-9.98-1.67-10.92,10.41-1.88,27.85.72,38.84,1.04.51-2.95-4-3.12-6.31-4.78-18.2-13.13-22.37-29.24-23.48-50.77,2.26,3.34,6.29,4.73,8.54,6.78,4.3,3.92,9.97,15.54,14.89,20.97,19.34,21.36,46.13,20.65,47.27-12.56.16-4.65-2.69-19.98-1.03-22.57,2.49-3.86,7.77,7.36,8.51,9.5,3.49,9.98,4.91,27.17,1.69,37.25-4.09,12.78-19.5,22.83-33.06,21.44h0Z"/>
  <path d="M436.41,384.1c6.22,7.32,17.71,16.89,26.72,20.33,15.35,5.86,24.68,1.43,31.62-12.96,6.6-13.67,3.9-33.24,1.65-48.12-.66-4.38-5.82-14.57.87-10.3,13.48,8.6,18.31,54.32,13.55,67.97-9.72,27.84-44.68,33.29-66.8,15.94-13.55-10.63-24.41-30.76-25.96-47.81-1.22-13.43,5.49-9.53,9.87-1.34,3.47,6.5,2.79,9.62,8.46,16.3h.01Z"/>
  <path d="M400.7,308.76c-1.28.7-3.57.06-5.11.23-7.23-29.19,29.93-61.28,57.89-58.59,9.44.9,32.76,12.31,31.07,23.53-.19,1.26-2.97,3.66-4.35,3.66-1,0-5-3.34-7.4-4.28-34.33-13.39-50.03,1.42-67.89,27.57-1.03,1.51-3.7,7.61-4.21,7.89h.01Z"/>
  <path d="M623.98,253.85c6.17,5.01,16.26,20.7,17.37,28.48.42,2.88-.06,5.91.09,8.82-2.42,2.66-16.19-17.72-18.59-19.94-9.31-8.65-22.91-12.59-35.04-7.2-7.29,3.24-7.22,9.07-17.55,4.49-6.61-2.94-4.57-5.35-.66-9.84,14.03-16.19,37.68-18.38,54.39-4.8h0Z"/>
  <path d="M818.48,479.51c-58.65-55.64-33.45-210.1,11.96-268.98,29.98-38.88,68.86-36.62,96.69,3.12,44.09,62.96,32.87,203.4-18.01,260.99-25.19,28.53-62.5,31.58-90.65,4.86Z"/>
  <path class="st5" d="M906.1,454.36c-18.56,25.86-44.7,36-73,16.52-27.71-19.08-35.89-77.92-36.25-109.03-.48-41.46,18.65-111.11,46.28-143.05,37.3-43.12,70.42-6.8,85.13,32.54,21.68,58,14.47,151.96-22.16,203.02h0Z"/>
  <path class="st22" d="M838.82,435.25c-1.99,1.99-8.48,8.35-10.62,8.95-2.26.64-2.33-5.02-2.37-6.52-.33-12.09,20.49-42.19,28.03-53.13,20.1-29.13,42.39-56.89,63.86-84.92,2.06-1.25,7.84-11.15,9.47-10.57,4.81,1.74,5.17,21.5,3.17,26.16-11.72,17.27-25.1,33.31-37.55,50.03-16.54,22.23-34.54,50.5-53.99,69.99h0Z"/>
  <path class="st9" d="M833.64,333.7c-2.21,2.57-9.71,12.12-11.81,13.01-1.31.56-2-.24-1.58-1.55,25.64-35.11,46.54-73.84,75.54-106.43-.32,9.85-6.2,18.08-11.25,26.13-14.19,22.58-33.48,48.68-50.91,68.85h0Z"/>
  <path class="st9" d="M819.19,320.51l61.87-96.83,4.11-2.76c.24,1.79-.19,3.3-.81,4.96-1.89,5.08-8.58,16.68-11.55,22.17-13.54,25.04-29.98,49.85-49.99,70.27-1.1,1.12-1.53,2.66-3.63,2.18h0Z"/>
</svg>