<?xml version="1.0" encoding="UTF-8"?>
<svg id="Layer_1" xmlns="http://www.w3.org/2000/svg" version="1.1" viewBox="0 0 1024 1536">
  <!-- Generator: Adobe Illustrator 29.5.1, SVG Export Plug-In . SVG Version: 2.1.0 Build 141)  -->
  <defs>
    <style>
      .st0 {
        fill: #f7d995;
      }

      .st1 {
        fill: #d04219;
      }

      .st2 {
        fill: #112b36;
      }

      .st3 {
        fill: #5a472e;
      }

      .st4 {
        fill: #152a30;
      }

      .st5 {
        fill: #e89e4d;
      }

      .st6 {
        fill: #f1dcbc;
      }

      .st7 {
        fill: #f1dbb8;
      }

      .st8 {
        fill: #030302;
      }

      .st9 {
        fill: #051016;
      }

      .st10 {
        fill: #f0d8b5;
      }

      .st11 {
        fill: #235f79;
      }

      .st12 {
        fill: #f0d9b5;
      }

      .st13 {
        fill: #e69947;
      }

      .st14 {
        fill: #cf4218;
      }

      .st15 {
        fill: #e69a48;
      }

      .st16 {
        fill: #f1dbb9;
      }

      .st17 {
        fill: #e79c4b;
      }

      .st18 {
        fill: #f6ce8e;
      }

      .st19 {
        fill: #030304;
      }

      .st20 {
        fill: #efd7b3;
      }

      .st21 {
        fill: #020302;
      }

      .st22 {
        fill: #f3ddb9;
      }

      .st23 {
        fill: #efe087;
      }

      .st24 {
        fill: #f3e0c1;
      }

      .st25 {
        fill: #f5e3c6;
      }

      .st26 {
        fill: #030403;
      }

      .st27 {
        fill: #0d262d;
      }

      .st28 {
        fill: #59462d;
      }

      .st29 {
        fill: #030402;
      }

      .st30 {
        fill: #030303;
      }

      .st31 {
        fill: #f1d35d;
      }

      .st32 {
        fill: #e69a47;
      }

      .st33 {
        fill: #f2debf;
      }

      .st34 {
        fill: #020303;
      }

      .st35 {
        fill: #f1dab7;
      }

      .st36 {
        fill: #d04319;
      }

      .st37 {
        fill: #f2dbb9;
      }

      .st38 {
        fill: #f7d38b;
      }

      .st39 {
        fill: #f0d8b4;
      }

      .st40 {
        fill: #f1dcba;
      }

      .st41 {
        fill: #040504;
      }

      .st42 {
        fill: #040404;
      }

      .st43 {
        fill: #6b210e;
      }

      .st44 {
        fill: #f3dcb8;
      }

      .st45 {
        fill: #eeb022;
      }

      .st46 {
        fill: #e8a14a;
      }

      .st47 {
        fill: #040403;
      }
    </style>
  </defs>
  <path class="st26" d="M403.04,908.44c-6.93-5.36-33.22-168.05-40.05-173.92-14.17-12.17-26.12-29.58-33.17-46.83-2.89-7.09-4.2-14.71-7.33-21.68-46.12,36.16-113.09,2.42-133.66-46.33-9.55-22.65-11.92-45.35-4.77-69.11,6.34-21.08,20.86-40.42,43.93-43.57-3.51-7.57-9.43-13.74-13.51-20.98-33.31-59.05-13.91-136.61,23.52-189.01-1.18-1.09-9.77,8.13-11.03,9.46-6.09,6.49-21.57,31.41-27.51,10.57-6.78-23.78,9.7-64.77,23.73-84.35,19.05-26.59,51.54-42.02,82.81-48.7l-12.49-1.43c-20.39-.51-39.18,7.73-58.88,11.4-16.09-3.61-8.64-23.01-3.04-32.88,12.48-22,43.4-41.4,67.58-47.42,45.18-11.25,89.59-1.27,131.84,15.33-10.85-8.73-24.27-15.83-37.02-21.47-9.54-4.22-24.41-4.46-15.41-19.45,15.82-26.35,64.1-17.12,87.95-8.09,35.1,13.29,64.71,39.5,82.66,72.34l7.81,17.67c-.8-17.68-3.3-35.4-8.04-52.44-2.63-9.44-16.58-39-8.69-46.3,7.12-6.58,20.59,3.45,26.33,8.16,37.36,30.65,51.85,86.73,32.59,131.25-2.9,6.71-7.15,12.69-10.17,19.32,66.48-1.33,118.3,62.31,138.75,119.75,1.34,3.77,6.35,24.31,7.25,25.27.19.2,3.33-1.17,5.48-1.09,23.76.84,42.72,19.85,48.73,41.86,43.08,6.7,77.3,41.32,87.48,83.02,13.86,56.75-10.66,116.3-59.7,147.22.01.47-.14,1.01.02,1.45.4,1.14,13.76,15.3,15.95,18.06,8.91,11.25,27.59,42.38,41.38,44.7,14.8,2.49,12.41-19.22,9.14-28.22-5.16-14.18-21.5-20.23-33.48-27.51,7.49-7.57,21.92-3.21,29.73,2.27,4.28,3,6.57,7.44,9.58,9.92,3.57,2.94,10.42,5.38,15.16,9.34,39.02,32.54,26.68,94.94-8.46,125.48-44.35,38.55-106.35,29.6-151.33-2.7-29.56-21.23-48.49-51.95-68.19-81.8-8.03,10.22-17.64,18.28-28.19,25.79-1.74,1.24-4.72,2.35-5.69,3.12-2.72,2.15,1.55,2.13,3.06,2.85,25.58,12.3,65.28,51.74,75.82,78.21,5.65,14.19-4.62,25.64-13.42,35.35,23.2,32.27,54.36,58.67,94.91,64.65,8.94-20.3-10.1-31.13-16.55-45.95-9.41-21.66,8.8-43.04,31.26-35.26,12.33,4.27,20.66,17.12,23.59,29.41,3.77,15.76-2.82,39.26,23.7,28.3,28.1-11.61,38.13-41.33,50.14-65.86,5.19-10.6,9.63-18.86,23.41-17.69,21.01,1.79,18.87,34.53,13.47,48.57-9.31,24.2-28.65,32.02-44.52,48.48-14.8,15.36,1.46,11.99,12.48,7.48,12.11-4.95,28.31-20.2,40.51-21.48,20.95-2.19,28.62,19.06,19.69,35.68s-36.78,23.29-54.69,25.31c-7.73.87-16.76-1.37-23.47,4.51,12.94,15.53,56.02,4.97,63.88,23.1,8.19,18.87-9.11,31.28-26.41,31.49s-32.89-15.84-49.49-19.08c1.11,17.41,31.23,28.89,28.78,46.24-.89,6.3-5.6,13.64-12.35,14.69-26,4.05-42.78-27.72-53.43-46.51-21.29,3.73-48.01-4.66-54.15-27.28-54.01-7.28-101.37-38.61-135.88-79.67-16.45,4.53-24.73-2.82-33.39-15.56l-8.57-13.91c-1.74,25.07-5.65,51.49-14.26,75.24-1.4,3.87-11.77,25.38-11.24,26.79.96,2.54,10.11,8.73,8.5,14.96,6.24-2.78,12.25-6.47,18.73-8.76,84.28-29.76,103.04,66.96,105.31,128.22.47,12.83.35,25.96-2.03,38.54,1.73-1.49,6.49-3.03,7.72-4.27,8.03-8.05,16.88-29.45,26.76-40.74,29.32-33.52,85.58-50.73,114.94-7.92,36.89,53.78-23.63,126.05-62.96,159.9-30.72,26.45-112.54,92.31-148.47,45.53-19.98-26.02-6.53-90.68-5.28-123.03.97-25.13.65-52.92-1.73-77.96-1.31-13.78-3.69-27.59-11-39.5l-9.27,22.21c-7.64,15.5-21.26,40.74-41.98,37.54-9.07-1.4-24.2-8.83-34.52-11.47-8.09-2.07-17.6-4.16-25.85-5.15-8.89-1.06-48-16.31-54.28-12.55-1.12.67-120.47-41.18-122.09-38.43"/>
  <path class="st26" d="M356.82,1085.26c-5.39-10.05-6.18-20.53-6.69-25.88-2.33-24.17,6.39-47.78,21.75-66.07.3-1.99-10.88-9.46-9.7-16.56.97-5.89,17.52-24.04,21.67-30.42,4.76-7.3,10.92-19.32,14.68-27.32,6.35-13.49,10.93-28.57,14.47-43.02"/>
  <path class="st45" d="M378,126c26.43,4.62,69.02,20.14,89.24,37.98,4.68,4.13,9.53,11.67,14.71,15.57,1.13.85,1.8,1.85,3.53,1.45,2.5-.64.49-5.51-.02-6.97-5.35-15.41-22.79-36.1-34.94-47.06-16.46-14.84-37.81-25.68-57.51-35.47,7.41-5.52,17.48-6.65,26.47-6.49,57.87,1.08,110.52,44.12,127.52,98.47,2.91,9.32,3.57,18.15,5.84,27.17.2.77-.3,3.29,1.63,2.33,6.64-3.29,13.15-39.34,13.55-47.45,1.47-29.14-8.17-50.33-15.02-77.06-.14-.55-.29-1.63.48-1.47,20.16,15.27,34.8,39.16,40.02,63.98s-2.75,59.94-17.66,80.36c-2.61,3.58-8.61,4.73-12.76,7.24-5.95,3.58-14.8,12.38-18.08,18.42-2.61,3.71-8.86,4.25-10.84-.4-1.54.4-2.87-.15-3.81-1.43-1.47,3.75-6.59,4.24-5.36-.16,7.28-28.86,4.22-60.9-16.1-83.99,9.27,20.3,14.39,43.17,16.64,65.75.07.66-.17,1.36-.44,2.1s-.67,1.45-1.11,2.15l-.58,4.89c.69,9.18.37,11.47-8.24,14.87-8.39,10.94-9.21,2.33-9.14-6.4l-1.05-3.36-3.42-2.81c-12.87-28.81-39.72-52.14-70.7-57.82,19.85,12.69,39.88,26.81,54.95,45.17,3.3,4.02,12.79,16.01,12.59,20.27-.04.74-.21,1.47-.42,2.2l3.66,5.97c-8.47,5.47-19.02,8.22-29.14,9.97-5.07-1.04-12.79-1.8-15.3,2.87-.82.27-14.99-4.46-15.72-5.81l-.31,1.13c-9.71-.56-19.28-.93-28.69-1.13-4.65.96-9.49,2.29-14.5,4l-.77,2.35c-7.76,3.88-15.34,8.11-22.73,12.69l-39.55,10.6c-28.64,9.61-61.61,34.15-74.79,61.42,20.71-11.54,43.67-1.63,61.95,10.04l.9,2.9c2.54,1.01,3.87,2.34,4,4,.79,1.46.26,3.21-1.58,5.24.75,2.18.61,3.76-.42,4.76-11.1-3.17-23.13-3.12-34,1l-1.24,2.54c-14.17,5.64-27.05,14.97-36.76,26.67,13.77-9.34,27.89-16.86,44.4-20.33l3.61,1.12c7.47-2.26,15.22-3.11,22.98-3.9,2.01,5.54,2.58,7.56-2.08,11.35.42,2.68-2.7,7.73-4.75,6.3l-5.15,1.25-.17,2.3c-20.5,14.64-36.75,36.66-42.11,61.4l8.9-11.77,2.37.07c4.27-9.44,10.59-2.85,10.55,4.57-3.31,3.5-5.01,5.89,1.58,4.49l1.3,1.21c-2.73,3.93-4.54,8.17-5.43,12.73-2.12,10.55-3.64,21.18-3.01,31.99-4.45-1.87-8.22-4.8-12.64-6.85-5.79-2.69-23.78-6.84-26.06-8.44s-12.04-13.51-14.12-16.37c-31.63-43.39-26.27-93.96-7.92-141.58,6.73-17.46,22.62-49.26,35.76-62.24,6.07-5.99,16.03-9.99,22.47-15.53,1.44-1.24,3.69-2.83,3.52-4.98h-15.5c-1.06,0-17.68,6.08-19.88,7.12-15.75,7.51-28.77,21.49-40.62,33.88v-15.5c0-1.93,5.36-17.58,6.52-20.48,13.26-33.15,37.03-55.71,69.81-69.19,19.06-7.84,40.53-14.69,60.66-6.82,2.29-4.65-2.29-8.18-5.52-10.98-26.28-22.79-74.54-15.27-104.46-4.03-1.25-1.71,3.07-9.33,4.18-11.31,9.49-16.83,32.35-32.96,50.81-37.69,7.62-2.86,15.63-4.14,23.65-5.22,1.01-.14,2.03-.24,3.05-.15.09,0-1.16.78-.7-.63-.06-.47.04-.81.52-.99.49-.09,1,.05,1.48,0,18.92-.78,38.15.08,57,2Z"/>
  <path class="st11" d="M395.41,758.32c4.25,2.52,7.61,7.76,11.85,10.99,18.23,13.88,34.72,17.11,57.29,16.74,2.23-.04,4.91-1.44,6.75-.92.79.22,9.03,9.96,11.23,11.85,21.92,18.89,61.47,25.18,78.29-3.67,1.45-2.49,4.07-10.84,4.86-11.39,2.88-1.98,18.28-5.51,23.31-7.44,13.9-5.33,26.55-13.34,40.5-18.53,28.1,8.44,51.37,34.63,68.35,57.71,2.94,3.99,6.76,8.72,8.17,13.33h-16.5c-15.03,0-38.26,24.26-45.31,36.69-3.66,6.45-4.98,13.64-9.18,19.3-1.59-9.61-12.58-19.33-15.55-27.96-4.37-12.72-1.85-34.26-10.27-47.73l-6.18-9.3c-2.25,16.16,3.2,33.02,4.03,49.45,1.48,29.3-.89,59.31-8.53,87.55-1.64,6.05-12.83,42-17.97,42.63-28.52-6.67-62.57-1.15-86.53,15.86.34.88,2.3,1.02,3.13.96,24.16-1.48,77.13-20.85,93.87,5.02,7.34,11.34-.98,7.56-7.47,7.49-25.77-.25-51.55,11.3-76.51,16.56-33.39,7.02-59.22,1.26-89.25-13.82-15.94-8.01-30.11-17.75-40.7-32.36,16.84-18.47,27.43-38.2,36.39-61.39,8.32-21.56-13.34-45.04-8.89-66.79,2.51-12.26-20.89-34.52-21.35-48.28"/>
  <path class="st32" d="M327,379c.82.2,9.31,3.46,9.66,3.88l-.39,3.04c2.91,2.35,3.86,4.9.55,7.57,2.02,2.08,3.61,3.9,4.76,5.46-3.91-7.57,11.6-3.24,12.42,1.05.63,9.51,1.96,18.85,4,28l2.77,3.24c10.59,45.37,43.84,84.91,90.48,94.99,1.25.53,1.01,1.93-.25,2.77,11.87,3.24,24.09,4.14,36.66,2.69l1.52,5.57c-5.03,1.24-9.42,2.82-13.17,4.74-.05,1.24-18.65,9.18-22.13,11.37-52.77,33.28-76.25,105.11-50.6,162.86,10.4,23.42,39.12,40.53,64.76,34.3,51.5-12.52,51.86-90.86,110.57-99.43,20.6-3.01,42.57,7.71,57.92,20.87,4.42,3.78,31.34,31.07,31.46,34.5.06,1.79-1.76,3.8-2.94,5.07-16.58,17.96-44.13,33.67-66.36,43.64-19.77,8.87-40.23,15.28-61.68,18.83-.09,6.48,9.76,7.82,15,8-14.09,28.1-48.19,19.51-65-.99,23.95-10.18,43.47-28.41,47.99-55.02-9.15,8.35-16.16,18.8-25.52,26.97-28.01,24.47-68.19,27.89-97.48,3.54-37.68-31.31-47.14-86.36-36.99-132.51-2.52-2.82-9.57,14.09-10.03,15.46-9.48,28.2-1.58,60.79,9.02,87.53-22.22-19.42-36.83-48.02-39.97-77.52-.45-4.26,1.84-23.8-7.57-13.53-5.64,6.16-3.98,12.62-12.97,20.02-35.06,28.87-90.5-.41-109.02-35.94-21.67-41.59-10.61-112.36,49.58-97.58,18.38,4.51,36.71,15.97,51.47,27.51,6.41-9.69-8.76-14.34-9.56-22.42-1.9-19.13,3.23-41.48,9.06-59.55-3.58-2.86-15.54,18.39-16,21.99.29-1.45-.07-3.03.47-5,.36-1.32,3.81-6.72,3.53-6.99-2.04-1.93-1.64,3.34-3.98,1.98-5.55-7.41.4-6.77.88-9.63.18-1.09-2.88-4.12-1.9-6.37-3.84,1.38-4.34-1.02-6.99,3.01-2.44-.49-1.64-2.65-.59-4.35,9.87-16,22.67-32.86,33.21-46.06l-1.61-1.59,6-2.01-3-3.98c.74-.59,4.38,1.73,5,1,.22-.26-.29-2.22.06-3.21.5-1.43,4.92-4.44,3.88-5.75-.35-.45-3.61.97-.94-4.04-7.52-.69-14.57,2.52-22,2.99-.55-2.51,1.01-3.05,3.21-3.65l16.59-2.38c3.87.1,5.6-1.22,5.19-3.97l-1-1c-2.99-4.8-1.57-6.23,2-10Z"/>
  <path class="st36" d="M898,689c43.6,43.12,1.98,112.8-50.95,122.55-56.59,10.43-105.27-25.24-136.87-68.24-34.96-47.58-81.14-133.63-154.86-98.49-37.71,17.98-41.81,50.27-65.82,77.18-5.05,5.66-13.88,12.96-21.52,13.48,10.03-21.36,18.37-43.51,29.84-64.16,31.54-56.81,71.02-88.4,137.53-60.19,32.76,13.9,73.7,40.06,98.68,65.34s49.06,80.13,85.7,86.27c2.52.42,9.85.52,5.62-2.62-1.82-1.35-5.04-2.33-7.28-3.72-42.29-26.27-52.83-71.11-88.07-102.93-12.9-11.65-31.84-25.2-46.71-34.29-3-1.84-17.87-8.63-18.87-10.17-1.66-2.54,8.97-11.44,11.23-12.87,23.77-15.11,55.77-3.27,78.01,9.67,26.71,15.53,51,43.82,69.73,68.27,12.7,16.59,33.15,56.02,59.16,47.96,5.33-1.65,15.44-10.84,15.44-16.56v-16.5Z"/>
  <path class="st5" d="M525,255c3.18,3.46,3.16-1.44,4.5-1.99,2.6-1.07,2.37,1.52,2.98,1.77.4.17,1.84-.52,2.8.11s1.06,2.62,2.28,2.91c.72.17,6.16-.38,7.43-.81-4.61,8.48-6.55,21.43-5.99,30.99,2.05,2.34,8.81-12.75,9.58-13.91,52.74-78.87,139.6,13.24,163.43,70.4,10.62,25.47,14.83,51.3,18.47,78.53,1.44,2.57,4.62-4.07,4.54-5.02,10.63,6.89,4.63,4.79-.51,10.01-1.28,1.3-2.4,3.1-3.32,4.68-1.01,1.75-6.8,14.44-2.22,12.81,3.23-1.15,9.26-6.02,13.14-7.89,52.7-25.35,105.12,9.22,120.14,61.62,14.8,51.64-7.44,111.37-53.61,138.61-.5-.09-.78-.51-1.17-.77-1.75-1.16-10.65-10.9-10.31-12.44.26-1.21,9.76-8.2,11.49-9.99,54.79-56.82,31.55-157.48-55.02-158.31-48.31-.46-69.78,35.78-103.3,60.49-47.97,35.37-96.6,8.4-150.56,18.44-8.08,1.5-15.9,4.49-23.77,6.73,0-.07-1.58-.32-1-.99,1.15-1.32,5.53.87,2.98-4.01l-1,1.96-3.97,1.04-2.01-6c1.83.84,5.86.22,7.24.94,1.74.92,1.33,3.67,1.81,4.02,1.2.87,6.11-2.02,7.95-1.98-2.93-1.68-1.75-4.83-2-4.98-.72-.44-4.06.91-5.5.99-10.45.58-20.35-.88-30.51-3.02.17-.41,1-.81,1.01-.98l1.81-1.81c48.69,11.03,100.98-16.76,107.15-68.19l2.05-1.51-2-1.12c-.5-3.9-1.02-14,2-15.88-3.28,2.97-3.54-3.61.65-3.29,1.15.09,14.46,15.42,13.22,17.96-1.97,5.08-5.44,18.19-3.95,22.56.4,1.17,11.77-19.86,12.5-21.35,10.95-25.2,42.53-29.13,47.17,1.34,3.48,22.87-12.43,33.68-30.86,41.47,17.53,3.95,32.43-10.22,38.53-25.61,15.79,2.63,31.14-4.8,41.6-16.52,48.66-54.53,1.32-187.23-72.03-193.56-57.28-4.94-75.76,55.45-71.33,101.87-.42,2.45-2.53,3.31-4.45,1.71-12.7-18.7-28.16-36.18-48.2-47.21-60.63-33.37-122.3,2.4-127.41,69.62l-2.44,1.51c-.18,1.88-.52,4.88-1,9l-12-3.99c1.58,2.95,4.58,5.07,8,5-1.38,1.94-2.39,3.44-2.01,5.99-7-1.43-2.63-2.58-2.99-5.49-.39-3.19-4.01,1.22-4.99.48l-4-7.99c.4,2.26-1.55,5.35-.91,7.32.79,2.49,7.26,2.1,1.4,6.65l-3.49-2.49c1.06,2.48,7.34,8.94,2,6.5l-3,3,1.99-1.48c-5.1-4.77-3.01,1.49-4.5,1.48s-1.3-2.55-.55-3.42c.97-1.12,2.75-.33,3.05-.57,2.27-1.83-2.58-1.74-1.99-2.98,3.17.95,2.85-7.38,1.98-8.02-.48-.35-7.03,3.79,1.01-5.98-3.76.2-4.44-1.5-4-5.01,6.12-.42,3.72,2.81,3.99,2.99,1.18.76,4.5-.6,4-2.47-.15-.56-2.04-1.6-2.59-3.02-.41-1.05.73-3.34.59-3.44-1.33-.94-5.31-1.99-7.99-4.06-1.2-.93-2.93-2.8-4-4,2.59-2.03,6.1-.61,10.55,4.26,2.27,1.31-2.19-4.37-3.83-6.31-12.17-14.35-28.86-21.93-47.69-22l-4.15-1.84c9.75-13.72,26-24.35,40.82-32.6,8.83-4.92,29.31-15.54,38.45-16.68,3.33-.41,3.66.02,4.37,2.93-9.95,13.84-17.07,30.06-14.72,47.54,6.05-23.97,21.31-46.77,43.85-58.07,6.99-3.5,18.26-8.46,25.35-5.23,9.11.56,18.11.9,27,1l1.91-1.06c19.01,3.75,37.18,11.09,54.51,22.04-21.83-28.79-62.84-40.75-97.79-32.86l-3.63-1.11c.42-.79,1.08-1.25,1.92-1.52,1.85-.61,11.04-2.48,12.58-2.48h29c2.45,0,11.62,4.67,14.99,5.01l-.48-4.01c3.54,1.05,6.8-.9,10.49-1,2.2-.06,4.07.97,6.05.94,3.78-.05,19.21-4.91,23.26-6.62,1.96-.82-.03-3.5,5.2-1.33-1.85-1.86-2.07-4.02-3-5.99,1.99-.79,3.86.65,5.61,4.32l-.53-9.78,1.92-1.54c.24.56,1.47,1.11,1.8,2.66.73,3.43-.09,7.71,1.21,11.33l1-4.99,2.98,3.99c-.39-6.85,7.64-6.05,9.85-9.65,2.38-3.87-.24-9.66,2.16-13.34.88.04,2.08.42,2.06,1.1-.12,4.37-.53,8.56-1.06,12.9Z"/>
  <path class="st17" d="M825,1004c-4.87-2.36-11.78-8.42-14.18-13.32-1.14-2.33-2.47-9.18-3.83-10.17-1.24-.91-18.23-3.95-21.99-5.01-32.22-9.12-59.53-22-84.53-44.47-18.25-16.41-34.94-36.56-47.42-57.53,0-5,19.89-23.62,24.6-26.37,1.14-.67,1.91-1.37,3.32-.68,1.79.87,18.54,26.6,22.05,31.03,23.75,30,58.85,59.79,98.98,60.52-.89,7.97,1.82,17.92,9.99,21-.73-5.33-2.42-9.91-1.98-15.48.93-11.92,7.48-18.55,5.88-32.9-1.68-15.12-9.77-19.75-15.7-31.3-11.84-23.03,14.05-31.13,26.25-10.25,10.48,17.94.06,54.01,32.81,47.68,22.97-4.44,44.6-26.75,55.27-46.72,4.28-8.02,11.45-31.96,16.95-36.05,10.11-7.51,13.04,11.44,12.4,18.4-2.43,26.26-26.83,40.64-43.88,56.11s-15.71,34.94,11.25,31.25c17.77-2.43,32.24-17.52,47.03-21.96,10.73-3.22,14.77,3.58,11.19,13.2-4.91,13.2-27.54,19.96-40.24,21.75-11.83,1.67-40.17-1.19-38.16,17.67,1.28,12.06,20.03,16.18,29.9,18.15,8.24,1.64,28.37,1.67,32.91,8.08s-1.75,12.36-7.84,13.91c-20.34,5.18-45.45-19.98-59.28-17.32-13.34,2.56-5.89,20.46-1.16,27.7,4.27,6.53,20.07,19.97,21.27,25.83,1.61,7.87-9.76,6.83-14.57,4.47-3.76-1.84-12.28-11.25-15.12-14.88-6.88-8.82-11.89-19.94-18.41-29.12-.85-.57-1.87-.13-2.76-.21l-.99-.83c-10.42,1.26-20.42.53-30.01-2.17Z"/>
  <path class="st43" d="M651.99,604c-13.48-6.83-27.43-12.82-41.98-17.01.56-4.73,6.36-5.19,9.49-8,4.61-4.14,8.3-12.98,9.52-18.99,23.94,21.09,46.97,8.5,46.99-22,6.29.56,10.91,4.95,17.5,5.08,17.52.33,22.93-15.33,23.5-30.08,12.89,10.47,27.66,12.38,38.4-2.09,7.4-9.97,6.21-28.21,3.6-39.91,10.65,1.44,20.38,3.36,29.91,8.58,40.06,21.93,46.04,75.06,22.89,111.73-5.98,9.48-14.32,17.04-21.34,25.69-1.03.26-13.74-12.16-16-13.97-22.99-18.44-50.75-30.05-80.85-26.9-14.55,1.52-36.89,13.27-41.64,27.87Z"/>
  <path class="st3" d="M870.72,1137.29c6.79,5.6-1.42,27.52-4.25,34.67-10.24,25.91-28.76,51.03-49.45,69.55-14.79,13.24-16.06,13.94-36.59,13.49-12.17-.27-25.14-2.59-37.42-3.01l16.4-22.09c21.04-29.88,50.5-89.3,89.75-96.25,5.89-1.04,16.85-.25,21.56,3.64Z"/>
  <path class="st13" d="M714,1127.01c-11.32-.66-22.91,2.66-31.92,9.58-1.42,1.09-8.96,9.67-10.08,8.41-.61-18.44-.82-38.06-4.32-56.18-5.24-27.09-20.14-45.68-49.9-37.53-5.14,1.41-9.09,3.44-13.78,5.7,5.13-18.42,12.54-36.44,27.53-48.96,8.02-6.7,14.04-9.98,24.89-9.03,28.34,2.49,40.15,28.42,47.6,52.48s9.57,50.29,9.99,75.52Z"/>
  <path class="st10" d="M871,1124.99c-35.62-13.75-70.47,24.19-89.41,50.1-24.93,34.11-35.01,59.69-67.58,90.42-12.35,11.65-31.37,22.15-35.02,39.49-13.36-5.73-2.42-20.95,3.98-28.52,11.12-13.15,26.4-23.59,38-37,31.42-36.32,60.69-111.16,107.49-127.51,14.97-5.23,38.48-6.04,42.54,13.03Z"/>
  <path class="st36" d="M704.37,1242.38c-10.73,10.57-24.38,20.28-32.78,32.71-1.31,1.93-1.78,4.93-3.58,5.9-7.58-38.53,12.16-71.07,40.5-94.99-.27,7.08-1.47,14.14-.25,21.24.19,1.13,4.2,15.83,6.74,12.75,2.58-17.24,2.09-38.56,15.99-51-.8,8.46-1.41,17.01-1.03,25.54.17,3.93,1.89,7.89,1.95,11.07.17,8.48-21.04,30.36-27.54,36.77Z"/>
  <path class="st28" d="M791,1263.01c-21.82,18.56-51.98,41.95-80.61,47.88-8.88,1.84-14.72.16-23.38.11,4.71-16.78,22.64-26.5,35-37.48,5.27-4.68,9.79-10.29,15.01-15.04,17.89,2.54,35.81,5.43,53.97,4.54Z"/>
  <path class="st1" d="M849,1097.01c.07.08.36,2.11-.48,1.97-10.7-3.04-23.72,2.06-33.19,6.85-34.35,17.39-52.6,55.59-72.86,86.18-.76,1.15.25,2.59-2.47,1.98,2.73-14.38,2.93-27.78,9.14-41.35,15.22-33.28,51.58-68.52,91.07-58.35,1.22.31,8.48,2.38,8.79,2.72Z"/>
  <path class="st12" d="M714.01,1138.99c-.51,9.37,2.21,18.66.5,28.01-11.15,7.7-22.67,16.13-31.48,26.52-4.38,5.18-7.64,11.3-12.02,16.47.66-8.06,1.64-16.39,2.03-24.46.76-15.66-3.65-23.06,9.49-34.51,8.44-7.36,20.17-12.53,31.48-12.03Z"/>
  <path class="st37" d="M509.99,548c11.19-1.3,22.28-2.2,33.56-2.03,3.64.05,17.25.69,19.5,1.38.76.23,1.47.01,1.82,1.2-7.03,47.57-46.54,43.61-54.88-.55Z"/>
  <path class="st9" d="M633.85,1063.15c.5.79.3,3.2.09,4.27-.89,4.36-7.6,19.21-9.94,23.9-.34.69-1.81.68-1.86.81-.24.6,1.28,2.44.87,2.87-.13.13-2.1-.16-3.47,1.02-1.52,1.31-1.84,4.21-2.96,5.6-1.54,1.92-13.81,11.51-15.46,10.32-1.55-3.21-2.35-7.89-2.78-11.57-.34-2.94-.82-6.2-1.12-9.02-.15-1.37,2.4-8.96,2.73-10.9.11-.66-1.32-.41-1.94-.44-.46-1.68,1.95-.45,2.09-1.58.15-1.27-1.52-3.84-1.1-4.4.17-.23,3.25-.47,3.86-1.14.18-.19-1.08-2.14.86-3.92,1.3-1.19,11.43-5.43,12.81-5.53,1.3-.09,2.66,1.26,3.96,1.16,2.05-.16,11.34-4.65,13.37-1.43Z"/>
  <path class="st24" d="M709.05,484.08c4.18-3.45,32-14.73,34.98-12.66,3.52,8.58,6.84,29.4-1.69,35.43-13.33,9.42-34.57-20.94-33.29-22.76Z"/>
  <path class="st35" d="M498.99,550c1.01,13.42-13.73,47.18-30.65,31.65-2.66-2.44-8.83-15.03-6.93-17.69.83-1.16,21.56-9.42,24.62-10.43,4.22-1.39,8.65-2.46,12.96-3.53Z"/>
  <path class="st7" d="M621,547.01c-2.77,7.42-5.38,21.65-13.26,25.23-14.63,6.65-25.53-11.73-30.73-22.74,14.87,1.1,29.35.57,43.99-2.49Z"/>
  <path class="st25" d="M698.5,492.02c1.7,0,4.05,10.47,4.4,12.59.88,5.44,2.07,22.02-3.89,24.9-8.44,4.08-21.84-6.86-25.94-13.87l25.43-23.62Z"/>
  <path class="st46" d="M775,414.99c-3.78.24-7.72-.31-11.49.02-2.66.23-6.07,1.98-8.05,1.89-2.36-.12-7.31-5.62-9.54-7.33-1.69-1.3-6.57-3.14-7.42-4.57-.54-.9-1.91-16.01-1.39-16.9,17.94-3.78,30.79,12.54,37.89,26.89Z"/>
  <g>
    <path class="st26" d="M454.86,1037.87c14.63,16.37,31.91,29.96,49.06,43.57,1.13,11.79-3.08,23.17-6.43,34.29,28.99,21.68,58.66,62.78,36.64,98.96-21.84,35.88-76.12,39.64-113.81,39.19l16.43,10.23c36.5,21.24,61.78,79.5,15.58,105.61-73.35,41.46-187.79-76.46-184.9-149.08,2.21-55.5,77.44-33.81,111.73-30.73,27.6,2.48,59.23,3.13,84.87-8.12"/>
    <path class="st26" d="M464.04,1181.8c1.27-1.46-8.15-11.78-10.78-11.77-.71,0-10.4,5.43-12.72,6.28-8.55,3.15-34.29,8.27-41.75,3.17-2.85-1.95-5.54-15.3-7.14-19.38-1.45-3.73-28.58-54.29-34.83-74.85-17.31-56.88,99.88-46.34,98.05-47.39"/>
    <path class="st2" d="M459.04,1061.16c9.43,9.1,20.3,17.85,30.91,25.51-4.55,36.77-29.75,73.25-67.83,80.09-2.8.5-14.3,2.37-15.82.54-.48-.57-1.74-11.59-2.81-14.67-1.49-4.29-5.41-12.85-7.6-16.95-1.03-1.93-6.05-7.78-6-8.85.14-2.72,5.15-3.12,7.11-4.39,2.34-1.52,6.06-4.26,7.93-6.22,4.13-4.31,5.57-9.08,9.39-13.44"/>
    <path class="st15" d="M468.51,1194.43c1.22-.55,2.25-2.26,3.82-2.59l8.06,14.11c12.37-13.68-4.9-33.96-14.65-44.18.05-2.18,10.16-9.17,12.29-11.52,5.27-5.83,10.04-15.49,13.4-22.67,1.52-.81,16.39,15.7,18.26,18.05,49.43,62.35-9.97,91.57-67.05,95.22-4.11.26-20.82.94-23.6-.23-10.88-4.59-23.23-24.2-19.08-36.42,21.92-.25,48.32-.69,68.53-9.78Z"/>
    <path class="st36" d="M306.34,1197.44c1.99-1.81,37.2-.25,38.15,1.55-11.16,27.3,11.05,51.64,37.27,57.18-10.51,6.77-22.76,10.95-35.32,8.59l8.41,11.96c19.77,21.2,52.37,19.52,57.69-11.7,18.18,8.9,6.26,31.32-4.24,42.07-4.05,4.15-22.65,19.7-27.69,18.9-2.79-.45-15.66-11.27-18.71-13.94-23.18-20.31-57.67-65.28-58.79-96.99-.14-3.88.64-15.25,3.25-17.63Z"/>
    <path class="st16" d="M293.89,1199.53c-4.81,12.7-2.52,26.08,1.43,38.61,11.89,37.68,51.04,84.21,86.55,101.83,21.07,10.45,51.57,19.31,73.75,8.27-2.3,6.29-10.94,11.1-16.96,13.42-64.29,24.85-157.84-79.52-157.68-140.8.02-9.43,1.44-20.37,12.91-21.32Z"/>
    <path class="st14" d="M427.79,1273.1c13.82,10.48,32.58,27.08,35.02,45.21,1.24,9.2-1.44,13.86-8.88,18.88-19.13,12.91-45.13,4.18-64.09-4.9,23.37-10.66,45.43-31.11,37.96-59.2Z"/>
    <path class="st39" d="M357.86,1200.26l30.32,3.34c-3.6,10.99,1.37,23.18,7.54,32.3l8.39,9.59c-26.46,1.55-59.51-13.98-46.25-45.23Z"/>
    <path class="st20" d="M406.14,1258.76c-5.27,28.72-32.04,32.67-50,11.74,11.93,1.75,25.44.28,34.92-7.83,1.68-1.43,3.27-5.07,5.11-5.54,1.17-.29,9.7,1.1,9.97,1.62Z"/>
  </g>
  <path class="st24" d="M634.07,542.08c10.65-3.84,19.73-10.72,28.92-17.08,1.89,8.74,1.45,22.77-4.53,29.96-8.9,10.69-27.21-9-24.39-12.88Z"/>
  <path class="st6" d="M450.99,573c-2.57,17.21-3.54,44.46-28.58,35.04-1.86-2.33,8.52-16.99,10.61-19.52,1.53-1.85,16.29-17.33,17.97-15.52Z"/>
  <path class="st27" d="M711.99,838c1.54,1.81-10.45,14.21-13.98,13.99-.47-4.61-5.25-7.41-5.02-11.99,6.51-2.06,12.4-1.52,18.99-2.01Z"/>
  <path class="st31" d="M378,126l-57-2c18.04-2.24,39.08-1.13,57,2Z"/>
  <path class="st18" d="M825,1004l12.46,2.04c5.89.18,11.6-.08,17.46-.62,2.6-.24,2.62-1.16,1.07,1.58-10.65-1-20.65,2.02-31-3Z"/>
  <path class="st31" d="M319,125c.02.15.93.47,1.01.98-8.58,1.1-18.54,2.85-27.01,5.02,7.79-3.71,17.45-5.65,26-6Z"/>
  <path class="st34" d="M398,275c33.4-9.48,74.82,1.63,98.52,26.98,1.43,1.52,7.97,9.41,6.47,11.02-19.5-9.51-38.04-21.96-59.99-25-8.96-.16-17.96-.49-27-1-29.16,2.67-51.01,23.16-62.39,49.11-2.95,6.74-4.23,14.14-7.11,20.89-5.03-12.12-.63-30.63,4.96-42.04.9-1.84,9.11-13.37,8.54-13.95-30.12,9.64-58.92,25.2-80.99,47.99,24.99-.82,46.73,10.77,58.99,32.52-5.04,2.01-8.24-3.3-11.65-5.39-1.18-.72-2.74-.74-3.34-1.11-17.75-10.92-37.14-21.71-59.24-12.74-3.24,1.32-8.93,7.65-5.53-1.53,7.61-20.49,43.44-47.96,63.1-56.9,18.83-8.57,32.64-9.62,50.92-15.08,5.79-1.73,16.75-11.19,25.75-13.75Z"/>
  <path class="st30" d="M505,251l.99,17.99-7.99-10.99c-13.26-28.32-43.73-50.7-69.64-66.86-1.96-1.22-5.47-1.1-6.35-3.13,13.12-1.01,25.68,4.33,36.87,10.61,21.67,12.17,36.52,29.62,46.12,52.38Z"/>
  <path class="st30" d="M357,249c-14.2.93-28.28,6.05-40.49,13.01-1.52-.77.21-2.41.7-3.3,5.12-9.3,17.09-15.22,26.99-18.01,26.71-7.54,60.7.07,80.8,19.3-15.36-4.44-30.91-10.07-47-10.99-6.97.67-14.03.64-21,0Z"/>
  <path class="st47" d="M457.99,262c-1.69,2.06-11.45-11.89-12.48-13.01-17.03-18.49-34.11-32.63-57.3-42.74-1.43-.62-2.74.65-2.21-2.24,30.77,1.27,69.89,24.72,71.99,57.99Z"/>
  <path class="st42" d="M326,390c1.28,1.23,4.33,3.52.31,4.81-5.5,1.76-15.07,1.96-21.56,3.47-1.75.41-2.98,1.52-3.75,1.72-9.27,2.45-18.63,4.86-27.38,9.12s-16.64,10.95-25.62,14.87c-.77-.77,2.31-4.53,3.02-5.47,8.64-11.45,26.32-24.15,39.98-28.52,11.1-3.91,24.07-4.94,35,0Z"/>
  <path class="st19" d="M525,255c-2.13-2.31-.61-10.32-1-14-1.88-17.88-5.17-38.38-11.23-55.27-2.41-6.71-6.25-13.48-8.76-20.24,1-1.62,2.21.33,3,1,21.2,17.86,30.91,63.58,17.99,88.51Z"/>
  <path class="st30" d="M312,415c.64-.28,7.08-2.13,5.99.49-13.96,14.57-24.69,31.52-35.87,48.18-.77,1.15-.78,2.82-1.12,3.33-2.39,3.54-6.34,9.01-9.06,12.21-.44.52-3.1,3.85-3.94,2.78-2.46-3.17,6.87-25.06,9.2-29.29,5.64-10.27,24.33-33.15,34.8-37.7Z"/>
  <path class="st5" d="M325,389c.32.18.68.69,1,1-10.76-3.33-24.15-3.47-35,0,8.83-4.33,25.26-5.81,34-1Z"/>
  <path class="st23" d="M378,249c-6.09,1.67-14.91,1.67-21,0,6.3-.41,14.68-.36,21,0Z"/>
  <path class="st8" d="M355,391c1.47-5.1,1.4-10.69,2.47-16.03,9.41-47.3,51.33-78.45,99.74-67.67,34.03,7.58,57.59,29.51,76.56,57.4,3.14,4.61,1.26-.71,1.2-2.16-1.49-37.66,8.29-87.27,50.25-98.81,90.62-24.93,156.82,145.49,91.25,200.25-9.64,8.05-23.79,14.8-36.44,11.03-4.14,15.71-21.83,29.24-38.25,26.71-5.14-.79-5.04-2.6-.7-5.13,9.43-5.51,16.37-5.35,23.76-16.24,14.37-21.18-3.34-54.93-26.75-37.75-12.64,9.28-17,29.76-28.08,40.41-.33-7.08.2-14.08,1.44-21.05.46-2.63,2.78-6.48,2.59-8.4-.21-2.13-6.6-7.45-8.45-9.63-1.62-1.92-2.11-5.21-4.08-4.92-1.41.17.49,1.27.49,1.51v17c0,13.43-10.81,36.19-19.97,46.03-20.6,22.1-50.98,30.19-80.51,27.45-3.53-.33-6.97-1.73-10.52-1.98.04-.48,0-.79-.51-.98-48.79-10.55-82.51-52.39-92.49-100.02-3.3-11.84-3.76-24.82-3-37Z"/>
  <path class="st26" d="M307.99,616c-16.08-3.18-16.85-33.02-34.51-32.8-11.63.14-14.68,14.5-12.03,23.85,4.62,16.28,20.4,25.02,35.54,29.45-14.85,13.26-38.76-5.13-45.54-19.45-8.36-17.67-3.43-40.09,16.54-46.54-27.43-20.43-48.81-9.36-42.7,25.7,1.15,6.62,4.82,12.93,5.64,18.37s-6.6-.73-7.97-2.05c-5.32-5.15-9.37-18.75-9.95-26.05-2.35-29.53,15.79-46.16,44.25-35.25,24.56,9.43,48.97,38.12,50.73,64.76Z"/>
  <path class="st47" d="M596,677.02c1.59,1.67-.23,1.72-1.51,1.95-28.4,5.09-35.67,25.91-50.47,47.03-2.83-23.32,21.86-54.44,46.43-50.94.7.1,5.35,1.74,5.56,1.96Z"/>
  <path class="st38" d="M355,391c.44,12.57.39,24.53,3,37l-1.05.56c-1.7-9.45-2.72-18.94-2.95-28.56-.11-4.32.07-8.68.01-12.99,1.75-.2.95,2.82.99,3.99Z"/>
  <path class="st32" d="M507,528.01c.23.14-1.08,3.5,1,4.98-5.74.4-9.5,1.49-15-.98l-1.5,4-2.5-3.02,18-4.98Z"/>
  <path class="st0" d="M443,288c-1.04,1.86-3.59.9-5.2.72-7.46-.83-14.69-.03-21.8-1.72,8.09-.74,18.92-.12,27,1Z"/>
  <g>
    <path class="st26" d="M417.85,857.26c97.2,16.43-96.02-14.7-106-15.33-17.4-1.09-23.91,1.97-22.54-21.59-36.69-1.28-89.38-5.46-95.1-51.13-1.93-15.44,2.36-51.67,8.26-66,.69-1.67,1.48-3.23,2.93-4.37-9.82-5.24-15.75-15.68-21.22-25.04-8.52.62-17.43.57-25.94.03-9.83-.62-30.58-1.89-38.4-7.28-10.85-7.48-13.41-22.13-3.7-31.73,12.09-11.95,33.74-1.99,48.47-1.61,1.83.05,11.04-.15,11.19-2.24-14.38-17.24-44.22-22.52-50.79-46.65-2.86-10.51,4.88-21.87,14.8-25.03,20.73-6.6,39.37,23.58,54.5,34.42,1.51,1.08,7.37,5.89,8.89,3.8-1.31-27.33-34.56-45.2-29.52-74.26,3.05-17.62,23.43-21.53,36.14-9.98,22.25,20.21,19.62,48.99,30.86,72.58,1.19,2.49,2.57,4.46,4.51,6.42,10.23-15.85.35-36.75.79-54.22.35-14,9.08-32.3,24.92-33.38,21.63-1.48,23.3,29.99,23.05,45.36-.3,18.42-10.47,62.41,1.06,76.8,7.24,9.04,17.77-2.84,24.78-6.77,15.94-8.95,42.66-13.03,55.02,3.71,9.09,12.31,8.67,27.93-3.95,37.61-15.47,11.87-44.01-2.63-59.89,11.44-13.15,11.65-13.66,23.24-33.93,30.86-2.73,1.03-12.98,2.19-13.47,2.68-1.82,1.81-5.09,23.19-5.48,27.23-.17,1.8-.63,5.77.85,6.96,1.76,1.41,24.83,1.81,28.94,2.51,2.44-1.15,1.29-3.99,1.95-6,4.32-13.19,12.7-26.08,27.79-26.65,23.96-.92,83.02,48.33,102.29,62.22,1.16.84-33.39,12.5-21-16.67"/>
    <path class="st11" d="M460.09,875.99c-29.15-13.95-121.53-44.63-153.74-48.88,18.13-31.1,29.54-68.02,14.25-102.74,1-1.52,1.68-.61,2.54-.66,8.86-.46,29.14,14.19,37.73,18.87,16.22,8.83,39.11,21.36,48.87,34.45"/>
    <path class="st17" d="M244.36,731.51c-.34,4.17,9.67,37.13,5.54,36.67,3.26-1.05,4.65-11.9,5.65-12.47l55,2.65c1.61,1.63-1.01,17.18-1.62,20.28-.88,4.48-4.82,21.24-7.64,23.54-.88.72-1.86,1.13-2.99,1.2-46.57-.39-95.08,9.16-93.18-55.05.25-8.46,4.4-37.44,8.16-44.01,2.97-5.19,9.98-4.23,12.5-9.92-18.87-3.13-26.67-16.5-34.39-32.47-17.46-1.05-39.7.89-56.58-2.79-14.05-3.06-19.94-16.35-4.81-18.06s42.85,11.61,55.54-3.05c8.77-10.14-14.71-25.92-22.06-31.03-9.25-6.44-17.79-8.64-24.63-19.16-4.22-6.49-2.71-16.53,6.43-16.5,17.21.07,39.14,42.83,57.62,39.38,18.37-3.43,8.36-28.01,2.42-38.4-5.69-9.97-27.12-35.37-20.88-47.23,3.32-6.31,8.81-7.18,14.07-2.7,14.26,12.14,20.07,44.89,26.88,62.33,4.2,10.75,12.26,26.02,25.92,16.48,21.05-14.69-6.05-62,11.05-78.6,13.33-12.95,14.87,6.88,15.59,16.3,1.84,23.94-9.25,77.37,5.92,95.61,15.2,18.29,30.66-.66,45.32-7,13.35-5.78,34.38-6.51,38.32,11.44,4.33,19.71-33.53,14.35-44.27,16.14-30.45,5.09-29.04,30.69-55.91,39.02-3.84,1.19-12.37.84-14.45,2.37-3.98,2.93-8.03,29-8.53,35.05Z"/>
    <path class="st4" d="M300.09,730.57c0,.21-1.53.81-1.08,1.74.22.46,1.65.84,2.12,2.22s2.89,9.7,2.35,10.16c-1.76-1.1-9.12.22-9.56.06-3.79-1.39,1.28-13.37,4.51-15.39.75-.47,1.66.95,1.66,1.21Z"/>
    <path class="st47" d="M214.23,640.78c1.16-1.54,2.5-.71,3.96-.72,15.67-.14,27.8,9.82,28.73,25.92.51,8.72-4.33,21.83-14.38,21.45,1.16-4.68,3.66-7.32,4.65-12.36,2.2-11.28-3.44-21.13-11.75-28.58-3.44-3.09-7.87-2.81-11.21-5.71Z"/>
  </g>
  <path class="st41" d="M851.81,937.24c4.4,2.52,5.95,17.27,4.97,22.04-2.35,11.41-17.68,21.84-29.23,19.67-1.38-.26-6.64-2.74-4.55-4.45,2.32-1.9,9.19-2.03,13.34-4.66,10.58-6.7,13.27-21.19,12.67-32.84.92.07,1.93-.26,2.8.24Z"/>
  <path class="st44" d="M436.16,506.54l-2.16.46c-32.21-14.82-50.67-43.28-61-77"/>
  <path class="st44" d="M373,430c-9.5-35.26-8.39-74.11,23.52-97.98,91.04-68.1,216.22,123.65,116.5,176.5-24.38,12.92-50.22,10.39-75.02.48"/>
  <path class="st22" d="M641,465c5.73-29.51-26.58-53.85-51.34-31.83-7.32,6.51-6.12,13.43-15.63,3.31-33.55-35.71-43.93-140.59,11.74-159.2,78.11-26.11,141.63,131.61,81.14,179.14-7.43,5.84-16.25,9.69-25.92,8.58Z"/>
  <path class="st29" d="M493.81,387.23c36.55-2.34,53.17,71.3,16.65,72.78-24.76,1-44.14-47.63-29.87-65.92,3.54-4.54,7.36-6.49,13.22-6.86Z"/>
  <path class="st21" d="M631.44,355.52c17.47-3.79,29.79,26.29,30.6,39.94,1.03,17.41-10.04,35.94-28.06,22.06-15.15-11.67-26.16-56.88-2.54-62.01Z"/>
  <path class="st40" d="M500.72,419.21c15.01-3.37,17.51,21.94,3.91,20.73-9.31-.83-13.93-18.48-3.91-20.73Z"/>
  <path class="st33" d="M644.75,402.74c-1.39,1.3-5.35,1.58-7.2,1.26-5.5-.98-7.65-13.29-3.53-16.48,9.21-7.14,16.61,9.71,10.73,15.22Z"/>
  <path class="st2" d="M389.9,1126.82c1.59.31-2.36-4.95-10.43-21.14-13.84-27.75-21.56-57.86-8.86-86.58,1.34-3.03,8.35-15.22,11.32-15.71,10.37,7.56,20.43,13.92,31.68,20.01,33.9,18.32,69.22,19.32,106.61,11.32,13.06-2.79,25.91-7.18,38.77-10.72-3.96,4.18-8.7,7.62-12.51,11.98-3.32,3.8-9.84,11.02-7.99,16.01.84-.76,1.74-1.86,2.8-2.23,11.36-3.96,19.01-12.92,29.38-19.59,8.47-5.45,14.74-8.22,23.83-11.08,5.3-1.66,11.94-8.36,18.5-9.09-5.38,5.98-9.83,13.94-13.17,21.32-11.3,24.99-15.5,53.5-10.83,80.66-4.71-2.15-9.13-4.67-14.04-6.45-21.27-7.7-43.45-9.54-65.95-8.55l17.71-8.75,1.29-2.24c-15.08-.86-35.73,4.34-47.91,13.58-12.53,9.51-24.8,32.01-31.78,46.22"/>
</svg>