<?xml version="1.0" encoding="UTF-8"?>
<svg id="Layer_1" xmlns="http://www.w3.org/2000/svg" version="1.1" viewBox="0 0 1024 1536">
  <!-- Generator: Adobe Illustrator 29.5.1, SVG Export Plug-In . SVG Version: 2.1.0 Build 141)  -->
  <defs>
    <style>
      .st0 {
        fill: #eebf79;
      }

      .st1 {
        fill: #040802;
      }

      .st2 {
        fill: #060902;
      }

      .st3 {
        fill: #343624;
      }

      .st4 {
        fill: #d58533;
      }

      .st5 {
        fill: #eec07a;
      }

      .st6 {
        fill: #353625;
      }

      .st7 {
        fill: #eec079;
      }

      .st8 {
        fill: #856e42;
      }

      .st9 {
        fill: #d58532;
      }

      .st10 {
        fill: #d48431;
      }

      .st11 {
        fill: #070902;
      }

      .st12 {
        fill: #1c353e;
      }

      .st13 {
        fill: #1b343d;
      }

      .st14 {
        fill: #eca819;
      }

      .st15 {
        fill: #d68532;
      }

      .st16 {
        fill: #d48331;
      }

      .st17 {
        fill: #ebbe79;
      }

      .st18 {
        fill: #6a5735;
      }

      .st19 {
        fill: #070802;
      }

      .st20 {
        fill: #f5dc8f;
      }

      .st21 {
        fill: #eba718;
      }

      .st22 {
        fill: #050902;
      }

      .st23 {
        fill: #d48332;
      }

      .st24 {
        fill: #b39760;
      }

      .st25 {
        fill: #d58432;
      }

      .st26 {
        fill: #070a03;
      }

      .st27 {
        fill: #ecbf7a;
      }

      .st28 {
        fill: #060702;
      }

      .st29 {
        fill: #d0b572;
      }

      .st30 {
        fill: #d68533;
      }

      .st31 {
        fill: #2a5059;
      }

      .st32 {
        fill: #050802;
      }
    </style>
  </defs>
  <path class="st22" d="M894.47,930.03c-5.71-20.18-28.07-31.43-38.49-46.51-.58-.85-1.4-.99-.98-2.51,15.41-2.6,36.82-10.86,38.9-28.62,1.09-9.32-3.51-21.07-13.63-23.16-11.27-2.32-27.55,1.63-39.81.81-6.96-.46-15.22-3.52-21.94-3.11-4.42.27-8.27,2.03-12.52,2.65l-57.52-71.62c-1.57-3.25,2.58-4.84,4.26-7.71,1.32-2.26,4.61-11.29,4.07-13.49-.76-3.07-18.42-24.96-21.85-29.23-24.4-30.46-53.99-64.99-92.97-75.54,10.23-10.73,20.63-21.29,28.53-33.99,38.11,31.72,86.92-4.5,102.23-42.74,10.74-26.83,13.67-61.01-8.49-82.75,19.56-41.07,21.69-95.23,5.48-137.77-4.6-12.08-10.71-22.2-18.76-32.24,5.24-.82,24.26,12.31,26.81,3.79,3.06-10.23-17.17-31-25.48-36.12-13.41-8.26-30.71-11.17-46.33-10.17-.1-16.92-9.19-32.91-22.08-43.42-3.85-3.14-16.27-12.44-20.48-9.65-7.21,4.76-.55,10.85,1.34,15.79,2.68,7.03,3.78,13.2,3.22,20.79-.42,5.65-3.56-.04-6.08-1.93-54.23-40.7-155.02-70.22-222.15-59.31-49.23,8-103.17,37.49-131.79,78.73-1.71,1.15-7.45-12.15-7.75-13.74-.95-5.09,2.19-22.94-3.69-23.21-8.71-.39-27.48,19.65-31.97,27.02-12.81,21.04-11.51,44.07,2.1,64.41-23.45,31.64-22.96,75.56-.11,107.44,2.25,3.13,10.24,10.59,10.99,13.01.99,3.23,2.27,20.05,2.49,24.51,1.44,29.75-7.16,32.53-15.08,57.01-17.13,52.98,9.56,96.78,52.72,125.34,6.11,4.04,20.4,10.29,24.66,14.34.73.69,2.01.88,1.65,2.33-26.59,25.37-54.99,49.26-78.23,77.78-1.81,4.48-.27,10.53,1.73,14.76,1.24,2.61,5.11,5.33,4.04,7.94l-54.53,64.6c-14.2-3.49-29.11-.46-43.48-1.57-12.46-.96-30.02-9.54-39.51,2.52-15.79,20.07,13.81,40.36,30.99,43.99-13.74,14.74-55.29,41.38-41.65,65.66,3.08,5.48,8.62,5.85,9.56,6.93.5.57-1.09,7.15-.94,9.39,1.09,16.04,21.93,19.89,34.02,13.52,1.21,8.85,9.73,12.79,18.05,11.56,19.25-2.83,31.17-20.95,44.94-32.56,13.46,28.03,43.01,42.49,72.68,46.83,10.06,1.47,20.29,2.42,30.33,1.17-.27,7.66-7.06,36.72-4.5,42,1.06,2.18,13.92,6.97,16.99,8,4.73,1.59,14.09,2.77,17.49,4.51,1.21.62,1.82,1.68,1.99,3l1.02,110.48c-10.2-2.64-23.32,4.34-32.98,8.51-26.98,11.65-59.85,30.75-53.56,65.54,2.09,11.53,13.29,17.92,23.28,21.72,29.85,11.33,63.22,7.11,93.76,2.73,2.24-.32,7.27-2.62,9.88-2.47.82.05,1.2,1.81,1.62,1.98l1.76-1.14c7.1-1.74,13.85-4.37,20.24-7.86,2.54.9,9.83,1.19,10-3,1.9-.75,5.23-2.15,7-3,.49.63,1.12,1.1,1.87.93.53-.12,9.21-3.34,9.43-3.81.36-.74.14-1.48-.3-2.12,1.54-.08,2.54-.74,3-2,2.19-.31,5.86-1.81,4-4,4.37-.91,7.82-12.36,5-16,1.66-.42,2.07-2.73,1.25-6.95.63-.28,1.13-.57,1.15-.89.96-14.23-1.58-40.98-15.86-47.91l-.79-3.38c2.03-35.55,2.93-71.48,2.71-107.8,6.17-.61,20.59-2.83,23.79-8.44l4.71-41.58c4.93-1.62,6.98,1.46,6.16,9.23-1.42,11.98-.46,23.29,2.88,33.91,8.2,6.57,18.02,10.49,29.47,11.75,2.25,37.85,4.97,75.39,8.16,112.61l-.46,2.88c-4.91,5.15-7.19,9.82-8.93,16.84-1.88,7.58-4.15,19.48-1.24,25.73-2.72.94-3.17,6.55,0,7-2.53,1.63-2.86,2.63-1,3-2.82.75-3.02,4.37,0,4-2.21,3.15,3.09,9.19,5.67,11.74,2.61,2.58,10.7,9.65,13.33,6.26.36,1.99,2.25,3.05,5.66,3.18,2.53,2.91,3.43,3.16,7.34,1.82,1.89,2.37,2.43,2.61,5,1l19,7c.51,1.21,1.84,1.54,4,1,24.82,6.99,52.19,12.34,78.57,11.01,21.77-1.1,52.89-10.49,51.41-37.49-1.81-33.02-45.05-52.97-70.8-65.2-4.91-2.33-10.21-3.94-15.25-5.92,2.51-22.33-1.84-44.55-2.96-66.84-.73-14.53-.26-29.34-1.03-43.89.4-1.68,25.46-5.45,27.66-12.63l-4.61-41.02c1.13-.79,14.54,2.73,17.52,2.97,46.04,3.82,86.01-23.47,106.98-62.97,15.87,17.24,32.6,54.75,60.91,50.89,8.22-1.12,12.38-9.86,13.22-9.99,1.5-.23,10.54,4,14.85,4.14,11.23.37,19.25-7.67,18.51-19.06,18.31,1.05,22.64-17.28,18.48-31.97ZM334.2,923.84c-16.66,1.87-31.81-2.71-47.58-7.4-5.5-1.63-11.29-3.55-15.19-8-4.76-5.43-4.61-12.83-3.26-19.54,3.06-15.22,10.2-29,20.5-40.52,9.9-11.08,21.64-20.35,31.39-31.58,3.48-4.01,8.87.1,8.32,4.38.67.78,1.1,1.82,1.1,3.14.09,19.3-1.17,38.5-1.32,57.79-.05,6.79-2.27,16.76,2.59,22.36,1.72,1.99,4.11,3.13,5.68,5.28,1.99,2.73,2.49,5.79,2.76,9.09.24,2.93-2.49,4.72-5,5ZM727.32,918.93c-14.93.77-30.79.98-45.63-.92-6.89-.88-13.64-2.37-20.63-1.99-4.89.27-11.16.82-15.01-2.92-6.55-6.36-3.2-19.29-3.09-27.25.08-6.46-1.95-13.01-3.04-19.35-1.29-7.49-1.9-14.94-2.23-22.53-.72-16.57-1.23-33.15-2.38-49.69-.4-5.7,7.41-6.31,9.5-1.92,2.4,1.73,4.5,3.74,6.51,5.97,2.22,2.46,4.61,5.65,7.97,6.52,2.85.74,5.88-.38,8.78-.25,3.15.14,5.9,1.31,8.29,3.32,5.44,4.58,9.61,10.88,13.71,16.63,4.31,6.04,9.01,11.8,13.27,17.87,4.32,6.15,9.25,10.81,15.1,15.48,5.37,4.28,11.02,8.36,15.09,13.97,6.71,9.24,8.62,22.06,8.62,33.26,0,9.42-5.96,13.34-14.84,13.8Z"/>
  <path class="st32" d="M244.73,676.24c25.12-4.81-7.9,16.1-11.21,18.78-9.43,7.63-17.81,17.29-24.74,27.26-2.88,4.13-14.92,27.48-18.25,26.72-3.56-.81-2.41-10.07-1.83-12.8,4.36-20.24,35.25-55.99,56.03-59.96Z"/>
  <path class="st22" d="M783.75,694.18c5.36-1.03,16.97,4.03,21.92,6.66,15.31,8.13,33.93,29.05,36.24,46.75.88,6.74-.2,14.47-6.88,6.89-10.18-11.54-13.36-24.32-27.5-36.5-5.52-4.75-24.15-14.85-26.59-18.41-1.98-2.88-.3-4.79,2.82-5.39Z"/>
  <path class="st2" d="M223.74,651.24c4.28-.81,10.92.82,7.8,5.78-.55.87-14.85,7.27-17.84,9.17-11.2,7.12-21.23,17.28-29.1,27.9-2.81,3.78-11.12,18.78-14.3,19.73-9.98,2.99-3.83-10.77-1.83-14.86,9.18-18.83,34.14-43.72,55.28-47.72Z"/>
  <path class="st32" d="M852.35,715.65c-4.04-3.45-7.7-10.88-11.38-15.12-5.67-6.53-13.72-13.51-21.3-17.7-4.09-2.26-16.75-6.29-18.67-8.33-4.52-4.81,5.19-5.73,8.48-5.49,17.6,1.29,42.48,20.68,49.25,36.77,3.15,7.48,2.53,17.49-6.38,9.87Z"/>
  <path class="st8" d="M558,1250"/>
  <path class="st8" d="M577,1257c1.13.35,2.64.62,4,1"/>
  <path class="st18" d="M540,1244c3.45,1.06,8.44.06,9.01,4.99l1-1.99c.52-.43,2.38,1.76,2.99,2-1.76.17-.65.79,3.33,1.87"/>
  <path class="st16" d="M619.99,333c-1.92,6.15-4.66,30.58,2.71,32.82,9.6,2.92,17.66-15.98,24.29-20.82-9.13,31.36-9.96,71.7,11.04,98.47,1.26,1.61,5.52,4.85,5.77,6.17.19.97-3.19,11.24-3.53,14.14-2.07,18.04,3.74,29.5,15.17,42.27,1.36,1.52,2.54,4.97,3.98,6.01,7.06,5.14,10.39-8.6,13.15-12.98,10.29-16.34,24.89-29.31,45.45-24.62,45.32,10.36,30.01,72.94,7.94,99.01-13.8,16.29-45.47,32.44-64.44,16.5-5.84-4.9-6.08-10.87-9.47-14.52-5.04-5.42-8.64,8.46-10.88,12.22-48.6,81.49-164.44,93.6-249.38,77.04-63.83-12.45-156.2-59.49-135.28-138.7,3.03-11.49,9.37-19.45,13.25-29.75,9.7-25.74,0-50.37,1.25-76.75.3-6.41,1.34-14.38,2.12-20.88,2.27-19.03,6.37-37.89,11.83-56.21,24.62,6.45,47.45,6.95,70.72-4.24,2.29-1.1,9.6-6.62,10.81-6.75,2.25-.25,11.25,2.39,14.97,2.61,5.71.34,20.01-2.11,23.52-.52,1.4.64,3.31,3.67,5.11,4.89,20.02,13.72,41.37,16.38,65.16,13.34,3.1-.4,8.6-2.84,11.33-2.67,1.21.08,6.95,4.61,9.19,5.65,21.17,9.86,51.47,4.11,72.75-3.71,11.38-4.19,22.29-10.18,31.47-18.02Z"/>
  <path class="st31" d="M736,731.99c-33.23,5.08-60.16,29.49-77.5,56.99-10.81-14.42-22.73-28.08-33.31-42.67-4.49-6.19-19-31.01-23.47-33.55-1.01-.57-3.44-.38-4.71-.76,2.5,21.43,16.86,38.04,27.95,55.54l10.93,128.78c-.77,2.38-17.87,7.58-21.36,8.7-63.83,20.49-133.93,22.15-199.73,10.69-24.95-4.35-50.8-11.08-73.63-21.89l24.67-190.16c-1.29-4.23-6.09,2.44-7.24,4.43-1.96,3.39-3.65,9.26-4.86,13.14-5.48,17.6-8.64,37.48-10.75,55.76l-10.98-11.51c-14.36-10.87-29.52-25.23-48.01-27.5,23.77-25.54,49.77-48.47,74.7-72.84,19.66,5.12,38.74,14,59.26,14.89,3.79,23.51,27.3,34.55,48.7,37.8,34.62,5.25,64.51-7.29,87.85-32.82,2.23-2.44,6.9-10.27,8.55-11.45,2.8-2,14.86-4.17,19.21-5.79,8.75-3.26,19.97-9.14,28.03-13.97,3.61-2.17,12.25-9.66,15.18-9.91,7.66-.65,21.77,4.83,28.87,8.24,33.25,15.95,57.38,53.2,81.64,79.85Z"/>
  <path class="st14" d="M654.65,255.35c9.24,8.89,18.5,30.77,24.08,2.88,1.9-9.51.12-15.09.24-23.71.02-1.13-.58-2.78,1.02-2.51,1.77,5.05,6.08,8.4,8.2,13.3,5.72,13.16,3.75,26.98,1.81,40.69,3.02.15,6.26.01,8.93-1.58,3.5-2.09,3.41-6.8,7.02-7.98,2.79-.92,11.33-.74,14.6-.48,11.01.88,22.74,5.94,31.46,12.54-8.12-.53-13.94-2.15-22.24-.26-17.72,4.05-3.64,9.16,2.26,14.24,28.5,24.5,35.93,66.05,34.03,102.05-1.07,20.28-5.5,41.01-14.14,59.39-27.92-9.35-48.92-1.53-66.32,21.16-1.24,1.62-4.23,7.65-4.6,7.91-1.99,1.38-4.59-4.99-5.16-6.32-3.82-8.86-3.58-19.46-1.36-28.72.75-3.12,5.31-11.8,5.26-12.47-.08-1.12-13.35-11.9-15.92-15.79-14.42-21.88-10.8-64.71-3.52-88.91,1.34-4.46,6.16-13.02,6.55-16.54.95-8.62-16.98,3.34-19.75,5.34-6.99,5.06-11.78,11.2-17.59,17.41-.13-4.35.22-9.6,1.16-13.84,1.39-6.3,8.13-17.85,8.36-21.74.13-2.24-1.23-3.92-3.51-4-6.16-.22-25,17.87-31.59,22.01-17.34,10.89-59.14,22.59-78.53,15.69-1.04-.37-2.95-.61-1.39-2.1.39-.37,8.07-2.11,10.36-3.15,9.88-4.52,21.57-11.54,26.62-21.36-1.6-2.23-3.69-1.65-6.01-1.03-11.87,3.21-25.48,11-38.2,14.8-21.54,6.43-45.32,10.44-67.03,2.49-1.39-.51-10.33-4.35-10.74-4.78-1.62-1.7.5-1.68,1.4-2.08,5.34-2.41,10.77-3.43,16.29-6.71,4.04-2.4,15.23-10.82,15.33-15.66l-4.54-1.58c-9.24,3.6-17.92,8.7-27.48,11.55-15.11,4.52-32.8,6.96-48.22,3.2-4.16-1.01-22.84-8.89-24.08-8.58-7.91,1.94,2.47,11.87,5.29,13.86-26.37,12.2-65.83,10.47-88.01-9.47-22.58-20.3-19.12-50.65,2-70.51-.13,23.38,16.18,42.82,38.79,47.72,1.29.28,15.28,2.8,12.74-.73-3.02-1.96-21.78-13.8-21.38-16.31.46-2.87,16.23-21.64,19.32-24.73,53.56-53.5,133.47-65.27,204.32-45.24,29.83,8.43,92.23,29.83,113.86,50.64Z"/>
  <path class="st25" d="M849.42,895.58c9.59,10.79,29.85,26.82,32.34,41.15,1.04,5.99-.88,14.64-8.31,10.32-2.88-1.68-11.71-13.68-14.93-17.06-3.55-3.74-20.97-19.52-22.08-21.99-.55-1.22,4.22-5.72,3.56-7.99-11.42,1.48-20.04,10.07-30.64,14.85-2.97,1.34-16.79,5.42-17.35,6.15-2.37,3.09,10.19,5.39,11.76,5.24,5.76,11.49,21.59,23.91,26.43,35.06,2.53,5.83,1.32,13.55-6.42,12.49-16.38-2.24-30-28.32-39.79-40.27-13.89-16.96-29.63-25.72-31.85-50.14-.35-3.86,1.87-14.76,1.43-15.4-1.74-2.48-5.64.49-6.41-.07-.25-.18-.74-2.05-1.59-2.93-23.89-24.79-46.8-50.97-68.11-77.96,11.88-16.16,27.98-29.87,46.92-36.88l64.66,82.34c3.07,2.35,11.71,13.7,15.05,13.06,1.84-.35,4.89-2.88,7.37-3.58,11.41-3.23,28.53,2.84,42.04,2.04,6.81-.4,23.24-6,26.08,2.97,3.44,10.89-15.78,18.9-24.18,19.93-3.84.47-18.42-.9-19.91,1.09-5.45,7.27,9.38,22.48,13.94,27.61Z"/>
  <path class="st12" d="M633.97,1030.96c-11.78,2.96-23.55,6.13-35.61,7.89-23.41,3.42-53.13,3.98-76.2-1.52-3.36-.8-13.54-3.26-14.16-6.83l-.88-33.41c.85-1,28.81-2.66,14.71-10.44-12.29-1.21-26.12-1.39-38.19-3.79-7.56-1.5-8.81-4.15-12.17-10.83-5.94-11.79-6.74-24.19-8.45-37.04,4.29-.8,8.45.86,12.46,1.03,20.05.84,42.03.75,62.03-1.05,23.52-2.12,45.59-7.7,68.56-12.57,3.98,12.18,12.09,22.5,16.44,34.59,8.35,23.24,8.06,49.68,11.48,73.95Z"/>
  <path class="st15" d="M322.65,777.35c1.37,1.3,10.56,10.91,10.89,11.63.46,1-.24,1.55-.67,2.33l-65.34,70.78-8.52-.08c6.82,20.45-5.5,38.36-18.97,52.52-2.53,2.66-6.12,4.89-8.55,7.43-10.36,10.83-32.93,38.06-46.46,41.59-9.15,2.39-10.33-6.64-7.23-13.26,4.06-8.66,18.71-22.05,25.76-29.28.75-.77,1.26-2.55,1.66-2.79,3.36-1.97,15.11,3.18,15.79-4.21-6.83-1.93-15.67-6.88-21.33-11.18-4.01-3.05-15.11-15.53-18.38-16.62-1.35-.45-2.89-.2-4.29-.21-.89,2.46,1.67,7.22.55,8.99-.5.8-2.94,1.83-4.08,2.99-8.1,8.24-16.37,16.3-24.5,24.5-3.33,3.36-7.86,12.24-13.05,7.07-4.26-4.24,1.61-15.43,4.66-19.46,7.93-10.47,42.76-35.42,44.37-45.65,1.62-10.32-10.74-6.58-18-7.89-7.72-1.39-25.62-10.92-22.55-20.58,2.36-7.42,18.39-.76,24.22-.09,13.56,1.57,32.63-3.5,44.07.94,1.68.65,4.15,2.9,4.99,3.03,2.45.38,15.32-13.16,17.83-15.83,20.12-21.27,37.26-45.44,57.19-66.91,3.74-.93,26.11,16.6,29.94,20.24Z"/>
  <path class="st13" d="M452,934c-.34,15.53,3.51,30.98,9.99,45l-44.98-14.51c5.24,11.38,20.22,17.06,31.48,21.52,7.28,2.88,14.75,5.67,22.52,6.99-2.09,6.35-1.43,34.12-5.01,37.49-2.78,2.61-23.67,5.97-28.5,6.5-31.73,3.43-66.68.59-96.01-11.93,4.27-36.7,8.4-74,23.53-108.05,27.74,10.44,57.59,14.3,86.99,16.99Z"/>
  <path class="st3" d="M637.01,1175.01c.75,3.17-3.38,1.74-5.83,2.67-10.49,3.98-26.59,18.54-27.17,30.32,1.52,1.6,11.17-8.01,13.08-9.41,3.35-2.46,7.71-5.82,11.26-7.74,4.45-2.41,17.09-7.55,21.48-6.2,17.16,8.73,32.66,19.09,44.7,34.33-2.13,8.7-8.79,11.93-16.75,14.3-29.44,8.77-65.84,2.84-95.2-4.36-16.29-3.99-35.97-8.08-46.57-21.63-.58-2.85,2.45-15.8,3.46-19.31,4.8-16.66,6.23-6.76,17.27-2.22,4.46,1.83,10.32,3.19,15.09,4,1.16.2,5.66-.53,6.16.26.87,1.35-2.83,11.29,3.99,11.99,1.4-5.77,6-12.14,9.98-16.53,6.25-6.89,19.96-16.02,29.5-15.52,5.72.3,9.85,5.31,15.54,5.05Z"/>
  <path class="st6" d="M403,1198.99c1.47,1.34,9.27-6.81,7-10,9.74,2.23,18.77-2.65,27.75-4.36l10.74-10.63c4.67,1.99,7.73,28.17,4.93,32.91-5.59,9.47-37.44,17.49-48.24,19.77-25.42,5.37-89.41,11.5-108.71-7.67-5.63-5.6-3.68-6.74.71-12.38,7.12-9.16,20.38-17.04,30.79-22.17,7.79-3.83,10.42-4.32,19.04-2,12.54,4.64,23.71,12.32,35.46,18.51,2.05-1.65,1.21-1.1.54-2.5-3.52-7.43-13.69-18.5-21.12-21.9-2.38-1.09-10.49-2.23-10.92-2.59-1.59-1.36.45-1.76,1.28-2.23,10.67-5.96,23.56-3.28,33.2,3.25,6.86,4.64,18.57,15.35,17.52,23.98Z"/>
  <path class="st23" d="M606.99,1052l3.51,85.01c-18.64,9.15-43.5,9.14-63.07,3.05l-6.43-86.06c21.78,4.28,44.28,1.5,65.98-2Z"/>
  <path class="st9" d="M377,1050c21.49,3.39,43.44,4.16,65,1-1.62,27.95-.09,56.15-2.45,84.04-19.92,7.7-42.36,7.76-62.54.96v-86Z"/>
  <path class="st7" d="M637.01,955c18.92,9.67,38.99,9.15,59.01,3.52l9.97-4.51c-21.42,1.78-42.46,2.52-62.68-5.83-2.32-.96-9.04-4.01-10.69-5.31-.91-.72-8.24-13.61-8.44-14.6s1.31-11.91,1.82-12.27c35.76,17.46,73.3,18.64,111.43,8.94,5.5-1.4,17.11-8.53,19.41-.22.83,3.01-7.4,15.74-9.63,19-18.31,26.7-49.78,43.82-82.76,41.31-3.9-.3-17.43-2.86-20.43-4.57-1.08-.62-1.34-1.12-1.79-2.21-2.43-5.9-2.22-16.76-5.24-23.25Z"/>
  <path class="st5" d="M343.99,932c-2.26,4.47-3.53,17.72-5.5,20.99s-18.91,3.69-23.11,3.58c-15.7-.42-30.94-4.8-45.37-10.56-1.96,1.85,9.44,9.09,10.69,9.8,15.6,8.86,37.96,13,55.29,8.2l-2.1,13.88c-37.15,4.91-78.21-8.14-96.75-42.55-.26-2.68,16.68-16.31,19.5-19.22,25.39,16.56,57.68,21.72,87.35,15.9Z"/>
  <path class="st7" d="M377,1142c19.67,9.98,42.7,10.46,62.99,2,.88.96-.83,24.87-1.5,25.99-3.46,5.82-26.01,10.57-32.55,8.56-2.88-.88-12.57-10.87-17.62-13.38-3.38-1.68-7.51-3.1-11.33-3.17v-20Z"/>
  <path class="st10" d="M540,678.01c-22.09,26.71-63.74,35.89-93.92,17.41-4.76-2.91-9.73-6.82-12.07-11.93,15.86.44,31.61,1.98,47.57,1.51,19.48-.57,39.44-2.76,58.43-7Z"/>
  <path class="st21" d="M277.99,413.99c-2.31.58-1.65-.45-2.28-1.26-5.23-6.67-9.4-17.46-11.25-25.7-4.95-21.96-1.46-42.33,11.06-61.04l17.35,11.61c-8,24.71-15.33,50.15-14.88,76.39Z"/>
  <path class="st27" d="M696.99,1232c.56,15.29-16.5,20.41-28.94,22.55-27.33,4.7-58.17-2.22-84.68-9.42-7.02-1.91-44.23-13.67-46.88-18.12-1.09-1.83-1.1-8.48-1.48-11.01,3.22,2.84,6.22,5.32,9.97,7.52,20.97,12.29,84.33,25,108.51,23.47,13.76-.87,33.94-4.52,43.5-14.99Z"/>
  <path class="st7" d="M612,1147.01c-2.19,2.4-.18,14.08-1.05,14.95-.35.36-7.35,1.79-9.64,2.86-8.87,4.14-9.61,7.81-15.63,12.87-6.93,5.82-33.98-2.68-36.87-10.08-2.16-5.53.33-13.62-1.81-19.6,20.9,7.34,44.41,6.99,64.99-.99Z"/>
  <path class="st17" d="M294.36,1236.64c-2.8-2.85-4.6-6.6-2.87-10.63,25.92,17.6,61.85,16.56,91.89,12.87,23.57-2.9,50.98-8.26,70.61-21.88,1.69,9.85-9.53,12.61-17.01,15.48-35.56,13.65-89.18,23.47-126.19,12.22-5.23-1.59-12.57-4.13-16.43-8.06Z"/>
  <path class="st30" d="M816.04,922.05c3.33.12,9.66-5.6,11.64-5.92s9.87,10.81,11.8,12.88c7.74,8.34,22.43,20.06,23.06,31.95.31,5.93-2.35,6.95-7.82,5.8-6.92-1.46-21.31-22.75-26.75-29.24-2.06-2.46-13.43-13.28-11.93-15.48Z"/>
  <path class="st4" d="M180.66,908.66c1.44-1.22,1.42-4.28,4.6-3.51,1.42.35,10.02,7.21,9.74,8.34-13.65,10.72-23.73,25.09-34.5,38.51-7.83,6-19.66,3.33-12.95-7.95,5.03-8.46,25.12-28.62,33.11-35.39Z"/>
  <path class="st29" d="M555,1251.98c.97-1.47-7.63-2.59-2-2.98,1.62.62,3.71.53,5,1"/>
  <path class="st20" d="M577,1257l-.58.76"/>
  <path class="st24" d="M551.99,1251"/>
  <path class="st32" d="M320.5,407c-3.36-.72-9-7.52-4.44-10.45,18.22-4.14,36.22-9.98,50.47-22.53,4.65-4.09,16.38-20.17,19.49-21.5,6.84-2.94,11.04,2.53,11.06,8.97.01,5.68-5.18,16.59-9.07,20.72-1.79,1.9-4.74,2.69-6,4.77,36.11,19.17,35.72,68.16,23.48,102l-7.47,14.02c7.59-8.74,30.8-11.64,38.51-3.03,9.08,10.13-16.57,5.66-20.03,6.03-16.79,1.8-23.84,24.27-8.54,32.55,5.59,3.03,13.16,2.99,19.43,2.33,7.78-.82,13.96-5.48,21.63-4.87-5.02,27.7-51.58,23.2-60.19-.32-3.33-9.1-2.02-17.18,2.18-25.69-16.52,14.32-40.91,13.94-54.97-3.52-20.71-25.73-16.81-72.55-.02-99.48-4.53-.66-11.33.9-15.5,0Z"/>
  <path class="st32" d="M545,410.01c24.84,29.74,17.78,95.24-16.98,114.51-38.78,21.49-65.51-17.99-68-53.03-1.82-25.57,7.31-63.38,27.98-79.99-9.24-2.79-19.93-29.45-7.22-32.3,5.63-1.26,15.86,13.69,20.76,17.78,18.7,15.6,36.39,16.18,57.48,23.52,18.47,6.43-6.35,11.17-14.01,9.52Z"/>
  <path class="st2" d="M496.59,586.41c9.07,7.14,20.9,22.14,21.45,34.08.38,8.16-4.31,6.02-8.55,1.51-5.99-6.36-10.1-14.84-16.97-21.03-25.43-22.92-66.69-26.19-93-2.95-3.47,3.07-13.05,15.56-16.18,15.85-5.9.55.08-13.16,1.46-15.57,22.07-38.46,80.03-36.9,111.78-11.9Z"/>
  <path class="st32" d="M744.01,526c-.52-.43-.32-8.27-6.3-11.21-7.28-3.58-15.84-.21-20.71,5.71,19.8,6.32,19.93,34.03,4.91,45.91-4.09,3.24-12.83,7.17-17.49,3.67-6.07-4.56,6.34-8.64,8.48-10.68,1.14-1.09,5.11-7.12,5.54-8.46,1.93-5.88.86-16.3-6.91-16.02-8.79.31-6.16,10.45-10.53,12.59-9.15,4.47-7.54-10.95-6.56-15.57,3.84-18.11,22.42-34.41,41.61-30.5,6.89,1.41,14.44,8.58,13.91,15.94-.16,2.24-2.95,11.1-5.96,8.62Z"/>
  <path class="st11" d="M694.52,384c1.4-.33,2.76,1.56,3.22,2.76,2.24,5.86,2.94,14.98,4.55,21.45s4.19,13.36,5.44,19.56c2.34,11.69,1.77,17-7.75,5.75s-14.52-30.5-8.46-44.51c.51-1.17,2.01-4.78,3-5.01Z"/>
  <path class="st28" d="M721,383.5c.75-2.61,3.12-1.31,4.41.59,1.58,2.31,5.59,14.83,5.59,17.41v15c0,1.21-2.87,2.28-4.52.52-.64-.69-5.48-13.74-5.48-14.52,0-4.19-.85-16.05,0-19Z"/>
  <path class="st19" d="M794.01,905c-.17-7.77-.02-17.75-2.3-25.21-1.48-4.87-5.86-8.59-6.71-13.78,18.31,2.14,26.3,29.47,9.01,38.99Z"/>
  <path class="st26" d="M237,861.01l-9.47,15.02c-2.48,6.63-2.67,13.63-3.49,20.51-.68,5.75-4.36,1.67-6.49-1.58-9.05-13.86,3.96-33.62,19.45-33.95Z"/>
  <path class="st7" d="M395.01,487c6.86-16.45-3.23-58.32-27.25-48.74-21.46,8.57-22.18,57.57.24,67.25l10.99,1.48c-14.79,6.38-29.09,3.18-37.79-10.69-14.64-23.34-12.82-60.69,2-83.61,6.93-10.73,13.89-10.92,24.07-16.72.83-.47.88-2.23,2.64-2.55,11.13-2.01,22.97,13.43,26.95,22.22,9.2,20.27,9.06,41.17,2.43,62.14-.86,2.72-2.15,7.37-4.28,9.21Z"/>
  <path class="st0" d="M485.35,511.65c-23.18-23.79-17.58-73.46-2.16-99.95,2.06-3.54,7.78-12.44,11.55-13.44,4.7-1.26,15.92,5.17,21.48,7.02,8.94,2.97,15.32,1.88,21.74,9.26,22.94,26.32,11.18,111.15-33.48,106.47-5.88-.62-15.01-5.12-19.14-9.36Z"/>
  <path class="st1" d="M499.73,440.23c36.09-7.44,33.63,69.77,2.77,69.76-18.58,0-22.97-28.31-21.39-42.39,1.01-9.05,8.91-25.37,18.62-27.38Z"/>
</svg>