<?xml version="1.0" encoding="UTF-8"?>
<svg id="Layer_1" xmlns="http://www.w3.org/2000/svg" version="1.1" viewBox="0 0 1024 1536">
  <!-- Generator: Adobe Illustrator 29.5.1, SVG Export Plug-In . SVG Version: 2.1.0 Build 141)  -->
  <defs>
    <style>
      .st0 {
        fill: #732106;
      }

      .st1 {
        fill: #d87233;
      }

      .st2 {
        fill: #752207;
      }

      .st3 {
        fill: #e3c790;
      }

      .st4 {
        fill: #133e55;
      }

      .st5 {
        fill: #a2b395;
      }

      .st6 {
        fill: #742106;
      }

      .st7 {
        fill: #020201;
      }

      .st8 {
        fill: #552a0f;
      }

      .st9 {
        fill: #020302;
      }

      .st10 {
        fill: #b72b0f;
      }

      .st11 {
        fill: #074a58;
      }

      .st12 {
        fill: #074b59;
      }

      .st13 {
        fill: #e4972c;
      }

      .st14 {
        fill: #d97334;
      }

      .st15 {
        fill: #d97435;
      }

      .st16 {
        fill: #030201;
      }

      .st17 {
        fill: #da7435;
      }

      .st18 {
        fill: #db7636;
      }

      .st19 {
        fill: #e3c892;
      }

      .st20 {
        fill: #d97434;
      }

      .st21 {
        fill: #da7535;
      }

      .st22 {
        fill: #e3cf9f;
      }

      .st23 {
        fill: #bb2c11;
      }
    </style>
  </defs>
  <path d="M957.5,425c17.05-64.78,14.39-160.75-31.69-213.35-43.58-49.75-109.05-37.49-144.24,14.42-46.14,68.07-61.83,201.88-17.74,273.61,10.09,16.41,24.43,27.02,39.03,39.05-2.68,4.89.86,28.9-.22,30.82-1.52,2.71-7.28,1.07-10.13,1.46-43.77,6.09-64.27,65.37-48.52,103.5,1.49,3.6,10.12,17.12,9.88,18.76-3.3,4.75-6,10.02-9.45,14.65-7.57,10.13-21.77,24.61-31.95,32.05-6.75,4.93-7.43,3.04-13.96-.98-46.56-28.68-85.92-80.79-136.98-101.04-1.45-.58-8.24-1.76-3.03-2.94,45.69-10.33,95.05-45.24,121.33-83.69,31.7-46.4,45.17-119-4.43-158.77-.22-11.33.98-22.65.59-34.05-.54-16.22-3.41-34.82-7.48-50.53-4.46-17.18-11.84-33.65-21.49-48.43,5.7-2.67,11.67-4.75,17.22-7.82,19.24-10.67,37.36-31.67,39.64-54.36,3.68-36.64-21.26-58.1-56.94-50.85-58.37-91.77-193.91-92.92-278.47-38.56-2.05,1.32-6.04,5.5-7.17,5.83-8.71,2.49-23.42-1.44-33.79-.79-34.18,2.12-70.07,26.43-87.92,55.08-4.82,7.74-8.03,16.32-13.09,23.91-5.85-15.02-5.7-32.38-3.21-48.22,1.28-8.13,5.66-17.36,6.5-24.5.69-5.85-6.46,2.65-7.77,4.24-20.75,25.43-18.22,69.56,10.98,87.48-.72,3.29,5.31,6.37,7.34,3.69,6.73-43.92,53.71-88.55,100.27-81.1-3.33,2.94-12.74,21.06-9.99,24.2,1.05,1.21,2.23,1.37,3.75.92,20.11-16.96,41.43-32.63,65.16-44.14,80.23-38.93,190.37-28.43,238.56,54.08,3.65,11.06,8.27,8.7,13.85-7.07,22.87-4.12,37.75,12.43,32.97,35.46-8.63,41.58-55.72,55.89-93.65,50.34l-3.25,1.63c-2.5-.03-2.83-1.36-1-4,3.39.15,6.44-1.57,9.16-5.15,12.12-7.87,32.3-51.83,27.52-64.99-1.09-3.01-1.84-4.37-5.18-2.25-13.84,36.26-48.81,74.18-89.94,75.83,25.41-11.51,46.37-29.18,58.13-54.45,2.56-5.51,8.4-21.31-2.28-19.48-35.85,57.17-104.02,82.04-169.73,74.46,33.16-12.76,60.82-27.56,80.7-56.89,2.39-3.53,15.34-24.95,3.74-22.62-46.57,55.83-125.25,80.04-197.24,68.98-3.5-.91-5.56,1.27-4.36,4.31,20.72,13.47,35.01,24.62,37.01,51.1,2.76,36.61-16.81,82.85-43.59,107.68-4.67,4.33-15.22,13.47-21.63,9.82,19.06-8.19,16.39-35.74.3-46.31-31.29-20.55-75.65,1.86-103.43,19.17-24.65-58.01-14-130.7,47.74-160.12,3.01-1.64,8.12-5.35,4.09-8.1-1.35-.78-1.98-3.45-3.6-3.79-5.56-1.15-27.83,8.82-33.33,12.36-55.07,35.44-55.95,120.39-28.99,173.78-5.54,5.16-11.42,10.07-16.59,15.64-27.51,29.63-47.89,65.61-62.97,103.03-22.79,56.54-57.87,183.72,4.16,224.81,25.72,17.03,64.94,24.21,95.37,22.6,3.37.9,7.2,11.14,9.53,14.51,8.08,11.72,16.03,18.71,30.8,17.93,26.78-1.41,54.7-14.64,80.62-20.86-2.16,37.04-11.13,73.49-21.48,109.01-3.9,13.4-12.73,32.56-14.42,45.57-1.53,11.77,7.27,9.98,12.48,16.35,3.02,3.69.35,4.84-.07,8.07-2.98,22.8-6.44,45.58-10.77,68.24-4.35,22.76-13.9,52.34-15.72,74.27-.19,2.3-.39,5.34.51,7.48,2.5,5.95,28.07,19.2,34.79,22.21,3.82,1.71,13.24,4.01,16.11,5.89.91.6,1.63,1.11,1.54,2.34-12.47,64.74-29.45,128.84-35.96,194.57-5.41-.05-13.85,3.03-17.95,6.55-3.02,2.6-4.65,7.92-7,10-3.82,3.39-17.44,2.33-23.17,3.05-37.95,4.81-82.33,14.83-98.64,54.14-23.36,56.3,41.14,76.22,84.22,78.31,20.23.98,38.03-2.7,57.54-3.04,24.02-1.26,47.05-10.15,68.34-20.93,24.19,11.79,59.2-7.28,68.57-31.42,1.91-4.91,4.96-13.78,1.09-17.65l1.9-2.65c-1.78-23.06-5.45-49.4-21.6-66.69-.48-7.87.21-15.83,2.07-23.87,10.48-53.14,21.77-108.36,33.66-162.23.11-.49.68-.6,1.14-.66,11.54-.02,25.56-2.14,36.56-6.35,5.48-2.1,10.94-4.35,11.92-10.87,8.97,2.41,18.84,4.94,27.97,3.64,19.63,64.51,38.42,129.27,56.38,194.29-16.5,19.3-16.12,45.56-13.33,69.57l2.34,1.83c-3.17,6.46,3.72,17.43,8.59,22.42,13.34,13.68,51.5,27.48,69.63,18.53,30.65,12.79,64.74,20.42,98.97,22.07,34.04,1.64,84.33-1.9,110.08-27.15,5.04-4.94,12.23-13.47,9.73-19.86,11.28-44.71-34.85-75.73-72.76-82.73-15.98-2.95-44.78.61-56.08-2.93-2.48-.78-3.49-2.59-5.44-3.56-1.9-.95-5.35-.84-6.74-2.26-1.15-1.17-1.69-5.63-2.96-8.04-7.19-13.7-16.91-12.94-30.99-12.52-16.67-61.14-35.33-121.79-50.04-183.47.11-1.18-.48-3.58.17-4.34.48-.56,11.29-4.77,13.5-5.98,8.5-4.68,15.63-8.41,13.88-19.22-4.04-25.01-13.82-52.53-19.08-77.91-3.49-16.84-5.23-34.02-9.23-50.77.06-4.34,18.26-9.25,18.77-14.79.29-3.12-1.67-11.3-1.9-15.09-.44-7.43-.44-15.21-1.15-22.84-2.14-22.85-5.58-45.72-7.95-68.54,15.07,2.89,15.91,17.77,33.48,18.06,4.58.08,8.27-2.27,11.75-1.88,7.1.79,23.74,9.45,33.54,11.53,59.06,12.56,102.93-32.28,130.42-79.03,3.45-5.87,10.93-23.96,14.76-27.3,1.53-1.34,12.05-2.25,15.59-3.34,53.71-16.64,76.56-86.48,68.06-137.38-4.05-24.27-20.61-45.64-44.81-51.96-5.42-1.41-11.02-1.15-16.36-2.64l-.48-25.46c56-13.74,86.84-69.54,100.54-121.61ZM350.99,622.26c-6.76,2.55-14.14,2.23-21.25,2.14-7.7-.1-15.37.62-23.03,1.41-17.04,1.74-34,4.3-51.12,5.24-16.62.92-32.73,4.66-49.1,7.59-7.77,1.39-15.61,1.93-23.4,3.11-8.45,1.28-16.62,2.21-25-.05-2.2-.59-3.55-2.62-3.67-4.82-.51-9.22.31-18.37.94-27.55.44-6.42.39-12.85.87-19.26.43-5.7.97-11.39.98-17.11.01-4.36.32-11.13-2.79-14.69-.16-.18-.29-.36-.42-.54-1.62-1.5-2.04-3.75-.95-6.1,2.98-6.49,10.58-9.13,17.01-10.77,8.35-2.12,16.72-3.8,24.99-6.28,3.19-.96,6.66-3,10.09-1.98,3.08.91,5.32,3.87,7.23,6.26,4.85,6.07,9.08,12.64,14.37,18.35,6.04,6.53,12.49,10.07,21.55,10.04,9.4-.03,19.03-1.68,28.22-3.49,4.81-.95,9.46-2.36,14.21-3.52,2.74-.67,5.34-.89,7.77.81,2.81,1.97,4.36,5.57,6.12,8.39,2.08,3.33,3.94,6.92,6.49,9.92,5.68,6.69,14.11,11.03,21.05,16.28,7.43,5.62,14.61,11.56,21.05,18.3,2.77,2.9,1.28,7.04-2.21,8.36Z"/>
  <path class="st13" d="M233,211c.98.6,5.52,3.56,5.99,3-.31-8.86,3.46-17.48,7.29-25.21,12.88-25.97,45.41-55.31,75.23-57.77,7.43-.61,15.16,0,22.48.99.89.81-5.15,7.01-6.03,8.46-2.08,3.45-4.96,11.15-5.92,15.09-.37,1.52-.02,1.66,1.44,1.43,25.45-21.85,53.47-41.24,85.27-52.74,78.87-28.52,176.45-13.46,221.07,63.42,1.79,3.09,1.66,9.26,4.92,4.56,6.65-9.58.96-16.67,19.32-12.79,31.29,6.61,27.67,40.62,12.17,61.28-20.66,27.55-56.03,32.4-88.23,28.27-1.35-1.14-1.4-2.36-1-4,15.85-11.57,27.94-31.11,32.32-50.18.76-3.3,4.54-20.79,1.17-21.83l-7.67,17.33c-15.33,28.05-53.78,63.63-88.15,60.17-1.24-.12-2.35.39-2.67-1.48,22.88-8.85,47.2-26.54,59.17-48.34,2.81-5.11,9.43-18.54,6.82-23.97-.67-1.39-1.19-.59-2.49-.72-10.08,17.83-27.98,34.54-44.78,46.24-29.25,20.39-62.78,28.57-98.17,29.83-11.86.42-23.77-.08-35.55-1.06.27-1.75,2.01-1.72,3.23-2.26,21.31-9.38,41.78-16.84,60.25-31.75,9.73-7.85,28.77-29.78,31.1-41.94.26-1.35.72-3.66-1.1-4.04-1.4-.29-13.37,15.96-16.47,17.51-49.81,44.43-119.25,62.28-185.01,51.49-.6,2.59.76,1.75,1.89,2.58,13.47,9.93,26.12,16.98,32.14,33.89,14.41,40.53-14.86,112.6-51.5,134.55-6.68,4-10.66,5.79-16.53-1.02,14.92-2.19,16.75-15.26,14.55-28.06-2.94-17.14-27.15-23.64-42.1-22.99-26.26,1.15-49.59,14.27-70.99,28.06-1.89.32-1.24-.42-1.73-1.28-4.06-7-7.85-22.34-9.44-30.54-10.01-51.79,1.38-94.54,44.77-125.63,4.28-3.07,12.77-6.52,16.21-9.51,1.29-1.12,1.45-2.49,1.72-4.05.59.34,7.63,1.04,8.28.85.86-.25,2.44-1.93,4.34-2.77,1.74-.77,3,1.17,2.39-3.08Z"/>
  <path class="st7" d="M186,160c.14-.13,3.54-.16,3.89.12.56.45,2.56,11.08,3.63,13.86,1.77,4.62,6.01,12.06,9.05,15.95,2.35,3.01,17.37,16.33,17.42,17.56.05,1.45-2.08,1.1-3,1.05-11.53-.65-30.98-22.83-30.98-34.05,0-2.11-.53-14,0-14.5Z"/>
  <path class="st15" d="M587,245c2.05.71,2.25,2.24,1,4-.59.83-3.32,2.08-3.98,3.5,0,1.79,21.79,7.35,24.97,8.01,7.43,1.54,14.86,1.23,21.51,2.5,1.14.22,1.9.45,2.4,1.59,17.6,32.57,27.18,68.7,28.11,105.82.1,4.04.53,10.28-.06,14.02-.63,3.96-4.81,5.19-3.8,8.84.56,2.04,12.37,12.2,14.84,15.24,30.73,37.74,20.38,90.99-4.15,128.8-63.05,97.19-194.19,111.4-294.18,66.53-18.37-8.25-51.27-27.77-63.61-43.39-5.74-7.26-3.12-5.28-2.98-12.94.08-4.18-2.18-14.18-6.7-15.4-5.25-1.42-1.89,6.68-2.58,10.13-1.18,5.9-8.47,10.16-13.54,12.47-25.3,11.53-59.36,1.26-70.21-25.24,7.15-7.23,15.76,1.37,24.58,2.4,9.36,1.09,16.84-.31,22.22-8.56,2.3-3.53,4.16-12.91,5.39-14.1.94-.92,6.07-2.43,8.78-4.72,9.35-7.9,7.71-13.6,9.08-23.92,1-7.53,5.86-7.33,9.72-13.29,10.54-16.27,2.29-32.18-10.78-43.8,34.6-13.59,61.35-60.21,67.53-95.45,4.18-23.83,3.41-48.56-8.55-70.04,12.8.02,25.71-.23,38.49-1.02,6.02-.37,15.86-2.95,21.04-2.81,3.04.08,9.45,3.57,13.25,4.54,17.92,4.58,34.17,5.24,52.7,4.27,9.64-.5,22.38-4.08,31.01-4.06,4.8,0,10.97,2.52,16.02,3.06,25.26,2.68,51.73-1.83,72.48-16.98Z"/>
  <path class="st10" d="M372.67,635.33c1.35,1.32,2.19,3.96,3.83,5.68,23.27,24.43,55.99,47.6,91.02,48.97,18.28.71,45.44-13,48.39-32.59.51-3.4-1.21-10.29,2.1-11.9,6.23-3.03,25.56,2.27,32.52,4.49,32.35,10.29,56.28,37.06,82.01,57.99,12.53,10.19,25.54,19.84,38.45,29.53-30.57,22.96-46.43,60.53-46.48,98.49-4.03-5.18-13.47-6.03-15.73-12.27-8.01-49.03-15.56-101.81-48.76-140.73,5.77,24.04,14.52,47.14,20.31,71.18,13.31,55.25,22.11,125.47,23.69,182.31.09,3.24,2.55,5.4-.45,8.57s-16.73,8.85-21.28,10.71c-64.39,26.29-166.73,23.79-233.48,5.95-26.95-7.2-52.62-17.97-76.78-31.73,19.81-50.27,33.09-103.91,36.59-158.03,12.14-6.02,34.86-25.02,37.17-38.7.3-1.77,1.15-15.91-1.77-13.78-8.99,14.66-24.71,28.74-40.81,35.2-19.41,7.78-49.78,16.27-70.4,21.6-5.23,1.35-10.73,1.7-15.77,3.72,1.12-4.35,3.76-7.97,5.27-12.22,11.73-32.9,6.81-83.14-13.46-112.11-1.04-1.49-7.99-7.64-6.82-8.67l52.39-7.11c25.83-5.76,52.47-12.78,79.15-11.91,8.05.26,33.99,2.35,39.12,7.35Z"/>
  <path class="st4" d="M470.17,1067.16c16.96-6.47,33.78-13.95,47.75-25.75,2.88-2.44,6.84-5.29,6.08-9.41-10.95,3.74-21.9,8.92-33.21,12.28-9.22,2.74-18.92,4.24-27.87,7.13-14.66,22.24-17.05,50.36-24.43,75.57-3.97,3.66-9.02,5.72-14.24,6.76-42.08,8.37-117.6-9.11-154.55-30.94-4.75-2.8-8.9-4.27-8.72-10.26.31-10.43,4.32-25.96,6.34-36.73,6.16-32.94,14.41-65.55,18.7-98.81,31.3,14.48,64.49,25.46,98.74,30.75,62.35,9.63,126.65,6.36,187.67-8.82,2.72-.68,12-4.68,13.63-3.5,5.2,29.57,14.94,58.19,21.7,87.33,1.52,6.55,2.06,14.12,3.34,20.66s6.31,9.56-.62,15.56c-22.44,19.45-87.26,27.6-115.85,23.91-3.16-.41-19.68-3.33-20.45-5.55s-1.63-9.93-2.04-12.96c-.67-5.03-3.35-34.95-1.96-37.21Z"/>
  <path class="st14" d="M181,473c10.47-9.41,43.13-21.02,56.82-18.3,18.31,3.63,42.84,26.62,25.68,44.28-13.31-20.6-34.97-26.88-58.53-21.52-9.68,2.2-22.1,6.59-25.96,16.53,6.57-1.43,11.47-5.28,18.51-5.98,11.88-1.18,33.81,0,43.4,7.58,5.23,4.14,11.49,13.43,5.65,19.47s-20.92-2.28-28.18-2.93c-31.44-2.82-48.77,43.69-82.38,27.88-.52,4.93,7.2,7.6,8.47,10.02.68,1.3,1.35,5.77,1.5,7.5,1.81,20.1,1.13,54.4.06,75.02-.94,17.98-4.71,35.47-13.04,51.45,1.26,1.21,11.79-8.93,13-10.49,3.48-4.47,8.12-17.28,11.62-19.38s26.57-5.02,30.92-4.66c4.86.4,11.95,16.35,13.64,20.86,8.64,22.98,10.48,48.87,7.93,73.1-.68.92-19.73,3.31-22.63,3.57-61.84,5.66-126.42-5.54-130.53-79.45s34.82-178.38,83.69-234.43c23.02-26.4,66.9-59.14,103.83-56.09,10.87.9,25.97,9.74,13.01,19.98-12.37,9.78-17.41,3.46-29.97,4.01-19.24.84-54.11,20.3-64.35,36.67-1.02,1.62-3.28,4.95-3.19,6.71,0,.2,2.86,2.76,3.01,2.6.12-.14.29-1.68,1.02-2.47,7.73-8.4,45.66-29.38,56.51-30.51,12.54-1.3,25.26,2.88,36.16,8.81,7.81,4.26,24.82,17.65,26.26,26.73.68,4.26-.29,12.7-2.42,16.46-1.54,2.73-5.57-5.42-6.54-6.5-16.38-18.3-34.25-21.91-57.74-15.78-12.26,3.2-34.77,13.51-39.24,26.26-.35,2.76.98,3.76,4,3Z"/>
  <path class="st18" d="M779.99,617c-1.94-1.43-6.87,6.5-7.48,8-6.2,15.17-.72,33.21,11.45,43.54,1.9,1.61,4.75,1.62,5.92,4.09-3.8,7.33-7.65,15.19-6.76,23.76.44,4.26,3.27,7.79,2.96,12.1-.72,10.03-6.68,19.11-4.98,31.92,2.24,16.91,21.49,25.16,36.91,20.59-10.51,25.17-28.49,51.28-48.47,70.02-28.84,27.05-52.11,33.29-90.3,21.25-5.62-1.77-33.49-13.47-35.05-17.95-2.95-8.48,2.57-30.29,5.53-39.12,4.28-12.76,12.17-27.88,20.77-38.23,1.5-1.8,7.44-8.57,8.8-9.68.87-.72,2.19-1.28,3.3-1.3,1.44-.02,15.39,8.09,15.95,8.97,1.74,2.72-3.42,9.13-4.72,12.34-1.1,2.72-4.6,13.99-2.81,15.69,2.85,2.71,4.14-4.63,5.16-6.35,6.71-11.34,24.76-22.99,34.85-32.14,11.51-10.43,22.68-22.55,31.95-35.05,4.18-5.64,4.63-12.81,14.03-11.47l-13.43-16.06c-7.41-11.22-12.02-33.09-10.46-46.33,1.96-16.57,19.91-44.64,37.63-47.36,22.14-3.4,27.3,21.23,25.18,38.17-.85,6.78-8.65,25.14-15.17,27.82-17.93,7.38-15.96-28.21-20.76-37.24Z"/>
  <path class="st12" d="M896.65,506.65c-9.47,10.09-28.4,22.53-41.69,26.81-3.59,1.16-6.81.73-10.05,2.18l-.9,38.37c-2.72-.08-5.37-.16-8.07.43-6.9,1.52-13.44,8.18-19.92,3.03-2.05-1.63-.11-3.79-.02-5.97.52-11.91.92-23.87,1.86-35.77-.7-2.63-19.55-14.54-23.48-18.12-66.9-61.03-48.53-227.78,6.64-292.08,41.47-48.33,96.77-33.84,125.49,18.45,39.24,71.42,26.5,202.6-29.87,262.67Z"/>
  <path class="st0" d="M675.99,1333.02c.38,1.53-.24,1.6-1.05,2.42-9.27,9.28-17.44,15.15-25.75,26.24-4.23,5.64-10.06,12.03-8.17,19.32,6.59-6.81,12.92-14.17,19.98-20.51,5.94-5.34,16.79-15.31,24.6-16.4,10.09-1.4,4.84,2.8,7.35,4.48l12.06,2.42c-4.07.17-8.57,2.4-12.35,4.15-18.21,8.42-36.87,22.56-39.64,43.85,2.65,2.37,9.77-9.19,11.48-11.01,10.52-11.15,43.94-36.08,59.02-36.06,28.04.04,75.35,13.22,84.77,43.3,3.65,11.63-.21,14.22-11.01,18.55-67.54,27.14-161.58,10.79-227.54-16.01-4.13-1.68-20.54-9.6-22.22-12.78-4.25-8.06-.12-31.88,9.55-35.49,2.2-.82,10.79,3.5,14.69,4.25,8.77,1.7,32.24,3.51,40.68,2.19,10.19-1.59,25.15-24,36.27-28.73,6.06-2.58,15.73-3.78,21.24.35,2.47,1.86,3,5.04,6.05,5.46Z"/>
  <path class="st0" d="M363.99,1355c3.53,7.93,13.56,44.85,9.11,50.59-.96,1.23-12.14,5.5-14.58,6.42-60.57,23.01-162.51,52.21-221.23,15.2-8.78-5.53-9.94-5.27-6.57-15.99,7.72-24.52,40.96-38.58,64.79-39.21,24.35-.64,44.97,20.25,60.09,36.89,1.01,1.11,1.48,2.51,3.4,2.09,1.31-8.29-2.49-13.97-7.48-20.01-8.91-10.76-24.02-19.67-37.5-23l16.62-3.86c18.91-1.43,40.33,11.47,52.89,24.85,1.32,1.41,7.28,11.21,9.48,9.01.87-.86-.88-3.23-1.36-4.13-4.81-9.23-14.91-20.55-23.32-26.68-4.76-3.47-18.25-9.64-19.86-14.2-.91-2.58,6.73-5.19,8.5-5.53,13.89-2.64,26.5,7.21,36.94,15.15,4.45,3.38,8.63,9.69,14.57,10.42,10.52,1.28,32.89-3.48,42.23-8.81,1.98-1.13,12.23-10.02,13.28-9.2Z"/>
  <path class="st21" d="M505,1140.01c22.88-.28,45.86-2.16,68.23-7.28,2.88-.66,13.1-4.94,14.31-3.84l37.02,135.14c-23.76,11.49-53.67,19.3-79.56,11.47l-40-135.49Z"/>
  <path class="st20" d="M388.96,1153.04l-26.9,135.52c-1.35,1.5-9.74,2.3-12.52,2.48-16.97,1.12-43.03-1.63-57.86-10.22-2.6-1.51-8.75-5.22-8.64-8.16,9.37-44.45,18.3-89.2,28.92-133.25,25.02,7.68,50.99,11.1,77,13.63Z"/>
  <path class="st17" d="M829,755.99c11.57-11.4,18.15-27.58,18.13-43.86,1.25-1.94,13.97-2.62,16.21-3.29,4.25-1.27-2.44-7.01-4.63-8.06-14.85-7.14-32.41,2.72-47.25,3.23-21.24.73-13.19-25.47.83-31.21,20.22-8.28,49.58-2.8,70.7.2-4.17-12.04-18.09-15.24-29.45-16.04-12.63-.88-25.45.43-37.54,4.04l9.85-16.64c3.35-5.13,2.22-13.19,8.35-15.65,10.07-4.04,45.73.12,54.52,6.08,2.28,1.55,2.58,4.2,5.28,4.21-7.74-27.04-40.48-25.44-61.99-17,.8-9.84-1.4-19.35-2.97-28.96,20.18-7.06,46.7-6.28,61.48,10.95,18.93,22.07,14.25,75.3,2.01,100.03-11.44,23.11-37.18,48.23-63.52,51.97Z"/>
  <path class="st3" d="M629.99,1278c.29,7.68,11.68,31.3,9.87,37.3-.31,1.03-13.51,12.83-15.65,14.65-3.11,2.65-6.66,4.91-9.89,7.39-.8.62-1.08,2.58-2.3,3.18-2.77,1.36-26.64.05-31.41-.63-8.23-1.17-14.84-4.07-21.31-9.18l-10.29-40.7c11.16,4.55,23.65,3.49,35.32,1.84,16.33-2.32,30.6-7.4,45.65-13.83Z"/>
  <path class="st19" d="M358.99,1304c.5.59-.88,11.36-1.14,13.35-.64,5.01-3.11,23.6-4.87,26.87-1.33,2.46-14.8,9.2-18.17,10.09-5.68,1.5-19.6,3.86-24.87,2.24-6.95-5.35-13.43-11.5-21.03-15.97-2.61-1.54-15.5-7.05-15.77-8.17l6.85-41.4c6,2.22,11.82,6.6,17.82,8.67,17.94,6.18,42.52,6.04,61.17,4.33Z"/>
  <path class="st6" d="M810.99,1414c-5.66,26.51-43.72,33.48-66.61,35.88-44.57,4.67-83.46-5.33-124.93-19.83-6.22-2.17-13.93-6.21-20-8.01-2.67-.79-1.11,5.58-1.46,7.46-.87,4.69-13.39.36-17.22-.78-8.4-2.49-27.85-10.62-30.35-19.65-.39-1.41-1.78-11.58-1.42-12.07,19.18,11.5,41.99,18.07,63.54,23.94,48.67,13.26,104.42,25.32,154.46,13.57,15.87-3.73,31.22-10.33,43.98-20.51Z"/>
  <path class="st2" d="M337.03,1443.97c-.84-3.38-.58-7.23-1.03-10.48-.19-1.38.58-1.73-1.49-1.5-21.64,9.88-45.07,22.1-68.3,27.71-34.02,8.21-104.08,11.82-130.6-14.81-1.59-1.6-8.1-10.01-6.6-11.89,14.36,8.23,27.48,15.93,43.96,19.53,51.54,11.27,127.23-9.47,176.31-27.76,8.08-3.01,15.99-6.97,23.71-10.78,1.49,9.34-1.5,13.52-8.51,18.98-3.39,2.64-25.01,13.36-27.45,11Z"/>
  <path class="st1" d="M391.39,634.59c-1.64-1.63-3.57-3.31-4.39-5.58,1.76-.13,3.49-.02,5.24.25,29.22,4.53,55.7,24.09,84.27,25.72,7.03.4,13.6-1.31,20.5-1.55,5.78-.2.43,7.23-1.61,9.46-3.81,4.17-15.46,9.29-20.99,10.01-30.61,4.04-62.4-17.88-83.03-38.32Z"/>
  <path class="st11" d="M828.99,716c.71,10.74-7.77,29.1-19.64,29.92-15.41,1.07-11.96-17.16-9.25-26.82,10.09.65,19.45,1.26,28.89-3.1Z"/>
  <path class="st23" d="M207,766.01c-3.56,12.99-8.32,11.72-14.99,1.49l14.99-1.49Z"/>
  <path class="st8" d="M177,470c-.71,2.77,2.09,1.89,4,3-1.46,1.31-2.39,4.51-4.99,4-.55-2.99.14-4.57.99-7Z"/>
  <path class="st16" d="M307.98,310c1.38,1.3,4.92,17.61,5.05,20.46.82,17.53-12.07,45.33-26.03,56.04-1,.77-1.27,1.94-3,1.49-1.62-7.91,3.28-12.64,6.17-19.32,5.93-13.7,12.68-29.83,15.2-44.55.75-4.39.12-8.61.62-12.64.17-1.4.53-2.86,1.99-1.48Z"/>
  <path d="M417.99,454c2.83,21.98,20.91,29.83,41.25,25.74,3.41-.68,18.3-7.1,19.75-5.74-.34,6.03-4.48,11.77-9.06,15.43-1.34,1.07-9.44,4.41-7.93,6.55.1.14,1.9.4,3.02,1.46,17.45,16.59,29.25,25.5,53.94,30.09,20.3,3.77,50.2-.55,66.97-13.1,3.1-2.32,22.02-23.47,25.06-20.43-4.25,18.53-22.99,35.41-39.32,44.17-40.43,21.67-96.22,1.18-122.14-34.21-1.16-1.59-1.4-4.72-2.52-5.48-1.21-.83-11.56-2.5-15-4-13.8-5.97-24.61-22.02-18.08-37.05.74-1.7,1.77-3.75,4.05-3.44Z"/>
  <path d="M607,420.01c27.69,25.2-4.38,67.24-36.37,63.86-1.79-.19-13.22-3.3-13.62-3.89-.32-.47-.01-2.29.46-3.03.98-1.55,16.34-5.53,19.9-7.1,7.38-3.27,17.38-10.62,21.2-17.8,4.76-8.96,5.17-20.41-7.05-22.06-8.4-1.14-29.4-.37-35.43-5.57-2.42-2.09-6.49-9.52-1.57-10.42,9.78-1.79,26.17.69,36.49.99.48-2.81-3.76-2.98-5.93-4.56-17.1-12.52-21.02-27.89-22.06-48.43,2.12,3.19,5.91,4.51,8.02,6.47,4.04,3.74,9.37,14.82,13.99,20,18.17,20.37,43.34,19.7,44.41-11.98.15-4.44-2.53-19.06-.97-21.53,2.34-3.68,7.3,7.02,8,9.06,3.28,9.52,4.61,25.92,1.59,35.53-3.84,12.19-18.32,21.78-31.06,20.45Z"/>
  <path d="M437.35,405.65c5.84,6.98,16.64,16.11,25.11,19.39,14.42,5.59,23.19,1.36,29.71-12.36,6.2-13.04,3.66-31.71,1.55-45.9-.62-4.18-5.47-13.9.82-9.82,12.67,8.2,17.2,51.81,12.73,64.83-9.13,26.56-41.98,31.75-62.76,15.2-12.73-10.14-22.94-29.34-24.39-45.6-1.15-12.81,5.16-9.09,9.27-1.28,3.26,6.2,2.62,9.18,7.95,15.55Z"/>
  <path d="M403.8,333.79c-1.2.67-3.35.06-4.8.22-6.79-27.84,28.12-58.45,54.39-55.89,8.87.86,30.78,11.74,29.19,22.44-.18,1.2-2.79,3.49-4.09,3.49-.94,0-4.7-3.19-6.95-4.08-32.26-12.77-47.01,1.35-63.79,26.3-.97,1.44-3.48,7.26-3.96,7.53Z"/>
  <path d="M613.59,281.41c5.8,4.78,15.28,19.74,16.32,27.17.39,2.75-.06,5.64.08,8.41-2.27,2.54-15.21-16.9-17.47-19.02-8.75-8.25-21.53-12.01-32.92-6.87-6.85,3.09-6.78,8.65-16.49,4.28-6.21-2.8-4.29-5.1-.62-9.39,13.18-15.44,35.4-17.53,51.1-4.58Z"/>
  <path d="M796.34,496.66c-55.11-53.07-31.43-200.4,11.24-256.57,28.17-37.09,64.7-34.93,90.85,2.98,41.43,60.05,30.88,194.01-16.92,248.95-23.67,27.21-58.72,30.12-85.17,4.64Z"/>
  <path class="st5" d="M878.66,472.67c-17.44,24.67-42,34.34-68.59,15.76-26.04-18.2-33.72-74.32-34.06-104-.45-39.55,17.52-105.98,43.48-136.45,35.05-41.13,66.17-6.49,79.99,31.04,20.37,55.32,13.6,144.95-20.82,193.65Z"/>
  <path class="st22" d="M815.45,454.44c-1.87,1.9-7.97,7.96-9.98,8.54-2.12.61-2.19-4.79-2.23-6.22-.31-11.53,19.25-40.24,26.34-50.68,18.89-27.79,39.83-54.26,60-81,1.94-1.19,7.37-10.64,8.9-10.08,4.52,1.66,4.86,20.51,2.98,24.95-11.01,16.47-23.58,31.77-35.28,47.72-15.54,21.2-32.45,48.17-50.73,66.76Z"/>
  <path class="st9" d="M810.58,357.58c-2.08,2.45-9.12,11.56-11.1,12.41-1.23.53-1.88-.23-1.48-1.48,24.09-33.49,43.73-70.43,70.98-101.52-.3,9.4-5.83,17.25-10.57,24.92-13.33,21.54-31.46,46.43-47.83,65.67Z"/>
  <path class="st9" d="M797,344.99l58.13-92.36,3.86-2.63c.23,1.71-.18,3.15-.76,4.73-1.78,4.85-8.06,15.91-10.85,21.15-12.72,23.88-28.17,47.55-46.97,67.03-1.03,1.07-1.44,2.54-3.41,2.08Z"/>
</svg>