<?xml version="1.0" encoding="UTF-8"?>
<svg id="Layer_1" xmlns="http://www.w3.org/2000/svg" version="1.1" viewBox="0 0 1024 1536">
  <!-- Generator: Adobe Illustrator 29.5.1, SVG Export Plug-In . SVG Version: 2.1.0 Build 141)  -->
  <defs>
    <style>
      .st0 {
        fill: #f7d995;
      }

      .st1 {
        fill: #d04219;
      }

      .st2 {
        fill: #112b36;
      }

      .st3 {
        fill: #5a472e;
      }

      .st4 {
        fill: #152a30;
      }

      .st5 {
        fill: #e89e4d;
      }

      .st6 {
        fill: #f1dcbc;
      }

      .st7 {
        fill: #f1dbb8;
      }

      .st8 {
        fill: #030302;
      }

      .st9 {
        fill: #051016;
      }

      .st10 {
        fill: #f0d8b5;
      }

      .st11 {
        fill: #235f79;
      }

      .st12 {
        fill: #f0d9b5;
      }

      .st13 {
        fill: #e69947;
      }

      .st14 {
        fill: #cf4218;
      }

      .st15 {
        fill: #e69a48;
      }

      .st16 {
        fill: #f1dbb9;
      }

      .st17 {
        fill: #e79c4b;
      }

      .st18 {
        fill: #f6ce8e;
      }

      .st19 {
        fill: #030304;
      }

      .st20 {
        fill: #efd7b3;
      }

      .st21 {
        fill: #020302;
      }

      .st22 {
        fill: #f3ddb9;
      }

      .st23 {
        fill: #efe087;
      }

      .st24 {
        fill: #f3e0c1;
      }

      .st25 {
        fill: #f5e3c6;
      }

      .st26 {
        fill: #030403;
      }

      .st27 {
        fill: #0d262d;
      }

      .st28 {
        fill: #59462d;
      }

      .st29 {
        fill: #030402;
      }

      .st30 {
        fill: #030303;
      }

      .st31 {
        fill: #f1d35d;
      }

      .st32 {
        fill: #e69a47;
      }

      .st33 {
        fill: #f2debf;
      }

      .st34 {
        fill: #020303;
      }

      .st35 {
        fill: #f1dab7;
      }

      .st36 {
        fill: #d04319;
      }

      .st37 {
        fill: #f2dbb9;
      }

      .st38 {
        fill: #f7d38b;
      }

      .st39 {
        fill: #f0d8b4;
      }

      .st40 {
        fill: #f1dcba;
      }

      .st41 {
        fill: #040504;
      }

      .st42 {
        fill: #040404;
      }

      .st43 {
        fill: #6b210e;
      }

      .st44 {
        fill: #f3dcb8;
      }

      .st45 {
        fill: #eeb022;
      }

      .st46 {
        fill: #e8a14a;
      }

      .st47 {
        fill: #040403;
      }
    </style>
  </defs>
  <path class="st26" d="M996.91,978.31c-14.15,1.5-32.94,19.39-46.99,25.2-12.78,5.29-31.64,9.24-14.48-8.78,18.41-19.31,40.84-28.49,51.64-56.88,6.26-16.47,8.75-54.88-15.62-56.98-15.98-1.37-21.13,8.32-27.15,20.75-13.93,28.78-25.56,63.65-58.16,77.27-30.76,12.86-23.12-14.71-27.49-33.2-3.4-14.42-13.06-29.49-27.36-34.5-2.25-.79-4.45-1.3-6.61-1.6-4.52.94-9.18,1.4-13.91,1.39-14.99,5.48-23.53,23.44-15.74,41.58,7.48,17.39,29.56,30.09,19.2,53.91-47.03-7.02-83.17-37.99-110.08-75.85,10.21-11.39,22.12-24.82,15.57-41.47-12.22-31.05-58.27-77.33-87.94-91.76-1.75-.84-6.7-.82-3.55-3.34,1.13-.9,4.58-2.21,6.6-3.66,12.24-8.81,23.38-18.27,32.7-30.26,22.85,35.02,44.81,71.06,79.09,95.97,10.41,7.56,21.6,14.03,33.27,19.18,26.41-1.15,52.27-4.12,75.77-17.48,2.91-1.65,4.45-7.73,6.57-10.6,6.35-8.61,7.66-15.44,9.9-25.85,2.41-11.22,4.34-22.45,5.39-33.9,1.34-14.63-.93-29.2-3.79-43.69-.56-2.83-2.16-6.54-3.72-9.31-2.14-3.8-5.13-11.27-5.13-11.27l-5.31-7.78-4.96-7.99s-3.99-5.61-5.6-7.67c-2.54-3.24-18.04-19.85-18.5-21.19-.19-.52-.01-1.15-.02-1.7,56.88-36.28,85.32-106.14,69.24-172.72-11.81-48.92-51.5-89.54-101.46-97.4-6.97-25.82-28.96-48.12-56.52-49.11-2.49-.09-6.14,1.51-6.36,1.28-1.04-1.13-6.85-25.22-8.41-29.65-23.72-67.39-83.82-142.05-160.93-140.49,3.5-7.78,8.43-14.79,11.8-22.67,22.34-52.23,5.53-118.02-37.8-153.98-6.66-5.53-22.28-17.29-30.54-9.57-9.15,8.56,7.03,43.24,10.08,54.32,5.5,19.99,8.4,40.78,9.33,61.52l-9.06-20.73c-20.82-38.53-55.16-69.28-95.87-84.87-27.66-10.59-83.66-21.42-102.01,9.49-10.44,17.59,6.81,17.87,17.87,22.82,14.79,6.62,30.35,14.95,42.94,25.19-49-19.47-100.51-31.18-152.92-17.98-28.05,7.06-63.91,29.82-78.38,55.63-6.5,11.58-15.14,34.34,3.53,38.57,22.85-4.31,44.64-13.97,68.29-13.37l14.49,1.68c-36.27,7.84-73.95,25.94-96.05,57.13-16.27,22.97-35.39,71.06-27.52,98.96,6.89,24.45,24.84-4.79,31.91-12.4,1.46-1.56,11.42-12.38,12.79-11.1-43.41,61.48-65.91,152.47-27.28,221.74,4.73,8.49,11.6,15.73,15.67,24.61-26.76,3.7-43.6,26.39-50.95,51.12-8.29,27.88-5.54,54.51,5.53,81.08,23.86,57.19,101.53,96.78,155.03,54.35,3.63,8.18,5.15,17.12,8.5,25.43,8.18,20.24,22.04,40.66,38.47,54.94,7.92,6.89,38.41,197.75,46.45,204.04l-52.23,179.13c1.88-3.23,140.31,45.87,141.61,45.09,7.28-4.41,52.65,13.48,62.96,14.72,9.57,1.16,20.6,3.61,29.98,6.04,11.97,3.1,29.52,11.81,40.04,13.46,24.03,3.75,39.83-25.86,48.69-44.04l10.75-26.06c8.48,13.97,11.24,30.17,12.76,46.34,2.76,29.38,3.13,61.98,2.01,91.46-1.45,37.95-17.05,113.81,6.12,144.34,41.67,54.88,136.57-22.38,172.2-53.42,45.62-39.71,115.81-124.5,73.02-187.59-34.05-50.22-99.31-30.03-133.31,9.29-11.46,13.25-21.72,38.35-31.04,47.8-1.43,1.45-6.95,3.26-8.95,5.01,2.76-14.76,2.9-30.16,2.35-45.21-2.63-71.87-24.39-185.34-122.14-150.43-7.52,2.69-14.49,7.02-21.72,10.28,1.87-7.31-8.75-14.57-9.86-17.55-.61-1.65,11.41-26.89,13.04-31.43,9.99-27.86,14.52-58.86,16.54-88.27l9.94,16.32c10.04,14.95,19.65,23.57,38.73,18.25,40.03,48.17,94.96,84.93,157.6,93.47,7.12,26.54,38.11,36.38,62.81,32,12.35,22.04,31.81,59.32,61.97,54.57,7.83-1.23,13.29-9.84,14.32-17.23,2.84-20.35-32.09-33.82-33.38-54.25,19.25,3.8,37.34,22.63,57.4,22.38,20.07-.25,40.13-14.81,30.63-36.94-9.12-21.27-59.08-8.88-74.09-27.1,7.78-6.9,18.26-4.27,27.22-5.29,20.77-2.37,53.08-10.2,63.43-29.69s1.46-44.43-22.84-41.86Z"/>
  <path class="st26" d="M296.73,1192.18c-6.25-11.79-7.17-24.09-7.76-30.36-2.7-28.36,7.41-56.06,25.23-77.51.35-2.33-12.62-11.1-11.25-19.43,1.13-6.91,20.32-28.2,25.13-35.69,5.52-8.56,12.67-22.67,17.03-32.05,7.37-15.83,12.68-33.52,16.78-50.47"/>
  <path class="st45" d="M321.3,66.78c30.66,5.42,80.05,23.63,103.51,44.56,5.43,4.85,11.05,13.69,17.06,18.27,1.31,1,2.09,2.17,4.09,1.7,2.9-.75.57-6.46-.02-8.18-6.21-18.08-26.43-42.35-40.53-55.21-19.09-17.41-43.85-30.13-66.7-41.61,8.59-6.48,20.27-7.8,30.7-7.61,67.12,1.27,128.19,51.76,147.91,115.52,3.38,10.93,4.14,21.29,6.77,31.88.23.9-.35,3.86,1.89,2.73,7.7-3.86,15.25-46.15,15.72-55.67,1.7-34.19-9.48-59.05-17.42-90.41-.16-.65-.34-1.91.56-1.72,23.38,17.91,40.36,45.94,46.42,75.06,6.05,29.12-3.19,70.32-20.48,94.28-3.03,4.2-9.99,5.55-14.8,8.49-6.9,4.2-17.17,14.52-20.97,21.61-3.03,4.35-10.28,4.99-12.57-.47-1.79.47-3.33-.18-4.42-1.68-1.7,4.4-7.64,4.97-6.22-.19,8.44-33.86,4.89-71.45-18.67-98.54,10.75,23.82,16.69,50.65,19.3,77.14.08.77-.2,1.6-.51,2.46s-.78,1.7-1.29,2.52l-.67,5.74c.8,10.77.43,13.46-9.56,17.45-9.73,12.83-10.68,2.73-10.6-7.51l-1.22-3.94-3.97-3.3c-14.93-33.8-46.07-61.17-82-67.83,23.02,14.89,46.26,31.45,63.73,52.99,3.83,4.72,14.83,18.78,14.6,23.78-.05.87-.24,1.72-.49,2.58l4.25,7c-9.82,6.42-22.06,9.64-33.8,11.7-5.88-1.22-14.83-2.11-17.75,3.37-.95.32-17.39-5.23-18.23-6.82l-.36,1.33c-11.26-.66-22.36-1.09-33.28-1.33-5.39,1.13-11.01,2.69-16.82,4.69l-.89,2.76c-9,4.55-17.79,9.51-26.36,14.89l-45.87,12.44c-33.22,11.27-71.46,40.06-86.75,72.06,24.02-13.54,50.65-1.91,71.85,11.78l1.04,3.4c2.95,1.18,4.49,2.75,4.64,4.69.92,1.71.3,3.77-1.83,6.15.87,2.56.71,4.41-.49,5.58-12.87-3.72-26.83-3.66-39.44,1.17l-1.44,2.98c-16.44,6.62-31.37,17.56-42.64,31.29,15.97-10.96,32.35-19.78,51.5-23.85l4.19,1.31c8.66-2.65,17.65-3.65,26.65-4.58,2.33,6.5,2.99,8.87-2.41,13.32.49,3.14-3.13,9.07-5.51,7.39l-5.97,1.47-.2,2.7c-23.78,17.18-42.62,43.01-48.84,72.03l10.32-13.81,2.75.08c4.95-11.07,12.28-3.34,12.24,5.36-3.84,4.11-5.81,6.91,1.83,5.27l1.51,1.42c-3.17,4.61-5.27,9.58-6.3,14.93-2.46,12.38-4.22,24.85-3.49,37.53-5.16-2.19-9.53-5.63-14.66-8.04-6.72-3.16-27.58-8.02-30.23-9.9s-13.96-15.85-16.38-19.21c-36.69-50.9-30.47-110.23-9.19-166.1,7.81-20.48,26.24-57.79,41.48-73.02,7.04-7.03,18.59-11.72,26.06-18.22,1.67-1.45,4.28-3.32,4.08-5.84h-17.98c-1.23,0-20.51,7.13-23.06,8.35-18.27,8.81-33.37,25.21-47.11,39.75v-18.18c0-2.26,6.22-20.62,7.56-24.03,15.38-38.89,42.95-65.36,80.97-81.17,22.11-9.2,47.01-17.23,70.36-8,2.66-5.46-2.66-9.6-6.4-12.88-30.48-26.74-86.46-17.91-121.16-4.73-1.45-2.01,3.56-10.95,4.85-13.27,11.01-19.74,37.52-38.67,58.93-44.22,8.84-3.36,18.13-4.86,27.43-6.12,1.17-.16,2.35-.28,3.54-.18.1,0-1.35.92-.81-.74-.07-.55.05-.95.6-1.16.57-.11,1.16.06,1.72,0,21.94-.92,44.25.09,66.11,2.35l.02-.05Z"/>
  <path class="st11" d="M341.49,808.61c4.93,2.96,8.83,9.1,13.74,12.89,21.14,16.28,40.27,20.07,66.45,19.64,2.59-.05,5.69-1.69,7.83-1.08.92.26,10.47,11.69,13.03,13.9,25.42,22.16,71.3,29.54,90.81-4.31,1.68-2.92,4.72-12.72,5.64-13.36,3.34-2.32,21.2-6.46,27.04-8.73,16.12-6.25,30.79-15.65,46.97-21.74,32.59,9.9,59.58,40.63,79.28,67.7,3.41,4.68,7.84,10.23,9.48,15.64h-19.14c-17.43,0-44.38,28.46-52.55,43.04-4.25,7.57-5.78,16-10.65,22.64-1.84-11.27-14.59-22.68-18.04-32.8-5.07-14.92-2.15-40.19-11.91-56l-7.17-10.91c-2.61,18.96,3.71,38.74,4.67,58.01,1.72,34.37-1.03,69.58-9.89,102.71-1.9,7.1-14.88,49.27-20.84,50.01-33.08-7.83-72.57-1.35-100.36,18.61.39,1.03,2.67,1.2,3.63,1.13,28.02-1.74,89.46-24.46,108.88,5.89,8.51,13.3-1.14,8.87-8.66,8.79-29.89-.29-59.79,13.26-88.74,19.43-38.73,8.24-68.69,1.48-103.52-16.21-18.49-9.4-34.92-20.82-47.21-37.96,19.53-21.67,31.81-44.82,42.21-72.02,9.65-25.29-15.47-52.84-10.31-78.36,2.91-14.38-24.23-40.5-24.76-56.64"/>
  <path class="st32" d="M262.15,363.6c.95.23,10.8,4.06,11.2,4.55l-.45,3.57c3.38,2.76,4.48,5.75.64,8.88,2.34,2.44,4.19,4.58,5.52,6.41-4.54-8.88,13.45-3.8,14.41,1.23.73,11.16,2.27,22.11,4.64,32.85l3.21,3.8c12.28,53.23,50.85,99.62,104.94,111.44,1.45.62,1.17,2.26-.29,3.25,13.77,3.8,27.94,4.86,42.52,3.16l1.76,6.53c-5.83,1.45-10.93,3.31-15.28,5.56-.06,1.45-21.63,10.77-25.67,13.34-61.21,39.04-88.44,123.31-58.69,191.07,12.06,27.48,45.37,47.55,75.11,40.24,59.73-14.69,60.15-106.6,128.25-116.65,23.89-3.53,49.38,9.05,67.18,24.48,5.13,4.43,36.35,36.45,36.49,40.48.07,2.1-2.04,4.46-3.41,5.95-19.23,21.07-51.18,39.5-76.97,51.2-22.93,10.41-46.66,17.93-71.54,22.09-.1,7.6,11.32,9.17,17.4,9.39-16.34,32.97-55.89,22.89-75.39-1.16,27.78-11.94,50.42-33.33,55.66-64.55-10.61,9.8-18.74,22.06-29.6,31.64-32.49,28.71-79.09,32.72-113.06,4.15-43.7-36.73-54.68-101.32-42.9-155.46-2.92-3.31-11.1,16.53-11.63,18.14-11,33.08-1.83,71.32,10.46,102.69-25.77-22.78-42.72-56.34-46.36-90.95-.52-5,2.13-27.92-8.78-15.87-6.54,7.23-4.62,14.81-15.04,23.49-40.66,33.87-104.97-.48-126.45-42.16-25.13-48.79-12.31-131.82,57.51-114.48,21.32,5.29,42.58,18.74,59.7,32.27,7.43-11.37-10.16-16.82-11.09-26.3-2.2-22.44,3.75-48.66,10.51-69.86-4.15-3.36-18.02,21.58-18.56,25.8.34-1.7-.08-3.55.55-5.87.42-1.55,4.42-7.88,4.09-8.2-2.37-2.26-1.9,3.92-4.62,2.32-6.44-8.69.46-7.94,1.02-11.3.21-1.28-3.34-4.83-2.2-7.47-4.45,1.62-5.03-1.2-8.11,3.53-2.83-.57-1.9-3.11-.68-5.1,11.45-18.77,26.29-38.55,38.52-54.04l-1.87-1.87,6.96-2.36-3.48-4.67c.86-.69,5.08,2.03,5.8,1.17.26-.31-.34-2.6.07-3.77.58-1.68,5.71-5.21,4.5-6.75-.41-.53-4.19,1.14-1.09-4.74-8.72-.81-16.9,2.96-25.52,3.51-.64-2.94,1.17-3.58,3.72-4.28l19.24-2.79c4.49.12,6.5-1.43,6.02-4.66l-1.16-1.17c-3.47-5.63-1.82-7.31,2.32-11.73l-.03.04Z"/>
  <path class="st36" d="M841.86,849.32c23.83-21.28,32.88-68.29,22.9-97.85-23.01-68.13-147.52-211.74-225.06-126.52,88.66,31.77,112.41,129.28,186.65,177.3-37.89,14.99-78.16-71.34-105.91-98.15-77.2-79.97-218.95-140.92-273.97-6.03-13.31,24.21-22.98,50.2-34.61,75.26,51.26-18.34,47.32-83.79,101.3-106.36,153.05-64.52,177.31,251.05,328.69,182.35Z"/>
  <path class="st5" d="M491.8,218.12c3.69,4.06,3.67-1.69,5.22-2.33,3.02-1.26,2.75,1.78,3.46,2.08.46.2,2.13-.61,3.25.13s1.23,3.07,2.64,3.41c.84.2,7.14-.45,8.62-.95-5.35,9.95-7.6,25.14-6.95,36.36,2.38,2.75,10.22-14.96,11.11-16.32,61.17-92.53,161.92,15.53,189.56,82.59,12.32,29.88,17.2,60.18,21.42,92.13,1.67,3.02,5.36-4.77,5.27-5.89,12.33,8.08,5.37,5.62-.59,11.74-1.48,1.53-2.78,3.64-3.85,5.49-1.17,2.05-7.89,16.94-2.57,15.03,3.75-1.35,10.74-7.06,15.24-9.26,61.12-29.74,121.92,10.82,139.35,72.29,17.17,60.58-8.63,130.66-62.18,162.62-.58-.11-.9-.6-1.36-.9-2.03-1.36-12.35-12.79-11.96-14.59.3-1.42,11.32-9.62,13.33-11.72,63.55-66.66,36.59-184.75-63.82-185.73-56.03-.54-80.93,41.98-119.81,70.97-55.64,41.5-112.04,9.85-174.63,21.63-9.37,1.76-18.44,5.27-27.57,7.9,0-.08-1.83-.38-1.16-1.16,1.33-1.55,6.41,1.02,3.46-4.7l-1.16,2.3-4.6,1.22-2.33-7.04c2.12.99,6.8.26,8.4,1.1,2.02,1.08,1.54,4.31,2.1,4.72,1.39,1.02,7.09-2.37,9.22-2.32-3.4-1.97-2.03-5.67-2.32-5.84-.84-.52-4.71,1.07-6.38,1.16-12.12.68-23.6-1.03-35.39-3.54.2-.48,1.16-.95,1.17-1.15l2.1-2.12c56.47,12.94,117.12-19.66,124.28-80l2.38-1.77-2.32-1.31c-.58-4.58-1.18-16.42,2.32-18.63-3.8,3.48-4.11-4.24.75-3.86,1.33.11,16.77,18.09,15.33,21.07-2.28,5.96-6.31,21.34-4.58,26.47.46,1.37,13.65-23.3,14.5-25.05,12.7-29.56,49.33-34.18,54.71,1.57,4.04,26.83-14.42,39.51-35.79,48.65,20.33,4.63,37.61-11.99,44.69-30.05,18.31,3.09,36.12-5.63,48.25-19.38,56.44-63.97,1.53-219.66-83.54-227.08-66.44-5.8-87.87,65.05-82.73,119.51-.49,2.87-2.93,3.88-5.16,2.01-14.73-21.94-32.66-42.45-55.91-55.39-70.32-39.15-141.85,2.82-147.78,81.68l-2.83,1.77c-.21,2.21-.6,5.73-1.16,10.56l-13.92-4.68c1.83,3.46,5.31,5.95,9.28,5.87-1.6,2.28-2.77,4.04-2.33,7.03-8.12-1.68-3.05-3.03-3.47-6.44-.45-3.74-4.65,1.43-5.79.56l-4.64-9.37c.46,2.65-1.8,6.28-1.06,8.59.92,2.92,8.42,2.46,1.62,7.8l-4.05-2.92c1.23,2.91,8.51,10.49,2.32,7.63l-3.48,3.52,2.31-1.74c-5.92-5.6-3.49,1.75-5.22,1.74s-1.51-2.99-.64-4.01c1.13-1.31,3.19-.39,3.54-.67,2.63-2.15-2.99-2.04-2.31-3.5,3.68,1.11,3.31-8.66,2.3-9.41-.56-.41-8.15,4.45,1.17-7.02-4.36.23-5.15-1.76-4.64-5.88,7.1-.49,4.31,3.3,4.63,3.51,1.37.89,5.22-.7,4.64-2.9-.17-.66-2.37-1.88-3-3.54-.48-1.23.85-3.92.68-4.04-1.54-1.1-6.16-2.33-9.27-4.76-1.39-1.09-3.4-3.28-4.64-4.69,3-2.38,7.08-.72,12.24,5,2.63,1.54-2.54-5.13-4.44-7.4-14.12-16.84-33.47-25.73-55.31-25.81l-4.81-2.16c11.31-16.1,30.16-28.57,47.35-38.25,10.24-5.77,34-18.23,44.6-19.57,3.86-.48,4.25.02,5.07,3.44-11.54,16.24-19.8,35.27-17.07,55.77,7.02-28.12,24.72-54.87,50.86-68.13,8.11-4.11,21.18-9.93,29.4-6.14,10.57.66,21.01,1.06,31.32,1.17l2.22-1.24c22.05,4.4,43.12,13.01,63.22,25.86-25.32-33.78-72.89-47.81-113.42-38.55l-4.21-1.3c.49-.93,1.25-1.47,2.23-1.78,2.15-.72,12.8-2.91,14.59-2.91h33.64c2.84,0,13.48,5.48,17.39,5.88l-.56-4.7c4.11,1.23,7.89-1.06,12.17-1.17,2.55-.07,4.72,1.14,7.02,1.1,4.38-.06,22.28-5.76,26.98-7.77,2.27-.96-.03-4.11,6.03-1.56-2.15-2.18-2.4-4.72-3.48-7.03,2.31-.93,4.48.76,6.51,5.07l-.61-11.47,2.23-1.81c.28.66,1.7,1.3,2.09,3.12.85,4.02-.1,9.05,1.4,13.29l1.16-5.85,3.46,4.68c-.45-8.04,8.86-7.1,11.42-11.32,2.76-4.54-.28-11.33,2.51-15.65,1.02.05,2.41.49,2.39,1.29-.14,5.13-.61,10.04-1.23,15.13l-.02.05Z"/>
  <path class="st17" d="M839.76,1096.84c-5.65-2.77-13.66-9.88-16.45-15.63-1.32-2.73-2.86-10.77-4.44-11.93-1.44-1.07-21.14-4.63-25.51-5.88-37.37-10.7-69.05-25.81-98.04-52.17-21.17-19.25-40.53-42.89-55-67.49,0-5.87,23.07-27.71,28.53-30.94,1.32-.79,2.22-1.61,3.85-.8,2.08,1.02,21.5,31.21,25.57,36.4,27.55,35.2,68.26,70.15,114.8,71-1.03,9.35,2.11,21.02,11.59,24.64-.85-6.25-2.81-11.63-2.3-18.16,1.08-13.98,8.68-21.76,6.82-38.6-1.95-17.74-11.33-23.17-18.21-36.72-13.73-27.02,16.3-36.52,30.45-12.03,12.16,21.05.07,63.36,38.05,55.94,26.64-5.21,51.73-31.38,64.11-54.81,4.96-9.41,13.28-37.5,19.66-42.29,11.73-8.81,15.12,13.42,14.38,21.59-2.82,30.81-31.12,47.68-50.89,65.83-19.78,18.15-18.22,40.99,13.05,36.66,20.61-2.85,37.39-20.55,54.55-25.76,12.45-3.78,17.13,4.2,12.98,15.49-5.69,15.49-31.94,23.42-46.67,25.52-13.72,1.96-46.59-1.4-44.26,20.73,1.48,14.15,23.23,18.98,34.68,21.29,9.56,1.92,32.91,1.96,38.17,9.48,5.27,7.52-2.03,14.5-9.09,16.32-23.59,6.08-52.72-23.44-68.76-20.32-15.47,3-6.83,24-1.35,32.5,4.95,7.66,23.28,23.43,24.67,30.3,1.87,9.23-11.32,8.01-16.9,5.24-4.36-2.16-14.24-13.2-17.54-17.46-7.98-10.35-13.79-23.39-21.35-34.16-.99-.67-2.17-.15-3.2-.25l-1.15-.97c-12.09,1.48-23.68.62-34.81-2.55h0Z"/>
  <path class="st43" d="M639.09,627.57c-15.63-8.01-31.81-15.04-48.69-19.96.65-5.55,7.38-6.09,11.01-9.39,5.35-4.86,9.63-15.23,11.04-22.28,27.77,24.74,54.48,9.97,54.5-25.81,7.3.66,12.65,5.81,20.3,5.96,20.32.39,26.6-17.99,27.26-35.29,14.95,12.28,32.08,14.52,44.54-2.45,8.58-11.7,7.2-33.1,4.18-46.82,12.35,1.69,23.64,3.94,34.69,10.07,46.46,25.73,53.4,88.06,26.55,131.08-6.94,11.12-16.61,19.99-24.75,30.14-1.19.31-15.94-14.27-18.56-16.39-26.67-21.63-58.86-35.25-93.77-31.56-16.88,1.78-42.79,15.57-48.3,32.7h.01Z"/>
  <path class="st3" d="M892.78,1253.22c7.88,6.57-1.65,32.29-4.93,40.67-11.88,30.4-33.36,59.87-57.36,81.6-17.15,15.53-18.63,16.35-42.44,15.83-14.12-.32-29.16-3.04-43.4-3.53l19.02-25.92c24.4-35.05,58.57-104.77,104.1-112.92,6.83-1.22,19.54-.29,25.01,4.27h0Z"/>
  <path class="st13" d="M711.01,1241.16c-13.13-.77-26.57,3.12-37.02,11.24-1.65,1.28-10.39,11.34-11.69,9.87-.71-21.63-.95-44.65-5.01-65.91-6.08-31.78-23.36-53.59-57.88-44.03-5.96,1.65-10.54,4.04-15.98,6.69,5.95-21.61,14.54-42.75,31.93-57.44,9.3-7.86,16.28-11.71,28.87-10.59,32.87,2.92,46.57,33.34,55.21,61.57,8.64,28.23,11.1,59,11.59,88.6h-.01Z"/>
  <path class="st10" d="M893.11,1238.79c-41.31-16.13-81.74,28.38-103.7,58.78-28.92,40.02-40.61,70.03-78.38,106.08-14.32,13.67-36.38,25.99-40.62,46.33-15.5-6.72-2.81-24.58,4.62-33.46,12.9-15.43,30.62-27.68,44.07-43.41,36.44-42.61,70.39-130.41,124.67-149.59,17.36-6.14,44.63-7.09,49.34,15.29h0Z"/>
  <path class="st36" d="M699.84,1376.51c-12.45,12.4-28.28,23.79-38.02,38.38-1.52,2.26-2.06,5.78-4.15,6.92-8.79-45.2,14.1-83.38,46.97-111.44-.31,8.31-1.7,16.59-.29,24.92.22,1.33,4.87,18.57,7.82,14.96,2.99-20.23,2.42-45.24,18.55-59.83-.93,9.93-1.64,19.96-1.19,29.96.2,4.61,2.19,9.26,2.26,12.99.2,9.95-24.4,35.62-31.94,43.14h0Z"/>
  <path class="st28" d="M800.32,1400.71c-25.31,21.77-60.29,49.22-93.5,56.17-10.3,2.16-17.07.19-27.12.13,5.46-19.69,26.26-31.09,40.6-43.97,6.11-5.49,11.35-12.07,17.41-17.64,20.75,2.98,41.53,6.37,62.6,5.33h.01Z"/>
  <path class="st1" d="M867.59,1205.96c.08.09.42,2.48-.56,2.31-12.41-3.57-27.51,2.42-38.5,8.04-39.84,20.4-61.01,65.22-84.51,101.11-.88,1.35.29,3.04-2.86,2.32,3.17-16.87,3.4-32.59,10.6-48.51,17.65-39.04,59.83-80.39,105.63-68.46,1.41.36,9.84,2.79,10.2,3.19h0Z"/>
  <path class="st12" d="M711.02,1255.21c-.59,10.99,2.56,21.89.58,32.86-12.93,9.03-26.29,18.92-36.51,31.11-5.08,6.08-8.86,13.26-13.94,19.32.77-9.46,1.9-19.23,2.35-28.7.88-18.37-4.23-27.05,11.01-40.49,9.79-8.63,23.39-14.7,36.51-14.11Z"/>
  <path class="st37" d="M474.39,561.87c12.98-1.53,25.84-2.58,38.92-2.38,4.22.06,20.01.81,22.62,1.62.88.27,1.7.01,2.11,1.41-8.15,55.81-53.98,51.16-63.65-.65Z"/>
  <path class="st9" d="M618.05,1166.24c.58.93.35,3.75.1,5.01-1.03,5.12-8.81,22.54-11.53,28.04-.39.81-2.1.8-2.16.95-.28.7,1.48,2.86,1.01,3.37-.15.15-2.44-.19-4.02,1.2-1.76,1.54-2.13,4.94-3.43,6.57-1.79,2.25-16.02,13.5-17.93,12.11-1.8-3.77-2.73-9.26-3.22-13.57-.39-3.45-.95-7.27-1.3-10.58-.17-1.61,2.78-10.51,3.17-12.79.13-.77-1.53-.48-2.25-.52-.53-1.97,2.26-.53,2.42-1.85.17-1.49-1.76-4.51-1.28-5.16.2-.27,3.77-.55,4.48-1.34.21-.22-1.25-2.51,1-4.6,1.51-1.4,13.26-6.37,14.86-6.49,1.51-.11,3.09,1.48,4.59,1.36,2.38-.19,13.15-5.46,15.51-1.68v-.02Z"/>
  <path class="st24" d="M705.27,486.88c4.85-4.05,37.12-17.28,40.57-14.85,4.08,10.07,7.93,34.49-1.96,41.57-15.46,11.05-40.1-24.57-38.61-26.7h0Z"/>
  <path class="st35" d="M461.63,564.21c1.17,15.74-15.92,55.35-35.55,37.13-3.09-2.86-10.24-17.63-8.04-20.75.96-1.36,25.01-11.05,28.56-12.24,4.89-1.63,10.03-2.89,15.03-4.14Z"/>
  <path class="st7" d="M603.14,560.71c-3.21,8.71-6.24,25.4-15.38,29.6-16.97,7.8-29.61-13.76-35.64-26.68,17.25,1.29,34.04.67,51.02-2.92Z"/>
  <path class="st25" d="M693.03,496.19c1.97,0,4.7,12.28,5.1,14.77,1.02,6.38,2.4,25.83-4.51,29.21-9.79,4.79-25.33-8.05-30.09-16.27l29.5-27.71h0Z"/>
  <path class="st46" d="M781.76,405.82c-4.38.28-8.95-.36-13.33.02-3.09.27-7.04,2.32-9.34,2.22-2.74-.14-8.48-6.59-11.07-8.6-1.96-1.53-7.62-3.68-8.61-5.36-.63-1.06-2.22-18.78-1.61-19.83,20.81-4.43,35.71,14.71,43.95,31.55h0Z"/>
  <g>
    <path class="st26" d="M410.45,1136.58c16.97,19.21,37.01,35.15,56.9,51.12,1.31,13.83-3.57,27.18-7.46,40.23,33.62,25.43,68.04,73.65,42.5,116.1-25.33,42.09-88.29,46.51-132,45.98l19.06,12c42.33,24.92,71.66,93.27,18.07,123.9-85.08,48.64-217.81-89.7-214.46-174.9,2.56-65.11,89.82-39.67,129.59-36.05,32.01,2.91,68.7,3.67,98.44-9.53"/>
    <path class="st26" d="M421.09,1305.44c1.47-1.71-9.45-13.82-12.5-13.81-.82,0-12.06,6.37-14.75,7.37-9.92,3.7-39.77,9.7-48.42,3.72-3.31-2.29-6.43-17.95-8.28-22.74-1.68-4.38-33.15-63.69-40.4-87.81-20.08-66.73,115.85-54.37,113.72-55.6"/>
    <path class="st2" d="M415.29,1163.9c10.94,10.68,23.55,20.94,35.85,29.93-5.28,43.14-34.51,85.94-78.67,93.96-3.25.59-16.59,2.78-18.35.63-.56-.67-2.02-13.6-3.26-17.21-1.73-5.03-6.27-15.08-8.81-19.89-1.19-2.26-7.02-9.13-6.96-10.38.16-3.19,5.97-3.66,8.25-5.15,2.71-1.78,7.03-5,9.2-7.3,4.79-5.06,6.46-10.65,10.89-15.77"/>
    <path class="st15" d="M426.28,1320.25c1.42-.65,2.61-2.65,4.43-3.04l9.35,16.55c14.35-16.05-5.68-39.84-16.99-51.83.06-2.56,11.78-10.76,14.25-13.52,6.11-6.84,11.64-18.17,15.54-26.6,1.76-.95,19.01,18.42,21.18,21.18,57.33,73.15-11.56,107.43-77.77,111.71-4.77.31-24.15,1.1-27.37-.27-12.62-5.38-26.94-28.39-22.13-42.73,25.42-.29,56.04-.81,79.49-11.47h.02Z"/>
    <path class="st36" d="M238.18,1323.78c2.31-2.12,43.15-.29,44.25,1.82-12.94,32.03,12.82,60.58,43.23,67.08-12.19,7.94-26.4,12.85-40.97,10.08l9.75,14.03c22.93,24.87,60.74,22.9,66.91-13.73,21.09,10.44,7.26,36.74-4.92,49.36-4.7,4.87-26.27,23.11-32.12,22.17-3.24-.53-18.16-13.22-21.7-16.35-26.89-23.83-66.89-76.59-68.19-113.79-.16-4.55.74-17.89,3.77-20.68h-.02Z"/>
    <path class="st16" d="M223.74,1326.24c-5.58,14.9-2.92,30.6,1.66,45.3,13.79,44.21,59.2,98.79,100.39,119.47,24.44,12.26,59.81,22.65,85.54,9.7-2.67,7.38-12.69,13.02-19.67,15.74-74.57,29.15-183.07-93.29-182.89-165.19.02-11.06,1.67-23.9,14.97-25.01h0Z"/>
    <path class="st14" d="M379.05,1412.55c16.03,12.3,37.79,31.77,40.62,53.04,1.44,10.79-1.67,16.26-10.3,22.15-22.19,15.15-52.34,4.9-74.34-5.75,27.11-12.51,52.69-36.5,44.03-69.45h-.01Z"/>
    <path class="st39" d="M297.94,1327.09l35.17,3.92c-4.18,12.89,1.59,27.19,8.75,37.89l9.73,11.25c-30.69,1.82-69.02-16.4-53.64-53.06h0Z"/>
    <path class="st20" d="M353.94,1395.72c-6.11,33.69-37.16,38.33-57.99,13.77,13.84,2.05,29.51.33,40.5-9.19,1.95-1.68,3.79-5.95,5.93-6.5,1.36-.34,11.25,1.29,11.56,1.9h0Z"/>
  </g>
  <path class="st24" d="M618.3,554.92c12.35-4.51,22.88-12.58,33.54-20.04,2.19,10.25,1.68,26.71-5.25,35.15-10.32,12.54-31.56-10.56-28.29-15.11h0Z"/>
  <path class="st6" d="M405.96,591.2c-2.98,20.19-4.11,52.16-33.15,41.11-2.16-2.73,9.88-19.93,12.31-22.9,1.77-2.17,18.89-20.33,20.84-18.21h0Z"/>
  <path class="st27" d="M708.68,902.09c1.79,2.12-12.12,16.67-16.21,16.41-.55-5.41-6.09-8.69-5.82-14.07,7.55-2.42,14.38-1.78,22.03-2.36h.01Z"/>
  <path class="st31" d="M321.3,66.78l-66.11-2.35c20.92-2.63,45.33-1.33,66.11,2.35Z"/>
  <path class="st18" d="M839.76,1096.84l14.45,2.39c6.83.21,13.45-.09,20.25-.73,3.02-.28,3.04-1.36,1.24,1.85-12.35-1.17-23.95,2.37-35.96-3.52h.01Z"/>
  <path class="st31" d="M252.87,65.61c.02.18,1.08.55,1.17,1.15-9.95,1.29-21.5,3.34-31.33,5.89,9.04-4.35,20.24-6.63,30.16-7.04Z"/>
  <path class="st34" d="M344.5,241.59c38.74-11.12,86.78,1.91,114.27,31.65,1.66,1.78,9.24,11.04,7.5,12.93-22.62-11.16-44.12-25.76-69.58-29.33-10.39-.19-20.83-.57-31.32-1.17-33.82,3.13-59.16,27.17-72.36,57.62-3.42,7.91-4.91,16.59-8.25,24.51-5.83-14.22-.73-35.93,5.75-49.32,1.04-2.16,10.57-15.69,9.91-16.37-34.93,11.31-68.34,29.56-93.94,56.3,28.98-.96,54.2,12.64,68.42,38.15-5.85,2.36-9.56-3.87-13.51-6.32-1.37-.84-3.18-.87-3.87-1.3-20.59-12.81-43.08-25.47-68.71-14.95-3.76,1.55-10.36,8.97-6.41-1.79,8.83-24.04,50.38-56.27,73.19-66.75,21.84-10.05,37.86-11.29,59.06-17.69,6.72-2.03,19.43-13.13,29.87-16.13v-.02Z"/>
  <path class="st30" d="M468.6,213.43l1.15,21.11-9.27-12.89c-15.38-33.22-50.72-59.48-80.77-78.44-2.27-1.43-6.34-1.29-7.37-3.67,15.22-1.18,29.79,5.08,42.76,12.45,25.13,14.28,42.36,34.75,53.49,61.45h0Z"/>
  <path class="st30" d="M296.94,211.08c-16.47,1.09-32.8,7.1-46.96,15.26-1.76-.9.24-2.83.81-3.87,5.94-10.91,19.82-17.86,31.3-21.13,30.98-8.85,70.4.08,93.72,22.64-17.82-5.21-35.85-11.81-54.51-12.89-8.08.79-16.27.75-24.36,0h0Z"/>
  <path class="st47" d="M414.08,226.33c-1.96,2.42-13.28-13.95-14.48-15.26-19.75-21.69-39.56-38.28-66.46-50.14-1.66-.73-3.18.76-2.56-2.63,35.69,1.49,81.06,29,83.5,68.03Z"/>
  <path class="st42" d="M260.99,376.5c1.48,1.44,5.02,4.13.36,5.64-6.38,2.06-17.48,2.3-25.01,4.07-2.03.48-3.46,1.78-4.35,2.02-10.75,2.87-21.61,5.7-31.76,10.7-10.15,5-19.3,12.85-29.72,17.45-.89-.9,2.68-5.31,3.5-6.42,10.02-13.43,30.53-28.33,46.37-33.46,12.87-4.59,27.92-5.8,40.6,0Z"/>
  <path class="st19" d="M491.8,218.12c-2.47-2.71-.71-12.11-1.16-16.42-2.18-20.98-6-45.03-13.03-64.84-2.8-7.87-7.25-15.81-10.16-23.75,1.16-1.9,2.56.39,3.48,1.17,24.59,20.95,35.85,74.59,20.87,103.84Z"/>
  <path class="st30" d="M244.75,405.83c.74-.33,8.21-2.5,6.95.57-16.19,17.09-28.64,36.98-41.6,56.52-.89,1.35-.9,3.31-1.3,3.91-2.77,4.15-7.35,10.57-10.51,14.32-.51.61-3.6,4.52-4.57,3.26-2.85-3.72,7.97-29.4,10.67-34.36,6.54-12.05,28.22-38.89,40.36-44.23h0Z"/>
  <path class="st5" d="M259.83,375.33c.37.21.79.81,1.16,1.17-12.48-3.91-28.01-4.07-40.6,0,10.24-5.08,29.3-6.82,39.44-1.17Z"/>
  <path class="st23" d="M321.3,211.08c-7.06,1.96-17.29,1.96-24.36,0,7.31-.48,17.03-.42,24.36,0Z"/>
  <path class="st8" d="M294.62,377.68c1.7-5.98,1.62-12.54,2.86-18.81,10.91-55.49,59.54-92.04,115.68-79.39,39.47,8.89,66.8,34.62,88.8,67.34,3.64,5.41,1.46-.83,1.39-2.53-1.73-44.18,9.62-102.38,58.28-115.92,105.11-29.25,181.89,170.69,105.84,234.93-11.18,9.44-27.59,17.36-42.27,12.94-4.8,18.43-25.32,34.3-44.36,31.34-5.96-.93-5.85-3.05-.81-6.02,10.94-6.46,18.99-6.28,27.56-19.05,16.67-24.85-3.87-64.44-31.03-44.29-14.66,10.89-19.72,34.91-32.57,47.41-.38-8.31.23-16.52,1.67-24.7.53-3.09,3.22-7.6,3-9.85-.24-2.5-7.66-8.74-9.8-11.3-1.88-2.25-2.45-6.11-4.73-5.77-1.64.2.57,1.49.57,1.77v19.94c0,15.76-12.54,42.46-23.16,54-23.89,25.93-59.13,35.42-93.38,32.2-4.09-.39-8.08-2.03-12.2-2.32.05-.56,0-.93-.59-1.15-56.59-12.38-95.7-61.46-107.28-117.34-3.83-13.89-4.36-29.12-3.48-43.41v-.02Z"/>
  <path class="st26" d="M240.1,641.64c-18.65-3.73-19.54-38.74-40.03-38.48-13.49.16-17.03,17.01-13.95,27.98,5.36,19.1,23.66,29.35,41.22,34.55-17.22,15.56-44.96-6.02-52.82-22.82-9.7-20.73-3.98-47.03,19.18-54.6-31.81-23.97-56.61-10.98-49.53,30.15,1.33,7.77,5.59,15.17,6.54,21.55s-7.66-.86-9.24-2.41c-6.17-6.04-10.87-22-11.54-30.56-2.73-34.64,18.31-54.15,51.32-41.36,28.49,11.06,56.8,44.72,58.84,75.98h0Z"/>
  <path class="st47" d="M574.15,713.23c1.84,1.96-.27,2.02-1.75,2.29-32.94,5.97-41.37,30.4-58.54,55.18-3.28-27.36,25.35-63.87,53.85-59.76.81.12,6.21,2.04,6.45,2.3h-.01Z"/>
  <path class="st38" d="M294.62,377.68c.51,14.75.45,28.78,3.48,43.41l-1.22.66c-1.97-11.09-3.15-22.22-3.42-33.51-.13-5.07.08-10.18.01-15.24,2.03-.23,1.1,3.31,1.15,4.68Z"/>
  <path class="st32" d="M470.92,538.41c.27.16-1.25,4.11,1.16,5.84-6.66.47-11.02,1.75-17.4-1.15l-1.74,4.69-2.9-3.54,20.88-5.84Z"/>
  <path class="st0" d="M396.69,256.84c-1.21,2.18-4.16,1.06-6.03.84-8.65-.97-17.04-.04-25.28-2.02,9.38-.87,21.94-.14,31.32,1.17Z"/>
  <g>
    <path class="st26" d="M367.52,924.69c112.74,19.28-111.37-17.25-122.95-17.99-20.18-1.28-27.73,2.31-26.14-25.33-42.56-1.5-103.67-6.41-110.3-59.99-2.24-18.11,2.74-60.62,9.58-77.43.8-1.96,1.72-3.79,3.4-5.13-11.39-6.15-18.27-18.4-24.61-29.38-9.88.73-20.22.67-30.09.04-11.4-.73-35.47-2.22-44.54-8.54-12.58-8.78-15.55-25.96-4.29-37.23,14.02-14.02,39.13-2.33,56.22-1.89,2.12.06,12.8-.18,12.98-2.63-16.68-20.23-51.29-26.42-58.91-54.73-3.32-12.33,5.66-25.66,17.17-29.37,24.04-7.74,45.66,27.66,63.21,40.38,1.75,1.27,8.55,6.91,10.31,4.46-1.52-32.06-40.08-53.03-34.24-87.12,3.54-20.67,27.18-25.26,41.92-11.71,25.81,23.71,22.76,57.47,35.79,85.15,1.38,2.92,2.98,5.23,5.23,7.53,11.87-18.6.41-43.11.92-63.61.41-16.42,10.53-37.89,28.9-39.16,25.09-1.74,27.02,35.18,26.73,53.22-.35,21.61-12.14,73.22,1.23,90.1,8.4,10.61,20.61-3.33,28.74-7.94,18.49-10.5,49.48-15.29,63.82,4.35,10.54,14.44,10.06,32.77-4.58,44.12-17.94,13.93-51.05-3.09-69.46,13.42-15.25,13.67-15.84,27.26-39.35,36.2-3.17,1.21-15.05,2.57-15.62,3.14-2.11,2.12-5.9,27.21-6.36,31.95-.2,2.11-.73,6.77.99,8.17,2.04,1.65,28.8,2.12,33.57,2.94,2.83-1.35,1.5-4.68,2.26-7.04,5.01-15.47,14.73-30.6,32.23-31.27,27.79-1.08,96.29,56.7,118.64,73,1.35.99-38.73,14.66-24.36-19.56"/>
    <path class="st11" d="M416.51,946.66c-33.81-16.37-140.96-52.36-178.32-57.35,21.03-36.49,34.26-79.8,16.53-120.53,1.16-1.78,1.95-.72,2.95-.77,10.28-.54,33.8,16.65,43.76,22.14,18.81,10.36,45.36,25.06,56.68,40.42"/>
    <path class="st17" d="M166.3,777.16c-.39,4.89,11.22,43.56,6.43,43.02,3.78-1.23,5.39-13.96,6.55-14.63l63.79,3.11c1.87,1.91-1.17,20.16-1.88,23.79-1.02,5.26-5.59,24.92-8.86,27.62-1.02.84-2.16,1.33-3.47,1.41-54.01-.46-110.28,10.75-108.08-64.58.29-9.93,5.1-43.92,9.46-51.63,3.44-6.09,11.58-4.96,14.5-11.64-21.89-3.67-30.93-19.36-39.89-38.09-20.25-1.23-46.05,1.04-65.62-3.27-16.3-3.59-23.13-19.18-5.58-21.19,17.55-2.01,49.7,13.62,64.42-3.58,10.17-11.9-17.06-30.41-25.59-36.4-10.73-7.56-20.63-10.14-28.57-22.48-4.89-7.61-3.14-19.39,7.46-19.36,19.96.08,45.4,50.25,66.83,46.2,21.31-4.02,9.7-32.86,2.81-45.05-6.6-11.7-31.46-41.5-24.22-55.41,3.85-7.4,10.22-8.42,16.32-3.17,16.54,14.24,23.28,52.66,31.18,73.13,4.87,12.61,14.22,30.53,30.06,19.33,24.42-17.23-7.02-72.74,12.82-92.21,15.46-15.19,17.25,8.07,18.08,19.12,2.13,28.09-10.73,90.77,6.87,112.17,17.63,21.46,35.56-.77,52.56-8.21,15.48-6.78,39.88-7.64,44.45,13.42,5.02,23.12-38.89,16.84-51.35,18.94-35.32,5.97-33.68,36.01-64.85,45.78-4.45,1.4-14.35.99-16.76,2.78-4.62,3.44-9.31,34.02-9.89,41.12v-.02Z"/>
    <path class="st4" d="M230.93,776.06c0,.25-1.77.95-1.25,2.04.26.54,1.91.99,2.46,2.6s3.35,11.38,2.73,11.92c-2.04-1.29-10.58.26-11.09.07-4.4-1.63,1.48-15.69,5.23-18.06.87-.55,1.93,1.11,1.93,1.42h0Z"/>
    <path class="st47" d="M131.35,670.72c1.35-1.81,2.9-.83,4.59-.84,18.17-.16,32.24,11.52,33.32,30.41.59,10.23-5.02,25.61-16.68,25.16,1.35-5.49,4.25-8.59,5.39-14.5,2.55-13.23-3.99-24.79-13.63-33.53-3.99-3.63-9.13-3.3-13-6.7h0Z"/>
  </g>
  <path class="st41" d="M870.85,1018.52c5.1,2.96,6.9,20.26,5.76,25.86-2.73,13.39-20.51,25.62-33.9,23.08-1.6-.31-7.7-3.21-5.28-5.22,2.69-2.23,10.66-2.38,15.47-5.47,12.27-7.86,15.39-24.86,14.7-38.53,1.07.08,2.24-.31,3.25.28h0Z"/>
  <path class="st44" d="M388.76,513.23l-2.51.54c-37.36-17.39-58.77-50.78-70.75-90.34"/>
  <path class="st44" d="M315.5,423.43c-11.02-41.37-9.73-86.95,27.28-114.95,105.59-79.89,250.78,145.07,135.12,207.07-28.28,15.16-58.25,12.19-87.01.56"/>
  <path class="st22" d="M626.34,464.49c6.65-34.62-30.83-63.18-59.55-37.34-8.49,7.64-7.1,15.76-18.13,3.88-38.91-41.89-50.95-164.94,13.62-186.77,90.6-30.63,164.27,154.4,94.11,210.17-8.62,6.85-18.85,11.37-30.06,10.07h.01Z"/>
  <path class="st29" d="M455.62,373.25c42.39-2.75,61.67,83.65,19.31,85.38-28.72,1.17-51.2-55.88-34.64-77.34,4.11-5.33,8.54-7.61,15.33-8.05h0Z"/>
  <path class="st21" d="M615.25,336.05c20.26-4.45,34.55,30.84,35.49,46.86,1.19,20.43-11.64,42.16-32.55,25.88-17.57-13.69-30.34-66.73-2.95-72.75h0Z"/>
  <path class="st40" d="M463.64,410.77c17.41-3.95,20.31,25.74,4.54,24.32-10.8-.97-16.16-21.68-4.54-24.32Z"/>
  <path class="st33" d="M630.69,391.45c-1.61,1.53-6.21,1.85-8.35,1.48-6.38-1.15-8.87-15.59-4.09-19.33,10.68-8.38,19.27,11.39,12.45,17.86h0Z"/>
  <path class="st2" d="M335.1,1240.93c1.84.36-2.74-5.81-12.1-24.8-16.05-32.56-25.01-67.88-10.28-101.57,1.55-3.55,9.68-17.86,13.13-18.43,12.03,8.87,23.7,16.33,36.74,23.48,39.32,21.49,80.29,22.67,123.65,13.28,15.15-3.27,30.05-8.42,44.97-12.58-4.59,4.9-10.09,8.94-14.51,14.05-3.85,4.46-11.41,12.93-9.27,18.78.97-.89,2.02-2.18,3.25-2.62,13.18-4.65,22.05-15.16,34.08-22.98,9.82-6.39,17.1-9.64,27.64-13,6.15-1.95,13.85-9.81,21.46-10.66-6.24,7.02-11.4,16.35-15.28,25.01-13.11,29.32-17.98,62.77-12.56,94.63-5.46-2.52-10.59-5.48-16.28-7.57-24.67-9.03-50.4-11.19-76.49-10.03l20.54-10.27,1.5-2.63c-17.49-1.01-41.44,5.09-55.57,15.93-14.53,11.16-28.76,37.55-36.86,54.22"/>
</svg>