<?xml version="1.0" encoding="UTF-8"?>
<svg id="Layer_1" xmlns="http://www.w3.org/2000/svg" version="1.1" viewBox="0 0 1024 1024">
  <!-- Generator: Adobe Illustrator 29.5.1, SVG Export Plug-In . SVG Version: 2.1.0 Build 141)  -->
  <defs>
    <style>
      .st0 {
        fill: #f7f4e7;
      }

      .st1 {
        fill: #456838;
      }

      .st2 {
        fill: #b76d5b;
      }

      .st3 {
        fill: #466938;
      }

      .st4 {
        fill: #446839;
      }

      .st5 {
        fill: #edc659;
      }

      .st6 {
        fill: #426638;
      }

      .st7 {
        fill: #466939;
      }

      .st8 {
        fill: #5e7d39;
      }

      .st9 {
        fill: #446739;
      }

      .st10 {
        fill: #527337;
      }

      .st11 {
        fill: #476937;
      }

      .st12 {
        fill: #5e7c38;
      }

      .st13 {
        fill: #f0cb5e;
      }

      .st14 {
        fill: #547537;
      }

      .st15 {
        fill: #456737;
      }

      .st16 {
        fill: #67843a;
      }

      .st17 {
        fill: #496c3a;
      }

      .st18 {
        fill: #5b7a38;
      }

      .st19 {
        fill: #3f6337;
      }

      .st20 {
        fill: #416235;
      }

      .st21 {
        fill: #638139;
      }

      .st22 {
        fill: #456839;
      }

      .st23 {
        fill: #3f6237;
      }

      .st24 {
        fill: #5e7d3a;
      }

      .st25 {
        fill: #231f20;
      }

      .st26 {
        fill: #183927;
      }

      .st27 {
        fill: #567637;
      }

      .st28 {
        fill: #6a853a;
      }

      .st29 {
        fill: #4a6d3a;
      }

      .st30 {
        fill: #5f7d39;
      }

      .st31 {
        fill: #577738;
      }

      .st32 {
        fill: #6d883a;
      }

      .st33 {
        fill: #406337;
      }

      .st34 {
        fill: #738d3b;
      }

      .st35 {
        fill: #375832;
      }

      .st36 {
        fill: #476a39;
      }

      .st37 {
        fill: #557638;
      }

      .st38 {
        fill: #3e6237;
      }

      .st39 {
        fill: #f8f7ea;
      }

      .st40 {
        fill: #416537;
      }

      .st41 {
        fill: #466737;
      }

      .st42 {
        fill: #436638;
      }

      .st43 {
        fill: #577737;
      }

      .st44 {
        fill: #426538;
      }

      .st45 {
        fill: #6b873b;
      }

      .st46 {
        fill: #648139;
      }

      .st47 {
        fill: #446738;
      }

      .st48 {
        fill: #466a39;
      }

      .st49 {
        fill: #385b33;
      }

      .st50 {
        fill: #597939;
      }

      .st51 {
        fill: #5f7d38;
      }

      .st52 {
        fill: #345732;
      }

      .st53 {
        fill: #436637;
      }

      .st54 {
        fill: #385a32;
      }

      .st55 {
        fill: #537437;
      }

      .st56 {
        fill: #537337;
      }

      .st57 {
        fill: #193a29;
      }

      .st58 {
        fill: #426537;
      }

      .st59 {
        fill: #537439;
      }

      .st60 {
        fill: #62803a;
      }

      .st61 {
        fill: #193a28;
      }
    </style>
  </defs>
  <path class="st25" d="M896.51,636.97c-90.78-58.85-180.64,27.39-224.69,101.35-17.2,28.88-44.9,100.7-81.41,105.59-26.51,3.55-26.37-20.87-21.95-39.95l34.01-133.99c1.48-1.95,9.14-.64,12.01-.99,17.54-2.11,30.16-9.32,42.03-21.97,1.46-1.56,4.49-6.94,5.5-7.5,2.82-1.56,10.73-1.05,14.24-1.76,61.72-12.41,94.02-85.94,84.2-143.74,20.59-14.62,42.26-27.6,62.87-42.19,5.34-3.78,34.73-24.47,36.16-27.83.98-2.32.68-4.87.28-7.26l-39.62-114.03c17.35-19.95,35.8-38.95,53.37-58.69,17.86-20.07,36.14-40.32,53.43-60.81,4.04-4.79,23.4-23.94,6.65-22.13-4.7.51-17.2,6.53-22.27,8.76-29.92,13.16-59.52,29.61-88.97,44.03-26.73,13.09-57.62,25.12-83.03,39.97-6.43,3.75-12.72,6.29-9.87,15.22l37.61,111.49-.57,2.43c-12.55,10.55-26.37,19.81-39.97,29.06-28.53-45.79-88.85-57.42-136.2-34.21-4.05,1.99-13.11,8.91-16.28,9.75-1.28.34-1.48-.29-1.88-1.22-.53-10.78-4.51-21.52-2.65-32.34l72.82-48.18c7.26-4.51,6.91-13.58,7.66-21.34,1.95-20.19,2.09-40.76,4.02-60.98.8-8.4,2.1-16.92,3.2-25.29v.02c31.35-6.09,63.56-9.27,94.61-16.9,3.8-.93,17.6-3.16,13.72-9.34-1.59-2.52-39.33-16.47-45.29-18.73-25.24-9.57-50.92-18.88-76.48-27.52-7.31-2.47-35.59-13.16-41.06-11.53-4.25,1.27-5.28,9.05-6.22,12.79-11.06,43.74-15.16,89.21-24.71,133.29-28.81,24.31-80.28,42.88-91.5,82.5-10.22,36.08,4.21,78.54,22.91,109.53,1.26,2.09,7.49,9.77,7.67,10.41.51,1.84-2.95,12.19-5.13,12.1-3.78-.15-12.51-4.47-17.67-5.38-16.38-2.91-32.73,1.34-46.38,10.73-2.86,1.96-14.84,13.86-16.18,13.86-32.83-22.42-23.72-59.37-10.67-90.71,30.81-73.95,95.81-163.26,52.7-245.34-43.67-83.13-168.36-70.92-241.51-39.46-6.19,2.66-18.79,10.97-23.76,12.24-3.97,1.01-9.37-.21-13.68.32-14.81,1.81-31.26,15.48-33.38,30.68-.61,4.34,2.22,5.89,1.39,9.23-.77,3.06-6.06,10.24-7.77,14.32-4.44,10.63-6.84,23.15-6.86,34.64-53.11,6.4-67.02,69.28-22.48,99.07,7.04,4.72,14.84,8.02,22.52,11.47-10.04,7.02-18.23,14.71-25.02,24.98-12.64,19.1-16.37,44.07-31.46,61.54-10.02,11.59-22.37,16.15-37.52,16.99-.13,6.27,6.92,8.29,12,9.5,18.73,4.46,36-.82,50-13.51-1.52,14.35-7.95,24.78-17.02,35.47-3.42,4.03-15.27,11.88-3.47,11.59,12.77-.32,28.97-10.49,37.01-20.05,24.23-28.81,10.3-75.05,36.49-101.51,8.06-8.15,7.29-4.74,15.73-1.75,46.5,16.46,100.01,7.24,144.26-11.76.39,1.56-.41,2.35-.95,3.54-20.98,46.67-49.77,88.4-39.6,143.5,6.81,36.9,36.27,71.94,70.55,86.44l-28,24.06h-1.99l-79.49-93.57c-9.89-10.57-10.49-10.39-24.73-6.7-41.67,10.8-92.43,27.83-132.74,43.26-5.02,1.93-28.05,10.66-30.4,13.36-.89,1.02-1.14,4.27-.54,4.99,1.65,1.97,44.32,7.98,50.56,8.94,33.99,5.22,68.2,9.17,102.29,13.71,13.69,14.39,26.49,30.36,39.02,45.98,17.29,21.56,33.8,46.67,52.05,66.95,3.78,4.2,9,11.53,15.22,10.33,3.78-.73,15.41-10.78,19.23-13.83,30.05-24.04,58.49-50.3,88.03-74.97,14.78,32.8,40.94,51.12,77.87,46.87,5.26-.6,10.33-2.51,15.62-2.87,1.54,1.59-8.08,34.95-9.5,40-7.51,26.75-16.93,53.02-23.51,80l-90.65-63.7c-3.17-.16-6.33,2.92-8.82,4.73-17.48,12.76-36.39,32.03-53.54,46.46-2.26,1.9-6.47,8.05-9.24,7.37-42.98-35.55-84.1-73.24-125.25-110.86-8.77-6.9-18.52,6.41-24.53,12.48-25.47,25.74-51.12,53.66-75.49,80.51-6.2,6.84-33.23,34.98-35.01,41-.99,3.33-1.03,4.72,2.83,4.67,8.19-.11,39.4-13.11,48.95-16.9,24.24-9.61,48.06-20.53,71.11-32.65l128.36,132.71c4.11.94,8.05-.99,11.2-3.4l69.54-60.49,2.81-.8,94.23,65.87c48.21,69.1,141.06,52.18,189.47-7.52,42.85-52.84,60.55-148.76,120.35-183.65,46.78-27.29,93.69,3.73,89.66,56.66-4.76,62.61-66.95,104.53-118.31,128.69-6.29,2.96-40.11,12.07-22.36,20.01,34.86,15.59,108.8-20.01,136.7-42.67,68.33-55.51,97.09-168.71,12.51-223.54ZM685,540.2c6.45,0,6.43,10,0,10s-6.43-10,0-10ZM630.59,448.76c5.16-3.45,12.28-4.99,18.41-4.56,2.7.19,5,2.14,5,5,0,.68-.17,1.37-.46,2.01.23.29.46.59.67.92,2.98,4.72.61,10.71-3.87,13.46-5.84,3.59-15.09,1.83-20.58-1.66-2.62-1.67-4.5-4.26-4.39-7.46.11-3.36,2.59-5.95,5.23-7.71Z"/>
  <path class="st45" d="M349,105l2.08,1.58c5.53,30.38,49.55,43.12,65.92,15.42,16.44,7.71,31.46,24.14,40,40,1.79,3.08-2.89,2.86-3.33-.58-34.07-4.28-24.61,46.45-8.24,61.14l-.43,2.44c.45.76.75,1.75.19,2.32-.72.75-10.75-.43-10.47-3.21-7.46,2.4-8.35,3.95-2.68,4.65,2,.11-1.29,14.75-1.83,15.36-1.12,1.29-2.25,2.22-3.81,2.99-6.34.2-7.75,1.66-2.91,6.8l-.57,4.24c2.59,3.73,2.94,5.8-1.17,8.53,1.41,2.48,1.82,4.72,1.22,6.72,3.45,4.59-3.01,9.7-6.59,4.42-3.54,3.2-5.61,5.48-1.81,9.33-2,5.95-1.24,7.28,2.26,4,5.22-.15,5.27,2.6.16,8.27,3.35,2.05,2.42,9.68-1.09,11.33,1.6,4.74-2.08,10.13-5.41,13.01-.39,2.9.16,4.04,1.65,3.41.19-2.57,2.32-3.57,4.6-2.37,3.54,1.88.3,18.63-6.63,13.38-3.27,4.73-12.26,11.34-9.32,1.29l-1.8-.48c-1.36,4.13-5.67-.09-2-2-2.62-.92-4.95-1.25-7-1,1.32,1.43,1.05,2.22.11,3.54,11.18-.51.7,19.13-1.9,5.73-.58,1.18-1.65,1.76-3.21,1.73-.12,3.4-2.31,4.87-2,1,2.37-5.61,4.74-11.35,7-17,1.34-.09,2.01-1.42,2-4,6.21-15.81,10.1-29.64,17.52-44.98,7.88-16.29,13.89-34.3.89-49.94-13.94-16.77-38.52-16.02-57.41-9.1,4.33-18.67-3.88-45.46-20.7-55.79-47.17-28.99-85.19,33.64-68.48,75.48,5.32,13.33,21.82,26,36.64,25.33,29.9-1.35,39-37.16,67.06-40,40.27-4.09,51.94,23.74,30.3,55.3-24.08,35.12-109.88,66.42-151.27,68.73-15.43.86-53.25-.07-65.97-9-.79-.56.29-1.75-.46-2.59-1.07-1.19-3.21-.89-3.12-2.45,21.24,1.59,44.22.77,65.35-2.15,38.57-5.33,77.41-20.12,106.17-46.83,8.13-7.55,11.56-18.37,25.46-10.03.4-9.24-13.94-14.17-21.51-14.07-3.84.05-13.13,1.25-13.48,6.06,17.87-3,12.7,2.62,3.52,11.03-48.79,44.73-156.62,64.58-214.45,30.39-40.66-24.04-31.66-77.47,15.87-83.39,3.57,14.22,13.73,24.78,28.05,27.98-4.07,4.31-13.42,1.35-18.8.25-1.12-.23-2.55.71-3.03.51-.24-.1-1.89-4.36-4.16-2.27,16.31,18.03,47.62,2.49,58.16-14.83,11.64-19.11,14.82-44.23,5.69-65.02-8.02-18.26-24.26-23.06-42.35-15.61-1.02.42-2.14,1.53-2.51-.55-.27-1.5,6.35-9.54,7.99-10.99,9.94-8.74,20.95-10.25,33.01-5.49,4.14-2.88,10.85,2.96,13.13,7.05-2.36-4.84-5.49-8.96-9.13-12.05,41.49-22.63,91.56-35.04,139-33l.03.03Z"/>
  <path class="st21" d="M938,730c-19.29,6.83-32.72,42.82-12.2,54.91l1.2,2.09c-21.39,49.2-62.38,82.55-112.48,100.02-16.85,5.88-34.52,10.55-52.52,9.97,5.78-4.91,14.5-6.85,21.36-10.13,50.67-24.23,109.18-68.44,114.63-129.37,4.99-55.86-40.52-97.15-94.68-73.68-42.73,18.52-65.75,64.8-85.31,104.19l-2.35,2.27c-20.64,2.29-36.89,14.7-45.21,33.07l-2.44.66-.45,1.32c-5.81-1.57-9.25.05-1.19,2.26l.64,1.42,1.64,2.13c-1.88,10.74-.89,22.82,8.09,30.16l.27,2.71c-13.35,18.37-27.83,33.84-48,45-.48-4.23-1.6-5.81-3.38-4.75-7.92-2.81-1.89-6.57,3.26-9.21,2.15-3.56,4.47-6.91,6.98-10.03-2.59-2.77-1.55-6.8,1.28-9-5.37,2.73-4.76-3.99-4.56-3.6,1.65,3.11-13.5,4.1-8.45-4.77,3.94-1.87-.71-3.58-3.63-.77-2.54-1.9-4.88-1.88-7.02.07-5.08-2.02-6.32-1.6-3.73,1.26-.39,2.41-4.27,5.79-6.76,6.73,1.4,1.97,3.04,3.76,4.92,5.38,1.04,5.55-11.18,6.26-11.93.54-3.25.02-4.87-1.16-6.4-3.81-.27,2.31-.8,5.37-3.59,4.96l-2.03,1.01-11.53-5.77-.44-2.24c-3.7-3.14,5.77-7.24,3.16-4.61-5.99,6.02-10.23-9.85-5.58-14l-3.85-1.76c-.75,3.49-7.51,9.83-10.02,5.99,2.78-6.56,1.02-9.75-3.29-14.98-.58-1.3-.72-3.6-.44-2.3,2.2,10.1,1.56,18.3-8.92,7.93l-1.74,2.26c2.05,5.04-6.13,11.85-7.87,5.15l-2.87-.47c-4.96,3.66-19.45-.13-11.59-5.76l-.09-2.43,6.1-9.02.13-2.1c12.63-2.65,18.4-26.89,10.01-34.83-10.94-10.35-23.48,14.39-20.02,23.87l-2.13,1.06c.17,2.34.65,4.7,1.45,7.06-.49.29-.92.61-1.13,1.04-.18.37-4.31,3.8-6.08,1.87-.85-.92.3-6.19.71-6.35,2.78-1.05-2.25,4.3-3.62,5.39,3.46,1.56,4.69,3.81,3.67,6.76,3.69-.06,5.57,1.18,5.62,3.73,6.46.1,3.12,11.48-1.88,11.3-.74,3.86-2.2,7.58-6.2,8.95.44,3.77-1.67,4.78-4.63,6.02,2.38,3.34-2.25,6.87-4.9,4.23-18.1-31.56-9.3-76.92,0-110,3.21-.66,11.9,1.66,12.59,5.29-.58,3.63-.16,6.36,2.54,3.17,2.34-2.77,4.12-4.7,7.19-1.25l2.14-1.24c1.02-3.92,2.96-6.13,5.82-6.63-8.42-7.85-.6-17.52,8.16-9.6,1.63-7.93,6.97-1.32,8.25,3.55,6.34-3.28,6.99,1.46,5.38,6.55.96,2.37,3.19,6.72,4.7,3.98-2.62-6.85,1.64-7.04,6.32-2.95,2.73-1.41,5.04-1.7,6.92-.87-5.93,23.36-24.05,79.37,12.76,84.74,46.63,6.8,75.33-62.31,93.24-94.74l2.35-1.02c31.36,13.38,70.6-44.43,55.38-68.59-3.9-2.75-5.14-5.21-3.72-7.38,19.66-19.92,35.11-31.41,61-42,2.09-.13,3.43,1.74,4.02,5.62l2.79.21c16.02,16.74,49.93,5.65,58.18-14.82,50.12,7.92,83.43,49.02,86,99v-.02Z"/>
  <path class="st14" d="M593,202c4.41-23.99,8.67-47.94,13.74-71.76.37-1.73.28-3.5.26-5.25l135.99,48-93.77,16.25c-6.32,34.85-6.01,70.63-10.75,105.75l-3.55,3.45-74.39,49.61-2.63,7.45,5.54,39.56c-17.46,17.51-36.58,34.73-46.47,57.94-.47.43-1.38.13-2.07-.63-1.43-1.57-5.04-8.82-6.44-11.35-15.09-27.36-26.66-62.9-18.48-94.02,2.99-1.7,3.64.85,1.95,7.66,28.59,10.86,45.03-32.02,41.7-54.38l1.35-2.28c12.54-8.81,31.11-18.96,41.93-28.57,1.27-1.13,3.29-3.01,4.07-4.43,2.99-2.5,10.12.39,12.8,2.92,20.78-10.13,23.61-32.12,22.47-53.09-.33-6.03-4.07-9.19-9.06-13.13.16-5.74-8.31-10.92-10.16-4.1-.56,3.49-3.23,11.26-4.04,4.4h.01Z"/>
  <path class="st56" d="M421,751c.2,3.14-1.95,3.29-6.44.43-11.88,35.88,29.97,59.43,57.44,38.57,1.27,1.02,6.32,2.69,6.89,4.65-3.95,22.84-4.19,47.66-.65,70.61.26,1.68,1.15,3.19,1.76,4.73l-17.31-11.18c-18.64-13.09-36.63-27.92-55.77-40.23-3.38-2.17-11.87-7.93-15.32-7.58-4.9.5-9.26,8.63-13.59,11-2.99,1.67-2.94-1.85-.61-3.83-6.32-12.38-24.45-6.91-34.5-1.76-15.04,7.7-26.31,34.77-17.96,50.51l-.92,2.08c-3.52,2.95-6.95,6.04-10.5,8.96-21.07-20.12-40.48-41.83-60.5-62.96-.73-2.17-3.03-4.98-6.9-8.44-2.33-2.17-1.16-4.27,3.53-6.31-2.13-3.76-1.09-7.28,3.27-8.23-7.04,4.49-9.87,3.07-8.49-4.25-10.6,5.37-14.69-2.29-5.01-8.78-6.49-2.12-15.13-10.59-3.72-10.88.49-4.04,2.52-3.07,5.31-1.11l3.32-.1c12.92,10.07,26.29,8.49,40.79,3.52,1.67-3.93,3.63-5.41,5.89-4.43,8.25,7.09,18,16.83,26.5,22.99,1.04.75,2.51,2.12,3.85,1.86l69.58-61.43,30.06,21.58h0Z"/>
  <path class="st46" d="M757,404c3.53-2.59,20.45-14.74,21.5-17.02.51-1.11.74-2.13.48-3.35-13.15-38.25-26.22-76.56-37.93-115.27l.44-3.35,178.51-88c-11.79,14.78-25.73,27.99-38.51,41.98-16.88,18.46-33.18,37.48-49.97,56.03-5.75,6.35-16.04,14.73-20.52,21.48-1.14,1.72-2,3.63-1.77,5.75,2.44,7.65,5.18,15.16,7.77,22.76-11.66,13.84-17.71,31.99-11.09,49.82l-.91,3.18c.18,1.58.85,2.58,2,3,.92.24.9.57,0,1,1.27,3.42,2.01,6.65,2.22,9.69-3.11,1.31-5.92,3.29-8.44,5.93-2.46-.91-4.37.32-5.75,3.69-3.57.56-5.12,2.04-4.66,4.44-3.7,1.6-3.57,2.52-.57,5.46-4.08.67.19-3.44,3.63-.43,5.87,5.13-7.2,18.12-10.02,6.84-1.11,1.3-1.93,2.12-3.89,1.84,2.07,4.87-2.92,7.59-6.15,3.87-3.58,1.09-5.57,2.96-5.97,5.62-2.05-6.79,14.05-4.94,7.6,2.06l-1.01,2.21c-6.99,1.57-13.84,4.29-19.68,8.48l-2.31-.7c-4.03-.53-2.21-5.44,1.21-6.48-.37-2.68.15-4.36,2.94-4.95-2.87-2.47-1.13-5.97,2.47-5.08,1.61-2.58.91-4.89-.99-7.29,2.42-2.65,1.92-5.59-1.51-8.83.98-2.13,1.27-3.59.88-4.37h0Z"/>
  <path class="st18" d="M688,388l-.89,22.77c3,7.44,3.82,15.23,4.53,22.54,2.42-1.9,5.88-3.5,5.36.68l-24.52,16.05c-1.88.27-1.75-2.07-3.51-3.5-14.72-11.98-33.83-9.38-49.28-.35-4.09,2.39-7.47,5.89-11.69,7.81-2.8-.15-2.43-3.06-1.05-5.03-20.58-21.51-47.68-2.46-55.02,21.18-1.08,3.49-2.44,12.62.84,13.92,3.45,7.46,13.86,9.36,21.76,7.61.84.52,1.31,1.31,1.48,2.32-3.05,5.11-7.18,11.89-9.04,17.46-2.08,6.21-1.64,12.36-3.46,18.53-3.87-4.08-5.65-9.35-9.09-13.91-10.86-14.41-24.54-26.48-39.33-36.69,11.54-31.59,31.42-57.91,57.92-78.4l2.23-.47c17.27,20.81,69.2,8.42,62.26-22.23l1.51-2.3c15.73-.15,35.41,4.02,49,12h0Z"/>
  <path class="st31" d="M593,487c4.09,3.65,9.01,6.48,14.75,8.49l2.31,3.27c9.51,3.31,18.81,3.67,27.9,1.08,1.07-2.82,2.54-5.39,4.04-7.84,26.19,34.17,42.34,93.51,19,133l-2.49,1.29c-8.6-3.13-16.01-.34-22.76,5.31-2.27,1.9-17.03,16.92-17.35,18.14,1.3,2.42,1.83,4.84,1.61,7.26-22.65,4.07-43.34-2.83-58.98-19.5l42.5-35.49c2.46-.92.44,3.73.2,4.21-2.07,4.1-5.95,4.61-1.22,8.78,5.65-6.09,10.2-14.02,12.51-22l2.31-1.6c45.51,1.43,26.28-80.38-14.96-57.05l-2.35-.35c-5.22-10.03-11.87-20.01-21.98-25.5,4.65-5.57,7.57-12.46,11.54-18.45,1.01-1.53,2.98-2.39,3.44-3.05h-.02Z"/>
  <path class="st60" d="M255,536c-9.38,12.74-7.57,34.03,2.06,46.9l-.06,3.1c-.53,4.34.8,5.67,4,4l2.74-.28c4.62,3.97,10.29,6.11,16.38,6.24l1.87,2.04c2.45.39,3.81,1.74,4.08,4.04,6.47-.35,8.53,6.98,1.33,6.51.41,8.37-9.95,7.22-6.64-1.74-1.5-9.9-3.02-2.38-1.36,2.87l-.93,1.62c8.12,7.38-1.21,11.25-8.49,11.7-.93,2.67-1.85,2.49-3,0-.68.34-1.43.51-2.15.19-2.15-.95.5-2.3-.22-.8-1.09,2.26-6.43,4.01-8.63,2.61-13.89-17.49-28.13-34.85-42.71-51.79-37.58-3.64-75.02-9.61-112.52-14.48l-19.77-4.23c49.33-16.28,98.34-34.06,148.69-47.22,2.46-.02,4.26,2.1,5.83,3.71,7.08,7.27,13.07,17.41,19.48,25.02h.02Z"/>
  <path class="st50" d="M253,815c-17.83-18.82-34.99-38.88-53.46-57.04-4.91-4.83-10.79-9.81-16.09-13.97-5.7-.95-12.46,5.92-17.43,8.53-27.53,14.44-57.02,25.37-86.02,36.47l108.64-113.92,47.89,42.9c2.51,2.3,1.32,1.51-.53,3.02l.47,1.34c-6.75,8.44-9.26,15.99-5.81,27.05l-1.66,1.61c-.73,3.09.6,9.08,5,10,2.55-1.61,8.15,3.21,7,6-4.95-2.57-1.8,1.91-4.62,2.88-1.25.43-3,.02-4.37.12-.62,4.23,9.15,7.02,9.99,8.01,1.58,1.88-8.02,6.04-5.99,8.97,1.88,2.71,9.88-2.82,11-1.98l-.99,7.99c2.32.4,2.81-2.16,4.7-2.8,1.42-.48,3.58.11,4.29-.22.14-.06-1.35-2.27.51-2.97,7.36,11.81-7.78,2.43-4.5,12,7.98-2.45-1.98,4.59-5,5.51-.31,1.53,4.86,5.73,6.01,6.97.75.81,3.35,2.67.99,3.52h-.02Z"/>
  <path class="st43" d="M568,538l1.13,1.87c-3.11,8.88,12.65,13.54,19.28,15.43,3.83,1.38,5.98,4.29,5.52,8.33l5.31,4.08c.69,2.69,2.28,3.79,4.76,3.29.6,3.39,2.38,13.57,1.83,16.26-.6,2.96-6.38,6.48-8.83,8.74-3.1,1.16-3.12-.44-.06-4.8-3.48-.3-5.69-1.61-6.96-4.98-22.95-6.33-35.09,21.7-34.12,40.86l-1.87,2.92c-17,11.63-31.37,19.98-52,24-4.25.7-4.2-1.11-2.33-4.3-11.51-8.49-25.68-14.84-39.91-8.84-3.01-.44-5.59-.06-7.75,1.15-2.63-2.14-4.98-3.2-7.51-5.99-8.74-9.64-14.01-24.16-15.49-37.01,14.24-.1,27.97,1.55,42-2-.33,2.77-.21,3.04,1.88,4.69,10.37,22.26,36.78,21.88,53.12,6.21,7.68-1.71,10.71-12.94,11.99-19.99,1.63-8.98,1.37-14.79-3.3-22.89l1.31-2.02c10.78-7.72,21.24-16.9,32-25h0Z"/>
  <path class="st34" d="M359,382c-13.22,39.54-32.23,79.46-16.48,121.98.65,1.74,7.1,9.53,2.48,9.02-.92.89-1.97,1.85-3.29,2.06-10.64,1.7-27.9-2.15-37.38-7.6-1.66,2.07-3.86,1.5-5.33-.46-8.7-20.87-10.3-38.96-6.74-61.24.68-4.29,2.42-9.56,3.74-13.76,4.08,3.27,4.08,2.94,0-1,.05-3.04,3.74-13.95,4.96-17.54,5.25-15.4,12.94-29.95,20.04-44.46l1.65-.37c10.4,8.43,21.7,12.35,33.9,11.76l2.45,1.6h0Z"/>
  <path class="st16" d="M397,337c1.09,1.31-1.23,2.42,2,2,2.23,2.81.64,9.49-2.76,11.47,4.3,3.44,5.4,7.06.25,10.54,1.31,2.67.78,4.65-2.29,4.74.98,4.05-.2,8-5,7.61-.78,1.8-2.42,2.82-4.93,3.03,1.28,4.51-.52,9.04-5.12,5.24-.62-.09-1.13,2.54-1.03,2.64,5.34,1,3.91,5.43,2.12,9.17l1.76,1.57.7,2.62c-7.92,12.89-11.68,33.3.14,44.98,3.61,3.57,6,5.58,10.16,3.39.74,8.51.46,16.73,3,25-.29,1.38-.66,2.8-1.12,4.25-9.53,9.17-7.99,23.3-2.82,34.38l-1.06,2.37-.29,2.13c2.36,3.15,3.64,6.85,3.86,11.09,4.5-.18,7.19,8.26,4.47,11.18,1.88,2.9.23,5.31-2.38,7.07,2.26,7.87-3.15,6.47-7.49,2.53h-2.17c-67.57-49.81-39.76-113.66-13-177,.89-1.07,1.72-1.78,3.01-1.61.28-5.37,2.72-11.88,5.99-15.39.55-1.61,1.22-3.27,2-5,.13-.98,1.43-2.52,1.01-4,4.28-.22,5.53,2.23,4,6,3.5-1.38,3.2-4.77,2.99-7.99l-4.99.99c-.76-3.06.87-4.07,1.99-6,1.78-.42,4.12-.08,7,1h0Z"/>
  <path class="st37" d="M367,581c-.1,1.69-1.35,2.65-3.76,2.88,3.17,4.77.79,7.69-2.92,11.09-3.56,13.28-5.65,27.61,1.92,39.92,5.87,2.76,8.57,9.3,6.76,15.11-17.95,15.27-36.47,29.95-54.71,44.89-2.3.62-10.38-8.22-12.32-10.36-3.11-3.44-5.98-7.83-8.97-11.53-.27-.51-.47-1.01-.39-1.46.83-4.7,9.43,7.09,10.1,8.78,5.53.2,6-2.93,1.43-9.38,3.04-8.02,2.58-11.22-.14-19.19-6.34-18.61-13.6-22.46-32.8-26.61l-1.2-2.14,10.02-5.53c-.04-2.72-3.72-5.01-3.8-5.97-.1-1.21,2.18-2.37,1.31-3.53-.79-1.04-8.6-3.91-5.53.01-7.2-.94-3.58-4.06-.99-7.99,7.58,10.9,4.82,1.99,6.92.44,3.3-2.44,4.58,3.45,4.83,6.32.13,1.46-1.16,4.85-.77,5.24.63.62,4.04-.51,3.98-1.49-.07-1.12-4.81-5.51,4.01-3.5.74-4.19-5.54-2.55-5.98-3.02-.3-.32.29-2.29-.04-3.21-.4-1.09-2.58-.74-1.97-2.77l1.31-2.04,12.7-1.58c-.13-3.71,1.22-7.41,5-4.38,2.39,2.84,5.56,5.66,7.98,8.52,2.89,3.41,10.18,15.87,14.45,15.51,5.29-.45,31.11-30.84,39.33-33.83,1.48-.33,2.87.46,4.25.8h-.01Z"/>
  <path class="st27" d="M537,550c-3.55-1.45-1.95-8.91,2.39-7.89,1.65,2.74,4.05-1.93,3.71-2.4-2-2.79-25.6-4.96-29.68.55l-11.1,2.18-5.32,4.56c-17.83-20.44-37.79-35.71-61.99-48.02-.36-1.5.21-1.6,1.05-2.43,1.31-1.3,6.56-5.12,8.47-6.53,38.68-28.5,79.87.81,103.45,33.49,1.63,2.26,7.44,10.6,6.89,12.77s-14.9,11.42-17.87,13.71h0Z"/>
  <path class="st59" d="M720,600c-13.83,14.27-30.96,25.8-51,28.99,7.62-11.31,11.09-28.97,11.99-42.5.26-3.91-.73-20.66.22-22.29.28-.48,2.47-1,3.36-2.11,4.37-5.39,8.35-11.3,11.2-17.82,1.16-2.66,1.2-6.1,2.45-8.55s21.62-16.61,25.64-19.36c8.32-5.68,17.17-10.89,25.66-16.35,2.11-.29,1.25.16,1.45,1.49,2.05,13.45.7,27.22-1.98,40.49l-1.55,2.66c-24.81-4.49-45.11,35.42-30.43,53.94,1.96-1.69,3.85-1.17,2.99,1.4h0Z"/>
  <path class="st5" d="M340.01,230c5.61-10.25-.46-38.68-15.79-35.35-16.78,3.65-18.28,32.45-11.42,45.05l9.19,8.79c-22.3,23.56-51.43,3.68-53.04-24.94-.97-17.17,6.74-39.83,22.38-48.71,25.99-14.76,51.64,4.38,54.54,31.79.8,7.58,1.26,18.87-5.87,23.38h.01Z"/>
  <path class="st30" d="M399,339c.26-.56,1.74-1.27,2.38-2.13.67-.9.37-2.71,1.12-2.9,2.14-.53,3.33.28,2.52,2.52-.1.28-1.44.37-1.64.82-.84,1.82-.7,3.91-2.38,5.67,1.5,1.49,8.02-6.99,8.58-7,1.38-.02,3.54,1.6,5.41,1.02-1.22-3.8,4.54-10.85-.99-11.01.96,3.99-2.02,2.53-3.46,3.94-.28.27.29,3-1.04,3.04-1.82.05-.29-10.31-1.49-11.98,4.32,2.26,2.33.07,3.99-2.29,4.47-6.33,1.51-4.17,1.96-9.13.08-.93,2.06-.83,2.54-1.52.18-.27.6-6.12.56-6.45-.06-.48-3.9-.27-.74-5.32.47-.75,2.19-.9,2.68-1.8.83-1.55-1.39-2.05-1.98-1.47-.17.16.37,1.77-.61,1.96-.3.06-4.65-.51-4.93-.94-.96-1.79,1.32-5.83,1.24-6.54-.13-1.25-2.81-1.96-2.55-3.79.3-2.16,4.67-9.75,7.66-7.42,2.26,1.76.29,4.67,5.18-.79-3.08-.94-5.67-.25-4.99-4.49l3.98,1.99-2.99-7.98,4.03-1.56c.3-2.03-1.83-3.32-2.06-5.03-.21-1.6.87-3.23.75-4.01-.15-1.05-2.46-.96-2.76-2.11-.22-.83-.24-7.98.03-8.3,1.75-2.05,2,1.68,2.13,1.78.21.16,4.03-1.16,5.36.23l-.5-2.01h3.02c-3.2-4.18,5.1-9.93,0-10.02-.46-1.63,1.34-.68,1.72-1.17,3.16-4.12-3.98-2.31-4.73-2.83,1.01-1.15.08-3.16.34-3.78.83-1.97,12.17-5.72,12.65-5.21,1.88,1.99-4.09,2.15-1.98,3.99.68.59,3.41-.97,4.43-1.04.54-.04.39,3.84,3.57,1.05,2.25-.36,4.72.76,7.42,3.35,4.33.43,8.12,1.59,11.36,3.47,4.49-2.84,7.49-2.97,6.22,3.18-1.29,4.93-1.96,9.93-2,15-1.29,6.39-3.31,12.71-5,19-1.66.63-2.78-.26-3.35-2.65-9.51,3.5-17.71,10.36-24.34,17.91l-2.31-.25c-1.76.58-2.42,1.91-2,4,1.88,2.28.77,3.74-2,3-5.03,4.68-5.36,7.39-6,14,2.01,1.93,1.78,2.76-1,3-2.78,4.17-2.56,8.19-2,13l1.96,1.76c-.23,7.66,1.85,15.33,8.63,19.64l.42,2.6c-5.64,12.34-11.52,24.58-17,37l-2.04,1.17c-10.35-3.92-21.41,4.17-27.64,12.01l-2.31-.18-6.58,1.92-1.44,4.07c-1.48-1.36-4.68-1.44-3.98-4l2.98,1,.49-5.01c3.05-2.62.57,1.7.5,2.5,2.65,1.77,6.15-5.59,5.96-8.01-.94-2.46-3.56-.09-3.93-.48-.33-.35.31-8.94,3.5-8.02,5.61,6.94,1.94-2.83,2.91-4.03s3.16-.51,4.32-1.22c.61-.38.54-1.91,1.87-2.44.96-.39,3.24,1.47,3.88-2.15.46-2.59-2.55-7.16,3.51-5.13.45-1.91-6.12-1.73-4-3.98.83-.88,4.4.44,5.57-2.95,1.36-3.93-.61-2.54-2.01-4.13-3.28-3.72.77-4.29,1.34-5.74.81-2.06,1.27-6.43,2.09-8.21h0Z"/>
  <path class="st8" d="M757,404c3.8-.51.37,1.75,1.13,4.27,1.02,3.42,6.56,3.69.88,8.72,5.44,2.39,3.52-.58,4.01-.97,2.24-1.8,1.76,4.95,5.98,4.48-.76.56-1.65,2.18-2.47,2.26-2.35.22-4.1-5.54-5.52-3.74-.25.32.83,2.08.65,3.35s-2,2.39-.66,4.64l-5-.98c-.36.29,5.74,5.99,3.99,7.99-1.43,1.63-2.81-3.92-4.99-1.99-.44.39,1.42,3.59,1,3.98-.69.64-5.39-.67-4.01,5.01l.69,2.12c-10.88,11.6-17.91,28.28-12.59,44.1l-1.1,2.77c-1.48,4.57-5.18.79-5.98-2.68-2.77,3.73-5.59,4.44-9.58,1.94-1.78,3.63-5.79,3.97-5.92-.33-.55,1.24-1.48,2.31-2.8,3.21-1.1,11.9-11.62.12-6.09-6.16,8.54-3.84,8.94-6.13,1.18-6.86-1.8-5.78-5.12-7.01-9.97-3.71-1.5,3.87-4.63,4.41-9.37,1.61-1.29,3.48-2.82,7.14-6.89,7.85.95,2.33-4.21,6.18-6.27,6.51-6.85,1.09-7.12-3.12-6.86-8.53.5,7.6-11.75,3.57-10.35-2.64,1.57-2.18,2.53-4.51,2.88-6.99,7.66-2.75,9.61-4.74,5.87-5.95l-19.36,12.84c-1.2.68-2.45.98-3.49-.11-1.96-.45.49-2.03,1.06-2.44,36.17-25.17,74.42-47.44,109.94-73.56h0Z"/>
  <path class="st12" d="M391,512l2.42.24c9.35,15.3,33.73,24.99,44.59,6.49,2.1-2.48,3.58-4.2,6.99-2.73,17.95,10.5,26.9,17.38,41,33v1.57c-13.59,2.26-28.36,9.86-33.43,24.51l-2.57.93c-22.99-6.28-43.85-15.89-63-30,.24-5.9,6.56,4.17,8.51,1,.14-.22-1.33-4.83-1.52-5.01-.4-.39-2.09.81-2.73.79-4.09-.13-1.55-4.67,1.22-4.79.81,7.59,9.05.81,3.51-1.48,1.85-1.97,4.48-3.13,1.02-4.51-.88,4.45-2.81,3.28-5.02.5,1.49-.83,5.45-1.45,4.99-3.98s-3.82-.4-3.97-.53c-2.21-1.8,2.69-6.8-4.02-5-.36-1.6,1.37-.42,1.95-1.73.43-.97.9-3.84.14-4.8-1.78-2.25-5.98.44-6.08-1.96-.09-2.14,2.94-.54,3.33-.55.76-.01.66-2.71,2.65-1.95h.02Z"/>
  <path class="st7" d="M572,875c2.7.67,11.95,5.31,14,7l2.33-.46c8.51,10.48,15.18,19.41,12.63,33.78,1.26,2.41.28,3.96-2.96,4.68-31.11,6.76-59.1,3.74-83-18-3.66-5.01,3.39-11.88,7.15-15.34,6.87-6.32,14.92-11.08,24.13-13.44,7.29-1.87,20.54-3.77,25.72,1.79h0Z"/>
  <path class="st10" d="M646,480l22.45-14.6,4.55.61c.6,3.97-1.99,7-6.02,7.01l1.02,1.97c-6.89-2.17-2.76.01-2.96,2.42-.03.39-4.17,1.7-2.79,4.93,1.06,2.49,4.46,2.77,6.75,2.64-2.19-4.51,3.03-6.87,3.69-1.36.26,2.17-2.26,4.81,2.29,5.98,2.58.66,4.3-2.84,7.01-2.63-.37-1.73-2.02-2.04-3.53-2.07-2.47-.05-.62,2.32-2.46,2.08-1.91-3.73-.29-7.63,3.5-8.98,2.67-.95.72,4.77,2.97,4.95,5.26.08,5.4-7.36,7.12-7.91,1.98-.63,5.28,2.13,6.81,2,.79-.07.96-2.55,2.6-3.53.41-.24,6.14-2.16,6.48-2.17,3.93,0,4.28,5.39,5.45,6.17,1.59,1.08,3.9.09,5.47.39,1.02.19.33,1.81.66,2.23.86,1.09,3.77,1.34,1.15,2.79-1.83,1.01-8.25,3.98-8.8,5.05-.95,1.86.28,9.03,3.56,7-1.84-4.7,2.49-5.36,2.83-6.6.55-2.02-2.67-3.29,5.17-3.41l-1.99,4.99c2.81,1.01,1.97-2.6,3.55-2.94,1.41-.3,4.06,2.1,5.81,1.75,1.51-.3,4.81-5.35,5.62-4.8.54,1.13,1.8,5.36,2.28,5.78.8.69,2.41.02,2.73.22,1.53-.06,2.86.6,4,2-16.44,10.72-32.91,23.39-49.68,33.82-2.3,1.43-15.55,8.93-17,9.06s-1.51-.56-2.11-1.59c-2.76-4.74-4.32-12.93-6.73-18.27-1.34-2.98-3.11-5.33-4.48-8.02-.47-4.2-12.08-23.06-13.37-23.72l-1.63-1.28c-.26-.41-1.87-.91-2-2l.03.04Z"/>
  <path class="st55" d="M586,694c-3.25,2.46-3.22-2.47-2.05-5.26-10.71,3.19-20.2,8.8-26.56,18.28l-2.4-.02c-3.12,2.16-4.57,5.28-5.35,8.92-3.74,4.2-13.15-3.99-4.52-7.95l4.63-5.89c-2.16-1.54-3.74-3.56-4.76-6.07,6.38,4.26-1.33,9.8-5.87,5.76-4.01-3.56,1.57-9.13,5.87-5.76-3.94-.35-8.98,1.11-12.31,4.04-6.06-.17-9.67-3.38-5.94-8.99-3.59.52-6.11-.2-6.75-4.05,2.81-9.84,4.88-19.8,7.94-29.56l24.58-14.46c12.21,10,25.07,18.55,40.02,23.96l-6.53,27.06h0Z"/>
  <path class="st2" d="M174,336.01c-5.78,4.68-12.45,7.27-17.9,12.59-32.09,31.3-8.74,89.06-49.09,113.4-.6-.7,6.93-14.3,7.77-16.72,3.79-10.88,5.79-24.97,3.21-36.28-3.5.51-3.19,3.49-4.97,5.51-9.16,10.35-19.06,19.39-33.54,20.48-1.11.08-3.72.75-3.47-.97,6.88-1.51,14.41-9.17,18.82-14.68,16.56-20.69,19.08-50.6,37.64-69.36,2.17-2.19,18.55-15.26,20.24-15.75,6.29-1.82,14.78,1.97,21.29,1.8v-.02Z"/>
  <path class="st1" d="M775,431c2.88-4.04,11.41-2.93,16.23-2.2,5.99.91,11.05,2.82,16.2,6.01,3.27,2.03,11.41,7.44,6.57,10.19-23.18,16.09-47.2,31.47-71,47-4.21,2.33-3.45-1.66-4-2-6.24-15.2-1.13-31.55,8.56-43.94.94-1.2,3.44-4.2,4.44-5.06,5.36-4.64,15.98-8.9,23-10Z"/>
  <path class="st23" d="M367,581c10.79,2.63,22.13,8.24,33.22,11.28,8.61,2.36,22.29.41,17.03,13.46-2.83,7.02-39.86,37.13-48.24,44.26-1.95-2.18-1.9-7.42-2.63-9.02-1.08-2.37-4.68-3.44-5.77-4.96-.25-.35-3.45-6.83-3.68-7.44-1-2.6-2.15-14.04-1.99-17.07.05-.89,3.2-16.66,3.63-17.44.96-1.73,4.14-3.49,4.28-5.73.18-2.82-6.04-6.09,4.16-7.34h-.01Z"/>
  <path class="st8" d="M807,382c2.35.55,4.29,2.34,5.85,5.34,5.54,4.69,11.82,8.53,18.82,11.52l11.33.14c2.03,5.98,3.97,12.09,6.84,17.75l-.33,3.23c-10.63,7.66-21.07,15.77-31.79,23.28-1.33.93-3.01,1.25-3.72,1.74.53-2.72-.84-2.89-2.26-4.24-9.99-9.5-23.12-11.9-36.74-9.76l-1.01-5-3.48,2.01-1.5-2c-1.68,7.55-1.9,1.93-2.58,1.93-2.23.02-5.26,3.49-4.43-1.93l1.49,1.99c1.54-2.79,2-3.59,5.51-3.01-2.65-3.22,2.32-2.09,3-3.01.35-.48-1.64-4.53-1-5.97l1,2.99,2.99-.99v5h3c.85-2.18-2.83-6.42-.99-8s3.06,4,3.97,2.98c-.66-1.32,5.03-4.85,6.02-3.98-3.22,3.75-.98,8.54,3.7,4.68,4.08-3.37,1.39-10.17-2.21-5.69-.72.26.09-3.21-2.49-.99.58-1.46-1.05-5.51-.59-6.06.68-.82,7.73-1.81,1.59-2.96,1.73-4.63,5.72-.02,7.88-4.82,2.49-5.54-.92-3.83-.92-4.68,0-.25,1.87-4.32,2.06-4.49,3.07-2.69,1.45,6.92,3.47,6.97,2.35-.44,3.44-3.79,4.48-4.42,1.48-.88,5.12,2.25,3.02-4.55-1.96-.32-.55,2.5-.99,3-.52.58-2.98-.85-2.98-1.51,0-.38,3.63-4.35,3.98-6.5h0Z"/>
  <path class="st13" d="M206.99,199c-2.82-2.61-4.47-5.97-8.74-6.79-21.04-4.05-28.93,43.43-8.26,48.81-6.07,13.74-23.39,8.23-31-1.51-11.09-14.21-7.86-35.52-.86-50.86,16.48-36.08,45.31-25.4,48.85,10.36h0Z"/>
  <path class="st36" d="M445,225c-2.77-2.77-7.61-8.68-9.44-12.06-6.82-12.59-11.82-42.75,2.74-51.14,5.55-3.19,7.02-2.11,12.32-1.88,3.74.16,4.31-3.29,5.43,3.08.4-.16.86-1.01.95-1,3.89.61,11.91,30.91,12.68,35.82,1.89,12.07,3.4,26.36.32,38.18v-1c-.26-6.75-3.83-.71-7.45-.94-.58-.04-.4-1.7-1.03-1.86-8.69-2.09-9.12.19-16.52-7.21h0Z"/>
  <path class="st3" d="M726,682c.97,3.48,4.15,3.48,6.05,7.45,9.09,18.99-5.85,46.98-20.04,60.06-9.71,8.95-27.57,16.74-40.01,9.49,15.44-27.96,31.35-54.05,54-77Z"/>
  <path class="st51" d="M525,841c2.51,4.36-2.1,6.13-2.01,6.5.27,1.16,3.07-.9,1,3.49-1.2.61-1.23-4.31-2.98-1.99-.1.14-.19,2.92-.06,3.41.29,1.08,4.82.42,4.05,3.58-12.29-4.31-6.85,2.21,1.68,1.66,1.49-.1,2.34-1.18,3.66-1.4,1.09-.18,2.96.7,3.2.63.8-.24.05-2.14.97-1.88,1.74.5,1.77,3.23.52,4.52.43,1.97,4.67-2.79,4.76-3.11.21-.81-.69-2.17-.34-3.44.3-1.1,3.96-5.63,3.56-5.96-14.21,2.31-4.77,4.88-5,5.49-.45,1.16-6.58,2.82-6.99,2.5-.29-4.4,1.91-3.58,2.99-6.99-4.5,2.8-2.13-3.57-7.99-1.01l2.99-2-1.99-1.98c7.32-3.31,8.3-.17,13.98,3.99,1.9-4.81-.84-2.82-2.71-4.24-2.07-1.57.93-5.88,1.22-5.75,1.72,1.35,1.63,3.54,2.51,5.31.29.59,1.6.67,1.7.88.3.61-.69,5.36-.5,5.64.45.66,5.73,3.43,6.28,6.14,3.83-2.62,1.01-2.96.8-5.24-.23-2.53-.21-5.19-.29-7.74l2.97-.48c-2.67-6.28-.85,2-3.96-2.02.81-1.55,6.62-5.91,7.98-4.49.1.1.39,2.3-.48,2.76-.1.05-1.14-.54-1.53-.19-3.96,3.43-.11,3.57.02,4.06.31,1.17-1.95,4.11.5,5.37l2.49-3c.04,2.48-.88,5.04-.11,7.52.55,1.78,2.13,1.6,2.15,2.07.07,1.83-3.31,7.12-3.03,7.4l6.99-5.5-1.99-2.48c4.66-1.48,5.25.62,9.53,1.96,1.42,1.69-2.17,4.73-2.33,6.71-.1,1.22,2.63,5.77.79,8.31l6-1.98c-2.26,3.78,2,5.17,2.01,5.5.1,3.53-5.46-.14-3.52-1.51l-2.49,3.01c-14.42-3.6-30.46-.58-42.33,8.17-6.07,4.48-14.05,11.02-14.67,18.83-8.2-7.45-13.42-13.27-19-23l3.99-2.01c.43-1.77-1.71-.66-1.98-1-1.96-2.46,5.2-3.69,5.99-5.5-.73-.69-4.68-3.41-4.83-3.69-.72-1.34,1.01-3.29.75-3.7-.19-.3-3.93-1.2-3.91-3.09l4,.98.5-4,2.5,3c-.17-.38-3.59-9.18,0-5.99.21.19.29,2.39.97,3.33.62.87,1.97.59,2.03.68,1.35,2.05-1.52,2.04-1.61,2.19-.26.45.3,1.41,0,1.77-.74.9-1.96,1.15-2.3,1.59-3.84,4.93,3.31,4.66,5.96.95.16-.22,1.89-4.77,1.93-5.04.08-.47-2.36-.35-2.8-3.2-.12-.81.1-6.97.29-7.28,1.7-2.67,2.58,2.28,3.1,2.97.77,1,2.27.91,2.4,1.06,1.44,1.66-3.64,2.44-1.98,4.98,5.91-1.33,2.93-1.64,3.49-3.47.36-1.18,1.41-1.72,1.52-3.01.06-.74-4.01-1.18-5.03-1.53l1-2.99c-5.25.6-7.54-.93-5-6l-3.99,1.99c3.36-6.39-8.93-4.78-8.99-7.5-.02-1.25,3.03-1.78,4.35-1.51.68.14.71,1.58,1.34,1.97,3.45,2.1,6.42-1.82,5.78-4.95.91,2.5,4.32.82,4.5,1,.54.56-2.79,6.6,0,6.99-.58-3.31,1.14-3.61,4.01-4.01-4.84-4.42-1.28-4.31-1-5.99l2.73.69c1.27,6.08,3.95,9.21,8.04,9.38l1.23,1.93.02-.02Z"/>
  <path class="st51" d="M520,687c3.89,4.67,10.25-.04,14.99,2.01l-4.51,4.98-1.48-.49,2.99-3.5c-1.69-1.49-7.58,6.03-3.49,7.99,2.27-5.38,2.33-.18,2.52-.04,1.99,1.44,2.03-1.49,2.19-1.57,2.69-1.31,8.06-.03,6.79-4.39,1.63,2.09,3.03,2.65,4.99,4-1.94-1.77-2.01,1.74-2.12,1.82-.36.26-4.45-2.42-2.87,1.67,1.63,4.21,8.75-.06,4.99-3.49,1.77,1.22,1.85,1.41,3.36,2.7.51.43,3.63.54,3.31,3.8-.06.61-6.13,9.48-8.03,8.52-2.48,1.36,3.36,4.36,4.35,4.98.7-3.9,2.31-8.81,7.01-9l1.11,2.18c-7.35,16.49-9.93,45.89,9.83,54.43l1.06,2.39c-.31,1.21-.81,2.24-1,3-5.56,2.78-7.39,5.13-11.99-1-.44,3.25.14,4.24,2.99,5.5-.61,1.54-2.4.54-3.04,1.1-.84.73-1.04,3.94-2.94,2.4-1.38-1.12.61-3.89-6.01-2-.74-2.74,2.42-2.46,2.99-3.01,1.06-1.03-2.05-.79-2.05-1.54-.02-5.6,4.49-11.24-4.93-4.44.31-4.32-1.82-6.87-4.51-9.98l.5,3.97c-6.22,2.74-4.84-2.71-10-2.98l.99,2.99-2.99-.99c-2.03,5.36,2.31,6.14,2.86,7.61,1.72,4.64-2.27,3.13-3.65,4.6-.9.96-.67,3.13-1.61,4.44-1.3,1.81-5.63,2.62-2.6,4.84.29.22,3.31-1.13,2.98,3.5-5.54.32-3.86-5.98-7.98-7.99l-3.01,3.5,3.99-.5-1.5,5c-.93-2.52-2.8-3.11-5.49-2.99-.47.35,3.78,4.84,3.99,5.51.67,2.12-1.8,1.3-1.98,1.49-.22.24,4.35,4.48-.51,3.01-2.94-.89-3-11.9-3.39-12.43-.86-1.17-2.84-.36-3.11-.59-1.9-1.71,2.96-2.74,2.98-3.49.04-1.87-9.49-3.15-10.98-5.5.29-1.03.71-2,1-3,27.06-6.37,39.3-48.93,23.45-70.78l.55-3.22c-1.15.6-1.48-.07-1-2,.22-.82-.23-2.19,0-3v-.02Z"/>
  <path class="st40" d="M536,563l4.49,10.47c1.53,4.95-.81,18.69-2.76,23.76-.38,1-5.31,9.86-5.76,10.24-1.41,1.18-3.53,1.16-4.89,2.11-2.89,2.01-6.66,5.7-9.81,7.19-9.75,4.63-22.88,6.4-32.54,1-.44-.25-7.41-5.86-7.75-6.23-2.05-2.17-4.64-7.84-6.25-9.26-2.28-2.02-7.93-1.15.27-5.28,7.59-3.83,18.34-5.61,26.68-9.82,12-6.06,27.29-16.28,38.32-24.18h0Z"/>
  <path class="st58" d="M576,494c-2.93-1.11-7.18.82-10.16.46-1.42-.17-13.01-4.76-13.44-5.46-.62-1.02.73-2.9.61-3-.24-.2-1.98.33-2.75-.19-1.69-1.16-1.48-9.97-1.18-12.23,1.41-10.51,13.18-27.61,22.88-32.12,14.4-6.7,28.21-4.74,38.03,8.04-3.35.76-1.44,2.94-2,4.49-.96,2.69-11.22,11.32-13.97,14.53-6.16,7.17-13.18,17.34-18.03,25.47h.01Z"/>
  <path class="st32" d="M300,509l3.32-.44c13.58,7.35,29.53,7.95,44.38,7.36l1.3,1.09c4.23,6.02,7.66,12.36,12.49,18.01,6.01,7.04,13.53,12.48,20.5,18.49-6.71,6.03-15.93,8.2-23.3,13.35-26.94-11.94-46.72-30.85-58.69-57.85h0Z"/>
  <path class="st1" d="M615,593c3.75-12.98-8.53-46.57-15-59,6.87-8.66,23.02-6.37,31.33-.83,23.28,15.52,17.62,67.26-16.33,59.83Z"/>
  <path class="st38" d="M291,766c-1.71.88-4.51,6.4-5.21,6.85-.59.39-2.1-.65-2.87-.32-16.12,6.75-27.53,5.03-41.91-5.53-1.31-.96-6.18-4.99-7-6-3.45.72-6.39-7.52-5-10-.47-1.55-1.86-9.13-1.89-10.6-.02-.86.85-9.81,1.14-10.23s1.79-.55,2.09-1.15c2.09-4.26,1.41-4.53,5.67-8.02,3.67.51,4.52.73,7.47,3.03,15.96,12.46,31.88,28.52,47.53,41.97h-.02Z"/>
  <path class="st44" d="M593,202l1,2.5c-1.24-2.77,2.42-12.3,4.64-12.55.48-.05,8.92,2.8,9.23,3.18.42.53-.08,3.19.64,4.85.96,2.22,4.99,3.91,6.17,5.33,1.49,1.78,2.24,4.96,3.39,6.91.56.96,3.28.78,1.86,2.72-.09.13-1.7-.22-1.95.7-.72,2.7.34,8.41,0,11.84-.49,4.97-.96,10.25-1.5,15.05-.88,7.92-10.67,21.1-18.79,25.66-5.72,3.22-4.52.76-6.5-.08-3.11-1.32-7.02-1.93-10.2-3.11,1.15-2.07,2.13-6.35,2.7-8.8,3.96-16.99,6.08-36.67,9.3-54.2h.01Z"/>
  <path class="st51" d="M586,882l2.01-5.48-3.01.49c.03-2.33-2.19-4.98.98-6.01-.98,4.51,3.35,3.48,4.77,4.37.66.41,1.85,3.32,3.76,3.64.23.04,1.28-3.72,3.48-2,.5.39-3.02,8.3,8,4.99.73-3.15-2.09-1.4-3.48-2.97-.26-.29.33-1.45.07-1.77-.87-1.06-4.24-3.1-4.58-3.77-1.55-3.05,4.98-.43,5.48-.49,1.84-.22.8-3.79.52-4-1.02-.74-3.74,2.46-6.56-.93-3.33-4.01-.6-5.8,2.99-3,.38.3.47,1.51,1.27,1.98.71.41,7,3.2,7.3,2.94-3.93-2.08-1.71-6.71-2-6.98-.56-.52-4.22,1.1-3.99-1,4.07.83,8.94-5.43,4-3-1.3-6.67,8.87-5.54,9.49-12.01,4.41,2.45.16,4.29.52,4.98,2.39-.15,2.17.9,1.98,3.02-2.06-1.1-3.15-3.66-5.99-2.99l2,2.5c-4.06.21-.34,4.89-.99,5.49-.22.21-5.52.35-6,1.02-1.36,1.87,5.15,4.35,7,3.98-2.15-4.2,2.5-7.39,4-3.49.39,1.02-2.5-.27-1.99,1.48,2.49.29,2.4,4.22,4.99.51.07-.1-4.36-1.21-.48-2.49,1.17-.38,2.67,3.02,5.78,3.67,4.87,1.02,4.64-2.85,5.2-2.68l2.49,9c-5.01-.92-1.33-3.07-2-4-1.62,1.26-3.4-.1-4.38.04-.72.11-.55,1.48-.83,1.65-.45.27-1.63-.77-1.72-.67-.14.15-1.19,3.8-1.06,3.96.17.22,5.25.9,5.52.83.61-.16.41-1.85,1.08-1.88,3.91-.15,3.46,2.22,2.42,5.06l2-3.99c1.66-.42.4,1.71,1.66,2.02,1.03.25,2.25-.09,3.32-.02,0,2.98-4.12,3.29-4.5,6.47-.69,5.68,3.16,2.12,3.5,2.52,2.68,3.14-3.76,3.78-4.01,4.01-.22.2,1.4,2.48,1.03,2.98-.14.19-2.78.21-3.75,1.29-2.34,2.62-.01,3.85-5.86,7.17-.84.48.09,2.64-3.4.55v4l4.98-3.99c-1.38,4.33-.32,4.17,2.99,6.49l-2.98,3.5c-10.91,6.04-18.99,8.39-31,11l-.5-1c4.12.4,1.69-.5,1.47-3.47-.35-4.67.76-10.31-.24-14.76-.54-2.4-10.71-17.11-12.73-18.77h-.02Z"/>
  <path class="st36" d="M718,788c-13.27,26.72-23.24,51.56-41,76-11.48-8.02-12.55-22.15-10-35-2.84-.81-1.89-4.95,1-5,1.27-3.65,6.99-12.67,9.58-15.92,9.61-12.06,25.2-18.71,40.42-20.08Z"/>
  <path class="st33" d="M555,707c1.13-2.01,7.55-9.33,9.53-10.97,2.74-2.28,19.23-11.26,21.47-9.02.41,1.93-.85,3.81-.86,5.53,0,.8.87,1.35.86,1.46-1.44,20.05-13.74,51.4-19,72-22.76-5.67-21-42.95-12-59h0Z"/>
  <path class="st7" d="M255,536c15.15,17.98,30.77,35.94,46,54-5.78,1.45-1.7,3.41-1.01,6.99-6.24-1.85-11.5,1-17.99,1.01-8.7,0-14.6-2.24-21-8-2.53,1.65-5.67-1.45-4-4-11.44-13.29-12.78-32.78-5.79-49.29,1.07-2.53,1.95-1.08,3.79-.71Z"/>
  <path class="st58" d="M324,869c-4.79-5.52-4.44-18.23-2.77-25.27,1.49-6.28,8.92-19.9,13.73-24.27,8.88-8.07,29.12-14.63,40.02-7.9,1.89,1.17.8,4.43,5.54,5.43l.47.5c-.97,1.25-2.63,2.18-3.41,3.5-.28.48.47.95.43,1-9.4,12.46-40.5,35.68-54,47h-.01Z"/>
  <path class="st9" d="M817,325c8.42,24.74,17.61,49.24,26,74-1.08,2.13-1.21,1.85-3.33,1.9-1.22.03-8.98.05-9.41-.14-.22-.09-.34-1.4-1.04-1.67-10.1-3.85-17.1-6.72-22.21-17.09.05-.28.04-.71,0-1-2.66.66-3.2-.59-2-3-7.52-17.91-3.57-36.93,8.77-51.73,1.13-1.35,1.05-3.09,3.23-1.27h-.01Z"/>
  <path class="st38" d="M421,751c17,13.04,34.3,25.67,51,39,1.86,2.41.15,2.13-1.55,2.95-5.6,2.69-12.8,6.58-18.9,7.09-22.64,1.86-44.18-18.18-41.06-41.06.43-3.13,2.56-5.69,1.99-8.99,2.64-3.55,5.76,3.61,8.53,1.01h-.01Z"/>
  <path class="st33" d="M433,284c4.42-6.23,16.27-15.79,23.76-18.74,2.04-.8,3.99-1.53,6.24-1.25-2.11,2.2.01,4.66,0,4.99-.29,6.66-12.45,34.76-15.82,42.68-4.85,11.38-11.08,22.18-16.18,33.32-9.3-5.29-11.41-13.77-11-24-1.08-4.84-.42-9.18,2-13,.25-.86.69-2.04,1-3,.38-6.31.78-9.53,6-14,.34-.67,1.4-2,2-3-1.22-1.42.06-4.24,2-4Z"/>
  <path class="st29" d="M391,512c-6.18-11.99-8.28-28.79,3-38.5l-2.51.49-.49-1.98,5-1.01c7.94,25.85,27.79,32.59,49,45-5.58,1.51-9.05,10.54-13.05,12.45-1.6.76-10.41,2.45-12.34,2.44-10.68-.04-23.83-9.62-28.61-18.89Z"/>
  <path class="st34" d="M384,327c-4.73,11.4-9.54,23.37-14.82,34.68-1.5,3.2-7.26,16.05-9.18,17.32-1.17-.45-1.99.12-2.54,1.42-12.63-1.27-26.06-5.52-35.46-13.42,3.62-7.29,11.71-27.65,17.65-31.85,1.78-1.26,4.02-1.39,5.35-2.15,1.46,1.05,3.53,2.45,6.2,4.21,2.47-2.7,5.15-4.67,7.08-.43,1.96-2.61,6.62-1.5,9.14-.33,1.86-2.1,5.14-2.75,9.83-1.98,0-1.85,5.26-14.04,6.89-9.13.16.48.05,1.06-.14,1.66Z"/>
  <path class="st48" d="M639,376c2.92,11.43,1.24,19.18-8.09,26.41-15.82,12.27-38.12,15.01-54.26,2.44-1.5-1.16-2.44-2.47-3.65-3.85,19.54-15.11,40.63-24.76,66-25h0Z"/>
  <path class="st6" d="M535,298c.88,2.23,1.67,6.28,1.53,8.54-.75,11.44-6.14,31.61-14.02,40.47-4.64,5.22-14.92,12.11-22.01,12.07-1.78-.01-9.77-2.3-10.34-3.22-.94-1.49.69-5.31.84-7.34.12-1.66-1.01-1.42-.99-1.51,3.37-22.43,28.23-37.22,45-49h-.01Z"/>
  <path class="st17" d="M417,122c.67.52,3.4,2.44,2.99,3.48-.8,2.03-3.91,2.53-2.5-.49-1.96-.31-1.49,2.28-3.43,4.57-1.37,1.63-8.14,6.1-10.13,6.87-7.18,2.79-15.48,3.93-23.01,2.13-14.72-3.52-31.68-17.35-31.93-33.57,17.83.77,53.81,5.94,68,17h.01Z"/>
  <path class="st22" d="M414,382c-5.28,11.96-12.32,26.13-16.02,38.48-2.45,8.18-2.28,18.66-4.98,25.52-.31.79-2,3.87-2.54,4-22.5-9.63-20.13-37.39-8.46-55,5.95-8.97,21.48-19.35,32-13Z"/>
  <path class="st7" d="M270,623c6.61.4,22.71,6.29,27.41,11.09,4.34,4.43,11.78,23.36,11.08,29.41-.2,1.75-2.59,4.55-2.42,7.07.08,1.18,5.54,7.91,2.89,10.38-.57.53-5.19-.62-5.45,3.04-3.02-2.47-4.61-6.03-6.99-9.01-.29-.36-3.05-3.96-3.51-1.99-7.66-9.46-14.48-19.48-22-29-1.46-3.44-3.79-6.44-7-9-1.96-2.47-3.23-4.77-5-7-1.76-1.91-.04-3.35,5.16-4.3-.55-2.39,1.15-2.41,2.84-.7.7-.16,2.15-.05,3,0h0Z"/>
  <path class="st22" d="M852,631c1.43,1.77.62,2.64-.15,4.3-8.53,18.47-40.85,26.81-56.76,15.11-.93-.68-1.34-2.49-2.07-2.91-.79-.46-2.26.72-2.83.38-1.35-.8-2.38-6.3-3.2-7.88,25.35-10.37,37.02-13.42,65-9h.01Z"/>
  <path class="st19" d="M642,492c2.79,4.81-4.02,5.46-1,9.99-5.24-.98-9.36,2.16-14.45,2.04-1.81-.04-18.59-3.49-19.55-4.04-.11-.06,1.11-1.59.1-2.49-3.54-3.14-14.43-3.56-14.09-10.5,2.4-3.44,4.27-8.16,7.49-12.01,2.07-2.48,11.43-12.29,13.96-12.04,3.32.32,23.39,22.5,26.59,26.55.7.89.7,2.16.96,2.5h-.01Z"/>
  <path class="st4" d="M749,542c-4.08,20.21-14.66,43.21-29,58-.41-1.95-1.45.68-3.05.56-4.38-.34-6.16-8.41-6.69-12.31-1.68-12.35,5.14-30.67,14.99-38.5,1.06-.85,11.79-7.32,12.5-7.51,4.24-1.14,7.47,1.94,11.26-.24h-.01Z"/>
  <path class="st28" d="M470,587.99c-29.35,5.63-57.9.08-85.53-9.96l-20.47-9.01c4.24-2.31,13.46-5,16.91-7.59,2.11-1.59,2.42-5.79,4.56-5.47,1.35.2,16.71,10.23,20.16,11.91,22.01,10.72,38.68,11.97,60.9,18.1,1.37.38,3.11.13,3.45,2.04l.02-.02Z"/>
  <path class="st33" d="M521,692c1.42,3.24,3.39,4.9,4.73,7.77,8.32,17.83,2.17,45.25-11.72,58.74-2.86,2.78-13.9,13.03-17.01,7.49,5.37-18.7,13.03-52.85,21-69,.39-1.88,1.23-4.48,3-5Z"/>
  <path class="st53" d="M486,549c2.9,3.21,17.62,19.72,17.9,22.67s-16.07,9.97-19.39,10.33c-11.58,1.24-19.89-3.31-30.11-5.94-1.45-.37-3.35.23-4.4-.06,2.9-6.94,6.72-14,13.06-18.44,2.18-1.52,14.63-7.6,16.93-8.15,2.56-.61,4.43,1,6.01-.41h0Z"/>
  <path class="st53" d="M554,630c-.76-9.28,1.71-22.29,5.82-30.68,2.48-5.06,13.53-15.09,18.93-16.12,1.76-.33,11.15.64,12.26,1.29s1.39,3.13,3.03,4,5.52-.11,4.77,3.85c-.25,1.34-3.84,2.84-1.81,3.65-13.58,12.51-27.8,23.6-43,34h0Z"/>
  <path class="st3" d="M938,730c1.12,21.85-2.3,37-11,57-6.11.37-12.4-10.39-13.02-15.48-1.77-14.34,4.06-29,14.55-38.5,2.23-2.02,6.08-2.69,6.5-6.02l2.98,3h0Z"/>
  <path class="st15" d="M497,547c.2-8.45,10.06-6.83,15.85-8.65,3.98-1.25,6.42-3.54,11.8-3.97,7.58-.6,13.69,3.06,21.35,3.63-1.69,3.49-1.77,6.11-5.51,8-4.04-5.8-2.91.23-3.49,4-8.04,6.21-15.42,13.1-24.51,17.97-4.58-7.73-9.64-14.26-15.49-20.97h0Z"/>
  <path class="st1" d="M688,388c12.45,7.31,21.99,18.47,30.91,29.61l-21.91,16.39c-1.4-2.38-4.36,1.76-5.52,2-.18.04-2.4-2.55-2.44-2.73-.6-2.87.35-6.58-.1-9.71-.53-3.69-3.73-9.03-3.85-13.15-.14-4.58.57-14.14,1.02-19.09.18-1.97-.34-2.26,1.9-3.32h-.01Z"/>
  <path class="st19" d="M604,571l-4.99,5c-.55-1.64.11-4.62-.55-5.93-1.19-2.4-5.9-4.69-6.23-5.29-.58-1.03-.03-2.78-.46-4.01-1.49-4.32-8.21-4.25-12-6.03-6.3-2.96-17.69-8.97-11.77-16.73,5.43-4.09,10.27-9.22,17.01-11.54,9.03,13.55,16.13,28.42,18.99,44.54h0Z"/>
  <path class="st24" d="M384,327c-.71-2.08-2.55,1.15-2.77,1.77-.46,1.29-1.37,6.3-2.85,7.31-1.28.88-3.8.83-5.39.93-.3.2,3.57,3.44.48,3.98-3.63.65-1.12-5.12-1.49-5.99l-5.51,4.99-.49-2.98c-1.83,1.17-4.3-.12-5.39.03-.69.09-.55,3.1-3.11,1.97-1.23-.55-1.28-3.26-2-2.99-2.96,1.11-2.15,6.51-1.51,8.99-4.14.81-1.21-4.93-3.51-5.98s-1.16,2.4-1.49,3c-.6-.6-2.88-.9-2.99-1.02-1.96-2.02,2.8-1.59,1.99-3.48-1-2.34-5.51-1.75-2.99-4.52,15.78-8.98,31.48-17.71,46.51-27.99.21,7.8-4.68,15.18-7.51,21.99h.02Z"/>
  <path class="st47" d="M661,625c-8.01,13.56-25.14,29.15-41,32-2.62-1.04-1.96-3.67-2.96-5.34-.51-.86-1.96-.58-2.02-.67-1.31-1.93,1.74-2.26,3-3.42,5.92-5.42,9.47-12.17,16.5-17.54,9.14-6.99,15.04-8.99,26.48-5.02h0Z"/>
  <path class="st42" d="M452,642c.92-6.56,2.2-2.66,6.43-3.02,8.2-.69,8.93-4.59,20.78-1.69,4.41,1.08,20.52,7.95,22.31,11.66.96,1.98-3.76,5.72.48,5.05-19.62,3.82-34.67.47-50-12h0Z"/>
  <path class="st54" d="M345,513l-1.01,1.99c5.5-1.54,3.46-.19,5.01,2.01-8.02,1.85-18.24,1.04-26.38-.12-8.34-1.19-15.46-3.72-22.62-7.88-.3-.68-.71-1.32-1-2,3.3,1.58,4.24-2.07,4.48-2.01,2.6.74,6.83,3.71,10.31,4.72,10.08,2.94,20.77,3.57,31.22,3.28h-.01Z"/>
  <path class="st35" d="M296,431c8.49,2.71,14.6,8.26,23.56,10.94,4.1,1.23,13.12,1.88,15.74,3.26,2.24,1.18,2.29,4.71,1.19,4.82-7.27-1.09-14.75-1.78-21.76-4.24-5.57-1.95-17.92-7.53-18.73-13.77-.04-.32,0-.68,0-1h0Z"/>
  <path class="st52" d="M360,379c-.29.2-1.39-.13-1.99.01v.98c3.87-.22,1.27,1.17.99,2.01-14.55,3-27.14-3.99-38-13,.33-.68.67-1.33,1-2,7.42,1.52,13.5,6.54,20.78,8.72,5.71,1.7,11.54,1.78,17.22,3.28h0Z"/>
  <path class="st49" d="M210,138c.19-.02,3.66.02,3.83.12.52.3,5.89,8.7,6.58,9.97,1.34,2.49,2.29,6.19,3.59,8.9-5.42-.42-5.68-5.93-8.78-9-2.45-2.44-6.05-3.75-9.22-5l2-1.99c-2.34,0-3.51.66-3.01-2,1.82.56,3.74-.86,5-1.01h0Z"/>
  <path class="st0" d="M200.75,200.25c2.08,2.16,1.56,8.47-1.43,9.58-9.52,3.53-4.39-15.62,1.43-9.58Z"/>
  <path class="st45" d="M383,352c-.1.61-1.13,1.58-1.05,2.43.06.63,1.97.71,2.08,1.07,1.26,4.13-2.73,1.42-4.13,3.13-3.66,4.46,3.23,12.69-5.89,10.38,2.67-6.32,5.34-12.68,8-19,2.07-2.4,3.36.52,1,2h0Z"/>
  <path class="st39" d="M325.09,202.1c4.77-3.14,7.58,7.31,3.29,8.81-6.11,2.14-4.65-7.92-3.29-8.81Z"/>
  <path class="st37" d="M267,623c-1.51.35-2.73,1.87-4.09,2.43-1.64.68-4.04-1.22-3.91,2.57-.59-.75-1.91-1.63-3-3l7.99-2.01-2.99-1c1.42-3.51,4.65-2.04,6,1.01Z"/>
  <path class="st8" d="M648,482l2.59.1c2.83,6.86,8.27,13.69,12.05,20.76.63,1.18,2.67,3.16.37,4.14-4.66-9.11-9.58-16.44-15-25h-.01Z"/>
  <path class="st45" d="M470,236c-.06,4.84-1.06,9.31-2,14-1.86-3.99.28-11.12,2-15,.01.33,0,.67,0,1Z"/>
  <path class="st37" d="M264,635l6.65,5.32.35,3.68c-2.35-2.97-4.65-6.04-7-9Z"/>
  <path class="st30" d="M392,327l.03,1.33c4.14,2.54,2.39,7.19-2.03,2.67.59-1.46,1.54-2.83,2-4Z"/>
  <path class="st55" d="M521,692c-.36,2.07-2.62,4.24-3,5-.88-2.84,1.52-5.23,2-7,.31.68.7,1.32,1,2Z"/>
  <path class="st30" d="M385,347c-.13,1.03,1.83,5.75-2,5,.12-.69-.04-2.1-1-2,.32-.76.75-1.4,1-2l.5.98,1.5-1.98Z"/>
  <path class="st26" d="M347.99,156c-15.96-13.55-33.22-19.1-54.19-14.7l-18.79,6.21c4.17-4.79,14.18-12.84,20.06-14.94,20.35-7.25,44.43,3.88,52.92,23.43Z"/>
  <path class="st57" d="M191.85,284.15c.75.47,1.25,3.89.97,5.09-1.1,4.64-15.55,14.78-18.57,11.53-6.3-6.77,12.86-19.63,17.6-16.62Z"/>
  <path class="st61" d="M130.69,272.31c3.16,3.48,5.27,13.57.89,16.76-8.52,6.2-10.77-18.39-6.96-19.14,1.67-.33,4.96,1.16,6.07,2.38Z"/>
  <path class="st30" d="M401,321.01c-1.22,2.23.98,5.96-1.99,6.99l-1.01-6.99h3Z"/>
  <path class="st30" d="M397,337c-2.26,1.68-4.76-.12-7-1,.25-.43-.6-2.08.56-2.04,2.23.8,4.83,1.1,6.44,3.04Z"/>
  <path class="st11" d="M513,829c.52-3.08-.37-7.05.09-10.42.75-5.54,7.96-17.63,13.48-18.53,17.91-2.89,16.77,23.82,8.98,33.99-1.21,1.58-8.65,6.78-10.55,6.95-9.56.85-7.83-5.79-12-12h0Z"/>
  <path class="st41" d="M884,673.01c.67-.5,9.18,1.31,10.4,2.09,2.58,1.64,11.58,9.87,13.58,12.42,1.1,1.4,4.67,5.75,3.59,7.48-.42.67-4.21,2.95-5.14,3.03-3.07.27-6.55-4.97-8.92-7.03-1.65-1.43-3.96-1.81-5.53-3.47-.9-.95-8.63-14.02-7.97-14.52h-.01Z"/>
  <path class="st51" d="M582.63,856.4c.26.11.39.94.81,1.21,1.89,1.21,3.38-.68,2.57,4.39l3.5-4c3.35-.36-1.17,2.81,1.49,4.54,1.28.83,2.71-.89,3-.53-1.89,4.51.67,3.85.82,4.47.33,1.31-.89,4.34-1.82,5.52,5.82-1.18,2.75,7.01-.07,3.39-.6-.78-.66-3.07-1.93-3.9,5.23-1.8-.06-2.67-.06-3.03,0-.91,1.3-2.23,1.06-3.44-5.72.19-6.43.52-9.98,5,2.5-10.06-2.96-3.02-4.01-4.01l1.01-2.98-3.01-.02,2-2.98-4.99-1.02,3-1.49-3.01-3.49c2.97.89,6.9,1.25,9.63,2.39v-.02Z"/>
  <path class="st51" d="M641,836c-4.13-.22-5.14,1.88-5.48,1.87-.58,0-1.75-1.2-2.39-.81-.4.24-.78,2.91-1.63,2.92-.24,0-1.07-1.55-2-1.62-1.52-.12-3.92,3.08-6.49-.87,2.38-1.86,6.69.39,8.54.36.46,0,.4-1.23.81-1.47,1.88-1.07,4.75.19,1.13-3.38l-1.48,1.99c-1.23-3.76,3.66-4.1,4.46-5.93.15-.35-.07-7.06,2.02-7.06,3.73,0,.86,5.98,5.51,3.01l-.99,2.99h3.99l-.99,5,3.99-1.99c-2.12,3.85-6.12,4.96-5.01-1.01l-2.49,2.99c-.38.23-.79-4.08-2.49-1.99-.82,1,1.51,2.69,1.59,3.5.07.73-.61,1.28-.59,1.49,1.76.09,2.79-.35,3.98,1.5-4.02,5.8-3.65,4.81-3.98-1.5h-.01Z"/>
  <path class="st51" d="M501.01,778.98c.13.19,4.48.94,2.98,3.02-.26.37-1.35-.93-1.78-.76-.2.08-1.68,2.74-2.61,3.39-1.31.92-3.8-.55-2.57,3.68.18.62,1.35.66,1.61,1.08.49.83.77,5.52,2.89,1.61.82-1.51-3.25-4.53,3.47-2,.22,4.75-3.95,5.69-5.28,8.26-.5.96-2.35,9.9-4.72,7.72-1.95-7.89-.96-4.45,2.5-6.95.75-.54,4.51-4.18,3.49-5.04-5.78,1.28-4.34-3.3-5.01-4.01-2.43-2.59-1.31,3.4-2.98,2.99-1.67-1.51.58-12.48,1-12.99.27-.33,2.43,1.45,2.99.99-6.98-6.74,6.68-7.15,5.5-4.03-.21.55-2.19,2.02-1.49,3.01v.03Z"/>
  <path class="st51" d="M512,816.99c-7.77-2.67-1.38,1.45-2,2-4.5-2.66-4.64,2.9.01,2.01-1.31,1.2.13,3.85-.01,3.98-2.43,2.32-1.73-5.68-4-2.98-.38.45,3.4,7.34-3.72,9.78-3.43,1.18-6.12-1.69-5.28-2.77.38-.49,6.91-.7,7.03-4.51.03-.99-7.66-5.64-6.03.51-5.92-.7-3.59-4.67-5.99-9,1.92-.31,2.86,1.37,4.65,1.72.86.17,2.07-1.01,2.34-.72.37.38-1.7,3.03.52,3.99l.49-4.99,3.49,4.98c2.28.02,2.27-12.9,8.5-3.99h0Z"/>
  <path class="st51" d="M667,829l-1-.51c.41,3.41-1.98-.38-3.52-.26-.99.07-3.17,4.01-4.48,2.77-2.03-1.92,3.98-2.04,2-3.98-.72-.7-7.66-1.44-8.57-3-.49-.85.18-9.37,2.56-10.02-.39,5.44,3.75,2.89,5,6.51-2.97-.77-5.11.63-2.48,3.48l1.98-2c1.92,5.55,3.02-.9,3.99-.97.56-.04,3.85,3.26,5.51,2.98-.12.33-.79,3.93-1,5h.01Z"/>
  <path class="st51" d="M503,797.01l-.49,3c3.07,1.04,2.6-2.58,4.09-2.91,4.6-1.03,2.27,2.95,2.42,4.34.28,2.69,4.73,7.65-1.3,9.84-2.83,1.03-4.77-2.52-2.71,2.72-1.45.12-4.93-3.76-4.97-4.5-.13-2.12,4.1-.5,4.98-.94.62-.31,4.23-5.29,4-5.55-1.69-1.92-6.97-.74-3.99,3.48.2,2.24-4.94-2.49-5.07-3.96-.09-1.05.55-6.6,3.05-5.52h-.01Z"/>
  <path class="st51" d="M641.67,864.34c.56.59.44,2.19,1.34,3.11,1.56,1.59,5.98,2.19,6.99,4.54l-6.99-2.99c3.05,8.57-7.58-4.24-5-7,1.1.68,2.84,1.48,3.66,2.34Z"/>
  <path class="st51" d="M549.14,807.13c.44-.5,2.39.76,1.87-1.62l-2-1.5c5.82-1.25,7.47,5.73,3.5,8.97-.64,0-3.59-5.6-3.36-5.85h-.01Z"/>
  <path class="st51" d="M531.79,784.79c-1.19.65-2.86-.09-4.12.19s0,2.44-1.66,2.02l-1-6.99c2.17,0,1.64,4.17,2.48,3.99,2.57-.54,3.2-4.16,5.5-4.99.86,1.48.08,5.09-1.2,5.79h0Z"/>
  <path class="st51" d="M494,806.01c.13.07-1.38,2.19.48,2.96l3.51-.96v3.99c-2.24-1.22-3.74-1.22-5.99,0,.42-2.94-.01-3.43-3-3.02.71-1.54,3.39-3.82,5-2.98h0Z"/>
  <path class="st51" d="M661.99,851l-3.99-2.5c3.65-.1.13-3.65.99-4.49.18-.18,3.86.1,5-1.01l-2,7.99h0Z"/>
  <path class="st51" d="M669,863.01c-1.31,1.79.21,3.92-.15,5.32-1.19,4.62-8.34-3.45-3.86-4.33l1,2.99,3.01-3.98Z"/>
  <path class="st51" d="M649.99,877l1.02,5.99c-4.3-1.55-3.56,3.2-6,1.51-.07-1.72,5.4-4.03,3.98-5.51-.59-.62-4.52,3.46-5.45,3.58-1.14.16-3.07-.95-4.54-.59,2.24-6.59,2.75-.57,4.42-1.04s5.51-4.92,6.57-3.95h0Z"/>
  <path class="st51" d="M496.99,853.01c.11.1.99,2.73.9,2.85-1.06,1.55-8.49,3.98-5.38-.62,1.74,2.24,2.54-3.99,4.48-2.23Z"/>
  <path class="st51" d="M506,851.01c-1.69,4.01-5.82-1.89-8.99.99.2-5.36,5.73-1.18,8.99-.99Z"/>
  <path class="st51" d="M646.99,888c2.42,2.45-9.71,5.88-5.98-2,2.54,2.05,1.79,4.33,5.98,2Z"/>
  <path class="st51" d="M555,831.99c-.73,1-4.63.11-4.83.24-1.25.87-1.24,4.26-6.16,2.76l.48-1.98c4.77,3.48,2.95-3.84,7.51-1.02-2.41-7,5.15-2.94,3,0Z"/>
  <path class="st51" d="M548,826.99c-1.08.07-2.25-.24-3.32,0-.56.12-1.12,3.88-2.67,2.01s3.04-5.12,4.98-5l1.02,3h-.01Z"/>
  <path class="st51" d="M554.99,824c-1.28-.93-3.74-2.61-2.95-3.97.25-.42,3.02,1.25.97-3.02l1.98,6.99h0Z"/>
  <path class="st51" d="M604,856.01c.29,1.9-1.95.53-2.92,1.07-.24.13,1,1.67-.07,2.42-3.58,2.53-3.55-4.95,2.98-3.49h.01Z"/>
  <polygon class="st51" points="664.99 831.01 662.8 833.74 659.01 832.99 664.99 831.01"/>
  <path class="st51" d="M489.21,832.7c.37.27,3.38-1.02,2.78,2.3-1.33-1.26-3.79.1-3.93-.04-.17-.19-.95-4.07-1.05-4.95,1.47,0,1.47,2.16,2.2,2.69h0Z"/>
  <path class="st51" d="M598,854.01c-.94,2.78-3.58,2.67-5.99,2.99l5.99-2.99Z"/>
  <path class="st51" d="M651.01,874.99c-.95-1.01,2.57-4.52,3.98-4.99,1.08,1.99-2.8,6.25-3.98,4.99Z"/>
  <path class="st51" d="M533.99,791c.17.12,1.24,3.7,1,4-7.04-.59-2.63-5.17-1-4Z"/>
  <path class="st51" d="M545.01,785.01c.25,5.61-6.52.5-5-1,.18-.18,3.6,1.68,5,1Z"/>
  <path class="st51" d="M545.01,821.99l2.49-3.98c3.18,2.86,1.25,5.87-2.49,3.98Z"/>
  <path class="st51" d="M653.01,860c-1.34-1.5,3.75-4.8,4.98-5,1.32,1.41-3.94,4.48-4.98,5Z"/>
  <path class="st51" d="M545,793.99c-4.15-.18-4.76,2.67-6-1.98,1.3-.33,2.49,1.01,3.44,1.06,1.07.06-.15-2.53,1.55-2.06l1.01,2.98Z"/>
  <path class="st51" d="M504.99,845.01c1.05.84-3.11,5.03-3.99,3.99-.78-.93,1.66-5.86,3.99-3.99Z"/>
  <path class="st20" d="M808,267.01l-22.97,31.23-3.01,1.76c1.61-3.17-.14-9.53.22-11.39.52-2.66,8.89-14.99,11.38-17.5,4.4-4.44,8.23-6.05,14.39-4.1h-.01Z"/>
  <path class="st8" d="M792.69,392.77c-1.18,1.85-8.51,5.07-3.69,5.73-3.92,1.53-4,5.64-6.03,8.73-2.96,4.48-3.29-3.98-2.94-4.18.57-.32,2.14.1,2.98-.05,1.18-2.82-1.84-2.93-1.96-3.61-.99-5.87,2.71-4.71,5.26-6.33,1.4-.89,3-6.71,6.16-3.06.15.17.37,2.55.23,2.77h0Z"/>
  <path class="st8" d="M779.99,392.01c.26.34-2.67,7.73-3.01,7.99-.12.1-2.83-.99-2.92-1.11-.2-.25.42-5.91.89-6.4,1.05-1.09,4.39-1.34,5.04-.48Z"/>
  <path class="st8" d="M782.91,362.08c.72.48.33,6.22,5.08,3.92.37,5.11-.57,2.02-2.42,1.94-.68-.03-.26,3.64-2.59,1.58-.5-.45-2.99-6.22-2.99-7.01.06-.93,2.63-.63,2.93-.44h-.01Z"/>
  <path class="st8" d="M788,385.99c2.13,1.25,1.68-1.03,2.49-1.99l3.51,2.5-8,1.51-1.99,1.99c-.15-1.86,1.25-3.77,2.48-5.01,2.44-2.48,1.16.8,1.52,1.01h-.01Z"/>
  <path class="st8" d="M807,381l-6.99,3.99c-.98-3.97,3.94-3.66,4.99-6.99.3.71,1.79,1.55,2,3Z"/>
  <path class="st8" d="M784,372.01c.38.47-1.82,6.67-3.99,5.99-.81-1,2.49-7.84,3.99-5.99Z"/>
  <path class="st8" d="M780.97,410.97c-.1.17-3.2,2.13-3.46,2.02-1.01-.44-1.79-1.81-1.52-2.99,1.97.32,6.92-2.2,4.97.97h.01Z"/>
  <path class="st8" d="M792.99,368.01v2.99h-3.99c1.04-2.5.89-3.57,3.99-2.98h0Z"/>
  <path class="st41" d="M197.67,543.35c.7.38,1.4,2.84,3.26,2.75-.94,3.75-3.9,4.28-7.19,5.18-2.39.65-3.1-1.88-2.74,2.72-9.08-3.46-19.29-.17-27.98-4.52-.53-3.12,2.35-.19,2.88-.6.29-.23.42-1.94,1.71-2.76,6.29-3.99,23.58-6.27,30.07-2.77h0Z"/>
  <path class="st37" d="M261,590c-1.23,6.79-9.96-.67-4-4,.65.76,3.18,3.26,4,4Z"/>
  <path class="st56" d="M234,761c-4.52,3.26-5.45-2.51-6.44-6.12-.58-2.11-1.05-2.92,1.44-3.88.49,1.62,4.06,8.84,5,10Z"/>
  <path class="st12" d="M381.96,529.03c.09.06-.14,1.42.72,2.04,1.11.81,3.32-.54,4.3,1.42l-2.98,1.52c-.43,1.61,1.45.71,1.68,1.17.2.4-.46,1.84.31,2.8-7.22,1.04-8.47-11.86-4.04-8.96h.01Z"/>
  <path class="st12" d="M368.62,522.39c.34.14,1.59,2.31,3.37,2.1l-3.98,3.51-4.01-7c1.46.77,3.11.76,4.62,1.39h0Z"/>
  <path class="st30" d="M392.99,358c-.25.27-7.09-1.54-5.99-3.99,2.55-1.3,8.19,1.59,5.99,3.99Z"/>
  <path class="st45" d="M444.72,242.35c.15.08.18,1.01.64,1.29.63.39,4.71.48,2.63,2.35-.26.23-3.37.64-5.68,3.37-.24.28-.89,5.07-3.31,2.63-2.17-2.19,3.07-6.02,3.47-6.96.45-1.08-1.9-4.87,2.25-2.69h0Z"/>
  <path class="st45" d="M429,291c-1.64,3.26-4.92,10.68-6,14-.15-1.9.51-3.93-.33-5.76-.29-.62-2.74.64-.44-3.59l6.77-4.65Z"/>
  <path class="st45" d="M415.01,288.99c-1.95-1.69,1.63-2.09,1.7-2.21,2.54-4.33-4.43-1.22-2.7-5.28,1.25-2.93,5.82-1.17,5.79,1.79-.02,1.7-3.07,7.18-4.79,5.69h0Z"/>
  <path class="st45" d="M427,269.99c-12.17.14,1.88-11.6.72-3.71-.15,1-1.92,2.14-.72,3.71Z"/>
  <path class="st45" d="M420,321l-1.81-8.27,3.81-4.73c-1.06,3.7-1.84,9.11-2,13Z"/>
  <path class="st45" d="M429,255.01l-2.49,6.99c-2.28-1.36-.29-2.96-.43-4.36-.1-1.01-3.23-.04-2.07-2.63h4.99Z"/>
  <path class="st45" d="M433,284c-.41.57-1.27,2.77-2,4-3.57-1.64-.03-6.16,2-4Z"/>
  <path class="st55" d="M542.59,704.44l3.41,2.55c-2.25-.18-3.61,4.09-5.51,3.81-3.1-.46-3.52-11.48,2.1-6.36h0Z"/>
</svg>