<?xml version="1.0" encoding="UTF-8"?>
<svg id="Layer_1" xmlns="http://www.w3.org/2000/svg" version="1.1" viewBox="0 0 1536 1024">
  <!-- Generator: Adobe Illustrator 29.5.1, SVG Export Plug-In . SVG Version: 2.1.0 Build 141)  -->
  <defs>
    <style>
      .st0 {
        fill: #6e8d3c;
      }

      .st1 {
        fill: #708e3d;
      }

      .st2 {
        fill: #759542;
      }

      .st3 {
        fill: #0b240a;
      }

      .st4 {
        fill: #2f642a;
      }

      .st5 {
        fill: #72913f;
      }

      .st6 {
        fill: #718f3e;
      }

      .st7 {
        fill: #708f3e;
      }

      .st8 {
        fill: #f6efcc;
      }

      .st9 {
        fill: #040503;
      }

      .st10 {
        fill: #0d270b;
      }

      .st11 {
        fill: #70903e;
      }

      .st12 {
        fill: #325d25;
      }

      .st13 {
        fill: #749145;
      }

      .st14 {
        fill: #0c260c;
      }

      .st15 {
        fill: #050503;
      }

      .st16 {
        fill: #2e642c;
      }

      .st17 {
        fill: #749341;
      }

      .st18 {
        fill: #f7d399;
      }

      .st19 {
        fill: #050504;
      }

      .st20 {
        fill: #0b230a;
      }

      .st21 {
        fill: #759442;
      }

      .st22 {
        fill: #77944d;
      }

      .st23 {
        fill: #f7d298;
      }

      .st24 {
        fill: #769542;
      }

      .st25 {
        fill: #da411d;
      }

      .st26 {
        fill: #71903f;
      }

      .st27 {
        fill: #0b250a;
      }

      .st28 {
        fill: #0b260b;
      }

      .st29 {
        fill: #779643;
      }

      .st30 {
        fill: #336128;
      }
    </style>
  </defs>
  <path class="st19" d="M188.24,751.69c1.1.09-44.8-8.96-45.06-10.67-7.97-1.84-28.2-7.28-35.11-11.6-48.42-30.31-77.11-83.3-73.12-140.96.61-8.81,3.01-24.69,15.81-18.72,4.93,2.3,14.17,31.44,17.05,37.94,43.51,98.01,152.75,90.96,239.39,63.03,108.77-35.06,199.36-85.42,316.76-43.18,28.75,10.34,56.61,28.27,86.01,35.99,57.04,14.96,100.79-23.14,155.52-28.51,126.26-12.39,185.68,122.93,305.02,130.72,76.72,5.01,107.52-44.23,77.64-113.4-18-41.68-48.06-81.65-70.34-121.66-24.59-44.15-45.84-91.65-61.1-139.9-1.91-6.05-5.31-24.37-7.65-28.1-.52-.83-13.42-7.23-16.69-10.08-33.93-29.57-29.9-72.1-3.36-105.06,4.52-5.61,13.11-12.47,16.61-18.39,3.14-5.29,4.56-13.05,7.17-18.83,13.68-30.19,38.91-64.27,72.18-73.82,17.02-4.89,27.91-6.72,44.96-.96,3.69,1.25,12.92,7.15,13.69,7.3s11.66-4.19,14.96-4.73c25.57-4.21,44,4.99,56.56,27.23,6.18,10.94,12.28,25.19-.13,34.17,15.97,17.48,22.74,40.76,18,64.1-.14.91.23,1.4.95,1.91,1.75,1.24,20.36,3.59,23.51,3.59,12.06,0,24.06-4.17,36.87-2.96,8.96.84,24.06,6.7,30.27,13.23,4.9,5.15,10.53,19.16,11.23,26.27,2.93,29.88-17.06,55.3-44.87,63.87,17.25,14.42,26.78,33.53,33.26,54.74,6.92,22.62,6.76,40.34,24.19,58.81,2.3,2.44,13.27,8.08,5.58,10.51-9.78,3.1-31.16-13.13-37.55-20.54-3.53-4.09-5.85-9.06-9.48-13.01-2.85,10.15-3.04,21.35-.06,31.55,1.73,5.93,5.9,10.71,7.05,16.45-15.25,1.41-24.52-21.21-26.73-33.77-4.59-26.09,1.5-45.99-12.75-71.25-3.75-6.64-16.26-21.54-23.5-23.58-2.55-.72-12.27,6.82-15.64,8.48-38.25,18.78-65.77.04-102.55-8.2-8.85-1.98-17.8-3.66-26.82-4.67-1.85,1.92,11.21,38.88,13.25,44.24,13.37,35.17,32.51,67.2,54.34,97.66,32.17,44.9,87.9,80.42,99.12,134.88,40.41,196.13-103.81,214.02-103.81,214.02-4.81,3.18-44.61,5.08-51.9,6.4,0,0-57.42,1.79-107.62-5.02-61.5-8.35-155.7-65.85-218.28-77.29-71.01-12.98-84.24,20.65-155.63,11.28-113.25-14.87-110.26-70.49-224.44-78.18-102.36-6.89-184.12,44.19-286.13,32.15"/>
  <path class="st12" d="M1170,387c-.39,2.12-2.43,3.13-6.12,3.04l20.69,51.4.43,5.56c.66,1.34,1.33,2.67,2,4,1.9,1.6,3.78,3.29,5.07,5.44,12.32,20.49,24.88,40.45,37.68,60.63.63.99,1.03,2.12,1.41,3.29s.63,2.41.85,3.65c1.07,1.6,2.19,2.79,3,4,1.22.89,2.42,1.81,3.51,2.84s2.15,2.05,2.98,3.24c12.72,18.41,25.4,37.31,36.72,55.88l-.21,3.05c.74.93,3.23,3.8,4,4l3.23,1.72c9.98,18.09,19.96,36.17,29.94,54.26l-1.17,2.02v1c7.23,8.87,20.55,66.73,16.53,72.59l-2.53.41c-.21.16-2.05-.37-2.07.53-.01.74,1.54,3.87,2.07,4.47l1.47,2.53c-3.4,19.01-8.7,34.46-19.11,51.98-.44.74-1.14,1.33-1.88,1.92s-1.6,1.11-2.47,1.57c-.14.24-2.8-.6-2,4-12.41,18.35-31.86,30.34-50.87,40.98l-4.13.02c-.48.27-2.19-.22-3,0-.9.78-1.83,1.52-2.83,2.14s-1.95,1.18-3,1.46c-58.07,15.51-118.83,9.18-173.72-11.43l-1.45-2.18c-6.68-4.53-15.06-6.58-22.38-10.12-56.33-27.23-101.32-76.79-167.14-81.86-56.51-4.35-106.96,29.26-166.86,21.86-69.65-8.61-100.88-61.56-164.2-76.8l-29.43-5.07c-3.69-.74-10.61-.64-15.69-.49-.04,0,.27.21.69.49-.7,1.54-2.69.91-4,1-4.93-.67-9.93-.7-15.01-.1-2.57,3.9-12.02,3.23-8.51-3.34-3.57-2.7-3.01-5.69,1.67-8.97-2.82-.54-3.67-1.15-5.16-3.58q-2.5-2.04,0,0l1.72,2.25c5.03.76,5.55,1.76,1.58,3.01-3.05,5.82-4.76,4.18-8.88-.21-4.74-.05-7.46-3.04-8.17-8.98-3.08-3.16-2.42-3.71,1.35-4.46.22-.04-.57,1.63-2.24-2.59-1-2.52-1.29-3.03-3.42-5.64,1.01-6.63,7.78-7.05,13.29-7.35,2.53,1.66,5.8.49,6.09-2.34,7.64-.81,15.2-2.04,22.69-3.69.15,0,.62-.99,1.33-.87l.67.87c7.55,13.92,27.75,20.63,43,21,15.01,1.8,32.59.17,45.89-7.61,2.68-1.57,9.48-8.17,11.63-8.39,7.3-.77,25.37,9.85,33.49,11.01-8.12,24.67,13.63,45.99,34.64,54.85,25.98,10.96,61.33,9.5,76.06-17.88,24.1.16,47.5-8.48,69.73-16.95,21.92,44.24,104.66,38.99,122.05-7.01l44.51,23.5c-22.71,29.67,5.75,63.71,36.75,69.23,14.3,2.54,25.74-.16,36.78-9.75,1.64-1.43.78-3.88,3.78-2.84l36.26,21.82c-14.99,32.57,23.75,50.15,50.97,48.06,14.2-1.09,32.87-9.21,31.46-26.03,11.92-.6,23.94-.72,35.57-3.68,6.2,10.41,14.27,18.4,26.95,19.67,47.6,4.75,67.26-41.66,37.7-76.28,2.54-8.68,2.87-18,2.74-27.06,24.17-7.14,18.13-36.73,10.53-54.64s-21.65-28.97-42.29-29.22l-17.44-30.1c-1.7-4.18,3.29-9.21,4.16-14.27,4.78-27.82-19.91-62.61-48.96-63.87l-14.51-28.5c12.55-20.49,3.23-50.94-15.11-64.88-2.94-2.23-12.49-6.41-13.39-7.61-2.43-3.25-3.04-14.23-4.94-18.55,12.09,2.7,24.59,3.73,36.99,3Z"/>
  <path class="st30" d="M1147,285c.01-1.52-3.59-2.05-4.77-2.08-7.9,1.86-10.29.5-7.17-4.1-5.05-3.94-.57-7.64,4.53-5.07l13.24-7.26c3.28-4.64,4.35-4.38,7.91-.83v-3.15c-9.38-3.32-3.74-10.71,4.47-8.15,2.84-7.12,5.11-6.58,6.8,1.63.05.32.76,1.74,1,3-.96,2.28-.62,3.95,1,5,5.65,21.36,21.72,44.42,45.62,46.88,27.54,2.83,48.54-21.06,51.39-46.88,5.49,4.68,6.23,12.51,11.66,16.83,10.79,8.57,38.35,11.12,51.82,10.16s26.6-6.94,40.15-8.85c20.44-2.87,44.58.1,46.39,25.32,3.6,50.14-72.44,55.98-107.28,50.29-20.49-3.35-37.07-14.2-56.3-19.7-28.92-8.27-64.21-2.31-82.45-30.05-1.15-1.83-2.82-4.16-5-7-4.07-4.13-9.03-9.19-14-12-1.49-1.31-3.02-2.34-5-2-1.28-.49-3.28-1.81-4-2Z"/>
  <path class="st16" d="M1188,358c-7.84.04-15.69-.03-23.54-.05-40.45-.05-83.61-15.39-79.44-64.44,1.34-15.81,16.03-45.52,34.48-45.52h22.5c.39-5.66-13.14-8.5-17.66-8.95-2.07-.2-5.95,2.27-5.28-.48,1.26-5.15,5.71-14.77,8.08-19.93,16.68-36.21,47.78-76.34,92.9-69.18,12.05,1.91,24.71,13.69,31.79,23.21,2.49,3.36,8.53,15,10.61,16.39,1.2.81,2.06,1.21,3.56.93,2.39-1.69-3.3-15.2-4.52-17.96-2.58-5.8-5.61-11-9.47-16.02,16.4-4.9,33.22-4.41,44.98,9.51,2.4,2.85,12.59,18.8,9.01,21.48-11.77-5.34-22.54,7.58-33.28,11.21-15,5.06-25.87-4.81-39.94-9.48s-25.57-7.05-39.98-3.43c-8.41,2.12-19.36,7.31-20.79,16.7.44.49,10.99-3.2,12.99-1.5-12.79,15.07-15.73,36.4-13,55.5l-.98.5-1.03-5.49h-.97c.42,3.39-2.76,1.95-5,.99l4.99,2.01c-.86,3.87-4.45,1.71-5,2-.44.23,1.17,9.54-3.01-1-9.83,6.84,5.01,2.34,1.01,9.99,2.06.2,4.67-1.15,4,2-2.04-.23-4.11.97-6.09.58-2.31-.46-1.79-2.46-1.93-2.55-2-1.33-2.09,1.8-3.57,2.85-2.57,1.82-8.77,1.62-5.97,5.19.62.79,2.51.95,3.57.95-2.44,7.17-2.99-.25-6.53-1-2.71-.57-.95,2.41-1.49,2.99l-2.5-2c-.44,4.15-4.94-.27-6.49,1-1.99,1.63,2.2,1.69,2.09,3.47-.13,2.22-1.18,2.85-2.1,4.52,3.43.64,6.05-1.27,8.52-2,.63-.18.23,1.9,1.05,2.04.54.09,1.47-.84,1.91-.82.61.03,2.05,2.72.51,2.78-9.67-2.55-19.81-.57-27.04,6.46-4.76,4.64-6.86,10.47-7.01,17.1-.08,3.85,1.73,6.93,5.05,3.44l1.31.05c3.28,13.32,10.58,17.35,22.41,23.52,14.65,7.64,30.08,14.03,45.71,19.02,1.87.86,2.02,1.86.57,3.41Z"/>
  <path class="st4" d="M51,626c-1.88-8.55-3.33-16.79-3.62-25.67l1.61-8.33c11.24,43.09,41.11,78.24,81.33,97.17,13.52,6.36,22.9,7.12,35.43,15.84,13.94,9.7,32.2,12.53,48.22,6.45,4.42-1.68,8.92-6.23,11.77-7.23,7.03-2.46,19.3-1.47,26.91-4.2,2.6,0,7.91,5.52,11.65,7.15,22.89,9.94,56.5-1.81,70.1-22.28,2.28-3.43,3.54-9.12,6.86-11.14,2.05-1.24,25.79-9.96,27.23-9.82,1.85.18,4.49,5.05,7.17,6.87,9.11,6.21,25.61,4.92,35.77,2.11,14.56-4.02,27.79-13.2,36.4-25.6,1.48-2.14,4.22-9.11,5.18-9.82,3.21-2.36,34.49-7.42,39.98-7.52-4.23,2.92-9.61,2.04-14.28,3.06-.84.18-.71,1.83-1.16,1.81-1.66-.07-4.29-1.66-6.57-.87,2.03,3.69-.48,4.2-3.99,4l1.99,1.98c-4.11-.14-4.11-3-8.63-2.61-10.72.93-10.96,8.67-1.37,6.62l-2.99,3.01,1.99,1.98-2.99,2c6.2-1.97,5.45,1.23,0,2.02-.44,1.64,1.3.65,1.7,1.15.3.37,2.02,7.72,3.43,8.76.29.21,1.83-.69,3.4-.03,2.29.95,3.82,3.04,4.95,5.1,1.24-3.04,3.19-2.81,5.5-4.5l-3.98.51c-.11-1.38-.88-2.63-1.01-4.01-4.86-.41-4.15,2.13-4.49,2-3-1.19.94-4.73.49-6.99-.67-.69-4.75,3.43-6.99.98-.84-.91,2.72-4.84,3.93-3.9.15.11-.15,1.87.66,2,1.17.18,3.16-1.06,4.92-1.05,1.36,0,5.27,1.05,6.01.79.53-.18.44-3.28,2.44-1.78.21.16-.4,3.25,4.02,1.97.27,1.51-2.85,1.34-3.87,1.38-2.36.09-4.73-.7-7.12-.38,1.4,1.73-.1,3.99,0,4.99,2.81.24,1.73,2.96,4.49,1.99,1.95-.68.38-2.91.51-2.98,1-.53,5.33.35,7,0,1.68,5.01-8.12,6.47-8.51,6.93-.17.2-.47,3.64-.32,3.85,1.4,1.93,4.3.03.83,6.21l5.99,1.01v-3s-1.99-.98-1.99-.98c4.48-2.33,3.8.52,4.47.75,3.05,1.04,3.95-1.33,9.03,1.23.79.4-.13-2.73,1.97-1.99l3.52,2.99c-12.74.84-24.88,3.67-35.01,11.49-.85.66-3.79,2.98.01,2.51-2.18,1.21-4.44,2.42-6.91,2.88-42.8,7.91-84.85,17.75-126.94,28.92-98.35,23.95-242.26,17.46-276.15-95.79Z"/>
  <path class="st21" d="M51,626l13.01,28.29c46.8,73.59,137.26,83.27,217.39,73.61,61.71-7.44,117.15-30.76,179.6-37.9,23.35-2.67,39.04-3.79,62.72-1.38.95.1,4.49-1.45,1.62,1.47-5.6,5.67-8.63,10.75-4.34,18.9-4.91.88-9.88-.87-14.46-1.03-99.16-3.53-185.98,43.72-286.08,39.08-75.29-3.49-152.2-42.53-169.46-121.04Z"/>
  <path class="st11" d="M1065,827c6.83.5,12.44,4.21,19.23,6.27,55.9,16.91,105.71,19.09,161.77,3.73-1.59,8.13,4.34,12.06,9.66,16.84l11.33,6.15c-55.41,13.36-114.73,9.09-170.2-2.28-47.88-9.81-90.13-31.33-131.64-56.36-8.91-5.37-11.89-9.95-6.63-20.37,26.53,16.87,52.17,39.12,84.25,44.75,7.9,1.39,14.6.71,22.23,1.27Z"/>
  <path class="st23" d="M1195,282c-1.36-2.5-.51-3.32,2-2l2.26-.81c26.83,12.38,19.98-58.68-4.66-37.3-1.46,4.21-3.33,6.25-5.6,6.11l-.68,1.31c-.16,10.67-1.27,13.57-3.32,8.69-4.26-19.42-2-40.25,12.03-55.47,6.37-6.92,11.27-4.86,20-3.07,14.37,2.95,22.94,7.59,31.38,19.62,13.14,18.74,17.21,47.19,2.1,65.92-16.53,20.5-41,18.07-55.51-3.01Z"/>
  <path class="st26" d="M1118,312c1.31-6.78,15.54-14.16,22.27-12.78,2.26.47,12.07,7.01,14.23,8.78,10.79,8.81,15.55,19.8,28.83,27.17,18.62,10.33,43.03,8.07,63.88,13.12,27.87,6.75,52.79,25.61,82.79,24.72-1.09,2.05-4.64,2.99-6.74,3.75-33.6,12.06-56.87-6.44-88.22-13.29-14.95-3.27-34.17-2.25-47.04-5.46-.12-.03-.44-1.38-1.72-1.74-14.82-4.2-52.29-19.9-62.83-30.23-1.76-1.72-5.79-12.25-5.45-14.03Z"/>
  <path class="st2" d="M1328,729c4.85-3.74-7.64-53.62-10.34-61.16-1.19-3.33-4.99-8.73-3.66-11.84,2.52,4.92,8.5,5.64,13.46,6.04,10.88.86,21.31-1.39,31.58-4.56,4.62,2.16,13.47,34.95,14.64,41.34.85,4.61,3.05,18.57,2.3,22.66-.91,4.95-12.13,10.2-16.77,11.25-10.42,2.36-21.97,1.88-31.22-3.72Z"/>
  <path class="st21" d="M1328,734c8.05,9.03,37.58,7.66,47.99,2-.51,14.48-3.88,27.83-9.24,41.25-2.26,5.64-9.48,22.21-14.04,24.96-13.64,8.24-37.49,2.7-46.71-10.21,5.75-9.7,11.09-19.58,15.5-30l6.5-28Z"/>
  <path class="st28" d="M921.97,656.04c2.45,3.45-10.6,16.62-13.49,18.93-19.53,15.66-52.96,16.29-74.54,4.58-3.79-2.06-15.72-12.82-15.02-16.96.22-1.28,20.9-7.61,23.85-8.34,25.74-6.34,53.96-6.44,79.2,1.78Z"/>
  <path class="st17" d="M1304,796c2.11,12.1,27.86,20.87,39,19.01-4.66,7.68-12.8,14.12-20.11,19.38-8.95,6.44-31.91,19.92-42.35,20.65-12.09.84-25.75-7.65-31.54-18.04,20.1-11.21,37.12-21.13,52.41-40.13,1.1-1.37-.2-2.86,2.59-.87Z"/>
  <path class="st24" d="M1314,655l-32-58c3.41.88,13.52.4,17.24-.26,5.77-1.03,10.68-3.61,15.76-6.31,15.07,17.96,30.12,36.51,39.92,57.97-1.14,4.91-34.94,10.85-40.92,6.6Z"/>
  <path class="st18" d="M1289,273.99l6.44-5.05c10.53-14.68,2.51-45.91-19.38-32.38l-5.05,6.43c-.53-4.37-2.3-7.74-1.93-12.36.19-2.37,4.77-14.23,6.18-15.38.74-.61,2.77-.62,4.06-1.42,3.5-2.15,16.65-11.88,19.21-11.82,2.89.07,11.87,10.46,13.7,13.25,9.9,15.06,13.45,38.71,5.96,55.43-.76,1.71-3.85,7.15-5.21,7.87-3.35,1.76-19.15-5.36-23.98-4.57Z"/>
  <path class="st29" d="M1235,528c9.3,2.57,18.62-1.23,26.98-5,13.13,20.97,30.03,39.64,45.88,58.68l.71,2.34c-1.57,3.17-13.7,7.23-17.33,7.71-4.43.59-9.33-.74-13.24,1.26-4.13-5.16-7.25-11.96-11.01-17.49-10.72-15.75-21.59-32.05-31.99-47.51Z"/>
  <path class="st21" d="M1232,524c-15.58-23.21-32.05-47.37-45-73,9.61,4.33,20.14,3.94,29.52-.75,1.98.16,13.49,24.26,15.68,28.05,7.38,12.77,15.84,24.9,23.7,37.36.41,4.17-19.91,9.06-23.9,8.33Z"/>
  <path class="st3" d="M728,683.01c-3.6,10.13-18.89,15.62-28.76,16.75-21.6,2.47-50.3-11.63-60.72-30.83-.51-.94.43-2.26.22-2.73-.1-.22-1.48-.32-1.72-.87-1.91-4.2-1.19-9.95.01-14.32,29.85,12.1,58.13,29.04,90.98,32.01Z"/>
  <path class="st28" d="M1043.86,734.87c-4.7,2.35-7.44,7.19-12.82,8.66-21.38,5.84-53.47-13.22-55.01-36.05-.4-5.87,1.09-21.63,9.94-17.96l57.91,43.13v2.21Z"/>
  <path class="st6" d="M1185,447c-9.22-18.72-15.26-39.54-23.99-58.51l8.99-1.49c7.35-.44,15.94-1.67,22.51-4.98l1,.96c3.54,13.41,7.37,26.92,12.03,39.97,1.52,4.27,8.05,16.9,8.33,19.73.25,2.52-8.32,4.95-10.45,5.23-5.75.75-12.73.07-18.42-.92Z"/>
  <path class="st0" d="M867,751.01c-2.67,8.85-3.36,16.91,2,24.98-10.42.74-21.12.81-31.49,2.02-6.79.79-24.83,5.52-29.8,4.81-6.72-.96-12.64-17.44-7.99-22.84,22.09-4.88,44.49-9.88,67.28-8.97Z"/>
  <path class="st6" d="M946.99,792c-17.76-7.3-36.49-12.61-55.62-14.87-9.19-1.09-14.94,1.91-17.13-10.86-3.12-18.23,8.14-15.09,20.81-12.82,7.59,1.37,16.17,3.95,23.47,6.53,5.03,1.78,29.36,12.21,31.01,16,.33.75-4.69,12.76-2.54,16.02Z"/>
  <path class="st3" d="M1219,776.01c19.95-5.22,41.07-21.32,48.01-41.01,6.82,2.26,10.62,11.78,10.98,18.53,1.33,24.6-21.73,41.41-45.04,35.02-5.44-1.49-13.68-6.36-13.95-12.53Z"/>
  <path class="st20" d="M1165,782.01c-2.08,12.05-11.8,17.93-23.51,18.98-18.83,1.69-50.22-7.27-46.42-31.42,1.19-7.57,4.17-3.27,7.75-1.88,19.3,7.5,41.46,13.41,62.18,14.32Z"/>
  <path class="st5" d="M592.99,733c-12.85-7.86-26.97-14-41.57-17.92-4.65-1.25-21.58-3.66-23.76-5-4.68-2.86-1.25-16.6,6.32-18.62,5.38-1.44,22.39,4.49,28.29,6.77,4.67,1.8,35.09,16.6,35.74,19.3-3.17,4.84-5.88,9.4-5.01,15.47Z"/>
  <path class="st1" d="M729,770c-2.22,8.56.06,16.08,5.99,22.5-10.1-.37-20.85-.97-31.03-2.97-5.6-1.1-35.87-9.8-38.04-13.2s-1.09-16.14,3.49-16.29c2.98-.09,17.91,5.23,22.77,6.27,12.11,2.59,24.39,4.28,36.82,3.69Z"/>
  <path class="st7" d="M789,762.99c-.07,9.38,3.48,16.58,10,23-15.91.99-36.77,8.44-52.44,5.95-7.66-1.21-14.82-15.53-8.9-21.99l51.35-6.96Z"/>
  <path class="st25" d="M1420.99,460c-5.68-4.17-8.08-12.08-12.16-17.33-.86-1.11-1-2.07-2.82-1.66l-8,19.99c.17-27.54-3.23-54.2-21.98-75.52l-12.02-11.46c4.26-.18,8.71-2.18,12.96-.47,6.41,2.59,18.9,17.1,22.85,23.15,12.87,19.72,14.75,41.25,21.18,63.31Z"/>
  <path class="st6" d="M656.99,772c-2.11,2.34-48.91-29.56-54.05-32.43-5.5-5.45-.44-11.14,2.08-16.56l30.07,20.41,24.46,12.55c.9,1.12-2.07,5.04-2.46,7.62-.41,2.73.08,5.65-.09,8.41Z"/>
  <path class="st27" d="M582.99,632.01l-9.32,6.16c-21.19,9.13-50.69,5.83-67.68-10.17,25.83-1.32,51.62-1.86,76.99,4Z"/>
  <path class="st3" d="M1274.01,686c-3.76-22.4-13.76-42.58-23-63,20.08.63,30.63,27.51,31.86,44.62.53,7.31-.25,16.81-8.86,18.38Z"/>
  <path class="st14" d="M443,640.01c-7.79,13.2-21.13,21.74-35.79,25.7-9.54,2.58-24.61,4.96-30.2-5.22l65.99-20.48Z"/>
  <path class="st20" d="M1218.01,571l-31-58c14.14,4.75,23.95,14.87,30.17,28.32,3.94,8.52,8.25,22.1.84,29.67Z"/>
  <path class="st10" d="M265.01,698.99l64.98-20.99c.44,1.88-1.05,2.38-1.99,3.5-14.93,17.81-41.1,27.1-62.99,17.48Z"/>
  <path class="st4" d="M538,651l-1.51,4.01-3.48-1.02,1.99-1.98c-2.95.7-7.19-2.1-9.43-2.06-.38,0-4.67,6.68-2.56-.94-2.97-.47-4.73.26-6.99,1.99,2.68-2.66-3.56-6.08-4.52-5.98-1.19.12-.88,3.31-2.48,2.98-.26-2.39-2.3-3.22.98-3,1.5-.86-7.07-4.13-8.01-4.65-1.08-.6-.61-3.41-3.99-2.34,1.65,2.86.46,4.4-2.99,3.98-.56-.43,2.47-2.44,2-2.98-.32-.37-2.39.82-1.99-1l3.99-2-2.85-.47-1.15-5.54c10.18,13.84,26.51,19.02,43,21Z"/>
  <path class="st8" d="M1189,248l1.75,1.85c-1.19,9.49-.77,20.39,6.36,27.58l-.1,2.57-2,2c-5.74-8.34-7.86-14.24-10-24l1.99,1.99,1.03-13.01c.45.13.83,1,.98,1.01Z"/>
  <path class="st4" d="M500,675c-1.11-.05-3.26.69-2.99-.99l5.99-.02-2.99-2.99c3.91,1.97,2.09-2.07,6.99,0l-2.99,2.98c3.89-1.52,10.11,2.35,11.49-1.99l2.5,2.99c-.99.06-2-.04-3,.01-4.7.24-10.3.23-15,0Z"/>
  <path class="st16" d="M1174,264c-7.1,2.58-4.8-2.26-1-5,.28,1.45.68,3.78,1,5Z"/>
  <path class="st22" d="M1335.01,278.01c.77,3.83-5.81,1.34-8.01,1.98,1.71-4.25,4.52-2.06,8.01-1.98Z"/>
  <path class="st16" d="M1175,308c-2.46-1.42-4.34-4.22-5-7,2.06,2.08,4.4,3.72,5.98,6.51l-.98.49Z"/>
  <path class="st16" d="M1151,287c1.88-2.31,5.4-3.28,2.98,0l3.03.02-1.01,1.99c-1.3-.74-3.51-1.42-5-2Z"/>
  <path class="st4" d="M501,652.99l-2.99,1c3.65-.09,1.24.33,1,1.49-1.07,5.13-1.59,9.18-7,4.02l2.99-.51c.53-1.27-1.27-6.73-1.01-6.97.5-.44,6.98-1.92,7.01.97Z"/>
  <path class="st4" d="M502.99,662.01c-2.09,3.75-8.87,2.39-6,6.98-3.3.76-5-5.11-2.49-5.99.87-.3.14,2.04,1.08,2.07,5.06.16,2.18-3.84,2.42-4.07l4.99,1Z"/>
  <path class="st4" d="M472.01,645.01c.35.26-1.62,1.87-.5,2,11.35-3.73-2.6,7.9-6.5,3.48l5.99-.5c-2.54-2.03-1.31-6.71,1.01-4.98Z"/>
  <path class="st4" d="M510.99,660.01c.31,1.54-1.7.96-2.41,1.96-.55.78.49,2.26-1.09,3.02-.53-3.64-2.77-.42-3.49-1-1.67-1.34,3.55-3.25,3.15-4.83l3.84.84Z"/>
  <path class="st4" d="M491,664.01c.17.12-.93,2.83,1,3.98-3.44.44-6.94,1.57-5.99-2.98l1.49,1.99c1.1-.54,1.42-4.5,3.51-2.99Z"/>
  <path class="st4" d="M497,643.99c1.11-2.04,6.68-2.89,7.98-.49l-7.98.49Z"/>
  <path class="st9" d="M1346.73,307.19c16.26-3.55,15.2,21.13,1.32,25.35-16.39,4.98-12.89-22.82-1.32-25.35Z"/>
  <path class="st15" d="M1408,310c4.17,1.87.58,13.7-4,13-3.14,3.26-13.13,9.01-13.92,1.4-1.5-14.46,15.71-26.68,17.92-14.4Z"/>
  <path class="st13" d="M1408,310c.18-1.09,2.88,1.15,1.97-1.47-1.16-3.34-4.63-5.73,2.91-5.41.2,1.11,1.19,2.28,1.19,3.31,0,1.12-2.51-.15-2.08,1.56.81.12,2.86-.54,3.06.56.85,4.48-1.6,12.16-3.86,16.16-1.34,2.37-4.09,6.03-5.21,2.3l1.99-2.01c-2.59,1.84-1.74-.77-3.99-2,2.48-2.58,4.63-9.5,4-13Z"/>
  <path class="st16" d="M1152,279.02c.49.65-1.22,2.92-1.02,3.98-7.59-2.58-1.28-7.03,1.02-3.98Z"/>
  <path class="st19" d="M1197,280c-9.15-7.35-9.71-21.31-8-32,.88.09,3.19-10.73,10.55-11.94,17.4-2.86,19.87,19.77,18.34,32.33-1.34,10.96-10.86,19.67-20.89,11.61Z"/>
</svg>