<?xml version="1.0" encoding="UTF-8"?>
<svg id="Layer_1" xmlns="http://www.w3.org/2000/svg" version="1.1" viewBox="0 0 1536 1024">
  <!-- Generator: Adobe Illustrator 29.5.1, SVG Export Plug-In . SVG Version: 2.1.0 Build 141)  -->
  <defs>
    <style>
      .st0 {
        fill: #b6480a;
      }

      .st1 {
        fill: #b34409;
      }

      .st2 {
        fill: #b54509;
      }

      .st3 {
        fill: #b44509;
      }

      .st4 {
        fill: #d8841d;
      }

      .st5 {
        fill: #060506;
      }

      .st6 {
        fill: #060504;
      }

      .st7 {
        fill: #050503;
      }

      .st8 {
        fill: #f5cd91;
      }

      .st9 {
        fill: #ea3;
      }

      .st10 {
        fill: #da871e;
      }

      .st11 {
        fill: #b44409;
      }

      .st12 {
        fill: #f6cd90;
      }

      .st13 {
        fill: #b6460a;
      }

      .st14 {
        fill: #b34309;
      }

      .st15 {
        fill: #b34208;
      }

      .st16 {
        fill: #bc411d;
      }

      .st17 {
        fill: #060604;
      }

      .st18 {
        fill: #eba32d;
      }

      .st19 {
        fill: #b6480b;
      }

      .st20 {
        fill: #060605;
      }
    </style>
  </defs>
  <path class="st17" d="M1396.89,789.93c10.43-12.41,15.94-30.43,17.2-46.72.34-4.42.1-11.4-1.09-15.22.87-54.82-19.75-78.29-48.83-119.67-37.99-54.06-21.83-75.04-2.71-130.38,26.42-76.5,35.32-143.23,10.05-221.95-13.06-40.7-45.61-86.93-88.49-99.51-4.62-1.36-14.53-2.34-17.97-4.03-2.11-1.04-7.79-10.44-10.4-13.1-13.97-14.29-45.28-27.13-64.99-24.18-3.21.48-6.75,1.24-9.88,2.11-3.67,1.03-17.83,8.01-19.14,7.8-.31-.05-2.18-3.37-3.7-4.53-29.86-22.85-86.75-4.18-93.3,34.4-.57,3.37,1.11,6.29-.38,9.79-1.3,3.05-9.93,10.23-12.69,14.32-11.14,16.53-13.14,37.52-12.58,56.93-15.44-4.42-34.18-6.87-50.22-4.72-22.04,2.95-37.89,11.44-48.96,31.03-16.46,29.12,2.66,74.65,36.2,80.7,1.89,1.97-10.74,13.73-12.44,16.06-4.14,5.7-7.12,13.06-11.08,18.94-5.71-4.81-11.37-9.61-17.13-14.35-71.56-58.94-152.57-89.6-244.95-102.55-83.29-11.67-166.56-5.01-246.2,20.6-109.18,35.12-195.18,103.86-254.42,202.58-2.91,4.84-5.55,12.32-8.79,16.72-2.27-.83-2.93-.16-2,2-4.83,11.1-8.48,21.43-12,33l-2.13,2.46c-6.73,19.5-13.18,41.15-12.87,61.54-.97,3.24-1.84,30.23-1.78,35.26.11,9.48,1.32,24.34,2.78,33.74l-.97,2.16c7.62,19.15.48,27.61-13.64,42.01-.53,1.23-.65,2.51-.39,3.83l-3.54,1.51c-13.08,18.88-26.16,39.94-30.17,62.9-18.15,104.12,83.15,136.62,167.55,127.43l40.04-4.08c34.75-4.38,67.11,1.1,95.5,20.86,49.51,27.28,72.99-28.55,43.85-65.22,195.84,29.19,393.8,15.87,588.64-12.91,21.54-2.58,43.23-4.7,64.91-4.68,30.76,1.44,60.33,2.25,88.72,2.44l94.92-4.07c38.5-6.34,82.29-13.82,120.78-26.81,25.05-8.46,9.08-27.24-11.31-24.42ZM1157.4,441.83c-.28,12.55-7.11,23.78-17.96,30.03-5.77,3.32-11.21,7.91-17.91,9.03-6.43,1.08-13.26.63-19.75.39-14.29-.54-29.75-1.68-43.42-6.14-9.37-3.06-16.17-9.04-23.07-15.28-.88-.43-1.49-1.02-1.86-1.68-1.9-1.71-3.82-3.42-5.82-5.08-3.96-3.28-8.25-6.14-12.3-9.31-2.77-2.16-6.74-4.79-7.65-8.42-.1-.41-.15-.8-.16-1.18-1.87-.68-3.45-2.29-3.55-4.56-.25-5.59,1.92-10.82,4.5-15.81.69-2.7,1.32-5.41,2.08-8.1,1.56-5.55,3.03-11.77,6.73-16.34,8.29-10.26,27.41-4.68,37.66-1.01,14.55,5.21,30.52,6.95,45.72,9.43,7.86,1.28,16.08.49,23.75,2.81,6.2,1.88,12.33,5.1,17.84,8.48,11.37,6.99,15.47,19.84,15.17,32.75Z"/>
  <path class="st17" d="M1207.57,846.85"/>
  <path class="st17" d="M1239.4,835.38"/>
  <path class="st17" d="M1278.78,832.38"/>
  <path class="st4" d="M762,291l-.38,3.05c-31.2,35.41,1.36,87.16,46.16,86.4,27.78.95,52.3,7.15,76.82,20,18.01,7.09,42.51,5.03,58.06-6.11l2.35-.35c.35.86,1.7,1.67,1.01,3.36-7.29,22.34-8.5,53.76-31.1,67.05-3.74,2.2-12.25,3.7-14.01,6.05-2.99,3.99,3.7,6.08,6.69,6.46,21.43,2.7,40.52-11.44,54.4-25.92-.38,10.32-5.43,21.83-10.96,30.53-2.17,3.42-11.54,13.17-11.86,15.19-.9,5.82,4.72,4.65,8.88,3.83,4.31-.85,16.12-6.41,20.25-8.75,16.23-9.2,29.91-29.6,33.71-47.8,2.67-2.24,14.1,12.47,16.34,14.65,2.45,2.37,6.58,4.66,9.18,7.3,24.9,25.24,45.39,54.14,63.39,84.63,8.84,7.39,2.36-12.36,1.07-15.57l1.99-1.84c22.36.74,28.98-27.8,18.31-43.73l.7-2.43c7.9-1.34,13.89-3.4,21-7,6.29-1.23,16.11-.1,17.74,7.39,5.94,3.4,11.2,8.13,14.82,13.95l2.61.77c4.52,4.78,5.63,21.07,4.62,27.72-.68,4.51-4.38,16.3-9.78,14.17-1.53,1.24-3.87,1.32-7.03.25,2.13,3.22,2.81,5.8,2.03,7.75,3.77,3.41,2.87,4.96.32,8.92-5.78,1.18-8.41,5.02-7.76,10.81-2.81,1.4-4.37,3.42-4.68,6.06-4.01,2.47-6.85,5.76-8.52,9.85-12.14,8.77-24.52,20.15-34.4,31.71-2.48.13-4.53,1.55-6.16,4.26-10.71,6.86-21.32,14.13-31.81,21.8-7.52,5.92-15.48,10.7-23.86,14.33-6.03,5.34-14.11,9.62-21.38,13.45-2.07,1.09-3.97,1.59-6.31,1.13-10.63,7.9-22.65,13.98-36.06,18.23-22.44,12.63-48.64,20.11-73.23,26.96l-2.3-.91c-1.74,1.91-3.92,4.03-6.6,2.83-4.8,2.95-12.08,4.71-17.33,3.7-1.79,1.08-4.03,1.68-6.72,1.8.82,3.33-2.07,5.46-4.43,2.28-15.05,2-30.28,4.48-45.67,7.43-2.54,2.49-6.31,3.01-11.32,1.54-1.74,2.08-3.47,1.64-5.33.17-2.8,1.77-5.1,1.82-6.9.16l-7.6,2.03c-35.06,5.81-72.16,5.24-108.34,3.67-2.82.87-5.91,1.11-8.91,1.08-24.82-.25-49.62-1.68-74.01-3.47-2-.15-4.24-.51-5.79-1.86-6.26,1.62-14.86.69-21.43-.27-35.35-5.18-71.98-11.51-106.93-18.31-1.6-.31-3.31-1.08-4.67-2.03-6.71-1.22-13.39-2.67-20.03-4.36-2.15,4.44-9.08.45-9.55-3.22-3.55-.31-6.33-1.68-8.32-4.1-2.39.52-4.33.74-5.83-1.6-10.66-2.27-20.92-6.51-30.76-11.16-3.76,2.53-5.25-.15-6.63-3.51l-9.81-3.56c-2.98.23-5.18-1.25-6.6-4.43-5.85-1.6-10.79-4.88-15.56-8.56-3.18,1.76-5.75.25-7.7-4.55-3.7.62-6.02-.47-6.99-3.28-6.73-1.61-9.99-3.63-12.58-10.01-17.17-10.8-32.11-26.93-45.85-42.15-.24-2.4-1.47-4.24-3.68-5.53l-1.97-9.31c-3.02-16.05-8.6-8.82-8.8,3.5-.98,60.88,63.19,118.05,49.5,171.7-.73,2.88-5.35,14.51-9.26,8.85-1.13-1.64.69-13.46.62-16.59-.44-18.24-7.53-36.41-17.66-51.37-6.67-9.85-19.05-25.31-32.32-22.01-1.62,6.65,4.73,7.67,8.39,10.94,11.76,10.52,21.64,26.77,26.01,41.99,2.41,8.36,8.62,39.93.91,44.89-1.59,1.03-12.98,2-15.87,2.16-5.16.28-10.54-1.36-15.87.01-4.29-9.69-9.77-20.43-16.68-28.55-3.85-4.53-7.44-8.96-13.98-7.53-.13,2.1-.17,3.93.55,5.96,1.51,4.3,9.34,13.69,12,19,1.71,3.41,2.54,7.23,4.44,10.56-2.99.56-12.97-.38-10.54,5.46,2.8,6.7,22.52,5.7,28.55,6.03,4.05.64,5.12,1.92,3.2,3.85-20.31,7.5-26.47,31-3.58,40.57,20.42,8.53,41.08,4.63,61.35-2.44,4.66-1.62,28.19-11.21,29.49-13.79,2.16-4.29,1.88-11.8-1.34-14.93l1.89-1.26c23.16,6.38,39.3,12.67,59,26l-1.68,2.2c-28.93,4.04-17.8,35.77,4.31,40.8,7.82,8.96,24.99,7.08,30.91-2.17.38-.6,1.61-.27,2.46.17,3.71,10.21,5.86,22.19-2.98,30.52-15.35,14.48-35.34-9.87-48.71-17.32-45.76-25.51-94.74-5.31-142.8-3.75-56.54,1.83-127.8-18.05-133.49-84.95-.5-5.9,1-11.64.98-17.49,2.42-1.39,3.62,1.36,3.6,8.23,2.53,13.64,20.85,23.08,33.32,25.88,17.08,3.83,42.19-.7,41.43-21.45-5.46-13.97-8.77-24.72,2.31-37.08,47.55-38.74-3.28-87.17-45.27-41.78-2.01,1.22-2.87.4-2.4-1.81,2.28-3.45,4.83-6.84,7.48-10.02,7.33-8.8,17.45-17.97,23.93-27.07,2.51-3.52,11.71-18.35,6.6-21.42-8.07-4.85-11.22,12.66-18.91,12.45l-3.71-21.6c-.63-9.39-.39-18.91-.39-28.34l2.12-2.55c38.08-9.58,54.84-69.99,25.95-96.39-3.36-1.19-5.71-2.87-7.06-5.06,5.39-12.97,10.98-23.84,18-36l2.71-.5c18.54,11.57,35.23-3.78,48.65-16.23,20.53-24.51,43.7-40.01,74.54-47.84,22.63-7.9,40.52-20.68,41.41-46.56.64-18.69-18.64-24.65-34.24-23.49l-1.06-2.39c36.16-23.98,67.63-40.05,109-54,6.97-.62,2.47,3.69-1.57,5.82-45.34,36.35-4.33,75.45,42,58.78,21.33-12.25,43.59-19.64,68.29-13.06,43.48,13.8,91.6,27.13,117.09-22.88,7.02-13.77,12.15-33.72,4.45-47.95l.74-2.71c28.53,3.51,57.31,9.36,85,17Z"/>
  <path class="st18" d="M1214,631c.76.41,1.55,1.12,1.34,1.83-1.72,5.85-4.34,19.42-3.43,25.23,2.21,1.87,1.59,4.45-.91,2.94-2.81-.31-5.49,1.89-5.98,4.53,6.42,50.8-16.2,84.24-60.52,105.49-1.37.66-.81,1.54-2.48-.52,10.33-16.33,13.58-41.49,10.32-60.35-.47-2.74-3.68-13.28-5.99-14.04-7.41-2.43-3.43,10.75-3.31,14.34,2.21,71.29-46.71,98.33-109,111.08-2.78.57-16.83,3.53-18.03,2.46,2.8-8.35,8.37-14.72,11.28-23.21,6.68-19.42,7.87-58.07-3.88-75.69-2.44-3.66-7.05-4.29-7.15.17-.13,5.82,3.07,16.62,3.73,23.25,8.62,86.2-53.35,93.84-122.41,96.49-4.44.17-39.32-.3-40.57-2.02,1.62-3.91,4.89-6.47,7.16-10.32,11.58-19.61,9.68-63.07-4.32-81.02-2.45-3.15-7.05-5.77-7.42-.16-.29,4.45,5.54,21.21,6.44,28.14,6.93,53.51-19.76,73.08-69.39,77.37-39.72,3.43-75.41-2.36-88-44.98-5.15-17.46-3.77-34.34-5.5-52-5.72-3.98-7.87,16.09-8.03,18.45-1.65,24.24,3.2,50.2,19.04,69.08.74.88,4.69,1.88,3,3.45-.87.81-20.56,3.62-23.51,3.99-35.46,4.45-107.49,6.07-136.96-15.01-15.42-11.03-30.52-40.66-30.52-59.48v-28c0-.71-2.48-3.33-4.56-1.57-4.67,3.96-4.9,30.13-4.48,36.61.95,14.73,7.05,31.51,15.22,43.78,1.85,2.78,9.51,10.27,9.7,12.34.11,1.22-.46,1.86-1.53,2.19-4.83,1.47-25.51-.23-31.84-.85-61.59-6.07-120.57-35.08-126.38-103.62-.63-7.41.74-15.86-.08-22.92-.69-6-4.66-3.69-6.28.82-5.97,16.71,0,48.17,7.05,64.4,4.49,10.32,12.37,18.88,16.16,29.33-29.46-7.51-58.75-27.63-67.54-57.95-6.93-23.91-9.35-40.77-21.07-63.93-19.23-37.99-26.18-47.56-34.38-91.12l2.03,8.99c1.71-.98,3.25.45,4.74,1.22l.46,3.59c11.66,11,23.41,25.44,35.54,35.16,2.97,2.38,12.81,6,11.21,10.03h3.02c.39.36-1.23,2.79-1.02,3,.41.42,9.42,3.17,11.02,4.03-2.68,3.92,2.85,1.37,4.94,2.5,2.44,1.31,2.86,5.23,3.07,5.49.14.17,2.61-1.36,4.33-1.04.52.1,6.99,4.89,8.56,5.74,2.57,1.39,5.55,2.07,7.05,2.76,1.95.9,2.47,3.69,3.24,4.27.24.17,2.11-.32,3.29.17,2.03.85,10.35,3.62,10.88,4,1.02.73.83,3.77,2.16,4.1,1.24.31,2.31-1.95,3.96-2.05.54-.03.44,1.51,1.31,1.94,5.71,2.78,24.41,10.19,29.74,10.26.59,0,.37,1.77,1.09,1.9,1.45.25,3.05-.91,3.96-.78s.99,2.04,2.21,2.69c2.09,1.13,5.76,2.01,8.2,2.04.45.38-1.34,2.7-1,2.98,2.32,1.91,3.43-3.59,5-1.98.43.44-1.41,3.5-.99,3.99,1.64,1.93,2.07-1.95,2.65-2.04.33-.05,4.52.19,4.87.29,3.57.97,9.47,3.27,14.17,4.46,1.53.38,3.76-2.33,3.32,1.3l1.98-1.99,1.52,2.99,1.48-1.99c.46,3.78,7.6,2.4,11.49,3.29,10.31,2.37,21.52,4.27,33.34,6.42,14.49,2.64,30.32,4.89,46.04,6.98,5.78.77,12.3,2.92,17.7,3.33s5.18-.18,10.11.94,8.9-2.23,9.29-1.94c.09.07-.29,1.58.75,1.93,5.44,1.86,12.74.49,17.84,1.2,18.46,2.56,43.27,4.17,63.85,2.92,4.56-.28,4.71-1.01,5.03-1,12.83.33,25.82,1.39,38.95,1.31,14.47-.09,30.59-.87,45.03-1.71,3.08-.18,2.44-2.58,2.62-2.68.53-.3,1.51,1.42,2.64,1.66,5.24,1.12,22.82-2.52,27.85-4.67,1.02,4.2,3.38.28,6,.37,1.41.05,2.31,1.44,3.01,1.63s.25-1.8.92-1.86c2-.17,8.47,1.04,9.92.8.7-.11.54-1.71,1.99-2.13,11.31-3.31,26.65-4.56,39.01-6.15,4.6-.59,7.06-4.37,10.62,1.32-.86-3-1.73-4.5,2.07-5.47,1.72-.44,2.55.5,3.32.44.73-.06.5-1.67,1.26-1.91,1.07-.34,4.74,1.09,5.75.93.73-.12.55-1.99,1.2-2.07,2.42-.32,3.89,3.48,3.41-1.91,1.68-.45.47,1.91,1.57,2.08,2.47.39,5.35-2.34,6.93-4.08l.53,1.96c2.41.22,5.14-3.89,5.49-3.97,1-.24,2.13,1.51,2.97,1.61,1.66.18,3.48-1.78,5.07-2.06,5.96-1.04,9.47-2.33,14.79-3.89,12.37-3.65,39.63-12.81,49.66-20,1.01-.72,2.67,2.19,2-3.64l1.48,2.98c5.09-2.12,9.89-4.86,14.95-7.05,7.75-3.36,8.59-1.99,15.94-8.62,1-.9,3.92,0,3.63-4.32,5.73,5.45,11.38-5.85,17.99-5.01-5.63-3.43-.5-8.73,1.5-.99l8.5-6.5-2.99-2.49c1.56.43,3.73,2.11,5.36,1.79,2.21-.45,10.39-8.09,14.28-8.16,8.88-8.26,20.71-14.27,30.82-22.66,3.94-3.27,3.73-2.21,7.49-4.52,2.4-1.47,3.84-5.22,4.13-5.39.34-.21,2.2,1.29,2.81.9.17-.11.84-2.33,2.08-3.52,10.02-9.64,18.97-17.66,29.39-27.15.84-.77,3.57.68,2.65-3.31l1.99,1.02c-2.41-4.36,5.33-5.83,7-9.51l-2.99-2.5c.89.73,6.69-1.8,6.94-2.07.48-.53-1.04-3.16.01-5.2.14-.27,3.29-4.53,3.5-4.74,1.29-1.27,3.42-.66,4.55-1.49.84-.62.74-2.19,1.38-3.15.96-1.46,2.32.98-.39-4.34.71-.07,1.42-.1,2.1,0,8.15,1.16,32.34,36.36,36.84,45.39,4.49,11.92,9.85,23.12,16.05,33.62Z"/>
  <path class="st10" d="M1296,353c14.92-19.81,22.18-52.66,8.23-74.73-3.42-5.41-17.32-18.98-23.76-12.31-4.36,4.51,3.82,7.49,6.53,10.54,14.21,16.02,12.19,41.9,2.86,59.85-26.16,50.36-129.06,63.35-179.34,57.63-23.95-2.72-47.88-10.65-69.93-19.92-.96.09-.71-1.88-.58-2.04.36-.43,7.98-5.39,9.3-6.21,2.24-1.4,9.15-5.53,11.29-5.78,46.91,12.34,112.29,10.86,146.92-28.01,1.87-2.1,9.01-13.68,9.97-13.76,5.78-.48,13,14.2,15.55,15.29,6.68,2.85,4.15-9.58,2.85-12.92-6.36-16.33-24.23-19.56-39.68-14.92-10.91,3.28-16.37,11.83-.65,11.34,1.18-.04,9.69-2.56,8.45.45-23.86,25.4-60.84,38.53-95.53,36.55s-68.24-16.67-103.07-21.92c-7.99-1.2-16.25-.62-24.59-2.42-41.35-8.93-45.42-64.91-5.78-81.18,46.47-19.07,87.59,22.48,132.97,2.48,1.15,21.25,17.94,38.93,39.47,40.03,3.67.19,10.99-1.52,12.84-1.09,1.23.29,1.41,4.14,4.03,3.91,3.03-.26,7.39-8.68,9.7-11.33,10.12-11.6,34.28-24.32,49.59-26.41,4.68-.64,19.87.64,21.97-1.02,1.64-1.3,2-4.36.93-6.12-3-4.95-31.68-3.41-37.52.01,11.6-23.58,16.66-58.62-1.02-80.47-18.47-22.83-48.18-15.94-68.45.51-1.53,1.24-7.1,8.06-8.53,6.96,2.17-9.54-8.56-22.78-17-26.49-12.31-5.42-23.42-1.21-35,3.5-2.06-2.19,8.98-13.8,11.06-15.43,14.74-11.49,34.91-17,52.61-8.75,1.68.78,8.35,4.96,8.22,6.51-.13,1.45-10.62,12.81-1.36,13.69,3.35.32,14.55-10.47,18.95-13.03,33.64-19.6,70.89-1.7,87.38,30.63,2.87,5.62,9.58,30.59,12.12,31.92,1.69.89,2.93.44,4.07-.99,3.99-5,.06-24.01-2.05-30.07,5.38-.16,13.06,3.37,18.2,5.8,18.66,8.83,34.74,25.23,46.79,41.71l-.67,2.45c-14.77,8.12-11.38,31.69-9.2,45.87,3.94,25.62,14.37,70.35,45.87,71.67.4,13.07-.12,26.04-1,39l-2.13,1.53c-17.6-2.65-32.32,15.8-40.99,29.17-20.37,31.4-38.35,87.96,3.87,108.85l1.25,2.44c-1.88,6.95-3.2,13.85-4,21l-2.8,1.55c-14.12-2.39-28.85.34-34.38,15-15.48,41.02,33.96,70.4,68.88,74.77l4.3,2.68c25.64,37.63,42.68,75.42,31.89,122.39-9.46,41.18-44.55,59.88-83.14,67.95-2.19.46-14.5,2.69-15.27,2.63-3.29-.26,1.61-4.49,2.07-5.91,4.67-14.38-12.49-4.94-17.86-1.86-4.1,2.35-15.08,11.87-17.42,12.58-2.94.9-16.28,2.99-16.28-1.28v-18c0-2.01-6.06-1.88-7.75-.24-1.36,1.31-6.29,11.52-7.47,14.04-.68,1.45-.47,3.76-.98,4.49-1.13,1.64-22,1.66-25.24,1.15-4.64-.73-13.8-8.69-18.41-5.78-.67.42-.54,3.94-2.81,4.68-5.04,1.65-27.06-1.16-33.57-2.11-16.94-2.48-33.12-8.04-49.76-11.74-.36-1.81.89-2.49,2.06-3.43,4.28-3.46,12.13-7.22,16.94-10.56l3.23-.99c34.98,14.33,77.9.42,71.77-43.01,7.07-5.2,13.9-10.78,21-16l2.18-.48c35.63,31.15,128.1,32.26,128.7-29.41.58-60.11-82.5-64.99-96.19-9l-2.69,2.89c-11.3,5.9-24.65,17.73-35.04,22.46-.94.43-3.52.96-3.95.54-.78-.75,4.1-12.44,4.7-14.79,4.07-16.06,3.87-31.34-1.41-47-.51-1.5-2.16-3.47-2.29-4.2-.01-.07,1.04-.52,1.02-.98-1.27-.26-5.74-.24-5.01-2.51,1.22-3.79,2.74,1.51,2.98.48,1.19-7.27.05-18.14,2.68-24.79.44-1.13.74-.61,1.33-2.2l-1.4-2.06c1.97-5.07.56-9.99-1.09-14.94l1.49-2.01c-1.63-4.91-.86-9,2.32-12.28,4.65-3.28,7.6-7.8,8.86-13.55,6.59-8.86,10.83-18.32,14.54-28.19l1.91-1.01c3.3-8.49,6.37-16.87,9.2-25.14,1.47-.36,2.12-1.83,1.95-4.43,4.33-7.05,6.53-14.46,6.61-22.23,10.31-24.45,18.83-49.33,25.57-74.64,3-4.4,4.46-8.32,3.51-13.79l2.08-3.76c.79-8.12,1.93-16.18,3.44-24.18.2-2.3.59-4.43,1.18-6.39-.61-4.62-.26-9.41,1.04-14.38-1.04-5.42-.77-10.43.8-15.04Z"/>
  <path class="st15" d="M677,274c4.31,7.03,5.59,13.18,4.98,21.48-2.32,31.95-24.47,62.2-57.5,66.5-40.95,5.33-70.89-25.19-113.01-11.01-10.78,3.63-20.09,11.07-31.22,13.78-14.47,3.53-36.9,1.49-48.28-9.24-10.23-9.65-11.6-21.34-6.17-34.22,3.63-8.61,14.25-20.34,22.67-24.32l-2.48-.99c74.28-25.05,153.31-31.55,231-22Z"/>
  <path class="st9" d="M1296,353l1.07,12.46c.67,4.39-1.2,8.99-1.58,13-.24,2.5,2.35,5.16-1.5,6.04,5.44,3.39,1.39,3.39,1.19,3.97-1.73,4.99-2.71,19.06-3.7,25-.25,1.53-1.98,2.44-2.13,4.02-.24,2.58,2.61,1.83,2.64,3.5-4.91-.48-1.73.74-2.52,2.91-.94,2.6-2.74,6.39-4.47,8.6,3.74,1.05.98.88.28,3.27-7.05,24.24-16.27,47-25.01,70.05-1.34,3.55.28,6.05-.44,8.44-1.04,3.47-4.62,9.85-6.16,13.73-.9,2.29,1.19,5.82-3.68,5.01l1.99,1.48-9.57,21.5c1.33,5-1.38,2.02-3.02,3.96-.95,1.12,1.17,4.05.59,5.05-.06.11-1.86-1.14-2.51-.1-.94,1.51-1.1,5.39-2.28,7.8-1.75,3.59-9.45,13.44-9.89,15.97-.21,1.19.97,2.75.68,3.32-.06.11-1.97-1.11-2.53-.09-.6,1.09-.13,2.84-.73,3.83-.82,1.37-6.72,5.03-7.72,7.79-.87,2.4,2.36.63,1.97,2.46-.99.2-3.65-.28-3.99.02-2.03,1.73,1.68,2.04,1.77,2.17.91,1.25-.86,3.06-1.77,3.83l-2.42-1.07c-9.63-24.21-25.02-48.65-46.1-64.34l-.48-2.59c4.19-1.39,7.52-11.59,7.98-15.59.51-4.44-.83-20.92-3.18-24.21-.53-.75-2.69-.54-3.58-1.42-1.15-1.13-5.69-8.82-6.87-9.83-1.85-1.59-7.94-3.68-8.23-4.06-.67-.86-.07-3.93-1.77-4.97-2.84-1.75-11.1-2.21-14.35-3.91,4.01-2.03,7.51-4.9,11.51-6.98,1.98,2.02,2.09,4.94,3.65,7.32,17.71,27,67.4,39.33,97.68,32,3.53-.85,9.79-1.89,10.16-6.33-25.77-2.62-50.85-1.85-74.68-13.83-6.86-3.45-20.79-14.66-25.14-20.85-.99-1.4-3.13-4.05-2.97-5.67s8.07-13.5,9.56-17.39c2.46-6.44,3.81-13.38,4.25-20.26.52-.74,14.28,7.63,15.98,8.31,29.03,11.51,80.33,3.14,99.55-23.26,1.93-2.65,4.43-8.31-1.26-6.27s-14.35,9.37-20.6,12.41c-32.34,15.73-70.79,13.21-98.68-10.17,28.14-1.49,57.85-8.49,83.67-19.84,18.46-8.11,37.03-19.84,49.33-36.17Z"/>
  <path class="st11" d="M945,394c-1.24,4.54-10.54,7.48-14.79,8.71-29.41,8.48-41.84,2.43-66.83-9.58-28.02-13.46-61.44-5.66-87.04-18.96-28.8-14.96-40.56-60.66-14.33-83.17,57.79,15.95,112.97,41.8,159.48,80.02,5.72,4.7,21.08,16.99,23.52,22.98Z"/>
  <path class="st11" d="M337,350c2.25,1.17,4.58-.24,7.36.09,19.62,2.27,32.85,10.23,29.4,32.17-5.71,36.3-43.24,41.02-70.74,52.26-28.27,11.55-42.17,41.39-68.29,54.75-9.69,4.96-21.14,4.48-29.73-2.27,34.07-59.05,75.56-99.57,132-137Z"/>
  <path class="st3" d="M151,723l.5.98c15.16-15.24,34.65-26.57,55.76-14.74,10.61,5.95,15.35,23.71,11.22,34.73-.67,1.79-9.57,16.3-10.79,17.69-2.7,3.07-8.63,5.77-11.37,11.1-6.32,12.32-1.6,18.89,2,30.46.66,2.13-1.63,3.37,1.7,4.26-3.1,3.48-5.71,11.94-9.7,14.32-19.68,11.74-44.17,6.85-61.19-7.46-8.46-7.11-9.58-11.18-10.14-21.86-.08-1.58-.97-1.39-.97-1.48-.36-21.11,20.37-51.74,33-68Z"/>
  <path class="st2" d="M1249,704c5.57-29.67,35.95-51.61,66.03-42.53,37.61,11.36,47.64,62.61,15.91,86.96-31.6,24.25-79.47,14.94-110.66-5.22-1.38-.89-2.29-1.97-3.28-3.22,33.83-24.87,53.27-43.52,98.55-42.05,1.46.05,6.14,1.39,6.45,1.04,2.82-3.15-6.2-7.83-8.72-8.77-18.99-7.12-47.11,4.82-64.28,13.78Z"/>
  <path class="st8" d="M1168.76,167.26c24.32-3.32,37.11,15.02,38.22,37.25.63,12.61-3.57,27.91-8.5,39.47-6.14,14.4-11.54,14.51-22.95,23.05-9.08,6.79-10.6,12.25-24.3,12.7-56.4,1.84-31.69-105.76,17.53-112.47Z"/>
  <path class="st15" d="M1370,374c-2.33,34.26-11.46,66.81-22.32,99.18-4.8,14.3-11.7,28.15-15.68,42.82-17.43-4.39-28.28-25.77-28.98-42.51-1.24-29.7,17.12-70.31,38.94-90.03,7.69-6.95,17.38-12.56,28.04-9.46Z"/>
  <path class="st16" d="M1007,347.01c-3.81,5.94-9.4,10.29-13.41,16.08-6.77,9.77-14.8,28.22-17.15,39.85-.34,1.67-1.9,12.59-1.44,13.05,2,2,4.12-2.55,4.7-3.77,10.4-22.07,15.83-43.09,36.83-59.19,7.84-6.01,15.34-1.13,24.22.72,2.44.51,7.07-1.02,6.25,2.25-1.37.01-2.91-.22-4.23.26-13.29,4.9-29.86,27.01-36.17,39.85-13.78,28.06-15.05,65-42.6,83.89,5.19-11.29,9.77-23.83,10.05-36.46.18-8.17-.74-14.02-10.35-11.59l-16.19,19.08-9.54,6.46c2.26-3.51,4.17-6.3,5.73-10.27,13.67-34.73,9.12-65.35,39.81-93.19,8.2-7.43,11.9-9.81,23.47-7.02Z"/>
  <path class="st0" d="M350,817l.25,2.74c.53-.14,1.61-.84,1.74-.74.9.67,1.6,15.97-2.63,16.87-26.63,14.38-66.26,29.63-95.25,13.52-21.22-11.79-12.02-36.21,7.88-42.4l-2.99-1.99c32.24,1.75,59.62,3.35,91,12Z"/>
  <path class="st11" d="M1328,537c-4.56,40.86,14.79,62.87,36,94-23.03-3.17-48.21-12.05-63.94-29.8-8.92-10.06-15.15-20.67-14.04-34.69,2.01-25.54,17.56-34.08,41.98-29.51Z"/>
  <path class="st11" d="M1371,335c-1.1,3.44-7.53,1.37-10,.5-29.18-10.36-39.98-68.37-39.57-95.54.15-10.17,3.26-21.08,13.57-24.96,25.4,34.75,34.7,77.46,36,120Z"/>
  <path class="st12" d="M1085,244.99c2.65-5.75,6.7-10.98,8.35-17.23,1.72-6.55,1.84-16.09.02-22.62-4.39-15.77-20.14-6.18-25.55,4.18-3.99,7.63-6.95,23.17-4,31.33.43,1.19,3.72,1.99,2.18,3.34-.51.45-12.72-3.04-13.1-3.6-.87-1.25-2.78-10.76-2.92-12.86-1.13-17.4,5.87-36.81,17.06-50.01,11.93-14.08,39.1-30.05,50.37-6.43,9.23,19.33-3.48,35.5-8.12,54.68-.65,2.7-.77,9.55-1.77,11.23-1.7,2.85-20.82,9.53-22.5,7.99Z"/>
  <path class="st1" d="M187,523c17.81,3.65,23.61,25.67,23.44,41.5-.3,27.74-15.63,56.58-44.44,62.5-.01-37.4,6.61-69.4,21-104Z"/>
  <path class="st19" d="M409,843c15.44,10.45,29.42,22.9,36,41-1.68.47-.3,3.98-1.6,3.95-4.86-.1-1.85.74-4.11,2.1-7.27,4.38-14.92,4.33-22.81,2.45-.65-.16-2.18.81-2.46.49-.2-.23.44-1.88-.67-3.06-5.84-6.2-15.33-3.79-21.74-16.05-8.97-17.16-.88-29.24,17.39-30.89Z"/>
  <path class="st13" d="M1113,487c13.4,17.2,4.96,51.06-21,48-4.29-10.75-11.34-20.4-17.19-30.31l-16.8-22.69c18.38,6.22,35.78,8.25,54.99,5Z"/>
  <path class="st3" d="M1196,756c3.67,2.15,2.37,10.71,1.88,14.38-2.74,20.86-15.09,30.96-35.05,34.95-15.15,3.03-27.56-.25-41.83-5.33,1.4-.97,3.25-4.19,5.67-5.83,8.31-5.67,21.15-9.05,30.38-13.62,13.77-6.82,26.62-15.48,38.95-24.55Z"/>
  <path class="st1" d="M758.59,451.42c39.68,27.26,76.09,83.72,44.05,129.71-17.86,25.64-58.39,38.83-87.62,27.36-16.78-6.58-29.01-19.48-43.71-28.29-19.33-11.59-43.5-7.72-66.83-21.17-34.25-19.73-45.97-48.97-21.88-82.94,41.94-59.14,117.96-64.55,176-24.67Z"/>
  <path class="st3" d="M1043.57,543.42c20.85,18.09,17.1,47.35-.06,66.59-32.36,36.29-99.41,43.97-139.24,16.21-35.85-24.98-37.17-77.21,2.69-98.76,23.97-12.96,46.03-.8,69.9,1.95,27.43,3.16,41.44-7.91,66.71,14.01Z"/>
  <path class="st14" d="M484.63,438.38c65.53,57.1-35.43,152.78-106.95,113.44-18.24-10.03-37.91-30.95-34.56-53.18,8.71-57.73,93.31-102.26,141.51-60.26Z"/>
  <path class="st20" d="M1164,544c18.14,9.87,43.29,48.26,49,68,2.3,7.95,3.97,11,1,19-2.65-.21-3.97-2.27-5.21-4.29-4.58-7.49-8.11-19.96-12.61-28.39-3.04-5.7-6.68-11.32-10.37-16.63-7.37-10.61-16.84-21.71-26.81-29.69-1.42-2.79-5.35-6.37-3.55-9.05,1.16-1.71,7.13.28,8.55,1.05Z"/>
  <path class="st6" d="M1028.74,270.22c11.62-2.01,7.92,10.04,2.69,15.71-3.24,3.51-12.38,9.42-17.02,10.04-16.39,2.19,3.92-23.95,14.33-25.75Z"/>
  <path class="st5" d="M975.66,261.1c7.82-2.51,4.13,9.8,4.29,13.42.18,3.94,4.75,12.8-2.5,13.52-9.39.93-6.7-25.37-1.79-26.95Z"/>
  <path class="st7" d="M1159.69,214.3c.34.49,3.11,8.37,3.24,9.26,1.93,12.44-.94,34.13-12,41.88-29.61,20.74-25-46.98-4.67-53.67,4.21-1.38,10.73-1.37,13.42,2.53Z"/>
</svg>