<?xml version="1.0" encoding="UTF-8"?>
<svg id="Layer_1" xmlns="http://www.w3.org/2000/svg" version="1.1" viewBox="0 0 1024 1024">
  <!-- Generator: Adobe Illustrator 29.5.1, SVG Export Plug-In . SVG Version: 2.1.0 Build 141)  -->
  <defs>
    <style>
      .st0 {
        fill: #709542;
      }

      .st1 {
        fill: #030703;
      }

      .st2 {
        fill: #6f9441;
      }

      .st3 {
        fill: #698f3c;
      }

      .st4 {
        fill: #6a8f3d;
      }

      .st5 {
        fill: #030803;
      }

      .st6 {
        fill: #678c3a;
      }

      .st7 {
        fill: #040803;
      }

      .st8 {
        fill: #22631c;
      }

      .st9 {
        fill: #6c903e;
      }

      .st10 {
        fill: #efcf9d;
      }

      .st11 {
        fill: #6e9340;
      }

      .st12 {
        fill: #030603;
      }

      .st13 {
        fill: #020602;
      }

      .st14 {
        fill: #030702;
      }

      .st15 {
        fill: #efd09e;
      }

      .st16 {
        fill: #040903;
      }

      .st17 {
        fill: #b83012;
      }
    </style>
  </defs>
  <path class="st12" d="M736.62,559.71"/>
  <path class="st12" d="M455.82,885.3l132.17-409.3-380.5,392.75c-2.04-.17-8.29-11.64-9.66-14.08-15.54-27.77-35.09-65.15-44.84-95.16-15.45-47.56,1.89-74.22,24.85-114.19,45.53-79.28,106.92-149.33,160.17-223.32-17.39,3.44-33.78,11.75-50.79,16.7-14.64,4.26-36.37,10.32-47.22-4.2-1.49-2-2.05-6.62-4.33-6.41-5.26.48-47.15,50.3-55.13,57.93-29.18,27.88-80.65,47.3-120.74,35.69-.93-.27-6.5-1.91-4.78-3.7.95-1,22.26-6.72,26.24-8.27,17.8-6.89,37.23-17.12,49.75-31.74-28.97-5-61.39-25.62-76.42-51.09-1.06-1.8-7.03-10.93-1.91-9.11,5.59,1.99,14.26,9.44,20.31,12.71,65.19,35.25,102.14-.01,149.53-41.52,1.36-1.59-.94-1.01-1.88-.88-19.92,2.68-36.62,4.96-56.83.58-29.76-6.46-67.75-34.33-55.57-68.98,10.73-30.5,56.84-32.52,83.77-36.74-9.33-20.36-8.76-42.33-.48-62.97,6.55-16.33,20.83-34.23,39.48-36.02,1.51-1.32-8.74-13.95-11.72-14.79-7.38-2.08-10.85,6.26-17.27,6.79-2.04-8.05,9.36-23.15,16.71-24.78,25.78-5.75,37.23,25.08,47.06,42.51.5.88-.37,1.68,1.58,1.16l131.19-96.63c23.08,39.73,46.94,79.12,69.63,119.08,14.82,26.11,43.91,70.12,45.87,99.13,3.03,44.88-39.74,101.13-62.46,138.62-15.68,25.88-31.25,51.84-46.58,77.91,1.88.44,2.38-1.05,3.5-1.99,12.1-10.14,23.23-24.3,34.47-35.54,69.65-69.61,141.23-138.23,213.04-205.95,18.31-17.26,35.91-35.56,54.97-52.03,3.9-3.37,15.2-14.36,13.79-2.26-21.26,97.58-46.09,194.32-67.77,291.77,3.05-2.32,5.89-5.19,8.5-7.99,47.94-51.32,94.31-104.33,143.46-154.54,4.65-4.75,20.36-22.15,24.47-24.52,1.43-.83,4.09-1.66,5.43-.82,3.2,2.01-1.33,36.27-2,42.24-7.95,71.04-21.69,141.38-30.74,212.26-.46,3.59-.79,7.76-.63,11.37,29.92-36.55,57.63-74.91,87.53-111.47,22.84-27.93,47.65-57.41,73.96-82.04,4-3.74,21.4-20.13,24.97-21.06,5.35-1.39-2.03,16.31-2.78,18.25-14.75,37.68-35.53,78.02-53.32,114.68-26.01,53.62-53.18,108.17-81.34,160.66-38.42,71.62-75.18,130.11-142.43,178.25-1,.72-10.82,7.95-10.82,7.95l-8.83,2.21c3.1.68,40.47-318.14,43.29-318.26"/>
  <path class="st8" d="M426.6,473.61c-23.27,39.4-50.48,81.17-71.81,121.68-1.75,3.33-7.25,15.45.7,9.7s17.91-20.43,24.99-28.01c100.15-107.16,209.48-205.96,314.5-308.5l10.01-7.48-71.99,307.46c.74,3.25,6.35-1.73,7.54-2.89,7.18-6.98,14.13-17.01,20.94-24.59,47.64-53.03,96.73-106.51,146.49-157.51,1.36-1.4,17.22-17.56,18.02-16.47-3.34,25.41-6.51,50.95-10.13,76.36-7.04,49.39-14.93,98.59-22,148-.86,6.04-8.92,49.63-7.28,51.66,3.28,4.09,3.29.57,4.4-.54,22.3-22.53,41.25-52.65,61.05-77.95,33.46-42.75,69.04-87.37,106.45-126.55,1.03-1.08,1.78-2.32,3.51-1.98-9.96,28.66-24.09,56.71-37.45,84.04-29.47,60.32-60.83,123-93.37,181.63-34.61,62.35-74.78,126.56-134.68,167.32-.25-4.61.88-9.7,1.78-14.22,19.95-100.19,38.58-200.65,58.02-300.98,2.71-13.96,7.9-29.68,9.45-43.54.43-3.86,1.42-16.67-5.23-11.22-59.37,75.1-118.73,150.44-179.54,224.46-34.75,42.3-69.97,84.3-105.97,125.52.36-6,2.5-12.4,4.28-18.21,37.55-122.66,86.66-241.97,125.87-364.12,1.4-4.37,9.87-28.46,7.83-30.66-1.38-.27-2.16.41-3.23,1.04-10.6,6.27-33.65,34.19-43.73,44.48-100.76,102.87-200.73,206.62-301.48,309.52-5.64,3.31-14.95-8.76-17.79-13.31-7.43-11.9-9.48-27.41-8.81-41.29,1.88-38.75,31.26-90.31,51.22-123.78,32.17-53.96,68.97-107,103.19-159.81,6.25-9.65,18.48-33.94,25.18-40.82,2.53-2.6,5.13-2.42,7.8-4.2,13.15-8.81,18.05-24.97,16.64-40.33-.47-5.13-4.23-18.63-6.98-22.83-.67-1.02-2.54-1.01-3.01-.68-.43.31,1.91,8.19,2.04,10.45.86,15.11-.91,38.32-17.32,44.76-10.97,4.3-34.53,1.05-47.26,1.74-34.17,1.85-60.6,18.07-92.25,26.75-7.57,2.08-23.31,6.5-27.4-3.04-.48-1.12-1.38-1.07.2-2.16,3.56-2.44,17.96-4.41,23.67-6.34,13.62-4.6,25.43-13.23,38.54-18.46,15.17-6.06,41.06-12.66,57.25-13.75,9.42-.64,32.6,2,39.5-3.5,11.27-8.99,3.09-29.79-3.13-39.78-15.05-24.19-38.11-22.15-62.09-13.44-56.62,20.58-153.21,79.8-208.75,33.28-17.25-14.45-23.43-38.24-.49-50.52,12.07-6.46,54.03-16.18,66.78-13.76,10.86,2.07,14.91,5.27,28.12,3.65,28.8-3.52,38.35-33.94,45.07-56.93,1.83-6.28,6.28-4.79,4.05-14-1.24-5.12-4.62-4.15-6.54-6.7-1.23-1.63-3.44-8.54-2.53-10.25l125.07-96.98,92,163.96c25.29,39.69,8.37,78.86-12.34,115.69-14.86,26.41-32.05,52.68-47.57,78.94Z"/>
  <path class="st17" d="M359,370.99c-19.27.34-39.75,5.58-58.2,11.3-27.22,8.44-56.35,23.32-77.81,42.19-30.85,27.13-50.79,65.88-91.45,80.55-9.18,3.31-18.72,5.75-28.53,5.95l19.31-12.17c5.62-4.7,12.45-9.26,17.7-14.3,2.37-2.28,15.41-16.05,12.99-18.51-19.54,1.27-37.03-.36-54.23-10.28l-6.77-5.72c12.03,4.85,26.56,5.75,39.56,5.01,44.55-2.54,66.43-37.52,100.51-59.42,32.54-20.91,81.09-36.95,119.97-30.14,3.08.54,7.78,1.41,6.94,5.55Z"/>
  <path class="st3" d="M200.16,633.13l60.81,19.36c-7.58,14.15-16.04,29.58-21.26,44.72-.99,2.86-3.52,16.04-5.34,16.66s-9.3.26-11.91.17c-7.84-.26-18.06-1.04-25.82-2.18-4.47-.66-31.91-6.9-32.56-9.44,9.58-24.3,23.03-46.77,36.07-69.29Z"/>
  <polygon class="st6" points="206 625.99 248.68 561.94 300.98 583.5 264.35 643.89 206 625.99"/>
  <path class="st4" d="M233,723c-1.39,15.31-2.37,31.06,1.99,46-4.61-.29-10.17,3.1-14.98,4.51-6.89,2.03-40.7,9.96-44.77,5.24-8.62-21.14-18.38-43.33-14.24-66.75,23.14,7.69,47.53,11.6,72,11Z"/>
  <polygon class="st11" points="344 515.01 305.33 574.9 255 554.99 297.14 497.13 344 515.01"/>
  <path class="st15" d="M255.01,268c3.07-9.01,4.12-32.01-9.5-32.08-15.51-.09-19.87,28.98-17.3,40.37.74,3.29,5.37,7.41,8.79,7.72-14.05,10.71-32.4,2.71-38.03-13.48-8.53-24.52,4.34-67.28,30.49-76.57,1.27-.45,5.14-1.71,6.08-1.58,5.3.73,16.38,31.65,19.29,37.29,1.66,3.21,8.23,11.17,8.65,13.2,1.26,6.07-3.69,20.67-8.47,25.13Z"/>
  <polygon class="st2" points="383 456.02 348.4 508.92 304 490.99 342.63 439.14 383 456.02"/>
  <path class="st9" d="M238.87,777.08c3.97,9.09,10.51,15.34,18.11,21.42l-47.47,48.5-28.52-56.99c19.93-.94,39.25-6.08,57.88-12.93Z"/>
  <path class="st0" d="M407.5,413c.08,0,2.39-2.41,1.49.48-.35,1.12-2.08,3.81-2.81,5.19-5.57,10.49-12.4,20.39-18.76,30.38l-39.42-17.07c4.56-5.01,8.33-15.53,14.97-17.51.82-.25,7.11-1.47,7.53-1.47,12.14,0,24.95.56,37,0Z"/>
  <path class="st13" d="M399,190.99c-13.18-3.43-26.17-5.93-36.99,4.51,16.14,1.75,27.78,17.11,30.73,32.26,5.32,27.26-10.63,58.08-32.26,74.22-41.15,30.71-79.75-1.12-72.25-48.25.36-2.23,4.34-14.21,3.78-14.72-.23-.21-3.39.55-5.6-1.92-8.58-9.61,3.69-32.41,10.62-40.56.72-.85,2.71-3.61,3.98-3.02-2.08,6.71-5.01,13.8-5.04,20.97,0,1.51-.64,2.94,1.52,2.51,1.78-2.34,4.39-3.63,6.58-5.45,18.49-15.39,47.57-48.84,75-42.1,10.56,2.59,18.75,10.49,19.93,21.56Z"/>
  <path class="st13" d="M178.01,346c.44-9.47,10.24-25.63,19.96-27.62,5.87-1.2,8.19,4.68,6.59,9.67-1.83,5.72-21.65,13.08-26.54,17.95Z"/>
  <path class="st1" d="M155.93,336.94c-2.54,1.65-8.8-8.46-9.46-10.91-1.45-5.41.71-8.37.53-13.03,8.26-.94,11.63,5.87,11.41,13.13-.05,1.69-1.68,10.29-2.47,10.8Z"/>
  <path class="st5" d="M601.01,560c-3.83-5.46,6.23-23.64,12.02-21.48.95.35,2.78,2.52,2.78,3.78-.03,4.28-11.75,20.35-14.8,17.7Z"/>
  <path class="st12" d="M645.99,364.03c1.48,4.87-11.82,22.88-15.95,19.95-4.56-3.24,7.99-25.3,15.95-19.95Z"/>
  <path class="st7" d="M409.86,602.13c6.5,4.15-13.71,21.12-15.86,18.86-1.89-6.11,9.37-23.01,15.86-18.86Z"/>
  <path class="st16" d="M806.79,682.21c3.52,3.46-6.38,21.71-12.79,18.79-3.27-5.54,6.92-24.57,12.79-18.79Z"/>
  <path class="st1" d="M331.9,675.1c4.95,4.38-13.71,19.16-15.9,16.9-1.02-5.44,4.63-15.3,9.71-16.78,1.14-.33,5.67-.58,6.19-.12Z"/>
  <path class="st7" d="M598.74,625.29c.18.07,2.37,2.48,2.3,3.12-.66,6.24-7.41,10.73-11.54,14.56-8.37-4.07,2.75-20.05,9.24-17.68Z"/>
  <path class="st1" d="M474.96,512.03c3.77,2.63-2.06,10.11-3.98,12.44-6.56,7.95-13.38,9.2-7.86-2.86,1.33-2.9,8.49-11.92,11.85-9.58Z"/>
  <path class="st5" d="M591.99,407c.93,7.64-6.34,16.06-14.01,16.55-5.2-3.57,7.86-18.48,14.01-16.55Z"/>
  <path class="st7" d="M566.65,685.65c-1.42,1.49-4.92,3.89-7.04,3.42-5.54-1.23,6.31-24.48,11.27-15.4,1.72,3.15-1.86,9.49-4.24,11.99Z"/>
  <path class="st14" d="M318.93,641.07c3.08,4.56-10.69,18.21-14.49,12.96-2.99-4.14,11.23-17.78,14.49-12.96Z"/>
  <path class="st7" d="M855.86,600.13c5.72,3.31-4.24,18.61-10.86,16.86-1.26-3.89,6.04-19.65,10.86-16.86Z"/>
  <path class="st1" d="M448,306.99c.19-3.73,5.21-22.12,11.01-15.51,4.74,5.41-8.17,18.01-11.01,15.51Z"/>
  <path class="st16" d="M516.87,489.13c.67,7.58-5.18,13.81-12.86,13.86.4-1.39,1.96-9.41,2.27-9.8.34-.43,1.84-.82,2.72-1.66,2.71-2.6,1.9-5.34,7.87-2.4Z"/>
  <path class="st1" d="M644.85,603.15c2.79,4.4-6.17,15.57-11.84,13.84-2.06-4.69,8.03-19.84,11.84-13.84Z"/>
  <path class="st16" d="M765.99,717c4.8,4.19-6.06,18.5-8.47,17.99-5.87-1.24,2.79-18.31,8.47-17.99Z"/>
  <path class="st1" d="M382.69,516.68c-1.08.79-3.3,1.07-4.68,1.32-2.36-2.22,5.76-22.45,11.24-13.72,1.79,2.86-4.5,10.9-6.55,12.4Z"/>
  <path class="st7" d="M470.49,341.05c.4-.03,3.65,2.2,4.02,2.94,1.93,3.93-1.59,14.32-5.97,13-3.6-1.08-.88-15.73,1.96-15.94Z"/>
  <path class="st10" d="M371.01,277c3.98-10.57,6.29-25.04-.58-34.93-7.35-10.6-16.99-4.47-22.63,4.24-7.57,11.69-15.01,44.98,4.19,49.19-20.97,14.16-48.18,5.85-52.7-20.29-1.23-7.15.13-31.77,4.25-37.15.84-1.1,12.12-7.32,14.77-9.23,10.12-7.31,25.97-24.42,38.2-23.88,32.18,1.41,32.64,54.27,14.49,72.07Z"/>
</svg>