<?xml version="1.0" encoding="UTF-8"?>
<svg id="Layer_1" xmlns="http://www.w3.org/2000/svg" version="1.1" viewBox="0 0 1536 1024">
  <!-- Generator: Adobe Illustrator 29.5.1, SVG Export Plug-In . SVG Version: 2.1.0 Build 141)  -->
  <defs>
    <style>
      .st0 {
        fill: #000001;
      }

      .st1 {
        fill: #f7f123;
      }

      .st2 {
        fill: #f9f625;
      }

      .st3 {
        fill: #e8f8fb;
      }

      .st4 {
        fill: #2074dd;
      }

      .st5 {
        fill: #010101;
      }

      .st6 {
        fill: #207be7;
      }

      .st7 {
        fill: #f7f428;
      }

      .st8 {
        fill: #f7f125;
      }

      .st9 {
        fill: #2178e0;
      }

      .st10 {
        fill: #237ce3;
      }

      .st11 {
        fill: #f8f626;
      }

      .st12 {
        fill: #000101;
      }

      .st13 {
        fill: #fdf7eb;
      }

      .st14 {
        fill: #fdf7ea;
      }

      .st15 {
        fill: #f9f522;
      }

      .st16 {
        fill: #f7f426;
      }

      .st17 {
        fill: #fec810;
      }

      .st18 {
        fill: #e6f8fa;
      }

      .st19 {
        fill: #e7f7f9;
      }

      .st20 {
        fill: #2382f3;
      }

      .st21 {
        fill: #acdcf4;
      }

      .st22 {
        fill: #1656a5;
      }

      .st23 {
        fill: #f6f227;
      }

      .st24 {
        fill: #f8f523;
      }

      .st25 {
        fill: #1656a6;
      }

      .st26 {
        fill: #f8e119;
      }

      .st27 {
        fill: #dbf2f7;
      }

      .st28 {
        fill: #f4f22b;
      }

      .st29 {
        fill: #2486f9;
      }

      .st30 {
        fill: #010100;
      }

      .st31 {
        fill: #247eec;
      }

      .st32 {
        fill: #2481f0;
      }

      .st33 {
        fill: #f6f328;
      }

      .st34 {
        fill: #e4f7fa;
      }

      .st35 {
        fill: #217be8;
      }

      .st36 {
        fill: #f6f329;
      }

      .st37 {
        fill: #fec910;
      }

      .st38 {
        fill: #e8f9fb;
      }

      .st39 {
        fill: #2076db;
      }

      .st40 {
        fill: #eaf9fb;
      }

      .st41 {
        fill: #1556a6;
      }

      .st42 {
        fill: #f7f423;
      }

      .st43 {
        fill: #adddf5;
      }

      .st44 {
        fill: #f6f126;
      }

      .st45 {
        fill: #f4f12a;
      }

      .st46 {
        fill: #f7f329;
      }

      .st47 {
        fill: #addcf4;
      }
    </style>
  </defs>
  <path d="M1381.39,704.4c-3.37,49.56-12.72,104.06-43.75,141.83,9.17-1.95,62.67-2.73,64.43,8.47.24,1.53-1.31,2.81-2.2,3.73-5.37,5.55-32.8,11.31-41.26,13-70.76,14.11-144.62,22.66-215.98,35.09-103.6,18.04-211.79,35.88-314.05,60.44-43.41,10.42-79.28,24.23-124.86,26.3-89.04,4.04-187.41-10.37-276.43-20.51-93.72-10.68-191.22-20.58-284.31-34.65-4.06-.61-23.67-3.15-23.73-8.14,20.24-10.53,43.99-9.33,65.61-14.05-17.85-10.77-33.13-24.74-46.65-41.52-9.94-12.34-14.8-24.39-28.58-33.46-22.26-14.65-38.69-15.91-54.23-43.33-19.3-34.05-28.34-117.71-26.05-157.77,1.3-22.74,5.46-26.05,14.84-43.6,5.01-9.37,8.91-36.45,12.28-48.99,18.31-68.12,35.29-90.28,89.34-127.04,46.15-31.39,97.55-53.32,149.53-69.84-5.25-37.49,4.25-69.51,42.08-72.79,6.44-.56,15.57-1.06,21.95-1.18,4.97-.09,14.34,3.35,18.48.04,31-50.57,65.05-99.44,102.96-143.88,43.03-50.44,68.74-66.2,131.1-79.43,77.72-16.48,159.17-16.04,237.97-13.13,83.93,3.1,178.06,10.83,258.58,37.65,110.35,36.74,150.16,112.44,201.73,218.29,3.41,7,10.57,27.04,14.25,31.46,4.19,5.03,31.82,16.82,41.21,24.56,66.3,54.71,71.28,228.39,52.03,309.04-4.96,20.79-13.21,44.48-36.3,43.42h.01Z"/>
  <path class="st17" d="M1076.22,91.05c31.64,6.62,70.42,22.53,97.34,42.13,65.12,47.41,96.75,136.65,136.44,207.68,7.5,10.2,19.6,12.47,29.56,18.32,24.13,14.16,37.16,37.02,47.6,64.11,24.41,74.06,29.31,155.39,13.82,232.57-1.68,6.36-4.47,15.67-10.1,18.82-1.12.63-3.36,2.26-4.33.39-1.58-44-3.03-88.04-16.64-129.77-11.49-35.23-30.07-68.08-68.87-57.2-39.74,11.14-73.08,71.54-86.62,111.53-12.34,41.57-21.05,84.69-26.13,129.35-1.29,8.87-3.71,17.3-7.27,25.26-.16.24.3,1.41-.8,2.59-2.54,2.73-5.59,3.54-8.41,5.07-45.92,16.06-94.04,23.82-141.77,29.65l.12,1.02c-48.65,6.87-100.4,20.83-149.16,24.28-3.94.28-7.14,1.19-6.99-3.83.4-14.07,5.36-32.72,6.43-47.93,5.37-76.54-13.97-217.9-108.68-203.65-71.75,10.8-115.07,106.72-128.18,177.23-4.97,26.7-5.26,52.2-8.57,78.66-2.31,18.5-4.98,32.74-21.73,40.42-29.14,9.4-60.05,9.39-91.14,8.14-128.96-5.16-262.77-18.94-390.24-42.64-67.41-17.31-72.12-46.4-80.47-118.36-2.33-20.07-9.26-74.25.51-89.84,5.75-9.18,11.78-1.9,20.08.54,17.77,5.23,34.37,6.59,47.19-10.25,21.4-28.11,26.61-93.8,4.61-122.62-2.26-2.96-10.39-9.34-10.38-11.53.01-3.45,15.19-15.14,18.57-17.78,28.12-22.02,63.56-41.39,95.49-55.69,38.39-15.23,77.34-29.42,116.85-42.57,126.06,3.36,263.09,8.4,392.16,15.73,16.46.44,17.23,3.43,2.3,8.96-70.9,31.09-128.91,47.89-192.68,98.63-7.44,5.91-23.83,23.32-29.14,26.44-3.42,2.01-8.8,2.14-12.83,3.66-23.14,8.7-41.65,21.39-58.45,41.21-16.67,19.66-51.67,76.26-14.38,92.02,51.56,17.06,119.62,10.14,171.59-12.78.24-1.49,15.07-8.76,17.63-10.47,38.97-26.15,68.53-93.39,5.66-109.29-27.1-6.86-56.13-3.24-83.74-4.19-6.05-1.2-.68-5.93,1.82-8.19,33.76-30.5,84.42-57.54,125.14-74.54,45.57-19.03,97.25-31.22,136.78-62.9,31.5-78.12,66.48-154.55,110.91-224.61.63-5.08-1.3-7.43-5.49-8.7-14.35-4.36-38.8-7.32-54.2-9.5-104.03-15.48-215.96-17.61-319.79-6.51.06-2.27,1.48-4.36,4.25-6.27,17.49-13.1,45.89-23.3,66.79-26.83,154.28-24.74,314.35-15.95,467.56,14.06l-.02-.03Z"/>
  <path class="st43" d="M827.47,185.61c-15.46,43.49-50.63,122.11-76.01,158.45-2.09,3.42-6.5,3.6-11.18,3.31-89.51-3.16-180.21-6.82-272.12-10.98-30.13.97-60.79.85-90.81-.87-5.14.23-5.97-3.74-2.47-11.91,14.49-29.77,39.3-67.49,58.28-94.43,17.65-25.05,62.27-83.45,86.83-95.97,10.45-3.67,21.24-5.02,32.65-5.57,46.82-2.26,94-4.49,140.87-4.83,38.23-.28,73.23,1.88,111.06,6.43,36.14,4.35,32.61,24.81,22.9,56.37h0Z"/>
  <path class="st25" d="M834.38,676.3c18.13,39.88,21.78,83.34,20.73,126.51-4.31,50.78-29.56,128.69-74.86,150.78-18.35,6.61-34.04,5.31-51.82-2.56-30.7-17.39-47.91-66.6-54.13-102.23-5.29-40.84-4.17-81.92,3.45-121.39,20.27-83.61,114.76-163.46,156.62-51.11h.01Z"/>
  <path class="st41" d="M1254.72,833.47c-7.76-14.29-13.99-30.46-18.69-48.52-1.06-6.39-2.5-11.94-4.34-16.65-1.56-7.55-3.62-15.1-4.61-23-.5-9.72-.89-19.3-1.15-28.75-.96-11.18-.94-24.33,0-35.78.36-8.57.74-17.3,1.15-26.2,5.03-38.4,22.37-79.14,51.93-101.47,34.6-26.15,56.75,15.96,67.55,47.49,20.39,59.55,21.03,136.99-1.47,195.78-15.94,41.63-55.33,88.43-90.36,37.1h-.01Z"/>
  <path class="st13" d="M525.49,523.31c19.3-2.41,35.62-3.44,38.12,22.17,2.77,28.36-12.17,72.49-38.39,82.31-17.47,6.55-65.17,4.39-83.33-.92-17.03-4.98-13.47-19.4-6.58-33.68,16.23-33.64,55.67-65.57,90.18-69.88Z"/>
  <path class="st17" d="M556.85,625.18c-.23-5.21,3.85-8.85,5.95-13.19,10.75-22.23,16.65-42.12,14.81-67.99-.5-7.11-2.74-12.15-4.13-18.46-.32-1.48-1.02-2.16.6-3.26,3.41-2.32,33.5,1.24,39.45,2.31,29.73,5.34,45.38,15.97,26.26,50.16-15.66,28-54.91,44.55-82.94,50.43h0Z"/>
  <path class="st14" d="M99.32,488.7c14.8-4.89,23.46,28.35,24.36,40.17,1.51,19.69-4.86,67.88-26.27,72.74-9,2.04-32.68-3.81-32.36-16.62.31-12.63,13.05-51.39,17.91-64.58,2.2-5.97,11.44-30.09,16.35-31.72h0Z"/>
  <path class="st37" d="M367.93,296.83c.59.78-.13,3.77-.59,5-1.33,3.63-17.42,31.57-19.52,33.29-3.23,2.65-28.39,12.11-32.57,12.53-4.44.45-4.52-6.76-4.85-10.65-1.27-15.35-.07-31.64,14.95-37.03,5.54-1.99,39.95-6.62,42.57-3.14h0Z"/>
  <path class="st24" d="M227.48,397.73c38.05-17.05,77.74-29.73,116.84-43.5,130.37,5.58,261.33,6.01,391.59,15.4,5.35.39,11.37,2.72,16.7,2.55.57,2.94-.28,2.05-1.46,2.88-3.63,2.53-8.46,3.08-12.35,4.79l10.36-6.38c-21.2-2.88-42.63-2.62-63.96-3.79-91.24-5.01-182.64-8.38-274.09-11.5-19.33-.66-54.72-5.89-72.17-.96-34.72,9.8-72.09,27.58-106.24,40.58-1.5.57-4.24,2.35-5.22-.05v-.02Z"/>
  <path class="st11" d="M613.27,857.75c-31.78,14.57-82.53,8.86-116.84,7.61-81.93-2.97-163.88-10.96-245.2-21.83-38.95-5.21-81.27-10.51-119.34-20.28,1.12-2.4,4.03-1.04,5.8-.71,113.34,21.17,227.61,34.64,342.61,40.27,42.62,2.08,86.02,7.47,127.78-5.07,1.52-.46,4.12-2.52,5.18.01h.01Z"/>
  <path class="st2" d="M1076.22,91.05c-140.08-29.32-326.77-37.85-467.56-14.06,15.18-2.42,30.38-5.56,45.63-7.51,72.62-9.28,147.03-7.91,219.83-4.01,67.84,3.64,135.64,10.04,202.1,25.57h0Z"/>
  <path class="st40" d="M827.47,185.61c-2.4-1.21-.4-3.95.14-5.59,11.99-35.9,6.17-45.3-27.35-50.48-84.08-13-176.65-1.77-261.26-.14l-19.02,3.81c20.2-10.3,75.18-8.03,99.66-8.89,58.74-2.07,127-5.24,185.22,3.94,37.07,5.85,34.05,25.13,22.6,57.34h.01Z"/>
  <path class="st33" d="M541.87,103.83l-3.45,5.1c8.24.31,16.58-1.91,24.77-2.53,98.19-7.38,197.07-4.25,294.78,8.98l-.55,1.23c-94.12-13.31-194.96-15.69-289.62-8.93-11.29.81-22.64,3.35-33.98,3.81-2.11-1.78,7.3-7.09,8.06-7.66h-.01Z"/>
  <path class="st3" d="M751.46,344.06c-.7,1-.58,3.53-1.93,3.88-9.15-.3-18.34.24-27.49,0-83.13-2.14-165.92-8.52-249.28-9-1.66-.37-3.2-.79-4.61-1.28-1.01-.36-.99-.79,0-1.28,86.57,2.38,173.02,6.7,259.74,8.89,5.7.14,12.19,2.58,18.35,1.31,2.46-.51,3.94-4.55,5.21-2.53h.01Z"/>
  <path class="st36" d="M1400.98,655.85c-2.19-1.24-.75-4.31-.4-6.17,14.43-76.05,10.86-147.96-13.28-220.81-.54-1.64-2.55-4.38-.14-5.59,24.61,63.83,31.45,165.87,13.82,232.57h0Z"/>
  <path class="st1" d="M602.9,629.02c-.34,2.12-8.22,5.31-12.72,6.98-42.27,15.72-114.25,22.63-156.86,8.03-.75-.26-4.9-1.03-2.02-2.22,5.49,2.32,13.41,3.68,19.34,4.74,49.25,8.85,105.53.84,152.26-17.52h0Z"/>
  <path class="st44" d="M1171.8,761.91c-16.76,9.12-41.07,13.29-59.86,17.28-26.99,5.74-54.43,10.54-81.79,13.39l-1.15-1.27c48.05-6.5,96.11-15.23,142.8-29.4Z"/>
  <path class="st7" d="M1214.41,599.63c-15.94,47.09-16.37,92.59-27.27,139.06-1.69,7.21-2.24,9.68-6.13,15.56,8-23.32,8.95-48.72,13.03-73.07,4.47-26.67,9.7-50.74,17.48-76.44.1-.33,1.67-8.49,2.88-5.11h.01Z"/>
  <path class="st4" d="M674.3,848.8c-6.88-39.42-5.95-82.58,3.45-121.39,2.23,6.53-2.14,15.71-3.16,22.69-4.57,31.04-2.84,61.37.29,92.33.19,1.92,1.72,5.07-.59,6.38h.01Z"/>
  <path class="st10" d="M855.11,802.8c-1.92-3.32-1.4-9.6-1.21-13.48,2.06-41.15-5.46-75.3-19.52-113.03,18.1,37.07,24.28,84.7,20.73,126.51h0Z"/>
  <path class="st38" d="M374.88,323.62l-1.1,10.16c2.13.17,4.15,1.12,6.29,1.33,27.32,2.59,60.07.52,88.09,1.29v1.28c-2.09,1.34-4.63.65-6.91,0-29-.16-57.95-.62-86.94-1.28-5.89-1.25-1.3-8.92.57-12.78Z"/>
  <path class="st35" d="M1227.08,745.3c-.68-5.45-2.3-16.52-2.3-21.08v-47.28c0-5.51,1.5-16.22,2.3-22.36,1.84,1.28,1.33,4.94,1.16,7-.47,5.38-2.31,14.3-2.31,19.2v35.78c0,5.74,1.95,15.31,2.37,21.69.13,2.06.57,5.8-1.22,7.06h0Z"/>
  <path class="st39" d="M1254.72,833.47c-12.68-18.58-18.42-42.86-23.03-65.17l1.2-.71c3.94,21.29,10.33,42.78,20.92,61.15.65,1.12,3.43,3.93.92,4.74h-.01Z"/>
  <path class="st9" d="M780.25,953.59c-16.73,8.16-35.67,6.6-51.82-2.56.77-2.27,3.6-.21,4.88.32,16.94,7.1,24.19,8.08,41.73,2.19,1.52-.51,4.19-2.42,5.21.04h0Z"/>
  <path class="st43" d="M468.16,337.67c1.52.05,3.81-.64,4.61,1.28-3.61-.02-8.87,1.06-11.52-1.28,2.3.01,4.61-.07,6.91,0Z"/>
  <path d="M1156.83,406.67c22.41,95.29,8.32,198.71-9.26,294.78l.8,2.96c16.6-5.93,24.02-3.8,22.28,6.39-.93.19-1.83,2.84-3.04,3.65-8.27,5.55-23.6,5.55-33.23,7.87-.57.2-.64.67-.59,1.26-72.22,13.3-144.57,25.48-217.07,36.54-3.45.22-6.72-.46-9.8-2.04-2.1-4.19,1.67-8.72,4.94-10.49,4.18-2.26,20.5-5.08,26.15-6.12,57.97-10.2,115.93-20.42,173.89-30.67,7.92.23,14.65-1.74,20.18-5.92,18.88-83.15,28.49-173.26,18.97-259.87-3.27-19.77-10.37-44.26-17.89-62.57-2.05-5-7.94-20.96-12.7-21.79l-111.34,11.86c-9.6,12.42-17.54,23.97-32.22,29.41-17.14,6.35-63.78,4.49-84.34,4.81-19.66.3-45.91,3.69-46.45-26.25-.32-17.74,19.89-62.31,27.56-80.32,18.01-42.27,57.92-135.69,93.21-158.53,38.16-24.7,123.7-13.32,165.47.2,55.68,18.03,88.94,99.22,114.09,151.97,6.74,14.15,24.75,32.28,3.92,43.53-21.87,11.81-68.9,16.18-94.13,19.5-4.43.58-15.75-1.79-13.93,6.44,4.92,14.24,10.95,28.66,14.51,43.4h.02Z"/>
  <path d="M82.37,706.97c45.56,8.51,90.68,16.32,137.37,20.45,109.9,9.72,223.04,19.6,330.95,18.39,5.28.19,16.68,1.15,15.36,8.44,1.53,7.62-5.11,10.45-10.91,10.81-45.57-2.09-91.07-3.35-136.5-3.78.86.12,1.53.24,1.54.38.19,9.02-.61,19.02-1.54,27.73.28,4.09-1.16,10.51-3.45,13.42-.86-.06-7.75,11.23-11.52,14.06-18.42,6.68-37.63,8.22-57.63,4.62-67.69-5.62-140.09-15.91-204.94-37.84-25.83-10.33-32.42-22.33-27.77-53.53-1.53-2.47-37.13-6-43.65-14.83-2.26-3.06-2.46-6.99,1.17-8.95,3.72-2.01,7.86-.02,11.52.64h0Z"/>
  <path d="M391.91,579.49c3.85,3.9-4.82,15.2-7.91,18.11-31.78,29.94-110.35,21.26-150.18,17.35-16.78-1.65-52.06-4.3-65.46-14.26-7.66-5.7-11.46-17.4-12.27-27.28-.6-7.35-2.24-21.18,7.03-20.36,68.83,11.21,138.49,15.74,207.74,23.56,4.4.5,17.99-.23,21.05,2.87h0Z"/>
  <path class="st30" d="M503.86,669.91c.93,1.91,2.53,2.94,2.34,5.67-.12,1.82-1.63,3.09-2.34,4.55l-.7,1.28c-67.44.77-141.92-2.59-211.64-7.83-52.29-3.93-104.71-9.07-156.18-20.28-8-1.45-16.01-3.86-24.2-4.45-3.24-3.06-1.3-6.73,1.17-9.6,13.84-3.3,28.57-3.1,44.17.6l52.09,8.68c91.33,9.76,184.14,14.33,274.61,17.95,7.34-.14,14.23,1.01,20.68,3.44h0Z"/>
  <path d="M162.65,514.26c5.12-.81,27.11,5.02,34.46,5.98,65.06,8.53,131.4,12.94,196.79,19.32,5.86.57,28.43-1.58,28.17,8.36-.09,3.23-4.89,6.46-7.52,6.92-13.12,2.3-33.07-3.94-47.2-1.15-50.83-3.58-102.25-5.84-152.97-12.99-11.63-1.64-44.41-5.77-53.35-11.08-7.78-4.63-4.99-14.3,1.62-15.35h0Z"/>
  <path class="st30" d="M1111.68,422.39c12.81-.43,18.94-.42,17.39,16.74-1.37,15.19-6.11,20.45-19.18,23.44-10.62,2.43-30.42,5.22-41.14,5.53-10.1.29-13.46-3.94-16.14-14.14-1.94-7.37-4.03-16.44,2.48-21.54,7.82-6.13,45.6-9.66,56.59-10.03h0Z"/>
  <path class="st5" d="M878.14,428.4c8.75,48.3,11.67,99.49,9.21,148.23-1.11.18-2.26,6.02-8.45,3.62-2.77-1.07-3.68-8.91-4.08-12.08-3.87-30.92-3.84-66.84-4.7-98.29-.26-9.61-2-19.14-1.18-29.32.5-6.27,1.53-16.93,9.19-12.16h.01Z"/>
  <path class="st42" d="M567.2,756.8c-.72-.02-1.11-.87-1.15-2.56-2.49-6.6-6.92-7.01-13.26-7.65-18.37-1.84-39.89.54-58.76.03-98.49-2.66-198.86-10.49-297.06-20.51-40.65-4.14-75.11-12.01-114.59-19.16,1.11-2.43,3.88-.84,5.56-.44,43.7,10.42,84.09,15.32,128.61,19.6,98.93,9.5,198.97,16.52,298.21,19.23,9.96.27,44.15-2.4,50.23,3.04,3.52,3.15,3,4.77,2.22,8.4v.02Z"/>
  <path class="st15" d="M503.86,669.91c-21.45-3.92-43.42-2.72-65.11-3.78-76.6-3.75-154.02-7.14-230.27-16.67-24.33-3.04-50.81-9.76-74.88-11.47-6.79-.48-14.74-.5-21.29,1.26.93-1.08.43-2.07,2.86-2.54,4.69-.91,16.66-.39,21.88,0,24.59,1.83,51.2,8.42,76.03,11.48,86.88,10.7,172.24,10.84,259.1,16.63,9.37.62,20.89.97,29.95,2.54,4.05.7,1.64,2.36,1.73,2.55h0Z"/>
  <path class="st2" d="M503.86,680.13c-.09.19,2.3,1.93-1.72,2.57-13.1,2.08-30.24-1.6-43.82.04-105.71-4.99-212-5.57-316.46-27.09l-6.52-2.35c117.47,21.27,230.14,23.35,348.38,28.1,6.39.26,14.12.83,20.14-1.26h0Z"/>
  <path class="st45" d="M1156.83,406.67c1.3-3.3,1.44,1.53,1.68,2.6,15.73,70.65,11.52,151.27,1.59,222.74-3.31,23.82-7.69,47.63-12.48,71.11,2.81,2.26,30.01-11.89,24.1,8.94-.46-.19-.98-1.28-1.07-1.26,1.38-16.02-16.16-5.22-24.18-5.12,15.38-89.99,30.06-184.89,14.6-276.24-1.19-7.04-2.61-16-4.24-22.77Z"/>
  <path class="st16" d="M403.67,816.86c-15.93,11.96-53.95,5.95-73.12,3.82-59.11-6.55-130.89-16.2-187.44-34.82-.74-.24-4.9-1.04-2.01-2.23,48.08,19.23,131.55,28.33,183.83,34.34,26.17,3.01,53.16,7.81,78.74-1.12h0Z"/>
  <path class="st45" d="M1111.92,710.8c4.13-.98,17.91-2.76,19.36-5.99,2.77-6.18,5.38-25.47,6.79-33.35,13.84-76.88,20.07-141.23,11.99-219.59-.22-2.09-.94-5.54,1.02-6.85,12.38,74.88.67,167.67-14.16,241.78-.95,4.76-2.57,15.71-4.5,19.29-2.9,5.38-15.4,4.15-20.5,4.73v-.02Z"/>
  <path class="st28" d="M1133.8,723.58c.02.19,1.02.66,1.17,1.25-70.67,8.38-143.25,28.96-213.79,35.64-3.97.38-12.19,1.7-14.25-2.39l9.77,1.27c72.48-11.12,144.66-24.81,217.1-35.78h0Z"/>
  <path class="st8" d="M567.2,756.8c-1.66,7.69-5.13,7.91-12.05,9l-134.22-3.89c.59,6.67-1,38.56-4.61,42.17-.76.76-1.06-1.27-1.14-1.27-.08-3.45,3.45-11.03,3.45-13.42v-28.11c0-2.59,8.89-2.05,10.99-1.96,35.38,1.42,70.44,3.41,105.94,3.83,8.42.1,30.11,6.26,30.47-8.89.26.69,1.2,1.46,1.15,2.56l.02-.02Z"/>
  <path class="st23" d="M1111.92,710.8c-57.18,13.63-116.2,20.06-173.89,30.67l49.11-10.04c41.76-5.43,82.96-15.89,124.79-20.63h-.01Z"/>
  <path class="st46" d="M878.14,428.4c3.12,1.94,3.93,11.83,4.46,16.13,4.05,32.68,6.6,74.17,7.11,107.12.14,8.86-.08,17.54-1.23,26.27-.51.02-1.05-1.31-1.13-1.3-.41-14.66.54-29.47.05-44.14-.09-2.72-1.08-5.16-1.19-7.63-1.33-32.16-2.66-64.84-8.07-96.46h0Z"/>
  <path class="st5" d="M470.47,286.56c66.53-49.39,137.77-90.91,205.71-137.84,5.06-2.94,9.97-3.66,15.4-1.43-4.87,9.32-15.01,15.14-23.13,20.96-32.24,23.13-67.08,45.07-100.09,67.19-31.61,22.17-63.5,44.2-95.53,65.52-4.41,2.93-14.45,3.09-15.59-3.58-.54-3.14,10.25-10.57,13.24-10.82h0Z"/>
  <path class="st12" d="M712.02,179.47c12.88,0,5.2,9.47-.96,14.34-29.05,22.97-65.68,44.21-96.54,65.39-15.83,10.86-71.18,54.4-84.81,56.67-12.08,2.02-8.26-3.03-2.2-8.82,53.27-50.91,125.23-85.72,184.51-127.58h0Z"/>
  <path class="st27" d="M568.36,235.44c2.57,1.02-1.72,2.83-2.29,3.21-31.18,20.63-61.74,42.36-92.87,63.07-4.98,2.24-9.81,4.14-14.32-.39-6.67-6.69,2.69-10.53,7.32-13.76,1.02-.71,3.53-3.82,4.27-1.02-2.2,1.63-13.04,8.61-12.62,10.75,1.14,5.74,11.14,5.43,14.92,2.66,31.59-22.03,63.66-43.14,95.59-64.53h0Z"/>
  <path d="M828.62,760.63c1.35,3.73,1.73,7.35,1.15,10.86.94,9.23.91,20.04,0,29.39,1.28,3.78-.09,9.26-1.15,13.42-4.08,33.41-22.27,81.99-55.05,90.35-55.79,14.22-68.24-78.77-65.92-121.71,1.94-35.95,20.11-93.99,56.18-102.51,41.52-9.8,59.36,44.25,64.79,80.2h0Z"/>
  <path class="st20" d="M828.62,760.63c.05-1.27-.05-2.56.01-3.83h1.13c-1.24,3.43,1.16,8.85,1.16,10.85v38.34c0,2.01-2.4,7.42-1.16,10.86-1.65.39-1.13-.82-1.14-2.55.33-2.71,1.15-11.35,1.15-13.42v-29.39c0-2.37-1.34-6.53-1.15-10.86Z"/>
  <path class="st0" d="M1338.79,652.02c3.94,21.39,5.09,43.11,3.45,65.17l-5.39,36.82c-8.91,58.79-57.43,90.53-74.44,14.07l-5.38-38.11c-.95-19.8-.81-40.76,3.45-60.06,3.32-19.08,13.21-51.38,27.09-63.86,29.52-26.55,46.54,20.52,51.22,45.97h0Z"/>
  <path class="st31" d="M1338.79,652.02l3.14,11.21c2.11,19.18,1.39,38.49,1.45,57.79-1.94.34-1.08-2.4-1.14-3.83-.99-22.16.64-42.91-3.45-65.17Z"/>
  <path class="st32" d="M1260.48,669.91c-3.44,19.76-3.09,40.06-3.45,60.06-.03,1.84.99,7.4-1.14,7.66-.26-20.68-.26-41.29,2.47-61.76.04-.32.73-9.33,2.12-5.95h0Z"/>
  <path class="st47" d="M1115.37,290.39c-.96,1.5-2,1.92-3.45,2.56-20.42,3.23-41.98,5.4-62.31,4.79,1.17-11.08,1.46-20.79.3-31.78-.79-7.49-2.08-18.96-5.94-24.12-.91-.2-7.59-12.52-11.59-15.89-26.84-22.6-67.25-6.56-96.02-.62-4.69.97-4.53.48-2.78-4.39,6.92-19.28,25.48-45.95,41.3-57.05,20.8-10.85,41.94-15.3,65.23-15.73,10.78-.2,37.5.27,46.38,4.69,3.14,1.56,13.24,42.56,14.74,48.74,3.8,15.67,18.26,77.17,15.4,86.7-.25.83-.61,1.57-1.25,2.1h-.01Z"/>
  <path class="st17" d="M900.84,313.66c9.74-2.44,37.08-.19,47.98,1.17,23.07,2.88,49.68,6.88,45.33,39.76-3.21,24.31-21.93,27.71-40.6,30.34-20.88,2.94-54.98,3.36-75.97,1.28-15.42-1.53-13.56-7.35-9.5-22,3-10.81,17.01-33.55,23.9-42.49,2.04-2.64,5.89-7.32,8.85-8.06h0Z"/>
  <path class="st21" d="M1147.62,166.44c20.78,9.32,56.37,75.92,66.58,99.27,1.94,4.44,5.58,8.94,1.36,11.9-25.17,6.4-51.91,8.67-77.49,8.47-7.33-43.13-15.53-86.08-24.61-128.83,1.37-3.58,30.88,5.43,34.16,9.19h0Z"/>
  <path class="st18" d="M1115.37,290.39c.14-.22.97-4.88.94-5.37-1.05-15.34-6.62-40.01-9.78-55.74-2-9.91-16.48-73.31-21.08-76.28-35.61-5.07-72.95-7.51-105.95,10.26-1.17.63-3.94,3.18-4.62.62,21.8-15.29,55.84-17.93,81.24-16.66,5.03.25,28.58,2.59,31.11,5.09s7.47,21.06,8.88,25.93c5.15,17.81,9.36,36.35,12.95,54.63,2.68,13.67,8.33,38.86,8.67,51.84.06,2.43.2,4.78-2.35,5.67h-.01Z"/>
  <path class="st34" d="M1147.62,166.44c-1.52-.68-6.91-2.86-9.75-3.88-3.3-1.19-21.95-6.81-23.64-5.06l24.74,127.84,1.12.91,43.81-3.53,31.68-5.1c-4.75,3.34-20.92,5.36-27.21,6.23-16.88,2.35-34.08,2.68-51.04,3.92-5.96-43.71-14.58-86.95-24.83-129.6l.59-3.23c11.98,2.37,24.51,2.87,34.54,11.51h-.01Z"/>
  <path class="st19" d="M1111.92,292.95c-6.86,2.97-23.6,4.36-31.68,5.1-10.46.95-21.17,1.2-31.66,1.29,2.39-19.67,1.67-38.79-4.6-57.51.08.02.36-2.02,1.14-1.27,3.37,3.24,6.74,33.11,6.81,39.11.03,3.01-2.65,16.8-1.1,17.79l61.1-4.51h-.01Z"/>
  <path class="st26" d="M1115.37,441.16c-13.57,4.16-29.11,7.63-43.23,6.46-10.07-.83-2.23-4.27,2.93-5.81,9.72-2.91,26.39-4.47,36.32-3.24,1.72.21,3.55.27,3.99,2.59h-.01Z"/>
  <path class="st22" d="M813.65,769.58c-.74,12.07-.74,23.99,0,35.78-5.91,95.04-81.62,111.43-89.68,9.42-2.6-32.99,4.08-86.1,29.25-107.78,35.7-30.76,58.3,31.34,60.43,62.58Z"/>
  <path class="st29" d="M813.65,805.36c-1.91-1.33-1.15-4.85-1.17-7.01-.09-9.23-.86-19.99,1.17-28.77.7,10.19.64,25.55,0,35.78Z"/>
  <path class="st25" d="M1271.99,744.02c-2.57-36.68-.06-73.03,12.67-107.34,16.07-33.6,31.12-15.36,38.31,11.8,8.35,31.58,7.1,71.84-.63,103.48-5.31,21.72-20.96,62.18-40.46,26.45-4.83-8.85-8.58-24.13-9.88-34.4h-.01Z"/>
  <path class="st6" d="M1271.99,744.02c-3.99-31.53-.97-78.82,12.67-107.34,2.35,1.19.5,3.95-.15,5.59-10.87,27.66-13.76,55.66-12.57,85.83.2,4.95,3.07,11.36.05,15.92h0Z"/>
</svg>