<?xml version="1.0" encoding="UTF-8"?>
<svg id="Layer_1" xmlns="http://www.w3.org/2000/svg" version="1.1" viewBox="0 0 1536 1024">
  <!-- Generator: Adobe Illustrator 29.5.1, SVG Export Plug-In . SVG Version: 2.1.0 Build 141)  -->
  <defs>
    <style>
      .st0 {
        fill: #f7dc45;
      }

      .st1 {
        fill: #f6de47;
      }

      .st2 {
        fill: #f5dc46;
      }

      .st3 {
        fill: #f3d142;
      }

      .st4 {
        fill: #010101;
      }

      .st5 {
        fill: #f6e14b;
      }

      .st6 {
        fill: #f3d643;
      }

      .st7 {
        fill: #f4d643;
      }

      .st8 {
        fill: #f5d644;
      }

      .st9 {
        fill: #f3d845;
      }

      .st10 {
        fill: #f7d842;
      }

      .st11 {
        fill: #f5d942;
      }

      .st12 {
        fill: #f2d744;
      }

      .st13 {
        fill: #f4d644;
      }

      .st14 {
        fill: #f8dd46;
      }

      .st15 {
        fill: #eed543;
      }

      .st16 {
        fill: #e5c93f;
      }

      .st17 {
        fill: #f7d744;
      }

      .st18 {
        fill: #f7df47;
      }

      .st19 {
        fill: #f6e047;
      }

      .st20 {
        fill: #f3dd48;
      }

      .st21 {
        fill: #f6da46;
      }

      .st22 {
        fill: #f8dc45;
      }

      .st23 {
        fill: #e2962f;
      }

      .st24 {
        fill: #f7d943;
      }

      .st25 {
        fill: #f6dc45;
      }

      .st26 {
        fill: #e3962f;
      }

      .st27 {
        fill: #f9db44;
      }

      .st28 {
        fill: #f5dc45;
      }

      .st29 {
        fill: #f4d844;
      }

      .st30 {
        fill: #f6db45;
      }

      .st31 {
        fill: #e64e2a;
      }

      .st32 {
        fill: #f4dc45;
      }

      .st33 {
        fill: #e2972f;
      }

      .st34 {
        fill: #f1d442;
      }

      .st35 {
        fill: #f4d742;
      }

      .st36 {
        fill: #f3d744;
      }

      .st37 {
        fill: #f7dd45;
      }

      .st38 {
        fill: #f6d644;
      }

      .st39 {
        fill: #f4d946;
      }

      .st40 {
        fill: #fefefe;
      }

      .st41 {
        fill: #f2d845;
      }

      .st42 {
        fill: #f7e046;
      }

      .st43 {
        fill: #f4d943;
      }

      .st44 {
        fill: #f1d745;
      }

      .st45 {
        fill: #f5d944;
      }

      .st46 {
        fill: #f9dc45;
      }

      .st47 {
        fill: #f7dd46;
      }

      .st48 {
        fill: #f7dc46;
      }

      .st49 {
        fill: #f4d945;
      }

      .st50 {
        fill: #f1d543;
      }
    </style>
  </defs>
  <path class="st4" d="M833.46,351.33c4.54,38.44,8.12,80.09,21.46,116.19,21.87,59.18,75.83,100.86,113.57,147.21,33.34,40.95,63.16,91.69,74.74,145.93,2.46.37,3.77-2.2,5.11-3.98,41.02-54.39,25.23-189.81,2.04-251.27-5.4-14.3-19.96-34.07-3.6-47.47,23.65-19.37,57.49,6.23,73.53,26.37,87.31,109.63,53.24,345.65-63.15,416.48-5.39,3.28-18.98,7.48-21.53,9.59-1.6,1.32-7.36,14.6-9.3,18.04-1.52,2.7-9.79,14.03-9.79,14.96,0,2.41,3.21,5.39,5.34,5.72,31.63,5.89,68.16,4.77,98.46,16.84,16.66,6.64,23.97,21.41,3.66,29.99-24.66,10.41-71.36,10.27-98.71,12.68-95.41,8.4-190.6,13.17-286.21,14.24-47.41.53-101.73,2.95-148.37-1.36-15.82-1.46-30.6-8.81-44.06-10.31-36.12-4.02-135.58,15.99-141.83-43.41-5.08-48.28,29.34-78.27,67.99-86.67,2.96-.64,8.41.8,9.37-2.47.38-31.06,3.92-61.91,5.94-92.81,1.49-22.75,1.92-45.67,3.5-68.41,6.35-91.01,13.07-182.28,28.95-271.82-48.39,12.38-113.39,11.74-143.02-40.14-12.5-21.89-18.58-54.77-16.89-80.58.41-6.22,3.5-15.62,3.48-20.69-.02-4.25-2.86-8.69-3.39-13.01-3.49-28.65,15.52-45.3,38.88-49.43,21.37-3.78,61.02-.91,78.45-14.6,11.16-8.76,8-26.91,11.2-39.8-42.88,10.61-70.71-8.23-53.87-59.39,11.69-35.51,41.27-78.72,70.19-98.7,36.33-25.09,97.69-33.2,122.51,14.35,1.74,3.33,5.33,15.21,6.78,15.76,29.82-3.67,60.5-.48,88.14,12.84l1.49-.38c10.83-17.59,26.45-32.76,44.09-41.35,58.84-28.67,124.83,23.97,158.02,75.64,39.54,61.54,30.93,102.29-5.3,161.68-20.13,33-51.17,75.79-87.87,83.53Z"/>
  <path class="st26" d="M768.57,524.35c27.9-14.43,44.17-28.97,65.55-52.86.96-1.07,1.03-1.84,2.81-1.37,10.31,30.57,28.79,56.69,47.53,81.35,19.48,22.85,39.18,44.8,59.1,65.86,22.62,27.1,44.69,56.1,60.26,89.1,11.1,24.88,18.44,51.14,22.02,78.77,7.77,41.9,2.29,85.12-11.59,123.96-3.2,7-16.24,24.77-17.15,29.33-1.61,8.06,3.78,15.77,4.4,23.61-1,19.87-9.82,25.6-26.43,28.55-16.91,3.01-36.75,3.48-53.91,3.7-.26,0-.52-.55-.79-1.25-1.09.72-2.19,1.31-3.34,1.46-21.49,2.69-50.82,3.09-72.62,2.13-6.88-.3,10.34-48.33,14.25-54.02l-.87.06c-9.37-5.1-12.29-1.23-18.34,7.32-6.96,9.85-11.3,25.58-13.58,37.81-.48,2.59-.12,6.36-.52,7.81-3.86.87-17.8,1.27-20.69-1.02-6.41-5.07,3.24-35.37,6.79-41.59,2.13-4.06,9.61-11.47,3.47-14.89-4.44-2.48-10.55,3.72-13.33,7.13-7.87,9.66-13.41,27.38-15.63,40.04-.92,1.84-1.35,3.94-1.28,6.3-3.47-.15-21.72-3.22-21.15-6.84,3.64-11.65,6.87-23.09,9.69-34.32,12.87-29.43,38.03-35.55,62.22-48.87,10.14,7.15,35.16,17.79,46.78,16.02,8.67-1.32,11.62-10.65,3.08-15.2-7.72-4.12-22.93-5.75-32.72-10.03-14.78-6.46-26.09-15.53-34.16-31.02-14.51-34.61-16.52-72.45-10.43-109.76,5.94-24.12,21.21-49.03,40.56-61.98,19.1-11.02,37.13-12.55,57.94-9.04,8.03,1.96,22.36,12.44,25.77.92,3.03-10.22-10.36-17.35-17.66-20.29-21.72-10.62-54.34-6.95-76.49,9.04-14.9,11.9-28.95,27.43-38.24,45.2-23.51,43.59-25.17,109.95-1.16,153.66,4.79,8.97,11.49,16.47,18.54,23.23-29.54,7.19-55.35,32.76-64.91,64.58l-2.35-3.26,3.52-36.77c1.38,5.03,1.63,4.75.75-.81,1.93-37.04,4.77-73.78,8.52-110.24,2.47-29.95,4.77-58.93,6.91-86.95l-1.12.43c.38-7.35.42-11.46-2.32-18.08-.07-1.87-4.81-2.85-7.72-.86-5.19,3.55-5.53,12.76-5.03,18.94-.32,2.13-1.13,3.67-1.16,3.87-3.52,28.29-6.61,57.56-9.27,87.81-4.9,39.54-8.77,78.71-11.59,117.51-5.19,41.28-9.87,63.7-50.99,69.73-14.44.08-29.18.58-44.21,1.49-.17-5.67-.11-11.34.18-16.99.81-4.63,2.79-10.66,4.43-15.08,1.65-4.44,11.68-22.77,11.27-25.05-.91-5.03-6.23-4.34-9.6-2.79-2.93,1.35-9.96,12.27-11.88,15.8-7,11.71-11.92,26.44-14.77,44.18-.37,1.1-19.44.04-20.85-1.82-1.1-10.07-.82-20.31.85-30.74.84-3.37,3.01-9.32,4.43-12.49,1.97-4.4,14.95-20.74,6.55-22.41-7.24-1.44-12.48,7.77-16.77,12.95-8.97,15.06-13.26,32.49-12.85,52.31-20.66-3.3-21.43-12.01-15.89-31.73,2.15-7.66,5.07-15.2,9.04-21.87,1.36-2.87,1.67-3.7,3.48-6.46,13.76-16.84,32.73-22.15,52.21-26.29l8.05-3.41c.38-.34.85-.87,1.16-1.29l2.01-5.05c5.98-61.75,9.94-124.2,11.9-187.36.25-10.48.77-21.07,1.54-31.76,1.15-10.76-1.99-21.15-13.13-17.31-8.92,12.54-8.79,37.88-8.65,54.01.02,1.82.14,3.62.53,5.38-1,14.61-2.81,29.21-2.32,43.9-1.89,2.18-14.66-9.49-16.83-11.58-13.62-13.12-25.18-31.4-33.6-49.07-4.6-9.64-9.78-28.49-14.46-35.54-4.38-6.62-13.03-7.03-14.62,1.9-2.31,12.93,14.43,49.98,21.09,61.92,4.99,8.95,12.25,16.76,16.71,24.64.03,1.68.41,3.39,1.13,5.15-2.91,45.12-6.58,91.01-11.02,137.67-3.82,6.31-8.25,12.07-13.29,17.3-8.78,13.48-17.4,28.72-20.86,45.2-1.03,2.35-1.27,2.4-.71.16-1.46,8.1-2.32,16.28-2.76,24.37-12.61,2.17-28.05,1.41-41.14,0-.3.3-.62.55-.96.62-5.62,1.11,3.16-40.88,5.01-44.52,2-5.46,7.16-9.88,5.64-16.62-6.47-3.76-10.41.33-14.92,5-10.7,15.53-16.28,35.15-16.79,54.64-.32.86-14.12.15-15.65-1.7-.98.85-5.03-.62-5.29-1.68-3.97-16.2,4.03-41.46,11.09-55.14.23-10.13-6.54-7.38-12.13-2.54-9.54,8.25-14.56,30.25-15.67,43.23-.32,3.78.42,8.02-.01,11.63-.18,1.48.45,2.61-1.72,1.89-10.45-3.43-14.26-20.84-13.23-31.48,4.17-42.9,38.77-52.15,70.57-56.31,4.52-.27,6.71-4.4,6.56-12.39,4.3-55.91,8.29-112.05,11.99-168.39,1.61-37.89,4.09-75.96,8.11-113.63,1.27-16.19,2.61-32.79,4.03-49.8,39.87,15.56,82.43,16.63,123.45,11.07,41.44-7.96,85.11-18.86,121.68-40.03Z"/>
  <path class="st26" d="M853.17,62.07c35.36,19.7,82.3,76.43,80.01,123.37-1.89,38.7-46.75,104.41-73.04,129.09-23.15,21.73-48.04,21.78-64.91-8.41-9.47-24.02-15.54-50.86-17.38-77.48-3.9-26.45-6.78-55.36-8.12-82.64,0-.22.1,4.09-1.15,3.87-3.25-8.18-1.25-36.16-13.21-34.86-4.22.46-5.4,4.95-6.49,5.16-1.64,5.4-1.93,11.52-.88,18.38l6.68,65.55c2.04,17.14,3.88,34.36,5.51,51.66,2.88,22.92,7.38,46.24,18.82,65.85,6.95,10.13,13.88,18.2,24.31,23.92,4.73,2.59,11.38,2.2,12.52,8,2.91,14.89,2.26,20.16-5.56,31.97-15.13,22.84-44.04,43.54-67.19,54.91-55.08,30.5-116.9,40.54-176.15,36.16-10.5-1.2-21.06-3.67-31.3-6.47-.92-1.38,8.32-30.47,9.5-32.67,1.33-2.48,20.7-12.79,25.18-15.85,14.73-10.07,28.78-22.15,39.47-37.37,8.23-11.73,23.12-36.95-2.72-31.44-18.35,22.25-36.9,44.3-62.15,56.65-29.06,16.47-63.56,26.18-92.71,6.46-10.04-8.09-19.4-23.61-24.34-36.16-4.02-12.06-6.42-24.39-7.19-37,6.48-3.1,12.36-6.69,17.62-10.78,21.31-13.5,39.56-37.17,25.94-65.7-1.91-4-5.35-6.29-6.23-10.48,25.35-3.18,45.36-12.23,48.65-43.29,2.27-21.47.28-22.7,10.67-42.34,16.2-30.64,40.3-55.6,69.31-70.62,44.1-19.33,93.42-25.55,137.77-3.82,2.42.7,8.83,1.78,7.09-.05,11.76-15.53,23.54-33.74,40.56-42.61,26.98-10.03,56.25-8.16,81.12,9.04Z"/>
  <path class="st26" d="M1094.22,486.9c27.78,19.71,46.38,74.62,52.15,109.76,8.33,66.56,2.56,134.2-24.34,194.98-13.86,29.37-43.71,72.39-69.53,89.1-2.57,1.37-4.79,1.73-6.65,1.08,4.1-29.93,5.36-61.09,2.57-90.93,3.36-5.91,7.42-11.26,12.19-16.04,1.97-3.14,5.36-8.53,6.95-11.62,11.43-21.59,18.77-45.26,22.02-71.02,7.61-70.33,1.11-143.18-25.78-206.91-8.52-23.92,23.94-5.42,30.42,1.6Z"/>
  <path class="st31" d="M526.47,530.69l4.69-39.07c.25-.98.82-1.75,1.71-2.03,1.88-.59,21.25,4.29,25.52,4.88,57.8,8,113.4-.52,167.58-23.38,35.82-15.11,70.49-37.04,95.89-69.41.92,15.33,5.19,30.21,9.06,44.8-16.11,22.54-38.43,40.06-61.18,54.01-27.14,16.63-56.33,29.27-86.72,36.37-51.36,12-106.42,11.65-156.56-6.17Z"/>
  <path class="st23" d="M598.21,41.41c4.36,2.79,12.42,10.75,15.07,15.5l1.16,4.85c-16,5.68-32.67,12.47-47.51,22.26-28.84,20.7-54.62,46.57-71.85,80.06-12.94,3.72-27.85,7.65-40.56,0-9.28-8.93-3.1-23.54.96-34.44,11.79-31.68,40.92-73.44,69.73-86.94,23.83-7.88,49.29-13.35,73.01-1.29Z"/>
  <path class="st40" d="M624.68,793.13l-4.68,97.05c-2.39,5.1-18.07,4.86-22.94,7.35l8.11-116.21,19.51,11.8Z"/>
  <path class="st33" d="M401.2,339.7l1.97,2.44c.8,19.33,4.39,37.03,10.78,53.09,3.38,8.29,9.45,16.74,14.32,24.08l11.17,9.48c-28.39-6.44-48.38-30.23-56.19-60.69-1.02-3.98-4.06-16.76-4.06-20.01v-23.24c0-.19,1.39-3.39,1.73-3.22,7.26,5.37,13.58,11.97,20.29,18.07Z"/>
  <path class="st18" d="M1094.22,486.9c-6.3-4.47-35.71-23.94-30.74-3.83,2.49,10.08,10.02,24.17,13.4,35.42,16.26,54.03,20.32,117.87,12.7,173.73-.68,1.05-1.07.62-1.16-1.29,9.34-72.2-.22-146.44-27.68-212.44.19-12.84,21.1-1.44,26.14,1.74,2.66,1.68,5.83,3.57,7.34,6.67Z"/>
  <path class="st22" d="M635.3,906.57c3.1-11.79,3.72-24.51,4.62-36.81,3.81-51.61,5.77-103.86,8.12-155.59.33-1.13.72-1.11,1.16,0-2.55,57.36-3.12,120.92-9.29,177.54-.76,6.94-.71,9.61-4.62,14.87Z"/>
  <path class="st28" d="M743.07,440.42c-53.21,30.81-116.32,43.01-176.15,36.16,4.95-3.5,11.63-.17,16.76.05,56.19,2.41,108.41-11.18,159.4-36.21Z"/>
  <path class="st0" d="M511.29,716.75c-3.85,54.27-5.26,109.21-10.44,163.34-.46,4.84-.92,17.13-5.49,18.6-1.52.49-2.47-1.18-2.61-1.16l4.5-3.38c6.5-59.07,8.66-119.19,12.88-178.69.6-.88.99-.45,1.16,1.29Z"/>
  <path class="st7" d="M1122.03,791.65c-2.32-.77,0-3.87.57-5.18,26.37-60.54,30.39-116.96,22.94-183.09-.23-2.07-1.3-5.39.83-6.71,10.61,64.6,3.19,136.64-24.34,194.98Z"/>
  <path class="st30" d="M646.88,563.09c1.01.37,1,.8,0,1.29-9.44,1.34-19.81,3.36-29.56,3.86-31.69,1.63-63.35-2.65-93.27-14.19-1.17,15.29-2.16,30.65-3.44,45.94-.14,1.69-1.19,2.9-1.21,3.12-.33,1.13-.72,1.11-1.16,0,1.41-17.2,3.52-34.41,4.65-51.65,40.18,17.54,81.71,17.51,123.99,11.62Z"/>
  <path class="st10" d="M562.29,920.78c4.16-6.38,8.68-11.2,12.69-17.5,2.38-37.91,6.62-75.72,9.33-113.57.49-6.91,1.9-17.59,1.74-23.82-.05-2.03-2.96-4.4-.57-5.23,4.04,7.16.59,16.83,0,25.19-2.55,36.21-3.54,78.13-8.25,113.48-1.34,10.08-8.62,14.91-14.94,21.45Z"/>
  <path class="st19" d="M731.48,95.64l1.17,1.26c-8.35,1.84-14.48-3.64-21.79-6.06-42.11-13.94-78.88-9.59-119.2,8.48-1.48.67-3.91,2.9-5.05.18,35.82-18.54,83.19-24.29,121.12-11.64,7.97,2.66,15.25,8.45,23.74,7.77Z"/>
  <path class="st43" d="M799.86,715.46c-22.15,42.36-23.87,111.19-1.16,153.66-2.49,1.11-5.22-7.46-6-9.46-17.06-44.22-15.7-98.97,4.22-141.66.3-.64,2.05-5.4,2.93-2.54Z"/>
  <path class="st48" d="M857.8,942.73c.06.03.95-2.4,1.16-.64-.08,7.41-5.57,13.29-8.33,20.42-4.04,10.46-6.51,21.71-5.59,33.17,10.23-.26,20.53.31,30.76.05,14.68-.37,29.87-1.88,44.57-2.64,3.08.41,2.94,1.6,0,2.58-25.46,1.24-51.11.63-76.56,2.04-4.41-3.6,3.48-30.96,5.67-36.48,2.56-6.46,6.87-11.78,8.31-18.5Z"/>
  <path class="st32" d="M768.57,524.35c2.77,1.1-4.73,3.96-5.01,4.1-37.2,18.1-76.42,30.2-116.67,35.93v-1.29c39.73-5.53,85.41-19.97,121.68-38.74Z"/>
  <path class="st3" d="M1014.25,909.16c-2.37-1.2-.5-3.99.15-5.65,14.7-37.55,16.88-78.13,11.44-118.32.33-1.13.72-1.11,1.16,0,5.67,39.94,4.11,87.09-12.75,123.96Z"/>
  <path class="st50" d="M500.86,946.6c2.45,1.25.37,3.98-.15,5.64-2.32,7.3-5.06,15.69-5.62,23.44-.18,2.54-.73,14.83,1.72,14.83h41.14c-1.35-8.35,1.06-17.07,2.26-25.26l1.22.73c-1.71,8.15-2.42,17.48-2.31,25.83-15.12,2.29-30.06.39-45.2,0v-21.31c0-3.76,5.32-19.42,6.95-23.89Z"/>
  <path class="st17" d="M570.4,944.02c-4.65,9.82-11.89,29.67-11.21,40.51.56,8.98,11.52,10.28,17.57,12.46.8-17.03,2.15-36.42,11.22-50.98,1.52-2.44,2.03-.58,2.13-.69-8.58,16.14-12.49,34.17-11.59,52.95-5.18.18-16.98-3.46-19.57-8.54-4.61-9.07,4.61-37.93,11.46-45.7Z"/>
  <path class="st15" d="M818.4,861.38c-15.21-29.19-18.34-77.63-10.43-109.76,2.18,1.22.73,4.37.42,6.26-5.49,33-3.59,67.72,9.44,98.32.56,1.32,2.9,4.4.57,5.18Z"/>
  <path class="st28" d="M511.29,716.75l-1.16-1.29c2.65-37.39,5.04-74.99,8.11-112.34h1.16c-3.11,37.5-5.47,76.46-8.11,113.63Z"/>
  <path class="st46" d="M762.77,805.85l-8.12,114.92-1.15-3.87c1.4-37.04,4.99-74.12,8.11-111.05.33-1.13.72-1.11,1.16,0Z"/>
  <path class="st48" d="M779,321.62c-20.07-29.25-21.06-81.64-24.34-117.51.01.12.94.77,1.09,1.99,4.79,39.1,5.29,80.44,23.24,115.52Z"/>
  <path class="st42" d="M1060.61,774.86c-1.99,3.17-11.49,14.95-11.6,16.16-.18,2.07,1.18,4.99,1.22,7.67.42,27.62.36,55.39-3.55,82.68l5.81-.63c-1.3.84-7.32,4.57-8.11,3.86,1.12-3.84,1.89-8.26,2.3-12.27,2.25-22.15,2.86-46.17,2.38-68.47-.09-4.29-1.81-8.24-1.28-12.91.63-5.49,9.1-12.17,12.82-16.09Z"/>
  <path class="st47" d="M920.38,995.67v-2.58c15.91-.82,59.43.37,71.28-9.03,7.11-5.63,7.25-13.62,9.85-21.96,2.17,27.68-21.72,29.13-39.99,30.99-13.55,1.38-27.55,1.93-41.14,2.59Z"/>
  <path class="st29" d="M731.48,928.53c-1.93-1.69-1.33-5.95-1.15-8.38,2.73-35.56,8.61-73.9,12.74-109.13-3.64,39.14-6.7,78.6-11.59,117.51Z"/>
  <path class="st37" d="M544.9,409.43c-26.64,16.95-65.79,28.15-92.71,6.46l20.63,8.65c23.48,5.99,50.62-4.61,72.09-15.11Z"/>
  <path class="st36" d="M630.66,955.64c-7.59,13.93-10.57,29.81-14.61,45.27-7.36-.23-15.02.77-21.97-2.57-1.28-10.41-.68-21.03,1.82-31.08,1.89,6.71-1.27,14.26-1.25,21.32,0,1.61.84,9.05,1.37,9.54.75.7,16.93,1.31,19.53,1.36,2.08-14.44,6.15-28.37,12.18-41.3.3-.64,2.05-5.4,2.93-2.54Z"/>
  <path class="st27" d="M943.56,617.32c-.49,2.58-2.94-1.34-3.48-1.94-18.77-20.92-38.67-41.6-55.63-63.92,19.99,21.57,40.14,43.15,59.1,65.86Z"/>
  <path class="st35" d="M762.77,805.85h-1.16c2.16-25.6,4.65-51.24,6.94-76.84.28-3.19-.29-6.56.01-9.67.23-2.41,2.3-6.61,1.17-10.32l1.14,8.38c-2.93,28.37-4.54,56.9-6.89,85.34-.1,1.23-.37,2.27-1.21,3.12Z"/>
  <path class="st24" d="M752.34,723.21c-3.54,29.01-5.9,59-9.27,87.81,2.74-29.47,5.36-58.97,8.14-88.44l1.13.63Z"/>
  <path class="st5" d="M853.17,62.07c-24.73-13.78-49.13-19.46-76.06-9.21-1.48.56-3.93,2.92-5.06.17,23.25-12.11,60.48-8.53,81.12,9.04Z"/>
  <path class="st34" d="M748.87,120.18c-1.28,19.83,3.01,40.18,4.63,60.05.63,7.67.48,16.35,1.16,23.88-2.72-22.61-7.3-50.1-8.1-72.97-.15-4.32-.19-8.16,1.22-12.24.47.19.99,1.3,1.08,1.28Z"/>
  <path class="st1" d="M838.1,670.27c22.23-17.76,48.4-18.86,74.4-11.22.75.22,5.01.91,2.09,2.18-25.52-10.3-53.1-4.78-76.49,9.04Z"/>
  <path class="st39" d="M795.22,306.12c-11.63-20.82-15.42-53.32-18.54-77.48.33-1.13.72-1.11,1.16,0,3.95,25.21,6.75,49.04,16.82,72.29.57,1.31,2.89,4.41.57,5.18Z"/>
  <path class="st2" d="M777.84,228.65h-1.16c-3.37-26.1-5.41-52.57-8.11-78.77l1.15-3.87,8.12,82.64Z"/>
  <path class="st49" d="M1027,785.19h-1.16c-3.73-27.58-10.76-48.7-21.45-73.59-.57-1.32-2.9-4.41-.57-5.18,12.44,26.36,19.02,49.5,23.18,78.77Z"/>
  <path class="st20" d="M598.21,41.41l-15.94-4.84c-17.89-4-35.01.06-52.03,5.94-1.46.5-3.89,3-5.04.19,20.58-9.64,53.04-14.08,73.01-1.29Z"/>
  <path class="st44" d="M634.14,907.87c-7,6.37-18.93,6.43-28.06,9.41-4.67,1.52-9.12,3.52-13.64,5.47l-18.56,14.83c14.55-22.15,38.57-22.66,60.26-29.7Z"/>
  <path class="st12" d="M1089.58,692.22c-3.63,26.63-7.8,44.46-19.08,68.49-.58,1.23-1.24,4.27-2.93,2.53,12.02-23.33,17.44-45.9,20.86-72.31l1.16,1.29Z"/>
  <path class="st41" d="M491.59,934.98c-9.11,16.85-16.12,35.49-16.22,55.53-5.48.25-10.87.06-16.23-1.3-1.01-.37-1-.8,0-1.29,1.82.43,14.54,1.89,15.07,1.3.16-16.97,5.99-42.43,17.38-54.24Z"/>
  <path class="st13" d="M773.2,950.48c2.42,1.22.41,3.99-.15,5.65-3.19,9.49-6.41,18.87-8.97,28.61.26,2.98,16.27,5.11,19,6.86l1.73-6.88,1.13.63c-.3,1.72.4,7.3,0,7.75l-23.14-5.22c-1.42-1.81,8.47-32.99,10.39-37.4Z"/>
  <path class="st16" d="M464.94,931.11c0,.14,1.14.86.91,1.72-.44,1.66-2.65,3.15-3.47,5.13-6.6,15.97-9.07,30.16-7.96,47.93.05.28,4.09,1.89,4.72,2.03v1.29c-1.34-.34-5.43-.88-5.83-2.17-2.06-19.08.6-40.42,11.62-55.94Z"/>
  <path class="st36" d="M811.45,953.06l-5.67,17.57c-.37,5.62-4.39,18.41-1.42,23,.93,1.44,18.06,2.3,20.99,2.04-.57,2.04-11.94,1.56-14.47,1.27-10.25-1.18-9.46-3.84-8.69-14.81.79-11.25,4.3-19.65,9.25-29.07Z"/>
  <path class="st45" d="M680.49,998.26c-14.85,2.18-30.26,2.25-45.2,2.59-.34-6.27.1-11.95,1.16-18.08,3.66,3.59-3.21,14.71,1.91,16.63,11.52-.79,23.04-1.53,34.55-2.48,2.16-.18,6.09-.74,7.58,1.35Z"/>
  <path class="st21" d="M906.48,680.6c-6.34,2.49-14.87-1.42-21.44-1.41-11.97,0-21.44,4.27-31.85,9.82-1.18.63-3.95,3.23-4.65.63,18.35-12.28,37.15-14.12,57.94-9.04Z"/>
  <path class="st8" d="M427.85,379.73c-3.19-8.09-9.93-29.77-8.16-37.89,6.14-3.32,12.64-6.11,18.59-9.89,2.56.98-1.71,2.94-2.28,3.27-2.69,1.55-14.38,7.04-14.99,9.22.44,10.45,3.62,19.96,6.69,29.65.52,1.65,2.61,4.39.15,5.64Z"/>
  <path class="st6" d="M613.28,56.9c.6,1.08,2.94,5.66,2.32,6.45-17.42,3.24-32.75,13.03-48.67,20.67,6.02-4.32,12.05-8.55,18.92-11.85,8.84-4.24,18.11-7.53,27.45-10.12v-5.15Z"/>
  <path class="st9" d="M649.2,714.17h-1.16c.61-13.44,1.83-26.9,2.04-40.37-.09-6.29-7.62-10.77-12.47-8.7,15-6.81,14.2,11.66,13.96,22.65-.18,8.09-2.01,18.44-2.37,26.42Z"/>
  <path class="st11" d="M401.2,339.7c.89.81,3.2.63,3.52,2.16-.02,17.1,2.83,37.67,9.23,53.37-.96,3.39-2.74-3.57-2.85-3.92-1.47-4.48-2.84-9.01-4.01-13.61l-5.88-38Z"/>
  <path class="st25" d="M637.61,665.1c-1.18.5-4.07,7.79-4.52,9.81-2.92,13.07-2.61,35.32-3.59,49.59-1.94-2.91-1.4-8.81-1.2-12.32.53-9.38,1.26-21.63,2.51-30.77.92-6.74.83-13.59,6.81-16.3Z"/>
  <path class="st14" d="M495.07,164.08l-1.95,2.29c-12.38,1.18-28.34,7.59-38.61-2.29l15.65,3.99,24.91-3.99Z"/>
  <path class="st24" d="M766.25,701.26c-11.72-5.13-11.46,9.38-12.75,18.08-3.14-9.43,1.22-23.51,12.04-20.48,2.74.77.65,2.25.71,2.4Z"/>
  <path class="st4" d="M634.96,204.39c21.42-5.46,21.06,34.95,15.09,49.08-3.14,7.42-7.53,10.39-15.09,8.47-14.44-3.68-13.35-54.14,0-57.55Z"/>
  <path class="st4" d="M550.7,202.82c8.06,12.55,4.5,52.37-15.02,45.54-13.55-4.74-14.52-46.25-.04-50.71,6.75-1.02,9.84-.62,15.07,5.17Z"/>
  <path class="st38" d="M535.63,197.66c-13.27,6.63-12.53,46.74.83,50.09,18.87,4.73,20.43-32.39,14.24-44.93,7.97,8.81,5.54,40.79-4.93,45.51-25.27,11.38-26.54-43.89-12.35-51.4,1.52-.81,2.1.75,2.21.73Z"/>
</svg>