<?xml version="1.0" encoding="UTF-8"?>
<svg id="Layer_1" xmlns="http://www.w3.org/2000/svg" version="1.1" viewBox="0 0 409.6 409.6">
  <!-- Generator: Adobe Illustrator 29.5.1, SVG Export Plug-In . SVG Version: 2.1.0 Build 141)  -->
  <defs>
    <style>
      .st0 {
        fill: #fe9055;
      }

      .st1 {
        fill: #fea964;
      }

      .st2 {
        fill: #464655;
      }

      .st3 {
        fill: #fec778;
      }

      .st4 {
        fill: #6b676e;
      }
    </style>
  </defs>
  <path class="st2" d="M191.2,170.87l1.8-.35c6.87-8.02,16.9-8.07,23.66.07l1.74.28c-.03-.73-.04-1.45.07-2.16s.21-1.37.54-1.89c32.75-51.67,74.94-101.1,137.64-113.22,17.38-3.36,50.18-5,52.96,18.27v11.18c-1.05,16.34-3.61,32.51-7.37,48.24-4.96,20.82-14.02,46.38-36.25,53.92-4.4,1.49-11.47,3.73-15.18.84-1.68,3.33-9.81,1.46-13.2,0,9.78,3.44,18.41,13.56,24.54,21.96,37.15,50.85,9.16,111.19-41.05,139.4-15.49,8.7-50.78,16.53-66.56,6.94-14.92-9.07-34.39-52.88-39.95-69.89-1.6-4.91-3.03-9.31-2.58-14.57-1.93-1.32-2.74-3.5-2.44-6.53l.1-25.29c-3.14,1.14-6.57,1.14-9.73,0l.07,27.98c-.03,1.74-.49,3.62-2.41,3.83-1.75,13.54-7.45,26.81-12.86,39.37-7.7,17.88-20.87,47.84-43.12,49.39-75.96,5.28-143.6-83.8-94.34-150.52,6.18-8.37,15.11-18.3,24.72-22.07-3.54,1.6-10.83,3.19-13.2,0-3.76,2.9-10.87.63-15.3-.9-22.77-7.85-31.85-34.73-36.72-56.09-3.56-15.62-5.98-31.37-6.78-47.61v-10.38c.45-4.7,1.55-7.26,4.88-10.53,15.96-15.69,55.38-7.26,74.11.35,49.47,20.1,83.76,62.03,111.6,105.93.33.52.43,1.19.53,1.89s.1,1.43.07,2.16Z"/>
  <path class="st1" d="M177.6,220.38c-22.45,20.02-45.34,39.62-64.78,62.69-7.35,8.72-13.47,19.06-20.49,27.46-7.1,8.5-18.26,10.31-25.14.47-9.62-13.75,6.92-23.6,14.82-32.33,12.76-14.1,23.48-30.02,29.19-48.31,21.61-6.06,44.09-8.12,66.4-9.98Z"/>
  <path class="st1" d="M232,220.38c22.33,1.74,44.78,3.94,66.4,9.98,5.69,18.28,16.43,34.24,29.19,48.31,4.46,4.92,16,13.79,17.02,19.74,2.92,17.05-15.5,26.29-27.34,12.12-7.01-8.39-13.15-18.73-20.49-27.46-19.42-23.09-42.33-42.66-64.78-62.69Z"/>
  <path class="st4" d="M191.2,170.87c1.35-2.45,2.01-6.12,1.23-8.8l-46.2-92.02c-3.11-7.1,4.64-12.81,10.62-7.99,12.32,24.13,24.7,48.27,36.64,72.59,2.15,4.37,5.45,13.97,8.03,17.36.68.9,5.91.85,6.57,0,.82-1.07,1.62-4.55,2.43-6.18,12.65-25.51,25.96-56.35,40.28-80.37.66-1.1,1.67-3.38,2.58-4.01,5.45-3.78,12.8,1.61,10.25,8.04l-46.45,92.57c-.78,2.69-.12,6.35,1.23,8.8-2.15,3.55-3.62-.67-6.13-2.26-5.23-3.32-9.09-3.56-14.42-.29-2.75,1.69-4.54,6.03-6.65,2.55Z"/>
  <path class="st3" d="M180,190.02c-3.5-.84-7.22-.44-10.71-.88-19.71-2.51-36.25-13.35-56.19-15.78-14.63-1.78-28.92-.31-43.55-.45-8.39-.91-9.93-12.97-2.14-15.8,5.24-1.9,18.19-2.76,24.15-3.04,10.32-.49,40.05-.49,48.38,3.68,5.28,2.64,14.19,9.76,19.17,13.61,7.35,5.68,14.76,11.7,20.88,18.67Z"/>
  <path class="st3" d="M229.6,190.02c6.13-6.98,13.53-12.99,20.88-18.67,4.97-3.84,13.88-10.96,19.17-13.61,8.33-4.17,38.06-4.17,48.38-3.68,5.96.28,18.91,1.14,24.15,3.04,7.79,2.82,6.25,14.89-2.14,15.8-14.63.15-28.92-1.33-43.55.45-19.94,2.43-36.49,13.27-56.19,15.78-3.49.44-7.2.04-10.71.88Z"/>
  <path class="st1" d="M179.99,236.34l-60.8,99.4c-8.98,8.62-22.46,1.61-19.81-10.99.46-2.19,7.31-12.37,9.07-14.9,19.22-27.53,46.5-51.41,71.54-73.51Z"/>
  <path class="st1" d="M229.61,236.34c25.01,22.09,52.34,46.01,71.54,73.51,1.76,2.53,8.61,12.71,9.07,14.9,2.65,12.61-10.83,19.62-19.81,10.99l-60.8-99.4Z"/>
  <path class="st1" d="M107.99,139.74c.19,1.39-1.82.75-2.79.79-19.58.71-35.9,1.95-54.98,6.62-6.84,1.67-16.73,7.88-22.11.06s-1.95-19,5.09-24.24c9.69-7.21,20.37-2.52,30.8.4,15.1,4.22,29.56,10.38,44,16.38Z"/>
  <path class="st1" d="M301.6,140.52l11.45-5.73c10.88-4.55,39.8-15.48,50.54-15.87,12.22-.45,22.12,10.38,20.05,22.45-2.97,17.26-22.05,5.91-33.21,3.52-15.85-3.39-32.65-4.03-48.82-4.37Z"/>
  <path class="st0" d="M169.59,162.08c-14.21-10.13-28.61-20.02-43.97-28.36-4.77-2.59-17.38-7.23-20.43-9.95-3.66-3.27-11.32-19.58-10.77-24.29.67-5.78,6.64-7.96,11.77-6.25,2.9.97,14.08,10.7,17.02,13.34,14.02,12.61,28.08,28.74,39.04,44.07.9,1.26,7.85,10.89,7.34,11.43Z"/>
  <path class="st0" d="M240.01,162.08c-.51-.54,6.44-10.17,7.34-11.43,10.96-15.33,25.02-31.46,39.04-44.07,2.94-2.65,14.12-12.38,17.02-13.34,5.13-1.71,11.1.47,11.77,6.25.55,4.7-7.11,21.01-10.77,24.29-3.05,2.73-15.66,7.36-20.43,9.95-15.37,8.34-29.77,18.24-43.97,28.36Z"/>
  <path class="st3" d="M191.99,243.52c-3.26,12.76-7.57,25.38-12.19,37.72-5.12,13.67-20.15,52.08-30.98,60.1-7.58,5.61-14.35-1.94-11.39-9.78,16.83-26.71,32.71-54.03,49.44-80.8,1.49-2.38,3.12-5.36,5.13-7.25Z"/>
  <path class="st3" d="M217.61,243.52c2.01,1.89,3.64,4.88,5.13,7.25,16.74,26.76,32.62,54.08,49.44,80.8,2.96,7.84-3.82,15.39-11.39,9.78-10.83-8.02-25.86-46.43-30.98-60.1-4.62-12.34-8.94-24.96-12.19-37.72Z"/>
  <path class="st1" d="M96,233.95c-2.81,7.02-6.56,13.67-10.87,19.88-3.74,5.39-16.28,21.42-22.38,22.38-7.49,1.17-15.57-2.07-16.95-10.12-2.25-13.06,7.71-16.23,17.43-20.54,10.57-4.69,21.76-8.1,32.77-11.6Z"/>
  <path class="st1" d="M313.6,233.95c11.01,3.5,22.2,6.9,32.77,11.6,9.73,4.32,19.68,7.49,17.43,20.54-1.39,8.05-9.46,11.29-16.95,10.12-6.1-.96-18.64-16.98-22.38-22.38-4.31-6.21-8.06-12.86-10.87-19.88Z"/>
  <path class="st0" d="M184.7,202.91c.15.13,1.05,3.75.9,3.88-16.43.97-32.86,1.98-49.11,4.61-14.85-13.78-36.57-14.11-55.69-14.58,4.74-3,13.14-9.07,18.37-10.41,16.99-4.35,52.27,14.63,73.23,16.38,2.09.17,11.74-.37,12.29.11Z"/>
  <path class="st0" d="M328.8,197.21c-15.74-.36-34,.41-48.01,8.38-1.9,1.08-7.2,5.72-7.68,5.81-2.6.5-17.99-2.62-22.32-3-8.89-.78-17.91-.78-26.79-1.61.22-.87.54-3.83,1.29-4.03,2.37-.65,8.7.31,11.89.04,20.95-1.76,56.26-20.73,73.23-16.38,5.01,1.28,14.21,7.4,18.38,10.79Z"/>
  <path class="st0" d="M116,213.99c1.37,1.27-.3,1.36-1.17,1.61-6.73,1.98-14.3,3.13-21.23,5.17-10.47,3.07-20.69,6.81-30.93,10.54-14.71-3.11-4.21-15.89,4.53-19.32s24.7-2.28,33.89-1.11c1.89.24,14.34,2.59,14.9,3.1Z"/>
  <path class="st0" d="M293.6,215.57c-.33-2.06.21-1.24,1.13-1.67,8.86-4.09,38.06-5.44,47.09-2.14,8.92,3.26,20.11,16.29,5.1,19.55-17.39-6.32-34.96-12.74-53.33-15.74Z"/>
  <path class="st4" d="M197.6,269.87c0-1.19.83-2.74.83-4.35.03-9.99-.09-20-.03-29.98,3.76,2.37,9.02,2.37,12.78,0,.77,11.05-1.36,23.59.81,34.33-1.48,5.66-.79,12.43-.8,18.36l-1.89.21c-2.6-3-6.42-3-9.02,0l-1.89-.21c-.05-6.03-.81-12.69-.8-18.36Z"/>
  <path class="st0" d="M85.6,115.77c-1.27.92-26.33-8.2-30.16-8.61-5.25-2.65-5.79-9.11-.53-12.03,4.23-2.35,15.79-4.09,20.05-1.86,7.21,3.77,6.5,16.13,10.64,22.5Z"/>
  <path class="st0" d="M324,115.77c4.14-6.37,3.43-18.74,10.64-22.5,4.83-2.52,20.77-.37,23.15,5.15,1.65,3.84-.31,6.83-3.63,8.74-3.83.42-28.89,9.53-30.16,8.61Z"/>
  <path class="st0" d="M198.4,288.24c3.64-4.87,9.16-4.87,12.8,0,0,5.5,1.04,20.87-.16,24.99-1.56,5.33-11.51,5.17-12.62-.65s.04-17.77-.02-24.34Z"/>
</svg>