<?xml version="1.0" encoding="UTF-8"?>
<svg id="Layer_1" xmlns="http://www.w3.org/2000/svg" version="1.1" viewBox="0 0 409.6 409.6">
  <!-- Generator: Adobe Illustrator 29.5.1, SVG Export Plug-In . SVG Version: 2.1.0 Build 141)  -->
  <defs>
    <style>
      .st0 {
        fill: #eaae4b;
      }

      .st1 {
        fill: #fec750;
      }

      .st2 {
        fill: #955a50;
      }

      .st3 {
        fill: #ae6e5a;
      }

      .st4 {
        fill: #4b3f4e;
      }

      .st5 {
        fill: #fefefd;
      }

      .st6 {
        fill: #814d51;
      }

      .st7 {
        fill: #fefdfe;
      }

      .st8 {
        fill: #bf816c;
      }

      .st9 {
        fill: #fefefe;
      }
    </style>
  </defs>
  <path class="st0" d="M161.6,377.66c-8.74,9.5-22.11,6.63-33.6,8.79,1.86,7.25,9.5,18.07.8,23.15h-4c-4.53-.39-5.85-3.58-7.16-7.47l-3.39-11.64c.06-2.1-5.4-1.53-5.64-.96l.24,13.15c.14,4.76-2.14,6.25-6.46,6.92h-3.2c-4.96-.77-6.56-2.24-4.8-4.39l-1.6-.91v-14.33l1.6-1.13-1.12,1.59c-5.62.96-9.05,5.4-10.3,13.31-1.23,3.3-2.43,5.43-6.18,5.86h-4c-3.04-2.37-4.87-3.68-4.3-7.82,1.67-12.23,8.51-23.84,21.59-25.63,11.42-1.56,24.31-1.2,35.91-2.49l18.8-2.39c5.1-.55,13.19,2.75,16.8,6.39h.01Z"/>
  <path class="st0" d="M336.8,409.6h-4c-3.75-.43-4.95-2.56-6.18-5.86-1.27-7.96-4.7-12.4-10.3-13.31l-1.12-1.59,1.6.91v14.33l-1.6,1.13c1.98,2.03.38,3.49-4.8,4.39h-3.2c-4.35-.65-6.6-2.23-6.46-6.92l.24-13.15c-.22-.58-5.7-1.13-5.64.96l-3.39,11.64c-1.31,3.89-2.63,7.08-7.16,7.47h-4c-8.7-5.08-1.06-15.9.8-23.15-11.49-2.16-24.86.71-33.6-8.79,3.61-3.63,11.7-6.94,16.8-6.39l18.8,2.39c11.6,1.29,24.49.92,35.91,2.49,13.07,1.79,19.92,13.41,21.59,25.63.57,4.14-1.26,5.45-4.3,7.82h.01Z"/>
  <path class="st5" d="M76.8,409.6"/>
  <path class="st5" d="M94.4,388.84v16.37"/>
  <path class="st3" d="M126.4,16.77c10.04-.52,21.6,4.97,30.63,9.64,17.16,8.87,29.61,20.19,39.44,36.07,5.06,8.01,11.47,8.38,16.55.19,9.98-16.21,22.66-27.65,40.21-36.6,8.85-4.51,20.17-9.86,29.97-9.3.13-.03,1.34.81,2.54.59,30-5.57,60.65-3.97,90.42-10.4,3.76-.81,8.79-3.89,12.42-2.37,5.82,2.45,2.47,8.94.83,13.19-3.35,8.65-10.38,18.11-17.4,24.15-4.31,3.71-15.83,8.97-16.07,14.38-.2,4.64,6.85,9.89,9.64,13.57,9.02,11.92,15.91,25.41,18.97,40.16,1.59,7.69,1.49,15.08,3.45,22.51-.41,7.53-1.12,17.08-3.83,26.34-11.4,39-48.55,69.67-88.97,69.47l-2.67,1.31c-17.62-.18-33.58-3.17-49.32-11.53-4.8-2.55-20.85-12.46-22.13-16.75-.17-.57-.24-1.16-.27-1.77-1.08-1.67-1.1-3.86-.04-6.57-3.25-21.73-29.21-21.28-31.86.33,1.03,2.59,1,4.67-.1,6.24-.04.61-.1,1.2-.27,1.77-1.28,4.29-17.33,14.2-22.13,16.75-15.74,8.37-31.7,11.35-49.32,11.53l-2.67-1.31c-48.77.29-93.78-45.28-92.11-94.71l-.69-1.1c1.96-7.42,1.86-14.81,3.45-22.51,3.06-14.75,9.94-28.23,18.97-40.16,2.79-3.68,9.84-8.93,9.64-13.57-.23-5.4-11.76-10.67-16.07-14.38-7.02-6.04-14.05-15.51-17.4-24.15-1.65-4.24-4.99-10.74.83-13.19,3.62-1.53,8.66,1.55,12.42,2.37,29.77,6.44,60.42,4.83,90.42,10.4,1.2.22,2.42-.62,2.54-.59h-.02Z"/>
  <path class="st6" d="M100.8,230.75l1.65,4.01c-.3,58,36.81,134.23,102.46,134.14,65.92-.09,102.61-76.8,102.26-134.74l1.62-3.41,1.89-.82c15.22,1.84,30.52,3.41,45.89,4.72l3.42,1.69c-3.07,58.62-41.24,112.24-95.2,134.94-5.35,2.25-11.24,4.77-16.8,6.39-26.71,7.78-59.68,7.78-86.4,0-5.56-1.62-11.45-4.14-16.8-6.39-53.93-22.68-92.15-76.35-95.2-134.94l3.42-1.69c15.37-1.3,30.67-2.88,45.89-4.72l1.89.82h0Z"/>
  <path class="st2" d="M283.2,16.77c-20.54,4.92-43.53,15.84-58.01,31.93-4.02,4.46-12.67,19.21-16.73,20.83-2.39.95-4.28.98-6.73.21-4.49-1.41-13.1-16.38-17.32-21.04-14.56-16.09-37.4-26.99-58.01-31.93,49.07-21.23,107.74-21.23,156.8,0h0Z"/>
  <path class="st2" d="M388,132.54c2.82,10.67,7.31,21.58,10.17,32.56,2.92,11.2,8.59,32.68,8.17,43.62-.06,1.52-2.31,6.05-3.54,6.05h-15.6v14.77c0,.27-1.24,2.82-1.58,3.21-2.82,3.29-18.01,2.23-22.85,2.78-.89-.25-2.31.8-2.77.8-16.04-.24-35.03-3.41-51.2-5.59-3.75,1.99-10.56.49-13.6-2.4l20.34-4.06c40.2-11.17,69.34-47.18,70.86-89,.06-1.54-.81-3.2,1.6-2.76v.02Z"/>
  <path class="st2" d="M21.6,132.54c2.41-.45,1.55,1.22,1.6,2.76,1.52,41.83,30.66,77.83,70.86,89l20.34,4.06c-3.04,2.89-9.85,4.38-13.6,2.4-16.17,2.18-35.16,5.35-51.2,5.59-.46,0-1.87-1.04-2.77-.8-4.84-.55-20.04.51-22.85-2.78-.34-.4-1.58-2.94-1.58-3.21v-14.77H6.8c-1.23,0-3.49-4.53-3.54-6.05-.42-10.93,5.25-32.44,8.17-43.62s7.35-21.88,10.17-32.56v-.02Z"/>
  <path class="st8" d="M220.8,199.61c13.69,13.78,32.5,23.79,51.83,26.91,7.55,1.22,14.99.85,22.57,1.83,4.56.59,9.02,1.78,13.6,2.4.12,44.52-16.95,95.91-54.14,122.82-42.75,30.94-92.82,17.24-123-23.08-21.15-28.26-30.77-64.69-30.86-99.74,4.58-.62,9.04-1.8,13.6-2.4,7.57-.98,15.01-.61,22.57-1.83,19.33-3.12,38.14-13.14,51.83-26.91,1.43-.94,2.05-.34,2.68,1.02l9.7,25.92c1.44,5.23,5.29,5.92,7.06.42l10.03-26.61c.53-1.22,1.28-1.35,2.53-.74h0Z"/>
  <path class="st0" d="M117.43,65.71c52.59-2.42,86.18,56.33,57.3,100.3-25.64,39.03-83.21,39.19-108.84.17-27.61-42.05,1.54-98.17,51.54-100.47Z"/>
  <path class="st0" d="M286.23,65.71c52.39-2.41,86.28,55.68,57.79,99.99-23.59,36.68-76.89,39.97-104.8,6.34-34.05-41.03-6.27-103.88,47.01-106.33Z"/>
  <path class="st0" d="M220.8,199.61c-.09.28-1.08,1.11-1.43,2.13-1.47,4.31-9.79,28.37-11.85,29.73-1.76,1.17-3.69,1.15-5.44,0-2.06-1.36-10.38-25.41-11.85-29.73-.35-1.02-1.34-1.85-1.43-2.13-.59-1.85-1.61-5.75-1.67-7.58-.22-7.32,10.79-17.41,18.07-17.23,6.89.17,17.47,10.28,17.27,17.23-.05,1.83-1.08,5.73-1.67,7.58h0Z"/>
  <path class="st1" d="M113.42,85.66c58.72-7.04,71.25,75.09,19.2,88.63-64.27,16.72-79.24-81.43-19.2-88.63Z"/>
  <path class="st1" d="M282.21,85.64c36.18-4.53,63.24,29.88,48.57,63.64-16.11,37.09-71.28,34.63-84.4-3.53-9-26.16,7.92-56.61,35.84-60.11h-.01Z"/>
  <path class="st4" d="M115.79,98.4c24.89-3.92,32.4,19.04,30.6,39.32-2.99,33.53-48.1,32.17-51.92,3.14-2.24-17.05.82-39.23,21.32-42.46Z"/>
  <path class="st4" d="M285.41,98.41c13.69-1.86,27.88,7.78,29.73,21.82,2.27,17.28-1.03,39.96-22,42.58-37.98,4.75-40.79-59.9-7.73-64.4Z"/>
  <path class="st9" d="M116.27,127.48c-8.47-8.98,5.74-22.61,14.44-13.21,8.6,9.28-5.9,22.27-14.44,13.21Z"/>
  <path class="st7" d="M285.87,113.65c8.96-8.41,22.92,5.35,13.24,14.41-9.06,8.49-22.44-5.77-13.24-14.41Z"/>
</svg>