<?xml version="1.0" encoding="UTF-8"?>
<svg id="Layer_1" xmlns="http://www.w3.org/2000/svg" version="1.1" viewBox="0 0 1024 1024">
  <!-- Generator: Adobe Illustrator 29.5.1, SVG Export Plug-In . SVG Version: 2.1.0 Build 141)  -->
  <defs>
    <style>
      .st0 {
        fill: #fdf9f3;
      }

      .st1 {
        fill: #a38361;
      }

      .st2 {
        fill: #0e0d0c;
      }

      .st3 {
        fill: #dc8e50;
      }

      .st4 {
        fill: #0d0b0a;
      }

      .st5 {
        fill: #100e0a;
      }

      .st6 {
        fill: #151210;
      }

      .st7 {
        fill: #0b0806;
      }

      .st8 {
        fill: #120f0d;
      }

      .st9 {
        fill: #e3dccf;
      }

      .st10 {
        fill: #0a0807;
      }

      .st11 {
        fill: #090a14;
      }

      .st12 {
        fill: #69645c;
      }

      .st13 {
        fill: #0c0908;
      }

      .st14 {
        fill: #f8f7f3;
      }

      .st15 {
        fill: #bf7139;
      }

      .st16 {
        fill: #9a9c9d;
      }

      .st17 {
        fill: #fdfaf5;
      }

      .st18 {
        fill: #fcfaf5;
      }

      .st19 {
        fill: #e5dfd2;
      }

      .st20 {
        fill: #e5ded1;
      }

      .st21 {
        fill: #130f0d;
      }

      .st22 {
        fill: #080605;
      }

      .st23 {
        fill: #12100e;
      }

      .st24 {
        fill: #0d0a09;
      }

      .st25 {
        fill: #15110e;
      }

      .st26 {
        fill: #02040c;
      }

      .st27 {
        fill: #a2b472;
      }

      .st28 {
        fill: #0f0c0b;
      }

      .st29 {
        fill: #0d0b09;
      }

      .st30 {
        fill: #0b0907;
      }

      .st31 {
        fill: #0f0d0a;
      }

      .st32 {
        fill: #070504;
      }

      .st33 {
        fill: #080604;
      }

      .st34 {
        fill: #0c0a07;
      }

      .st35 {
        fill: #0d0a07;
      }

      .st36 {
        fill: #0c0b08;
      }

      .st37 {
        fill: #1d1a17;
      }

      .st38 {
        fill: #060504;
      }

      .st39 {
        fill: #0d0c0a;
      }

      .st40 {
        fill: #0e0c0a;
      }

      .st41 {
        fill: #9fb270;
      }

      .st42 {
        fill: #090806;
      }

      .st43 {
        fill: #0d0c11;
      }

      .st44 {
        fill: #3a342d;
      }

      .st45 {
        fill: #0c0a08;
      }

      .st46 {
        fill: #0b0807;
      }

      .st47 {
        fill: #0f0b0d;
      }

      .st48 {
        fill: #120f0b;
      }

      .st49 {
        fill: #0e0d0b;
      }

      .st50 {
        fill: #0b0908;
      }

      .st51 {
        fill: #0b0a07;
      }

      .st52 {
        fill: #161412;
      }

      .st53 {
        fill: #0a0706;
      }

      .st54 {
        fill: #d0a173;
      }

      .st55 {
        fill: #e5dfd1;
      }

      .st56 {
        fill: #f8f6f3;
      }

      .st57 {
        fill: #e6dfd2;
      }

      .st58 {
        fill: #0f0d0b;
      }

      .st59 {
        fill: #a58463;
      }

      .st60 {
        fill: #0b0a0d;
      }

      .st61 {
        fill: #060503;
      }

      .st62 {
        fill: #0a0907;
      }

      .st63 {
        fill: #0d0c12;
      }

      .st64 {
        fill: #0b0a09;
      }

      .st65 {
        fill: #69645b;
      }

      .st66 {
        fill: #100e0c;
      }

      .st67 {
        fill: #e6dfd3;
      }

      .st68 {
        fill: #0a0806;
      }

      .st69 {
        fill: #352e28;
      }

      .st70 {
        fill: #0c0a09;
      }

      .st71 {
        fill: #0b0a08;
      }

      .st72 {
        fill: #070605;
      }

      .st73 {
        fill: #14110e;
      }

      .st74 {
        fill: #0e0b0a;
      }

      .st75 {
        fill: #040402;
      }

      .st76 {
        fill: #362f29;
      }

      .st77 {
        fill: #110f0d;
      }

      .st78 {
        fill: #36302a;
      }

      .st79 {
        fill: #393029;
      }

      .st80 {
        fill: #cfd6d9;
      }

      .st81 {
        fill: #6a655d;
      }

      .st82 {
        fill: #fdfaf4;
      }

      .st83 {
        fill: #faf8f5;
      }

      .st84 {
        fill: #dfd8ca;
      }

      .st85 {
        fill: #0e0c09;
      }

      .st86 {
        fill: #090706;
      }

      .st87 {
        fill: #0f0c0a;
      }

      .st88 {
        fill: #8c6d4e;
      }

      .st89 {
        fill: #a68563;
      }

      .st90 {
        fill: #0c0907;
      }

      .st91 {
        fill: #060404;
      }

      .st92 {
        fill: #68635b;
      }

      .st93 {
        fill: #f0a15f;
      }

      .st94 {
        fill: #1c1814;
      }

      .st95 {
        fill: #382f29;
      }

      .st96 {
        fill: #090705;
      }

      .st97 {
        fill: #e29354;
      }

      .st98 {
        fill: #060502;
      }

      .st99 {
        fill: #e29152;
      }

      .st100 {
        fill: #38322c;
      }

      .st101 {
        fill: #917252;
      }

      .st102 {
        fill: #0e0b09;
      }

      .st103 {
        fill: #0d0a08;
      }

      .st104 {
        fill: #0e0b08;
      }

      .st105 {
        fill: #6a645c;
      }

      .st106 {
        fill: #c1733b;
      }

      .st107 {
        fill: #e4ded0;
      }

      .st108 {
        fill: #0f0e0c;
      }

      .st109 {
        fill: #f0a15e;
      }
    </style>
  </defs>
  <path class="st44" d="M650,203c5.37,3.45,9.58,7.32,13,13,7.37,14.64,5.24,30.61-2,45-7.52,19.23-24.94,35.84-43,45-30.07,18.71-64.68,17.3-97,7-6.77-2.7-13.15-7.86-19.12-10.53-1.2-.54-1.76.54-1.88.53-1.05,8.97,2.05,19.73,6,28,.87.16,7.15,12.23,9.49,15.01,4.16,4.94,11.15,10.3,16.51,13.99,36.22,20.18,81.99,16.66,120,11,8.65-.91,18.04-3.12,27-4,29.6-1.73,58.02-2.18,86,9,45.01,19.88,57.95,55.84,90.99,85.51,14.26,12.81,27.29,21.77,46.01,11.49,15.76-10.46,17.18-35.11,11-49-3.58-11.64-13.14-23.05-23-30-11.18-3.83-22.52-6.83-34-9-11.64-4.72-24.19-13.75-30-25-14.22-23.16-13.19-50.3-2-74,6.89-11.83,18.82-24.05,31-30,5.65-4.21,25.46-12.76,21.6,1.3l-4.53,14.02c-1.77,6.78-3.05,17.37.93,22.68.68.13,6.62,8.43,8.99,10.51,9.87,8.7,20.48,13.24,29.01,24.49,8.25,13.39,13.42,29.03,11.18,46.09.66,7.56,5.56,12.09,10.82,16.91,3.62,5.23,7.29,10.18,10,16,10.33,27.68,13.54,58.9-4,85-4.7,8.29-10.71,14.11-19,19-21.89,10.82-45.4,11.15-68.49,2.53,1.96,17.26,1.77,34.74-.75,51.89l-6.22,43.06c-1.91,17.3-2.43,35.13,3.07,51.84,7.13,16.23,11.73,32.1,7.46,50-3.35,16.23-6.37,32.46-9.08,48.68-.76,19.84,1.48,40.05,4.07,59.99,1.5,16.42-1.04,33.42-11.07,47.01-2.55,4.26-4.77,6.95-9,10-8.91,4.62-17.24,7.62-25,9-.36.05-1.33.87-3,1-20.3.83-39.3-2.84-57-11-11.18-6.56-5.71-21.9-1.75-31.48,1.78-3.19,3.03-6.37,3.75-9.52,3.09-5.96,7.59-11.48,11-17,13.75-25.07,20.94-53.26,19.24-81.36-.3-4.88-1.16-15.16-3.11-19.34-.11-.23-.57-.29-1.13-.3-.98-.17-8.24-13.43-11.03-16.47-1.08-1.18-5.63-6.49-6.96-5.52-1.8,5.68-4.68,12.68-7.82,17.69-1.41,2.25-7.83,9.17-8.06,10.03-.82,3.03,1.93,4.67,2.87,7.28,7.07,23.98.69,49.81-30,42l-10-6-.93,2.33c.33,22.62-2.03,44.51-7.07,65.67-3.45,8.38-7.32,14.41-15,19-22.62,16.17-50.56,9.65-75,3-6.32-2.71-11.94-6.22-12.91-13.58-2.83-21.61,22.73-46.08,27.9-66.42-6.55,3.43-13.18,5.4-20.51,2.98-1.9-.63-2.03-1.72-2.48-1.98-12.96-8.98-10.41-31.79,1-41,2.43-1.97,1.15-5.52-3.83-10.62l-4.13-7.73c-12.56-.48-24.9-.69-37.04-.65-3.59-.08-12.19-.69-15,0-8.45,22.62-13.13,46.42-14.03,71.4l-.97,1.6c.51,17.26,1.32,34.56,2.43,51.89.4,17.32.26,36.08-9.43,51.11-3.86,7.47-7.52,11.2-15,15-24.94,14.83-56.04,10.38-82,2-2.31-1.09-2.63-2.05-4-3-12.04-7.6-7.3-22.56-2.84-33.34l-.16-1.66c3.97-9.18,10.45-17.19,15-26,19.12-33.84,18.87-82.46,6.56-119.86-15.34,1.27-30.88-.35-46.16-3.26l-4.41.12c-7.93,36.07-11.05,71.98-6.78,109.54.3,14.29-1.48,29.13-9.22,41.46-3.68,7.23-5.72,8.62-12,13-21.95,13.74-47.57,10.14-71,4-4.36-1.64-10.42-4.97-14-8-9.12-9.36-5.21-21.46-.24-32.01,2.01-3.32,3.42-6.66,4.24-9.99,2.89-5.31,6.78-9.97,10-15,17.29-29.15,15.94-63.88,11.07-96.3-4.45-23.95-8.6-47.92-12.43-71.93.63-1.25.42-1.5-.64-.77-2.43-.3-13.73-25.15-15-29-4.81-21.52-7.65-43.34-7-66.33,0-.13,1.03,1.85-1,.33-18.98-.71-37.92-16.02-48-31-12.64-3.33-25.66-6.89-38-11-15.74-7.37-31.13-20.87-38-37-14.24-28.54-14.4-64.34,2-92,4.3-8.32,9.84-12.71,17-18,4.11-2.58,8.44-4.58,13-6,1.03,1.83-.42,5.61-2.61,6.73l-.39,2.27c-.49.93-1.15,1.93-2,3l-.41,2.74c-8.57,6.62-15.5,15.39-20.01,25.23l-2.58,1.02c-6.72,14.58-7.1,34.24-3,50,.47-1.8,1.6-1.97,2.61-.43l3.15,10.73c2.41,4.94,4.49,9.84,6.23,14.7,2.62.03,4.61,2.66,3,5,3.68,1.58,8.12,4.13,8.84,8.3,3.91,2.71,7.3,5.61,10.16,8.7l3.9.07c57.83,27.73,146.02,35.9,189.28-21.09l3.82-1.98c5.94-9.89,10.28-20.45,13.01-31.7-.12-2.9.21-5,.99-6.3l.22-.69c-4.21,1.04-8.98.14-6.74-4.88,2.07-4.63,20.83-1.45,23.52,4.57,5.32.13,5.4,9.9,5.12,14.32-.08,1.32-.79,9.21-1.18,9.48-1.67,1.13-2.39,1.23-4.21-.06l-4.77-11.25c-1.87,3.24-3.53,6.74-4.96,10.51l1.01,1.78c-7.84,17.96-17.39,33.48-33.48,46.35-7.02,5.61-17.83,13.8-26.53,12.87-12.55,5.26-26.33,9.85-40,9-1.13.41-.52-1.62-.48-1.52.04.11.2,2.33.14,2.43-1.78,2.95-56.25.09-59.84-2.72l-.82.8,7.11,4.69-.11,2.31c11.25,6.8,23.92,11.13,38,13,14.68-.24,30.01-.7,44-5-1.75-.35-1.97-1.78-.42-2.62,18.63-4.48,35.27-14.31,50.38-25.83l4.04-.55c11.22-12.36,25.58-21.14,42-23-1.75-.32-1.95-1.84-.39-2.63,26.15-5.36,48.34-20.88,63.67-42.54l3.71-1.83c12.35-20.96,18.39-46.67,17-71-.64-6.56-1.09-13.53,0-20l.83-1.65c-2.22-20.22-4.62-40.43-7.2-60.63-.82-5.88-.36-11.12,1.37-15.72,2.69-2.76,10.67,2.47,11,6,8.28,5.11,16.89,9.58,25.81,13.42l1.19,2.58c26.04,11.57,60.28,8.98,84-7l2.07-3.62c12.57-8.1,22.82-19.19,31.23-31.46l3.7-1.91c6.92-12.03,11.85-28.49,2-40l-2.33.16c-4.89-5.95-11.49-10.4-18.35-13.83l-.32-2.33c-15.26-8.02-34.78-7.31-52-6-11.76,5.7-10.48,1.38-7-7,25.54-7.47,56.16-3.8,78,12Z"/>
  <path class="st76" d="M552,92c9.96,27.96,8.43,55.56-5,82-8.33,13.93-20.86,24.9-35.32,32.18-4.35,2.19-9.59,3.05-13.68,5.82,12.33,5.46,26.6,1.27,38-5,2.17-1.42,4.48-3.49,7-5,9.32-4.57,18.98-8.24,29-11,2.95.76.84,2.92.98,2.99.87.42,3.29-.94,3.01,1-5.32.14-3.33.28-4.99,5,2.86.11,5.25-1.55,8-1.99.81.04,1.21.1,1,1l-2.25,2.52c-10.7,3.34-20.86,8.03-30.47,14.04l-3.28-.56h-1.62c-15.35,8.35-32.55,13.34-49.38,6-.88.97-1.81,1.78-2.92,1.15l-12.23-6.62c-22.77-2.53-45.22-22.54-42.4-46.85-6.38-9.29-20.07-9.97-30.53-9.76l-1.92-1.92-.85-2.2c2.36-1.64,15.02-28.15,13.23-28.34-4.48-.48-18.63,17.63-20.96,22.51-1.65,1.22-3.09,1.75-4.38.04-6.53-16.89-19.33-33.65-38.48-35.71l10.94,19.94c.35,3.42-2.44,5.23-3.5,1.74-17.54-7.22-38.85-15.73-57-6,.57,1.32.64,2.58.23,3.76,12.52,2.11,24.59,5.4,36.23,9.86,1.91,2.36,1.84,4.23-1.27,4.69l-17.61,2.9c-17.29,3.15-36.1,9.14-43.84,26.41l-2.74,1.39c-.54,2.78-1.2,5.44-2,8,1.18.99,1.66,2.06.65,2.98,11.63-5.64,22.83-12.14,33.59-19.5,11.21-6.16,11.53-.6,4.29,6.41-6.18,4.77-17.19,35.27-6.28,37.75,9.6,2.19,22.83-23.44,24.58-30.89,1.86-4.13,4.69-6.76,8.13-9.51,2.97-2.38,11.46-8.32,11.91-2.39l-7.88,17.9c-1.2,9.54,1.92,10.11,9.35,1.72,8.55-10.06,18.49-17.89,29.83-23.49,4.25-1.83,14.98-5.28,9.82,1.02l-.93,3.32c-9.02,8.81-17.51,18.12-25.48,27.93-9.32,9.56-18.2,16.03-31.14,10.2-1.28,2.53-7.47,10.92-9.76,11.2-.97.12-1.86-.13-2.69-.65-21.06,15.46-34.32-3.11-31-24-10.41,11.13-29.51,11.84-30.11-7.35-7.5,1.37-27.61,32.2-31.89,39.35,10.85-2.37,27.79-.19,25.7,14.16-5.29-6.7-14.89-8.91-21.7-4.16.36.33.69.67.88,1.08.39.82-11.86,10.98-13.31,11.84l-2.57.08c-6.06,8.2-10.11,22.79-9,33l1.22-1c1.11-10.48,14.99-23.82,28.02-16.42,3.57,2.02,12.17,9.76,8.76,13.42,7.58,16.76,3.86,36.01-4,52l.99,2.73c-1.85,5.79-9.17,16.32-14.99,18.27l2.1.53c34.06.34,68.33,3.12,99.9,15.47l2.8-.86c16.06,8.49,31.57,20.83,38.43,38.15l-1.23,2.71c2.11,1.37,6.11,24.22,2.95,21.65l-.95-1.65-3.4-2.76c-19.1-44.48-66.22-59.04-111.05-61.02l-3.55-2.22c-10.09-1.13-23.37-1.13-33,0-1.36,3.13-11.91,4.83-14,2-7.59.19-15.25,1.19-23,3-4.09-.46-8.09.87-12,4-.9,1.82-4.81,3.46-7,4l-4.99-2.99c3.82-.98,7.35.37,4.99-4.01l3.01-2.01c6.17-2.31,10.5-5.31,13-9,1.51-1.78,1.98-3.06,4-5,10.25-13.42,12.43-30.99,12.56-47.45l-.31-13.77-1.25-.78c-.04-.36.09-.77,0-1-19.73,8.2-39.95,9.61-61,4-17.77-6.19-37.47-22.81-45-40-8.41-15.1-10.85-30.93-1-46,5.2-7.45,9.59-11.7,18-16,27.16-11.23,54.93-10.9,82,0,6.59,3.35,26.9,20.28,30.72,20.88,3.37.52,8.5-9.45,10.3-12.36-19.63-10.05-37.06-30.88-39.02-53.52-.07-13.06,1.51-25.43,5-38,4.94-12.23,20.65-31.95,33-37,8.11-1.31,16.87-2.51,16.19,8.54l-2.98,19.86c-1.04,9.33.71,21.5,7.79,27.6,3.61,4.87,10.69,10,16,13,8.22,7.97,24.81,8.36,31,4,.62-.17,3.31-1,2.99-1.99-9.34-.05-15.82-4.66-9.99-14.01,13.18-13.68,35.73-15.19,51-10-4.61-10.89-4.86-18.62,9.56-19.03,18.43-.52,38.92,13.89,45.45,31.02,1.66-.84,1.96-3.23,3.46-5.02,5.66-6.74,18.73-17.76,27.53-11.97,5.72,5.89,3.57,12.14,1.02,18.98l-6.35,13.01.94,1.69c6.43,1.12,12.5,3.62,18.39,6.32,4.62.86,3.17.34,7-1,11.72-2.59,25.38-10.02,35-17,16.8-10.47,28.61-22.85,32.56-42.94,2.06-10.47-1.93-30.33,13.87-28,8.34,1.23,21.18,19.46,24.57,26.94Z"/>
  <path class="st72" d="M920,512c-16.59,9.78-34.44,11.27-53.01,7.51-4.97-1.01-10.2-2.84-14.98-4.51,5.18,32.62-4.17,64.44-7,96.51-1.29,14.62-2.09,29.13,1.48,43.5,5.05,20.32,13.86,27.6,10.23,51.21-2.75,17.86-8.52,35.66-9.72,53.78-.28.87-.62.86-1,0,1.79-24.29,13.48-55.67,8.51-78.01-1.78-7.98-5.97-15.03-8.23-22.77-10.36-35.48,3.62-73.13,5.71-108.73.71-12.15-.29-24.4-.98-36.49,23.47,7.15,42.27,9.44,64.98-1.51,1.02-.49,3.42-2.49,4.01-.49Z"/>
  <path class="st30" d="M283,826c15.78-28.97,14.92-60.52,10.86-92.36-3.27-25.67-9.85-50.92-12.86-76.64.08.01.54-.88.98-1.01,5.99,53.61,32.6,120.59,1.02,170.01Z"/>
  <path class="st45" d="M426,846c15.24-29.51,16.79-63.82,11.71-96.21-.54-3.46-4.13-23.15-6.15-23.51-16.63,2.37-33.25-.49-49.56-3.28,1.32-1.25,1.67-1.12,3.41-1.04,8.36.36,18.92,3.75,28.05,4.08,6.14.23,11.98-.44,18.03-1.08,1.36.03,1.73.66,2.35,1.69,2.11,3.52,5.3,22.82,6.02,27.98,4.32,31.27,1.87,59.81-10.98,88.73-.19.42-1.95,4.84-2.88,2.63Z"/>
  <path class="st46" d="M366,874c15.41-30.28,4.35-64.17,7.01-97.49.52-6.52,6.53-51.18,8.99-53.51-1.87,19.52-7,38.83-8.04,58.46-.92,17.33,1.11,33.18,2.03,50.05.76,13.9-1.13,31.39-9.99,42.49Z"/>
  <path class="st62" d="M652,371l.48.96c-36.21,4.59-89.11,9.63-120.48-11.96,7.56,3.03,14.89,6.51,22.78,8.72,32.87,9.2,63.94,5.81,97.22,2.28Z"/>
  <path class="st86" d="M650,203c-22.54-14.47-52.06-18.84-78-12-8,2.11-17.24,6.8-24.99,10.51-1.02.49-3.41,2.5-4.01.49,25.85-15.47,58.8-19.78,87.52-10.02,6.57,2.23,14.91,5.67,19.48,11.02Z"/>
  <path class="st32" d="M839,867c19.61-32.73,6.26-52.47,6-85.49-.05-5.91.55-15.4,1-21.51h1c-1.44,21.72,2.46,38.06,3.98,58.52,1.19,15.97-.89,36.35-11.98,48.48Z"/>
  <path class="st10" d="M758,818c14.65-30.24,24.99-67.78,15-101,.07.01.33-1.59.99-1,4.12,3.72,4.41,31.27,4,37.49-1.48,22.71-8.25,45.51-19.99,64.51Z"/>
  <path class="st13" d="M134,483c-12.79-21.03-13.9-50.19-7.02-73.52,1.83-6.2,4.55-13.67,9.02-18.48-15.45,29.92-15.08,61.28-2,92Z"/>
  <path class="st30" d="M618,306c-27.36,18.96-66.66,19.13-97,7,.88-1.92,3.2-.43,4.52-.03,35.08,10.8,59.64,9.68,92.48-6.97Z"/>
  <path class="st72" d="M515,893c15.85-30.7,5.29-69.04,7-103,.28-.87.62-.86,1,0-1.71,28.8,7.31,65.99-1.96,92.54-1.17,3.36-3.25,8.13-6.04,10.46Z"/>
  <path class="st29" d="M765,376c-.97,2.12-3.09.32-4.36-.13-29.43-10.37-43.7-10.03-74.09-7.83-2.13.15-5.95.61-7.55-1.04,30.9-3.04,56.98-3.82,86,9Z"/>
  <path class="st71" d="M939,493c14.79-26.11,15.3-53.06,4.14-80.64-.52-1.28-2.24-3.38-.14-4.36,11.88,25.55,14.04,61.92-4,85Z"/>
  <path class="st73" d="M679,853c-6.98,7.32-21.5,10.5-31.46,11.04-12.12.66-32.31-3.23-43.54-8.04.89-1.93,3.2-.43,4.52-.03,24.01,7.26,47.93,10.51,70.48-2.97Z"/>
  <path class="st103" d="M547,174c-2.01-.6,0-3,.49-4.01,12.51-25.93,13.75-46.03,4.47-73.45-.44-1.31-1.84-3.67.04-4.53,11.44,25.23,9.16,58.32-5,82Z"/>
  <path class="st29" d="M187,192c-.98,2.1-3.07.37-4.36-.14-25.46-10.28-47.85-10.41-73.39-.09-1.08.44-3.63,1.98-4.26.24,23.74-12.14,58.2-12.09,82,0Z"/>
  <path class="st64" d="M500,908c-.63,1.71-2.25,2.09-3.65,2.85-20.32,11.12-57.68,8.9-78.35-.85.97-2.11,3.09-.32,4.37.13,25.37,8.99,53.18,10.3,77.63-2.13Z"/>
  <path class="st37" d="M694,834c-2.13-.98-.3-3.09.13-4.36,7.41-21.71,3.08-39.4,6.07-60.97.15-1.08.87-2.08,1.8-2.66-1.97,23.51,1.25,45.57-8,68Z"/>
  <path class="st46" d="M826,360c-14.78-20.82-14.77-52.07-2-74,2,.59,0,3-.49,4.01-11.21,23.1-9.17,47.4,2.49,69.99Z"/>
  <path class="st35" d="M248,128c-.56,2.1-2.56-1.19-2.83-1.67-6.77-11.69-6.61-21.73-5.05-34.71.59-4.9,5.89-17.11-1.82-19.4-4.1-1.22-7.83,1.42-11.29-.22,8.3-3.4,17.45-2.41,17.02,8.45-.71,17.98-9.58,29.26,3.98,47.55Z"/>
  <path class="st74" d="M523,790h-1c.84-16.62,5.69-56.33,12.94-70.58.55-1.08.59-2.06,2.06-2.42-7.88,22.83-11.31,46.57-12.95,70.58-.09,1.29-1.04,2.27-1.05,2.42Z"/>
  <path class="st6" d="M258,562c.13,0,1.08-1.35,1.99-1-.45,17.35.03,34.14,3.3,51.2.94,4.9,4.34,11.25,2.7,15.8-3.66-11.1-5.17-22.97-6.99-34.51l-1.01-31.49Z"/>
  <path class="st30" d="M354,887c-19.71,13.76-48.98,12.29-71,4,.92-1.98,3.18-.37,4.5-.01,22.94,6.21,44.97,7.85,66.5-3.99Z"/>
  <path class="st68" d="M933,392c-.64,2.14-2.4-1.2-2.8-1.7-1.66-2.04-7.48-8.29-7.98-10.02-1.26-4.39.2-13.5-.23-18.77-.85-10.52-4.57-20.03-10.19-28.81-.56-.88-2.98-3.07-.8-3.71,6.1,8.04,11.08,19.42,11.98,29.52.52,5.79-1.15,15.97.23,20.77.5,1.74,7.88,9.95,9.79,12.71Z"/>
  <path class="st90" d="M183,353c11.55-19.04,13.39-40.18,11-62,2.71-1.78,1.9-.98,2,1.49.74,18.46.44,47.61-13,60.51Z"/>
  <path class="st45" d="M873,294c-.07-.01-.33,1.6-.99,1-2.05-1.87-2.31-14.33-2-17.49.55-5.71,7.63-22.08,6.27-25.25-2.44-5.64-17.08,1.69-21.28,3.74,3.05-4.2,19.87-10.35,22.51-5.01,2.15,4.36-3.88,15.72-5.03,20.98-1.66,7.55-2.5,14.73.53,22.03Z"/>
  <path class="st68" d="M712,772c4.63-1.38,7.8,1.52,13.25.77,19.6-2.7,21.04-22.73,16.74-38.27-.37-1.32-1.96-3.59.01-4.5,8.77,24.5.33,51.25-30,42Z"/>
  <path class="st36" d="M194,290c-18.47,9.3-41.44,10.81-61,4,.85-1.84,3.26-.44,4.6-.11,16.11,3.89,27.52,4.23,43.61-.17,4.11-1.13,7.18-3.07,10.71-4.3,1.22-.43,1.4-1.03,2.07.59Z"/>
  <path class="st31" d="M425,114c10.48,6.9-1.17,24.8-5,32.99,6.52,1.14,13.71,2.87,19,7.01-6.79-1.26-13.66-5.75-21-6.01,3.01-7.7,11.69-19.79,9.8-28.28l-2.79-5.72Z"/>
  <path class="st23" d="M339,119c.02.05,1.93.47.49,1.01-12.59-3.8-25.91-4.79-38.17.81l-13.32,8.18c8.33-13.36,37.57-17,51-10Z"/>
  <path class="st31" d="M902,473c14.5-12.92,16.52-31.04,11-49,.98-2.52,1.53,1.16,1.69,1.8,3.96,16.2,3.88,38.09-12.69,47.2Z"/>
  <path class="st68" d="M552,717c4.96-2.75,11.46-.13,16.46.04,6.95.24,13.96-.39,20.91.09,3.18,6.43,6.99,11.93,11.62,17.38.23.74-3.2,1.11-3.99,1.49.58-.87,1.24-1.65,1.84-2.5-4.53-4.26-7.92-9.47-10-15.34-12.3.43-24.59-.89-36.84-1.16Z"/>
  <path class="st45" d="M802,887c-16.36,1.23-43.51-1.29-57-11,10.68,7.47,40.4,10.12,53.43,9.83,1.54-.03,2.82-1.41,3.57,1.17Z"/>
  <path class="st29" d="M88,254c-9.81-15.54-11.66-30.73-1-46-2.17,6.35-6.06,12.51-6.09,19.51-.03,7.36,4.08,19.63,7.09,26.49Z"/>
  <path class="st103" d="M597,736c-1.18,1.76-2.84,3.01-3.84,4.67-6.9,11.41-7.73,26.93,2.84,36.33-4.33-2.5-6.06-3.57-7.77-8.73-3.17-9.59-1.1-27.57,8.77-32.27Z"/>
  <path class="st85" d="M269,883c-12.69-10.73-2.56-29.95,4-42,2.01.6,0,3-.49,4.01-4.01,8.3-10.49,20.69-8.04,30.02l4.53,7.97Z"/>
  <path class="st68" d="M661,261c3.56-9.11,7.22-21.65,5.92-31.41l-3.92-13.59c8.31,13.82,6.09,31.64-2,45Z"/>
  <path class="st58" d="M745,876c-.79-.57-2.09-.36-3.55-1.92-8.78-9.4.51-29.36,5.55-39.08,2.02.61,0,2.99-.49,4.01-4.72,10.12-13.45,28.63-1.51,36.99Z"/>
  <path class="st40" d="M210,531c-12.79-2.25-26.23-5.49-38-11,.94-2.08,3.09-.35,4.37.13,4.89,1.83,9.6,3.87,14.63,5.37,4.37,1.3,17.24,2.89,19,5.5Z"/>
  <path class="st102" d="M446,153c10.88-3.8,25.19-10.89,35-17,2.23.8-1.49,2.21-1.99,2.51-9,5.4-18.9,10.43-28.65,14.35-1.28.51-3.38,2.24-4.36.14Z"/>
  <path class="st45" d="M414,907c-2.04-1.42-3.33-1.09-5.43-4.07-5.91-8.4-1.29-22.31,2.43-30.93,2.11.97.32,3.09-.13,4.37-4.11,11.6-7.38,21.21,3.13,30.63Z"/>
  <path class="st50" d="M536,207c-8.89,5.8-18.34,9.01-29.39,7.89-1.36-.14-8.61-1.76-8.61-2.89,14.06,4.45,25.11.44,38-5Z"/>
  <path class="st8" d="M295,145l.56,1.05c-12.72,3.78-17.98,3.41-29.59-2.52-.49-.25-4.18-1.77-1.97-2.53,12.14,6.87,17.38,7.74,31,4Z"/>
  <path class="st22" d="M189,147c-1.1-12.73.21-26.15,5-38,1.93.89.43,3.2.03,4.52-1.72,5.7-3.33,11.13-3.9,17.11-.51,5.37.96,11.4-1.13,16.37Z"/>
  <path class="st71" d="M890,394c-11.21-3.56-23.02-4.55-34-9,.88-1.92,3.2-.43,4.52-.03,8.33,2.56,23.54,4.83,29.48,9.03Z"/>
  <path class="st34" d="M166,367c-4.38,1.96-8.63,4.05-13,6,7.94-5.87,21.49-9.69,26-15,2.25.7-.13,2.88-.96,3.54-2.83,2.22-8.35,3.81-12.04,5.46Z"/>
  <path class="st87" d="M500,303c-.13,9.67,3.4,18.89,6,28-2.42-.43-4.48-9.46-5.51-13.99-1.1-4.82-1.32-9.71-2.51-14.5.18-1.32,1.49.45,2.02.49Z"/>
  <path class="st45" d="M830,877c-8.39,6.06-15.02,7.74-25,9l-.48-.97,9.24-1.77,16.24-6.26Z"/>
  <path class="st17" d="M533,372c25.43,9.6,52.79,13.72,80.14,12.08l1.86.92c.57-.56,1.15-1.01,1.78-1.09,20.91-2.77,43.82-5.49,64.81-7.31,29.37-2.54,59.06-3.02,85.41,12.4,8.71,5.42,17.95,11.97,26,18,5.77,4.9,11.16,10.15,16,16,2.08,2.91,2.94,5.11,6,8,6.91,9.66,11.58,19.99,14,31,1.31,2.48-1.81,3.17-2.99.18,11.87,52.9,6.78,106.62-1.91,159.13-2.41,26.67,1.94,45.99,9.64,71.14,1.63,8.25,1.72,16.71.57,25.03-6.43,33.39-10.1,68.39-8.37,102.93.12,2.35,10.67-1.9,10.61-2.52-5.14-23.4-3.76-47.6-1.75-71.31,1.96-4.14,3.52-3.21,3.19.42l1.02,1.81c-2.93,21.89-3.02,44.45,1.35,65.69,2.68,10.58-16.14,11.68-23.38,11.5-3.64.18-7.35-.12-11,0-8.46.88-18.96-1.69-27-5-.97-.3-1.96-.68-3-1-3.22-.77-4.98-2.13-5.28-4.07,12.69-33.19,24.33-76.49,7.28-109.93-6.11-13.1-16.45-20.11-27-29-5.27-4.74-10.38-9.59-15-15-3.81-4.94-8.42-10.7-12-16-16.7-21.75-21.72-50.17-25.25-76.35-4.86,15.32-1.46,32.18,1.89,47.66l-.65,1.69c1.59,2.79-.74,3.18-2.59.83-32.28,44.35-94.26,57.12-146.6,61.95-1.01.18-5.47,18.95-5.16,19.93.56,1.75,30.46,2.46,36.53,1.9,3.17.11,4.44,1.24,3.82,3.39-14.89,1.01-30.34,1.24-45-2,5-18.24,8.53-36.82,10.58-55.74-.33-2.38-1.27-1.83-2.58-.26,1.16-.24,1.05.36-.32,1.8l-13.68,41.2-1.98.62c-17.37,29.71-28.19,61.3-29.47,96.27-1.08,20.87-2.46,41.71-4.14,62.53,4.09-.58,7.93-1.72,11.54-3.43-.97-21.19-1.31-42.26-1.01-63.21.27-3.25,3.11-4.07,3.06-.78,1.05,1.16.87,3.7,0,5,.21.93.38,1.86.4,2.79.39,17.58.91,35.08,1.64,52.67.08,1.98.13,3.81-1.04,5.55-22.89,12.99-53.32,7.83-76.45-2.87,13.67-33.54,15.61-69.5,8.31-104.84-7.03-28.64-12.98-57.41-17.85-86.29-.15-.82,0-1.69-1-2-.57-.14-1.02-.25-1.04-.2-.44,1.37-.69,4.26-.75,5.81-.85,19.61.74,37.23,4.79,56.39-10.43.15-20.66.19-31-1-1.74-4.86,8.43-4.07,8.5,0l1.14-2h17.95l1.42,2-2.16-.78-2.24-13.38c-29.62,5.2-59.24,1.68-87.6-7.84-8.64-5.11-16.37-10.49-24-17-4.78-3.01-9.12-7.01-13-12-3.81-5.12-8.52-11.45-12-17-11.65-15.79-17.16-37.6-17-57-.65-5.88-.78-8.31,5.57-3.62,76.24,11.69,153.04-39.4,192.1-102.13-1.15.68-1.92-.07-2.67-1.25,13.33-13.47,25.39-28.97,32-47,7.75-27.68,10.9-55.17,9-84,8.04,7.74,16.82,15.13,27,20Z"/>
  <path class="st17" d="M493,221c17.84,8.07,34.6,1.01,51-6,11.84-5.97,22.24-13.47,36-16,16.18-3.72,35.99-2.25,51,5,6.58,2.77,17.13,10.01,21,16,9.79,11.68,4.98,27.82-2,40-9.78,14.87-21.52,27.88-37,37-24.28,16.04-57.33,18.56-84,7-9.09-3.31-20.42-8.99-27-16l3.41-.78c44.49,14.18,102.94,1.79,123.11-43.49,6.91-15.51-5.9-12.46-15.77-8.47-6.2-1.65-13.1-1.09-20.7,1.69-2.1,0-2.82-.94-2.06-2.96-.05-.78-.04-1.96.5-2.13,1.33-.42,14.85-3.11,15.64-2.98,1,1.46,2.62,1.83,4.86,1.11.63-.25,1.26-.45,1.9-.47,18.05-.7,16.26-1.33,3.1-5.53-13.67-1.74-27.42-1.6-40,5l-1.46,2.79c-13.36,9.2-26.83,18.24-40.41,27.09l-3.13-.89c-11.53,5.81-25.78,4.96-38.39,3.96-3.08-.7-6.29-1.02-9.61-.96-1.27-.77-.94.33,1,3.3l3.36,60.76c3.87,57.76-5.71,139.09-74.11,150.61-2.08,2.54-3.6,2.13-6.05.77-7.25-.12-16.02-.5-18.35-8.55-1.87.94-3.11-.11-1.85-1.89.51-3.98,2.11-7.6,3-11.52.22-.96-.65-3.36,1.49-2.47,1.16.48,2.41,2.79,3.04,3.96l4.46,11.02c1-8.36,2.92-16.66-1.99-23.99-6.25-6.77-14.55-8.14-23.14-5.31l-.86-.69c-.9-.18-.86-.52,0-1-2.09-14.68-3.13-22.01-3.13-22.01l-1.87-4.99c-4.91-17.05-24.32-32.62-40-40-31.71-12.48-65.98-15.06-99.91-15.47l-2.09-.53,8.23-10.27c2.42-3.47,4.12-6.84,5.77-10.73,7.83-15.9,11.59-35.32,4-52-2.34-6.45-9.73-14.17-17.25-13.75-9.15.5-15.73,10.2-19.53,17.49-.92,1.77.16,1.4-1.22.26-1.06-10.38,2.94-24.58,9-33,3.24-4.99,14.83-12.01,15-13,6.16-4.38,15.85-2.97,20.78,3.37,3.47.8.26-6.32-.91-7.95-5.47-7.61-15.69-6.44-23.86-5.42-.9.32-1.77,1.34-2.5,1.99l-.48-1.48c10.61-15.66,20.26-32.95,36.49-43.51,1.1,11.52,2.72,19.15,16.15,16.14,3.26-.73,10.92-5.33,12.35-5.15-3.44,21.18,10.17,39.34,31,24,5.66-3.35,9.01-8.13,12.03-13.98,8.96,5.84,14.61,4.6,22.88-1.6,12-9,20.76-25.35,35.09-36.41,1-.85,1.49-1.63.67-2.96,3.94-2.24,7.52-4.93,10.74-8.06l2.59.02c10.73-.52,23.37.16,31.91,7.59,4.46,3.88,1.56,5.07,2.2,10.81,2,17.93,16.18,31,32.45,36.55,2.82.96,5.94.67,8.48,1.52,4.83,1.64,7.91,5.57,14.97,7.53Z"/>
  <path class="st109" d="M252,363c51.03,2.84,96.67,15.31,118,66l1.51.25,1.49,6.75c0,.33-.01.67,0,1l.7,1.16c-1.78,4.36.33,6.31,6.3,5.84-.11,13.69-6.52,26.86-14,38-1.71,2.01-3,.66-2.64-1.96,3.52-5.89,6.91-11.98,9.61-18.36,6.36-15.05,4.55-20.18-1.56-2.85-3.56,3.19-6.36,7.01-8.41,11.46-1.88.75-3.76,1.6-5.62,2.53-.46,4.41-2.28,6.21-5.46,5.4-2.67,3.47-4.98,4.28-6.91,2.46,3.64,5.48-2.05,9.11-7.24,9.85-9.02,9.19-22.4,14.01-35.23,17.18-2.8-.48-4.77-.07-5.92,1.23-11.3,1.81-21.16,2.93-32.91,3.11-2.84.04-5.11.11-7.73.72-5.29-1.76-11.28-1.92-17.97-.48-3.52-2.16-9.88-1.92-7.26,4.04.78,6.18-8.09,2.27-9.3.29-1.36-2.22-.69-4.38,1.03-6.15-5.05,3.88-7.67,3.52-7.87-1.09-.74,2.79-9.19,1.67-10.69.92-1.71-3.89-7.32-3.76-10.62-2.85-2.63-3.11-6.22-5.1-10.67-4.64-3.02-1.27-16.53-7.7-17.29-9.98-.65-1.94,2.21-3.15.69-1.84-.57.49-2.77,6.13-2.4,6.66,3.66-1.38,11,6.77,5.37,7.36-6.8-4.41-14.03-10.54-19-17-.55-1.06-.41-2.08.72-2.35,5.59-1.36-1.77-6.21-2.22-5.99.33,1.67-.17,2.78-1.5,3.35-6.07-6.59-9.22-15.81-11.02-24.49-.2-.48-.5-.56-.98-.51-4.11-15.89-3.73-34.89,3-50,4.06-10.56,13.67-22.69,23-29,11.34-9.78,29.31-13.36,44-14,4.3-.56,10.12-1.77,14-2,10.73-1.14,22.27-1.12,33,0Z"/>
  <path class="st9" d="M590,234c.12-.02,1.08,1.22,2.34.96,4.96-1.01,12.3-3.52,17.22-3.07,2.43.23.63,2.3,2.43,2.1-.79-4.2,18.14-3.56,18.88-2.85,8.3,7.92-14.57,35.7-20.99,41.24-25.76,22.26-76.91,28.91-107.88,15.62-3.16-1.35-8.05-5.49-11-6-.58,1.18-1.07,1.97-2,3-.67,20.53,1.08,41.53,5.23,63.01,3.26,24.52.3,49.47-3.23,72.99-2.15,10.57-6.15,20.57-12,30-15.72,23.25-38.35,40.57-66.49,46.02-.49.2-.56.5-.51.98-16.97,2.08-30.57,10.57-42,23-15.98,12.25-33.51,23.65-53.49,28.02-.49.2-.56.5-.51.98-13.98,3.73-29.57,6.01-44,4-12.58-.54-27.78-4.81-38-12-1.54-.95-5.52-3.78-6.64-5.01-1.48-1.62-.34-1.89-.36-1.99,18.82,2.13,37.24,3.77,56.42,2.63,3.39-.77,4.56-1.03,6.58-.63,12.34-1.91,26.11-4.23,38-10,20.67-7.49,38.53-23.77,49.81-42.69,1.45-2.43,8.17-18.39,9.19-18.31.17.01.57.84.97,1.01l3.02-9c1.24,4.57-.69,7.82.02,12l1.98-1.02c-.31,5.98,9.92,4.88,14.58,5.49,1.37.18,2.5,1.46,2.95,1.53.56.09.3-1.8,1.13-2,16.68-4.15,26.1-5.88,39.41-18.46,48.15-45.52,32.88-131.56,30.94-191.05-.05-1.38-.83-2.63-1.03-3.98.16-1.2,1.88.6,2.02.49,2.73-.74,5.52.43,8.37,3.5l13.63,5.5,3.23-1.51c25.55,3.81,45.75-11.75,63.85-27.27,4.82-3.6,9.93-7.01,15.75-8.75l2.17,1.53Z"/>
  <path class="st17" d="M864,263c-5.29,18.41-6.3,34.9,9,49,25.41,22.49,33.48,18.26,39.94,56.57.41,2.41-.34,1.29-1.44.43-11.52-9.01-21.52-17.23-35.5-23l-1.91,1.12c1.65,3.06,4.62,6.69,8.91,10.88,18.07,16.07,35.85,26.67,48,49,14.04,22.12,16.51,54.55,2,77-1.43,2.52-3.7,4.24-5,6-18.34,9.94-36.74,18.11-56.55,5.04-3.58-2.36-21.56-18.31-21.8-21.15-.08-.94,1.19-1.25,2.34-.89,5.07,4.08,12.04,9.5,18,12,14.53,4.04,29.13,3.82,41-7,5.33-3.42,6.57-5.06,9-11,9.44-17.33,5.65-36.45,0-54-5.37-11.52-16.7-25.13-28.74-29.76-19.64-7.54-37.41-5.12-52.77-24.23-1.71-2.12-6.79-11.89-7.49-12.01-9.16-15.63-6.65-41.81,3-57,5.81-9.64,17.93-21.19,27.71-26.8,1.46-.84,1.09-1.5,2.29-.2Z"/>
  <path class="st57" d="M465,483c.31-.22,1.51-.28,2.51-.95,2.3-1.53,3.79-4.86,6.48-6.05-4.44,10.35-11.25,20.47-18.16,29.37-30.88,39.75-84.41,75.52-134.61,83.33-16.49,2.56-31.81,1.88-48.22-.71l1.02-1.99c-3.39,2.44-3.02-1.14-3.51-1.02-1.11.27-.25,3.8-.5,5.01-1.59-1.99-1.66-6.42-1-9,.62-5.61,1.06-11.26,1.32-16.96,15.55.98,31.91.79,46.68-4.04,1.49-2.05,7.09-3.32,10-3,18.05-5.74,34.84-16.65,49-29,3.93-4.61,8.26-8.94,13-13,.78-.53,4.25-2.63,5-3,9.44-2.99,19.3-5.87,29-7,15.24-4.78,29-12.91,42-22Z"/>
  <path class="st19" d="M586,707c-4.41-2.96-11.82-.73-17.54-.96-8.23-.34-17.15-1.92-25.46-2.04l6.17-23.84c15.99-1.79,31.87-3.74,47.68-6.9,25.09-5.02,50.59-14.22,72.06-28.85,10.46-7.13,23.28-16.67,28.1-28.41,1.9.38,1.94,2.5,2.03,4.02.43-.16.8-1,.96-1.02l1.21-.49c1.62,6.38,4.14,12.47,6.79,18.49.24.5,0,1.79.57,2.89,2.82,5.55,6.94,10.4,9.43,16.1-20.93,3.67-37.08,18.47-55.33,28.18-8.14,4.33-17.03,8.65-25.67,11.83-13.7,5.74-29.11,10.13-44,10-1.52.16-2.84.99-3,1-.98.77-2.92.63-4,0Z"/>
  <path class="st0" d="M296,681c-1.29-4.1,1.86-2.91,3.37.4,1.02,9.14,2.5,18.18,4.41,27.11,50.67,22.3,52.26,77.04,45.5,124.49,4.31-.79,7.22-.12,8.72,2-18.26,6.04-40.88,2.96-58-5-1.47-.6-2.93-2.12-4.98-2.03-.49-2.38,1.27-4.03,1.98-5.97,13.29-37.27,9.28-75.47,2.62-113.72l.38-2.28c-1.36-8.31-3.4-16.56-4-25Z"/>
  <path class="st93" d="M635,744c2.62-6.15,7.94-11.04,13.87-15.21,3.58-6.02,8.49-10.76,13.91-15.12,7.71-6.2,16.62-10.06,25.97-12.13,13.56-12.58,27.35,3.05,34.57,14.72,2.38-2.94,5.35-5.33,5.68-.27-1.27,1.2-1.86,2.74-4.06,3.55,5.98,10.81,12.08,20.44,9.61,33.49-2.71,14.28-16.97,12.65-25.55,4.17-2.7-2.67-8.92-14.25-9.96-14.74s-12.68,4.02-15.04,4.52c-5.46.22-10.95.13-16.48-.27,1.13,11.86-1.37,21.95-7.52,30.27-5.76,4.08-13.38,7.29-18.46-.04-6.27-9.06-.55-23.93,3.45-32.95-3.51,1.23-6.45.99-9.99,0Z"/>
  <path class="st3" d="M729,716c-4.85-2.8-2.05.64-2.2.81-.67.78-2.8,1.16-3.3,3.19-7.38-10.24-16.65-26.84-31.76-18.97-.63.33-.69,1.56-2,2.23-2.52,1.29-5.79.55-8.96,2.76-1.32.92-.8,1.69-.8,2.98l-2.48-2.99c-2.06,3.47-5.73,3.67-8.45,5.55-7.82,5.43-13.79,10.54-18.33,18.17-.27.46-7.53,6.82-8.72,5.27,1.96,4.14-.27,2.49-2.65,4.96-1.88,1.95,1.43,2.81-4.36,4.04-8.79-2.47-23.99-13.54-29.97-20.53-.74-.87-5.76-6.85-5.02-7.47,24.07-1.73,47.63-11.39,68.67-22.83,18.44-10.04,37.09-28.59,59.31-24.65,2.98,3.94,16.72,13.29,17.85,17.2,1.66,5.73-10.11,24.81-14.41,29.24-.92.94-2.24.85-2.43,1.03Z"/>
  <path class="st99" d="M169,505c1.52-.03-1.01-3.69-1.18-3.8-.31-.21-1.74.91-1.81.81.57-5.13-1.22-1.86-3.04-2.56-1.16-.44-2.7-3.12-3.96-3.96,3.19-.34,2.4,1.58,4.01-2.01-2.06-1.25-3.23-3.3-4.91-5.11-.66-.72-2.27-1.37-.61-2.37,3.27,3.95,7.84-1.72,5.51,5.99,2.64-1.61.78-3.7,4.99-1.99-2.24,3.92.48,2.91,2.18,4.12.81.58.91,1.61,1,1.64.66.22,1.58-.79,2.2-.74.26.02,2.51,2.4,3.43,2.88,1.14.6,3.75-.86,3.21,2.08,1.32.61.96-4.14,2.98-1.98.33.36-1.45,2.53-.99,2.99,2.31-.69,9.18.16,9.01,2.99l1.48-1.99,1.52,3.99c1.73.45.45-2.02,1.51-2.05,1.61-.04,4.1,2.38,4.47,2.05s-.79-2.41.99-1.99c.14,3.01,4.45,1.3,4.03,5.99,2.59-3.38,5.18.06,6.53-.11.47-.06,2-4.6,6.45-1.88-4.86,4.74,2.78,4.11,1,0,2.03,1.37,7.01-.88,6.51,2.01-.36,2.08-3.75,1.98-2.57,5.45.28.82,4.56.5,4.08,3.53,1.17.32,2-3.7,1.88-3.88-.26-.39-2.43-.59-2.88-1.62,3.19-.59,2.8-4.25,3.02-4.45.92-.86,3.68.83,4.54.86.36.01,2.02-5.13,4.44,1.09l2-2.99c1.65-.47.52,1.53,1.45,1.83,2.93.94,14.38-3.05,16.05,2.17l.5-3c1.67.99,6.99,1.35,8.54.81.9-.32-.2-2.26,1.44-1.81-.26,3.13,1.81,3.02,2.51-.01.92-.15.19,1.45.67,1.76,3.98,2.49,19.74-4.53,24.83-1.75l-1.02-1.98c.93-.63,6.81-.04,8.31-.39,4.7-1.07,15.21-4.96,19.83-7.02,2.28-1.02,1.46-3.42,3.86-1.59-.49-5.12.8-1.48,3.69-2.71,3.76-1.59,5.55-5.14,5.95-5.36,2.2-1.22,8.78-.91,7.44-7.28-.22-1.04-2.94-1.31-3.06-2.16-.31-2.22,5.84-.62,5.48,1.5.36-1.02,4.26-4.52,4.8-4.74.92-.37,2.18.7,2.75.31,1.1-.74.78-3.31,1.48-4.56.9-1.6,3.75-1.64,3.48-4.01l1.48,1.99c1.89-.83,2.08-6.24,5.5-6.01l-2.99-1.98c1.39.77,6.5-3.66,6.82-4.25.36-.64-.6-1.76-.48-2.28.17-.7,4.12-2.78,2.66-6.49l1.98,1.02c-.37-3.4,1.96-5.23,5.03-3.5-1.13,11.78-6.65,21.68-12.22,31.78-.51.92-3.01,3.05-.8,3.7-34.96,52.04-105.37,52.66-160.42,37.92-13.2-3.53-25.11-7.48-36.58-14.92Z"/>
  <path class="st20" d="M372,721l.51,2.76c-6.82,32.06-9.3,64.58-8.51,97.24,2.99,6.37,2.8,14.15-6,14h-11s2.99-27.51,2.99-27.51c.1-34.77-.99-63.94-30.07-86.91-3.06-2.42-17-10.04-17.66-10.84-2.24-2.73-3.78-24.79-5.27-29.74-1.14-.18-.92,1.01-.99,1-.36-.04-2.58-6-1.5-7,15.7,16.68,36.18,29.64,57.15,38.85,6.78,2.98,13.91,4.68,20.36,8.14Z"/>
  <path class="st65" d="M447.25,906.8c-3.52-3.81,2.95-24.79,4.99-30.07,1.67-4.32,4.44-8.18,5.91-12.59,18.43,2.47,37.91,3.81,55.85-2.15-3.75,34.6-26.41,47.83-59.56,46-1.4-.08-6.4-.36-7.18-1.2Z"/>
  <path class="st65" d="M840,832.01c-2.97,27.03-14.15,42.82-42.51,44.98-3.52.27-17.88.78-19.58-1.39-2.72-3.46,2.78-22.94,4.61-27.58,1.94-4.91,5.79-8.95,6.49-14.03,16.6,3.02,34.99,3.92,50.99-1.99Z"/>
  <path class="st12" d="M364,844c-1.65,33.88-24.77,45.97-56.49,42.98-4.69-.44-6.85-1.05-6.46-6.35.84-11.53,7.92-25.42,13.93-35.15,2.47-1.54,12.85,1.31,16.53,1.51,11.41.61,21.47-.7,32.49-2.99Z"/>
  <path class="st65" d="M637.2,815.15c16.83,1.88,34.52,3.93,50.79-2.15-1.23,19.11-11.09,35.58-30.79,39.7-5.3,1.11-26.72,2.85-30.19-.2-5.34-4.68,6.37-31.7,10.19-37.35Z"/>
  <path class="st107" d="M669,781c4.76-7.16,6.43-15.85,6.5-24.34l17-1.49-1.78,44.63c-1.66,4.4-10.57,6.5-14.72,6.2-13.72,4.04-30.08,3.17-43-3-1.55-.62-10.87-5.83-10.92-6.48,3.8-6.98,6.67-14.63,7.93-22.51l3.54,8.95c2.27,3.06,4.34,4.36,7.45,6.05,10.35,4.51,21.72,1.47,28-8Z"/>
  <path class="st67" d="M852,473c-1.97.35,1.07,2.68,1.47,3.03,6.62,5.67,12.53,13.37,20.05,17.95,19.84,12.08,33.85,3.38,52.36-4.6,1.52-.66,2.31-3.02,2.12.62-2.17,2.93-4.07,6.18-7,9-19.82,16.23-49.92,15.92-71,3-1.9-12.2-4.23-24.2-7-36,.1-.11-.17-.82.5-.98,2.75,2.77,5.47,5.54,8.5,7.98Z"/>
  <path class="st55" d="M336,693l1.3-1.82c26.49,8.82,56.16,13.55,83.63,7.4.96-.22,1.99.48,2.45.39,1.2-.24-.09-2.39,1.6-1.96l3.01,18h-20.5c-1.6,0-6.37-2.88-8.5,0-3.69-.43-7.37-1.27-11-2-12.96-1.17-26.45-6.12-38-12-4.26-1.94-9.83-5.54-14-8Z"/>
  <path class="st81" d="M449,861.01c-8.51,12.84-15.66,27.3-16,42.98-13.02-3.89-18.6-3.89-14.49-18.99,2.91-10.68,10.59-19.75,14.51-30l15.98,6.01Z"/>
  <path class="st12" d="M779.99,831.01c1.17,1.67-4.98,9.16-6.17,11.31-5.23,9.54-9.32,19.62-9.83,30.67-19.94-3.52-16.09-12.43-9.68-27.18,1.56-3.6,9.49-19.72,13.16-19.79,2.74-.06,8.81,5.23,12.52,4.99Z"/>
  <path class="st92" d="M305,841.01c-6.54,13.08-15.87,25.1-18.01,39.99-13.48-3.67-15.31-6.22-11-19.51,1.71-5.27,9.21-20.49,12.99-24.02,3.99-3.73,10.95,3.97,16.03,3.54Z"/>
  <path class="st105" d="M630,812.01c-7.98,10.91-13.75,23.54-16,36.99-3.92-1.58-12.48-2.98-12.49-8.1-.02-6.89,10.04-31.27,15.48-35.43l13.01,6.55Z"/>
  <path class="st97" d="M623.85,750.15c1.25,10.39-11.87,24.09-22.22,18.72-8.26-4.29-5.16-23.36,3.43-26.35,4.63-1.61,13.33,6.92,18.79,7.64Z"/>
  <path class="st45" d="M428,656c5.72,30.13,14.34,60.38,19.52,89.98,5.99,34.19,4.18,68.89-9.52,101.01,23.85,10.13,51.93,14.95,76,3.01.28-.87.62-.86,1,0-2.16,3.68-12.61,5.96-16.79,6.71-21.21,3.77-41.64-.1-61.08-8.83-.77-1.23,6.45-20.13,7.38-23.87,14.98-60.53-8.74-105.23-17.24-162.79-.24-1.6-1.05-4.22.74-5.22Z"/>
  <path class="st29" d="M817,826c4.11-.2,21.64-2.83,22.88-6.68.82-2.53-2.5-16.72-2.87-20.84-1.4-15.62-.75-35.92.99-51.49-1.09-3.04-.76-4.38,1-4l-.39-2.74c3.92-15.07,6.4-30.25,7.43-45.54-2.58-14.76-6.95-29.16-13.13-43.21l1.09-1.5c.05-.79.12-1.2,1-1,3.21,25.49,17.34,31.52,11.7,63.2-5.19,29.19-10.63,51.58-8.69,82.29.4,6.37,4.02,19.66,3,25.01-.82,4.27-19.79,9.37-24.01,6.5Z"/>
  <path class="st13" d="M724,646c-.62,2.17-2.34-1.41-2.63-1.87-13.95-22.45-21.12-47.64-22.38-74.12l-2.03,12.45c-.57,19.05,4.69,36.94,11.04,54.54-2.64-5.57-6.2-11.05-7.02-17.49-.2-.46-.51-.56-.98-.51-3.52-17.51-6.57-36.65-1.69-54.2.29-1.03.24-3.03,1.68-2.79.44,29.15,7.61,59.68,24.01,83.99Z"/>
  <path class="st42" d="M767,389c-48.31-25.58-101.34-6.27-152-4-2.66-.32-2.54-1.24,0-2,48.69-2.34,107.91-21.43,152,6Z"/>
  <path class="st45" d="M840,580c-.57.77-.9.44-1-1,2.01-17.23,3.35-34.56,4-52l-2.3-5.16c-1.23-19.85-6.65-40.51-12.15-58.18l.46-1.66c-3.02-11.01-9.2-20.75-14-31,11.45,10.82,23.92,53.22,26.69,70.81,4.55,28.87,1.76,50.1-1.69,78.19Z"/>
  <path class="st56" d="M489,285c1.98,24.33,4.58,48.68,7.8,73.06l-.8,1.94c.2,6.64-.14,13.35,0,20,1,13.35-.71,28.19-5,41-2.5-4.53,1.12-10.75,1.88-15.62,5.73-36.8-1.11-64.41-4.86-99.9-.8-7.52.24-15.88-1.01-23.48l1.99,3Z"/>
  <path class="st7" d="M776,820c-2.59-.79-6.3-.1-6.01-4.41,6.82-16.01,11.55-32.95,13.87-50.23,2.92-21.75,3.59-39.09-5.86-59.36,1.87.82,2.41,2.66,3.18,4.32,11.35,24.66,4.2,65.18-3.91,90.45-.89,2.76-6.53,15.24-5.86,16.25.76,1.15,3.73,1.4,4.58,2.98Z"/>
  <path class="st40" d="M297,822c-2.11-.97-.32-3.09.13-4.37,13.53-38.11,7.24-67.93,2.15-106.44-.21-1.6-1.11-4.18.72-5.2,6.87,41.97,12.1,74.88-3,116Z"/>
  <path class="st45" d="M669,781c3.66-7.17,6.2-16.98,5.99-25l18-1.99-1.43,46.06c-3,5.54-10.1,5.79-15.56,6.94-.87-.28-.86-.62,0-1,4.84-1.04,10.26-1.7,13.84-5.66l2.16-44.34-16.01,1c-.07,8.18-1.4,17.81-7,24Z"/>
  <path class="st91" d="M372,721c.36.19,1.4-.16,2.01.01-2.3,10.39-4.46,21.07-5.87,31.63-3.02,22.67-3.95,45.46-3.14,68.36-.28.87-.62.86-1,0-.59-14.59-1.09-29.98,0-44.49,1.41-18.61,5.62-37.04,7.99-55.51Z"/>
  <path class="st104" d="M613,297c2.21.76-1.48,2.28-1.97,2.53-26.32,13.58-50.36,16.31-78.78,6.72-.32-.11-5.93-1.25-3.25-2.25,28.14,10.25,58.14,8.24,84-7Z"/>
  <path class="st70" d="M479,451c4.32-10.07,9.2-19.26,12-30,3.68-14.13,4.11-26.63,5-41,0-.16.97-1.12,1.04-2.42.23-4.34-.22-8.74-.04-13.09.05-1.21-.76-3.72.99-3.48.22,26.2-1.25,53.39-11.82,77.67-2.12,4.88-4.37,8.18-7.17,12.33Z"/>
  <path class="st31" d="M497,436c-1.91-.98-.71-3.34-.31-4.79,5.4-19.37,9.16-36.32,9.4-56.71.09-7.18-2.72-15.6-.1-22.5,2.4,27.68.62,57.76-9,84Z"/>
  <path class="st58" d="M365,821c0,.13.97,1.13,1.04,2.42.52,9.18,1.09,9.94-7.6,12.52-17.99,5.35-36.47,2.7-53.98-2.9-.26-.08-6.88-2.02-4.46-3.04,16.66,6.74,40.57,9.93,58,5,10.34-2.92,6.34-5.69,6-14h1Z"/>
  <path class="st29" d="M615,383v2c-26,1.17-58.33-1.67-82-13,.97-2.09,3.08-.38,4.36.14,26.39,10.68,49.45,12.22,77.64,10.86Z"/>
  <path class="st30" d="M933,484c13.68-24.17,10.95-53.21-2-77,.76-2.21,2.28,1.48,2.53,1.97,11.7,22.9,13.68,49.76,2,73.06-.25.49-1.78,4.18-2.53,1.97Z"/>
  <path class="st39" d="M491,282c-1.62,7.34-.77,15.94.03,23.48,1.95,18.38,5.73,32.31,6.33,50.76.05,1.63,1.37,2.89-1.36,3.76-.72-24.53-8.58-51.57-7-75,.07-.99-.07-2.01,0-3,.64.05,1.38-.11,1.99,0Z"/>
  <path class="st62" d="M269,581c.12,3.5.77,6.28,1,9,1.79,21.29,5.5,38.65,17,57-.62,2.17-2.33-1.41-2.63-1.88-14.88-23.96-17.33-54.52-16.37-82.12h1l1.36,1.79c-.3,5.49-.75,10.89-1.36,16.21Z"/>
  <path class="st52" d="M840,580c-2.5,20.36-7.5,49.12-5,69l-1,1c-3.76-23.32.63-48.06,5-71l1,1Z"/>
  <path class="st94" d="M227,535c-.15-.62-1.75-1.87-.49-2.01,8.18,1.69,17.65,3.57,25.94,4.06,4.17.24,32.18.4,33.58-.53.64-.42.94-1.7.98-2.51,1.76-.36.64,1.41.98,2l2,1c-.22.03-.8.84-1.59.92-20.55,2.17-41.09.44-61.41-2.92Z"/>
  <path class="st66" d="M921,499c-18.68,17.97-48.33,15.08-70.37,5.07-1.03-.44-.45-1.61-.63-2.07,23.47,12.17,48.97,12.21,71-3Z"/>
  <path class="st71" d="M427,654c-1.8,16.08-1.96,25.07.14,41.36.92,7.09,2.78,14.11,3.87,21.13l-1.01-.49c-4.27-17.87-7.4-38.04-5.99-56.49.1-1.3,1.64-12.42,2.98-10.51-.11,1.63.19,3.39,0,5Z"/>
  <path class="st102" d="M541,705c-.73-.75-1.37-.87-1-2.35,5.88-17.12,9.03-34.69,11-52.65l-2-1,2.99-8.99c1.47,22.4-5.35,43.71-10.99,64.99Z"/>
  <path class="st49" d="M517,761c-.59.82-.93.48-1-1-.39-.78-.75-1.58-.97-2.41-1.8-6.65,10.55-44.96,13.81-54.05l3.16-3.54c.29-.82.62-.8,1,0-6.28,20.04-12.97,40.1-16,61Z"/>
  <path class="st39" d="M834,290c-10.29,17.08-9.83,38.8-3,57-.07-.01-.31,1.58-.99,1-9.34-8.12-4.27-45.03,1.46-56.03.26-.49,1.77-4.19,2.53-1.97Z"/>
  <path class="st85" d="M327,557c-2.9.92-7.21,2.35-10,3-7.86,3.03-17.14,3.78-25.67,4.3-3.68.22-18.93.99-20.85.25-.6-.23-1.06-.83-1.48-1.55h-1c3.95-2.68,9.18.09,13.5.09,13.4.01,27.79-3.08,40.72-6.39,1.46-.37,3.77-1.66,4.78.29Z"/>
  <path class="st70" d="M514,790c-1.02,18.32,1.59,36.3,2.07,54.47.07,2.59.21,3.35-1.07,5.53h-1c.27-20.32-1.93-40.66-1-61,.5-.65.84-.32,1,1Z"/>
  <path class="st4" d="M920,467c7.22-17.63,6.39-31.96.13-49.63-.45-1.28-2.25-3.4-.13-4.37,7.24,15.54,9.96,39.24,0,54Z"/>
  <path class="st58" d="M579,198c17.06-2.75,34.11-2.18,50.34,4.17.67.26,4.13.96,1.66,1.83-14.06-5.92-36.07-7.75-51-5l-1-1Z"/>
  <path class="st58" d="M551,650c-2.7-.58-1.92,1.37-2.48,2.97-5.43,15.31-10.73,31.77-15.52,47.03h-1c-2.3-2.17.41-7.38,3-8l14-43,1.99-1c-.01.65.08,1.35.01,2Z"/>
  <path class="st29" d="M873,312c-15.73-13.93-16.1-29.84-9-49,1.26,1.36.67,1.28.37,2.78-2.54,12.83-6.29,21.07.09,34.26l8.54,11.96Z"/>
  <path class="st51" d="M412,498c.02.16.86.55,1.01.98-20.15.88-29.04,11.31-43.01,22.02,10.25-13.9,24.75-21.53,42-23Z"/>
  <path class="st63" d="M205,365c-15.7,2.06-30.66,4.98-44,14-1.21-1.17.95-2.08,2-3,3.24-2.84,2.98-2.35,7-4,3.98-3.17,7.98-4.5,12-4,5.92-1.62,11.68-3,17.81-3.71,1.6-.19,4.15-1.15,5.19.71Z"/>
  <path class="st99" d="M147,483c-2.85-8.81,4.1-5.5,7.21-.74,2.65,4.05,1.46,3-.85,5.14-.58.54-.31,1.55-.38,1.59-.76.51-2.43-3.24-2.98-.99-1.56-2.03-2.12-2.28-3-5Z"/>
  <path class="st43" d="M138,408c-6.11,15.89-5.89,33.45-3,50-.15.02-.53.88-.98,1.01-3.31-16.5-3.14-33.23,2.25-49.25.22-.67.76-4.27,1.73-1.77Z"/>
  <path class="st11" d="M684,747c.74.03,3.08-.32,1.5,1l-17.49-1.01c.68,6.65-1.24,26.68-7,30.46-.45.29-.96-.49-1.01-.46,6.36-8.81,7.21-20.44,7-31,5.67.7,11.29.8,17,1Z"/>
  <path class="st75" d="M586,707c1.33-.07,2.68.1,4,0l.52,1c-8.53-.87-44.53,2.12-49.52-3,14.9,1.49,29.98,2.77,45,2Z"/>
  <path class="st29" d="M637,696c2.51.96-1.1,1.5-1.76,1.73-11.67,3.94-24.47,7.97-36.77,9.27-1.6.17-4.48.59-5.47-1,15.06-1.58,29.81-4.78,44-10Z"/>
  <path class="st30" d="M650,260c5.64-14.18,11.28-25.63,2-40,1.39-1.32,2.12.99,2.55,1.94,6.6,14.56,3.77,25.41-4.55,38.06Z"/>
  <path class="st38" d="M676,806v1c-15.05,3.16-26.59,2.75-41.23-2.27-.67-.23-4.27-.76-1.77-1.73,13.49,5.38,28.95,6.02,43,3Z"/>
  <path class="st2" d="M316,550c.01.16.86.55,1.01.98-14.48,3.23-30.13,5.17-45.01,4.02-.87-.28-.86-.62,0-1,14.61,1.4,29.66-1.74,44-4Z"/>
  <path class="st62" d="M911,478c-9.93,11.25-27.64,12.62-41,7,.91-1.97,3.18-.38,4.5-.01,15.24,4.22,23.68,1.22,36.5-6.99Z"/>
  <path class="st85" d="M328,527c-9.02,5.24-21.27,8.25-31.63,9.88-2.16.34-4.37-.12-6.37.12-1.2.18-1.43-.03-2-1,13.67-.77,27.21-4.37,40-9Z"/>
  <path class="st108" d="M388,713c-.95,1.89-3.38.62-4.84.36-10.23-1.85-20.38-6.25-30.12-9.89-.28-.1-5.66-1.64-3.04-2.46,11.33,5.15,25.79,9.55,38,12Z"/>
  <path class="st29" d="M806,826c.33.04,1.47,1.34,2.42,1.04l7.58-.03-9.53,1.03c-8.86-1.18-17.12-2.66-25.63-5.38-.67-.21-4.36-.62-1.83-1.66,9.74,2.98,17.1,3.82,27,5Z"/>
  <path class="st29" d="M850,502c-3.9-9.72-3.02-23.05-7.59-32.99-.66-1.56-.51-1.81.59-3.01,3.2,11.73,6.96,23.68,7,36Z"/>
  <path class="st60" d="M397,443l-8.44-5.06c-2.13-1.57-14.12-1.17-14.62.68-.3,1.13.26,3.04.05,4.38h6.5c1.46.31-.5.94-.5,1h-7.01c-.05-2.32.08-4.67,0-7,9.52-1.73,18.02-2.92,24,6Z"/>
  <path class="st5" d="M641,789c11.36,3.4,20.16.68,28-8-5.37,10.51-17.77,13.54-28,8Z"/>
  <path class="st72" d="M517,761c-1.32,9.15-2.5,20.01-3,29l-1-1c.08-1.66-.11-3.35,0-5-.78-.78-1.67-1.69-1.78-2.85-.5-4.99,1.5-17.58,4.78-21.15l1,1Z"/>
  <path class="st24" d="M423,505c-9.41,2.95-19.46,4.47-29,7,7.12-3.53,16.27-5.27,24.22-7.29,1.46-.37,3.77-1.66,4.78.29Z"/>
  <path class="st77" d="M272,554v1c-11.34-.88-25.97-5.15-36.04-10.47-.95-.5-3.31-1.06-1.96-2.53,9.19,5.63,27.32,10.98,38,12Z"/>
  <path class="st34" d="M876,346c-1.56,1.55-2.72.23-1.01,2.5,1.57,2.07,4.54,4.53,6.51,6.5.46.46,3.5,2.58,1.5,3-4.71-4.18-9.37-8.27-12.99-13.51,1.36-.7,4.55.91,5.99,1.51Z"/>
  <path class="st61" d="M809,423l-16-16c7.16,5.37,10.78,8.7,16,16Z"/>
  <path class="st98" d="M751,677c-6.86-5.78-9.38-7.71-15-15l15,15Z"/>
  <path class="st33" d="M389,515c-3.81,4.83-8.38,8.97-13,13-2-.42,1.04-2.54,1.5-3,4.19-4.19,6.62-6.71,11.5-10Z"/>
  <path class="st61" d="M312,676c-.85,2.37-2.71-.24-3.52-.99-4.17-3.83-6.33-6.79-9.48-11.01,4.6,3.73,8.49,8.15,13,12Z"/>
  <path class="st16" d="M359,135c.66,0,2.04.37,1.99-.49l-12.99-23.5c21.76.12,37.43,19.13,44.01,37.98l6.57-9.91c5.31-6.95,11.64-13.75,20.41-16.08-1.45,4.88-3.11,9.67-5.14,14.35-2.42,5.56-7.2,15-10.86,19.64-4.36,5.54-9.17,7.27-14,11,1.29-2.18,1.77-2.31-1.12-1.63-24.27,5.7-28.35,21.06-47.39,33.6-1.83-.1-3.2-10.4-2.26-12.24l8.27-18.73c-4.21,3.19-9.37,4.98-13.03,8.97-5.36,5.85-6.65,13.9-10.31,20.69-3.67,6.82-18.6,25.58-24.94,12.6-6.1-12.48,6.03-34.83,15.77-43.26-15.66,4.83-26.72,18.45-42.54,22.82-3.21-1.69-.55-3.89-.46-4.83.81-2.52,1.47-5.18,2-8,10.16-26.46,41.49-28.97,65.99-33.01l-11.78-4.7c-3.91-1.96-28.3-3.84-28.2-7.79,0-.23,2.56-3.11,2.98-3.5,18.45-9.7,39.45-1.24,57,6Z"/>
  <path class="st82" d="M153,194c6.94.55,17.9,3.35,24.36,6.14,13.12,5.68,22.46,17.38,35.57,22.94,1.07,1.48-9.13,20.08-9.89,23.51-18.94-5.41-29.15-25.09-47.81-31.31-12.06-4.02-28.75-3.95-37.23,5.73.84.93,2.67,1.27,5.5,1,4.32-.9,10.28-.85,15,0,5.66-.24,12.76,2.55,17.5,6-.29.99-.92,1.59-1.92,1.76-10.13-3.28-21.6-5.88-32.27-3.79-3.13.62,3.12,13.05,4.47,14.98,12.54,17.95,44.07,37.51,66.23,32.94-.11-4.61.93-9.25,3.11-13.93-3.52-1.05-9.39-5-3.63-4.97,1.17.7,6.7,1.79,6.94,2.06.65.74-3.34,18.44-3.86,19.28-.24.4-7.07,4.2-8.08,4.66-13.35,7.17-31.59,8.79-46,4-.01-.81-12.4-5.56-14.67-6.83-10.7-5.97-21-15.65-27.33-26.17-6.58-8.05-11.63-24.03-6-33,1.06-.18,2.63-4.77,3.56-5.94,3.37-4.24,10.57-9.72,15.44-12.06,11.75-6.16,27.84-8.8,41-7Z"/>
  <path class="st88" d="M514,122c1.14-1.82,2.43-2.92,3.87-3.29l13.24,8.3c.78-2.41,1.61-4.56,2.5-6.46-1.31-5.56-1.43-10.99,1.71-16.05-.25-2.38-1.13-3.84-3.13-5.01-2.57-7.08-1.41-9.5,3.47-7.25,2.77-4.23,3.92.99,4.38,4.04l2.96,4.71c2.63,3.77,4.58,13.22,5,18-.44,7.12-.94,16.17-1,24-6.18,36.32-56.66,81.63-89,50-1.97-6.94,8.64-6.44,13.17-4.57-3.65-8.92-6.33-18.06-8.04-27.44-3.12-2.43-.88-3.66,1.87-4.99,7.46-4.39,7.99-.82,6.38,5.89,1.63,1.21,2.3,2.31,1.04,4.16,2.56,1.99,3.68,4.34,3.37,7.04,2.56,2.05,4.21,4.99,4.95,8.83,1.69,2.03,18.33-6.89,18.22-7.93-3.04-3.93-5.91-8.11-7.87-12.7-1.24-2.89-4.57-13.71-3.67-15.38,2.77-5.11,6.91-3.06,7.46,2.27,3.77-.6,5.08,1.34,3.94,5.84,1.38-.22,2.65.02,3.66,1.04-.82,3.32,7.54,8.88,8.27,8.83,2.85-.21,17.18-22.31,16.58-24.02-.69-1.93-4.49-7.04-7.05-6.43-2.42-2.46-7.63-8.5-6.27-11.44Z"/>
  <path class="st84" d="M156,228c.91-.06,1.91.28,3,1,7.5,5.53,13.64,12.82,21.09,18.41,1.75,1.32,11.79,6.89,11.91,7.59.02.08-.84.49-.96.9,1.15.66,6.98,2.17,6.98,2.62,0,.49-1.73,6.55-2.09,7.74-.26.85-1.82.72-1.79,1.19.33,4.88,2.47,8.88-4.62,9.55-21.82,2.06-61.87-21.58-69.01-43.01-1.03-3.11-3.08-9.2,1-9.97,7.78-1.46,17.03-.48,24.7,1.28,4.1.94,5.2,2.25,9.79,2.71Z"/>
  <path class="st59" d="M202,156c-8.45-28.78,3.73-59.66,29.99-74,.65.87-2.86,17.4-2.97,20.51-1.1,29.34,20.42,49.53,47.98,54.5-4.58,4.45-10.05,7.99-15,11.99l-3.22-1.79c-4.48,3.18-9.01,6.33-13.61,9.44,1.68,1.86.95,4.31-2.17,7.35-2.86,2.31-2.58,3.65-7,6l-1-1.95c4.38-3.98,3.39-7.07-2.64-6.36-8.87-4.55-11.97-8.94-2.89-16.22-.56-2.54,1.32-3.93,3.82-3.9,1.17-3.56,3.22-6.82,6.16-9.77-6.46,4.32-12.56,9.2-18.3,14.62-4.34,5.72-6.46,1.1-6.62-4.29l-1.42-3.37c-4.3-2.27-5.46-4.59-3.49-6.94-4-1.54-4.64-4.42-1.29-7.02,7.09-4.07,13.8-8.59,20.11-13.56-7.32.55-12.53,4.63-16.24,10.04-9.22,3.64-11.23,7.18-6.02,10.62.84,2.27-1.79,5.67-4.17,4.11Z"/>
  <path class="st59" d="M514,122c1.49,1.04,6.71,9.49,7.24,9.8.99.57,2.81-.16,3.59.35.28.18,2.12,5.13,3.38,5.6.44.16,2.53-2,1.77.74-1.06,3.85-8.34,16.42-10.97,19.77-.66.84-7.09,7.47-7.58,7.68-2.45,1.02-2.66-3.46-6.43-1.94l1-2.99c-5.09,2.74-3.85-4.09-5.15-4.88-.89-.54-3.04.35-3.72-.29-.49-.46.24-3.39-2.14-3.34-.1-.49,4.11-.75,2-2.5-.46-.38-2.73,1.19-2.98,1-.27-.21-2.58-5.43-2.05-6.51-2.63-1.81-2.5,3.06-3.96,4.5,4.99-2.12,2.17.16,2.64,3.85.92,7.32,6.54,16.1,11.34,21.66,0,1.23-18.77,11.06-21.86,10.38-1.42-1.41-3.29-8.54-3.59-8.93-.81-1.03-2.4.11-2.47,0-.65-1.04.01-4.56-.3-5.47-.26-.77-6.52-5.27-1.77-5.98-5.01-1.71-.98-4.87-2-9.5-1.63.4-3.37.62-4.99,1,3.9-3.8,16.89-8.4,22.67-11.83,5.19-3.08,11.94-7.6,16.34-11.66,3.66-3.37,5.96-7.84,9.99-10.51Z"/>
  <path class="st41" d="M210,293c.69-.12,5.44-9.25,7.98-11.52,10.79-9.65,21.82-2.54,24,10.04-25.47-5.26-27.55,33.89-12,45.98-4.28,7.49-12.05,1.52-16.98-2.5-8.23-11.59-8.78-29.46-3-42Z"/>
  <path class="st101" d="M202,156l3.01-3.51-3-.49c-3.69-9.97,7.55-9.65,9.78-13.17.13-.2-.8-3.62.23-4.83l2.98,2.99c.94-7.43,12.36-6.78,18.01-8.99.44,1.77-1.91.39-1.88,1.46.02.55,1.23,1.82.84,2.42-.13.2-2.18.62-3.03,1.52-3.26,3.46-6.31,5.35-11.47,7.56-1.31,1.38-10.14,5.92-9.46,7.52.78,1.82,2.84.45,2.91.58.62,1.12,1.69,6.41-.91,4.95v.98c5.36-.2,7.16,7.38,6.99,11.49-.12,2.83,2.58-1.33,2.73-1.47,3.06-2.58,6.12-4.99,8.8-7.99l18.47-13.02c1.01,1.22-6.89,9.93-7.99,11.52-1.26,1.81-2.44,3.1-3.4,4.47-.58.82-.08,3.39-.67,3.97-.14.13-2.85-.9-3.84.13-.08.09.78,1.38-.01,2.41-1.7,2.22-4.55,4.35-6.08,7.01,2.38.38,1.73,2.99,2.61,3.58.83.56,2.52.41,3.64.98.7.36.8,1.55.97,1.61,1.51.56,4.02-1.4,6.74,1.95,2.54,3.14-1.28,6.1-2.95,8.37-.36.19-.59,2.17-2.02,1.59-14.09-6.83-27.51-20.35-31.98-35.59Z"/>
  <path class="st89" d="M543,101c-.82-1.17-4.25-3.61-4.45-3.96-.46-.82.67-4.43-.56-6.04v3.98s-6.98-1.98-6.98-1.98l3.99,2c-3.76,4.1-.23,3.09,1.69,5.21.27.3-.4,1.53-.22,1.79.78,1.12,2.46-.12,2.52-.01,1.54,2.8-2.49,3.78-2.7,4.19-.18.35-1.8,7.31-1.82,7.71-.1,2.1,3.44,8.63-1.46,9.11l2.99,1c-.06,1.7-2.81.85-2.63,3.49.08,1.22,1.91,3.24,1.64,3.49-3.8-2.28-2.83,1.18-3.49,1-1.6-.44-.33-2.32-1.12-3.04-1.12-1.02-12.64-8.26-13.4-8.49-1.12-.34-2.11.95-2.98,1.53,8.26-14.07,11.71-28.64,12.01-45,1.47-1.86,10.08,9.59,10.81,10.68,2.73,4.08,5.26,8.42,6.19,13.31Z"/>
  <path class="st1" d="M465,156c-4,3.89-.29,2.57,0,3.66.33,1.26-.16,3.02.25,4.62,1.9,7.41,3.33,11.61,6.61,18.57,2.68,5.67.67,6.18.13,12.15-4.13.88,1.15-4.87-3.61-5.76-.46-.09-8.96.58-9.39.78-.14.07,1.95,2.24-.99,2.99-6.63-6.49-14.53-19.04-8.85-28.35,2.31-3.79,11.41-7.61,15.85-8.65Z"/>
  <path class="st18" d="M215.99,348.98c-7.55,5.33-13.82,6.9-22.99,8.01,5.39-8.12,8.78-17.51,11.01-26.98l3.55,7.93c.52,2.67,9.6,9.33,8.43,11.05Z"/>
  <path class="st101" d="M243,184l-.99-3.99,1.48,1.99,1.5-2.98-3.99-1.51c3.04-4.34,11.17-3.57,8-9.5,4.37,3.67,2.39.77,3.18.29.38-.23,1.32.6,1.57.42.34-.25.53-1.36,1.46-2.04,1.01-.73,3.62-1.56,3.74-1.73.18-.27-1.37-2.5-.98-2.92.25-.27,6.72-2.22,7.01-2-.92.96-.87,3.84-1.02,3.98-1.05.99-4.07-2.97-4.97,1.51l3.5.49-.51,3c-6.27,5.07-12.74,9.95-19,15Z"/>
  <path class="st40" d="M328,369c-.97,2.09-3.08.38-4.36-.14-32.63-13.2-59.92-12.82-94.23-14.8-1.23-.07-2.73.27-3.41-1.06,33.41.19,71.35,1.56,102,16Z"/>
  <path class="st90" d="M226,228c13.72-4.85,29.71,1.38,26.99,17.99-1.85-1.26-1.99-3.55-3.96-5.53-5.5-5.53-12.26-5.23-19.03-2.47.01-.07-1.6-.33-1-.99.69-.76,7.84-2.09,9.5-2.09,5.41-.01,9.41,2.22,13,6.08.7-7.14-6.4-12.3-13-12.99-4.33-.45-8.65,1.19-12.51,0Z"/>
  <path class="st48" d="M240,332c6.86-16.16,10.12-35.11,4-52,9.16,15.07,4.61,37.57-4,52Z"/>
  <path class="st31" d="M319,220c-18.88,17.03-37.24-2.77-31-24,1.53.2.91,1.34,1.02,2.48.78,7.74-1.93,12.62,3.14,19.86,7.11,10.12,17.77,7.04,26.83,1.67Z"/>
  <path class="st21" d="M359,135c-4.27-.06-14.46-5.31-19.78-6.72-13.3-3.52-24.2-4.54-37.22.72,11.76-10.8,44.54-1.96,57,6Z"/>
  <path class="st70" d="M544,215c-16.02,8.07-33.49,15.18-51,6,19.61,5.46,29.25,3.05,46.99-5.51,1.02-.49,3.41-2.5,4.01-.49Z"/>
  <path class="st96" d="M187,281c2.43,1.05-4.22,2.93-4.48,3.02-14.07,4.74-28.04,5.65-42.52,1.97-.17-1.13,1-.92,1-.99,15.07,3.7,31.82,2.47,46-4Z"/>
  <path class="st10" d="M159,229c-1.02.07-2.28-.93-3-1-4.29-1.76-13.17-6-17.5-6h-15c-1.75,0-6.06,2.53-8.5,1.99.16-1.58,2.28-2.16,3-2.99l18.54-.04c9.06.78,15.22,2.7,22.46,8.04Z"/>
  <path class="st45" d="M112,201c-2.46-.86.99-1.57,1.66-1.83,14-5.39,26.72-7.17,41.84-6.17l-2.5,1c-11.67-.93-30.41,1.92-41,7Z"/>
  <path class="st83" d="M228.15,303.85c-1.79-1.13-1.52-7.19,2.56-7.66,8.82-1.03,4.08,11.86-2.56,7.66Z"/>
  <path class="st47" d="M210,293c-4.62,13.99-4.45,29.11,3,42-7.99-6.52-8.06-25.02-6.48-34.56.2-1.22,2.16-8.14,2.49-8.44.66-.6.92,1.01.99,1Z"/>
  <path class="st45" d="M93,219c-4.5,10.96.22,23.38,6,33-2.29.45-5.15-6.85-5.86-8.64-2.06-5.27-5.49-21.42-1.13-25.35.66-.6.92,1.01.99,1Z"/>
  <path class="st102" d="M215,251c-5.3,8.15-8.46,23.29-9,33-.84-.7-1.54-.17-1.52-2.01.07-8.05,4.34-20.88,7.65-28.35.4-.9,1.39-4.15,2.88-2.64Z"/>
  <path class="st74" d="M373,436c-2.31-1.64-2.08-4.81-3-7,.6-1.34,2.1,1.42,1.81-1.3-.53-5.14-2.37-13.68-3.81-18.7,5.12,7.81,4.77,18.11,5,27Z"/>
  <path class="st26" d="M219,363l-3.5-1h38.99s-2.5,1-2.5,1c-9.93-.55-23.08-.59-33,0Z"/>
  <path class="st54" d="M548,119c.62,7.02.18,17.03-1,24-2.48-2.85-.1-7.13.04-10.46.18-4.27-.24-8.25-.62-12.47-.24-2.6-1.16-2.62,1.58-1.07Z"/>
  <path class="st44" d="M182,368c-3.71,1.02-8.48,2.56-12,4,3.72-2.31,7.75-8.4,12-4Z"/>
  <path class="st80" d="M273,178l-1.01,9-.99-1c.43-4.86.49-4.08,2-8Z"/>
  <path class="st20" d="M838,747l-1.01-2.5c-2.12,24.74-3.73,49.63,1.67,74.06-.29,1.79-14.13,6.01-14.66,5.43-.43-25.77-.12-50.82,3.12-76.37,1.85-14.62,6.55-29.35,5.92-44.17-.73-17.15-8.19-32.07-10.82-48.27-4.04-24.87,3.56-56.34,6.64-81.83,4.4-36.34,2.05-72.48-3.95-108.78l-4.93-19.06c1.23-1.05,2.87,4.09,3.19,4.82,1.79,4.14,3.3,8.44,4.92,12.64.42-.15.75-.96.91-.97.47-.04.78.03.98.51,7.19,20.85,12.04,42.35,13.02,64.49-.99,26.9-3.89,54.01-8.71,81.34-1.79,17.17-3.61,35.14,1.48,51.44,14.88,27.4,10.16,51.76,2.86,80.49l.37,2.73c-.23,1.69-.94,3.42-1,4Z"/>
  <path class="st107" d="M535,692c-.33,2.12-2.3,5.65-3,8-6.25,20.85-12.68,37.94-16,60-1.14,7.58-2.51,16.6-3,24-1.43-2.7-1,1.73-1,2.49-.01,7.83-.17,15.55-.13,23.14.08,12.9.48,25.8.97,38.71-1.17,3.42-12.53,4.74-15.84,5.65,4.59-37.3,1.93-75.79,12.06-112.43,4.72-17.06,12.29-31.61,20.9-46.36,1.19-2.04,2.19-5.92,3.56-8.18,2.57-2.34,1.2-.2,1.03,1.14-.36,2.79.48,3.65.45,3.84Z"/>
  <path class="st69" d="M422,282c10.5,15.39,8.72,34.44,2,51-10.05,21.51-34.1,34.97-53,15-15.87-18.23-12.8-41.11-3-61,12.61-21.61,40.75-29.87,54-5Z"/>
  <path class="st100" d="M616,225c1.7-.87,11.9,2.13,11.2,4.33l-16.93.18.72.48-21,4c-12.11,2.4-25.97,17.33-36.27,24.23-14.98,10.03-30.8,15.06-48.73,11.77-5.77-1.9-11.32-4.28-16.65-7.14-1.54-2.79,4.2-2.26,4.15.14.15-.56.3-1,.46-1,6.76-.26,16.94-.02,23.88.18.23,0,.44.36.66.82l.07-.87c5.91-.86,10.39-2.24,13.43-4.13,16.51-6.13,28.77-22.64,45-29,12.25-5.99,26.96-7.99,40-4Z"/>
  <path class="st78" d="M429.99,251c-4.99-4.84-8.66-10.96-13.98-15.51-15.33-13.11-32.38-12.83-47.52.51-1.24-15.12,15.02-22.73,28.04-22.03,17.61.96,37.97,17.93,33.45,37.03Z"/>
  <path class="st31" d="M371,348c-16.47-17.4-14.59-41.13-3-61,2,.59,0,3-.49,4.01-4.48,9.23-6.95,15.91-6.95,26.49,0,12.41,3.57,20.5,10.44,30.5Z"/>
  <path class="st53" d="M424,333c6.02-18.32,7.31-33.53-2-51,12.02,14.36,9.27,35.43,2,51Z"/>
  <path class="st29" d="M531,258c2.64.9-2.07,1.92-2.48,2.02-1.98.5-10.11,2.98-11.02,2.98h-25c-.6,0-2.04-1.61-3.5-.99-1.2.95,14.58,7.44,16.55,6.96l-.55,1.03c-8.66-1.59-14.18-5.39-22-9,.15-.12-.31-1.88.42-1.9,2.93-.07,10.98,2.6,15.1,2.89,10.13.71,22.94-.44,32.49-3.99Z"/>
  <path class="st25" d="M616,224c.87.28.86.62,0,1-13.45-2.58-27.29-.98-40,4,12.4-7.68,26.21-8.15,40-5Z"/>
  <path class="st30" d="M616,224c4.86,1.11,10.59,1.54,14,5.99-6.31-.14-12.69.23-19,0-1.17-.04-4.2.76-3.99-.99l18.99-.02c-.2-1.44-3.49-2.31-4.74-2.75-1.99-.7-3.29-.86-5.25-1.24v-1Z"/>
  <path class="st95" d="M291.74,407.24c29.99-4.53,32.19,37.44,6.79,47.78-36.04,14.67-36.06-43.36-6.79-47.78Z"/>
  <path class="st79" d="M160.36,409.36c6.01-5.87,16.01-6.29,22.03-.25,10.29,10.33,10.13,40.91-8.05,41.51-20.03.66-26.53-28.99-13.98-41.26Z"/>
  <path class="st17" d="M317,560l.66,1.14c-15.34,3.6-30.93,4.43-46.66,3.85-.22,4.95-.71,9.06-.55,14.07.05,1.65,1.81,2.16-1.44,1.93-.2-5.98.15-12.02,0-18,15.11,2.2,33.05.5,48-3Z"/>
  <path class="st14" d="M839,579c-2.71,21.87-8.25,49.36-5,71,1.7,11.33,7.66,21.06,10.72,31.78,5.97,20.96-2.85,40.22-5.72,61.22-1.71-1.29-1.14-4.54-.89-6.4,1.2-9.17,5.28-19.16,6.64-28.35,3.01-20.24-3.6-31.19-10.05-49.45-1.11-3.14.31-5.94-3.71-7.3,3.91-.94,1.05-6.15.96-9.95-.36-15.54,1.32-32.22,3.17-45.93,1.31-9.76,3.33-19.5,4.75-29.25l3.13-39.37c.83,18.91-1.73,33.68-4,52Z"/>
  <path class="st27" d="M389,300c-10.35,13.45-6.35,36.45,8.06,45.44,2.28,1.42,5.63,1.54,6.93,3.55-7.77,2.34-13.43,3.07-21.04-.44-16.92-7.81-18.21-34.82-11.81-49.9,12.16-28.67,41.54-29.07,51.84.88.16,3.05-1.07.69-1.81-.19-2.26-2.68-3.43-5.08-7.17-6.33-6.46-1.21-12.53-.62-18.2,1.75-.9,2.4-3.17,4.15-6.8,5.25Z"/>
  <path class="st18" d="M402,297c5.26,5.31,4.15,16.03-5,15-7.86-4.95-6.08-19.36,5-15Z"/>
  <path class="st28" d="M414,293c-2.65,1.85-6.05-.2-9.46-.02-2.91.15-5.68,1.59-8.53,2.03-.09,2.04,2.74.18,4.15.49.89.19,1.27.92,1.84,1.5-10.47-1.01-11.51,8.81-5,15-5.94-.67-5.13-8.58-5.01-13l-2.99,1c5.93-7.71,15.8-10.08,25-7Z"/>
  <path class="st15" d="M304.73,419.27c7.59,6.2-1.83,25.04-10.53,28.42-22.56,8.77-15.46-28.03-1.65-30.64,2.8-.53,10.04.48,12.18,2.22Z"/>
  <path class="st106" d="M167.35,440.65c-6.54-6.35-8.42-30.26,4.07-28.63,14.48,1.89,9.21,41.51-4.07,28.63Z"/>
</svg>