<?xml version="1.0" encoding="UTF-8"?>
<svg id="Ebene_1" xmlns="http://www.w3.org/2000/svg" version="1.1" viewBox="0 0 384 384">
  <!-- Generator: Adobe Illustrator 29.5.1, SVG Export Plug-In . SVG Version: 2.1.0 Build 141)  -->
  <defs>
    <style>
      .st0 {
        fill: #88cddb;
      }

      .st1 {
        fill: #4477dc;
      }

      .st2 {
        fill: #a3deed;
      }

      .st3 {
        fill: #bce7f1;
      }

      .st4 {
        fill: #477ddf;
      }

      .st5 {
        fill: #4173d9;
      }

      .st6 {
        fill: #a1ddec;
      }

      .st7 {
        fill: #6698ea;
      }

      .st8 {
        fill: #a2deed;
      }

      .st9 {
        fill: #4e88e7;
      }

      .st10 {
        fill: #bee7f1;
      }

      .st11 {
        fill: #6798ea;
      }

      .st12 {
        fill: #93d9ea;
      }

      .st13 {
        fill: #4e87e7;
      }

      .st14 {
        fill: #87cddb;
      }
    </style>
  </defs>
  <path class="st8" d="M233.02,256.74l1.75,2.08c1.07,9.16-.81,17.07-3.52,25.52l3.05,10.49c2.03,22.62,1.51,45.91.24,68.67-.31,4.84-1.53,10.67-5.92,13.32-3.01-1.48-8.52-7.57-10.16-7.71-3.18-.27-6.05,4.08-8.37,5.53-9.71,6.05-21.24,6.5-31.04.34-2.24-1.41-5.5-5.63-8.13-5.85-2.04-.17-7.16,5.17-10.05,6.84-4.71.44-6.48-7.52-6.99-11.41-2.46-18.89-1.67-43.02-.47-62.17.43-6.82,1.82-11.82,3.95-18.12-3.06-8.41-4.53-16.42-3.52-25.62l1.75-1.91c25.8-1.67,51.64-1.67,77.44,0Z"/>
  <path class="st12" d="M250.62,256.74c2.74,2.6,2.09,10.37,1.5,14.31-.71,4.79-1.82,9.35-4.94,13.17,5.63,9.28,7.61,19.92,5.92,31.95l-1.17,33.85c1.16,12.4,1.71,25.81-12.75,29.37-3.82-.19-7.11-.85-10.56-2.55-.11-2.74,2.16-4.37,3.06-6.83,2.89-7.94,2.27-60.86,1.37-71.98-.38-4.7-3.34-10.55-3.55-13.66-.13-1.92,3.05-9.35,3.41-12.81.49-4.74,0-9.98.11-14.8l1.01-1.7h15.33l1.26,1.7Z"/>
  <path class="st3" d="M155.58,256.74c.1,5.04-.47,10.76.09,15.67.37,3.28,3.57,9.89,3.42,11.95-.2,2.94-3.16,8.37-3.55,12.81-1.5,17.1-1.51,49.4,0,66.49.43,4.86,1.92,8.72,5.31,12.32-4.04,2.33-5.59,3.12-10.56,3.41-14.94-3.34-15.28-18.71-14.85-31.42.98-17.42,1.23-34.81.74-52.18,1.26-4.08,2.95-7.98,5.09-11.72-5.22-8.02-5.59-16.35-5.05-25.64l1.75-1.69,1.01-1.7h15.33l1.26,1.7Z"/>
  <path class="st13" d="M137.98,120.48c.74,2.81,1.45,5.68,1.44,8.59-.2,39.71-.06,79.35.15,119.06,0,1.43-.23,2.87-.5,4.31s-.66,2.88-1.09,4.3c-1.45,2.79-12.38,2.67-14.08,0-.88-43.84-2.04-92.71,0-136.27,1.45-2.79,12.38-2.67,14.08,0Z"/>
  <path class="st5" d="M264.7,120.48c1.9,43.82.81,92.2,0,136.27-1.45,2.79-12.38,2.67-14.08,0-.43-1.71-.82-3.43-1.09-5.17s-.51-3.46-.5-5.18c.1-38.53.2-77.05.13-115.59,0-3.49.7-6.93,1.45-10.33,1.43-2.78,12.33-2.68,14.08,0Z"/>
  <path class="st8" d="M137.98,256.74c.13,6.45-.72,13.38,1.33,19.58.7,2.13,3.61,5.72,3.76,7.39.22,2.45-5.89,9.71-5.07,13.5,1.77,21.05-2.41,45.82-.01,66.42.92,7.92,6.37,11.39,12.32,15.75-10.62.62-22.92-3.52-26.2-14.25,1.25-21.41-2.39-46.03-.19-67.07.61-5.88,3.46-9.85,6.97-14.38-8.51-7.31-6.78-17.09-6.98-26.94h14.08Z"/>
  <path class="st14" d="M264.7,256.74c-.09,4.84.59,10.95-.21,15.55-.68,3.92-5.6,9.59-5.78,11.41-.14,1.38,5.47,9.07,5.99,13.49,2.45,20.96-1.66,46.49-.21,67.93-3.28,10.73-14.53,14.8-25.31,14.26,5.47-4.28,10.61-7.41,11.44-14.9-1.79-21.67,2.39-46.91,0-68.14-.54-4.84-4.83-10.08-5.15-12.07-.16-.97,2.1-3.33,2.68-4.79,3.36-8.55,2.32-13.88,2.47-22.73h14.08Z"/>
  <path class="st10" d="M173.18,31.9c1.52-2.39,5.58-2.49,7.04,0,.16-.76.46-.73.88,0,1.28.14,2.04,1.3,2.28,3.46l34.01.76,1.55-1.67c1.19,4.06,9.52,4.05,2.64,8.52-.49,2.43-4.62,2.33-5.28,0-1.72,2.4-5.35,2.47-7.04,0-9.45,1.98-19.14,2.45-29.08,1.41l.17,1.45c-12.51,22.23-22.75,44.65-22.85,70.96l-1.92,3.68-1.01,1.7h-15.33l-1.26-1.7-1.59-3.33c1-25.7,13.04-49.57,30.93-67.92,3.35-3.86,3.66-5.44.93-4.71l-1.24-1.53-2.59-3.73c2.98-2.65,6.32-2.17,5.23-7.34,1.05-2.26,2.41-2.26,3.52,0Z"/>
  <path class="st2" d="M167.02,42.97c.25-.15,5.89-.81,5.26,1.25-1.67,5.44-7.33,9.52-10.52,13.68-15.56,20.3-22.71,36.91-23.79,62.57h-14.08c1.02-21.68,8.99-40.36,23.78-56.61,4.76-5.23,11.65-9.5,15.82-14.5,1.13-1.35,3.2-6.2,3.52-6.39Z"/>
  <path class="st0" d="M221.58,42.97c.43.18,3.35,6.04,4.83,7.67,4.3,4.75,10.79,8.88,15.38,14.07,14.55,16.44,21.96,34.08,22.9,55.76h-14.08l-1.9-3.13c-.77-24.55-12.06-47.49-29.15-65.03-3.76-3.57-4.85-6.68-3.27-9.34,1.29.05,4.6-.28,5.28,0Z"/>
  <path class="st13" d="M207.5,4.65l2.13,1.88c.67,7.7.81,15.42.43,23.17l-1.68,2.21c-8.88,2.61-18.39,2.59-27.28,0-.29,0-.59,0-.88,0l-1.61-1.55-.41-19.95c.1-3.45,1.16-5.05,4.66-5.75,8.14-.17,16.5-.22,24.64,0Z"/>
  <path class="st1" d="M218.94,31.9c-.49,3-9.64,2.61-10.56,0-.46-9.03,1.01-18.4-.88-27.25,4.76.13,12.73-1.45,14.57,4.21.75,2.32.88,17.44.37,20.03-.41,2.08-1.48,2.7-3.5,3Z"/>
  <path class="st6" d="M208.38,31.9c3.21-.05,7.64.45,10.56,0,0,.85,0,1.7,0,2.55,0,1.14.02,2.28,0,3.41l-37.84-.85v-5.11c9.06.12,18.23.14,27.29,0Z"/>
  <path class="st7" d="M182.86,4.65c-.8,1.4-2.29,2.13-2.62,3.85-1.28,6.53.91,16.46-.02,23.4-2.33-.04-4.72.13-7.04,0l-1.61-1.54c-.83-6.49-2.96-24.44,5.13-25.71,2.04-.1,4.11.04,6.16,0Z"/>
  <path class="st9" d="M176.7,4.65c-.9,1.85-3.07,2.52-3.5,4.7-1.26,6.25.89,15.88-.02,22.55-1.13-.07-2.51.18-3.52,0-2.02-.36-3.08-.87-3.5-3-.52-2.64-.43-16.79.17-19.38,1.22-5.28,6.13-4.66,10.37-4.87Z"/>
  <path class="st13" d="M233.02,120.48c.51,1.62.98,3.25,1.33,4.9s.69,3.3.73,4.95c.93,38.84.66,77.7-.1,116.54-.03,1.65-.35,3.3-.68,4.96s-.78,3.29-1.27,4.92h-77.44c-.49-1.7-.94-3.4-1.27-5.12s-.65-3.44-.68-5.16c-.72-38.57-1.08-77.18-.11-115.75.04-1.71.38-3.42.73-5.14s.82-3.41,1.33-5.1c25.8-1.67,51.64-1.67,77.44,0Z"/>
  <path class="st4" d="M250.62,120.48c1.49,44.37.75,91.76,0,136.27h-17.6c.9-44.38,1.47-92,0-136.27l1.01-1.7h15.33l1.26,1.7Z"/>
  <path class="st11" d="M155.58,120.48c-1.48,44.32-.84,91.83,0,136.27h-17.6c-.9-44.05-1.83-92.43,0-136.27h17.6Z"/>
  <path class="st8" d="M209.26,42.97c2.41,1.86,4.17,4.61,5.28,8.27,8.45,13.3,14.15,26.76,17.32,42.39,1.09,5.4,3.95,20.71,2.27,24.86-.28.69-.67,1.34-1.1,1.98h-77.44c.59-17.61,3.32-34.53,10.4-50.83,3.95-9.1,10.43-17.09,13.48-26.56,9.91-.1,19.89-.27,29.8-.12Z"/>
  <path class="st12" d="M216.3,42.97c1.44,6.56,7.64,10.83,11.42,15.78,15.19,19.94,22.06,36.64,22.91,61.72h-17.6c-.58-17.37-3.28-34.11-10.14-50.23-3.99-9.38-10.87-17.43-13.63-27.27,2.34.04,4.71-.09,7.04,0Z"/>
</svg>