<?xml version="1.0" encoding="UTF-8"?>
<svg id="Layer_1" xmlns="http://www.w3.org/2000/svg" version="1.1" viewBox="0 0 1024 1024">
  <!-- Generator: Adobe Illustrator 29.5.1, SVG Export Plug-In . SVG Version: 2.1.0 Build 141)  -->
  <defs>
    <style>
      .st0 {
        fill: #aeeffc;
      }

      .st1 {
        fill: #85dbf8;
      }

      .st2 {
        fill: #86d3ed;
      }

      .st3 {
        fill: #78ddfc;
      }

      .st4 {
        fill: #65bcea;
      }

      .st5 {
        fill: #3772e9;
      }

      .st6 {
        fill: #89daf5;
      }

      .st7 {
        fill: #92e6fd;
      }

      .st8 {
        fill: #64bcea;
      }

      .st9 {
        fill: #80defd;
      }

      .st10 {
        fill: #89dbf5;
      }

      .st11 {
        fill: #4488f1;
      }

      .st12 {
        fill: #3a7bef;
      }

      .st13 {
        fill: #498bf3;
      }

      .st14 {
        fill: #5899f4;
      }

      .st15 {
        fill: #8dddf6;
      }

      .st16 {
        fill: #a1e4f8;
      }

      .st17 {
        fill: #6ac6e6;
      }

      .st18 {
        fill: #9de2f7;
      }

      .st19 {
        fill: #9ce2f7;
      }

      .st20 {
        fill: #3364e3;
      }

      .st21 {
        fill: #88daf4;
      }

      .st22 {
        fill: #84d9f7;
      }

      .st23 {
        fill: #a2e4f8;
      }

      .st24 {
        fill: #72cff0;
      }

      .st25 {
        fill: #7cdbfc;
      }

      .st26 {
        fill: #8bdaf4;
      }

      .st27 {
        fill: #c5f4fa;
      }

      .st28 {
        fill: #b9ecf9;
      }

      .st29 {
        fill: #4086f1;
      }
    </style>
  </defs>
  <path class="st22" d="M212.28,664.33c-17.1,20.19-30.31,40.58-37.17,65.92-3.89,8.92-5.98,12.41-16.46,13.64l-2.93,1.61c-26.88,36.57-53.53,73.38-79.95,110.44-8.81,14.41-16.98,30.75-16.11,48.04l-13.01-3.56c-1.74.02-2,1.25-1.37,2.91,6.37,2.55,15.67,5.06,22.5,5.09,3.75.01,7.02-1.54,11.01-1.12,9.08.95,9.28,11.28,12.3,17.73,10.1,21.58,35.93,38.27,59.69,39.31,5.83.26,11.2-3.87,15,5,4.12,9.6,3.51,14.09,10.5,24,.59.42,1.26.42,2,0,17.19-2.85,28.66-21.37,36-36,4.64-.93,7.83-5.42,8-10,4.43-1.99,6.1-4.32,5-7,3.35.19,7.61-5.89,6-9,2.86-.47,4.83-3.2,5-6,1.09-.59,2.15-1.21,3.13-1.94s1.91-1.45,2.62-2.35c12.89-16.51,26.26-33.64,38-50.93.64-.94,1.04-2.06,1.42-3.2s.63-2.36.83-3.57l2.5-.11c8.31-10.86,13.48-21.83,15.92-34.98,19.58-17.07,35.49-39.94,49.07-62.1l-1.48-1.81c-42.37-35.15-86.77-68.11-133-98-1.9-3.36-3.57-4.03-5-2Z"/>
  <path class="st5" d="M295.28,447.33c-45.02,58.65-88.81,119.92-132,180,.08.72.19,1.43.42,2.1.75,2.1,15.75,12.82,19.12,14.96l2.46-.06c7.02,8.95,16.4,15.87,27,20,.96.7,4.03,1.29,5,2,1.88-5.54,5.15-11.07,9.78-16.58,37.61-50.12,73.62-102.3,108.84-155.03,2.41-3.61,1.46-7.06-2.81-8-3.67-4.36-6.92-9.19-9.75-14.5-4.8-3.61-5.48-5.91-2.06-6.89.07-3.09-1.05-3.95-4-3-3.79-6.85-14.22-14.43-22-15Z"/>
  <path class="st8" d="M576.28,344.33c.37,2.06.81,2.85,3,2-.53-2.42,1.24-2.07,2.63-2.82,44.97-24.29,88.94-33.36,134.68-3.99,44.29,28.44,31.12,54.49,53.5,90.5,11.68,18.81,36.57,26.6,52.22,7.83,16.78-20.14,5.5-47.98-9.51-65.54-10.11-11.82-30.48-21.88-26.5-39.99,1.07-.77,17.79,8.03,21.99,8,5.29-.21,10.6-.4,15.94-.55,4.53-1.96-2.99-4.03-6.2-3.44-20.96-6.33-41.16-15.39-60.61-27.18-52.58-27.74-134.17-8.5-178.3,28-2.27,1.88-8.27,8.15-2.83,7.17Z"/>
  <path class="st24" d="M185.28,644.33c-13.49,14.25-27.49,31.32-35.62,50.01-1.59,7.15-3.75,14.05-6.47,20.7-13.79,7.4-24.21,20.5-33.99,32.84-21.26,28.56-41.5,57.77-60.72,87.64-11.39,14.04-22.87,29.62-25.33,48.01-16.89-18.89-10.44-42.55,4.06-60.5l-.93-2.7c-6.18,8.02-12.07,14.2-15.03,24.47-7.59,26.34,10.5,49.11,34.03,58.53.89-1.93,3.2-.43,4.52-.03,4.75,1.43,9.38,3.23,14.47,3.02-.3-1.83-2.51-.65-2.68-3.59-.86-14.94,8.01-33.29,15.86-45.72,23.17-36.64,54.41-71.26,77.84-108.16,3.08-4.62,9.31-3.51,13.36-5.64,7.85-4.12,13.22-27.93,17.16-36.84,6.83-15.49,16.45-24.8,26.03-38,1.17-1.61,2-2.03.44-4.03-9.02-6.58-18.1-13.26-27-20Z"/>
  <path class="st9" d="M577.28,336.33c-.51,1.95-3.24,4.19-5.22,3.43-6.46,4.62,4.49,11.78,4.22,4.57-2.45-1,.19-2.65,1.09-3.41,33.72-28.25,92.68-47.13,136.4-42.58,37.73,3.92,54.12,21.56,86.54,34.46,7.72,3.07,15.41,6.59,23.96,5.54.23,1.74-2.27.94-3.49.99-3.34.13-6.74.01-10.08-.04-1.26-.02-2.29,1.04-2.42,1.04,28.41,3.22,56.9-10.58,37.63-42.13-36-58.93-138.68-39.68-190.99-15.73-31.73,14.53-51.79,31.58-77.64,53.86Z"/>
  <path class="st17" d="M87.28,735.33c-13.08,19.77-27.08,39.43-42,59-.69.98-1.32,2.01-2,3-5.11,6-9.75,12.37-14,19-1,1.32-1.99,2.68-3,4-2.75,6.33-7.97,11.35-10.88,17.62-8.09,17.47-4.91,37.78,9.87,50.38-1.23-13.38,7.93-28.33,15.2-39.31,2.84-4.29,6.81-8.23,9.64-12.36,20.9-30.42,60.31-94.7,87.12-115.88,2.52-1.99,5.27-1.74,7.5-4.5,3.24-4,4.55-15.49,6.78-21.22,6.55-16.84,20.65-32.26,31.8-46.2,1.19-1.49,2.35-2.25,1.96-4.54-.45-.34-.99-1.63-2.03-2.42-6.55-4.97-13.72-9.2-19.97-14.58-9.24,12.86-32.18,40.04-35.71,53.79-1.43,5.59-.37,13.46-3.44,17.56-2.57,3.43-12.91,7.73-17.38,11.62-7.1,6.18-13.67,17.22-19.48,25.02Z"/>
  <path class="st11" d="M512.28,606.33l-3.63,2.31c-34.4,45.5-68.82,93.08-101.7,141.61-7.67,11.37-15.91,22.13-24.71,32.27l-.96,3.81c-.87.28-.86.62,0,1,4.22,6.38,10.61,11.02,18,13-1.04,2.24.5,4.01,2.32,2.4,1.75.7,3.12,2,3.33,3.94l1.35-.34c43.59-59.57,90.99-119.95,132-181-2.57-5.32-9.96-10.78-15.76-12.5.2-1.78-.57-2.26-2.24-1.5,1.61-2.96-6.14-8.01-8-5Z"/>
  <path class="st18" d="M311.28,886.33c6.82-6.34,8.12-11.27,3.9-14.78-4.26,1.22-5.12.21-7.33-3.46-5.88-18.16-17.44-9.88-17.69,5.68-1.45,4.12-9.07,5.37-3.57,2.54,1-1.62.88-12.84-2.3-12.97-14.02,20.57-30.93,41.96-46,62-.62,3.19-1.9,4.94-5,6-2.09,2.76-3.99,6.37-6,9-1.92,4.3,1.66,5.66,4.6,1.96,3.3-.6,2.77,1.38,1.22,3.72l-6.82,10.03c-1.27,8.16-2.13,2.1-1.94-2.29,3.73-5.18,5.56-13.43-2.05-6.42-2.65,3.44-5.39,6.67-8,10-4.47,6.5-4.86,11.93-1.15,16.28-1.82,3.12-4,7.01-1.58,10.33-4.57,1.01-9.51,1.31-14.82.88-5.74,3.71-11.68,7.28-18.45,8.51-.47-.12-1-.72-1.5-.97l-.5.97c8.26,11.71,17.93,19.22,31,25,.75-1.27.86-2.22-.35-2.9,17.61-3.98,32.89-23.05,41.58-38.09,2.55-2.8,3.14-5.14,1.78-7.01,1.58-3.04,3.58-5.71,6-8,6.15-3.17,13.39-12.13,14-19,.87-.33.87-.67,0-1,7.78-12.24,16.12-23.91,25-35,6.72-3.91,14.77-13.35,16-21Z"/>
  <path class="st4" d="M734.5,189.61c-42.59-5.19-79.65,32.24-95.08,68.36-1.24,2.89-6.22,12.23.14,11.22,1.5-.24,20.7-14.57,25.04-17.03,13.74-7.79,29.23-13.65,45.18-14.82,10.72-.78,33.17,2.76,41.44-2.56,19.84-12.77,6.28-42.37-16.73-45.17Z"/>
  <path class="st12" d="M962.18,164.33c1.33,5.65-6.98,5.46-9.48.81l-1.92,3.63c-1.71,1.03-27.81,33.78-25.88,35.93,3.92.51,6.64,2.9,6.61,6.98,3.73-2,3.86,8.66,3.3,8.83-.48.15-1.04.02-1.63-.19-22.81-15.66-44.31-34.09-66-51l-1.14-1.88,34.82-51.26,2.32.14c19.65,15.09,40.13,31.91,59,48Z"/>
  <path class="st7" d="M577.28,336.33c-6.58,5.67-4.44,2.58-7.94-.54-5.6-4.99-13.46-9.61-19.53-14.48-6.93-5.56-14.27-13.55-20.75-18.65-.26-.2-5.95-1.89-6.28-1.89-4.54-.09-7.93,4.22-9.74,7.85-.69,1.4-.48,3.99-.95,4.53-.31.37-2.91.58-4.15,1.33-7.73,4.67-11.97,11.04-17.66,17.85.61,4.75,6.93,10.62,10.85,13.96,1.71,2.47,3.76,3.48,6.15,3.04.36,1,.76,1.97,1.29,2.88s1.04,1.75,1.76,2.37c13.19,11.48,28.04,22.44,42.16,32.84.77.57,1.72.9,2.7,1.23s2.03.53,3.09.69c.76.26,1.9.63,2.29.17,1.68-2.01,10.52-15.32,10.38-16.79l-27.7-24.87c15.31,4.18,29.68,11.87,43.62,19.39l2.41-.9c2.51-.75,4.18-3.08,5-7-5.43-4.82-8.11-8.36-15-13-1.03-.69-.3-2.2-3-2-.2.01-1.07,1.38-2.37.98-5.07-1.59.65-4.84,1.9-5.92.4-.34,3.43-2.71,1.47-3.05Z"/>
  <path class="st2" d="M478.28,344.33c-4.37,4.46-11.45,6.39-17.23,8.27-13.38,4.34-27.44,6.29-40.98,10.02-53.97,14.86-91.1,40.83-124.78,84.72,7.7,4.29,14.91,9.81,22,15l4.64-3.4c27.66-41.51,69.7-66.93,112.56-89.15,13.61-7.06,26.91-13.18,41.33-16.37,2.74-1.68,6.18-4.74,5.47-8.09.39-2.95-1.35-3.45-3-1Z"/>
  <path class="st21" d="M353.28,853.33c1.74.27,2.29-.27,2-1.81,10.32-1.96.61-15.7-5.83-9.41l-7.65,9.63c-5.77-.96-9.68-.91-9.3,6.15-7.02,1.26-7.7,3.37-7.38,10.16-3.09,4.44-4.06,8.95-2.92,13.54-3.15,5.76-7.55,11.06-13.2,15.87-3.96,10.7-9.63,19.82-17.01,27.37-6.77,1.38-12.61,4.28-14.13,11.46-2.72,2-5.25,4.35-7.59,7.04-4.23,6.57-9.51,12.62-14,19-2.41,2.13-4.41,4.8-6,8-4.94,9.66-19.94,29.52-28.5,36-4.83,3.66-14.47,8.63-20.5,7.01l6,4.99c11.33,5.01,21.53,8.24,34,4,1.41-2.82-.83-3.58-6.73-2.27l-.22-3.9c5.41-.56,9.21-2.25,11.06-7.72,6.66.79,8.57-11.9.93-10.72,4.7-.54,6.34-2.49,4.94-5.84,4.2-1.95,5.99-5.1,6.46-9.58,4.8.04,8.03-.5,5.99-6.18,2.5-.91,4.82-2.22,6.94-3.94,7.71,4.86,10.63-3.84,5.82-9.6,4.57-2.28,3.41-5.23,1.87-8.99,2.72-7.11,8.15-11.55,16.28-13.32,2.11-6.32,3.46-7.55,4.05-3.72-.06,10.38,4.09,7.3,8.53,1.32l2.09-1.54c1.77-.03,3.54-3.34,3-5,.13-.95-.12-1.75-.83-2.34l-11.76-.32c4.82-1.37,7.66-4.03,8.52-7.99,7.14.7,13.62-12.25,6.01-16.54,3.76-3.59,7.28-7.44,9.76-12.22,6.73-4.58,8.86-9.01,6.37-13.28,6.27.69,11.58-2.05,8.94-9.06,2.2-1.13,4.28-2.29,4.72-5.01,3.3.96,7.03.45,5.28-3.23-1.41-2.3-1.04-9.64,1-6,2.22,1.79,3.83.82,3-2Z"/>
  <path class="st20" d="M933.18,220.33c1.85-.41-.66-1.63-.76-3.28-.06-.96,1.07-2.45.76-3.72l-3.99.99c1.96-8.37-5.18-7.24-5.99-8.03-2.54-2.48,8.16-16.5,10.16-19.29,4.87-6.76,10.57-13.2,15.83-19.45,1.53-1.82,1.46-5.22,4.45-4.27.69.22,3.51,6.75,8.54,1.04,7,5.97,17.02,10.96,12.42,21.93l-29.92,37.06c-4.4,4.58-8.03-.61-11.5-2.99Z"/>
  <path class="st21" d="M402.28,811.33c5.68-4.31.36-11.96-4.33-7.33-4.49-1.41-10.64-1.05-9.57,5.07-3.94,2.71-5.98,6.98-6.12,12.79-4.93,2.39-7.9,6.62-8.91,12.66-5.89,2.88-6.02,8.13.93,8.81-1.83,1.66-4.18,2.36-6.95,1.78-3.24,4.14-6.72,7.17-12.36,6.9l-1.69,1.32c-.33.52-2.36,1.34-3,2-2.48.56-2.55,4.39-1,6-1.09,3.81-5.67-.07-6.93,1.07-.19.17-.11,2.34-1,3.47-.96,1.22-3.59,1.65-3.98,3.11-.48,1.8,1.84,3.35,0,5.9-2.77,3.83-6.56-.23-9.1,2.97-.56,2.17,2.58,3.48,1.58,5.46-.51,1.01-6.3,5.6-8.02,8.09-3.98,5.78-1.55,4.77-7.52,9.44-5.61,4.38,1.94,7.46,2.04,8.09.21,1.38-5.45,12.06-7.08,10.39-.91-.93,7.81-12.28,1.51-10.99-1.47.3-4.09,7.47-6.43,8.63,6.68,7.32-6.73,9.41-7.08,10.88-1.3,5.46,12.8,1.82,14.99,3.49.75.64,1.75-.03,3-2,1.34-1.72,1.84-2.24,3-4,1.51-2.59,3.18-4.59,5-6,7.57-9.96,22.43-27.71,26-39-.25-7.29,1.08-13.95,4-20l2.06-2.21c8.75-3.45,17.87-7.14,23.56-15.05.72-3.86,2.51-6.1,5.38-6.74,1.27-1.61,2.81-3.37,4-5,2.3-4.19,4.97-8.19,8-12,2.58-3.19,4.05-3.59,6-8Z"/>
  <path class="st21" d="M309.28,936.33l-5-1.01c.22,3.44.39,6.69-4,6,1.26-2.63.44-9.58-3.39-8.95-2.58.42-2.22,5.26-3.6,6.47s-7.21,1.82-9.97,4.03c-2.03,1.62-7.15,8.43-6.96,11,.25,3.57,4.82,4.79-3.05,7.96,1.85,3.18,5.6,5.94,2.46,9.51-1.87,2.12-3.78-1.82-4.99-1.8-.44,0-2.47,2.36-3.78,3.01s-5.53,1.57-5.71,1.81c-.35.47,1.63,4.54,1.01,5.98-8.84-1.22-5.48,2.24-7.95,6.56-2.14,3.75-7.16,1.92-4.06,8.44-7.58-1.56-8.48,6.72-1,4.01.34.37-.72,6.46-1.17,6.82-.62.49-2.63-.01-3.8.66-1.38.8-1.48,3.86-3.64,5.39-4.7,3.34-10.68-.67-7.39,7.11-3.12-.92-7.48.43-9.99,2.51,5.46,1.4,11.01.22,16.4-.44.69-.08,1.46.95,1.6.93,4.3-.43,11.99-7.24,14.97-10.53,14.72-16.25,30.69-42.05,44.03-60.47,2.36-4.14,5.36-9.14,9-15Z"/>
  <path class="st27" d="M494.28,355.33c-1.14,2.36-.14,3.36,3,3,.73,1.26,1.48,2.49,2.35,3.64s1.72,2.24,2.76,3.16c14.59,12.9,29.36,25.91,44.84,37.61l4.06,1.59c2.11,5.73,9.89,11.31,16,12-1.96,2.7,4.07,6.15,6.62,5.76,2.32-.35,11.12-9.77,10.38-12.76-.41-.35-.62-1.72-1-2-1.4-4.8-8.05-9.09-13-9-2.28-5.14-6.44-8.2-12-9-16.6-12.78-35.35-26.35-51-40-3.58.52-12.44,1.82-13,6Z"/>
  <path class="st16" d="M584.28,409.33c-2.84,1.63-8.46,10.42-10.64,10.85-1.66.33-4.89-2.73-6.36-3.85-6.42,3.8-9.58,14.64-11.46,21.99-3.05,11.9-3.21,22.84-.64,34.61.44,9.18.22,18.38-.67,27.59l1.78,3.81,1.14,2c3.3.57,13.44.9,14.86-2,2.61,4.26,3.48-.44,2-4,.58-12.64-2.32-22.51-3.04-34.46-.39-6.5-.72-40.43,4.22-43.36.92-.54,3.11.04,4.79-.7,5-2.19,4.04-8.16,6.05-11.97.05-1.12-1.66-.21-2.02-.52Z"/>
  <path class="st13" d="M903.18,116.33l-36,53c-4.14-3.23-9.98-6.27-14.46-10.04-8.65-7.3-14.53-10.44-2.54-19.96l.93,2.19c-5.12,5.73-5.53,9.11-1.23,10.14l31.58-43.16c-1.99-.5-3.09-1.55-3.28-3.17,9.72-4,17.9,5.55,25,11Z"/>
  <path class="st8" d="M818.78,475.7c-3.99.02-7.48,13.82-8.22,17.4-2.37,11.41.15,30.92,14.28,33.15,23.55,3.72,22.32-28.55,9.48-41.47-2.12-2.13-12.97-9.11-15.54-9.09Z"/>
  <path class="st26" d="M574.28,500.33c-.27,5.93-1.4,3.2-2,4-.88-.01-1.56.3-2,1.01l1.19,9.43-2.26,1.37c-.99,2.57-2.77,4.99-5.34,7.26-.69,12.01-2.43,23.65-5.23,34.95-4.81,4.04-4.85,6.95-3.47,12.76-5.05,5.95-7.73,12.35-8.04,19.2-4.5.98-6.11,2.12-7.06,6.82-4.23,1.92-5.84,4.57-4.84,7.95-4.45,4.01-9.51,5.21-14.95,6.24,5.93,4.72,11.4,10.11,18,14,6.25-9.3,12.29-18.78,17-29,4.17-12.94,8.17-24.94,12-36,3.85-14.9,8.06-33.15,7.52-48.47-.19-5.49,2.25-5.32,2.49-6.04.22-.64-3-3.84-3.01-5.5Z"/>
  <path class="st12" d="M850.18,139.33c2.87-4.21,25.81-33.76,28-34l6.98,1.5-35.48,48.48c-1.41-1.58-5.12-4.3-5.14-6.48-.01-1.23,4.49-7.82,5.64-9.51Z"/>
  <path class="st23" d="M478.28,344.33c.46.33,2.1.32,3,1,2.14,5.27,7.32,9.24,13,10,3.92-2.6,10.11-1.73,13-6-5.62-4.9-11.58-11.74-17-17-.13-.13-1.24.37-1.79-.23-.42-.46.12-1.95-.85-2.84-4.29-3.96-15.69,1.45-15.15,7.42.11,1.21,4.81,6.95,5.79,7.65Z"/>
  <path class="st3" d="M594.28,359.33c-2.71-.3-4.33,4.55-5,7-.23.42-.42.84-.47,1.28-.08.71,7.76,10.26,9.47,9.72-1.39,1.18-1.43,1.92-1.35,3.45-8.26.64-9.36,3.74-9.47,11.84-6.72,4.48-2.07,12.38,2.15,3.68-.42.89-.14.89.66.03.58-.13,1.72.22,1.98,0,.22-.19,1.15-4.15,2.12-5.39,2.93-3.71,12.97,1.12,16.76-6.23,6.13-11.87-9.82-19.11-16.87-25.37Z"/>
  <path class="st7" d="M598.28,377.33l-1.03-.87c-7.01,2.31-12.34,3.7-19.37-.34-1.49-.24-2.81.27-3.94,1.24-.46,6.59-1.37,12.71-4.7,18.54l1.04,2.42c4.18,3.17,8.8,5.94,13,9l7-11c-.06.01-.32-1.1-.98-.59-.96.75-1.33,2.79-2.53,3.59-2.61-3.53,2.18-4.63,2.51-5.72.68-2.27.03-7.16,1.88-9.69,1.29-1.77,10.39,1.56,7.12-6.59Z"/>
  <path class="st6" d="M353.28,860.33c1.14-1.47,14.81-6.47,18.91-9.59,5.74-4.36,7.98-9.21,12.09-14.41-9.24-3.2-4.37,3.26-5.47,5.98-1.37,3.41-11.59,10.08-15.18,11.88-2.58,1.29-6.92,1.9-8.79,3.25-1.62,1.17-1.18,2.39-1.57,2.9Z"/>
  <path class="st23" d="M555.28,596.33c5.41-11.74,8.78-23.54,12-36-1.39-2.15-1.17.94-1.48,2.01-3.07,10.53-6.29,19.48-10.37,29.64-.51,1.28-2.24,3.38-.14,4.36Z"/>
  <path class="st24" d="M29.28,816.33c4.87-6.44,9.37-12.33,14-19-5.41,5.1-10.49,12.33-14,19Z"/>
  <path class="st24" d="M45.28,794.33c14.51-17.49,27.12-36.52,40.82-54.68.61-.81,3.34-3.63,1.18-4.32-14.41,19.35-28.23,39.32-42,59Z"/>
  <path class="st19" d="M349.28,880.33c1.64-5.19,1.64-16.97,4-20-1.01,1.33-1.94,1.04-2.75,3.74-.89,2.95-.97,7.91-1.57,11.4-.25,1.46-1.66,3.85.32,4.87Z"/>
  <path class="st19" d="M312.28,931.33c-.85,1.14-1.58,3.13-3,5-2.79,3.69-5.28,7.7-8.05,11.44-.63.86-3.31,2.74-.95,3.56,5.17-7.13,11.07-14.1,15-22-.56.72-2.52,1.35-3,2Z"/>
  <path class="st21" d="M388.28,831.33c2.77-3.78,6.44-7.51,8-12-2.79,3.46-7.78,6.94-8,12Z"/>
  <path class="st21" d="M399.28,800.33c-6.04-.16-20.94.14-19.37,9.25-4.94,2.63-7.92,5.54-4.74,10.93.1,2.7-3.42,13.04-7.04,12.94-6.37,7.52-2.65,16.47,6.15,9.88-.34-1.88-4.51-1.44-2.91-5.4.78-1.93,3.35-1.25,3.77-1.73.71-.8-.83-5.89,1.67-8.84,1.64-1.94,5.69-2.24,6.92-4.08s1.02-5.84,1.85-8.15c1.18-3.29,4.07-4.32,4.44-5.05,1.11-2.18-1.18-6.13,3.68-5.78,1.75.13,3.96,2.27,5.04,2.02,1.4-.32.85-3.78,3.02-2.99,4.11,1.49,1.68,5.36.51,7.99,2.51-.83,2.81-3.37,4-5-1.59-2.6-4.61-4.19-7-6Z"/>
  <path class="st19" d="M318.28,925.33c2.57-1.23,3.43-3.93,5-6l-.5-.98c-2.61,1.51-3.23,5.06-4.5,6.98Z"/>
  <path class="st29" d="M321.28,465.33l-4.99-1c-.96,4.61,3.23,5.97,5.43,9.06,2.47,3.46,6.48,11.55,8.99,14.01,3.38,3.3,6.22.02,3.47,6.33-22.82,33.77-45.65,67.57-69.08,100.92-14.69,20.91-32.66,42.6-46.22,63.77-1.66,2.6-4.64,5.45-1.59,7.91,44.42,32.42,88.71,65.34,133,98-.84,2.8.75,3.82,3,2,2.64,1.64,3.08-1.21,1.27-3.11,42.18-58.66,84.86-117.51,128.05-176.56l-.32-2.34c.28-.94-.05-1.28-1-1-33-28.42-68.11-54.85-105-78-8.47-9.99-19.91-17.99-32-23-6.01-7.81-13.74-13.6-23-17Z"/>
  <path class="st19" d="M284.28,863.33l.98,11.95c-9.19,1.71-1.61,6.91,3.6,3.12,7.11-5.17,1.8-14.24,7.51-17.49,8.67-4.94,6.62,8.11,13.39,12.49,2.77,1.79,4.87-.52,5.52-.09.3.2,1.3,5.27,1.06,6.31-.21.92-3.11,1.65-4.13,3.16s-.72,3.25-.92,3.54c.49.23.99.42,1.51.52,4.53.82,12.49-17.02,12.44-21.6-2.03-16.56,4.5-24.51,19.76-30.33,4.5-2.73,8.57-6.21,8.29-11.59,2.55.98,2.9.56,2-2,2.91.71,4.7-1.2,3-4,.53.08,1.01.09,1.37-.12,2.42-1.45,9.38-11.53,11.5-14.62.21-.3.2-.76.13-1.25.46.07.91.09,1.34,0,.72-.17,8.71-10.33,9.27-11.32l-.61-2.67v-1c-.41-1.26-.93-2.55-1.95-3.44-4.98-4.36-16.35-12.54-22.09-16.09l-3.96-.47c-.96-.71-2.04-1.29-3-2-.71,2.31-2.2,4.96-3.57,6.93-10.52,15.13-23.58,33.66-35.92,47.08-2.7,2.94-8.37,6.36-9.93,9.07-1.93,3.35-1.78,9.04-3.41,13.59-2.34,6.53-9.12,16.37-13.17,22.33Z"/>
  <path class="st19" d="M178.28,993.33c.26.06.42,1.2,2.2.86,1.65-.31,7.68-2.15,9.36-2.8,3-1.15,5.66-4.2,7.39-4.65,3.96-1.03,11.79,1.75,15.11-.87,3.2-2.53.53-2.52.16-4.28-.75-3.52,4.53-9.46,3.79-10.26-1.97.04-3.97-.22-4.06-2.53l2.06-11.48c-5.79,7.38-15.56,20.97-21.46,27.04-4.2,4.32-10.23,5.21-14.54,8.96Z"/>
  <path class="st19" d="M222.28,947.33l3.99-2c-1.22,5.3-4.65,5.17-4.03,11.51.25,2.59,2.43,9.01,4.85,5.29.53-.82-.02-3.1.74-4.73,1.76-3.76,6.45-8.86,7.93-12.08.74-1.6.58-3.29.52-4.99-3.1,0-6.73-1.04-7.02,2.99l-1.98-2.99c-1.82,2.38-3.43,4.96-5,7Z"/>
  <path class="st19" d="M233.28,931.33c3.99,1.3,6.32-2.75,5-6-1.43,1.9-3.42,3.91-5,6Z"/>
  <path class="st15" d="M317.28,462.33c1.34.98,2.65,2.01,4,3,7.68,5.63,15.31,11.38,23,17,3.32-1.79,5.98-4.73,7.99-8.81,36.07-46.67,81.59-74.55,131.36-104.64,5.74-2.91,10.29-6.42,13.64-10.55-.79-.64-1.62-1.9-3-3-4.31-3.46-8.57-6.69-13-10-2.07,1.05-3.04,3.79-4.49,5.01-4.33,3.62-8.87,2.58-13.7,4.29-13.96,4.93-39,18.07-52.47,25.53-36.87,20.42-70.4,46.34-93.33,82.17Z"/>
  <path class="st25" d="M795.53,383.54c-10.74-2.79-4.53,14.65-2.72,19.77,2.45,6.97,12.72,31,22.04,20.08,7.13-8.36-1.44-28.15-8.54-34.58-.48-.43-10.1-5.1-10.77-5.27Z"/>
  <path class="st14" d="M353.28,766.33c9.19,6.8,17.91,14.45,28,20,8.54-8.3,15.77-18.94,22.81-28.69,23.99-33.18,46.64-67.35,70.35-100.65,11.88-16.68,28.02-32.76,37.83-50.67.89-.28.87-.61,0-1-6.11-6.16-18.86-17.66-26.77-20.27-1.04-.34-2.13-.56-3.23-.73-1.22.96-2.29,1.99-3.24,3.25-41.29,54.55-78.95,112.09-120.57,166.43-.96,1.41-5.97,8.4-6.06,8.99-.24,1.52,2.94,2.83.88,3.33Z"/>
  <path class="st10" d="M556.28,504.33c-.28-.87-.62-.86-1,0-1.25.95-2.19,2.14-2.79,3.59-2.47,18.91-5.49,34.83-15.02,51.16-10.42,13.52-19.09,28-25.99,43.46l.8,2.79c-.14.26.14.74,0,1,2.68.94,5.78,3.24,8,5,3.11,4.51,16.17-3.58,16.81-5.72.28-.95-.61-2.37-.24-3.33.64-1.69,3.83-2.59,4.87-4.02s.94-3.98,1.8-4.71c.96-.82,4.25-.46,5.29-2.2.92-1.54.37-5.52.96-8.06.74-3.19,6.36-7.74,7.34-11.72.61-2.48-1.46-4.78-.67-7.52.47-1.63,3.17-2.97,4.08-4.99,4.02-8.88,2.92-19.53,4.53-28.47.42-2.31,0-4.81.89-7.04s3.74-1.63,4.21-2.37c.57-.9-.32-3.18.24-3.78.42-.45,2.74.5,2.96-.62.66-3.33-1.44-11.95-1.07-12.45h-16Z"/>
  <path class="st6" d="M371.28,801.33c-3.21,6.7-7.55,12.04-13,16-1.04,1.34-2.06,2.84-3,4,.54,1.61.47,4.01-2,2-2.28,2.76-3.43,5.62-6.5,8-6.22,4.8-13.23,5.08-19.51,12.77-5.79,7.08-3.19,13.7-4.09,21.63-.89,7.84-5.6,15.95-11.89,20.61-4.89,7.33-10.96,13.87-16,21-8.85,10.95-17.18,22.61-25,35-.15.24.15.76,0,1,2.84.81,4.36-4.25,6.73-4.87,3.29-.86,3.9,2.99,5.28-2.12l-3-.5c2.36-9.13,10.08-6.53,14.98-10.02.44-.31,6.49-7.45,7.03-8.24,2.78-4.07,5.6-13.16,9.03-18.49s11.73-9.95,13.54-15.71c1.07-3.39-.67-4.97-.54-7.49.15-2.95,3.17-5.15,3.72-7.29.51-1.99-.15-6.58.36-7.15.26-.3,5.31-.97,6.66-2.36s-.32-4.39,1.14-5.29c2.54-1.57,5.74.87,7.62-.36,3.2-2.08,6.07-8.44,9.15-10.97,2.56-2.05,6.37,4.35,6.29,5.37-.09,1.16-3.64,1.38-4.5,2.51-.76.99-.26,2.64-.47,2.99,2.5,2.1,9.02-.72,11.29-2.21,1.92-1.27,2.35-3.61,3.71-4.29,1.96-.98,6.68.25,6-3.5l-6.99,1c.05-2.32-.46-7.08,1.23-8.77.95-.95,2.92-.51,3.84-1.89.34-.5,4.62-10.49,4.73-11.08,1.08-5.65-4.91-5.3,1.85-10.13.93-.66,3.17-1.01,3.3-1.19.91-1.25-3.37-4.41,2.47-7.01,4.64-2.06,10.75-.55,14.57-3.93-5.89-4.46-11.9-8.83-18-13-2.16,3.84-9.55,9.79-10,14Z"/>
  <path class="st19" d="M255.23,920.3c-1.77,1.2-4.16-5.72-8.03-.54-2.21,2.95.21,5.51,1.23,8.41,1.72-.38,10.92-.04,11.39-.79.54-.88.46-9.24-.02-10.06-1.82-3.09-4.31,2.8-4.57,2.98Z"/>
  <path class="st19" d="M268.33,909.34c-.11.08-.89,2.53-.89,2.67,0,3.42,2.6,1.21,4.19,1.42,5.07.64,6.82,2.57,10.62-2.62,6.45-8.78-3.75-3.33-4.46-3.48-2.24-.46-.6-6.4-3.51-7-.04,2.75.49,6.91-1.51,9.07-1.34,1.44-3.59-.65-4.44-.05Z"/>
  <path class="st19" d="M286.5,903.1c1.17.65,3.32.2,4.73.17,0-4.2,7.62-16.74-2.24-13.76-5.01,1.52-5.81,11.74-2.49,13.59Z"/>
  <path class="st19" d="M270.28,942.33c8-9.88,15.48-20.31,22.84-30.67,1.07-1.51,1.55-3.47,2.16-4.33-2,.12-3.36,1.55-4.53,2.97-8.13,9.85-13.73,21.57-20.47,32.03Z"/>
  <path class="st19" d="M294.29,880.33c-2.18,4.7,2.96,7.17,3.07,7.65.62,2.69-2.31,4.65-2.08,5.82.82,4.22,4.32-.21,4.82-3.23.56-3.35-1.41-11.16-5.81-10.25Z"/>
  <path class="st19" d="M296.29,871.33c-.3,6.9,2.49,10.04,7.98,4.48l-7.98-4.48Z"/>
  <path class="st19" d="M216.29,979.33c-1.48,1-.49,6.79-.03,8.57.43,1.66-1.02,2.92,2.01,2.43-1.53-2.73,2.21-8.39,2.01-9.47-.22-1.16-3.15-2.09-3.99-1.52Z"/>
  <path class="st19" d="M263.29,920.32c1.92,1.96,6.12-3.98,4.99-4.99-2.34-2.1-7.04,2.91-4.99,4.99Z"/>
  <path class="st19" d="M250.28,970.33c3.24-1.5,4.36-5.67,6-8-5.49,1.17-4.58,5.22-6,8Z"/>
  <path class="st19" d="M224.29,964.33l-1,6c3.4-1.21,6.89-4.75,1-6Z"/>
  <path class="st19" d="M227.28,986.32c1.24-1.41-2.27-5.59-3.98-5.99-.93,1.68,2.54,7.63,3.98,5.99Z"/>
  <path class="st19" d="M241.46,928.51c-.39.6-1.07,4.51,1.31,3.81,4.4-2.56.68-6.88-1.31-3.81Z"/>
  <path class="st19" d="M251.28,959.32v-3.99c-3.98.02-3.93,3.99,0,3.99Z"/>
  <path class="st0" d="M589.28,366.33c-10.54-6.31-33.38-17.33-44.99-20.51-1.34-.37-2.59-.71-4-.49-.07,2.45,1.88,4.43,3.45,6.04,5.14,5.29,13.27,11.99,19.07,16.93,2.01,1.72,4.62,2.63,6.48,4.56l-11,16.47c3.95,3.04,8.02,5.99,12,9,3.22-6.45,5.97-12.53,5-20,3.65-1.27,6.82,2.27,9.45,2.53,3.2.32,10.97-1.18,13.55-3.53-1.33-3.3-5.96-9.18-9-11Z"/>
  <path class="st6" d="M350.28,855.33c.21-.93,1.34-3.69,1-3.99-.52-.48-2.82-.04-3.52.97-.36.53-2.14,10,1.52,9.02.42-1.46.56-4.07,1-6Z"/>
  <path class="st6" d="M340.29,859.32c.43.43,5.27.96,3.98-2.48-1.43-3.85-5.63.84-3.98,2.48Z"/>
  <path class="st23" d="M497.28,358.33c-2.39-.52-3.07.99-4.51,1.99-48.41,33.33-87.28,48.98-128,95-7.46,8.43-15.1,17.12-20.49,27.01,10.59,7.74,21.43,15.25,32,23l3.93.97c45.15-.4,90.39-.61,135.73-.65l6.35-1.32c-3.66,6.92-5.91,14.6-6.75,23.05-10.49,18.46-21.91,36.31-34.27,53.55l.02,2.41c.37.27.64.73,1,1,9.74,7.22,19.74,14.53,30,21,2.9-5.25,4.99-11.83,8.19-17.31,11.99-20.48,23.48-28.79,29.34-53.66,2.32-9.85,3.25-20.16,5.47-30.03-.09-.78-.35-1.96-.9-2-4.39-.34-27.79-.82-30.64,0l-1.46,2c1.24-1.04,2.15-2.31,2.71-3.81l5.45-38.16c2.18-20.37,11.38-37.21,21.33-54.45l-.49-3.57c-18.19-14.73-35.85-31.27-54-46Z"/>
  <path class="st28" d="M522.28,504.33h33s1,0,1,0c.52-9.81,1.58-19.68,1.05-29.55-.33-6.2-2.28-12.04-2.09-18,.46-14.99,4.55-27.63,12.05-40.45-5.21-3.97-10.96-7.92-16-12-5.45,11.64-13.54,22.75-17.51,34.99-6.7,20.66-7.47,43.69-11.49,65.01Z"/>
  <path class="st1" d="M376.28,505.33c35.15,25.77,69.98,52.06,105,78,11.87-18.36,27.24-35.36,36.15-55.35,1.48-7.89,3.37-15.78,4.85-23.65-46.46,0-94.24-1.43-140.55-.04-1.9.06-3.79-.09-5.45,1.04Z"/>
  <path class="st21" d="M358.28,817.33c1.84,1.42,3.84-.14,5.03-1.48,1.63-1.83,8.84-12.28,8.94-13.95.05-.75-.98-.52-.97-.58-5.34,4.18-8.88,10.72-13,16Z"/>
  <path class="st21" d="M355.28,821.33c-.41.51-1.29,1.14-2,2-.63,1.69,1.35,5.15,2.99,4,.54-.38,2.44-7.76-.99-6Z"/>
</svg>