<?xml version="1.0" encoding="UTF-8"?>
<svg id="Layer_1" xmlns="http://www.w3.org/2000/svg" version="1.1" viewBox="0 0 1024 1024">
  <!-- Generator: Adobe Illustrator 29.5.1, SVG Export Plug-In . SVG Version: 2.1.0 Build 141)  -->
  <defs>
    <style>
      .st0 {
        fill: #f36e3b;
      }

      .st1 {
        fill: #f56b3a;
      }

      .st2 {
        fill: #d04b29;
      }

      .st3 {
        fill: #f4703c;
      }

      .st4 {
        fill: #ec542d;
      }

      .st5 {
        fill: #f3703d;
      }

      .st6 {
        fill: #b43c20;
      }

      .st7 {
        fill: #e9542c;
      }

      .st8 {
        fill: #eb542d;
      }

      .st9 {
        fill: #b43b1f;
      }

      .st10 {
        fill: #e8532c;
      }

      .st11 {
        fill: #f26a3a;
      }

      .st12 {
        fill: #ed552d;
      }

      .st13 {
        fill: #f5703b;
      }

      .st14 {
        fill: #d14b29;
      }

      .st15 {
        fill: #f36e3a;
      }

      .st16 {
        fill: #b23a1e;
      }

      .st17 {
        fill: #0e0c08;
      }

      .st18 {
        fill: #f2703d;
      }

      .st19 {
        fill: #f46e3b;
      }

      .st20 {
        fill: #eb552e;
      }

      .st21 {
        fill: #f56b3b;
      }

      .st22 {
        fill: #f4723e;
      }

      .st23 {
        fill: #b33b20;
      }

      .st24 {
        fill: #f36d3c;
      }

      .st25 {
        fill: #f36a3a;
      }

      .st26 {
        fill: #d04c29;
      }

      .st27 {
        fill: #eb532c;
      }

      .st28 {
        fill: #d14c29;
      }

      .st29 {
        fill: #f16f3c;
      }

      .st30 {
        fill: #f56d3c;
      }

      .st31 {
        fill: #f36c3b;
      }

      .st32 {
        fill: #ee562e;
      }

      .st33 {
        fill: #e9552d;
      }

      .st34 {
        fill: #b23a1f;
      }

      .st35 {
        fill: #b23b1f;
      }

      .st36 {
        fill: #f4703d;
      }

      .st37 {
        fill: #f5703e;
      }

      .st38 {
        fill: #f46d3b;
      }

      .st39 {
        fill: #f26c3b;
      }

      .st40 {
        fill: #f36d3b;
      }

      .st41 {
        fill: #cf4a28;
      }
    </style>
  </defs>
  <path class="st17" d="M631.89,313.63c1.53,4.75-9.73,21.82-8.63,23.65.59.98,9.35,6.6,11.22,8.13,85.45,70.27,121.85,188.67,123.18,300.08,14.27,6.49,24.79,13.6,26.13,31.4,2.09,27.73-7.54,82-12.88,110.6-4.16,22.28-8.43,56.63-31.61,65.21-23.11,8.55-77.39,1.57-103.39-.99-97.83-9.62-199.07-25.89-295.43-45.77-41.9-8.64-85.75-18.04-126.76-30.29-33.78-10.09-60.62-13.35-59.98-57.01.6-40.62,7.49-92.64,16.57-132.21,3.06-13.35,5.61-24.35,18.4-30.81,6.61-3.34,12.02-2.74,18.73-4.43,14.96-47.82,39.8-95.04,70.31-133.83,37.46-47.63,86.65-83.73,139.8-109.45.68-1.15-2.44-12.21-2.95-14.94-.39-2.06.08-4.4-.42-6.19-.63-2.27-4.43-3.2-6.16-4.87-11.38-10.94-4.82-38.96,1.38-51.7,1.14-2.33,4.44-6.25,4.96-8.05.11-.37-3.27-2.6-4.07-6.13-2.58-11.29,10.82-30.09,18.45-37.46,3.32-3.2,13.75-9.42,15.27-11.38s1.8-6.7,3.43-9.64c5.11-9.21,23.81-17.23,33.41-19.73,1.73-.45,9.41-1.19,9.79-1.52.22-.2.68-3.64,2.33-5.6,3.93-4.66,11.56-4.2,17.01-3.63,3.39.35,14.48,4.63,15.26,4.48,1.22-.25,2.86-3.45,5.02-4.17,11.8-3.92,34.64,8.7,44.37,15.86,2.27,1.67,11.92,11.03,12.74,11.03.58,0,4.08-3.8,8.06-3.68,9.86.29,18.23,12.26,21.44,21.07.62,1.7.3,4.14,1.08,5.5s8.96,4.65,11.17,6.23c4.99,3.58,10.96,11.53,11.67,18.03.36,3.3-1.18,7.28-.7,9.17.38,1.52,5.44,5.76,6.9,7.96,7.09,10.67,8.18,23.07-.7,32.94,5.05,15.73,6.27,33.06,1.51,49.04-2.51,8.44-6.56,14.5-15.89,13.09h-.02Z"/>
  <path class="st28" d="M228.29,544.76c32.13-92.05,99.85-171.36,184.55-212.39,5.24-2.54,24.5-11.74,28.93-11.3,1.95.19,1.54,1.55,2.24,2.94,1.32,3.1-2.08,2.65-3.19.09-.94-.3-18.49,6.17-18.37,7.2.37,3.04,44.9,26,52.7,24.79-3.24-.29-12.55-4.68-6.87-6.5,1.92,1.02,3.79,2.09,5.83,2.86,13.33,5.03,27.44,12.58,42.15,11.23,4.59-.42,10.65-3.76,14.52-3.7,3,.04,9.97,3.28,14.47,3.7,10.09.94,18.37-.74,27.3-5.56,5.05-.37-.37,5-4.07,5.26,74.17,50.47,98.51,161.01,97.55,249.52-.01,1.11-.29,2.23-.59,3.36s-.74,2.25-1.21,3.35c-50.34-8.48-100.67-17.01-151-25.58-35.13-5.1-70.19-10.87-105.16-17.05-58.67-8.88-121.37-18.04-181.41-25.49,1.22-2.25,1.77-4.5,1.65-6.72h-.02Z"/>
  <path class="st28" d="M557.25,342.96c-6.69,1.74-12.69,3.71-19.77,2.84.35-3.16,4.11-3.87,5.79-6.67,2.42-4.02,1.87-7.78-2.67-9.44l-23.6,9.21c-11.35,3.67-12.37,3.21-19.94-5.92-4.02-4.84-9.42-18.67-16.21-15.13-5.2,2.71,3.37,16.97-2.21,15.62-.59-.14-8.4-6.96-9.48-8.02-2.47-2.44-6.11-6.65-8.06-9.51-2.68-3.92-8.45-17.89-10.46-19.3-5.88-4.14-10.02,8.12-12.96,6.1-2.09-1.44-4.22-12.28-4.45-15.21-.4-4.97,1.55-15.79.71-18.74-1.33-4.68-8.53-1.4-10.48-2.69-3.48-2.3.85-20.2,2.41-24.2,2.53-6.5,15.95-23.42,16.34-26.43.55-4.2-1.79-5.67-4.78-7.23-2.04-1.07-4.2.11-3.18-2.97.36-1.1,9.09-10.13,10.64-11.52,4.96-4.46,11.48-9.05,17.38-12,3.15-1.58,8.58-2.26,10.97-4.54,4.61-4.39.72-12.33,1.35-13.24.5-.73,12.08-3.66,13.92-3.83,9.97-.89,24.85,6.64,20.22-11.38,4.49,1.36,9.11,2.4,13.46,4.28,8.8,3.79,22.62,17.75,21.6-3.33,10.19,4.42,20.08,10.21,28.33,17.98,2.21,2.08,10.39,12.4,11.22,12.8,7.85,3.81,6.97-8.25,12.54-3.73,6.1,4.94,3.05,16.88,5.34,19.95,2.58,3.46,12.09-1.94,17.16,6.07-1.29,1.45-3.17,1.17-5.62-.84-8.68,1.29-13.66-1.33-14.92-7.87-1.8-1.16-8.67,12.02-1.9,11.48,16.6,22.07,9.48,54.11-.88,77.88-7.73,17.75-35.26,36.31-52.2,43.73,6.1,2.84,5.78,10.39,2,15.41l10.75-2.45c2.07,0,2.68.93,1.65,2.89v-.05Z"/>
  <path class="st35" d="M711.85,489.81c10.77,32.18,18.26,65.34,22.47,99.48,3.69,16.24,4.8,33.44,5.67,49.21-24-6.31-48.06-12.29-72.18-17.95-1.19.55-2.95.29-3.6-.95.29-56.83-7.86-116.14-29.5-168.33-12.39-29.88-28.16-54.13-52.28-74.69-5.66-4.83-11.66-9.41-17.98-13.26,2.04-1.88,6.94-2.27,8.51-4.24.28-.35-.46-.93-.42-.96,2.35-2.3,6.22-4.13,8.96-6.21,2.59-1.96,1.29-4.43,6.72-4.24,24.86.86,54.48,29.63,70.17,48.33,22.56,26.89,41.02,60.42,53.47,93.81h-.01Z"/>
  <path class="st28" d="M442.2,604.44l46.48,7.61c-.7,5.69-1.21,11.36-1.54,17.03-8.74,56.22-17.66,112.7-27.86,168.64-.76,2.56-1.4,5.38-1.93,8.46-21.89-3.22-44.16-7.09-65.97-11.07.48-7.51,1.54-14.86,3.18-22.03,2.6-23.81,6.2-47.59,10.79-71.06,4.73-29.98,8.92-59.67,12.58-89.06.64-4.07,1.85-8.12,1.8-12.31,1.17-1.27,19.49,3.31,22.47,3.79Z"/>
  <path class="st14" d="M480.85,738.98c6.28-41.77,12.58-83.43,18.89-124.98l68.04,11.98c-3.18,18.89-5.79,37.61-7.83,56.16-3.14,20.95-7.89,41.72-11.68,62.53-4.74,20.83-8.64,41.99-11.68,63.48-.68,3.43-1.64,6.84-1.84,10.37l-19.73-2.79.65-.59c-15.51-1.85-31.01-4.05-46.49-6.59,3.19-23.31,6.99-46.57,11.68-69.56h0Z"/>
  <path class="st28" d="M584.22,628.13c18.32,3.1,36.59,6.49,54.82,10.17-1.62,10.55-2.52,21.05-2.69,31.52-5.22,44.92-13.96,89.52-23.37,133.58-2.15,7.88-3.81,15.92-4.99,24.13l-62.3-7.54c1.85-9.73,3.31-19.37,4.38-28.91,10.31-54.71,21.24-109.42,27.87-164.85.48-.59,5.33,1.71,6.29,1.9h-.01Z"/>
  <path class="st26" d="M389.17,595.92c6.75,1.34,13.62,2.44,20.62,3.31-2.89,14.8-4.97,29.49-6.24,44.06-5.27,33.47-10.93,66.95-16.18,100.43l-7.71,49.22c-18.53-3.86-36.93-7.32-55.2-10.38-1.78-.42-3.52-1.11-5.4-.95,8.42-64.24,18.2-128.36,28.85-192.22,13.9,1.02,27.55,4.3,41.26,6.53h0Z"/>
  <path class="st2" d="M286.71,580.76c16.77,2.9,33.75,5.53,50.93,7.9-.86,4.33-1.36,8.65-1.49,12.94-9.49,58.94-19.2,117.89-26.99,177.14-16.12-2.49-31.85-7.24-47.61-11.34-2.56-1.04-5.23-1.9-8.02-2.58,6.59-44.53,13.16-88.52,19.71-131.95,3.1-17.71,6.37-35.42,9.91-53.04.74-.32,3.57.21,3.57.93h-.01Z"/>
  <path class="st2" d="M218.4,618.66c1.46-15.41,4.49-30.7,7.67-45.85,15.92,1.64,31.6,3.89,47.03,6.77-6.42,30.43-11.77,60.82-16.05,91.19-1.51,9.78-3.97,19.62-5.39,29.37l-8.89,61.19-.69.71-39.78-11.38c2.45-44.3,7.49-88.6,16.1-132h0Z"/>
  <path class="st34" d="M667.81,644.24c10.98,2.14,21.99,4.5,33.01,7.08-.84,13.69-2.56,27.12-5.15,40.29-3.13,25.94-6.72,51.52-10.79,76.74-2.37,12.09-5.37,24.02-8.09,36-2.81,9.48-5.16,19.15-7.06,29.02-1.06,1.61-27.53-1.68-32.49-3.44-.24,1.46-1.91,1.19-2.7,0,.08-3.79.29-7.59,1.11-11.29,12.9-57.65,25.33-116.62,27.55-173.17l1.89-1.24c.5-1.06,2.02-.84,2.7,0h.02Z"/>
  <path class="st23" d="M723.54,656.55c6.04,1.95,12.16,3.78,18.36,5.5-1.07,13.14-1.79,26.15-2.19,39.03-3.58,35.27-10.26,69.82-17.98,104.22-2.51,10.14-5.14,20.32-7.88,30.54-1.46,1.29-28.5-.57-32.96-1.15-.2-.03-.36-.44-.5-.97.04-.46-.07-.94,0-1.4.18-.47.46-.53.89-.49,8.78-32.69,15.37-65.54,19.77-98.53,1.66-9.9,3.82-19.75,4.5-29.84.12-.47.49-.52.89-.48,2.1-16.09,3.92-32.43,5.45-49.03l3.54-.24c2.6.67,5.69,2.21,8.09,2.84h.02Z"/>
  <path class="st6" d="M618.37,202.74c4.53,7.15-2.58,12.17-.5,19,1.57,5.18,13.58,10.18,13.76,12.73.17,2.4-7.3,5.9-5.85,15.89,1.77,12.19,6.5,18.1,5.17,32.43-.18,1.88-1.59,10.52-4.01,9.94-1.26-.3-6.65-7.5-10.45-2.44-1.41,1.87-2.95,18.89-4.87,24.23-1.81,5.02-9.6,19.91-15.24,19.01-4.63-.74.28-6.18.93-9.48.68-3.47.61-6.69-2.24-9.12-4.99-4.27-7.88,5.05-10.87,8.57-5.78,6.81-18.51,17.41-26.94,19.45-.11.03-.2-1.35-2.15-.94-4.49.96-9.26,3.51-14.03,1.88-.53-.68,7.04-4.74,4.02-12.29-1.81-4.52-7.04-2.26-10.31-2.38,3.76-3.52,8.86-3.89,13.19-5.99,9.89-4.8,38.14-26.42,43.17-35.97,8.94-16.98,17-47.88,10.58-66.5-.51-1.49-5.34-12.35-5.8-12.87-2.09-2.38-3.99.04-4.52-.42-.29-.25.06-7.22.17-7.81.95-5.04,7.02-7.38,6.12-13.02l3.08,11.43c3.77,2.66,8.24,1.49,12.46,2.03l5.13,2.64h0Z"/>
  <path class="st41" d="M192.33,576.97c1.8-2.27,4.65-3.84,8.54-4.74,3.87-.83,9.07-.79,13.03,0-3.53,22.78-7.42,45.52-11.68,68.21-3.73,32.21-7.32,64.42-10.79,96.64-.16,2.92-.33,5.91-.52,8.98-15.73-1.79-19.95-12.99-19.13-28.1,1.73-25.7,4.08-51.23,7.06-76.57,1.82-12.97,7.57-55.53,13.48-64.42h.01Z"/>
  <path class="st9" d="M758.59,667.92c4.35,2.78,6.46,4.32,7.19,10.42-3.18,36.78-7.67,73.41-13.48,109.9-2.83,14.95-5.88,44.95-23.37,47.37l-2.58-.89c7.2-27,12.55-54.18,16.07-81.54,2.19-13.45,4.7-27.21,6.29-40.74,2.5-14.46,3.61-30.51,4.02-45.77,1.6-.64,3.55-.23,5.86,1.24h0Z"/>
  <path class="st16" d="M468.27,349.59s-.7.61-.41.96c4.04,4.83,14.67,3.22,18.38,8.51-3.82-1.91-8.51-.61-11.85-1.15-19.25-3.11-38.61-16.05-55.12-26.31-1.08-1.2,2.49-1.97,3.2-2.32,2.42-1.18,17.86-7.52,19.14-7.24.86.19.86,1.96,1.47,2.41.44.32.87-.47.91-.43,3.21,3.18,5.86,8.34,8.96,11.87,4.88,5.55,10.17,8.85,15.3,13.71h.02Z"/>
  <path class="st19" d="M559.95,682.13c.03-.21-1.28-1.81-.93-4.18,2.52-17.22,6.26-34.29,8.06-51.64l-67.34-11.45c-5.37,41.43-12.32,82.82-18.88,124.11-.26.83-.56.82-.9,0,6.41-40.21,12.96-80.61,18.76-120.92.24-1.69.12-3.4.12-5.09l69.71,12.29-8.59,56.87h-.01Z"/>
  <path class="st21" d="M218.4,618.66c-7.36,43.44-13.44,87.37-15.16,131.56l38.52,11.49,9.9-61.58c-3.03,20.76-6.24,41.66-8.09,62.53l-42.21-11.4c2.52-44.95,8.57-89.37,16.15-133.55.56-.83.86-.51.9.95h0Z"/>
  <path class="st3" d="M228.29,544.76c2.3,1.16-1.17,6.43-.9,6.62,56.27,6.4,112.39,14.34,168.38,22.91,4.1.63,8.29,2.07,12.28,2.68.78.27.77.59,0,.95-60.69-9.37-121.45-18.71-182.46-25.59,1.11-2.43,1.82-5.05,2.7-7.57h0Z"/>
  <path class="st19" d="M217.5,617.71c2.59-15.07,4.46-30.47,8.18-45.38l48.45,5.59-17.07,92.84c.03-.17-1.24-1.37-.95-3.2,4.56-29.38,10.18-58.68,16.24-87.73l-45.84-6.65c-3.21,15.06-5.52,30.28-8.1,45.48l-.9-.95h0Z"/>
  <path class="st36" d="M664.21,619.6c.94.19,2.19.66,3.6.95.82.62.52.93-.9.95-50.88-10.45-102.49-17.98-153.7-26.53-.78-.27-.77-.59,0-.95,50.25,8.38,100.98,15.43,151,25.58h0Z"/>
  <path class="st31" d="M273.23,632.87c1.65.97.83,3.41.65,4.93-2.95,23.89-8.43,48.6-12.07,72.56-2.73,17.96-5.28,36.12-7.35,54.1l7.6,1.96-.5.99c-2.72-.71-6.18-.7-9-1.91,6.6-44.24,12.97-88.59,20.68-132.63h0Z"/>
  <path class="st11" d="M667.81,643.29c.78.27.77.59,0,.95-.81-.17-1.88.17-2.7,0l-1.41,1.62-11.42-2.52c-3.56,35.76-8.39,71.23-15.58,106.22-.23,1.13-.72,2.21-1.24,3.29s-1.15,2.15-1.81,3.18c-.26.83-.56.82-.9,0,6.91-38.05,13.34-76.27,16.3-114.98.39-1.21.68-1.18,1.72-1.17,3.47.03,12.76,2.58,17.03,3.41h.01Z"/>
  <path class="st28" d="M735.22,588.34c2.32,17,4.9,33.9,5.39,51.16-24.32-6.73-48.99-12.92-73.7-18l.9-.95c24.1,4.95,48.14,10.63,71.9,17.04-1.71-3.98-.61-8.51-.91-12.77-.82-11.89-2.88-23.78-4.48-35.54.04-.76.1-1.14.9-.95h0Z"/>
  <path class="st38" d="M480.85,738.98c-3.66,23.02-8.13,45.95-10.79,69.16l47.64,6.64c.24,1.58-1.7.9-2.69.94-14.53.57-31.96-6.16-46.74-6.64,3.12-23.48,7.97-46.75,11.69-70.1h.9-.01Z"/>
  <path class="st0" d="M550.06,791.08c1.69.92.73,3.32.5,4.77-1.26,7.89-3.48,15.64-4.09,23.65l61.11,7.58,4.46-24.22.94.53c-1.73,8.11-3.25,16.37-4.54,24.58l-63.77-7.53c1.69-9.8,3.55-19.6,5.39-29.37h0Z"/>
  <path class="st1" d="M178.85,641.39c1.54.98.95,3.53.8,5.08-2.12,22.02-6.16,44.3-7.08,66.46-.69,16.71-.37,29.15,17.96,32.67-.88-2.98.73-6.47.9-8.52.49-.7.79-.39.9.95-.32,3.04-1.54,6.11-.9,9.47-9.05-2.31-18.44-6.68-19.67-17.63-2.55-22.75,3.77-64.75,7.09-88.48h0Z"/>
  <path class="st3" d="M513.21,594.02v.95c-35.03-5.85-70.05-11.63-105.16-17.05v-.95c35.09,5.43,70.2,11.22,105.16,17.05Z"/>
  <path class="st15" d="M387.38,743.71c-2.61,16.68-4.77,33.5-7.2,50.21-18.52-3.92-37.28-7.06-55.72-11.37.88-1.65,3.29-.97,4.71-.72,16.69,3.02,33.12,8.35,50.05,10.11l8.16-48.24h0Z"/>
  <path class="st13" d="M394.57,773.08c-1.04,7.2-1.41,14.62-2.7,21.79l62.46,10.46,3.14-.05.92-8.04.89.48c-.56,3.05-.91,6.35-.9,9.48l-67.36-11.43c-.96-1.05,2.19-20.4,2.64-23.63.54-.78.84-.46.9.95h0Z"/>
  <path class="st8" d="M701.07,733.29c1.65.97.83,3.41.65,4.93-3.72,31.37-13.71,63.52-19.54,94.56-.38-.15-.74-.95-.88-.96,7.42-32.69,14.23-65.41,19.77-98.53h0Z"/>
  <path class="st10" d="M752.3,788.24l13.48-109.9c1.14,9.6-2.44,34-3.71,44.89-2.45,21.06-5.84,44.23-9.78,65.01h.01Z"/>
  <path class="st33" d="M735.22,588.34l-.9.95c-4.79-35.03-11.69-61.91-22.51-95.18-.4-1.24-1.65-3.48.04-4.3,12.02,32.23,18.7,64.35,23.37,98.53h0Z"/>
  <path class="st30" d="M203.12,640.45c-5.01,33.05-7.26,64.57-10.79,97.58l-.9-.95c2.85-33.31,5.76-63.54,10.79-96.64.26-.83.56-.82.9,0h0Z"/>
  <path class="st25" d="M633.65,756.03c.26,1.17.48,2.34.58,3.52s.18,2.31,0,3.4c-3.16,19.82-6.96,39.59-11.55,59.1l-2.31,5.11c4.99-.89,9.71.26,14.17,2.77.88.1,1.82-.1,2.7,0,2.37.4,2.3,1.15,0,1.89-6.24-.66-12.53-2.46-18.88-1.9,4.8-24.62,9.9-49.19,14.38-73.89h.91Z"/>
  <path class="st37" d="M192.33,576.97c1.42-2.14,5.23-5.68,7.64-5.68h15.73c-5.03,22.87-9.07,45.96-12.58,69.16h-.9c3.47-22.84,7.15-45.57,11.68-68.21h-13.03c-2.03,0-6.73,3.8-8.09,5.67l-.45-.93h0Z"/>
  <path class="st39" d="M405.35,702.03c-.62.48-.92-.15-.9-1.89,4.41-29.03,8.91-58.15,13.48-87.16,1.53.97.96,3.53.79,5.08-3,27.52-9.19,56.45-13.38,83.98h0Z"/>
  <path class="st27" d="M742.41,753.19c1.63,4.39-.48,11.34-1.33,16.13-1.89,10.75-4.08,21.52-6.3,32.2-2.04,9.77-6.06,21.85-7.3,31.26-.28,2.14-.4,1.67,1.45,2.84-.84.12-3.12.35-3.58-.46,7.4-26.87,12.58-54.4,17.06-81.97h0Z"/>
  <path class="st22" d="M584.22,628.13c18.47,3.5,37.34,5.42,55.73,9.48-2.27,10.57-2.36,21.51-3.6,32.21-1.38-.93-1.07-3.73-.95-5.24.27-3.55,3.59-24.99,2.7-25.98l-53.88-10.47h0Z"/>
  <path class="st40" d="M405.35,702.03c-3.59,23.64-7.38,47.4-10.79,71.06l-.9-.95c3.39-23.99,7.15-48.04,10.79-72l.9,1.89Z"/>
  <path class="st20" d="M696.57,692.55c-3.17,25.87-6.67,50.23-11.68,75.79-1.69-.92-.72-3.32-.5-4.77,3.77-24.39,8.28-47.16,11.28-71.97,1.16-1.25,1.37-.73.9.95h0Z"/>
  <path class="st14" d="M667.81,643.29c11.43,2.23,22.67,5.59,34.15,7.59-2.48,13.18-2.97,26.81-4.56,40.17-.09.78-.8,1.31-.83,1.51l-.9-.95c1.6-13.23,3.8-26.4,4.47-39.76-10.88-1.76-21.58-5.39-32.33-7.61v-.95h0Z"/>
  <path class="st18" d="M336.14,601.6c-2.72-1.85,1.46-11.68.9-12.31l-51.24-7.6c-.16-1.08.9-.87.9-.94l50.66,6.76c1.1.41,1.17.69,1.13,1.82-.08,2.39-1.83,8.98-2.35,12.25v.02Z"/>
  <path class="st29" d="M442.2,604.44c15.8,2.52,31.77,4.62,47.64,6.64-.89,5.99-1.77,12.02-2.7,18-2.87-3.09,2.35-13.64.8-16l-45.74-8.63h0Z"/>
  <path class="st5" d="M389.17,595.92c2.88.47,20.76,1.99,21.58,2.85-3.01,14.72-4.86,29.68-7.2,44.52-1.53-.97-.96-3.53-.79-5.08,1.38-12.71,5.24-25.64,6.17-38.48l-20.19-2.9.43-.91h0Z"/>
  <path class="st7" d="M676.8,804.35c-2.27,10.01-4.25,20.21-6.33,30.27-11.04-.84-22.21-1.62-33.21-2.79v-1.89c10.47,1.16,20.98,2.64,31.49,3.41l7.12-29.52.94.53h0Z"/>
  <path class="st24" d="M548.27,744.66c-3.86,21.17-7.51,42.38-11.68,63.48-1.69-.92-.73-3.32-.5-4.77,3.18-19.82,8.45-39.32,11.24-59.24l.94.53Z"/>
  <path class="st12" d="M721.74,805.3c-2.3,10.25-3.38,20.95-7.14,30.85-11.25,1.37-22.44-.23-33.67-.52-.9.11-.6-1.23-.54-1.91l18.39,1.93,14.74-.17,7.27-30.72.94.53h0Z"/>
  <path class="st7" d="M723.54,656.55c6.21,1.65,12.7,2.55,18.76,4.86,1.03,1.67-2.08,34.7-2.58,39.67-1.48-1.51-1.07-5.13-.93-7.15.72-10.5,2.48-21.04,2.64-31.61l-18.39-4.78.5-.99h0Z"/>
  <path class="st32" d="M758.59,667.92l-5.39-.94c.45,16.04-2.8,31.84-3.59,47.84l-.9-2.37c1.84-15.68,3.01-31.58,3.6-47.37,2.75-.48,4.34,1.6,6.29,2.84h0Z"/>
  <path class="st4" d="M715.45,653.71l-3.65,1.48c.08,16.39-3.2,32.48-4.46,48.74-.42-.12-.75-.95-.88-.96l4.5-50.21c1.46.38,3.03.57,4.49.94h0Z"/>
  <path class="st14" d="M665.11,644.24l-2.7,37.42c-5.41,50.16-14.76,99.82-27.86,148.28-5.08-.59-10.2-1.25-15.28-1.9,6.39-23.61,9.99-47.92,14.38-71.99,2.91-15.99,6.44-31.85,8.86-47.98,3.32-22.11,5.56-44.45,8.22-66.66.56-.59,12.28,2.41,14.38,2.84h0Z"/>
</svg>