<?xml version="1.0" encoding="UTF-8"?>
<svg id="Layer_1" xmlns="http://www.w3.org/2000/svg" version="1.1" viewBox="0 0 133.44 133.44">
  <!-- Generator: Adobe Illustrator 29.5.1, SVG Export Plug-In . SVG Version: 2.1.0 Build 141)  -->
  <defs>
    <style>
      .st0 {
        fill: #737e51;
      }

      .st1 {
        fill: #1e8249;
      }

      .st2 {
        fill: #16592a;
      }

      .st3 {
        fill: #c54e59;
      }

      .st4 {
        fill: #3fae64;
      }
    </style>
  </defs>
  <path class="st1" d="M106.85,42.08l-.05.42-6.18,5.09c-7.87,6.78-15.69,13.66-23.46,20.62l23.21,8.72.26.61-.05.42-42,35.27-5.39-25.63-30.78,25.85-7.78-9.32c-.16-.32.13-.68.35-.94l29.09-25.08c-4.57-1.97-9.11-3.91-13.63-5.84-3.21-1.16-6.39-2.4-9.58-3.59-.18-.2.02-.58.19-.79l41.21-34.94c.37-.1.67.05.91.34l5.11,24.6c10.03-8.29,20.01-16.63,29.94-25.02l.51-.13c.16-.11.41-.25.5-.15,2.13,2.23,4.78,5.2,6.65,7.63.58.52.8,1.13.99,1.86Z"/>
  <path class="st4" d="M20.84,68.67l-.24-.35,3-25.29L66,7.1l2.99,33.3,29.94-22.28.45,1.16c.2,4.47.14,8.86-.17,13.17l-.52.28c-.03.22-.05.43-.23.6-10.14,8.46-20.25,17.03-30.56,25.28l-5.27-25.39-41.81,35.45Z"/>
  <path class="st4" d="M14.61,104.13l-.24-.37,4.21-22.37,11.84-9.12s.48-.32.72-.14l13.89,5.77-30.42,26.23Z"/>
  <polygon class="st2" points="100.62 77.54 76.18 68.43 100.26 47.11 100.62 47.59 100.62 77.54"/>
  <path class="st2" d="M106.85,42.08l-8.15-9.34c.11-.74.21-2.18.25-2.98.2-3.81-.17-7.8,0-11.63,2.75,3.25,5.2,6.87,7.8,10.29l.11,13.67Z"/>
  <path class="st3" d="M68.28,71.55c.03.36.35.37.61.47,6.1,2.24,14.74,2.61,20.6,5.03,4.1,1.69,2.17,7.66-2.16,6.71l-22.64-5.51c.13,8.18,1.15,16.37,1.2,24.55,0,1.32.49,1.5-.35,3.01-1.52,2.75-5.8,2.14-6.49-.96l-1.43-23.97-32.71,27.66c-2.9,2.27-6.94-.55-5.67-3.99.31-.84,1.08-1.48,1.73-2.11,9.57-9.17,21.26-17.51,31.26-26.48.2-.18.45-.34.73-.35-.13-.38-1.09-.46-1.48-.55-7.39-1.79-14.8-3.49-22.16-5.39-4.04-1.88-2.31-7.65,2.18-6.73l25.54,6.2c-.3-6.67-.7-13.33-.96-20-.08-2.01-.96-6.07.66-7.55,2.03-1.85,5.16-1.01,5.99,1.62.54,7.6.69,15.25,1.37,22.82l33.1-27.99c3.83-1.94,7.14,2.8,4.13,5.81-10.81,9.07-21.58,18.18-32.31,27.35-.21.18-.44.36-.73.35Z"/>
  <path class="st0" d="M62.77,73.22l21.19,5.28c1.35.36,1.12,2.23-.36,2.05l-21.79-5.41c.44,3.46.29,6.97.47,10.43.25,4.94,1.03,10.48.99,15.32-.01,1.8-1.39,2.57-2.17.71-.25-8.66-.81-17.32-1.21-25.99l-32.71,26.83c-1.26,1.33-2.92.65-1.96-1.12l32.98-27.02c.11-.55-.24-.3-.56-.39-8.2-2.22-16.61-3.94-24.7-6.44-.43-.4-.38-1.25.11-1.56,1.16-.72,23.42,6.1,26.59,6.35l-.96-27.67c.61-.52,1.53-.3,1.68.48l1.56,26,33.68-27.65c1.08-1.06,2.37-.72,2.1.89l-34.94,28.91Z"/>
</svg>