<?xml version="1.0" encoding="UTF-8"?>
<svg id="Layer_1" xmlns="http://www.w3.org/2000/svg" version="1.1" viewBox="0 0 1024 1024">
  <!-- Generator: Adobe Illustrator 29.5.1, SVG Export Plug-In . SVG Version: 2.1.0 Build 141)  -->
  <defs>
    <style>
      .st0 {
        fill: #9f60c8;
      }

      .st1 {
        fill: #9b5ec5;
      }

      .st2 {
        fill: #050709;
      }

      .st3 {
        fill: #a565d2;
      }

      .st4 {
        fill: #a162cd;
      }

      .st5 {
        fill: #a160cc;
      }

      .st6 {
        fill: #955abd;
      }

      .st7 {
        fill: #72449b;
      }

      .st8 {
        fill: #9b5fc4;
      }

      .st9 {
        fill: #9e5fc8;
      }

      .st10 {
        fill: #a262ca;
      }

      .st11 {
        fill: #aa66d5;
      }

      .st12 {
        fill: #a161cc;
      }

      .st13 {
        fill: #9c60c9;
      }

      .st14 {
        fill: #945bbe;
      }

      .st15 {
        fill: #a061cb;
      }

      .st16 {
        fill: #9e60c9;
      }

      .st17 {
        fill: #704493;
      }

      .st18 {
        fill: #ae6bdc;
      }

      .st19 {
        fill: #a764cf;
      }

      .st20 {
        fill: #a766d5;
      }

      .st21 {
        fill: #a464ce;
      }

      .st22 {
        fill: #9f61c9;
      }

      .st23 {
        fill: #9c5ec5;
      }

      .st24 {
        fill: #a464cf;
      }

      .st25 {
        fill: #8754ac;
      }

      .st26 {
        fill: #a462cd;
      }

      .st27 {
        fill: #a162ca;
      }

      .st28 {
        fill: #9b5fc5;
      }

      .st29 {
        fill: #a463cf;
      }

      .st30 {
        fill: #0b0d13;
      }

      .st31 {
        fill: #9d60c8;
      }

      .st32 {
        fill: #a261cb;
      }

      .st33 {
        fill: #a363ce;
      }

      .st34 {
        fill: #a162cc;
      }

      .st35 {
        fill: #9b5ec8;
      }

      .st36 {
        fill: #9d60c9;
      }

      .st37 {
        fill: #9058bb;
      }

      .st38 {
        fill: #a865d5;
      }

      .st39 {
        fill: #512e72;
      }

      .st40 {
        fill: #9d5fc7;
      }

      .st41 {
        fill: #9f60c9;
      }

      .st42 {
        fill: #a564d0;
      }

      .st43 {
        fill: #a162cb;
      }

      .st44 {
        fill: #9e61c8;
      }

      .st45 {
        fill: #ab68dc;
      }

      .st46 {
        fill: #a765d2;
      }

      .st47 {
        fill: #a363d0;
      }

      .st48 {
        fill: #a564d1;
      }

      .st49 {
        fill: #6f4392;
      }

      .st50 {
        fill: #a462cf;
      }

      .st51 {
        fill: #4d2c6d;
      }

      .st52 {
        fill: #9e60ca;
      }

      .st53 {
        fill: #ae67dc;
      }

      .st54 {
        fill: #a463ce;
      }

      .st55 {
        fill: #a160cb;
      }

      .st56 {
        fill: #a263cd;
      }

      .st57 {
        fill: #5e3880;
      }

      .st58 {
        fill: #9e60c7;
      }

      .st59 {
        fill: #9a5fc5;
      }

      .st60 {
        fill: #ac69d8;
      }

      .st61 {
        fill: #9e5fc7;
      }
    </style>
  </defs>
  <path class="st30" d="M825.51,904.35c-.9,1.42,1.01,4.95.82,7.22-1.38,16.45-40.64,36.35-55.13,41.65-32.44,11.85-64.51,11.23-98.73,11.08-8.03,10.58-16.06,18.09-27.86,24.63-37.04,20.51-91.75,25.72-132.99,17.04-11.68-2.46-30.5-6.48-34.46-18.47-44.32-2.93-87.76,14.14-131.82,11.84-34.77-1.81-92.51-17.12-119.21-39.36-12.25-10.21-12.52-17.41-8.51-32.25-32.06-4.71-63.33-14.3-88.89-34.13-11.64-9.03-26.2-21.86-23.35-37.84,22.66-48.43,49.76-95.07,74.41-142.67,55.01-106.21,104.41-215.19,163.56-319.29-6.17-27.72-13.16-60.17-23.97-86.6-4.66-11.4-11.21-17.96-17.18-27.95-39.36-65.87,10.77-123.97,19.42-189.36,1.62-12.22,1.03-26.31,3.12-38.07,1.42-8.02,6.44-11.45,13.17-15.4,13.75-8.08,54.21-21.07,68.88-14.75,6.46,2.78,8,10.97,9.07,17.03,2.53,14.28,2.7,29.15,5.74,43.74,8.39,40.22,30.24,72.01,59.36,100.9,43.72-31.44,84.74-68.35,111.4-115.01,6.71-11.74,17.57-43.65,31.53-45.74,22.2-3.32,86.32,10.68,90.01,37.01,3.4,24.27-8.3,73.38-11.85,99.83-2.63,19.55-3.4,40.21-6.36,59.58-4.9,32.04-27.41,58.12-40.83,87.19-12.59,27.26-19.9,57.12-25.35,86.45,73.51,128.62,143.76,259.32,212.24,390.58,10.31,19.77,29.65,50.9,36.26,70.5,3.1,9.21,2.97,12.87-3.02,20.48-6.38,8.12-21.29,16.92-30.63,21.95-3.26,1.75-18.29,7.31-18.83,8.16Z"/>
  <path class="st49" d="M383.5,411.13c11.19,5.35,23.95,8.01,36.32,10.57,33.09,6.09,67.65,8.55,100.48,4.7,6.68-.29,6.27-1.54,10.9-2.35,11.9-.34,23.87-1.77,35.91-4.28l1.61.76c16.85,26.45,31.81,53.94,44.89,82.48,26.93,56.63,53.88,111.37,80.86,164.21l-1.06,3.37c5.37,17.31,11.83,34.53,19.37,51.66,4.01,10.42,8.05,20.83,13.32,30.52,8.75,19.97,17.77,39.94,26.63,59.87,4.23,13.63,9.48,25.76,15.74,36.39,6.24,13.84,13.64,27.03,19.37,41.09l8.08,15.95c-.05,2.34-1.13,4.46-3.24,6.36-4.91,4.34-7.68,5.51-13.32,8.22-9.63,5.86-20.55,9.76-31.58,12.25-.14.03,2.56-1.51.11.66-8.98,2.26-17.12,4.15-26.63,4.7-12.94-.73-26.25-.91-39.93-.54-.19,0,3.2-.23,3.61.54l-19.99,2.39-2.8-2.02c-15.28-47.45-27.8-95.69-41.37-143.6-3.42-15.48-7.46-31.13-12.11-46.96-6.05-18.96-11.18-38.36-16.26-57.62-.04-.15,1.6,2.51-.69.1-3.36-12.15-7.6-24.21-10.9-36.39-3.84-19.97-8.68-39.54-14.53-58.7-1.69-7.1-2.95-14.7-4.86-21.68-.4-1.45.11-3.04-2.4-1.8-.87,11.04-1.05,22.28-.52,33.72l.52-.85c2.05,1.28,1.16,4.82,1.21,7.04-.74,13.62.47,26.53,3.63,38.74,3.9,27.07,10.81,54.34,16.95,81.01,4.03,23.79,9.68,47.67,16.95,71.61,5.53,21.82,11.18,41.78,16.95,59.87,5.16,17.67,11.52,36.87,16.95,55.18,1.5,11.3,6.93,26.13,9.68,32.87.9,3.49,4.3,5.56.65,9.42-4.86,5.13-23.63,12.78-30.91,15.23-27.09,7.53-54.48,9.97-82.32,8.22-5.74-.69-10.97-2.02-15.74-3.52-3.05-.9-4.26-1.88-3.63-2.93l-1.18-.36c.38-26.44.78-52.74,1.18-78.88-.43,4.42-.84,9.11-1.21,14.09-2.24-4.83-1.2-12.04-1.21-17.61.8-9.75.96-19.69.46-29.44,0-.12.31,1.96-.46,2.43-2.23-3.09-1.19-8.86-1.21-12.91.49-.98.66-2.03.67-3.13.11-8.47.14-17.42-.09-25.98,0-.05-.26.37-.58.94-2.19-2.32-1.19-7.26-1.21-10.57.55-3.22.62-6.46.67-9.72.05-2.86.11-15.15-.67-9.06-2.11-1.6-1.18-5.64-1.21-8.22.23-31.96-1.72-64.45-5.86-97.49.2-16.35-.27-20.25-1.41-11.69-2.62-3.65-1.49-28.26-6.05-28.18-1.42,7.27-2.19,14.63-2.31,22.09l-1.32.8,1.29.36c-.41,7.05-.84,13.98-1.29,20.78-.38,9.37-.38,18.96,0,28.76-.02,3.68,1,9.04-1.21,11.74-1.23,11.57-1.23,22.92,0,34.05.02,13.87.17,27.81.02,41.69-.02,1.99.77,5.22-1.23,6.44-.33-.99-.59-1.75-.59-1.66-.23,21.7-.23,43.84-.09,65.12,0,1.22.11,2.36.68,3.46,0,11.14.14,22.32.02,33.48-.02,1.99.77,5.22-1.23,6.44-.38-6.18-.78-12.05-1.21-17.61,1.03,16.89,1.03,36.58,0,54-19.2-.07-38.57,1.1-58.11,3.52-24.69,2.94-47.78,9.2-73.23,8.21-25.51-1-85.48-12.52-103.52-30.51l-1.32-2.24c3.88-12.68,7.95-25.24,12.21-37.67,2.44-6.6,6.25-13.92,8.47-19.96,4.87-13.2,10.12-26.11,15.74-38.74,4.43-14.92,9.27-29.79,14.53-44.61,4.8-11.25,8.43-22.6,10.9-34.05,1.34-3.92,3.74-8.48,4.84-11.74,3.73-10.29,8.17-22.03,13.32-35.22,8.3-27.81,16.78-55.59,25.42-83.35,5.85-16.5,10.29-32.93,13.32-49.31,4.37-16.44,10.65-33.46,10.88-50.48-5.69,2-14.25,28.89-16.94,29.35-7.52,14.64-13.58,31.14-18.16,46.96-3.13,8.24-6.54,16.44-9.68,24.65-6.51,15.39-12.57,31.43-18.16,48.13-3.91,8.99-6.73,17.99-8.47,27-1.18,3.15-7.3,19.79-8.47,19.96-6.03,13.88-10.87,27.96-14.53,42.26-1,2.76-2.74,5.75-3.63,8.22-14.45,37.26-28.6,75.05-42.44,113.37l.07,2.86c-.88,2.26-1.33,5.77-4.12,5.82-5.5.1-18.92-2.77-24.98-4.02-21.35-4.41-52.58-16.05-67.62-31.86-4.46-4.69-5.5-5.23-3.76-11.03,5.75-9.61,10.59-19.39,14.53-29.35,4.64-8.73,9.87-17.29,14.53-25.83,16.56-32.68,33.51-65.16,50.84-97.44,17.84-33.86,35.15-67.81,51.93-101.85l.13-2.63c10.28-20.02,21.21-40.04,31.48-59.87l23-45.79c1.36-3.22,1.75-4.05,3.63-7.04l25.42-48.13c.64-1.27.34-2.59,1.11-4.09,1.88-3.68,15.57-28.53,17.04-29.44,2.25-1.38,12,3.11,15.12,4.23.72.26.56,1.1.62,1.13Z"/>
  <path class="st17" d="M649.83,50.71c8.46,1.37,16.93,3.55,25.4,6.54-1.51,1.77-2.31,3.51-2.4,5.2-13.69,19.95-25.67,41-31.48,64.57-6.03,18.65-7.3,41.52-5.56,61.87,0,.05.32-.32.72-.82l7.26,30.52c.41.93.94,2.48.32,2.96-3.84,2.97-6.62-8.74-6.85-10.97-36.47,50.98-62.69,117.48-74.29,181.99,1.89.33,2.35,1.33,2.13,3.29-6.34,1.27-12.98,2.56-19.37,3.52-51,5.39-102.39,4.47-152.53-7.04-6.83-1.88-13.23-4.13-19.37-7.04.27-.39-.76-.89-3.09-1.48-4.9-19.23-10.33-38.7-16.28-58.39-3.91-14.17-9.16-27.87-15.74-41.09-5.99-7.06-14.28-16.44-18.16-24.65-2.33-7.27-3.95-14.51-4.84-21.72-1.59-7.76-1.5-17.83,0-25.83-.87-2.68.21-7.87,2.42-9.98.11-.91-.41-2.39,0-4.7,3.93-13.07,8.37-25.99,13.32-38.74,4.7-10.49,7.93-21.05,9.68-31.7,1.01-3.69,2.91-8.46,3.63-11.74,3.94-17.81,6.64-36.38,8.09-55.72,2.3-2.83,5.66-4.61,10.07-5.33l20.54-5.63c-.92,19.47-1.63,39.49,1.25,58.46,1.64,1.4,1.01,3.06,1.21,4.7.46,8.57,1.31,16.55,2.53,23.96l1.1-.48c.58-.05.96.02,1.19.6,6.51,27.96,22.82,60.5,42.42,82.13,9.27,10.23,13.52,15.88,27.41,9.03,30-14.79,65.29-44.75,91.2-65.94,6.39-5.58,12.46-11.36,18.16-17.61,15.93-18.92,31.48-38.76,44.79-59.87,4.48-8.31,8.91-16.53,13.32-24.65l4.52-11.07c1.15-.79,15.28,1.42,17.27,2.85Z"/>
  <path class="st39" d="M569.93,418.17c6.19-1.21,34.94-9.98,38.5-7.97.55.31,5.75,8.82,6.8,10.41,25.35,38.69,49.4,85.72,71.55,126.67,55.75,103.04,108.54,207.68,163.5,311.12,1.92,3.77-4.76,6.9-7.8,8.97-9.76,6.64-21.81,11.38-32.36,16.77l-8.96-15.16c-22.22-46.09-45.63-91.88-70.21-137.36-3.45-.6-24.53-50-33.88-59.3-1.72-1.71-2.75-3.16-2.43.6-1.68.1-1.91-.87-1.21-2.35-3.12-6.94-8.49-14.6-11.93-21.88-36.3-76.66-73.26-153.04-112.76-228.18,2.35-1.75,2.76-2.53,1.21-2.35Z"/>
  <path class="st51" d="M565.09,395.87l-4.86-1.78c9.23-46.46,21.91-92.03,44.6-134.02,7.33-13.58,23.23-43.53,32.3-54.38.46-.54,1.48-1.62,1.79-1.19-.61,2.14,2.89,14.59,3.66,15.26s1.11-1.17,1.2-1.17c.7.03,5.09,10.14,6.29,12.1,1.86,3.03,8.43,10.4,8.08,12.85-24.01,45.07-46.54,92.18-54.44,142.81-12.88,2.92-25.66,6.93-38.61,9.52Z"/>
  <path class="st57" d="M677.68,144.63c-2.14,20.09-5.62,40.14-7.44,60.29l-3.45,14.84c-7.83-28.22-7.23-52.7-1.22-81,1.54-5.74,12.43-40.85,15.94-42.25.57-.23,1.21-.29,1.87-.3-2.65,16.23-4.55,32.37-5.71,48.43Z"/>
  <path class="st14" d="M545.72,399.39c-49.87,7.54-103.85,6.37-152.53-7.04,1.16-2.22,4.08-.78,5.85-.4,51.87,11.06,87.4,11.6,140.19,6.41,1.99-.2,5.25-.97,6.5,1.04Z"/>
  <path class="st7" d="M801.16,868.99l-70.21-137.36c.08.01-.18-1.38,1.2-1.17,21.47,45.22,46.27,88.92,68.43,133.82.59,1.2,3.02,4.01.59,4.71Z"/>
  <path class="st25" d="M423.44,151.68c.44.41,4.2,8.46,5.57,10.46,9.02,13.19,19.06,26.07,30.76,37.09-1.44.06-5.04,4.06-5.44,4.06-3.37.06-31.01-44.36-33.28-51.04-.16-1.01,2.3-.66,2.39-.57Z"/>
  <path class="st31" d="M276.97,782.11c-14.08,38.72-27.47,77.8-42.37,116.23-2.45-1.25-.82-3.81-.26-5.52,11.97-36.07,27.91-72.38,40.53-108.63.27-.78.93-5.01,2.09-2.07Z"/>
  <path class="st40" d="M214.02,704.63c17.38-34.49,34.3-69.91,52.06-104.49,2.47,1.1.52,3.63-.16,5.13-14.93,32.98-34.83,67.12-51.9,99.35Z"/>
  <path class="st6" d="M677.68,144.63c.03-.27-1.59-1.87-1.23-5.23,1.5-14.23,4.93-28.59,6.06-42.9l-9.72,20.5-5.95,22.42-1.27-.66c1.91-8.99,3.61-17.88,7.24-26.44l13.33-28.74-8.46,61.04Z"/>
  <path class="st4" d="M503.35,789.15c-.4-36.51-5.58-72.74-7.26-109.18l1.2-4.69c.94,24.51,4.42,48.94,6.05,73.38.49,7.31.97,14.94,1.28,22.24.24,5.54.73,13.09-1.27,18.25Z"/>
  <path class="st41" d="M163.18,802.07c15.69-31.74,31.58-63.49,48.18-94.8.82-1.55,2.52-2.38,2.67-2.65-16.54,32.82-33.38,65.38-50.84,97.44Z"/>
  <path class="st38" d="M482.77,925.34c.09,12.51-.07,25.07,0,37.57-19.8-.25-39.67,0-59.33,2.34l22.41-3.51h35.7v-54.02h1.2c.05,5.86-.03,11.75.01,17.61Z"/>
  <path class="st8" d="M469.46,426.39c11.19.94,22.95,1.47,33.9,0,5.62-.07,11.34.24,16.95,0-5.03,1.15-12.38,2.18-17.5,2.4-26.65,1.14-57.16-.84-82.98-7.09,16.25,2.55,33.22,4.15,49.63,4.7Z"/>
  <path class="st29" d="M350.82,635.36c-7.51,27.85-16.32,55.85-25.42,83.35-1.05,1.43-1.45,1.04-1.21-1.17,9.1-27.56,18.32-55.58,26.63-83.35v1.17Z"/>
  <path class="st46" d="M483.98,818.5c.04,22.29,0,44.63,0,66.92-2.01-1.22-1.21-4.45-1.23-6.44-.43-33.65.37-67.33.02-100.98,1.71-1.9,1.19,1.31,1.22,2.32.39,12.68-.02,25.5,0,38.17Z"/>
  <path class="st35" d="M611.09,975.82c-26,8.76-55,11.49-82.32,8.22,4.74-3,11.02-.08,16.29.06,20.42.54,41.1-2.63,60.56-8.31,1.6-.47,4.4-2.23,5.47.03Z"/>
  <path class="st37" d="M641.36,127.02c-2.01,8.15-4.24,20.48-4.83,28.78-.75,10.51.53,21.69-.01,32.27-.07,1.31.84,3.83-1.2,3.52-2.46-21.87-.46-43.9,4.78-65.22l1.26.65Z"/>
  <path class="st8" d="M597.78,803.24c-6.15-21.63-13.3-43.62-17.63-65.69-.35-1.8-1.56-4.79.68-5.92,5.49,23.85,11.09,47.97,16.95,71.61Z"/>
  <path class="st3" d="M384.71,107.06c-.07,1.31.84,3.83-1.2,3.52-1.42-20.31-1.36-40.66-1.23-61.04-6.34,1.92-12.95,3.09-19.36,4.69,7.18-3.33,14.02-4.84,21.78-7.04-1.76,13.73-1.67,28.9-1.25,42.9.17,5.63,1.6,10.65,1.26,16.97Z"/>
  <path class="st60" d="M508.19,912.42c.05-4.68-.04-9.4.01-14.08h1.2s0,79.24,0,79.24c0,1.1,3.58,1.97,4.87,1.8l-1.24,1.14c-1.41-.45-5.73-.19-6.14-1.94,2.43-21.84,1.08-44.13,1.3-66.15Z"/>
  <path class="st43" d="M486.4,724.58c-1.94-7.15-1.56-16.61-1.3-24.15.07-2.04,1.3-4.11,1.3-4.61v-21.13c0-3.25.99-11.06,1.36-15.11.18-1.94.77-6.48,2.27-7.78-.66,8.39-.68,16.88-1.17,25.28-.09,1.53-1.25,3.06-1.25,3.48v23.48c0,5.82-1.18,13.72-1.21,20.54Z"/>
  <path class="st12" d="M362.92,54.23c-2.28,1.06-8.87,3.99-9.45,5.51-1.86,18.81-3.69,37.6-7.51,56.13l-1.2-.59c2.06-9.33,3.44-20.52,4.69-30.08.82-6.31.29-25.44,4.5-28.5,2.42-1.76,6.19-1.77,8.97-2.46Z"/>
  <path class="st23" d="M318.13,202.16c-.33,2.63-2.42,8.27-2.42,9.98v25.83c0,3.84,3.58,12.26,4.87,16.42.48,1.55,2.3,4.26-.03,5.3-7.28-15.42-7.95-33.18-5.91-49.75.21-1.7.25-8.75,3.49-7.78Z"/>
  <path class="st33" d="M580.83,654.14c-5.28-19.51-9.85-39.04-14.53-58.7l1.26-.65c3.12,18.17,9.75,35.78,13.68,53.68.38,1.71,1.88,4.54-.42,5.67Z"/>
  <path class="st54" d="M354.45,325.43c3.93,12.43,8.15,24.76,11.76,37.31,1.46,5.07,3.21,16.99,5.12,20.64.9,1.72,5.53-.16,2.49,1.92-.63-.3-2.48.45-3.48-.12-4.32-19.9-11.02-39.18-17.1-58.58-.14-1.22-.07-1.63,1.21-1.17Z"/>
  <path class="st8" d="M614.73,863.12c-1.67,2.55-1.46-1.16-1.77-2.38-4.95-19.22-10.4-38.22-15.18-57.49,5.56,19.55,11.17,40.11,16.95,59.87Z"/>
  <path class="st4" d="M608.67,748.06c-.34,1.03-.75,1.01-1.21,0-5.34-19.14-10.45-38.38-15.74-57.53l1.25-.64c5.83,19.21,10.24,38.88,15.7,58.17Z"/>
  <path class="st22" d="M694.63,672.93c6.54,15.02,12.2,33.66,18.16,49.31-6.7-15.19-14.32-30.32-19.4-46.35-.49-1.55-2.3-4.27.03-5.3.39.87.91,1.66,1.21,2.35Z"/>
  <path class="st26" d="M324.19,487.44l25.42-48.13c-8.33,16.38-15.68,32.65-25.42,48.13Z"/>
  <path class="st32" d="M297.55,540.27l23-45.79c-6.74,15.9-15.15,30.62-23,45.79Z"/>
  <path class="st36" d="M330.24,636.53c-6.16,16.08-11.62,32.2-18.16,48.13,4.77-13.92,9.46-27.86,14.5-41.7l3.66-6.43Z"/>
  <path class="st52" d="M358.08,564.92c-5.88,15.71-12.2,31.27-18.16,46.96-2.05-2.68,1.57-9.02,2.72-12.04,1.81-4.73,12.77-34.79,14.24-36.09.8-.7,1.11,1.19,1.2,1.17Z"/>
  <path class="st42" d="M350.82,635.36v-1.17c4.75-15.89,9.06-32.1,13.32-48.13,2.37,1.19.81,3.9.36,5.61-3.85,14.7-8.32,29.45-13.67,43.69Z"/>
  <path class="st34" d="M620.78,795.02c-4.43-15.63-8.96-31.32-13.32-46.96h1.21c3.91,13.78,8.84,27.43,12.46,41.34.45,1.71,2.01,4.43-.36,5.61Z"/>
  <path class="st41" d="M296.34,799.72c-3.27,15.13-10.46,29.54-14.53,44.61-.35.87-.76.85-1.21,0,5.45-15.11,10.4-30.61,15.74-45.79v1.17Z"/>
  <path class="st15" d="M354.45,325.43l-1.21,1.17c-4.44-14.16-7.5-29.02-14.53-42.26,8.78,10.34,11.31,27.11,15.74,41.09Z"/>
  <path class="st16" d="M295.13,731.63c-4.51,14.15-9.45,28.3-14.53,42.26-2.33-1.04-.52-3.76-.03-5.3,4.06-12.85,9.92-25.11,13.38-38.15.52.15,1.09,1.2,1.18,1.19Z"/>
  <path class="st16" d="M281.81,844.33l-15.74,38.74c4.74-12.84,9.97-26.1,14.53-38.74h1.21Z"/>
  <path class="st9" d="M246.71,942.95c-.5-.5-1.84-.49-2.25-1.96,3.27-12.65,8.53-25.47,13.15-37.96,2.32,1.03.54,3.76.03,5.3-2.61,7.96-10.71,23.16-11.7,29.89-.42,2.87,2.82,3.79.77,4.72Z"/>
  <path class="st5" d="M318.13,197.46c2.45-13.9,7.99-25.55,13.32-38.74-4.13,13-8.43,26-13.32,38.74Z"/>
  <path class="st56" d="M569.93,418.17c4.65-.44,1.85,1.78-1.21,2.35-9.31,1.73-21.65,3.62-31.04,4.56-1.99.2-5.24.98-6.49-1.04,12.81-2.24,25.93-3.36,38.74-5.87Z"/>
  <path class="st59" d="M768.47,849.03c-1.06,2.89-1.89-1.15-2.22-1.95-4.09-9.92-9.25-19.43-13.35-29.33-.62-1.5-2.72-3.96-.17-5.11,5.36,12.05,10.32,24.38,15.74,36.39Z"/>
  <path class="st50" d="M325.4,718.71c-3.63,10.98-7.97,21.82-11.53,32.86-.41,1.28-.09,4.91-1.79,2.36,4.02-11.86,8.13-24.33,12.11-36.39l1.21,1.17Z"/>
  <path class="st21" d="M419.82,421.69c-10.45-1.64-20.69-3.52-30.56-7.34l-5.76-3.22c11.5,4.05,24.45,7.69,36.32,10.57Z"/>
  <path class="st20" d="M563.88,650.62l-1.17.56c-.84-9.76-2.94-19.58-3.66-29.33-.21-2.87-.89-7.69,1.19-9.97.31,12.52,1.85,26.33,3.63,38.74Z"/>
  <path class="st28" d="M641.36,951.16l-1.25.64c-2.55-9.5-5.8-18.76-8.44-28.23-.43-1.55-2.39-4.2.01-5.28,3.25,10.94,6.83,21.81,9.68,32.87Z"/>
  <path class="st48" d="M296.34,799.72v-1.17c3.82-10.87,7.16-21.98,10.9-32.87,2.33,1.04.52,3.76.03,5.3-3,9.49-6.32,20.01-10.93,28.74Z"/>
  <path class="st61" d="M148.65,827.9c2.43.7,0,3.52-.59,4.71-3.78,7.61-7.98,15.05-11.75,22.66-.44.88-1.06,4.88-2.19,1.98,2.59-8.67,10.07-20.96,14.53-29.35Z"/>
  <path class="st1" d="M779.37,920.64c-8.51,7.08-20.8,10.23-31.48,12.91l-.66-1.21c11.01-2.68,21.99-6.83,32.14-11.7Z"/>
  <path class="st55" d="M331.45,158.72c3.33-10.49,6.79-21.09,9.68-31.7,2.31,1.15.86,3.92.37,5.63-2.61,9.14-6.6,17.49-10.06,26.07Z"/>
  <path class="st44" d="M726.1,752.76l-5.41-9.43c-3.3-6.78-5.25-14.11-7.91-21.09,4.41,10,8.88,20.4,13.32,30.52Z"/>
  <path class="st18" d="M485.19,736.32c.19,11.32-.02,22.72,0,34.05-2.01-1.22-1.21-4.45-1.23-6.44-.15-11.93.15-23.9.03-35.82,2.28.67,1.16,6.22,1.2,8.21Z"/>
  <path class="st0" d="M649.83,49.54c9.03,1.78,17.64,5.16,26.63,7.06.29.28-3,4.93-3.63,5.86-3.17-1.09,1.74-4.1,1.21-4.68-.84-.92-21.4-6.5-24.21-7.06-1.06-.33-1.04-.73,0-1.17Z"/>
  <path class="st54" d="M628.04,58.93c-1.36,7.17-9.42,18.47-13.32,24.65,3.66-9.33,8.74-18.09,13.32-27,.84.12.84.91,0,2.35Z"/>
  <path class="st45" d="M721.26,938.25c-11.25.65-24.96.39-36.32,0-1.42-.05-5.08.9-4.84-1.16,11.49.09,23.01-.15,34.51-.03,2.05.02,5.38-.75,6.64,1.19Z"/>
  <path class="st47" d="M559.04,604.84c-.05,1.38.93,4.93-1.2,4.69.54-10.98-.76-22.59-.06-33.5.1-1.6-.65-3.12,1.25-4.07-.29,10.92.4,21.96,0,32.87Z"/>
  <path class="st53" d="M505.77,854.9c-.05-9.37-.13-18.81,0-28.18.03-2.37-1.11-8.19,1.2-9.39-.08,10.36.15,20.75.03,31.12-.02,1.99.77,5.22-1.23,6.44Z"/>
  <path class="st10" d="M649.83,49.54v1.17c-2.26-.45-16.19-2.82-16.87-2.33-.6.44-3.15,9.17-4.92,10.54.14-.72-.09-1.59,0-2.35.87-1.7,2.94-9.08,4.44-9.44,5.81.06,11.71,1.28,17.35,2.4Z"/>
  <path class="st60" d="M506.98,894.81c-.02-8.98-.12-18.03,0-27,.03-2.37-1.11-8.19,1.2-9.39-.73,11.9,1.57,24.82-1.2,36.39Z"/>
  <path class="st13" d="M303.61,711.67c-2.33-1.04-.52-3.76-.03-5.3,2.37-7.5,5.54-14.46,8.51-21.7-2.98,8.7-5.18,18.19-8.47,27Z"/>
  <path class="st58" d="M792.68,912.42l2.25-6.17c-3.4-5.01-4.93-10.83-7.1-16.14,1.92,3.4,9.22,14.28,9.49,17.24.22,2.43-3.15,3.74-4.65,5.07Z"/>
  <path class="st19" d="M551.78,161.07l18.16-17.61c-6.99,8.3-9.77,10.75-18.16,17.61Z"/>
  <path class="st49" d="M503.35,426.39c-1.26,1.94-4.59,1.17-6.64,1.19-8.74.09-18.94.88-27.26-1.19,11.2.37,22.68.14,33.9,0Z"/>
  <path class="st27" d="M389.56,135.24c-.19.02-.66,1.02-1.19,1.19-.28-7.78-5.37-17.09-2.44-24.67.96,7.88,2.48,15.64,3.63,23.48Z"/>
  <path class="st11" d="M504.56,816.16c-.04-6.24-.13-12.55,0-18.78.04-1.69-1.04-6.8,1.2-7.04-.71,8.31,1.57,17.89-1.2,25.82Z"/>
  <path class="st2" d="M513.04,300.77c-.26-1.81-15.29-6.47-14.52-11.74,28.08,11.62,58.39,12.64,87.14,2.35,4.46,3.95-21.03,12.53-22.99,12.91-15.48,3.71-34.59,2.64-49.63-3.52Z"/>
  <path class="st24" d="M562.67,304.29c5.87-.28-.53,2.35-3.03,2.35h-30.26c-4.48,0-12.48-4.79-17.57-4.72.16-.51,1.24-1.05,1.23-1.15,15.95,4.37,33.17,6.69,49.63,3.52Z"/>
</svg>