<?xml version="1.0" encoding="UTF-8"?>
<svg id="Layer_1" xmlns="http://www.w3.org/2000/svg" version="1.1" viewBox="0 0 1536 1024">
  <!-- Generator: Adobe Illustrator 29.5.1, SVG Export Plug-In . SVG Version: 2.1.0 Build 141)  -->
  <defs>
    <style>
      .st0 {
        fill: #714b13;
      }

      .st1 {
        fill: #ae570e;
      }

      .st2 {
        fill: #060b08;
      }

      .st3 {
        fill: #6a4616;
      }

      .st4 {
        fill: #353e39;
      }

      .st5 {
        fill: #bb8b3d;
      }

      .st6 {
        fill: #6e4611;
      }

      .st7 {
        fill: #734e1b;
      }

      .st8 {
        fill: #2d3530;
      }

      .st9 {
        fill: #6a4619;
      }

      .st10 {
        fill: #c14f3c;
      }

      .st11 {
        fill: #2a322e;
      }

      .st12 {
        fill: #57611d;
      }

      .st13 {
        fill: #a94a40;
      }

      .st14 {
        fill: #644415;
      }

      .st15 {
        fill: #848a20;
      }

      .st16 {
        fill: #6d4919;
      }

      .st17 {
        fill: #2c1c05;
      }

      .st18 {
        fill: #e3a475;
      }

      .st19 {
        fill: #492d07;
      }

      .st20 {
        fill: #b95242;
      }

      .st21 {
        fill: #6d4716;
      }

      .st22 {
        fill: #070b09;
      }

      .st23 {
        fill: #c18d3c;
      }

      .st24 {
        fill: #09100a;
      }

      .st25 {
        fill: #c04f3c;
      }

      .st26 {
        fill: #dba452;
      }

      .st27 {
        fill: #ab550e;
      }

      .st28 {
        fill: #402c0a;
      }

      .st29 {
        fill: #916429;
      }

      .st30 {
        fill: #ad570f;
      }

      .st31 {
        fill: #deb169;
      }

      .st32 {
        fill: #c24f3c;
      }

      .st33 {
        fill: #e3a374;
      }

      .st34 {
        fill: #2b332f;
      }

      .st35 {
        fill: #724c19;
      }

      .st36 {
        fill: #657125;
      }

      .st37 {
        fill: #704c18;
      }

      .st38 {
        fill: #de7718;
      }

      .st39 {
        fill: #9a692b;
      }

      .st40 {
        fill: #3c2407;
      }

      .st41 {
        fill: #c2513d;
      }

      .st42 {
        fill: #3b2a0a;
      }

      .st43 {
        fill: #c48f3f;
      }

      .st44 {
        fill: #2d1d07;
      }

      .st45 {
        fill: #271d06;
      }

      .st46 {
        fill: #0a1109;
      }

      .st47 {
        fill: #2c332e;
      }

      .st48 {
        fill: #c14e3b;
      }

      .st49 {
        fill: #6d4a1a;
      }

      .st50 {
        fill: #2c3531;
      }

      .st51 {
        fill: #acab3c;
      }

      .st52 {
        fill: #c48f3e;
      }

      .st53 {
        fill: #e58272;
      }

      .st54 {
        fill: #0b100b;
      }

      .st55 {
        fill: #714b18;
      }

      .st56 {
        fill: #606c22;
      }

      .st57 {
        fill: #2c3430;
      }

      .st58 {
        fill: #303834;
      }

      .st59 {
        fill: #6f4816;
      }

      .st60 {
        fill: #0b110a;
      }

      .st61 {
        fill: #77362b;
      }

      .st62 {
        fill: #c19653;
      }

      .st63 {
        fill: #7f861f;
      }

      .st64 {
        fill: #2a332e;
      }

      .st65 {
        fill: #09100c;
      }

      .st66 {
        fill: #b8492c;
      }

      .st67 {
        fill: #c89648;
      }

      .st68 {
        fill: #6e4917;
      }

      .st69 {
        fill: #674717;
      }

      .st70 {
        fill: #c0503f;
      }

      .st71 {
        fill: #e9ba48;
      }

      .st72 {
        fill: #6b4e22;
      }

      .st73 {
        fill: #2a332f;
      }

      .st74 {
        fill: #ae5046;
      }

      .st75 {
        fill: #76501c;
      }

      .st76 {
        fill: #c7994f;
      }

      .st77 {
        fill: #2c342f;
      }

      .st78 {
        fill: #677224;
      }

      .st79 {
        fill: #0a1009;
      }

      .st80 {
        fill: #262e2a;
      }

      .st81 {
        fill: #6a421a;
      }

      .st82 {
        fill: #66471a;
      }

      .st83 {
        fill: #bb8839;
      }

      .st84 {
        fill: #2f3733;
      }

      .st85 {
        fill: #b88638;
      }

      .st86 {
        fill: #2b3430;
      }

      .st87 {
        fill: #57621d;
      }

      .st88 {
        fill: #2d3531;
      }

      .st89 {
        fill: #a75510;
      }

      .st90 {
        fill: #392809;
      }

      .st91 {
        fill: #e68474;
      }

      .st92 {
        fill: #848921;
      }

      .st93 {
        fill: #61451e;
      }

      .st94 {
        fill: #2c1d06;
      }

      .st95 {
        fill: #2b342f;
      }

      .st96 {
        fill: #b07f33;
      }

      .st97 {
        fill: #5f6b21;
      }

      .st98 {
        fill: #7b3c26;
      }

      .st99 {
        fill: #14180d;
      }

      .st100 {
        fill: #bf4c3a;
      }

      .st101 {
        fill: #2c3530;
      }

      .st102 {
        fill: #864138;
      }

      .st103 {
        fill: #ad5811;
      }

      .st104 {
        fill: #5e6b21;
      }

      .st105 {
        fill: #313935;
      }

      .st106 {
        fill: #f5f5f5;
      }

      .st107 {
        fill: #b7482b;
      }

      .st108 {
        fill: #ab560f;
      }

      .st109 {
        fill: #b78537;
      }

      .st110 {
        fill: #2f2005;
      }

      .st111 {
        fill: #c89442;
      }

      .st112 {
        fill: #bd8a3a;
      }

      .st113 {
        fill: #303934;
      }

      .st114 {
        fill: #6b4c20;
      }

      .st115 {
        fill: #533a0f;
      }

      .st116 {
        fill: #b58334;
      }

      .st117 {
        fill: #b88737;
      }

      .st118 {
        fill: #0a1209;
      }

      .st119 {
        fill: #2d3631;
      }

      .st120 {
        fill: #732615;
      }

      .st121 {
        fill: #372506;
      }

      .st122 {
        fill: #2f3834;
      }

      .st123 {
        fill: #bf4d3a;
      }

      .st124 {
        fill: #45320e;
      }

      .st125 {
        fill: #c69140;
      }

      .st126 {
        fill: #aead3d;
      }

      .st127 {
        fill: #2c332f;
      }

      .st128 {
        fill: #c04e3b;
      }

      .st129 {
        fill: #e2a273;
      }
    </style>
  </defs>
  <path class="st24" d="M1536,158.01v-20c-95.33,45.9-195.88,81.4-299.99,102l-2.93-43.33c-2.03-3.22-16.42-.12-20.44.48-5.67.85-25.81,3.74-28.12,8.87-2.35,5.24,7.03,40.42,5.48,41.98-64.93,10.28-129.99,19.83-195.51,26.02l-1.5-1.48c.99-4.38-1.08-9.1-1.07-13.03.02-18.78,3.37-42.66,2.07-60.99-.35-4.84-.4-9.11-5.26-10.73-2.77-.92-11.85-1.72-15.18-1.82-6.93-.21-23.05.07-28.04,5.04-2.73,2.72-5.67,8.59-5.53,12.46.81,21.09,6.43,44.69,8.02,66.05.19,2.49-.06,5.01.02,7.5l-110,5.99c-1.51-2.16,13.44-23.9,13.77-27.67.5-5.88-15.79-9.99-19.36-7.41-1.86,1.35-1.46,4.55-3.41,5.07,2.84-13.99,9.11-27.04,12.71-40.78,3.27-12.5,6.97-19.56-9.21-20.3-1.86-.09-3.63,1.02-5.11.99-3.59-.06-6.59-1.5-10.83-.84-13.84,2.16-13.69,27.81-15.45,38.32-16.35,3.39-18.33,3.06-15.95,19.95,1.58,11.2,5.12,22.28,5.85,33.66-5.48.24-11.06-.31-16.54-.04-11.38.55-22.71,1.83-33.92,2.08-32.93.74-65.68-1.2-98.54-1.05l6.02-79.52c-.03-4.73-5.36-8.82-9.79-9.29-2.46-.26-4.36.86-6.69.87-7.19.02-33.95-1.94-37.02,4.97l3.48,80.98-30.46-2.05c-35.27-.81-70.59-4.29-105.54-8.97,5.15-17.39,13.86-34,19.27-51.22,1.45-4.62,4.62-11.74,1.31-15.85-3.48-4.32-11.73-7.95-17.16-8.84-2.27-.37-4.7.22-6.91-.09-16.85-2.3-24.73-7.68-30.21,11.8-5.39,19.15-7.45,40.77-12.3,60.21-57.88-8.65-115.38-19.35-171.99-34.02l19.7-59.69c.12-2.74-10.76-13.56-13.69-14.81-2.58-1.09-7.69-1.9-10.64-2.36-5.38-.84-29.85-3.57-32.96-1.23-4.47,3.39-8.84,55.68-11.9,64.08C125.63,198.02,62.32,161.84,0,126.01v21c60.5,36.05,123.76,70.03,191.95,89.04.93,3.46-1.16,7.19-.92,10.34.16,2.09,2.03,4.43,1.93,6.16-.08,1.51-2.47,3.39-3.29,5.62-.9,2.47-1.85,13.08-2.81,13.69-22.51.68-47.14,9.24-67.24,19.26-42,20.94-70.88,65.31-101.67,99.32-1.59,1.98-1.08,4.36-.47,6.59,2.02,7.43,23.78,35.57,30.01,41.98,17.41,17.89,42.21,28.9,65.58,36.59l-37.84,208.19c1.91,3.28,30.75,14.25,36.25,16.23,72.77,26.18,160.53,40.83,238.01,37.97,8.93-.33,21.09-1.04,29.88-2.12,3.87-.47,15.68-2.4,18.12-4.88,2.8-2.86,1.22-18.55,1.47-23.53,2.57-50.5,8.22-103.66,15.17-153.83,1.42-10.21,3.65-20.35,4.92-30.57,30.41,1.38,62.32-8.29,87.68-24.83,4.17-2.72,23.55-17.13,23.99-20.84.42-3.6-8.24-24.27-10.23-29.37-12.34-31.69-30.5-84.81-53.46-108.54-7.18-7.42-16.02-12.51-23.84-19.1l10.94-28.81,145.44,11.37v19.13c-20.29,5.28-38.98,3.11-46.05,26.94-6.52,21.98,1.04,50.41-.52,74.48-2.37,36.59-23.12,76.39-17.85,112.88,3.42,23.69,13.55,39.73,20.88,61.12,12.44,36.27-1.38,56.95-10.74,90.3-9.46,33.71-10.55,64.15,2.27,97.17,20.66,53.22,47.98,28.09,86.47,12.56,12.4-5,42.15-11.68,47.85-23.15,5.04-10.16-7.64-38.76-8.73-51.99-2.44-29.56,19.61-60.67,23.75-90.99,5.84-42.82-13.3-64.97-20.56-103.19-4.01-21.09-5.07-42.02-.82-63.19,7.95-39.62,28.74-75.19,5.68-114.66-8.79-15.05-21.28-23.3-38.74-25.26-1.29-7.24.97-13.97-1.43-21.06l152.89-.9c4.29,12.18-2.81,8.65-10.43,12.86-29.07,16.07-24.14,74.57-23.43,102.49,1.9,74.04,9.63,148.9,22.1,221.9,1.74,10.17,8.17,51.4,13.81,56.91.68.66.91,1,1.95,1.3,8.08,2.32,9.42-2.08,11.6-8.56,8.57-25.48,14.62-61.04,20.02-87.98,12-59.86,22.81-122.03,30.48-182.52,3.75-29.57,17.28-90.06-17.02-104.99-2.28-.99-11.62-3.03-11.99-3.53-.27-.36,1.96-7.13,1.01-8.98l118-6.01c-1.4,4.32,1.75,14.11.84,17.28-.86,2.99-11.61,9.74-14.24,12.82-7.23,8.45-2.82,17.29.37,26.44,4.62,13.26,11.24,26.83,16.8,39.76-23.82,117.61-30.56,238.03-44.89,357.07-2.05,17.06-7.13,34.3-5.21,51.47,19.35,22.93,43.4,42.14,61.82,66.18,4.8,4.42,9,.19,12.99-3.04,9.11-7.38,21.03-18.26,29.54-26.46,8.74-8.42,17.09-18.7,25.23-27.77,4.45-70.6,8.16-143.54,1.75-214.24-4.81-52.98-10.74-112.9-22.48-164.52-2.68-11.8-12.27-37.73-12.41-47.6-.07-5.37,4.45-18.57,5.61-25.18,2.38-13.66,7.81-34.76-3.17-45.25-2.45-2.34-9.83-4.85-10.42-6.64-.89-2.68,2.17-10.62.88-14.33,49.31-3.54,98.53-9.54,147.36-17.14,16.77-2.61,33.43-6.03,50.16-8.88,1.28,0,1.91.51,2.31,1.71,1.48,4.47.63,11.26,2.96,16.03.81,1.65,3.97,4.16,3.97,4.77,0,.47-1.58,1.71-1.72,3.05-.82,7.86,2.48,20.05,3.81,28l-.81,1c-29.87,5.79-61.64,6.35-91.25,12.76-3.8.82-11.06,1.18-11.5,5.33,7.38,125.62,14.37,251.21,22.7,376.88.31,4.63-.31,9.35.02,13.98.25,3.57.76,10.95,2.93,13.07.91.89,9.62,6.25,10.38,6.23,1.65-.05,6.77-2.04,9.5-2.47,101.53-15.95,202.56-35.47,304.01-51.99l5.04-1.46c1.77-2.73-4.19-41.71-4.87-48.37-8.67-84.97-16.24-170.13-25.01-254.99-3.23-31.25-6.96-62.49-9.99-93.76-1.33-2.45-9.75-1.89-12.5-1.73-32.74,1.85-67.55,9.53-100.13,13.87-19.38,2.58-39.16,3.1-58.37,7.12l-1.06-28.44c-5.41-6.83-1.87-8.44-1.87-15.06,0-3.9-2-8.59-1.14-12.91,103.67-19.58,202.85-56.27,298.06-100.58ZM406.56,296.4c-9.85,6.31-22.22,7.89-33.65,8.75-11.72.88-23.5.6-35.24.27-12.14-.34-24.42.19-36.51-.96-12.5-1.19-24.19-5.64-36.42-8.19-10.03-2.09-21.75-3.65-30.23-9.86-2-1.46-2.46-3.66-1.98-5.58-1.98-.68-3.69-2.58-3.49-4.73.44-4.8.43-11.59,2.86-16.52.09-.6.19-1.2.32-1.81.6-2.8,2.83-3.81,5.02-3.54,5.47-2.56,13.1-1.56,18.8-2.13,4.06-.41,5.52,3.47,4.43,6.52,6.42-.01,12.82.09,19.11,1.5,13.3,2.98,26.09,8.43,39.25,11.99,14.21,3.83,29.18,5.33,43.71,7.53,14.34,2.17,28.68,4.43,42.83,7.65,4.38,1,4.63,6.94,1.19,9.14Z"/>
  <path class="st126" d="M87,458.01c-27.07-13.17-42.08-29.03-58.03-54.47-1.71-2.73-5.45-7.33-4.25-10.23,21.56-25.48,42.6-54.29,67.81-76.27,24.9-21.72,60.78-35.32,93.47-39.02-1.5,8.2-3.7,17.72-4,25.99l1.91,2.05c.38,7.69,15.84,9.7,21.84,7.36l2.25.58c23.98,77.01,146.69,78.09,191,19l1.68,1.62c-4.05,7.99,17.16,11.27,20.4,10.06.64-2.82,1.95-4.38,3.93-4.68.48-.83,2.11-1.4,2.78-2.7,1.02-1.97,5.35-15.27,6.72-15.28,24.86,15.4,42.43,36.29,53.68,63.3l35.88,90.12c-5.66,4.73-10.72,10.03-16.75,14.38-18.13,13.07-37.5,20.49-59.31,24.19l-.34-6.44c-2.94-3.55-3.82-7.07-2.66-10.56,19.07-2.69,43.94-12.16,58.47-25.03,2.54-2.25,5.79-5.04,6.54-8.46-1.33.03-3.72,1.4-4.87,2.13-21.18,13.58-34.46,21.8-60.14,26.36l-2.38-2.91c-6.58-28.26-8.04-57.45-2.62-86.09,1.51-12.35,6.03-24.22,8.01-36.49l-2-.51c-6.66,15.98-11.91,32.87-15.72,49.79-16.65,73.97-27.93,163.92-34.29,239.71-1.99,23.77-2.45,47.67-4.05,71.45-11.7,1.79-23.73,3.3-35.6,3.88-76.86,3.77-159.51-8.85-232.12-33.57-14.76-5.03-29.51-10.28-43.16-17.91,9.89-46.9,18.96-93.98,27.65-141.13,9.96-54.02,20.12-107.97,26.27-162.73,1.76-15.7,3.81-31.78,3.51-47.49-3.16,3.43-3.65,8.61-4.5,13-7.28,33.86-15.06,69.95-32.4,100.3l-2.6-.3c-22.24-11.43-43.69-30.47-56.51-52.02-.76-1.28.19-2.53-2.48-1.97.93,7,6.42,14.26,10.58,19.91,11.34,15.37,29.25,30.59,46.41,39.09-.89,3.97-6.21,10.51-10,12Z"/>
  <path class="st85" d="M1239,334.01c4.26-2.76,1.63-11.67,4.69-12.81l164.32-21.2,39.05,387.39c-49.38,10.02-99.38,17.16-149.06,25.61-8.21-1.72,3.73-4.29,8.2-4.62s2.11,1.86-1.84-.36c-3.64,2.34-6.24.98-7.79-4.08-3.65,1.52-13.86,5.33-11.87-1.87,5.08-1.72-7.38-2.15-9.53-.91-3.25-4.55-8.71-7.39-2.84-.33.9,4.68-2.4,7.22-6,3.96-.58,2.5-1.25,5.18-2.01,8.03,5.69-.98,4.07,2.84,1.68,6.18-3.25.48-6.71.76-10,1-3.01,1.4-2.82-.61.57-6.04l-2.46-5.63c-5.68,2-11.86-8.12-7.11-12.33,55.54-11.38,111.35-21.38,167.42-29.99,3.78.88,7.17,2.61,10.18,5.21-4.59-4.46-6.99-10.4-7.2-17.8-12.44-103.35-23.03-217.04-32.86-324.18,11.2-17.42,11.51-18.99.91-4.7l-2.91,2.42c-80.01,10.93-160.12,22.2-240.33,33.81-4.8-3.02-9.39-6.21-13.79-9.58,4.14,3.85,8.11,7.91,11.93,12.18,6.8,108.66,13.37,218.15,19.7,328.49,4.76,14.46-1,20.77-10.33,30.92-3.64,4.01-3.54,5.41.29,4.21,7.16-1.74,3.22,7.16-2.15,6.29l-2.56,2.02c2.71.56,3.95,1.79,3.71,3.69l-11.94,1.97c-1.91-1.33-2.7-40.58-3.07-46.46-6.79-107.91-12.71-215.99-19-324-.61-10.47-2.66-20.96-1.98-31.5l98.99-13.02c-.81,3.11.88,6.37,1,9.01l1.45,1.84c-3.95,7.28,19.06,3.36,22.1,2.04,1.73-.75,3.93-2.95,2.45-4.88Z"/>
  <path class="st91" d="M1005,430.01c.48,2.8-1.13,2.55-3.34.97-22.98,7.91-14.48,40.55,9.28,33.77l2.06,1.26c2.47,14.62,4.55,30.23,5,45-9.4-3.43-19.49,1.57-21.82,12.13-4.33,19.65,6.64,30.94,26.06,30.86l1.76,2.01c2.02,17.93,3.56,36.07,5,54-.86.19-1.77.09-2.29-.66-2.32-3.33-3.63-2.96-7.8-1.07-23.1,10.48-15.39,43.33,9.15,43.12-.46-3.58-.27-7.01.56-10.28l2.39-.1c.15,9.56.85,18.89,1,28.49.44,28.16-.72,57.13-2,85.51l-2.07,1.42c-33.71-5.96-37.1,45.21-1.8,41.25l1.87,1.33c-.11,2.1.18,4.14-.24,6.25-1.17,5.99-14.02,15.98-18.76,20.75l-2.6.3c-13.96-13.31-27.24-11.12-36.8,5.15-5.8,9.86-3.26,19.64,2.4,28.55-.4.31-.68,1.66-1.5,1.98l-.5-.46c-5.78-5.21-9.77-12.46-14.95-18.07-3.25-3.52-8.34-7.68-12.05-11.45,1.06-9.3,1.73-15.96-5.43-23.53-5.71-6.04-14.44-9.41-22.46-6.24l-2.11-1.23c-.4-.58-1.88-.89-2.77-2.7-3.18-6.46,2.65-26.72,3.65-34.93,3.37-27.71,6.06-55.63,9.12-83.38,1.65-1.77,2.81-.73,3.5,3.13,36.36,2.16,43.32-51.15,3.53-45.87l-2.02-1.25c3.45-40.88,7.71-79.32,13-120,2.68-1.75,6.11-1.47,10.3.84,34.34,3.56,37.49-45.63,3.29-45.03-2.91,1.54-5.44,1.93-7.59,1.18,1.92-14.07,2.94-28.13,5.31-42.19,1.61-9.53,5.1-33.94,9.69-40.81,3.5.14,6.5-1.86,9-6,1.6.18,1.12,6.9,1.04,8.54-.52,10.6-2.57,21.28-2.02,31.94l2.97,10.51c1.35-5.3.65-10.68,1.01-15.99,1.51.89,3.1,1.53,4.76,1.95l1.36-18.87c-3.88-3.02-2.19-15.71,2.88-15.08,2.13,7.96.13,17.31,4.5,25,4.05,2.54.5-1.08.5-1.5v-20c0-.98-2.31-7.26-2-7.49,2.78,0,6.09-.89,7.24,2.25,4.63,14.75,8.19,29.71,11.76,44.74Z"/>
  <path class="st38" d="M783,325.01c14.63-11.11,45.16-12.29,60.91-2.41,13.49,8.45,13.48,21.02,15.08,35.41-3.96-1.01-12.98-6-16.49-6h-16c-.17,0-1.57,1.35-1.5,1.99,6.13-.65,30.61,4.23,33.51,9,2.71,4.46-1.97,21.98-.52,28.01-7.48-3.27-14.21-9.06-22.99-5.98l8.36,3.12c1.78.74,13.04,6.42,13.42,7.07,2.73,4.71-7.11,48.17-6.79,56.79-8.31-3.95-16.85-4.41-25.99-3.99.41,1.98,2.05,1.71,3.51,1.98,4.18.79,21.15,2.77,21.24,8.27l-10.76,67.74c-4.37-2.14-23.08-4.75-26-1.99-1.45,1.38.08,1.83,1.48,1.99,5.52.65,17.49.73,21.92,3.88,1.34.95.48,3.25.58,4.56l-12.02,65.5c-5.63.08-10.33-1.96-15.95.06l15.03,4.55c-7.29,29.4-12.16,59.5-21.05,88.43-6.24-4.77-5.52-13.38-6.99-20-1.28-12.53-2.11-25.11-2.48-37.74l1.48-2.26,5.99-1.99c-2.81-.07-5.29-1.51-7.99-2.01l-2.07-.76-4.83-58.87,1.89-1.36c5.73-1.55,8.8-2.36,14.74-1.21,2.03.39,1.67-1.38,1.26-1.78-1.22-1.17-15.3-1.25-18-1.01-3.1,1.14-2.62-.75-.54-2.86,0,0-3.15-23.38-9.46-70.14,3.34-1.42,6.23-2.48,10-2,.73-3.93-6.71-1.27-9-2-2.23,1.36-2.59-.47-1.17-2.69l-1.4-5.82c-.91-31.23-1.76-62.28-2.57-93.16l1.14-2.33c6.89-2.61,14.75-3.71,21.99-5.01.27-1.3-1.85-1.59-2.74-1.73-5.38-.84-12.08.16-17.26,1.75l-1.35-.85c.55-8.19.84-16.53.86-25.03l1.5-2.12c7.01-2.71,14.56-3.65,22.01-4.5.06-2.58-19.23-1.36-22.01-.5-4.14,1.2-2.45-2.13,1.02-3.48.07-6.44,2.02-12.31,7.6-16.1.06-.04.2,1.16-.61-.42Z"/>
  <path class="st107" d="M607,328.01l2.12.93,3.87,34.73c2.06.51,3.06,1.62,3.01,3.34l2.11.96c8.12,20.83,4.57,39.41.04,61.31l-10.6,42.1c-10.55,35.35-5.91,69.13,12.28,101.03,17.47,36.42,6.92,73.47-6.11,109.02-12.17,34.76-10.37,73.06,8.28,103.58,5.88,1.87,6.09,9.15-1,11-3.22,2.45-8.19,4.36-12,6-3.22.72-4.71-.78-4-4-21.32-31.38-29.66-70.13-16.42-107.09l9.92-32.51c13.99-37.78,6.45-73.97-11.06-108.32-11.02-24.51-7.24-51.51-1.3-77.21l11-46.89c7.12-29.5,1.95-57.86-8.14-85.97-3.48,1.24-6.17-7.55-2-8,6.54-1.47,13.27-3.54,20-4Z"/>
  <path class="st129" d="M587,332.01c-1.11,1.69,1.04,6.04,2,8,9.65,27.74,13.68,57.75,7.32,86.77l-9.66,40.44c-6.08,27.55-11.48,56.68.68,83.05,18.33,34.97,24.57,71.96,10.43,110.33l-9.45,31.08c-13.36,37.16-4.65,74.67,16.68,106.33,1.32,1.35,2.6,2.73,4,4-7.44,3.2-15.23,5.7-22.99,8-4.38-17.81-14.24-33.99-18.52-51.99-14.29-60.1,30.15-103.04,16.44-158.44-9.05-36.59-28.69-50.46-22.64-93.78,7.6-54.41,32.07-101.54,11.47-158.05-.77-2.11-4.93-9.04-4.68-10.14.65-2.91,15.72-4.89,18.92-5.6Z"/>
  <path class="st66" d="M647,334.01c2.64.93,3.3,1.93,2,3,1.95,5.8,4.53,11.62,7.72,17.45,15.15,37.56,7.9,60.14-4.59,98.95-13.64,41.53-.03,80.79,13.67,119.96,17.64,43.87,3.05,82.46-12.66,123.44-8.65,30.92-2.2,49.59,8.86,77.2,2.81.47,2.98,3.86,2,6-7.18,2.97-14.82,4.29-22,7-3.15-.23-4.05-2.65-2-5-10.22-28.82-18.82-57.91-8.34-88.63l13.3-40.45c9.61-26.28,9.63-53.44-1.63-79.2-16.41-34.3-25.31-68.78-13.16-106.21l9.18-35.56c5.3-22.45,6.55-46.05-2.03-67.48l.67-1.47c-2.43-.31-2.43-.98,0-2,5-9.46,2.48-17.65,3-28,2.29-.95,4.69.83,6,1Z"/>
  <path class="st33" d="M637,369.01c3.46,2.15,5.23,11.14,5.68,15.58,1.24,28.32-3.02,56.36-12.8,84.13-11.5,36.36-3.19,70.17,12.9,103.64,11.18,25.98,11.47,53.45,1.97,79.91l-13.55,40.59c-9.98,30.63-1.56,60.13,8.8,89.15.74,1.63,1.26,3.37,2,5-.61.23-1.85,1.62-3.28,2.19-5.88,2.33-11.59,5.17-17.72,6.81,5.82-4.43,3.17-5.11,1-11-27.13-43.36-14.52-90.58,1.89-135.17,13.41-36.76-.1-71.52-15.34-105.12-10.52-24.26-6.88-50.79-.39-75.82l9.8-37.79c4.06-18.63,8.07-38.24,2.95-56.99l1.08-3.11c-.11-.52-.17-1.03-.04-1.48.58-1.99,13.59-2.58,15.04-.52Z"/>
  <path class="st120" d="M563.53,341.01c2.89-.7,5.74,8.47,6.42,10.55,17.29,53.54-3.62,95.83-11.81,147.08s9.92,57.91,21.37,99.35c11.03,39.9-9.87,72.07-17.22,109.8-7.27,37.36,4.97,68.35,21.28,101.17.92,3.91-10.69-.07-12.91-1.13-19.57-9.36-27.8-60.7-26.66-80.32,2.51-43.26,32.24-83.01,19.71-126.72-4.09-14.27-12.12-27.97-16.74-42.26-17.7-54.83,14.06-101.81,12.46-158.02-.57-19.95-9.32-42.09,4.09-59.49Z"/>
  <path class="st18" d="M647,334.01c18.15,2.4,28.21,14.55,34.02,31.48,14.28,41.57-16.81,89.05-15.06,134.07,2.27,58.58,37.86,88.66,19.54,151.46-11.56,39.62-25.84,50-14.21,95.22,4.21,16.36,13.6,25.15-7.28,33.78-1.98-1.25-1.55-3.64-2-6-10.77-25.78-18.51-50.8-8.5-78.42,16.05-40.11,29.28-78.66,12.5-121.53-13.94-39.59-27.46-79.39-13.77-121.05l10.86-39.46c7.16-26.17-.63-51.33-13.9-74.37l-.2-2.17-2-3Z"/>
  <path class="st51" d="M392.15,307.17c1.81-1.15,11.99,1.08,12.74,3.51.6,1.91-4.17,11.9-5.51,14.22-13.89,24.08-54.77,43.36-81.85,45.15-38.07,2.52-92.31-14.7-105.31-54.77-2.65-8.17,2.15-23.23,4.73-31.81.4-1.34.08-3.11,2.03-3.46,2.34,20.1,5.53,36.32,21.54,49.97,46.85,39.93,114.89,31.4,149.92-19.04.69-1,1.43-3.6,1.7-3.77Z"/>
  <path class="st96" d="M1247,696.01c.72,1.69.11,6.85,1.23,7.84.52.46,2.09-.06,2.61.27.17.11-1.02,2.14.67,2.88,2.62,1.16.44-3.42,2.47-2.98,1.88,2.39,2.58,5.71,4.09,8.21.69,1.13,1.85.71,1.91.8.44.69-2.14,2.09-2.54,3.02-.87,2.02,2.64,3.48-2.47,2.98.14.46,1.01.83,1.02.98.05.46-.01.83-.51.99l-106.49,18.01c-2.98-2.35-7.92-.94-10.99,1,.88-2.55.38-3.79-1.01-5.99,4.68-.87,2.23,1.53,3.06,2.95.1.17,3.79.16,3.94.03.29-.26-3.08-2.17,3.08-5.49.97-.52,2.12.4,2.68.15.19-.08.86-2.59,3.24-1.67l-3-2.99-.46-2.64c1.71-3.56,11.1-16.18,14.88-16.81,27.37-5.51,54.89-9.36,82.58-11.55Z"/>
  <path class="st111" d="M227,162.01l1.69,1.24c-1.57,2.18-.8,2.1,2.31-.24,3.34.55,17.05,1.26,16.84,5.3l-27.86,83.68c-.62.61-11.06-1.57-12.98-1.98.3-.79-.7-1.13-3-1-4.5-.93-6.27,1.78-6.06-5.51,5.34-27.16,6.58-55.27,12.99-82.06,5.31-1.27,10.78-.06,16.07.57Z"/>
  <path class="st78" d="M370,326.02c-28.39,25.55-69.28,28.42-103.36,12.85-17.43-7.96-34.38-21.12-38.64-40.85l14.32,9.17c29.95,16.94,77.09,23.99,111.22,21.78,5.59-.36,10.95-2.05,16.45-2.94Z"/>
  <path class="st52" d="M981,193.01c2.97-.13,4.87,1.18,5.68,3.92-.53,27.63-.76,55.32-.68,83.08-.05,2.95.18,5.95-.11,8.89-6.44,2.35-13.56-.24-19.88,2.1l-10.03-96.46c-.03-1.25,9.57-1.89,11.03-1.55v21.49s1.99,12.51,1.99,12.51c-1.02-11.67,1.94-23.68.01-34.99l12,.99Z"/>
  <path class="st43" d="M637,203.01c1.1.07,3.24,1.49,4.95,1.05-2.39,31.56-4.58,63.27-5.95,94.95h-20l-6-96h14c-1.69,9.55-.8,19.32-.99,28.99l1.98-10.51,1.06-17.44c1.93-.34,4.04.21,5.95-.05,2.2.39,3.06.04,5-1Z"/>
  <path class="st125" d="M449,201.02c-6.26,12.63-8.99,27.2-11.99,40.98l6.25-15.23,6.75-25.77c4.99,1.6,10.37,1.04,15.49,2.04,1.28.25,1.77-.74,1.49,1.44l-27.05,79.51c-3.23-1.61-5.87,0-8.96-.37-2.56-.32-11.92-2.81-11.03-6.07,5.73-21.33,8.23-44.3,13.52-65.58,2.71-10.89,3.35-11.91,15.53-10.96Z"/>
  <path class="st75" d="M1108.99,340.01l23,400c-3.78-1.72-4.56-5.71-4.98-9.51-2.93-26.56-3.38-56.82-5.05-83.95-4.85-78.56-8.32-157.36-12.97-236.03-1.28-21.72-4.41-44.39-5.05-66.04-.12-4.24.72-4.15,5.05-4.47Z"/>
  <path class="st15" d="M821,198l-6.99,49,13.09-47.9c2.38.06,10.15-1.15,10.78,1.48.24,1.01-2.76,12.27-3.38,14.42-2.03,7.06-5.2,13.71-7.21,20.79-6.79,23.81-11.04,49.59-13.29,74.22h-3.99c1.74-9.41-1.26-19.94-1.99-29.51-1.48-19.35-4.45-58.5,3.21-75.77,2.2-4.96,3.67-7.45,9.78-6.73Z"/>
  <path class="st53" d="M994,316.01c6.67,7.32,9,16.65,7,28-.85,4.83-4.79,31.22-6.99,32.58-.49.3-9.22-.73-11.55-.61-3.98.21-14.27.9-17.45,2.04l-2.84-2.91c-3.98-14.75-9.09-29.38-17.74-42.09l-.42-4.01c4.77-4.6,9.22-7.17,14-11l2.09,1.63-.03,11.78c-.48,17.15,6.73,16.91,21.76,15.43.39-2.46,1.45-3.74,3.18-3.84.27-.36,2.21-.74,2.93-1.53,4.75-5.27,2.21-19.42,4.08-26.47,1.84-.56,1.75.89,2,1Z"/>
  <path class="st10" d="M947,473.01c15.5-10.28,31.76,3.23,33.95,19.63,2.34,17.57-21.5,33.74-36.45,23.37l-1.48,1.99-2.01-1.99c1.86-14.34,4.05-28.69,6-43Z"/>
  <path class="st23" d="M1226.95,201.04l5.06,70.98c-6.32-.8-12.15,1.59-18.36,2.07l-11.66-69.07,24.95-3.97Z"/>
  <path class="st128" d="M928,636.01c10.86-5.72,26.35,2.42,29.94,13.55,5.47,16.93-8.11,32.88-24.7,35.19-1.53.21-8.93.6-9.24.26-.4-.44.83-4.36-1-5,1.62-14.69,3.75-29.23,5-44Z"/>
  <path class="st78" d="M384,309.02c-5.35,9.11-9.42,11.36-19.62,12.87-38.35,5.66-94.77-2.84-127.68-24.07-5.54-3.57-11.48-6.2-9.68-13.8,21.47,14.16,46.35,22.6,71.78,26.71,27.9,4.51,57.74,5.43,85.21-1.7Z"/>
  <path class="st41" d="M1030,755.01c-.66,14.64-1.2,29.34-2,44-6.25,3.36-15.16.17-20.5-4-20.66-16.13-.92-48.6,22.5-40Z"/>
  <path class="st25" d="M1009,826.01c-11.96,12.03-23.44,23.59-37,34-6.37-1.59-7.96-14.01-7.65-19.35.5-8.66,10.51-22.58,19.38-24.42,10.78-2.24,17.98,2.83,25.28,9.77Z"/>
  <path class="st32" d="M1024,556.01c-15.93.15-30.01-5.63-30.57-23.5-.37-11.93,3.24-22.44,16.35-24.21,4.57-.61,6.58-1.74,8.22,2.71,3.56,9.68,4.7,33.42,6,45Z"/>
  <path class="st48" d="M1031,641.01c0,.13-.94,1.14-1.04,2.42-.27,3.47.27,7.1.04,10.57-15.89-.05-28.7-11.99-26.88-28.39.91-8.25,9.87-18.2,17.81-20.18,2.16-.54,4.32-.5,6.52-.46.31,1.66,1.19,3.56,1.56,5.04.66,2.63.81,5.29,1,8-1.35.3-.46,8.17,0,6,1.62,4.64,1.29,11.84,1,17Z"/>
  <path class="st56" d="M134,341.01c-4.62,23.78-6.5,49.23-10.17,73.33-1.76,11.57-3.54,23.2-5.84,34.67-1.37,1.21-16.52-6.73-18.99-8,2.77-2.1,4.27-6.57,5.69-9.81,8.21-18.77,15.74-39.16,21.03-58.97,2.77-10.37,3.31-21.75,8.28-31.22Z"/>
  <path class="st104" d="M445,492.01c-7.32,1.3-14.44,2.8-22,1.99l17-90.99c-2.2,18-1.9,44.12.27,62.14,1.09,9.1,3.8,17.77,4.73,26.86Z"/>
  <path class="st116" d="M1235.01,288l1,42.01-16.95.94-4.08-38.27c4.68-5.37,13.3-4.47,20.03-4.67Z"/>
  <path class="st27" d="M772,383.01c.62,1.43,1.44,2.85,1.5,4.46,1.15,30.72-.36,59.6,1.92,90.84.15,2.09,1.73,6.13,1.63,7.15-.08.85-3.09.34-1.05,1.55.04,1.36-5.33,1.71-6.99,2-1.38-34.21-5.02-68.07-3.87-102.36.43-1.24,5.31-3.04,6.87-3.63Z"/>
  <path class="st10" d="M1013,466.01c-15.67,7.74-32.2-8.96-25.5-25,1.95-4.68,10.51-12.94,15.85-12.04.99.17.46,3.69,1.66,1.04,2.84,11.95,5.95,23.86,8,36Z"/>
  <path class="st96" d="M1266,719.01l-2.99-2.99,4.99-1.51-4.99.49c-1.95-2.8.96-5.06.63-6.99-.22-1.27-1.87-2.58-1.63-2.98.14-.24,3.29-.02,2.5-4.03l5.48,4c2.01-7.45-2.6-3.6-2.99-4-.23-1.23,1.02-2.48,1.06-3.44.04-1.06-2.53.16-2.06-1.54l3.01-.51-2.01-1.49c2.77-1.12,4.76,1.99,6.48,2.01,1.17.01-.33-2.45,1.5-2.01,1.37,1.48-.18,4.83.01,4.98,2.07,1.62,2.03-2.13,2.48-2,2.57.78,5.19,2.37,8.52,2l-1.98-5,4.98,3.99c0-2.64,1.04-4.79,3.01-6.5l-1.99-1.48c6.43-.92,4.42,1.09,5.95,3.49.59.92,2.99,2.54,3.02,3,.17,2.42-6.58-.92-7.78-.22-3.1,1.79-2.5,5.09-3.12,6.05s-2.45.12-2.08,1.67c3.48,1.99,8.51-2.81,11.38-1.91,1.68.53,1.95,4.96,4.12,5.92.08-2.23,3.22-2.15,4.99-1.75.61.14.48,1.39.75,1.48,1.31.43,2.65-1.19,3.74.79.9,2.16-2.15,1.39-3.34,1.62-4.01.77-8.03,1.68-12.14,1.86l2.49,1c-10.64,1.81-21.29,4.41-32,6Z"/>
  <path class="st117" d="M636,314.02l-2.14,40.85c-4.35,1.95-9.26.92-13.87,1.15l-2-44.01,18,2.01Z"/>
  <path class="st112" d="M213.98,266.05c-.81,4.41-7.56,34.82-9.11,35.82-1.12.73-15.15-.8-15.47-3.31s5.12-35.46,6.64-36.53l17.94,4.02Z"/>
  <path class="st1" d="M775,491.01c2.87,1.88,3.11,7.45,3.71,10.79,1.86,10.3,3.25,20.99,4.62,31.37.67,5.1,3.84,25.6,3.01,28.59-.31,1.14-.81,1.38-1.95,1.28l.62.97c-2.27.2-7.31,4.3-8-.5-.74-22-6.43-44.03-7.07-65.98-.17-5.73.71-4.65,5.07-6.51Z"/>
  <path class="st83" d="M434,300.02c-1.92,3.95-9.68,31.91-11.14,32.84-2.25,1.44-15.55-1.5-14.71-6.1l8.81-31.35,17.04,4.6Z"/>
  <path class="st13" d="M944,329.01c10.65,14.12,16.57,31.88,21,49-1.72.61-7.59,6.3-7.99,6l-18.61-46.97c-.72-3.95,3.33-5.85,5.6-8.03Z"/>
  <polygon class="st109" points="986 303 982.94 335.95 968.99 337.01 967 304 986 303"/>
  <path class="st63" d="M800.86,239.16c.76,1.2-.07,17.82.15,21.34.91,14.53,3.39,29.36,4.04,43.98.13,2.9.34,8.26-4.06,6-2.35-23.64-8-46.93-10.87-70.35,2.18-1.03,9.25-3.33,10.74-.97Z"/>
  <path class="st123" d="M913,801.01c14.03-7.09,31.86,5.82,32.78,20.81.15,2.47-.15,8.99-2.78,10.19-9.74-9.91-22.21-19.64-30-31Z"/>
  <path class="st92" d="M824.99,311c-1.09-.27-4.79-.67-5.05-1.62-1.27-4.63,1.96-25.97,3.35-31.59,1.66-6.67,3.59-10.98,7.29-16.71,4.53-7.01,5.73-11.23,14.4-4.59-9.73,16.53-19.46,34.82-19.99,54.5Z"/>
  <path class="st108" d="M787,568.01l5,61c-1.33-.24-5.68.33-6,0l-7.86-57.43c.41-1.68,7-3.07,8.86-3.57Z"/>
  <path class="st97" d="M445,497.01c2.03,1.77,1.27,4.2,2.04,6.19.27.71,1.58.78,1.86,1.6.85,2.41,2.49,7.96-.91,9.2-8.69,1.47-18.27,4.55-27.06,1.39l2.16-17.28c7.29-.09,14.67-.09,21.89-1.11Z"/>
  <path class="st59" d="M604.95,204.06l5.05,70.94-5.94-1.05c-.04-7.51-1.48-15.01-2.05-22.46-.74-9.81-1.7-20.17-2.05-29.95-.18-5.14-2.24-19.73,4.99-17.49Z"/>
  <path class="st68" d="M455.89,270.89c-.24.21-6.89,1.11-5.85-1.34l22.46-64.54c2.31,2.37,6.48,3.11,5.33,7.23l-21.94,58.65Z"/>
  <path class="st36" d="M97,446.01c3.05,1.51,19.28,7.24,19.85,8.15,1.2,1.92-2.28,11.85-1.86,14.86-9.93-2.3-18.93-6.59-27.99-11,2.49-4.91,5.54-8.73,10-12Z"/>
  <path class="st55" d="M238.97,231.97c-1.31,1.26-7.88-.38-5.78-4.21,6.37-16.82,10.59-34.42,16.77-51.3.45-1.22,1.79-6.1,3.52-5.44,2.43,1.95,4.39,3.85,3.32,7.22-5.4,16.43-11.87,32.49-17.1,48.98-.43,1.34-.56,4.58-.74,4.75Z"/>
  <path class="st21" d="M952.01,258l-6.03-55.52c0-4.36,5.09-9.47,6.03-3.97.47,17.65,4.56,35.39,5.07,52.99.12,4.12-.55,6.08-5.07,6.5Z"/>
  <path class="st98" d="M607,328.01c1.64-.11,3.35.03,4.99,0l2.5,33c2.08,3.51,19.47,2.3,23.51-.01-.23.43.23,1.76,0,2,.38,2.75.05,4.75-1,6-4.81,2.23-10.82-.42-15,2-2.04,1.33-4.31-3.3-4.9-5.1-.21-.63,1.57-.19-1.1,1.1l-4.84-1.67-4.16-37.33Z"/>
  <path class="st73" d="M767,291.01l-4.48,4.02c3.87.46,8.36-4.49,11-5,3.61-.7,8.66.45,12.48,0-1.15,2.53-5.96,5.47-8.56,5.93-11.99,2.1-31.21.47-43.98,1.02-2.53.11-5.43,1.67-7.45.55,1.26-2.66,3.56-1.43,4.9-2.09s6.96-4.42,7.6-4.42h28.5Z"/>
  <path class="st95" d="M386.99,270.02c.07.87-5.36,3.49-1.47,4,.99.13,2.19-1.36,3.42-1.59,2.49-.48,7.32-1.53,9.53-1.46,4.86.15,10.94,4.47,16.52,3.05.44.41-.49,5.77-2.48,5.08l-56.52-8.1c.35-1.92,2.09-1.65,3.45-2.04,9.76-2.8,17.75-.59,27.54,1.06Z"/>
  <path class="st84" d="M321.99,258.02l-7.73,2.75c-5.96.77-36.65-5.69-43.71-7.81-9.67-2.91-5.06-5.65,1.88-4.92,7.91.83,16.3,4.07,24.34,5.69,8.32,1.68,16.98,2.11,25.21,4.29Z"/>
  <path class="st68" d="M1202,247.01c-1.41-.25-5.18.5-5.9-.11-1.56-1.3-3.7-31.99-5.85-36.63.06-3.42,4.18-2.85,6.27-4.25l5.49,40.98Z"/>
  <path class="st103" d="M774,378.01c-2.12.65-5.59,3.4-7.53,3.98-2.19.66-1.61-2.03-1.51-3.51.31-4.83,1.66-24.17,4.63-26.38.99-.74,3.92-1.52,5.41-2.09,2.9,9.23-1.37,18.68-1,28Z"/>
  <path class="st102" d="M958,318.01c1.08-.86,2.06-3.64,3.99-4,1.57,5.18-.23,26.29,2.25,28.76,3.17,3.17,16.22.04,20.76.24-.79,1.06-.16,4.45-2.43,5.64-.71.37-14.49.61-16.1.42-11.16-1.27-7.76-23.15-8.47-31.06Z"/>
  <path class="st70" d="M983,387.01c-2.27,3.17-3.64,8.81-2.77,12.52.12.49,1.7.35,1.8,1.12.54,4.24-1.2,22.49-2.26,26.62-.37,1.45-1.15,3.32-2.76,3.73l.98-9-2.98,2.99-1.01-6c.46-6.71,1.52-29.77,4.19-34.31,2.83-4.84,4.11-.32,4.81,2.31Z"/>
  <path class="st11" d="M1428,192.02l-3.99,4.5c-15.26,8.56-33.52,13.19-50.01,19.48,4.17-7.91,10.2-7.11,16.79-9.7,12.34-4.83,24.15-11.4,37.2-14.29Z"/>
  <path class="st12" d="M425,340.01c-.98,1.68-1.22,6.03-3.67,6.86-8.94-1.17-25.97-.52-22.33-13.86.43-.58.18-2.93,1.99-3,3.73,9.63,15.14,10.05,24.01,10Z"/>
  <path class="st34" d="M872,288.01c-.15,1.48-2.5,1.62-3.96,2.58-1.27.84-.82,3.67-5.04,2.41,2.85-4.9-6.16.46-7.72.78-2.57.54-20.51,1.96-21.27,1.22-.8-1.71,2.43-6.99,3.5-6.99h34.5Z"/>
  <path class="st57" d="M704,292.02l-5.99,3c2.61,4.24,9.77-2.08,13.56-2.95,5.72-1.31,11.69-.19,17.43-.05l-9.51,5.97c-6.22-.63-14.09.9-20.05.1-1.92-.26-1.34-2.08-2-2.1-2.41-.09-7.9,1.86-10.94,2-6.8.33-13.69-.21-20.48,0-.59-2.94.95-1.58,2.21-2.24,2.75-1.46,6.51-4.25,9.35-4.69,8.22-1.28,18.13.8,26.43.95Z"/>
  <path class="st87" d="M182,304.01c7.71,3.73,16.39,5.18,24.96,5.04-.21,1.85.52,3.29,1.04,4.96-4.24,5.68-23.37.35-25.51-4-.84-1.7-.56-4.12-.49-6Z"/>
  <path class="st95" d="M1140,264.01c10.25-4.59,22.77-5.58,34-6.99-1.9,3.02-5.16,5.79-8.6,6.89-8.34,2.68-20.83,2.8-29.4,3.6.81-1.59,3.66-1.95,3.99-3.51-3.57,1.6-3.92,2.36-6.64,3.86-5.05,2.76-11.7,2.32-17.36,3.13,5.06-8.54,14.95-6.4,23.48-9.01.86-.04.65,1.4.52,2.02Z"/>
  <path class="st30" d="M794,633.01c2.18,7.28.78,15.18.95,22.55.13,5.8,1.77,11.77.05,17.45-2.91-13.11-5.87-26.21-8.02-39.49l7.02-.51Z"/>
  <path class="st69" d="M1239,334.01c4.6-.37,2.25,4.52-1.09,6.43-3.86,2.21-21.73,3.84-24.92,1.08-2.75-2.39.04-5.73,0-6.51,1.6.72,2.51,2.82,4.42,2.92,6.06.35,15.4-3.42,21.58-3.92Z"/>
  <path class="st80" d="M468.95,279.09c.36.37-.06,2.13.06,2.92,4.84-3.98,11.41-1.41,16.99-1l-11.55,4.95-26.44-3.97c.09-2.29,3.85.39,3-2.48-.31-1.06-2.16-.33-3.01-.52l1.6-1.8c2.68,1.17,18.45.98,19.35,1.9Z"/>
  <path class="st95" d="M1117,266.02c-.9,1.78-3.51,2.29-4,4.5-.23,1.01,2.48-.28,2,1.48l-35.99,5c3.53-3.81,10.9-9.43,16.34-8,.76.2.67,1.73.83,1.81,1.64.81,2.68-1.5,4.13-2.01,5.39-1.9,11.09-1.98,16.71-2.78Z"/>
  <path class="st119" d="M359.99,265.02l-14.11,3.46c-6.93-1.67-14.17-2.23-21.12-3.76-1.9-.42-5.81-.81-6.76-2.7,14.48-2.43,27.85.31,41.99,3Z"/>
  <path class="st127" d="M954.73,283.33c1.16.38,3.69,3.11.55,4.45-7.83,3.33-21.76,1.1-30.27,3.22,3.38-6.93,23.85-9.58,29.73-7.67Z"/>
  <path class="st34" d="M1271,239.02c-1.36,2.24-4.13,4.98-6.52,5.98-2.66,1.12.7-3.62-1.97-1.98-1.89,1.16-2.25,2.61-5.27,3.73-5.9,2.2-14.06,2.48-20.24,4.25.06-1.28-.35-2.92.43-4.06,1.04-1.51,29.31-7.83,33.56-7.93Z"/>
  <path class="st101" d="M928,285.01c-.12,1.62-2.51,1.42-3.95,2.55-1,.78-1.23,2.78-2.71,3.29-3.55,1.23-12.27-.55-16.79,1.21l-9.54-1.04c3.2-.06,4.85-3.09,7.42-4.09.74-.29,7.64-1.92,8.07-1.92h17.5Z"/>
  <path class="st122" d="M520.99,284.01c.55,3.04-.91,1.53-2.36,2.09-2.73,1.05-6.35,2.75-9.16,2.94-8.55.59-19.41-3.62-28.47-2.04l2.74-1.73c12.33-3.15,24.45-1.65,37.24-1.25Z"/>
  <path class="st16" d="M1207,321.01c.7-6.73-2.17-13.03-2.88-19.63-.22-2.06-1.5-11.29,1.38-11.36,1.82-.04,8.86,28.26,5.56,30.54-1.11.77-2.78.38-4.06.44Z"/>
  <path class="st64" d="M238.87,239.15c.49.44.07,4.44,3.81,4.67,1.26.08,2.43-1.56,3.89-1.79,6.14-.98,13.24,4.05,19.43,4.47-4.72,5.21-32.19-1.98-34.98-5.01-1.15-1.24-1.23-1.8-1.01-3.48,1.78,1.15,8.34.68,8.86,1.14Z"/>
  <path class="st57" d="M1060,273.02c-7.52,8.98-19.18,7.97-30,8.98,7.93-8.67,19.04-8.27,30-8.98Z"/>
  <path class="st50" d="M580.99,288.02l-11.58,4.9c-7.83.15-15.7.51-23.41-.92l13.55-4.93,21.44.95Z"/>
  <path class="st77" d="M551.99,286.01c.55,2.87-.78,1.61-2.18,2.26-8.77,4.11-16.89,2.48-26.37,1.79-1.71-.12-3.3.1-4.44-1.56,11.07-6.18,21.5-1.43,32.99-2.49Z"/>
  <path class="st86" d="M610.01,291.01v2.99c-10.66,2.22-21.24-.76-32.01,0,8.72-8.84,21.21-2.95,32.01-2.99Z"/>
  <path class="st95" d="M641,297.01c.78-.94-.07-2.37.62-3.03,5.98-5.75,19.59-1.59,27.38-2.96-3.98,3.52-8.29,5.99-13.5,5.99h-14.5Z"/>
  <path class="st105" d="M96,187c-3.62-.86-6.36-.96-10.03-.43l-20.97-10.55,10.99-.6,20,11.58Z"/>
  <path class="st31" d="M981,193.01c9.75-1.85,5.97,10.91,5.96,16.46-.04,23.54-.58,47.02-.96,70.54-1.18-1.16-1.62-4.11-1.62-5.67-.03-11.85.54-23.98.68-35.89.07-5.84.77-3.74,1.03-5.87,1.38-11.23-1.23-25.34-.05-36.91-.59-2.52-11.74-1.46-14.04-1.68l8.99-.99Z"/>
  <path class="st124" d="M231,163.01c-5.64,11.13-8.39,24.64-13.82,35.68-.76,1.54-1.33,3.76-3.17,4.32l12.99-41c1.7.2,2.85.81,4,1Z"/>
  <path class="st89" d="M783,325.01c3.61-.14,1.49.52.47,1.97-1.85,2.63-3.83,5.09-4.76,8.24-.99,3.39,1.18,9.3-4.74,8.82.16.43,1.01.81,1.02.97.05.45-.1.77-.51.98l-5.49,1.01c2.38-7.11,5.02-14.61,10.46-20.06,1.52-1.53,2.84-1.4,3.54-1.93Z"/>
  <path class="st86" d="M896,287.01c-5.75,8.05-15.92,5.31-24.49,7.01-.87.12-.6-1.87-.5-1.99.32-.38,8-5.02,8.49-5.02h16.5Z"/>
  <path class="st47" d="M1202.99,252.01v4.99s-25.99,4-25.99,4c5.78-7.62,17.55-6.51,25.99-8.99Z"/>
  <path class="st73" d="M1007,282.01c3.24-1.34,6.39-4.17,9.73-4.77,4.71-.84,10.33.1,15.26-1.22l-10.73,6.75-15.26,1.23c-.3-.2.78-1.38,1-1.99-4.6,1.9-8.88,3.81-14,3-1.8-9.54,8.86-5.06,15-5.99-.56.93-.65,2.01-1,2.99Z"/>
  <path class="st4" d="M176,220.02c2.54,2.49-7.18,2.47-8.05,2.55l-18.94-8.56c3.69.2,7.62-.46,11.26.22,1.28.24,15.13,5.2,15.73,5.78Z"/>
  <path class="st88" d="M1498.99,163.01c.57.59-.25,2.67-.93,3.56-.76,1.01-22.09,11.23-23.07,10.42-.08-5.75,22.95-15.08,23.99-13.99Z"/>
  <path class="st122" d="M69,171.02c.13.13.36,2.06-.51,2-5.24-.35-12.32-1.68-16.88-4.17-1.02-.56-1.29-2.19-1.89-2.55-.49-.3-10.32-2-7.71-4.29.4-.36,2.55.95,3.59.91,1.64-.06,3.25-1,4.67-.73.95.18,13.76,7.07,15.87,8.22,1.01.55,2.75.5,2.85.61Z"/>
  <path class="st113" d="M44,160c-9.82,1.22-18.06-6.09-25-11.98,8.52,1.13,18.85,5.82,25,11.98Z"/>
  <path class="st5" d="M1232,282c-.47.5-11.68,1.76-13.57,1.94-2.16.21-5.01,1.59-6.41-.42,1.5-1.17,1.87-3.5,3.7-4.28,1.09-.47,12.61-2.32,13.79-2.25,2.65.16,3.25,4.21,2.49,5.02Z"/>
  <path class="st58" d="M1321,227.02c-4.97,8.64-15.64,8.04-24,10.98,5.55-7.9,14.85-9.72,24-10.98Z"/>
  <path class="st81" d="M611,321.01h-5.01s-.99-19.01-.99-19.01c1.85-.05,4.19-.44,4.86,1.64.29.91,1.76,16.76,1.14,17.37Z"/>
  <path class="st8" d="M1373,211.02c-5.66,7.33-16.11,10.88-25,11.98,5.84-7.53,16.35-8.88,25-11.98Z"/>
  <path class="st28" d="M637,203.01l-6.01,35-1.03-8.54c.84-6.75,2.02-13.51,2.76-20.26.17-1.6,1.16-4.15-.71-5.19,1.4-.19,2.15-1.18,5-1Z"/>
  <path class="st122" d="M118.99,197.02c.25,1.71-2.31.98-3.49,1-2.21.03-4.42.16-6.57-.44l-14.92-7.56c9.53-.94,16.91,2.85,24.99,7Z"/>
  <path class="st74" d="M1001,344.01l-2.29-17.21-4.71-10.79c11.91,5.17,8.76,18.06,7,28Z"/>
  <path class="st58" d="M147,210l-15.22-2.27-11.77-5.71c8.7-1.18,16.15,2.05,23.78,5.71,1.19.57,2.96.54,3.22,2.27Z"/>
  <path class="st88" d="M1078,271.02c-4.5,8.14-11.71,7.45-20,7.98,5.05-7.16,12.01-7.29,20-7.98Z"/>
  <path class="st119" d="M1272.01,244l6.29-6.2,15.7-4.79c-2.73,8.48-14.92,7.79-21.98,11Z"/>
  <path class="st113" d="M1343,221.01c-.83.98-.96,4.7-1.16,4.86-2.57,1.99-15.93,4.55-19.84,6.13,5.42-6.06,12.97-9.89,20.99-10.99Z"/>
  <path class="st3" d="M1204.9,265.12c.57.48,1.34,7,1.11,8.35-.43,2.47-3.62,4-4.5,6.53-2.01-.87-2.47-12.37-2.51-15,1.41.25,5.18-.49,5.9.11Z"/>
  <path class="st76" d="M436.89,290.12c.27.33.24,3.75.11,3.89-.56.58-13.67-3.15-15.66-3.83-5.14-1.76-4.25-4.31.69-3.74,1.61.18,14.37,3.1,14.86,3.69Z"/>
  <path class="st67" d="M220.99,261c-5.95.05-12.74-1.25-18.42-3.09-1.76-.57-4.21-.17-3.57-2.89,5.77.05,14.11.91,19.48,3.01,1.55.6,2.89.83,2.51,2.98Z"/>
  <path class="st115" d="M207,250.01c-1.33-.29-2.42-.88-3-1,3.28.57,1.63-1.68,1.96-3.49,1.12-6.11,2.95-12.04,5.29-17.76.55-1.35,1.22-4.5,2.74-4.74-2.3,8.88-2.86,18.68-6.99,26.99Z"/>
  <path class="st9" d="M957.82,265.21c.32.48,1.48,9.35,1.25,10.19-.26.92-3.98,1.34-5.06,1.61,1.13-3.1-1.58-9.16-.94-11.37s4.06-1.48,4.75-.43Z"/>
  <path class="st82" d="M227.99,263c-1.34-.37-2.5-5.5-2.52-6.48-.02-.81,1.33-7.17,1.63-7.42.77-.65,6.05-.46,5.48,1.94-.82,3.49-3.9,8.15-4.58,11.96Z"/>
  <path class="st26" d="M635.01,305.01v2.99c-6.62.8-12.59-2.46-19,0,.14-1.24-.69-2.2.68-3.01,2.72-1.62,14.32,1.07,18.32.02Z"/>
  <path class="st49" d="M960,295c-.95,4.64,2.66,12.9-2.98,14.01-.77-.76-1.52-13.52-1.01-14.01.26-.24,3.02.17,3.99,0Z"/>
  <path class="st62" d="M985.99,295.01c.23,2.62.13,1.66-1.5,1.96-6.1,1.13-12.31,1.17-18.49,1.03-.18-2.5-.24-1.71,1.5-1.97,6.09-.9,12.33-1.22,18.49-1.02Z"/>
  <path class="st20" d="M971,384.01c.87,4.66-3.43,6.95-7.01,8.49-3.04,1.31-1.85-.6-1.99-2.49,1.61-2.41,6.02-6.34,9-6Z"/>
  <path class="st93" d="M448,290.01c.63.56-3.06,8.41-3.74,9.79s.65,2.76-2.25,2.2c.84-4.63-1.21-13.32,5.99-11.99Z"/>
  <path class="st114" d="M441.99,304.01l-4.49,13.99c-3.72-.93.34-11.29,1.48-13.33.76-1.36,1.81-.51,3.01-.66Z"/>
  <path class="st73" d="M792.99,291.01v5s-8.99-.02-8.99-.02c.62-1.74,8.14-5.89,8.99-4.98Z"/>
  <path class="st72" d="M224.99,274c-6.5-1.28-3.39-8.14,2-8.99-.57,3.19-2.78,5.43-2,8.99Z"/>
  <path class="st91" d="M1030,618.01c.13,1.87.1,4.12,0,6-.06,1.11.7,3.26-.99,2.99.49-2.76-.36-5.38-.59-7.92s-1.16-2.62,1.58-1.07Z"/>
  <path class="st118" d="M229.76,389.27c7.02-1.02,13.65-.09,19.57,3.91,10.87,7.34,11.89,23.93,27.4,26.59,15.02,2.57,21.87-9.23,35.89-10.64,18.76-1.89,31.89,10.77,27.93,29.93-1.48,7.2-10.26,13.29-7.81,20.66,3.11,9.33,19.1,13.24,26.26,19.77,16.85,15.37,11.41,40.66-7.7,51.32-8.28,4.61-17.75,3.56-25.32,10.68-16.61,15.59,6.56,43.73-7.98,62.02-8.26,10.39-22.87,9.16-33.31,3.31-8.75-4.91-12.84-12.92-24.2-11.81-14.96,1.46-21.7,20.75-38.08,22.92-31.66,4.18-40.38-26.83-29.61-51.61,4.19-9.63,16.29-18.37,3.13-27.74-10.45-7.44-27.84-9.38-30.7-26.3-6.53-38.72,40.07-38.8,52.97-61.55,8.93-15.75-8.58-26.11-8.14-40.06.34-10.81,9.12-19.85,19.69-21.39Z"/>
  <path class="st65" d="M377,704.02c-.38,1.82-1.96,1.86-3.46,2.03-28.65,3.22-63.2.68-92.03-2.05-47.52-4.49-99.86-13.24-145.28-27.72-11.33-3.61-25.14-7.72-34.23-15.26,14.44,3.24,28.46,8.71,42.78,12.71,32.83,9.16,68.04,16.45,101.84,21.16,42.89,5.97,87.08,8.8,130.37,9.14Z"/>
  <path class="st79" d="M194.74,435.27c1.27,1.19,3.15,8.5,3.16,10.36.09,16.03-25.32,13.03-17.15-6.37,2.09-4.96,10.22-7.52,13.99-3.99Z"/>
  <path class="st60" d="M1150,727.01c-1.57,1.82-4.96,3.74-6.5,6-2.31-8.04,16.2-21.89,16.37-27.44.11-3.75-1.6-10.07-1.86-14.06-6.13-95.38-10.87-190.69-17-286-.89-13.82-.77-27.7-2.47-41.44-1.93-2.52-22.62-20.95-20.54-23.04l24.42,17.91c79.17-11.81,158.46-23.15,237.87-33.13,4.93-1.08,14.41-18.32,19.7-21.79-1.99,9.79-8.97,16.99-13.54,25.45,11.12,98.92,17.73,198.25,29.56,297.04.83,6.96,3.8,35.73,6.43,39.57s11.64,9.71,15.56,14.44c.93,1.13,2.43,1.62,1.99,3.5-1.59,1.59-21.42-16.59-25.46-16.02-55.82,9.47-111.69,18.73-167.53,28.02-27.32,4.54-54.73,8.78-82.04,13.46-5.27,1.8-11.43,13.45-14.96,17.54Z"/>
  <path class="st90" d="M1425.99,547.01l5.99,51.99c-1.71-.22-1.95-3.75-2.32-5.17-3.45-13.29-5.45-30.88-5.46-44.57,0-1.98-1.11-2.58,1.79-2.25Z"/>
  <path class="st45" d="M1308,702.01c9.22.22,30.49-6.46,41.82-7.66,1.32-.14,9.19-.62,9.19.16-9.83,2.38-19.82,4.5-29.82,6.19-6.97,1.18-14.51,1.27-21.19,2.31-.87-.28-.86-.62,0-1Z"/>
  <path class="st110" d="M1142.99,664c-1.41.24-1.46-1.77-1.7-2.77-3-12.38-4.58-25.49-4.28-38.22l5.86,33.62.12,7.37Z"/>
  <path class="st40" d="M1420.99,486.01c-2-.57-2.29-3.07-2.71-4.78-1.96-7.96-3.42-17.05-3.27-25.22,1.54-.01,1.4,3.52,1.66,4.83,1.63,8.34,2.12,16.93,4.32,25.17Z"/>
  <path class="st96" d="M1259.99,696.01l-4,3.5c4.11.96,4.5-.54,4,4.5-1.78-.7-2.3-2.67-4.49-3.04-1.95-.32-1.65,4.08-3.5,2.03-1.08-1.2,5.99-6-3-4-1.34-1.44.02-1.84,1.47-2,3.09-.35,6.31.33,9.51-.99Z"/>
  <path class="st19" d="M1125.99,445l-1.85-7.63-2.13-21.36c1.37-.25,1.51,1.78,1.72,2.75,1.75,8.1,1.6,17.9,2.26,26.24Z"/>
  <path class="st96" d="M1306.99,695.01c-2.56-2.19-3.65,3.72-6.98,4-.29-1.47,3.88-7.92,4.6-8.01,3.48-.46,3.34,1.56,2.38,4.01Z"/>
  <path class="st96" d="M1308,703.01c-.41.06-6.77,3.34-7.87,1.87-1.3-1.73-.98-6.35,1.88-4.38,1.45,1-2.02,3.37,3.49,2.51-1.11-4.17,1-1.04,2.5-1v1Z"/>
  <path class="st128" d="M941.76,727.27c13.53-1.92,25.45,5.29,28.97,18.5,6.96,26.13-30.97,40.09-42.94,16.94-6.66-12.88-2.09-33.16,13.97-35.44Z"/>
  <path class="st100" d="M982.69,605.7c-9.34,7.89-25.92,5-32.53-5.35-7.58-11.87-3.78-28.4,8.48-35.19,14.28-7.91,34.09,6.07,33.27,22.19-.29,5.77-4.85,14.65-9.23,18.35Z"/>
  <path class="st32" d="M976.12,703.11c.32-.37,2.02.37,1.88-.6-4.5-2.98-1.5-3.6-1.45-5.95s-.74-8.45.06-10.58c1.35-3.6,7.01-6.54,8.86-10,11.33-4.12,22.66-3.68,30.53,6.52,16.5,21.4-8.13,45.02-30.27,33.27-2.47-1.31-10.61-11.53-9.62-12.66Z"/>
  <path class="st46" d="M793.74,410.28c3.65,3.28,4.17,19.81-4.02,18.57-10.36-1.58-4.81-26.5,4.02-18.57Z"/>
  <path class="st60" d="M825.68,410.27c8.37-.21,6.7,19.52-1.12,18.78-7.11-.67-7.92-18.55,1.12-18.78Z"/>
  <path class="st54" d="M826.99,463.02c1.95,2.67-6.63,4.87-8.44,5.04-3.91.37-27.74-.87-28.55-4.57-1.15-5.25,14.42-.65,16.51-.5,3.27.23,19.87-.8,20.48.02Z"/>
  <path class="st22" d="M605,798.01c-12.28-12.52-23.9-42.95-25.04-60.46-3.16-48.49,33.07-92.86,21.55-143.55-9.01-39.64-28.81-48.77-22.24-97.22,8.78-64.74,29.73-80.32,9.82-152.37-.32-1.17-1.71-3.74-.09-4.4,28.46,57.97,4.39,96.43-4.69,152.81-8.23,51.11,11.15,57.81,21.19,100.18,11.99,50.59-22.92,93.32-21.54,141.55.48,16.71,9.13,34.27,13.86,50.13l7.18,13.32Z"/>
  <path class="st22" d="M622,371.01c11.41,31.59-9.75,82.87-15.71,114.79-7.93,42.54,3.6,54.16,17.19,90.22,23.34,61.92-11.99,88.26-15.47,144.49-1.61,25.94,5.41,41.2,13.99,64.49-.76,2.21-2.27-1.47-2.53-1.97-10.8-20.77-16.66-36.55-15.51-60.57,2.52-52.53,36.1-84.22,17.75-139.67-4.62-13.95-13.08-27.41-17.42-41.58-15.88-51.8,17.92-100.69,16.75-153.66-.16-7.07-4.71-14.87-5.03-20.56-.41-7.37,4.71.42,6,4Z"/>
  <path class="st2" d="M662,774.01l-9.75-21.75c-20.67-48.29,21.92-88.11,19.79-135.79-2.17-48.38-32.54-87.91-26.91-136.83,2.6-22.62,10.72-44.05,16-66,7.5-31.19-.9-44.97-12.01-72.24-.52-1.28-2.15-3.48-.11-4.38,42.26,63.4-.61,94.39-.62,156.67-.01,48.54,33.75,88.3,26.5,140.71-4.86,35.12-27.5,62.1-23.6,98.85,1.47,13.86,8.09,27.03,10.72,40.78Z"/>
  <path class="st24" d="M638,363.01c4.03,6.43,5.99,16.07,6.87,23.63,5.72,49.15-26.61,92.03-16.57,139.57,6.08,28.81,23.84,51.81,25.75,83.25,2.49,41-27.62,78.59-25.09,121.09,1.01,17.03,6.54,31.12,10.95,47.06.32,1.17,1.71,3.74.09,4.4-9.93-21.92-16.59-40.76-15.04-65.54,2.44-38.97,29.6-72.87,24.01-113.93-3.4-24.97-15.72-44.13-22.46-67.53-15.67-54.37,20.1-95.23,14.51-148.51-.55-5.22-3.07-11.83-4.01-17.49-.23-1.42-1.2-4.62-1.08-5.38.17-1.05,1.96-.5,2.08-.62Z"/>
  <path class="st17" d="M209,196.01c1.99-8.41,4.11-17.57,6.73-25.77.66-2.06,1.37-6.15,3.26-7.23-1.8,11.35-4.38,22.89-9.99,33Z"/>
  <path class="st6" d="M209,196.01c-1.24,5.22-.95,12.74-4.99,17,1.59-4.5,1.84-11.11,3.2-15.34.44-1.36,1.69-1.48,1.79-1.66Z"/>
  <path class="st42" d="M980,248.01c-.65.08-2-1.33-2-1.5v-30.5h.99c-.62,1.57,1.01,3.76,1.01,4.5v27.5Z"/>
  <path class="st121" d="M629.99,297l-1.04-9.54c.89-6.98,1.16-13.94,3.35-20.66.34-1.05.25-3.02,1.69-2.78l-4,32.99Z"/>
  <path class="st0" d="M618.99,266c-1.78.17-1.06-3.37-.98-4.48.22-2.85.82-6.83,1.28-9.72.19-1.18.25-4.85,1.7-4.79-.23,6.67.16,12.56-2,18.99Z"/>
  <path class="st14" d="M613.99,207.01c-.2,2.58,1.13,6.73-1.98,7.99.65-2.18-1.84-8.79,1.98-7.99Z"/>
  <path class="st94" d="M435.01,280.01l4.27-21.22,5.71-17.78c-2,10.83-3.88,22.01-6.87,32.62-.6,2.12-.75,5.42-3.11,6.38Z"/>
  <path class="st61" d="M972.75,362.26c.65.62,1.52,4.74.81,5.78-2.46,3.67-8.04-1.01-5.1-6.09.68-1.23,3.86-.1,4.28.31Z"/>
  <path class="st44" d="M1218.99,260l-1.98-7.51-3-39.48c1.5.2,1.64,4.31,1.85,5.63,2.12,13.6,2.82,27.58,3.13,41.36Z"/>
  <path class="st39" d="M260.35,417.66c4.84,5.03,13.04,9.29,20.15,9.43,16.09.3,37.44-23.1,50.93-5.01,11.41,15.31-5.55,22.18-5.51,35.44.04,15.59,22.83,19.32,31.05,29.02,7.35,8.67,8.02,20.03,1.46,29.41-12.19,17.44-39.07,8.08-44.31,31.69-3.7,16.65,3.65,26.47,2.78,39.72-.44,6.75-6.35,15.83-13.38,16.67-18.6,2.24-23.73-18.14-44.04-16.02-20.42,2.13-29.46,33.15-52.39,21.4-16.46-8.43-13.7-28.65-6.96-42.76,4.53-9.47,13.3-16.65,4.85-28.14-9.56-13.01-27.64-9.61-32.72-26.28-10.46-34.37,48.26-35.97,54.46-66.97,3.25-16.24-9.73-22.78-9.73-34.75,0-14.88,18.37-18.31,28.93-10.94,6.78,4.74,9.12,12.58,14.41,18.09Z"/>
  <path class="st29" d="M187.66,438.15c9.49-3.12,6.61,14.47-.15,13.93-4.27-.34-3.19-12.83.15-13.93Z"/>
  <path class="st71" d="M1261,632.01c-7.61,15.45-9.59,31.03-2,46.99l-44.99,7.01c-7.48-34.19,3.02-63.49,25.48-89.02,27.8-31.59,70.72-47.26,74.5-95.5,1.94-24.71-9.04-57.92-32.63-69.34-33.76-16.33-72.42,7.98-68.23,46.23,1.95,17.79,19.81,30.96,37.11,23.36,3.62-1.59,13.15-9.94,12.81-.27-.83,23.51-40.18,24.46-55.52,12.51-41.09-31.99-11.13-97.56,31.48-111.98,5.16-5.56,16.41-6.19,24.12-6.36,79.95-1.78,114.41,124.5,57.71,174.82-17.47,15.55-34.05,31.91-49.75,49.07-2.78,5.18-6.14,9.34-10.07,12.46Z"/>
  <path class="st99" d="M1325,420.01c2.56-2.01,7.99,5.53,6,8,7.9,11.47,12.85,25.16,18,38,3.57,2.14,5.41,11.58,3,15,4.35,35.46-4.53,66.75-28.49,93.01-17.71,19.41-45.33,36.16-57.51,59.99-3.25,2.77-5.67,9.81-6.55,13.95-.42,1.98-2.7,16.48-2.47,17.34.24.91,2.14,1.04,2.81,2.38,1.26,2.53,1.87,5.75,3.22,8.32-1.21-.42-2.27.93-2.52.93-3.44.01-5.5-20.19-4.52-23.46l5.04-21.46c18.27-37.08,63.2-53.39,79.48-95.02,25.18-64.4-24.33-161.09-101.48-134.98-17.97,4.49-33.77,18.88-42.01,34.99-2.16-.37-2.09-4.27-1.32-5.74,11.62-16.16,26.99-30.69,47.35-34.27-.15-.43-1-.82-1.01-.98-.04-.48.03-.78.51-.98,21.56-6.22,44.54-2.27,63.4,9.57,5.22,3.28,15.06,10.94,19.09,15.41Z"/>
  <path class="st37" d="M1415.99,661.01c-4.44-2.63-5.91-6.87-6.86-11.63-4.45-22.19-4.6-50.73-7.14-73.86-7.61-69.33-14.4-138.57-21-208-.77-8.08-3.85-20.93-3.64-28.2.09-3.29,1.75-5.3,4.15-7.3l34.48,328.99Z"/>
  <path class="st106" d="M1326,348.01c15.62-2.16,31.33-4.82,47-6,.59,16.65,2.39,33.36,4,50-1.63.48-.32,3.83-1.57,4.06-4.85.88-14.81-.11-20.43-.06.02,10.65-.02,21.35,0,32.01h-24.01c-1.07-1.55-5.05-6.95-6-8.01-2.69-3.55-.41-4.99-.34-7.69.15-5.37-.86-10.91.39-16.25,9.96-.18,19.98.03,29.94-.06-.02-10.32.01-20.68,0-31h-30c.45-5.56-1.09-11.8,1-17Z"/>
  <path class="st35" d="M1412,664l-242.66,39.93c-2.15.42-4.16.09-4.4-2.43-.49-5.02,5.21-3.12,8.44-3.62,75.54-11.58,150.77-25.75,226.25-37.74,4.7-.68,9.58-.48,12.37,3.85Z"/>
  <path class="st7" d="M1377,330.02c-2.48.87-3.61,5.32-3.92,5.5-1.23.7-4.96,1.01-6.75,1.32-71.2,12.6-145.39,17.92-216.87,30.18-3.89,1.32-8.19-2.74-3.74-4.8l231.28-32.21Z"/>
  <path class="st106" d="M1383,453.01c-.06.95-2.01,3.88-1,6.01-4.15-.66-25.05,1.24-26.57-.94v-29.13c.89-1.26,19.23-1.37,22.1-1.02,2.19.27,1.66,2.39,3.47,3.08.58,6.44,2.39,15.91,2,22Z"/>
  <path class="st106" d="M1349,466.01c-.01-.07.8-.58.74-1.32-.15-1.84-2.9-4.93-.74-6.2.93-.55,6,1.15,6,2.02v25.5c-1.92-.02-1.86-4-2.02-6.01l-.98,1.01c-.51-4.2-2.3-9.94-3-15Z"/>
</svg>