<?xml version="1.0" encoding="UTF-8"?>
<svg id="Layer_1" xmlns="http://www.w3.org/2000/svg" version="1.1" viewBox="0 0 448.5 312.75">
  <!-- Generator: Adobe Illustrator 29.5.1, SVG Export Plug-In . SVG Version: 2.1.0 Build 141)  -->
  <defs>
    <style>
      .st0 {
        fill: #b19c79;
      }

      .st1 {
        fill: #5e4a30;
      }

      .st2 {
        fill: #f3af18;
      }

      .st3 {
        fill: #325067;
      }

      .st4 {
        fill: #7e5529;
      }

      .st5 {
        fill: #966605;
      }

      .st6 {
        fill: #713d0c;
      }

      .st7 {
        fill: #355269;
      }

      .st8 {
        fill: #1a1918;
      }

      .st9 {
        fill: #ab3719;
      }

      .st10 {
        fill: #d28d0b;
      }

      .st11 {
        fill: #d8960e;
      }

      .st12 {
        fill: #86592a;
      }

      .st13 {
        fill: #691003;
      }

      .st14 {
        fill: #5b0d02;
      }

      .st15 {
        fill: #446178;
      }

      .st16 {
        fill: #7d1301;
      }

      .st17 {
        fill: #153242;
      }

      .st18 {
        fill: #663303;
      }

      .st19 {
        fill: #d79925;
      }

      .st20 {
        fill: #c98a40;
      }

      .st21 {
        fill: #7a4604;
      }

      .st22 {
        fill: #514130;
      }

      .st23 {
        fill: #633301;
      }

      .st24 {
        fill: #e8ad25;
      }

      .st25 {
        fill: #1d3e59;
      }

      .st26 {
        fill: #c44b2a;
      }

      .st27 {
        fill: #23415d;
      }

      .st28 {
        fill: #151412;
      }

      .st29 {
        fill: #16364e;
      }

      .st30 {
        fill: #968168;
      }

      .st31 {
        fill: #bc8442;
      }

      .st32 {
        fill: #761201;
      }

      .st33 {
        fill: #694105;
      }

      .st34 {
        fill: #f6b113;
      }

      .st35 {
        fill: #d1932d;
      }

      .st36 {
        fill: #0a2338;
      }

      .st37 {
        fill: #587b90;
      }

      .st38 {
        fill: #0a293f;
      }

      .st39 {
        fill: #07141e;
      }

      .st40 {
        fill: #a56402;
      }

      .st41 {
        fill: #47270a;
      }

      .st42 {
        fill: #8e541e;
      }

      .st43 {
        fill: #082237;
      }

      .st44 {
        fill: #ab4021;
      }

      .st45 {
        fill: #7e4c0e;
      }

      .st46 {
        fill: #cf9a3c;
      }

      .st47 {
        fill: #630c04;
      }

      .st48 {
        fill: #e4ae35;
      }

      .st49 {
        fill: #7d4b14;
      }

      .st50 {
        fill: #092034;
      }

      .st51 {
        fill: #a8361a;
      }

      .st52 {
        fill: #5a492f;
      }

      .st53 {
        fill: #0a2137;
      }

      .st54 {
        fill: #8c5a27;
      }

      .st55 {
        fill: #2f0c00;
      }

      .st56 {
        fill: #784302;
      }

      .st57 {
        fill: #6e4926;
      }

      .st58 {
        fill: #1a0b04;
      }

      .st59 {
        fill: #784a04;
      }

      .st60 {
        fill: #203d57;
      }

      .st61 {
        fill: #5d3408;
      }

      .st62 {
        fill: #7c4505;
      }

      .st63 {
        fill: #562a03;
      }

      .st64 {
        fill: #ca9148;
      }

      .st65 {
        fill: #072235;
      }

      .st66 {
        fill: #c2421e;
      }

      .st67 {
        fill: #375267;
      }

      .st68 {
        fill: #7898ad;
      }

      .st69 {
        fill: #7b4509;
      }

      .st70 {
        fill: #061017;
      }

      .st71 {
        fill: #0c2235;
      }

      .st72 {
        fill: #a26c00;
      }

      .st73 {
        fill: #5d0902;
      }

      .st74 {
        fill: #6a8ca0;
      }

      .st75 {
        fill: #1a3042;
      }

      .st76 {
        fill: #061728;
      }

      .st77 {
        fill: #e9ab26;
      }

      .st78 {
        fill: #9e3111;
      }

      .st79 {
        fill: #0a2235;
      }

      .st80 {
        fill: #952b11;
      }

      .st81 {
        fill: #640f02;
      }

      .st82 {
        fill: #e9ad27;
      }

      .st83 {
        fill: #dda232;
      }

      .st84 {
        fill: #c4441f;
      }

      .st85 {
        fill: #7b5303;
      }

      .st86 {
        fill: #620a01;
      }

      .st87 {
        fill: #1f3c54;
      }

      .st88 {
        fill: #74532c;
      }

      .st89 {
        fill: #bc791b;
      }

      .st90 {
        fill: #466173;
      }

      .st91 {
        fill: #794804;
      }

      .st92 {
        fill: #8a5504;
      }

      .st93 {
        fill: #c98b42;
      }

      .st94 {
        fill: #76512a;
      }

      .st95 {
        fill: #0d2537;
      }

      .st96 {
        fill: #183e56;
      }

      .st97 {
        fill: #d89109;
      }

      .st98 {
        fill: #543101;
      }

      .st99 {
        fill: #d59d30;
      }

      .st100 {
        fill: #b5a083;
      }

      .st101 {
        fill: #dea228;
      }

      .st102 {
        fill: #17364d;
      }

      .st103 {
        fill: #eca50d;
      }

      .st104 {
        fill: #764603;
      }

      .st105 {
        fill: #112b41;
      }

      .st106 {
        fill: #446783;
      }

      .st107 {
        fill: #f7b51a;
      }

      .st108 {
        fill: #734001;
      }

      .st109 {
        fill: #e9ad33;
      }

      .st110 {
        fill: #09243a;
      }

      .st111 {
        fill: #658da5;
      }

      .st112 {
        fill: #0b2238;
      }

      .st113 {
        fill: #192c3a;
      }

      .st114 {
        fill: #cfb692;
      }

      .st115 {
        fill: #536f81;
      }

      .st116 {
        fill: #16324c;
      }

      .st117 {
        fill: #976400;
      }

      .st118 {
        fill: #ca9249;
      }

      .st119 {
        fill: #2f3a44;
      }

      .st120 {
        fill: #071b2c;
      }

      .st121 {
        fill: #a16d05;
      }

      .st122 {
        fill: #e8b33a;
      }

      .st123 {
        fill: #cb4821;
      }

      .st124 {
        fill: #0a2337;
      }

      .st125 {
        fill: #52667b;
      }

      .st126 {
        fill: #163850;
      }

      .st127 {
        fill: #123647;
      }

      .st128 {
        fill: #843c24;
      }

      .st129 {
        fill: #0d2b46;
      }

      .st130 {
        fill: #0e2e47;
      }

      .st131 {
        fill: #a13011;
      }

      .st132 {
        fill: #0c2033;
      }

      .st133 {
        fill: #466d8b;
      }

      .st134 {
        fill: #597386;
      }

      .st135 {
        fill: #456d8b;
      }

      .st136 {
        fill: #492502;
      }

      .st137 {
        fill: #587a90;
      }

      .st138 {
        fill: #411b01;
      }

      .st139 {
        fill: #c28140;
      }

      .st140 {
        fill: #534030;
      }

      .st141 {
        fill: #6b1209;
      }

      .st142 {
        fill: #c88c43;
      }

      .st143 {
        fill: #334b5f;
      }

      .st144 {
        fill: #22475d;
      }

      .st145 {
        fill: #081118;
      }

      .st146 {
        fill: #ca8d44;
      }

      .st147 {
        fill: #395467;
      }

      .st148 {
        fill: #1a3a53;
      }

      .st149 {
        fill: #3b5e78;
      }

      .st150 {
        fill: #650e05;
      }

      .st151 {
        fill: #875804;
      }

      .st152 {
        fill: #714101;
      }

      .st153 {
        fill: #41607a;
      }

      .st154 {
        fill: #151513;
      }

      .st155 {
        fill: #d7a035;
      }

      .st156 {
        fill: #dca135;
      }

      .st157 {
        fill: #d6b257;
      }

      .st158 {
        fill: #071c30;
      }

      .st159 {
        fill: #5e0e02;
      }

      .st160 {
        fill: #0f293b;
      }

      .st161 {
        fill: #4c2c01;
      }

      .st162 {
        fill: #131416;
      }

      .st163 {
        fill: #734605;
      }

      .st164 {
        fill: #600d03;
      }

      .st165 {
        fill: #6c4302;
      }

      .st166 {
        fill: #6b1205;
      }

      .st167 {
        fill: #baa683;
      }

      .st168 {
        fill: #7a4f03;
      }

      .st169 {
        fill: #0e2536;
      }

      .st170 {
        fill: #60849b;
      }

      .st171 {
        fill: #67350a;
      }

      .st172 {
        fill: #9e6b2b;
      }

      .st173 {
        fill: #162f43;
      }

      .st174 {
        fill: #171715;
      }

      .st175 {
        fill: #7e4c13;
      }

      .st176 {
        fill: #4a637b;
      }

      .st177 {
        fill: #cc4720;
      }

      .st178 {
        fill: #7c2a16;
      }

      .st179 {
        fill: #153951;
      }

      .st180 {
        fill: #580a02;
      }

      .st181 {
        fill: #274351;
      }

      .st182 {
        fill: #633600;
      }

      .st183 {
        fill: #0d2236;
      }

      .st184 {
        fill: #851604;
      }

      .st185 {
        fill: #4c708a;
      }

      .st186 {
        fill: #b08b4c;
      }

      .st187 {
        fill: #d8940e;
      }

      .st188 {
        fill: #49687e;
      }

      .st189 {
        fill: #ca8941;
      }

      .st190 {
        fill: #09131a;
      }

      .st191 {
        fill: #0e2b43;
      }

      .st192 {
        fill: #c08741;
      }

      .st193 {
        fill: #122e43;
      }

      .st194 {
        fill: #161615;
      }

      .st195 {
        fill: #440502;
      }

      .st196 {
        fill: #170b05;
      }

      .st197 {
        fill: #56778c;
      }

      .st198 {
        fill: #75440b;
      }

      .st199 {
        fill: #0f2a45;
      }

      .st200 {
        fill: #a53112;
      }

      .st201 {
        fill: #f3ad13;
      }

      .st202 {
        fill: #6e4303;
      }

      .st203 {
        fill: #6e4500;
      }

      .st204 {
        fill: #af9474;
      }

      .st205 {
        fill: #b95137;
      }

      .st206 {
        fill: #6a1105;
      }

      .st207 {
        fill: #e29c0c;
      }

      .st208 {
        fill: #b46d0f;
      }

      .st209 {
        fill: #1d0d05;
      }

      .st210 {
        fill: #905905;
      }

      .st211 {
        fill: #091e30;
      }

      .st212 {
        fill: #dba030;
      }

      .st213 {
        fill: #be863f;
      }

      .st214 {
        fill: #7f6444;
      }

      .st215 {
        fill: #cd9124;
      }

      .st216 {
        fill: #d69825;
      }

      .st217 {
        fill: #152f43;
      }

      .st218 {
        fill: #1f0502;
      }

      .st219 {
        fill: #b48144;
      }

      .st220 {
        fill: #163b56;
      }

      .st221 {
        fill: #7298ae;
      }

      .st222 {
        fill: #d9a739;
      }

      .st223 {
        fill: #966201;
      }

      .st224 {
        fill: #466378;
      }

      .st225 {
        fill: #161616;
      }

      .st226 {
        fill: #4b708d;
      }

      .st227 {
        fill: #400602;
      }

      .st228 {
        fill: #663800;
      }

      .st229 {
        fill: #5f2f02;
      }

      .st230 {
        fill: #643901;
      }

      .st231 {
        fill: #e69f0b;
      }

      .st232 {
        fill: #0a2237;
      }

      .st233 {
        fill: #0c2338;
      }

      .st234 {
        fill: #4c708d;
      }
    </style>
  </defs>
  <path class="st58" d="M354.94,61.18c-.2-.76-.02-1.89-.33-3.01-1.03-3.64-5.9-15.78-5.68-18.36s3.55-2,4.34-2.83c.51-.53-.08-1.85,1.43-2.67,1.27-.69,9.22-1.39,9.91-.81l3.82,22.42c2.25.28,2.77,3.24.75,4.5,0,.38-1.48,2.43-.74,3.73,13.51.59,16.68,16.17,19.23,26.86,4.3,18.02,5.93,36.85,9.43,55.06,1.28,6.69,8.28,29.59,6.13,34.33-.94,2.08-3.74,2.87-4.85,3.76-1.27.25-1.27-.25,0-1.5-.4-1.58.6-2.58,2.99-3-1.6-1.18-1.13-1.79.75-2.25-3.3-5.91-5.35-12.52-6.15-19.82-3.86-22.03-7.9-44.01-12.13-65.93l.31-2.74-1.13-.37c-.76-7.58-3.56-14.07-8.4-19.46-2.29-.1-4.1-.74-5.45-1.91-.1,2.04-.85,1.93-1.5,0-1.29-1.03-2.11-2.51-2.45-4.42-3.5-.23-4.24,2.85-2.22,9.23l-1.31,1.19c-.24,1.99-.93,1.91-1.5,0-.47.38-.72-.12-.75-1.5-2.12-.49-.52-1.22-.6-.89-.33,1.42-2.35,3.74-3.9,3.14.07.45.12.9.08,1.33-.43,4.75-20.94,15.94-27.78,14.42,0,1.77-.51,2.52-1.5,2.25-1.7.34-3.59-3.52-3.74-5.25-3.12-1.24-4.56-1.48-7.35,1.26-.98,1.87-2.9,1.86-4.48.66-3.51,1.76-3.96.79-5.18-2.28.53-3.99-3.08-2.93-3.85-.11-1.39,17.99-13.95,32.29-32.45,27.29-7.53-2.04-12.99-4.82-17.93-11.69l.12-2.39c-1.32.39-1.52.09-.6-.92l-2.25-5.17c-.1-2.65-3.63-11.32-4.67-6.91-1.1.19-1.53,1.19-1.28,3l-.93.24c-.21.65-.46.65-.75,0-1.18,1.3-2.47,1.04-2.99-.75-1.54,2.62-5.24-.25-6.77-2.13-3.06,1.32-5.79,3.78-8.2,7.38l.39,1.77c-4.85,7.14-8.63,14.88-11.32,23.23l-1.8.5c-1.48,4.05-3.73,7.79-6.77,11.22-.32,1.02-.06,1.78.78,2.28l2.9-.2c6.26,3.25,12.35,6.92,17.67,11.59.52-1.37,1.4-1.92,2.64-1.65,1.83-4.43,1.71-8.93-.35-13.49l1.1-1.51c-.11-.8-.07-1.06.75-.75.37-2.23.37-5.23,0-9-2.68-2.53-1.68-7.16-.75-10.5-.65-.97-.32-1.33.75-.75,2.24,2.36,3.36,5.78,3.36,10.25,1.26,4.29,1.14,7.88-.36,10.75l1.09,1.87c-.47,12.72-.97,25.48-1.49,38.29l-1.1,1.84c-.69,11.8-2.14,23.61-4.37,35.42.48,2.24.19,4.08-.85,5.52,1.53,2.66-.2,1.65-.06,1.68,4.52,1.07,9.36,2.07,13.94,1.24,8.01,2.27,16.01,4.31,24.16,5.6,8.95-1.32,18.32-2.65,27.51-3.47.52-.05,1.07.15,1.64.37s1.14.54,1.67.89c2.3.91,1.4,1.85-.75,2.25,1.7,1.54.68,5.39-1.5,6,1.1,1.3,1.28,5.6,0,6.75-1.32,3.29-1.78,7.26-.49,10.59l-1.01.66c-.65-.87-1.2-1.53-1.26-2.71l2.01-22.05c-.98-.98-21.54,3.56-25.09,3.74-7.62.39-25.49-2.39-33.47-3.96s-10.23-1.22-9.56-9.9c.66-8.63,3.28-18.39,4.37-27.12,1.56-12.53,2.76-25.12,2.35-37.76-1.5.31-1.47,3.01-2.76,3.78-5.07,3.05-16.59-4.59-20.44-8.29-1.42-1.58-3.17-3.08-5.24-4.5-4.14-.08-1.81-8.85,1.5-6.75,1.63-2.34,2.47-5.21,2.52-8.62.52-.49,1.38,0,1.98.37,1.55-6.94,4.65-14.32,7.92-20.7,4.33-8.46,7.99-14.87,17.54-17.55-2.62-.26-5.36-.51-8.24-.75-2.21,2.12-5.3,2.17-7.49,0,.03-1.22.43-2.15,1.63-2.2h9.11c-.65-.86-.34-1.49.49-2.3,1.23-.06,2.48.13,3.71-.04,1.3-2.58-.73-4.5-.75-6.3-.02-1.23.77-2.53.79-3.8.1-7.59-.63-15.44.75-22.87h10.86c.13,0,1.17,1.45,1.92,1.82,1.47.74,3.57.08,3.72,2.29.25,3.53-2.72,13.98-3.44,18.35-.45,2.75-.37,4.83-1.08,8.29l-.15,1.89c2.04.29,1.63,4.84-.6,4.86.85.38,2.42.75,4.72,1.11,10.84,10.29,29.64,16.3,42,5.33,2.97-4.2,6.62-7.17,10.95-8.92l-.77-1.27c-2.02-1.08-1.55-4.18.75-4.5.05-.21.54-.92.75-1.5-.8-5.06,2.72.48,2.25,3,.34.26.59,0,.75-.75-1.24-.76-2.04-3.05-1.5-4.5-.31-2.48-.56-2.73-.75-.75-.21,1.12-1.44,1.43-1.5,0-.84-4.58-5.61-16.94-4.37-20.5s13.5-6.21,14.71-2.98c1.99,5.33,2.09,17.49,2.39,23.48q-6.26.54,0,0c.21,4.3,1.09,2.45,1.5,3,2.98.64,1.52,3.5-.75,4.5,1.05.42,1.77,1.52,2.16,3.3,3.74,1.32,6.47,3.3,9.18,6.17,1.42.63,4.1.15,5.6-.3,10.57-3.19,19.46-10.9,24.99-19.68-1.74-.22-3.39-2.56-1.5-3.75Z"/>
  <path class="st70" d="M128.07,77.68c.68.16,1.18.91,1.5,2.25.93-1.68,5.02-.68,5.99.75.66-2.13,1.41-2.88,2.25-2.25,3.65,1.85,4.76,14.66-1.33,8.65l-.98,1.6c-4.54-1.08-5.51-1.46-5.18-5.74-1.29,1.08-1.86.97-1.5-.75l-.8.66c-6.79-5.2-10.42,10.19-11.29,15.54-2.24,13.72-3.55,28.72-4.73,43.18-1.91,23.39-3.59,46.79-5.03,70.21-.39,3.13-1.09,6.18-2.11,9.16l.88,1.55c-.83,9.36-1.37,18.75-1.61,28.18-1.14.61-1.65,1.7-1.52,3.27l1.48-.23c9.13,5.51,21.97,5.44,31.71,1.92,1.58-6.13,2.67-12.52,3.27-19.18,2.94-28.72,6.71-56.4,13.02-84.59.44-1.95,2.7-11.68,4.96-12.17.28-.06,2.59.71,3.22.99,2.17.15,3.25,1.91,3.23,5.28l-.23,19.47,1.45,3.73c1.68,25.93,2.81,51.91,2.89,78.25,0,1.08-.21,2.16-.43,3.25s-.56,2.19-.91,3.27c.64,3.03,2.91,4.49,6.79,4.39l.7,1.61c2.05.1,4.12-.31,6.23-1.22,3.11.48,19.15-2.36,19.61-5.42.64-38.85,1.25-77.14,1.82-114.85-1.18-1.53-1.41-2.78-.69-3.75,3.67,1.17,5.52.31,5.24,4.5-1.25,19.04-2.63,38.8-3.03,58.09-.16,7.71-1.13,50.58.43,54.38.36.86,1.82,1.61,2.27,2.98.63,1.95.63,9.43.29,11.63-1.35,8.55-21.08,11.36-28.02,10.9-3.18-.21-14.36-2.39-15.61-5.41-.81-1.96-.83-11.32-.45-13.65.43-2.73,2.63-3.26,2.99-6,.73-5.54.08-15.1-.02-21.09-.47-27.41-3.58-54.95-4.6-82.37l-1.78-5.72c-4.36,17.77-9.55,36.36-12.27,54.48-2.71,18.1-3.14,36.61-6.13,54.69.05,2.8,2.66,2.8,3.07,5.92.65,4.9-.72,14.5-6.01,16.55-8.1,3.14-21.62,1.75-29.8-.93-10.04-3.29-11.12-6.42-9.9-17.09.49-4.25,3.22-5.33,3.7-8.29,2.31-14.39-.1-31.79,3.03-46.46,4.06-33.82,3.7-70.71,9.08-104.15,1.42-8.83,4.17-19.62,14.88-19.97Z"/>
  <path class="st218" d="M369.17,67.18c1.66-.01,4.01,1.93,2.99,3.75,3.77.63,4.73,10.25,4.62,13.79-.02.54-.52,1.06-1.17,1.58.22,14.89-.68,29.76-2.7,44.62l.71,3.47c-.54,17.83-1.66,35.56-3.34,53.18,3.09-3.82,9.02-8.88,13.86-7.9,5.07-2.6,10.43-4.24,16.48-3.87l1.49,1.62c-.08.82-.37,1.53-.75,2.25-2.47,1.23-5.36,1.86-8.68,1.88-.21,2.39-.81,4.27-1.8,5.62,2.11.63-.05,3.59-1.5,2.25-2.2.16-2.91-2-2.12-6.47-9.94,3.31-24.22,10.3-4.76,15.2l5.77,3.78c-.48-4.37-.11-8.29,1.11-11.76,1.22-1.74,1.84-1.31,1.5.75.42,4.9,2.15,17.77-.96,21.55-2.64,3.21-22.14,8.86-28,12.07-12.17,6.67-21.37,16.66-35.28,20.91-8.01,2.45-31.38,5.29-36.85-2.03.46-3.58-1.3-8.52,1.5-11.25.81.21,1.21,1.04,1.19,2.49-1.77,7.44-.03,7.77,6.68,8.86,15.97,2.58,29.93-.87,43.52-10.31,1.08,0,2.17-.1,3.27-.28l.98-2.43c11.04-9.12,22.78-14.41,36.35-18.29,7.79-3.07,4.43-7.16-10.09-12.27-2.81-1.44-5.91-3.26-7.27-6.26-1.86-4.09,0-23.46.85-27.63l1.65-2.11c-.21-3.5-.46-6.95-.76-10.34,1.06-9.59,6.97-73.02,2.98-75.58-2.66,1.86-8.04,2.87-9.71-.32-2,.44-2.25-.56-.75-3-1.5.11-1.05-.7,0-1.5h1.5c5.67,3.32,6.03,1.16,4.64-4.93l1.35-1.07c.47-.08,1.12.12,1.5,0Z"/>
  <path class="st145" d="M83.15,65.68c4.79,6.3,5.15,15.22,4.5,22.88-.2,2.35-1.45,4.18-1.56,6.74-.2,4.73,1.82,15.29,3.44,19.87,2.26,6.38,6.73,9.62,5.42,17.46-1.14,6.78-7.18,8.2-11.42,11.8-6.24,5.29-7.43,15.84-13.55,21.67-12.81,12.22-29.17.81-19.89-17.67,6.81-13.57,15.12-19.4,17.25-35.97,1.3-10.13-.85-11.39-3.61-20.19-2.26-7.22,2.06-14.57,5.33-20.87.36-.69,1.27-1.02,1.38-1.22,1.8-1.13,2.62-.57,2.25,1.5v1.54c-3.39,4.4-6.72,10.95-5.31,16.61,1.48,3.94,2.5,7.89,3.07,11.85,5.76.96,9.16-5.39,11.49-9.75l1.99-.75c-.64-1.27-.52-2.91.35-4.93.73-6.17-.38-12.28-3.35-18.32-3.9-1.37.83-6.17,2.25-2.25Z"/>
  <path class="st196" d="M71.92,54.43c2.17-8.62,2.24-16.69,3.37-25.5.93-2.01,7.58-1.03,9.42-.43,2,.65,2.25,2.92,3.43,3.31,1.84.6,6.99-.8,7.38,2.27-1.91,8.22-6.37,15.72-8.5,23.86-.32,1.23,1.24,1.47,2.13,1.74.72,1.01.54,3.12-.75,3.75-3.32-1.17-3.99,1.64-5.24,2.25-.41.2-1.87-.29-2.2.04-.29.29.08,1.64-.04,2.21,3.28,5.09-.75,12.22-2.99,4.5-.52,2.09-2.36,2.15-2.99,0-1.3,1.72-2.24,1.43-2.25-.75-.74-.28-1.56-1.03-2.25-1.5,1.37-2.57,1.37-8.47.75-11.25-2.78-1.1-1.89-4.26.75-4.5Z"/>
  <path class="st174" d="M368.42,55.93c16.34-5,32.8-12.16,48.2-19.6,5.02-2.43,9.99-6.28,15.45-7.4-4.62,5.8-11.34,9.89-17.81,13.28-7.29,3.82-16.6,7.75-24.27,10.94-6.76,2.8-13.66,5.61-20.81,7.28.02-1.53-.71-2.97-.75-4.5Z"/>
  <path class="st58" d="M128.82,67.18c.2-3.08.47-5.72.71-8.67s.12-20.92,2.03-21.36c5.88-1.36,11.45,2.52,16.76,4.27.78,3.26-3.42,15.44-4.36,19.55-.38,1.64-.15,5.98-.91,8.45,1.89,1.3.81,4.63-1.5,4.5,1.7,1.16.28,3.39-1.5,3.75,1.1.81.85,1.06-.75.75-.49,1.91-.74,1.79-1.5,0-.63.24-1.18,1.68-2.25,2.25l-1.36-1.05,1.82-12.12-3.57-.77c-.95,3.91-1.41,8.01-1.39,12.29l-1.49.91c-1.18-.69-1.32-.82-1.5-2.25-.22-1.8.59-3.81.44-4.95-.1-.73-1.17-.96-1.19-1.05-2.26-.73-.59-4.68,1.5-4.5Z"/>
  <path class="st154" d="M301.03,72.43c-.36,1.44-.48,3.03-.75,4.5.95,1.04.4,1.78-.91,1.97-16.44,2.49-33.19,2.94-49.78,3.3l-6.21-1.53c.37-2.33.19-4.03.75-6.75-.09,2.62-.46,2.07,1.84,2.25,7.67.6,20.5-.23,28.48-.76,8.83-.58,17.77-2.24,26.59-2.99Z"/>
  <path class="st194" d="M71.92,54.43c-.75,2.99-1.37,1.73-.75,4.5-14.15-4-28.26-10-41.34-16.72-7.24-3.71-16.26-8.01-21.55-14.03,21.32,8.35,41.28,20.39,63.64,26.24Z"/>
  <path class="st209" d="M202.95,70.18l-2.71,4.1c.11,2.57-.12,5.85-2.54,7.15,2.02.64,2.05,1.58,0,2.25.38.08.73.2.94.43.74.83-2.48,4.94-3.18,2.57l-1.36-1.05,1.82-12.12-4.12-1.03-1.27,11.99-1.81,1.46c-.25.65-.5.65-.75,0-2.34-.48-2.59-1.23-.75-2.25-2.19-.72-1.36-4.18.75-4.5-2.11-.99-1.42-4.76.75-5.25,0-1.14.25-3.78,0-4.5q1.67-1.1,0,0c-.06-.16-1.65-.52-1.41-1.72.13-.62,1.24-1.34,1.39-2.43.96-7.17.81-15.09,1.48-22.35.46-2.09,8.99-.83,10.72-.32.94.28,1.52,1.4,2.61,1.88,1.47.65,3.78-.27,4.52,2.21,1.1,3.7-.59,5.08-1.12,7.58-1.15,5.37-2.45,10.64-3.97,15.9Z"/>
  <path class="st162" d="M188.72,73.93c.01,1.31-.62,3.93-.75,5.25l-.86,1.41c-14.94-1.69-29.89-3.38-44.84-5.07l-.73-1.59c.39-1.08,1.15-3.36,1.5-4.5l45.67,4.5Z"/>
  <path class="st28" d="M354.94,61.18c.57,2.16,1.4.97,1.5,3.75l-.72,1.73c-13.33,3.34-26.66,6.68-39.99,10.01l-1.22-1.24c.04-.78,1.46-3.55.75-4.5l39.68-9.75Z"/>
  <path class="st225" d="M128.82,67.18c-.06.88-1.59,4.08-1.5,4.5-5.5-.85-11.18-1.39-16.64-2.45-3.6-.7-20.57-4.37-22.29-5.8-.1-.09-.12-2-1.5-1.87l2.24-1.88c12.48,3.79,26.87,4.85,39.68,7.5Z"/>
  <path class="st8" d="M202.95,70.18c-.53,1.82-1.55,3.36-1.5,5.25h17.6c2.2,0,5.45.9,8.61.75.27.9,2.45,3.17.28,3.69-2.79.67-8.65-1.1-11.51.81-4.58,1.44-9.66,1.69-15.24.74-.85,1.39-3.37,1.84-3.48,0,.37-2.13,1.02-4.4,1.22-6.5.08-.84-.67-2.14-.47-2.5.05-.1,1.05.51,1.49.29,1.06-.52,1.73-2.09,2.99-2.54Z"/>
  <path class="st58" d="M393.13,186.43c1-.76,1.9-1.39,2.25,0-.73.59-4.39,4.03-4.49,4.5l-1.5-.75c-.65-.25-.65-.5,0-.75,1.35-.14,1.25-2.01,1.5-2.25-.03-2.25,1.19-2.88,2.25-.75Z"/>
  <path class="st154" d="M302.53,67.93c.8-.76.98-.32.75.75.51,1.62,1.04,2.5,1.5,4.5.03.69,0,.98-.75.75-.37-1.19-1.9-2.67-1.51-4.5h-.73c-.09.47.12,1.14,0,1.5-1.23-.53-.58-2.1-.75-3h1.5Z"/>
  <path class="st218" d="M398.37,184.18c-.96.77-2.04,1.47-2.99,2.25-.73.07-1.55-.11-2.25,0-1.94-2.27,3.14-5.31,5.24-3.75v1.5Z"/>
  <path class="st3" d="M196.96,116.68l.35-1.02c-2.89-1.7-7.87-13.73-6.68-15.97.83-1.56,1.77-2.21,2.6-.63,4.02-.09,7.87-.79,11.56-2.09,1.12-.11.63,21.4.46,22.52-.11.74-1.35,5.69-1.67,6.54-.28.75-.8,1.38-1.39,1.91-.05.13-1.01.5-1.32,1.27-1,2.48-1.33,3.16-.17,5.48.45.9,1.6,1.64,1.84,2.27,1.72,4.43-.22,23.13-.37,28.83-.76,28.06.61,56.81-1.51,84.75-.08,1.02.79,2.15.79,2.97,0,.21-2.93,2.72-3.19,2.86-5.96,3.37-18.02,4.31-24.52,3.57,1.48-1.63,3.82-3.29,5.94-4.14,2.9.78,5.19-3.66,5.9-6.21-5.83-3.2-2.56-6.85,1.63-9.15l-1.41-1.48c.55-9.6,1.52-19.18,4.45-28.23.01-1.49-.2-3.02-.82-4.32-2.21-.36-2.51-3.01-.21-3.73-.88-1.51-.58-3.41.31-4.84-1.41-1.7-3.16-4.01-1.54-6.04,2.48-1.81,4.21-3.09,1.68-5.6,2.09-3.98,3.91-8.84,1.67-13.41l1.48-3.75c-1.7-3.26-1.05-8.53.3-11.91-1.22-2.76-1.22-9.87,1.58-11.2-1.68-2.35-2.94-5.85-1.61-8.96,2.27-2.11,1.22-4.34-3.15-6.69l.05-1.32c2.73-1.57,5.06-3.05,4.55-6.71l1.65-1.07c.17-1.29,3.37,1.04,3.21.94-2.65-1.02-4.22-2.33-4.71-3.94-.1-1.77.72-1.88,2.25-1.5Z"/>
  <path class="st131" d="M348.21,128.68c-.14-1.68.86-1.96,2.15-.95,5.17,4.05-7.4,31.79-14.39,34.55-1.81,3.63-3.74,7.22-5.8,10.75.84,7.45.71,14.94-.39,22.47l.51,12.61-1.54.81c1.38,1.61,1.12,3.77-.78,6.49,2.68,4.93-2.64,12.13-7.29,14.78-1.36.69-2.91,1.62-4.43,2.55-2.02,1.23-3.96,2.54-5.66,4.21-1.55.32-2.55-.2-2.94-1.69l-1.41,1.53c-4.36-.56-8.81-1.01-13.35-1.34-.5-4.19-1.02-7.53-1.58-10.03.22-2.01.83-4.07,1.5-6,.33-.77.88-1.19,1.67-1.14,5.65.2,23.49-.16,25.59-6.07-2.31-23.09-3.66-46.16-4.05-69.21l1.14-.37c5.27,8.3,15.97-.93,19.48-6.71,1.85-1.73,8.44-6.58,10.53-7.56.25-.12.63.05,1.05.31Z"/>
  <path class="st2" d="M222.42,94.18l5.21-5.99c1.6-1.98,3.35-1.75,5.25.7,2.72.55,4.23,1.81,4.51,3.79.99-.73.76.86.72.79-.5-1,.92-2.51,1.85-1.18.1,3.2.29,6.56,1.91,9.39.23-.64.48-.63.75,0,.15-5.01,1.8-6.39,2.95-.63l1.54,2.88c.96-.9,1.31-.46.75.75,1.39,1.93,1.64,3.18.75,3.75-2.36-.04-6.1,4.3-3.09,4.32,1.11,2.18,2.08,4.41,2.91,6.68,10.01-2,5.82,12.49-.5,6.64-1.85,3.17-5.85,1.31-8.03-.84l-1.02.44c-2.11,1.56-2.36,2.81-.75,3.75,4.09,3.89-4.91,13.09-5.99,4.5l-.75-6c-.37-6.33-1.61-14.78-2.99-21-.55-.74-1.05-.76-1.5,0,1.32,3.47-.8,7.97-3.44,3.5l-1.06,1c.68.39.56.94,0,1.5.5,3.22,1.24,8.33-2.25,9.75.35,1.9.19,3.77-.49,5.59.75,2.78.16,4.42-1.75,4.91l-1.43,1.02-7.06-3.56c-1.03-.71-2.19-1.37-3.49-1.96l-.79-.63c2.18-2.64,3.69-5.43,4.54-8.37,2.7-7,7.61-20.47,12.73-25.5Z"/>
  <path class="st84" d="M348.21,185.68l1.67-4.73c2.66-1.37,5.78,4.67,1.84,5.5-.65,2.94-.4,5.55.74,7.83-2.18,2.17-2.82,4.46-1.91,6.87-2.86,4.52-5.61,9.29-8.26,14.31.74.2,1.42.61,1.76,1.32.84,1.74-2.85,10.21-4.83,11.66-.16.84.09,1.34.75,1.5,1.99-1.23,3.19-1.79,4.01.82,1.88-.04,2.92.28,1.98,2.18-8.98,5.7-19.2,11.74-30.34,12.74-4.35.39-22.36.21-24.71-3.72-1.27-2.13.24-7.12.39-9.76.12-2.19-.23-4.63,0-6.75,2.35-.42,1.35,1.2,1.48,2.63s-.15,5.76,1.16,6.36c1.82.84,1.06-3.18,2.6-2.99v3c1.67-.01,3.31.6,3.01-1.5h.72c.58,4.61,4.18-.39,4.88,2.99,1.78-.66,1.08-4.49,2.25-4.48,3.18.01.33,3.9,2.61,4.47.46-1.62,3.88-3.38,5.61-4.52.6-.4,1.68-.15,1.96-.38.67-.56-.05-1.85.63-2.24.45-.26,1.46.47,2.68-.27,2.25-1.36,6.04-6.74,6.35-9.46.37-3.22,1.3-7.53,1.51-10.12,1.45-3.24,3.83.52,3.53,2.93,2.03,1.02,3.57.57,4.62-1.33,1.49,1.05,2.24.43,2.24-1.85,3.53-1.12,5-6.6,3.39-9.89,1.71-1.89,1.69-4.35-.06-7.37,2.55-.89,3.86-2.56,3.92-5l1.82-.74Z"/>
  <path class="st9" d="M384.15,88.93c7.82,29.09,10.03,59.39,17.97,88.5-6.31-.72-11.88,1.24-17.97,2.25-2.45-1.85.79-2.81,2.76-3.25-1.92-.63-2.69-1.69-2.32-3.2,4.3-3.57,4.77-4.88-1.54-5.16l-1.38-1.43c.36-5.22.04-10.38-3.16-14.88,2.33-3.7,2.64-7.09.92-10.19l.98-1.64c.7-2.65.65-5.62-.14-8.92.43-7.26.12-14.58-.92-21.95-4.75-1.16-1.38-13.69,2.56-10.38.88-.04,1.12.73.75,1.5,1,5.82,1.25,5.57.75-.75-1.55-2.77-2.02-7.26-1.5-10.5.1-2.18,1.6-2.02,2.25,0Z"/>
  <path class="st19" d="M313.76,133.93c-.26-1.93-.49-3.86-.61-5.8s-.23-3.86-.1-5.77c.66-9.68,1.55-19.31,2.48-28.97.12-1.2,2.91-2.89,4.02-2.2,1.74,1.08,1.74,9.34-.55,10.49,1.34,4.11,1.85,8.27,1.18,12.51l1.06.24c.9.92.47,3.92-.75,4.5,1.62.7.89,3.64-.75,3.75-.53,2.1-1.5,3.61-2.92,4.53l-1.07,7.73c.39,26.07,1.8,52.25,4.21,78.53-7.29,4.63-16.42,4.94-24.86,4.82-.75-.01-1.25-.32-1.56-1.1-9.55.59-19.15,2.52-28.08,2.99-8.09.42-11.9-2.2-18.92-3.53-7.47-1.41-15.09-2.29-22.63-3.21l5.99-43.5c2.62-.23,1.95,3.62.75,5.25l.94,1.12c-.95,10-2.31,20.03-4.08,30.1l.99,1.39c2.66-3.12,4.86-1.65,6.64,1.13,2.45-2.17,9.44-.78,12.77.21,3.16.94,8.76,2.7,5.95,6.31.38.22,9.2,2.33,6.74.23,6.68-.98,13.42-1.48,20.22-1.5,1.21-2.5,4.87-2.33,6.74-.75,7.29-.38,14.53-1.38,21.71-3-1.21.53-2.21.53-2.99,0l-.52-.9c5.46-11.21,18.19.21,3.51.9,3.45-1.49,5.75-1.48,6.92.04.57-3.11.22-6.48-1.05-10.1-1.15-13.96-2.05-27.92-2.69-41.86-1.48-.54-1.64-1.68-1.77-3.12-.6-6.86,1.38-14.86,3.09-21.45Z"/>
  <path class="st77" d="M250.87,99.43c13.98,20.2,41.02,18.75,47.7-6.59,1.55-5.89-.65-10.89,7.7-10.66-.09,1.2-.04,5.78,1.24,6.06,2.53.55,10.97-.94,9.24-5.3.66-.77,4.6,3,5.24,3.75.78,1.07.44,1.46-.75.75l-1.42.97c-1.71-.77-2.41-.24-3.53,1.11.52,6.04-4.83,8.44-6.34,1.65l-1.62,1.06c-.66,1.96-2.37,4.51-4.31,2.71-.21.65-.46.65-.75,0,.92-3.66.42-2.91-1.5,2.25-2.32,9.46-10.7,19.7-20.96,20.25-3.44,1.21-7.2,1.59-11.28,1.14l.8.36c3.58.58,7.2.61,10.86.08l.38.67c.81,3.08-6.9,2.7-9.2,2.36-4.84-.71-10.31-1.53-6.13-7.56-2.4,3.2-7.4,6.96-10.88,2.2-2.93-1.56-5.38-3.49-7.35-5.79l.61-.96c-2.06-.43-1.88-.81,0-1.5-.29-1.24-.72-2.45-.75-3.75,1.29.44,2.54,1.69,3.74,3.75q3.82,4.13,0,0c-3.98-4.33-6.72-10.95-6.74-16.5-.19-1.42-.36-5.88,1.8-4.88.61,4.36,1.72,8.68,4.19,12.38Z"/>
  <path class="st218" d="M348.21,126.43c2.02.63,1.97,1.58,0,2.25-2.36,2.88-6.47,4.22-8.91,6.45-2.07,1.89-3.28,4.93-5.71,7.03-3.49,3.02-10.84,7.31-14.99,3.8-.9-.76-.66-2.36-1.83-2.28l4.12,70.51c-8.11,5.09-18.69,5.33-28.09,5.24.26-.74.77-1.4.75-2.25,3.32-.21,6.78.26,10.1,0,3.03-.24,15.11-2.01,15.81-5.2l-4.19-39.42-.79-33.03,3.04-43.84c1.31-.18.7,1.7.74,2.61.38,9.26-1.55,18.74-.74,28.13l2.24-3.75c1.96,1.88.24,4.71-1.33,6.59-1.95,6.98.62,22.27,9.06,11.27l1.25-.62c2.45-5.18,9.82-9.41,15.32-11.46l.51-1.45c-5.21-7.5-9.66-15.7-14-24.14-2.36-2.61-4.27-7.5-4.83-10.96.31-.88.71-1.7,1.5-2.25l1.54.6c5.29,10.96,11.3,21.53,18.05,31.71l1.38,4.44Z"/>
  <path class="st208" d="M296.54,93.43c-1.97,6.2-2.68,4.38-5.2,7.99-.58.83-.1,1.88-1.1,3.26-5.57,7.65-19.07,7.26-26.81,3.54-4.42-2.13-8.4-5.23-10.33-9.53.24-.59.68-1.16,1.15-1.01,15.46,4.68,28.07,8.17,41.35-4.77l.92.54Z"/>
  <path class="st89" d="M295.79,91.18c.51.82.37,1.32-.26,1.85-13.86,11.65-23.85,10.51-40.13,5.1-.68-.23-.87-.94-.79-1.71-2.88-1.09-6.09-8.1-1.5-5.25,1.81,1.37,10.84,4.59,13.28,5.07,12.89,2.49,23.14-2.51,31.64-11.82.2,2.74-.73,4.62-2.24,6.75Z"/>
  <path class="st82" d="M325.74,91.93c3.77,6.46,7.16,14.72,11.1,21.5,1.34,2.3,9.03,13.31,9.15,14.14.2,1.34-4.74,3.42-6.13,4.38-3.66,2.56-7.7,5.34-11.13,7.97h-.75l-1.48.27c-5.01,1.67-5.67-4.74-.77-3.27,1.44-2.05,3.44-3.8,5.99-5.25-4.02-.81-1.1-6.4,2.94-5.85.48-2.32,2.25-2.93,4.34-2.02,1.38-.26-1.64-4.1-2.1-4.17l-8.09-15.37c-2.2.41-3.17-.96-2.91-4.09-1.53-3.94-3.44-7.73-5.73-11.39l1.07-1.36.75-.75c.79.93,3.16,4.25,3.74,5.25Z"/>
  <path class="st190" d="M206.69,119.68c-.35.57-1.58.96-1.89,1.52-.7,1.27,1.05,5.3-2.6,6.73.62-1.53,1.22-3.21,1.52-4.86l.72-25.14c-4.32,1.06-8.18,2-12.73,1.49-.65,7.83,4.43,15.54,11.23,19.13-1.73.64-4.65-.82-5.99-1.88-2.72,1.2-8.05-7.56-5.99-9.75-2.03-.06-2.03-.56,0-1.5-2.72-1.36-3.65-6.51-1.01-8.49-.17-2.87.42-4.79,1.76-5.76,2.48.54,2.23-.21-.75-2.25-3.02,4.55-5.97-2.47-.75-2.25,1.26-1.92,3.92-1.72,5.24,0,2.06-.61,1.8-.54,2.25-3,9.85-1.8,9.44,6.71,8.2,13.84l.78,22.16Z"/>
  <path class="st64" d="M232.9,44.68c2.48.26,5.51-.36,7.88,0,1.02.15,1.27-.43,1.13,1.14-1.51,3.4-.12,20.62-1.53,22.11-.29.31-6.21-.21-7.48,0v-23.25Z"/>
  <path class="st146" d="M310.02,44.68l2.25,21.75c-2.46-.8-6.35,1.83-7.34-.53-2.08-4.99-2-14.91-3.9-20.47l8.98-.75Z"/>
  <path class="st24" d="M205.94,128.68c.12-.07,1.74-.65,2.34-.9,2.69-1.14,2.46-.81,1.4,1.64,3.04.36,5.43,2.68,8.25,3.76,3.25-4.09,5.75-.52,4.28,3.73,1.49,1.47,3.06,2.72,4.71,3.77.28.47.28,1.22,0,2.25-.78,1.28-1.17,2.84-2.62,3.67-6.12-5.61-13.2-9.68-20.6-13.42-2.45-.7.46-5.77,2.25-4.5Z"/>
  <path class="st20" d="M363.08,35.03c.9.58,3.21,18.58,3.14,21.19l-6.77,1.96c.61-4.64-4.97-18.12-4.32-21.41.26-1.3,6.98-2.36,7.96-1.74Z"/>
  <path class="st26" d="M357.19,75.43c.29.4.49.74.39.9-4.13,6.44-12.23,14.64-19.86,15.6-1.31,3.89-5.58,4.5-4.76-.13-2.84,0-4.75-.71-5.72-2.12,1.73-1.2,7.32-2.12,9.93-3.18,6.47-2.61,12.9-7.62,17.77-12.57,1.9-2.01,3.89-.76,2.25,1.5Z"/>
  <path class="st192" d="M240.39,71.68v15c-2.26-.34-7.08,1.27-7.53-1.9-.4-2.81,1.86-9.51.78-13.11h6.74Z"/>
  <path class="st189" d="M313.01,70.18c-.24,5.29.5,10.56,1.5,15.74-1.17-.19-6.48.28-6.74,0-.52-.54-.93-13.02-1.5-15.01l6.74-.75Z"/>
  <path class="st215" d="M223.91,116.68c1.8,3.44,3.15,7.42,3.74,11.25,1.95,6.27,2.82,9.13-.75,15-.92-.99-.17-1.48,0-2.25-2.77-3.03-3.27-4.78-1.5-5.25-.75-3.5-1.75-7-2.99-10.5-1.79,4.32-3.18,1.12-2.25-2.25.57-2.51,2.08-7.78,2.25-9.75,1,.48,1.85,2.58,1.5,3.75Z"/>
  <path class="st139" d="M361.68,73.18c-.26-1.24-1.52-10.11-1.2-10.53.58-.74,6.08-1.83,6.43-1.47.2,1.99.45,4.03.75,6,.26,1.71,1.28,7.12.64,8.14-.4.64-5.4,1.24-5.83.79-.11-.11-.7-2.49-.8-2.94Z"/>
  <path class="st107" d="M231.4,127.93c.69,2.6,2.79.61,2.98.75.93.69,2.19,7.07-.39,4.53-.83-.82-.72-2.33-1.84-2.27-.04.99.03,2,0,3,1.26,1.61,1.76,3.4,1.51,5.35,3.9.71,1.91,5.1-.13,7.27,1.27,3.34,1.29,6.29.07,8.83l.85,12.99c.19,2.86-.06,8.49-3.79,6.81.09-2.02-.77-4.87-.75-5.25.72-13.92,2.31-28.03,1.5-42Z"/>
  <path class="st55" d="M295.79,91.18c2.65,1.32,1.07,1.25.75,2.25l-10.72,6.89c-6.21,2.65-12.93,2.8-19.51,2.02l-13.19-3.66c-1.23-2.74-.44-1.18-.75-3,.42-.56,1.17-.31,2.25.75,12.52,6.77,32,7.67,41.18-5.25Z"/>
  <path class="st222" d="M250.87,99.43c-2.65-3.83-4.45-6.85-4.5-12l-1.49,4.5c-.54-.54-.97-.95-.95-.89,1.01,3.96,2.27,7.89,3.72,11.73l-.52,1.15c-1.26-1.64-2.78-2.24-2.25-5.25-2.62-.65-.7,2.25-2.24,3-1.41-3.97-1.91-7.97-1.5-12-.03-1.7,1.71-3.83,0-5.99,1.57.07,3.68-.5,4.89.72,1.42,1.43,2.61,12.32,4.84,15.02Z"/>
  <path class="st205" d="M384.15,88.93h-2.25c-.32-.69-.32-1.44,0-2.25-1.33-.37-1.83-1.37-1.5-3-1.82-4.23-4.08-8.43-6.8-12.6l-1.43-.15c-.32-.58-2.99-1.97-2.99-3.75,3.32-1.1,6.19,1.06,8.57,3.79,4.38,5.03,4.77,11.85,6.41,17.96Z"/>
  <path class="st216" d="M227.66,107.68c.6,3.36.78,7.07.75,10.5.78,2.19.89,8.63-1.5,5.25-1.31-2.16-2.3-4.99-2.25-7.5-1.23-.58-2.5-4.44-1.51-5.25.05-.04-.08,1.03-.74.75-.01-.22-1.23-1.17-.74-2.25,1.18-.48,3.68,2.41,4.48,1.51.13-.14.75-3.57.75-3.76.82-.79,1.13-.35.75.75Z"/>
  <path class="st57" d="M354.09,40.28c1.84,1.16.78,6.47,1.01,7.6.29,1.41,3.38,8.95,2.84,9.54-.97,1.05-1.97-1.28-2.28-1.84-1.42-2.54-4.45-11.41-5.13-14.37-.4-1.75,3.06-1.25,3.56-.93Z"/>
  <path class="st178" d="M401.37,179.68c-.68,1.29-1.89,2.13-2.99,3-1.53,1.2-4.2,1.73-5.24,3.75-.7.11-1.76.28-2.25.75-1.55-9.69,2.96-7.29,10.48-7.5Z"/>
  <path class="st195" d="M360.19,73.18c.09.45-.08,1.03,0,1.5-1.84,4.18-5.56,11.99-10.48,12-2,3-8.22,8.25-11.89,7.19-.53-.15-.43-1.26-.09-1.94,7.12-1.52,15.47-10.76,19.47-16.5-1.14-1.7.64-3.22,2.25-3.75.09.32.6.78.75,1.5Z"/>
  <path class="st94" d="M303.28,68.68c-.05-.15-.64-.4-.75-.75-1.84-6.09-3.04-12.4-5.23-18.4-.48-1.58,1.45-1.43,2.27-.76.66.53,3.31,14.16,3.81,16.49.26,1.23.86,2.25-.11,3.42Z"/>
  <path class="st88" d="M243.38,51.43v-4.5s2.99,0,2.99,0c.15,6.36-2.19,12.48-3,18.75-1.47-.81-.66-4.43-.74-6-.34-1.28,2.53-12.92,1.5-8.41l-.76.16Z"/>
  <path class="st156" d="M222.42,94.18c.5-2.61,6.14-8.93,8.54-8.22.77.23.87,1.7,1.77,2.21,1.23.69,3.29.55,4.67.76,2.2.06,1.99,3.4,0,3.75-1.18-1.29-2.6-1.77-4.27-2.83-1.02-.65-2.62-2.52-3.49-2.37-1.4.24-3.46,4.15-4.6,5.22-.81.76-2.18,1.05-2.62,1.48Z"/>
  <path class="st212" d="M240.39,89.68c.82,4.01,1.32,8.01,1.5,12-2.38-1.17-2.45-6.69-2.25-9-1.45-.25.06,2.02-1.86,1.5-.84-.23-.14-1.24-.38-1.5v-3.75c1,.15,2.13-.33,2.99.75Z"/>
  <path class="st157" d="M205.94,128.68c-1.56.89-3.5,2.68-2.25,4.5-.25-.13-.99.19-1.43-.04-.2-.77-.18-1.68.08-2.43.71-2.05,6.49-7.87,7.34-11.03-.16.41.14,1.52-.18,2.41-.76,2.15-3.15,4.16-3.56,6.59Z"/>
  <path class="st41" d="M242.63,59.68c-.19-3.86-.94-3.75.75-8.25.27-.72,1.76-3.96,1.49-1.15s-1.16,6.7-2.24,9.4Z"/>
  <path class="st172" d="M253.11,91.18c-3.89-.06.27,3.48,1.5,5.25-.54-.29-1.63-.25-2.25-.75-.23-1.36-3.8-4.93-2.99-7.5,2.01-.42,2.78,2.27,3.74,3Z"/>
  <path class="st128" d="M359.44,71.68c.21,2.08-1.57,2.79-2.25,3.75-.33-1.08-1.15-1.49-2.25-1.5,1.31-1.33,1.78-3.71,4.12-4.5.81.21.19,1.61.37,2.25Z"/>
  <path class="st204" d="M359.44,61.18c.13-.88-.56-1.76.51-2.24.72-.32,7.74-2.26,7.7-.39-.03,1.33-6.93,1.5-8.21,2.62Z"/>
  <path class="st136" d="M226.91,123.43c1.8-.15,1.8,2.27,1.5,3.75l-.75.75c-1.17-3.75-2.59-7.42-3.74-11.25-.22-.98-.22-1.2.75-.75.8,2.44,1.4,5.06,2.25,7.5Z"/>
  <polygon class="st52" points="242.63 217.18 240.03 217.92 229.16 215.68 242.63 217.18"/>
  <path class="st100" d="M313.76,67.93l-8.23,2.25c-2.09-1.97,7.12-3.42,8.23-2.25Z"/>
  <path class="st165" d="M242.63,101.68c-.24-.06-.56.09-.75,0-.55-4.01-1.95-7.88-1.5-12h.75c.08,4.04,1.23,7.99,1.5,12Z"/>
  <path class="st114" d="M240.38,68.68c1.22.92-.01,1.36-1.11,1.5-2.44.31-5.36-.22-7.87,0,.33-.97,4.05-1.34,4.96-1.4,1.34-.09,2.68-.19,4.02-.09Z"/>
  <path class="st186" d="M228.41,118.18c1.69,2.83.33,6.96.75,10.12-1.1,1.25-.6-.7-.75-1.12-.44-1.26-1.06-2.49-1.5-3.75,2.38.72,1.48-3.07,1.5-5.25Z"/>
  <path class="st214" d="M215.68,142.92l-7.49-4.49c2.62.67,6.09,2.09,7.49,4.49Z"/>
  <path class="st33" d="M228.41,106.93l-.75.75c-.03-.15-.61-.46-.75-.75.06-2.1-1.6-4.66-.37-6.76.49,2.27,1.37,4.49,1.87,6.76Z"/>
  <path class="st22" d="M244.13,68.68c.31.33-.92,4.38-2.24,4.49-.26-.54.57-6.29,2.24-4.49Z"/>
  <path class="st140" d="M304.78,73.18c.46,2,1.05,3.88.74,6-1.7-.58-1.11-4.03-1.49-5.25l.75-.75Z"/>
  <path class="st8" d="M232.15,81.43c-2.59-.35-6.21.88-8.24-.75,2.61.04,5.24-.04,7.86,0,.42.12.36.41.38.74Z"/>
  <path class="st234" d="M139.31,78.43c14.6,4.34,30.71,5.84,46.35,6.39l1.57,1.11c1.07.57,1.14,1.45.21,2.63,1.19.92.83,3.14-.96,3.37.93,1.85,1.18,8.72-.7,7.15-6.99.11-13.95-.24-20.91-1.05-1.05,1.32-1.83,2.79-2.35,4.4-.32.25-.32.5,0,.75.15,8.21-.96,16.8-2.99,24.75-1.31,2.77-3.55,3.02-6.74.75-1.66.4-3.57-.08-5.72-1.44l-.27.69.17,1.23c3.47.75,5.98,4.02,1.33,4.02-.25.5-.62.89-1.19.95-1.29.14-8.71-3.15-10.04-3.95-1.36-.11-7.71-.48-7.79.03,1.47,3.62-2.33,2.59-4.56.78l-1.99,1.06c-3.81-4.35-3.58,6.83-2.77,7.64,4.39.88,7.55,6.21,5.75,10.26,4.5,4.27-3.94,16.52-6.96,8.77-1.25-1-.42,5.65.73,5.13.82,1.12,1.02,8.55.29,9.31-1.23,1.28-1.93,1.19-3.48.97,2.8,4.05-1.75,2.4-.34,2.27,6.4-.58,5.66,7.66.54,6.4-.11,3.29-.71,6.47-1.8,9.53-2.21.77-3.18,2.21-2.89,4.3,2.06.3,3.16,2.25,1.38,3.7,2.18,2.95,2.81,5.44,1.9,7.47.6,2.82-1.36,6.49-2.8,8.92l-1.27.63c0,4.36-3.78,8.36-6.13,3.59,2.5-36.94,4.55-75.11,8.99-112.12.9-7.51,2.2-23.68,9.04-27.69,4.69-2.76,3.65-.38,5.93,1.06.28.7.79.91,1.5.75.51.18,1.57-.13,2.24,0l-1.49,3.75,3.73-3-.73,4.5,2.25-3.75,3.36,3.73-1.87-9.73c.19-.07,1.25-.07,1.5,0Z"/>
  <path class="st135" d="M104.86,220.93l3.74.76c-.16-1.31.91-2.44.4-3.76-.85-2.18-1.25.47-1.31.51-.84.49-2.43.8-2.07-.87,1.61-1.88,4.79-.68,6.38-2.62,1.85-2.26-1.87-.65-1.88-1.9,0-.91,2.16-.67,2.66-1.08,1.19-.97-.31-2.65,1.81-2.31-.88-2.48-2.15.27-2.98.76-1.43-2.88,2.9-4.27,2.97-4.86.05-.42-5.32-5.88-1.48-6.75-.33-1.13-4.08.45-2.47-4.88,1.07-3.55,2.32-.31,3.23-3.39.13-.46-1.72-.12-1.51-.73,5.57-2.93.17-3.61,3-7.48-2.77-1.53-4.18-.9-2.99-4.89,1.41.14.37,1.81,1.94,2.99.74.56,1.84.05,2.18.18.71.27-.42,1.87,2.61.57.4-.37-1.86-1.82-1.5-2.24.24-.28,1.79.61,1.49-.75-3.3-1.37-1.35.06-2.98.74.71-2.79-4.05-2.87.74-3l-2.25-.75c-.04-3.9,3.52-2.1,3.73-2.26.22-.17.59-2.36.46-3.03-.34-1.76-1.89-.95-1.94-2.19,2.3-.11,1.72-1.37,2.24-3.01-2.38.74-3.51,2.35-5.24-.75,7.04-.87.14-4.67,3.77-6.41,2.51-1.21,2.59,1.25,3,2.09.71,1.46,2.69-.89,2.89-1.44.11-.31-.73-1.07-.32-1.75.5-.82,1.67.05,1.81-.09s.74-3.81.7-4.02c-.14-.75-1.93-.74-2.04-1.48-.07-.51,1.64-2.7,1.37-3.74-.24-.92-1.92-.98-2.1-1.25s1.14-1.81.35-2.94c-.52-.74-3.44-1.25-4.4-2.18-.87-.84-.8-2.65-2.03-3.42-.24-.67,1.2-.12,1.4-.73.1-.29.2-5.69.17-6.04-.06-.77-2.58-3.09-2.33-3.71.2-.48,1.57-1.7,2.23-1.88-1.16,1.75.8,3.58,2.27,4.74.3.24.98-.15,1.32.06.27.17.08,1.12.17,1.18.32.22,2.9-2.51,4.13-2.23l-.39,1.11,2.62,1.87c1.06-4.36,1.58-2.03,3.72-2.25,1.14-.12,4.37-1.15,4.89-.74.17.13-.17,1.28,0,1.5.2.64-.55.89-2.25.75-1.14,2.15,4.93,1.87,6.74,1.5.58-.58,1.57-.12,1.5.75l.09,1.23c6.14,1.98,6.69,3.3,1.63,3.97-1.98,1.44-3.53,2.63-4.71,4.55l-.41.4c2.28-.59,4.42-.72,6.4-.4.96-.13,1.75.04,2.37.51,1.89,1.85-6.22,18.2-7.71,21.19,1.43,2.42.65,3.74-1.49,5.24-1.04,2.08-1.31,4.59-.82,7.52l-2.48,3.18c2.97,1.26,2.73,3.06-.73,5.38-.32,5.24-.93,9.85-3.51,13.96,1.55,1.44,4.64,5.15,2.63,6.71.36,5,.57,10.42-1.34,15.28-1.45,2.43-2.03,4.76-1.75,6.97-3.43,3.65-3.22,8.14-2.76,12.67l-1.15,2.12c1.15,2.44,1.32,4.53-1.75,4.74-.82,2.6-2.63,8.28-5,9.56-1.88,1.01-15.49-1.43-15.29-5.65-.8.76-1.68,1.29-2.65,1.61.12-3.61-.17-7.26,0-10.87.37-7.33,1.74-14.82,2.24-22.13Z"/>
  <path class="st133" d="M167.01,152.68c-.94-1.04-.53-1.62.46-2.3-3.11-4.62-.98-5.57,6.37-2.85l1.14-1.68c2.91-1.09,5.87-2.05,8.88-2.88.99-4.55,6.51-5.48,7.15-.42,2.34.24,3.54,1.04,3.7,3.38-.14,2.34-1.49,8.99-.54,10.34.28.41,1.65-.42,1.3,1.28-.14.69-1.42.11-1.56.86-.19,1.03-.65,7.77-.58,8.93.03.47,1.4.31,1.37.68-.22,2.75-4.58,5.61.75,7.53-3.1,1.79-1.15,3.15-1.46,5.14-.09.56-1.26.48-1.36.85-.33,1.28.91,4.46-1.66,4.16v.72c5.02,2.25-.67,3.37-.79,6.75l-1.45-.74c-.2,2.27,1.63,4.01,2.99,5.63-1.4-.05-1.63,2.56-1.46,3.66.04.26,2.6,1.09,1.45,2.71-.17.24-2.69-1.41-2.99.74,2.8-1.39,3.23,4.74,2.99,6.39-.35,2.47-2.16,6.18-2.56,9.02-.81,5.78-1.61,14.35-1.93,19.84-1.68,1.32-3.01,2.5-4.62,4.34-3.06-.98-4.5,1.98-1.06,1.47,8.02,3.81-5.53,8.7-6.26,2.92l-2.29-1.97c-1.03.71-1.5-1.64-1.46-1.52l2.96,8.27c.9,2.15-.72,2.66-2.61,1.7-3.05,1.86-5.11,2.23-5.63-1.7-.44-15.15-.15-30.27-.72-45.41-.53-14.29-2.66-28.82-2.28-43.09-.24-1.38-.75-6.72-.08-7.49,1.93-2.25,6.9,2.93,5.94,5.33,2.05.87,5.43-1.46,2.38-1.59-1.49-1.32-2.49-2.82-2.99-4.5-.79-.24-.93-1.23,0-1.5,1.02-.45.52-1.2-1.5-2.25-.65-.21-.64-.46,0-.75Z"/>
  <path class="st7" d="M160.27,140.68c-3.72-1.22-4.68,4.23-5.45,6.92-9.63,33.41-10.43,64.8-15.61,98.36-.4,2.57-.95,8.67-2.21,10.53-2.12,3.12-17.37,3.07-21.27,2.68-2.09-.21-13.18-3.12-13.11-5.24,0-.15.66-2.88.77-2.99.1-.1,2.04-.11,2.53.07,1.33.48.87,2.62,2.43,3.56.55.33,10.42,2.53,10.96,2.39,1.91-.49,5.11-8.25,5.03-10.53,3.97,1.85,2.49-1.25,0-2.98,5.18-1.07,1.26-5.71,1.5-6,.07-.09,1.52.18,1.52-.43,0-.7-.77-1.61-.64-2.78.16-1.47,1.3-2.45,1.64-3.55.28-.89-.47-1.9-.28-2.25.05-.1,1.73.97,2.24-.38l-2.24-1.11c1.96.44,5.01-9.93,4.9-10.56-.13-.73-1.42-1.88-1.16-2.2.21-.25,1.81.58,1.49-.75l-2.24-.38c3.54-2.1,1.58-4.4,1.82-6.8.08-.76,1.43-1.37,1.17-1.82-.04-.07-1.06.18-1.52-.51s-.63-2.42-.73-2.5c-1.57-1.27-3.63,4.49-4.11,4.48l-1.13-2.23c-1.36-.35-.29,1.66-1.11,1.5s.08-1.59-.75-1.52.03,1.79-.75,1.51c-3.47-1.27.89-2.92,1.12-3.38.46-1.93-2.08-.17-1.49-2.61l3.37,1.48c1.35.06.33-7.53,3.74-1.48.18-2.45,1.47-1.85,1.87-3l-1.49-.38c.17-1.1,2.18-2.89,2.2-3.09.33-2.92-1.19-9.5,3.78-9.3-1.1-2.45-4.28-.28-2.46-3.55.77-1.39.57-.59,1.22-2.26.08-.2,1.23-.16,1.25-.61.07-1.32-.6-5.23-1.5-6.31l2.24.75c-1.21-2.66,2.27-3.88,2.29-4.19.04-.66-.97-1.85-.84-2.85.05-.39,2.43-5.25,3.07-6.66,1.41-3.1,4.02-7.93,4.53-12.17.14-1.18.82-1.65-.81-2.62,2.35-.94,4.35-1.69,5.99-2.25-.59-1.03-.34-2.28.75-3.75h.75c0-3.62,3.86-2.11,4.42,1.19,1.88.03,3.16.55,2.32,2.56Z"/>
  <path class="st106" d="M193.21,119.68c.51-1.67,3.05.12,2.99,1.5-.53,3.69-.47,7.65-5.24,8.26.12,1.22,1.82.8,3.05,1.8,2.14,1.74,1.97,3.66,1.23,6.07-.14.44-1.24.34-1.33.84-.13.76.94,5.05.78,7.79-1.65-3.83-1.3,1.51-3,0-.15-.14.81-1.43.76-1.49-4.38-1.63-2.76,2.11-3,2.24-.51.26-1.93-.91-2.2-.68-.32.27.54,1.74-.78,1.43-1.59-3.59,2.79-1.65,2.98-6.38-4.58-1.84-4.18,3.93-4.49,4.14s-1.65-.7-2.47-.53c-.77.15-1.55,1.02-2.47,1.27-1.9.5-3.97-.18-4.79,2.25l2.24.75c-1.48.25-3.11.16-4.11,1.49-1.37-.53-.28-2.17-.37-2.23-.18-.1-2.91.38-4.12-.2-.74-.35.11-1.59-1.12-1.3-1.38,3.33,3.17,1.51,2.23,3.36-.09.18-2.79,2.63-2.99,2.63-1.02-.68-.77.82.75,4.5l3.74,4.5.76-1.51,2.99.77c-1.01,2.47-3.02,2.25-1.5,5.23h-2.25s.76-1.49.76-1.49c-.87.62-3.62-.16-3.74-.01-.37.49.71,2.49-.75,2.25-1.16-1.92.24-3.9.02-5.48-.03-.22-2.94-2.85-3.39-2.76-1.68.33-1.1,5.38-1.13,6.75-2.01-5.39.51-20.68-2.99-24.75-1.41-1.64-2.66-.68-3.36-1.47-.81-.91-1.02-2.94-1.15-3.04s-1.61.8-2.23.76c-2.92-.78-4.66-2.03-5.24-3.75l1.5-2.24c-2.35-.02-6.22-1.6-2.99-3.01l.62-.57c1.78.79,7.92,3.47,5.37,1.32.09-.82,3.24-.66,3.4-.59.4.17.73,3.56,1.85-1.28l1.49,1.11c.03,2.21.03,4.21,0,6l.88-1.57c2.51,1.23,4.96,2.25,7.36,3.07,7.9-3.39,9.41-4.03,4.54-1.9l-.8-.35c-2.5-1.53.74-6.27,3.38-4.11l1.45-1.47c3.3.58,4.59-1.97,5.81-4.6,2.05.18,4.01-.38,5.87-1.68-.07-3.42,3.22-3.73,5.2-1.63Z"/>
  <path class="st111" d="M187.22,262.18c2.28,1.78.54,3.18-1.92,3.76l-.05,1.31c2.79-.61,3.65-.13,4.03,2.62.71,5.17-10.63,4.64-14.04,4.31-2.67-.36-9.13-.82-10.82-3.04-2.26-2.95-1.07-16.21.33-14.21-.9,4.02,3.44,4.51,6.56,5.06,4.91.86,11.05,1.08,15.91.19Z"/>
  <path class="st115" d="M124.33,262.18c1.95-.07,12.07-1.73,13.69-2.41,2.06-.86,1.15-3.15,2.77-3.58,1,3.01.28,12.05-1.44,14.48-2.24,3.15-16.09,3.79-19.93,3.52-1.14-.08-1.95-.67-2.58-.75-2.89-.79-.82-3.62,1.87-2.68l.16-1.76c2-2.18,3.82-4.45,5.45-6.81Z"/>
  <path class="st149" d="M187.22,240.43c-.15,2.58-3.45,3.73-3.72,4.92-.34,1.52,3.88,2.86,4.46,4.45.09.25-3.59,1-1.5,4.12l-1.49-.76c-.58,2.41.88,3.45-2.27,3.01,1.96,2.93-1.26.46-3.05,1.15-2.08.8-3.1,3.33-5.93,2.6-2.5-.28-4.9-1.13-7.49-.75-.03-1.74.05-3.51,0-5.25,2.6,3.38,1.62,1.66,2.26,1.24.82-.55,1.27.48,1.48.27,1.73-1.79-2.13-1.41-2.25-1.51-.12-.11.97-3.04,1.13-3,.48,2.33,1.37.7,1.72.94.43.29,2.34,4.42,3.9,2.07l-2.16-6.08.67-.67c.17-.92,3.4.83,3.53.97.47.5.45,2.67,1.33,2.76.5.05,3.24-2.26,4.87-.73v-2.26c-2.15,1.5-1.23-.47-1.5-.74-.21-.2-2.41,2.21-3.73,1.49l1.5-6c6.07,1.36,3.47.51,5.23-2.6.4-.7,2.11.68,3.01.35Z"/>
  <path class="st37" d="M110.1,259.93c1.71.55,1.63,1.34,1.85,1.36,3.13.36,9.26.99,12.37.89,1.47,4.33-3.4,4.88-4.12,7.51-.37,1.34,2.84,1.75-1.51,3.75-.34-1.96-2.05-2.6-1.86,0-4.9-.65-6.67-1.05-11.23-3-.27-.23-.51-.48-.63-.77-.36-.88-1.38-3.84-1.35-4.3.02-.3,2.99-4.88,3.13-4.66,1.08.35,2.19.09,3.33-.76Z"/>
  <path class="st197" d="M198.46,259.18c4.41-.57.42,3.36-2.55,4.11.24,2.87-.28,4.89-1.57,6.06.62,1.69.79,2.63-1.12,3.33-7.77,2.3-9.94,2.58-17.97,1.5,2.32-1.24,6.51.26,7.76.07.72-.11.69-1.64,1.22-1.99.81-.56,2.02.49,2.2.37s1.7-3.55,1.56-3.69c-1.39-1.39-3.18.72-3.37.73-1.37.04-.75-5.71-.37-5.99.29-.21,2.48,2.23,2.99-1.5,3.6-.66,7.49-2.62,11.23-3Z"/>
  <path class="st90" d="M193.21,272.68c.52-1.25-.68-3.46-.57-4.19.17-1.08,2.71-.58,2.07-2.18l-1.49.37c-.32-1.35.91-1.66,1.26-2.77.16-.53-.54-1.52-.45-1.67.19-.28,4.62-1.31,5.16-2.7.16-.41-.75-.34-.73-.37.43-.86,4.27-2.57,5.24-3.75v11.62c0,2.94-8.19,4.95-10.48,5.62Z"/>
  <path class="st74" d="M110.1,259.93l-.75,5.24c-2.77.78-1.13-3.36-2.99-3.74,1.32,3.17-1.6,3.88-1.5,4.11.45,1.12,2.65,3.1.75,4.88-2.19-.94-5.73-1.33-6.58-4.28-.9-3.11-.11-9.69.6-12.96,1.45.69,1.02,2.28,2.71,3.64,1.84,1.48,5.48,2.36,7.76,3.1Z"/>
  <path class="st213" d="M129.57,79.93c-.12-2.05.79-14.47,1.51-15.01.27-.2,5.13,1.63,6.73.76l-2.25,15c-1.41.75-4.66.02-5.99-.75Z"/>
  <path class="st127" d="M130.32,82.93c-1.31,1.73-3.81,3.48-5.99,3.74l4.49-4.49c.21.13,1.28.67,1.5.75Z"/>
  <path class="st123" d="M360.93,77.68c.17,1.44-.33,1.69-1.5.75.02,2.81-.34,5.66-1.5,8.25.97.59,1.48,1.1.93,2.04,4.17.02,8.22,3.08,4.38,6.71-1.52,6.48-1.86,12.97-1.37,19.47-1.83.84-1.67,2.09.48,3.74l.23,2.41c2.16,1.29,2.82,2.93.44,4.4.05,1.4.48,2.35,1.65,3.23.61.37.47,1.1,0,1.5l-1.98,2.38c-.9,5.55-2.53,10.93-4.87,16.15,1.75,2.53,1.7,4.81-.93,6.7.67,5.66-1.65,11.23-4.95,15.27,1.95,2.67.29,10.18-2.57,11.53l-1.17,3.47c-.86,2.09-1.15,6.24-2.26,7.49-.73.82-.75-2.99-2.24-1.49-.27.27,2.39,3.56,2.14,4.76-.2.93-1.86,1.56-1.93,2.36-.05.46.96,1.39.93,2.69-.02,1.14-2.23,7.88-2.64,8.19-.44.33-1.99-1.01-2.23-.76,1.55,2.2-2.62,6.79-1.69,3.37l-2.06-.36c.42.59,2.61,4.71,2.17,5.15-2.88,2.84-2.17-3.22-5.53-3.68-1.9-.26-1.07,3.97-3.74,3.76-3.03-2.3,1.58-3.11,1.68-5.46.03-.85-.38-3.39-2.06-2.79.28-3.5-.65-9.91-.44-13.95.37-7.4,1.95-13.16.46-19.55-.93-4,2.07-6.7,4.18-9.97,1.72-2.67.73-1.98,1.78-3.98.57-1.09,4.21-3.58,5.15-4.78,4.24-5.39,11.43-20.77,9.88-27.51-.19-.82-1.48-.43-1.53-.5-.11-.14.01-1.68,0-2.25-1.33-2.31-1.5-4.15-.5-5.53-5.26-6.12-10.49-19.1-3.61-25.45.8-3.41,2.67-6.34,5.61-8.78,4.19-3.38,6.73-8.18,10.48-12,.17,1.03.04,2.08.75,3Z"/>
  <path class="st200" d="M361.68,156.43c-.62-4.61,4.19-4.4,6.73-2.18-.6,3.39-.6,6.62.01,9.68-.34,5.86-1.34,12.53-1.53,18.34-.27,8.53-1.85,11.49,5.99,15.81,6.23,3.43,25.84,8.63,11.03,15.49-5.49,2.54-12.19,3.55-17.77,6.2-7.27,3.45-13.51,8.92-20.18,13.16-.31-1.58-2.85.1-2.99,0-.4-.27.05-4.16-3-3.01-.71-.73,3.08-3.2,2.99-2.99-.25.59-3.32,2.7-3.74,1.49-1.45-2.51,1.01-3.03,1.69-4.69.83-2.04.9-4.55,2.05-6.55-2.53-2.34-5.16,8.63-8.23,7.12,1.12-.53.86-2.1,1.23-2.63,3.77-5.42,7.39-9.29,10.17-16.89.21-.58,2,.21.57-2.96.53-1.47,2.17-.29,2.24-.4.56-.93-.75-3.1-.74-4.05,0-.24,2.96-2.74,2.98-3.83-.86-1.38-4.2-.73-2.96-2.61.04-.07,1.02.2,1.46-.56.99-1.72.13-4.33.78-6.2l1.48,1.49c.36-2.52.12-3.03-2.23-3.75.5,1.79-1.14,2.87-1.51,3.75.2-3.38,2.06-6.38,2.86-9.58.52-2.1-.5-1.92.88-5.42l1.32-1.37c1.53-6.34,5.14-4.25,3.92,1.37l.76.51c-.84,3.54-.1.88,2.23-8.01l1.5-6.75Z"/>
  <path class="st51" d="M368.42,163.93c-2.85-1.59-.03-8.23-.77-8.98-.16-.16-4.32-.95-4.47-.77-.19.23.24,1.57-.08,2.17-.1.19-.85-.53-1.42.08l-1.5,6.75c-.4,3.19-1.4,5.69-2.99,7.5-.42-1.54-1.25-3.04-1.87-4.51-.61,0-.6,5.03-3.37,4.51,1.23-3.13,3.53-10.03,3.72-13.24.07-1.29-.9-3.71-.71-4.01.1-.16,2.22,1.37,2.66-1.46.17-1.12-1.84-3.25-1.92-4.19-.03-.31,1.22-.34,1.26-.48,1.41-5.08,1.27-4.37,3.59-8.91,1.11-2.16-1.19-8.29,4.14-8.21.13,2.27-.37,4.52-1.5,6.75-.72,3.96-.72,4.21,0,.75,1.31-3.2,1.81-6.2,1.5-9-.44,0-1.89,1.1-2.24.75-.27-.27-1.46-5.17-.75-6.01.08-.1,1.89,1.85,1.49-.36-3.1-.73-1.88-3.65-2.25-4.13-1.65-2.21-1.88,4.28-2.98,3.75-.47-2.11,1.03-3.92,1.26-5.73s-2.1-2.86,1.73-2.52c-.9-3.05-.94-6.21-.74-9.36.23-3.64,1.35-6.99,1.62-10.53.04-.51,1.25,0,1.41-1.43.42-3.62-1.69-.88-2.23-1.23-.22-.14-.57-2.19-1.19-2.18-.81.01-.66,3.35-2.61,1.48l-1.5,4.5c-.28-3.67,1.52-6.15,2.24-9,1.16-2.58,1.48-5.45,1.5-8.25.47-.82.54-.79,1.5-.75,2.61.12,4.57,1.12,7.68-.18,2.01-.84,1.33-2.39,2.79-2.81.44,2.32,1.3,4.78,1.49,7.13,2,24.49-3.01,56.83-4.48,82.11Z"/>
  <path class="st177" d="M373.66,126.43c.6-2.61,1.79-2.46,4-1.28,2.61-1.63,3.46.59,2.57,6.66-1.21,3.43-1.16,6.14.16,8.12.59,1.69,2.06,4.74,1.94,6.4-.07.99-2.53,4.51-2.44,5.23.05.44,2.09,2.52,2.58,4.68.4,1.8.73,5.32.92,7.34.11,1.2-1.42,2.72.5,3.23,1.24.33,2.68-.12,4,.5,3.15,1.47.29,5.99-2.24,6.38-.11,1.35,1.68.5,2.66,1.45.13.12.12,2.2-.01,2.33-.93.9-2.44.5-3.38,1.12-.54.36-.67,1.03-.77,1.09-2.99,1.77-6.18,2.88-8.92,4.94s-4.23,4.97-6.8,7.06c.3-8.89,1.64-17.77,2.23-26.63.76-11.42,1.26-22.81,2.25-34.12.03-1.57.28-3.07.75-4.5Z"/>
  <path class="st80" d="M389.39,190.18c.45,4.85.53,10.11.74,15-2.52-1.82-4.99-3.86-7.73-5.38-6.24-3.45-17.07-4.15-7.93-12.19,2.49-2.19,9.87-6.02,13.08-6.42,2.06-.25.89,4.77,1.06,6.43.1.98.77,1.7.78,1.81.02.25-.02.5,0,.75Z"/>
  <path class="st44" d="M372.17,70.93c.57-1.05.79-2.01,2.24-1.04,3.09,2.07,5.32,10.07,6,13.79-.66.66-1.33.79-1.49.14-1.55-6.34.8.77.65,1.09-.51,1.18-1.01,1.66-2.32,1.82,1.2,12.5.39,25.19-2.43,38.06l-1.16,1.63c-.16,1.72-.67,3.58-.75,4.5.34-16.06,3.66-33.12,2.27-49.15-.25-2.86-1.66-8.41-3.02-10.85Z"/>
  <path class="st221" d="M68.92,113.68c.46-1.42.85-1.9,1.18-1.43-.65-7.2,4.52-3.96,3.83,1.63,4.87.17,6.33,5.37,2.08,7.94,3.2,1.76,3.91,3.7,2.12,5.83.99,1.67,1.44,3.72-.39,5.04.6,1.54,1.02,3.65-.91,3.6-1.65,3.77-3.53,7.48-5.65,11.13.64.14.61.39,0,.75-3.3,6.16-5.74,5.69-11.98,3.75l-.38.64c-1.84-.7-3.71-.91-5.61-.64,1.22,3.04-4.02,4.01-2.25,0,6.06-15.17,15.5-20.13,17.97-38.25Z"/>
  <path class="st188" d="M85.4,107.68q-.75,4.6,0,0c.46,3.02,1.55,7.27,2.84,10.27,1.98,4.64,5,7.4,4.65,12.98-1.29,4.47-2.72,5.43-4.29,2.88-3.28,1.06-4.31,2.9-3.07,5.53l-1.63,1.33c-.93.7-5.32,5.64-5.99,6.75-1.18-.18-2.11-.12-2.8.19.43,2.63-2.32,4.08-3.19,1.31-1.37.52-1.62.27-.75-.75-.05-.19-.02-.54,0-.75,1.23-3,2.85-5.73,4.86-8.18.51-4.03,2.75-6.23,4.12-1.57.7,1.74,1.08.5,1.17-3.73l1.08-4.52c-1.83-2.06-2.26-4.19-1.27-6.42-1.62-.9-2-1.89-1.43-3.54-2.32-.7-2.36-4.91.46-4.3.44-1.28.44-2.03,0-2.25-.03,2.7-5.62-1-5.87-2.5,1.2-2.22,1.41-4.14.62-5.75l6.39-4.47,3.33-4.53c.31,3.69.22,8.43.76,12Z"/>
  <path class="st15" d="M77.91,147.43c-3.84,6.33-4.29,12.93-10.87,17.98-6.13,4.7-15.7,4.91-17.58-3.73-.29-2.97,2.7-1.8,4.69-.97,1.95-2.04,3.61-3,6.5-2.38,1.43-1.61,2.09-2,3.78-.4.58.17.83-.33.75-1.5-.53-1.36.28-2.31,2.42-2.84.62-1.61,2.49-5.63,4.32-4.66.67-.13,1.52.09,2.25,0-1.75-2.58.79-2.15,1.87-4.49l1.87,3Z"/>
  <path class="st170" d="M74.91,104.68c.69.11,1.52-.08,2.25,0,.65,1.44-1.78,6.22-1.49,6.75.05.1,1.24-.52,2.04-.24,1.05.36.79,2.19,2.44,1.75.44.33.44,1.08,0,2.25-.39.95-1.19,1.6-.74,3,1.31.38.36-1.8,1.11-1.49,1.95.79.08,3.59.39,5.24l2.23-3.74c.27,2.96-.62,5.51-1.48,8.25h2.98s-2.24,3-2.24,3c-.77,2.51-1.28,5.08-1.38,7.7l-.87.55-2.99-1.5c1.42,4.96-2.17,4.93-3.38,6.78-.5.77.46,3.68-2.62,4.47.13-1.43,1.07-4.08,1.68-5.45,1.62-3.63,6.43-6.94,2.06-10.3,4.66.32,1.73-2.79,1.75-4.12.02-1.01,1.44-2.15,1.21-2.59-.14-.26-4.1-1.86-3.71-4.16,2.84-.89,3.04-1.6,2.99-4.89l-2.23,1.5c1.61-3.78-.18-1.29-3-2.25.73-.81.46-4.81,0-5.24-2.1-1.95-.96,1.65-.89,2.06.27,1.6-1.22.96-2.1,1.69.44-3.23,1.02-6.45.75-9.75,1.72.31,3.52.47,5.24.75Z"/>
  <path class="st68" d="M72.67,71.68c.7.27,1.52.51,2.25.75l.74,1.81c-1.9,2.4-10.08,16.31-2.23,12.95l1.49.99c5.1-4.92,4.53-.2,3.74,4.5.64.25.64.5,0,.75-1.13.64-2.27,1.29-3.41,1.95,3.45,4.95.63,6.54-4.83,6.3-3.37-1.21-1.51-2.73-2.44-5.44-2.9-8.44-3.9-8.65-.18-17.81.67-1.65,2.87-6.65,4.86-6.76Z"/>
  <path class="st224" d="M83.9,91.18c-2.41,2.28-4.66,1.43-3.12-1.82.02-.04.39.11.87.32.91-2.42.91-3.42,0-3-.49,1.35-.99,1.1-1.5-.75l-.37-.79c.61,3.6.24,6.12-1.13,7.54v-6c-1.26,1.33-2.55,1.07-3.74,1.5-.34-1.51-.03-3.28.91-5.32l.43-9.88,1.66-.55c.83.22,2.73,2.59,2.99,2.25-.48-2.78-.57-4.07,0-6.75,6.05,6.31,6.35,15.48,2.99,23.25Z"/>
  <path class="st185" d="M50.95,151.93c-.2,2.91.68.7,2.25,0,1.99-.28,5.12-.24,5.99,1.5,2.07-.12,5.67,2.48,5.24,4.5-1.7-.31-3.24,2.24-3.44,2.24-1.04-.02-1.44-.86-3.25-.37-1.49.4-2.53,2.64-2.73,2.64-1.55.02-3.72-1.97-5.55-.76-.98-4.49-.04-5.9,1.5-9.75Z"/>
  <path class="st134" d="M81.65,86.68c.79.65.79,1.65,0,3-.01.08-1.12.36-.74,1.5l2.55-.59.44.59c-2.24,5.18-6.94,12.84-13.48,10.5,1.37-1.15,3.22.57,4.53-1.27,1.92-2.68-.31-2.26-.78-3.01-1.77-2.83,1.54-5.54,4.48-3.97,1.06-1.68,1.55-4.18,1.5-7.5l1.5.75Z"/>
  <path class="st147" d="M83.9,140.68c.62-1.24-.92-5.71-.74-5.95.13-.17,3.05-.93,3.93-1.52s.88-2.11,2.03-2.27l1.5,3.75,2.26-3.75c-.2,3.28-2.34,6.24-4.97,8.14-1.44,1.04-3.85,1.48-4.02,1.61Z"/>
  <path class="st118" d="M81.57,53.6c-.69.48-6.54-.59-6.7-1.1l1.54-22.82c1.76-.05,8.5.35,8.9,1.93-1.06,2.92-2.42,21.07-3.74,21.99Z"/>
  <path class="st4" d="M86.67,54.22c-.22.28-2.88,2.2-3.53,2.08-.05-1.11.15-2.2.5-3.24,1.84-5.34,2.29-10.48,2.54-16.15.05-1.05.69-2.28.78-3.39,1.44-.51,6.25.14,6.48,1.76l-6.78,18.94Z"/>
  <path class="st219" d="M80.91,57.43l-3.76,13.5c-.82-.66-4.16-1.26-4.4-1.59-.92-1.29,2.14-10.29,1.41-12.67l6.74.76Z"/>
  <path class="st39" d="M77.91,72.43c-1.45,5.28,1.31,11.15-2.99,15.75-2.36.84-3.37,2.86-5.59-.02-3-3.9,3.77-11.8,5.59-15.73.73.24,2.19-.22,2.99,0Z"/>
  <path class="st30" d="M81.65,55.19c.18,1.33-1.69.73-2.52.65-1.59-.16-5.04-.5-5.71-2.15l8.23,1.5Z"/>
  <path class="st142" d="M140.81,39.42l-3,22.51c-1.11-.31-6.49-.53-6.73-.76-.77-.74.65-18.48.85-21.27.5-1.84,6.75.24,8.88-.48Z"/>
  <path class="st162" d="M187.22,83.68c-.08.7.39,1.62.75,2.25-.25.65-.5.65-.75,0-13.06-.96-26.06-1-38.93-3.75-.73,5.49-1.67,11.58-2.98,16.93-.31,1.27.74,2.18-1.51,1.82l3.75-19.49c-2.81.22-6.39-2.5-8.24-3.01.14-.29.72-.6.75-.75,15.36,4.01,31.28,5.86,47.17,6Z"/>
  <path class="st12" d="M146.73,42.5c1.03,1.49-5.36,16.87-4.43,20.18h-2.24c-1.04-5.25,2.79-10.05,3.7-14.68.15-.75.46-2.04-.7-1.82l-1.5,3.74.74-8.25c.29-.29,4.15.43,4.42.83Z"/>
  <path class="st1" d="M139.3,76.18c-2.41,2.53-.64-5.29-.39-6.02.51-1.48.92-3.16,2.64-3.73-.91,1.49-1.9,9.39-2.25,9.75Z"/>
  <path class="st0" d="M137.8,64.92c-.43-.33-10.61-.96-8.23-2.99.24-.21,5.61.63,6.35.76,1.3.23,2.11.78,1.88,2.24Z"/>
  <polygon class="st93" points="200.71 43.92 197.71 67.18 190.22 66.43 191.71 43.92 200.71 43.92"/>
  <path class="st31" d="M188.72,85.93c1.04-4.52.85-9.33,1.5-13.89.16-1.09-.46-1.23,1.12-1.12,2.04.14,4.14,1.2,6.37.76l-2.25,15c-1.84.54-3.14.14-5.24,0-1.34,1.06-1.73,1.05-1.5-.75Z"/>
  <path class="st54" d="M202.19,68.68c-.48-.3-2.05-.78-2.11-.87-1.76-2.6,3.48-12.24,4.2-15.43.17-.75.75-2.64-.57-2.44-.23,1.49-.66,4.6-2.25,5.24.07-1.99.02-8.97,2.57-9,1.24-.02,3.24,1.07,3.27,2.46.1,4.65-5.5,14.52-5.11,20.04Z"/>
  <path class="st176" d="M188.72,85.93c.41.03,1.1.72,1.5.75l-2.25,2.24c.99.05,2-.03,2.99,0,1.97.22,2.3.86.75,2.25-.03,2.02.24,4.1-.32,6.08-.42,1.49-1.83,1.38-1.83,1.74,0,1.36.98,4.86,1.4,6.43-1.89,3.11-3.06.98-3.74-1.5-.02-2.26-.45-3.99-1.28-5.2,1.83-1.09,1.32-4.79.53-6.8.08-2.06-.05-4.03.75-6,.25.02.5-.02.75,0s.5-.02.75,0Z"/>
  <path class="st167" d="M188.72,69.43c-.1-1.76-.26-1.33,1.11-1.5,2.44-.31,5.36.22,7.88,0,1.06,4.61-5.75.34-8.99,1.5Z"/>
  <path class="st176" d="M190.97,106.93c.7,2.28,4.15,8.29,5.99,9.75-.33,1.08-1.15,1.49-2.25,1.5-2.48.26-4.34-3.63-5.24-6-5.13.14-2.72-7.8,1.5-5.25Z"/>
  <path class="st158" d="M194.71,118.18c2.77,2.34,5.18,3.18,8.23,4.88-2.6,1.49-4.59-.98-6.73-1.88-.87-.37-1.95-1.34-2.99-1.5-3.11-.39-6.56-5.36-3.74-7.5,1.44,2.31,3.14,4.23,5.24,6Z"/>
  <path class="st71" d="M190.21,251.67l-.57-2.44,4.31-12.55c-.26,5.05-2.5,10.09-3.75,14.99Z"/>
  <path class="st169" d="M196.2,240.42l.13-6.24,2.11-8.75c.12,5.06-1.19,10.08-2.25,14.99Z"/>
  <path class="st105" d="M195.45,220.92c-1.42.15-.6-1.57-.52-2.4.14-1.61.37-3.83.63-5.37.15-.88.23-3.49,1.39-3.47l-1.5,11.24Z"/>
  <path class="st13" d="M334.74,157.93c.12-2.29,1.92-5.34,3.73-6.75-.53,2.23-1.79,5.44-3.73,6.75Z"/>
  <path class="st107" d="M248.62,108.43c.11.45-.13,1.14,0,1.5-1.76.81.1,3.75,2.61,3.87l1.31,2.54c1.15-.97,1.93-1.08,2.82.34,2.16-.16,4.15,1.51,6.9-.02,2.14-1.19,1.68-7.02,6.56-1.85-.02.37-5.74,2.63-.56,5.07,1.93.91,8.38.77,10.77.61,1.4-.1,2.11-.74,2.53-.81,3.03-1.03,6.09-2.4,9.18-4.11,1.98.23,2.33,1.65.56,2.61-.39,1.4-1.63,2.65-3.74,3.75-1.85,1.55-2.1,2.55-.75,3,1.71-1.95,3.72-3.77,6.02-5.45,1.7-2.26,3.44-4.2,5.21-5.8-.17-.85.58-1.6,2.25-2.25-.08-1.82.19-1.64,1.5-.75.8-.75,1.5-.76,2.08.09,2.61-2.76,5.61.04,4.54,3.29-2.92,4.06-9.31,13.54-1.09,4.56,3.68-3.45,4.3,10.36,3.86,10.89-2.12,2.62-4.12.91-4.79-1.85.86,3.7.69,6.99-.5,9.87,4.41,3.12.91,7.15-2.77,3.16,1.4.27,1.21.03-.57-.74.22-2.28-.53-1.03-2.25,3.75-.23,2.18-3.97,2.09-4.49,0-.41,2.86-1.41,4.61-2.99,5.25l-3.74,6.75c1.51,1.72-2.11,5.8-2.99,2.25-3.76-.59-3.78-7.28,1.18-5.67l2.34-3.94c-1.65-2.42-1.58-4.91,1.21-6.36-3.39-2.27-7.07-2.03-11.04.73l-4.5-.96c-1.71.94-3.29,1.28-5.2.56-3.58,7.12-12.39,2.15-6.66-4.41-1.74-3.01-2.21-.48-2.32,1.9-.96,2.1-2.89,3.08-4.21.9-.8,1.45-1.85-.27-2.25-1.5-3.43,1.6-2.22-3.89,1.11-3.7-.8-2.35-2.76-2.47-5.88-.34-2.57-.31-2.98-.3-4.96,1.04-.73-.92-1.08-2.12-1.07-3.6l-.43.6c-.21.65-.46.65-.75,0l-1.04-.11c-.93-2.41-1.83-4.87-2.7-7.39,1.69,1.24,1.66,3.79-.75,3.75l-2.24.75-.75-4.5c1.19.12,2.62-.19,3.74,0,.14-.87-.43-2.81.38-3,1.88-.46.69,2.23,2.24,3,2.4,1.18,1.56-1.5,2.25-2.25l1.12,3.01c2.91.55.05-3.23,3.37-2.27.76.22,3.36,6.6,4.86-2.57-1.44-2.06-3.51.75-5.68-1.09-1.98-1.67-1.26-9.91-5.52-5.7-.02.18,2.61,3.11.35,3.38-2.82.34-1.69-5.82-1.86-7.49,4.64,2.35,3.65-4.98,8.23-2.25Z"/>
  <path class="st201" d="M242.63,133.18c1.47,3.52,2.59,8.07,2.25,12,.28,1.87.88,3.73,1.8,5.59-.42,8.93.71,18.29,3.7,26.93l-1.02,1.98c-1.01,5.32-.51,7.07,1.5,5.25,1.83.88,2.86,3,3.1,6.37,1.12,1.9,1.34,3.52.65,4.88-2.52,1.4-8.68-.67-7.84-4.62-.53,2.28-1.66,3.57-3.39,3.87-4.11.88-5.36-11.31,0-9,.61-1.7.61-1.95,0-.75l-1.68-.36-1.31-6.6-2.85,7.54-1.65.92c1.08,1.82,1.33,3.32.75,4.5,1.55,2.59,1.55,4.09,0,4.5-.11,2.84.34,5.78,1.34,8.84-1.34,1.13-2.28,2.44-2.83,3.91-2.07-.26-3.24-1.5-4.09-1.54-.15,0-2,2.18-1.9,2.28,1.56,1.49,5.45,1.32,7.31,2.06.91.37,1.84.95.92,1.69-1.78.42-11.3-.53-11.95-1.54-1.32-2.06,1.1-2.68,2.97-2.21-2.46-2.01-2.62-2.22-2.25-5.62.98-9.02,4.08-19.86,4.49-28.88,1.39-.64,2.05-2,2.23-3.45.44-3.51-.81-11.97-.77-16.47.01-1.44,1.23-2.38,1.26-2.98.05-.92-1.57-3.24-1.29-6.03.18-1.75,1.94-.41,1.57-2.19l-1.5.37c-.83-3.53,1.71-1.77,2.24-2.26,1.41-1.31-.97-1.85-2.24-.75.05-2.49-.09-5.01,0-7.5.9.61.12,1.84,1.46,2.03,3.8.54,3.88-3.65,4.53-6.53.31-1.37.52-2.34.75-3.75,3.03.51,3.1,4.47,3.74,7.5Z"/>
  <path class="st11" d="M220.17,122.68l.76,3c1.1.24.71-.49.75-1.5.84-.13.66.65.74.75,1.25,3.52,2.25,7.02,2.99,10.5.2.46-.43,1.32.38,1.5,1.96.46.38-1.72,1.86-1.5.5,2.02-.36,3.54-.74,5.25-3.84.91-3.24-.86-4.92-2.17-.77-.6-2.48-.74-2.57-.84-.32-.39,4.08-3.66.37-5.24-.72-.11-.17,1.14-.45,1.41s-.91-.46-1.42-.66c1.22-1.7.01-3.33.29-5.26s1.62-3.76,1.95-5.24Z"/>
  <path class="st98" d="M244.88,91.93c1.97,6.72,2.97,10.39,6.74,16.5-1.51-1.33-2.42-2.2-3.74-3.75-.23-.27-.54-.48-.75-.75-1.65-5.39-3.75-10.54-4.42-16.21-.22-1.87.43-1.63.87-.12s.88,2.9,1.3,4.33Z"/>
  <path class="st202" d="M224.66,115.93l-.75.75c-.33-1.09-1.27-2.47-1.5-3.75.04-.48.03-1.02,0-1.5l.74-.75c-.09,1.93.94,3.52,1.51,5.25Z"/>
  <path class="st81" d="M339.22,228.43l3.74-1.49c-.54,1.18-1.96,2.22-2.99,2.99-2.25,1.68-5.38,3.58-8.23,3.74l7.48-5.24Z"/>
  <path class="st16" d="M309.27,239.68l-7.1.73c-2.01-.71-5.94-.26-7.12-2.23,4.74.88,9.33,1.96,14.22,1.5Z"/>
  <path class="st66" d="M380.4,83.68c.24.02,1.3-1.08,1.49-.75.07,1.24-.06,2.51,0,3.75-.46,3.78-.25,7.62.65,11.5l-.65.5c-3.77.53-1.48,4.62-4.49,5.62,1.28.58,1.19,2.73,1.62,3.23.16.18,1.13-.39,1.37-.21.37.29,1.44,7.49,1.5,8.99.21,5.17-.88,8.05-.29,13.62.16,1.53,1.07,8.34.96,8.77-.34,1.29-1.36,1-2.17,1.24-.1.03-1.18-.77-1.87.73l-1.87-5.23,1.48.76,1.5-11.25-2.63,3.74c-2.19.31-.43-1.12-.55-1.88-.22-1.38-1.93-1.21-2.81-.36,1-10.95,2.81-22.44,3.02-33.41.05-2.33-1.32-4.97-.83-7.43.17-.87,1.75-.18,2.28-.44.23-.12-.55-4.3.02-5.21,1.57.06.54,3.59,2.24,3.75Z"/>
  <path class="st227" d="M383.4,99.43c1.96,20.21,3.2,40.54,5.23,60.75l-2.63-7.84c-1.33-17.19-1.91-34.87-3.35-52.15-.56-.95-.27-1.29.75-.75Z"/>
  <path class="st141" d="M381.9,88.93c.29,3.41,1.17,7.12,1.5,10.5l-.75.75c0-.08-.64-.15-.75-1.5-.32-3.83-1.74-8.54,0-12,.04.74-.06,1.51,0,2.25Z"/>
  <path class="st34" d="M321.25,87.43c1.8,4.97,7.57,10.49,5.99,15.75l2.19-.71c3.43,5.18,5.78,10.97,8.75,16.39.54.98,1.82,1.58,2.16,2.35.55,1.23.1,2.75.55,3.57.14.26,6.01,3.98.5,2.86-1.27-.26-1.41-1.76-2.33-2.17-4.13-1.83-2.29.98-2.91,1.6-.49.49-3.38.03-4.24,1.06-.98,1.18-.09,3.32-.16,3.57-.8.86-1.55,1.11-2.25.75-3.14,2.12-6.9-3.77-4.56-6.54-.13-5.06-.1-10.13.07-15.21-.66-.19-.64-.44,0-.75-.22-2.25-1.72-3.41-4.51-3.49.02-2.32-.48-3.9-1.48-4.76-.01-3.24.39-6.48,0-9.75l-2.2,1.91c-1.18,13.34-2.15,26.73-3.04,40.08l-1.57,5.38c.13,2.29-.16,5.05-2.4,6.19.74,6.67,1.14,13.43.02,20.11l-1.12,1.27c.83,2.55.53,4.32-.92,5.3,1.32,1.89,1.17,6.44,0,8.25l-2.25,12.75c1.22.46,1.22,1.1,0,1.5-.46,1.99-1.28,4.22-2.74,5.76,1,1.63.81,3.26-.57,4.89.45,3.72-.69,5.92-3.43,6.61-2.94,1.25-7.95,1.22-11.23.75l-3.76-.29c-20.21-14.5-29.82-41.6-34.5-65.16-.67-1.64-1.36-3.34-2.92-4.31-.85-.47-.88-1.83,0-2.25l-.75-3c-.25.66-.5.66-.75,0-.43-.66-.43-1.16,0-1.5l.76-4.5c3.75,4.67,6.71-.23,8.49.11,1.36.26,3.36,3.59,4.22,4.77-.89.81-2.56.03-3.77.72-1.55.88.03,1.78.03,1.9,1,.94,1,1.44,0,1.5.5,1,.5,1.75,0,2.25,1.53,3.03,3.4,5.88,5.62,8.57,2.79,6.95,6.37,3.01.94-.42l-.31-2.62c-2.53-1.2-5.24-5.44-4-7.77,4.34-.22,2.15-2.42,3.37-4.5,1.53-2.61,4.63-.31,4.62,1.88,0,1.34-2.37,2.5-1.92,4.34.86,3.5,5.58,1.39,5.72-.59.09-1.19-2.45-2.55-2.06-4.13,3.86-.22,3.13,1.82,3.91,2.76,1.57,1.9,3.48-.13,4.67-.19,1.39-.07,2.92,1.09,4.41.96,1.76-.15,5.22-2.81,6.85-2.75,1.44.05,2.41,1.87,3.82,2.02,1.29.14,5.16-1.8,2.92,1.71-.52.82-2.99,1.3-3.26,2.7-.22,1.16,1.17,2.58,1.08,3.66-.03.37-3.46,6.34-3.83,6.36s-1.29-2.03-2.62-1.48l1.49,4.5c.92,1.8-.32,3.8-3.74,6,.22.38.37.71.27.82-5.99,7.23-5.63,4.27.42-.38.12-.09.44.07.81.31.65.15,1.1.52,1.3,1.14-.72,1.53-1.33,8.12-.02,7.43,2.32-2.91,5.12-1.73,3.96,1.93,1.48-2.38,3.23-5.38,5.24-9,.65-4,1.64-8,2.99-12-1.03-1.13.14-3.71,1.5-4.5-1.7-1.33-1.4-2.19.75-2.25.69-2.97,1.69-5.47,2.99-7.5l1.12-.75,2.62,2.24c1.05-2.5-2.04-2.52-2.25-3.39-.16-.65,1.47-2.08,1.58-3.72.06-.89-2.42-10.83,1.44-8.29,1.34.88.95,4.7,2.98,3.02-1.17-2.46-.59-4.98-.76-7.51-.07-1.12.57-2.17-1.12-1.85-.47,1.53-4.23,3.84-4.52,4.47-.65,1.4-.08,2.79-.39,3.99-.26.99-4.39,5.21-4.47,5.57-.33,1.41.37,2.91-.37,4.71-.47,1.14-2.26,1.99-2.61.38-.17-.78,1.04.31,1.23-1.1.29-2.17,0-4.78.45-6.97,1.1-5.22,6.16-11.17,8.3-16.07.15-.34,3.19-1.46.13-3.97l-2.24,2.99c0-1.47-1.43-2.24-1.88-3.01-1.33,1.26-3.25-2.24-3.14-3.27,2.19-4.02,3.99-8.18,5.39-12.48,2.17-1.12,3.33-2.73,3-5.25,3.15,1.96,1.16-.98,3.72-.74l1.88,5.24c3.35-1.37,1.85-4.78,2.02-5.13.07-.14,2.14-2.09,2.27-2.17,1.17-.68,3.17-.13,4.32.56Z"/>
  <path class="st10" d="M246.38,142.93c1.25-1.06,1.8-.23,2.64.71,3.18,3.59,2.41,10.49,3.99,14.76,3.56,9.65,6.63,18.93,11.35,28.25,1.87,3.69,1.65,4.08,4.44,7.87,3.67,4.97,10.4,14.13,16.11,16.74,1.08.49,2.19-.21,2.49.06.35.32.06,1.28.16,1.35.65.21.64.46,0,.75-2.33.2-4.62.58-6.74.75-.73-.07-1.23-.32-1.5-.75-6.17-.08-12.41.17-18.72.75l-1.24-1.1c.58-3.14-.65-6.33-2.7-8.7-.13-2.23,1.09-3.41,2.44-1.44.7-.14.7-.39,0-.75-2.64,1.76-4.49-3.81-4.49-6-2.45-3.47-2.6-7.37-3.74-11.25-1.92-.8-2.42-2.55-1.5-5.25-1.45-5.61-3.41-10.14-3.79-16.12-.09-1.49.17-3.45-.11-5.07-.57-3.28-1.46-4.27.15-8.07-3.08,2.16-.65-3.83-.74-5.24.21-.65.46-.65.75,0,.44.28.69-.47.75-2.25Z"/>
  <path class="st97" d="M313.76,133.93c-.44,6.66-1.76,15.8-1.58,22.15.04,1.43,1.45.7,1.64,2.17,1.83,14.92.55,31.57,3.52,46,.35,1.72.75,2.59.78,2.77.6,4.52-3.17,8.8-3.61,2.66l-1.51,2.24c-1.23.31-.33-1.24-1.25-1.51-.69-.2-1.69.03-2.48.02l5.99-2.63c-3.76-4.23-6.08-.33-8.98,2.63-1.44,1.48-5.5,2.2-7.49,1.5,3.73-2.92-.21-6.38,3.73-9.38-.77-1.32-3.57.37-2.18-2.21.45-.83,1.68-.97,1.95-1.39.98-1.53,1.06-4.47,3.24-4.27l.86-.28c.05,1.15.67,1.89,1.88,2.24.76.32,2.58-14.75,2.66-16.16.09-1.59.18-6.73.02-7.85,0-.05-.41.1-.93.31-.21.65-.46.65-.75,0-.74,1.58-1.08.61-1.5-.75-.07-2.29-.62-4.69-.67-6.43-.01-.36,1.41-.26,1.48-.77.25-1.85.17-5.86.53-8.94.27-2.35-1.08-8.57-.63-11.12.06-.34,3.7-2.49,2.63-5.78l2.66-5.22Z"/>
  <path class="st103" d="M243.38,195.43c.43-1.22,1.44-2.93,1.98-4.36.36-.94.41-4.09,2.5-2.39.46.37.59,5.76.77,6.01.07.09,1.2-.65,1.73-.52.23.06,3.97,1.84,4.25,2.01,3,1.88,1.9,4.3,4.49,6,.65.21.64.46,0,.75l-1.49.37c2.56,2.42,4.22,7.35,2.99,10.88l-2.25.75c.84.22,1.58.47,2.25.75l4.49.75c-.21,4.17-5.59,1.1-7.81.84-5.05-.59-4.06-.02-9.54-1.84-1.89-.63-5.63.37-5.1-2.01,3.37,0,6.61,1.21,10.04.76.9-.12.32-1.49.44-2.26-3.25,1.95-2.66-.38-3.54-.71-4.36-1.62-9.9-1.72-14.42-2.29-2.46-3.33,1.2-3.1,1.45-4.17.14-.6-1.49-5.23-1.77-6.35-.49-2.03.17-2.05,1.81-2.23,1.93-.52,3.05.92,3.37,4.33.38-2.79,1.5-4.48,3.37-5.08Z"/>
  <path class="st99" d="M324.99,109.93c.04.24-.03.5,0,.75.64,4.33-.11,7.33-2.25,9-.21,2.23-.46,4.48-.75,6.75,3.96-.43,3.84,7.31-1.14,5.78-2.13.97.79,8.67,1.49,10.36,1.84-2.46,3.72-3.34,5.64-2.63h.75c-2.3,1.77-5.28,7.75-8.9,4.03-6.19-6.35-1.68-14.27-.08-21.28.29-1.29.48-2.64.75-3.75,1.37-2.95,2.37-6.7,2.99-11.25.69-.85,1.19-.1,1.5,2.25Z"/>
  <path class="st187" d="M319,101.68c3.89-2.75,1.47,2.67,2.33,3.67.31.36,3.16.33,3.57.94.46.68-.09,2.65.1,3.64l-1.5-2.25c-.17,2.76-.92,5.01-2.25,6.75l-2.24,3c-.03-5.24.01-10.51,0-15.75Z"/>
  <path class="st182" d="M309.27,210.43c-6.07,3.48-14.73,2.39-21.71,3v-.75c.46.33,9.7-.59,11.23-.75,2.67-.27,5.34-1.25,7.49-1.5.91-.1,2.04-.02,2.99,0Z"/>
  <path class="st23" d="M279.32,213.43c.47.21,1.15.11,1.5.75-6.51.51-13.87,2.01-20.22,1.5-.95-.08-2.22.41-2.25-.75,6.94-1.19,13.93-1.69,20.96-1.5Z"/>
  <path class="st229" d="M323.5,107.68c.15,3.03-.59,5.98-1.28,8.89-.31,1.32.4,2.81-1.72,2.36.38-1.58.45-3.1.75-4.5.39-1.8,1.64-4.83,2.25-6.75Z"/>
  <path class="st48" d="M301.78,110.68c.06.73-.95.74-1.5.75.08,1.17-2,.91-2.99.75.24,1.77-1.84,5.17-3.74,5.25-.86.82-1.61,1.07-2.25.75.17-3.84-5.06,1.11-5.79,1.34-1.36.43-2.74-.02-3.94.16-3.56-.41-8.11.94-11.23-.75,3.9-.37,8.04-.75,11.98-.75,10.12-3.66,16.19-11.17,20.22-21-.43-.66.1-1.75.75-2.25h.75c1.61,3.78-4.29,9.03-4.24,11.63,0,.23,1.66,3.57,1.99,4.12Z"/>
  <path class="st161" d="M282.32,118.18c-1.04.09-1.53-.16-1.5-.75,10.2-2.2,17.6-10.72,20.96-20.25.21-.63.46-.62.75,0-3.33,9.93-9.42,18.75-20.22,21Z"/>
  <path class="st2" d="M248.62,109.93c.8,2.16,6.59,2.88,6.74,6.75-1.44.11-2.55,1.67-3.35,1.51-1-.21-1.12-2.92-1.84-3.45-.48-.35-1.97.68-2.23.43s-2.92-7.56.69-5.24Z"/>
  <path class="st168" d="M280.82,117.43l1.5.75c-4.14.86-7.62.92-11.98.75-.55-.02-2.31.24-1.12-.75,4,.14,7.68.1,11.6-.75Z"/>
  <path class="st151" d="M303.28,94.93c-.25.89-.48,1.45-.75,2.25h-.75c1.17-3.33,2.23-6.93,2.25-10.5,1.27-.2.82,1.81.73,2.61-.22,2.12-.96,3.71-1.49,5.64Z"/>
  <path class="st230" d="M251.62,108.43c1.94,1.72,4.52,3.11,5.99,5.24-3.38-.55-4.51-2.85-5.99-5.24Z"/>
  <path class="st131" d="M349.7,86.68c.06,1.84-1.75,2.46-2.48,3.75-.81,1.45-.84,3.94-1.83,5.76-.68,1.25-2.78,2.83-2.88,3.57-.87,6.37,1.49,13.52,4.94,18.79.67,1.03,2.91,2.07,2.11,3.26-.09.13-1.32.04-1.41.58-.05.28.03,3.37.05,4.03-2.91-4.19-6.25-8.09-8.85-12.51-.88-1.49-1.11-3.28-1.97-4.77-1.17-2.04-11.14-18.59-10.14-19.47,1.79.31,6.96-.36,7.3,1.98.09.6-.78,1.56-.56,1.76,1.45,1.32,1.89-2.08,2.62-2.22.14-.03.84.79,1.13.73,1.03,1.45,2.15.37,3.27-.1,2.48-1.03,6.63-3.48,8.71-5.15Z"/>
  <path class="st207" d="M324.99,110.68c.53,4.48,2.19,10.94,1.44,15.33-.18,1.05-1.27,2.04-1.26,2.31,0,.3,3.17,4.28,4.32,4.11-1.54,1.91-2.79,3.41-3.74,4.5-.77.68-1.96,1.26-2.25,2.24,1.92.05,3.59-1.66,4.49.76-1.96.47-4.46,4-5.63,4.49-1.74.74-1.27-3.93-3.36-4.27,1.56-3.1-.86-4.45-.83-5.08.06-1.41,1.07-2.15,1.22-3.02s-.62-2.05-.45-2.87c.09-.43,2.22-1.35,2.31-1.25.11.12-1.39,3.63,1.12,2.99,2.69-.68-.04-3.46-.36-4.5.31-2.27.56-4.52.75-6.75.72-3.13,1.75-5.92,2.25-9Z"/>
  <path class="st152" d="M331.73,131.68c-.37,1.31-4.63,4.06-5.99,5.25l-.74-.37c1.38-1.34,2.89-3.1,4.48-4.13.68-.44,1.45-.64,2.25-.75Z"/>
  <path class="st226" d="M159.52,133.93c1.62-11.95,2.85-23.95,3.7-36,8.05,1.21,15.98,1.37,23.78.51-.32,2.81-.24,4.64.23,5.49,1.7,0,1.98.63,2.27,2.24l1.47-.74c.11.43-.12,1.1,0,1.5l-.97.04c-.25.6-1.99,1.72-2.03,1.91-.19.9.9,2.35,1.5,3.3-.12,3.03,2.39,5.06,3.74,7.5-.54-.08-2.69.61-3.74,0-.5,3.1,3.24.82,3.72,2.69.95,3.73-1.91,2.6-2.09,2.75-.31.25.16,1.5-.5,1.3-.19-.06-3.37-1.68-3.36-1.87l1.48-1.87c-2.83.32-3.3,3.51-5.98.74,1.08,1.91-2.28,4.96-3.74,5.58-.62.27-1.49-.44-2.07-.17-.7.33-1.02,3.48-3.93.59l-1.51,3.74c-.25,1.24-2.42,2.61-3.74,2.25-.59.27-1.31,1.24-1.84,1.23-1.87-.05-3.7-3.36-6.39-2.73Z"/>
  <path class="st143" d="M190.97,88.93c1.49.06,3-.05,4.49,0,.5.41-2.41,4.48.75,3.75v-3c2.06-1.42,1.16,4.15,3,2.24.21-.22-2.29-4.52-1.5-5.99h6.74c0,3.74.29,7.54-.84,11.16l-11.14,1.58c.06-2.93.31-4.78-.75-7.5-.29-.74-.75-1.4-.75-2.25Z"/>
  <path class="st18" d="M238.88,64.92c-1.31.18-.7-1.7-.74-2.61-.1-2.37.06-4.77,0-7.13,1.31-.18.7,1.7.74,2.61.1,2.37-.06,4.77,0,7.13Z"/>
  <path class="st171" d="M236.64,57.43c.1,1.71,1.62,4.2.37,6.01-.77-1.87-.98-4-1.12-6.01.21-.65.46-.65.75,0Z"/>
  <path class="st61" d="M236.64,57.43h-.75c-.07-1.05-.23-7.51.37-7.51.81,2.38.22,5.05.37,7.51Z"/>
  <path class="st63" d="M308.51,64.92c-2.57-1.09-.6-4.53-.68-6.37-.1-2.38-1.24-4.66-.81-7.12l1.48,5.63v7.86Z"/>
  <path class="st49" d="M363.17,51.42c-.98-.35-1.32-4.02-1.4-4.97-.1-1.35-.19-2.68-.09-4.03l1.48,8.99Z"/>
  <path class="st198" d="M360.93,48.42l-2.23-8.24c.98.32,1.7,3.52,1.9,4.46.26,1.27.51,2.48.33,3.78Z"/>
  <path class="st228" d="M225.41,135.43c-1.37-3.21-2.81-7.03-2.99-10.5,1.35,1.64,2.11,5.17,2.81,7.32.28.86,1.53,2.68.19,3.18Z"/>
  <path class="st6" d="M364.67,71.67l-1.48-7.49c1.06-.07,1.16,2.77,1.27,3.59.17,1.31.38,2.58.21,3.9Z"/>
  <path class="st76" d="M162.52,102.43c.07-1.1.84-3.68.04-4.15l-9.18-1.32-5.83-2.02c2.57-1.49,13.81,3.19,14.94,2.21.86-2.23-.06-6.19,2.27-7.47.6,1.78-1.77,6.54-.3,7.58l22.02,1.41c.07-2.24-.08-4.51,0-6.75,2.36-.29,1.17.51,1.2,1.85.08,3.55-.55,6.58-.45,10.15-.1,0-.18.95-.74.75v-5.25c-7.54,1.23-14.95.15-22.47-.75-1.08,11.79-2.15,23.64-4.5,35.25-.13.66.1,1.53,0,2.25h-.73c-.61-2.91.45-5.7.74-8.25.94-8.22,2.29-16.51,2.99-24.75-.65-.25-.65-.5,0-.75Z"/>
  <path class="st211" d="M134.81,100.18c.57-1.25,1.13-3.12,1.5-4.49-.46-.65-13.78-2.43-14.97-5.25,5.83,1.97,10.8,2.86,16.84,3.76,1.3.19,1.26-.4,1.13,1.48-3.26-.66-1.94,1.53-2.76,3.61-3.83,9.71-9.07,12.96-19.7,10.64-.3-1.34,1.22-.49,1.49-.74l.81-.92c6.66.78,11.14-3.52,15.66-8.08Z"/>
  <path class="st67" d="M134.81,100.18c-3.25,7.18-8.63,9.97-16.47,9,1.22-1.14-.6-3.04,3.35-1.5,1.51-.68.02-1.61.77-2.26l2.24,1.5c2.2-2.84,6.73-5.01,10.11-6.74Z"/>
  <path class="st132" d="M172.81,88.37c2.36,2.36-.64,8.04-4.31,6.21-5.17-2.59.74-9.78,4.31-6.21Z"/>
  <path class="st50" d="M137.06,130.18c.62.79,9.61,2.38,11.23,3,1.15.44,4.39,2.59,5.24,3.75-.25-.02-.5.03-.75,0-.34,2.41-5.85.7-5.9-1.3-2.7-.07-3.98-.89-3.83-2.45-.52-.17-.99-.57-1.5-.75-1.58,1.19-6.04.22-6.74-1.5l2.25-.75Z"/>
  <path class="st95" d="M139.31,100.93l4.48-18.75c-1.12,5.85-.27,14.13-4.48,18.75Z"/>
  <path class="st135" d="M116.09,148.93l-1.49,1.48h3.74s-.74,2.26-.74,2.26l1.5-.37c-.2,3.22-.7,4.2-3.74,5.61-.31-2,2.87-2.73,2.24-4.86-.78-2.64-7.73,1.22-6.72-1.5.25-.67,1.77-1.25.73-2.63h4.49Z"/>
  <path class="st116" d="M152.78,128.68c.37.18,2.17,1.08,1.11,1.51-1.08-.62-3.05-.17-3.92-.54s-1.18-.92-3.18-1.72c-1.63-.66-2.98-1.95-5.24-1.51-.19-1.31,1.74-.77,2.53-.66,2.56.36,6.35,1.79,8.7,2.92Z"/>
  <path class="st232" d="M131.82,112.18c-4.49,2.66-9.08,3.11-14.22,2.24l14.22-2.24Z"/>
  <path class="st60" d="M138.55,118.19c.11,1.41-2.42.72-3.27.65-1.03-.09-2.76-.45-3.84-.68-1.27-.28-2.24.84-1.87-1.47l8.98,1.5Z"/>
  <path class="st102" d="M162.52,103.18c-.91,0-7.48.72-7.5-.37l3.01-.38-.76-1.49h3s-1.5,1.12-1.5,1.12l3.75.38c-.02.25.02.5,0,.75Z"/>
  <path class="st126" d="M156.52,110.68c.12,1.39-2.44.74-3.27.65-1.6-.17-5.67-.67-6.46-2.15l9.73,1.5Z"/>
  <path class="st36" d="M137.06,106.18c-1.87,2.95-2.32,4.27-5.24,6,.9-2.49,3.02-3.92,4.49-6,.23-.37.48-.36.75,0Z"/>
  <polygon class="st130" points="134.81 121.19 132.26 121.87 126.58 119.68 134.81 121.19"/>
  <path class="st129" d="M156.52,106.94c-.73,1.76-6.09-.19-6.73-1.5l6.73,1.5Z"/>
  <path class="st27" d="M185.72,91.94l-5.23,1.49c-.4-3.07,3.66-1.37,5.23-1.49Z"/>
  <path class="st193" d="M137.06,106.18h-.75c.97-1.36,1.16-3.79,2.99-4.5.4,2.13-1.51,3.34-2.24,4.5Z"/>
  <path class="st153" d="M143.05,133.18c.21.07.45,1.2,1.32,1.46,1.37.41,7.45,2.19,8.41,2.29l2.24,2.24c-1.29-.34-2.49,1.35-2.99,1.51-3.5,1.58-8.11,2.35-11.98,2.25l-1.12-3.01c-.89,2.07-1.37,1.83-3.34,2.26-.28-4.83-.05.02-3.02-.76l1.5-1.12-1.5-1.12c1.77-.18,3.76.29,5.48-.03.51-.1.57-1.12.72-1.17,3.24-1.14,1.05,1.27,2.78,1.93-.05-.61-.15-.86.4-1.27.43-.32,1.92-1.47,2.02-1.53.82-.49,1.92-.14,2.83-.19.44-2.65-1.24-.68-2.79-1.29-1.27-.49-2.14-1.17-.95-2.46Z"/>
  <path class="st234" d="M134.81,130.93c1.76.3,5.19.96,6.74,1.5-2.74,3.53-1.69,1.57-4.11,1.16-5.72-.99-2.96,2.51-4.51,2.58-2.04-1,.19-2.6-.44-3.63-.21-.34-2.91-.92-2.93-2.35,1.78,1.03,4.16.56,5.24.74Z"/>
  <path class="st112" d="M152.03,140.68c1.01,0,1.73-.33,1.49.74-2.51-.23-5.27,1.15-7.48,1.51-1.41.23-7.57,1.05-8.23.74v-.73c.71-.11,1.61.14,2.24,0,3.69-.86,8.76-1.25,11.98-2.25Z"/>
  <path class="st29" d="M110.1,238.92c-1.16.19-.9-1.37-1.01-2.17-.52-3.66-.46-7.6-.47-11.32l1.48,13.49Z"/>
  <polygon class="st179" points="109.35 247.92 107.29 242.87 107.12 238.18 109.35 247.92"/>
  <path class="st234" d="M130.32,133.19c.36.48-2.94,3.33-3.73,1.11-1.04-2.9,1.82-1.66,3.73-1.11Z"/>
  <path class="st87" d="M173,247.18c.65,2.26,1.59,4.22,1.5,6.75-1.28-1.7-3.9-7.65-4.13-9.36-.05-.41.08-4.3,1.12-4.13-.54,2.61.91,4.66,1.5,6.75Z"/>
  <path class="st25" d="M172.99,223.92c-1.43-.43-1.19-3.37-1.55-4.68-.17-.61-1.33-.55-1.34-.9,0-1.08,1.27-3.28.65-4.91l2.23,10.49Z"/>
  <path class="st106" d="M167.01,153.43c2.38.29,4.4.13,3.74,3l-2.24-.75c-.87.76-2.09-1.31-1.5-2.25Z"/>
  <path class="st148" d="M171.5,161.68c-1.72-.93-2.8-2.86-3.74-4.5.21-.65.46-.65.75,0l2.99,4.5Z"/>
  <path class="st38" d="M167.01,152.68v.75c.04.93,1.31,1.77,1.5,2.25.13.34-.09,1.04,0,1.5h-.75c-.55-.96-2.62-4.66-2.24-5.25.21-.32,1.2.75,1.49.75Z"/>
  <path class="st96" d="M171.49,197.67c-1.65-.9-2.02-4.32-2.23-5.99,1.65.9,2.02,4.32,2.23,5.99Z"/>
  <path class="st65" d="M136.3,232.92c-1.06.18-1.09-1.33-1.27-2.08-.76-3.09-1.05-6.72-.96-9.91l2.23,11.99Z"/>
  <rect class="st43" x="137.06" y="209.68" width=".75" height="12.75"/>
  <path class="st124" d="M137.81,189.43l4.48-8.25c-.27,2.92-1.96,6.68-4.48,8.25Z"/>
  <path class="st120" d="M133.32,237.43c.16.88,2.37,8.99,1.12,9.01-1.24-2.83-1.41-6-1.87-9.01.21-.65.46-.65.75,0Z"/>
  <path class="st110" d="M133.32,237.43h-.75c-.12-.76-1.81-7.51-.37-7.51.28,2.55.66,4.98,1.12,7.51Z"/>
  <path class="st160" d="M131.81,247.92c-1.65-.9-2.02-4.32-2.23-5.99,1.72.94,2.33,4.21,2.23,5.99Z"/>
  <path class="st183" d="M188.72,137.68c.2,1.13-1.15.91-1.88,1.06-6.6,1.31-14.57,1.07-21.32,1.18l5.62-1.48,17.58-.75Z"/>
  <path class="st191" d="M171.5,133.18c1.68-.78,5-2.4,6.53-2.84.7-.2,2.65-.73,2.45.58-3.47.43-6.58,2.64-9.72,4.14-.76.37-2.55,1.87-3,.37,1.43-.65,2.7-1.76,3.74-2.25Z"/>
  <path class="st37" d="M128.07,265.93c-1,1.98-1.25,2.98-.75,3-.38.46-.38,1.61-.94,2.04-1.32,1.03-5.02.42-5.04-.92,0-.34,4.92-4.32,5.23-4.47.74-.35,1.35.37,1.5.35Z"/>
  <path class="st17" d="M135.55,268.92c-.1.08-1.58.27-1.48-.36l2.98-4.88c.4.97-1.09,4.9-1.5,5.24Z"/>
  <path class="st181" d="M128.07,265.93c.45-.07,1.79-1.5,2.24-.38-1.22.95-2.03,2.21-2.99,3.38l-1.49-.37,2.24-2.63Z"/>
  <path class="st14" d="M345.96,166.18c-2.09,6.1-3.52,12.48-7.11,18.01-.96-.49-.06-2.07.21-2.8,1.92-5.1,4.23-10.03,6.15-15.21.22-.58.47-.57.75,0Z"/>
  <path class="st78" d="M352.69,102.42l-.75-2.99-1.45.43c.86-2.47,1.08-5.96,3.69-7.18l-1.5,9.74Z"/>
  <path class="st184" d="M348.96,156.43l2.22-7.89,2.25-4.86c-.38,3.29-1.74,7.09-2.9,10.21-.35.96-.17,2.3-1.58,2.54Z"/>
  <path class="st206" d="M345.96,166.18h-.75c1.11-2.99,2.28-6.01,3.37-9.01,2.17.08-2.46,8.52-2.62,9.01Z"/>
  <path class="st164" d="M357.94,86.68c.53-2.08.31-6.19,1.5-8.25,1.39,1.82.05,6.7-1.5,8.25Z"/>
  <path class="st73" d="M363.18,137.68v-.75c.43-2.65,1.06-4.42,1.5-6.75.09-.46-.06-1.02,0-1.5.33,0,.64-.02.74.38.05,2.84-.93,6.08-2.24,8.62Z"/>
  <path class="st32" d="M334.74,190.93c.3-2.2,1.74-4.96,3.73-6l-3.73,6Z"/>
  <path class="st159" d="M360.19,163.18c-.63,3.51-1.03,7.05-2.26,10.49-1.47.12-.49-2.09-.74-2.99,1.14-2.35,2.16-5.04,2.99-7.5Z"/>
  <path class="st86" d="M354.94,218.68c-.98,1.64-3.29,3.49-5.24,3.74.98-1.64,3.29-3.49,5.24-3.74Z"/>
  <path class="st150" d="M360.19,163.18c.38-2.14-.2-4.92,1.5-6.75.46,2.61-.76,4.57-1.5,6.75Z"/>
  <path class="st180" d="M361.68,112.17l-.68-3.31,5.17-25.18c.55,9.79-3.09,18.98-4.49,28.49Z"/>
  <path class="st166" d="M367.67,116.67c-1.29.19-.79-1.77-.73-2.6.45-6.13,3.05-12.39,2.24-18.76l1.48-9.38c.29,10.38-1.5,20.56-2.99,30.74Z"/>
  <path class="st47" d="M363.18,137.68c-.71,4.14-1.49,8.24-2.26,12.38-.4,2.17-.69,2.35-.77-.02l3.02-13.11c-.04.24.04.51,0,.75Z"/>
  <path class="st137" d="M71.17,148.18c.05.17.61.45.75.75-2.33.45-3.66,4.38-2.25,6.74-1.8-.6-2.96-.32-4.49.76-1.93-1-3.93-2.25-5.99-3.75-.65-.21-.64-.46,0-.75,1.33.08,3.75-.44,4.97-.51,1.1-.07,2.06.64,2.8.55.52-.06.43-1.2.63-1.33.33-.22,1.17.58,1.28.51.48-.32-.02-3.62,2.3-2.97Z"/>
  <path class="st144" d="M59.19,151.93v.75c.65.21.64.46,0,.75-1.88-.84-3.94-1.3-5.99-1.5,2.91-1.31,3.22-.17,5.99,0Z"/>
  <polygon class="st170" points="73.42 118.18 72.29 121.16 72.66 118.93 70.43 117.43 73.42 118.18"/>
  <path class="st217" d="M82.4,129.43l-.75,11.25c-2.25.54-1.5-1.6-1.49-3,0-3.16.63-5.53,2.25-8.25Z"/>
  <path class="st173" d="M80.15,115.18c.11-.69-.16-1.65,0-2.25.58-2.2,1.68-5.44,2.44-7.68.34-1,1.3-2.43,1.31-.19-.72,3.54-2.48,6.97-3.76,10.12Z"/>
  <path class="st75" d="M85.4,107.68c.11,2.36.28,5.53-2.24,6.75l2.24-6.75Z"/>
  <path class="st233" d="M65.18,156.43c.93,1.16,2.32,3.66,2.24,5.25-1.45-.73-1.9-2.44-2.99-3.75-1.81-2.19-2.48-3.27-5.24-4.5v-.75c2.35.42,4.5,1.88,5.99,3.75Z"/>
  <path class="st79" d="M80.15,85.93c.12,2.18.18,4.81-.19,6.94s-1.48,3.16-1.31.56c.02-.25-.03-.51,0-.75.02-.14.72-.76.79-1.8.15-2.38-.18-4.81-.03-7.19,1.26-.2.7,1.41.74,2.25Z"/>
  <path class="st113" d="M81.65,89.68c.14-.9-.06-2.03,0-3,.15-2.54-.3-5,.76-7.49,1.31.21.84,3.92.77,4.9-.13,1.96.03,4.08-1.53,5.59Z"/>
  <path class="st42" d="M77.9,47.67c-1.41.15-.6-1.57-.53-2.4.18-1.98.92-4.04.54-6.21l1.48-5.63-1.5,14.24Z"/>
  <polygon class="st175" points="80.15 48.42 79.5 44.39 81.64 36.43 80.15 48.42"/>
  <path class="st138" d="M86.88,46.92l-.38-2.26,4.13-8.98c.12,4.04-2.79,7.46-3.75,11.24Z"/>
  <path class="st119" d="M76.41,74.68c-.29,2.12.45,5.02-.02,6.97-.13.53-1.21.43-1.42,1.08-.37,1.12-.01,3.23-.72,4.25-.79,1.14-5.2.82-4.44-2.03.33-1.23,3.91-7,4.88-8.66.54-.92-.43-2.07,1.72-1.62Z"/>
  <path class="st45" d="M136.3,54.42c-1.35,0-.81-3.25-.73-4.11.08-.92.27-4.01,1.48-4.13l-.75,8.24Z"/>
  <polygon class="st69" points="193.96 57.42 193.22 54.82 194.7 48.43 193.96 57.42"/>
  <path class="st231" d="M300.29,143.68c.19,1.18-.06,2.43-.75,3.75-.22.77-.53,1.51-.75,2.25-2.87,5.44-5.12,11.44-6.74,18,.88,1.91-1.45,6.06-2.99,7.5-2.08-6.07-3.45,2.33-5.98,3.74-2.01-1.71,2.06-3.68,1.48-4.45-.14-.18-1.51-.21-1.9-.74-.64-.87,1.85-2.88-1.08-3.42,1.93-1.5,1.76-3.62,2.25-5.63.99-.82,1.27-1.66.84-2.52,5.34-4.9,8.8-11.55,11.14-18.48.38-.08,3.74-.08,4.49,0Z"/>
  <path class="st109" d="M256.86,140.68c.46.77.38,2.56,1.16,3.71,1,1.49,3.29,2.04,4.15,3.39.59.92-.07,1.99.3,2.64.62,1.09,2.15,1.19,2.45,1.69.5.83.37,3.81.92,5.07l-4.85-.71c-.96-3.82-4.77-7.27-6.18-10.39-.75-1.66-.12-2.49-.2-3.15.53-.29.53-1.04,0-2.25,0-.5,0-1,0-1.5.47.49,2.02,1.11,2.25,1.5Z"/>
  <path class="st155" d="M295.79,143.68c.85,4.03-1.94,6.36-3.54,9.58-3.17,6.38-3.2,6.89-8.44,11.42l-1.5-.75c.13-1.05,3.43-5.84,3.74-6,.29-.15,1.39.32,2.06-.16.44-.31.5-1.54.94-2.09l3.74-6.75c.53-1.07,2.16-5.09,2.99-5.25Z"/>
  <path class="st34" d="M300.29,111.43c.13,4.11,3.35,1.54,1.04,6.67-1.7,3.76-4.43,5.11-8.53,4.57,1.85-3.2,4.58-4.71,6.36-8.24,1.04-2.07.03-1.57-1.12-.75-1.11.35-1.19-.59-.75-1.5,1.6-1.54,1.85-.73,2.99-.75Z"/>
  <path class="st122" d="M298.04,113.68c-.56,3.04-8.17,10.14-11.23,11.25-2.38-.95-1.35-2.05.75-3l5.99-4.5c1.34-1.56,2.6-4.15,3.74-5.25.7-.08.84,1.01.75,1.5Z"/>
  <path class="st34" d="M295.79,134.68l-1.84-2.89-.02-7.61c3.13-.5,1.48,8.77,1.85,10.5Z"/>
  <path class="st2" d="M244.88,137.68c.81,2.27,1.5,5.43.75,7.5h-.75c-.15-2.36-1.67-9.27-2.25-12h.75c.69,1.09,1.19,2.59,1.5,4.5Z"/>
  <path class="st121" d="M302.53,139.93c-.59,2.23-1.85,5.44-2.99,7.5.27-.92.41-2.43.75-3.75.95-3.73,1.92-7.46,2.61-11.26,1.76-1.58,1.02-.37.85.85-.28,1.99-.71,4.77-1.21,6.66Z"/>
  <path class="st48" d="M287.56,121.93c-.52.97-.8,1.88-.75,3-1.3.47-2.72.75-4.11.76-1.84-3.1,2.89-3.1,4.86-3.76Z"/>
  <path class="st203" d="M293.55,117.43c-2.59,3.03-2.12,3.2-5.99,4.5.72-1.35,2.48-2.94,3.74-3.75.68-.44,1.45-.64,2.25-.75Z"/>
  <path class="st163" d="M289.05,155.68c-.05-1.82,2.07-5.47,3.74-6.75-1.51,3.03-1.44,3.81-3.74,6.75Z"/>
  <path class="st5" d="M244.88,136.18c.06.49-.07,1.02,0,1.5-.85-.59-1.41-3.41-1.5-4.5-.06-.74.03-1.51,0-2.25h.73c.02,1.78.52,3.49.76,5.25Z"/>
  <path class="st101" d="M235.89,187.18c.14-3.28,4.18-9.75,3.74-12.32-.19-1.12-1.35-1.93-1.41-3.01-.1-1.76,1.38-4.9.68-7.17,5.54,1.94,2.83,7.57,2.96,12.41.06,2.39.75,6.3,1.53,8.59.65.21.64.46,0,.75-.5.42-2.15,1.69-2.15,1.83,0,1.43.76,6.08,2.15,7.17-.77,2.18-1.81,3.98-1.5,6.76-5.23-.21-3.24-1.43-3.94-3.95-.24-.87-1.21-1.64-1.3-2.06-.27-1.27.18-3.12,0-4.5.61-1.02.36-2.52-.75-4.5Z"/>
  <path class="st103" d="M250.87,184.93l-1.5,4.5c-.99-.02-1.85-3.1-1.94-3.73-.23-1.64,1.16-4.5,1.95-6.02.46,1.77.98,3.48,1.5,5.25Z"/>
  <path class="st103" d="M243.38,185.68c.25-2.23-1.23-6.71,2.25-6.74-1.49,2.14-.25,5.05-.72,7.02-.21.89-1.38.35-1.53.47v-.75Z"/>
  <path class="st2" d="M240.38,131.68c-.62.84,1.29,6.82-.37,6.73-1.18-.06-2.46-7.56.37-6.73Z"/>
  <path class="st117" d="M235.89,187.18c1.39,1.16,1.86,3.24,2.19,4.94.11.59.32,2.67-.68,1.41.11-.75-.62-1.38-.76-1.85-.29-1-.79-3.54-.75-4.5Z"/>
  <path class="st35" d="M310.02,172.93c.12-1.02.85-5.23,2.26-3.36-.4,2.47-.75,4.97-.82,7.48-.04,1.44.86,2.87.82,3.7-.02.38-2.11,3.07-2.3,6.79-.22,4.28,2.69,10.19-2.94,10.9.25-1.45-1.28-2.88-1.51-3.75-.11-.4.07-1.02,0-1.5l2.25-12.75c.2-3.4.1-5.01,0-8.25l1.5.75c.36,4.69.37,9.67-.75,14.25-.46,4.71-.21,4.71.75,0-.08-4.64-.14-9.72.75-14.25Z"/>
  <path class="st83" d="M298.79,149.68c-.49,1.66-.99,2.94-1.5,4.5-1.01,4.13-2.26,8.13-3.74,12,.41.65-.6,2.18-1.5,1.5,1.27-5.11,2.36-10.55,4.26-15.61.52-1.38.6-2.48,2.48-2.39Z"/>
  <path class="st97" d="M305.53,193.18c-.61-4.24.34-8.94,2.25-12.75-.24,4.1.04,9.17-2.25,12.75Z"/>
  <path class="st85" d="M294.3,166.18c-1.68,4.65-4.24,9.04-6.38,13.49-2.75,2.19,1-4.2,1.13-4.49,1.34-2.87,2.22-4.37,2.99-7.5l1.5-1.5c.21-.65.46-.65.75,0Z"/>
  <path class="st59" d="M294.3,166.18h-.75c.36-4.25,2.46-8.08,3.74-12-.53,3.88-1.67,8.34-2.99,12Z"/>
  <path class="st91" d="M283.81,164.68c-.87.75-5.28,5.16-5.99,4.49,1.36-1.54,3.06-3.91,4.49-5.24.3-.28,2.13-1.63,2.24-1.5.4,1.11-.6,1.65-.74,2.25Z"/>
  <path class="st21" d="M246.38,140.68c.13.68-.11,1.55,0,2.25.32,1.97,1.15,3.84.74,6h-.73c.6-1.55-.57-2.84-.76-3.75-.44-2.18-.44-5.22-.75-7.5.13.09.48-.06.75,0,1.64.26,1.8,1.76.75,3Z"/>
  <path class="st107" d="M245.63,137.68c2.18.46,4.37-.26.75,3-.11-.6-1.32-1.75-.75-3Z"/>
  <path class="st210" d="M254.61,140.68l2.99,5.24-2.99-2.99c-.08-.7,0-1.52,0-2.25Z"/>
  <path class="st46" d="M279.32,213.43l-20.96,1.5c0-1.23,1.38-.59,2.25-.75,3.18-.59,6.72-.39,10.04-.82,4.25-.55,3.04-2.43,8.67.07Z"/>
  <path class="st21" d="M251.62,166.93c-1.35-3.87-3.17-7.78-2.99-12l2.65,8.23c.54,1.18.13,2.7.34,3.76Z"/>
  <path class="st40" d="M259.1,202.18s.37-.69,1.09-.09c.56.47,4.39,4.36,4.15,4.58l-5.24-3.74v-.75Z"/>
  <path class="st62" d="M251.62,166.93c.8,2.29,2.72,4.66,2.24,7.5-.99-.11-1.52-3.08-1.7-3.93-.27-1.29-.32-2.47-.54-3.57Z"/>
  <path class="st108" d="M309.27,187.18c-.21.65-.46.65-.75,0,.52-4.66.71-9.55.75-14.25h.75c-.52,4.39-.17,9.54-.75,14.25Z"/>
  <path class="st92" d="M322,126.43c-.87-2.78.1-3.94.75-6.75,1.64,1.52-.67,4.65-.75,6.75Z"/>
  <path class="st53" d="M164.02,132.43l4.43-10.93,3.04-17.57c-.21,9.25-.39,21.73-7.47,28.5Z"/>
  <path class="st220" d="M181.23,118.19c.07,1.07-2.76,1.17-3.59,1.27-1.3.17-2.58.38-3.89.21l7.48-1.48Z"/>
  <path class="st199" d="M178.24,109.93c.2,1.1-2.38.96-3.17,1.01-1.13.06-1.82.92-2.81-.64l5.98-.36Z"/>
  <path class="st125" d="M168.71,89.89c2.34-2.86,5.22,1.55,2.83,3.2s-4.79-.81-2.83-3.2Z"/>
  <path class="st104" d="M264.35,155.67c-.91.88-5.78-5.39-5.23-5.99,1.2.18,5.52,5.71,5.23,5.99Z"/>
  <rect class="st72" x="240.39" y="171.43" width=".75" height="14.25"/>
  <path class="st223" d="M240.39,188.67c-2.54.47-1.83-4.63-2.24-5.99l2.24,5.99Z"/>
  <path class="st56" d="M309.27,187.18c-.36,2.92-.9,6.22-1.87,9.01-.77-2.79.83-6.34,1.12-9.01h.75Z"/>
</svg>