<?xml version="1.0" encoding="UTF-8"?>
<svg id="Layer_1" xmlns="http://www.w3.org/2000/svg" version="1.1" viewBox="0 0 1024 1024">
  <!-- Generator: Adobe Illustrator 29.5.1, SVG Export Plug-In . SVG Version: 2.1.0 Build 141)  -->
  <defs>
    <style>
      .st0 {
        fill: #f7e3aa;
      }

      .st1 {
        fill: #f8eed5;
      }

      .st2 {
        fill: #f6d962;
      }

      .st3 {
        fill: #9752ce;
      }

      .st4 {
        fill: #f7eed4;
      }

      .st5 {
        fill: #9853cd;
      }

      .st6 {
        fill: #f8eed6;
      }

      .st7 {
        fill: #efbe4a;
      }

      .st8 {
        fill: #efc34e;
      }

      .st9 {
        fill: #c8923c;
      }

      .st10 {
        fill: #f8f0d7;
      }

      .st11 {
        fill: #ece0c9;
      }

      .st12 {
        fill: #f7edd5;
      }

      .st13 {
        fill: #f3e165;
      }

      .st14 {
        fill: #f7f1dc;
      }

      .st15 {
        fill: #f5ead0;
      }

      .st16 {
        fill: #63358e;
      }

      .st17 {
        fill: #f3c148;
      }

      .st18 {
        fill: #f4e46b;
      }

      .st19 {
        fill: #f1c14d;
      }

      .st20 {
        fill: #f8efd5;
      }

      .st21 {
        fill: #f1c84d;
      }

      .st22 {
        fill: #edbd48;
      }

      .st23 {
        fill: #e9b946;
      }

      .st24 {
        fill: #efd093;
      }

      .st25 {
        fill: #f6e66a;
      }

      .st26 {
        fill: #f0c34a;
      }

      .st27 {
        fill: #f6e569;
      }

      .st28 {
        fill: #f8e869;
      }

      .st29 {
        fill: #dfaa4b;
      }

      .st30 {
        fill: #f5d95c;
      }

      .st31 {
        fill: #f7e86d;
      }

      .st32 {
        fill: #edca54;
      }

      .st33 {
        fill: #f3ce51;
      }

      .st34 {
        fill: #0a0a08;
      }

      .st35 {
        fill: #fbefd3;
      }

      .st36 {
        fill: #f8ecd2;
      }

      .st37 {
        fill: #f5ecd1;
      }

      .st38 {
        fill: #f3d052;
      }

      .st39 {
        fill: #f6eed5;
      }

      .st40 {
        fill: #dfa94b;
      }

      .st41 {
        fill: #efbe48;
      }

      .st42 {
        fill: #f2e36a;
      }

      .st43 {
        fill: #faf0d6;
      }

      .st44 {
        fill: #ca956b;
      }

      .st45 {
        fill: #f7edd2;
      }

      .st46 {
        fill: #f6eacf;
      }

      .st47 {
        fill: #8f4ec4;
      }

      .st48 {
        fill: #e2b598;
      }

      .st49 {
        fill: #f6ebd2;
      }

      .st50 {
        fill: #f6ebd3;
      }

      .st51 {
        fill: #f2cf57;
      }

      .st52 {
        fill: #e8b443;
      }

      .st53 {
        fill: #fbed6e;
      }

      .st54 {
        fill: #0b0b09;
      }

      .st55 {
        fill: #f9eece;
      }

      .st56 {
        fill: #f8f2dc;
      }

      .st57 {
        fill: #f0e5cc;
      }

      .st58 {
        fill: #f2c24a;
      }

      .st59 {
        fill: #bc8230;
      }

      .st60 {
        fill: #804da7;
      }

      .st61 {
        fill: #f6ead1;
      }

      .st62 {
        fill: #543274;
      }

      .st63 {
        fill: #f1e5c8;
      }

      .st64 {
        fill: #f7efd6;
      }

      .st65 {
        fill: #f6eed6;
      }

      .st66 {
        fill: #f3e9d1;
      }

      .st67 {
        fill: #be8431;
      }

      .st68 {
        fill: #f5eacf;
      }

      .st69 {
        fill: #f8f1d8;
      }

      .st70 {
        fill: #f6e86f;
      }

      .st71 {
        fill: #efc14a;
      }

      .st72 {
        fill: #f7e365;
      }

      .st73 {
        fill: #faf3da;
      }

      .st74 {
        fill: #0c0c09;
      }

      .st75 {
        fill: #f7e56a;
      }

      .st76 {
        fill: #f5ebd2;
      }

      .st77 {
        fill: #9653cc;
      }

      .st78 {
        fill: #f2ebd5;
      }

      .st79 {
        fill: #ede2cb;
      }

      .st80 {
        fill: #fbeb6e;
      }

      .st81 {
        fill: #c28b36;
      }

      .st82 {
        fill: #f7e86a;
      }

      .st83 {
        fill: #f7e869;
      }

      .st84 {
        fill: #f5e467;
      }

      .st85 {
        fill: #f4e6ca;
      }

      .st86 {
        fill: #f7eace;
      }

      .st87 {
        fill: #f9f1db;
      }

      .st88 {
        fill: #f7eb6b;
      }

      .st89 {
        fill: #fae96a;
      }

      .st90 {
        fill: #f0ce52;
      }

      .st91 {
        fill: #0a0909;
      }

      .st92 {
        fill: #0b0c09;
      }

      .st93 {
        fill: #f7ecd1;
      }

      .st94 {
        fill: #f2c148;
      }

      .st95 {
        fill: #f5d151;
      }

      .st96 {
        fill: #f8f0d9;
      }

      .st97 {
        fill: #e0b294;
      }

      .st98 {
        fill: #7b4aa1;
      }

      .st99 {
        fill: #f7eed5;
      }

      .st100 {
        fill: #f8ea6b;
      }

      .st101 {
        fill: #f2c54e;
      }

      .st102 {
        fill: #8a4cb9;
      }

      .st103 {
        fill: #9350c8;
      }

      .st104 {
        fill: #edbf48;
      }

      .st105 {
        fill: #563279;
      }

      .st106 {
        fill: #f0e6cc;
      }
    </style>
  </defs>
  <path class="st54" d="M224.32,841.72c-4.82-2-15.59-3.48-16.97-10.52-1.83-9.33,6.33-35.41,9.7-45.25,10.78-31.45,27.64-63.17,54.25-83.73-19.59-13.46-37-31.07-45.99-53.49-2.59,1.02.4,5.89.74,7.76,3.11,17.24,1.7,31.24-19.77,20.77-48.74-23.77-57.28-86.63-43.68-133.76,18.45-63.88,66.76-75.84,63.76-153.33-1.37-35.29-7.58-67.85-1.75-103.67,25.63-157.31,207.15-242.68,352.71-200.29,15.1,4.4,29.58,14.05,42.17,17.83,4.03,1.21,9.18,1.16,13.65,2.35,87.89,23.28,141.15,105.38,145.22,193.78,2.92,63.39-18.28,130,3.94,191.06,4.86,13.34,11.82,25.92,16.77,39.23,17.72,47.67,21.73,106.09-13.72,146.78-7.06,8.1-26.18,27.43-37.41,19.35-8.09-5.82-3.25-33.38-3.62-43.39-.04-1.21.75-3.72-.99-3.48-7.13,24.31-19.12,47.44-36.94,65.63-.28,1.6,10.17,10.83,11.9,12.89,19.85,23.65,34.7,65.48,38.02,95.98.68,6.24,2.37,16.37-1.51,21.47-1.43,1.88-8.89,5.67-11.16,5.77-1.91.08-3.28-1.65-4.32-1.75l-2.29-5.47c-3.47-59.99-28.52-114.07-85.29-138.02l-2.42-3.51c-12.18-4.72-24.18-10.06-36-16l-2.58.42c-9.65-2.65-19.48-6.22-28.75-9.89-.41,5.42-4.31,14.52-9.67,16.47.04.71.01,1.38-.28,1.9-19.98,35.16-59.96,59.15-100.39,63.45-.84-1.41-1.93-1.94-3.33-1.35-13.59.85-27.53.53-41-2-9.89-2.06-19.24-6.03-28-11l-2.7.48c-6.77-5.28-13.09-11.22-18.66-17.76l.37-2.72c-7.3-12.16-10.89-26.98-9-41-.44-1.52-1.46-3.18-3.21-2.59-10.99,3.32-21.91,6.52-32.79,9.59l-4.14,3.81c-62.86,23.33-96.25,81.38-103.63,145.44l-1.23,1.75h-.01Z"/>
  <path class="st16" d="M572.32,693.72c3.57.73,3.14,3.44-1.29,8.12,17.55-4.77,40.94,4.29,56.31,14.24,13.79,8.93,28.28,18.61,41.23,28.77,34.28,26.92,39.01,62.76,35.48,103.4-.65,7.53-1.34,11.39-8.72,13.47-21.67,4.94-44.22,9.1-67,12-.87-.28-.86-.62,0-1,1.27-14.95-.78-31.88-4-46-2.42-.94-3.97-3.64-4.66-8.1l-2.19,18.89-2.15,1.21c-.73-.11-.46-2.35-.46-2.23-.34,9.54-.52,18.94-.54,28.23,2.76,2.9,1.53,9.18-2,11-110.49,11.96-220.56,8.12-329-16-3.21-1.59-3.39-10.72,1-10,.93,3.56.68-5.04,0-7-3.51-.5-2.71-6.13,1-5l.36,1.62c1.03-11,1.91-21.87,2.64-32.62l-1.05-2.19c.62-7.68,1.54-15.36,2.75-23.05-10.57,22.16-18.18,45.56-22.81,70.22l-2.89,3.02c-.31-.08-.69.08-1,0l-12.6-4.27c-2.98-3.12-1.53-7.9,2.25-9.11-5.28-16.4-3.73-31.84,1.17-47.93,4.01-13.16,12.13-35.3,20.11-46.17,16.08-21.88,37.31-38.26,63.05-47.27,6.02-2.11,25.92-8.05,30.51-5.19-.07,3.64.43,6.95,1.5,9.94l.57-1.24c1.69,7.51,4.5,14.59,8.43,21.24,5.19,6.59,14.21,15.06,21,20,8.77,4.97,18.1,8.94,28,11,13.97,2.16,28.05,2.98,42.23,2.45l-1.23-.45c6.88-1.57,13.93-2.05,20.82-3.68,32.91-7.75,65.36-31.83,83.18-60.32h0Z"/>
  <path class="st62" d="M613.32,686.72c10.82,5.63,22.82,10.96,36,16,33.84,17.42,56.25,32.39,72.17,68.33,10.96,24.75,16.75,51.6,17.83,78.67-2.27-.22-37.13,10.43-44,12-2.1-1.71,3.41-1.08,4.51-2.99.27-.48,2.02-9.27,2.23-10.76,5.93-41.62-4.63-80.22-39.41-105.08-10.56-7.55-21.68-15.38-32.42-22.58-15.12-10.13-38.06-20.15-56.31-17.67-.67.09.16,3.36-5.6.06-.85-1.1,6.78-6.79,4-8.98,3.56-5.69,6.93-11.58,9.04-17.99,10.98,2.82,21.48,6.87,31.96,10.99h0Z"/>
  <path class="st105" d="M333.32,690.72c10.98-3.12,22.03-6.34,33.16-9.66,2.99-.81,3.68.33,1.84,2.66.69,7.08,1.02,14.08,1,21-.16.01-.57.84-.98,1.01l-1.02-10.02c-36.05,2.36-72.25,24.41-92.42,54.09-9.28,13.67-10.58,24.29-16.83,39.16-2.68,6.39-2.55,6.15-3.85,13.15-1.19,6.35-3.13,12.5-2.94,19.05.22,7.71,3.85,16.14,4.05,24.04l-4-1.48v6.23l11.99,4.76c-14.1-3.85-25.52-7.4-39-13-1.35-1.64-.67-3.05-.39-4.81,11.36-71.34,40.67-119.58,109.39-146.19h0Z"/>
  <path class="st34" d="M288.32,806.72c-.5,10.28-1.5,20.61-3,31-1.6.84-.97,3.4-1,5,.57,2.33.96,4.77,0,7-2.13,2.37-.57,6.86-1,10-6.56-1.46-12.67-3.3-19-5,7.67-27.56,11.98-58.43,28.99-82-.84,11.44-3.52,22.65-4.99,34Z"/>
  <path class="st91" d="M624.32,826.72c3.52,14.84,4.93,30.69,4,46v1c-5.37.68-10.59,1.41-16,2,.78-3.6,1.61-7.33,2-11-.16-8.69.18-17.36,1-26l3.01-26c1.71-1.27,5.74,12.82,5.99,14Z"/>
  <path class="st48" d="M552.32,287.72c10.54,17.55,24.18,32.51,38.99,46.51,2.22,2.1,7.48,5.18,9.01,7.49,2.31,25.84,6.65,52.9,21,75,3.8,6.52,11.88,10.95,17,4,6.61-4.59,9.93-9.9,18-14,23.3-15.31,50.12-4.19,55.85,22.99,4,18.98-2.5,34.28-9.85,51.01-4.6,7.95-8.36,13.09-16,18-16.25,13.14-39.55,15.99-56.23,2.51-3.44-1.97-5.71-2.62-6.77-.51-1.69,4.82-2.52,6-5,10-3.42,5.76-6.42,11.43-9,17-2.84,4.3-6.63,9.07-10,13-6.03,5.02-12.36,11.36-19,19-7.88,6.98-16.07,13.4-25,19-60.5,35.38-135.67,47.74-200,13-10.23-5.69-19.9-11.69-29-18-13.13-10.81-25.37-23.7-33-39-21.06-34.58-16.39-75.87-11.25-114.19.09-.65.61-1.23,1.25-1.81l-.79-2.39c4.84-27.3,5.08-54.7,3.83-82.25-.08-12.7.71-25.47,3.96-37.81,12.34-3.97,24.83-7.82,37.45-11.54,17.03,4.17,34.3,3.21,51.54,1.99,28.91-6.03,61.05-15.81,85-29,20.86-10.19,36.94-24.35,56-35,1.77-1.42,3.64-2.69,5.63-3.81,5.31,23.83,12.9,48.97,26.37,68.81h.01Z"/>
  <path class="st40" d="M525.32,96.72c22.34,1.49,45.72,8.31,67,15,5.23,2.22,9.98,5.48,15,8,.29,1.29,3.14,2.5,6.06,3.29,16.36,1.26,31.48,5.73,45.94,13.71,12.1,5.38,20.83,11.72,31,20,.44.32.81.65.93,1.06,1.51,4.96-11.49-3.48-12.06-5.08,40.54,42.22,62.73,98.99,52.97,159.19-1.43,8.81-6.4,33.39-11.62,38.94-.66.7-1.43,1.31-2.23,1.89-3.34,5.62-14.89-6.13-8.86-9.82-7.84-3.9-10.56-4.17-8.18-.83-.57,15.23-29.92,3.08-31.18-3.16-.16-.82,1.13-1.32,2.21-1.2,2.69-.55,5.81.57,9.36,3.39,13.06,5.17,21.33,3.25,3.58-5.34-4.76-2.64-7.74-5.99-8.94-10.04-4.93-5.88-10.26-11.22-16-16l-2.8-1.16c-21.75-23.25-37.33-52.43-50.2-80.84-1.55,18.34,9.15,40.69,18,55l4.21,3.3c9.56,16.03,21.77,30.3,35.48,42.91l2.31,4.79c1.14,2.22-.24,2.96-2.56,2.25-.43-2.27-3.88,2.48-4.56,3.92-1.04,2.19.97,4.58,2.31,6.13,2.06,7.58-4.65,5.75-9.33,3.88,3.77,1.29,6.65,3.85,6.36,8.09-.75,10.89-34.89,4.38-35.92,2.07-.98-2.19-.68-2.9,1.7-2.34,7.1,2.3,17.08,3.86,24.5,3,2.95-.34,8.09-1.16,6.03-5.02-.74-1.39-23.47-13.03-27.45-15.56-28.03-17.85-52.23-43.6-67.08-73.42-9.85-20.76-15.99-42.59-18.39-65.48l1.39-1.52c4.41-6.38,17.16-30.05,12.95-36.69-1.28-2.02-6.3.59-5.95,1.69-6.24,6.17-11.1,12.54-17,19-5.73,4.63-11.73,10.63-18,18-15.22,13.63-32.04,25.24-50,35-34.23,15.77-70.39,31.29-108.62,36.52l-.16-1.2c3.77-2.27,7.36-4.71,10.77-7.31,20.87-13.01,40.97-27.79,60-43,5.7-4.99,11.08-10.23,16-16,5.66-7.4,15.53-20.54,16.93-29.58.17-1.08.6-3.16-1.41-2.41-3.24,1.21-17.75,16.31-22.04,19.96-27.05,22.98-59.12,45.35-90.48,62.02-8.83,3.52-17.83,7.52-27,12-16.14,6.85-32.06,13.1-47.74,18.74-2.97,3.18-4.86,23.8-5.02,29.04-.09,42.85-.57,85.74-8.24,128.22-1.34,15.64-2.01,31.31-2,47-.38,3.5-.46,7.04-.23,10.64-33.97,61.78-6.29,135.99,43.23,181.36.79.29.78.62,0,1-.28.16-.72,1.36-1.63,1.84-2.32,1.22-8.76,5.41-10.36,5.75-3.84.8-19.07-11.54-22.48-14.61-8.84-7.97-16.19-17.93-22.53-27.97-17.61-26.87-20.93-63.89-18-93-.62.07-1.75-.17-2,0-18.62,28.55-21.13,66.2-15.26,99.75l-3.74-.75c-6.48-5.02-12.66-12.06-17-19-24.56-45.19-9.8-93.85,17-134,10.54-15.64,23.25-30.6,31-48,9.16-16.98,11.32-40.99,10.27-61.58l-3.19-43.41.92-2.01c-6.87-46.27,5.08-92.1,28-132,26.79-43.7,65.05-74.72,112-95,43.5-16.26,89.05-25.12,136-24,1.74-.17,5.04-.52,6,1h.03Z"/>
  <path class="st67" d="M628.32,530.72c.58-.24,1.68-1.54,3.31-3.9,17.49,6.89,35.54,3.23,52.84-1.47,15.81,28.1,24.04,62.93,21.72,96.03-1.96,27.84-11.84,50.01-25.76,73.61-2.09-.31-4.13-1.07-6.11-2.27-5.36-2.86-10.66-5.67-15.9-8.44,3.98-18.48,7.95-37.42,6.09-56.41l.81-2.15-1.11-.75c-.38-8.74-2.01-16.16-4.89-22.25-.43-1.06-2.15-2.58-2.49-4-2.07.91-.79,5.2-2.51,5-.89.51-.64-.6-.64-.54-.91,11.75-8.06,66.27-15.81,71.53-1.17.79-2.95.19-3.55-.99-14.71-5.67-29.38-10.67-44-15-8.82-3.47-15.4-6.36-23-12-5.53-4.61-11.2-10.46-11-18-1.41-5.88-3.21-21.56-.95-27.14,1-2.48,2.5-3.82,4.95-4.86,9.18-8.6,25.33-17.51,36-26,5.36-4.67,10.42-9.56,15-15,5.17-6.9,11.81-19.42,17-25Z"/>
  <path class="st81" d="M690.32,156.72c2.41,1.96,4.69,3.93,7,6,3.06,4.04,7.39,8.38,13,13,7.96,8.81,14.92,17.77,21,28,9.95,17.88,17.28,36.88,22,57,8.91,33.12,6.61,68.1,4,102-1.69,10.42-2.35,20.76-2,31-.09,1.9.72,4.89-1,6-.83-.18-.55-1.27-.56-1.2-1.54,29.83-1.71,58.91,5.56,88.2,5.89,15.6,12.42,30.95,19.6,46.04,6.42,15.53,11.79,32.02,12.4,48.96,2.34,11.7,2.61,24.33,0,36-.32,16.82-8,33.6-18,47-.26.4-.43,1.17-1,2-2.42,2.56-5.69,5.22-9.8,7.99-.03-8.59.57-16.92,1.8-24.99-.11-36.7-1.24-73.12-16.05-107.35l-24.65-58.28-.12-2.97c9.59-25.37,12.59-58.65-5.18-80.4-2.65-3.66-8.34-9.37-12-12-1.58-1.79-4.24-3.79-8-6-4.47-.55-9.59-1.84-14-3-1.01-5.97,6.26-5.04,9.81-2.27,1.47-4.09,7.51-3.79,11.09-2.59,1.77-6.53,6.33-14.83,10.21-20.59l2.89-1.55c24.8-58.69,16.22-123.23-20.56-174.94-4.64-6.53-19.62-21.15-21.98-27.02-.33-.81-1.1-2.72.04-3.04,3.73,2.57,7.31,5.35,10.95,8.05.86.64,2.74,3.3,3.56.95h-.01Z"/>
  <path class="st59" d="M257.32,491.72c3.62,16.82,7.49,34.17,17,49,6.98,9.18,12.98,19.93,20,29,4.31,5.05,8.95,9.69,14,14,10.13,7.86,21.62,16.68,33,23,9.27,5.84,19.27,10.84,30,15,8.51,1.8,16.93,3.93,25.28,6.4,1.22,1.08-3.24,25.05-9.28,25.6-18.67,6.69-37.54,12.55-56.61,17.59l-2.39-1.59c-2.47-2.9-5.03-7.6-7-11-3.89-8.02-7.55-16.36-11-25-.49-.68-.95-1.38-1.29-2.14-3.68-8.21-6.54-16.73-9.24-25.29-.03-.1,1.46,1.35-.47.42-.56-.15-.96-1.35-1.02-1.99-1.04-.6-2.83,4.92-2.98,5.99-4.32,19.4,5.96,46.1,15.77,66.57-.39,1.71-8.59,5.38-10.77,5.43-.93.32-1.76,1.51-2.99.57-24.6-25.87-46.3-55.64-53.73-91.34-4.83-23.21-4.84-48.28,2.46-70.99,2.34-7.3,8.26-16.25,9.8-22.2.73-2.81-.32-5.95,1.47-8.03v1h-.01Z"/>
  <path class="st97" d="M408.32,661.72l4.01-1.21c32.72,8.64,63.66,9.79,95.43-2.65,4.91,5.26,9.36,11.05,13.36,17.39,7.28,4.89,15.88,11.46,22.28,17.63,1.05,1.02,1.52,2.47,1.93,3.84-3.7,4.86-7.7,9.52-12,14-6.37,5.45-13.63,10.98-21,15-31.49,13.72-70.25,21.2-102,3-5.53-3.33-10.09-7.91-14-13-6.31-9.66-10.86-23-8.88-34.61.88-5.2,1.17-5.54,6.88-6.39,4.95-4.31,9.62-8.64,14-13h-.01Z"/>
  <path class="st29" d="M764.32,649.72l-1.1-1.22c-3.34-29.39-9.44-61.48-23.9-86.78-1.46-1.26-1.83-3.39-4-3,.69,36.73.87,73.21-16.13,107.33l.13,1.67c-6.41,13.72-14.99,26.24-24.98,37.55-1.52.68-17.53-10.95-20.02-12.55,1.14.33,4.2,1.43,4.91.93,6.91-14.57,15.54-27.84,20.01-43.51,7.96-27.92,6.6-59.62-1.42-87.41-1.56-5.39-11.88-35.17-15.46-36.5-13.6,4.44-26.11,6.43-40.43,4.39-2.14-.31-9.38-2.96-10-2.79-1.26.34-1.6,2.54-2.6,3.35-.39.32-.96-.5-1-.46.96-.82,1.8-4.84,2.01-5,.6-.46,11.41,3.56,14.61,3.88,27.86,2.78,53.39-8.79,68.79-31.97,17.79-26.8,24.4-69.55,4.59-96.91.6-2.11,2.5,1.18,2.82,1.68,15.09,23.67,12.39,53.27,3.44,78.67,11.5,30.48,27.52,58.8,35.24,90.65,6.26,25.84,6.97,51.58,4.49,78.01h0Z"/>
  <path class="st44" d="M536.32,611.72c.28,3.13.61,8.59-1,11-.76-2.76-.8,9.65,0,7,1.57.71.88,2.71,1,4-.77,7.37,2.88,14.17,7,20,6.17,6.51,14.49,12.11,23,15.02-4.49,9.94-10.94,18.78-18,26.98-1.2.8-2.2,1.13-3,1-7.41-5.11-13.83-10.98-20.5-17-1.45-1.31-3.63-1.69-5.02-2.98-2.68-2.47-11.14-16.87-12.16-17.09-10.94,3.05-21.59,7.42-32.93,8.95-22.11,2.98-44.82-2.43-66.38-6.88l-.44-1.01c4.07-7.69,8.35-17.22,7.44-25.99-.05-.21-.07-.87,0-1,13.04-.94,26.04-.94,39,0l2.2-1.18c26.79-2.45,52.58-10.76,77.3-21.05l2.5.23h-.01Z"/>
  <path class="st9" d="M667.32,333.72c2.67-1.49,5.97,1.02,5,4,.06.05-.93.65-.12,1.48,4.44,4.49,21.24,12.17,26.22,6.12,2.62-3.18-.75-4.62-1.09-7.59,1.71-1.77,13.25,3.08,15,4.49,3.07,2.47-3.93,1.63-3,3.99.74,1.89,6.03,8.01,8.99,6.51-2.94,6.96-7.24,12.84-10.45,19.05-.78,1.51-.36,5.66-2.08,5.95-1.16.2-2.13-1.54-3.12-1.72-.33-.06-6.12.5-6.34.72-.34.34.17,3.01-.02,3.99-4.48-1.45-7.79-6.45-11.99-1-9.57.69-19.49,1.83-28,7l-21.58,15.95c-1.99.46-4.66-6.23-5.42-7.95-3.98-12.38-6.82-25.02-8.52-37.91l1.52-.09c.58.25,2.18.73,3,1-2.52.99,1.15,1.52,1.8,1.69,7.94,2.09,16.44,3.29,24.72,2.33,4.17-.48,7.22-2.51,4.99-7.03-1.36-2.75-7.86-3.41-9.5-5.98,3.92-3.32,10.93,1.37,12.47.99,3.86-.95-.95-4.58-1.27-5.7-1.97-6.78,2.77-7.31,2.83-7.89.13-1.21-1.68-4.86-2.04-6.4,1.86-1.84,5.61,6.91,8,3.99h0Z"/>
  <path class="st96" d="M378.32,285.72c.8.05,1.2.12,1,1-17.78,2.68-33.82,2.54-51.48-1.03-12.19,4.1-25.05,6.88-37.03,11.03-6.43,28.04-2.08,57.08-3.45,85.55-.58,12.09-2.72,24.42-4.04,36.46-1.51,2.53-1.73,1.46-2-1,1.57-14.53,4.53-28.75,5.04-43.46.94-26.93-4.46-54.11,4.1-80.41,3.67-.15,7.31-.7,10.87-1.63,6-1.57,22.42-8.18,26.55-8.46,3.24-.22,11.4,2.67,15.91,3,9.97.73,24.62.3,34.54-1.04h0Z"/>
  <path class="st28" d="M320.32,267.72h1c-5.02,5.86-47.5,17.09-48.81,19.69-1.9,3.76-3.88,20.88-4.18,25.82-1.33,21.75.23,45.09-1.02,66.98-1.21,21.23-4.99,42.36-6.99,63.51-.28.87-.62.86-1,0,2.37-23.35,5.99-47.07,6.99-70.51.89-20.97-.91-42.11,1.02-62.98.47-5.06,1.96-19.15,3.9-23.1s13.87-5.7,18.62-7.38c10.27-3.63,20.39-7.93,30.46-12.04h.01Z"/>
  <path class="st73" d="M555.32,578.72c-61.16,38.39-136,47.18-201,13h1c65.98,33.26,133.92,22.8,196.09-12.41.97-.55,3.26-2.71,3.91-.59Z"/>
  <path class="st83" d="M187.32,635.72c-27.38-43.81-9.25-95.04,17-134,2.13.57-.18,2.89-.78,3.73-27.37,38.81-37.94,81.89-16.71,126.26.49,1.02,2.5,3.41.49,4.01h0Z"/>
  <path class="st72" d="M764.32,649.72c.55,8.16-1.58,15.86-.99,24,2.3-1.41,4.1-3.6,5.99-5.5.46-.46,2.58-3.5,3-1.5-2.64,3.85-6.59,7.18-9.71,10.72-.4.46-.78,2.89-2.28,1.27-.43-.46,1.87-10.28,1.99-12.5,1.77-34.45-8.61-73.49-22.99-104.49.05.05.62-1.03,1.43-.09,5.18,6.06,12.88,32.4,15.08,41.08,3.48,13.75,7.57,33.27,8.49,47.01h0Z"/>
  <path class="st31" d="M466.32,236.72c-34.83,18.92-76.58,33.29-116,37.99l18-9.99-1.99,2.51-8.5,5.51c37.13-5.47,70.99-19.51,104.47-35.53,1.02-.49,3.41-2.5,4.01-.49h0Z"/>
  <path class="st84" d="M243.32,346.72c-.3,1.91-.61,2.69-2,1-.23-4.28.02-8.7,0-13l-1-13c-.06-38.14,11.19-74.7,31-107,2.22.65-.29,2.78-.8,3.7-25.36,46-30.01,75.89-27.2,128.3h0Z"/>
  <path class="st68" d="M702.32,480.72c-2.01-.6,0-3,.49-4.01,4.28-8.87,8.6-18.53,9.49-28.5,3.23-35.86-21.57-58.99-55.98-41.48,16.21-13.61,39.68-8.98,50.82,8.68,12.79,20.28,6.45,45.85-4.82,65.32h0Z"/>
  <path class="st100" d="M519.32,95.72c-13.56,1.36-27.65.79-41.49,2.01-32.68,2.87-59.63,10.81-89.97,22.04-1.28.47-3.72,1.8-4.54-.05,42.28-18.26,90.01-25.44,136-24Z"/>
  <path class="st13" d="M223.32,555.72c-17.64,31.09-21.68,68.41-13.01,103-2.05-1.25-4.09-2.53-5.99-4l3.01-.51c-4.26-22.1-4.09-44.66,1.49-66.49,1.79-7,8.85-28.27,14.5-32Z"/>
  <path class="st27" d="M719.32,667.72c-2.1-.98-.37-3.07.14-4.36,7.63-18.92,13.73-37.43,14.9-58.1.8-14.04-1.02-29.08-.05-43.05.08-1.22-.64-3.31,1.01-3.49-.21,12.55,1.5,24.96,1.05,37.55-.89,24.62-6.64,49.19-17.05,71.45h0Z"/>
  <path class="st10" d="M283.32,418.72c-4.94,45.09-11.38,73.11,10,116-1.71-.64-2.09-2.24-2.85-3.64-19.69-36.16-13.34-74.4-9.15-113.36l2,1h0Z"/>
  <path class="st64" d="M512.32,725.72c-26.19,14.26-77.36,22.26-102,3,31.52,15.26,66.96,12.13,97.99-2.51,1.02-.48,3.41-2.5,4.01-.49Z"/>
  <path class="st88" d="M243.32,648.72c-18.99-30.1-20.09-52.49-19.04-87.55.06-1.9-.09-3.78,1.04-5.45.17-.02.85-2.7,1,.48.53,10.92-1.71,22.59-1.04,34.06,1.26,21.64,7.05,36.24,17.24,54.75.51.92,3.01,3.05.8,3.7h0Z"/>
  <path class="st38" d="M757.32,362.72c1.81-34.72,3.88-67.7-4-102,.28-.87.62-.86,1,0,8.02,34.12,6.8,67.78,3,102Z"/>
  <path class="st82" d="M243.32,346.72c2.06,38.48,8.38,68.09-6.17,105.34-.27.68-.96,4.12-1.83,1.66,16.32-36.63,8.03-68.25,6-106l2-1Z"/>
  <path class="st21" d="M792.32,581.72c-.28.87-.62.86-1,0-3.9-39.18-22.17-60.47-32-95,.28-.87.62-.86,1,0,5.11,18.06,15.87,34.57,22.27,52.23,5.47,15.1,7.83,26.97,9.73,42.77Z"/>
  <path class="st37" d="M464.32,257.72c2.47.94-.92,1.44-1.68,1.81-25.27,12.21-55.45,22.99-83.32,27.19l-1-1c26.16-3.53,62.19-16.36,86-28Z"/>
  <path class="st76" d="M552.32,287.72c-.78,2.22-2.25-1.48-2.53-1.97-11.69-21.22-19.53-42.18-24.49-66.02-1.58,1.69-3.33,2.07-4.99,3l5.99-6c5.12,24.78,12.95,49.26,26.01,71h.01Z"/>
  <path class="st24" d="M454.32,631.72c27.95-2.38,55.33-9.81,80.59-21.92,2.06-.51,1.28.57,1.41,1.92-26.34,9.49-53.68,20.1-82,22-2.67-.33-2.52-1.18,0-2Z"/>
  <path class="st95" d="M754.32,399.72c.16,5.64-.91,10.38-1.04,15.46-.59,22.27.98,50.11,7.04,71.54h-1c-8.59-30.19-7.58-61.01-5.99-91.99,1.81-.06.95,3.72.99,4.99Z"/>
  <path class="st21" d="M295.32,610.72c-3.07,22.52,7.15,47.75,17.03,67.46.01.83-10.51,4.69-12.03,5.54v-1c1.97-.69,10.06-4.37,9.88-6.32-.15-1.66-8.2-17.37-9.63-21.44-5.28-15-7.34-28.74-6.25-44.76l1,.52Z"/>
  <path class="st7" d="M654.32,603.72c.59,9.62-9.72,69.9-16.65,71.92-1.56.46-3.45-.58-4.35-1.92h1c.77.06,1.93.83,2.53.7,6.4-1.41,16.82-62.58,16.49-71.71.47.12.82,1,.98,1.01Z"/>
  <path class="st99" d="M621.32,416.72c-10.44-11.22-17.6-41.32-19.83-56.67-.88-6.04-1.68-12.25-1.17-18.33.24.36,1.11.66.99,1.47,1.87,25.08,7.22,51.64,20.01,73.53Z"/>
  <path class="st70" d="M544.32,199.72c-1.09,21.07,8.18,43.73,16.49,63.01.45,1.04,2.58,3.34.51,3.99-10.15-20.39-16.69-41.98-19.91-64.58.13-2.53,2.43-2.64,2.91-3.42v1Z"/>
  <path class="st58" d="M665.32,625.72c1.52,19.56-1.94,39.35-6.08,58.36.15.74,11.63,5.61,13.47,6.8.94.6,1.35,1.68,1.61,1.85-6.07-1.74-10.84-6.07-16.99-7.02,4.01-17.78,7.86-36.13,6.98-54.5-.08-1.62-.86-3.1-.99-4.48.23-2.03.5-2.71,2-1h0Z"/>
  <path class="st100" d="M525.32,96.72c18.67-.37,49.68,7.66,67,15-.94,2.09-3.09.35-4.37-.12-21.62-8.01-44.5-13.26-67.62-13.89-.06-1.8,3.73-.96,4.99-.99Z"/>
  <path class="st46" d="M686.32,498.72c-12.89,12.51-33.06,15.56-49.38,7.88-4.18-1.97-8.95-7.82-13.62-5.88.18-.51-.25-1.8,0-1.99,3.06-2.31,12.38,5.95,16.01,7.48,16.54,6.93,32.64,1.72,46.99-7.49h0Z"/>
  <path class="st90" d="M754.32,260.72h-1c-4.22-18.37-12.13-36.77-21.41-53.09-.55-.97-2.7-3.26-.59-3.91,10.51,17.68,18.29,36.95,23,57Z"/>
  <path class="st71" d="M387.32,653.72c-15.72,9.25-38.99,10.51-55.69,18.84-1.98.18-2.38-1.75-3.31-2.84l4.23.86,54.77-16.86Z"/>
  <path class="st25" d="M659.32,136.72c-7.98-3.55-20.61-8.8-28.97-10.53-7.19-1.49-14.73-.67-21.18-3.82-.37-.18-4.01-2.1-1.85-2.65,8.59,4.3,11,2.6,19.4,4.1,10.94,1.95,23.15,7.16,32.6,12.9h0Z"/>
  <path class="st40" d="M274.32,540.72c-9.13-12-15.12-32.38-17-49-.05-1.49.28-2.49,1-3,.63,7.96,3.37,20,5.74,27.76,2.55,8.36,6.54,16.38,10.26,24.24Z"/>
  <path class="st8" d="M371.32,620.72c8.17,2.86,17.49,4.66,25.99,6.01-.18,6.69-1.76,20.21-6.44,25.06-1.52,1.57-2.42,1.26-3.55,1.93,6.53-6.53,7.91-16.21,8.6-25.04-8.04-2.77-16.56-4.2-24.6-6.96-.83-.29-.81-.62,0-1Z"/>
  <path class="st106" d="M394.32,673.72c.53.3.51.64,0,1-1.61,1.11-5.2,1.73-5.84,3.66s-.41,12.19-.15,14.83c.51,5.22,5,18.33,7.99,22.51-6.03-8.33-9.73-16.86-10.05-27.47-.05-1.65.77-11.93,1.17-12.41.23-.28,5.65-1.41,6.88-2.12h0Z"/>
  <path class="st2" d="M260.32,443.72c-1.4,14.8-3.18,30.07-2,45l-1,3c-.04-.33.03-.67,0-1-1.71-16.58.37-30.9,2-47h1Z"/>
  <path class="st26" d="M773.32,664.72c9.46-14.15,16-30,18-47,.28-.87.62-.86,1,0-.32,2.2.09,4.44-.45,7.05-2.84,13.74-8.81,29.7-18.55,39.95Z"/>
  <path class="st0" d="M408.32,661.72c-3.12,4.7-9.36,9.8-14,13v-1c12.08-6.98,20.25-25.47,21-39,.03.13,1.21.24,1.04,2.44-.53,6.83-4.23,18.82-8.04,24.56Z"/>
  <path class="st22" d="M634.32,673.72c-.33-.03-.69.06-1,0-10.9-2.21-31.95-10.65-43-15,2.5-1.75,7.8,1.03,10.52,1.98,11.27,3.94,22.8,7.73,33.48,13.02Z"/>
  <path class="st42" d="M544.32,199.72v-1c4.79-7.67,12.82-22.67,13.03-31.55.13-5.64-2.12-4.87-6.03-2.45.04-.04-.76-.62-.45-1.01,1.18-1.49,4.83-2.79,6.52-1.56,5.63,4.08-7.91,33.38-13.07,37.58h0Z"/>
  <path class="st52" d="M792.32,617.72h-1c1.48-12.59,1.25-23.5,0-36h1c1.85,15.38,2.27,20.45,0,36Z"/>
  <path class="st32" d="M622.32,356.72c-1.73,2.11-.16,6.67.32,9.18,1.65,8.69,3.92,15.97,6.73,24.28.44,1.31,1.84,3.67-.04,4.53-5.5-12.47-7.57-26.68-9.99-40,.38-.46,2.42,1.76,2.99,2h-.01Z"/>
  <path class="st102" d="M378.32,724.72c-4.25-5.4-7.61-12.37-8.01-19.49-.15-.51-.53-.54-.99-.51-1.29-6.93-1.05-13.96-1-21,.28-.87.62-.86,1,0-.73,14.77,2.64,27.84,9,41Z"/>
  <path class="st51" d="M684.32,379.72c4.43.29,9.87,1.43,14,3,1.33,1.34.8,1.33-1,1-14.5-5.51-27.23-2.64-41,3,7.53-5.76,18.47-7.63,28-7Z"/>
  <path class="st98" d="M649.32,702.72c-.93,2.04-3.09.43-4.37-.13-10.09-4.43-19.37-10-29.85-14.16-.7-.28-4.3-.69-1.78-1.71,12.16,4.77,24.37,10.01,36,16Z"/>
  <path class="st60" d="M333.32,690.72c9.78-3.79,25.46-8.78,35.64-10.88,2.83-.58.43,2.56.36,3.88h-1c.07-.67.32-1.93-.6-2.08-2.75-.46-25.02,7.75-29.9,9.13-1.58.44-2.98,1.59-4.5-.04h0Z"/>
  <path class="st5" d="M468.32,757.72c1.11.05,3.26-.69,2.99.99-14.83-.09-29.66,1.09-43.99-2.99,13.91,1.95,27.22,1.32,41,2Z"/>
  <path class="st101" d="M560.32,596.72c-4.43,4.16-4.56,6.13-4.99,12.51-.32,4.78.1,14.87.99,19.49-.28.87-.62.86-1,0-1.11-6.17-2.11-21.63-.98-27.48.56-2.88,3.3-4.11,5.98-4.52Z"/>
  <path class="st57" d="M355.32,591.72h-1c-10.8-5.68-18.48-10.16-28-18,.94-2.45,2.67.36,3.49,1.01,8.1,6.39,16.67,11.72,25.51,16.99Z"/>
  <path class="st104" d="M371.32,620.72v1c-9.04-3.11-19.5-8.04-28.03-12.47-.49-.26-4.18-1.77-1.97-2.53,9.03,5.02,20.29,10.6,30,14Z"/>
  <path class="st0" d="M454.32,631.72v2c-12.68.85-26.23-.63-39,0,.47-.85.27-.85,1.45-1.02,9.13-1.37,22.29.6,32.11.06,2.06-.11,3.78-.9,5.45-1.04h-.01Z"/>
  <path class="st41" d="M310.32,633.72v1c-5.01-8.7-8.15-18.43-11-28,.07.02.52-.85.9-.96,3.22,9.3,6.27,18.9,10.1,27.96Z"/>
  <path class="st33" d="M755.32,393.72c-1.72-1.94-1.16-6.05-.99-8.49.53-7.45,2.2-15.43,2.99-22.51-.54,10.35-1.53,20.65-2,31Z"/>
  <path class="st18" d="M347.32,255.72c-8.58,4.56-17.15,8.37-26,12-.29.12-.71-.12-1,0,7.68-3.76,15.27-7.79,22.99-11.51,1.02-.49,3.41-2.5,4.01-.49h0Z"/>
  <path class="st47" d="M427.32,755.72c-10.8-1.52-19.41-4.74-28-11,9.2,3.75,18.41,8.27,28,11Z"/>
  <path class="st35" d="M599.32,540.72c-5.81,6.78-12.32,13.08-19,19l4-5.5,12-12c.46-.46,2.58-3.5,3-1.5Z"/>
  <path class="st80" d="M534.32,183.72c-5.78,6.32-11.61,12.28-18,18l4-5.5c3.66-3.67,7.33-7.33,11-11,.46-.46,2.58-3.5,3-1.5Z"/>
  <path class="st23" d="M321.32,658.72c-4.35-7.5-8.74-15.54-11-24v-1c2.92,6.91,6.69,14.55,10.41,21.09.55.97,2.7,3.26.59,3.91Z"/>
  <path class="st71" d="M665.32,625.72l-2,1c-.67-7.59-1.09-16.82-4-24,1.06-2.64,2.46,3.76,2.52,3.99,1.31,5.62,3.05,13.4,3.48,19.01Z"/>
  <path class="st19" d="M567.32,646.72c-7.88-5.84-10.1-7.48-12-18h1c1.51,7.8,5.82,12.48,11,18Z"/>
  <path class="st55" d="M548.32,695.72c-4.64,5.39-9.6,10.38-15,15-2-.42,1.04-2.54,1.5-3,3.45-3.45,7.09-7.84,10.5-11,.68-.63,1.89-1.06,2.5-1.98l.5.98Z"/>
  <path class="st89" d="M428.32,221.72l16-16c-5.76,7.53-8.74,10.2-16,16Z"/>
  <path class="st17" d="M596.32,570.72l15-15c-5.42,7.23-8.01,9.44-15,15Z"/>
  <path class="st43" d="M638.32,420.72c2.12,1.05-2.52,3.42-2.94,3.55-7.52,2.31-10.8-1.98-14.06-7.55,5.94,6.38,9.18,9.43,17,4Z"/>
  <path class="st94" d="M308.32,583.72c-6.86-5.32-8.72-7.18-14-14l14,14Z"/>
  <path class="st24" d="M543.32,653.72c-4.55-4.8-9.32-13.05-7-20,.72,7.87,3.43,13.2,7,20Z"/>
  <path class="st30" d="M710.32,175.72l-5.5-4-6-6c-.46-.46-3.5-2.58-1.5-3,4.67,4.19,8.8,8.35,13,13Z"/>
  <path class="st1" d="M410.32,728.72c-7.61-3.69-9.34-6.57-14-13,1.66,2.33,11.29,10.88,14,13Z"/>
  <path class="st61" d="M609.32,527.72c-2.17-.61.24-2.81.78-3.72,2.67-4.5,5.58-9.02,8.22-13.28-1.9,6.02-5.54,11.76-9,17Z"/>
  <path class="st24" d="M535.32,622.72c0,2.32.12,4.69,0,7-.06,1.12.69,3.26-.99,2.99l-.02-19.49c1.42-1.62.98,1.12,1.01,1.98.08,2.5,0,5.02,0,7.51h0Z"/>
  <path class="st9" d="M706.32,388.72c-2.07-1.49-6.68-4.12-9-5l1-1c3.06,1.16,6.76,3.11,8.98,5.51l-.98.49Z"/>
  <path class="st40" d="M241.32,334.72c-1.84-3.32-.99-8.9-1-13,1.85,3.33.98,8.89,1,13Z"/>
  <path class="st77" d="M628.32,872.72c-.7-15.15-.85-31.14-4-46l.97-.48c1.61,11.29,3.53,22.52,4.08,33.93.18,3.7.61,9.23-1.05,12.55Z"/>
  <path class="st103" d="M288.32,806.72c1.61,1.01,1.14,3.85,1,5.48-.86,9.81-3.92,19.55-3.01,29.52-1.76.2-.94-2.82-.99-3.99-.36-9.47,1.75-21.38,3-31h0Z"/>
  <path class="st3" d="M615.32,838.72c.14,8.45-.1,17.62-1,26-2.72-4.64-.15-10.74.04-15.46.23-5.82-.26-11.72-.03-17.54,1.88.57.96,5.3.99,6.99h0Z"/>
  <path class="st105" d="M267.31,833.73c.17,3.65-.93,7.18-1.87,10.63-.26.96.43,3.21-1.61,2.35-.58-.24-2.82-2.72-2.51-2.98,5.98,2.62,1.29-1.89,2.06-4.4.53-1.72,5.06-.92,1.96-5.12l1.98-.48h-.01Z"/>
  <path class="st103" d="M284.32,842.72c2.22,3.25.49,8.28.99,11.99-1.81.05-.95-3.72-.99-4.99-.07-2.32-.04-4.68,0-7Z"/>
  <path class="st92" d="M503.32,514.72c-6.31,6.33-13.55,12.06-21,17-22.98,12.43-50.16,17.2-76,14-15.96-.53-32.7-6.52-45-17-5.45-6.47-12.15-11.24-10.99-20.99,2.38-.38,4.05,1.14,5.99,1.99,36.86,16.8,76.62,24.47,114.73,6.09l2.27-.09c7.82-3.61,16.58-9.26,23-15,5.9-5.48,6.26-7.66,3.19-14.99l.81-1.01v-1c11.23-4.01,27.22,7.95,27.66,19.45.16,4.08.21,8.13-4.98,7.26-10.94-4.37-12.37-4.76-19.68,4.29Z"/>
  <path class="st74" d="M521.32,422.72c-.65,1.12-5.79,6.86-7,8-5.41,4.01-14.28,4.94-19,0-11.54-6.87-12.83-23.99-12-36-.56-7.06,2.69-17.11,8-22,1.82-2.49,5.42-6.42,8-8,1.87-2.91,6.42-3.67,9.82-3.46,20.41,1.25,21.38,49.17,12.18,61.46Z"/>
  <path class="st92" d="M361.32,358.72c7.93,15.81,9.23,42.98-1,58-10.58,8.45-21.02,9.95-29-3-12.59-15.39-4.99-63.33,19.43-62.44,3.75.14,9.49,3.98,10.57,7.44Z"/>
  <path class="st92" d="M414.32,393.72c8.78,6.5,2.82,25.47-4,32-2.3,3.1-5.23,5.39-8,8-5.41,5.07-10.75,10.4-16,16-12.17,17.92,13.39,26.49,27.57,23.41,6.58.47,6.28,6.4.43,7.59-13.93,10.96-36.16,5.05-46-9-6.38-9.62-6.49-22.98,1-32,8.76-9.87,17.24-15.99,26-25,4.99-6.67,9.48-13.7,13.47-21.1,1.58-1.85,4.23-1.9,5.53.1Z"/>
  <path class="st54" d="M694.32,420.72c12.11,6.85,13.08,36.04-4.85,18.75-9.86-4.77-21.17,1.12-15.99,12.84,5.61,10.35,8.67,24.02-.16,33.41-1.86,1.54-2.48,1.93-4,4-2.11,3.5-10.4,5.97-9.67.31,1.86-7.57,2.79-12.49,1.04-20.16-1.67-7.3-4.24-15.76-7.31-3.58l-1.05.43c-1.52.47-2.2.84-4,1-5.72-12.23.94-29.6,11-38,1.67-1.79,6-5.68,8-7,6.89-6.28,18.85-7.29,27-2h-.01Z"/>
  <path class="st54" d="M533.32,306.72c13.82,5.53,36.78,23.49,36,40-8.75.65-14.92-6.71-22-11-18.26-14.66-40.71-18.39-62.33-10.63-11.81,2.84-9.29-8.09-1.67-11.37.66-.58,1.77-1.84,2-2,13.04-10.02,33.12-12.3,48-5h0Z"/>
  <path class="st74" d="M372.32,307.72c2.5,2.31,6.98,7.63,6.48,11.12-.13.89-1.39,2.06-1.48,2.88l-1.4.33c-18.67-2.72-36.65-5.07-54.6,1.67-2.51,1.11-4.96,3.06-7,4-25.61,14.97-16.46-10.18-1-16,2.45-1.67,7.49-4.94,10-6,14.79-7.54,34.83-7.4,49,2Z"/>
  <path class="st4" d="M473.32,515.72c-43.13,19.91-76.1,11.94-117-6,.6-2.01,2.99,0,4.01.49,37.34,17.86,69.52,21.46,108.63,5.65,1.28-.52,3.38-2.24,4.36-.14Z"/>
  <path class="st15" d="M673.32,485.72c4.92-8.15,6.25-13.84,3.71-23.21-1.94-7.15-10.77-17.31-1.68-23.26,4.78-3.13,10.15-2.64,15.03-.09,4.44,2.31,10.31,11.73,11.84-.03.77-5.94-2.81-15.25-7.9-18.41,7.67,4.8,12.38,13.76,8.09,22.59-3.48,7.17-9-.95-12.39-2.79-4.79-2.61-12.17-3.21-15.72,1.68-4.61,6.36,3.68,15.36,4.78,22.26,1,6.33.03,16.34-4.33,21.35-.92,1.06-1.37-.14-1.43-.09h0Z"/>
  <path class="st86" d="M362.32,358.72c-.29.65-.63.64-1,0-2.03-3.26-9.01-7.4-13.23-6.8-22.41,3.15-26.68,45.71-16.77,61.8-.72,2.2-2.33-1.48-2.55-1.95-6.68-14.4-5.43-33.93,2.38-47.71,6.91-12.19,22.15-20.58,31.17-5.33h0Z"/>
  <path class="st6" d="M483.32,313.72c-1.88,1.66-9.51,9.16-4.34,10.85,4.24,1.38,15.4-3.18,20.86-3.83,16.67-1.99,35.38,3.15,47.49,14.98-14.81-8.97-28.35-15.7-46.38-13.88-6.18.62-26.74,10.21-24.42-1.38.3-1.51,4.09-9.4,6.8-6.74h0Z"/>
  <path class="st10" d="M521.32,422.72c4.33-7.47,5.74-24.82,4.88-33.38-1.39-13.76-9.59-35.23-26.88-24.62-2.05-1.46,4.31-3.68,4.73-3.77,25.66-5.22,25.93,41.75,20.31,57.3-.64,1.78-1.07,3.62-3.04,4.46h0Z"/>
  <path class="st15" d="M503.32,514.72c1.72-1.72,5.02-7.35,6.71-7.85,6.5-1.94,18.35,9.81,17.31-3.64-.92-11.85-15.62-21.7-27.01-19.51,9.22-6.15,26.42,7.13,27.93,16.56,3.31,20.64-11.1,6-17.25,7.57-1.4.36-3.5,3.98-4.66,5.39-.32.39-2.68,3.45-3.03,1.48h0Z"/>
  <path class="st56" d="M482.32,531.72c-21.14,14.03-50.93,16.94-76,15-.87-.28-.86-.62,0-1,25.81,2.38,52.77-2.94,76-14Z"/>
  <path class="st65" d="M414.32,481.72c-.55-.3-.54-.63,0-1,2.35-1.65,6.31-4.44,1.99-6.48-3.57-1.69-6.3.52-9.38.38-12.58-.56-29.82-7.11-22.81-22.64.69-1.52,1.93-1.83,2.21-2.26-8.56,12.87,4.65,21.93,16.52,22.98,4.26.38,18.44-2.42,16.34,5.29-.75,2.75-3.52,2.79-4.85,3.72h-.02Z"/>
  <path class="st36" d="M360.32,416.72c3.53-5.48,5.52-11.94,6.04-18.46.76-9.58.02-31.41-5.04-39.54h1c6.81,11.51,6.95,36.23,3.49,48.99-.7,2.59-2.43,7.93-4.5,9.5-.46.35-.94-.52-.99-.48h0Z"/>
  <path class="st93" d="M652.32,466.72c2.8-3.45,1.5-9.46,4.99-12,.03,6.91,4.44,12.73,5,19.51s-1.74,12.04-1.98,18.49c3.45.5,6.07-1.62,8.99-2.99-.18.24.59,2.81-3.71,3.79-12.19,2.77-4.5-8.41-4.26-15.34.21-6.3-3.54-12.25-4.04-18.44-2.24,1.2-1.9,4.97-3.55,7.09-.88,1.13-1.37-.12-1.44-.1h0Z"/>
  <path class="st79" d="M372.32,307.72c-15.2-7.97-33.17-8.69-49-2-2.63-.81,2.77-2.38,3.03-2.47,14.01-4.63,34.37-6.26,45.97,4.47Z"/>
  <path class="st63" d="M485.32,311.72c-2.21-.76,1.48-2.28,1.97-2.53,15.6-8.07,27.3-10.01,44.26-4.19.67.23,4.27.76,1.77,1.73-14.87-5.95-34.62-4.07-48,5h0Z"/>
  <path class="st14" d="M377.32,321.72c0,.07,1.2.28,1.01.98-19.3-1.01-33.51-6.6-52.65.87-1.28.5-3.37,2.26-4.36.14,19.28-8.54,35.94-4.49,56-2h0Z"/>
  <path class="st78" d="M414.32,480.72v1c-15.36,10.68-35.9,4.85-46-10,9.05,13.22,32.5,18.46,46,9Z"/>
  <path class="st39" d="M406.32,545.72v1c-15.08-1.17-35.94-7.24-45-18,12.21,9.16,29.81,15.6,45,17Z"/>
  <path class="st85" d="M659.32,429.72c-9.62,10.32-14.81,23.8-11,38-.07,0-.33,1.78-1.47.02-4.41-12.32,1.15-26.33,8.96-36.03.29-.37,3.05-3.96,3.51-1.99h0Z"/>
  <path class="st12" d="M313.32,311.72c-4.41,3.01-11.15,8.2-13.39,13.11-5.5,12.05,8.64,5.54,14.39,2.89,2.2.72-1.48,2.33-1.95,2.55-3.28,1.55-14.29,5.28-15.1-.07-.88-5.86,6.96-13.42,11.14-16.88.77-.63,4.11-3.75,4.9-1.6h.01Z"/>
  <path class="st11" d="M410.32,425.72c5.98-8.06,11.39-23.54,4-32-.47-.31-.46-.64,0-1,1.65.67,2.07.04,3.24,2.25,4.45,8.42.1,21.46-4.4,29.09-.28.48-2.27,3.77-2.84,1.67h0Z"/>
  <path class="st69" d="M369.32,439.72c-4.02,7.18-6.03,13.71-4.55,22.05.32,1.83,2.65,8.63,3.55,9.95-6.57-9.65-7.22-16.78-2.48-27.97,1.69-4,3.28-3.8,3.48-4.03Z"/>
  <path class="st49" d="M414.32,392.72v1c-1.64-1.14-2.85-1.37-4.55-.08-2.94,2.23-6.74,12.47-9.62,16.41-1.66,2.27-3.23,3.03-4.83,4.68l12.96-21.53c2.25-2.61,3.68-1.43,6.04-.47h0Z"/>
  <path class="st66" d="M694.32,420.72c-7.74-4.8-19.7-2.82-27,2-2.21-.75,1.48-2.29,1.97-2.53,9.75-4.8,15.96-5.15,25.03.53Z"/>
  <path class="st45" d="M491.32,372.72c-5.22,7.14-6.63,13.46-8,22-.06.38-1.34,1.45-1.04,2.42l.03,10.57-1.03-9.53c.89-8.37,2.67-15.8,6.84-23.15.28-.49,2.36-4.44,3.19-2.31h.01Z"/>
  <path class="st50" d="M386.32,449.72c5.12-7.89,9.59-9.97,16-16,1.97.35-1.07,2.68-1.48,3.03-3.28,2.78-12.53,9.98-14.52,12.97Z"/>
  <path class="st87" d="M514.32,430.72c-5.4,5.08-10.24,4.82-17.01,2.51-.98-.33-3.33-1.07-1.99-2.51,6.97,4.15,11.93,2.92,19,0Z"/>
  <path class="st20" d="M500.32,484.72c-.09,9.54,6.43,6.67-4,16l4.85-6.7c.4-1.59-1.25-5.02-1.82-6.84s-2.35-2.75.96-2.45h.01Z"/>
  <path class="st34" d="M660.32,309.72c5.71,4.89,11.04,10.23,16,16,3.32,2.89,6.51,5.81,10.09,8.41,2.88,2.09,18.72,8.95,8.19,11.37-7.46,1.71-16.45-3.56-22.28-7.78-1.61-1.42-3.42-2.6-5-4-16.69-14.82-31.04-31.33-42-51-9.58-15.72-19.14-36.35-18-55,7.4,8.7,11.25,19.87,16.83,29.67,10.68,18.78,21.75,36.17,36.17,52.33h0Z"/>
  <path class="st75" d="M625.32,282.72c-.76,2.21-2.28-1.48-2.53-1.97-5.64-10.85-11.69-24.41-14.75-36.25-.63-2.42-4.55-16.67-.72-16.78.42,18.25,9.13,39.08,18,55Z"/>
  <path class="st53" d="M676.32,325.72c-5.75-5-10.93-10.32-16-16,.42-2,2.54,1.04,3,1.5l9,9,4,5.5Z"/>
</svg>