<?xml version="1.0" encoding="UTF-8"?>
<svg id="Layer_1" xmlns="http://www.w3.org/2000/svg" version="1.1" viewBox="0 0 1024 1024">
  <!-- Generator: Adobe Illustrator 29.5.1, SVG Export Plug-In . SVG Version: 2.1.0 Build 141)  -->
  <defs>
    <style>
      .st0 {
        fill: #894cb9;
      }

      .st1 {
        fill: #f5edcd;
      }

      .st2 {
        fill: #fbf3d1;
      }

      .st3 {
        fill: #f8f1d1;
      }

      .st4 {
        fill: #f4e7c3;
      }

      .st5 {
        fill: #070d09;
      }

      .st6 {
        fill: #f4eac8;
      }

      .st7 {
        fill: #f7e8a7;
      }

      .st8 {
        fill: #f8f3d7;
      }

      .st9 {
        fill: #f3ebcc;
      }

      .st10 {
        fill: #192021;
      }

      .st11 {
        fill: #f6eccb;
      }

      .st12 {
        fill: #070d0a;
      }

      .st13 {
        fill: #faf5db;
      }

      .st14 {
        fill: #fbf1ca;
      }

      .st15 {
        fill: #d39a68;
      }

      .st16 {
        fill: #9752ca;
      }

      .st17 {
        fill: #f5ecca;
      }

      .st18 {
        fill: #f8ecc8;
      }

      .st19 {
        fill: #61358a;
      }

      .st20 {
        fill: #f1e8c4;
      }

      .st21 {
        fill: #f8f0cd;
      }

      .st22 {
        fill: #f9e8a5;
      }

      .st23 {
        fill: #f5eccb;
      }

      .st24 {
        fill: #e7b68c;
      }

      .st25 {
        fill: #8f4dbf;
      }

      .st26 {
        fill: #f6ecc7;
      }

      .st27 {
        fill: #f4e4a4;
      }

      .st28 {
        fill: #f1e8c6;
      }

      .st29 {
        fill: #f3ebc9;
      }

      .st30 {
        fill: #f8eece;
      }

      .st31 {
        fill: #f9f2d2;
      }

      .st32 {
        fill: #9651c6;
      }

      .st33 {
        fill: #e8b88e;
      }

      .st34 {
        fill: #f8f3d3;
      }

      .st35 {
        fill: #1a2121;
      }

      .st36 {
        fill: #f8eecc;
      }

      .st37 {
        fill: #fbf0c9;
      }

      .st38 {
        fill: #fbf0cf;
      }

      .st39 {
        fill: #9450c5;
      }

      .st40 {
        fill: #f9f1ce;
      }

      .st41 {
        fill: #f7efce;
      }

      .st42 {
        fill: #f7ecc8;
      }

      .st43 {
        fill: #f8f0cf;
      }

      .st44 {
        fill: #f3e8c4;
      }

      .st45 {
        fill: #f8f0d1;
      }

      .st46 {
        fill: #f6eecc;
      }

      .st47 {
        fill: #060d0a;
      }

      .st48 {
        fill: #8f4fc1;
      }

      .st49 {
        fill: #9250c3;
      }

      .st50 {
        fill: #faf4d8;
      }

      .st51 {
        fill: #9453c5;
      }
    </style>
  </defs>
  <path class="st47" d="M312,891c-16.13-4.51-32.62-10-47.3-18.2-8.35-4.66-24.99-14.98-25.73-25.32-.54-7.56,5.42-26.14,8.01-33.99,11.72-35.49,32.67-71.43,61-95.98-1-1.43-1.78-1.54-3.44-1.54-5.22,0-13.56,3.84-20,4.08-8.42.32-21.18-2.18-28.24-6.84-11.65-7.68,1.09-9.08,8-13.39,15.76-9.83,23.96-20.18,23.69-39.8l-15.98,16.51c-32.71,28.06-93.49,20.34-109.77-22.25-1.19-3.11-6.66-17.85-.21-16.87,12.01,1.82,26.35,3.74,33.83-9.04,9.46-16.17-7.25-27.62-15.82-37.88-29.04-34.73-19.45-85.01,1.8-121.14,18.37-31.25,48.75-50.62,54.06-88.94,2.96-21.39-3.39-44.34-3.91-65.82-4.1-169.05,207.25-255.86,348.01-198.04,4.65,1.91,12.65,7.42,16.74,8.26,9.09,1.86,22.69-.11,33.5,1.5,83.97,12.51,143.95,95.16,154.65,175.35,5.71,42.82-8.45,84.54,16.09,122.91,6.66,10.41,15.81,19.85,22.84,30.16,26.85,39.33,39.76,82,21.65,128.28-6.69,17.11-27.55,44.89-9.37,61.43,5.84,5.31,21.76,7.55,22.47,8.53,2.64,3.66-3.85,13.72-6.15,16.98-20.49,28.99-65.08,29.25-91.4,8.09,2.3,14.32,15.81,20.86,26.97,27.5-9.95,13.19-36.75,18.3-52.52,17.54-11.78-.57-22.43-4.94-33.44-7.58-1.31-.31-3.04-.08-3,1.04.03.81,9.86,9.63,11.49,11.49,24.29,27.6,43.44,69.21,50.8,105.2,2.3,11.22,5.76,19.03-2.67,28.46-26.15,29.27-98.9,43.49-136.65,47.35-.72-.05-1.1-.18-1-1-.77-7.4-1.14-15.42-1-22.5-.83-10.07-.82-21.72,0-32-.52-2.65-.19-5.48,1-8.5-1.61-3.04.88-23.89,4.01-25.58,1.66-.89,3.49-.52,5.07.39,6.85,3.95,13.82,45.01,12.96,53.1-1.53,1.43-1.87,3.46-1.03,6.09.49,1.97.71,4,.66,6.08,7.73-1.54,15.51-2.57,23.34-3.08l1.56-2.38c23.4-5.78,47.91-12.54,67.66-26.85l2.79.23c1.53-2.12,1.98-3.96,1.77-6.58-1.72-21.02-14.57-47.77-23.77-66.42l-3.76-2.91c-15.27-28.14-41.13-48.68-70.09-61.55l-3.15-3.54c-8.57-4.04-17.24-7.71-26-11l-1.76,1.49-9.98-3.25c-14.08,26.78-39.05,50.22-67.37,63.94-6.38,3.09-28.14,12.35-33.73,10.76-.75-.21-1.46-.56-2.17-.94-4.06,1.62-9.83,2.17-14.5,2-6.38.78-13.56.77-20,0-2.43.4-6.25.21-8.5-1l-3.26,1.5c-35.17-5.37-67.59-30.51-66.8-68.36-48.81,14.48-90.26,45.81-108.43,95.68l-3.51,3.18c-4.26,11.68-7.93,23.58-11.01,35.7-.98,3.98,2.01,6.28,5.01,8.3,2.91.03,5.9,1.38,8.97,4.06,4.29,1.32,7.3,3.3,9.03,5.94,3.28,1.84,6.19,2.34,8.73,1.5.68-5.74,1.77-11.24,3.27-16.5-.43-1.1-.72-1.96-.47-3.08,2.95-13.36,11.3-43.36,21.25-53.23,17.07-16.91,7.14,20.45,4.71,28.37-1.02,10.51-3.18,20.49-6.49,29.94-.84,13.65-1.51,27.31-2,41,3.92.95,2.13,4.34-2,3Z"/>
  <path class="st19" d="M613,701c7.55,2.89,16.22,6.55,26,11,32.54,13.67,61.14,36.1,77,68,12.25,20.51,18.71,43.38,23.78,66.5.43,1.95-.27,5.05-1.78,6.5-14.65,13.42-52.42,24.95-72,29-7.66.48-15.3,1.49-22.9,3.04-.61-6.49-.98-8.5-1.1-6.04-1.53-6.5-1.25-13.61-2.14-20.36s-5.92-33.99-10.84-37.16c-.75-.48-2.51-.82-3-.48-2.07,1.41-3.45,20.72-5.01,24-.27,2.04-.94,3.87-2,5.5.42,14.57.76,29.68,1.04,45.33l-1.04.67,1.09-.12c.24,3.88.54,7.75.91,11.62.2.34.75.62,1,1-95.73,9.79-217.16,7.95-310-18,3.17.58,1.58-1.34,2-3,.51-13.73,1.18-27.39,2-41,1.06-9.71,2.61-19.56,4.32-29.18,1.89-10.62,6.21-20.9,5.68-31.81-7.32,1.3-11.92,11.3-14.85,17.64-5.86,12.68-10.01,27.25-13.16,40.84-.2.48-.5.56-.98.51-1.3,6.06-2.72,11.98-4.24,17.77l-7.76-2.77c-6.25-1.86-13.22-5.34-18-10-5.92-3.5-6.73-9.84-2.43-19,3.18-8.45,5.99-16.78,8.43-25,18.77-45.52,41.4-71.84,87.03-91.47,6.01-2.58,19.72-8.77,25.5-9.52,2.7-.35,1.23,6.23,1.48,8.47,4.03,36.11,34.29,55.51,67.98,60.52,13,2.43,30.07,2.35,43-1,42.38-7.76,82.12-37.61,102-75.55,2.19-1.09,10.55,2.77,13,3.55Z"/>
  <path class="st35" d="M567.78,134.3c6.43,8.75,6.43,6.55,17.22,10.21,12.03,4.08,7.51,2.13,19.47,1.46,27.89-1.57,65.31,12.95,87.01,30.07,49.6,39.12,70.67,94.04,73.57,156.43,1.35,28.97-4.26,50.3,5.25,79.75,8.24,25.53,29.61,44.46,42.23,67.77,14.15,26.16,20.45,57.69,13.99,87.03-6.21,28.18-37.33,64.27-9.04,90.02,1.88,1.71,10.45,6.82,10.5,7.46.19,2.55-5.7,4.54-7.76,5.22-10.49,3.44-22.12,2.34-31.23-4.19l3.01-1.01c-20.7-14.15-21.85-38.04-17.7-60.71,5.4-29.53,9.48-49.41,0-79.58-11.78-37.47-31.27-53.04-50.31-83.69-26.41-42.5-21.68-91.27-45.8-135.2-9.12-16.6-21.09-34.93-36.16-46.33-.24,2.02.15,3.88.67,5.82,4.39,16.38,13.79,34.13,18.81,51.19s8.36,34.73,12.5,51.99c-2.22,2.29-39.07-18.07-43.67-20.82-39.96-23.94-71.1-74.45-76.2-120.8-1.63-14.8-.01-29.79-2.64-44.38-1.72,0-5.07,2.34-6.52,3.48-13.52,10.74-26.88,31.26-39.93,44.07-29.06,28.55-65.43,49.49-104.28,61.72l-40.76,11.24c5-2.46,9.42-6.13,14.32-8.68,12.55-6.53,17.6-8.38,28.69-18.31,21.97-19.66,41.3-42.96,52.43-70.57.4-1,1.25-3.31.06-3.94-12.32,6.7-21.97,17.35-32.49,26.51-18.52,16.11-36.08,33.14-57.71,45.29-25.76,14.48-54.14,23.12-81.79,33.14-1.69,7.28,4.47,10.83,5.4,17.64.75,5.5.63,15.11.71,21.08.7,50.68-2.36,85.2-19.6,132.85-13.12,36.25-27.36,45.26-24,88.96,1.82,23.73,13.96,44.54,7.51,69.54-6.03,23.36-27.61,42.35-52.51,32.47-1.88-.75-15.12-8.12-13.01-10.48,27.78-5.73,39.85-32.14,27.17-57.68-4.48-9.03-12.7-15.42-18.2-23.8-16.05-24.43-14.88-51.1-4.44-77.5,19.72-49.87,63.87-66.97,67.51-126.49,1.37-22.41-7.22-46.44-6.03-69.03,7.15-135.51,182.64-217.91,301.53-174.55,1.68.61,11.84,4.8,12.24,5.34Z"/>
  <path class="st33" d="M524,236l1.45-.38c-.51-1.52,6.32-6.07,7.05-3.99,4.33,25.35,13.04,50.12,26.5,71.37,1.55.76,16.2,23.57,20,28,.98,1.6,1,1.96.05,1.08-1.27-.12,16.32,17.84,17.95,16.92,5.22,4.52,10.94,8.28,16,13,1.58.66,2.48,1.81,2.46,3.58-3.39,33.66-2.39,69.65,14.54,100.42,5.29,8.35,11.08,17.08,17,25,4.89,5.79,10.21,11.11,16,16,2.69,2.01,5.27,2.89,8,6,4.5,8.55-6.36,13.83-13.1,16.23-11.22,3.99-21.65,2.58-33-.41-3.41,6.99-6.37,14.05-8.89,21.18-5.43,10.06-12.49,19.4-20,28-5.69,4.69-11.69,10.69-18,18-15.3,13.43-27.28,20.29-46,28-52.6,20.48-111.76,17.86-161-8-24.5-14.1-56.36-44.6-67-71-11.68-24.23-11.67-51.5-7.07-77.44,3.65-17.56,7.34-35.08,11.07-52.56-.79-30.58-.61-61.17.53-91.77,51.83,0,105.83-10.34,150.47-36.23,18.76-10.27,35.42-23.67,52-37,4.29-3.28,7.63-6.94,10-11,1.06-1.12,1.16-2.08,3-3Z"/>
  <path class="st35" d="M751,699.99c-3.12,2.3-28.79-5.11-32.92-7.57-4.75-2.82-8.24-11.88-10.09-16.91-15.9-42.97,5.36-82.48,2-125-3.02-38.15-32.51-53.35-52.21-81.79-21.28-30.75-23.56-59.87-21.77-96.72l41.49,14c3.96,14.38,8.33,28.45,15.33,41.67,20.81,39.26,57.94,67.33,64.04,113.96,5.41,41.31-19.18,70.54-20.86,109.88-.81,18.9,4.63,33.1,14.99,48.48Z"/>
  <path class="st24" d="M556,659c4.96,12.23,11.61,23.83,24.08,29.59-3.54,10.27-10.04,19.33-17.08,27.41-3.58,3.1-6.98,6.33-10,10-10.59,9.43-21.69,16.85-35,22-25.42,7.44-52.48,12.47-78,1-9.56-3.75-19.27-9.33-25-18-7.04-8.45-15.28-31.85.41-34.92l.59-1.08c6.51-3.85,14.79-10.46,17-18,.66-.91,1-.58,1,1,1.5.71,1.64,2.01.42,3.88,40.03,14.96,85.24,6.6,121.99-13.27-2.09-3.78-2.23-6.65-.41-8.61v-1Z"/>
  <path class="st15" d="M549,643l5.49-1.75c-.46,6.38.05,12.63,1.51,18.75.67,3.83,1.8,6.42,3,9.99-21.06,9.98-43.01,19.05-66.63,20.88-19.54,1.52-42.48.13-60.37-7.88-.66-.91,1.75-3.87,2-4.99.57-6.46.18-12.99-1.87-19.4.17-.91,16.62,1.13,17.87,2.4,31.84.79,65.41-2.95,94-16,1.64-.59,1.96-1.32,5-2Z"/>
  <path class="st10" d="M672,697.99c-9.98-2.69-19.17-8.18-29.86-8.13-6.25-25.08-4.6-56.08,10.37-77.86,3.84,12.4,2.1,25.68,3.51,38.48,1.2,10.89,4.09,23.44,8.52,33.48,2.15,4.88,5.22,9.23,7.46,14.03Z"/>
  <path class="st13" d="M459,287c2.21.76-1.48,2.28-1.97,2.53-45.72,23.62-96.52,34.74-148.03,34.46l-.99,91.01c-.61.33-.94-.33-1-2,.68-10.36-1.31-20.76-1.09-30.5.4-17.64,2.6-35.23,2.14-53.04-.06-2.2-1.95-5.8-.09-7,51.94.36,105.41-10.47,151.05-35.46Z"/>
  <path class="st31" d="M532,624c-50.53,20.8-113.05,19.61-161-8,.6-2.01,2.99,0,4.01.49,4.61,2.22,9.33,5.08,14,7,45.55,18.73,97.09,17.06,142.99.51Z"/>
  <path class="st30" d="M308,415c-7.76,46.03-22.61,83.85-4,130-12.37-22.04-12.54-48.76-8.71-73.21,3.08-19.67,10.42-39.1,11.71-58.79l1,2Z"/>
  <path class="st45" d="M630,466c-13.7-21.61-17.79-51.96-16.99-77.49.2-6.27,2.34-16.16,2.08-22.02-.08-1.86-.99-3.12-2.09-4.49.52.48,2.46-.51,3.01,2.48-3.13,35.03-1.75,69.51,13.99,101.52Z"/>
  <path class="st17" d="M524,236c.98-2.6,6.54-6.9,8.92-4.91.79.66,3.46,16.9,4.37,20.13,5.08,18.14,12.98,35.2,21.72,51.78-3.92-1.91-12.99-22.77-15.77-29.73-5.27-13.23-9.35-27.13-11.24-41.27-3.41-1.27-5.81,4.53-7.5,4.99-.58.16-.45-1.01-.5-.98Z"/>
  <path class="st7" d="M544,645c2.46.88-.97,1.55-1.66,1.83-29.99,12.13-59.95,15.8-92.34,14.17-.87-.28-.86-.62,0-1,33.88,2.42,62.59-3.78,94-15Z"/>
  <path class="st29" d="M518,748c-26.91,10.41-52.32,12.13-79,1h1c25.31,9.83,48.39,6.55,73.48-1.03,1.32-.4,3.63-1.9,4.52.03Z"/>
  <path class="st0" d="M738,853l1.03-6.45c-4.1-23.28-12.55-45.49-23.03-66.55,8.17,11.95,14.12,27.25,18.27,41.23,2,6.75,6.6,22.12,6.49,28.5-.04,2.24-1.61,2.22-2.76,3.26Z"/>
  <path class="st49" d="M621,845c.16,3.39-1,6.65-1,8.5v32c0,.37.99,1.65,1.04,2.96.25,6.49-.25,13.05-.04,19.54-1.87-3.15-.65-5.17-.96-8.54-.12-1.27-1.04-2.63-1.04-2.96v-46c0-1.57,2.08-5.81,1.01-8.49h.98c.06.99-.04,2,.01,2.99Z"/>
  <path class="st1" d="M671,513c5.93,6.75-4.6,13.67-10.48,16.02-11.94,4.75-23.54,4.42-35.49-.02-2.48,7.21-5.41,14.3-9.03,21.01-2-.59,0-3,.49-4.01,1.53-3.15,6.81-16.72,8.53-17.54,7.72,1.05,14.16,3.24,22.47,2.54,6.84-.58,23.23-5.84,24.4-13.72.35-2.37-2.61-3.42-.88-4.27Z"/>
  <path class="st4" d="M416,695c2.2.7-1.48,2.35-1.94,2.56-5.39,2.44-6.15.92-6.49,7.94-.39,7.91,2.58,19.18,7.44,25.5v1c-5.92-7.51-9.57-15.69-9.04-25.53.58-10.7,3.51-7.6,10.04-11.47Z"/>
  <path class="st25" d="M267,850c-4.26-1.25-6.38-3.97-5.95-8.38.74-7.63,8.7-27.72,11.95-35.62,1.78.67.16,3.13-.25,4.24-4.17,11.09-8.87,23.15-10.28,34.72,1.79,1.31,3.13,3.66,4.54,5.04Z"/>
  <path class="st32" d="M498,773l.48.96c-14.62,2.52-29.25,2.55-44,1.04l.52-1c1.54.23,7.58,1,8.5,1h20c2.29,0,11.64-1.48,14.5-2Z"/>
  <path class="st27" d="M450,660v1l-17-1.99c1.75,7.05,2.65,11.73,1,18.99l-1-1c2.12-7.24-.63-13.02-1.99-20,5.76,1.17,11.54,1.6,17.4,2.07.8.06,1.41.91,1.59.92Z"/>
  <path class="st16" d="M314,888c-.61-13.79.5-27.35,2-41,2,5.97-.62,14.22-.99,20.51-.43,7.2.78,13.46-1.01,20.49Z"/>
  <path class="st44" d="M440,749h-1c-11.08-4.62-16.24-7.16-24-17v-1c5.64,7.35,16.68,14.04,25,18Z"/>
  <path class="st39" d="M642,879c.03-1.26-.81-5.06.99-4.99v10c1.87,1.84,19.55-5.02,23.01-2-7.88,1.63-16.13,2.2-23.99,4,.02-2.32-.06-4.67,0-7Z"/>
  <path class="st51" d="M639,712c-7.84-3.29-16.18-6.54-24.24-9.27-.66-.22-4.27-.77-1.76-1.73,8.82,2.84,18.28,5.81,26,11Z"/>
  <path class="st2" d="M597,349c-.85,2.36-2.71-.24-3.52-.99-4.43-4.12-9.41-9.05-13.5-13.5-.74-.81-3.35-2.66-.99-3.52,5.51,6.41,11.61,12.47,18,18Z"/>
  <path class="st37" d="M596,578c-5.59,6.4-11.61,12.4-18,18l4-5.5c3.66-3.67,7.33-7.33,11-11,.46-.46,2.58-3.5,3-1.5Z"/>
  <path class="st48" d="M297,845l-3.01,19-8.99-4c1.17.35,7.7,2.29,7.99,2l3.03-18.02c.45.13.83,1,.98,1.01Z"/>
  <path class="st18" d="M663,507c-7.28-5.44-10.52-8.67-16-16l16,16Z"/>
  <path class="st22" d="M549,643l5.99-3c-.18,6.34.04,12.73,1.01,19,.05.33-.06.68,0,1-3.26-5.32-1.63-12.09-2.01-18-1.64.39-3.35.63-4.99,1Z"/>
  <path class="st14" d="M563,716c-3.37,3.87-6.18,6.6-10,10l4-5.5,6-4.5Z"/>
  <path class="st38" d="M511,250c3.2-3.74,6.63-7.42,10-11,2.36.85-.23,2.71-.99,3.52-3.26,3.5-5.83,4.92-9.01,7.48Z"/>
  <path class="st5" d="M530,527c2.86,7.74-11.52,18.98-17,23-33.72,26.4-84.26,30.25-123,13-7.75-4.25-20.15-12.47-23.9-20.6-1.56-3.39-3.68-8.53,1.52-9.1,7.12-.78,23.85,12.55,32.38,15.7,26.68,7.43,53.64,7.99,80-1,14.63-6.08,18.75-13.25,30-21,4.27-5.73,15.51-6.18,20,0Z"/>
  <path class="st12" d="M541,441c-5.58,17.5-20.23,29.66-34,11-9-17.17-6.63-38.6,3-55,1.6-2.02,5.93-6.74,8-8,2.31-3.54,7.87-2.54,11.18-.7,14.45,8.02,17.72,39.05,11.82,52.7Z"/>
  <path class="st12" d="M373,384c.11.6,3.14,2.46,4,3,12.33,12.64,13.03,37.14,4,52-5.41,14.45-22.95,19.27-32,5-8.06-15.7-7.06-39.14,4-53,1.66-1.66,3.15-3.55,5-5,2.35-4.51,11.35-4.6,15-2Z"/>
  <path class="st12" d="M426,422c10.14,4.74,8.92,22.75,3,31-8.07,10.18-15.98,12.49-25,20-7.78,7.31-8.11,14.78,1,21,8.98,4.78,18.24,5.85,28,5,.23.89,3.08,1.49,2.75,4.32-.21,1.78-3.37,6.36-4.75,7.68-9.43,5.44-22.59,4.41-32,0-.12-.68-7.34-4.35-8.91-5.59-4.81-3.78-11.15-12.35-12.09-18.41-1.77-6.24.35-15.44,5-20,10.9-11.13,24.5-13.95,33-26,3.05-5.98,5.64-12.16,7.77-18.55l1.23-.45c.3-.04.7-.03,1,0Z"/>
  <path class="st5" d="M555,340c8.86,4.94,21.39,19.15,24,29,4.63,9.4-1.86,10.46-9,5-.74-.6-1.79-1.96-3-3-15.41-11.95-32.56-24.66-53.52-17.98l-14.12,5.15c-8.01,1.79-12.84,1.7-8.36-7.17.07-.21,1.69-3.42,2-4,6.68-8.42,17.34-14.84,28-15,11.07-1.49,24.19,2.23,34,8Z"/>
  <path class="st5" d="M389,338c.75.45,1.63.75,2,1,1.38.81,2.43,1.88,3.4,3.14,6.53,8.43,6.26,14.5-6.83,11.11-19.23-5.83-36.66-5.68-55.35,1.86-8.08,2.66-7.9-3.93-5.43-9.51,9.02-20.45,47.02-19.97,62.21-7.6Z"/>
  <path class="st43" d="M389,338c-16.18-9.72-45.18-12.7-58.51,2.99-3.22,3.79-8.61,14.93-.25,13.82,8.71-1.16,17.53-6.4,28.21-6.85,13.9-.58,25.77,6.01,39.55,5.03.34-5.6-4.05-9.77-7-14,.63.41,1.61.14,3.01,1.45,2.76,2.61,5.64,8.99,5.04,12.88-1.13,4.78-25.17-2.92-29.57-3.32-7.4-.67-16.26-.04-23.52,1.45-3.57.73-16.99,6.03-18.96,5.08-3.89-1.86-1.75-9.82-.04-13.07,9.54-18.08,44.79-17.57,60.36-8.31.48.29,3.77,2.27,1.67,2.83Z"/>
  <path class="st3" d="M390,563c6.37,1.37,12.26,4.32,18.57,5.93,34.68,8.81,75.42,2.34,104.43-18.93,2.01.38-1.12,2.73-1.5,3-31.86,22.51-86.88,28.98-121.5,10Z"/>
  <path class="st46" d="M491,351c-.39,1.27-1.96,6.81-.43,7.01,10.05,1.44,18.41-5.77,28.04-6.91,21.13-2.5,33.68,7.26,48.39,19.89-.85,2.37-2.71-.24-3.52-.99-11.64-10.74-26.16-19.71-42.88-17.91-8.95.96-18.92,7.73-27.12,7.9-5.94.13-4.55-2.91-4.21-7.25.04-.51.82-4.29,1.73-1.76Z"/>
  <path class="st34" d="M480,548c-23.62,9.81-56.04,9.86-80,1,.94-2.02,3.18-.33,4.49,0,25.39,6.37,45.96,7.65,71.15-.87,1.27-.43,3.39-2.26,4.37-.13Z"/>
  <path class="st6" d="M518,389c-2.02-1.94,3.77-3.01,4.52-3.06,13.26-.88,20.66,19.74,21.52,30.52.55,6.89.35,16.11-1.35,22.73-.17.65-.69,4.34-1.68,1.81,3.49-10.95,2.51-27.2-1.51-37.99-3.05-8.19-11.75-19.92-21.49-14.01Z"/>
  <path class="st20" d="M353,391c-2.4,4.88-5.17,9.64-6.51,14.99-2.45,9.79-3.22,29.41,2.51,38.01-8.75-13.37-7.79-40.34,2.57-53.09.85-1.05,1.38.14,1.43.09Z"/>
  <path class="st23" d="M381,440v-1c7.98-15.01,7.02-38.63-4-52,.09.05.35-1.11,1.99.36,3.3,2.95,6.9,12.96,7.78,17.38,2.05,10.32,1.03,26.85-5.77,35.27Z"/>
  <path class="st41" d="M507,452c-10.04-13.61-7.34-41.99,3-55-8.66,17.74-10.97,36.49-3,55Z"/>
  <path class="st43" d="M381,440c-4.88,13.1-20.28,18.52-30.57,7.02-1.09-1.22-.99-2.35-1.43-3.02.88,1.32,7.54,6.65,9.27,7.23,9.83,3.26,18.38-4.04,22.73-12.23v1Z"/>
  <path class="st11" d="M555,340c-8.07-4.5-24.89-8.33-34-8-.76-.07-1.19-.11-1-1,10.41-1.09,26.88,2.23,35,9Z"/>
  <path class="st23" d="M429,453c4.6-10.32,6.83-22.98-3-31,.11.01.74-1.33,1.95-.6,7.42,4.5,7.58,23.29,2.89,29.99-.66.94-1.56,1.25-1.84,1.61Z"/>
  <path class="st26" d="M521,332c-3.17.11-12.92,3.79-16.04,5.46-4.87,2.61-7.82,6.18-11.96,9.54,4.65-8.73,17.27-14.98,27-16l1,1Z"/>
  <path class="st8" d="M431,511c-5.15,4.92-15.32,4.62-22.24,3.74-1.34-.17-10.38-2.34-10.75-2.76-.59-.66,1.01-.92,1-.99,11,3.17,21.17,4.76,32,0Z"/>
  <path class="st40" d="M405,494c2.36,1.38,15.74,4.82,18.61,4.89,3.07.08,6.92-1.76,10.4-.87-.05.53-1.03.91-1.01.98-9.65,2.36-19.73.07-28-5Z"/>
  <path class="st28" d="M405,494c-10.32-6.33-10.24-13.31-1-21l-4.45,7.04c-2.6,4.06,2.15,12.03,5.45,13.96Z"/>
  <path class="st42" d="M425,422c-3.26,7.44-4.19,12.18-9,19,1.86-2.77,6.47-19.69,7.57-19.99.55-.15,1.3,1,1.43.99Z"/>
  <path class="st36" d="M530,527c-.13-.35-3.24-2.17-4-2.49-6.59-2.74-10.48-1.32-16,2.49-2.14-.8,1.87-3.03,2.3-3.2,5.5-2.19,15.03-3.62,17.7,3.2Z"/>
  <path class="st9" d="M383,467c-3.42,5.96-6.09,12.95-5,20l-1,.52c-.48-6.91.08-14.14,4.17-19.98,1.32-1.89,1.75-.45,1.83-.54Z"/>
  <path class="st21" d="M570,374c7.5,3.05,11.92,6.01,9-5,1.28-2.72,2.02,3.25,2.03,3.52.27,9.52-6.48,5.2-11.03,1.48Z"/>
  <path class="st50" d="M358,386c-1.9-1.91,3.58-3.78,4.55-3.94,1.95-.31,10.49-.17,11.44.95.58.68-1.01.92-1,.99-5.85-1.8-10.13-1.81-15,2Z"/>
</svg>