<?xml version="1.0" encoding="UTF-8"?>
<svg id="Layer_1" xmlns="http://www.w3.org/2000/svg" version="1.1" viewBox="0 0 1024 1024">
  <!-- Generator: Adobe Illustrator 29.5.1, SVG Export Plug-In . SVG Version: 2.1.0 Build 141)  -->
  <defs>
    <style>
      .st0 {
        fill: #f8eed5;
      }

      .st1 {
        fill: #7f55d3;
      }

      .st2 {
        fill: #7a61dd;
      }

      .st3 {
        fill: #7f54d3;
      }

      .st4 {
        fill: #7d4fd0;
      }

      .st5 {
        fill: #604ab1;
      }

      .st6 {
        fill: #7a51d0;
      }

      .st7 {
        fill: #046cad;
      }

      .st8 {
        fill: #5842a4;
      }

      .st9 {
        fill: #f5efdd;
      }

      .st10 {
        fill: #faf4e1;
      }

      .st11 {
        fill: #7e53d3;
      }

      .st12 {
        fill: #00839b;
      }

      .st13 {
        fill: #030c0c;
      }

      .st14 {
        fill: #fbf5e0;
      }

      .st15 {
        fill: #7f54d6;
      }

      .st16 {
        fill: #fbf6e6;
      }

      .st17 {
        fill: #f8f0d6;
      }

      .st18 {
        fill: #8b5ae4;
      }

      .st19 {
        fill: #1a7de2;
      }

      .st20 {
        fill: #03c1ee;
      }

      .st21 {
        fill: #f7efd8;
      }

      .st22 {
        fill: #8770e1;
      }

      .st23 {
        fill: #06bcd8;
      }

      .st24 {
        fill: #0089be;
      }

      .st25 {
        fill: #237eee;
      }

      .st26 {
        fill: #00827d;
      }

      .st27 {
        fill: #efe8d2;
      }

      .st28 {
        fill: #f8f3e2;
      }

      .st29 {
        fill: #f9f3de;
      }

      .st30 {
        fill: #0074a3;
      }

      .st31 {
        fill: #f9f4e3;
      }

      .st32 {
        fill: #07bba4;
      }

      .st33 {
        fill: #f1ecd8;
      }

      .st34 {
        fill: #f4eedd;
      }

      .st35 {
        fill: #f8f4e0;
      }

      .st36 {
        fill: #03c5ef;
      }

      .st37 {
        fill: #7c52d8;
      }

      .st38 {
        fill: #f8f3e5;
      }

      .st39 {
        fill: #f3ead3;
      }

      .st40 {
        fill: #04c2e7;
      }

      .st41 {
        fill: #7c51d2;
      }

      .st42 {
        fill: #faf3e1;
      }

      .st43 {
        fill: #f4ecd6;
      }

      .st44 {
        fill: #7d53d6;
      }

      .st45 {
        fill: #f6f0dc;
      }

      .st46 {
        fill: #04c3ef;
      }

      .st47 {
        fill: #8c72e5;
      }

      .st48 {
        fill: #f9f6e5;
      }

      .st49 {
        fill: #04bce9;
      }

      .st50 {
        fill: #0072a8;
      }

      .st51 {
        fill: #7e52d5;
      }

      .st52 {
        fill: #0963a7;
      }

      .st53 {
        fill: #04bddd;
      }

      .st54 {
        fill: #f7f1de;
      }

      .st55 {
        fill: #007f6e;
      }

      .st56 {
        fill: #05b8a0;
      }

      .st57 {
        fill: #05c5ec;
      }

      .st58 {
        fill: #079bdb;
      }

      .st59 {
        fill: #1e7ee3;
      }

      .st60 {
        fill: #187adf;
      }

      .st61 {
        fill: #2d2183;
      }

      .st62 {
        fill: #02caee;
      }

      .st63 {
        fill: #05aae3;
      }

      .st64 {
        fill: #0b66b0;
      }

      .st65 {
        fill: #f4edd8;
      }

      .st66 {
        fill: #f6edd8;
      }

      .st67 {
        fill: #1456a2;
      }

      .st68 {
        fill: #09a4e2;
      }

      .st69 {
        fill: #8557de;
      }

      .st70 {
        fill: #030b0c;
      }

      .st71 {
        fill: #3f3cc1;
      }

      .st72 {
        fill: #04ccf0;
      }

      .st73 {
        fill: #f4e9bf;
      }

      .st74 {
        fill: #f7f1e1;
      }

      .st75 {
        fill: #f7f2e0;
      }

      .st76 {
        fill: #e8be97;
      }

      .st77 {
        fill: #030b0b;
      }

      .st78 {
        fill: #f9f4e0;
      }

      .st79 {
        fill: #2c2184;
      }

      .st80 {
        fill: #1a78e1;
      }

      .st81 {
        fill: #faf8ec;
      }

      .st82 {
        fill: #04b7ce;
      }

      .st83 {
        fill: #1353a8;
      }

      .st84 {
        fill: #f6eed8;
      }

      .st85 {
        fill: #54359d;
      }

      .st86 {
        fill: #1c80e6;
      }

      .st87 {
        fill: #f7f1df;
      }

      .st88 {
        fill: #f8f1d0;
      }

      .st89 {
        fill: #daa97c;
      }

      .st90 {
        fill: #f7f2e1;
      }

      .st91 {
        fill: #f2ecdc;
      }

      .st92 {
        fill: #008ab1;
      }

      .st93 {
        fill: #f2ecda;
      }

      .st94 {
        fill: #f6f0de;
      }

      .st95 {
        fill: #06b5d3;
      }

      .st96 {
        fill: #f5eedc;
      }

      .st97 {
        fill: #07c7c1;
      }

      .st98 {
        fill: #08a5d0;
      }

      .st99 {
        fill: #fcf8e7;
      }

      .st100 {
        fill: #e8c09a;
      }

      .st101 {
        fill: #008699;
      }

      .st102 {
        fill: #f8f3dc;
      }

      .st103 {
        fill: #7d51d5;
      }

      .st104 {
        fill: #0088be;
      }

      .st105 {
        fill: #fbf5db;
      }

      .st106 {
        fill: #020b0b;
      }

      .st107 {
        fill: #2a76e0;
      }

      .st108 {
        fill: #f6f2e5;
      }
    </style>
  </defs>
  <path class="st106" d="M310,885c-19.9-5.98-49.91-14.31-65.01-29.49-2.77-2.78-3.02-2.79-3.07-7.01-.11-9.02,6.87-32.73,9.82-42.27,11.52-37.34,30.97-66.66,62.27-90.22-11.38-.48-22.13,4.27-33.46,5.03-17.05,1.15-33.92-.55-48.85-9.24-3.63-2.11-8.82-7.37-11.46-8.54-3.47-1.55-9.82-1.58-14.23-2.77-23.17-6.28-41.97-25.21-45-49.49,11.8,3.2,30.7,4.36,35.78-9.72,7.03-19.46-14.45-37.63-22.96-53.62-24.33-45.69-6.79-97.77,24.2-135.14,11.78-14.21,27.31-26.18,34-44,10.98-29.28.59-53.03-1.07-81.98-5.51-96.55,58.89-170.84,143.37-207.72,56.91-24.85,138.9-36.07,196.36-8,4.26,2.08,19.03,12.61,21.06,13.02,4.14.83,14.71-1.9,19.75-1.92,90.09-.28,162.86,93.42,176.23,175.87,4.96,30.57.82,59.99,4.3,89.7,7.68,65.47,72.66,93.85,67.03,171.05-2.1,28.75-14.26,40.73-23.52,64.48s.55,41.83,26.49,43.99c-5.73,17.29-25.44,31.96-43.63,33.87-20.27,2.13-36.34-4.83-50.37-18.88-.75,10.28,6.27,20.27,13.46,27.03,1.88,1.77,8.39,5.66,9.09,6.95,1.07,1.96-.53,2.45-1.64,3.45-13.12,11.84-33.08,16.11-50.3,14.45-11.71-1.13-22.26-7.27-33.62-8.87-1.6,1.39,10.16,12.37,11.51,13.98,19.96,23.63,32.09,48.61,39.19,78.81,2.22,9.44,6.06,26.6,6.18,35.82.02,1.44-.39,3.95-1.21,5.08-1.76,2.46-20.71,13.7-24.66,15.83-37.77,20.35-73.5,24.02-115.02,29.48.16-14.34,1.16-28.68,3-43,1.01-9.13,2.34-18.13,4-27-.79-4.23-2.28-14.97,3-16l1.65.9c9.11,20.29,9.39,43.04,9.3,64.87,5.19-.26,10.54-.52,16.05-.77,2.45-3.44,9.38-5.31,13-3,20.11-5.69,40-12.25,59-21-.3-.89-.37-1.97.36-2.48,8.02-3.54,8.03-5.26,6.92-13.15-6.74-47.5-27.77-94.5-73.83-115.77l-2.44-3.61c-17.29-8.21-34.98-15.55-53-22-3.41.41-7.47-.23-12.18-1.94-3.4,11.35-9.29,21.45-16.91,30.5-4.65,5.53-17.2,18.36-23.22,21.19-1.16.55-2.47.45-3.7.24-7.27,4.96-14.93,8.62-23,11-7.6,6.48-21.32,10.32-31.5,11.9-1.72-1.13-3.55-1.46-5.5-.9-14.91,2.25-31.68,2.59-46-2-7.56,1.91-17.53-3.62-24.39-7.61-6.83-3.98-16.55-9.91-18.61-17.39-9.61-12.04-12.48-28.18-6.33-42.47l-1.55-1.35c-14.07,4.07-27.78,8.67-41.11,13.82l-2.18,3.25c-24.18,11.99-47.19,28.23-62.34,50.93l-3.47,1.82c-5.52,12.53-10.85,25.2-16,38-2.94,11.82-5.94,23.49-9,35,3.87.28,12.13,4.99,13,9,4.82,1.62,9.58,3.69,14.29,6.23,3.16,1.85,5.9,2.53,8.21,2.04l3.49-20.28c2.95-15.5,8.29-29.84,16-43-2.65-4.14,11.26-17.62,13.92-17.81,4.27-.32,5.16,4.92,1.08,3.81-2.89,10.79-6.22,21.46-10,32,1.56,6.15-.96,15.13-5,20-.61,10.38-1.94,20.71-4,31,2.13,3.6.57,12.5-2,16Z"/>
  <path class="st85" d="M608,702c17.93,6.42,35.78,13.82,53,22,36.31,19.48,55.86,39.13,68.27,79.23,3.61,11.68,9.83,33.74,10.64,45.42.41,5.96-5.02,7.56-9.9,10.35-18.89,8.72-38.99,15.34-59,21-4.31.93-8.59,2.29-13,3-5.19-.17-10.42.32-15.69,1.47,1.18-23.21-2.15-45.24-10-66.11l-1.31-.36c-2.53,3.25-.78,12.22-3,16-1.33-3.98-1.69-2.32-1.09,4.98l-2.91,22.02-4,43c-109.38,14.17-203.6,12.95-310-19-.05-4.79.51-9.65,1.09-14.39.1-.84.88-1.41.91-1.61,2.13-10.01,3.46-20.35,4-31,1.29-6.86,3.23-13.3,5-20,3.78-10.49,7.12-21.16,10-32-.06-.65,2.54-2.36-.48-1.99-5.94,3.93-10.93,9.84-14.52,15.99-7.46,12.34-12.79,26.67-16,43-1.41,7.12-2.74,14.15-3.99,21.09-7.49-2.96-14.82-5.99-22.01-9.09-3.37-1.89-10.87-6.15-13-9,2.68-11.9,6.01-23.57,10-35,4.21-13.15,9.21-25.81,15-38,14.4-24.36,42.63-44.25,68-56,13.86-5.53,28.17-10.18,42.93-13.97-6.09,15.07-4.13,31.26,6.07,43.97,11.77,12.48,26.2,20.94,43,25,14.06,4.56,31.32,3.97,46.7,2.58.05,0-.28-.26-.7-.58,12.75-2.48,25.01-6.06,37-11,7.88-2.18,15.55-5.85,23-11,18.83-13.66,36.18-30.55,42.1-53.91,1.1-.79,11.28,2.31,13.39,2.93.7.21.46.96.51.98Z"/>
  <path class="st37" d="M621,904c-.33.04-.67-.04-1,0-.1-7.15.38-14.38,1-21.5s2.05-14.7,3-21.5c-.28,3.45.26,7.02-.01,10.49-.84,10.83-3.29,21.62-2.99,32.51Z"/>
  <path class="st100" d="M526,234c2.17-1.85,4.36-3.7,6.58-5.56,2.44,21.31,8.38,42.75,18.42,61.56,1.97.34,17.41,28.94,21,34,6.82,9.03,14.16,16.36,22,22,6.81,5.94,14.41,10.82,21,17l.75,2.58c-3.69,31.75-.12,68.6,13.25,95.42,5.53,12.65,13.99,25.56,23,36,.98,1.6,1,1.96.06,1.08,5.05,6.33,11.6,11.72,17.94,16.92,2.78,1.89,6.74,3.29,9,6.51.09.22-3.35,2.13-4,2.49-14.28,6.36-27.99,9.9-43.68,5.74-1.25.16-10.83,19.71-11.32,22.26-18.5,30.93-51,59.7-85,72-43.17,18.19-91.35,16.87-135,1-6.17-2.79-12.17-4.79-18-6-27.33-12.01-59.86-36.27-74-63-9.66-21.78-14.62-45.12-9.75-69.05,6.66-25.69,10.58-51.84,11.75-78.46-1.71-26.97-.87-53.67,2.51-80.12,47.81-3.09,96.37-12.35,138.49-35.37.88-.53,2.29-1.97,4-3,14.99-6.7,30.98-17.87,43-29,3.31-2.59,6.92-5.49,10-8,6.44-5.24,11.77-10.91,16-17,.59-.61.9-1.69,2-2Z"/>
  <path class="st83" d="M637,375c.13-1.36-.66-2.41,1.42-1.94l32.01,7.98c.97-.1.4-1.84.57-2.04,1.72-1.89,10.92-7.95,12.68-6.42.29,1.32.73,2.47,1.32,3.42.47-.05.79.02.98.51,9.06,36.94,22.67,76.21,41.85,109.16,7.76,13.34,17.41,25.04,24.17,39.33,5.11,12.2,8.78,24.86,11,38,3.72,14.14,2.2,29.33-2.66,43.02l-9.34,23.98c-.29.68-.7,1.32-1,2-6.02,14.7-9.44,28.74-8.58,44.7,0,.05.25-.28.58-.7l6.52,22.98,9.48,17.01c-17.91,2.04-31.93-9.02-40.99-22.99-8.97-15.31-12.09-33.57-8-51,2.24-13.77,5.24-27.44,9-41,2-13.21,2-25.87,0-38-1.1-.09-5.02-18.14-6.24-21.26-12.96-33.33-43.23-52.33-59.76-83.74-13.14-26.5-17.06-53.96-15-83Z"/>
  <path class="st64" d="M557,171c2.28,1.9-.26,5.82-3,5,1.86,1.84.26,4.49-2,5,.26,1.58-.85,2.22-2.3,2.25-2,4.32-6.07,10.8-11.19,10.29.08,3.31-2.64,7.74-6.01,8.66-2.75.75-19.34-5.72-22.58-7.94-5.34-.72-9.46-1.68-11.66-7.03-4.65,1.33-7.85.12-8.92-4.83-4.58,1.29-8.76,1.21-12.53-.22-14.49,3.89-24.55,10.67-30.8,24.82-12.84,12.7-23.23,24.26-37.52,35.98-38.91,31.88-83.43,56.24-130.48,74.02-2.45,2.13-3.03-.3-1.56-3.12-7.18-1.97-6.34-5.09-3.44-10.88-.12-.96-.2-1.91-.15-2.86s.12-1.83.48-2.58c41.38-87.68,119.28-154.84,221.02-144.39,20.72,2.13,39.56,8.26,59.13,14.74l3.52,3.09Z"/>
  <path class="st5" d="M624,146c13.88,1.77,27.21,5.44,40,11,12.04,5.97,22.98,14.16,33,23,.25.92-.08,1.25-1,1l.45,2.73c-8.09,10.44-3.63,19.09,2.01,29.56,9.41,14.18,17.12,29.01,23.14,44.49l-.6,2.22c4.68,10.87,8.57,22.2,10.13,33.92-1.15.78-2.45,1.41-3.89,1.89,1.53,3.26-.06,5.38-4.76,6.34,2.73,7.36-2.15,13.1-6.28,4.55l-4.35-2.2c1.16,9.09-11.79,13.12-9.37,1.67-1.71-7.58-3.06-8.28-4.04-2.08-6.01,2.18-12.57,1.84-19.7-1,7.84,11.17,14.54,23.08,20.12,35.73l-.86,3.17c.27,1.23.22,1.54-1,1-9.63-23.14-25.56-46.6-42.49-65.01-1.75-1.9-3.79-4.58-6.51-4.99-1.84-.7-3.46-1.73-4.86-3.11-24.19-34.34-53.72-60.79-85.19-88.19-.84-.73-1.52-1.64-2.18-2.59s-1.24-2.03-1.78-3.11c.42-.72,2.78-4.81,3-5-.56-.79-.63-1.6-.14-2.41,9.05-3.45,14.38-9.34,15.99-17.67,1.29-2.92,3.18-6.58,6.15-3.93,15.15-3.91,30.15-4.24,45-1Z"/>
  <path class="st24" d="M556,129c7.98,4.05,16.31,11.02,23,17,.87.28.86.62,0,1-4.92,1.13-5.42,10.37-7.35,13.68-2.29,3.94-11.45,7.57-14.65,10.32-15.72-4.32-30.85-10.58-46.97-13.53-109.91-20.15-193.88,51.29-237.03,145.53-.38,4.14-12.25,26.44-14.54,27.8-.76.45-1.64.4-2.46.2h-1.05c-.42-6.54-.73-8.54-.95-6-1.5-.69-.97-2.68-1-4-.43-27.36,4.22-53.67,16-79,8.75-17.28,21.01-32.78,34-47,6.26-5.21,11.93-10.87,17-17,11.21-10.07,23.12-19.15,36-27,20.23-10.35,41.42-19.76,63-27,1.3-.31,3.31-1.66,5-2,11.35-2.6,22.69-4.26,34-5,33.07-5.13,67.5.38,98,12Z"/>
  <path class="st61" d="M279,472c-.3,1.42-.82,3.03-1,4-3.51,12.57-5,29.86-2,42,8.89,63.42,57.66,106.24,115.48,127.02,4.09,1.47,24.48,6.66,25.54,7.46,1.71,1.28,1.11,12.04.72,14.76-.82,5.71-2.37,9.02-7.77,11.23-14.15,5.81-33.79,7.56-48.97,12.03-18.17,5.34-32.76,16.37-52,17.49l16.52-10.97c13.68-11.7,19.48-26.34,17.37-44.42-.18-1.57-5.18-18.79-7.89-15.6,2.91,25.45-14.99,44.37-35.7,55.8-20.49,11.31-40.08,11.24-62.3,5.19l19.47-13.02c26.45-22.46,28.85-56.03,6.49-82.43l-3.96-3.54-2.48-1.1-8.86-18.1c-2.14-3.53-2.37-6.46-.67-8.8-5.74-9.71-4.29-24.53-2.35-35.61,3.96-22.66,16.05-44.05,28.42-62.61,1.9-2.02,4.15-3.52,5.94-.78Z"/>
  <path class="st79" d="M712.99,715.01c.27,1.63-1.31.99-2.37.88-7.38-.76-19.37-5.41-25.93-9.09-35.53-19.93-41.48-64.02-33.71-100.8-19.24,22.82-18.53,60.39-7.99,86.99-7.86-2.43-15.35-5.84-23.23-8.26-17.14-5.26-33.89-4.16-43.28-21.72-6.1-11.4-5.63-23.87-1.92-35.95,26.53-19.07,51.06-42.66,63.4-73.6,19.61.71,38.41-4.43,52.54-18.44,10.77,20.75,13.15,46.16,11.49,69.47-1.77,24.83-11.25,44.4-7.86,70.89,1.71,13.41,6.93,32.08,18.87,39.64Z"/>
  <path class="st55" d="M783,438c30.27,41.12,64.26,82.73,49.02,137.52-9.17,32.98-44.14,71.04-8.02,101.47-16.68,9.47-43.11-.39-51-16.99-7.53-10.64-4.34-23.25.2-34.33l-.2-1.67c3.39-9.16,9.22-19.33,11-29,.59-.9,1.26-2.07,2-3.5-.69-7.87-.86-18.05,0-26-1.45-3.74-2.45-6.91-3-9.5-5.48-27.33-19.65-46.82-33-70-1.5-5.01-4.73-10.45-7.76-14.62-2.35-1.46,1.31-14.86,1.93-15.37,3.66.26,6.81-1.55,9.44-5.41l12.08-6.54c.79-4.54,4.11-7.58,9.94-9.13.98-5.33,3.44-4.31,7.38,3.07Z"/>
  <path class="st12" d="M554,176c15.66,12.38,31.04,25.19,45.03,39.47,16.99,17.36,34.49,38.18,48.97,57.53,5.64,7.53,17.37,32.59,21,42,3.06,12.25,6.4,24.25,10,36,2.09,8.28,5.03,16.44,6,25-.15.02-.52.9-.98,1.02,1.33-6.65-7.58.83-10.34,2.2-1.35.67-2.59-.33-2.68-.23-18.17-18.13-42.5-27.12-62-44-4.94-5.87-10.27-11.2-16-16-11.03-12.57-21.46-27.55-28-43-9.82-27.18-12.76-54.5-12.01-84.03,0-.08.07,1.16-.99,1.03.04-2.99-.06-6.01,0-9-2.89-.78-2.49-1.55,0-3,.34-3.64.78-2.9,2-5Z"/>
  <path class="st76" d="M563,680c1.94,1.74,3.12,3.52,5,5,1.94,2.39,5.27,4.99,10,7.79-1.88,4.9-3.88,9.64-6,14.21-2.1,3.36-4.46,6.01-7,9-3.66,2.82-7.66,6.82-12,12-4.74,4.04-9.6,7.89-15,11-7.09,2.66-14.43,5.66-22,9-27.01,10.2-59.17,11.47-85-3-5.52-3.62-10.52-7.62-15-12-1.62-2.11-2.84-3.46-4-6-1.92-7.42-5.51-22.77,1.34-28.22,9.79-3.14,16.46-9.71,22.66-16.78l2.67-1.17c35.87,16.98,81.32,8.74,114.12-11.49l2.21.66c2.54,3.2,5.2,6.53,8,10Z"/>
  <path class="st7" d="M446,207c-1.33-2.47,1.75-7.26,3.18-9.32.72-1.03,8.17-9.58,8.84-10.16.75-.66,17.66-7.23,18.65-7.31,1.48-.12,2.65,1.34,3.78,1.32,1.98-.04,8.76-1.44,9.61-1.04,1.76.84,1.48,3.76,2.6,4.58,2.16,1.6,4.94-.32,6.34.36s2.18,3.8,4.05,5.01c2.43,1.57,5.6,1,7.91,2.09,8.02,3.8,9.2,5.63,19.31,6.69,1.84.19,4.47,3.29,6.27-1.27.71-1.8-1.3-3.2.4-5.56,1.57-2.17,3.92.43,6.06-.87,1.73-1.05,6.33-7.6,3.99-10.03l5.02-.52c-.09.98.02,2.01,0,3l-37.99,38.51c-35.17,32.58-75.36,58.92-121.01,74.49-8.71,2.11-17.52,4.38-26.43,6.82-2.9.58-1.56-1.41.43-2.82,30.1-18.54,71.11-51.32,82.76-85.74.59-1.74,3.36-10.91,3.24-11.74-.58-4.03-6.2,2.69-7,3.48Z"/>
  <path class="st50" d="M224,520c1.69-2.4,3.53-6.28,5.51-11.63,3.66-8.29,6.51,1.02,6.55,6.1-5.39,19.58,1.92,39.12,10.93,56.53,2.22,11.2,9.15,18.66,12,28,6.53,21.41,7.17,55.77-14,69-12.99,10.63-28.32,13.38-44,9-1.05-.37-7.78-2.1-6-3.98,6.18-2.28,13.36-7.92,17.51-13,2.31-2.83,7.63-15.09,8.49-15.01,4.63-14.4-3.61-33.5-12-44-1.37-2.24-3.48-4.58-5-7-1.81-3.24-3.19-6.66-4.15-10.28,6.38-14.69,11.31-30.18,15.75-45.96,1.39-7.19,4.19-13.11,8.4-17.76Z"/>
  <path class="st104" d="M261,375c4.73-7.5,8.55,12.99,6,17,.58.45,1.14.93,1.59,1.49,5.02,6.23,1.51,35.35-.98,43.79-2.22,7.53-5.42,18.3-11.61,22.72-3.04,8.34-7.33,16.32-12.87,23.94l.36,2.38-10.99,19.78-2.36,1c-1.79,4.46-3.84,8.76-6.13,12.9-6.39,15.96-10.02,30.72-15.28,47.22-1.75,5.49-6.56,13.64-7.3,18.76-.64,4.41,4.41,4.71,2.59,8.02-2.4-3.83-3.88-5.79-6-10-12.02-18.32-13.77-39.13-12-60,3.24-20.58,15.15-40.07,28-56,6.01-5.98,12.01-12.31,18-19,5.9-7.28,11.34-15.25,17-23,9.69-15.23,11.69-33.41,12-51Z"/>
  <path class="st26" d="M767,334c.76,15.65.93,31.34.53,47.08,0,.11-.17-1.89.47-2.08,1.73,5.67,1.32,12.47,2.13,18.37,1.95,14.35,6.15,27.85,12.87,40.63-.04-.06-.61,1.03-1.43.08-1.51-1.76-1.53-5.22-3.56-6.08,1.61,6.37-6.63,5.78-9.02,8.49-1.33,1.5-.66,3.86-1.98,5.02-1.64,1.42-9.91,4.95-12.88,7.17-3.53,2.63-3.11,6.78-9.12,4.33,1.88,4.39-2.8,9.46-2.73,12.31.09,4.18,2.23,1.81,3.22,2,2.61.5.54,3.71.95,5.72.55,2.74,5.64,6.27,3.56,8.97-6.92-12.02-13.69-24.12-19-37-3.69-15.55-6.92-30.61-7.02-47.22-.04-6.85.54-27.78,4.22-32.14.52-.62,1.15-1.14,1.8-1.64.81-10.48,4.07-10.31,12.7-6.19,2.72-2.44,4.4-4.95,4.93-8.55,5.23-3.35,6.27-4.4,8.68-9.87l6.69-17.82c3.5-.39,4.83,2.42,4,8.43Z"/>
  <path class="st8" d="M734,310c.54.72,1.05,1.45,1.43,2.24s.72,1.53.73,2.27c.07,6.06-.19,12.04-.49,18.09-.61,12.07-1.93,24.07-5.68,35.4-6.47,24.03-4.38,49.49.86,73.63.4,1.82,1.66,5.96.14,7.37-9.22-22.38-14.83-45.95-22-69-2.8-12.71-6.46-25.37-11-38-2.69-6.67-6.34-14.37-9.83-20.67-1.68-3.03-12.2-17.72-12.15-18.83.16-3.41,7.95.24,9.55.43,1.4.17,9.31.94,9.81.85,3.96-.7.46-7.43,6.07-5.83.41.12,2.77,6.99,3,7.94.43,1.86-1.67,4.5,1.07,6.1l1.49-3c5.57,2.9.54-3.07,4.01-6.99.3-.22,6.43,3.02,6.7,3.28.85.83.4,4.95,3.29,3.22,2.35-1.41-.69-3.05-.75-4.8-.19-5.32,5.23-3.95,5.76-4.71.34-.48-1.29-2.56-.59-3.99,1.05-2.11,4.55-1.61,4.64-2.56.13-1.47-1.98-10.29-2.56-12.44-1.69-6.31-4.48-14.39-6.51-19.99.7.26,1.38.55,1.99.95,3.37,2.24,7.52,17.02,8.8,21.91,2.41,9.2,3.7,18.01,2.21,27.14Z"/>
  <path class="st92" d="M713,196c10.4,11.73,20.38,25.27,28,39,5.27,10.96,9.94,22.29,14,34l-.41,3.14c2.42,6.98.55,8.81-4.95,13.05l-6.82,18.32c-1.46,2.01-3.56,1.87-5.76,1.24.92,3.51.57,10-3.07,5.25-.86-16.71-5.26-35.29-13-50-7.64-21.09-19.17-34.49-28.18-53.32-4.74-9.91-3.43-17.22,3.18-25.68,6,4.71,11.66,9.71,17,15Z"/>
  <path class="st30" d="M273,303c-3.02,10.34,2.54,6.28,7.99,11.51l-3.99,1.57c.02.46,1.01.86,1,.93-.13.67-1.44,2.41-1.01,2.98.63.81,16.44,5.95,19.01,6.03l-3,13.99-.59-.53c-1.52,23.42-2.32,46.93-2.41,70.53l-2.02,1.38c-4.49-1.07-15.1-6.19-17.2-10.11-.25-3.77-1.51-6.86-3.79-9.27-.8-4.92-2.15-9.62-3.03-14.52-.48-2.67,1.09-2.76-2.97-2.48-2.36-13.99-4.33-28.05-5.91-42.19l.91-1.81,17-28Z"/>
  <path class="st67" d="M256,460c.79-.63,1.83-.98,2.5-.34,2.73,2.63-9.39,20.52-12.3,23.36.17,3.38,18.05-24.86,17.45-26.47,2.49-4.65,4.94-8.34,9.92-10.25,1.24-12.31,12.82-.72,9.9,6.59-1.98,4.95-3.14,9.99-3.46,15.11-.3,1.34-.72,2.66-1,4-1.73.24-3.25.64-4.42,2.08-2.93,3.6-9.22,14.68-11.75,19.25-13.73,24.74-21.49,49.09-15.83,77.67-1.95-.53-2.21-.72-3.16-2.42-6.18-11.05-11.64-27.37-11.89-40.05-.11-5.49,2.12-9.54,2.12-14.03,0-1.87-1.6-11.64-3.88-6.81-1.5,3.18-2.89,7.26-4.37,10.65-.41.93-.65,3.71-1.82,1.66,9.24-23.07,21.16-38.67,32-60Z"/>
  <path class="st101" d="M755,269c1.99,4.77,8.56,24.11,7.42,27.62-.03.1-1.12-1.57.58-.62.48-.04.78.01.98.51,1.91,11.73,3.53,23.59,4.02,35.49l-1,2-1.99-7.99c-3.12,5.93-6.36,19.55-9.99,24.25-1.24,1.61-5.14,3.04-5.74,4.03s-.19,2.75-.82,3.64c-6.37,8.96-4.86,5.49-12.39,3.51-4.89-1.29-4.69,1.45-6.07,6.57,2.03-19.58,5.02-38.16,4-58,3.46.41,1.42-1.08,1.3-2.79-.14-2.07-.58-4.12-.29-6.21.2-.28,3.54,3.31,5.87,1.87,1-.62,5.12-15.97,7.34-19.15,1.44-2.07,4.52-3.01,5.31-4.74,1.44-3.18-2.59-7.34,1.47-9.97Z"/>
  <path class="st52" d="M267,392c6.25-.68,3.98,6.84,6.29,9.73,1.95,2.44,13.23,7.01,16.71,8.27.6,3.2.94,6.53,1,10,.07.48-.05.99,0,1.49-.19.49-.51.56-.99.51-1.51,7.89-2.84,15.89-4,24-1.79,7.4-4.32,14.55-6,22-2.74-4.69,3.46-13.27,3.02-17.47-.09-.85-2.94-4.9-3.78-6.23-.75-1.18-.35-2.15-2.73-1.28-1.88.69-.28,3.12-1.38,4.52-1.3,1.65-3.99,1.76-4.85,2.76-7.44,8.68-11.93,24.99-21.77,33.72-1.7,1.51-6.39,3.39-4.68-.66,1.93-4.6,6.14-7.61,8.05-10.97,1.31-2.31,2.11-5.22,3.77-8.23.66-1.19,2.64-3.17.36-4.15,12.55-24.71,15.51-40.19,11-68Z"/>
  <path class="st81" d="M451,293c-8.8,5.3-17.23,9.65-27.02,13.48-35.27,13.81-73.19,19.96-110.9,22.6-6.32,31.91-.89,65.4-3.1,97.4-3.39,49.08-25.6,72.23-2.5,125.52.45,1.04,2.58,3.35.51,3.99-24.06-45.47-6.56-77.12-.27-121.77,4.9-34.79-2.93-72.36,4.32-107.18,48.15-1.2,95.86-12.77,138.95-34.05Z"/>
  <path class="st102" d="M535,624c-41.85,19.55-93.55,17.83-136,1h1c48.69,14.54,86.62,16.5,135-1Z"/>
  <path class="st73" d="M485,656c23.14-1.97,44.43-7.76,65.99-16-1.32,14.66,3.45,28.31,12.01,40-3.1-2.79-5.54-4.75-8-10-4.72-1.42-6.18-11.15-6.87-16.06-.39-2.77-.62-5.54-.5-8.33-18.62,6.06-37.38,10.84-56.98,12.9-.89.09-1.82-.15-2.79-.41s-1.93-.67-2.86-1.11c-.87-.28-.86-.62,0-1Z"/>
  <path class="st28" d="M615,363c.23.22,2.09-.56,2.05.56-4.99,31.55-.87,68.09,11.95,97.44-.84,2.58-1.95-1.88-2.14-2.35-12.62-31-15.17-62.38-11.86-95.65Z"/>
  <path class="st49" d="M256,331c.16,14.79,4.29,29.29,5,44,.87,18.13-1.96,37.24-12,51,8.33-15.69,11.95-33.7,10.99-51.49-.85-15.65-6.67-34.14-5.99-49.51.04-1-.04-2,.01-2.99h.98s-.03,6.57-.03,6.57l1.04,2.42Z"/>
  <path class="st72" d="M556,129c-.98,2.1-3.08.37-4.36-.14-30.45-12.28-60.87-15.3-93.64-11.86-.74-.07-1.17-.14-1-1,30.73-3.15,71.02-1.22,99,13Z"/>
  <path class="st6" d="M631,818c.6-.77.25-1.44,1.99-1,8.88,20.97,9.94,44.43,10.02,67,.44.62,12.83-4.12,14.99-1-5.6.91-11.35,1.41-17,2-.07-22.26.93-47.05-10-67Z"/>
  <path class="st23" d="M565,276c-11.03-26.04-13.51-54.93-13-83l1.99-6.99c-1.69,24.17-.11,48.79,6.29,72.21,1.25,4.55,3.02,8.97,4.58,13.42.45,1.28,2.25,3.4.13,4.36Z"/>
  <path class="st35" d="M516,748h1c-3.32,2.54-8.66,3.69-12.79,4.71-22.65,5.55-53.5,6.21-73.21-7.71,29.59,13.78,54.42,11.93,85,3Z"/>
  <path class="st11" d="M354,717c5.51-2.55,42.21-17.06,45-14.99-9.06,14.59-4.8,31.42,4,44.99-11.16-11.83-12.49-27.89-7-42.99-13.36,1.83-25.35,7.92-37.64,12.85-1.28.51-3.38,2.24-4.36.14Z"/>
  <path class="st88" d="M485,656v1c.5.76.36,1.45.16,2.26-.68,2.7-38.77-.12-44.73-.66.39,3.04.68,6.09.62,9.16-.09,4.49-.26,13.19-5.04,14.24-2.24,4.54-8.92,10.61-13.31,13.19-8.06,4.75-11.81,2.02-12.73,14.26l2.04,17.55c-3.44-7.53-4.51-15.72-2.32-23.82,1.85-6.8,6.13-5.62,11.33-8.67,15.61-9.13,19.88-23.34,14.99-40.52,16.2,3.28,32.67,3.39,48.99,2Z"/>
  <path class="st107" d="M652,458c-14.5-27.55-17.91-52.05-15-83,2.36,8.23-.4,16.8-.04,25.54.76,18.58,6.62,36.87,14.55,53.45.49,1.02,2.5,3.41.49,4.01Z"/>
  <path class="st90" d="M551,290c-.08-.01-.5.84-.91.98-8.89-19.63-16.11-40.29-18.1-61.97-1.95.97-4.52,7.36-5.99,5l6.99-8c2.03,22.36,8.87,43.66,18.01,64Z"/>
  <path class="st49" d="M253,321c-.75-30.15,2.32-51.98,16-79,1.98.58-.02,2.98-.45,4.05-5.59,13.69-11.15,26.88-13.28,41.72l-2.27,33.23Z"/>
  <path class="st84" d="M675,524c-13.71,7.81-27.91,10.49-43.38,6.08-4.03,7.25-7.36,14.8-11.62,21.92-2.12-.65.04-2.94.59-3.91,1.68-2.96,8.5-18.07,9.39-18.62,2.5-1.54,8.48,1.12,11.64,1.41,10.51.97,20.06-1.9,29.37-6.39,1.02-.49,3.42-2.49,4.01-.49Z"/>
  <path class="st40" d="M419,124l-63,27c18.48-11.26,41.9-21.95,63-27Z"/>
  <path class="st68" d="M293,340c.46,8.74-1.5,19.57-2.04,28.46l.04,51.54c-.5-3.64-.95-5.87-1-10-.27-24.39-.22-48.73,2.01-72.99,1.68-.26.93,1.88.99,2.99Z"/>
  <path class="st53" d="M763,296c-.16.01-.54.87-.98,1.01-1.87-9.32-3.95-19.03-7.02-28.01-3.52-10.31-8.82-20.18-13.51-29.99-.49-1.02-2.5-3.41-.49-4.01,10.42,18.77,18.5,39.75,22,61Z"/>
  <path class="st60" d="M751,630l1.53-5.97c9.56-22.31,14.69-36.19,10.47-61.03.28-.87.62-.86,1,0,4.76,29.4-1.86,41.26-13,67Z"/>
  <path class="st3" d="M730,859c-18.66,10.66-38.09,16.49-59,21l59-21Z"/>
  <path class="st20" d="M198,584c-12.66-17-15.23-39.49-12-60,2.54,2.56.16,6.63.01,9.51-.99,19.06,3.56,33.77,11.99,50.49Z"/>
  <path class="st1" d="M661,724l-53-22c18.5,5.62,35.97,12.87,53,22Z"/>
  <path class="st34" d="M455,290c15.66-9.45,28.52-17.69,43-29,2.02.45-1.08,2.61-1.53,2.97-11.42,9.2-24.53,18.58-37.44,25.56-.97.52-3.47,2.42-4.03.47Z"/>
  <path class="st22" d="M624,145c.87.28.86.62,0,1-15.69-2.32-27.49-1.85-43.04,1.58-1.23.27-1.86-.6-1.96-.58v-1c12.19-1.69,24.06-3.89,36.48-2.98,2.95.22,6.08,1.62,8.52,1.98Z"/>
  <path class="st86" d="M717,693c-10.62-16.37-11.85-31.53-9-51,.28-.87.62-.86,1,0-1.72,11.14-1.38,24.92,1.72,35.78,1.56,5.48,4.56,9.9,6.28,15.22Z"/>
  <path class="st58" d="M245,668c-12.04,11.55-28.27,14.48-44,9l17.19,1.77c9.66-1.5,18.63-5.66,26.81-10.77Z"/>
  <path class="st63" d="M209,601c.62-2.17,2.34,1.41,2.63,1.88,7.73,12.73,14.01,28.03,10.35,43.14-.42-.16-.82-1-.98-1.01,3.41-15.63-4.02-30.99-12-44Z"/>
  <path class="st18" d="M446,772c6.31,1.52,15.97,2.74,22.46,3.04,8.05.37,16.08-1.32,23.54-1.04,1.11.04,3.26-.68,3,.99-16.53,1.61-33.28,1.84-49.56-1.94l.56-1.05Z"/>
  <path class="st41" d="M316,800c-6.84,11.71-12.32,29.81-16,43,2.68-14.27,6.86-28.1,13.47-41.03.25-.49,1.77-4.18,2.53-1.97Z"/>
  <path class="st98" d="M393,297c-11.65,3.97-23.65,6.94-35.6,9.92-2.76.17-2.14-.18-.16-1.16,2.99-1.48,7.02-3.07,9.76-4.76-1.51,2.43-1.46,2.13,1.25,1.76,6.53-.89,13.73-4,20.25-5.77,1.32-.36,3.58-1.97,4.5,0Z"/>
  <path class="st59" d="M718,601c-2.02,14.66-6.92,27.53-9,41h-1c2.05-13.97,6.98-27.19,9-42,.58-.79.91-.46,1,1Z"/>
  <path class="st4" d="M300,843c-1.3,6.94-1.89,14.93-3.01,22-.92,1.05-20.48-8.59-22.99-10,.6-2.01,3,0,4.01.49,2.41,1.16,16.79,8.77,17.98,7.52.33-6.87,2.17-13.44,4-20Z"/>
  <path class="st80" d="M742,676c-.06,1.11.69,3.26-.99,2.99-1.72-17.59,2.08-31.33,8.99-46.99-1.68,7.76-5.35,14.89-6.73,22.77s-.9,13.85-1.27,21.23Z"/>
  <path class="st47" d="M664,157c-.58,1.98-2.98-.02-4.05-.45-12.48-5.09-22.47-8.56-35.95-10.55v-1c14.73,2.19,26.46,5.29,40,12Z"/>
  <path class="st15" d="M271,811c-.28.87-.62.86-1,0,4.07-12.41,9.37-26.79,16-38,2.01.6,0,3-.49,4.01-5.33,11.07-10.64,22.28-14.51,33.99Z"/>
  <path class="st71" d="M278,476c-2.66,14.34-4.04,27.43-2,42l-.97.48c-2.48-14.4-.73-28.78,1.98-42.98l.99.5Z"/>
  <path class="st32" d="M783,556c.01-1.35-.44-2.3.99-2-.81,3.39,2.01,8.83,2.01,11.5v26c0,2.12-2.18,8.77-2,3.5,2.05-11.16,1.24-27.86-1-39Z"/>
  <path class="st2" d="M709,380c-3.81-12.27-7.07-25.14-12-37l1-1c3.85,9.56,7.57,21.07,10.49,31.01.54,1.83,2.35,5.51.51,6.99Z"/>
  <path class="st19" d="M764,563h-1c-2.21-13.04-5.72-21.65-10.87-33.63-.55-1.28-2.17-3.44-.13-4.37,5.95,12.57,9.78,24.28,12,38Z"/>
  <path class="st97" d="M768,379c-.02.62.49,4.18-1,2.5.66-15.64-.88-31.95,0-47.5.05-.85.04-1.73,1-2,.62,15.07.39,31.87,0,47Z"/>
  <path class="st95" d="M679,351l-1.05.56c-1.61-11.07-5.78-21.44-8.98-32.05-.4-1.32-1.9-3.63.03-4.52,4.51,11.69,6.96,23.92,10,36Z"/>
  <path class="st44" d="M331,786c.91,9.13-8.21,22.27-8.97,32.55l-1.03-.55c2.87-10.88,5.9-21.51,10-32Z"/>
  <path class="st56" d="M773,660c-9.33-10.16-4.17-24.73,0-36,2.11.97.32,3.09-.13,4.36-4.38,12.31-5.69,19.38.13,31.64Z"/>
  <path class="st62" d="M457,116l1,1c-9.36.98-25.39,3.29-34,5,10.96-1.99,21.88-4.86,33-6Z"/>
  <path class="st25" d="M718,601l-1-1c1.73-12.67,3.2-24.05,1-37,.07,0-.15-1.17.99-1,2.36,13.48.83,25.78-.99,39Z"/>
  <path class="st51" d="M261,846c-.14-.19-1-.2-.6-1.02,3.3-11.27,5.94-22.84,9.6-33.98h1c-3.72,11.24-5.67,23.87-10,35Z"/>
  <path class="st10" d="M594,346c-.85,2.36-2.71-.24-3.52-.99-7.28-6.77-12.89-13.12-18.48-21.01,7.33,7.38,14.13,15.14,22,22Z"/>
  <path class="st103" d="M316,838c1.83,1.02.93,3.6.72,5.2-1.16,8.75-3.3,17.42-3.75,26.29l-.97-.49c1.29-10.31,2.07-20.71,4-31Z"/>
  <path class="st39" d="M572,707c-2.12-.65.04-2.95.59-3.91,1.48-2.61,5.11-7.51,4.49-10.46-.09-.43-6.03-3.48-7.55-4.66-.44-.34-3.55-2.54-1.53-2.97,3.5,2.75,7.33,4.92,10.87,7.6.51,2.1-5.36,11.98-6.87,14.4Z"/>
  <path class="st36" d="M214,468c5.48-6.8,11.06-13.54,18-19-4.59,5.67-9.66,11.19-14.49,17.01-.32.38-3.04,3.95-3.51,1.99Z"/>
  <path class="st29" d="M670,515c-6.95-4.71-11.26-8.22-17.01-14.48-.74-.81-3.35-2.66-.99-3.52,5.6,6.49,11.89,12.05,18,18Z"/>
  <path class="st69" d="M628,834c-.23,9.08-2.8,18.35-4,27,.81-9.87,1.9-19.59,2.99-29.5l1.01,2.5Z"/>
  <path class="st11" d="M552,752c-6.05,4.39-11.65,7.87-18.63,10.87-1.28.55-3.43,2.18-4.37.13,7.92-3.26,15.28-7.37,23-11Z"/>
  <path class="st46" d="M303,195c5.47-5.99,10.96-11.58,17-17,2,.42-1.04,2.54-1.5,3-3.33,3.33-6.66,6.67-10,10l-5.5,4Z"/>
  <path class="st68" d="M290,422c.23,8.13-2.1,16.16-4,24-1.91-.97-.65-3.37-.34-4.83,1.4-6.67,3.36-13.27,3.36-20.18.47.11.84,1,.98,1.01Z"/>
  <path class="st82" d="M609,335c-5.74-4.97-11-10.3-16-16,.42-2,2.54,1.04,3,1.5,3,3,6,6,9,9l4,5.5Z"/>
  <path class="st99" d="M508,253c5.22-5.74,10.62-11.42,16-17,2.36.85-.23,2.71-.99,3.52-4.83,5.19-9.79,9.23-15.01,13.48Z"/>
  <path class="st57" d="M713,196c-.42,2-2.54-1.04-3-1.5-4.57-4.58-8.98-9.4-14-13.5.29-.37.66-.68,1-1,5.72,5.04,10.95,10.3,16,16Z"/>
  <path class="st17" d="M538,739c-6.67,3.85-13.63,6.77-21,9-.31.09-.69-.09-1,0,6.04-2.74,12.01-5.63,17.99-8.51,1.02-.49,3.41-2.5,4.01-.49Z"/>
  <path class="st45" d="M431,745c-7-3.26-10.25-5.83-15-12,.42-2,2.54,1.04,3,1.5,3.71,3.72,7.72,7.48,12,10.5Z"/>
  <path class="st105" d="M565,716c-3.74,4.39-7.61,8.26-12,12l4-5.5c1.67-1.67,3.33-3.33,5-5,.46-.46,2.58-3.5,3-1.5Z"/>
  <path class="st94" d="M400,625c-.31-.09-.69.09-1,0-5.86-1.78-11.4-3.54-17-6,.98-2.1,3.08-.37,4.36.14,4.56,1.84,9.2,3.78,13.64,5.86Z"/>
  <path class="st77" d="M532,532c-3.59,5.21-7.76,10.38-13,14-1.73,1.26-4.13,2.77-6,4-35.12,26.8-86.74,31.08-126,11-4.93-2.44-10.42-5.92-15-9-4.96-3.9-10.9-10.17-11.79-16.66-.36-2.66-.43-5.86,2.79-4.34.34,2.91,19.59,11.7,23,13,32.77,15.22,69.07,15.27,102,1,7.3-3.55,14.77-8.81,21-14,2.69-3.64,6.38-7.23,10-10,2.5.52,12.63,6.02,13.46,7.98.37.88-.2,2.11-.46,3.02Z"/>
  <path class="st13" d="M379,388c10.81,16.94,9.87,39.85,0,57-1.53,1.91-3.41,4.03-5,6-8.1,7.58-18.6,3.49-24-5-11.08-18.71-10.56-50.2,8-64,7.26-5.65,16.47-.93,21,6Z"/>
  <path class="st13" d="M531,391c9.01,4.46,13.7,19.15,12,29,2.91,10.42-1.29,23.59-7,33-1.4,1.62-3.22,2.77-5,5-6.34,7.77-19.61,4.1-23-5-9.84-14.42-8.29-37.03,1-51,.47-.82,2.27-3.12,3-4,2.12-6.25,13.04-11.26,19-7Z"/>
  <path class="st70" d="M413,468c-15.84,10.23-18.51,18.9-8,26,8.56,4.39,17.6,6.35,27.1,4.73,7.58-.03,4.47,10.08-1.1,11.27-10.8,8.17-30.67,5.06-40-4-1.83-2.3-2.69-3.17-5-5-7.09-6.36-8.84-20.55-3-28,4.01-4.66,6-8.88,11-13,9.11-6.73,18.11-13.73,27-21,2.81-3.31,6.38-9.8,9-12,.68.26,1.24.55,1.32.94,3.73,16.94-3.44,31.71-18.32,40.06Z"/>
  <path class="st77" d="M559,341c.99.51,3.94,2.31,5,3,9.52,7.15,16.61,19.04,16,31-.6.21-1.05,2.02-1.62,2.05-2.59.17-10.36-10.19-13.37-12.56-2.35-1.86-3.59-2.24-6.01-3.49-19.31-13.05-41.93-9.66-63.34-4.86-1.33.39-2.55.35-3.66-.14-1.04-1.34-3.22-.14-3.01-2.45.29-3.23,7.21-9.69,10.01-11.55,16.36-11.56,43.13-11.45,60-1Z"/>
  <path class="st31" d="M387,561c41.31,20.44,88.51,13.65,126-11,2.11.57-1.18,2.49-1.67,2.83-36.05,25.35-82.11,26.7-122.14,10.48-.99-.4-3.69-.71-2.19-2.31Z"/>
  <path class="st48" d="M488,545c-31.54,15.36-70.96,15.26-102-1,30.64,11.71,60.91,15.74,92.26,3.76,2.75-1.05,7.17-4.93,9.74-2.76Z"/>
  <path class="st87" d="M329,358l1.5-2.51c21.04-11.34,40.41-11.15,62.25-4.5-.3-3.43.12-6.1,1.26-7.99v-1c4.13,6.21,5.01,12.78-4.39,11.9-17.71-1.64-24.12-7.46-44.15-.94-4.41,1.44-13.02,7.28-16.47,5.03Z"/>
  <path class="st87" d="M394,342v1l-2.9-.08c-15.21-13.23-39.78-12.09-55.24.18l-2.86-.1c10.05-16.84,50.07-17.43,61-1Z"/>
  <path class="st75" d="M559,361c-14.46-7.47-27.18-9.95-43.38-7.88-8.35,1.06-16.54,4.61-25.11,3.89-1.62-1.4.81-.87,1.5-1,22.48-4.25,47.18-10.46,67,5Z"/>
  <path class="st74" d="M358,382c-16.34,10.29-18.43,48.9-8,64-11.95-16.97-11.58-52.3,8-64Z"/>
  <path class="st54" d="M559,341c-17.27-8.87-43.37-10.05-60,1-2.21-.75,1.48-2.28,1.97-2.53,17.17-8.61,38.7-9.09,56.08-1.02.47.22,4.15,1.84,1.95,2.55Z"/>
  <path class="st93" d="M430,427c.43-.36.12-1.54,1.99-.99,3.63,15.26-1.03,28.68-12.52,38.96-1.93,1.72-5.17,2.95-6.47,4.03-.45-.31-.44-.64,0-1,14.22-11.79,22.06-20.88,17-41Z"/>
  <path class="st90" d="M509,402c-7.97,13.81-9.99,37.25-1,51v1c-9.74-13.99-8.83-31.69-2.76-47.26.43-1.11,1.84-6.14,3.76-4.74Z"/>
  <path class="st38" d="M379,445c8.99-18.25,9.58-38.8,0-57,11.89,12.71,10.48,43.93,0,57Z"/>
  <path class="st42" d="M431,511c-.55-.3-.54-.64,0-1,3.1-2.2,7.69-8.18,2.97-10.55-.76-.38-10.06.63-13.19.27-5.97-.68-10.77-2.67-15.78-5.72,2.25,1.32,15.89,4.86,18.66,4.93,5.46.12,15.57-4.43,13.14,6.35-.92,4.09-3.4,4.13-5.8,5.72Z"/>
  <path class="st108" d="M431,510v1c-10.13,6.7-29.98,5.01-39.61-3.02-1.66-1.38-.33-1.9-.39-1.98,10.56,7.33,28.78,11.96,40,4Z"/>
  <path class="st21" d="M536,453c5.61-11.18,7.52-20.45,7-33,.29-2.39.96-3.06,2-2,.92,10.9-1.82,26.71-9,35Z"/>
  <path class="st65" d="M564,344c3.11,2.01,4.81,2.83,7.51,5.99,5.86,6.85,9.86,16.95,9.47,26.03-.49-.08-.91-1.04-.98-1.01-1.11-12.83-6.96-22.28-16-31Z"/>
  <path class="st91" d="M413,469c-5.01,4.15-16.89,11.56-13.48,18.98.17.37,5.13,5.81,5.48,6.02-17.58-10.7-1.3-18.29,8-26v1Z"/>
  <path class="st33" d="M421,439c-9.41,11.08-17.02,12.79-27,21-2.11-.57,1.19-2.49,1.67-2.83,8.66-6.09,14.5-8.84,22.33-16.67.46-.46,2.58-3.5,3-1.5Z"/>
  <path class="st43" d="M545,418l-2,2c-.34-8.27-2.01-18.42-7.55-24.94-.47-.56-4.17-3.93-4.45-4.06-.73-.29-.72-.62,0-1,8.63,3.23,13.3,19.65,14,28Z"/>
  <path class="st96" d="M383,473c-4.53,9.62-3.46,19.64,3,28-.18-.14-.84,1.5-3.19-2.32-4.24-6.86-5.59-18.81-1.25-25.77.67-1.07,1.4.15,1.44.09Z"/>
  <path class="st0" d="M372,552c-2.62-1.76-4-2.07-6.51-4.99-3.43-3.98-11.69-18.13-1.48-16.99-.01.52-1.02.91-1.01.98-2.87-.59-2.18,1.6-2,3.46.76,7.83,6.41,11.97,11,17.54Z"/>
  <path class="st66" d="M374,451c-7.02,8.67-16.82,4.74-23.03-2.5-.74-.86-.67-2.07-.97-2.5.24.35,5.43,5,6.07,5.43,6.38,4.27,11.64,3.11,17.93-.43Z"/>
  <path class="st27" d="M531,458c-.16.2,1.37,1.68-3,3.51-7.64,3.2-13.79.95-19.03-5.01-.74-.84-.66-2.06-.96-2.5v-1c5.54,8.47,14.5,11.46,23,5Z"/>
  <path class="st94" d="M379,388c-5.36-5.73-13.3-10.85-21-6,1.15-.69,1.18-1.91,3.92-2.56,7.86-1.86,13.53,1.81,17.08,8.56Z"/>
  <path class="st9" d="M531,390v1c-7.3-3.31-14.52,1.58-19,7-2.3-.76.17-2.78.97-3.54,5.21-4.93,10.95-7.11,18.03-4.46Z"/>
  <path class="st78" d="M519,546l13-14c-1.11,3.87-7.26,10.7-10.5,13.05-.96.7-2.18.71-2.5.95Z"/>
  <path class="st14" d="M329,358c-5.28-3.45.78-11.89,4-15,.81,2.28.27,5.06-1.64,8.34,0,3.06-.78,5.28-2.36,6.66Z"/>
  <path class="st16" d="M519,521c-2.82,3.83-6.37,6.98-10,10-2-.42,1.04-2.54,1.5-3,1.29-1.29,7.21-7.64,7.98-7.72.3-.03.42.7.52.72Z"/>
  <path class="st89" d="M485,657c22.91-1.7,43.61-6.71,65-14.99-1.45,8.55,1.24,19.97,5,27.99-2.63,2.71-7.37,5.09-10.79,6.71-26.3,12.46-51.29,17.44-80.61,14.18-8.86-.98-19.16-5.98-27.61-8.89,3.88-7.87,3.46-17.53,2.01-26,14.44,1.81,29.99,2.88,44.57,2.04,1.3-.08,2.25-1.03,2.42-1.04Z"/>
  <path class="st70" d="M394,343c.73,2.26,2.4,8.95-.64,9.92-2,.64-18.49-4.41-22.99-4.79-8.08-.68-14.45.44-22.13,2.61-6.89,1.94-12.48,5.53-19.24,7.26-.86-5.65,1.2-10.31,4-15,15.17-14.67,46.27-15.96,61,0Z"/>
</svg>