<?xml version="1.0" encoding="UTF-8"?>
<svg id="Layer_1" xmlns="http://www.w3.org/2000/svg" version="1.1" viewBox="0 0 482.16 482.16">
  <!-- Generator: Adobe Illustrator 29.5.1, SVG Export Plug-In . SVG Version: 2.1.0 Build 141)  -->
  <defs>
    <style>
      .st0 {
        fill: #3b7d57;
      }

      .st1 {
        fill: #af7d4a;
      }

      .st2 {
        fill: #cbe1ad;
      }

      .st3 {
        fill: #90b657;
      }

      .st4 {
        fill: #69853d;
      }

      .st5 {
        fill: #cae0ac;
      }

      .st6 {
        fill: #cae1ac;
      }

      .st7 {
        fill: #74bd8c;
      }

      .st8 {
        fill: #6a853e;
      }

      .st9 {
        fill: #90b658;
      }

      .st10 {
        fill: #91b658;
      }

      .st11 {
        fill: #6a3f13;
      }

      .st12 {
        fill: #74be8c;
      }

      .st13 {
        fill: #c9e0ac;
      }
    </style>
  </defs>
  <path class="st0" d="M229.09,194.25c-14.8-4.43-25.95-10.67-42.45-11.53-16.41-.86-29.47,3.83-44.58,8.65,1.06-5.99-.89-18.43-5.01-23.35-1.18-1.41-5.13.18-6.78-1.53,1.06,8.32.64,15.99-2.59,23.9-1.35.9-22.42-9.3-23.3-10.69-.73-1.15,2.19-13.58,1.84-17.53-.43-4.81-2.99-9.25-4.09-13.89l-3,12.02c-2.37,3.35-3.44,12.12-8.81,9.09-1.23-.69-14.37-13.2-14.65-14.15-.58-1.98,4.01-12.72,4.03-17.03,0-2.04-4.16-20.34-6.21-17.72.52,7.04-1.56,16.56-6.71,21.99-1.85,1.95-4.07-3.33-4.94-4.87-3.97-6.97-14.19-40.38-14.84-48.38-3.36-41.65,62.37-33.91,89.96-30.04l-3.04,4.33-12.31,10.02c10.88,1.13,17.94-1.32,26.1-7.66,1.28-.99,1.76-3.27,3.25-3.73,3.2-.98,25.89,8.47,25.91,9.96-4.46,5.46-9.28,10.97-16.36,13.41,9.41,4.78,18.97-1.91,26.98-6.07,3.85.71,19.31,20.38,19.97,24.51,1.04,6.51-18.63,8.74-23.4,8.38,8.62,7.7,20.79,9.79,31.72,5.27l18.44,45.02c2.89,10.58,2.87,21.98,0,32.57-.46,3.29-5.29,2.24-5.12-.96Z"/>
  <path class="st0" d="M250.59,173.18l17.45-42.14c11.42,4.22,22.74,2.69,31.69-5.28-4.59.35-22-2.27-23.46-6.85-1.37-4.3,16.1-24.1,20.9-27.13,6.87,7.12,17.14,10.39,27.13,7.64l-9.22-5.25c-2.78-2.98-7.54-5.47-7.08-9.99,6.01-1.44,18.04-9.5,23.93-8.72,2.21.29,9.31,8,14.18,9.79,5.31,1.95,10.45,1.91,16.07,1.72l-11.28-9.07-4.07-5.28c28.35-3.8,92.94-12.16,90.08,30.15-.58,8.6-4.38,14.81-6.65,22.51-3.15,10.71-4.05,23.34-12.77,31.62l-5.87-11.28-2.32-12.66c-3.66,7.87-5.23,16.7-4.02,25.3.31,2.18,3.89,9.4,3.53,10.16-.45.93-14.05,13.6-15.34,14.4-.98.61-1.77,1.17-3.05.98-1.49-.22-5.96-11.14-6.49-13.23-.66-2.6.73-7.48-2.28-8.86-3.9,10.04-6.1,20-1.27,30.2l-.75.88c-2.61,2.07-22.22,12.23-23.57,11.06-.4-4.12-2.7-7.84-3.07-11.98-.37-4.13.92-7.92.52-11.95-1.66,1.7-5.61.12-6.79,1.53-4.34,5.17-5.48,16.97-5.01,23.36-15.53-5.4-28.6-9.7-45.6-8.66-15.92.98-24.56,6.66-38.35,10.58-.03,2.76-1.1,3.09-3.07.96-1.53,3.02-3.87,2.21-4.1-.96-.86-1.26-1.77-2.62-1.87-4.15-.34-4.97-.87-24.4.53-27.31.35-.73.83-1.41,1.34-2.07Z"/>
  <path class="st9" d="M189.16,218.2l1.56,1.28c1.13,12.47,11.27,28.28,24.77,31.1,2.22-4.09,3.97-2.63,7.01-.05,9.69,15.82,35.26,14.41,44.68-1,4.37-4.49,6.05-2.28,8.17,2.26,6.16-4.46,9.95-12.49,10.06-20.04l2.02-2.06c3.33.09,6.3,2.06,8.93,5.92,2.22,3.89,4.7,5.75,7.45,5.57.79.99,1.34,1.91,2.05,2.87.61.98.61,1.62,0,1.92-4.42,5.13-8.7,10.82-12.84,17.05l-11.82,9.62c-.16.38,1.39,7.93,1.83,7.94,8.93.15,22.52-19.95,20.71-28.59l2.12-2.18c6.01,5.18,10.11,11.88,12.29,20.12l.03,3.12-12.15,14.75c10.71,10.75,12-5.7,12.2-13.53l1.97-1.47c2.29,3.59-.09,20.63,3.76,21.9,1.38.46,3.11-.05,4.43.13,7.12,2.02,18,6.59,19.45,13.41-.15.69-.34,1.36-.66,1.98-3.49,6.88-32.3,13.24-41.11,13.61,13.1,10.42,37.3,4.35,41.58-11.57l2.24-1.15c2.08-1.18,4.16.15,6.23,3.97l5.89,9.19,2.22.25c.41.67.67,1.29,1.02,1.92,1.14,2.62.8,3.58-1.02,2.87l-1.51-.36c-16.1,10.8-35.32,18.11-55.57,16.86,17,12.48,45.96,4.23,54.31-14.22l2.78-1.32c2.97.74,5.39,8.52,6.44,12.03,1.99,3.42,2.23,6.12.72,8.09l-.97,3.38c-16.9,14.79-44.3,23.31-65.56,12.86l-19.29-2.08c-14.69,8.99-34.78,8.18-51.75,5.45-7.84-1.26-18.17-4.36-14.28-13.5-11.9,3.35-25.08,5.34-36.62,1.12-24.11,8.5-49.98.35-67.5-16.82,1.87-7.77,4.86-14.79,8.19-22.03,1.47,1.49,1.81.85,1.02-1.92,3.58-7.22,5.82-11.83,11.26-18.2,3.25,2.86,3.59,2.54,1.02-.96,2.8-3.08,5.82-6.59,9.31-9.02,2.75-1.91,11.36-4.81,11.73-5.31.39-.54,1.04-9.04,1.49-11.53.73-.45,1.48-.55,2.24-.21,1.03,7.8,4.85,12.17,11.48,13.12,3.66,4.55,6.62,4.92,8.87,1.11-7.55-5.57-15.12-11.48-20.25-19.21l-.28-3.43c2.58-8.48,6.33-17.97,12.29-24.91,1.17.09,1.4-.64,1.02-1.92,2.52-6.61,9.35-13.08,14.33-18.2Z"/>
  <path class="st3" d="M115.44,343.68l2.71,1.2c9.57,21.16,38,31.15,58.45,16.89,6.78-6.31,9.1-3.42,6.73,3.85,12.02,5,24.66,2.53,36.36-2.34,12.05,18.53,42.67,23.03,59.47,7.97,5.51-9.21,11.11-9.48,10.44,2.14,1.35,1.66,17.76,2.51,18.64,1.4-3.1-6.49,2.41-7.71,6.62-2.93,18.89,10.94,45.94,5.82,55.82-13.61l2.75-1.15c2.29,2.87,3.39,6.69,3.31,11.46-.35,3.62.25,6.51,1.81,8.66-.18,3.11-.31,3.88-1.02,6.71-1.48.58-2.39.53-2.94-.8-15.11,9.05-42.2,21.11-57.65,7.91-8.42,2.04-17.23,2.54-26.44,1.5-6.47,13.37,15.39,8.47,23.36,6.53,3.97-2.95,6.76-3.53,8.37-1.73-5.92,17.3-26.07,24.5-39.92,9.58-.29,2.81-2.14,6.49-2.14,9.17,0,2.43,3.48,0,1.1,4.24-18.14,5.84-37.69,7.99-56.01-.02l-2.35-2.85c-2.6-8.11-4.08-15.52-5.13-23.94l-6.61,8.65c-16.54,14.43-35.36.43-40.48-16.32l2.24-.93c8.62,8.18,19.4,11.44,31.65,8.8,1.96-.42,13.15-3.96,13.67-4.46.24-.23-3.15-5.21-3.49-5.26-13.52,3.41-27.85,2.87-40.81-1.61-1.2.98-2.28,2.13-3.26,3.45-.39-.21-1.54.2-2.05,0-18.74.68-37.14-.02-52.85-12.23l-2.44,1.7c-1.62-4.7-1.39-11.76-1.01-16.75s2.02-9.94,3.06-14.86Z"/>
  <path class="st4" d="M115.44,340.81c1.91-1.5,2.33-.08,3.59.92,14.43,11.5,29.39,18.75,49.13,17.26,4.51-.34,10.78-2.83,14.33-2.87,3.19-.03,7.82,1.67,11.3,1.91,10.67.73,19.24-1.72,29.16-4.77-4.42,10.75-2.36,11.35,7.97,14.09,11.41,3.03,28.77,3.18,40.4.99,4.31-.81,13.26-5.29,15.56-5.37,1.65-.06,16.58,1.45,18.47,1.79,2.49.45,4.5,3.15,9.35,3.71,24.01,2.78,39.69-3.5,56.7-18.09,1.44-9,7.52,3.81,2.05,6.71-9.07,21.65-38.5,28.34-59.27,16.65-1.79-1.01-3.57-4.34-5.23-2.77l2.04,5.27c-3.99,1.63-20.95,1.15-23.08-1.87-1.11-1.57.41-8.74-2-8.64-.52.02-4.26,5.94-5.59,7.2-15.5,14.71-51.05,11.51-61.01-8.17-9.16,5.26-19.96,6.76-30.4,4.54-9.16-1.95-8.54-2.32-5.9-10.29-21.73,21.24-57.23,10.77-67.56-15.33.18-.86-.2-2.04,0-2.87Z"/>
  <path class="st9" d="M234.21,195.21l2.05.99c-1.91,8.57-.21,15.26,5.12,20.08,1.12-1.17,2.92-2.04,5.41-2.61.81-3.04,2.08-5.37,3.81-6.97,1.2.68,2.69,1.12,4.1.96,4.56,1.34,7.64,3.25,9.21,5.75l.67,2.04-9.86,12.38c9.55,10.41,10.25-3.49,10.32-10.91l1.94-1.6c4.82-.63,17.53,6.13,16.38,11.49,2.07,2.47-1.83,7.29-3.8,9.58-4.85,3.11-7.44,6.25-7.78,9.43.04,1.36-3.21,3.51-5.03,4.55-6.68,3.79-37.25,3.89-44.59.22-4.16-1.45-5.29-3.74-3.39-6.87l-17.4-11.79c-3.69-3.18-11.04-10.46-11.18-14.7,3.27-3.24,13.31-13.43,17.41-14.37,1.9,3.65,2.24,3.65,1.02,0,5.36-5.41,13.69-5.91,20.48-8.62,1.7.51,3.11,1.33,5.12.96Z"/>
  <path class="st4" d="M174.82,236.4c19.22,34.4,65.97,48.09,103.4,31.61-5.84,20.42-39.75,23.85-56.24,12.87-4.28-2.85-11.87-14.67-10.31-2.33-20.79-.74-40.88-20.56-37.88-40.23.16-1.08.85-1.46,1.02-1.92Z"/>
  <path class="st4" d="M190.18,217.24l12.27,12.95c2.67,3.36,18.24,10.52,18.37,13.33.05,1.16-1.51,3.6-.94,4.35s16.66,3.7,18.95,3.84c5.23.32,26.5-1.83,30.23-4.29,1.67-1.1-.21-2.79.44-4.29.58-1.33,6.97-6.26,8.7-8.2,2.31-2.59,3.88-6.59,5.15-8.11-.93-2.87,1.59-3.54,3.07-.96,2.73.37,4.14,2.57,1.02,3.83.35,8.18-2.26,14.7-7.76,20.99-7.18,8.21-4.22,1.37-9.63-2.79-8.21,19.88-40.96,21.4-50.2,1.92-3.5-.62-1.22,3.28-5.38,2.73-11.68-1.56-27.71-22.73-25.32-34.34.33-.33.69-.63,1.02-.96Z"/>
  <path class="st4" d="M124.65,316.86c14.21,10.31,38.67,18.33,56.71,16.18,3.66-.44,6.28-2.42,9.28-2.81,4.88-.63,11.03.39,16.3-.07,7.21-.64,16.41-3.07,22.66-6.58.48,8.79-13.06,15.9-20.95,17.76-4,.94-16.86,2.58-19.93.54-1.72-1.15.41-6.14-1.1-7.77-19.45,17.98-55.94,9.02-64-15.33.32-.69.7-1.27,1.02-1.92Z"/>
  <path class="st4" d="M322.26,397.33c-1.92.02-5.41,2.79-7.91,3.61-6.58,2.18-13,2.76-19.98,1.89-11.06-1.39-5.56-4.08-5.9-12.21,7.77.29,15.16.54,22.93-.1,1.83-.15,5.36-1.69,6.31-1.54.77.12,2.57,4.73,10.2,5.46,16.86,1.61,33.97-4.87,47.1-14.36l2.54,3.83c-.87,3.44-2.26,5.07-3.07,7.66-8.05,15.33-31.16,19.67-46.07,10.54-1.77-1.72-3.25-4.81-6.14-4.79Z"/>
  <path class="st1" d="M250.59,148.27c.74,7.69-.07,16.98,0,24.91.09,10.89.6,22.75,0,33.53-.33,5.93-1.3,11.12-9.21,9.58-3.37-1.91-4.39-3.66-3.07-5.27l-1.37-.3c-.82-20.39-1.05-40.98-.68-61.78l2.05-1.15c-2.22-5.04,11.5-4.92,12.29.48Z"/>
  <path class="st4" d="M168.68,385.83c-2.29,2.91-6.63,6.39-10.24,7.66-13.97,9.23-39.15.55-45.05-14.37-.14-1.19,0-2.59,0-3.83-.01-1.74-.45-4.3.51-5.74,8.44,7.36,22.27,13.36,33.81,14.35,5.66.49,13.27-.86,18.44.03,2.08.36,2.34,1.83,2.53,1.9Z"/>
  <path class="st4" d="M281.3,420.32c-1.81,3.23-4.3,6.27-7.17,8.62-9.67,13.43-37.8,11.05-47.1-1.92-1.72-3.55-2.81-5.56-4.1-9.58,12.64,5.61,26.34,7.35,40.16,5.49,5.39-.73,9.55-2.56,14.44-3.8,2-.51,2.73-1.35,3.76,1.19Z"/>
  <path class="st4" d="M136.94,297.7c8.84,5.51,20.51,10.58,31.24,11.48,5.7.48,12.15-1.07,17.41.96l.5-3.82c4.33,3.24,35.27-1.93,35.83-4.33l-2.05-4.28c20.66,6.77,41.21,6.68,59.91-4.78,2.66-.6.57,2.28.18,3.05-8.44,16.81-30.46,22.21-48.36,16.13-7.15-2.43-5.41-3.93-9.68-8.65-3.75,9.42-14.59,15.92-25.21,16.18-1.03.03-8.22-.64-8.53-.91-.49-.42-.6-7.36-1.59-8.56-15.52,17.37-45.65,11.06-50.69-11.5.3-.35.72-.62,1.02-.96Z"/>
  <path class="st9" d="M274.14,428.94c-10.69,25.26-33.66,24.71-46.51.85-.57-1.06-.34-2.26-.58-2.77,3.93,1.35,6.61,4.26,10.55,5.93,11.28,4.78,27.06,3.77,36.54-4.02Z"/>
  <path class="st9" d="M328.4,402.12c5.29-.2,10.23,2.79,15.86,2.94,12.45.33,22.04-5.42,30.21-13.47-2.59,8.23-1.82,15.13-10.92,20.92-13.76,8.74-25.94-1.43-35.15-10.38Z"/>
  <path class="st10" d="M158.44,393.49c-18.32,22.69-41.86,11.88-45.05-14.37,3.54,1.69,4.92,5.28,7.69,7.65,9.18,7.9,25.73,10.81,37.36,6.71Z"/>
  <path class="st11" d="M234.21,162.64c.08-4.78-.69-11.32.06-15.75,1.45-8.59,15.2-10.29,16.32,1.38-1.81-2.71-12.29-2.6-12.29-.48v63.22c0,.54,2.87,3.98,3.07,5.27-10.26-2-7.02-13.06-7.17-21.07-.2-10.81-.18-21.76,0-32.57Z"/>
  <path class="st4" d="M161.51,263.22c6.63,9.63,14.77,16.33,24.57,22.98-2.51-.47-6.8,5.74-7.68,5.74-.43,0-4.69-4.63-6.31-5.57-2.55-1.46-6.39-1.71-7.28-2.29-1.81-1.17-3.74-10.17-5.35-12.24.6-3.34,1.06-5.36,2.05-8.62Z"/>
  <path class="st4" d="M208.61,202.87c1.9.43,6.08,6.28,8.18,8.15,1.44,1.28,8.82,5.91,9.1,6.37.57.93-.78,3.39-.82,5.01-.03,1.18,1.14,2.59,1,3.81-.03.28-3.31,1.39-2.63,4.44-11.24-5.19-17.38-16.13-15.86-27.79.24-.05.78-.05,1.02,0Z"/>
  <path class="st8" d="M320.21,272.8c.44,5.36-.66,16.66-5.58,20.21-2.81,2.02-9.57-4.19-13.87-2.98,6.99-5.93,11.68-13.26,17.41-20.11-2.1-.79-1.46-2.85,1.02-1.92.4,1.65.88,3.04,1.02,4.79Z"/>
  <path class="st5" d="M378.57,377.21l-3.08,1.43c.53-7.25-2.1-14.37-2.04-21.55.02-2.72,1.67-5.67,1.01-8.62-.13-.17-2.65,1.56-3.06,1.92l-7.17-20.12c-.89-.32-.89-.64,0-.96.3-.73,1.53-1.49,1.02-2.87,9.96,17.42,14.48,30.23,13.31,50.77Z"/>
  <path class="st5" d="M364.23,324.53c-.87,1.73-1.67,2.85-3.55.93-3.57-3.64-5.26-11.72-10.78-14.34-1.53-.63-2.21-1.59-2.05-2.87-6.14-6.19-10.64-10.31-19.45-13.41,17.49,2.49,27.81,16.49,35.83,29.69Z"/>
  <path class="st13" d="M257.75,206.7l24.9,13.58c2.59,1.19,2.84,2.53,3.77,4.62.9.3.89.62,0,.96-.85.16-2.6.39-3.07.96-3.9-5.12-10.35-8.86-16.38-11.49-.87-1.16-1.89-1.79-3.07-1.92l-10.24-3.84,1.03-1.9c.56-.06,2.19-.71,3.07-.96Z"/>
  <path class="st6" d="M303.83,241.19l-3.05,3.82c-2.96-5.74-8.47-10.88-13.33-15.32-.1-2.3-.6-2.38-1.02-3.83-.09-.31.11-.7,0-.96,7.72,1.86,12.92,10.63,17.41,16.28Z"/>
  <path class="st2" d="M319.19,268.01c-.82.39-.74,1.58-1.02,1.92-2.64.52-2.1-1.19-2.78-2.62-2.88-6.03-6.1-11.74-9.51-17.5-1.99-1.21-1.99-2.62,0-3.83v-1.92c5.91,8.05,10.89,13.86,13.31,23.95Z"/>
  <path class="st7" d="M226,184.67c-35.05-38.16-79.5-70.41-130.82-86.9l-20.69-4.09c5.55-.25,11.14.36,16.59,1.23,42.57,6.81,96.63,43.03,123.65,73.98,4.06,4.65,9.01,10.26,11.28,15.78Z"/>
  <path class="st12" d="M406.21,107.09l-15.34,3.35c-52.33,16.17-97.51,48.96-133.1,87.64,2.69-5.52,7.21-11.08,11.28-15.78,26.77-30.9,79.75-65.98,121.77-73.82,5.06-.94,10.2-1.71,15.39-1.39Z"/>
  <path class="st4" d="M364.23,330.27c-7.17,18.18-27.39,25.74-47.15,22.56-5.16-.83-12.02-6.3-12.75-6.26-.84.04-1.06,2.59-2.25,2.88-4.87,1.16-20.94-1.82-23.34-6.72-8.69,17.67-34.63,22.27-48.14,6.71-.61-.7-6.26-7.32-2.21-6.57,5.08.94,10.39,3.08,15.65,3.57,11.65,1.09,22.88-1.67,34.17-3.72l-5.62-9.58c5.33,1.72,10.89,3.13,16.5,3.72,2.4.25,12.23-.31,12.67.12.54.53-1.33,5.66,1.67,6.58,2.17.67,14.19.34,17.15.03,7.8-.81,21.54-5.25,28.59-8.69,3.39-1.65,9.15-6.4,11.66-7.29,1.73-.62,3.98-.94,3.37,1.72-.12.28.11.68,0,.96Z"/>
  <path class="st4" d="M347.85,308.24c.36.36,2.49-1.3,2.05,2.87-1.59,14.96-22.64,22.99-36.85,18.67-2.8-.85-8.47-5-9.9-5.1-1.28-.09-2.62,1.73-4.9,1.82-9.4.36-21.83-7.5-24.11-16.34,9.36,2.32,18.87,4.52,28.66,3.83l-1.03,7.65c16.66.11,32.51-4.42,46.08-13.41Z"/>
  <path class="st4" d="M305.87,245.98c0,1.28,0,2.55,0,3.83-.09,15.81-8.44,28.18-24.56,33.53,0-3.2-2.1-8.25-2.01-11.11.04-1.29,9.89-8.01,12.2-10.47,2.07-2.2,4.23-5.33,5.97-7.82,2.37-3.4,2.62-9.01,8.39-7.95Z"/>
  <path class="st4" d="M170.73,385.83c-.22-.72-.98-2.42-.84-2.72.09-.19,3.13-2.8,3.35-2.83.78-.11,11.65,3.39,15.38,3.67,9.49.7,20.3.26,29.21-2.91-2.21,8.86,11.3,12.09,18.44,13.88,10.61,2.66,21.11,3.43,31.99,1.2,7.22-1.48,13.4-5.65,20.23-7.89-11.01,28.66-55.13,27.51-70.25,2.47-11.78,6.15-24.75,8.15-37.3,2.35-4.29-1.98-6.72-5.33-10.2-7.22Z"/>
  <path class="st4" d="M263.9,213.41c3.39-2.74,2.87-.46,3.07,1.92.43,5.21.3,10.73-2.51,15.37-5.03,8.31-6.47-1.65-13.87-1.97,4.91-3.42,9.38-12.14,13.31-15.31Z"/>
</svg>