<?xml version="1.0" encoding="UTF-8"?>
<svg id="Ebene_1" xmlns="http://www.w3.org/2000/svg" version="1.1" viewBox="0 0 1024 1536">
  <!-- Generator: Adobe Illustrator 29.5.1, SVG Export Plug-In . SVG Version: 2.1.0 Build 141)  -->
  <defs>
    <style>
      .st0 {
        fill: #113e47;
      }

      .st1 {
        fill: #2c6573;
      }

      .st2 {
        fill: #94d6e7;
      }

      .st3 {
        fill: #a1d2ca;
      }

      .st4 {
        fill: #051f26;
      }

      .st5 {
        fill: #d6f0ec;
      }

      .st6 {
        fill: #102b38;
      }

      .st7 {
        fill: #0f303c;
      }

      .st8 {
        fill: #62b1cb;
      }

      .st9 {
        fill: #6cacab;
      }

      .st10 {
        fill: #b17328;
      }

      .st11 {
        fill: #6cafb2;
      }

      .st12 {
        fill: #de8e28;
      }

      .st13 {
        fill: #b57529;
      }

      .st14 {
        fill: #34757f;
      }

      .st15 {
        fill: #a1d1c9;
      }

      .st16 {
        fill: #6db0b0;
      }

      .st17 {
        fill: #a2d2ca;
      }

      .st18 {
        fill: #6caaa9;
      }

      .st19 {
        fill: #e2f5ee;
      }

      .st20 {
        fill: #2f6877;
      }

      .st21 {
        fill: #efc57f;
      }

      .st22 {
        fill: #0a2836;
      }

      .st23 {
        fill: #b6ded7;
      }

      .st24 {
        fill: #5ea2bf;
      }

      .st25 {
        fill: #97d9d8;
      }

      .st26 {
        fill: #6baaa9;
      }

      .st27 {
        fill: #7ca7b7;
      }

      .st28 {
        fill: #0d2a32;
      }

      .st29 {
        fill: #dbf1e9;
      }

      .st30 {
        fill: #b47528;
      }

      .st31 {
        fill: #3f7d98;
      }

      .st32 {
        fill: #df8f29;
      }

      .st33 {
        fill: #0c2831;
      }

      .st34 {
        fill: #8bb1ba;
      }

      .st35 {
        fill: #b37427;
      }

      .st36 {
        fill: #69a5a1;
      }

      .st37 {
        fill: #6aa7a3;
      }

      .st38 {
        fill: #d3f3ef;
      }

      .st39 {
        fill: #091c28;
      }

      .st40 {
        fill: #0e323b;
      }

      .st41 {
        fill: #6daba9;
      }

      .st42 {
        fill: #0b282e;
      }

      .st43 {
        fill: #0a2431;
      }

      .st44 {
        fill: #66b3cf;
      }

      .st45 {
        fill: #6aaaa9;
      }

      .st46 {
        fill: #b37327;
      }

      .st47 {
        fill: #6dabaa;
      }

      .st48 {
        fill: #e2f4ed;
      }

      .st49 {
        fill: #63a9c4;
      }

      .st50 {
        fill: #dff6f2;
      }

      .st51 {
        fill: #daf4f0;
      }

      .st52 {
        fill: #4789a5;
      }

      .st53 {
        fill: #a0d1c9;
      }

      .st54 {
        fill: #abe3ee;
      }

      .st55 {
        fill: #69a5a0;
      }

      .st56 {
        fill: #0d3d48;
      }
    </style>
  </defs>
  <path d="M513.15,19.79c114.96-70.16,284.87,59.47,198.2,181.93-56.04,46.87-55.95,132.57,32.03,121.11,30.75-7.8,27.07-55.38,10.35-31.86-6.7,20.47-39.91,10.16-47.37-5.65-19.5-62.18,77.87-79.91,112.19-41.8,109.85,212.4-380.89,190.54-172.01-99.43.69-72.34-100.61-48.68-109.71,7.91-8.27,35-.81,77.26-27.23,105.84,29.58,40.34-10.46,72.44-44.17,91.28-25.87,17.21-34.6,53.09-12.12,75.18,26.6,25.61,75.43,3.63,106-4.72,116.49-49.81,221.26,88.54,127.11,178.73-32.85,32.67-90.52,43.66-125.9,76.82-36.85,42.95,3.15,115.84,64.6,133.81,103.83,19.27,185.9,122.57,123.62,222.13-20.7,31.36-53.69,61.84-63.57,100.56-35.5,114.45,79.43,96.08,133.39,152.53,48.96,44.16-13.45,128.66,25.3,139.37,23.87-4.4,41.15,17.87,19.57,35.78-55.46,43.06-162.99-2.93-122.37-79.43,1.55-19.68-7.65-28.78-28.46-36.95-6.17,67.59-15.18,60.45-58.59,103.95-2,6.05,6.23,11.44,11.44,14.54,77.56,33.55-45.82,77.22-81.92,43.86-22.44,9.06-60.33,13.27-76.62-7.55-47.46-22-5.53-106.04-34.88-88.52-12.7,69.45-159.32,42.77-99.21-29.38,18.05-33.11-18.03-40.09-39.18-23.34-53.09,32.64,27.16,106.64-43.63,131.07-30.21,13.45-63.3,17.38-93.6,12.49-47.91,1.08-93.99-50.35-24.06-62.85,4.22.42,14.04-7.86,10.45-10.65-55.77-31.04-66.58-104.61-13.71-145.25,30.52-25.29,84.72-27.52,110.94-58.13,85.86-121.14-173.51-236.67-41.12-361.57,61.89-55.59,172.17-80.5,149.62-185.25,4.29-62.17,75.77-87.25,128.35-101.75,55.59-14.76,50.16-59.8-8.74-52.09-84.86,18.09-199.14-15.42-193.44-118.79,8.23-44.6-9.7-59-39.67-86.73-40-90.78,59.3-18.37,14.96-141.24-10.29-54.05,114.6-41.04,146.98-36.81-.09-49.75,32.4-95.17,76.17-119.12Z"/>
  <path class="st3" d="M339.35,372.02l3.75-1.6c19.49,3.61,40.65,4.2,58.57-4.64,4.56,0,5.21,3.49,4.6,6.97-4.44,14.9-6.86,26.35-4.25,42.27,5.15,31.47,27.1,61.27,65.74,48.63,10.29.02,21.04-1.36,32.28-4.15l2.15-1.92c14.77-3.46,29.92-7.11,44.47-11.62,2.51-1.39,5.3-2.69,8.36-3.9,13.35-3.5,25.98-8.69,40.14-10.49,76.09-9.68,122.14,43.1,104.47,108.79l-2.4.15c-15.4,34.83-56.75,53.15-92.09,67.36l-2.48,1.67c-.55,3.99-2.94,4.06-7.15,2.82l-49.51,14.25c-53.29,19.22-60.23,84.13-46.34,128.35,17.9,56.99,64.47,71.65,121.09,88.88,50.54,15.72,103.47,59.75,102.56,110.52,1.3,3.07,1.31,5.56.01,7.47-1.77,2.58-3.68,1.92-3.74-1.13-6.02-3.54-12.62-6.24-19.31-8.53l-.64-1.64c-7.97-2.14-16.07-4.02-24.31-5.65-.19.56-.38.99-.58,1-9.17.17-19.89-.13-29.13-.44-.28,0-.56-.25-.83-.56,2.85.43,5.76.8,8.73,1.13-1.3,1.81-7.15,1.55-9.97,1.13-12.35.11-24.82.87-37.4,2.26-46.54,8.09-93.41,14.82-140.87,15.32-33.83-1.48-67.49-2.06-100.97-1.76-1.97,2.92-10.13,2.26-13.71,1.13-15.51.08-31.06,1.12-46.65,3.12-8.13-20.86-2.77-46.49,10.78-64.78,25.76-21.66-4.02-20.84-19.25-7.55-20.22,17.64-20.95,53.47-14.99,76.99,0,0-5.3,2.3-15.9,6.91,1.59,2.89-4.1,7.84-7.48,7.91-.57,8.7,2.35,16.81,8.76,24.34l-.03,1.65,5.49,3.86c13.97,17.94,27.77,35.9,41.4,53.86l.48,3.3c12.58,19.2,23.94,39.92,27.42,62.15,1.23.95,1.76,3.13,1.25,4.52,3.02,30.22,3.77,61.52-9.97,90.39.19,3.08-3.21,8.54-6.23,10.17.31,1.29.66,2.78,0,4.03-8.57,16.11-38.76,34.07-56.17,42.23,2.04-.15,3.14.34,3.82,2.32l19.46,3.27,1.11,2.38c1.56-3.33,13.57-2.62,18.14-2.26,4.22-.76,6.9,0,8.04,2.26l1.81-2.1c10.78,1.57,21.25,4.12,31.4,7.64l1.07,2.37c4.15-.25,2.58,3.47-.7,4.57-17.54,4.61-35.3,9.52-52.58,15.38-39.46,13.38-45.39,67.03-30.2,98.49,3.61,10.05,2.19,20.14-1.55,29.39-.82.14-2.08.36-2.47,1.07-8.68,15.46-14.82,24.84-34.66,29.63-16.48.92-56.83.48-68.6-10.7-14.63-13.9,13.97-13.11,22.45-15.88,15.84-5.18,26.65-21.9,20.56-36.66-3.31-8.02-17.06-14.04-24.29-19.79-25.96-20.67-31.87-44.59-19.29-74.01,14.65-34.26,44.81-40.52,77.9-54.25,18.28-5.77,35.86-14.08,49.86-25.99,1.75-1.5,2.03-1.73,3.74-3.39,39.86-41.13,31.8-96.32,11.22-143.5-27.25-53.21-89.2-91.84-79.63-158.62,15.61-109,159.73-106.13,181.27-197.27,2.92-12.37,2.57-23.78,3.08-36.19l1.21-1.09c-.91-17.75-.76-35.11,6.27-52.01,8.04-14.44,46.32-42.51,63.58-45.2,42.92-10.11,109.65-27.6,121.09-72.37,7.2-28.17-24.09-45.93-52.16-40.55-15.22,2.44-29.89,5.43-44,8.97-52.53,2.14-92.35,11.88-136.13-23.74-38.44-31.28-30.21-66.32-30.91-107.33Z"/>
  <path class="st24" d="M291.98,1013.81c10.32,3,21.82,16.59,28.29,25.12,21.3,28.09,37.13,49.63,46.01,83.51,9.52,36.34,8.14,74.63-.07,110.38.4,3.91,3.6,5.22,9.58,3.92-.11-5,1.69-7.93,5.4-8.78,18.58-27.62,15.83-73.61,8.86-104.87-8.65-38.8-28.97-66.17-54.72-97.49-1.39-2.36-2.32-4.23.29-6.15,3.26-.8,6.56-1.1,9.92-.91,79.66,15.08,158.44,25.45,239.64,15.78l4.74.95c2.97,1.5,3.23,4.55.79,9.14-3.77,6.02-5.6,12.22-5.5,18.61-7.56,18.34-14.89,36.77-21.98,55.29l-9.51,37.65c1.22,8.69,1.7,17.29.18,25.99,5.84,1.51,5.03,6.66-.23,8.51l-.04,1.6c4.55,3.28,5.06,6.38,1.53,9.3l1.91,3.73c1.78,14.68,6.76,31.84,16.11,43.86,2.25,11.79,12.19,22.92,20.96,31.08l-.46,2.68c4.49,6.07,3.42,9.74-3.19,11.01-.45,4.15-3.7,5.82-6.93,2.62-4.53.61-6.29,1.06-5.12,5.77l-3.06,3.13c-3.42-1.01-7.22-.69-11.41.95,1.02,3.31.17,4.28-3.98,4.45-.97-3.17-11.69-5.09-10.27-2.54,3.61,6.47-.33,10.12-6.94,11.62,2.05,4.11,2.96,5.09,7.01,7.88-.14,4.3,2.82,7.34,6.7,9.32,1.29,2.68.92,5.69-2.7,5.68l-3.81-.23c-19.83-15.91-49.04-15.53-72.23-13.33-18.64-13.07-30.76-15.93-53.6-20.34l-3.47,1.56c-20.72-8.57-42.24-9.3-64.14-5.64l-2.2-1.57c-4.66-.2-9.14-2.92-13.13-3.88-3.49-.84-18.71-4.03-21.15-4.03h-26.18c-1.16,0-8.83-1.28-10.66-1.63-3-.59-7.66-2.01-9.9-4.02l1.65-2.4c39.25-11.27,70.25-45.89,78.1-82.79,15.07-70.86-25.48-135.11-72.66-188.88-4.04-8.13,8.25-7.38,11.61-1.63Z"/>
  <path class="st53" d="M712.08,105.36c6.28,17.91,5.97,40.57-2.49,57.63-1.08,2.97-3.46,7.17-4.99,10.17-12.64,16.27-26.21,32.07-40.71,47.39-44.24,44.43-24.54,109.84,39.46,120.97,19.88,6.84,35.27,4.35,54.85,0,17.38-5.46,29.36-17.54,34.47-33.65,8.39-26.48-6.93-54.24-39.45-46.57-1.86.59-4.03.32-6.52,1.43-9.71,4.31-11.17,12.14-11.55,21.17-20.67-17.89.23-39.66,23.69-41.79s39.01,5.97,52.97,22.59c11.77,18.81,9.94,42.33-1.25,61.02-30.26,38.52-73.49,49.3-122.83,33.94-61.89-19.26-87.35-75.36-62.73-130.39,11.73-26.21,35.84-43.73,43.45-71.91,3.75-3.2,4.24-9.48,4.59-14.48,1.23-17.91,1.95-31.75-5.41-48.69-5.59,1.66-7.32-3.34-2.49-6.12-18.46-36.76-77.43-44.45-112.4-22.96-12.82,7.88-18.71,17.68-25.83,29.57-20.68,34.49-35.1,67.41-33.22,107.13-1.75,17.82-10.33,33.46-25.38,44.56-.92,4.22-2.77,6.57-5.55,7.05,2.1-24.32,14.42-50.01,16.25-73.97.82-10.69-.75-19.86-9.99-27.19-2.18-1.73-6.43-2.94-7.61-4.4-3.97-4.93,1.99-33.43,4.19-40.45,35.26-112.5,215.65-117.58,246.47-2.01Z"/>
  <path class="st52" d="M589.92,1035.28l6.16-3.1c33.42-4.64,67.08-13.97,96.33-27.44,6.4-2.96,16.77-6.61,12.45,3.84-12.63,21.76-26.56,42.84-41.79,63.24-12.45,18.26-23.21,37.67-28.49,58.73l-3.52,4.16c-3.04,22.36-3.08,45.36,0,67.79l2.87,1.32c8.23,25.42,23.38,58.21,56.97,58.57-.14-2.62,5.27-1.86,5.93-.48,4.26,8.9-26.27,13.25-32.9,13.75-1.5,1.28-3.73,1-6.69-.84-12.78-3.96-27.18-21.75-38.06-29.34-2.36-1.64-4.81-3.73-8.07-3.41,4.27,6.41,6.73,13.78,10.57,20.35,9.26,15.83,20.39,23.06,34.31,35l1.76,2.53c-.06,2.06-9.56,3.93-11.86,4.08-.54,3.18-4.32,2.82-7.35,2.43-1.22,2.69-4.51,2.45-9.86-.74-.94,5.23-6.98,4.03-6.04-1.48-10.23-4.53-24.94-12.31-28.98-21.51-1.31-1.11-6.88-5.65-7.16-6.01-1.52-1.94,1.93-4.22-4.05-1.91,2.28-4.11-1.42-4.92-2.44-6.5-3.66-5.68-7.05-9.94-9.15-16.38-.84-2.58,2.38-3.57-3.37-3.11l2.47-2.23c-1.85.41-4.76-4.31-5.4-5.68-2.67-5.74-3.61-12.95-6.18-18.34-3.13-6.57-3.46-10.69-3.77-17.08-.07-1.48-2.15-2.85-1.84-4.46.24-1.22,2.68-2.48,2.33-4.67-.15-.93-3.03-.81-3.66-2.46-.77-2.03.06-4.99-.16-7.21l2.46,2.25,2.51-4.5-4.98,1.11c-.63-.53,1.47-12.48,1.28-14.05-.13-1.09-5.7-.36.03-2.39l-1.32-13.42c3.49-10.35,5.55-24.88,9.57-38.02.71-2.34,6.27-13.29,5.13-14.46-.52-.54-2.73.64-2.21-1.26,7.14.85,3.53-.97,5.29-5.89,3.3-9.2,7.35-18.65,10.56-26.53,1.68-4.12,5.2-1.64-.89-6.01,6.26,3.36,3.22-4.1,4.38-7.9,1.85-6.07,7.43-13.13,6.84-20.36Z"/>
  <path class="st55" d="M688.4,1054.49c2.04-2.81,5.42-3.81,10.12-2.99,5.22-10.68,12.8-1.04,4.44,4.42-4.19.38-4.57,3.22-3.35,6.48-31.56,43.89-57.1,104.39-26.83,154.82,32.01,53.33,97.52,37.34,130.08,78.7,13.77,17.49,19.88,42.74,17.51,64.08-2.5,22.59-23.18,47.05-4.83,69.06,9.55,11.46,20.21,12.44,34.66,13.3,1.01.06,3.89-1.14,2.73,1.38-3.82,8.26-24.26,11.51-32.97,11.93-19.59.94-44.23-2.54-56.77-17.56-18.14-21.73,2.16-42.02,1.33-64.39-1.02-27.42-24.76-45.57-52.76-51.82-2.37-.53-5.34.5-5.73.29-.66-.35-5.47-10.12-7.13-12.25-11.06-14.21-27.61-23.7-41.68-35.1.21.06,1.76-1.01,3.73,1.13l.02-3.41c1.1.24,1.86.84,3.12.87,4.23.11,21.76-3.85,25.81-5.47.79-.31,3.97-3.55,5.96-3.87-.87-1.31-3.67-1.06-4.98-1.69-9.76-.06-19.19-9.04-25.5-15.56-19.19-19.81-26.6-47.36-27.48-73.21-.21-6.11.05-28.55,2.52-32.69.73-1.23,1.7-2.2,3.09-2.84,2.67-16.47,8.48-32.29,17.45-47.46l-1.23-2.6c3.24-5.6,21.55-32.66,25.89-34.54.79-.34,1.93.42,2.77.99Z"/>
  <path class="st18" d="M723.3,961.83c-4.49-7.32-1.55-12.69-2.74-20.58-4.17-27.78-34.05-60.52-58.42-75.95-43.79-27.72-100.91-28.18-137.68-63.9-34.76-33.76-41.99-95.14-23.72-135.59,9.42-20.85,24.16-35.06,48.03-42.54,2.73-.85,4.58-1.34,7.44-2.19,13.45-4.04,27.53-6.93,40.8-11.66,2.76-.82.62,2.58,2.87,2.13-.03-1.89.17-3.21,1.97-4.44,5.28-3.6,22.09-8.97,29.41-12.64,21.23-10.64,45.67-25.14,58.42-44.47,3.12-4.73,5.25-11.13,8.69-15.85l1.25,6.22c-25.8,95.89-164.69,71.39-172.01,165.54-2.24,28.82,7,54.46,25.15,77.74,29.45,37.79,75.02,42.78,117.79,61.59,65.74,28.91,98.09,95.54,69.57,158.37-10.61,23.37-25.94,38.52-40.5,58.77-.59-1.76-4.16.65-4.98,0-.43-.35,1.2-1.86,1.3-2.73.04-.38-4.24-1.09-2.54-4.04,2.09-.55.41,3.53,3.09,2.25,1.18-.56,1.25-2.66,2.87-3.41,2.08-.97,5.11.66,6.46-1.67-2.6-.94-1.03-3.82-1.21-3.94-2.73-1.9-2.26,3.64-5.31,4.84-2.43.96-6.01-1.28-10.9.8-1.15-1.21-1.92-2.48-.88-3.75,11.78-15.87,22.28-32.52,31.15-50,2.27-4.48,4.53-8.97,6.29-13.62,3.22-8.5,3.5-15.61-3.06-22.97l1.41-2.33Z"/>
  <path class="st36" d="M655.99,1297.42c25.4,21.8,40.08,33.86,36,69.35-4.24,36.8-46.68,43.75-56.31,68.73-9.4,24.4,13.47,40.98,36.5,47.27,1.14,1.47-3.34,5.72-4.71,6.67-14.68,10.22-40.74,11.73-57.89,6.55-10.89-3.29-17.85-10.44-29-13.26-1.28-.32,1.01-1.95.62-2.25-2.71-2.1-1.96,3.22-4.35,2.24-1.93-.78-13.42-11.67-14.9-13.63-2.8-3.73-3.76-8.43-6.33-12.38-.42-.64-1.14-4.32-3.1-2.22-1.2,1.29,5.06,20.81,6.52,24.02,1.21,2.65,3.17,6.91,4.87,9.15,2.06,2.72,5.2,2.15,4.8,5.24-5.7-.3-11.81.44-17.45,0-1.14-.81-3.2-1.6-6.16-2.37-1.8-1.75-6.49-32.52-6.7-35.81-1.17-18.19,0-33.12,14.78-46.89,2.91-2.71,10.29-9.46,10.55-3.06,1.99.7,2.72,2.3,2.18,4.78,2.61.94,3.98,3.85,4.13,8.74,2.06,4.63,11.73,25.69,12.79,26.79.33.34,3.41-7.03,2.69-8.62,4.79-8.15,10.15-15.67,16.08-22.55,11.82-5.84,23.43-11.98,34.83-18.41,9.7-2.47,12.21-7.86,15.15-16.37,2.68-7.75,3.14-26.58,1.77-34.53-4.53-6.83-6.61-13.61-6.24-20.35-3.27-2.35-11.13-9.65-11.9-13.32-.68-3.24-.43-4.47,3.31-4.46.15-.46,1.03-1.05,1.36-1.69.71-1.41-.23-2.72-.11-2.81,3.3-2.56,1.61,4.02,3.73,3.37-.9-4.68,1.56-2.94,4.94-3.96,2.17-.66,8.34-1.24,7.54-3.94Z"/>
  <path class="st41" d="M424.12,1308.72c27.84,21.1,66.84,37.01,69.8,74.57-4.22-1.62-4.41-6.14-6.66-9.21-48.59-66.11-218.37-66.32-189.67,41.98,3.56,13.44,8.63,17.2,3.72,32.73-8.48,26.76-43.17,31.35-69.15,32.8,3.28-2.81,7.54-5.1,11.35-7.28,1.27-.73,3.38-.31,4.51-.95.85-.48,11.47-12.35,12.6-13.99,2.73-3.97,2.36-10.92,8.93-10.57l-2.46-1.64c9.81-15.84-4.15-34.47-6.16-49.85-2.79-21.46,3.86-46.9,18.57-64.04,4.94-5.76,8.96-6.9,15.26-9.97,14.41-7.03,30.52-9.79,46.39-14.69,2.93-.9,12.5-3.16,13-3.6s0-1.86.18-1.96c4.91-2.88,37.03-3.2,43.99-1.8,9.18,1.85,16.71,5.69,25.82,7.45Z"/>
  <path class="st47" d="M485.2,277.11c3.12-1.6,6-4.43,9.32-5.65,6.4,1.34,3.08,21.57,1.79,25.32-6.48,18.77-42.76,32.37-57.89,49.22-27.06,30.15-24.51,80.66,14.08,101.42,30.51,16.42,71.28,2.83,102.51-5.34,3.79,4.77-5.89,2.06-6.24,2.27,2.8,3.47-2.19,2.82-4.63,3.88-12.68,5.51-24.21,6.35-36.07,10.6-3.21,1.15.04,4.29-5.4.2-.44,4.86-3.2,1.97-5.32,2.53-5.32,1.4-20.56,5.37-25.25,5.01-1.27-.1-2.35-2.31-3.09-1.87-.11.07.37,1.97-.84,2.25-51.92,12.36-71.72-34.68-69.79-72.71.27-5.38,7.21-22.22,5.17-25.61-1.6-1.89-1.33-.57-2.52-.02-19.18,8.82-41.08,7.45-61.69,3.42-.09-5.21-2.33-16.48-4.36-21.47-.89-2.2-3.36-3.24-3.11-5.64,3.07,1.31,7.57,2.64,10.86,3.11,17.41,2.47,43.51,2.5,59.78-4.03,1.87-.75,17.57-9.43,15.34-11.5-24.6,6.41-62.75,5.28-86-4.52-2.62-1.49-6.07-2.64-10.34-3.43-15-3.19-10.23-13.42,3.73-9.94,2.75.69,10.23,3.75,11.6,5.46.38-2.03,2.04-1.65,4.99,1.13l2.24-1.91c.42-.13,6.65,1.84,6.49,3.04l5.42-1.49c26.97,4.95,50.33,2.23,76.42-3.43,6.78-1.47,21.58-6.1,24.07-11.8,4.7-.32,7.91-3,11.28-5.89l-.09-2.52c4.55-2.38,5.58-8.73,6.1-13.01,4.04-2.21,7.85-4.56,11.44-7.07Z"/>
  <path class="st32" d="M321.9,191.23c42.43,8.99,85.75,9.66,129.64,2.26,4.68-.88,1.44,8.4.85,11.51-2.12,11.16-6.42,22.34-9.19,33.48-1.61,6.48-4.72,30.44-7.83,33.58-2.71,2.73-9.62,3.66-13.7,4.53-21.39,4.56-57.13,6.71-77.99.56-17.69-5.21-12.18-11.52-14.31-25.45-3.21-21.03-7.28-42.13-14.91-62.21-.18-.78,2.36-.38,2.46-.51"/>
  <path class="st18" d="M462.77,253.38c.29-.84,2.92-7.5,3.16-7.87,1.51-2.37,9.89-8.17,12.34-11.41,19.07-25.22,11.07-47,16.22-73.43,3.94-20.26,26.88-63.93,39.56-81.65,26.93-37.66,102.66-37.32,129.22,1.11.64.92,5.02,8.39,5.18,8.87.27.83-4.91,1.04-3.72,3.94l4.97-2.25c.5,7.72,4.76,14.57,6.11,22.14,1.97,11.02.9,22.69-1.27,33.64-.58,2.95-.99,12.54-6.09,10.88,18.09-66.97-62.44-103.28-117.76-59.85-20.13,15.8-30.95,39.5-35.23,62.98l-2.83,20.6c-1.34,3.13-1.07,9.27,0,13.56-.06.9.03,4.48-1.25,4.52-1.32,3.37-.73,8.4,0,12.43-3.29,25.15-26.45,45.14-50.51,55.35-3.3.23-1.24-.49-.87-1.92,1.01-3.86,1.54-8.04,2.76-11.63Z"/>
  <path class="st17" d="M477.72,1329.06c-.7-3.65,2.03-1.89,4.35-2.22,23.28-3.25,54.59-.48,71.69,15.78,7.66.86,12.9,12.39,15.34,18.88,4.08,10.87,3.88,19.56,1.95,30.69-.56,3.23-4.07,11.65-7.32,12.57-2.39-1.85-2.84.04-4.34,1.11-22.09,15.72-20.67,39.52-16.51,62.42.8,4.38,3.23,18.57,4.6,21.62.73,1.63,4.79-.57,3.78,2.99-20.51-1.57-37.72-10.97-44.57-29.09-11.36-30.05,10.3-54.01,6.83-81.9-2.79-22.44-16.84-39.55-35.81-52.85Z"/>
  <path class="st37" d="M416.65,1394.58c17.98-6.33,18.35-24.98,13.71-39.53,14.12,3.53,26.5,11.78,35.4,22.19.37.43,1.33.47,1.97.45-13.95,15.01-10.67,43.15-32.94,50.86-13.46,4.66-43.85,4.14-52.36-8.02-6.84-9.77,8.03-26.02,12-35.34,4.94-11.58,6.96-25.04,2.28-36.93,21.43,6.07,20.81,29.5,19.94,46.32Z"/>
  <path class="st26" d="M506.4,503.09l2.48-3.36c.74,5.93,2.62.4,3.4,0,1.18-.6,10.88-2.72,13.51-3.36,14.33-3.5,38.46-8.04,51.89-3.09,36.04,13.26,35.11,43.32,12.14,67.65-27.69,29.34-68.19,39.86-108.36,46.1,29.52-13.59,65.98-16.75,87.78-41.9,23.01-26.53,10.46-49.76-23.01-59.18-13.69-3.85-25.88-3.44-39.84-2.87Z"/>
  <path class="st12" d="M424.12,184.45c-30.19,1.49-63.41,2.86-92.68-5.85-5.85-1.74-12.78-3.92-17.02-7.71-1.56-.96-5.97-3.39-3.71-5.06,1.51-1.11,6.07-3.24,8.04-4.02,30.59-12.08,100.08-12.32,130.16.73,5.86,2.54,9.84,4.76,6.52,11.21-3.53,6.84-23.79,8.94-31.31,10.7Z"/>
  <path class="st23" d="M356.81,299.7c-.53,2.37,1.95,4.37,4.67,5.22,4.09,1.27,14.24,3.61,17.2,0,5.69-1.17,12.08.54,17.56,2.23,3.3.28,9.83.04,12.27-2.07,5.48.39,10.69.47,15.62.23,3.16-3.18,5.75-5.13,9.68-2.24l2.61-2.59c6.34,1.59,12.25.09,17.74-4.51,4.92,1.23,9.45,2.47,13.59,3.74-.07,2.15-4.7,6.77-6.29,7.39s-3.56-.75-3.68-.62c-.22.24.59,2.15-.81,3.48-3.4,3.23-22.34,9.3-27.81,10.73-25.48,6.67-51.7,5.81-78.59,1.61-.96-1.71-2.27-1.64-4.15-1.38-1.65-2.59-3.93-3.9-4.57.25-1.77-.36-3.29-.75-4.99-1.13-4.99-2.38-7.86-5.52-8.63-9.42-9.58-2.68-23.97-10.16-16.13-19.93l11.04,1.1c10.69,5.02,21.93,6.39,33.66,7.91Z"/>
  <path class="st9" d="M704.6,173.15c-19.14,37.77-57.71,57.08-53.58,104.5,2.33,26.77,24.61,54.32,52.34,63.86-2.85-.17-6.17,1.94-8.13,2.26-.65.11-.34-1.87-1.48-2.22-17.1-5.14-25.64-9.27-37.73-22.1-21.11-22.41-24.4-47.72-11.26-74.56,13.62-27.83,38.54-45.9,56.78-70.62,1.24-1.68-.51-3.39,3.07-1.11Z"/>
  <path class="st17" d="M331.88,327.95c-24.41-2.09-50.95-28.98-39.74-51.04,1.83-3.6,4.93-2.62,7.57-3.49,2.25-.74,5.86-4.47,8.2-1.7,2,2.36,2.74,9.85,7.22,14.36,1.79,1.8,7.86,4.78,8.03,5.72.02.1-1.06.56-1.22,1.03,5.46,1.09,6.58,1.97,4.95,6.87-2.43.39-.52-2.6-1.32-3.3-.6-.52-3.23.4-4.61-.34-1.73-.92-2.25-5.1-9.02-3.13,1.25,1.81.06,3.86.71,5.59,1.35,3.57,10.8,8.45,14.55,9.46,3.22.87,3.93-2.66,3.46,4.16l2.49.55-2.5,1.13c.16.43,9.61,3.16,6.23,6.22-1.31-.29-3.4.2-5.28-.25-3.53-.85-7.82-4.21-11.58-4.15-2.81.05-8.06,3.32-4.83,5.62,2.36,1.68,12.65,3.34,15.8,4.45,1.49.53.78,2.18.9,2.23Z"/>
  <path class="st15" d="M485.2,277.11c.73,3.47-7.42,4.2-8.46,5.87-1.16,1.87-.68,5.02,2.21,4.32v1.1c-8.4.78-.72,6.53-11.21,11.31-4.26,1.94-3.71,3.75-8.11-1.13l-1.23,2.25c-1.66-3.9-7.15-2.78-5.62-1.14.39.42,2.98-.93,2.49,1.13-6.69-1.43-11.9,6.06-18.08,1.16-2.36,6.84-7.53.81-8.03,1.15-.22.15.34,3.25-3.79,2.23l2.48,2.24c-1.38-.39-4.63,1.19-4.86,1.01-.56-.43.79-2.59-1.35-2.13,1.31,8.26-6.9-4.65-8.76,3.38h-1.21c-1.5-6.31-5.26.02-5.71.04-2.88.12-7.36-3.78-8.64,1.12-.09-3.07-16.57-4.66-17.46-4.38-.71.22-.42,2.02-1.36,2.08-1.79.12-6.93.73-7.32.71-2.65-.08-8.05-4.96-11.87-.7.89-5.74-3.37-3.15-5.98-3.76-.24-.06.06-1.98-2.09-2.04-4.1-.11-4.03,2.08-8.13-1.01,2.51-4.48,10.04,1.34,13.7-2.24,42.07,5.44,91.32-3.57,128.4-22.6Z"/>
  <path class="st45" d="M753.22,261.29c8.14-2.57,13.29-5.3,22.74-2.19,1.15.38,12.85,9.15,13.8,10.38,16.44,21.35,5.05,56.55-19.17,69.13-5.47,2.84-7.61,1.84-12.38,2.9,7.34-5.14,15.35-9.66,21.16-16.41,21.45-24.94,12.79-63.14-26.15-63.81Z"/>
  <path class="st38" d="M417.89,652.24l-6.21,27.7,1.25,27.09-2.51-1.68c.75-18.35-2.07-35.97,7.48-53.11Z"/>
  <path class="st25" d="M512.63,181.06c.17,4.33.27,9.26,0,13.56-4.04-4.79-.17-12.64-1.23-18.07,2.19-.23,1.18,3.19,1.23,4.51Z"/>
  <path class="st25" d="M511.38,199.14c-.36,3.99.51,8.54,0,12.43-2.76-3.61-.61-9.34-1.23-13.56,1.42-.2,1.15,1.13,1.23,1.13Z"/>
  <path class="st1" d="M719.56,960.7c1.19.4,2.64.38,3.74,1.13,4.99,8.12,7.52,8.47,5.91,19.48-1.71,11.68-21.7,44.56-29.1,56.1-3.59,5.6-9.15,10.89-11.71,17.07-5.21,2.22-23.51,29.87-27.42,36.16-9.41,15.43-15.23,31.24-17.45,47.46-9.1,43.61-.31,101.34,47.37,124.29-6.81,3.87-17.44-.63-23.76-3.89-16.84-8.68-32.31-39.09-36.08-56-.46-5.96-.87-11.79-1.25-17.51-1.81-10.79-1.51-23.85,0-35.03.85-5.1,1.27-10.18,1.25-15.25,9.63-44.77,40.4-75.68,63.79-113.36,3.52-5.66,6.84-11.76,9.75-17.7-2.03-1.7-24.65,9.24-28.69,10.71-28.93,10.52-55.15,17.09-85.99,20.92-48.24,5.99-99.14,7.04-147.51.94-35.52-4.48-72-12.16-106.79-16.76-1.72,2.85-3.22,2.05-2.49-1.13-4.56-1.3-8.78-8.73-6.23-12.43.03-3.22,21.33.33,22.32.91.86.5,1.15,1.55,1.37,2.48l-1.01.5c12.11,1.43,24.09,2.77,35.91,4.02,5.08-2.79,17.53.33,21.19,4.52,16.43,4.07,33.06,6.33,49.86,6.78,2.67-3.39,16.63-2.15,17.45,2.26,20.69.56,42.3.93,64.82,1.13,22.04-1.28,42.41-3.54,61.08-6.78-1.14-3.32,6.09-5.42,7.48-2.26,13.42-.38,29.25-4.44,41.14-9.04l3.75-3.52c16.58-5.33,32.31-11.59,47.2-18.78,3.71-1.58,7.56-2.25,9.41,1.67,8.18-13.89,6.61-19.23-11.08-24.17-24.1-6.72-50.07-4.51-74.94-2.37-42.37,5.96-84.68,11.5-126.92,16.63-50.62-.35-101.24-.66-151.86-.92-11.41,1.6-22.54,1.92-33.39.94-.31,1-.72.98-1.25,0-4.1-.11-5.51-8.1-2.49-10.17,27.77-5.24,56.87-5.88,85.26-5.84,73.24,5.86,144.01.17,215.91-12.97,37.49-4.42,79.08-9.26,111.45,9.77Z"/>
  <path class="st20" d="M278.27,974.26c3.41,1.49,5.81,10.28,2.49,12.43,1.08.38,1.08.75,0,1.13-1.51,1.85-4.06,3.27-7.66,4.27,4.2,1.57,7.17,3.53,8.91,5.9,2.42-2.12,3.03-1.87,2.49,1.13,3.97,2.29,8.3,9.62,7.48,13.56,1.09.32,1.07.7,0,1.13-2.6-1.45-8.25-2.89-11.21-1.7,30.33,37.84,61.06,73.07,72.14,119.91,9.13,38.6,8.98,84.83-18.6,117.33-11.95,14.08-40.93,39.27-61.03,40.16-2.3.1-4.2-.05-6.46-.33-.62-.08-5.95-.47-4.15-1.94,24.05-8.56,48.79-26.66,62.97-46.32,9.99-9.6,16.05-29.61,18.43-44.85l1.52-1.48-1.03-2.3c2.56-18.88.54-37.82-2.71-56.46-6.19-21.88-15.29-42.93-28.67-62.15-15.22-20.37-33.67-39.83-47.37-61.02l-.08-1.82c-6.31-7.45-9.19-15.5-8.65-24.17,1.23-2.75,4.97-5.98,7.48-7.91,4.33-2.85,8.9-4.35,13.71-4.52Z"/>
  <path class="st48" d="M448.91,723.3c-.47.52-2.86-.7-2.34,1.23,1.51,1.14,6.04-.22,6.22,0,.23.28-.17,3.36.29,4.82,12.44,39.23-29.37,102.83-65.19,124.49-8.37,5.06-25.21,10.65-34.07,3.9-1.4-1.07-4.54-6.58-3.92-7.8.57-1.14,7.77-8.22,9.38-9.6,7.57-6.51,17.66-11.9,25.6-18.6,17.04-14.39,37.97-39.68,44.58-59.93,3.15-9.63,2-21.89,6.49-31.62.51-1.11,5.47-8.46,5.94-8.73.26-.15,5.66-1.62,5.88-1.43.14.12,1.25,3.13,1.13,3.26Z"/>
  <path class="st19" d="M264.56,978.78c4.24-3.27,7.75-5.42,13.72-5.66-1.19-7.39-3.45-15.68-3.8-23.1-.56-11.9,2.77-31.12,7.46-40.8,1.25-2.58,5.79-10.57,7.53-12.38,6.43-6.68,32.58-22.24,37.78-8.47,2.41,6.38-9.39,12.8-13.09,18.42-6.16,9.36-11.8,27.99-11.78,38.8,0,2.63,1.88,18.4,3.17,20.1,2.05,2.71,38.81-6.06,45.02-1.6-14.74,2.04-29.98,3.3-44.88,4.52l-2.81,2.73-20.74,4.2-3.87-1.27c-4.68,1.38-9.12,2.95-13.71,4.52Z"/>
  <path class="st11" d="M639.37,465.06c17.14,10.57,33.28,31.99,31.62,52.19-1.21,14.69-13.32,45.19-27.24,53.56-3.93,2.37-6.79.28-6.48,3.45-2.4.55.02-2.5-2.46-2.24.61,4.8-5.76.84-6.26-1.72-.12-.6,2.44-.46,2.41-1.01-.05-1-1.52-2.47-1.22-4.44.23-1.48,10.75-10.4,11.22-11.05.6-.84-2.81-2.2,1.82-5.09,1.02-.63,2.76-.28,3.11-.53.25-.18-.75-3.67.2-5.78.51-1.13,2.22-1.04,2.8-2.27,1.52-3.22.18-9.88,4.59-9.94v-1.1c-.43-.24-2.24.51-2.5-.68-.62-2.94,2.25-16.28,2.34-20.3-3.95-1.39-2.33-5.26-3.85-8.62-4.06-8.93-16.79-19.31-25.13-25.33-2.06-1.49-8.83-4.06-10.39-5.34-1.3-1.07-3.47-6.27-2.91-7.99.24-.74,8.55-2.76,10.34-2.68,5.12.24,13.67,4.25,17.99,6.92Z"/>
  <path class="st16" d="M236.74,1306.8c5.85,7.25-4.83,12.16-8.84,16.7-13.38,15.16-13.76,35.1-7.59,53,1.56,4.53,10.11,13.91,2.34,17.94-4.37,2.27-7.31,1.88-10.47-1.58-2.89-3.17-9.13-12.88-10.33-16.58-2.58-7.98-3.85-22.56-2.2-30.77.26-1.29,2.78-.52,3.81-.66.55-1.87-2.3-.53-2.58-1.82-1.62-7.48,13.76-34.88,21.81-37.79,3.95-1.43,11.25-1.89,14.03,1.56Z"/>
  <path class="st29" d="M464.88,644.68c.49.41,7.02,9.28,7.22,9.84.09.24-.88,4.72-1.01,4.94-.9,1.55-2.68,1.54-3.31,2.71-3.29,6.17-12.28,32.9-15.24,34.96-1.35.93-6.15-.69-7.23-2.53-.33-.56,4.91-.55,1.24-2.27-1.34-.63-4.75.02-6.22.58l1.23-6.77-3.72,5.64c-.54-9.29-.69-16.88,1.85-25.99s5.06-13.85,13.08-19.78c4.2-3.1,7.18-5.42,12.1-1.34Z"/>
  <path class="st39" d="M699.62,950.53c5.5,1.44,16.3,6.1,19.95,10.17-17.74-5.97-25.99-11.27-46.69-12.48-57.92-3.37-116.95,14.43-174.59,18.11-29.85,1.91-55.54-.54-84.7-1.16-35.6-.76-71.47-.3-106.63,4.57-1.7,1.57-2.44.88-1.25-1.13,14.9-2.29,29.78-4.1,44.88-4.52,4.36-.12,10.38,1.02,13.71-1.13,30.41-.73,61.15-.18,92.23,1.65,50.15.29,97.49-6.53,146.65-14.23l4.21.14c11.67-2.36,24.25-4.29,36.15-3.39,3.21-.16,8.3-1.11,9.97-1.13,15.01-1.26,31.96-.28,46.12,4.52Z"/>
  <path class="st50" d="M606.12,949.4c.98.06,1.48.14,1.25,1.13-26.11,2.88-51.09,8.17-76.84,11.14-43.41,5-87.14,3.65-130.7,2.41-2.38-.07-4.79-1.1-7.44-1.16-9.34-.24-18.76.15-28.1.05-3.11-.04-6.25.09-9.37,0-1.08-.03-4.49.47-2.47-1.14,19.11.41,38.29-.51,57.39-.04,22.92.57,45.47,3.05,68.57,2.36,42.99-1.28,85.32-9.73,127.71-14.74Z"/>
  <path class="st51" d="M343.09,1193.47c1.14,11.9-3.99,27.15-11.22,37.29-2.57-.72.07-3.33.64-4.51,9.39-19.69,11.94-44.76,10.57-66.1-.4-6.14-4.47-14.05-1.23-19.79,3.98,17,6.12,36.41,1.25,53.11Z"/>
  <path class="st6" d="M345.59,1194.6c-1.87,2.85-2.18,1.66-2.49-1.13,2.05-17.59,1.95-35.53-1.25-53.11-.28-1.52-.91-3-1.25-4.52.35-.99.77-.97,1.25,0,4.86,20.6,6.64,37.6,3.74,58.76Z"/>
  <path class="st43" d="M341.85,1135.84h-1.25c-5.05-22.68-15.69-41.89-27.42-62.15,15.3,20.47,22.95,37.88,28.67,62.15Z"/>
  <path class="st7" d="M345.59,1194.6c-2.03,14.81-8.01,31.63-16.41,44.45-.35.54-2.84,4.25-3.54,1.88,2.03-2.82,4.59-7.12,6.23-10.17,6.83-12.67,9.59-23.31,11.22-37.29l2.49,1.13Z"/>
  <path class="st5" d="M653.49,946.02h-8.72s0-1.13,0-1.13h30.54c5.82,0,15.8,2.64,21.78,4,1.04.24,5.75.38,2.53,1.65-11.79-3.09-33.67-4.68-46.12-4.52Z"/>
  <path class="st5" d="M606.12,949.4c11.14-1.32,21.97-3.04,33.92-3.73,2.13-.12,3.99-2.44,3.48,1.47-12.37.63-23.95,2.04-36.15,3.39l-1.25-1.13Z"/>
  <path class="st22" d="M265.81,1012.68c-4.87-7.52-12.62-17.27-8.73-25.99,1.74,3.5.12,6.13,1.59,10.4,1.34,3.9,4.48,7.31,6.53,11.05.62,1.14,3.09,3.88.6,4.54Z"/>
  <path class="st49" d="M593.66,1282.73c6.01,5.12,19.12,14.53,26.55,18.34,3.87,1.98,5.65-.99,4.62,6.51,2.61.26.58-3.91,1.24-4.52,1.83-1.7,9.57,4.4,12.46,3.4-.52,1.64-1.89,2.06-.65,4.46,1.87,3.61,8.24,9.65,11.45,12.75-2.51,5.29,6.47,19.48,6.48,20.58.07,8.49.72,17.69.3,23.78-.55,8.2-2.2,14.8-7.6,21.49,6.43,2.03-3.43.94-.02,6.2-.25.25-2.32-1.27-4.05-.94-5.6,1.05-22.34,11.47-28.01,14.47-2.45,1.3-12.77,5.22-13.9,7.05-.52.83,3.35,5.67-3.88,3.14,1.1,4.77-4.46,6.71-7.26,10.94-1.83,2.75-6.29,9.72-1.45,9.97-4,1.76-4.62,2.39-2.5,6.21-6.74-1.27-1.02,3.3-4.39,4.52-2.54.92-1.93-2.01-2.26-3.27-1.77-6.82-4.68-13.04-7.43-18.47-2.72-5.37-8.72-12.4-5.86-17.79-5.06,1.21-4.18-2.9-3.75-6.79.56-5,3.76-8.51,4.89-13.07,4.27-17.29-1.4-36.28-14.86-49.07l1.24-4.51c-4.7-1.13-5.63-.24-3.74-4.53l-3.72,2.25c2.73-6.06-.36-2.03-3.79-2.92-2.5-.64-5.37-4.84-8.67-5.01,3.8-5.11,4.57.92,6.16,1.75s5.75-2.77,5.06,1.65c1.84.43,1.54-2.07,1.22-2.81-1.38-3.13-5.69-.1-6.21-.58-.45-.41,2.27-3.94-.13-7.21-2.35-3.2-9.39-3.3-9.87-7.46l-4.94,7.34,8.68,3.95-2.48-4.51c.2-.14,4.72.41,4.98.54,2.57,1.23-2.61,3.52-2.13,5.12l-5.35,2.23,2.49-3.37c-6.09,1.67-10.16-1.25-16.2-1.15l3.75-1.13c-3.73-5.27,5.97-2.92,2.49-10.16,9.09,5.39,11.72-8.77,18.48-.38l3.31,7.15c.44-4.11,8.66-6.13,3.51-9.16-.72-.42-4.83-.37-6.59-2.15,1.65-4.83,5.91.47,6.21.02,1.75-2.63-4.29-3.26-5.55-4.48-.13-.13-.85-3.3-.68-3.38,1.04-.54,4.1,1.02,3.74-1.16-1.93-1.46-7.24.26-7.46-.01-2.13-2.71,4.02-3.55,6.21-2.27.64-1.98-2.99-.54-2.48-1.68,1.2-2.7,4.97-.22,6.27-1.04,2.18-1.38-.16-5.18,2.44-5.17l6.22,10.76-7.44,6.18c8.36-5.37,4.86-.15,6.21.59l3.39-.33,4.09,4.25-2.48-5.64,8.72-.57-6.83-1.7c-2.74-.28,3.01-5.65,4.32-4.52,2.21,1.9-2.12,6.27,7.49,3.4l-.62,3.36c.74-.92,2.71-1.96,3.1-2.82,1.11-2.39-3.98-1.48-2.48-2.79.22-.19,4.45-3.22,4.73-3.37,1.69-.94,7.13-.46,5.23-3.44-.14-.21-3.19,2.74-2.48-.54,1.64-1.54,7.49-5.39,5.77-.43-.76,2.2-3.59,4.26.44,5.5l2.52-12.42c1.55-.33,2.56,4.56,2.55,5.01-.02.92-3.9-.05-2.55,2.89,1.92-.53,4.84-1.77,4.47-3.93-.21-1.22-3.98-3.86-.74-5.11Z"/>
  <path class="st2" d="M333.12,1018.33c.14.02.92.92,2.49,1.13.51,1.89,1.26,4.37,2.47,5.94,31.19,40.43,49.87,60.01,56.98,112.51,3.27,24.15,5.95,70.55-11.28,89.48-.4.44.39,1.89.21,2.06-.88.82-3.96.66-4.56,1.49-.64.9-.8,7.93-2.7,9.98l-1.85-2.26-3.11,2.28-.63-3.41-3.1,3.39c.21-2.45-.39-2.42-2.49-1.11.62-2.6-2.4-6.83-2.47-8.56-.02-.53,2.33-.35,2.32-.97-.23-13.21,4.3-26.2,4.81-39.68,2.38-62.86-13.24-106.11-55.76-154.76-4.1-4.69-17.61-19.33-22.46-22.02v-1.13l4.42-1.29c10.94,1.96,21.98,3.37,33.12,4.23l3.6,2.71Z"/>
  <path class="st49" d="M579.93,1277.09l-2.49,2.26-3.73-1.13,3.73,4.5c-2.51.74-5.87.08-8.19.99-2.09.82-3.88,5.06-5.52,3.54-.45-.42,5.5-8.89,3.12-11.28l-4.38,11.29c-6.42-4.91-4.19-.64-4.99,0-1.37,1.1-3.81-3.47.79-4.25,2.11-.36,7.17,3.22,2.89-3.94-.78-1.31-3.37-.13-2.42-3.1,2.54,1.07,8.61-2.28,9.39-2.19,1.41.16,1.61,4.33,3.05,3.3.28-.67,2.3-4.38,2.54-4.5.37-.18,7.49,2.62,6.2,4.52Z"/>
  <path class="st49" d="M506.4,1320.02l-3.11,3.4.61-2.26-4.35,2.25c-2-1.24-1.05-4.6-5.61-3.38l2.48,2.24-6.24-1.13,1.27-5.64c3.99,3.64,9.52,3.24,14.95,4.53Z"/>
  <path class="st49" d="M517.61,1313.22c-.46.42-3.87.28-4.76,1.44-1.72,2.27,2.69,3.89-5.22,1.98,1.01,3.9,8.45,5.17,1.89,6.76-1.81-.38-3.95-8.09-3.12-9.03.67-.77,3.97,3.86,3.71-1.72l6.89-1.66c1.07-.15.7,2.15.61,2.23Z"/>
  <path class="st49" d="M503.9,1309.85c2.4,1.72-2.35,2.38-2.51,3.02-.29,1.21.09,2.53.01,3.75l-3.73-1.14c1.15-1.48,2.85-8.05,6.23-5.63Z"/>
  <path class="st49" d="M572.46,1285c.38,1.88-3.13,1.13-3.47,2.73-.42,2.03,3.94,4.87-2.76,4.02,1.58-3,.66-7.78,6.23-6.76Z"/>
  <path class="st49" d="M543.8,1287.26l-1.27,4.52-4.97-1.15c-.5-1.99,1.94-.7,2.39-1.18.34-.37-1.66-2.79-1.14-3.32l4.99,1.14Z"/>
  <path class="st0" d="M631.05,1202.51c-4.66-20.91-4.49-46.9,0-67.79,4.27,1.87-1.25,11.35-1.25,15.25v35.03c0,3.07,2.11,9.98,2.55,13.63.15,1.22.33,3.48-1.3,3.89Z"/>
  <path class="st14" d="M763.95,1305.77c15.08,9.22,23.11,34.59,24.73,51.35.72,7.44.56,12.61-8.99,13.59-.96.1-4.73-3.43-4.95-3.92-.65-1.5-.31-8.2-.96-10.62-4.79-17.55-9.02-31.36-24.95-42.91-3.38-2.45-11.33-5.04-11.86-8.56-.21-1.44,1.84-8.29,3.31-8.5,3.99-.57,19.72,7.16,23.67,9.57Z"/>
  <path class="st56" d="M643.52,1138.1c-2.51-4.52,1.24-12.41,2.86-17.18,3.71-10.87,8.6-20.65,14.59-30.28-6.88,15.75-13.94,30.63-17.45,47.46Z"/>
  <path class="st55" d="M702.08,1039.82c1.43.78,2.55,5.12,1.92,6.76l-3.13-1.13c1.49,6.26-4.56,1.83-4.98,2.24-.23.22-1.08,7.13-3.75,4.53-.72-.71,2.98-5.85,3.76-6.29,1.99-1.13,5.89,3.55,3.74-5.59-.17-.92,2.1-.71,2.44-.52Z"/>
  <path class="st17" d="M341.85,321.17c-7.75-3.78,7.05-8.01,4.99-1.11,1.89-1.22,7.12-.64,3.74,2.24-2.48-.39-5.29-.43-8.73-1.13Z"/>
  <path class="st30" d="M372.81,258.23c.34.16,3.95,2.56,4.89,2.99,5.2,2.38,6.19-.64,5.3,7.99,4.8-3.75.67,5.37.1,6.03-.88,1.02-2.65.71-3.71,1.45-.97.68-1.29,2.12-1.65,2.32-.69.38-12.7-.45-13.39-.84-.13-.07.85-1.83.6-2.19-1.41-2-3.74.53-4.36.02-.34-.28-1.79-6.69-2.54-7.92l3.76-.02c-4.63-4.78-1.23-4.48.76-7.06.32-.42-.39-1.59-.08-1.96.56-.67,9.85-1.03,10.33-.81Z"/>
  <path class="st13" d="M355.55,216.08c.32.35-.18,2.48.02,3.4l1.85-2.25c4.9,1.36,3.38,4.19,4.78,6.43,1.11,1.77,3.81,1.28,2.62,6.49-.52,2.27-5.45,10.74-6.14,5.17-.7,2.31-4.72,5.09-6.77,3.31-.69-.6,1.08-3.7-1.32-3.31l-1.88,4.51c-.83-4.5-5.04-4.32-5.77-5.21-.6-.73-1.09-6.85-3.6-8.34,5.85,1.13,2.49-3.13,5.63-5.65l1.85,2.25.03-5.64c2.5-.25.05,2.79,2.46,2.24-1.13-2.51,5.97-3.69,6.25-3.39Z"/>
  <path class="st10" d="M411.39,226.64c.34.17.09,1.61.85,1.68,2.34.21,9.71-.76,10.59,3.28.74,3.38-1.73,9.89-4.92,10.49-.67,1.97,3,.54,2.47,1.67-1.7,3.62-12.67,2.67-16.19,1.69l2.48-2.23c-1.38-.27-4.11.39-5-.02-.41-.19.01-7.93.16-8.33.58-1.5,2.91-1.48,3.39-2.08.34-.44-1.23-9.72,6.17-6.15Z"/>
  <path class="st35" d="M449.04,213.83c-4.9-4.32-5.38-.53-8.79.6-3.66,1.2-9.68-3.69-11.13-6.82,5.81-1.75-.35-1.54,0-2.25,2.6-2.59,5.34-3.33,8.39-4.48.29-.11.23-1.57,1.11-1.68,2.1-.28,7.88.99,9.26,2.7,3.57,4.42-.08,7.49,1.17,11.93Z"/>
  <path class="st21" d="M406.93,161.43c4.21,1.95,4.94-1.7,5.27-1.69,2.56.02,10.2.97,13.4,1.37,5.36.67,15.97,1.88,19.71,5.29,2.45,2.23-4.97,1.67-4,4.1-2.49.7-17.67,6.62-18.42,6.05-.43-.33.96-2.74-1.24-2.24.81,1.78-3.16,3.3-4.47,3.35-.49.02-.24-3.71-3.04-2.22-.16.09,1.58,2.77-.63,3.37-1.31.36.1-2.29-1.24-2.27-1.23.02-.1,1.73-1.2,2.07-3.58,1.11-9.36-3.27-12.83-4.03-6.44-1.41-15.42-1.11-22.29-3.48-1.49-.51-1.93-.97-1.71-2.45-2.14-.47-.78,1.66-1.34,2.06-.3.21-6.6-.38-7.36-1.51,12.4-5.8,24.4-5.79,37.48-7.79,1.72-.26,2.45-1.62,3.03-1.8,1.1-.34.38,1.59.87,1.82Z"/>
  <path class="st46" d="M336.58,159.85c.67.36,1.45,3.54,4.01,3.15l-2.48,2.23c6-.79,2.23,1.62,2.81,2.08.52.4,1.93.03,2.12.23.16.17-1.36,4.11-1.53,4.27-3.12,3.02-8.37,1.5-11.59,1.5-.38,0-1.06,4.31-3.04,2.1-1.75-1.96,3.13-4.24,3.73-5.63-13.14,3.88-8.91,1.14-8.73-7.91,3.96,1.29,11.79-3.56,14.69-2.01Z"/>
  <path class="st8" d="M310.68,979.91c63.43-9.06,122.82.94,185.1-2.27,52.36-2.7,169.23-33.05,212.14-10.35,1.76.93,6.56,3.37,7.28,4.7,2.87,5.35-1.91,17.32-6.24,21.45-1.74-.54-2.75-3.97-3.33-4.29-2.6-1.39-20.93,8.51-25.12,10.15-10.22,4.01-21.44,8.01-32,11.1-12.89,4.89-27.23,8.28-41.14,9.04-2.2.4-6.68,2.14-7.48,2.26-19.68,3.87-40.81,5.71-61.08,5.65-21.56,1.13-43.17,1.13-64.82,0-4.87-1.48-11.81-1.71-17.45-2.26-16.8-.56-33.42-2.82-49.86-6.78-6.63-1.04-14.23-3.38-21.19-4.52-11.68-1.01-23.32-2.52-34.9-4.52l-23.68-3.39c-7.93-6.02-15.1-16.71-16.21-25.99Z"/>
  <path class="st54" d="M310.68,979.91c5.18,8.71,11.15,17.23,16.21,25.99-.81.5-1.63.96-2.52,1.28-5.67,2.06-34.84-2.95-39.87-8.06-.82-.22-1.65-.86-2.49-1.13-2.68-1.76-4.1-8.16-1.25-10.17-.08-.36.08-.77,0-1.13.01-.91.03-2.22.76-2.52,3.18-1.27,22.22-5.8,25.54-6.04l2.37,1.77c.4-.06.84.06,1.25,0Z"/>
  <path class="st27" d="M326.89,1005.9c2.12,3.67,3.99,8.64,6.23,12.43-13.62-1.75-27.76-2.2-41.14-5.65-3.88-3.29-5.78-8.98-7.48-13.56,13.46,3.64,28.4,5.52,42.38,6.78Z"/>
  <path class="st34" d="M305.7,968.61c.27.43,1.12.81,1.25,1.13,1.29,3.22,1.29,6.91,2.49,10.17l-28.67,6.78c-.87-4.1-2.52-8.16-2.49-12.43,9.65-2.84,17.5-4.13,27.42-5.65Z"/>
  <path class="st42" d="M599.89,1021.72c3.09,1.41-4.25,1.88-4.72,1.93-18.56,2.15-37.66,4.18-56.36,4.85-1.09-.32-1.07-.7,0-1.13,18.26-.73,42.8-2.81,61.08-5.65Z"/>
  <path class="st4" d="M473.99,1027.37c21.42-.36,43.53.85,64.82,0v1.13c-22.97.82-46.17-.61-69.18,0-2.14-1.8,3.7-1.12,4.36-1.14Z"/>
  <path class="st33" d="M456.53,1025.11c-1.67,2.01-5.57,1.21-7.94.98-11.06-1.05-22.12-3.98-33.24-4.89l-8.68-2.87c16.58,2.61,33.1,5.14,49.86,6.78Z"/>
  <path class="st28" d="M648.51,1010.42c3.13,1.09-1.37,1.69-2.2,1.95-10.34,3.19-21.89,6.06-32.66,7.71-1.91.29-5.06,1.5-6.27-.62,13.91-2.51,27.6-5.08,41.14-9.04Z"/>
  <path class="st40" d="M350.57,1009.29c9.93-.33,24.73,2.86,34.9,4.52-1.25,2.03-4.51,1.09-6.5.83-10.64-1.36-21.21-4.85-32.13-4.23-.33-1.89,2.36-1.07,3.73-1.12Z"/>
  <path class="st44" d="M280.77,987.82c.7,3.23,2.69,7.13,1.25,10.17-4.79-1.5-9.08-1.62-12.44-6.21,2.97-2.52,7.02-4.27,11.2-3.95Z"/>
  <path class="st31" d="M611.84,1332.95c7.73,7.02,13.69,18.85,15.07,28.65,1.09,7.73,1.52,23.17-10.27,23.94-10.5.69-4.6-10.59-4.36-16.41.7-17.23-10.22-26.79-23.78-37.09-3.11-2.36-6.96-4.29-10.2-6.58-1.49-1.05-8.28-5.61-8.83-6.62-3.54-6.49-1.05-13.74,7.63-10.38,4.49,1.74,30.41,20.54,34.75,24.49Z"/>
  <path class="st24" d="M581.19,1307.58c-3.63,1-5.21-5.6-3.73-6.76,3.12-2.44,3.86,5.74,3.73,6.76Z"/>
</svg>