<?xml version="1.0" encoding="UTF-8"?>
<svg id="Ebene_1" xmlns="http://www.w3.org/2000/svg" version="1.1" viewBox="0 0 384 384">
  <!-- Generator: Adobe Illustrator 29.5.1, SVG Export Plug-In . SVG Version: 2.1.0 Build 141)  -->
  <defs>
    <style>
      .st0 {
        fill: #f8bcb8;
      }

      .st1 {
        fill: #e2aca8;
      }

      .st2 {
        fill: #e2aba7;
      }

      .st3 {
        fill: #e6ba51;
      }

      .st4 {
        fill: #e6bb51;
      }

      .st5 {
        fill: #fef4b7;
      }

      .st6 {
        fill: #e7dea6;
      }

      .st7 {
        fill: #ddd;
      }

      .st8 {
        fill: #e2aca7;
      }

      .st9 {
        fill: #fee069;
      }

      .st10 {
        fill: #1d1e1e;
      }

      .st11 {
        fill: #e7cc60;
      }

      .st12 {
        fill: #f3f3f3;
      }
    </style>
  </defs>
  <path class="st0" d="M128.25,366.68c-9.2,8.03-18.74,14.2-30.75,17.21h-8.25c-14.81-4.46-4.47-20.11,1.52-28.07.69-.92,1.83-1.36,2.23-1.86l2.48.12c8.88,6.89,20.12,9.31,31.02,10.85l1.75,1.75Z"/>
  <path class="st0" d="M294.75,383.89c-2.62-.24-5.71.34-8.25,0-9.92-1.33-23.25-10.75-30.75-17.21l1.77-1.74c12.3-1.24,23.29-5.29,33.48-11.73,6.59,7.94,19.62,25.58,3.75,30.68Z"/>
  <path class="st9" d="M87.75,27.69c-2.2-10.92,2.54-22.08,13.52-25.8,16.65-5.64,34.17,11.44,38.24,26.54,8.54-4.9,17.27-8.81,26.98-10.86,21.94-4.61,49.09-3.47,69.51,6.24,3,1.43,5.64,3.55,8.49,4.62,2.73-10.63,12.69-22.52,23.26-26.19,6.59,2.92,11.15,9.54,11.88,17.14.35,3.61.39,8.48-2.88,10.54l.04,1.69-8.56,6.09c-5.64,3.29-6.91,6.08-3.82,8.38l-.41,1.8c.66.21.64.46,0,.75l.27,1.74c-4.41,2.35-7.53,5.31-9.38,8.9,3.02,11.13,6.16,22.37,9.4,33.72,5.82,9.99,11.28,20.14,16.39,30.47l-.93,2.25c1.03,1.01.58,1.45-.75.75-3.52,3.75-11.96,2.79-17.01,1.98-6.95-1.1-13.45-4.07-19.48-7.56-24.88-17.73-50.47-35.71-80.04-14.25-22.02,17.73-45.77,31.79-72.92,14.64l-1.04-2.3c4.4-9.68,11.64-17.95,14.95-28.11,3.63-11.11,5.16-22.41,10.55-33.25-1.43-2.67,3.07-9.49,6-9.73-.96-1.2-.46-2.68,1.5-4.43-7.28-9.34-19.73-16.79-32.02-14.67l-1.72-1.1Z"/>
  <path class="st9" d="M142.5,212.52c.65.18.63.43,0,.75,1.49,5.31.8,12.95-1.5,17.96-.52.46-1.09.59-1.72.34-2.61-4.2-5.7-6.77-9.28-7.72-8.13,2.52,12,19.6,14.72,21.89l.02,1.95-.05,1.88c-3.49,2.9-5.41,7.19-6.49,11.51l-1.72.82c.56,1.66.31,2.41-.75,2.24-.61,1.17-1.26,1.19-2.31,1.2-7.61.09-17.93-7.84-23.21-13.06-2.11-2.43-7.21-3.38-6.62.96,1.08,7.95,25.14,19.32,32.4,18.92l1.98,1.71c1.96-1.35,7.57,4.6,6.75,6.73l2.12,2.06c12.96,43.03,76.96,44.12,89.38.65l2.25-2.71c-.26-2.28,5.27-7.11,7.5-6.73l2.01-1.72c9.6-1.23,18.73-5.19,26.12-11.43l2.62-.32,1.97.61c12.62,39.52,9.81,91.76-40.41,96.14l-1.31.54c-12.18-.87-24.43-5.58-36.47-6.64-22.06-1.93-41.67,7.38-63.28,6.64l-2.31,1.36c-5.76,1.12-33.5-6.1-35.57-11.11-.19-.46-.29-.96-.36-1.47-39.15-27.96-7-109.6,6-145.92l3.22.08c9.86,5.18,20.64,8.39,31.64,10.04l2.63,1.86Z"/>
  <path class="st12" d="M279,126.47c.68-.44,1.67-.57,2.32-.04.71.59,1.83,7.96,2.02,9.5,6.33,52.23-45.12,65.46-86.08,66.87-.69.39-1.4.76-2.14,1.03s-1.45.52-2.15.52c-14.51.02-29.05-.23-43.44-2.39-1.5-.43-2.84-1.15-4.03-2.15l-1.99,1.16c-11.56-2.33-23.01-5.67-33.85-10.32l-.91-2.07c-.13-.06-.49-1.16-1.09-1.5-25.18-14.45-30.81-42.45-19.16-68.1,10.85,6.19,21.97,10.27,34.68,8.04,19.43-3.41,32.57-20.95,50.08-27.86,47.21-18.63,62.84,36.75,105.74,27.3Z"/>
  <path class="st11" d="M275.25,188.58c4.26,12.54,8.95,24.95,12.95,37.59,10.45,32.98,30.79,95.73-3.2,120.31-.05.95-.41,1.76-.99,2.49-3.48,4.38-29.29,11.16-34.98,10.06l-2.28-1.33c-3.01.14-6.77.21-9.75,0-.44-2.27,1.11-1.32,2.48-1.6,43.75-8.95,47.87-40.02,41.55-79.38-.83-5.17-1.86-11.79-4.28-16.31l-.45-.94c4.82-5.54,6.92-8.7-1.8-10.28l-2.13-1.61-6.34-22.24c-4.21-12.42-11.06-13.61-23.11-11.55l-1.42-1.26c-2.7-1.75-5.36-10.23-3-12.72l1.7-1.83c11.18-2.22,22.19-5.51,32.67-9.97l2.37.57Z"/>
  <path class="st7" d="M275.25,188.58c-10.04,4.66-25.4,9.3-36.75,11.22-.6.49-1.22.95-1.88,1.32-3.9,2.14-33,4.12-37.29,2.64-.72-.25-1.4-.59-2.07-.96l27.14-3.98c36.75-7.33,65.88-27.15,56.26-69.13-.29-1.25-.01-2.76-1.65-3.22.21-.05.51-.68.75-.75l.89-1.79c5.03-1.62,9.73-3.77,14.11-6.44,12.29,25.83,7.48,54.19-17.97,69.28-.82.49-1.42,1.76-1.53,1.81Z"/>
  <path class="st11" d="M270,57.62c6.05,12.36,7.3,26.18,12.4,38.14,3.25,7.6,8.76,14.18,12.35,21.73-.09,2.09-2.48,2.98-4,3.87-3.84,2.25-6.78,3.24-11,4.37-2.95-11.83-12.75-21.21-16.87-32.19-2.05-5.47-3.06-12.01-4.68-17.78-1.39-4.93-5.61-13.06-4.68-17.75.64-3.22,8.01-7.04,10.48-9.37,2.54.25,7.35,6.57,6,8.98Z"/>
  <path class="st11" d="M145.5,199.8c2.35,2.5-.29,10.98-3,12.72-12.79-1.53-26.35-5.51-37.5-11.97,1.32-3.69,2.16-8.22,3.75-11.97,9.56,4.54,25.88,9.36,36.75,11.22Z"/>
  <path class="st11" d="M296.25,26.94l-.89,1.5c-6.05-.63-11.73.18-17.02,2.42l-1.59-.93c2.58-7.18,1.94-15.32-3.02-21.31-1.99-2.41-5.15-3.43-5.98-6.38,17.13-5.95,31.52,7.28,28.5,24.69Z"/>
  <path class="st2" d="M137.25,357.7c-2.59,3.38-5.8,6.19-9,8.98-12.37-1.66-25.63-4.25-35.25-12.72,1.93-2.37,3.64-5.26,6-7.48,10.55,7.54,25.36,10.78,38.25,11.22Z"/>
  <path class="st8" d="M291,353.21c.1,1.7-1.12,1.94-2.16,2.71-9.13,6.76-22.02,9.37-33.09,10.76-3.21-2.77-6.4-5.61-9-8.98,13.01-.61,27.61-3.53,38.25-11.22,1.81,2.41,4.07,4.41,6,6.73Z"/>
  <path class="st0" d="M293.25,35.17c-2.11,4.37-5.08,8.63-8.61,11.99-4.38,4.18-9.92,6.78-14.64,10.46-1.16-2.36-5.33-7.11-6-8.98-.08-.22.06-.52,0-.75v-2.1c4.16-3.88,8.79-7.46,14.06-9.72,4.05-1.74,12.26-4.62,15.19-.9Z"/>
  <path class="st0" d="M120,47.89c-1.87,3.01-4.49,6.69-6,9.73-4.72-3.68-10.26-6.28-14.64-10.46-3.53-3.36-6.5-7.62-8.61-11.99,2.87-3.65,10.8-.92,14.79.75,5.4,2.26,10.12,5.94,14.4,9.85l.06,2.12Z"/>
  <path class="st8" d="M296.25,26.94c-.48,2.78-1.78,5.7-3,8.23-11.03-1.74-21.77,5.27-29.25,12.72-1.53-1.88-3.89-3.28-2.63-5.97.93-1.99,12.9-10.78,15.38-11.99,1.84-.9,6.75-2.67,8.69-2.93,3.71-.49,7.33.7,10.81-.06Z"/>
  <path class="st8" d="M120,47.89c-7.62-7.43-18.11-14.44-29.25-12.72-.99-2.05-2.57-5.36-3-7.48,11.39-3.35,24.35,3.69,32.27,11.58,5.07,5.06,2.6,4.41-.02,8.62Z"/>
  <path class="st10" d="M152.05,60.03c13.88-2.81,16.85,19.08,2.64,19.85-12.41.67-14.08-17.54-2.64-19.85Z"/>
  <path class="st10" d="M228.56,60.02c11.94-1.97,15.97,14.42,6.11,18.84-13.94,6.25-20.15-16.52-6.11-18.84Z"/>
  <path class="st5" d="M241.5,213.27c3.24,4.72,3.69,12.67,1.5,17.96.46,2.94-8.39,11.79-10.78,12.7-.9.34-1.81.25-2.72.02l-.33,1.89c-6.96,1.83-21.76,8.55-21.5,17.28.13,4.16,6.75,4.32,9.83,4.09,3.88,1.33-.09,7.17-3.01,6.68l1.01,1.55c-3.78,12.1,15.18,7.7,21,4.59l1.99.6c-4.67,20.53-20.31,34.58-41.59,35.96-26.73,1.73-44.14-10.85-52.16-35.96l1.6-.82c6.12,3.63,25.15,8.08,22.14-4.4l1.01-1.52c-3.05.41-6.75-4.89-3.33-6.54,24.07-.43-.64-20.67-11.21-21.48l-.46-1.92c-4.56.35-10.89-6.93-13.65-10.68l.15-2.04c-.01-5.96.56-12.07,1.5-17.96l3.21-.53c30.35,4.37,59.16,2.47,89.44-.07,2.13-.18,4.26.18,6.35.61Z"/>
  <path class="st6" d="M197.25,202.8c13.68-.2,27.73-.7,41.25-2.99.33,4.18,2.33,8.75,3,12.72.67.18.65.43,0,.75-32.76,4.99-66.25,5.01-99,0,.04-.24-.04-.51,0-.75.69-3.98,2.66-8.54,3-12.72,16.93,2.9,34.6,3.25,51.75,2.99Z"/>
  <path class="st0" d="M154.5,243.95c4.21,2.34,8.83,2.71,13.43,5.68,10.67,6.87,16.32,20.42-2.18,19.02.47,2.15,3,3.51,3.75,5.23-1.04,4.08-8.98,4.12-12.78,3.71-7.91-.86-19.77-7-20.22-15.68,1.04-5.23,3.69-11.24,8.25-14.22-.22-3.3,6.98-4.51,9.75-3.74Z"/>
  <path class="st3" d="M276.75,260.42c-8.36,7.75-19.36,12.52-30.75,13.47-1.73-1.42.38-8.65,2.25-9.73l1.27-1.65c9.11-1.65,17.66-6.46,23.27-13.8l1.71.49c2.03-1.2,5.31-.9,6.67,1.2,2.66,4.13-1.6,7.41-4.42,10.03Z"/>
  <path class="st3" d="M135.75,264.16c1.96.84,3.79,8.04,2.25,9.73-8.7-.72-17.44-3.86-24.68-8.67-3.88-2.58-14.64-10.05-10.17-15.24s11.97,5.69,16.33,8.35c4.57,2.79,10.93,5.36,16.27,5.84Z"/>
  <path class="st8" d="M169.5,273.89c4.24,9.74-5.13,12.09-12.93,11.03-2.47-.33-9.79-2.99-11.82-4.3-.62-.4-6.48-6.25-6.75-6.73-.89-1.6-2.31-7.8-2.25-9.73.03-.89.62-1.6.75-2.24,5.73,11.6,21.01,18.15,33,11.97Z"/>
  <path class="st8" d="M248.25,264.16c.07,1.9-1.37,8.15-2.25,9.73s-5.72,5.63-7.5,6.73c-8.28,5.13-30.32,8.33-24-6.73l1.87-.77c10.87,4.53,23.41-.85,29.19-10.74l1.94-.46c2.13.07,2.49.91.75,2.24Z"/>
  <path class="st4" d="M141,231.23c3.95,4.15,8.49,9.93,13.5,12.72-3.19,1.86-6.44,1.57-9.75,3.74-3.88-3.08-16.89-15-17.85-19.25-.77-3.43.92-6.54,4.65-6.2,2.69.25,7.2,6.61,9.45,8.98Z"/>
  <path class="st10" d="M187.5,137.69c2.65-.11,5.35-.36,8.1-.75-.5,5.74-.45,11.48.15,17.21,1.8,6.17,7.82,7.46,13.28,4.64,2.82-1.45,3.66-4.8,7.75-3.58,6.46,1.92,1.68,8.34-2.02,10.79-6.1,4.04-14.4,4.43-20.75.75-.92-.53-2.91-2.85-3.12-2.85-.44,0-4.46,3.98-7.26,4.71-6.8,1.75-24.15-1.81-21.47-10.92,2.17-7.36,10.41,1.97,14.56,2.4,13.15,1.39,8.55-14.3,9.3-22.4.36-1.96.76-1.85,1.5,0Z"/>
  <path class="st0" d="M189,112.25c9.29.9,11.83,6.7,8.54,14.94-1.43,3.59-5.9,11.21-10.04,10.51-.36-.16-1.22.16-1.5,0-5.39-3.13-13.08-15.66-8.26-21.34,2.2-2.59,7.96-3.92,11.26-4.11Z"/>
  <path class="st1" d="M195.75,154.15c-1.52-5.21-.43-10.97-.76-16.46-3.71,2.61-4.41,1.34-7.49,0,6.01-4.24,15-17.61,6.27-23.09-1.5-.94-3.64-.79-4.77-2.35,12.45-.71,21.61,4.87,13.64,17.73-1.44,2.33-6.28,5.95-6.74,7.49-1.22,4.09.57,12.1-.15,16.68Z"/>
  <path class="st9" d="M274.5,249.19c-.94.56-4.03,4.69-5.64,5.97-5.55,4.42-13.47,8.39-20.61,9-.01-.32-.6-1.5-.75-2.24l-1.63-.42c-1.23-4.4-3.02-8.9-6.26-12.2l.38-1.6-.16-2.03,11.94-12.06c9.91-12.04-1.03-12.66-6.86-2.26l-1.91-.12c-.13-5.96-.57-12.09-1.5-17.96-.04-.24.04-.51,0-.75,9.58-1.85,19.82-2.26,24.37,8.24,3.67,8.48,5.48,19.61,8.63,28.43Z"/>
  <path class="st0" d="M240,247.7c3.45,2.42,6.69,10.08,7.5,14.22-5.73,11.6-21.01,18.15-33,11.97.32-.77,4.06-5,3.75-5.23-18.5,1.4-12.86-12.16-2.18-19.02,4.59-2.95,9.49-3.31,13.43-5.68,2.74-.63,10.95.49,10.5,3.74Z"/>
  <path class="st3" d="M240,247.7c-2.68-1.89-7.79-1.84-10.5-3.74,4.94-2.96,9.54-8.55,13.5-12.72,2.07-2.18,6.58-8.39,8.8-8.85,3.69-.75,5.9,1.8,5.43,5.41-.62,4.72-13.76,15.93-17.23,19.9Z"/>
</svg>