<?xml version="1.0" encoding="UTF-8"?>
<svg id="Ebene_1" xmlns="http://www.w3.org/2000/svg" version="1.1" viewBox="0 0 409.6 409.6">
  <!-- Generator: Adobe Illustrator 29.5.1, SVG Export Plug-In . SVG Version: 2.1.0 Build 141)  -->
  <defs>
    <style>
      .st0 {
        fill: #edbe00;
      }

      .st1 {
        fill: #fed322;
      }

      .st2 {
        fill: #a96100;
      }

      .st3 {
        fill: #6dc72a;
      }

      .st4 {
        fill: #7ed53e;
      }
    </style>
  </defs>
  <path class="st0" d="M251.51,58.27c2.93.36,5.59,2.11,7.98,3.19l-.67,2.22c-3.34,2.04-6.11,4.83-8.45,7.94-8.95,16.82-21,26.97-37.64,36.4-78.86,65.28-71.64,211.68,18.23,263.84,4.68,3.58,8.9,7.77,12.23,12.65,4,8.07,8.51,14.49,16.17,19.53l.14,2.25c-2.92,1.24-5.89,1.94-8.78,3.19-3.31-.29-7.17.41-10.38,0-22.83-2.9-23.96-23.66-38.39-35.45-6.99-5.71-15.94-9.85-23.1-16.02-70.16-60.48-69.87-194.16,3.62-251.82,6.6-5.18,14.49-8.79,20.76-14.36,12.91-11.48,15.59-30.95,36.31-33.54.92-2.85,10.54-2.76,11.98,0Z"/>
  <path class="st1" d="M259.49,406.28c-3.64-3.35-8.09-6.01-11.18-9.98-2.56-3.3-4.4-8.03-6.86-11.5-8.64-12.15-19.99-16.64-31.04-25.64-71.47-58.17-71.52-193.96.46-251.72,6.96-5.59,15.86-9.71,22.29-15.24,10.54-9.07,13.4-23.95,26.34-30.74,13.08,5.89,12.17,10.18,19.63,20.68,8.63,12.14,19.25,16.02,30.25,24.84,71.53,57.36,72.73,188.38,4.83,249.03-11.08,9.9-25.52,15.7-34.28,27.99-7.16,10.04-7.57,16.82-20.43,22.28Z"/>
  <path class="st3" d="M193.22,38.31c6.41-1.66,16.3,3.88,9.58,9.58-.39,1.09-2.42,3.9-3.19,5.59l-3.34,1.31c-35.71-3.81-72.76,6.85-92.18,38.77-7.32,12.67-14.41,25.43-21.27,38.26-7.01,1.57-14.91,1.39-22.14.68-2.87-.1-15.31.56-14.07-4.01,21.8-24.41,27.45-59.58,55.33-78.85,25.41-17.57,62.18-20.76,91.27-11.32Z"/>
  <path class="st4" d="M199.61,53.48c-24.37,53.35-77.02,80.44-134.55,79.83-1.35-.01-3.55.51-4.38-.81,6.84.24,13.79-.06,20.63-.13,13.93-26.06,23.45-52.68,50.69-67.85,20.96-11.68,44.03-13.3,67.6-11.04Z"/>
  <path class="st2" d="M251.51,58.27c-2.76-.34-9.23-.34-11.98,0V25.54c-10.79,9.53-22.63,18.41-36.73,22.35,2.65-7.5-3.53-7.62-9.58-9.58,14.77-3.91,29.5-12.31,39.53-23.94,2.85-3.3,7.61-12.67,11.36-13.44s7.2,1.91,7.42,5.83l-.02,51.5Z"/>
</svg>