<?xml version="1.0" encoding="UTF-8"?>
<svg id="Layer_1" xmlns="http://www.w3.org/2000/svg" version="1.1" viewBox="0 0 1024 1024">
  <!-- Generator: Adobe Illustrator 29.5.1, SVG Export Plug-In . SVG Version: 2.1.0 Build 141)  -->
  <defs>
    <style>
      .st0 {
        fill: #91503a;
      }

      .st1 {
        fill: #a46046;
      }

      .st2 {
        fill: #e34943;
      }

      .st3 {
        fill: #69b77d;
      }

      .st4 {
        fill: #ef2f26;
      }

      .st5 {
        fill: #e44a43;
      }

      .st6 {
        fill: #e62b22;
      }

      .st7 {
        fill: #92513a;
      }

      .st8 {
        fill: #f3544a;
      }

      .st9 {
        fill: #e92c23;
      }

      .st10 {
        fill: #a96449;
      }

      .st11 {
        fill: #922317;
      }

      .st12 {
        fill: #ef3026;
      }

      .st13 {
        fill: #80c892;
      }

      .st14 {
        fill: #e44942;
      }

      .st15 {
        fill: #f7776e;
      }

      .st16 {
        fill: #c7463c;
      }

      .st17 {
        fill: #ea2c23;
      }

      .st18 {
        fill: #ef271f;
      }

      .st19 {
        fill: #fefefe;
      }

      .st20 {
        fill: #e92921;
      }

      .st21 {
        fill: #e92d25;
      }
    </style>
  </defs>
  <path class="st8" d="M474,347c3.09,3.01,4.69,7.19,4.79,12.56l1.4,11.5,26.76.86c.93-4.66,1.27-9.46,1.01-14.41l2.05-2.52c43.17-1.68,77.71-29.41,119.79-36.71,132.11-22.9,238.14,76.65,253.21,203.71,1.65,22.49,1.86,45.44,2,68-.03,1.6.6,4.16-1,5l-.52-1.06c-1.77,33.85-7.62,67.91-18.48,100.06-8.97,28.41-19.97,55.74-33,82-14.93,28.4-34.43,60.48-55,85-2.84,2.86-6.12,4.25-9.82,4.17-89.63,32.43-189.36,37.82-283.55,20.66-27.12-4.94-51.47-12.18-77.46-20.46-2.73-.87-5.1-2.4-7.18-4.37-1.32.06-2.63.09-3.94-.04s-2.55-.26-3.7-.68c-104.93-38.93-201.78-114.7-248-217.7l-2.36-.58-1.42-1.82c-7.53-34.22-7.3-70.17-6.58-104.18,10.27-130.32,112.58-240.61,250.25-218.75,32.61,5.18,58.36,24.72,90.75,29.75Z"/>
  <path class="st5" d="M141,642c0-.11.87-.67.86-1.46-.03-2-1.38-4.28-.85-6.54.99-1.34,5.93,12.48,6.61,13.88,50.32,103.61,145.03,174.1,251.38,213.12l3.61,3.18c7.12,1.14,13.07,3.56,17.86,7.26,4.69-.09,9.22,1.21,13.55,2.92,3.39,3.16,7.85,3.66,12.66,3.29,2.14,3.21,5.09,5.05,8.85,5.53.87,4.03,2.08,7.9,3.65,11.59,5.47-12.55,12.58,7.6,1.16,8.53-7.8-1.22-9.52.48-5.17,5.08-2.93,8.34-6.7,9.83-11.31,4.47.93,3.33-.68,5.49-2.87,7.62,0,.8,2.5,6.34,3.24,6.42,9.18-2.32,25.5,2.89,13.16,12.37-.01,5.18-3.9,7.3-8.6,7.65,2.15,4.62-.36,7.61-7.51,8.99-1.87,7.61-5.01,9.6-9.42,5.97-.34.06-5.52,2.57-6.12,2.87-4.54,2.33,17.03-.75,16.94-2.25,18.84-8,38.2-13.87,58.07-17.6,16.91,2.38,33.69,4.72,50.35,7.04,3.35,4.61,8.58,7.07,15.69,7.38,5.09,3.17,10.73,4.96,16.93,5.37-8.44-3.88-12.72-15.24-.4-15.62.09-10.14,9.82-6.67,9.06,2.07,13.22-6.22,17.16,2.78,10.17,13.42,5.87-.24,11.74-.27,17.62-.08,1.65-3.77,4.43-4.07,6.65-.45,10.26-2.68,20.64-4.98,31.14-6.88l5.7-4.7c14.25-5.67,27.16-13.03,38.71-22.06,8.69-.66-.17,6.29-3.66,8.85-22.01,16.11-48.42,30.59-75.66,33.77-16.76,2.95-36.48,1.68-52-5l-1.73.47-32.71-11.87c-15.06-5.73-30.74-6.22-46.57-4.6-14.54,4.54-28.86,9.86-42.97,15.96-18.97,6.33-35.51,6.61-55.03,6.04-16.37-2.31-31.68-9.29-46-17-30.84-18.97-64.31-45.4-88-76-24.1-28.14-45.43-58.14-64-90-.13-.27.13-.73,0-1-14.33-26.48-25.93-54.18-36.15-82.47-3.12-8.62-6.34-18.13-8.35-27.01-.02-.1,1.4,1.34-.5.48-.48.05-.79-.03-.99-.51-.19-.41.14-1.03,0-1.49-2.65-11.69-5.28-23.56-7.88-35.61l.88-1.39Z"/>
  <path class="st3" d="M769,73c22.1,16.13,8.21,62.53,1.27,84.77-25,80.07-78.63,127.99-156.5,155.5-32.94,11.64-68.75,20.39-103.78,21.73-.04,1,.04,2,0,3-.28.87-.62.86-1,0-.87-2.24-1.05-4.8,0-7,.24-4.31.76-8.59,1.54-12.83,43.3-73.08,112.35-133.67,180.58-186.47,25.06-19.4,50.56-38.79,78.25-54.2-1.55-1.68-1.68-3.18-.37-4.5Z"/>
  <path class="st13" d="M769,73l3,4.99c-24.78,13.93-48.2,31.32-70.91,48.6-58,44.13-122.18,98.75-165.5,157.5-6.08,8.25-22.01,30.39-25.05,38.95-1.01,2.85.37,5.85-1.54,7.96-2.15-23.34-4.82-46.67-8-70,17.58-83.81,57.51-146.81,138.33-181.17,32.9-13.99,98.76-29.39,129.67-6.83Z"/>
  <path class="st2" d="M777,861c-2.28,2.72-4.7,5.32-7,8-9.54,11.45-19.21,22.45-29,33-31.62,32.55-71.24,65.13-118,72-.87-.28-.86-.62,0-1,24.43-3.22,55.56-19.69,75.33-34.17l7.16-6.84c-4.84-.39-6.53,4.02-9.13,5.87-9.58,6.82-21.53,10.74-31.71,16.29-2.09,1.14-3.05,3.46-5.41,4.59-5.61,2.69-18.21,3.38-25.09,4.91-2.44.54-7.18,3.25-8.97,2.17-.49-.3-.91-2.78-1.67-2.79-.63,0-1.31,2.44-2.21,3.04-2.57,1.71-5.8-.24-8.8-.15-3.48.1-7.44,2.02-10.48.59-5.73-2.7,6.62-10.13.55-14.57-3.39-2.48-10.39.08-10.53,4.58-.03.99,3.82,6.83.47,5.49-4.46-1.79.78-18.36-6-16.99-2.57.52-.15,4.8-1.45,5.53-3.32,1.86-8.36-2-7.05,6.46l2.98-1c1.42,2.6-3.11,1.5-1.98,3.48,1.23,2.15,4.85.35,6.57,4.45,2.06,4.91-6.78,1.74-8.54,1.5-8.59-1.18-4.36-1.17-10.09-3.89-3.34-1.59-9.87-1.56-13.34-3.66-2.04-1.23-2.8-4.28-4.22-4.66-5.19-1.37-10.62-.53-15.93-1.17-10.41-1.25-22.33-5.64-33.95-5.14-4.55.19-29.22,7.43-34.74,9.34-10.36,3.58-16.96,7.56-28.22,9.8-2.85.57-8.91,3.44-11.62,1.5-1.47-1.05-1.77-10.04-9.92-7.57-1.53-1.27,7.03-7.92,8.55-8.06,3.4-.32,4.97,5.57,6.94-1.93l5.5,3.98c-1.85,1.26-13.47,4.64-10.99,8.01,1.78,2.41,4.96-1.9,6.55-2.06,2.31-.23,3.28,2.17,5.43,2.07.56-2.19,1.36-6.01,2.94-7.57,2.66-2.62,10.93-.54,6.57-7.43-2.26,2.65-4.83,4.46-8.5,3.99,3.27-10.83,20.05-.46,17.01-14.99l3.98,1c-.48-2.14,1.91-5.34.04-6.52-.46-.29-9.27-2.23-10.62-2.4-2.34-.3-4.12,2.25-6.46-.53-.61-.72-2.95-6.28-2.94-7.09.04-1.91,2.34-2.64,2.82-4.18,1.33-4.26-2.57-5.75-3.83-9.28,8.41-1.59,5.54,2.77,7.99,5.5.77.86,4.54,2.02,5.01,1.49.37-.41-.86-4.91,3.02-5.51-3.87-1.42-3.14-3.86-3.01-7.5,6.47-.21,15.77,3.21,12.86-7.36-1.35-4.9-2.75,2.06-2.97,2.25-5.29,4.47-6.27-11.2-6.95-11.83-.43-.4-3.32.4-4.95-.55-1.21-.7-1.71-3.97-3.6-4.29-1.14-.2-2.82.97-4.66.65-1.68-.29-2.78-2.26-4.73-1.85,1.1,2.37,2.03,5.13-.5,6.97-3-3.13-8.03-5.98-.5-6.99-2.6-3.82-9.24-4.23-13.7-4.61-1.04-.09-3.01.87-3.27.62-.21-.2.2-2.78-2.03-4.5-4.56-3.53-16.96-.25-17-8.49,97.39,35.73,217.2,42.12,318.01,17.51,17.19-4.2,33.11-10.53,49.72-15.28,2.09-.6,4.5.16,6.58-.42,1.37-.39,2.94-3.73,3.7-1.81Z"/>
  <path class="st10" d="M420,94c-.31.95,2.32,3.44,5,5,2.72,2.6,5.17,5.39,8,8l6,7c2.81,3.09,5.41,6.7,8,10l14.54,23.6c1.35,5.61-5.41,2.36-7.9-.18l-3.47.49c1.7,2.7.89,5.1-2.44,7.21.18,3.48-2.61,4.66-4.89,2.05-2.26,3.77-5.68,4.08-8.25.39-4.36,3.94-8.09,2.92-10.42-2.28-3.03.46-6.1-.27-9.2-2.18l6.75,10.05c.77,1.92,1.74,6.17-.71,6.86-4.21-2.48-7.73-6.29-10.57-11.43-28.74-45.79-101.98-59.14-138.53-16.6-33.86,39.4-3.78,90.02,35.16,112.16,1.01,1.15,1.23,2.48.02,3.31-2.42,1.67-22.32-8.62-25.08-10.44-2.74-1.36-4.55-2.63-7-4l-10-7c-40.38-26.53-45.48-84.28-21.42-123.92,37.93-62.48,124.76-65.68,176.42-18.08Z"/>
  <path class="st0" d="M421,170c1.04.64,2.06,1.32,2.97,2.11s1.8,1.55,2.38,2.49c31.86,51.44,49.15,110.82,59.98,169.72l.6-8.46c-6.04-17.54-.97-33.37,6.79-49.76.2-4.96,3.91-12.4,8.27-7.1.58.13,1.05.29,1.12.56,4.19,16.44,4.94,38.37,5.28,55.95-1.38,4.96-1.18,5.79.6,2.49h1c-.16,5.65.15,11.35,0,17-.17,6.37.13,12.68-1.01,18.99l-30.98-1c-.28-8.82-1.58-17.54-4.01-25.99-18.82-65.64-105.37-67.54-159.96-85.54-10.65-3.51-23-7.85-32.04-14.46,4.66,2.32,9.91,4.79,14.73,6.77,2.81,1.15,7.27,3.19,10.26,2.74-21.28-14.93-43.14-31.86-49.33-58.67-14.46-62.57,51.39-96.79,104.87-78.87,25.88,8.67,43.89,29.03,58.47,51.03Z"/>
  <path class="st1" d="M501,261c.24,5.74.87,11.44,1.89,17.11l-.89.89c-6.94-.21-4.91,3.77-6.48,8.02-4.07,11.04-8.03,16.35-9.27,28.71-1.07,10.65,2.73,14.27,2.77,21.75.01,1.89-1.2,11.96-1.75,13.27-.61,1.43-.26,1.51-2.26,1.24-.64-9.98-2.64-19.9-4.87-29.63-12.33-53.58-28.64-106.33-59.13-152.37l-1.18-6.33-13.82-19.66c5.7-1.67,5.05,5.04,8.01,6.48.77.37,7.21,3.12,7.63,3.22.87.21,2.23-.8,3.35-.26,1.53.73,2.05,3.98,3.66,4.46,2.72.82,4.79-2.91,6.83-2.94.69,0,1.32,4.65,4.37,2.85.36-.21,3.86-6.87,5.16-.84h.98c-1.59-3.66,2.97-5.09,3.05-5.5.76-3.95-3.76-2.16-3.03-5.49,2.36.71,6.28-.94,8.13-.5,2.23.53,3.94,4.3,6.88,2.98l-14.01-24.49c28.18,35.84,45.8,92.35,54,137Z"/>
  <path class="st20" d="M141,642c.71,10.24,4.74,22.18,7.29,32.22.37,1.46,1.66,3.77-.29,4.78-13.65-42.94-18.53-98.18-15-143,2.83,6.58.03,14.83-.05,21.45-.2,18.08.99,39.99,3.17,57.92,1.08,8.91,3.11,17.85,4.88,26.62Z"/>
  <path class="st14" d="M346,957c-34.13-18.38-62.71-45.02-88-74-.76-1.13-.76-1.8,0-2,25.23,29.06,52.87,53.72,86.01,73.49.5.3,4.22,1.71,1.99,2.51Z"/>
  <path class="st20" d="M194,790c-19.09-34.34-34.82-70.92-45-109,.16-.02.54-.87.98-1.01,10.67,37.92,26.56,74.99,44.02,110.01Z"/>
  <path class="st6" d="M258,881v2c-22.67-25.98-48.69-61.13-64-92,2.47-.15,2.54,1.53,3.52,2.98,20.77,30.87,35.41,58.15,60.48,87.02Z"/>
  <path class="st2" d="M491,953c-17.93,3-35.05,14.38-52.99,18.51-14.92,3.44-30.79,4.64-46.01,2.49,9.79-2.43,20.47-.2,30.48-1.02,24.41-2,44.69-17.19,67.52-20.98.82.03,1.22.1,1,1Z"/>
  <path class="st12" d="M866,694c-8.6,28.18-20.3,55.94-34,82-2.01-.6,0-2.99.49-4.01,12.09-25.26,24.27-51.15,32.51-77.99.28-.87.62-.86,1,0Z"/>
  <path class="st4" d="M884,595c.41,7.55-1.09,17.78-2.02,25.48-3.03,24.86-8.69,49.63-15.98,73.52h-1c10-32.54,16.27-68.03,18.01-101.99,1.69-.26.93,1.88.99,2.99Z"/>
  <path class="st9" d="M571,968c1.91.79,2.06,1.49,0,2-29.45-8.75-45.65-22.75-80-17l-1-1c34.08-5.66,51.07,6.93,81,16Z"/>
  <path class="st18" d="M885,590l-2-68c2.65,22.38,2.38,45.45,2,68Z"/>
  <path class="st21" d="M623,973v1c-16.4,2.41-36.08.73-52-4v-2c16.73,5.07,34.54,7.3,52,5Z"/>
  <path class="st17" d="M741,902c-.02-1.96,1.35-2.78,2.48-4.02,8.82-9.6,18.03-19.12,26.52-28.98-7.73,12.52-18.85,22.56-29,33Z"/>
  <path class="st0" d="M275,243c-3.46-1.94-7.87-3.37-10-7,3.07,2.02,8.09,3.28,10,7Z"/>
  <path class="st1" d="M439,114c-1.86-2.04-5.8-3.6-6-7,2.22,2.04,5.57,3.65,6,7Z"/>
  <path class="st1" d="M425,99c-2.76-.21-4.15-2.84-5.98-4.5l.98-.5c1.89,1.74,3.33,3.41,5,5Z"/>
  <path class="st15" d="M692.78,399.28c25.83-3.14,60.07,12.12,78.26,30.18,24.59,24.42,44.11,76.86,32.44,110.52-7.75,22.33-24.4,21.31-33.24.29-14.81-35.2-18.62-61.08-51.91-86.09-11.31-8.5-38.33-17.84-44.18-27.82-7.89-13.46,5.52-25.48,18.63-27.07Z"/>
  <path class="st16" d="M548.74,377.26c7.41,7.82-10.9,12.89-15.73,14.26-33.42,9.46-85.28,4.06-114.54-15.48-4.79-3.2-12.65-7.89-11.5-14.5,1.67-9.64,17.47,3.58,21.36,5.65,27.88,14.81,67.74,19.86,98.51,13.17,5.52-1.2,17.84-7.36,21.9-3.09Z"/>
  <path class="st14" d="M287,859.01c-1.18,3.82-3.08,4.51-7,4l1,2.98c-1.96,2-3.92-5.73-5.48-5.89-2.41.65-3.83,2.87-3.57,5.4.06.61,4,5.09,4.3,5.25,1.24.66,3.49,0,3.75.24.51.46-2.28,11.17,1.49,12.98,2.33-2.39,4.74-5.36,8.5-4.99-1.38,2.27,2.92,7.97,2,9-1.39,1.55-3.05-4.03-4.99-1.99-.13.14-.14,3.6.14,3.9.41.45,2.69-.5,2.92.63.48,2.27-.98,8.7-3.06,6.46-.82-.88,2.07-3.49-5.57-4.03-3.81-.27-7.97,2.58-8.35-3.53-.08-1.32.87-2.81.69-3.83-.66-3.79-6.57-1.6,1.5-6.84,4.97-3.23-2.94-1.85-3.56-1.95-1.47-.22-5.82-3.94-5.74.68.03,1.59,2.12,2.33,2.05,3.98-2.14,2.19-2.03-1.16-2.97-1.99-4.12-3.65-7.56-7.69-10.47-12.57-1.01-1.69-1.21-5.11-1.8-5.7-.93-.94-7.16-1.24-7.77-4.21,2.23.47,5.47-1.5,7.32-1.09,1.11.25,1.01,2.65,2.1,2.85,2.02.36,7.14-3.71,8.53-2.72.2,1.93,1.91,3.67,2.03,5.51.15,2.4-4.18,10.2,3.51,9.52,4.67-.41,1.05-3.56.72-4.85-1.15-4.56,2.43-12.02,7.93-10.71,2.62.63,5,5.4,9.86,3.49Z"/>
  <path class="st14" d="M318.26,921.74c.15.25,3.7,3.9,3.95,4.05,2.07,1.22,6.79-1.52,5.61,4.48s-8.82,3.43-12.21.62c-2.26-1.87-2.14-5.35-2.76-5.75-.97-.62-3.68.42-5.47-1.03-1.29-1.04-2.18-6.56-4.96-9.04-1.43-1.27-4.2-1.51-5-3.07-1.06-2.07,3.28-6.49-2.88-4.96-3.17.79.87,3.69.45,3.94-3.67,2.22-8.3-9.13-2.5-10.97,1.7,3.19,4.86,5.09,8.46,5.54,3,.37,7.23-2.34,9.06-1.1,1.93,1.31-1.12,7.32.72,11.3,1.96,4.23,4.91.56,6.29,1.66,1.26,1,.55,3.23,1.22,4.32Z"/>
  <path class="st14" d="M307.52,893.01c6.63-1.71,5.75,7.61,1.46,5.56-1.18-.56-4.15-4.86-1.46-5.56Z"/>
  <path class="st14" d="M282.33,869.68c-.36-.31-1.45-2.58-1.33-2.67,2.21-.65,8.65.3,7.99,3.48-.53,2.61-5.68.03-6.66-.8Z"/>
  <path class="st11" d="M509,331c.04,2.33-.03,4.67,0,7l-.99,1.99c-.78-17.79-2.06-35.68-4.14-53.36-.3-2.55-1.6-5.65-1.87-7.64-.76-5.68-2.06-12.95-1-18,4.01,21.85,7.65,47.83,8,70Z"/>
  <path class="st19" d="M353,131c4.41-.07,8.74.93,13,3,.78-.18,1.55-.31,2.33-.31,4.25,0,15.1,8.65,19.04,11.9,28.81,23.77,47.75,66.64,62.64,100.43.45,1.02.62,2.18.79,3.35s.2,2.41.2,3.63c-.58,1.98-2.98-.02-4.05-.45-40.42-16.21-84.15-22.88-122.95-38.55-2.31,2.06-4.39.83-3-2-2.44.29-5.05-1.42-7-3-5.48,1.46-14.65-7.68-17.52-12.32l.52-2.68c-14.28-22.22-5.31-47.24,17-59-.84-2.57.08-2.89,2-1,2.72-1.46,5.38-2.13,8-2,5.21-5.22,19.08-4.88,26.39-3.41l2.61,2.41Z"/>
  <path class="st7" d="M324,214c4.3,1.99-.5,4.2-3.37,3.98-.5-.04-8.39-1.62-8.64-1.99-.23-.34.91-2.11.49-3.02-1.76-3.87-13.91-2.69-17.48-.98l.99-3.98c-5.06-.62-2.11,1.14-2.45,3.52-.24,1.64-1.71,2.68-1.4,4.75.18,1.21,5.05,6.74.37,5.72-2.7-.59-3.23-7.2-12.98-5.96-2.09.27-4.85,3.99-6.45-2.67-.47-1.94,2.05-.71,2.01-2.82-.02-1.24-.33-3.14-1.6-3.53-3.36-1.04-2.82,2.13-3.51,3.34-1.22,2.15-3.16-1.16-3.53-2.31-1.42-4.44-4.89-17.4-5.36-21.64-1.02-9.22,1.38-28.85,6.08-36.72,1.01-1.69,6.27-10.8,6.8-11.2.87-.65,2.86-.36,3.95-1.05,18.47-11.54,29.6-20.37,53.57-20.52,16.15-.1,29.62,3.17,44.19,10.89,26.69,14.13,50.29,50.44,62.49,77.51.78,1.72,5.52,14.4,5.63,15.46.28,2.71-1.4,5.12-.69,7.53.57,1.94,2.81,2.07,3.53,3.03,2.79,3.75,10.11,19.1,9.28,23.11-.63,3.06-4.76,1.03-3.98-2.47l-.96,1.02c-7.08-15.35-13.63-31.02-21.48-46.02-15.46-29.55-32.63-57.68-63.52-72.98-4.27-2.07-8.6-3.07-13-3-10.2-1.69-18.87-1.55-29,1-2.62-.12-5.29.54-8,2-.58.26-1.38.69-2,1-22.58,11.66-31.11,37.17-17,59,5.08,7.16,9.39,10.67,17,15,1.97,1.52,4.61,3.39,7,3,.47.21.74,1.09,3,2Z"/>
  <path class="st0" d="M314,135c-2.11,2.8-5.74,3.75-8.48,6.02-16.61,13.79-18.53,34.36-8.52,52.98-15.71-22.13-6.15-47.42,17-59Z"/>
  <path class="st0" d="M366,134c-4.42-.77-8.55-2.26-13-3,3.86-2.42,9.6,1.31,13,3Z"/>
  <path class="st0" d="M324,132c-2.67.67-5.2,1.88-8,2,1.94-.86,5.72-4.65,8-2Z"/>
  <path class="st0" d="M321,212l-.56.95c-2.37-.66-5.08-1.67-6.44-3.95,1.5.85,5.03,2.11,7,3Z"/>
  <path class="st0" d="M291,203.02c-.81,3.03-.49,7.89-5,6.97,1.87-4.89.47-3.08-.88-4.6-4.16-4.71,2.48-3.62,5.88-2.37Z"/>
</svg>