<?xml version="1.0" encoding="UTF-8"?>
<svg id="Layer_1" xmlns="http://www.w3.org/2000/svg" version="1.1" viewBox="0 0 1024 1024">
  <!-- Generator: Adobe Illustrator 29.5.1, SVG Export Plug-In . SVG Version: 2.1.0 Build 141)  -->
  <defs>
    <style>
      .st0 {
        fill: #885637;
      }

      .st1 {
        fill: #fbc53d;
      }

      .st2 {
        fill: #fedc63;
      }

      .st3 {
        fill: #765239;
      }

      .st4 {
        fill: #491405;
      }

      .st5 {
        fill: #fed246;
      }

      .st6 {
        fill: #6c4c39;
      }
    </style>
  </defs>
  <path class="st5" d="M921,488c-20.04,60.72-56.21,116.01-96.01,166.15-152.31,191.91-406.65,294.53-644.57,212.11-24.56-8.51-48.36-19.07-70.59-32.47-2.03,3.71-4.31,5.45-6.83,5.21-.59-.63-1.29-1.22-2-2,8.4-11.12,16.2-23.85,20.76-37.45l2.24-.55,1.99-1.62c206.75,28.63,420-37.99,558.48-198.27,99.67-115.36,139.52-264.51,107.84-413.64l.66-2.98c2.79.39,5.41-.04,8.03-.48l2.44-2.49c8.72-1.17,17.33-3.07,25.56-5.51,6.88,22.46,36.38,54.81,50.41,75.09,50.01,72.25,56.78,153.58,41.59,238.91Z"/>
  <path class="st2" d="M774,180c6.03-.24,12.03.08,18,.95,2.91-1.73,6.43-1.27,9,1.05-1.91.38-4.16,1.85-7,1,1.41,11.6,4.24,23.01,5.86,34.64,26.88,192.5-58.27,360.34-211.54,472.18-133.27,97.24-292.61,128.66-455.69,111.06-2.8-.3-5.82-1.37-8.62-1.88l-1.62-1.81c3.05-14.29,3.64-28.79.2-43.34l1.42-2.85c22.74-4.54,46.44-5.6,69.38-9.12,237.21-36.42,432.72-171.48,524.82-396.18,18.93-46.18,41.58-120.25,42.81-169.69,2.46-2.77,12,.7,13,4Z"/>
  <path class="st1" d="M921,488c-31.92,179.33-177.76,345.35-344.31,414.19-151.63,62.68-354.91,64.16-473.69-63.19l6.49-7.95c41.32,25.83,90.85,41.46,138.5,51.46,216.33,45.42,443.1-59.96,575.43-229.59,40.56-51.99,73.07-101.02,95.61-163.4.6-1.66-1.29-3.68,1.97-1.51Z"/>
  <path class="st3" d="M769,66c1.93.03,10.97-.55,11,1,3.96.65,9.41,1.11,16.36,1.38l-.66,2.77c-2.3-.6-2.3,1.41.01,6.03-2.72,34.07-3.56,69.37-1.54,103.42-6.73-.2-13.46-.4-20.17-.6-3.9-.8-8.87-3.14-13-4,.44-17.62-7.35-48.34-14.81-64.69-4.69-10.3-16.09-22.99-13.95-34.57,1.29-7.01,9.29-10.97,15.76-11.73,7.05.26,14.05.59,21,1Z"/>
  <path class="st6" d="M829,174c.62,2.42-4.29,3.27-5.79,3.71-7.41,2.16-14.77,2.8-22.21,4.29-8.98.18-18.19-.19-27-2,1.84-.72,9-2.22,10.37-2.05.67.09.53,1.84,1.31,2.04,2.08.51,5.07-.29,7.32,0-2.86-3.79-.74-7.83-.95-12.54-.46-10.35-2.27-25.89-1.05-35.86,1.43-11.65.78-23.98,1.2-36.09.18-5.14,1.99-15.89,1.39-20.05-.25-1.71-3.73-2.76-3.6-4.94l6-1.5-16.99-1.02c-.17-1.14,1-.92,1-.99,13.58-.21,30.35,1.74,43.22,6.28,10.17,3.59,13.61,8.34,11.54,18.99-3.12,16.08-6.96,27.79-7.76,45.24-.33,7.2.12,30.38,1.99,36.49Z"/>
  <path class="st0" d="M124,751c1.66,7.14,2.9,16.11,3.05,23.45.11,5.31-1.68,19.42-3.05,24.55-2.32,8.68-12.44,28.31-18.48,35.01-1.26,1.39-2.42,2.89-4.52,2.99-5.91-6.45-12.1-10.88-14.54-19.96-3.12-11.61-1.36-23.9,1.83-35.26,6.33-22.55,13.77-26.4,35.72-30.78Z"/>
  <path class="st4" d="M769,66c-6.78-.12-14.59.93-21-1,4.47-.53,10.78-.07,15.51-.02,1.69.02,4.45-.64,5.49,1.02Z"/>
</svg>