<?xml version="1.0" encoding="UTF-8"?>
<svg id="Layer_1" xmlns="http://www.w3.org/2000/svg" version="1.1" viewBox="0 0 1024 1024">
  <!-- Generator: Adobe Illustrator 29.5.1, SVG Export Plug-In . SVG Version: 2.1.0 Build 141)  -->
  <defs>
    <style>
      .st0 {
        fill: #2f637c;
      }

      .st1 {
        fill: #363f4b;
      }

      .st2 {
        fill: #161618;
      }

      .st3 {
        fill: #1e2a37;
      }

      .st4 {
        fill: #141516;
      }

      .st5 {
        fill: #242f3d;
      }

      .st6 {
        fill: #0d0e0f;
      }

      .st7 {
        fill: #303b48;
      }

      .st8 {
        fill: #151416;
      }

      .st9 {
        fill: #0e0f0f;
      }

      .st10 {
        fill: #5d676e;
      }

      .st11 {
        fill: #2f3b47;
      }

      .st12 {
        fill: #273d47;
      }

      .st13 {
        fill: #151617;
      }

      .st14 {
        fill: #161718;
      }

      .st15 {
        fill: #444648;
      }

      .st16 {
        fill: #fcfcfa;
      }

      .st17 {
        fill: #1f2936;
      }

      .st18 {
        fill: #2e627c;
      }

      .st19 {
        fill: #101011;
      }

      .st20 {
        fill: #101111;
      }

      .st21 {
        fill: #2f627c;
      }

      .st22 {
        fill: #131314;
      }

      .st23 {
        fill: #fdfdf9;
      }

      .st24 {
        fill: #26313e;
      }

      .st25 {
        fill: #111112;
      }

      .st26 {
        fill: #27323f;
      }

      .st27 {
        fill: #2f637d;
      }

      .st28 {
        fill: #444548;
      }

      .st29 {
        fill: #232e3b;
      }
    </style>
  </defs>
  <path class="st10" d="M693,325l2.26,1.24c8.79,13.14,14.65,29.05,19.74,43.76-.69.97-1.08,2.01-.81,3.22,2.89,8.56,5.48,17.84,6.81,26.78,3.01-.48,4.34,13.78,3.93,15.51-.23.95-1.11,1.55-1.93,1.99.78.09,1.96.35,2,.9.23,2.88.73,24.58,0,25.63-.5.73-1.11,1.25-2,1.46,3.66,1.17,1.49,7.33-1,9.5-.77,7.34-2.27,20.13-4,27l1.41,2.51c-4.74,16.09-11.4,31.69-19.09,46.6l-3.31,1.89c-3.38,6.01-13.23,22.02-18,26,.95,3.55-4.78,5.09-7.72,5.59-2.61,12.19-5.57,24.31-9.92,36.02l-2.36.4c-59.34,116.36-237.96,120.04-293,0l-2.6-.95c-4.12-10.93-7.52-22.02-10.18-33.28-4.09-2.23-7.16-4.82-9.21-7.77,2.15-2.78-.02-1.59-.86-2.61-5.23-6.37-13.27-16.42-17.14-23.39l-3.39-2.1c-7.28-14.69-12.9-30.29-17.02-46.16l1.4-2.74c-1.96-8.6-3.05-17.22-4-26-.58-.63-1.12-1.28-1.55-2-3.07-5.16-3.34-48.06-.09-53.07.46-.7,1.03-1.33,1.64-1.94,1.2-7.51,4.64-20.59,7-28l-.9-3.66c4.9-14.07,11.3-27.61,18.58-40.59l3.31-1.74c78.01-133.31,283.3-132.54,362,0Z"/>
  <path class="st27" d="M331,325c-7.83,13.37-16.26,31.09-21,46l-70.5-72.98-126.49,118.5c-8.32,5.42-15.4,17.49-25.75,19.25-23.81,4.04-38.92-20.64-23.77-39.77,13.32-16.83,39.13-36.1,55.53-51.47,20.11-18.86,39.68-38.36,59.97-57.03,11.67-10.74,30.38-30.3,42.51-38.49,10.96-7.39,26.62-7.26,36.98,1.03l72.52,74.98Z"/>
  <path class="st27" d="M715,370c-2.47.52-2.11-1.16-2.74-2.71-5.7-14.16-11.46-29.14-19.26-42.29l69.53-72.97c11.95-10.82,30.28-11.15,42.48-.54,37.72,34.94,75.29,70.05,112.97,105.03,10.65,9.88,42.3,34.68,46.88,46.12,8.69,21.7-13.67,41.35-34.21,30.21-49.43-44.16-97.62-89.69-146.16-134.82-17.59,19.06-35.67,37.65-53.47,56.51-4.02,4.26-13.27,11.57-16.03,15.47Z"/>
  <path class="st27" d="M303,399c-2.93,18.26-1.98,38.64,0,57l-63.51-37.76-132.99,151.76c-18.49,12.83-41.55-.67-38.41-23.41.87-6.27,6.12-12.23,9.94-17.06,39.14-49.55,84.62-94.51,124.46-143.54,12.46-13.59,22.22-27.4,43.51-20.48l57.01,33.49Z"/>
  <path class="st27" d="M722,455c.24-2.29,1-7.98,1-9.5v-28c0-3.86-1.34-13.06-2-17.5l59.45-35.05c8.19-2.29,15.67-1.2,22.87,3.23s21.44,22.28,28.19,29.81c40.52,45.19,79.12,92.17,119.49,137.51,19.29,31.1-20.56,54.97-41.51,26.51l-124.98-143.84-62.51,36.82Z"/>
  <path class="st27" d="M307,482c3.44,15.08,11.75,37.94,19,51l-58.53-8-6.05.93-101.03,169.97c-22.95,20.42-54.56-5.03-37.56-31.56l107.66-179.34c6.5-7.75,14.87-10.95,25-9.97l51.51,6.99Z"/>
  <path class="st0" d="M697,533c7.4-13.16,17.46-36.95,21-51,17.08-1.68,36.49-6.64,53.45-7.05,17-.41,21.37,8.14,29.35,20.75,35.59,56.28,66.56,115.7,101.74,172.26,14.26,28.44-22.39,49.13-41.54,24.54l-99.93-167.98-64.07,8.48Z"/>
  <path class="st21" d="M366,601l-53.96,33.42,38.51,148.53c3.37,19.02-11.1,31.36-29.61,27.61-13.97-2.83-16.66-18.09-19.94-29.56-3.82-20.48-8.82-40.15-15-59-7.84-28.9-20.06-63.45-25.53-92.96-1.94-10.47.21-18.57,8.18-25.89l75.35-44.15c1.67-.43,10.39,5.89,10.85,6.65,1.74,2.93,3.42,13.74,4.89,18.11,1.79,5.33,3.98,12.24,6.27,17.23Z"/>
  <path class="st18" d="M659,601c1.47-2.88,5.21-15.82,6.5-20,.9-2.94,3.79-18.41,4.59-18.97.32-.23,1.9.75,2.92.37.65-.24,5.5-2.98,6-3.4,1.73.18,3.18,1,4.67,1.82,20.88,11.39,48.31,26.23,67.65,39.36,11.3,7.67,14.33,16.28,12.23,29.88l-45.68,168.32c-11.12,21.43-43.83,14.68-44.95-9.88l39.97-154.84-53.89-32.65Z"/>
  <path class="st12" d="M301,781c-5.57-19.45-9.71-39.47-15-59,1.39-2.16,1.2.98,1.46,2.03,3.52,14.25,7.8,28.34,11.46,42.55,1.06,4.11,3.74,10.57,2.08,14.42Z"/>
  <path class="st23" d="M581,466c32.57,2.61,55.79,30.9,54,63,1.11,8.94-2.8,17.36-7,25-5.49,7.75-12.82,16.06-21,21-12.02,8.64-30.72,11.57-45,7-15.62-3.77-32.7-17.44-39.49-32.01-2.86-6.15-4-12.45-5.51-18.99-1.35-12.23,1.46-25.37,8-36,5.47-7.68,13.81-16.29,22-21,8.96-6.44,23.04-9.77,34-8Z"/>
  <path class="st23" d="M478,474c12.95,9.23,24.57,22.14,27.02,38.49.19.49.51.56.98.51,3.05,12.47,1.44,28.43-6,39-7.19,13.13-23.31,26.51-38,30-2.64,1.68-6.83,1.85-10,1-26.94,1.22-35.37-8.28-53-25-4.77-7.38-9.92-16.21-10-25-1.29-4.46-.87-10.43,0-15,.02-.18.79-1.64,1-3-.58-3.41.66-6.98,2-10,.78-.13,6.17-11.42,7.77-13.73,9.23-13.44,26.9-23.82,43.23-25.27,11.88-2.04,24.53,2.17,35,8Z"/>
  <path class="st1" d="M607,575c1.35,1.47-1.01,2.02-1.96,2.53-13.28,7.07-28.91,9.17-43.6,5.52l.56-1.05c14.18,3.42,32.5.55,45-7Z"/>
  <path class="st24" d="M500,552c6.67-12.18,7.96-25.39,6-39,.15-.02.52-.89.98-1.01,2.19,12.95,1.13,26.07-4.43,38.06-.22.47-1.84,4.15-2.55,1.95Z"/>
  <path class="st5" d="M478,474c-10.91-4.89-22.8-9.08-35-8l-3.99-.99c14.39-.74,27.28.64,38.99,8.99Z"/>
  <path class="st29" d="M517,531c-.05,1.11.69,3.26-.99,2.99-.74-14.39.64-27.28,8.99-38.99-6.53,12.17-7.37,22.61-8,36Z"/>
  <path class="st26" d="M547,474c-2.2-.71,1.48-2.34,1.95-2.55,11.39-5.18,21.88-7.48,34.55-6.45l-2.5,1c-10.92-.87-24.59,2.58-34,8Z"/>
  <path class="st7" d="M399,558c-5.1-4.83-10.09-16.39-11-25,.28-.87.62-.86,1,0,1.01,8.42,6.37,17.44,10,25Z"/>
  <path class="st11" d="M628,554c3.62-8.51,6.47-15.55,7-25,2.93,8.11-2.46,18.58-7,25Z"/>
  <path class="st3" d="M389,518c-.39,3.71-.44,11.34,0,15h-1c-.52-4.9.38-10.51,0-15.52l1,.52Z"/>
  <path class="st3" d="M392,505c-.43,3.4-1.47,6.61-2,10-2.53-2.96,1.34-7.5,1.01-11,1.14-.18.92,1.01.99,1Z"/>
  <path class="st17" d="M462,582l1,.99c-3.47.27-8.13,2.53-11,.01,3.15-.14,6.96-.28,10-1Z"/>
  <path class="st28" d="M595,499c3.79,2.53,6.97,5.87,9,10,4.45,8.59,4.45,18.41,0,27-2,4.13-5.37,7.29-9,10-13.32,9.02-31.03,5.2-40-8-5.99-9.34-5.68-19.07-1-29,.78-1.52.53-2.03,2-4,10.4-11,25.83-14.98,39-6Z"/>
  <path class="st4" d="M595,546c-14.82,10.07-30.23,6.67-40-8,8.05,11.71,28.1,16.15,40,8Z"/>
  <path class="st20" d="M595,499c-8.61-4.37-19.08-5.84-28.05-1.55l-10.95,7.55c8.84-11.8,27.5-16.39,39-6Z"/>
  <path class="st13" d="M604,536c3.36-9.91,3.36-17.09,0-27,5.61,8.01,5.61,18.99,0,27Z"/>
  <path class="st19" d="M555,538c-7.14-10.71-6.78-17.75-1-29-.89,4.86-3.15,9.39-3.08,14.49.04,3.15,2.36,12,4.08,14.51Z"/>
  <path class="st6" d="M595,546c.99-.68,8.04-8.63,9-10-2.13,6.3-4.15,6.71-9,10Z"/>
  <path class="st9" d="M604,509c-1.64-2.35-6.83-8.04-9-10,4.88,2.47,7.18,4.63,9,10Z"/>
  <path class="st15" d="M470,546c-12.71,8.95-31.1,5.59-39-8-7.57-9.85-6.09-21.38-1-32,1.76-2.67,5.32-6.27,8-8,33.61-16.75,60.56,24.19,32,48Z"/>
  <path class="st22" d="M470,546c21.74-19.67,9.94-54-20.39-50.89l-11.61,2.89c15.71-10.16,37.65-2.9,43.3,15.2,3.65,11.71.14,26.99-11.3,32.8Z"/>
  <path class="st2" d="M470,546c-12.28,11.12-30.3,5.72-39-7v-1c8.74,13.46,25.54,14.83,39,8Z"/>
  <path class="st25" d="M431,538v1c-7.46-10.92-8.62-21.44-1-33l-3.89,16.39c.89,5.55,1.77,10.81,4.89,15.61Z"/>
  <path class="st16" d="M594,525c-4.37-.27-8.63.01-9.83-5.73-1.37-6.57,4.66-8.01,4.83-9.27,10.29-5.05,17.23,13.51,5,15Z"/>
  <path class="st14" d="M594,525c10.31-3.93,5.87-17.15-5-15,.01-.08-.88-.54-1.01-.98,11.15-4.73,18.29,11.93,8.95,16.53-2.1,1.04-2.63-.54-2.94-.56Z"/>
  <path class="st16" d="M474,522c-1.69,1.26-1.34,2.56-4.56,2.94-7.85.92-12.98-5.9-8.44-11.94,5.28-9.62,19.48.61,13,9Z"/>
  <path class="st8" d="M474,522c4.78-8.83-7.12-16.83-13-9-2.53-1.12.13-2.63,1.29-3.2,8.5-4.22,15.76,2.58,13.56,11.61-.52,2.13-1.76.52-1.86.59Z"/>
</svg>