<?xml version="1.0" encoding="UTF-8"?>
<svg id="Layer_1" xmlns="http://www.w3.org/2000/svg" version="1.1" viewBox="0 0 1024 1024">
  <!-- Generator: Adobe Illustrator 29.5.1, SVG Export Plug-In . SVG Version: 2.1.0 Build 141)  -->
  <defs>
    <style>
      .st0 {
        fill: #545861;
      }

      .st1 {
        fill: #474145;
      }

      .st2 {
        fill: #f29c2c;
      }

      .st3 {
        fill: #5a6063;
      }

      .st4 {
        fill: #fdbc34;
      }

      .st5 {
        fill: #d8ebf0;
      }

      .st6 {
        fill: #5bb880;
      }

      .st7 {
        fill: #428f62;
      }

      .st8 {
        fill: #49986a;
      }

      .st9 {
        fill: #f19a2d;
      }

      .st10 {
        fill: #eff6f7;
      }

      .st11 {
        fill: #daedf1;
      }

      .st12 {
        fill: #feda48;
      }

      .st13 {
        fill: #c3e3eb;
      }

      .st14 {
        fill: #979c9f;
      }

      .st15 {
        fill: #f9cf73;
      }

      .st16 {
        fill: #6f7375;
      }

      .st17 {
        fill: #a8d7e3;
      }

      .st18 {
        fill: #bfe0e9;
      }

      .st19 {
        fill: #7f8285;
      }

      .st20 {
        fill: #fefefe;
      }

      .st21 {
        fill: #96cbda;
      }

      .st22 {
        fill: #b7dde7;
      }

      .st23 {
        fill: #51a472;
      }

      .st24 {
        fill: #f29c2d;
      }

      .st25 {
        fill: #50a472;
      }

      .st26 {
        fill: #b9dee8;
      }
    </style>
  </defs>
  <path class="st16" d="M937,230c-.12,7.57-.39,15.17-.83,22.8-282.91.25-565.88.32-848.92.2l-1.25-2c.28-38.79,9.27-62.79,51.46-69.04l749.02.05c25.66,1.48,48.27,22.16,50.51,47.99Z"/>
  <path class="st21" d="M132,288l2,.93v66.86l-2,1.21c2.62,1.46,3.16,6.08,0,7,1.73,3.66,3.93,11.83,0,14,3.07,1.02,3.09,9.89,0,11l2,.89c.54,4.11.7,14.39-2,17.11.52,7.04,1,14.08,1.33,21.13s.63,14.09.64,21.13c.15,77.48.06,154.99-.17,232.47-.04,14.11-.9,28.19-1.8,42.26l2,2.14-.48,26.17c-.91,23.5,6,47.39,32.25,52.18l2.23,2.51h688l2.2-2.49c27.2-5.69,30.73-26.74,31.34-50.56l-.54-26.86,2-2.1c.45-119.11.78-239.78,1-362-.79-9.29-.62-18.7,0-28-.77-14.56-.81-29.16-.13-43.8l1.13-2.2c7.22-.84,15.64-.63,23,0l.95.32c-.3,160.56-.62,321.12-.95,481.68.54-160.55.73-321.17.56-481.87l1.44-.13.04,486.54c-2.1,30.82-26.61,55.5-57.5,57.5-236.48-1.07-473.32,1.93-709.58-1.51-25.73-6.65-43.31-28.77-45.95-55.05l-.02-488.48h27Z"/>
  <path class="st3" d="M926,288c-272.04.86-554.9.86-827,0-16.98-2.4-13.09-24.37-13-37h850.01c1-1-1.51-18.23.99-21,1.33,15.36-.81,32.71-.21,48.29-.78,3.45-7.47,9.11-10.79,9.71Z"/>
  <path class="st1" d="M926,288c-2.19.4-5.54-.09-8,0-8.88.97-18.1.8-27,0-126.46,3.17-252.96,4.29-379.5,3.37-126.54.9-253.04-.23-379.5-3.37-8.95-.06-18.07.4-27,0-1.93-.09-4.2.25-6,0h827Z"/>
  <path class="st22" d="M918,288v1l-1.07,3.38.07,475.13-1,3.49v-482h-23c-1.71,15.19-.92,30.68-1,46-.28.87-.62.86-1,0-2.96-15.23-3.22-31.82,0-47,8.96-.07,18.05.33,27,0Z"/>
  <path class="st20" d="M891,412c.69,104.32,1.26,208.68,0,313-.25.9-.75,1.56-1.56,1.95-27.27-7.61-57.69-12.2-86.9-16.18l-4.54-1.76-2.65-1.82c-12.35-49.6-52.23-100.37-105.37-62.59-14.91,16.98-29.47,26.39-52.9,25.41-26.93,2.55-44.95,25.94-48.72,51.61l-2.35,2.39-.78,2.05c-66,4.51-141.47-.54-209.01-13.24-1.59-.3-3.13-.92-4.68-1.56s-3.05-1.43-4.53-2.25l-.37-2.14c26.34-33.06,31.71-74.95,31.76-117.08.82-21.23,8.32-40.35,16.23-59.67,12.49-38.66-18.11-19.51-32.17-3.84-32.11,35.8-40.47,75.74-35.35,122.59-.71,14.68-4.79,40.94-11.62,53.68-.91,1.69-3.82,3.43-4.49,1.46-2.47-4.85-3.93-10.4-4.4-16.65-12.92-37.21-9.26-72.59,1.11-109.84,10.47-43.49-5.49-88.67-29.13-124.98-36.89-45.15-29.48,8.64-22.27,34.92,3.64,35.69-2.57,63.94-10.18,98.55.35,3.56-2.24,7-4.12,3.01l-2.24-.58c-5.61-13.91-31.59-58.71-44.65-62.71-7.7-2.36-9.6,4.48-9.14,10.79,1.85,25.78,11.67,58.78,20.58,82.85,10.58,28.59,23.53,50.73,39.02,76.58,1.29,2.16,1.9,4.63,2.43,7.07l-3.65,1.44c-43.32,3.01-87.73,6.46-128.78,20.58l-3.57-1.02c-.65-105.63,0-211.36,0-317,1.04-3.39,4.33-6.59,8.34-5.88,62.06,21.36,130.85,28.17,197.33,30.22,60.89,1.87,117.64-8.36,176.11-23.46,8.64-7.67,16.06-10.55,27.41-7.87l21.02-3.11c61.18-12.6,121.91-20.28,184.51-10.21,48.52,6.72,96.38,14.36,143.59,22.92l.69,2.4Z"/>
  <path class="st15" d="M268,703c5.66-3.49,12.21-2.44,18,0l10,1c.8-.92,2.12-.8,3,0,2.87-.88,5.72-1.25,8.55-1.12l1.45,2.12c7.14-1.2,15.85-.5,23,1,7.01.08,13.89.35,20.62.8,4.08,1.93,9.75,2.35,14.38,2.2,60.42,12.1,125.91,16.49,187.54,17.04l31.46-2.04,1.85,1.37c-.85,7.59-.97,18.19,8.21,20.41l.94,2.22h2c54.79.98,111.56.99,167.15.38,3.85-.04,7.69-.75,11.53-1.64,17.57,1.89,25.24-3.96,22.96-20.02l-4.17-15.89,1.53-1.83c24.92,2.23,49.77,5.97,74.19,11.31,4.4.96,15.38,5,18.81,4.69-.21,33.26,8.25,74.13-35,82H168c-44.01-8.33-35.79-49-36-83,4.96-1.39,9.82-3.33,14.78-4.72,39.18-10.94,80.54-15.18,121.22-16.28Z"/>
  <path class="st20" d="M891,288c-.14,15.65.18,31.35,0,47,1.07,8.52.72,17.67.11,26.38l-1.11.62c-1.52,2.21-6.42.85-6-2l-6.96-.37c-104.52-36.59-219.02-34.35-326.26-8.02-15.64,3.84-31.4,8.78-46.52,14.15l-13.26,2.25-2.17,2.31c-44.52,11.88-91.02,21.16-138.5,21.49-1.38,0-2.76-.25-4.15-.56s-2.8-.76-4.18-1.25c-7.64.91-15.36.9-23,0-.92.5-1.85.96-2.82,1.29s-1.91.62-2.84.61c-37.41-.48-77.44-4.69-114.15-12.15-15.55-3.16-35.32-7.24-49.78-13.21-2.73-1.13-5.37-2.33-7.4-4.53-2.14,2.79-9.51-1.9-10-5v-69c252.81,1.8,506.19,1.86,759,0Z"/>
  <path class="st10" d="M891,399c.68,4.32.67,8.68,0,13-4.41-1.93-8.85-1.41-13.38-2.12-26.6-4.14-52.54-10.02-79-14-39.66-5.97-80.6-11.76-121.08-11.92-47.21-.19-90.57,12.21-136.13,18.03-3.58.46-7.37-1.59-11.85-.93-7.17,1.07-12.5,7.94-15.26,8.73-22.8,6.53-48.08,10.41-71.53,15.47-41.86,9.04-84.17,10.12-127.28,6.73-27.8-2.18-56.79-2.21-84.72-7.28-25.13-4.56-54.43-10-78.78-17.22-3.9-1.16-10.82-5.37-14.27-4.35-1.98.59-2.98,3.99-5.72,3.84v-18c2.09-1.53,5.26-3.17,7.96-2.95,105.5,28.95,219.46,37.29,328.02,13.88,65.17-14.23,129.34-28.22,196.19-31.02,37.97-1.59,78.34,1.82,116.2,7.31s73.69,12.79,108.89,20.9l1.74,1.87Z"/>
  <path class="st11" d="M891,392c.68,2.31.69,4.67,0,7-13.8-4-28.18-5.4-42.21-8.29-50.52-10.44-99.48-18.82-151.13-19.64-11.79-.19-24.37-.46-36.17-.08-61.42,1.97-121.11,15.75-180.65,28.35-60.06,12.71-112.66,18.32-174.37,15.71-52.99-2.24-104.12-12.28-155.67-23.35-3.16-.68-9.14-3.56-11.37-3.7-2.82-.19-4.66,3.07-7.42,1v-11l1.2-1.74c72.57,22.35,158.14,33.31,237.95,29.08,55.01-2.91,107.4-14.76,160.82-26.85,111.12-21.39,227.21-19.38,337.19,8.3l20.73,3.02,1.11,2.18Z"/>
  <path class="st13" d="M891,376c.71,3.32.7,6.67,0,10l-.5,2.29c-76.73-15.95-155.33-26.91-234.32-24.61-73.55,2.14-144.17,16.12-215.49,31.23-96.14,16.66-202.28,9.64-293.06-17.05-9.18-1.55-14.39-6.17-15.64-13.86v-7c3.15,1.1,7.14,3.93,10,5,6.98,4.73,14.96,7.83,23.96,9.29,11.83,4.47,26.23,7.35,39.23,9.6,52.91,9.15,104.03,15.26,159.13,11.08,14.69-1.34,29.25-1.33,43.69.03,22.22-3.24,44.12-7.89,65.67-13.96,8.13-1.09,15.48-2.78,22.95-6.24,120.78-26.15,250.47-20.32,371.09,2.78,8.17.45,15.93.93,23.29,1.42Z"/>
  <path class="st5" d="M891,386c.69,1.98.69,4,0,6l-22.25-3.25c-97.91-24.91-199.91-28.41-299.23-14.73-41.59,5.73-81.9,17.19-123.31,24.69-91.48,16.57-186.01,10.4-276.42-9.99l-37.79-10.71v-14c2.9,1.13,2.25,4.65,4.02,6.48,5,5.18,43.77,14.08,52.94,16.06,60.64,13.09,120.49,16.68,182.57,14.5,52.67-1.85,103.09-15.76,154.74-25.26,126.91-23.35,234.12-17.21,360.27,10.28,1.66.36,2.75.77,4.45-.05Z"/>
  <path class="st26" d="M892,363l-1,3c-.9,9.41-3.77,10.22-12.53,9.53-16.1-1.27-31.8-4.39-47.59-7.64-104.83-16.59-215.64-18.44-318.88.12.42-3.55,4.65-4.85,7.81-5.79,32.02-5.14,65.5-10.02,99.41-11.44,80.62-3.37,162.66,3.25,241.13,17.37,6.36.87,25.72,2.56,27.27-5.28l2.37-.87c2.09-7.54.9-18.69,1-27h1c-.05,9.32.03,18.68,0,28Z"/>
  <path class="st12" d="M856,807H168h688Z"/>
  <path class="st22" d="M891,725c.65-104.3-.03-208.7,0-313,0-4.32,0-8.68,0-13,0-2.33,0-4.67,0-7,0-2,0-4,0-6,0-3.33-.01-6.68,0-10-2.06-2.19-2.06-5.52,0-10,.05-1.1-.31-2.52,1-3-.34,119.82.24,239.68.02,359.52-.11,1.11.51,2.34-1.02,2.48Z"/>
  <path class="st4" d="M675,474l47.48,37.03,11.55-18.5c6.98-7.5,13.84-14.34,23.28-18.72,37.44-17.35,32.1,14.4,21.86,37.86-2.83,6.49-6.76,12.41-10.01,18.66,7.13,11.94,14.47,25.35,16.72,39.28,1.61,9.98,3.01,19.68-10.4,19.45-15.53-.27-36.06-14.96-44.9-27.15-2.87-3.95-4.83-8.48-7.38-12.63-.47-.77.34-1.7-1.69-1.27-23.37,17.94-49.44,39.67-77.56,49.5-1.6.56-3.55-.21-2.97,2.48-1.38,1.08-3.23,1.45-5.55,1.11-14.1,2.87-27.96,4.11-42.46,1.69l-4.99-2.8c-26.73-4.83-61.09-26.5-76.82-48.68-11.61-16.38-11.99-24.71-.99-41.62,15.33-23.58,49.36-46.67,76.81-52.69,17.2-7.87,40.7-4.73,58.51.84,9.99,3.12,23.61,7.84,29.49,16.16Z"/>
  <path class="st14" d="M798,709c4.43,14.55,12.12,35.45-8.76,39.74-61.56-.02-123.19.93-184.75.28-1.69-.02-4.45.64-5.49-1.02h-2c-12.26-1.92-12.16-14.52-11-24,2.94-23.93,16.69-46.37,40.56-53.94,14.7-4.66,30.97-.13,43.92-10.08,14.17-10.89,17.65-21.46,37.77-27.23,53.52-15.38,77.04,34.52,89.76,76.26Z"/>
  <path class="st6" d="M331,704c-5.13,1.69-14.96,1.28-20-1l-2.38-3.43c-2.87-16.85-6.52-33.54-10.96-50.08-8.15-28.73-1.54-55.94,6.19-83.76,3.63-15.74,2.83-32-1.08-47.62,2.81,15.21,1.29,30.85-2.34,45.82-10.49,33.62-15.66,66.56-4.41,101.03l9.49,35.22c1.78,4.57-3.75,3.99-6.51,2.81-5.65-.36-11.42-.55-17.33-.57-.81-.44-1.55-.93-2.06-1.6-3.32-4.32-10.42-27.32-12.57-34.28-7.34-23.81-9.98-44.09-6.4-68.17-.72-4.13-.27-7.26,1.36-9.38,3,.59,1.79-1.45,2.14-3.3,6.36-33.14,14.58-59.4,10.73-94.07-1.47-13.23-9.85-40.79-5.66-51.92,5.1-13.55,18.68-2.97,24.76,3.82,19.88,22.2,37.4,68.39,39.02,97.98,2.01,36.9-15.78,67.18-12.86,104.86,1.51,19.5,9.83,38.03,10.87,57.63Z"/>
  <path class="st23" d="M367,709c-2.37.23-14.72-.93-15.3-1.81-.37-.55-.25-1.42,0-2.38,15.02-33.77,24.11-66.48,21.06-103.29.09-15.13,4.95-29.6,11.66-43.15-9.18,12.87-15.28,27.55-15.45,43.56,3.78,37.55-5.9,70.62-20.51,104.67-5.44-.31-10.92-.51-16.45-.59-7.67-.61-15.34-.59-23-1-1.71-2.26-.5-3.42,2-2,1.93-.46,5.1.99,7.46,1.04,3.78.09,8.94.36,12.54-.04.57-.06,1.42.3,1.85-.12,6.49-17.06,11.27-34.95,12.19-53.33.65-12.8-1.68-25.39-1.09-38.09,1.69-36.41,19.08-73.52,47.04-96.96,14.3-12,34.03-17.85,27.29,9.29-2.83,11.39-9.16,23.01-12.54,34.46-10.75,36.32-1.61,69.07-14.72,106.28-2.79,7.93-17.63,40.23-24.02,43.48Z"/>
  <path class="st25" d="M262,589c2.24,8.95-1.85,27.82-.98,39.48,1.91,25.81,12.2,49.6,21.08,73.42,5.76-.59,11.51.74,16.9,1.1.87.28.86.62,0,1-1-.04-2,0-3,0l-10-1c-5.97-.03-12.03-.16-18,0-28.41-40.39-47.98-86.66-58.51-134.99-2.14-9.8-5.56-23.74-5.57-33.51,0-12.12,9.44-14.61,17.97-6.89,10.9,9.85,36.66,47.62,40.11,61.39Z"/>
  <path class="st2" d="M675,474c-25.94-17.03-57.7-23.64-88-17,21.96-18.6,57.86-27.1,86.22-23.72,29.58,3.52,14.99,27.39,1.78,40.72Z"/>
  <path class="st24" d="M641,600c7.44,3.56,17.75,21.97,5.29,24.79-15.93,3.61-48.37-11.47-58.29-24.79,8.35,1.51,19.07,2.33,27.55,2.05,6.92-.23,15.97-3,22.01-3.06,1.47-.01,2.23.43,3.44,1.01Z"/>
  <path class="st19" d="M597,748l81-.99c4.98-57.45,86.3-57.43,90,.99h-169c-.65-.07-1.37.1-2,0Z"/>
  <path class="st8" d="M311,703c-.43.1-1.42,1.59-2,2-2.92-.16-6.41-.86-10-1v-1c1.07.07,5.04.36,5.01-.51-7.42-30.45-19.83-62.03-15.87-93.84,3.46-27.8,15.86-51.08,13.9-80.18-1.08-16.09-7.43-31.71-9.54-47.47,8.6,22.32,17.02,45.13,15.54,69.55-1.28,21.04-10.71,40.94-12.03,61.97-1.97,31.32,12.15,59.86,14.99,90.49Z"/>
  <path class="st7" d="M332,706c3.14-3.29,12.52,1.39,15,0,.09-.05-.68-1-.29-1.95,8.55-20.84,18.98-44.79,20.33-67.5,1.04-17.5-2.29-35.42,2.47-52.53,4.22-15.15,15.04-31.46,26.48-42.01-2.05,5.91-6.36,10.85-9.17,16.32-17.92,34.94-9.75,46.57-12.84,82.16-1.86,21.43-13.56,45.86-20.98,66.02,4.76.34,9.34,1.56,13.99,2.49-.82.42-1.46.82-2.45.82-9.68,0-22.43-3.01-32.55-3.82Z"/>
  <path class="st6" d="M296,704c-3.14-.02-7.7.83-10-1,3.14.02,7.7-.83,10,1Z"/>
  <path class="st17" d="M884,360c-.32.95-.78,1.9-1.67,2.43-5.24,3.13-36.15,1.63-43.37.92-84.38-11.94-172.94-16.71-256.87-14.21-7.63,4.74-16.32,6.43-26.07,5.05-6.01.55-8.77,1.98-13.78,4.96-9.51.58-18.61,2.22-27.29,4.93-2.42,2.58-5.74,3.88-9.96,3.92-4.08.63-8.23,1.24-12.46,1.83l-1.54-1.83c96.81-32.59,198.4-47.89,300.34-31.84,32.73,5.15,61.36,13.94,92.66,23.84Z"/>
  <path class="st22" d="M884,360c2.01.64,4.14.93,6,2-.78,2.81-2.51,6.85-5.7,7.8s-21.39.57-25.83.24c-5.33-.39-10.82-2.06-16.08-2.92-67.55-11.09-131.06-16.23-199.92-15.05-32.33.56-65.09,2.8-97.24,7.66-10.74,1.62-24.91.86-33.23,8.27-.91,1.43-4.21,1.87-5,0h-2c1.56-1.7,4.33-.8,6.31-1.94.9-.52,1.14-2.38,2.92-3.3,8.02-4.13,18.87-1.62,26.82-4.2,2.32-.75,3.29-3.1,5.02-3.98,8.2-4.21,16.84-1.38,25.36-2.63,3.73-.55,7.97-4.22,10.32-4.77,10.04-2.35,31.94.12,43.75-.16,63.26-1.49,125.24,3.66,187.98,11,18.93,2.22,34.1,5.61,53.11,4.08,5.61-.45,12.02-.69,17.4-2.09Z"/>
  <path class="st26" d="M319,390c7.63.9,15.37.91,23,0,35.99-.64,69.93-4.04,105.19-11.31,13.6-2.81,30.89-9.23,43.81-10.69,3.36-.38,9.78.24,14,0,.66-.04,1.34.05,2,0l-.26,1.49c-10.75,3.36-21.59,6.17-32.52,8.41-21.58,6.24-43.65,10.93-66.22,14.1-43.64,2.52-87.28,3.66-130.54,1.06-18.27-1.1-32.79-2.86-50.53-6.5-12.29-2.52-24.45-3.48-36.97-7.03-7.85-2.23-12.44-2.22-19.26-3.74-2.21-.5-3.68-2.67-5.7-3.3-7.26-2.3-19.74-2.51-23.01-10.49,51.34,19.18,122.3,27.19,177,28Z"/>
  <path class="st13" d="M342,390c-6.8,1.67-16.2,1.67-23,0,7.63.11,15.37.14,23,0Z"/>
  <path class="st18" d="M512,368c12.55-1.6,26.84-6.45,40.52-7.98,91.8-10.33,177.42-7.82,268.82,5.15,19.42,2.76,39.36,8.75,59.16,8.83,7.63.03,7.65-1.86,10.51-8-.14,3.31.01,6.69,0,10-1.42,1.43-1.95,1.33-3.75,1.35-21.47.2-41.36-6.09-61.87-9.23-78.75-12.06-151.73-15.32-230.87-9.11-21.74,1.71-43.67,3.41-64.96,7.04-39.34,6.71-81.91,23.66-121.55,25.95,8.88-2.06,17.8-5.16,26.79-6.71,5.65-.97,11.35-.67,16.47-1.53,6.85-1.15,16.41-6.12,24.47-7.53,3.52-.62,7.25.3,10.55-.45,2.46-.55,4.57-3.36,7.41-4.59,4.33-1.86,9.1-1.52,13.29-3.21,1.63-.12,3.43.2,5,0Z"/>
  <path class="st9" d="M585.01,583c4.77-21.36,9.59-43.42,8.03-65.54-1.07-15.17-6.89-30.65-10.03-45.46,25.07,29.96,25.38,80.04,2,111Z"/>
  <path class="st0" d="M552.75,501.21c13.27-2.55,20.18,16.6,7.95,22.99-17.07,8.92-24.94-19.72-7.95-22.99Z"/>
</svg>