<?xml version="1.0" encoding="UTF-8"?>
<svg id="Layer_1" xmlns="http://www.w3.org/2000/svg" version="1.1" viewBox="0 0 384 384">
  <!-- Generator: Adobe Illustrator 29.5.1, SVG Export Plug-In . SVG Version: 2.1.0 Build 141)  -->
  <defs>
    <style>
      .st0 {
        fill: #935c33;
      }

      .st1 {
        fill: #a9693b;
      }

      .st2 {
        fill: #c47a44;
      }

      .st3 {
        fill: #fdd1a3;
      }

      .st4 {
        fill: #febc85;
      }

      .st5 {
        fill: #633d22;
      }

      .st6 {
        fill: #4b4545;
      }
    </style>
  </defs>
  <path class="st2" d="M38.23,45.75c33.23-8.9,57.19,20.36,67.76,48.87l9.73,25.78c5.37,11.92,10.25,19.17,21.29,26.19,7.41,4.7,8,3.14,9.97-4.05,6.97-25.35,2.57-53.99-14.94-74.76l-.85-3.28,2.19-.46c12.41,11.74,26.33,20.89,41.75,27.45l1.8,2.26c.32,12.88.48,25.83.5,38.86.7.11,1.26.25,1.33.52,3.02,11.99,4.74,17.88,18.06,20.94,8.2,1.89,41.73,1.7,49.01-1.21,13.48-5.4,14.37-16.96,14.64-29.87-.83-10.28-.7-20.44.37-30.5l1.54-.99,2.06-2.04c14.08-3.22,28.85-5.41,43.23-2.84,6.08,1.09,15.05,2.83,18.43,7.87,5.66.09,10.99,5.55,14.8,9.58,16.29,17.22,17.94,36.04,16.53,58.59l-1.34,2.33-2.28,19.91c.43,9.05,3.13,18.78,9.02,25.84,3.18,4.84,4.35,10.56,3.53,17.17-.42,27.71-.62,55.41-.62,83.12-.02.94-4.37,11.48-5.15,12.33-2.78,3.04-8.01,6.38-10.49,2.13,2.4-3.13,5.71-5.31,7.48-8.64l-.16-68.8c-1.61-9.52-20.02-20.92-27.56-27.55-.64-.05-1.27-.13-1.87-.31s-1.16-.35-1.54-.71c-11.86-10.87-22.28-21.95-31.99-34.05l.16-1.67-3.85-.54c-9.28-6.72-19.52-10.57-30.58-5.21-39.29,22.32-84.38,25.96-127.94,14.92-8.2-1.93-14.92-.23-22.49,2.46-12.43,4.42-37.86,14.84-46.24,24.74-12.64,14.93-19.57,31.98-16.49,51.25-.13,3.4-.93,7.12-3.45,9.6-2.04,2-6.92,5.1-9.1,2.54-.38-6.95-3.68-15.45-3.67-22.2.03-13.52,17.46-37.87,21.76-51.57,3.14-3.98,26.21-11.82,32.39-16.34,4.07-2.98.06-12.48-.29-17.48-1.14-16.57,5.16-36.12-5.35-50.9-1.49-2.09-9.77-11.02-12.55-8.69-1.82,11.22-3.2,22.5-5.31,33.68l-1.57-.47c-9.25-10.02-26.06-10.21-36.66-2.53-1.1-6.96-2.04-14.09-3.36-21.02-3.45-18.07-10.9-35.44-3.38-53.97-9.21-3.4-14.01-12.75-16.5-21.77v-4.5c.25-5.56,9.73-4.15,14.06-3.5,6.26.94,11.27,3.21,16.26,6.9l6.26-4.13,1.66.73Z"/>
  <path class="st5" d="M383.84,136.5c-.38,7.11.52,14.71,0,21.75-.59,8.09-2.91,20.5-4.86,28.51-1.01,4.14-1.17,10.71-6.72,9.75-2.21-.38-7.88-7.33-9.27-9.51-4.49-7.01-6.12-13.78-6.88-21.99-.73-7.9.6-15.63,0-23.62-1.47-19.1-13.11-37.78-29.98-46.88,24.8-7.72,48.68,4.63,55.26,29.84l2.47,12.16Z"/>
  <path class="st1" d="M294.62,183.75c-1.87,1.7-4.34,3.19-7.4,4.45l-19.18,12.04c-2.13,1.67-4.26,2.18-6.4,1.51-34.95,15.19-66.44,14.75-103.46,9l-1.77,1.22c-9.64-2.56-20.21-4.83-28.97,1.03-1.08-.63-.04-2.37-1.53-1.92-15.28,4.59-31.91,9.31-46.84,14.66-1.93.69-4.15,1.04-5.63,2.62l-17.07,30.96c0,9.87,4.16,20.91,4.39,30.55.09,3.96-.22,4.29-3.11,6.7-2.29,1.91-14.95,10.45-17.21,11.29-10.16,3.78-5.7-19.47-5.97-24.35,16.09-2.51,9.66-17,10.47-28.15.92-12.71,13.91-35.86,24.67-42.82,8.03-5.19,36.19-17.86,45.41-20.57,11.99-3.53,22.22,1.02,34,2.83,31.84,4.88,60.11,3.73,90.09-8.43,9.28-3.76,21.37-12.03,31.12-12.39,10.33-.38,16.15,5.13,24.38,9.79Z"/>
  <path class="st0" d="M294.62,183.75c3.65,2.07,7.38,8.78,10.52,12.35,7.35,8.37,16.34,17.03,24.72,24.4l-43.82,51.03c-1.98,5.96,3.07,17.97.7,23.2-1.76,3.88-15.73,12.86-19.13,16.86-4.95,2.51-8.43-6.9-8.9-10.54-1.1-8.43,2.11-13.5,2.25-20.19.1-4.89-3.37-12.92-2.15-17.08l24.91-29.82c3.33-4.58-1.93-6.4-4.48-8.94-6.9-6.89-13.12-14.54-17.6-23.27,10.44-4.54,19.6-12.4,28.98-17.13,1.35-.68,2.45-1.08,4-.87Z"/>
  <path class="st0" d="M158.18,210.75l-.73,119.64c-.27,2.19-7.85,14.82-9.39,16.1-.54.45-.75.62-1.49.76-2.41.46-17.8.43-20.23-.03-6.69-1.27.23-13.67,2.43-17.02,5.25-7.97,6.57-4.99,6.16-16.32-1.13-30.94-6.32-62.06-7.48-93.01-.09-2.41-.25-5.54,0-7.87.06-.57-.12-1.2.1-1.76.65-1.64,9.41-3.31,11.53-3.47,6.87-.52,12.59,1.97,19.11,2.99Z"/>
  <path class="st1" d="M350.1,325.5c10.62,2.37,10.65-7.52,14.2-14.67-1.51-30.35,2.17-62.89.07-92.98-.17-2.47-.99-4.73-1.53-7.1,5.6,6.69,17.49,14.65,18.68,23.69l.02,93.64c-1.69,3.04-4.56,12.98-7.46,14.28-1.64.74-22.17.75-25.12.4-9.33-1.09-2.09-13.06,1.14-17.26Z"/>
  <path class="st0" d="M61.47,150c-.62,3.3-.25,6.25-1.86,9.76-7.09,15.45-30.47,13.23-35.26-3-1.05-3.56-.61-6.58-1.11-9.76-.75-3.01,5.54-4.85,7.66-5.46,9.92-2.85,20.84-1.58,28.69,5.47.98.88,1.86,1.51,1.88,2.99Z"/>
  <path class="st5" d="M131.19,64.5c15.45,17.22,21.83,38.77,20.23,61.87-.25,3.56-3.41,22.2-5.74,23.69-3.42,2.18-10.65-2.8-13.69-4.98-17.32-12.4-21.05-36.19-29.39-54.59-9.85-21.72-23.79-42.29-49.76-44.72h-14.61c31.84-17.97,69.39-7.53,92.96,18.74Z"/>
  <path class="st4" d="M262.39,91.5c-4.32,19.53,8.62,54.68-16.83,63.04-7.61,2.5-37.56,2.29-46.43,1.37-31.25-3.26-20.24-40.91-22.21-62.16.26.09.52.67.75.75l1.5,1.12v36.24l-1.5.89.5-1.5h36.47l.88,1.5.92-1.56c15.99-2.13,21.89-15.71,20.51-30.68l1.43-1.51c7.78-1.94,15.87-5.51,23.99-7.5Z"/>
  <path class="st6" d="M38.77,99.13c7.66-1.21,9.22,11.38,1.29,11.86s-8.01-10.8-1.29-11.86Z"/>
  <path class="st3" d="M238.4,99c.65,11.54-.58,23.85-11.48,30.14-2.7,1.56-8.4,3.61-11.39,3.61h-37.86v-38.25c18.49,6.32,41.63,9.27,60.72,4.5Z"/>
</svg>