<?xml version="1.0" encoding="UTF-8"?>
<svg id="Layer_1" xmlns="http://www.w3.org/2000/svg" version="1.1" viewBox="0 0 482.16 482.16">
  <!-- Generator: Adobe Illustrator 29.5.1, SVG Export Plug-In . SVG Version: 2.1.0 Build 141)  -->
  <defs>
    <style>
      .st0 {
        fill: #2da9e0;
      }

      .st1 {
        fill: #bdbcbc;
      }

      .st2 {
        fill: #de7983;
      }

      .st3 {
        fill: #da4f57;
      }

      .st4 {
        fill: #34a3d8;
      }

      .st5 {
        fill: #575656;
      }

      .st6 {
        fill: #e20613;
      }
    </style>
  </defs>
  <path class="st0" d="M112.65,197.48c1.27.73,1.88,2.08,1.82,4.05,1.91,3.34,2.05,5.79.45,7.37l1.29,2.26c-14.55,58.57,31.08,117.08,97.42,126.95,58.06,8.64,110.48-22.79,133.95-69.26l2.72-2.2c16.33,4.71,32.71,9.42,49.04,14.1.08.64.13,1.28.08,1.91s-.12,1.21-.39,1.71c-30.13,55.4-97,97.44-167.27,95.97-94.44-1.98-156.63-73.42-160.04-153.57-.32-7.62-.29-32.43,3.39-37.82.38-.55.84-1.05,1.34-1.54,12.04,3.42,24.15,6.73,36.21,10.07Z"/>
  <path class="st3" d="M76.44,187.41c-16.28,77.16,27.13,163.66,115.6,186.19,85.64,21.81,170.66-24.76,207.28-92.85,6.5,1.86,13.1,3.47,19.61,5.37.17.59.32,1.19.35,1.79.33,5.69-14.08,26.98-18.48,32.9-39.81,53.61-104.08,90.29-178.02,85.52-19.82-.62-38.04-4.15-56.58-10.07-87.06-28.78-132.11-106.91-117-187.76,1-5.33,4.25-22.02,7.57-25.27.46-.45.99-.83,1.55-1.19,6.07,1.69,12.06,3.66,18.11,5.37Z"/>
  <path class="st4" d="M336.71,262.62c.1.53.17,1.05.13,1.57-.43,6.78-24.43,28.03-31.32,33.04-77.33,56.18-173.03,10.27-172.08-75.72-.48-4.59.39-8.57,2.59-11.94-1.24-1.65,1.72-4.78,3.77-4.03,65.77,18.62,131.26,38.14,196.9,57.08Z"/>
  <path class="st6" d="M136.04,209.57c-6.92,44.52,18.67,93.09,68.66,107.11,52.26,14.66,106.27-14.31,132.02-54.06,4.15,1.2,9.44,2.83,13.58,4.03-15.53,32.65-46.35,60.32-85.25,70.17-75.3,19.09-150.47-31.79-153.14-100.74-.37-9.69,2.2-17.94,3.01-27.19.04-2.03,1.16-1.85,3.01-1.18,4.63,3.45,11.01,4.35,16.26,1.38l1.85.47Z"/>
  <path class="st5" d="M112.65,197.48c.4-4.77,2.61-7.66,7.29-9.97,1.85-.92,3.92-.18,3.27-2.41l-27.06-112.08c1.18-1.79,3.4-2.15,5.17-.79,9.97,37.26,19.29,74.88,27.92,112.48,1.47-.27,1.32-1.35,1.51-2.35,6.28-34.53,10.54-69.4,16.77-103.94,1.2-2.94,6.38-2.57,6.38,1.05l-17.92,108.29c-.11,2.24,2.53,3.02,3.7,4.77,2.32,3.48,2.3,9.47.11,12.99-.31.49-3.33,3.72-3.77,4.03-4.38,3.06-9.83,3.33-14.94,1.55-2.32-.81-3.92-3.3-6.18-2.22.32-3.64-2.74-5.68-2.26-11.42Z"/>
  <path class="st6" d="M58.34,182.03c-1.84,4.44-3.37,9.08-4.62,13.68-22.79,83.57,21.47,169.39,113.07,199.72l-.56.82c-12.69-4.06-24.67-8.85-36.15-15.17-76.69-42.17-111.1-125.44-83.8-202.42,4.04,1.04,8.05,2.24,12.06,3.36Z"/>
  <path class="st2" d="M418.95,286.12c2.71.79,6.23,1.41,9.05,2.02-21.09,62.13-85.56,106.61-156.76,116.65-15.12,2.13-29.02,2.36-44.3,2.22-1.27-.01-3.35.43-4.14-.68,72.65,2.28,136.66-31.96,175.79-84.94,8.04-10.88,15.52-22.97,20.35-35.27Z"/>
  <path class="st1" d="M133.78,203.52l1.88-12.08c4.99,2.96,4.49,11.48-1.88,12.08Z"/>
</svg>