<?xml version="1.0" encoding="UTF-8"?>
<svg id="Layer_1" xmlns="http://www.w3.org/2000/svg" version="1.1" viewBox="0 0 133.44 133.44">
  <!-- Generator: Adobe Illustrator 29.5.1, SVG Export Plug-In . SVG Version: 2.1.0 Build 141)  -->
  <defs>
    <style>
      .st0 {
        fill: #006e90;
      }

      .st1 {
        fill: #faba49;
      }

      .st2 {
        fill: #008abc;
      }

      .st3 {
        fill: #fde6c8;
      }

      .st4 {
        fill: #00759a;
      }

      .st5 {
        fill: #009ee2;
      }

      .st6 {
        fill: #fde0b4;
      }

      .st7 {
        fill: #fbc672;
      }

      .st8 {
        fill: #195d78;
      }

      .st9 {
        fill: #72cbf3;
      }

      .st10 {
        fill: #fefefe;
      }

      .st11 {
        fill: #0091c9;
      }

      .st12 {
        fill: #0b6481;
      }

      .st13 {
        fill: #007ca5;
      }
    </style>
  </defs>
  <path class="st5" d="M78.1,109.72c-.06.18-.14.36-.24.52-.7,1.13-9.3,5.48-11.15,6.23l-1.07-.04c-8.22,3.63-17.64,6.37-26.59,7.19.85-3.42,1.21-7.12-.17-10.46l.17-.8c4.86-.47,9.54-1.81,14.13-3.35l.81-.78c3.71-1.28,7.29-2.9,10.78-4.69l1.11-.03c.13-.2.26-.4.42-.58s.3-.33.49-.44c10.23-6.19,18.59-11.55,25.19-21.9,15.65-24.53,4.35-63.04-28.67-60.26-1.85.37-3.62.46-5.33.28-5.43-1.52-6.99-8.45-1.68-11.26,24.8-4.78,46.86,8.25,52.59,33.06,6.65,28.82-6.8,52.33-30.79,67.32Z"/>
  <path class="st8" d="M32.34,56.06l.47,1.18c.24,20.43,16.47,36.13,32.92,45.72l.15.54c-4.37,2.27-7.97,3.92-12.7,5.51-18.08-12.68-32.35-30.09-32.11-53.31,0-.4-.15-1.06.24-1.31l.52.24c1.02,4.47,6.82,5.83,9.3,1.76.44-.59.84-.7,1.2-.33Z"/>
  <path class="st7" d="M38.81,123.62c-.31,1.17-1.04,2.33-1.68,3.35-9.39,10.71-26.53,1.92-23.48-11.98.36-.92,1.09-2.32,1.68-3.11,7.85-12.79,28.9-2.12,23.48,11.74Z"/>
  <path class="st7" d="M119.78,123.62c-.24,1-.93,2-1.44,2.87-8.84,11.53-27.17,2.5-23.72-11.5-.51-.45-.44-.63.24-.72.3-.65.78-1.59,1.2-2.16,7.93-12.97,28.82-2.73,23.72,11.5Z"/>
  <path class="st8" d="M94.87,114.27c-.12.26-.15.49-.24.72-.55,3.24-.98,6.62.4,9.72l-.16.82c-10.3-.89-19.97-4.81-29.23-9.1,4.03-1.78,8.72-4.37,12.46-6.71,5.47,1.93,10.98,3.8,16.77,4.55Z"/>
  <path class="st0" d="M35.7,39.29c-.08,1.59-.47,3.21-1.17,4.86-.24,1.6-.73,3.02-1.46,4.25-3.35,4.43-9.67,2.79-11.02-2.4.67-3.9,1.85-7.4,3.35-11.02l.59.09c.82,5.22,5.17,6.6,9.32,3.81l.39.41Z"/>
  <path class="st11" d="M56.3,9.34c-3.98,3.66-3.86,7.97,1.05,10.58.34.18.76.1.63.68-1.09.75-2.39,1.25-3.89,1.51-1.35.66-2.69,1.04-4.01,1.12-5.72.52-8.64-6.42-4.55-10.3,3.58-1.75,6.85-2.84,10.78-3.59Z"/>
  <path class="st13" d="M43.36,28.03c-.46,1.13-1.24,2.18-2.33,3.14-.76,1.25-1.66,2.19-2.7,2.85-4.4,3.82-10.61-.41-9.58-5.99,2.17-3.46,4.67-6.17,7.67-8.86l.44.37c-1.97,3.99.91,8.56,5.47,7.65.68,0,1.37.09,1.03.85Z"/>
  <path class="st2" d="M50.07,23.24l-.42.76c-1.95,1.08-3.75,2.42-5.43,3.9l-.86.13c-.47-.71-1.85-.17-2.75-.24-2.64-.22-4.86-2.77-4.92-5.4-.03-1.1.66-2.14.73-3.22,2.97-2.67,5.46-4.45,9.1-6.23-1.8,3.04-2.26,6.92,1.12,9.07,1.2.76,2.36.5,3.44,1.24Z"/>
  <path class="st12" d="M33.06,48.39l.38.63c-.32,2.15-.52,4.32-.61,6.49l-.5.55c-1.2.59-1.51,1.92-2.79,2.6-1.53.81-3.11.83-4.7.23-1.82-.69-3.34-2.63-3.53-4.5-.24-2.38.31-5.97.72-8.38.88.13.92,1.31,1.44,2.04,1.85,2.56,5.25,3.25,7.89,1.42.42-.29,1.17-1.59,1.69-1.06Z"/>
  <path class="st4" d="M38.33,34.02c-.24,1.74-1.35,4.07-2.64,5.27-1.28.19-1.88,1.22-3.26,1.42-2.37.33-4.8-.41-5.95-2.63-.53-1.03-.5-2.12-1.09-3.1,1.02-2.46,1.93-4.67,3.35-6.95.73.5.34,1.79.55,2.69.61,2.68,3.09,4.42,5.81,4.27,1.3-.07,2.02-.82,3.23-.97Z"/>
  <path class="st3" d="M119.78,123.62c3.58-14.71-15.22-23.13-23.72-11.5,8.05-15.39,30.88-4.41,23.72,11.5Z"/>
  <path class="st3" d="M39.05,112.36c1.68,3.55,1.6,7.71,0,11.26h-.24c3.86-14.42-15.07-23.15-23.48-11.74,4.74-9.87,19.07-9.36,23.72.48Z"/>
  <path class="st1" d="M118.35,126.49c-5.45,9.34-18.9,8.86-23.48-.96-1.65-3.53-1.64-6.93-.24-10.54l.03,4.64c1.36,9.55,11.76,14.7,20.17,9.68l3.52-2.83Z"/>
  <path class="st1" d="M37.13,126.97c-8.43,13.53-29.33,3.1-23.48-11.98.45.25.21.86.17,1.25-1.18,11.42,10.33,18.76,20.17,12.99l3.13-2.26Z"/>
  <path class="st10" d="M65.88,103.49c-.77-.18-1.47-.69-2.14-1.1-16.2-10.1-31.86-25.81-31.4-46.34.05-2.28.34-5.42.72-7.67.51-3.04,1.47-6.25,2.64-9.1.74-1.8,1.58-3.63,2.64-5.27,1.37-2.14,3.16-4.28,5.03-5.99,1.96-1.8,4.33-3.59,6.71-4.79s5.19-2.08,7.91-2.64c18.79-3.87,35.21,5.15,39.8,24.05,6.66,27.47-8.83,46.88-31.89,58.85Z"/>
  <path class="st9" d="M106.85,57.02c-.62.07-.38,0-.48-.35-.97-3.29-1.48-6.78-2.56-10.13-5.3-16.39-16.52-28.22-33.31-32.81-1.16-.32-2.43-.46-3.54-.78-.33-.09-.74-.03-.83-.49,19.94-2.65,37.07,12.46,40.37,31.61.74,4.3.77,8.6.35,12.94Z"/>
  <path class="st6" d="M38.09,121.46c-.54.1-.38-.02-.54-.3-.44-.81-.63-2.13-1.02-3.04-1.97-4.54-5.43-7.8-10.23-9.17l-2.82-.65c8.17-2.29,15.31,5.11,14.61,13.17Z"/>
  <path class="st6" d="M118.82,121.7l-1.8-4.55c-1.82-3.78-5.03-6.65-9.03-7.98l-3.54-.89c8.14-2.35,15.63,5.41,14.37,13.41Z"/>
</svg>