<?xml version="1.0" encoding="UTF-8"?>
<svg id="Layer_1" xmlns="http://www.w3.org/2000/svg" version="1.1" viewBox="0 0 1024 1024">
  <!-- Generator: Adobe Illustrator 29.5.1, SVG Export Plug-In . SVG Version: 2.1.0 Build 141)  -->
  <defs>
    <style>
      .st0 {
        fill: #ea8c9c;
      }

      .st1 {
        fill: #ed909f;
      }

      .st2 {
        fill: #eb8e9b;
      }

      .st3 {
        fill: #eb8d9c;
      }

      .st4 {
        fill: #ee92a1;
      }

      .st5 {
        fill: #eb8e9e;
      }

      .st6 {
        fill: #4daa5c;
      }

      .st7 {
        fill: #1f9028;
      }

      .st8 {
        fill: #f9adc1;
      }

      .st9 {
        fill: #ec919f;
      }

      .st10 {
        fill: #f9becc;
      }

      .st11 {
        fill: #f6750a;
      }

      .st12 {
        fill: #f9becd;
      }

      .st13 {
        fill: #f8ebfd;
      }

      .st14 {
        fill: #fdc9d6;
      }

      .st15 {
        fill: #419950;
      }

      .st16 {
        fill: #f7acbf;
      }

      .st17 {
        fill: #f9ddf2;
      }

      .st18 {
        fill: #ed93a1;
      }

      .st19 {
        fill: #5bb567;
      }

      .st20 {
        fill: #fdc6d4;
      }

      .st21 {
        fill: #e98c9b;
      }

      .st22 {
        fill: #fdbdcf;
      }

      .st23 {
        fill: #f5790b;
      }

      .st24 {
        fill: #f3a0b4;
      }

      .st25 {
        fill: #fbb0c5;
      }

      .st26 {
        fill: #53b060;
      }

      .st27 {
        fill: #ec93a0;
      }

      .st28 {
        fill: #54af60;
      }

      .st29 {
        fill: #f57a0c;
      }

      .st30 {
        fill: #e98c9c;
      }

      .st31 {
        fill: #eb909e;
      }

      .st32 {
        fill: #e88b9b;
      }

      .st33 {
        fill: #ec919e;
      }

      .st34 {
        fill: #e98d9d;
      }

      .st35 {
        fill: #fd920b;
      }

      .st36 {
        fill: #5db668;
      }

      .st37 {
        fill: #f29eb2;
      }

      .st38 {
        fill: #429b51;
      }

      .st39 {
        fill: #eb91a0;
      }

      .st40 {
        fill: #399d43;
      }

      .st41 {
        fill: #fcc6d3;
      }

      .st42 {
        fill: #fdbed0;
      }

      .st43 {
        fill: #fbc2cf;
      }

      .st44 {
        fill: #fcb6ca;
      }

      .st45 {
        fill: #ea8c9b;
      }

      .st46 {
        fill: #19912a;
      }
    </style>
  </defs>
  <path class="st16" d="M533,437c7.85-5.47,13.34-13.85,15.57-23.16,8.23,1.19,3.81,8.92.54,13.43.03,5.08-.96,9.99-2.96,14.73,14.95,8.81,26.12,20.6,36.44,34.3.85,2.01-.07,3.4-1.61,4.79,3.64,8.17,5.31,16.36,5,24.55,9.35,6.26,14.76,14.06,16.23,23.4-.71-4.99-.12-9,1.8-12.04,1.09,2.08,1.66,5.32,1.87,7.64,3.46,39.57-40.23,113.05-63.05,145.68-4.24,6.07-11.95,17.95-16.82,22.68-.35,1.91-2.02,2.91-5,3,.04,4.31-6.97,4.86-10.56,4.91s-14.02-2.77-13.44-6.91c-9.31-8.36-27.91-38.25-35.42-50.08-20.58-32.47-53.34-91.03-45.58-129.92,1.52-.83,2.72-.6,2.98,1.08-2.49,15.66-1.13,15.07,4.08-1.77,4.61-3.45,6.36-7.21,5.23-11.27l5.89-14.84c-.63-4.31-.17-8.36,1.39-12.17,11.83-12.19,24.5-23.59,38-34.18l3.18-5.65c-2.95-2.33-5.99-15.87-.66-11.72,3.06,5.82,7.03,9.99,11.91,12.52l2.96-.85c12.81,6.72,25.93,8.48,38.94,1.15l3.1.7Z"/>
  <path class="st41" d="M718,362c15.47,8.32,33.77,16.74,48.91,27.59,30.95,22.17,62.58,58.58,76.85,94.15,8.41,20.96,12.95,40.26-16.22,42.31-25.14,1.77-54.34-5.95-80-7.09-53.67-2.37-87.76,6.64-138.54-18.96-2.38-1.99-.66-5.73,2.19-6.26-4.81-9.12-8.2-18.96-10.17-29.53-5.95.2-7-5.61-6.97-10.39l1-12.42c-3.19-1.98-5.34-5.11-6.43-9.39-2.84-1.4-3.38-2.73-1.62-4l.62-1.22c34.31,5.25,24.01-19.44-1.1-6.95l-2.52.17c-1.18,1.36-2,1.27-2.51-.46-2.02-6.85,15.24-9.56,19.56-8.51.92-2.51,2.53-4.93,4.84-7.25l2.78-10.1c1.61-3.16,5.11-9.28,8.46-8.2l5.87-9.67c2.58-1.88,4.04-4.95,4.39-9.2,15.29-11-15.78-4.73-21.18-2.76-2.66.51-4.52-.18-3.21-2.85,8.52-6.11,22.2-7.7,32.9-8.28,28.02-1.52,55.24,3.23,81.89,7.94l.21,1.34Z"/>
  <path class="st20" d="M417,361c-.8,2.57-3.03,3.27-6.7,2.1-4.62-1.87-9.12-2.56-13.51-2.05,6.63,10.18,11.17,22.75,14.26,34.54-3.77,5.81-.95,7.99,8.45,6.54,3.01-.27,8.2,2.64,3.5,3.88l-.4,1.27c-30.26-3.53-36.17,18.2-.78,12.13,3.1-1.43,6.17-2.56,9.18-3.4,1.77-1.54,2.78-.45,2.48,1.87-.49,3.75-13.77,9.76-17.86,8.48,1.14,2.81,2.84,5.27,5.1,7.4l.71,4.72c5.97-1.37,8.01,3.6,1.98,5.91-.74,3.59-.59,7.17,3,8.94,2.26,4.64,2.84,15.48-2.47,18.12,1.05,3.21.25,6.66-2.4,10.36,2.94,5.73,2.76,9.14-.54,10.21-2.23,3.84-27.01,14.07-32.48,16.02-41.8,14.89-73.8,8.12-116.01,10.99-21.46,1.46-43.68,6.17-64.96,7.04-32.64,1.34-42.32-7.45-30.03-39.03,19.63-50.43,76.68-105.6,127.48-124.02.4-.68.84-1.34,1.37-1.9,3.54-3.75,39.93-11.37,44.65-9.31.7.31,1.35.74,1.98,1.21,11.39-1.43,56.16-.8,62.78,6.26.48.51.86,1.12,1.22,1.74Z"/>
  <path class="st14" d="M605,247c1.97,2.75,2.22,6.35.75,10.81-.14,6.04-1.72,10.78-4.75,14.19-1.07,14.55-7.1,31.01-13.08,44.43l-2.92,2.57c-.28.87-.62.86-1,0l-1.33-2.64,3.32-14.65c-5.05,3.21-15.76,3.18-17.33-3.69-9.7-4.56-12.83-13.29-4.36-21.16l-2.31.14h-1l-1.01-2.11c6.57-9.25,15.95-47.9,4.97-54.53-7.95-4.8-17.03,18.7-18.6,24.41-3.15,11.51-6.15,22.62-2.15,34.41l-1.22,2.82c.18,5.91-7.86-2.64-4-5.5-3.32-.96-3.06-13.45,0-15l-1.96-1.21c1.23-11.67,5.4-23.02,10.82-33.42-6.99.73-14.01,1.16-21.08,1.29-.86,6.96-2.8,13.76-5.74,20.13l-3.04,1.7c-.81.12-.81-.54,0-2-1.23-2.23-.97-5.14.79-8.71,4.82-7.56,4.66-59.14-7.37-56.12-11.02,2.77-12.94,60.48-2.52,68.64.18,38.15.22,76.33.11,114.56l-2,3.63c.25,3.43-7.2,4.17-8,1l-2.18-4.61c-6.6-28.97-13.17-57.98-19.72-87.01,5.33-18.07,3.32-43.41-6.31-59.73-6.08-10.29-13.64-5.16-14.64,4.7-2.11,20.66,2.05,41.78,15.29,58.07l19.94,88.53c-.92.66-1.38,1.68-1.36,3.05,1.49,2.65-.15,3.88-3,3-1.84-.67-2.22-2.41-1.15-5.21l-19.62-88.47c-2.85-2.7-5.31-5.73-7.37-9.09l-2.03,16.93c-2.34,6.99-8.72,11.36-16.12,10.67-1.39,3-4.07,3.92-8.04,2.76l2.96,12.61-1.63,1.81c-2.52-.82-2.84-4.4-3-7-4.11-3.98-6.88-9.34-8.28-16.09-3.02-8.67-10.69-38.41-8.82-46,.17-.69.6-1.31,1.1-1.91-2.28-1.73-2.62-3.4-1-5l1.01-18.49c4.44-48.4,27.66-99.5,58.02-136.98,25.17-31.06,40.82-41.63,69.94-7,35,41.62,65.34,111.37,62.03,166.47Z"/>
  <path class="st19" d="M458,761c6.16,12.3,11.75,25,16.76,38.09-2.84,2.77-9.25-7.09-10.75-9.49-3.9-10.94-7.03-13.66-9.37-8.16l-2.47,1.62c-15.41.03-19.63,2.86-12.67,8.5l16.33,26.31c1.46,2.59,1.45,5.24-1.84,4.13l-3.75-2c-34.68-49.57-72.87-99.99-123.19-134.61,30.38,27.52,56.78,58.91,81.39,91.72.84,1.12,1.44,2.41,2.03,3.74s1.07,2.73,1.51,4.14c.86,3.33-1.85,3.16-3.94,1.16l-18.76-21.72c-2.67-2.76-11.63-.73-14.77.07l-2.37-1.15c-3.07,4.98-11.13,7.04-16.66,5.88-1.5,3.46-4.86,4.04-10.09,1.73-5.41-2.07-4.61.99,2.41,9.16,2.49,3.49,3.72,9.99-1.82,6.87-40.18-46.9-72.55-100.53-118.99-141.51-4.44-3.92-31.99-24.96-32.57-27.39-.7-2.94,2.93-4.42,5.3-4.85,13.11-2.42,37.85.79,51.47,3.05,87.9,14.58,163.21,67.39,206.79,144.71Z"/>
  <path class="st22" d="M395,230l7,5c2.76,2.23,10.75,6.6,12,8,.14.15,1.73,3.51,1.75,3.71.1.86-.76,1.22-.75,1.29-1.2,2.22-2.18,4.97-2.94,8.22-2.66.51-17.76,8.45-18.22,9.37-.23.46-2.31,9.15-2.32,9.95.72,2.55,4.95,19.7-1.45,16.75-.98-.45-.89-1.46-.07-2.3l-1.88-1.7c1.74-20.46-29.32-27.25-18.16-.95l-.96,2.65c.31.44.54.87.51,1.29-.35,5.04-8.36-6.04-7.5-9.06-2.09,1.58-4.37,2.88-6.83,3.9-.87,5.51-2.89,9.67-9.08,8.05-3.86,2.91-7.12,3.64-10.78.03-1.69,1.69-3.92,2.54-6.67,2.57-2.96,4.75-8.09,6.18-15.38,4.29l-3.24,4.38c-12.86,5.75-25.96,10.53-39.31,14.34-8.79-8.72-17.69-17.32-26.71-25.79-14.03-13.47-47.55-38.38-54.87-54.63-10.32-22.9,16.96-30.68,33.68-34.06,46.45-9.38,133.2-4.79,172.19,24.69Z"/>
  <path class="st36" d="M697,756c-3.37,3.69-7.71,8.69-13,15-1.86-1.23-1.94-3.22-.24-5.99l8.26-12.34c-.31-.86-15.37-3.84-17.8-2.84-.75-2.7-11.46-5.32-12.26-4.66-2.39,5.37-6.18,2.81-5.96-2.57-7.31-2.56-15.74,4.55-20.53,9.83l-13.08,14.71c-1.73,1.55-3.08,1.26-3.39-1.13.74-1.83,1.52-3.64,2.44-5.39s1.83-3.44,3-4.96c19.58-25.47,40.9-49.73,63.34-72.68-26.35,20.27-48.66,45.18-70.52,70.08l-3.25,1.93c-2.02,1.87-2.92.61-2.95-2.08-.01-1.44,8.19-13.08,9.79-15.22-3.41-1.68-3.31-4.69.29-9.03-7.49,2.53-13.8-2.05-17.68-7.92-2.68.97-5.57,1.57-8.68,1.79-1.19,4.08-3.93,6.11-7.71,7.83-1.68,4.27-4.99,11.62-10.05,6.24,14.87-21.26,31.54-40.8,49.99-58.6,41.49-37.91,113.26-77.84,170.55-80.03,3.85-.15,8.26.57,7.3,5.3-.6,2.93-18.34,20.99-21.82,25.26-32.06,39.38-56.5,85.89-86.03,127.47Z"/>
  <path class="st6" d="M521,696c1.54-.58,3.04-.83,4.5-.76l.5,165.76c1.78,2.15.84.08,1.14-1.34,4.54-21.13,9.24-40.37,16.86-60.66,3.19-1.06,3.56,1.42,2.25,4.04,1.22-1.75,2.86-1.58,4.93.53,8.83-1.21,12.66,1.27,11.51,7.44,4.01,1.29,7.79,2.72,4.36,7.89-8.11,13.46-15.13,27.16-21.05,41.11l.18,2.57c-6.09,13.13-11.91,26.2-17.44,39.21-.05.12.02-2.29,1.27-1.78,8.99-11.15,17.31-22.83,24.97-35.04,3.63-2.73,6.33-6.45,8.08-11.17,3.54-2.4,12.59,3.8,10.14,8.99-5.33,3.07-3.19,11.47-1.48,16.35.58,5.97-2.5,9.91-9.25,11.83-1.99,5.08-4.33,5.82-9.21,7.13l-.99,2.16c1.99-.25,2.57.89,1.76,2.75-8.68,6.52-17.79,12.52-26.51,18.99-4.06,15.1,6.39,45.1-19.02,42.02-19.38-2.35-10.02-32.26-12.97-45.02l-29.51-20.99c-1.72-7.46,11.08,3.46,10.52,2.99-4.24-3.55-8.53-7.01-12.99-10.33-7.48-1.38-8.84-4.18-9.59-11.43-4.13-1.03-5.73-3.42-6.96-7.32l-3.63.17c-5.03-1.25-15.59-9.83-6.88-13.54.36-4.82,8.33-5.64,12.07-3.37,2.38,4.2,6.99,4.75,11.24,4.31.96,3.01,2.39,4.2,4.28,3.57,2.28,3.61,4.06,5.81,7.9,8.37,5.2,8.32,10.55,14.85,16.03,19.59-7.95-23.13-19.28-45.32-33.98-66.56l-.02-2.44c2.01-.73-.25-3.67-.83-4.67-4.79-8.37-10.39-16.33-15.33-24.67-1.43-2.42-6.95-5.69-2.17-8.49.41-.24,6.7-2.89,7.07-2.96,2.44-.46,5.82,1.61,9.57-.4,2.42-1.3,1.39-4.89,4-4.69,5.93.47,7.32,9.1,9.84,13.22,1.67,2.73,5.66,6.97,7.83,9.66-3.7-11.93-9.86-22.91-15.51-33.98-.51-.99-2.47-3.44-.48-4.02,18.14,32.19,31.34,68.33,37.01,105l.99-5v-165l1-2c.64.58,6.16,3.22,7,3.48,7.57,2.27,10.02,2.03,17-1.48Z"/>
  <path class="st42" d="M793,280c-3.48,2.63-7,4.24-10.55,4.83-12.87-8.58-26.78-11.59-42.4-12.78l-22.36-7.91c-10.9,1.01-19.41-1.36-26.94-9.81-4.06,2.62-7.4,1.76-11.44-.32-4.98,1.93-8.69.58-8.31-5.29-4.2-1.56-7.9-4.38-11.1-8.47-6.53-1.79-9.54-5.11-12.87-10.75-6.01-3.36-9.37-6.14-.91-9.38l27.87-10.11c35.13-9.31,75.37-11.3,111.49-6.99,22.79,2.72,65.9,10.36,44.34,42.32-9.72,14.41-24.89,23.54-36.83,34.67Z"/>
  <path class="st44" d="M674,210c-3.62,3.08-8.98,3.41-13.23,5.07s-9.38,3.46-13.96,5.26c-9.11,3.58-.91,5.32,1.62,7.74,1.94,1.85,3.38,5.79,5.58,7.42,1.95,1.43,4.73,1.62,6.94,3.06,2.69,1.75,4.81,5.5,7.68,7.34,1.26.81,4.03.97,4.25,1.24.63.77-.62,4.21,1.07,5.46,1.46,1.08,3.81-.66,5.51-.56,1.96.12,3.56,2.04,6.04,2.05s4.91-2.3,5.94-2.03c.97.25,1.19,2.24,1.85,2.66,1.64,1.02,10.77,6.91,11.42,7.09,3.58,1.03,8.82-.35,12.73.27,7.41,1.19,19.34,8.13,26.22,8.57,8.79.57,18.95,2.38,27.63,5.58,3.43,1.26,8.7,6.12,11.45,6.66,3,.59,6.88-2.98,10.26-2.87-12.5,11.66-25.35,24.48-37,37-3.18,2.62-7,6.21-11.47,10.76l-1.96.26c-8.87-3.82-18.12-6.51-27.77-8.07-6.71-3.6-13.54-6.24-20.5-7.95,1.27,3.2.16,7.69-3.3,5-1.28-1.39-2.56-3.03-3.83-4.93-3.04-.02-5.76-.38-8.17-1.07-5.81-2.21-13.45-2.38-20.53-1.05-4.49,0-9.05-1.21-12.7-3.88-3.99,1.91-6.61-.42-7.84-6.98-3.7.27-6.15-.85-9.05-3.02-4.19.85-8.44.83-12.73-.08-3.6,2.55-6.31,2.37-8.15-.53-5.74-.17-9.08-2.15-10.01-5.94,1.92-5.81,2.92-11.65,3-17.52,1.64-7.74,3.53-17.18,4-25,19.39-19.02,42.98-30.11,69-37Z"/>
  <path class="st12" d="M487,377l.41,2.35c-17.16,13.35-16.5,39.95.09,53.71l.49,2.93c-.13-.06-.57,1.47-2.48.11-4.38-3.1-6.69-8.53-10.51-12.11-1.51,3.32,3.97,9.81,3.83,11.34-.04.39-3.38,6.38-3.82,6.91-7.03,8.61-39.36,28.22-39.55,38.68-.02,1.39,1.33,1.99,1.15,4.07-.49,5.79-6.03,14.48-6.43,17.72-.2,1.61.96,3.2.65,4.59-.34,1.51-4.72,4.54-6.05,6.99-3.13,5.75-4.75,15.49-7.81,21.7-1.74.24-.94-2.27-.99-3.48-.18-4.82.23-8.61.72-13.31.17-1.6,1.15-4.16-.72-5.2,1.44-7.19,5.86-16.45,9.99-22.5l-4.99.5c2.68-4.63-1.43-6.35-1.51-9.06-.13-4.46,3.03-6.16,3.29-7.55.24-1.29-1.23-3.09-.71-4.77.39-1.26,2.42-1.1,2.91-2.38.97-2.58,1.46-10.45.36-13.01-.57-1.32-2.34-1.49-3.13-2.89-1.39-2.48-1.53-7.23-.25-9.7.81-1.55,3.87.66,3.03-2.64-8.46,1.54-4.88-.86-5.97-5.31-.19-.8-4.9-2.37-3.03-6.7-6.98,2.08-6.53,3.86-8.99-3.99,1.16-1.04,9.45.93,11.32.68,1.37-.19,10.34-4.18,11.63-5.22,3.18-2.56.99-3,1.04-3.46-1.22-3.39-3.84-5.94-7.87-7.67l-.13-2.33c2.48-1.27-3.32-1.86-3.62-1.88-3.5-.2-9.27.94-11.3-1.72-2.22-2.92.86-3.98.98-6.84.14-3.24-9.21-25.5-11.32-29.79-.94-1.9-2.73-3.38-3.73-5.27,6.3-5.82,15.68,3.21,22.99.51l1.59-.91c12.6,4,24.88,9.09,36.83,15.29,17.1,7.13,10.3-5.12,4.22-13.67-10.33-12.15-18.52-23.64-25.73-38.3-.28-.57-.27-1.29-.25-2.06s.17-1.57.35-2.35l-4-16.99c2.31-.55,5.34,1.59,7.37.91,1.33-.44,1.24-2.68,2.32-2.94,2.03-.49,4.1.2,7.04-.75s7.12-5.04,8.01-7.99c.57-1.9,2.26-19.76,2.15-21.81-.09-1.72-2.1-3.12-2.64-5.2-1.62-6.21-.85-12.77-3.22-18.87l1.96-3.37c.86,10.6,2.77,23.06,8.2,32.3,2.15,3.65,4.5,5.02,6.82,8.18l19.81,89.31-.82,5.2Z"/>
  <path class="st10" d="M562,277c1.64-2.07,3.45-5.71,5.99-5.99,1.74,3.68-7.01,12.6-6.99,13.36.16,5.23,2.35,7.29,5.74,10.65.6.59,2.39.61,3.24,1.48,1.07,1.09.9,2.95,2.05,3.99.87.79,8.26,1.38,9.31,1.19,1.99-.36,4.73-3.46,7.66-2.67-2.44,6.39-3.05,13.68-4.99,20-1.2,8.59-5.4,16.6-10.41,23.75-5.89,7.44-11.45,15.1-16.69,22.96-11.59,18.06,3.4,12.02,14.95,7.16,9.04-4.76,18.29-9.05,27.75-12.87l3.41,1c.97,1.91,3.37.65,4.83.34,6.54-1.37,14.88-3.79,21.56-3.07,2.02.22,5.26,2.81,4.55,5.1-.41,1.32-3.68,2.18-4.83,4.23-1.56,2.76-.55,5.84-1.32,7.19-.21.36-2.21.91-3.22,2.25-1.52,2.01-5.61,9.73-6.52,10.55-1.07.95-3.52-1.08-4.04-.59,2.58,4.17-.96,2.41-2.47,5.02-2.13,3.67-1.7,9.82-5.1,14.9-.58.86-2.38,1.21-2.92,2.11-.77,1.31-.3,3.65-.55,3.92-.68.74-13.82-1.75-19.09,4.53-1.43,1.71.15,2.37.13,2.51,1.05.74,1.42,2.02,1.11,3.84,2.18,1.24,2.81,2.62,1.89,4.16.42,2.36.11,0,2.73,2.29,1.69,1.47,2.2,5.33,3.39,7.1.99,1.47,3.28,1.88,3.77,3.29,1.12,3.24-3.1,14.99,1,20.74.86,1.21,3.44.02,4.64,1.57,1.85,2.39,2.26,9.68,3.39,12.61,2.03,5.23,2.05,6.27,3.54,11.46.44,1.54,4.54,7.02,4.53,7.45-.04,1.15-2.72,1.13-3.27,1.46-1.46.86-.17,3.22-1.71,4.04-4.83-2.43-9.67-4.68-13.99-8-1.08,3.6,2.52,4.63,3.27,6.25,2.43,5.21,5.32,13.11,5.72,18.75.55,7.86.4,18.79-1.03,26.49-.3,1.63.65,1.73-1.96,1.5-.62-6.06,0-18.73-2.55-23.95-1.9-3.88-13.98-13.45-14.31-14.78-.44-1.74.8-3.41.56-4.64-.98-5.09-2.81-9.96-3.93-15.91-.31-1.66-1.83-3.02-1.88-5.27-.05-2.07,2.77-.97,2.06-2.88-1.32-3.51-5.49-6.21-7.41-8.58-3.71-4.58-5.68-8.14-10.52-12.5-2.93-2.63-18.04-12.46-18.55-13.48-1.6-3.21,1.7-5.47,2.31-8.73.47-2.53-.21-5.3.43-7.57.76-2.68,7.54-8.29,1.81-11.7-2.21,8.87-7.88,17.85-16.01,22l.17-2.87c18.45-17,18.32-41.23-1.74-56.66l.58-2.47c-1.29-2.61-2.34-8.86,2-6,7.33-27.56,14.24-55.41,20.73-83.55,2.25-3.08,4.67-5.9,7.27-8.45Z"/>
  <path class="st25" d="M415,248c3.13,25.22,6.03,40.52,16,64l.46,3.29c6.21,11.42-4.91,29.2-18.74,25.52-8.56,3.36-16.93,7.35-25.1,11.98-11.37-.62-23.14-.67-34.62.21-15.57.89-33.12,4.61-48,10-18.76-24.27-38.86-47.74-61-69,8.98,4.01,16.82,18.32,24.44,23.05,4.61,2.86,4.3-.66,5.33-.96,10.25-3.03,19.72-5.11,29.33-9.49,1.44-.66,3.11-.65,4.46-1.54,2.03-1.35,2.84-5.15,5.14-5.87,3.55-1.11,6.86,1.33,10.37.43,2.32-.6,2.47-3.31,4.58-4.55,1.79-1.05,3.1-.25,4.37-.68.87-.3,1.6-2.01,2.63-2.24,1.93-.43,3.65,2.69,5.68,2.65s3.88-2.24,5.44-2.56c2.7-.55,4.16,2.38,6.46-2.51.68-1.45.54-3.49,1.31-4.68,1.17-1.8,5.29-2.14,6.94-4.06,1.47-1.72,1.13-4.46,3.03-5.97.54,5.23.53,10.75,4.07,15.09.87,1.07,1.37-.13,1.43-.09l2.05-.96c6.68,4.96,11.72,7.84,17.46.36l1.49.6c.08-.01.55.88.98,1.01,2.58-5.66-1.57-10.2-1.45-15.52.09-4.22,3.49-7.11,1.94-11.55,6.03-1.55,9.43-4.86,14.27-7.71,1.47-.86,4.12-.73,5.03-1.46,2.36-1.89-.98-8.13,4.24-6.77Z"/>
  <path class="st26" d="M619,766c1.2,1.06,2.3-.64,3.02-1.45,4.98-5.65,12.75-15.05,18.45-19.58,4.06-3.23,19.9-10.3,17.54,1.03,3.17,1,1.44-2.37,2.06-2.89,1.08-.92,10.96,1.82,12.74,2.57,1.25.53,1.08,2.31,1.85,2.37,1.11.08,2.43-.89,3.75-.74,3.31.38,14.68,5.08,16.14,2.73.25-.4,1.83-10.94,5-6.07,2.99,4.6-3.91,7.53-6.16,10.4-1.64,2.1-5.4,7.42-6.82,9.68-1.35,2.14-2.06,4.5-2.55,6.95-5.57,9.64-12.24,18.64-20,27-31.44,40.47-68.91,74.13-110,105-.63-2.07-3-.04-3.92.59-7.03,4.74-13.69,10.43-20.59,15.41-.74.16-.68-1.05-.49-1.48.41-.9,12.73-12.16,14.48-13.53,1.63-1.26,4.06-1.28,5.49-2.51s1.61-3.77,3.04-4.96c1.85-1.55,4.45-1.05,5.95-2.05,1.39-.93,1.56-3.5,3.08-4.92,3.92-3.66,8.85-.29,8.67-10.26-.03-1.79-1.39-2.81-1.53-4-.06-.53-.07-9.1,0-9.58.57-4.26,6.85-2.66,1.69-8.1-1.26-1.33-2.27-1.15-3.06-1.72-1.22-.89-.75-1.83-.84-1.88-1.3-.82-4.59,7.81-5.51,8.96-1.32,1.64-3.38,2.17-4.46,3.54-7.3,9.17-17.76,28-26,33.5l1.55-4.69c25.84-43.49,53.68-85.59,83.51-126.29l3.94-3.02Z"/>
  <path class="st26" d="M346,787c.31-1.13,2.71,1.23,2.01-1.51-1.54-6.07-7.81-10.74-10.01-16.48,5.04-1.04,9.84.17,14.46,1.99,2.6-6.89,2.9-2.42,6.77-3.22,1.15-.24,7.54-2.03,8.54-2.44,1.52-.62,1.88-3.38,4.14-3.92,1.56-.38,2.81,1.64,4.38,1.36,1.01-.18,2.04-1.68,4.19-1.88,1.88-.18,8.64.98,10.08,2.03,6.22,6.85,12.17,14.56,18.39,21.31.52.56,2.7,2.65,3.04.75,1.97,1.71,3.91,3.44,5.74,5.29s3.63,3.68,5.18,5.72c20.1,26.51,39.37,53.67,58.1,81.16,1.44,2.11,2.61,4.41,3.78,6.72s2.21,4.7,3.21,7.11c-1.3,1.41-1.01.91-2.59.07-3-1.61-6.02-6.81-8.36-9.62-3.2-3.83-3.18-3.65-6.01-7.99-1.51-2.31-4.71-3.5-6.11-5.18-.78-.94-.68-4.97-2.91-3.28-.22.17-1.73,5.29-4.01,2.99-1.6-1.61,3.6-6.5.47-7-1.37-.22-2.7,2.34-3.96,2.02-.86-.22-1.08-2.4-1.76-2.79-.95-.56-2.58.1-3.52-.44-.76-.44-.76-2.94-2.94-3.62-2.79-.87-5.58.74-8.31.84,3.01,4.57-2.18,2.91-2.99,4.02-.28.39,1.03,4.38,1.55,4.97.81.94,2.28.74,3.11,1.35.72.53.82,2.09,1.97,2.49,1.97.68,6.51-.4,7.27.27.3.26.4,3.8,2.05,5.45,1.33,1.34,3.7,1.32,4.55,2.45,1.36,1.81.63,6.64,2.49,8.51,1.4,1.4,4.65,1.14,6.58,2.43s11.34,8.81,13.37,10.63c1.77,1.59,2.84,4.63,4.41,6.09,1.24,1.16,6.41,1.22,4.17,5.33-5.92-2.51-13.46-11.22-18.61-13.54-1.28-.57-1.81.6-1.89.54-44.21-29.57-85.52-70.75-120-111Z"/>
  <path class="st8" d="M601,272c3.27,4.09-1.86,14.77-.89,18.34,1.1,4.07,10.92.62,10.91,6.66,4.31-5.05,7.72-2.31,12.59-2.09,1.92.09,3.6-1.16,5.67-.77,1.61.3,2.86,2.01,4.48,2.61s3.74-.13,5.27.73c2.16,1.22,2.19,12.43,6.48,5.52,2.29,3.01,7.45,4.57,11.12,4.9,4.01.36,6.6-1.01,9.84-.94,2.55.06,7.24.67,10.09.96,2.17.22,1.68,1.6,2.46,3.08l.1,2.25c-6.19,7.89,5.18,11.56,9.73,4.16l2.17-.41c.17-.28,1.61-.5,1.85-1.66.33-1.61-1.93-4.61.74-5.29,4.68-1.2,16.54,6.26,21.85,8.01s10.95,2.05,15.62,3.38c13.54,3.85,9.63,9.35,21.94-2.94.46-.46,2.58-3.5,3-1.5-12.59,13.53-23.54,29.14-36,42l-2.07,1.68c-27.25-5.19-54.99-9.28-83.34-7.91-7.27-4.8-15.48-6.82-24.64-6.05-4.8-5.24-11.2-8.4-19.18-9.5-14.16-.1-10.26-9.18-5.77-18.22,4.96-16.16,12.26-29.37,16-47Z"/>
  <path class="st28" d="M627,678c2,.42-1.04,2.54-1.5,3-17.45,17.44-34.07,34.58-47.49,55.51,5.48,1.37,5.8-5.24,7.29-7.21.82-1.09,4.22-2.1,5.73-3.77,1.23-1.36,1.52-3.9,2.63-4.61,1.8-1.15,5.29-.8,7.6-1.2.84-.15,1.76-1.47,2.26-1.46,1.37.01,4.72,4.74,4.7,6.52,2.78-.45,5.52,2.72,7.24,2.82,2.47.14,10.47-3.74,7.02,3.39-.67,1.39-3,1.87-2.48,4.01,7.68,1.46,2.6,2.85.56,6.07-2.21,3.5-3.56,6.28-6.09,9.9-.81,1.16-2.88,2.92-.47,4.03-4.82,9.55-10.8,18.57-17.93,27.06-16.31,23.43-29.66,46.16-44,70.67-1.6,2.74-3.82,5.05-6.06,7.27l2.82-9.68c6.56-11.74,12.67-23.65,18.21-35.74-9.98-2.64-5.04-3.14-6.1-6.95-1.36-4.9-11.62,1.13-12.42-4.62-5.7,7.81-5.41,19.35-12.49,27,1.45-9.17,5.32-17.68,8.02-26.48.4-1.32,1.9-3.63-.03-4.52,17.81-47.46,45.75-86.97,83-121Z"/>
  <path class="st24" d="M720,359c-.75.77-1.27,2.12-2,3-.67-.36-11.74-2.22-14.58-2.92-32.36-7.94-68.38-7.67-100.42,1.92-14.28,4.27-27.81,13.89-40.03,17.47-30.42,8.93,4.46-29.74,9.44-37.56,3.87-6.07,9.52-15.19,11.58-21.92h1c-.7,2.3-2.7,9.7-2.55,11.54.45,5.4,5.55,3.87,8.78,4.74,3.64.98,12.14,3.28,15.07,4.93,2.34,1.31,2.97,4.28,4.38,4.7,2.24.68,10.73-.55,15.76,1.16,3.29,1.11,5.12,4.27,9.13,4.87,19.14,2.88,38.21.71,58.62,4.38,8.58,1.54,17.31,6.28,25.82,3.68Z"/>
  <path class="st46" d="M526,861l-1.01-165h-3.99c1.53-.77,3.82-1.86,5-3v168Z"/>
  <path class="st7" d="M496,861v-165,165Z"/>
  <path class="st40" d="M697,756c-10.28,14.47-20.4,29.41-33,42,6.69-8.61,13.3-18.09,20-27,3.33-4.43,6.81-8.88,10.19-13.31.38-.5,2.19-3.82,2.81-1.69Z"/>
  <path class="st25" d="M402,235c-3.38-.1-5.17-3.61-7-5,3.41.19,5.08,3.44,7,5Z"/>
  <path class="st35" d="M507,370c1.4-5.59,5.81-7.36,8-1l.66-1.16c.9,1.87,4.89,3.17,6.46,1.71l1.88,1.45c1.58-5.69,8.96-1.36,8,4,3.57,4.71,9.84,8.99,12.82,14.68,9.14,17.41,1.85,35.15-11.82,47.32-18.65,9.52-27.22,7.21-45-1-16.77-12.42-20.34-36.25-7.41-52.91,1.96-2.53,4.27-3.98,6.41-6.09,1.09-1.07,1.91-1.81,3-3-1.29-6.36,6.69-7.62,9-3,2.53-.11,5.6-.15,8-1Z"/>
  <path class="st34" d="M487.74,478.2c4.89-1.26,4.96,4.42,5.29,8.27.65,7.36.67,25.2-10.46,24.53-14.01-.85-6.34-29.82,5.17-32.79Z"/>
  <path class="st32" d="M537.72,495.72c-7.72,7.71-17.78-4.32-18.74-12.19-.59-4.86.53-9.03,2.04-13.53,10.14.19,25.72,16.72,16.7,25.72Z"/>
  <path class="st30" d="M510.73,522.15c6.65-1.79,19.59,13.37,10.25,17.32-13.46,5.7-18.6-15.08-10.25-17.32Z"/>
  <path class="st9" d="M658.78,406.29c6.74-.79,20.38.89,23.47,7.98,4.43,10.18-16.87,9.44-22.66,8.65-15.1-2.07-19.21-14.47-.81-16.63Z"/>
  <path class="st31" d="M587,428c-.12-.68-3.33-1.93-3.88-3.72-.61-1.99.68-3.05.88-4.28,4.31-8.55,28.59-7.56,27.98,2.43-.53,8.65-19.21,7.14-24.98,5.57Z"/>
  <path class="st2" d="M624.82,387.22c9.83-.45,13.58,10.51,2.71,11.8-16.11,1.92-16.9-11.15-2.71-11.8Z"/>
  <path class="st33" d="M643.74,446.17c11.05-2.21,18.06,12.32,5.75,12.89-9.15.43-16.16-10.81-5.75-12.89Z"/>
  <path class="st37" d="M434,319c3.66,7.69,7.41,15.18,12.19,22.31,5.13,7.66,21.43,24.53,21.86,32.22.1,1.7-.43,3.3-.94,4.88-3.83,5.4-29.25-9.42-34.44-11.59-4.91-2.06-10.61-4.32-15.67-5.83-18.75-5.57-44.52-9.12-64-8,6.92-2.33,15.19-.31,22.45-1.05,1.85-.19,3.38-1.79,5.14-1.95,2.31-.21,4.23,1.21,6.66.84,2.88-.44,16.44-9.48,21.77-11.33,7.11-2.47,12.62,2.87,17.63-5.36.68-1.11,4.99-9.32,5.15-9.86,1.5-5.02-2.66-8.15-.79-12.29,1.02,2.4,1.87,4.62,3,7Z"/>
  <path class="st39" d="M423,406c.77.23,7.48,4.56,8.09,5.46,1.74,2.57.11,2.95-.09,4.54-4.67,8.74-34.62,9.12-36.03-.56-.91-6.24,11.65-10.2,16.57-10.46,1.78-.1,10.02.59,11.46,1.02Z"/>
  <path class="st9" d="M358.74,401.24c18.27-2.94,14.51,14.87-1.98,12.55-11.29-1.59-6.96-11.11,1.98-12.55Z"/>
  <path class="st27" d="M370.76,438.22c9.85-1.44,13.09,7.93,3.54,11.57-14.18,5.41-17.03-9.59-3.54-11.57Z"/>
  <path class="st18" d="M309.75,427.22c11.07-1.65,12.15,9.57,2.52,11.55-15.13,3.11-15.95-9.55-2.52-11.55Z"/>
  <path class="st43" d="M518,250c7.73-15.35,8.05-28.37,7.04-45.54-.26-4.46-2.34-8.95-1.54-13.46,1.09,1.44,3.12,5.17,3.31,6.72.41,3.37-1.12,10.6-.81,13.69.16,1.67,1.63,2.99,1.82,4.31.35,2.46-2.53,8.93.16,10.84,5.99-1.8,14.48.15,20.05-2.05,5.12-2.02,8.06-11.48,15.98-9.5l-8.02,4.47c-8.08,6.25-16.98,32.15-16.98,42.02v15c0,.9,2.46,5.6,3.5,6.48l.5-.98c2.26-1.77,3.21.51,2.99,3.01-7.15,27.96-14.3,56.08-20.4,84.37-.9.48-1.76.31-2.59-.38.25,2.6-6.85.5-7.53-.31l.14-116.1c.41-1.2,1.12-2.66,2.39-2.59Z"/>
  <path class="st29" d="M499,371c-1.93.08-4.51-1.28-7.26.01-1.07.5-.95,2.13-1.74,2.99l-20.68-91.82c-12.84-13.1-17.55-39.91-15.24-57.59,1.3-9.93,8.81-18.31,16.91-8.08,10.24,12.93,14.28,47.67,8.03,62.87,6.91,30.48,14.56,60.84,19.97,91.63Z"/>
  <path class="st23" d="M561,277c-1.85,2.99-3.98,5.9-6.38,8.75-6.41,28.05-13.28,55.8-20.62,83.25-.48-.04-.79.01-.98.51l-1.02,5.49c-1.86-2.45-2-4.51-6.52-4.64-.71-.02-1.28.65-1.48.64-2.12-.64-2.46-1.3-1-2,.46.01.82.02.99-.51,5.41-28.03,13.07-55.6,19.84-83.32.93-1.68-.62-2.54-.82-3.17-4.67-14.26-2.72-22.83,1.28-37.22,2.08-7.46,13.66-37.43,24.15-23.72,8.48,11.09.16,45.04-7.43,55.93Z"/>
  <path class="st11" d="M518,248l-2.42,4.87c.24,38.82.04,77.53-.58,116.13-.25-.04-1.76,1.37-1.99,1.01.72-6.91-4.72-.47-6.01-.01l.06-117.56c-8.61-13.94-8.14-33.03-6.04-48.93,1.1-8.32,6.84-32.78,17.42-17.45,8.79,12.73,5.79,47.99-.44,61.94Z"/>
  <path class="st13" d="M518,250c-.45.89-1.5,1.66-1.74,2.72l-.32,115.67c.19.7,4.72,1.81,5.46,1.69s.57-1.64.81-1.85.69.77.79.77l1,2c-4.86-.23-5.71-1.43-9-2l-.04-115.54c-.47-2.53,2.42-4.06,3.04-5.46v2Z"/>
  <path class="st17" d="M562,277c-1.99,2.51-3.96,6.19-6.74,8.76l-20.28,84.26c-.44-.15-.82-1-.98-1.01l20.03-83.47c1.5-3.54,4.76-5.35,6.97-8.53h1Z"/>
  <path class="st38" d="M454,822c10.52,15.78,22.4,34.22,29.86,51.64,1.52,3.55,6.87,14.39,4.14,17.36-24.41-36.07-49.42-71.52-76-106-15.38-19.95-30.67-40.21-47.49-59.01-14.96-16.73-31.29-32.02-47.51-47.49,1.08-1.32,3.56.73,4.65,1.35,47.1,26.51,102.27,97.05,132.34,142.16Z"/>
  <path class="st4" d="M390,290c-1.31.17-2.88,5.8-7.49,6.09-4.84.3-9.89-3.35-13.51-6.09-15.37-31.09,23.75-27.21,21,0Z"/>
  <path class="st1" d="M325.69,267.19c12.41-3.8,16.3,15.86,2.02,12.59-6.49-1.48-7.51-10.91-2.02-12.59Z"/>
  <path class="st15" d="M614,755c21.35-26.87,45.13-52.16,72.25-73.25l11.75-6.74c-28.29,28.66-54.65,58.92-79,90.99-32.77,43.16-58.75,89.25-89,134-.43.29-.76,1.64-1.5,2-.31-4.03,2.36-9.82,4.02-13.98,3.8-9.55,8.8-18.88,13.49-28.01,19.05-37.09,42.08-72.38,68-105Z"/>
  <path class="st3" d="M656,272c-1.27,20.5-26.63,11.95-13-1.5,1.4-1.38,4.86-2.45,5-3.5,2.9-1.34,8.08,1.53,8,5Z"/>
  <path class="st45" d="M691,317c-.31.51-.08,1.47-1.04,2.42-11.48,11.47-19.99-3.95-10.96-8.42,5.57-2.76,13.07-1.76,12,6Z"/>
  <path class="st42" d="M656,272c-1.62-2.92-4.52-5.16-8-5,0-.07-.96-.46-1.01-.98,3.13-.65,8.2,1.12,9.58,4.06.67,1.42-.56,1.75-.57,1.92Z"/>
  <path class="st0" d="M408.43,312.4c.26-.38,1.94-2.35,2.56-2.39,1.4,4.05,6.04,5.89,8.99,9.52,14.9,18.27-5.98,25.35-13.37,9.37-2.91-6.29-1.96-10.93,1.82-16.5Z"/>
  <path class="st5" d="M365.29,319.3c6.93-5.6,20.15,6.59,14.17,13.66-7.81,9.24-22.02-7.32-14.17-13.66Z"/>
  <path class="st19" d="M359.99,800.99l-5.99-7.99c4.2-.77,5.79,4.77,5.99,7.99Z"/>
  <path class="st21" d="M642,310c.02.77,1.21,2.13.96,4.36-.81,7.32-12.89,18.18-19.74,20.36-14.89,4.74-17.22-3.96-11.22-15.72,3.41-5.87,17.93-16.26,24.51-14.24,1.38.42,6.72,3.66,5.49,5.24Z"/>
  <path class="st44" d="M612,319c1.8-3.52,3.8-5.93,7.09-8.41,2.75-2.07,14.61-8.16,17.19-7.45,1.11.3,2.26,1.98,3.38,2.74,2.42,1.63,3.7-.14,3.32,3.6-.07.69-.98.46-.98.52-9.14-10.92-22.78,2.08-30,9Z"/>
</svg>