<?xml version="1.0" encoding="UTF-8"?>
<svg id="Layer_1" xmlns="http://www.w3.org/2000/svg" version="1.1" viewBox="0 0 133.44 133.44">
  <!-- Generator: Adobe Illustrator 29.5.1, SVG Export Plug-In . SVG Version: 2.1.0 Build 141)  -->
  <defs>
    <style>
      .st0 {
        fill: #f8bf8d;
      }

      .st1 {
        fill: #237862;
      }

      .st2 {
        fill: #f4a119;
      }

      .st3 {
        fill: #9384ba;
      }

      .st4 {
        fill: #edaf32;
      }

      .st5 {
        fill: #fcd093;
      }

      .st6 {
        fill: #52b09e;
      }

      .st7 {
        fill: #eec76d;
      }

      .st8 {
        fill: #8dc9b7;
      }

      .st9 {
        fill: #aa9bca;
      }

      .st10 {
        fill: #604594;
      }

      .st11 {
        fill: #bcc890;
      }

      .st12 {
        fill: #f3c777;
      }

      .st13 {
        fill: #6f62a4;
      }

      .st14 {
        fill: #f3d79b;
      }

      .st15 {
        fill: #54b69d;
      }

      .st16 {
        fill: #9eb9c3;
      }

      .st17 {
        fill: #604393;
      }

      .st18 {
        fill: #2da68f;
      }

      .st19 {
        fill: #1f765f;
      }

      .st20 {
        fill: #ab9dcb;
      }

      .st21 {
        fill: #ee7b17;
      }

      .st22 {
        fill: #28a98c;
      }

      .st23 {
        fill: #dcd6ec;
      }

      .st24 {
        fill: #fefefe;
      }

      .st25 {
        fill: #67579d;
      }

      .st26 {
        fill: #29a98d;
      }

      .st27 {
        fill: #746b9d;
      }

      .st28 {
        fill: #afd5ca;
      }

      .st29 {
        fill: #b8e0d6;
      }

      .st30 {
        fill: #f5a017;
      }
    </style>
  </defs>
  <path class="st17" d="M74.51,29.95c.12.15.12.23,0,.24.7.39.78.71.24.96.25.11.39.34.43.68,11.23,2.42,12.28,14.09,9.43,23.43-1.79,5.88-3.83,11.81-6.5,17.34-.41,1.54-1.07,3.43-2.16,4.55l-.19-.36,1.39-3.48-.22-.67c2.81-6.77,5.84-14.22,6.77-21.54,1.21-9.59-4.25-17.39-14.48-15.94.09,1.26.06,2.52-.1,3.77l-.6.12-.46-.11c.05,7.41-.04,14.79-.26,22.15.36,2.41.38,5.02,0,7.43-.27,7.03-.28,14.15-.23,21.26-.05,1.04-.82,1.66-1.45.63l-1.65-54.76c-6.39-2.75-14.47,3.26-14.15,10.4l-.49.67c.5.79.74,1.76.72,2.92,1.47,7.05,3.55,14.25,6.12,21.18l8.17,22.26c-.88,2-2.84-2.52-2.55-3.72-1.97-3.72-3.41-7.76-4.79-11.74-3.36-8.09-6.87-16.62-8.94-25.17-1.69-6.98-1.93-13.83,4.8-18.11-.62.52-1.16.65-1.61.4-.27-.73.27-1.38,1.62-1.92l3.04-1.44c.38-.64.83-1.11,1.33-1.43,2.2-3.19,10.49-2.93,13.78-1.68,1.18.45,2.08,1.34,2.99,1.68Z"/>
  <path class="st15" d="M57.74,29.95c-.32.46-.38,1.2-.72,1.55-.93.96-4.4,1.64-5.26,3.24l.07.55c-1.58,1.45-2.85,3.29-3.61,5.3l-.54.14c-1.07,3.13-.77,6.39-.09,9.57.61,2.85,1.47,5.66,2.48,8.4.37-.03.54.5.24.72l.96,2.64c2.08,5.13,4.09,10.36,5.99,15.57,1.72,4.4,3.4,8.31,5.03,11.74.62,1.4,1.4,2.74,1.92,4.19l.19-.42c-4.28-11.57-8.97-23.25-12.29-35.15-.99-3.54-2.25-7.6-2.28-11.26,1.29-.76,1.61.83,1.5,1.9,1.59,6.28,3.18,12.55,4.76,18.8,2.55,4.88,4.54,10.06,5.97,15.55l3.21,8.14c.4,1.14.56,2.18.61,2.8-.73.76-2.37.75-3.11,0-.25-.22-.49-.46-.71-.71-.59-.69-2.92-4.75-2.99-5.22-.02-.19-.01-.37.1-.54l-.79-.79c-5.3-9.08-9.95-18.78-14.2-28.27-4.98-11.12-5.79-20.2,6.84-26.28,2.16-.9,4.37-1.85,6.71-2.16Z"/>
  <path class="st30" d="M72.59,97.98c1.05-.6,2.35-.75,3.88-.45,1.55-.1,2.81.21,3.79.93l.72-.35c1.53.08,6.12,1.87,7.19,2.93.19.19.22.5.24.78l.69-.05c1.58,1.43,2.73,3.36,3.39,5.32-.24,1.26.95,4.05,1.17,5.66.41,2.97.2,6.29-.27,9.25-.32,2.04-1.66,8.31-2.53,9.93-1.17,2.2-4.53,1.41-4.8-.83-.17-1.41,1.92-7.29,2.28-9.35.22-1.25.52-3,.56-4.23.02-.53.15-1.33-.49-1.57l-.38-.42c.29-2.37-.36-5.12-1.64-7.12l.11-.61c-1.58-2.33-3.12-2.92-5.75-3.83-.72.21-1.52.14-2.4-.22-.99,0-1.71-.25-2.16-.74-1.47.67-4.12.82-5.51,0-1.06.74-1.89-1.16-1.95-2.16-.13-2.1,2.03-4.21,3.87-2.87Z"/>
  <path class="st30" d="M58.45,103.49l-.56.54c-2.17.22-4.36.57-6.34,1.53l-.76-.15c-1.44.76-2.25,1.49-3.35,2.64l.1.59c-1.15,1.09-1.88,2.4-2.18,3.96l-.55.24c-1.07,4.43-.06,8.02,1.95,12.06.63,1.26,3.3,4.89,3.34,5.79.11,2.37-3.08,3.25-4.81,1.43-5.15-5.42-7.88-17.55-4.31-24.31l-.12-.68c.94-1.27,1.9-2.51,2.91-3.72l.57.09c-.08-.61.32-1.1,1.19-1.46l4.45-2.52.59.14c.28-1.07,1.13-1.4,2.55-.99,2.25-.49,4.49-.67,6.72-.54,4.06.77,2.99,7.4-1.36,5.36Z"/>
  <path class="st7" d="M57.5,88.64c1.43,1.05,2.81,3.27,2.87,5.03-.11.16-.19.29-.15.32,1.89,1.43,4.4,1.97,6.7,1.46.85-.19,3.17-.89,2.79-1.78-.32-.54.58-1.96,1.2-2.16,1.04.13,1.89,2.38,2.13,3.41.22.92.59,2.71-.45,3.06-.73.04-1.26-.05-1.98.29-1.91.92-1.88,3.95.07,4.74.11.14.26.35.19.46-.32.52-3,4.32-3.22,4.49-.25.19-.49.27-.8.32.34.34.18.48-.24.24l-.45.32c-2.9-1.16-5.34-2.76-7.72-4.76l.02-.59c1.78-.19,3.29.35,3.38-2.27.15-4.38-6.42-2.19-8.79-2.06-1.46.07-.97-.77-2.49.5-.63-.87-.1-3.92.96-4.31-.1-.06-.2-.14-.25-.23-.19-.34,2.15-4.46,3.12-4.08.78-.85,2.05-1.92,3.11-2.4Z"/>
  <path class="st21" d="M92.47,107.09c-.58.13-.5-.29-.67-.63-.98-1.85-1.72-3.31-3.4-4.64l-.36-.62c1.68-7.34-1.63-10.54-8.53-6.79l-.46-.26c-.16.1-.41.24-.5.15-.47-.46-3.53-4.03-3.49-4.3l.4-.4c9.93-6.08,20.9-2.49,18.87,10.6-.36,2.34-1.44,4.67-1.86,6.89Z"/>
  <path class="st29" d="M51.03,32.1c-1.37,1.09-2.97,1.85-4.32,2.99-9.99,8.5-4.23,18.3.2,28.07,3.65,8.07,8.03,16.49,12.26,24.27.28.69-1.19,1.49-1.68.96-5.74-10.64-14.93-26.42-17.85-37.85-2.34-9.19,3.47-15.16,11.38-18.45Z"/>
  <path class="st12" d="M80.73,103.97c-.71-.15-.42.36-.54.76-2.25,7.34-8.29,12.39-16.23,11.46-1.54-.5-1.62-.7-1.26-2.26.18-.81,2.67-4.92,3.26-5.34.18-.13.42-.1.63-.07.06-.09.18-.15.24-.24l.53-.38c3.36.05,6.09-2,8.02-4.6l.8-.29c1.92.1,2.77.34,4.55.96Z"/>
  <path class="st21" d="M54.38,91.04c-.81.88-2.44,3.24-2.87,4.31l-.62.32c-5.39-1.58-9.21,1.76-6.39,7.12l-.18.7c-.33.3-3.13,3.89-3.35,4.31-3.59-5.17-5.77-13,.95-16.65,3.86-2.1,8.44-1.35,12.46-.12Z"/>
  <path class="st4" d="M58.45,103.49l4,3.07,4.15,1.96c-.92,1.35-4.03,5.24-3.56,6.78.13.41.67.57.92.89-4.58-.54-8.47-2.67-11.03-6.58-.91-1.39-1.37-2.78-2.15-4.2,2.53-1.34,4.87-1.62,7.67-1.92Z"/>
  <path class="st19" d="M72.83,87.92c.04,1.41-.7,2.86-1.92,3.59-.36.65-1.16,1.26-1.2,2.16-.06.48-.29.46-.48,0,.13-1.16,1.01-2.64,1.68-3.59,2.82-6.12,5.6-12.27,8.35-18.44l.76-.97c2.73-5.76,5.18-11.64,7.47-17.58,4.44-11.49-1.48-18.46-12.46-22.3l-.52-.6s-.16-.05-.21-.12l.21-.12c3.64,1.37,5.88,1.46,9.42,3.88,11.5,7.85,6.93,17.06,2.36,27.43-3.93,8.92-8.79,18.1-13.46,26.67Z"/>
  <path class="st21" d="M88.4,115.95c-.43,1.3-4.15,6.29-5.33,6.77-2.19.89-4.64-.96-4.2-3.23.2-1.01,2.76-3.42,3.6-4.56,1.62-2.21,2.82-4.68,4.02-7.12.23.34.49.44.76,1.03.83,1.79,1.78,5.23,1.15,7.11Z"/>
  <path class="st14" d="M75.46,89.6s.04.42.23.6l3.36,3.96c.49.12,1.78,3.8,1.68,3.99s-.28.28-.48.32c-2.38-.41-5.26-.63-7.67-.48.65-2.48-.49-4.41-1.68-6.47.65-1.17,1.27-2.41,1.92-3.59.53.61,1.29,1.03,1.94,1.54.22.17.63.09.69.14Z"/>
  <path class="st21" d="M44.8,112.84c.6-2.47.88-2.96,2.64-4.79.98,1.41,2.21,2.66,3.47,3.84,1.43,1.35,3.52,1.97,2.01,4.63-1.98,3.5-6.67-2.07-8.11-3.68Z"/>
  <path class="st11" d="M62.77,93.91c-.51.69-2.02.54-2.4-.24-.88-1.71-1.97-3.35-2.87-5.03-.03-.06.03-.18,0-.24l1.68-.96c.04.07.36.24.53.54,1.06,1.95,2.09,3.94,3.07,5.93Z"/>
  <path class="st15" d="M77.14,73.31c-.83,2.24-1.76,4.44-2.84,6.58-1.72,3.39-3.66,7.06-6.02,9.95-.39-2.48-.36-5.18,0-7.67-.44-11.38-.32-22.78.24-34.02-.64-2.99-.65-6.12,0-9.1.59-.58,0-4.09.24-4.31,9.27-1.35,15.02,3.89,15.58,13.04.38,6.22-4.45,19.71-7.2,25.52Z"/>
  <path class="st15" d="M49.83,46.72c-.03-5.21,2.02-8.86,6.78-11.06.77-.36,3.2-1.3,3.94-1.34,1.21-.06,3.02.89,4.37.66l1.68,55.58c.44-.09.45-.47.49-.83.44-3.94.09-9.11.22-13.19.02-.57.24-1.09.26-1.66.06-2.08-.26-4.36.23-6.36.36,2.36.39,4.83,0,7.19.23,4.63.3,9.26.24,13.89-.02-.56.15-.29.24.24.18.04.41.1.48.26.25.58-.25,2.21-.48,2.85.21.07.21.15,0,.24-.55.24-.8-.1-.74-1.01-.23.98-.71,1.55-1.42,1.73-.04.21-.13.21-.24,0-.76.14-.39-.38-.5-.8-.82-3.13-2.55-6.65-3.68-9.74-1.25-3.43-2.76-9.53-4.31-12.46-.83-1.55-1.52-2.17-1.99-4.24-.52-2.33-.93-4.49-1.6-6.79-1.11-3.83-2.27-7.21-2.94-11.19-.14-.83.44-1.52-1.03-1.97Z"/>
  <path class="st22" d="M80.02,70.67c-.21-.21-.22-.41-.12-.65,2.59-6.47,4.75-11.93,6.37-18.76.06-.24.21-.39.46-.48.94-3.3.42-6.64-.72-9.82-.32-.23-.56-.63-.72-1.2-.24,0-.49-.06-.6-.27-2.34-4.25-4.42-6.65-9.46-7.76l-.48-.6c0-.07-.19-.77-.24-.96,5.84,1.86,12.05,5.42,14.32,11.44,1.54,4.07.65,7.05-.66,10.97-2.05,6.16-5.29,12.27-8.15,18.08Z"/>
  <path class="st9" d="M51.75,34.74c.58-.43,4.41-2.49,4.97-2.6.63-.12.88.09,1.26.56-7.05,2.33-10.77,7.2-10.03,14.82s6.53,22.26,9.55,30.09c-.07.21-.15.21-.24,0-2.04-5.16-4.31-10.28-5.99-15.57l-.96-2.64c-.07-.26-.18-.5-.24-.72-.72-1.96-1.38-3.94-1.9-5.96-1.01-3.95-1.85-8.03-.5-12.01.47-1.82,2.54-4.85,4.07-5.99Z"/>
  <path class="st9" d="M85.29,39.77c2.07,5.53,1.38,11.69-.44,17.21-1.68,5.09-3.67,10.18-5.87,15.13l-.64.72c-.26.34-.34.26-.24-.24,2.15-5.26,4.5-11.38,6.05-16.83,2.44-8.52,2.65-19.01-6.95-22.89-.51-.2-2.62-.66-2.7-.78-.09-.13.25-.71.24-.96,3.55.74,7.08,2.53,9.06,5.67.58.91.97,1.99,1.48,2.95Z"/>
  <path class="st26" d="M75.94,77.14c.08.18.14.35.09.48-1.3,3.59-3.03,7.26-4.88,10.54l-2.22,4.41c-.11.28-.34.4-.65.38v-3.11c2.89-5.51,6.2-10.91,8.86-16.53-.38,1.21-.75,2.67-1.2,3.83Z"/>
  <path class="st20" d="M67.8,61.09l-.24-25.98c.03-.24.93-.17.96-.14.15.14,0,3.49,0,4.07.02,3.03,0,6.07,0,9.1l-.48,12.66-.24.27Z"/>
  <path class="st28" d="M68.28,82.17l-.25.1c-.06-2.18-.14-4.37-.23-6.57,0-2.39-.03-4.8,0-7.19s-.05-4.96,0-7.43c.05-2.08.47-4.41.23-6.6l.49-6.34c0,4.43-.21,8.9-.25,13.29-.06,6.91.07,13.83,0,20.73Z"/>
  <path class="st23" d="M72.83,32.58c-.14-3.02-4.26-3.17-6.47-3.95,2.02-1.77,8.12.38,6.96,3.36-.1.25-.17.56-.49.59Z"/>
  <path class="st3" d="M78.34,72.83l-.2,1.32c-2.16,5.2-4.57,10.27-7.23,15.21v-.24c-.23-.21-.15-.53.24-.96,1.72-3.26,3.45-7.56,4.79-11.02.78-1.45,1.54-3.03,2.16-4.55l.24.24Z"/>
  <path class="st16" d="M62.29,89.36l-.3.18c-1.7-3.92-3.16-7.95-4.73-11.92h.24c1.5,3.89,3.1,7.93,4.79,11.74Z"/>
  <path class="st2" d="M60.37,93.67c.8.08,1.54.2,2.4.24,1.1.05,2.13.02,3.11,0,.08,0,.16,0,.24,0,.54-.57,1.27-.75,1.68,0,.5-.61.82-.61.96,0,.17-.29.33-.37.48-.24.16-.01.32,0,.48,0,.33-.02.95-.1,1.2.12-2.97,3.11-8.54,3.1-11.5,0,.12-.21.72-.14.96-.12Z"/>
  <path class="st25" d="M50.07,58.69c-.99-2.06-1.78-4.65-2.33-6.9-.9-3.71-1.62-7.4-.07-11.07-1.56,6.1.78,12.15,2.4,17.97Z"/>
  <path class="st13" d="M51.27,62.05c-.68-.69-.72-1.76-.96-2.64.69.64.7,1.81.96,2.64Z"/>
  <path class="st24" d="M88.4,101.82c-2.25-1.79-5.34-2.87-8.15-3.35.17-.87-1.6-3.88-1.2-4.31.33-.35,3.39-1.48,4.01-1.62,6.34-1.35,6.36,4.77,5.33,9.28Z"/>
  <path class="st14" d="M76.18,103.01c-2.08,3.05-5.4,5.78-9.34,5.27.51-.73,3.5-5.19,3.83-5.27,1.83.07,3.69-.1,5.51,0Z"/>
  <path class="st5" d="M88.4,103.25c-1.08-.42-2.05-1.1-3.12-1.55-2.44-1.03-5.02-1.68-7.61-2.21l-4.12-.55c4.96-1.14,11.42.46,14.85,4.31Z"/>
  <path class="st24" d="M51.51,95.35c-.49,1.23-.7,2.99-.96,4.31-1.55,1.31-4.61,2.33-6.23,3.83-3.44-6.4.74-10.07,7.19-8.15Z"/>
  <path class="st5" d="M56.78,99.66l-2.94.77c-3.96,1.55-7.9,3.4-10.96,6.41.73-2.14,3.11-3.82,5.02-4.92,2.47-1.41,6.05-2.81,8.87-2.27Z"/>
  <path class="st0" d="M92.47,92.47c-2.27-2.3-5.07-4.42-8.5-4.33-1.19.03-2.32.69-3.47.62,4.21-3.32,10.12-.92,11.97,3.71Z"/>
  <path class="st0" d="M52.23,91.75c-4.69-1.21-9.53-.53-12.93,3.12,1.53-4.59,8.34-5.69,12.21-3.71.28.14.66.22.72.59Z"/>
  <path class="st10" d="M86.01,40.97c1.15,3.17,1.66,6.53.72,9.82-.42,5.19-4.58,14.83-6.71,19.88-2.76,6.57-5.99,13-9.1,19.41-.28-.12-.13-.46,0-.72,2.68-5.38,5.12-10.96,7.43-16.53,1.75-4.22,3.54-8.5,5.04-12.81,2.36-6.83,4.14-13,1.91-20.25.21.38.51.8.72,1.2Z"/>
  <path class="st27" d="M70.91,89.36c-.03.23.05.52,0,.72-.26,1.16-1.23,2.47-1.68,3.59-.05,0-.25.23-.48.24-.09-.14-.16-.28-.19-.42-.08-.47,1.83-3.81,2.34-4.37v.24Z"/>
  <path class="st8" d="M68.28,82.17c.07,2.54,0,5.12,0,7.67l-.48-.14c0-4.66.01-9.33,0-13.99.49,1.84.17,3.97.23,5.89,0,.31.25.55.25.58Z"/>
  <path class="st1" d="M70.91,89.12c-.64,1.61-1.59,3.14-2.16,4.79-.32.02-.64-.02-.96,0-.43-.55-.16-.87.48-.72v-.24c.96-1.37,1.64-2.94,2.43-4.41.12-.23.41-.33.44-.39-.1.31-.12.66-.24.96Z"/>
  <path class="st18" d="M66.12,93.91c.4-.41,1.26-2.7,1.44-2.87.65-.63.46,1.32.47,1.57.02.33.25.55.25.58,0,.15-.4.52-.48.72-.55.03-1.12-.01-1.68,0Z"/>
  <path class="st6" d="M86.72,50.79c.27-3.28-.11-6.61-.72-9.82,1.69,3.3,2.39,6.25.72,9.82Z"/>
</svg>