<?xml version="1.0" encoding="UTF-8"?>
<svg id="Layer_1" xmlns="http://www.w3.org/2000/svg" version="1.1" viewBox="0 0 133.44 133.44">
  <!-- Generator: Adobe Illustrator 29.5.1, SVG Export Plug-In . SVG Version: 2.1.0 Build 141)  -->
  <defs>
    <style>
      .st0 {
        fill: #85cfed;
      }

      .st1 {
        fill: #da9034;
      }

      .st2 {
        fill: #818080;
      }

      .st3 {
        fill: #727271;
      }

      .st4 {
        fill: #2da9e0;
      }

      .st5 {
        fill: #40403f;
      }

      .st6 {
        fill: #272726;
      }

      .st7 {
        fill: #c4e5f6;
      }

      .st8 {
        fill: #fbfbfb;
      }

      .st9 {
        fill: #90908f;
      }

      .st10 {
        fill: #bb6523;
      }

      .st11 {
        fill: #565655;
      }

      .st12 {
        fill: #bebdbd;
      }

      .st13 {
        fill: #dcdcdc;
      }

      .st14 {
        fill: #3c3c3b;
      }

      .st15 {
        fill: #fcd69c;
      }

      .st16 {
        fill: #fcdb9f;
      }

      .st17 {
        fill: #f8b23c;
      }

      .st18 {
        fill: #767575;
      }

      .st19 {
        fill: #a4a3a3;
      }
    </style>
  </defs>
  <path class="st0" d="M75.7,90.32l.5-.09c7.77,13.89,15.54,27.78,23.32,41.69l-.1.8-72.11.24,23.48-42.64,1.05-.04c7.19,3.11,15.62,3.07,22.81,0l1.05.04Z"/>
  <path class="st17" d="M83.61,84.57c-.45.42-1.06,1.13-1.44,1.44l-.03.64c-1.84,1.45-3.78,2.8-5.85,3.91l-.59-.24c-7.48,3.65-17.44,3.69-24.92,0-22.63-11.17-19.67-45.52,4.31-52.23,27.94-8.85,48.87,25.79,28.51,46.48Z"/>
  <path class="st4" d="M99.42,132.72l-23.72-42.4c1.94-.94,4.8-2.92,6.47-4.31l24.1,34.01c.22.65-.3,1.26-.58,1.84-1.76,3.64-4.51,7.17-6.27,10.86Z"/>
  <path class="st16" d="M83.61,84.57l3.69-5.05c12.92-22.12-7.42-48.35-32.2-41.43,13.36-5.23,29.02,1.75,34.78,14.69,4.9,11.03,2.42,23.53-6.27,31.78Z"/>
  <path class="st7" d="M93.18,129.36c-1.06.06-3.06,2.12-3.8,1.06l-10.8-29.08,14.6,28.02Z"/>
  <path class="st1" d="M73.07,52.94h-.85c-10.89-7.08-24.6,3-21.43,15.33l.55.21c.88,2.59,2.61,4.9,4.72,6.63v.59c11.01,7.63,25.61-3.1,21.32-16.02l.25-.75c4.17,8.58-1.37,19.32-10.54,21.45-12.54,2.9-23.05-8.87-18.57-20.96,3.65-9.84,16.6-13.53,24.55-6.47Z"/>
  <path class="st10" d="M73.07,52.94c1.71,1.23,3.82,4.01,4.55,5.99,3.79,10.22-4.03,20.7-14.94,19.62-2.16-.22-5.1-1.25-6.62-2.85l.8-.06c3.35,1.99,7.55,2.19,11.11.62l.78.16c9.62-6.5,8.82-19.01-2.16-23.48l-.69.33c-8.72-2.01-16.45,5.58-14.77,14.33l-.35.68c-2.12-5.8.75-12.58,5.82-15.87s11.61-2.94,16.46.53Z"/>
  <path class="st15" d="M87.2,65.88l-2.28-6.22c-3.79-8.87-9.83-13.62-17.85-18.34-.31-.18-.6.04-.47-.59,12.54-.26,23.7,12.73,20.6,25.15Z"/>
  <path class="st5" d="M66.6,52.94c9.66,4.46,10.36,17.31,2.16,23.48-3.98,2.02-8.94,1.81-12.7-.72-2.09-1.41-4.72-4.97-5.27-7.43-2.16-9.69,6.23-17.86,15.81-15.33Z"/>
  <path class="st6" d="M68.76,76.42c-.48-.1.25-.61.36-.72,4.81-4.79,6.6-11.05,2.95-17.32-1.43-2.46-3.37-3.67-5.46-5.44,11.37,3,12.7,18.12,2.16,23.48Z"/>
  <path class="st2" d="M59.59,57.8c8.34-1.1,11.81,10.51,4.45,14.27-10.39,5.3-15.81-12.77-4.45-14.27Z"/>
  <path class="st14" d="M55.66,70.35c-6.95-6.96,4.55-17.47,10.7-9.14,4.94,6.7-4.54,15.3-10.7,9.14Z"/>
  <path class="st11" d="M59.59,59.24c8.31-1.18,9.41,10.88,2.28,12.1-8.5,1.46-9.87-11.02-2.28-12.1Z"/>
  <path class="st18" d="M62.53,60.37c.1.02.76.38.96.48.59.36,1.06.86,1.44,1.44.21.37.57,1.06.72,1.44,2.15,8.48-11.4,9.37-10.18.6.09-.63.45-1.71,1.07-1.8l.24.53c-1.96,3.46,1.9,8.1,5.62,6.22,6.31-3.18-.26-11.93-5.33-6.64l-.53-.11c-.11-.07-.19-.12-.19-.13.99-2.17,4.08-2.86,6.18-2.02Z"/>
  <path class="st3" d="M62.53,60.37c-1.99-.5-4.05-.2-5.53,1.31-.35.36-.31.63-.46.85-.44.66-.8.77-.94,1.82-1.12,8.32,11.63,7.91,10.04-.62,2.18,5.63-5.66,9.6-9.23,5.04-3.37-4.3.98-10.71,6.11-8.39Z"/>
  <path class="st3" d="M64.92,62.29l-1.44-1.44c1.08.54.88.46,1.44,1.44Z"/>
  <path class="st9" d="M56.54,62.53c.36-.55,2.11-1.73,2.81-1.86,5.8-1.07,8.26,5.97,3.74,8.77s-9.2-2.88-6.55-6.91Z"/>
  <path class="st19" d="M59.59,61.15c4.93-.91,7.23,5.15,3.4,7.71s-8.31-1.77-6.02-5.78c.48-.84,1.67-1.75,2.62-1.93Z"/>
  <path class="st12" d="M59.83,61.63c1.51-.24,2.84.16,3.75,1.4,2.71,3.65-1.9,7.95-5.37,5.13-2.39-1.94-1.36-6.05,1.62-6.54Z"/>
  <path class="st13" d="M59.82,62.58c2.6-.6,4.7,2.22,2.95,4.39-2.17,2.7-6.12-.04-4.61-2.93.29-.55,1.04-1.32,1.65-1.46Z"/>
  <path class="st8" d="M60.55,63.53c2.17-.19,2.41,3.4.16,3.55s-2.5-3.35-.16-3.55Z"/>
</svg>