<?xml version="1.0" encoding="UTF-8"?>
<svg id="Ebene_1" xmlns="http://www.w3.org/2000/svg" version="1.1" viewBox="0 0 409.6 409.6">
  <!-- Generator: Adobe Illustrator 29.5.1, SVG Export Plug-In . SVG Version: 2.1.0 Build 141)  -->
  <defs>
    <style>
      .st0 {
        fill: #ed8600;
      }

      .st1 {
        fill: #a96100;
      }

      .st2 {
        fill: #fe9711;
      }

      .st3 {
        fill: #4e8f1e;
      }

      .st4 {
        fill: #5eab24;
      }

      .st5 {
        fill: #6dc72a;
      }

      .st6 {
        fill: #7ed53e;
      }
    </style>
  </defs>
  <path class="st0" d="M196.42,114.92c3.27-2.6,9.38-2.48,12.78,0,2.07-2.5,10.13-2.79,11.98,0,1.19-1.24,1.69-.74.8.8l-2.68,1.61c-35.1,1.81-68.18,23.2-91.4,48.68-75.95,83.36-25.04,225.26,86.68,240.56l3.4,2.02-.8.8c-8.04-.48-16.8.66-24.75,0-60.73-5.02-114.3-50.9-129.75-109.32-23.65-89.37,41.07-180.68,133.75-185.15Z"/>
  <path class="st2" d="M221.97,115.71c1.08-2.56,8.97-1.92,9.58.8l6.51-.3c5.15.69,36.12,11.06,37.17,14.13.15.42.2.87.24,1.33,99.7,54.11,103.46,197.28,6.32,256.5-14.22,8.67-47.49,22.2-63.81,20.42-103.06-11.24-159.74-130.55-108.72-219.99,20.55-36.02,69.78-73.42,112.72-72.88Z"/>
  <path class="st5" d="M296.22,55.06l-2.67,1.74c-32.63,2.08-60.74,24.65-70.09,55.92l-2.29,2.2c-3.68-.35-8.17.01-11.98,0-2.34-5.51-2.8-13.85-2.75-20.12,0-1.36.56-2.63,1.16-3.82,11.61-33.24,37.23-52.88,72.27-56.65,2.9-.31,10.96-1.11,13.38-.62,11.33,2.28,5.31,14.72,2.98,21.36Z"/>
  <path class="st6" d="M296.22,55.06c-2.52,7.18-4.8,12.61-8.78,19.15l.27,2.58c-3.63,6.56-11.05,16.23-17.84,18.97-.09.63-.22,1.24-.44,1.82-2.39,6.12-29.76,19.87-37.88,18.93-2.74-.45-6.77-.76-9.58-.8-.08-.37-.44-.76-.8-.8,9.26-34.43,39.25-58.6,75.05-59.85Z"/>
  <path class="st4" d="M330.55,111.72c-16.33,11.88-34.62,19.39-55.09,19.95-11.01-5.97-31.59-13.16-43.91-15.16,13.95-4.4,27.45-10.85,38.33-20.75,8.96-3.37,21.39-1.32,30.76,1.22,6.22,1.69,25.96,8.48,29.01,12.96.37.55.65,1.15.91,1.78Z"/>
  <path class="st1" d="M207.59,90.98c1.05,7.9,1.27,15.98,1.6,23.94-4.22-.01-8.57-.2-12.78,0,.89-23.6-4.34-47.26-18.85-66.15-11.01-14.33-26.85-24.46-43.82-30.42-5.44-1.91-17.31-3.78-21.12-6.03-5.75-3.39-3.48-11.73,3.5-11.55,4.48.12,16.1,3.97,20.81,5.6,39.03,13.54,65.1,43.09,70.65,84.61Z"/>
  <path class="st3" d="M287.44,74.22c14.95,0,30.07,4.53,43.13,11.55,6.55,3.52,14.98,7.18,11.36,16.17-.96,2.38-8.85,7.95-11.37,9.78-13.91-8.38-28.81-14.21-45.12-15.95h-15.56c6.36-5.8,13.08-14.2,17.57-21.56Z"/>
</svg>