<?xml version="1.0" encoding="UTF-8"?>
<svg id="Layer_1" xmlns="http://www.w3.org/2000/svg" version="1.1" viewBox="0 0 1024 1024">
  <!-- Generator: Adobe Illustrator 29.5.1, SVG Export Plug-In . SVG Version: 2.1.0 Build 141)  -->
  <defs>
    <style>
      .st0 {
        fill: #f5e04d;
      }

      .st1 {
        fill: #f1a429;
      }

      .st2 {
        fill: #e9ad35;
      }

      .st3 {
        fill: #c9751d;
      }

      .st4 {
        fill: #e7a932;
      }

      .st5 {
        fill: #eeb73a;
      }

      .st6 {
        fill: #f4ab2c;
      }

      .st7 {
        fill: #c8721b;
      }

      .st8 {
        fill: #f6e14b;
      }

      .st9 {
        fill: #cf791e;
      }

      .st10 {
        fill: #efa025;
      }

      .st11 {
        fill: #ebaf37;
      }

      .st12 {
        fill: #f0aa2c;
      }

      .st13 {
        fill: #f0af2f;
      }

      .st14 {
        fill: #ad6116;
      }

      .st15 {
        fill: #f5e24c;
      }

      .st16 {
        fill: #f7e84f;
      }

      .st17 {
        fill: #f1a82b;
      }

      .st18 {
        fill: #f7e34b;
      }

      .st19 {
        fill: #eb9523;
      }

      .st20 {
        fill: #efa629;
      }

      .st21 {
        fill: #ba6b19;
      }

      .st22 {
        fill: #f2af2d;
      }

      .st23 {
        fill: #f3ad2e;
      }

      .st24 {
        fill: #f5e34e;
      }

      .st25 {
        fill: #f0a228;
      }

      .st26 {
        fill: #f6e14a;
      }

      .st27 {
        fill: #f3ac2b;
      }

      .st28 {
        fill: #f2ad2b;
      }

      .st29 {
        fill: #f7e34c;
      }

      .st30 {
        fill: #cb761d;
      }

      .st31 {
        fill: #f9ea52;
      }

      .st32 {
        fill: #f4e04a;
      }

      .st33 {
        fill: #f9e84e;
      }

      .st34 {
        fill: #eea72b;
      }

      .st35 {
        fill: #f7e54e;
      }

      .st36 {
        fill: #f6e14c;
      }

      .st37 {
        fill: #1f2318;
      }

      .st38 {
        fill: #f7e44c;
      }

      .st39 {
        fill: #ebb037;
      }

      .st40 {
        fill: #ebad36;
      }

      .st41 {
        fill: #f7e14b;
      }

      .st42 {
        fill: #efa42a;
      }

      .st43 {
        fill: #f7e04a;
      }

      .st44 {
        fill: #ecb038;
      }

      .st45 {
        fill: #eeac2d;
      }

      .st46 {
        fill: #b46517;
      }

      .st47 {
        fill: #eca92d;
      }

      .st48 {
        fill: #f1a529;
      }

      .st49 {
        fill: #f6b22d;
      }

      .st50 {
        fill: #f1ab2b;
      }

      .st51 {
        fill: #d28121;
      }

      .st52 {
        fill: #f7e24b;
      }

      .st53 {
        fill: #c7741c;
      }

      .st54 {
        fill: #efa82c;
      }

      .st55 {
        fill: #e7a832;
      }

      .st56 {
        fill: #f0a528;
      }

      .st57 {
        fill: #e8ab35;
      }

      .st58 {
        fill: #f3ad2d;
      }

      .st59 {
        fill: #efa52a;
      }

      .st60 {
        fill: #f0ae2d;
      }

      .st61 {
        fill: #d17b1f;
      }

      .st62 {
        fill: #f3ad2c;
      }

      .st63 {
        fill: #cf781e;
      }

      .st64 {
        fill: #e88f1f;
      }

      .st65 {
        fill: #f9e44b;
      }

      .st66 {
        fill: #eaac34;
      }

      .st67 {
        fill: #f2b02e;
      }

      .st68 {
        fill: #c9731c;
      }

      .st69 {
        fill: #ce791e;
      }

      .st70 {
        fill: #cc761c;
      }

      .st71 {
        fill: #e8911f;
      }

      .st72 {
        fill: #cc781d;
      }

      .st73 {
        fill: #bb6a19;
      }

      .st74 {
        fill: #f8e54f;
      }

      .st75 {
        fill: #f7e54d;
      }

      .st76 {
        fill: #f4e14d;
      }

      .st77 {
        fill: #ebae37;
      }

      .st78 {
        fill: #f6e24c;
      }

      .st79 {
        fill: #d07d1f;
      }

      .st80 {
        fill: #1e2317;
      }

      .st81 {
        fill: #fae853;
      }

      .st82 {
        fill: #eaad35;
      }

      .st83 {
        fill: #eaad36;
      }

      .st84 {
        fill: #f19e25;
      }

      .st85 {
        fill: #efa028;
      }

      .st86 {
        fill: #f7e44d;
      }

      .st87 {
        fill: #f2a72b;
      }

      .st88 {
        fill: #f2a82a;
      }

      .st89 {
        fill: #eaaf36;
      }

      .st90 {
        fill: #f1ac2c;
      }

      .st91 {
        fill: #ee9d26;
      }

      .st92 {
        fill: #cd771d;
      }

      .st93 {
        fill: #d17c20;
      }

      .st94 {
        fill: #cf791f;
      }

      .st95 {
        fill: #f2ab2c;
      }

      .st96 {
        fill: #f2a92b;
      }

      .st97 {
        fill: #f1a62a;
      }

      .st98 {
        fill: #08080b;
      }

      .st99 {
        fill: #ce781e;
      }

      .st100 {
        fill: #f1af2e;
      }

      .st101 {
        fill: #e48d21;
      }

      .st102 {
        fill: #f7de47;
      }

      .st103 {
        fill: #f2ac2a;
      }

      .st104 {
        fill: #f6df4a;
      }

      .st105 {
        fill: #c8741c;
      }

      .st106 {
        fill: #f8de47;
      }

      .st107 {
        fill: #f7e149;
      }

      .st108 {
        fill: #ebaf36;
      }

      .st109 {
        fill: #f0a629;
      }

      .st110 {
        fill: #e8ab34;
      }

      .st111 {
        fill: #e69323;
      }

      .st112 {
        fill: #ed9f27;
      }

      .st113 {
        fill: #f3b12f;
      }

      .st114 {
        fill: #ecb136;
      }

      .st115 {
        fill: #f2ae2c;
      }

      .st116 {
        fill: #efa62a;
      }

      .st117 {
        fill: #090809;
      }

      .st118 {
        fill: #f6dc47;
      }

      .st119 {
        fill: #c6741d;
      }

      .st120 {
        fill: #eca42b;
      }

      .st121 {
        fill: #e9ab34;
      }

      .st122 {
        fill: #ecaa2c;
      }
    </style>
  </defs>
  <path class="st37" d="M759.01,461c1.4,22.86,4.21,45.68,5.98,68.51,4.22,54.3,6.96,108.72,12.01,162.99,4.63,49.67,14.41,102.92,16.99,152.01.58,11.14-.77,19.81-10.06,26.92-19.31,14.8-84.94,25.42-110.6,29.4-122.9,19.04-265.9,18.99-387.34-9.32-20.51-4.78-69.25-13.08-69.02-39.97,3.34-24.4,7.85-48.74,10.9-73.17,8.7-69.59,8.36-139.1,14.14-208.86,2.97-35.93,8.17-71.69,11.98-107.51l-26.96,29.53c-10.12,8.79-18.55,19.45-33.44,17.38-11.48-1.6-41.85-27.76-51.6-36.4-17.72-15.7-66.79-62.07-73.28-82.72-4.05-12.87,1.76-20.55,9.78-29.81,22.13-25.55,47.38-48.8,70.03-73.97,25.38-28.2,48.75-60.27,74.46-87.54,29.59-31.38,88.02-52.3,128.78-67.22,10.95-4.01,34.31-13.61,44.91-14.18,12.58-.67,26.62,13.89,37.67,20.1,41.44,23.28,105.78,27.33,147.59,3.25,17.76-10.23,25.81-27,48.47-24.31,17.85,2.12,63.06,22.57,81.28,30.72,39.94,17.86,63.34,30.24,92.84,63.16,23.48,26.21,45.05,54.15,68.97,80.03,20.33,21.99,44.73,42.84,64.03,64.97,10.89,12.49,15.74,20.44,8.03,37.06-14.96,32.22-71.56,85.34-101.23,105.77-7.24,4.99-18.61,12.93-27.53,11.95-18.55-2.03-43.62-36.79-57.77-48.77Z"/>
  <path class="st63" d="M482,273c1.76-2.43,6.93-9.69,9.55-10.03,3.47-.45,12.6,1.89,16.9,2.07,7.15.3,15.71.48,22.53-1.04.46,1.74-.7,2-1.48,3.01-22.4,28.8-66.43,67.6-27.51,102.99,10.71,9,30.34,6.22,44.5,2.79,2.85,1.65,4.36,5.9.32,7.1-5.09,8.59,6.76,22.02,12.39,28.25,9.66,10.68,21.29,21.07,33.47,27.36,11.51,8.61,23.7,16.48,36.17,23.74,22.37,10.76,44.91,25.23,53.78,49.68,12.62,23.73,22.48,40.44,47.03,52.89,4.71.52,7.27,2.31,7.67,5.37,2.8.75,12.79,4.01,14.08,5.61,1.54,1.89,2.86,23.7.59,27.22-6.3,4.22-9.95,11.06-15,16l-10.11,17.73c-5.46,10.71-16.09,15.46-24.89,18.27-6.3,2.43-12.26,4.36-18,8-13.74,4.3-14.66,22.65-6,32,2.84,3.05,5.15,6.57,7.97,9.53,21.23,22.25,48.51,37.49,31.2,73.15-6.24,12.86-27.92,34.2-27.22,46.79,1.55,28.13,51.88,21.46,69.26,38.53,6.76,6.64-3.11,7.03-9,8.72-4.98,1.43-31.78,8.9-34.49,8.12-.66-.19-8.73-6.62-11.05-8.01-15.61-9.37-33.26-16.39-48.34-25.66-10.02-6.16-22.03-14.33-9.24-24.58,9.54-7.65,20.82-11.81,29.91-21.59,17.27-14.54,18.79-44.6,6-65-11.32-16.05-26.27-30.44-35-48-6.49-11.91-5.33-23.72,5-33,21.78-19.08,70.23-24.35,66-61.5-.69-6.02-4.17-9.56-7-14.5-2.48-3.18-10.99-5.72-14.95-5.8-14.62-.3-27.78,5.23-41.05,10.8-21.37,11.25-54.15,30.84-66.17,52.33-24.21,43.29,10.11,72.73,31.58,105.76,23.84,36.69-20.08,36.47-44.44,31.44-47.64-9.83-68.29-42.81-100.97-73.53-15.11-17.79-45.02-38.1-69-18-5.76,5.47-10.55,12.19-16,18-25.51,27.3-30.11.49-16.94-21.61l-.06-1.39c24.11-43.78,68.68-44.05,104-13,6.1,6.98,16.91,18.85,26,26,11.54,10.69,30.47,28.15,42.05,6.55,3.78-7.05,10.94-44.6,10.98-53.09.14-26.29-28.28-28.14-46.05-37.94-20.97-11.56-40.92-29.92-37.99-56.02,1.04-9.25,21.96-49.43,27.84-59.17,10.38-17.2,13.72-20.96,32.48-10.13,30.64,17.68,69.85,64.81,102.72,73.28,19.22,4.95,41.45-3.89,37.91-26.91-3.91-25.47-65.34-58.9-86.25-73.75s-60.47-52.74-84.18-53.25c-14.65-.32-26.47,13.4-34.5,24.43-6.62,11.36-11.96,23.03-16,35-4.47,8.71-9.1,19.39-18,24-20.88,7.06-15.47-18.38-9-29,5.74-14.4,18.38-31.87,26-46,6.73-16.78,13.74-37.21,11-55,.02-2.19-.73-5.64,1-7l.42,1.29c-.66-8.43-.13-16.52,1.58-24.29,1.35-16.43,6.69-31.77,16-46Z"/>
  <path class="st110" d="M702,600c-7.98,21.82-59.85,28.21-71.82,51.68-24.71,48.45,91.24,98.44,21.95,144.95-11.55,7.75-33.62,14.81-29.9,32.65,5.15,24.66,54.18,36.72,70.77,52.71-9.66-.44-39.46,9.13-46.55,5.06-1.57-.9-10.45-10.31-12.16-12.35-.52-.62-.16-1.56-.29-1.7-7.17-7.88-14.5-15.22-22-22-27.25-26.25-44.1-30.79-75.67-47.83-26.12-14.1-33.99-26.49-52.82-47.18-17.58-19.33-47.8-46.22-70.49-18.46-15.74,19.25-14.41,41.18-36.5,60.5-10.61,9.29-23.59,13.01-17.98,30.93,4.51,14.41,20.95,20.48,31.92,29.08,11.66,9.13,24.01,23.2,29.52,36.97l-81.99-10.01c9.08-26.05,6.66-47.39-14.53-65.96-8.37-7.33-26.34-14.49-23.26-28.31.86-3.85,6.48-7.62,10.31-7.78,8.43-.35,21.31,5.8,31.03,6.08,11.27.33,20.06-5.37,25.46-15.02,1.58-1.24,2.97-3.79,4.16-7.63,4.65-15.69,10.93-30.47,18.84-44.37,5.64-10.5,12.59-19.8,21.99-27.51,22.95-18.83,39.31-1.75,56.01,14.51,7.52,9.43,15.85,18.09,25,26,16.98,17.19,30.36,29.44,52,41,20.08,9.26,41.9,15.21,64.16,13.5,5.84-.45,15.7-1.59,16.84-3.5.12-.91,8.42-4.43,10.47-6.03,3.94-3.05,8.71-9.59,9.46-14.54,5.95-39.25-61.79-71.84-47.99-114.99,6.81-21.28,41.66-44.5,61.05-54.45,3.89-1.12,7.77-2.67,11.63-4.65,11.58-4.38,34.69-12.49,31.37,8.65Z"/>
  <path class="st9" d="M273,198c11.06,10.6,20,26.99,22.44,44.47l4.71,34.18c.55,6.3,1.5,10.42,2.86,12.35,8.76,36.34,29.84,36.85,58.68,50.82,12.04,5.83,27.14,12.9,25.24,28.59-2.7,22.22-48.76,58.67-62.91,79.58-12.03,12.19-17.12,35.73-4,51,13.19,21.12,37.34,27.99,57.31,40.19,19.16,11.71,38.56,30.59,44.69,52.81.96,2.45,1.77,4.93,2.44,7.47,4.73,18.01,2.44,19.56-15.47,22.95-.12.02,2.12-1.32.03.59-30.17,10.08-68.93,56.58-57.19,89.69,3.16,8.9,8.53,12.82,17.19,15.84.24,1.14-3.32,6.75-4,8.47-2.53,4.82-4.61,10.13-6.26,15.94-8.98,20.82-15.68,20.64-36.9,13.46-5.4-1.47-16.6-2.46-17.84-.4.11.88-11.04,3.9-12.33,6.17-41.66,38.76,35.37,50.06,35.42,85.33,0,3.91-2.96,22.51-5.54,24.62-1.71,1.39-16.46-3.35-19.55-4.12l-2.73-1.7c17.08-25.2-8.15-40.46-27.5-52.14-44.77-37.23,2.72-75.6,42.93-83.34,27.77-8.27,18.6-25.4,8.43-44.33-9.13-20.77,10.59-39.18,25.45-51.4l24.31-18.87c30.51-24.73,27.8-47.19-3.65-67.06-20.43-10.38-39.13-22.88-56.1-37.51-46.42-48-26.68-87.57,19.24-124.37,36.73-33.02-9.03-64.11-42-70.06l-1.37-2.24c-.32-6.45-.69-13.06-1.13-19.84l1.13-.66-1.18-.3c-.1-2.85-.71-4.92-1.82-6.2-1.18-.92-1.45-4.34,0-5,.33-1.04.42-2.09.4-3.17-.21-16.12-10.98-59.47-17.27-74.53-.09-.22-.56-.28-1.13-.3-1.34-.23-11.61-20.93-12.99-23.97,1.75.02,3.45-1.93,5.08-1.58,1.97.42,10.75,6.83,12.91,8.56Z"/>
  <path class="st83" d="M286,298c1.38-1.09.33-3.38,1.99-2.99-1.08,2.96,1.01,7.62,1.01,9.49v20.5c21.25,3.07,57.88,20.92,59.05,45.47.97,20.45-21.25,33.01-33.7,45.88-29.63,30.64-35.66,57.93-8.75,93.54,18.11,23.96,39.57,31.99,63.91,47.1,18.67,11.59,36.18,29.31,21.5,52.52-15.63,24.72-52.05,36.9-65.75,65.25-8.76,18.13,7.5,29.15,9.71,44.76.28,1.95.83,7.18-.05,8.8-8.04,14.89-27.12,15.25-40.92,21.18-34.9,14.97-55.8,47.53-18.75,74.81,8.41,6.19,17.97,9.56,24.73,18.22,8.57,10.99,9.54,22.99,1.03,33.98l1,1.5c-2.84-.7-15.45-2.46-16.55-3.94,2.83-33.65-50.16-35.7-45.49-71.61l6.26-53.74c13.69-15.8,49.37-15.61,57.26-36.74,4.87-13.04-4.9-18-6.41-27.53-6.19-39.13,76.39-54.04,59.11-100.11-13.85-36.95-72.66-44.14-86.18-92.33-2.14-14.97-1.38-30.13,2.28-45.47l-.28-3.53c.91-5.15.78-7.07,4.03-11.47,9.66-13.05,26.74-22.65,35.97-37.53,13.48-25.08.53-40.33-26.42-40.76.45-10.18,1.26-20.26,2.42-30.24l-1-14c-1.3-3.12-1.84-7.75-1-11Z"/>
  <path class="st11" d="M314,164c.23,13.54,3.14,27.46,8.73,41.76,2.32,17.69,6.37,34.9,12.16,51.64,13.68,32.73,35,41.91,65.6,53.9,54.54,29.86,20.67,90.18-4.5,128.48l-13.29,19.9c-16.04,22.33-.9,38.87,18.84,51.92,24.85,12.07,47.37,31.55,53.76,59.12,4.32,7.78,7.68,16.3,10.07,25.57,1.47,5.87,4.57,9.9,9.3,12.08,8.27,11.03,18.98,19.69,32.13,25.96,3.51,2.41,6.64,4.81,8.54,8.73,4.35,8.96-1.54,16.05-8.32,20.94l-41.01-33.49c-26.51-23.34-28.86-58.84-53.94-84.06-19.94-20.06-62.8-33.89-76.05-54.45-7.39-14.59-4.48-27.13,4-40,5.01-6.81,11.26-12.82,17-19,7.01-6.31,14.68-13.97,23-23,9.04-10.86,20.3-22.99,22.74-37.75,7.12-43.01-47.61-46.26-71.74-66.25-9.69-9.2-12.68-23.09-14.19-36.14-.68-14.14-2.28-27.43-4.81-39.86-4.36-21.11-18.02-38.24-35.98-49.5-.05-2.07,33.89-14.83,37.98-16.5Z"/>
  <path class="st70" d="M675,149l4.53,3.15c-4.08,14.13-6.04,25.11,5.52,35.91,41.69,20.92,40.82,59.01.32,80.49-10.34,7.15.32,17.49,10.89,12.76,27.55-12.34,42.9-52.49,27.82-79.65-6.18-10.5-11.76-21.27-16.75-32.33-1.91-4.93-1.85-7.38,3.68-5.33,5.53,2.57,11.64,2.92,15.44,8.06,2.38,3.21,7.81,15.82,9.73,20.27,2.91,6.72,5.93,13.59,7.82,20.68,2.44,14.26.22,28.16-4,42-.92,8.82-2.2,17.6-3.86,26.32-3.73,1.53-7.44,3.09-11.14,4.68-7.49,4.99-15.91,15.11-18,24-1.49,5.54-3.16,17.48-1,21-.03.33.03.67,0,1l-.76,1.67c.05,9.27-2.03,19.05-6.24,29.33-4.06,5.96-14.41,12.18-20.01,17.49-13.1,12.39-20.47,22.07-9.4,39.43,8.79,13.8,30.25,20.29,43.33,29.67,23.84,17.1,35.84,38.65,37.14,67.88.36,7.96-2.18,7.73-8.72,4.7-10.92-5.05-20.35-28.84-28.91-39.09-26.48-31.71-74.5-41.96-103.43-69.57-5.71-5.44-12.08-10.95-3.99-17.51,15.34-6.86,30.34-14.19,45-22,20.04-12.21,32.07-32.36,28.92-56.42-2.1-16.05-25.94-32.46-23.52-45.61,2.34-12.67,27.14-20.44,35.12-30.95,9.75-12.84,4.51-30.35-8.83-38.21-13-7.66-23.9-4.51-37.69-1.82,12.36-15.68,18.07-36.32,20-55.99.92-1.01,9.33,3.39,11,4Z"/>
  <path class="st61" d="M314,164c1.65-.67,10.02-5.72,10.99-5,1.12,4.38,2.8,8.65,4.01,13,3.56,25.85,8.89,50.19,16,73,9.08,25.18,31.93,46.01,52.83,17.33,3.49-4.8,12.48-24.06,16.88-25.19,2.42-.63,19.46,9.27,23.29,10.87,5.21,2.29,3.85,4.88-4.07,7.76-18.78,13.5-15.99,38-5.57,55.85,4.78,8.19,8.3,8.71,16.74,4.12l1.9,1.28c.31,11.66.65,23.33,1,35-1.15,23.99-8.28,43.98-19.83,64.67-10.82,19.39-36.56,47.72-23.2,70.85,5.74,9.93,17.16,13.75,28.03,11.47,5.43-1.12,7.47,1.91,6.12,9.11-.7,7.57,10.53,16.23,17.01,13.99,3.63-4.55,7.56-1.32,5.06,3.78-4.05,10.58-7.45,19.76-6.95,31.36.19,4.45.55,12.19,3.76,14.77.87.16,7.19,12.23,9.49,15.01,8.15,9.86,22.51,21.23,33.83,27.17,17.4,9.12,39.54,9.64,38.69,35.28-.2,6.07-4.47,26.22-11.55,27.54-7.34,1.37-17.4-7.44-21.46-12.99-.47-.64-2.2-2.73-2-2.99,8.44-1.59,11.71-10.19,8.23-17.75-3.16-6.86-22.86-15.51-29.71-21.28-4.28-3.61-6.3-8.77-9.45-11.55-1.49-1.31-3.29-1.33-4.95-3.05-6.88-7.08-11.62-32.98-16.95-44.05-4.46-9.27-15.25-24.19-22.68-31.32-10.45-10.04-27.45-15.92-38.51-25.49-32.17-27.85-12.31-42.53,4.44-69.59,16.87-27.26,42.83-67.6,27.95-99.79-14.74-31.88-48.04-26.39-70.72-49.24-21.76-21.92-26.1-47.43-30.77-76.26-2.18-13.47-8-23.54-9.64-36.45-.39-3.11,1.32-5.91-1.24-9.16l3-2.01Z"/>
  <path class="st121" d="M671,216c10.93,5.01,9.04,14.59.92,21.42-10.01,8.41-22.37,10.75-28.79,24.21-9.51,19.93,1.53,30.64,11.88,45.38,11.24,9.81,10.89,25.15,3,37-13.07,20.6-34.85,25.52-55.04,36.46-20.53,11.12-27.39,21.29-8.98,40.07,27.04,27.59,74.75,38.71,103.06,68.94,17.65,18.85,23.62,49.46,53.54,52.46l3.49,53.62-2.06,4.44c2.27-8.25-.31-16.68-.47-25.09-4.22-1.67-8.24-3.85-12.55-5.41-1.15-.42-3.8-.39-3.94-.53-.48-.51.4-3.4-.08-3.92-.16-.17-3.21-.27-4.66-.83-26-10.01-36.28-31.55-49.15-53.86-3.11-5.38-8.78-17.95-12.5-22-5.45-5.94-27.95-20.92-35.74-25.76-1.41-.88-3.61-.71-5.26-1.74-11.98-7.51-24.8-14.11-35.16-23.84l-1.48,1.99c-1.82-4.54-8.86-6.94-12.52-9.99-10.04-8.37-25.87-22.85-31.71-34.29-.84-1.65-3.07-6.24-3.32-7.7-.46-2.66.58-10.57,4.53-9.02-.58-.74-1.92-3.65-2.19-3.81-1.07-.64-16.14,2.68-19.32,2.81-6.11.23-19.91-1.51-24.58-5.56-.95-.82.14-1.38.08-1.43,8.6,5.11,19.63,5.82,29.48,4.98,18.26-1.55,82.58-27.68,95.99-40.01,25.37-23.34-6.56-36.9-14.47-57.97-5.36-10.49-5.75-22.41-6-34,.91-4.22,14.86-16.41,19-19,14.18-6.7,29.18-12.35,45-8Z"/>
  <path class="st121" d="M522,420c22.78,11.11,53.03,37.05,75.09,52.41,15.78,10.99,37.4,21.62,49.94,36.06,20.29,23.37,2.5,32.21-20.7,19.7-25.29-13.63-46.67-36.18-68.86-54.14-18.45-14.94-44.25-40.52-63.29-11.35-9.01,23.1-25.66,45.97-34.36,68.64-5.4,14.08-6.93,26.11-1.82,40.68-.07-.01-.33,1.59-.99,1-4.62-4.17-3.8-24.58-2.29-30.78,1.01-4.16,7.88-17.75,5.27-20.21-2.51-.85-1.61,1.64-2.7,1.96-.98.29-2.35-.09-3.52.27-1.09.33-2.32,2.04-2.75,1.75-.09-.06.34-1.3-.77-1.93-5.59-3.19-10.39-4.65-12.58-12.23-1.22-4.22.02-7.84-.61-11.26-.23-1.25-3.58.06-4.06-1.57,13.52-2.83,21.44-13.74,28-25,7.73-13.85,15.39-28.52,23-44,3.1-4.47,5.31-8.46,10-11,8.48-7.19,19.56-5.22,28,1Z"/>
  <path class="st3" d="M645,137l2.57,1.69c5.98,8.62-9.89,44.18-14.57,53.31-15.46,25.32-40.6,42.9-69,51-34.34,8.28-68.41,6.73-102-2-34.75-10.52-67.45-31.35-83.17-65.33-2.44-5.27-11.07-29.75-8.37-33.72.76-1.11,19.79-7.75,20.54-6.95,1.13,44.93,39.07,74.33,78.79,86.71,3.21,1,7.64,2.67,10.21,3.29,29.39,8.08,69.81,6.41,98-10,30.05-15.98,54.03-47.88,53.01-83,.79-.83,13.97,4.21,13.99,5Z"/>
  <path class="st46" d="M605,169c-11.21,19.44-32.34,34.59-54,40-22.65,4.05-45.34,4.26-68,0-.47-.14-1.09.18-1.49,0-.48-.2-.57-.51-.51-.99-13.13-4.37-25.8-9.71-38-16-18.2-11.44-34.12-29.73-35.99-51.99.72-.78,14.42,9.09,16.32,10.17,36.01,20.32,80.1,26.54,120.67,19.83,16.74-.06,32.54-7.86,47-16,5.43-3.79,10.27-7.67,16-11l5.87-5.08c5.67-3.01-7.3,30.71-7.87,31.08Z"/>
  <path class="st7" d="M426.34,747.34c13.99-12.17,31.34,1.83,40.63,13.19,16.21,19.83-8.36,17.64-21.23,22.71-12.75,5.02-23.04,17.11-22.81,31.27.42,26.44,42.92,48.05,51.8,74.26.62,1.84,3.22,9.79.81,10.08-11.55-2.18-23.79-.91-35.13-2.76-8.58-17.75-20.92-34.26-35.94-47.06-7.13-6.08-27.17-16.68-29.05-24.97-2.05-9.04,10.94-14.36,16.6-19.55,6.03-5.53,12.29-14.63,16.16-21.84,5.45-10.15,9.73-28,18.16-35.33Z"/>
  <path class="st9" d="M269,524c7.47,8.7,15.32,16.97,24.5,24,13.46,10.32,45.79,26.91,47.3,45.78,1.84,23.17-40.13,44.71-52.79,62.21-10.82,10.57-11.25,30.24-3.62,44.57,2.3,6.19-.89,10.82-6.38,13.43-6.24,4.54-17.23,7.47-25,12-.82.47-5,2.31-4.97,1.62,1.28-20.05,2.86-39.8,4.75-59.25l2.22-6.37c8.96-17.72,26.95-30.14,38.41-46.09,26.11-36.32-12.73-45.27-31.41-66.91-1.63-1.5-1.72-3.32-1.56-5.42l1.98-27.42c2.26,2.55,4.46,5.17,6.58,7.84Z"/>
  <path class="st77" d="M225,279c1.93,1.28,2.91,4.91,2,7-.54,23.21-2.81,46.41-6.81,69.61-.33,5.7-.43,13.65.81,17.39l1.38.22c1.58,6.28,3.27,12.8,7.62,17.78.28.49.28,1.48.95,2.51,3.69,5.72,27.33,22.41,27.87,24.18,1.2,3.95-.61,16.31-2.31,20.31-1.19,2.82-6.98,10.16-9.29,6.28-4.82-8.11-7.47-13.54-15.2-19.8-10.32-8.36-28.03-12.95-33.01-26.49-3.91-6.47-2.51-14.46-1.21-21.52l4.89-20.92c1.74-9.49,1.53-22.14-7.68-27.56-8.66-2.19-11.38-.07-19,1-6.54,1.03-43.32,2.37-42.97-2.12,2.33-2.61,4.66-5.24,6.97-7.88,1.41-1.91,9.62-12.86,10.99-13.51,2.24-1.07,10.34-1.3,13.85-2.15,20.17-4.84,31.92-21.9,47.61-26.39,6.62-1.89,7.37-1.58,12.55,2.05Z"/>
  <path class="st99" d="M797,224c3.62,3.46,5.59,6.86,8,11,2.58,2.29,5.07,5,3.95,8.67-5.6,16.68-1,33.96,4.05,50.33,5.13,10.44,10.46,25.3-7.17,25.33-10.73-.33-21.01-.11-30.83.67-35.39,4.49-26.05,49.15-.23,60.73,14.63,6.56,39.57,5.05,56.23,7.27,13.03,1.17,24.65,5.42,34.86,12.72l-4.86,5.28c-5.8,6.3-10.83,13.3-18.35,17.92-11.33-8.99-25.1-16.77-39.65-18.92-13.56-2.87-33.25-1.35-44,2-1.04.16-2.99,1.88-5,1-1.5-18.99-5.49-37.95-7-57l-.53-26.51c-.68-6.77.5-12.93,3.53-18.49,2.02-2.93,1.9-4.04,6-6,6.29-1.19,14.43-2.83,20.28-5.78,9.13-4.6,11.32-10.06,12.61-19.94.06-16.62,1.85-33.04,5.38-49.26.77-1.3,1.62-2.36,2.74-1.03Z"/>
  <path class="st99" d="M509,320c9.77-20.36,29.57-38.74,42.34-57.65,7.28-4.65,16.65-5.67,24.92-8.58,3.79-1.34,8.94-4.74,12.26-5.75,1.88-.57,1.32.34,1.47,1.47,2.89,22.01,4.89,30.19,17.2,48.82,6.1,9.24,18.44,17.25,5.72,28.1-12.75,10.88-72.16,35.1-88.36,34.62-3.45-.1-7.53-1.52-10.56-3.03-12.05-9.18-10.83-25.48-5-38Z"/>
  <path class="st57" d="M828,262c8.59,9.54,16.79,19.57,25.49,29.01,3,3.26,13.75,12.38,15.08,15.01s-4.25,6.37-5.57,7.98c-8.87,12.68-6.69,32.31,5,42,8.02,9.01,18.56,13.11,28.98,18.5,0,1.08-15.05,12.72-16.98,13.5l-3.03-.23c-17.05-9.4-33.27-17.43-53.77-17.36-15.75.88-30.82-.59-45.2-4.41-6.87-3.79-12.56-14.48-10.8-22.28.69-3.04,5.75-7.68,8.8-7.72,1.11.26,2.24.48,3.4.48,5.68.01,11.46-.14,17.16-.34,27.76-.96,45.27-3.03,36.43-36.62-1.79-3.9-13.31-38.5-8.02-39.64l3.02,2.12Z"/>
  <path class="st94" d="M254,249c8.23,5.02,11.46,14.45,12.11,23.57l.89.43c.17.7.7,1.62,1,3,2.41,13.56,3.19,26.22,3.58,40.18,0,.06-.14-.89.42-1.18,1.64,1.07,1.03,4.13,1,6-.93,3.57-1.53,7.59-1.78,12.06-13.46,4.67-10.87,25.79-4.14,35.66l.91,5.28c-1.21,8.65-3.6,17.21-4.01,26-8.7-8.78-23.43-16-26.71-28.78-3.59-13.97,1.24-28.62,2.72-42.22,1.95-6.46,2.8-14.76,2-22,.01-.33,0-.67,0-1,2.32-10.21,1.06-26.43-5-35-2.63-4.61-11.3-10.29-16.6-10.92-18.95-2.26-34.35,22.29-51.91,27.92l-.49-1.48,52.7-60.38c12.02,4.6,24.22,13.47,33.29,22.87Z"/>
  <path class="st2" d="M759,663c-11.51,4.94-30.77,10.24-29.94,26.36.93,18.03,28.75,43.9,36.94,60.64,3.47,15.78,5.81,31.78,7,48,.34,3.03,1.65,7.21,1.99,10.51,1.48,14.44,3.09,28.97,3,43.49l-4.99-3.99,1.74-1.57-1.6-23.2c-4.82,3.33-14.26-.93-20.06-3.91-5.36-2.75-12.23-7.73-14.39-13.13-1.05-2.62.06-6.88.92-9.51,5.56-10.77,11.18-21.81,10.45-34.21-.24-4.03-2.32-11.95-7.04-10.38,0,7.02-2.68,25.81-8.05,30.04-1.1.87-1.62.77-2.98-.14,7.23-14.81,10.21-28.8,4.19-44.69-4.7-12.43-20.15-27.56-29.65-37.35-6.57-6.76-21.48-14.6-15.41-26.33,3.81-7.37,30.51-10.85,39.78-18.22,4.48-3.56,11.16-15.97,12.09-16.41l.95.04c.92-2.79,9.68-19.43,12.13-17.08l2.92,41.04Z"/>
  <path class="st69" d="M110,349c2.93-2.83,6.06-5.46,9.39-7.89,17.1,5.15,37.14,8.83,53.61,3.89,7.96-1.04,14.11-6.21,12.87,7.38-2.22,24.39-14.73,41.13,5.16,64.09,10.47,12.09,43.3,20.32,41.93,39.91-.39,5.55-18.72,29.55-21.95,26.62-5.72-19.46-18.35-36.97-30.61-52.9-5.36-6.96-13.04-13.94-17.4-21.1-1.59-2.03-3.07-4.03-4.46-6,2.74-2.94,3.99-7.18,3.76-12.72,12.14-23.63-7.51-29.35-25.28-17.28.88.7,1.97,6.33,1.9,7.12-.45,4.75-2.34,4.14-5.91,2.89-10.32-8.08-21.85-15.97-34-21.01-.41-1.51.4-1.66.98-2.5,1.82-2.63,7.44-8.18,10.01-10.49Z"/>
  <path class="st68" d="M454,797l1.77.3c16.22-4.18,30.66-3,46.23,2.7,6.55,3.07,11.79,7.67,18,11,13.53,8.05,27.52,15.39,41.99,22.01-1.15,3.2-.62,4.15,1.61,2.84,5.07,1.24,11.36,3.37,11.52,8.9,2.2-.71,4.5,1.18,5.3,3.17,6.24-2.04,11,13.45,1.13,11.74-.18,5.13-5.41,7.32-6.28,1.55l-2.77-.86c-2.86,2.4-5.69,2.95-8.5,1.66-.84.26-1.76.26-2.37-.42-3.85-4.26-7.73-8.2-12.76-11.31l.13-2.27q2.13-.6,0,0c-1.77,1.73-4.29,1.73-7.56.03-15.87-12.2-35.48-21.83-54.56-28.47-22.1-7.69-25.67,6.92-8.39,17.36,1.59,1.48,2.22,3.38,2.14,5.5,16.55,14.68,32.21,29.7,39.97,50.7,3.87,1.37,5,2.66,3.4,3.89-9.23.3-18.67.63-28.32,1.01l-.68-1.01c-1.35-4.79-3.01-8.79-5-12-3.5-8.33-8.43-16.4-14.03-23.47-10.65-13.46-41.68-33.53-35.02-53.08,1.4-4.11,8.91-10.9,13.05-11.45Z"/>
  <path class="st4" d="M490,885c.8-2.21,2.31,1.48,2.51,1.99,1.23,3.14,2.51,6.57,2.49,10.01h29c.03-2.08-2.39-.11-4.11-1.64-2.4-2.15-4.81-10.32-6.49-13.27-9.95-17.52-20.71-25.16-34.21-38.34-.92-.9-.23-2.86-1.16-4.26-1.9-2.87-5.6-3.84-7.7-5.84-6.64-6.33-6.24-17.78,4.17-18.66,11.09-.94,45.12,16.62,56.23,22.71,3.16,1.73,8.42,6.96,11.53,8.51,1.99.99,5.18.94,6.72,1.78,2.52,1.37,11.78,8.74,13.48,11.04.66.89,1.08,1.96,1.52,2.96,5.91.43,3.09,16.66-3.78,14.69-7.99-2.02-15.87-4.48-23.63-7.37-6.23.34-5.86,2.5-4.75,7.95l4.9,16.5-.86.7c23.61-.72,47.35-2.54,70.75-4.69,4.15-.59,6.61.48,7.36,3.23-34.23,3.09-69.99,5.31-104,5l-14,1c-.55-.06-1.5.29-1.87-.1-.49-.53-3.03-11.26-4.13-13.9Z"/>
  <path class="st73" d="M933,375c.03,2.09.18,4.19-.24,6.27-4.65,23.36-62.55,76.59-82.29,92.7-3.9,3.18-30.1,23.46-33.47,20.02.36-6.25,4.41-13.38,7.47-19.02,14.56-26.82,74.31-94.44,104.27-99.74,1.42-.25,2.82-.35,4.25-.25Z"/>
  <path class="st2" d="M711,164c-2.25.13-3.52-1.08-2.61,2.1,4.37,15.17,16.29,28.07,21.12,43.89,7.8,25.56-3.12,52.26-24.18,67.84-6.94,5.13-13.02,9.43-21.61,4.96-2.11-1.1-4.24-6.94-6.71-8.78l3.01-.05c-.5-1.29-.75-2.48.26-3.67,3.17-3.76,12.74-8.55,17.21-12.32,23.95-20.19,22.05-43.21-2.54-61.4-7.11-5.26-10.3-3.97-15.57-12.49-.47-.75-1.92-.92-2.12-1.25-.23-.39.78-1.66.26-2.75-.45-.93-1.84-1.65-2.29-2.8-2.89-7.5.48-17.25,2.48-24.79l-2.7-3.48c12.6,4.62,23.86,9.35,36,15Z"/>
  <path class="st92" d="M734,303c1.77,1.29.85,5.48-1,3-1.51,25.39-.53,50.86,2.92,76.42-13,9.49-22.77,17.23-9.94,32.16,3.57,4.15,7.61,8.16,13.52,7.5,2.77,2.4,2.97,13.19,2.97,17.66l.53-.73c.7,0,1.24.02,1.26.13,1.18,6.98,2.03,14.93,1.74,21.87-1.72.85-1.71-.61-2.3-1.24-6.85-7.23-12-13.78-20.38-19.57-10.25-7.08-23.13-12.37-32.79-20.21-24.72-20.07,4.85-31.27,16.99-44.96,2.35-2.65,7.7-12.99,8.49-13.01,2.02-4.08,3.34-8.79,3.96-14.15l1.04-.35c-.55-.08-.98-.17-1-.3-.91-7.74-.05-19.48,1-26.7-.97-3.8,2.66-10.59,5.32-14.07,1.98-2.59,7.76-9.4,7.68-3.43Z"/>
  <path class="st93" d="M520,811c40.04,21.51,59.1,27.49,91.51,61.99,2.64,2.81,14.64,15.39,15.47,17.53.68,1.74-.45,1.36-1.47,1.49-3.41.44-7.86.67-11.52,1-2.95-1.67-8.19-1.22-11.54-1.04-10.58.58-21.36,2.42-31.97,3.03-11.71.68-23.66.66-35.39.91-.68-6.07-8.38-21.53-4.93-26.72.29-.43,5.17-1.94,6.17-1.89,4.74.24,25.02,10.55,27.5,6.54.71-5.22,2.48-6.65.16-11.83,2.51-1.31-3.51-9.18-3.98-9.41-.67-.33-1.92.48-1.97.4-.24-.38-1.45-7.73.45-7.96,3.35,1.24,2.53,4.95,6.5,2.98.28.23-3.4,2.72,0,4.98l-2.99.99c.79-.49,4.21,3.99,4.32,4.28.38,1.07-.46,2.64-.32,2.73,1.41.85,4.71-2.63,6.49-2.61.29,0,5.31,1.43,5.52,1.63.22.22-1.43,2.49-1,2.99,4.16-.98,1.74-4.79,1.98-4.99.27-.23,5.77-.56,7.01-1.01.47-1.81-1.49-2.47-1.84-3.76-.28-1.04,1.44-6.12-1.1-4.58-.67.4-3.52,2.15-3.66,2.31-1.04,1.15,2.24,3.53-.88,3.03-5.88-4.44.43-4.34.47-5.49-4.26-5.82-3.98,1.48-5.17,3.27-.09.13-2.68,1.33-2.79,1.23-.71-.57-.27-4.65-.49-5-1.4-2.24-3.97,1.76-3.51-1.48l5.99-1.52c-1.1-2.62-1.82-2.52,1-3.49-4.61-5.45-7.8-4.53-13.99-2.5l-1.02-5,3-.99-11.98-5.01-2.03,6c-2.16-.94-11.44-4.44-8.98-6.99,1.35-1.4,7.52,5.67,4.99,0,.92-.67,6.95,2.81,4.01-.51l-22.85-11.15-5.15-4.35Z"/>
  <path class="st44" d="M355.99,147c2.9,33.27,22.63,61.04,47.99,81.5-10.64,5.92-19.03,40.02-34.47,26.49-11.49-10.07-18.42-60.58-21.98-77.02-1.89-8.72-4.91-17.23-6.54-25.96l15-5Z"/>
  <path class="st30" d="M732,782c.18-.27,1.23-.68,1.85-1.61,5.61-8.44,7.46-21.42,7.16-31.39l2.99,1,2.01-3c-1.04,3.49,3.2,4.56,4.74,8.75,2.59,7.07.77,10.68-.19,17.1-.23,1.56.57,2.9.01,5.12-2.16,8.66-13.39,20.62-9.35,29.38.97,2.11,2.4.54,2.64.82.53.63.13,2.3,2.19,4.29,4.54,4.4,18.46,10.23,24.96,10.53l-2.99-2.99,6.99,1,2,28.99c-1.21-1.07-2.67-1.35-3.99-2-7.11-3.48-13.47-8.66-21.01-11.49-9.37-3.52-35.78-5.9-40.41-13.59-3.62-6.01.27-11.2,3.39-16.45,4.98-8.39,11.61-16.32,17.03-24.47Z"/>
  <path class="st44" d="M438,248c4.8,2.01,32,9.59,32.99,11.02,1.57,2.28-2.23,4.09-2.99,4.98-10.5,15.58-18.48,32.9-19.94,51.85l-1.06,1.15c.52-1.95,1.18-2.29,2-1-1.27,12.31-.42,23.87-1,36-1.66-1.04-1-3.8-1.02-5.49-.1-9.34-.68-20.39.02-29.51-6.39,3.23-11.89,6.25-17.5,0-3.74-4.16-9.81-19.47-10.81-25.19-2.81-16.21,3.99-36.22,21.31-40.83l-2-2.99Z"/>
  <path class="st14" d="M144,413l2.37,4.88c-.98,3.47,1.8,4.35,5.11,4.44,6.31,3.25,7.14,6.87-.56,7.34,1.08,2.98.75,7-3.11,6.7-2.83-3.02-4.06-1.84-3.69,3.52-2.94.54-5.42,2.27-7.43,5.2-8.21-7.61-16.12-14.64-23.7-21.08-6.97-7.28-29.65-31.35-30.07-40.52-.48-10.46,11.03-4.67,17.05-1.96,14.73,6.61,31.97,20.68,44.02,31.48Z"/>
  <path class="st21" d="M192,474c1.44,5.94,3.3,11.98,5.55,18.13.03,1.52-8.36-2.41-9.55-3.13-19.42-10.94-32.18-25.19-48-40-.3-2.4.03-4.07,1-5q.91-1.23,0,0c-.46,1.72-.8,3.39-1,5-8.68-8.12-18.55-16.17-27-25,.85-2.36,2.71.24,3.52.99,2.73,2.54,18.36,19.35,19.97,19.01,1.91-.4,1.04-3.83.52-4.99,10.76,1.91,3.58-3.19,2-8l4,1.02c-2.62,4.44,1.52.27,3.04.42,2.26.22,1.33,2.6,2.95,2.55.83-3.06.96-6.29-2.47-3.98-2.96-3.36,8.02-3.59,8.48-4.02.27-3.45-3-3.21-5.25-1.94-.62.35-1.24,3.67-2.74,1.94-.41-.47,1.44-3.55,1-3.98-.16-.16-2.7.15-3.59-.95-1.13-1.39.77-3.89.6-4.05-.15-.15-3.18.16-4.01-1.52-1.2-2.44,3.68-.17,2.99-3.49,17.09,15.32,38.22,40.19,48,61Z"/>
  <path class="st55" d="M833,438c-.27.57-6.56,8.64-7,9-14.52-4.11-31.97-8.09-45-2-.24,1.42-9.6,3.92-9.02,8l-5.98-5c-5.36-4.03-11.03-14.71-8.43-21.5,1.73-4.52,20.91-6.61,25.07-6.59,18.05.07,38.57,3.73,50.37,18.09Z"/>
  <path class="st40" d="M778,228c-2.44,8.85-3.39,18.65-2.85,29.39.07,7.65-1.65,14.51-5.15,20.61-.35.7-.11.99-1,2-1.94,1.21-17.68,5.33-18.53,4.89-2.53-1.32,10.66-51.2,11.87-55.71,1.1-4.1,2.33-8.15,3.66-12.17,1.57-3.48,6.05-12.64,8.54-14.96,2.89-2.69,7.81,5.6,10.22,7.44-3.21,5.57-5.51,12.23-6.76,18.52Z"/>
  <path class="st82" d="M264,575c6.41,3.09,19.51,11.47,18.97,19.38-.82,12.12-19.42,29.44-26.97,38.62-.93.37-1.59.29-1.63-.52-.8-18.11,1.46-41.53,4.07-59.8.26-1.81,4.68,1.23,5.56,2.32Z"/>
  <path class="st89" d="M133,383c.4-1.64,2.42.35,3.02-.52,2.69-3.97-1.04-3.42-1.05-3.98,4.16-5.26-.86-3.3-.95-5-.17-3.05,17.19-9.2,20.67-9.17,6.12.06,13.47,5.82,13.87,12.14.16,2.6-3.43,10.85-4.32,14.26s-.08,12.29-4.22,13.28v.97c3.03-.3,2.21,2.74,2.99,4.01-10.13-8.44-19.62-17.87-30-26Z"/>
  <path class="st119" d="M878,321c.18-.19-.28-1.66.06-1.91,2.53-1.89,5.48,3.98,6.91,5.44,12.33,12.63,26.03,23.99,38.02,36.99.57,2.41-3.19,1.58-4.54,1.53-10.95-.38-27.3-5.65-34.45-14.05-7.97-7.58-14.42-18.16-6-28Z"/>
  <path class="st53" d="M817,461.01l-12.5,24.97c-2.48-3.59-19.88-18.22-20.34-20.63-1.44-7.43,18.18-6.71,22.34-6.35,3.56.31,6.85,2.17,10.51,2Z"/>
  <path class="st105" d="M293,368c13.7,5.03,5.17,18.7-2,26-2.63,3.82-3.58,5.37-8,8-5.02,5.09-6.2,3.04-3.53-6.15l-.47-2.85c1.56-8.23,3.53-16.55,5.23-24.76,3.39-2.33,5.73-.96,8.77-.24Z"/>
  <path class="st72" d="M268,868.99c-7.15-.32-32.46-7.26-34.55-13.94-1.7-5.42.6-12.58,1.56-18.05l8.51,9.97c8.89,6.37,20.01,11.36,24.48,22.01Z"/>
  <path class="st5" d="M273,321c-.23,16.79-2.67,36.32-5,53-7.72-11.74-11.74-23.14-5.19-36.69,3.26-6.73,6.55-4.59,7.75-6.25,1-1.37.34-6.44.43-8.58.11-2.46-.7-3.26,2-1.48Z"/>
  <path class="st114" d="M258.99,232.99c-1.44,1.43-24.4-18.25-27.99-19.53-.27-1.09,9.85-11.25,10.64-11.39,4.47-.78,16.52,26.01,17.36,30.92Z"/>
  <path class="st79" d="M753,707c-1.75-4.22-3.8-8.48-6.16-12.78-6.22-7.72,13.35-13.77,13.66-12.72.83,2.83,4.16,32.74,3.73,35.07.24,3.28-.89,3.9-3.22,1.43-3.03-3.76-5.41-6.88-8-11Z"/>
  <path class="st98" d="M746,461l-3-22c-.14-4.89-1.09-9.45-2.85-13.67,1.19-.97,1.1-1.8-.26-2.49l-4.67-39.74.69-3.19c-3.59-24.65-4.56-49.28-2.92-73.91.47.05.82-.02.99-.52.17-.79-.16-1.81,0-2.48-1.24-2.4-.9-3.4,1-3,2.05,2.2-.82,13.84-.99,17.51-1.72,37.51,7.22,79.49,10.98,117,.6,6,2.18,17.58,1.97,22.98-.06,1.42.77,2.65-.96,3.51Z"/>
  <path class="st117" d="M286,293c.18,1.63-.13,3.36,0,5,.29,3.61.88,7.09,1,11l1,14c-.05,10.06-.57,20.02-2,30,26.7-.63,41.42,16.15,26,41-2.01-.6,0-2.99.49-4.01,8.47-17.84,4.28-30.05-15.43-34.54-3.23-.74-8.58-.23-11.3-1.45-2.97-1.34.17-12.23.29-15.45.99-27.5-2.02-48.83-6.6-75.51-.26-1.53-1.32-4.07.55-5.04,3.41,11.15,6.31,23.24,6,35Z"/>
  <path class="st51" d="M755.99,207c-1.58-.18-1.52-1.5-1.89-2.6-2.69-8.14-4.94-16.41-8.09-24.4l17.98,10.56c-2.45,5.55-7.35,10.18-8,16.44Z"/>
  <path class="st117" d="M230,391c-5.54-4.17-6.73-11.89-9-18-1.34-5.71-1.2-11.73-.8-17.55,4.02-23.15,6.29-46.3,6.8-69.45-.43-2.37-1.08-4.77-2-7,.05.03.59-.93,1.01-.55,3.79,3.36,3.35,25.38,3.03,31.1-1.55,27.66-14.05,55.71.96,81.46Z"/>
  <path class="st18" d="M828,262l-2.99-1c-2.54,20.31,14.02,38.65,10.93,58.44-1.49,9.54-11.87,15.03-20.55,16.46-9.25,1.52-25.84.9-36.01,1.18-1.82.05-3.21-1.07-3.38-1.07l38.24-1.26c40.55-7.97,8.93-45.6,8.87-69.35,0-1.67.93-6.73,2.4-7.39l2.49,4Z"/>
  <path class="st118" d="M833,438c-15.02-14.85-36.86-18.83-57.38-16.88-2.99.28-16.68,2.81-17.52,5.55-.19.61.88,11.84,1.1,12.62.8,2.75,8.67,6.92,6.8,8.7-1.91-1.63-7.13-5.61-7.79-7.71s-1.71-12.7-1.05-14.63c.87-2.53,12.52-5.09,15.44-5.55,21.65-3.43,44.19,1.59,60.96,15.89.67.69-.24,1.33-.57,2.01Z"/>
  <path class="st52" d="M880,388c-5.98,2.43-13.84-5.59-19.97-8.53-12.22-5.85-24.15-7.42-37.54-8.46-13.3-1.03-32.88,1.4-44.49-5.01l15.52,2.98c21.16.64,43.55-.65,63.47,7.53,8.1,3.33,14.73,9.49,23.02,11.48Z"/>
  <path class="st109" d="M797,224l-2.14,1.32c-.58,6.57-3.03,13.94-3.75,20.28-1.34,11.77.6,30.36-4.54,40.46-4.41,8.65-17.43,11.83-26.07,13.94-1.3.32-3.54,2.03-4.49,0,8.49-4.05,18-3,26.02-10.48,8.48-7.92,5.86-25.33,6.99-36.01.54-5.05,3.11-27.74,5.49-30.51,1.69-1.97,1.61.15,2.5,1Z"/>
  <path class="st10" d="M564,243c-33.65,9.6-68.6,8.11-102-2,4.19-1.95,10.36,1.79,14.78,2.72,29.84,6.32,52.88,5.3,82.39-1.07,1.46-.31,3.87-1.55,4.83.34Z"/>
  <path class="st58" d="M303,289l-1.14.66c-6.48-31.48-3.18-64.48-27.36-88.66-.46-.46-3.5-2.58-1.5-3,27.92,22.27,22.5,59.89,30,91Z"/>
  <path class="st84" d="M578,215c2.2.71-1.48,2.34-1.95,2.55-30.23,13.76-61.62,15.74-94.03,8.92-1.01-.21-4.18-.1-2.02-1.47,30.83,7.43,69.78,5.01,98-10Z"/>
  <path class="st8" d="M766,217l-14.99,66.99,17.99-3.99c-3.42,3.87-14,3.97-18.99,6-1.58-1.82,6.15-37.79,7.48-43.01,2.23-8.76,4.81-17.75,8.51-25.99Z"/>
  <path class="st90" d="M286,293c-1.24-11.55-3.57-23.65-6-35-3.11-14.56-7.45-28.85-12-43,.07.01.33-1.6.99-1,3.65,3.33,16.95,63.14,17.88,71.62.24,2.16.93,5.74-.87,7.38Z"/>
  <path class="st60" d="M476,696c-20.13-18.93-41.25-35.65-69-18,22.33-21.19,50.07-2.41,67.5,15,.46.46,3.5,2.58,1.5,3Z"/>
  <path class="st112" d="M365,737c-3.55,9.02-8.2,28.74-17.29,33.21-9,4.43-20.79-3.06-30.34-4.09-4.42-.48-8.95.08-13.38-.12-.02-.15-.9-.5-1.01-.98,12.11-4,23.81,3.73,34.63,4.87,17.03,1.79,20.17-17.08,24.92-29.85.1-.28,1.64-5.66,2.46-3.04Z"/>
  <path class="st106" d="M626,786c0,.07.92.51,1.01.98-27.45,7.83-57.5,2.12-82.01-10.98,26.48,10.37,52.51,17.41,81,10Z"/>
  <path class="st35" d="M331,306c-19.37-16.04-14.19-52.68-19-76l.99-.5c5.05,22.62,1.88,47.83,12.18,68.84l5.84,7.66Z"/>
  <path class="st100" d="M753,707c-9.1-14.5-14.13-22.11,8-26l5.02,42.49c-2.13-.4-3.66-3.82-5.01-5.49,3.09.31,2.21-3.12,2.04-5.54-.69-10.18-3.22-20.26-3.05-30.45-16.32,4.38-15.31,8.31-7.57,21.07.57.95,2.65,3.32.57,3.93Z"/>
  <path class="st20" d="M735,300c-.64.91-.74,1.96-1,3-1.56-1.57-.23-2.71-2.5-1.01-4.43,3.34-10.5,13.04-10.5,18.51v27c0,.96-3.42,14.96-4.01,15.5-.66.6-.92-1-.99-1,.24-3.89,3-9.88,3-13.5v-25c0-3.75,3.82-13.53,6.17-16.83,1.26-1.76,7.39-9.28,9.83-6.67Z"/>
  <path class="st62" d="M345,245c-1.01,2.53-1.49-1.15-1.68-1.81-6.02-21.13-10.62-44.65-14.68-66.35-.27-1.46-1.53-3.9.36-4.84,6.42,23.06,8.11,51.13,16,73Z"/>
  <path class="st75" d="M264,575c-.89-.43-4.7-2.34-4.99-2-.56,15.81-3.2,31.69-4.05,47.45-.2,3.68-.62,9.24,1.04,12.54-.89,1.08-1.03,3.64-2.99,4,.62-22.03,3.04-44.05,5-66,.82-.93,5.78,2.45,5.99,4Z"/>
  <path class="st109" d="M255,662c-3.56,8.76-2.3,16.68-3.01,25.49-1.06,13.14-2.59,26.35-2.98,39.51l3.99-1c-1.1.64-5.19,3.91-5.99,3,.54-10.48,2.17-21.01,2.98-31.51,1.04-13.45-1.27-23.07,5.01-35.49Z"/>
  <path class="st33" d="M199,398c-1.51-1.5-2.61-3.44-2.94-5.57-3.16-20.9,17.52-47.22-1.06-64.43,4.28,1.08,5.41,2.91,7.19,7.31,8.08,20.05-10.57,42.6-3.19,62.69Z"/>
  <path class="st97" d="M677,797c17.72-19.06,16.84-42.62,6-65,13.44,19.05,12.21,45.72-2.97,63.52-.35.41-2.67,3.45-3.03,1.48Z"/>
  <path class="st101" d="M551,209c-20.18,5.04-47.97,5.91-68,0,.94-1.88,3.39-.63,4.85-.36,19.17,3.55,39.17,4.09,58.32.01,1.46-.31,3.87-1.55,4.84.35Z"/>
  <path class="st122" d="M775,320c-2.52-1.13.88-1.32,1.53-1.4,8.53-1,33.48,2.83,39.5-3.08,3.66-3.6-1.92-16.71-3.03-21.53v-1c3.69,4.59,8.4,19.26,3.94,23.45-7.12,6.69-32.15,2.31-41.94,3.55Z"/>
  <path class="st34" d="M288,656c-6.66,9.2-9.53,19.9-7.76,31.26,1.4,8.98,13.4,21.12-2.24,26.74,11.53-8.39,4.24-14.34,1.65-24.15-3-11.35-.7-22.38,5.53-32.17.32-.5,2.22-3.79,2.82-1.68Z"/>
  <path class="st6" d="M173,345l.48.97c-15.04,3.24-28.98,2.31-43.88-1.07-3.21-.73-6.74-3.39-10.05-2.92-2.62.37-5.84,5.29-8.09,7.15-.98.81-1.4-.17-1.46-.12,1.41-1.74,7.07-8.47,8.62-8.77s13.19,3.65,16.37,4.28c14.53,2.89,23.44,2.4,38.01.49Z"/>
  <path class="st41" d="M759,663l-3.48-39.02c-1.15-1.59-1.55-.53-2.52.51-2.15,2.31-8.28,15.01-9.5,15.49-.55.22-.45-1-.5-.98,3.54-7.66,7.93-15.08,13.99-21l2.01,45Z"/>
  <path class="st12" d="M633,192c-2.12-.65.04-2.94.59-3.91,6.91-12.22,14.23-30.18,14.03-44.42-.04-3.16-.05-6.81-3.62-5.68-.16-1.13,1.01-.92,1.01-.99,7.21-.5,3.37,14.64,2.53,19.03-2.39,12.57-7.92,25.13-14.53,35.97Z"/>
  <path class="st116" d="M813,293c.07.32-.07.68,0,1-5.47-12.91-8.39-27.38-6.99-41.49.29-2.97,3.1-10.23,2.77-11.89-.07-.33-2.88-4.08-3.78-5.62,8.7,4.23,2.68,13.01,2.13,20.63-.91,12.54,3.08,25.28,5.87,37.37Z"/>
  <path class="st56" d="M391,696c-4.49,4.79-16.16,18.71-22.45,9.95s.79-24.48,5.45-32.95c2.02.61-.01,2.99-.49,4.01-3.67,7.88-9.19,19.65-3.97,27.94,4.41,7.01,14.58-3.56,18.46-7.45.46-.46,2.58-3.5,3-1.5Z"/>
  <path class="st120" d="M324,448c-11.76,17.37-15.85,32.02-4,51-1.47,1.35-2.03-1.01-2.53-1.96-9.93-18.83-7.34-29.94,3.71-47.36.32-.5,2.23-3.79,2.82-1.68Z"/>
  <path class="st96" d="M452,404c6.67-18.5,10.86-35.12,11-55,2.2.69,2.11,2.55,2.05,4.45-.59,16.63-5.37,36.31-13.05,50.55Z"/>
  <path class="st104" d="M390,722c-8.47,15.76-12.93,32.1-20,48.5-.14.34-2,5.66-3,3.5,8.76-15.65,10.19-37.95,23-52Z"/>
  <path class="st1" d="M656,580c11.09-5.84,27.88-12.26,40.51-11.81,2.24.08,13.31,3.48,14.87,4.73,1.14.91.44,1.76.62,2.08-18.01-11.21-38.06-.75-56,5Z"/>
  <path class="st15" d="M449,316c-.67.33-1.33.66-2,1,1.33-17.38,9.61-39.74,21-53-6.2,12.19-13.5,23.26-16.7,36.8-1.18,5-1.77,10.1-2.3,15.2Z"/>
  <path class="st107" d="M702,600c-2.13-3.01.54-6.4-1.55-9.94-5.13-8.7-30.49,2.09-37.44,5.46-1.01.49-3.42,2.49-4.01.49,11.18-5.73,24.43-11.96,37.44-9.94,6.7,1.04,7.53,8.56,5.56,13.94Z"/>
  <path class="st32" d="M778,228c-.53,2.66-2,11.39-2,13.5v16c0,2.98-1.55,12.4-2.51,15.49-.58,1.84-1.66,4.1-3.49,5.01,6.94-14.14,2.71-35.2,7.01-50.5l.99.5Z"/>
  <path class="st43" d="M826,447c-3.17,2.6-13.19-4-17.5-4h-19c-1.66,0-6.07,2.41-8.5,2,.01-.07-1.59-.33-1-.99.23-.26,5.7-1.49,6.79-1.72,14.38-3.01,25.83-.09,39.21,4.71Z"/>
  <path class="st50" d="M737,616c-5.99,11.58-11.61,26.24-23.96,32.54-3.87,1.97-7.63,2.14-11.04,3.46-2.53-1,1.15-1.5,1.81-1.68,14.07-3.99,18.1-9.64,25.36-21.65,3.32-5.5,3.46-8.4,7.83-12.67Z"/>
  <path class="st36" d="M773,798l-7-48c5.88,12.03,5.44,34.07,7,48Z"/>
  <path class="st76" d="M140,319c-.19.26-.3,1.53-.95,2.51-.56.86-5.61,4.95-5.05,5.48,8.8,1.73,18.49,3.65,27.48,2.99,4.48-.32,10.44-3.34,14.52-.98-15.35,2.15-28.72,3.49-44-1.01-1.26-1.17,6.66-8.26,8-8.99Z"/>
  <path class="st91" d="M502,800c-2.56,1.9-6.81-1.87-9.8-2.7-6.31-1.76-8.27-.57-13.78-.4-.47.01-.34-1.87-1.03-1.97-3.3-.49-16.75,2.27-21.06,3.02-2.25.39-2.22-.96-2.35-.95,17.33-4.12,31.72-4.64,48,3Z"/>
  <path class="st0" d="M461,474c8.39-14.41,13.24-29.91,23-44,2.19.64-.24,2.82-.8,3.71-7.7,12.15-13.05,25.58-19.67,38.32-.26.49-1.77,4.18-2.53,1.97Z"/>
  <path class="st17" d="M605,396c11.18-9.07,32.15-14.17,45-22,1.35,1.47-1.01,2.03-1.96,2.53-12.85,6.74-26.31,11.58-39.13,18.88-.97.55-3.26,2.7-3.91.59Z"/>
  <path class="st88" d="M759,407l-.56-1.05c14.77-3.36,30.1-3.78,45.09-2.02l-.53,1.07c-13.99-2.07-30.06-.15-44,2Z"/>
  <path class="st71" d="M591,154c-7.93,5.53-14.95,9.17-24.23,12.27-6.42,2.14-16.4,5.78-22.77,3.73,6.77-1.12,13.56-2.15,20.22-4.28,9.34-2.99,17.84-7.87,26.78-11.72Z"/>
  <path class="st102" d="M671,216c-3.96,1.63-8.15-1.16-12.49-1.08-3.6.07-7.15,1.9-10.85,1.47l-21.66,7.6c11.66-7.3,31.72-14.08,45-8Z"/>
  <path class="st59" d="M269,524c-.05-.05-.52.99-1.4.06-1.88-1.98-2.5-5.59-4.59-7.06-.06,10.68-3.31,21.45-1.01,32-.6-.7-2.44-1-2.6-2.44l2.61-33.56,6.99,11Z"/>
  <path class="st116" d="M831,388c12.7,1.7,26.13,3.39,35.98,12.5,0,.84-5.07,4.5-5.98,5.5l3.98-5.5c-10.34-7.76-23.74-10.58-36.48-11.5l2.5-1Z"/>
  <path class="st86" d="M336,492c-9.34-14.51-5.35-27.29,4-40,2.38.84-.34,2.69-.95,3.55-4.42,6.2-5.98,11.52-6.97,19.11l3.92,17.34Z"/>
  <path class="st29" d="M868,356c-.33,1.98-2.74-1.11-3.03-1.48-9.17-11.74-11.76-28.58-1.97-40.52-7.8,14.65-6.03,29.61,5,42Z"/>
  <path class="st111" d="M605,169c-2-.59,0-3,.49-4.01,3.87-7.97,8.11-16.99,7.02-25.98-1.5,2.49-3.58,2.88-5.5,4,3.22-3.99,8.58-11.43,8.01-1.53-.41,7.2-6.32,21.13-10.01,27.53Z"/>
  <path class="st49" d="M747,351c-.17-2.17-1-6.39-1-7.5v-30c0-2.96,2.6-5.47,4-7.5-1.64,4.41-2.69,9.77-2.99,14.51-.65,10.26,2.7,20.44,0,30.49Z"/>
  <path class="st38" d="M270,492c-4.09-14.59-.65-33.95,2-49,1.59.99,1.17,3.87,1,5.47-.85,8.07-3.25,16.79-4.03,24.99l1.03,18.54Z"/>
  <path class="st13" d="M740,256v-1c1.98-13.42,6.18-23.45,3.64-37.15-.27-1.46-1.52-3.9.36-4.85,4.36,16.28.59,22.55-2.13,38.37-.29,1.69-.44,3.43-1.87,4.63Z"/>
  <path class="st54" d="M509,320c-2.84,11.08-6.29,20.04-.38,30.88l5.38,7.12c-11.89-5.92-11.34-23-7.48-33.98.7-2,1.95-2.92,2.48-4.02Z"/>
  <path class="st25" d="M242,306c.29-10.55.37-25.6-5-35,1.57-1.43,2.96,2.48,3.22,3.3,2.24,7.2,4.27,19.71,3.85,27.26-.11,1.86.21,3.75-2.06,4.44Z"/>
  <path class="st64" d="M443,192c.56-1.95,3.07-.06,4.03.47,11.14,6.05,22.35,12.15,34.98,14.55-.14.44-.99.82-1.01.98-13.39-2.82-26.48-8.75-38-16Z"/>
  <path class="st28" d="M409,623l-.55-1.03c5.97-2.48,15.01-.27,17.07-7.94,1.1-4.12-2.19-17.21-3.52-22.03,3.24,6.03,7.04,19.06,3.79,25.29-2.31,4.43-12.21,4.18-16.79,5.71Z"/>
  <path class="st27" d="M435,479c-2.96,1.53-2.99,2.57-7.42,1.95-13.68-1.91-7.3-23.62-1.58-30.95-1.22,3.06-4.31,11.83-4.74,14.76-1.67,11.41,1.62,17.21,13.74,14.24Z"/>
  <path class="st47" d="M648,684c-.11-.22-1.32-.62-1.77-1.69-5.72-13.62-4.14-21.75,6.77-31.31l-6.4,9.1c-3.97,8.12-.46,15.87,1.4,23.9Z"/>
  <path class="st113" d="M272,315c-.18,1.12.78,3.24-.99,2.99.85-12.75-1.11-24.72-3.37-37.15-.27-1.46-1.53-3.9.36-4.85,2.46,11.4,5.79,27.56,4,39Z"/>
  <path class="st67" d="M684,660c-13.18,8.38-13.71,18.87-6,32-.05-.05-.57,1.15-1.43.09-3.83-4.72-5.66-15.56-4.36-21.38.59-2.61,4.67-7.4,6.77-9.23.93-.81,3.93-3.71,5.02-1.48Z"/>
  <path class="st23" d="M504,686c-1.96.02-2.78-1.35-4.02-2.48-7.01-6.45-13.72-13.76-20.48-20.52-.46-.46-3.5-2.58-1.5-3,9.25,8.13,17.04,17.7,26,26Z"/>
  <path class="st74" d="M493,735c-.42,2-2.54-1.04-3-1.5-5.33-5.33-10.65-10.68-16.03-15.97l-5.97-8.53c8.59,8.36,16.58,17.47,25,26Z"/>
  <path class="st24" d="M658,344c2.86-7.33,6.02-13.27,5.02-21.53-.69-5.66-4.93-11.07-8.02-15.47,11.55,7.53,11.18,23.71,5.21,34.76-.69,1.27-1.92,1.78-2.21,2.24Z"/>
  <path class="st95" d="M453,455c-1.98-1.9,1.29-7.12,2.29-9.21,4.14-8.67,8.16-18.15,13.71-25.79-5.55,11.48-10.18,23.67-16,35Z"/>
  <path class="st115" d="M740,256c-.7,4.9-1.45,23-3.49,26.01-.97,1.43-9.31,3.1-11.51,3.99.25-.17.5-1.14,1.67-1.79,1.96-1.08,7.97-1.78,8.88-3.17l4.45-26.05c-.05.33.05.67,0,1Z"/>
  <path class="st85" d="M706,332c-.8,10.13-1.12,22.37-7,31l3.72-12.78c.67-4.9.83-9.81,1.31-14.74.19-1.89-1.21-4.04,1.96-3.48Z"/>
  <path class="st45" d="M466,319c-.28.87-.62.86-1,0,1.82-17.67,6.55-31.55,17-46,2.17.61-.25,2.81-.78,3.72-8.65,14.69-13.27,24.91-15.22,42.28Z"/>
  <path class="st103" d="M293,368c14.68,3.46,6.31,19.64-2,26,1.77-2.58,4.53-5.93,5.88-8.62,4.03-8.04,5.05-16.06-6.36-16.38l2.49-1Z"/>
  <path class="st87" d="M884,349c-9.4-7.63-15.6-17.95-6-28-2.79,5.66-4.22,6.69-2.72,13.23,1.15,5.03,5.53,11.02,8.72,14.77Z"/>
  <path class="st81" d="M357,433c7.38-7.94,14.83-15.86,23-23-6.31,7.58-12.87,14.37-20,21.5-.46.46-2.58,3.5-3,1.5Z"/>
  <path class="st65" d="M634,873c-8.13-6.47-14.57-14.85-22-22,.42-2,2.54,1.04,3,1.5,6.79,6.8,12.91,13.39,19,20.5Z"/>
  <path class="st31" d="M613,277c-5.27-7.58-7.88-25.28-6-34,1.92,6.79.87,14.27,2.28,21.23.75,3.73,2.39,9.22,3.72,12.77Z"/>
  <path class="st19" d="M192,474c1.11,2.36,7.07,17.92,5.99,18.99-4.04.65-6.84-2.22-9.99-3.99l9,2.99c-1.37-4.62-3.27-9.08-4.87-13.63-.45-1.28-2.25-3.39-.13-4.36Z"/>
  <path class="st113" d="M267,273l-1.03.55c-1.54-11.98-3.94-16.23-11.97-24.55,10.83,4.5,10.72,14.38,13,24Z"/>
  <path class="st16" d="M522,420c-11.03-5.38-16.51-7.24-28-1,6.74-8.34,21.08-6.08,28,1Z"/>
  <path class="st22" d="M279,393c3.84,1.48-1.32,9.21.01,11,1.08-1.1,2.89-1.34,3.99-2l-6.99,7.99c1.17-5.61,1.93-11.37,2.99-16.99Z"/>
  <path class="st85" d="M707,310c-1.51,6.44-.49,14.49-1,21-3.15.49-1.83-1.27-1.76-3.18.22-6.07.81-12.37,1.71-18.38l1.05.56Z"/>
  <path class="st96" d="M466,319c-1.09,9.69-1.23,19.21-1.01,28.99-1.85-.21-.96-4.56-.99-5.99-.13-6.47-.49-14.23-.04-20.58.09-1.31,1.02-2.21,1.04-2.42h1Z"/>
  <path class="st25" d="M242,307c2.87,7.71-.87,16.58-1,24.49l-1-2.49c.8-7.33,1.73-14.62,2-22Z"/>
  <path class="st68" d="M510,898c-3.4,1.51-10.13,1.43-14,1,3.75-1.81,9.62-1.04,14-1Z"/>
  <path class="st80" d="M508,526c4.23-8.18,14.3-19.03,24.39-17.94,9.3,1.01,33.73,24.38,42.7,31.35,15.04,11.7,35.62,19.24,23.91,43.59-9.57,12.46-26.92,11.29-40.68,7.97-14.75-3.55-29.68-7.85-43.32-14.97-.48-.38-2.18-2.21-3-3-15.31-9.66-12.91-33.58-4-47Z"/>
  <path class="st83" d="M552.37,747.62c-1.25-.71-9.2-6.1-10.03-6.96-10.88-11.3,14.61-14.78,16.42-17.89,3.03-5.21-.17-21.45,1.49-28.02s10.23-8.38,13.86-1.26c.77,1.51.18,2.91.83,4.05,5.56,9.75,26.58,40.06,27.07,48.99.18,3.3-.14,7.94-3.73,9.23-2.39.86-14.77,1.44-17.61,1.15-8.65-.88-20.78-5.01-28.3-9.3Z"/>
  <path class="st42" d="M599,583c-4.39,9.14-17.9,11.74-27.49,10.99-12.7-1-46.83-10.43-56.51-17.99,11.78,4.55,23.67,9.49,36,12.5,16.16,3.96,35.15,7.97,48-5.5Z"/>
  <path class="st48" d="M508,526c-8.56,16.59-9.98,33.53,4,47-.84,2.36-2.72-.23-3.52-.98-12.37-11.68-8.48-29.92-2.99-44.02.2-.51,1.71-4.2,2.51-1.99Z"/>
  <path class="st37" d="M288,323c-1.94-3.81-.87-9.53-1-14,1.83,3.76,1.02,9.61,1,14Z"/>
  <path class="st78" d="M227,286c3.92,21.73-4.36,47.76-5.99,69.51-.43,5.69.27,11.75-.01,17.49-.06,1.11.69,3.26-.99,2.99.88-3.53-1.01-7.43-1.01-10.49,0-25.3,8.02-49.61,6.92-76.93-.07-1.73-2.47-2.91,1.08-2.57Z"/>
  <path class="st39" d="M584.62,317.63c-6.16,9.29-24.67,15.18-35.4,18.09-14.25,3.87-31.57,3.95-22.04-16.04,4.61-9.68,14.79-13.89,20.37-21.63,3.96-5.49,2.81-8.56,9.77-12.23,4.22-2.22,14.5-7.14,18.19-3.85,6,5.35,12.71,19.53,12.52,27.56-.06,2.36-2.08,6.11-3.4,8.1Z"/>
  <path class="st93" d="M552.99,834c.77,2.92-3.67,3.41-4.01,4.7-.45,1.74.31,4.37,0,6.3-1.4-2.38-6.72-1.75-7-2-.76-.7,2.2-7.1,0-8.99,4.95,1.58,6.54,4.97,10.99,0Z"/>
  <path class="st93" d="M534.99,834.01c-1.18-.88-5.29,5.12-4.99-2,3.84.31,8.41,0,10.98,3.49-7.43,7.63-4.97-.73-5.99-1.49Z"/>
  <path class="st93" d="M528.99,833.99c-1.03,1.02-6.03-.12-3.99-2.98,1.65-2.31,5.81,1.17,3.99,2.98Z"/>
  <path class="st93" d="M549,848c-.09-.07-1.13-1.89-1-1.99,4.76,2.39,3.27-1.98,7.99-1l-.48,1.98c-3.58-3.09-2.36,4-6.51,1.02Z"/>
  <path class="st93" d="M535,825c-2.23-.57-4.72-.39-3.99-2.99,5.89-1.07,3.29,2.03,3.99,2.99.11.15,1.44-.14,2,.01-4.02,4.8.11,1.04,0,4.98-4.42.78-4.18-2.67-1.99-4.99Z"/>
  <path class="st108" d="M733,306c-2.15,39.27,4.9,77.84,8.88,116.62.55,5.36,1.31,11.01,1.12,16.38-.04,1.17.76,4.2-.99,3.99-.5-4.72,1.26-15.56-4-17.01-.47-1.94,2.2.04,1.99-1.98-2.45.18-4.38.09-6.72-.79-5.33-2-14.76-13.32-15.25-18.77-.66-7.45,3.06-12.97,8.47-17.45,1.97-1.63,8.07-4.3,8.53-6.49-2.01-25.07-5.64-50.43-3.01-75.53.48.11.83,1,.98,1.01Z"/>
  <path class="st14" d="M141,444c.42,2.1,1.65,6.74-1,5l-2.99-3.99c1.37-.15,2.62-.89,3.99-1.01-.11-.55-1.38-1.77-1-1.99l6.99.51c-.35,3.9-4.12,1.32-5.99,1.49Z"/>
  <path class="st66" d="M577,574c-16.58,3.53-34.41-3.41-49-11-12.93-5.89-11.81-17.39-6.76-29.26,8.16-19.15,20.04-2.99,29.28,4.23,6.67,5.22,13.88,9.6,20.39,14.61,6.9,5.32,18.9,15.07,6.09,21.41Z"/>
  <path class="st26" d="M577,574c-10.53,5.22-28.48-1.35-38.98-5.52-3.15-1.25-7.89-2.83-10.02-5.48,14.75,6.72,32.77,13.09,49,11Z"/>
</svg>