<?xml version="1.0" encoding="UTF-8"?>
<svg id="Layer_1" xmlns="http://www.w3.org/2000/svg" version="1.1" viewBox="0 0 1024 1536">
  <!-- Generator: Adobe Illustrator 29.5.1, SVG Export Plug-In . SVG Version: 2.1.0 Build 141)  -->
  <defs>
    <style>
      .st0 {
        fill: #080606;
      }

      .st1 {
        fill: #090905;
      }

      .st2 {
        fill: #2f2920;
      }

      .st3 {
        fill: #0b0806;
      }

      .st4 {
        fill: #0a0807;
      }

      .st5 {
        fill: #efc587;
      }

      .st6 {
        fill: #263235;
      }

      .st7 {
        fill: #eec386;
      }

      .st8 {
        fill: #fff;
      }

      .st9 {
        fill: #713915;
      }

      .st10 {
        fill: #0c0a07;
      }

      .st11 {
        fill: #312b21;
      }

      .st12 {
        fill: #090806;
      }

      .st13 {
        fill: #eec488;
      }

      .st14 {
        fill: #84633e;
      }

      .st15 {
        fill: #090805;
      }

      .st16 {
        fill: #7a4019;
      }

      .st17 {
        fill: #b8370d;
      }

      .st18 {
        fill: #eec487;
      }

      .st19 {
        fill: #743b16;
      }

      .st20 {
        fill: #753b15;
      }

      .st21 {
        fill: #0a0805;
      }

      .st22 {
        fill: #5d3e27;
      }

      .st23 {
        fill: #794019;
      }

      .st24 {
        fill: #edc386;
      }

      .st25 {
        fill: #302a20;
      }

      .st26 {
        fill: #090706;
      }

      .st27 {
        fill: #0a0906;
      }

      .st28 {
        fill: #fdf2c1;
      }

      .st29 {
        fill: #733a15;
      }

      .st30 {
        fill: #753c16;
      }

      .st31 {
        fill: #0b0906;
      }

      .st32 {
        fill: #743a15;
      }

      .st33 {
        fill: #edc385;
      }

      .st34 {
        fill: #81603b;
      }

      .st35 {
        fill: #723a15;
      }

      .st36 {
        fill: #efc487;
      }

      .st37 {
        fill: #080706;
      }

      .st38 {
        fill: #2f2a20;
      }
    </style>
  </defs>
  <path class="st1" d="M526.57,107c59.92,5.44,123.77,22.69,162.4,72.1,31.52,40.32,28.38,81.82,24.6,130.39-1.06,13.6-5.76,34.26-4.93,46.86.51,7.87,11.12,20.37,15.11,27.98,28.58,54.54-4.55,119.63-46.7,156.64-29.83,26.2-75.18,46.03-114.93,49.07-4.5.34-9.45-.23-14.05-.04-1.21.05-3.72-.75-3.48.99,33.59,7.97,62.81,18.65,89.47,41.03,41.56,34.89,73.65,83.58,112,121.99,3.09,6.82-3.4,16.19-7.31,21.49,26.05,27.98,57.5,67.46,46.35,108.51-10.75,39.54-59.53,40.85-91.5,28.47-22.34-8.65-42.69-24.69-62.01-38.48.51,26.29,3.3,52.38,7.15,78.34.82,5.53,4.19,16.48,3.92,21.17-.32,5.5-7.9,9.75-12.16,12.1l29.03,109.03c.53,10.38-13.94,11.97-14.04,19.84,6.15,28.31,6.66,57.39,10.1,86.01,4.68,38.94,12.23,77.61,14.12,116.88.65,1.89,8.94,2.99,11.58,4.42,6.95,3.78,10.02,13.16,6.29,20.19,3.89.52,8.24,2.85,11.67,4.84,8.91,5.18,23.5,14.52,32.64,18.36,10.83,4.54,21.68,4.33,33.01,10.99,27.29,16.04,43.94,58.6,11.6,78.24-41.57,25.25-130.35,12.04-176.14.3-15.44-3.96-42.01-9.02-47.28-25.72-5.02-15.91,2.7-70.38,13.5-83.49,1.5-1.82,5.03-2.96,4.88-4.81-21.75-66.29-29.2-136.53-47.13-203.94-1.82-4.04-13.32-2.87-18.56-4.44-7.87-2.36-9.64-5.83-11.69-13.31l-4.48-23c-3,8.24-3,29.68-7.95,35.55-5.84,6.93-30.63,7.68-39.58,10.42l-2.3,1.7-56.79,203.84c5.26,7.36,7.7,11.33,6.5,20.87-.3,2.38-2.54,6.74-2.54,7.13,0,2.58,17.49,25.33,20.62,28.02,4.53,3.88,12.67,6.75,17.95,11.05,23.4,19.08,33.57,63.84.07,77.9-38.18,16.03-95.14,5.29-130.28-14.69-11.05-6.28-41.19-26.2-43.47-38.53-4.04-21.89,6.13-59.77,15.3-80.23,3.76-8.4,7.3-17.34,16.48-20.73,3.87-45.35,9.15-89.92,18.29-134.49,5.31-25.9,13.63-50.67,14.67-77.35.05-1.24.55-2.35,1.03-3.45-8.08-2.44-33.94-13.43-35.81-21.73-.29-1.28-.28-2.43-.23-3.74.58-15.82,5.67-39.38,8.32-55.76,3.21-19.84,6.59-39.81,11.4-59.31-.22-2.19-7.03-4.09-8.4-5.76-4.57-5.57,5.93-23.88,5.79-31.08-37.22-22.21-39.13-70.29-38.13-109.18.07-2.62,2.39-6.3-.63-7.28s-5.74-.55-9.69-2.31c-20.88-9.3-13.85-29.95-8.91-46.66,26.2-88.69,49.85-168.92,149.07-195.93,4.72-1.29,21.22-3.73,23.64-5.36,2.62-1.76,6.1-16.55,8.58-19.9-26.38-16.94-49.92-40.45-65.02-68.02-25.98,15.18-57.83,4.57-75.95-17.53-18.32-22.35-21.77-46.94-14.75-74.69.85-3.37,3.89-8.21,3.69-11.22-.4-6.04-9.15-18.67-7.98-26.56l-8.08,8.41c-21.55,15.53-51.91,6.87-64.57-15.48-35.54,12.13-65.01-28.67-51.34-60.92-41.6-6.54-48.46-66.83-19.03-91.51-29.11-35.76,6.22-94.91,49.04-96.49-1.06-19.23,20.94-38.63,37.99-43.51,13.06-3.74,28.85-4.1,41.37,1.59,24.74-40.8,98.39-16.9,101.63,27.92,10.3-.31,21.47,4.46,27.44,13.06,1.17,1.68,4.56,8.85,4.56,10.44v16c0,.19-2.09,1.82-.51,2.49,15.77-7.69,32.68-12.97,49.69-17.31l43.82-7.68c16.9-2.21,34.23-2.54,52-1Z"/>
  <path class="st15" d="M777.56,90c2.61,3.01-7.83,15.72-10.02,18.46-3.01,3.76-20.19,24.03-22.61,25.39-1.39.79-2.71,1.37-4.36,1.13-2.16-1.67,30.79-39.8,33.59-42.9,1.01-1.11,1.48-2.51,3.4-2.09Z"/>
  <path class="st10" d="M171.57,502.99c-.24-2.24-.22-2.63,1.69-3.8,2.39-1.45,12.56-3.93,16.09-4.91,6.09-1.7,24.51-6.8,29.72-6.37,3.88.32,4.95,2.36,1.21,4.31-2.41,1.26-9.29,2.63-12.5,3.5-4.48,1.21-34.76,8.65-36.21,7.28Z"/>
  <path class="st26" d="M726.56,72.01c.76.78-4.84,13.68-5.82,15.67-2.63,5.38-8.77,17.76-11.76,22.24-2.47,3.7-4.97,1.97-4.24-2.18.51-2.92,15.88-30.57,18.38-33.67.95-1.17,1.63-2.42,3.43-2.06Z"/>
  <path class="st4" d="M817.57,229.01c-2.78,4.84-38.51,17.57-39.99,15.98-.21-.23-.33-2.32.62-3.07,1.06-.84,7.55-3.62,9.39-4.41,6.41-2.75,18.05-6.8,24.72-8.28,1.74-.39,3.51-.27,5.27-.22Z"/>
  <path class="st37" d="M802.56,150.01c.26,2.04-1.7,3.26-2.98,4.51-2.98,2.9-30.72,23.92-33.01,21.48-.9-.96.59-3.05,1.47-4.02,3.63-3.94,20.11-14.01,25.61-17.39,1.31-.81,8.18-5.28,8.91-4.58Z"/>
  <path class="st4" d="M209.56,435.01c.17,1.57-3.35,1.63-4.32,1.6-9.32-.23-26.9-5.36-35.49-9.35-1.41-.65-2.73.6-2.18-2.26,14.31.03,28.45,5.77,41.99,10.01Z"/>
  <path class="st3" d="M203.57,557.99c10.21-10.1,23.78-15.73,35.99-22.99,1.5,1.89-5.55,7.33-7.05,8.44-7.82,5.79-19.72,11.81-28.94,14.55Z"/>
  <path class="st31" d="M767.56,596.99c-2.93,2.71-28.62-19.21-29.99-23.98,1.94-1.52,17.08,10.97,19.47,13.02,1.29,1.1,11.88,9.72,10.52,10.97Z"/>
  <path class="st0" d="M814.57,326c.44,2.58-.41,1.79-2.01,2.45-8.32,3.42-22.99,1.24-32,.55-.91-2.06,2.85-2.99,3.5-2.99h30.5Z"/>
  <path class="st3" d="M796.57,540.01c1.07,1.23.05,2.02-1.52,2.03-2.83.02-8.55-2.37-11.46-3.56-3.06-1.24-15.45-6.88-17.39-8.41-.94-.74-.83-2.84-.62-3.07,1.73-1.86,23.55,9.94,26.77,11.73,1.12.62,4.08,1.11,4.22,1.28Z"/>
  <path class="st28" d="M526.57,107c-12.48.3-25.05-.39-37.54-.04-4.77.13-9.1,1.25-14.46,1.04-1.18-.05-4.2.77-3.99-.99,7.86.14,15.65-1.29,23.49-1.45,10.64-.22,22.2.5,32.5,1.44Z"/>
  <path class="st19" d="M402.15,525.42c-13.8-13.51-24.26-27.71-31.76-45.74-1.3-3.13-2.7-12.18-4.83-13.25-4.46-2.23-5.46,6.9-7.53,9.53-3.63,4.59-13.34,8.25-19.07,8.93-49.6,5.85-83.27-58.89-55.37-98.37,5.75-8.14,17.38-16.12,27.62-16.53,1.89-.08,1.21,1.94,1.78,1.91,14.53-.74,28.67,2.91,37.99,15.19,2.83,3.73,5.49,11.66,8.07,13.95,1.44,1.28,2.64.03,3-.99.95-2.75-3.61-9.84-3.32-11.4.23-1.23,5.46-5.5,6.81-7.17,9.39-11.63,18.28-25.38,25.55-38.45,23.26-41.82,40.8-91.67,23.48-139.02,8.63,3.83,16.8,8.51,25.74,11.75,14.36,5.21,32.5,9.27,47.77,10.23,6.76.43,18.01-1.22,23.79.03.65.14,1.09,1.93,2.5,2.65,22.13,11.31,63.71,9.4,85.89-1.5,17.47-8.59,36.22-25.16,39.33-45.17.76-.83,15.23,9.32,16.89,10.6,35.16,27.19,48.3,71.6,47.06,114.94-.22,7.51-2.33,15.57-2.94,22.96-.98,11.85-3.8,28.5,1.13,38.85,4.53,9.52,10.63,16.92,14.61,27.39,19.1,50.31-10.15,103.88-48.81,135.68-75.69,62.27-194.32,62.54-265.35-7.02Z"/>
  <path class="st35" d="M574.5,740.07c.49.45.05,7.96,6.15,11.35,16.69,9.29,39.27-16.19,57.69-18.13,8.3-.88,24.87,1.97,26.85,11.68,1.86,9.14-17.71,6.6-23.04,7.11-50.11,4.79-35.99,67.23-77.2,88.8-7,3.66-17.4,4.38-22.76,7.24-9.6,5.12-26.16,21.88-36.71,29.29-45.34,31.82-140.43,79.83-195.45,59.63-42.07-15.44-41.89-92.15-35.23-128.31,1.31-7.11,14.16-10.88,20.54-12.46,20.66-5.09,55.96-.67,73.56,11.88,7.85,5.6,7.1,14.02,7.67,22.84-15.8-.67-36.2,3.61-48.48,14.02-1.32,1.12-7.86,7.32-6.51,8.98,1.8-1.05,3.32-2.37,5.29-3.2,35.46-15.02,68.08-9.96,104.74-18.26,20.06-4.54,63.99-18.75,79.02-32,11.14-9.82,16.89-37.05,22.76-51.22,1.97-4.75,13.08-27.9,16.19-29.86,1.94-1.23,9.65,3.1,10.49,4.55,1.91,3.28-.79,8.15,4.99,13.01,3.44,2.89,9.07,2.71,9.45,3.06Z"/>
  <path class="st25" d="M393.51,599.04c3.23,9.47,7.94,19.63,13.65,27.87,13.88,20.05,37.43,37.33,60.4,45.6,47.32,17.05,108.74,4.92,106.02-56.02-.07-1.55-1.01-2.93-1-4.49,18.22,5.03,34.61,13.43,49.5,24.99,23.19,18.02,44.86,45.39,64.43,67.55,13.69,15.51,30.86,33.01,43.57,49.44.78,1,1.94,1.27,1.49,3-18.74-2.91-39.76,6.4-53.39,19.11-2.72,2.53-4.17,8.01-8.6,7.89,2.42-6.67-3.52-19.24-2.63-24.55.24-1.4,3.97-2.53,5.03-5.48,1.97-5.44,1.14-12.22-.83-17.53-.43-1.15-2.13-.99-2.57-2.2-1.88-5.16-.85-11.26-4.81-17.94-3.6-6.07-10.52-7.76-12-9.56-.6-.73,0-2.41-.22-2.74-.07-.1-1.46.72-2.31.61-4.53-.6-1.96-2.72-2.76-6.02-1.98-8.26-6.38-14.44-14.39-17.62-1.4-.56-8.94-2.68-10.2-2.81-1.73-.18-2.38,2.38-4.32,1.83.29-7.63-2.22-15.45-5-22.51-.35-.88-.13-3.22-1.99-1.48-2.02,1.89,2.28,18.17.98,21.99-1.95-1.42-1.86-2.58-4.6-3.89-19.3-9.26-41.44,3.15-54.4,17.39-1.31,1.44-1.63,3.89-3.04,4.96-1.88,1.43-9.32,3.2-12.82,5.18-12.5,7.09-24.25,31.05-19.64,44.89.77,2.32,5.19,7.85,5.04,9.54-.38,4.32-9.37,19.81-11.74,25.24-1.49,3.41-2.43,7.93-4.07,11.43-35.39,21.35-76.96,33.28-118.73,36.25,1.69-2.16,5.1-4.65,6.42-7.07,4.05-7.43,6.33-36.16,6.6-45.49.13-4.68-1.94-15.17-1.05-18.73.23-.92,2.17-1.15,2.87-2.31,5.78-9.44,12.25-29.69,13.13-40.91.5-6.46-1.17-12.14-.99-18.48l-5.93,23.47c-3.45,6.38-4.44,13.63-6.8,20.33-.3.84-.2,3.7-2.26,2.18-.5-.37.17-10.47.04-12.53-2.74-43-16.45-90.05-60.02-106.96,9.72-6.25,20.24-13.62,30.98-18,7.83-3.19,14.84-4.05,22.94-5.47Z"/>
  <path class="st38" d="M586,841.55c8.98,9.54,19.05,11.18,28.92,17.6,8.65,5.62,2.76,21.22,5.77,30.4l-2.11,2.44c3.67-.43,1.13,2.28,1.36,4.33,2.76,24.79,4.52,49.7,9.73,74.19-.42,4.93-8.19,7.73-12.41,9.67-9.05,4.16-18.55,6.37-27.92,9.08-25.41,7.34-51.75,13.23-78.26,14.75.49-5.56-1.62-.17-2.74.3-3.02,1.26-37.53.93-43.22.74-28.9-.99-59.12-5.16-87.74-11.34-25.05-5.41-49.75-12.89-73.75-21.75l2.97-15.96c17.78,5.38,37.21,5.24,55.21.73,56.76-14.24,118.9-47.84,166.04-81.7,4.84-3.47,13.46-12.41,18.4-14.86,4.51-2.23,9.73-2.59,14.59-4.41,5.2-1.94,11.93-5.05,15.2-7.76,3.12-2.58,6.46-4.76,9.04-7.99.69-.29.34.93.92,1.55Z"/>
  <path class="st6" d="M509.56,1017c-2.48,8.5-3.93,17.37-6.71,25.78-.57,1.73-3.85,11.81-4.38,12.18-.33.24-1.73-.62-2.33-.42-1.4.47-7.39,3.81-8.29,4.73-3.68,3.79-9.08,25.67-10.53,31.96-.52,2.26-.05,6.09-.78,7.99-.5,1.32-2.53,1.15-2.69,2.17-.13.8.8,2.83.54,4.78-.83,6.22-2.34,12.67-3.46,18.87-19.39,3.33-41.13,5.91-60.86,4.93-26.54-1.32-50.65-7.42-75.02-15.74-.54-.19-4.19.51-5.49-.25l1-2.99-2.6,2.07c-11.49-4.33-23.38-8.4-34.31-14.22l19.92-108.85c17.61,6.72,36.22,11.71,54.62,15.96,31.93,7.39,64.84,12.02,97.87,12.57,14.29.24,29.2-.29,43.49-1.53Z"/>
  <path class="st32" d="M659.53,762.04c2.02,13.61,3.69,28.47.58,42.01-1.58,6.9-7.58,16.54-8.35,21.68-.98,6.54,5.52-.35,7.24-2.78,4.58-6.44,7.4-17.12,8.57-24.94l84.98,26.99c3.72-4.16-14.35-13.64-17.46-15.03-18.82-8.37-42.75-10.67-62.53-16.98l5.52-5.97c10.75-8.22,22.13-16.07,35.41-19.58,1.68-.07,11.5,10.38,13.58,12.54,22.99,23.9,67.65,78.67,40,112.03-27.26,32.88-82.07,5.79-109.83-13.2-15.76-10.78-27.71-24.1-44.01-33.99-3.8-2.3-19.48-8.24-18.22-13.91.36-1.6,6.26-9.96,7.72-13.24,3.43-7.72,5.25-16.65,8.63-24.37,2.69-6.14,7.26-11.81,9.21-18.3,1.45-1.41,1.81.09,1.99,1.48.69,5.46-.17,17.22-1.26,22.76-.86,4.38-3.81,8.35-3.25,12.75,6.67-7.66,9.59-17.5,10.49-27.51.4-4.49-.59-9.79-.04-14.04,1.45-11,23.2-6.52,31.01-8.41Z"/>
  <path class="st2" d="M360.01,642.55c25.46,23.97,35.77,80.24,31.65,114.02-.28,2.27-1.1-.72-1.08,4.9.06,15.63-1.71,30.99-3.02,46.52-2.14-1.47-4.71-4.59-6.75-5.96-7.51-5.07-19.75-10.89-28.27-14.29-13.4-5.36-30.69-7.86-45.52-9.73-.43-.05-.34,1.82-1.11,2.01-6.38,1.53-22.18-.78-29.76,2.07l-27.59,9.9c10.93-28.61,19.26-58.29,30.81-86.68,4.75-11.66,10.16-22.43,16.11-33.1,1.16-2.08,1.81-6.55,3.61-8.22,1.02-.94,2.88-.77,3.26-1.2.53-.61.36-3.43,1.21-5.1,1.93-3.82,12.53-15.55,16.05-19.2,1.86-1.93,11.46-10.69,12.93-11.08,1.72-.47,6.25,1.31,8.04,2.09,6.83,2.97,14.07,7.99,19.44,13.05Z"/>
  <path class="st29" d="M634.56,1118l19.88,172.87c-26.13,9.73-54.61,14.62-82.18,7.94l-35.69-161.81c25.59-.21,51.99-3.32,76.44-11.06,2.85-.9,20.78-8.79,21.55-7.94Z"/>
  <path class="st29" d="M426.56,1144l-42.9,156.36c-26.91,13.11-56.86,8.63-83.98-1.48,1.39-19.37,3.93-38.91,7.16-58.11,6.3-37.42,18.09-73.75,20.73-111.77,31.49,10.96,65.46,19.02,98.99,15Z"/>
  <path class="st6" d="M611.86,1110.28c-5.94,1.99-13.21,5.2-19.9,6.62-8.49,1.81-55.41,8.92-60.22,5.84-.52-.33.28-1.75-.68-1.76s-.16,1.43-.67,1.76c-1,.64-22.74-1.15-23.64-1.93l-8.18-47.34c-.11-2.11-.27-6.16.91-7.83.49-.7,13.05-7.5,14.87-8.37,20.24-9.68,41.74-16.07,61.13-28.87,1.59-1.05,2.7-2.64,4.08-3.92l-74.99,28.5,11.5-34.98c1.13-1.19,2.8-1.32,4.27-1.73,14.06-3.89,34.35-4.53,49.45-7.55,9.36-1.88,20.71-5.12,28.55-7.63,7.21-2.31,14.52-4.46,21.21-8.1l26.82,99.36c-.95,5.05-26.36,15.93-31.79,17.92-.85.31-1.82-.3-2.72,0Z"/>
  <path class="st14" d="M635.56,1369.04c-8.59,18.26,3.44,28.45,21,19.97-1.26,6.83,3.83,12.32,10.49,13.02,11.81,1.24,16.17-10.06,23.51-16.54,7.21-6.36,15.43-9.89,23.95-14.04l6.05,2.54c-23.11,8.42-41.31,32.08-41.99,57.02-22.18-1.5-44.26-4.77-66.01-9.5-7.46-1.62-47.01-10.96-49.77-15.71-1.72-6.08,8.75-50.24,11.31-50.8,10.7,6.35,24.5,9.87,36.96,8.99,3.44-.24,11.8-2.92,14.06-2.58s6.46,8.19,10.45,7.64Z"/>
  <path class="st9" d="M435.1,571.45c26.22,23,60.12,42.94,96.47,36.54.61.61-1.2,11.86,1.54,15,1.01,1.16,3.79.4,3.48,3,1.07-.1,2.51-4.04,2.69-4.79.68-2.83.39-17.13,6.2-13.1.45.31,2.95,8.94,3.1,10.39,2.61,25.56-29.8,33.2-49.49,31.49-26.17-2.27-69.5-27.79-78.55-53.47-1.81-5.14.66-2.88,2.35-5.8,3.64-6.31,5.17-15.09,8.18-21.72.99-2.18,2.7,1.29,4.04,2.46Z"/>
  <path class="st34" d="M374.07,1407c-4.59.52-14.36,3.4-19.01,4.99-14.32,4.89-32.25,18.18-34.49,34.02-3.08,3.08-40.65-20.24-45.45-24.05-9.7-7.69-13.01-8.09-10.25-21.16,2.58-12.2,9.72-32.18,15.72-43.08.67-1.22,2.69.32,1.49-3.73,2.77.4,2.8,3.64,4.56,5.44,3.19,3.27,14.05,7.21,18.66,8.34,1.86.46,5.15-.21,6.12.39.36.22,4.26,6.93,4.15,7.33-.18.7-2.29,1.3-3.02,2.27-7.1,9.37-6.79,21.79,7.01,22.25-3.64,8.43,3.23,16.9,12.23,15.8,5.88-.72,16.88-8.35,23.5-10.58,10.42-3.51,22.8-4.05,33.59-1.99,2.86.55,2.9,2.38,4.68,4.27-.76,1.64-2.33-.51-2.49-.51-5.27,0-11.98-.57-17,0Z"/>
  <path class="st5" d="M433.57,1450.98c-33.95,15.94-74.1,11.05-108.03-2.52,11.2-24,37.72-36.02,63.57-34.51,22.71,1.33,38.52,15.39,44.46,37.02Z"/>
  <path class="st7" d="M780.56,1415c5.12,16.4-1.9,24.59-16.13,31.36-42.62,20.27-130.96,4.73-175.63-9.09-13.2-4.08-29.37-6.68-26.74-24.26,28.42,14.67,63.35,20.46,95.13,23.87,40.48,4.35,90.64,5.84,123.37-21.88Z"/>
  <path class="st7" d="M683.57,1430.99c8.57-35.33,33.71-66.1,72.67-45.16,5.66,3.04,20.59,15.45,21.17,21.85.27,3.01-11.11,9.51-13.81,10.84-24.67,12.14-53.04,13.4-80.03,12.46Z"/>
  <path class="st11" d="M411.45,595.12c.51.43,3.87,9.78,5.29,12.2,20.73,35.21,73.47,63.53,113.83,47.98,19.97-7.69,32.75-26.55,22.99-47.29,4.2,2.18,12.31-.01,14.78,4.71,1.19,2.28,1.48,8.17,1.27,10.84-.26,3.42-1.74,12.01-2.68,15.52-3.86,14.41-17.43,26.68-31.39,31.41-8.38,2.84-28.03,6.17-36.43,4.59-1.09-.21-.43-2.25-.56-3.06-1.66-.31-1,2.49-2.41,2.77-.5.1-8.67-1.44-9.96-1.72-1.21-.27-.51-2.18-.62-3.05-1.82-.39-.63,1.68-.99,1.99-1.96,1.67-2.03-1.92-2.43-1.91-.65.01-1.84,1.12-2.98,1-.29-.03-2.21-.85-4.6-1.46-15.37-3.93-55.91-29.29-62.53-43.67-.52-1.13.53-2.49.34-2.8-.15-.25-2.68-1.06-3.83-2.63-2.17-2.97-12.65-21.05-10.94-23.45,1.46-2.05,6.17-.02,7.39-.05.6-.01.45-1.81,1.24-2.01.91-.23,4.78-.26,5.21.11Z"/>
  <path class="st7" d="M261.57,1419l27.69,21.81c33.02,21.41,91.24,35.63,129.31,23.68,5.82-1.83,11.26-3.84,15.51-8.49,5.2,25.09-26.15,28.85-44.01,29.99-39.08,2.48-82.39-10.62-112.96-35.02-3.08-2.46-15.53-13.18-15.53-16.47v-15.5Z"/>
  <path class="st36" d="M656.57,1321c-14.59,4.02-34.16,14.56-32.99,32.01-9.45-.17-33.49,1.54-39.87-6.64-5.73-7.34-8.1-28.63-11.14-37.86,27.71,5.1,57,2.54,83-8.52-.31,1,1.01,2.13,1.01,2.51v18.5Z"/>
  <path class="st36" d="M380.57,1312.01l-7.01,29.99c-19.92-6.85-56.78-8.11-63.57,17.06-2.97.43-15.36-5.14-16.26-7.73l4.85-43.33c25.98,9.61,55.47,14.79,81.99,4.01Z"/>
  <path class="st30" d="M659.56,729c-15.02-6.18-28.63-5.11-42.67,2.83-7.56,4.28-24.17,19.52-33.3,12.65-4.14-3.12-.14-7.34,2.46-10.49,7.3-8.84,27.72-22.48,39.12-23.88,14.16-1.74,32.05,2.61,34.38,18.88Z"/>
  <path class="st20" d="M636.57,700c-3.38.7-7.26-.72-10.33-.61-8.7.32-24.46,8.8-31.58,14.21-4.7,3.57-13.84,15.39-17.11,16.89-6.53,3-9.55-2.31-8.23-8.25,4.26-19.12,37.24-36.96,55.68-34.17,5.57.84,12.37,5.69,11.57,11.93Z"/>
  <path class="st23" d="M522.56,216.01l1.01,1.98c-19.84.51-38.45,1.43-58.21-2.28-14.16-2.66-32.26-8.45-45.17-14.83-2.74-1.35-6.61-3.56-8.62-5.87,9.72,3.78,18.95,9.5,28.99,12.5,27.24,8.13,68.4,7.83,95.27-1.75,20.03-7.14,34.5-19.62,47.73-35.76-8.99,26.29-34.66,41.77-61,46.01Z"/>
  <path class="st7" d="M373.23,1356.34c1.9,1.89,5.61,9.86,1.87,10.5-.75.13-12.18-2.66-15.04-2.83-3.34-.2-7.68-.29-10.97,0-6.11.55-20.9,7.01-24.05,6.6-3.75-.5-3.94-6.75-3.02-9.67,4.34-13.69,41.96-13.81,51.21-4.6Z"/>
  <path class="st18" d="M677.52,1340.96c-.44.46-9.52,2.12-12.18,3.31-5.77,2.58-22.57,16.9-27.11,15.63-1.1-.31-1.86-1.79-2.2-2.85-6.2-19.02,35.91-33.02,41.05-22.05.53,1.13.93,5.46.45,5.96Z"/>
  <path class="st19" d="M602.56,682.01l-16.31,8.17c-3.07,2.72-7.21,5.11-10.15,7.85s-11.55,15.06-12.56,15.51c-4.51,2.02-9.43-5.09-7.43-10.5,5.14-13.89,32.23-28.77,46.45-21.03Z"/>
  <path class="st16" d="M347.57,151.99c-26.48,10.54-47.08,33.61-62.41,57.1l-12.57,22.91c3.69-13.04,9.92-26.8,17.18-38.31,9.48-15.03,29.91-37.19,46.84-43.16,3.28-1.16,12.38-4.47,10.97,1.46Z"/>
  <path class="st18" d="M689.57,1353.99c-5.09.53-9.57,4.01-13.72,6.79-6.29,4.22-23.32,20.64-28.87,21.2-11.17,1.14,1.29-14.11,4.72-17.31,8.31-7.75,27.81-21.3,37.88-10.68Z"/>
  <path class="st24" d="M357.07,1380c-5.98.67-36.48,13.06-38.5,11-.5-11.23,17.88-15.27,26.79-16.71,10.65-1.72,23.56-4.13,31.2,5.22.26,3.06-1.08.49-1.49.49-5.58,0-12.69-.6-18,0Z"/>
  <path class="st13" d="M709.56,1365.01l-8.3,4.2c-1.64.27-2.52-.1-4.17.72-8.63,4.32-18.25,20.23-28.03,23.96-11-3.1,1.1-15.85,6.02-19.87,4.67-3.82,18.62-11.03,24.36-11.52,2.79-.23,7.08,2.34,10.11,2.51Z"/>
  <path class="st33" d="M386.56,1395.99c-6.31,1.39-12.46-2.17-18.33-1.91-13.27.58-27.01,8.58-39.66,11.91-1.04-5.48,2.69-7.33,6.69-9.8,9.75-5.99,22.47-8.68,33.84-8.24,6.64.26,15.56.53,17.45,8.04Z"/>
  <path class="st30" d="M527.56,747c-1.36,1.78-1.77-.44-2.12-1.44-4.12-11.57,5.2-28.96,15.6-34.59,1.94-1.05,7.48-3.67,5.7.68-1.56,3.82-5.83,7.17-8.2,10.82-2.97,4.57-7.74,12.41-9.71,17.29-.96,2.36-1.04,6.95-1.27,7.24Z"/>
  <path class="st22" d="M260.57,335.5c.04.98,2.87,2.95-.99,2.49-.94-17.06-1.32-34.01,1-50.99,1.72-.02,1.14,4.45,1.06,5.57-.11,1.65-1.07,3.56-1.07,3.93,0,12.81-.58,26.29,0,39Z"/>
  <path class="st1" d="M499.42,441.15c.71.45,1.3,3.97,1,5.13-.68,2.64-4.11,2.69-4.85,4.71,23.23,7.67,46.8,14.78,71.45,16.05,20.1,1.04,48.24-.29,66.78-8.31,4.16-1.8,19.62-13.54,18.86-1.24-.44,7.07-11.7,12.19-17.39,14.73-1.42.63-4.01.53-4.52.96-1.13.95-9.06,22.8-11.37,27.13-39.79,74.72-111.44,61.15-132.33-17.31-.97-3.63-3.65-22.2-4.5-23.01-1.89-1.78-2.55,3.38-4.59,3.77-.88.17-6.45-1.01-6.96-1.7-2.77-3.81,2.68-10.22,5.64-12.5,3.14-2.43,19.69-10.38,22.78-8.42Z"/>
  <path class="st27" d="M480.02,311.42c12.38-13.93,30.15-19.86,47.92-12.29,46.1,19.64,39.91,117.33-14.89,120.87-53.1,3.43-62.27-75.7-33.03-108.59Z"/>
  <path class="st15" d="M603.57,428c-1.95,10.54-20.65,7.48-25.99.49-10.59-13.89,1.81-27.08,13.08-34.9,7.15-4.96,13.82-8.91,22.91-8.6-13.74-19.64-5.98-50.08,4.82-69.67,16.73-30.35,49.87-33.54,63.2,1.16,11.56,30.09,3.86,93.38-41.02,85.53,7.5,13.58-8.41,36.01-23.52,33-2.28-.45-2.25-1.85-3.48-3.52,12.15-3.7,25.97-19.67,14.99-31.7-4.68-5.13-15.41-7.01-22.03-5.31-8.51,2.18-31.14,20.14-23.55,29.61.6.75,5.64,3.92,6.08,3.92h14.5Z"/>
  <path class="st12" d="M455.71,289.85c-.78-1.23-.02-6.99.3-8.9,3.08-18.18,24.03-34.87,42.06-35.93,8.21-.48,23.85,2.52,26.09,11.96,1.43,6.05-11.45,3.39-14.73,3.62-14.74,1.03-26.74,4.59-36.89,15.88-3.2,3.56-8.23,13.62-12.7,14.35-.94.15-3.78-.42-4.13-.98Z"/>
  <path class="st21" d="M328.83,453.8c.91.85,3.51-.99,2.73,2.2-22.23.37-25.63-37.04-4-41.49-5.32-6.37-16.76-10.93-24.38-6.39-3.06,1.83-5.07,8.32-7.62,9.39-3.33,1.41-1.96-9.35-.77-11.78.91-1.86,6.17-7.02,8.06-7.94,16.27-7.94,39.42,11.77,45.44,25.98.51,1.2,3.85,9.3.77,9.21-1.17-.04-11.74-12.31-20.05-9.06s-6.71,14.04-4.5,20.63c.39,1.18,3.94,8.9,4.31,9.25Z"/>
  <path class="st21" d="M681.56,272c-1.8.21-3,.03-4.56-.94-2.02-1.25-8.52-10.3-11.91-13.09-4.99-4.11-13.51-8.55-20.05-8.98-6.28-.41-24.59,6.87-19.95-5.95,3.27-9.02,18.52-11.21,26.73-9.82,15.28,2.59,32.03,22.75,29.73,38.77Z"/>
  <path class="st15" d="M561.22,913.65c-21.77,18.01-82.65,52.31-110.3,53.28-3.12.11-6.14-1.51-9.35-.94l41.67-16.82c30.24-12.85,53.84-25.74,79.85-45.15,7.04-5.25,14.37-10.21,20.98-16.02,1.64,1.01-.35,2.21-1,3-6.33,7.67-12.13,12.97-19.57,19.46-1.05.91-1.47,2.5-2.29,3.18Z"/>
  <path class="st15" d="M423.31,1031.33c13.98,3.53,37.63,10.83,50.17,19.26,8.56,5.76,1.01,5.74-5.01,3.8-14.47-4.68-31.55-11.89-44.99-18.81-.93-.48-5.53-.97-6.9-2.59-2.1-2.48,5.66-1.93,6.74-1.65Z"/>
  <path class="st17" d="M511.2,494.33c10.93-.71,41.51,16.07,49.42,24.13,5.69,5.79,15.19,20.13,1.45,21.54-18.47,1.9-37.1-8.55-48.47-22.52-4.45-5.46-16.4-22.25-2.39-23.15Z"/>
  <path class="st7" d="M607.57,477.01c-13.4,21.7-44.14,20.55-65.99,14.48-14.56-4.04-28.95-12.58-37.01-25.48,32.77,12.04,68.37,16.36,103,11Z"/>
  <path class="st8" d="M551.57,369l-2.49-12.01c-8.08-29-35.89-28.23-44.52.49-4.92,16.38-4,34.4,6.99,48.04l8.02,6.47c-44.94,4.42-59.22-51.52-39.41-83.91,19.94-32.6,58.8-22.95,68.7,12.14.52,1.85,2.72,10.19,2.72,11.28v17.5Z"/>
  <path class="st8" d="M618.57,378c-3.45-3.33-4.69-10.86-5.04-15.46-1.41-18.62,9.43-57.11,31.53-59.54,36.35-3.99,38.34,56.59,25.7,78.69-4.18,7.31-14.11,16.59-23.19,13.81,16.4-11.92,18.8-37.42,9.54-54.55-8.59-15.88-27.05-10.32-33.73,4.35-1.43,3.14-4.81,14.21-4.81,17.19v15.5Z"/>
</svg>