<?xml version="1.0" encoding="UTF-8"?>
<svg id="Layer_1" xmlns="http://www.w3.org/2000/svg" version="1.1" viewBox="0 0 1024 1536">
  <!-- Generator: Adobe Illustrator 29.5.1, SVG Export Plug-In . SVG Version: 2.1.0 Build 141)  -->
  <defs>
    <style>
      .st0 {
        fill: #e9be7f;
      }

      .st1 {
        fill: #80441a;
      }

      .st2 {
        fill: #7c4116;
      }

      .st3 {
        fill: #eac081;
      }

      .st4 {
        fill: #0d0c08;
      }

      .st5 {
        fill: #fff;
      }

      .st6 {
        fill: #090907;
      }

      .st7 {
        fill: #ceb081;
      }

      .st8 {
        fill: #eabf81;
      }

      .st9 {
        fill: #eabf80;
      }

      .st10 {
        fill: #0e0c08;
      }

      .st11 {
        fill: #090908;
      }

      .st12 {
        fill: #213337;
      }

      .st13 {
        fill: #7b4017;
      }

      .st14 {
        fill: #0f0e09;
      }

      .st15 {
        fill: #eac082;
      }

      .st16 {
        fill: #7d633d;
      }

      .st17 {
        fill: #213437;
      }

      .st18 {
        fill: #7a4017;
      }

      .st19 {
        fill: #0f0d08;
      }

      .st20 {
        fill: #7a613b;
      }

      .st21 {
        fill: #ebc182;
      }

      .st22 {
        fill: #2a261d;
      }

      .st23 {
        fill: #7c4117;
      }

      .st24 {
        fill: #080707;
      }

      .st25 {
        fill: #0b0b08;
      }

      .st26 {
        fill: #7b4117;
      }

      .st27 {
        fill: #0d0b07;
      }
    </style>
  </defs>
  <path class="st4" d="M705.92,901.42c.8-3,1.92-13.38,2.56-14.44.61-1.03,16.72-10.42,19.99-13.01,24.89-19.65,71.3-68,76.29-99.71,6.72-42.67-58.44-87.88-87.86-110.66-20.17-15.61-42.51-33.47-63.76-47.24-29.61-19.18-64.4-31.45-100.13-27.37l2.51-2.98c97.89-1.92,212.1-100.12,169.25-204.28-2.74-6.66-15.08-23.87-15.72-27.28-2.16-11.65,3.96-32.59,4.94-44.97,1.71-21.63,3.2-59.32-2.49-79.48-33.37-118.12-186.21-134.23-287.51-108.52-14.34,3.64-28.62,8.19-41.98,14.51,3.28-21.62-9.74-38.05-30.94-41.06-6.65-39.08-57.95-57.29-90.39-36.76-3.23,2.04-12.53,11.69-14.22,11.86-2.24.22-11.79-4.43-16.07-4.93-31.72-3.71-61.27,16.65-61.39,49.9-45.01.13-79.37,50.43-48.04,88.54.51,1.45-2.83,2.58-4.49,4.44-26.14,29.35-22.44,78.56,18.53,91.03-4.89,19.52-1.08,37.85,14.47,51.01,8.93,7.56,16.26,10.25,28.07,10.01,3.2-.07,6.49-1.88,9.76-.85,1.87.59,5.78,7.31,7.66,9.34,18.41,19.85,44.01,15.75,65.36,3.31,2.11-1.23,3.87-4.89,4.66-.34.59,3.4,2.2,13.11,2.05,15.96-.37,6.93-6.76,19.43-7.77,28.31-3.38,29.73,18.75,66.87,46.77,77.68,15.89,6.13,35.19,4.92,49.46-4.44,14.43,31.14,37.94,54.6,67.48,71.55l-10.97,19.95c-42.54,2.18-77.89,18.46-112.93,41.07-34.84,22.48-67.81,48.69-98.57,76.43-.89,1.66-.78,3.29,0,4.97,1.16,2.51,5.17,2.49,4.47,4.49-21.1,21.48-56.14,54.17-52.97,87.02,3.33,34.45,48,71.16,74.08,90.92,6.19,4.69,23.76,14.63,27.61,18.88,2.68,2.97,4.47,12.47,6.59,16.91,2.53,5.3,7.25,11.44,11.7,15.3,1.75,1.52,9.24,5.98,9.54,6.47,1.45,2.3-.6,5.78-.61,8.51-.05,15.58,17.86,26.24,32.07,24.51l-21.97,98.43c.36,5.79,10.57,11.99,15.3,14.74,2.29,1.33,13.77,6.13,14.21,6.78.92,1.36.52,3.8.36,5.43-14.35,64.22-28.59,128.43-34.9,194.12-.61,6.4-.28,31.08-3.25,34.25-.92.98-5.66,2.81-7.77,4.72-17.59,15.85-31.07,69.01-26.54,91.58,4.99,24.85,54.93,53.2,77.6,60.4,30.61,9.72,85.82,14.81,112.46-6.46,18.43-14.72,11.42-53.41-2.08-69.92-12.04-14.72-39.75-23.5-49.43-40.56-3.44-6.07,1.16-10.08-.43-17.58-1.11-5.22-7.54-11.7-7.54-12.44,0-.28,2.69-2.72,3.49-4.49,2.3-5.07,4.23-12.5,5.99-18.01,21.05-66.06,35.76-134.21,56.65-200.35,1.86-3.09,8.06-2.01,11.1-2.9,4.8-1.39,14.52-5.52,17.21-9.79,5.04-14.33,9.15-28.94,13.52-43.49.43-1.43-.62-1.77,2.01-1.48l9.98,45.26c3.44,4.55,17.03,4.35,22.55,5.12l1.31,1.27c5.82,32.87,12.99,65.47,19.92,98.11,5.59,26.34,10.39,53.01,16.74,79.26,3.3,13.62,8,27.11,11.36,40.75.63,3.02-3.06,3.59-4.9,5.69-14.09,16.1-19.74,61.24-15.51,81.61,3.74,18.04,22.51,22.5,38.02,27.98,48.98,17.27,143.11,31.11,189.46,4.38,24.31-14.02,21.66-39.29,7.92-60.76-14.04-21.94-30.92-21.73-52.83-28.17-15.65-4.6-29.01-14.25-43.13-21.91-1-.54-2.77-.5-2.88-.6-.24-.22,1.2-3.87,1.03-6.46-.74-11.39-8.87-17.89-20-17.55-1.26-17.83-1.69-36.01-4.89-53.6-6.23-56.77-11.63-113.85-22.95-169.79,8.29-6.6,19.35-8.51,18.82-21.07-.58-13.66-6.54-35.36-9.45-49.55-3.76-18.31-9.15-36.47-11.53-54.96,19.2,7.99,51.23-4.66,53.74-26.77.38-3.34-.91-6.79-.56-8.5.85-4.18,12.09-17.37,14.73-27.31ZM331.75,840.2c-4.88,2.29-10.57,1.85-15.15-1-5.01-3.11-7.75-8.86-11.84-12.94-10.37-10.36-21.35-20.1-31.74-30.44-1.86-1.85-1.78-4.12-.73-5.86-.05-.99.16-2,.61-2.85.49-.93,1.24-1.58,2.11-1.96.84-2.07,2.83-3.45,5.52-2.32,9.57,4,18.87,4.03,28.44,0,9-3.79,17.05-9.66,25.35-14.73,3.24-1.99,7.54.58,7.52,4.32-.07,13.65-2.06,26.99-.27,40.57,1.39,10.56,1.28,21.99-9.84,27.22ZM678.81,798.17c-4.08,4.88-8.59,9.35-12.71,14.19-7.17,8.41-13.49,17.57-24.45,21.19-3.16,1.04-6.27-1.72-6.33-4.82-.22-11.52-3.58-22.72-4.07-34.27-.48-11.37-.63-22.82-2.22-34.1-.27-.74-.33-1.53-.22-2.31.23-5.07,7.54-7.17,9.36-2.78,7.72,4.19,16.07,7.12,23.14,12.47,8.14,6.16,15.12,12.66,25.51,6.97,4.9-2.68,10.27,3.88,6.06,7.85-5.11,4.83-9.57,10.21-14.07,15.6Z"/>
  <path class="st6" d="M826,209.01c.27.2-1.55,2.88-2.08,3.41-5.43,5.37-16.76,12.14-23.39,17.61-1.96,1.61-14.71,14.69-16.52,12.97.47-2.4,2.91-5.15,4.48-7.01,4.2-4.96,27.15-25.59,32.24-26.76,1.74-.4,3.52-.26,5.27-.22Z"/>
  <path class="st24" d="M835,287.01c.51.48.07,3.64-1.72,3.78l-43.28,11.21c-.59-2.2,2.85-3.41,4.32-4.16,5.13-2.59,37.53-13.81,40.67-10.83Z"/>
  <path class="st11" d="M830,380.01c-.33,4.68-11.72,3.17-15.54,3.04-6.47-.23-16.32-1.17-22.67-2.33-2.15-.39-5.84-.38-6.78-2.7,14.98-3.21,30.04.53,44.99,1.99Z"/>
  <path class="st22" d="M419.39,610.62c25.25,30.19,78.82,50.72,115.85,32.11,7.66-3.85,15.52-12.84,18.04-20.95,1.66-5.34,1.16-15.95,3.47-19.51,2.81-4.33,2.52,2.33,3.33,3.94.53,1.05,1.67.79,2.44,2.72,2.92,7.32,2.64,28.26-1.09,35.04-.38.68-1.85.98-2.43,1.8-10.61,15.03-30.5,19.35-48.5,19.66-38.8.68-79.24-20.55-100.13-53.31-2.74-4.3-3.31-10.43-8.37-12.12.74,1.93.32,4.2.71,5.97.3,1.35,3.46,11.44,3.88,12.08.89,1.35,2.72,1.52,3.14,2.21,26.12,42.32,106.47,71.52,149.17,36.15,17.92-14.84,11.68-28.92,10.25-48.07-.48-6.44,1.15-3.95,3.87-4.95.91-.34,1.51-2,2.47-2.1.44-.05,1.3,1.21,1.94,1.2,5.64-.08,19.23,1.03,24.29,3.17,4.33,1.83,3.03.85,7.71,1.94,11.86,2.77,31.77,14.07,41.08,21.37,3.27,2.57,5.93,5.36,9.87,8.17,1.88,1.34,1.37,4.03,5.6,2.86l-.99,2.99c4.45-2.35,2.51,1.33,5,2.56,1.23.6,2.72-.9,4.54.33,1.44.97,4.25,5.49,6.24,7.12,13.94,11.41,28.79,20.23,42.7,32.03,5.77,4.89,12.03,8.8,8.43,17.19-7.07,16.49-20.67,32.81-33.9,45.3-4.71,4.44-12.13,8.81-16.6,13.41-1.86,1.91-.63,5.35-5.45,4.53-11.31-9.91-24.23-17.67-36.31-26.64-2.72-2.02-5.02-5.17-9.18-5.75.21-7.83-1.43-15.76-1.53-23.57-.18-13.74,4.5-33.45,2.05-45.98-.31-1.6-1.4-3.02-2.97-3.52,1.01,2.39-1.85,3.17-1.98,3.71-.84,3.69.71,19.53-1.04,21.29l-1.51-.99c-1.95-11.21-3.36-23.05-7.17-33.81-.45-1.28-.67-2.92-2.3-3.19.22,5.81,1.51,11.75,1.98,17.51,2.09,25.77,2.94,51.16,4.29,76.95.14,2.71,1.89,8.33,1.77,9.99-.05.63-1.97.52-1.96.97.76,43.78,6.78,88.11,6.01,132.16,0,.32.75.19.93,4.97.42,11.16,2.5,22.61,3.51,33.42.84,8.98,1,18.08,2.48,27.03-13.07,2.31-25.76,6.19-38.79,8.71-17.27,3.34-35.2,5.84-52.6,6.58-1.11.05-2.26,1.46-3.12,1.41-.94-.05-1.87-2.09-2.47-1.68-.09.06.24,1.89-.63,2.06-1.41.27-3.07-.93-4.1-.81-22.05,2.66-42.03,4.44-64.75,3.45-29.82-1.29-62.45-5.52-90.89-11.13-5.36-1.06-13.6-1.92-8.34-9.29.47-.66,2.04-.91,2.67-1.78,4.59-6.3,5.36-6.92,10.73-11.82,1.85-1.69,14.15-21.69,13.28-22.69-.14-.16-1.92.22-1.92-.43-.01-1.93,1.64-5.96,1.52-9.18-.42-11.18-3.97-20.84-11.16-29.33-1.54-1.82-5.53-4.16-5.95-5.03-.85-1.76,2.35-4.66,2.44-6.53.27-5.25-10.53-16.38-14.95-18.99-2.39-1.41-8.25-2.35-9.45-4.55s.95-23.98,1.12-28.65c.06-1.58-.73-3.12-.65-4.78.13-2.75,1.9-6.94,1.93-9.14,0-.47-1.93-.39-1.95-.93-.03-.71.87-13.16.99-13.86.14-.74,1.91-.53,1.91-1.08-.01-3.88-1.32-10.07-.79-13.91.39-2.81,2.95-5.94,2.92-7.15-.03-1.34-1.7-2.27-1.74-3.78-.06-2.25,2.08-5.33.8-8.07.26-1.1,16.32-9.93,18.96-12.14,2.93-2.45,7.13-6.56,9.86-9.19s12.68-12.27,12.13-14.8c-.9-4.1-1.96.17-2.11.31-.42.38-2.44-1.25-2.88-.84-.16.15.12,2.29-1.47,4.05s-16.59,11.91-17.54,10.96c1.03-4.12,3.53-9.06,7.11-11.43.95-.63,2.79-.47,2.89-.58.49-.52-.78-3.45-1.71-4.07-4.49-3.02-12.28,9.62-14.75,12.15-8.87,9.09-21.32,19.52-32.2,27.78-7.52,5.71-16.78,9.93-23.85,15.13-1.76,1.3-13.96,13.78-15.49,12.02,1.35-6.87-.1-10.86-4.01-16.49-5.05-7.28-12.05-14.91-17.53-21.44-9.61-11.45-18.01-20.66-29.82-28.19-8.56-5.46-16.55-11.86-25.64-16.37,13.23-12.58,27.42-24.07,42.08-34.92,33.41-24.72,81.41-56.9,122.7-64.3,5.47-.98,20.07-3.82,24.26.16,1.85,1.76,2.46,5.83,3.92,8.08,1.54,2.39,3.59,4.9,5.42,7.09Z"/>
  <path class="st23" d="M671.35,205.65c26.89,28.33,33.47,73.75,30.64,111.84-.91,12.22-7.07,34.33-2.16,45.19,2.27,5.01,7.51,11.23,10.35,16.65,44.37,84.67-35.26,167.49-114.17,188.18-74.03,19.41-191.5-1.88-227.18-77.83-1.62-3.45-4.59-15.62-7.34-16.67-1.47-.56-2.32,2.58-4.13,3.85-37.07,25.94-82.95-8.22-86.34-48.37-2.69-31.9,7.96-50.88,41.49-52.48,20.75-.99,31.63,9.38,44.48,23.99.84-3.14-3.34-9.68-2.45-12.05.3-.81,8.84-9.4,10.44-11.48,19.38-25.35,38.83-55.56,47.53-86.47,7.94-28.22,9.35-63.31-6.5-88.99,6.9,3.1,13.36,7.16,20.32,10.17,29.21,12.63,63.36,17.67,95.17,15.81,13.35-.78,25.91-3.94,38.51-7.98-7.94,7.88-17.95,10.2-28,14.01,2.97,5.33,10.88,6.58,16.46,7.02,35.94,2.81,87.26-16.34,93.54-56.03,11.67,4.93,20.82,12.67,29.35,21.65Z"/>
  <path class="st13" d="M248.35,730.65c13.64,11.65,25.3,22.2,33.58,38.73-5.43,6.33-14.07,9.12-19.5,14.67-4.91.15-18.01-8.56-22.94-10.03-1.4-.42-1.78.1-1.47,1.47,10.76,11.88,23.81,21.57,34.5,33.5,11.95,13.34,22.35,30.32,34.98,43.02,1.91,1.92,9.01,8.19,11.03,8.98,4.17,1.62-2.51-6.09-1.51-6.98,8.69,1.53,16.58-3.02,24.86-3.42,10.17-.5,25.23,3.56,26.14,15.41-3.95-.59-7.48,1.05-11,2.5,2.98,3.2,7.5,3.72,10.93,6.07,9.84,6.74,15.16,22.21,13.94,33.81-.41,3.87-2.12,13.01-6.87,13.62.29-3.01,0-7.34-2.99-8.99-2.6,8.2-4.65,20.76-10.01,27.49-1.28,1.61-10.19,8.93-11.76,9.32-3.84.96-4.42-2.36-7.23-3.82-4.14,18.17-27.61,23.28-43.01,16.5-4.42-1.94-11.94-9.4-8.86-14.36.54-.87,14.91-1.98,17.9-2.6,1.77-.37,6.11-.93,6.96-2.53-4.03-.21-8.02-1.36-11.79-2.72-10.55-3.8-23.73-9.27-30.44-18.56-4.24-5.88-5.58-12.84-8.76-19.24,6.51.68,2.37-1.24.99-3.21-.6-.85-.49-2.32-1.26-3.02-4.71-4.27-20.67-11.93-27.62-16.87-23.21-16.51-65.18-52.44-72.82-80.18-4.09-14.84.48-24.07,7.9-36.51,12.07-20.22,30.52-36.52,46.83-53.23l2.94.02c7.62,6.49,16.31,11.7,23.99,18.09,1.22,1.02,1.62,2.41,2.4,3.08Z"/>
  <path class="st17" d="M390.81,974.23c.55.33.44,2.12,1.64,2.42,6.4,1.58,18.68,1.54,25.95,2.46,17.29,2.18,34.5,4.35,52.06,4.94,12.15.4,24.4-.38,36.55-.04l-8.19,48.32c-1.52,2.77-9.47,2.46-12.57,3.34-1.24.35-8.99,3.42-9.23,3.86.14,2.15,2.68,1.99,3.46,4.53,1.37,4.46-4.19,11.59-5.78,16.14-2.1,6.01-9.26,36.34-11.92,38.59-.46.39-10.28,3.68-11.53,3.96-22.85,5.08-67.71.15-90.87-5.61-19.1-4.75-39.46-13.25-56.25-23.29-.26-.44.86-6.87,1.18-8.04,7.3-26.58,11.03-55.17,16.76-82.24.53-2.52,2.12-4.92,2.43-7.57,7.73-2.63,16.05-4.9,20.96-11.89,10.63,3.27,21.42,6.35,32.31,8.66,2.51.53,12.06.87,13.06,1.47Z"/>
  <path class="st2" d="M435,1116.01l-22.7,73.79c-8.79,29.29-14.23,60.6-23.35,89.65-1.69,5.38-2.01,7.41-7.68,9.32-13.66,4.61-46.09.7-60.48-3.06-7.42-1.94-14.62-5.13-21.38-8.68,4.91-59.88,22.65-117.69,30.6-177.03,33.68,11.36,69.25,17.38,104.99,16.01Z"/>
  <path class="st18" d="M629.99,1093c.02,1.78-.17,3.6.13,5.37,8.71,52.86,17.44,105.74,22.85,159.15.34,3.36,1.73,12.34.86,14.82-1.13,3.24-21.69,10.16-25.83,11.16-9.16,2.22-24.15,4.14-33.49,3.48-3.65-.26-23.46-3.35-25.01-4.99-1.37-1.46-5.21-19.26-6.04-22.96-11.2-49.41-18.86-99.7-30.46-149.03,33.06.46,66.17-5.28,96.99-17Z"/>
  <path class="st26" d="M751.58,837.58c-9.1,9.6-20.63,20.25-31.11,28.39-3.41,2.65-21.43,13.82-21.96,15.04-1.32,3.02-1.48,12.63-2.8,17.2-2.97,10.29-10.02,18.94-16.72,27-4.39,5.27-10.32,12.45-15.99,15.81,1.3,3.23,6.94,1.91,9.66,1.14,3.44-.97,5.67-3.26,7.85-4.15,1.2-.49,1.99.28,1.48,1.48-2.56,5.96-19.72,16.41-26.5,16.6-1.35.04-7.72-.79-8.32-1.32-.36-.32-.01-1.78-.5-2.39-.8-1.01-1.84-.69-2.71-2.87-1.22-3.02.28-5.05-.03-6.95-1.21-7.31-1.81-10.05-2.5-18.06-1.95-22.63-5.09-47.45-5.52-70-.14-7.27,2.3-4.51,6.1-5.97,21.45-8.23,32.51-32.33,45.57-49.45,3.06-4.01,19.85-24.98,22.45-26.63,1.31-.83,3.16.29,4.75-.16,8.81-2.48,16.78-6.92,25.21-10.31.23-1.83-2.13-.86-3.22-.72-9.43,1.23-17.97,4.95-28.05,2.5l-8.75-3.28c7.96-10.01,18.21-17.8,25.85-28.16,6.85-9.3,12.39-20.46,16.18-31.33,6.96,2.57,12.56,7.59,18,12.48,14.09,12.7,30.93,32.48,32.99,52,2.39,22.57-26.45,56.28-41.42,72.09Z"/>
  <path class="st12" d="M507.3,1094.71l-8.6-48.42c1.67-3.7,8.24-3.43,12.04-5.01,1.12-.46,1.07-1.8,2.03-2.21,6.11-2.63,22.04-7.33,26.64-11.18,1.71-1.43,2.39-5.15,5.58-6.4l-38.99,10.5c3.42-15.67,4.95-31.71,6.13-47.86,18.58-2.93,37.49-3.49,56.09-6.41,19.12-3,38.01-8.27,56.82-12.3,4.12,19.21,9.8,38.1,13.67,57.37,2.45,12.21,6.14,29.84,7.21,41.79.69,7.73-2.61,9.42-8.87,12.96-31.12,17.56-89.46,23.65-124.58,19.5-2.07-.24-3.55-1.14-5.16-2.33Z"/>
  <path class="st16" d="M574.39,1344.57c13.39,10.53,34.29,7.77,50.04,5.37,3.14,11.25,13.63,13.31,23.57,9.07-2.77,5.5-5.07,13.34-1.45,18.95,5.33,8.24,16.1-3.9,23.45-3.94-3.53,6.42-5.09,13.25.49,19,7.99,8.23,16.08-4.92,23.19-9.82,4.17-2.87,11.8-7.52,16.27-9.73s10.22-4.57,15.04-4.96c-10.84,5.62-21.06,13.11-29.65,21.85-9.66,9.84-19.31,20.71-17.34,35.65-40.03-2.05-81.62-12.54-117.57-30,1.37-13.99,1.55-39.92,10.53-51.27,2.62-3.3,2.82-.64,3.42-.17Z"/>
  <path class="st26" d="M546,597v14.5c0,3.05-3.69,11.56-5.6,14.4-17.41,25.92-70.57,11.67-92.73-2.08-8.52-5.28-22.26-18.3-26.87-27.13-3.56-6.82,2.53-12.31,4.46-18.94l8.23-12.75c29.72,27,72.28,47.49,112.51,31.99Z"/>
  <path class="st20" d="M390,1398c-5.35.93-17.53,4.43-23.45,6.05-18.46,5.08-42.89,20.95-46.56,40.95-22.31-8.68-40.9-24.01-59.76-38.21.84-22.94,8.01-48.33,23.28-65.79,1.18,1.88-.86,3.56-.11,6.01,1.93,6.32,14.72,9.18,20.55,10.53,1.83.43,6.5.23,6.92.59.29.25.39,2.38,1.08,3.37,1.38,1.98,5.7,6.43,5.86,8.14.33,3.66-7.98,8.26-5.03,17.07,2.69,8.03,13.41,6.08,20.23,5.28-3.63,4.26-4.77,14.99,1.04,17.53,3.56,1.56,29.8-7.63,35.92-9.08,6.28-1.49,12.71-2.31,19.04-3.46.93-.03,1.31,0,1,1Z"/>
  <path class="st3" d="M396.8,1404.3c3.6-.27,8.21-.76,11.72-.32,9.68,1.19,24.29,18.75,27.2,27.8,3.47,10.77,2.66,12.05-7.19,16.26-30.79,13.14-71.82,11.04-102.46-1.51,8.49-26.55,45.11-40.3,70.73-42.22Z"/>
  <path class="st9" d="M560.01,1406c5.29,1.97,10.79,5.68,15.95,7.54,58.17,20.93,128.75,30.42,188.02,8.94,3.52-1.28,16.78-8.5,18.57-8.49,3.3.02,2.75,6.22,2.47,8.54-1.79,15.15-25.52,22.1-38.01,24.98-45.52,10.51-113.66.36-157.53-15.49-12.94-4.68-30.55-8.87-29.47-26.02Z"/>
  <path class="st3" d="M780.95,1403.92c-28.79,18.24-63.25,23.53-96.95,22.07,1.23-5.91,2.71-12.53,5.61-17.88,4.13-7.6,18.74-20.24,26.05-24.95,3.16-2.04,18.87-9.48,22.09-9.93,14.73-2.05,40.52,14.95,43.2,30.69Z"/>
  <path class="st21" d="M383,1299.01c-4.4,11.91-6.41,24.92-13.2,35.78-15.19-1.3-36.59-4.46-50.14,4.37-3.32,2.17-5.35,7.33-8.19,7.83-6.39,1.12-21.4-.79-18.54-10.51l4.07-47.48c26.8,10.95,57.34,16.93,85.99,10Z"/>
  <path class="st0" d="M438.99,1454.01c-.8,21.54-29,27.87-46.45,29.04-41.69,2.8-86.62-11.42-117.56-39.53-7.68-6.97-15.95-15.45-15.98-26.51l26.08,18.41c12.32,6.85,24.34,15.56,37.71,20.29,36.09,12.79,80.35,10.65,116.21-1.7Z"/>
  <path class="st3" d="M655.99,1284.01c-.84,6.36,1.84,13.4,1.82,19.5,0,2.89-2.15,6.07-1.22,9.52-10.24,2.93-28.73,8.14-32.64,19.42-2.49,7.2,2.4,8.91-7.42,9.59-7.4.51-21.06.46-27.79-2.29-2.31-.95-3.36-3.97-6.57-3.92l-10.17-41.83c4.14,1.84,9.92,2.67,14.5,2.99,14.7,1.03,32.08.28,46.25-3.73,8.11-2.3,15.36-6.46,23.23-9.26Z"/>
  <path class="st8" d="M666.67,1324.38c6.61.22,18.59,5,10.85,12.64-10.48,3.15-21.06,11.74-30.98,15.02-6.34,2.09-14.87,3.41-15.5-5.66-1.13-16.35,23.05-22.42,35.62-22Z"/>
  <path class="st0" d="M337.78,1345.28c9.28-1.12,31.86.17,38.61,6.83,5.05,4.99,4.58,8.68-2.95,9.82s-20.13-1.14-27.94-.72c-4.2.22-18.4,4.02-20.89,3.58-2.11-.37-3.53-5.52-3.55-7.42-.06-8.31,10.1-11.3,16.71-12.09Z"/>
  <path class="st1" d="M348.99,151.01l-20.31,11.17c-18.95,12.81-38.27,34.05-48.4,54.6-2.65,5.38-4.35,11.86-6.83,17.22-.31.68-.93,3.84-2.46,1.99-1.1-1.33,6.5-21.38,7.96-24.53,12.52-27.09,38.68-57.26,70.04-60.45Z"/>
  <path class="st3" d="M696,1353.99l-39.04,16.56-4.94.46c1.18-7.64,6.29-12.96,12.69-16.8,2.97-1.78,14.02-6.67,16.96-6.93,2.32-.21,4.02,1.95,6.34,1.72l-4-3.98c2.96.86,8.92,4.55,10.94,6.55.84.83,1.41.92,1.05,2.43Z"/>
  <path class="st3" d="M381.74,1383.25c1.02,1.11,1.13,3.27,1.27,4.75l2.01-3c7.54,5.76-1.11,4.41-5.27,5.25-14.27,2.88-28,7.07-41.74,11.75.72-10.07,15.61-15,24-17.49,4.72-1.4,16.1-5.2,19.74-1.25Z"/>
  <path class="st15" d="M367.99,1373.01l-35.75,11.74c-2.84-.42-11.17,3.11-12.2-.36-1.72-5.81,9.46-10.92,13.75-12.09,11.16-3.05,22.98-.61,34.2.71Z"/>
  <path class="st21" d="M716,1363.99c-.34.46-8.82,2.62-10.88,3.62-9.01,4.41-17.75,12.15-26.08,17.79-9.61.1-.61-9.49,3.09-12.78,7.63-6.79,17.24-10.48,26.38-14.62,1.39.66,8.92,4.09,7.5,5.99Z"/>
  <path class="st7" d="M389,1397c3.05-.55,7.09-2.63,7.5-2.65,1.34-.07,9.01,3.02,4.02,3.66-3.25.41-7.44-.54-10.52,0l-1-1Z"/>
  <path class="st14" d="M571.99,740.01c.71.69-4.21,6.48-5.02,7.47-23.64,28.96-56.04,54.11-89.29,70.62-3.86,1.92-7.8,5.05-11.72,6.39-4.67,1.59-11.01,1.33-15.97,3.5,1.56-6.28,7.23-5.61,10.93-7.56,38.11-20.12,66.35-40.3,98.66-69.87,1.76-1.61,10.82-12.1,12.41-10.55Z"/>
  <path class="st14" d="M571.94,865.93c-.12.17-1.69.2-2.33,1.13-5.75,8.32-11.82,12.9-19.69,19.36-1.93,1.58-7.07,6.39-7.51,6.68-10.54,6.95-21.6,13.61-33.32,19.48-12.71,6.37-32.71,13.34-47.64,14.46-2.6.2-4.41-1.09-5.89-1.09-.53,0-.49,4.39-3.54.55l36.51-11.47c26.22-9.93,57.3-30.31,79-48,1.02-.83,2.3-3.98,2.97-4.01.46-.02,2.09,2,1.44,2.91Z"/>
  <path class="st19" d="M373.42,632.61c6.86,11.56,10.31,25.59,12,39.25.53,4.3-.25,7.57-.4,10.73-.2,4.01.72,8.9-.03,12.9-.56,2.98-5.15,9.61-5.38,1.65-.66-22.46-.45-37.61-9.12-59.12-2.39-5.93-5.63-8.47-8.28-15.72-.66-1.8-4.41-4.44.81-3.82,3.89,4.83,7.19,8.72,10.4,14.13Z"/>
  <path class="st10" d="M573.98,299.01c2.73,3.81.77,5.78.92,9.49.39,9.55,1.36,21.06-4.05,29.86-.53.87-7.63,9.94-8.13,10.36-2.66,2.21-9.3.87-9.73,1.28-.44.44.21,10.27-.01,12.49-6.07,61.66-71.56,78.9-95.01,21.04-8.65-21.33-4.61-44.94,4.03-65.52-2.57.09-21.36-1.7-19.53-6,.28-.67,3.31-3.35,4.18-3.85,18.06-10.42,70.46,15.01,89.83,21.87,4.07,1.44,18.89,6.84,22.06,6.53,5.17-.5,8.57-15.96,9.8-20.71,1.09-4.19,1.2-11.62,2.89-15.11.66-1.35,1.08-2.05,2.75-1.73Z"/>
  <path class="st27" d="M671,310.01c1.72,3.72,3.97,7.15,5.48,11,8.29,21.09,9,65.93-13.45,78.52-9.8,5.5-20.03,6.02-31.03,5.47,3.68,11.46-7.05,28.13-18.76,29.73-1.74.24-9.98.76-10.31-1.35-.88-5.49,9.5-6.75,13.57-10.39,5.85-5.23,7.3-12.52,4.78-19.78-5.86-16.91-34-9.75-42.13,2.43-1.72,2.59-2.43,10.07-7.19,6.89-.77-.51-1.61-3.26-1.75-4.31-1.33-9.77,13.1-18.68,21.24-21.28,3.01-.96,15.4-2.09,15.52-3.44-4.67-12.37-4.89-27.54-2.97-40.5-2.81-1.03-8.48,1.13-10.39.77-3.98-.74-4.71-12.97-4.67-16.31.03-2.3,1.16-16.69,1.54-17.48.22-.44,1.25-1.25,1.51-.98.21,3.07,7.15,21.93,8.6,22.05,14.53-4.41,27.83-11.67,41.08-18.88,9.53-5.18,19.03-13.76,30.28-15.71,18.25-3.15,11.2,11.38-.95,13.55Z"/>
  <path class="st25" d="M489,519.99c-.49-.46,1.28-6.44,1.8-7.69,3.34-8.11,20.42-23.79,27.88-29.12,29.48-21.05,106.46-43.79,124.5,1.13,1.53,3.8,6.5,20.61-1.18,17.19-2.19-.98-8.29-15.71-11.48-19.53-23.39-28.05-89.7-5.53-113.54,14.51-6.06,5.1-16.54,19.77-21.43,22.57-2.28,1.3-4.09,1.07-6.55.94Z"/>
  <path class="st27" d="M335.65,412.35c4.85,4.75,11.21,13.31,13.34,19.65l-4.5-4c-2.25,4.94-8.13.77-11.49-.01l2-1c2.1-2.49-9.42-1.8-12.53.98-2.79,2.5-4.51,13.26-2.28,15.82.24.28,5.54,1.65,7.03,2.47,2.48,1.37,3.61,3.32,5.15,4.4,1.15.81,4.7-.24,1.57,2.77-5.31,5.11-12.98,2.14-17.49-2.41-9.27-9.34-5.63-33.19,9.54-35.54-2.98-4.48-16.41-9.83-20.79-7.28-.57.33-3.92,6.32-4.42,6.63-.55.35-1.92-.68-2.81-.31-1.86.77-5.94,6.07-4.8-2.77,1.76-13.71,18.43-15.63,28.73-10.17,2.61,1.38,11.46,8.51,13.75,10.75Z"/>
  <path class="st5" d="M506,332.01c-1.51,4.21-5.2,7.25-7.02,11.47-5.3,12.25-5.89,32.75.49,44.57,8.2,15.2,27.82,14.32,34.3-1.78,4.72-11.72,7.22-28.11,3.24-40.25.34-.26,7.61,1.8,7.88,2.1,1.46,1.66-1.27,22.45-2.13,26.13-7.58,32.46-41.63,49.78-66.77,22.28-19.23-21.03-18.74-51.65-5.31-75.59l35.33,11.07Z"/>
  <path class="st5" d="M665.92,314.07c.48.34,4.35,9.28,4.86,10.65,8.81,24,9.07,66.79-22.53,73.01-3.42.67-14.47,1.12-17.26-.37s-3.11-5.05-5.02-6.82c-3.67-3.4-9.61-2.76-12.45-9.55-1.37-3.28-3.49-17.77-3.54-21.55-.03-2.55.9-14.74,1.48-16.51,1.1-3.34,8.22-5.88,11.55-6.94-.42,2.54-2.13,3.8-2.95,6.54-2.7,9.05-2.46,27.82,1.46,36.45,4.97,10.94,18.97,12.27,27.03,4.04,11.12-11.35,14.63-49.07-1.53-58.53,2.36-2.03,17.22-11.64,18.91-10.43Z"/>
</svg>