<?xml version="1.0" encoding="UTF-8"?>
<svg id="Layer_1" xmlns="http://www.w3.org/2000/svg" version="1.1" viewBox="0 0 1024 1536">
  <!-- Generator: Adobe Illustrator 29.5.1, SVG Export Plug-In . SVG Version: 2.1.0 Build 141)  -->
  <defs>
    <style>
      .st0 {
        fill: #eebf79;
      }

      .st1 {
        fill: #040802;
      }

      .st2 {
        fill: #060902;
      }

      .st3 {
        fill: #343624;
      }

      .st4 {
        fill: #d58533;
      }

      .st5 {
        fill: #eec07a;
      }

      .st6 {
        fill: #353625;
      }

      .st7 {
        fill: #eec079;
      }

      .st8 {
        fill: #856e42;
      }

      .st9 {
        fill: #d58532;
      }

      .st10 {
        fill: #d48431;
      }

      .st11 {
        fill: #070902;
      }

      .st12 {
        fill: #1c353e;
      }

      .st13 {
        fill: #1b343d;
      }

      .st14 {
        fill: #eca819;
      }

      .st15 {
        fill: #d68532;
      }

      .st16 {
        fill: #d48331;
      }

      .st17 {
        fill: #ebbe79;
      }

      .st18 {
        fill: #6a5735;
      }

      .st19 {
        fill: #070802;
      }

      .st20 {
        fill: #f5dc8f;
      }

      .st21 {
        fill: #eba718;
      }

      .st22 {
        fill: #050902;
      }

      .st23 {
        fill: #d48332;
      }

      .st24 {
        fill: #b39760;
      }

      .st25 {
        fill: #d58432;
      }

      .st26 {
        fill: #070a03;
      }

      .st27 {
        fill: #ecbf7a;
      }

      .st28 {
        fill: #060702;
      }

      .st29 {
        fill: #d0b572;
      }

      .st30 {
        fill: #d68533;
      }

      .st31 {
        fill: #2a5059;
      }

      .st32 {
        fill: #050802;
      }
    </style>
  </defs>
  <path class="st22" d="M968.07,1027.92c-6.87-27.18-33.76-42.33-46.29-62.64-.7-1.14-1.68-1.33-1.18-3.38,18.53-3.5,44.28-14.63,46.78-38.54,1.31-12.55-4.22-28.38-16.39-31.19-13.55-3.12-33.13,2.2-47.88,1.09-8.37-.62-18.3-4.74-26.39-4.19-5.32.36-9.95,2.73-15.06,3.57l-69.17-96.45c-1.89-4.38,3.1-6.52,5.12-10.38,1.59-3.04,5.54-15.2,4.89-18.17-.91-4.13-22.15-33.61-26.28-39.36-29.34-41.02-64.93-87.52-111.81-101.73,12.3-14.45,24.81-28.67,34.31-45.77,45.83,42.72,104.53-6.06,122.94-57.56,12.92-36.13,16.44-82.16-10.21-111.44,23.52-55.31,26.08-128.25,6.59-185.54-5.53-16.27-12.88-29.9-22.56-43.42,6.3-1.1,29.18,16.58,32.24,5.1,3.68-13.78-20.65-41.75-30.64-48.64-16.13-11.12-36.93-15.04-55.72-13.7-.12-22.79-11.05-44.32-26.55-58.47-4.63-4.23-19.57-16.75-24.63-13-8.67,6.41-.66,14.61,1.61,21.26,3.22,9.47,4.55,17.78,3.87,28-.51,7.61-4.28-.05-7.31-2.6C623.16,45.96,501.95,6.21,421.22,20.9c-59.2,10.77-124.07,50.49-158.49,106.03-2.06,1.55-8.96-16.36-9.32-18.5-1.14-6.85,2.63-30.89-4.44-31.26-10.47-.53-33.05,26.46-38.45,36.39-15.41,28.33-13.84,59.35,2.53,86.74-28.2,42.61-27.61,101.76-.13,144.69,2.71,4.22,12.31,14.26,13.22,17.52,1.19,4.35,2.73,27,2.99,33.01,1.73,40.06-8.61,43.81-18.14,76.78-20.6,71.35,11.5,130.33,63.4,168.8,7.35,5.44,24.53,13.86,29.66,19.31.88.93,2.42,1.19,1.98,3.14-31.98,34.17-66.13,66.34-94.08,104.75-2.18,6.03-.32,14.18,2.08,19.88,1.49,3.51,6.15,7.18,4.86,10.69l-65.58,87c-17.08-4.7-35.01-.62-52.29-2.11-14.98-1.29-36.1-12.85-47.52,3.39-18.99,27.03,16.61,54.35,37.27,59.24-16.52,19.85-66.49,55.73-50.09,88.42,3.7,7.38,10.37,7.88,11.5,9.33.6.77-1.31,9.63-1.13,12.65,1.31,21.6,26.37,26.79,40.91,18.21,1.46,11.92,11.7,17.22,21.71,15.57,23.15-3.81,37.49-28.21,54.05-43.85,16.19,37.75,51.72,57.22,87.41,63.07,12.1,1.98,24.4,3.26,36.48,1.58-.32,10.32-8.49,49.45-5.41,56.56,1.27,2.94,16.74,9.39,20.43,10.77,5.69,2.14,16.94,3.73,21.03,6.07,1.46.83,2.19,2.26,2.39,4.04l1.23,148.78c-12.27-3.56-28.05,5.84-39.66,11.46-32.45,15.69-71.98,41.41-64.41,88.26,2.51,15.53,15.98,24.13,28,29.25,35.9,15.26,76.03,9.58,112.76,3.68,2.69-.43,8.74-3.53,11.88-3.33.99.07,1.44,2.44,1.95,2.67l2.12-1.54c8.54-2.34,16.66-5.89,24.34-10.59,3.05,1.21,11.82,1.6,12.03-4.04,2.28-1.01,6.29-2.9,8.42-4.04.59.85,1.35,1.48,2.25,1.25.64-.16,11.08-4.5,11.34-5.13.43-1,.17-1.99-.36-2.86,1.85-.11,3.05-1,3.61-2.69,2.63-.42,7.05-2.44,4.81-5.39,5.26-1.23,9.4-16.65,6.01-21.55,2-.57,2.49-3.68,1.5-9.36.76-.38,1.36-.77,1.38-1.2,1.15-19.16-1.9-55.19-19.07-64.52l-.95-4.55c2.44-47.88,3.52-96.26,3.26-145.18,7.42-.82,24.76-3.81,28.61-11.37l5.66-56c5.93-2.18,8.39,1.97,7.41,12.43-1.71,16.13-.55,31.36,3.46,45.67,9.86,8.85,21.67,14.13,35.44,15.82,2.71,50.97,5.98,101.53,9.81,151.65l-.55,3.88c-5.9,6.94-8.65,13.22-10.74,22.68-2.26,10.21-4.99,26.23-1.49,34.65-3.27,1.27-3.81,8.82,0,9.43-3.04,2.2-3.44,3.54-1.2,4.04-3.39,1.01-3.63,5.89,0,5.39-2.66,4.24,3.72,12.38,6.82,15.81,3.14,3.47,12.87,13,16.03,8.43.43,2.68,2.71,4.11,6.81,4.28,3.04,3.92,4.12,4.26,8.83,2.45,2.27,3.19,2.92,3.51,6.01,1.35l22.85,9.43c.61,1.63,2.21,2.07,4.81,1.35,29.85,9.41,62.76,16.62,94.49,14.83,26.18-1.48,63.61-14.13,61.83-50.49-2.18-44.47-54.18-71.34-85.15-87.81-5.9-3.14-12.28-5.31-18.34-7.97,3.02-30.07-2.21-60-3.56-90.01-.88-19.57-.31-39.51-1.24-59.11.48-2.26,30.62-7.34,33.26-17.01l-5.54-55.24c1.36-1.06,17.49,3.68,21.07,4,55.37,5.14,103.44-31.61,128.66-84.8,19.09,23.22,39.21,73.73,73.25,68.53,9.89-1.51,14.89-13.28,15.9-13.45,1.8-.31,12.68,5.39,17.86,5.58,13.51.5,23.15-10.33,22.26-25.67,22.02,1.41,27.23-23.27,22.22-43.05l.06.03ZM294.28,1019.58c-20.04,2.52-38.26-3.65-57.22-9.97-6.61-2.2-13.58-4.78-18.27-10.77-5.72-7.31-5.54-17.28-3.92-26.31,3.68-20.5,12.27-39.05,24.65-54.57,11.91-14.92,26.02-27.41,37.75-42.53,4.19-5.4,10.67.13,10.01,5.9.81,1.05,1.32,2.45,1.32,4.23.11,25.99-1.41,51.85-1.59,77.83-.06,9.14-2.73,22.57,3.11,30.11,2.07,2.68,4.94,4.22,6.83,7.11,2.39,3.68,2.99,7.8,3.32,12.24.29,3.95-2.99,6.36-6.01,6.73h.01ZM767.05,1012.97c-17.96,1.04-37.03,1.32-54.88-1.24-8.29-1.19-16.4-3.19-24.81-2.68-5.88.36-13.42,1.1-18.05-3.93-7.88-8.57-3.85-25.98-3.72-36.7.1-8.7-2.35-17.52-3.66-26.06-1.55-10.09-2.29-20.12-2.68-30.34-.87-22.31-1.48-44.64-2.86-66.92-.48-7.68,8.91-8.5,11.42-2.59,2.89,2.33,5.41,5.04,7.83,8.04,2.67,3.31,5.54,7.61,9.58,8.78,3.43,1,7.07-.51,10.56-.34,3.79.19,7.1,1.76,9.97,4.47,6.54,6.17,11.56,14.65,16.49,22.4,5.18,8.13,10.84,15.89,15.96,24.07,5.2,8.28,11.12,14.56,18.16,20.85,6.46,5.76,13.25,11.26,18.15,18.81,8.07,12.44,10.37,29.71,10.37,44.79,0,12.69-7.17,17.97-17.85,18.58h.01Z"/>
  <path class="st32" d="M186.68,686.14c30.21-6.48-9.5,21.68-13.48,25.29-11.34,10.28-21.42,23.28-29.75,36.71-3.46,5.56-17.94,37.01-21.95,35.98-4.28-1.09-2.9-13.56-2.2-17.24,5.24-27.26,42.39-75.4,67.38-80.75h0Z"/>
  <path class="st22" d="M834.92,710.3c6.45-1.39,20.41,5.43,26.36,8.97,18.41,10.95,40.8,39.12,43.58,62.96,1.06,9.08-.24,19.49-8.27,9.28-12.24-15.54-16.07-32.75-33.07-49.15-6.64-6.4-29.04-20-31.98-24.79-2.38-3.88-.36-6.45,3.39-7.26h-.01Z"/>
  <path class="st2" d="M161.44,652.47c5.15-1.09,13.13,1.1,9.38,7.78-.66,1.17-17.86,9.79-21.45,12.35-13.47,9.59-25.53,23.27-35,37.57-3.38,5.09-13.37,25.29-17.2,26.57-12,4.03-4.61-14.5-2.2-20.01,11.04-25.36,41.06-58.88,66.48-64.26h-.01Z"/>
  <path class="st32" d="M917.42,739.21c-4.86-4.65-9.26-14.65-13.69-20.36-6.82-8.79-16.5-18.19-25.62-23.84-4.92-3.04-20.14-8.47-22.45-11.22-5.44-6.48,6.24-7.72,10.2-7.39,21.17,1.74,51.09,27.85,59.23,49.52,3.79,10.07,3.04,23.55-7.67,13.29Z"/>
  <path class="st8" d="M563.43,1458.82"/>
  <path class="st8" d="M586.28,1468.25c1.36.47,3.17.83,4.81,1.35"/>
  <path class="st18" d="M541.78,1450.74c4.15,1.43,10.15.08,10.84,6.72l1.2-2.68c.63-.58,2.86,2.37,3.6,2.69-2.12.23-.78,1.06,4,2.52"/>
  <path class="st16" d="M637.98,223.89c-2.31,8.28-5.6,41.18,3.26,44.2,11.55,3.93,21.24-21.52,29.21-28.04-10.98,42.23-11.98,96.56,13.28,132.61,1.52,2.17,6.64,6.53,6.94,8.31.23,1.31-3.84,15.14-4.25,19.04-2.49,24.29,4.5,39.73,18.24,56.93,1.64,2.05,3.05,6.69,4.79,8.09,8.49,6.92,12.5-11.58,15.81-17.48,12.37-22.01,29.93-39.47,54.66-33.16,54.5,13.95,36.09,98.23,9.55,133.34-16.6,21.94-54.68,43.69-77.5,22.22-7.02-6.6-7.31-14.64-11.39-19.55-6.06-7.3-10.39,11.39-13.08,16.46-58.45,109.74-197.76,126.05-299.91,103.75-76.76-16.77-187.85-80.12-162.69-186.79,3.64-15.47,11.27-26.19,15.93-40.06,11.67-34.66,0-67.83,1.5-103.36.36-8.63,1.61-19.37,2.55-28.12,2.73-25.63,7.66-51.03,14.23-75.7,29.61,8.69,57.06,9.36,85.05-5.71,2.75-1.48,11.55-8.92,13-9.09,2.71-.34,13.53,3.22,18,3.51,6.87.46,24.06-2.84,28.29-.7,1.68.86,3.98,4.94,6.15,6.59,24.08,18.48,49.75,22.06,78.36,17.97,3.73-.54,10.34-3.82,13.63-3.6,1.46.11,8.36,6.21,11.05,7.61,25.46,13.28,61.9,5.53,87.49-5,13.69-5.64,26.81-13.71,37.85-24.27h0Z"/>
  <path class="st31" d="M777.49,761.21c-39.96,6.84-72.35,39.71-93.2,76.75-13-19.42-27.34-37.82-40.06-57.46-5.4-8.34-22.85-41.76-28.23-45.18-1.21-.77-4.14-.51-5.66-1.02,3.01,28.86,20.28,51.23,33.61,74.8l13.14,173.43c-.93,3.21-21.49,10.21-25.69,11.72-76.76,27.59-161.07,29.83-240.2,14.4-30.01-5.86-61.09-14.92-88.55-29.48l29.67-256.09c-1.55-5.7-7.32,3.29-8.71,5.97-2.36,4.57-4.39,12.47-5.84,17.7-6.59,23.7-10.39,50.47-12.93,75.09l-13.2-15.5c-17.27-14.64-35.5-33.98-57.74-37.03,28.59-34.39,59.85-65.27,89.84-98.09,23.64,6.9,46.59,18.85,71.27,20.05,4.56,31.66,32.83,46.53,58.57,50.91,41.63,7.07,77.58-9.82,105.65-44.2,2.68-3.29,8.3-13.83,10.28-15.42,3.37-2.69,17.87-5.62,23.1-7.8,10.52-4.39,24.02-12.31,33.71-18.81,4.34-2.92,14.73-13.01,18.26-13.35,9.21-.88,26.18,6.5,34.72,11.1,39.99,21.48,69.01,71.64,98.18,107.53h.01Z"/>
  <path class="st14" d="M679.66,119.32c11.11,11.97,22.25,41.44,28.96,3.88,2.29-12.81.14-20.32.29-31.93.02-1.52-.7-3.74,1.23-3.38,2.13,6.8,7.31,11.31,9.86,17.91,6.88,17.72,4.51,36.33,2.18,54.8,3.63.2,7.53.01,10.74-2.13,4.21-2.81,4.1-9.16,8.44-10.75,3.36-1.24,13.63-1,17.56-.65,13.24,1.19,27.35,8,37.83,16.89-9.77-.71-16.76-2.9-26.75-.35-21.31,5.45-4.38,12.34,2.72,19.18,34.27,32.99,43.21,88.95,40.93,137.43-1.29,27.31-6.61,55.23-17.01,79.98-33.58-12.59-58.83-2.06-79.76,28.5-1.49,2.18-5.09,10.3-5.53,10.65-2.39,1.86-5.52-6.72-6.21-8.51-4.59-11.93-4.31-26.21-1.64-38.68.9-4.2,6.39-15.89,6.33-16.79-.1-1.51-16.05-16.03-19.15-21.26-17.34-29.47-12.99-87.15-4.23-119.74,1.61-6.01,7.41-17.53,7.88-22.27,1.14-11.61-20.42,4.5-23.75,7.19-8.41,6.81-14.17,15.08-21.15,23.45-.16-5.86.26-12.93,1.4-18.64,1.67-8.48,9.78-24.04,10.05-29.28.16-3.02-1.48-5.28-4.22-5.39-7.41-.3-30.07,24.07-37.99,29.64-20.85,14.67-71.12,30.42-94.44,21.13-1.25-.5-3.55-.82-1.67-2.83.47-.5,9.71-2.84,12.46-4.24,11.88-6.09,25.94-15.54,32.01-28.77-1.92-3-4.44-2.22-7.23-1.39-14.28,4.32-30.64,14.81-45.94,19.93-25.9,8.66-54.5,14.06-80.61,3.35-1.67-.69-12.42-5.86-12.92-6.44-1.95-2.29.6-2.26,1.68-2.8,6.42-3.25,12.95-4.62,19.59-9.04,4.86-3.23,18.32-14.57,18.44-21.09l-5.46-2.13c-11.11,4.85-21.55,11.72-33.05,15.55-18.17,6.09-39.45,9.37-57.99,4.31-5-1.36-27.47-11.97-28.96-11.55-9.51,2.61,2.97,15.99,6.36,18.67-31.71,16.43-79.17,14.1-105.84-12.75-27.16-27.34-22.99-68.21,2.41-94.96-.16,31.49,19.46,57.67,46.65,64.26,1.55.38,18.38,3.77,15.32-.98-3.63-2.64-26.19-18.58-25.71-21.96.55-3.87,19.52-29.14,23.23-33.3,64.41-72.05,160.51-87.9,245.72-60.93,35.87,11.35,110.92,40.17,136.93,68.2h.01Z"/>
  <path class="st25" d="M913.89,981.52c11.53,14.53,35.9,36.12,38.89,55.42,1.25,8.07-1.06,19.72-9.99,13.9-3.46-2.26-14.08-18.42-17.96-22.97-4.27-5.04-25.22-26.29-26.55-29.61-.66-1.64,5.08-7.7,4.28-10.76-13.73,1.99-24.1,13.56-36.85,20-3.57,1.8-20.19,7.3-20.87,8.28-2.85,4.16,12.25,7.26,14.14,7.06,6.93,15.47,25.96,32.2,31.79,47.22,3.04,7.85,1.59,18.25-7.72,16.82-19.7-3.02-36.08-38.14-47.85-54.23-16.7-22.84-35.63-34.64-38.3-67.52-.42-5.2,2.25-19.88,1.72-20.74-2.09-3.34-6.78.66-7.71-.09-.3-.24-.89-2.76-1.91-3.95-28.73-33.38-56.28-68.64-81.91-104.99,14.29-21.76,33.65-40.23,56.43-49.67l77.76,110.89c3.69,3.16,14.08,18.45,18.1,17.59,2.21-.47,5.88-3.88,8.86-4.82,13.72-4.35,34.31,3.82,50.56,2.75,8.19-.54,27.95-8.08,31.36,4,4.14,14.67-18.98,25.45-29.08,26.84-4.62.63-22.15-1.21-23.94,1.47-6.55,9.79,11.28,30.27,16.76,37.18v-.04Z"/>
  <path class="st12" d="M654.79,1163.84c-14.17,3.99-28.32,8.26-42.83,10.63-28.15,4.61-63.9,5.36-91.64-2.05-4.04-1.08-16.28-4.39-17.03-9.2l-1.06-44.99c1.02-1.35,34.65-3.58,17.69-14.06-14.78-1.63-31.41-1.87-45.93-5.1-9.09-2.02-10.6-5.59-14.64-14.58-7.14-15.88-8.11-32.58-10.16-49.88,5.16-1.08,10.16,1.16,14.98,1.39,24.11,1.13,50.55,1.01,74.6-1.41,28.29-2.86,54.83-10.37,82.45-16.93,4.79,16.4,14.54,30.3,19.77,46.58,10.04,31.3,9.69,66.9,13.81,99.59l-.02.03Z"/>
  <path class="st15" d="M280.39,822.3c1.65,1.75,12.7,14.69,13.1,15.66.55,1.35-.29,2.09-.81,3.14l-78.58,95.32-10.25-.11c8.2,27.54-6.61,51.66-22.81,70.73-3.04,3.58-7.36,6.59-10.28,10.01-12.46,14.58-39.6,51.26-55.87,56.01-11,3.22-12.42-8.94-8.69-17.86,4.88-11.66,22.5-29.69,30.98-39.43.9-1.04,1.52-3.43,2-3.76,4.04-2.65,18.17,4.28,18.99-5.67-8.21-2.6-18.85-9.27-25.65-15.06-4.82-4.11-18.17-20.91-22.1-22.38-1.62-.61-3.48-.27-5.16-.28-1.07,3.31,2.01,9.72.66,12.11-.6,1.08-3.54,2.46-4.91,4.03-9.74,11.1-19.69,21.95-29.46,32.99-4,4.52-9.45,16.48-15.69,9.52-5.12-5.71,1.94-20.78,5.6-26.21,9.54-14.1,51.42-47.7,53.36-61.48,1.95-13.9-12.92-8.86-21.65-10.63-9.28-1.87-30.81-14.71-27.12-27.72,2.84-9.99,22.12-1.02,29.13-.12,16.31,2.11,39.24-4.71,53,1.27,2.02.88,4.99,3.91,6,4.08,2.95.51,18.42-17.72,21.44-21.32,24.2-28.64,44.81-61.19,68.78-90.11,4.5-1.25,31.4,22.36,36.01,27.26h0Z"/>
  <path class="st13" d="M435.95,1033.26c-.41,20.91,4.22,41.72,12.01,60.6l-54.09-19.54c6.3,15.33,24.32,22.97,37.86,28.98,8.76,3.88,17.74,7.64,27.08,9.41-2.51,8.55-1.72,45.95-6.03,50.49-3.34,3.51-28.47,8.04-34.27,8.75-38.16,4.62-80.19.79-115.46-16.07,5.14-49.42,10.1-99.66,28.3-145.51,33.36,14.06,69.26,19.26,104.62,22.88h-.01Z"/>
  <path class="st3" d="M658.45,1357.83c.9,4.27-4.06,2.34-7.01,3.6-12.62,5.36-31.98,24.97-32.68,40.83,1.83,2.15,13.43-10.79,15.73-12.67,4.03-3.31,9.27-7.84,13.54-10.42,5.35-3.25,20.55-10.17,25.83-8.35,20.64,11.76,39.28,25.71,53.76,46.23-2.56,11.72-10.57,16.07-20.14,19.26-35.41,11.81-79.18,3.82-114.49-5.87-19.59-5.37-43.26-10.88-56.01-29.13-.7-3.84,2.95-21.28,4.16-26.01,5.77-22.44,7.49-9.1,20.77-2.99,5.36,2.46,12.41,4.3,18.15,5.39,1.4.27,6.81-.71,7.41.35,1.05,1.82-3.4,15.2,4.8,16.15,1.68-7.77,7.22-16.35,12-22.26,7.52-9.28,24-21.57,35.48-20.9,6.88.4,11.85,7.15,18.69,6.8h.01Z"/>
  <path class="st6" d="M377.02,1390.13c1.77,1.8,11.15-9.17,8.42-13.47,11.71,3,22.57-3.57,33.37-5.87l12.92-14.32c5.62,2.68,9.3,37.94,5.93,44.32-6.72,12.75-45.03,23.55-58.01,26.62-30.57,7.23-107.53,15.49-130.74-10.33-6.77-7.54-4.43-9.08.85-16.67,8.56-12.34,24.51-22.95,37.03-29.86,9.37-5.16,12.53-5.82,22.9-2.69,15.08,6.25,28.51,16.59,42.64,24.93,2.47-2.22,1.46-1.48.65-3.37-4.23-10.01-16.46-24.91-25.4-29.49-2.86-1.47-12.62-3-13.13-3.49-1.91-1.83.54-2.37,1.54-3,12.83-8.03,28.33-4.42,39.93,4.38,8.25,6.25,22.33,20.67,21.07,32.29h.04Z"/>
  <path class="st23" d="M622.34,1192.17l4.22,114.48c-22.42,12.32-52.31,12.31-75.85,4.11l-7.73-115.9c26.19,5.76,53.25,2.02,79.35-2.69h.01Z"/>
  <path class="st9" d="M345.75,1189.48c25.84,4.57,52.24,5.6,78.17,1.35-1.95,37.64-.11,75.62-2.95,113.18-23.96,10.37-50.94,10.45-75.21,1.29v-115.82h-.01Z"/>
  <path class="st7" d="M658.45,1061.54c22.75,13.02,46.89,12.32,70.97,4.74l11.99-6.07c-25.76,2.4-51.06,3.39-75.38-7.85-2.79-1.29-10.87-5.4-12.86-7.15-1.09-.97-9.91-18.33-10.15-19.66s1.58-16.04,2.19-16.52c43.01,23.51,88.15,25.1,134.01,12.04,6.61-1.89,20.58-11.49,23.34-.3,1,4.05-8.9,21.2-11.58,25.59-22.02,35.96-59.87,59.01-99.53,55.63-4.69-.4-20.96-3.85-24.57-6.15-1.3-.83-1.61-1.51-2.15-2.98-2.92-7.95-2.67-22.57-6.3-31.31h.02Z"/>
  <path class="st5" d="M306.05,1030.57c-2.72,6.02-4.25,23.86-6.61,28.27s-22.74,4.97-27.79,4.82c-18.88-.57-37.21-6.46-54.56-14.22-2.36,2.49,11.35,12.24,12.86,13.2,18.76,11.93,45.65,17.51,66.49,11.04l-2.53,18.69c-44.68,6.61-94.06-10.96-116.35-57.3-.31-3.61,20.06-21.96,23.45-25.88,30.53,22.3,69.37,29.25,105.05,21.41v-.03Z"/>
  <path class="st7" d="M345.75,1313.38c23.66,13.44,51.35,14.09,75.75,2.69,1.06,1.29-1,33.49-1.8,35-4.16,7.84-31.28,14.23-39.15,11.53-3.46-1.19-15.12-14.64-21.19-18.02-4.06-2.26-9.03-4.17-13.63-4.27v-26.93h.01Z"/>
  <path class="st10" d="M541.78,688.52c-26.57,35.97-76.65,48.33-112.95,23.45-5.72-3.92-11.7-9.18-14.52-16.07,19.07.59,38.01,2.67,57.21,2.03,23.43-.77,47.43-3.72,70.27-9.43h-.01Z"/>
  <path class="st21" d="M226.68,332.96c-2.78.78-1.98-.61-2.74-1.7-6.29-8.98-11.3-23.51-13.53-34.61-5.95-29.57-1.76-57.01,13.3-82.2l20.87,15.64c-9.62,33.28-18.44,67.54-17.89,102.88h0Z"/>
  <path class="st27" d="M730.58,1434.58c.67,20.59-19.84,27.49-34.8,30.37-32.87,6.33-69.96-2.99-101.84-12.69-8.44-2.57-53.19-18.41-56.38-24.4-1.31-2.46-1.32-11.42-1.78-14.83,3.87,3.82,7.48,7.16,11.99,10.13,25.22,16.55,101.42,33.67,130.5,31.61,16.55-1.17,40.82-6.09,52.31-20.19Z"/>
  <path class="st7" d="M628.37,1320.13c-2.63,3.23-.22,18.96-1.26,20.13-.42.48-8.84,2.41-11.59,3.85-10.67,5.58-11.56,10.52-18.8,17.33-8.33,7.84-40.86-3.61-44.34-13.57-2.6-7.45.4-18.34-2.18-26.4,25.13,9.88,53.41,9.41,78.16-1.33h.01Z"/>
  <path class="st17" d="M246.37,1440.83c-3.37-3.84-5.53-8.89-3.45-14.32,31.17,23.7,74.38,22.3,110.51,17.33,28.35-3.91,61.31-11.12,84.92-29.47,2.03,13.27-11.46,16.98-20.46,20.85-42.77,18.38-107.25,31.61-151.76,16.46-6.29-2.14-15.12-5.56-19.76-10.85h0Z"/>
  <path class="st30" d="M873.75,1017.17c4,.16,11.62-7.54,14-7.97s11.87,14.56,14.19,17.35c9.31,11.23,26.97,27.01,27.73,43.03.37,7.99-2.83,9.36-9.4,7.81-8.32-1.97-25.63-30.64-32.17-39.38-2.48-3.31-16.15-17.88-14.35-20.85h0Z"/>
  <path class="st4" d="M109.63,999.14c1.73-1.64,1.71-5.76,5.53-4.73,1.71.47,12.05,9.71,11.71,11.23-16.42,14.44-28.54,33.79-41.49,51.86-9.42,8.08-23.64,4.48-15.57-10.71,6.05-11.39,30.21-38.54,39.82-47.66h0Z"/>
  <path class="st29" d="M559.82,1461.49c1.17-1.98-9.18-3.49-2.41-4.01,1.95.83,4.46.71,6.01,1.35"/>
  <path class="st20" d="M586.28,1468.25l-.7,1.02"/>
  <path class="st24" d="M556.2,1460.17"/>
  <path class="st32" d="M277.81,323.55c-4.04-.97-10.82-10.13-5.34-14.07,21.91-5.58,43.56-13.44,60.7-30.34,5.59-5.51,19.7-27.16,23.44-28.95,8.23-3.96,13.28,3.41,13.3,12.08.01,7.65-6.23,22.34-10.91,27.9-2.15,2.56-5.7,3.62-7.22,6.42,43.43,25.82,42.96,91.79,28.24,137.36l-8.98,18.88c9.13-11.77,37.04-15.68,46.31-4.08,10.92,13.64-19.93,7.62-24.09,8.12-20.19,2.42-28.67,32.68-10.27,43.84,6.72,4.08,15.83,4.03,23.37,3.14,9.36-1.1,16.79-7.38,26.01-6.56-6.04,37.3-62.03,31.24-72.39-.43-4-12.26-2.43-23.14,2.62-34.6-19.87,19.28-49.2,18.77-66.11-4.74-24.91-34.65-20.22-97.7-.02-133.97-5.45-.89-13.63,1.21-18.64,0h-.02Z"/>
  <path class="st32" d="M547.79,327.6c29.87,40.05,21.38,128.26-20.42,154.21-46.64,28.94-78.78-24.23-81.78-71.42-2.19-34.44,8.79-85.35,33.65-107.72-11.11-3.76-23.97-39.66-8.68-43.5,6.77-1.7,19.07,18.44,24.97,23.94,22.49,21.01,43.76,21.79,69.13,31.67,22.21,8.66-7.64,15.04-16.85,12.82h-.01Z"/>
  <path class="st2" d="M489.57,565.16c10.91,9.62,25.13,29.82,25.8,45.9.46,10.99-5.18,8.11-10.28,2.03-7.2-8.57-12.15-19.99-20.41-28.32-30.58-30.87-80.2-35.27-111.84-3.97-4.17,4.13-15.69,20.95-19.46,21.35-7.1.74.1-17.72,1.76-20.97,26.54-51.79,96.25-49.69,134.43-16.03h.01Z"/>
  <path class="st32" d="M787.13,483.81c-.63-.58-.38-11.14-7.58-15.1-8.76-4.82-19.05-.28-24.91,7.69,23.81,8.51,23.97,45.83,5.9,61.83-4.92,4.36-15.43,9.66-21.03,4.94-7.3-6.14,7.62-11.64,10.2-14.38,1.37-1.47,6.15-9.59,6.66-11.39,2.32-7.92,1.03-21.95-8.31-21.57-10.57.42-7.41,14.07-12.66,16.96-11,6.02-9.07-14.75-7.89-20.97,4.62-24.39,26.96-46.34,50.04-41.07,8.29,1.9,17.37,11.55,16.73,21.47-.19,3.02-3.55,14.95-7.17,11.61h.01Z"/>
  <path class="st11" d="M727.61,292.57c1.68-.44,3.32,2.1,3.87,3.72,2.69,7.89,3.54,20.17,5.47,28.89,1.94,8.71,5.04,17.99,6.54,26.34,2.81,15.74,2.13,22.89-9.32,7.74-11.45-15.15-17.46-41.07-10.17-59.94.61-1.58,2.42-6.44,3.61-6.75h0Z"/>
  <path class="st28" d="M759.45,291.9c.9-3.51,3.75-1.76,5.3.79,1.9,3.11,6.72,19.97,6.72,23.45v20.2c0,1.63-3.45,3.07-5.44.7-.77-.93-6.59-18.5-6.59-19.55,0-5.64-1.02-21.61,0-25.59Z"/>
  <path class="st19" d="M847.26,994.21c-.2-10.46-.02-23.9-2.77-33.95-1.78-6.56-7.05-11.57-8.07-18.56,22.02,2.88,31.63,39.69,10.84,52.51h0Z"/>
  <path class="st26" d="M177.39,934.97l-11.39,20.23c-2.98,8.93-3.21,18.36-4.2,27.62-.82,7.74-5.24,2.25-7.8-2.13-10.88-18.67,4.76-45.28,23.39-45.72h0Z"/>
  <path class="st7" d="M367.41,431.28c8.25-22.15-3.88-78.54-32.77-65.64-25.81,11.54-26.67,77.53.29,90.57l13.22,1.99c-17.79,8.59-34.98,4.28-45.45-14.4-17.61-31.43-15.42-81.73,2.41-112.6,8.33-14.45,16.7-14.71,28.95-22.52,1-.63,1.06-3,3.17-3.43,13.39-2.71,27.62,18.09,32.41,29.92,11.06,27.3,10.9,55.44,2.92,83.68-1.03,3.66-2.59,9.93-5.15,12.4h0Z"/>
  <path class="st0" d="M476.06,464.48c-27.88-32.04-21.14-98.93-2.6-134.6,2.48-4.77,9.36-16.75,13.89-18.1,5.65-1.7,19.15,6.96,25.83,9.45,10.75,4,18.42,2.53,26.14,12.47,27.59,35.45,13.45,149.69-40.26,143.38-7.07-.83-18.05-6.9-23.02-12.61h.01Z"/>
  <path class="st1" d="M493.35,368.3c43.4-10.02,40.44,93.96,3.33,93.95-22.34,0-27.62-38.13-25.72-57.09,1.21-12.19,10.72-34.17,22.39-36.87h0Z"/>
</svg>