<?xml version="1.0" encoding="UTF-8"?>
<svg id="Layer_1" xmlns="http://www.w3.org/2000/svg" version="1.1" viewBox="0 0 409.6 409.6">
  <!-- Generator: Adobe Illustrator 29.5.1, SVG Export Plug-In . SVG Version: 2.1.0 Build 141)  -->
  <defs>
    <style>
      .st0 {
        fill: #eaae4b;
      }

      .st1 {
        fill: #fec750;
      }

      .st2 {
        fill: #955a50;
      }

      .st3 {
        fill: #ae6e5a;
      }

      .st4 {
        fill: #4b3f4e;
      }

      .st5 {
        fill: #fefefd;
      }

      .st6 {
        fill: #814d51;
      }

      .st7 {
        fill: #fefdfe;
      }

      .st8 {
        fill: #bf816c;
      }

      .st9 {
        fill: #fefefe;
      }
    </style>
  </defs>
  <path class="st0" d="M173.51,350.21c-6.33,7.53-16.01,5.25-24.33,6.97,1.35,5.75,6.88,14.32.58,18.35h-2.9c-3.28-.31-4.24-2.84-5.19-5.92l-2.46-9.22c.04-1.66-3.91-1.21-4.08-.76l.17,10.42c.1,3.77-1.55,4.95-4.68,5.48h-2.32c-3.59-.61-4.75-1.78-3.48-3.48l-1.16-.72v-11.36l1.16-.9-.81,1.26c-4.07.76-6.55,4.28-7.46,10.55-.89,2.62-1.76,4.3-4.48,4.64h-2.9c-2.2-1.88-3.53-2.92-3.11-6.2,1.21-9.69,6.16-18.89,15.64-20.31,8.27-1.24,17.61-.95,26.01-1.97l13.62-1.89c3.69-.44,9.55,2.18,12.17,5.06h0Z"/>
  <path class="st0" d="M300.4,375.52h-2.9c-2.72-.34-3.59-2.03-4.48-4.64-.92-6.31-3.4-9.83-7.46-10.55l-.81-1.26,1.16.72v11.36l-1.16.9c1.43,1.61.28,2.77-3.48,3.48h-2.32c-3.15-.52-4.78-1.77-4.68-5.48l.17-10.42c-.16-.46-4.13-.9-4.08.76l-2.46,9.22c-.95,3.08-1.9,5.61-5.19,5.92h-2.9c-6.3-4.03-.77-12.6.58-18.35-8.32-1.71-18,.56-24.33-6.97,2.61-2.88,8.47-5.5,12.17-5.06l13.62,1.89c8.4,1.02,17.74.73,26.01,1.97,9.47,1.42,14.43,10.63,15.64,20.31.41,3.28-.91,4.32-3.11,6.2h0Z"/>
  <path class="st5" d="M112.1,375.52"/>
  <path class="st5" d="M124.84,359.07v12.97"/>
  <path class="st3" d="M148.02,64.22c7.27-.41,15.64,3.94,22.18,7.64,12.43,7.03,21.44,16,28.56,28.58,3.66,6.35,8.31,6.64,11.99.15,7.23-12.85,16.41-21.91,29.12-29,6.41-3.57,14.61-7.81,21.71-7.37.09-.02.97.64,1.84.47,21.73-4.41,43.93-3.15,65.49-8.24,2.72-.64,6.37-3.08,9-1.88,4.22,1.94,1.79,7.08.6,10.45-2.43,6.85-7.52,14.35-12.6,19.14-3.12,2.94-11.46,7.11-11.64,11.4-.14,3.68,4.96,7.84,6.98,10.75,6.53,9.45,11.52,20.14,13.74,31.83,1.15,6.09,1.08,11.95,2.5,17.84-.3,5.97-.81,13.54-2.77,20.87-8.26,30.91-35.16,55.21-64.44,55.05l-1.93,1.04c-12.76-.14-24.32-2.51-35.72-9.14-3.48-2.02-15.1-9.87-16.03-13.27-.12-.45-.17-.92-.2-1.4-.78-1.32-.8-3.06-.03-5.21-2.35-17.22-21.16-16.86-23.07.26.75,2.05.72,3.7-.07,4.94-.03.48-.07.95-.2,1.4-.93,3.4-12.55,11.25-16.03,13.27-11.4,6.63-22.96,8.99-35.72,9.14l-1.93-1.04c-35.32.23-67.92-35.88-66.71-75.05l-.5-.87c1.42-5.88,1.35-11.74,2.5-17.84,2.22-11.69,7.2-22.37,13.74-31.83,2.02-2.92,7.13-7.08,6.98-10.75-.17-4.28-8.52-8.46-11.64-11.4-5.08-4.79-10.18-12.29-12.6-19.14-1.2-3.36-3.61-8.51.6-10.45,2.62-1.21,6.27,1.23,9,1.88,21.56,5.1,43.76,3.83,65.49,8.24.87.17,1.75-.49,1.84-.47h-.01Z"/>
  <path class="st6" d="M129.48,233.79l1.2,3.18c-.22,45.96,26.66,106.37,74.21,106.3,47.74-.07,74.32-60.86,74.06-106.78l1.17-2.7,1.37-.65c11.02,1.46,22.1,2.7,33.24,3.74l2.48,1.34c-2.22,46.45-29.87,88.95-68.95,106.93-3.87,1.78-8.14,3.78-12.17,5.06-19.34,6.17-43.22,6.17-62.58,0-4.03-1.28-8.29-3.28-12.17-5.06-39.06-17.97-66.74-60.5-68.95-106.93l2.48-1.34c11.13-1.03,22.21-2.28,33.24-3.74l1.37.65h0Z"/>
  <path class="st2" d="M261.58,64.22c-14.88,3.9-31.53,12.55-42.01,25.3-2.91,3.53-9.18,15.22-12.12,16.51-1.73.75-3.1.78-4.87.17-3.25-1.12-9.49-12.98-12.54-16.67-10.55-12.75-27.09-21.39-42.01-25.3,35.54-16.82,78.03-16.82,113.56,0h0Z"/>
  <path class="st2" d="M337.48,155.96c2.04,8.46,5.29,17.1,7.37,25.8,2.11,8.88,6.22,25.9,5.92,34.57-.04,1.2-1.67,4.79-2.56,4.79h-11.3v11.7c0,.21-.9,2.23-1.14,2.54-2.04,2.61-13.04,1.77-16.55,2.2-.64-.2-1.67.63-2.01.63-11.62-.19-25.37-2.7-37.08-4.43-2.72,1.58-7.65.39-9.85-1.9l14.73-3.22c29.11-8.85,50.22-37.39,51.32-70.53.04-1.22-.59-2.54,1.16-2.19v.02h0Z"/>
  <path class="st2" d="M72.12,155.96c1.75-.36,1.12.97,1.16,2.19,1.1,33.15,22.21,61.68,51.32,70.53l14.73,3.22c-2.2,2.29-7.13,3.47-9.85,1.9-11.71,1.73-25.46,4.24-37.08,4.43-.33,0-1.35-.82-2.01-.63-3.51-.44-14.51.4-16.55-2.2-.25-.32-1.14-2.33-1.14-2.54v-11.7h-11.3c-.89,0-2.53-3.59-2.56-4.79-.3-8.66,3.8-25.71,5.92-34.57s5.32-17.34,7.37-25.8v-.02h0Z"/>
  <path class="st8" d="M216.39,209.11c9.91,10.92,23.54,18.85,37.54,21.33,5.47.97,10.86.67,16.35,1.45,3.3.47,6.53,1.41,9.85,1.9.09,35.28-12.28,76.01-39.21,97.33-30.96,24.52-67.22,13.66-89.08-18.29-15.32-22.4-22.29-51.26-22.35-79.04,3.32-.49,6.55-1.43,9.85-1.9,5.48-.78,10.87-.48,16.35-1.45,14-2.47,27.62-10.41,37.54-21.33,1.04-.74,1.48-.27,1.94.81l7.03,20.54c1.04,4.14,3.83,4.69,5.11.33l7.26-21.09c.38-.97.93-1.07,1.83-.59h0Z"/>
  <path class="st0" d="M141.52,103c38.09-1.92,62.42,44.64,41.5,79.48-18.57,30.93-60.26,31.06-78.83.13-20-33.32,1.12-77.8,37.33-79.62Z"/>
  <path class="st0" d="M263.78,103c37.94-1.91,62.49,44.12,41.85,79.24-17.09,29.07-55.69,31.67-75.9,5.02-24.66-32.51-4.54-82.32,34.05-84.26Z"/>
  <path class="st0" d="M216.39,209.11c-.07.22-.78.88-1.04,1.69-1.06,3.42-7.09,22.48-8.58,23.56-1.27.93-2.67.91-3.94,0-1.49-1.08-7.52-20.14-8.58-23.56-.25-.81-.97-1.47-1.04-1.69-.43-1.47-1.17-4.56-1.21-6.01-.16-5.8,7.81-13.8,13.09-13.65,4.99.13,12.65,8.15,12.51,13.65-.04,1.45-.78,4.54-1.21,6.01h0Z"/>
  <path class="st1" d="M138.62,118.81c42.53-5.58,51.6,59.51,13.91,70.24-46.55,13.25-57.39-64.53-13.91-70.24Z"/>
  <path class="st1" d="M260.86,118.8c26.2-3.59,45.8,23.68,35.18,50.43-11.67,29.39-51.62,27.44-61.13-2.8-6.52-20.73,5.74-44.86,25.96-47.63h0Z"/>
  <path class="st4" d="M140.33,128.91c18.03-3.11,23.47,15.09,22.16,31.16-2.17,26.57-34.84,25.49-37.6,2.49-1.62-13.51.59-31.09,15.44-33.65Z"/>
  <path class="st4" d="M263.18,128.92c9.91-1.47,20.19,6.17,21.53,17.29,1.64,13.69-.75,31.67-15.93,33.74-27.51,3.76-29.54-47.47-5.6-51.03Z"/>
  <path class="st9" d="M140.68,151.95c-6.13-7.12,4.16-17.92,10.46-10.47,6.23,7.35-4.27,17.65-10.46,10.47Z"/>
  <path class="st7" d="M263.51,140.99c6.49-6.66,16.6,4.24,9.59,11.42-6.56,6.73-16.25-4.57-9.59-11.42Z"/>
</svg>