<?xml version="1.0" encoding="UTF-8"?>
<svg id="Layer_1" xmlns="http://www.w3.org/2000/svg" version="1.1" viewBox="0 0 409.6 409.6">
  <!-- Generator: Adobe Illustrator 29.5.1, SVG Export Plug-In . SVG Version: 2.1.0 Build 141)  -->
  <defs>
    <style>
      .st0 {
        fill: #fe9055;
      }

      .st1 {
        fill: #fea964;
      }

      .st2 {
        fill: #231f20;
      }

      .st3 {
        fill: #fec778;
      }
    </style>
  </defs>
  <path class="st2" d="M191.38,186.74l1.53-.31c5.82-7.09,14.33-7.14,20.06.06l1.48.25c-.03-.65-.03-1.28.06-1.91s.18-1.21.46-1.67c27.76-45.69,63.53-89.41,116.69-100.12,14.73-2.97,42.54-4.42,44.9,16.16v9.89c-.89,14.45-3.06,28.75-6.25,42.66-4.2,18.41-11.89,41.02-30.73,47.68-3.73,1.32-9.72,3.3-12.87.74-1.42,2.94-8.32,1.29-11.19,0,8.29,3.04,15.61,11.99,20.8,19.42,31.49,44.97,7.77,98.33-34.8,123.28-13.13,7.69-43.05,14.62-56.43,6.14-12.65-8.02-29.15-46.76-33.87-61.81-1.36-4.34-2.57-8.23-2.19-12.88-1.64-1.17-2.32-3.1-2.07-5.77l.08-22.36c-2.66,1.01-5.57,1.01-8.25,0l.06,24.74c-.03,1.54-.42,3.2-2.04,3.39-1.48,11.97-6.32,23.71-10.9,34.82-6.53,15.81-17.69,42.31-36.56,43.68-64.4,4.67-121.74-74.11-79.98-133.11,5.24-7.4,12.81-16.18,20.96-19.52-3,1.41-9.18,2.82-11.19,0-3.19,2.56-9.22.56-12.97-.8-19.3-6.94-27-30.71-31.13-49.6-3.02-13.81-5.07-27.74-5.75-42.1v-9.18c.38-4.16,1.31-6.42,4.14-9.31,13.53-13.88,46.95-6.42,62.83.31,41.94,17.77,71.01,54.85,94.61,93.68.28.46.36,1.05.45,1.67s.08,1.26.06,1.91h0Z"/>
  <path class="st1" d="M179.85,230.52c-19.03,17.7-38.44,35.04-54.92,55.44-6.23,7.71-11.42,16.86-17.37,24.28-6.02,7.52-15.48,9.12-21.31.42-8.16-12.16,5.87-20.87,12.56-28.59,10.82-12.47,19.91-26.55,24.75-42.72,18.32-5.36,37.38-7.18,56.29-8.83h0Z"/>
  <path class="st1" d="M225.97,230.52c18.93,1.54,37.96,3.48,56.29,8.83,4.82,16.17,13.93,30.28,24.75,42.72,3.78,4.35,13.56,12.19,14.43,17.46,2.48,15.08-13.14,23.25-23.18,10.72-5.94-7.42-11.15-16.56-17.37-24.28-16.46-20.42-35.89-37.73-54.92-55.44Z"/>
  <path class="st2" d="M191.38,186.74c1.14-2.17,1.7-5.41,1.04-7.78l-39.17-81.38c-2.64-6.28,3.93-11.33,9-7.07,10.44,21.34,20.94,42.69,31.06,64.19,1.82,3.86,4.62,12.35,6.81,15.35.58.8,5.01.75,5.57,0,.7-.95,1.37-4.02,2.06-5.47,10.72-22.56,22.01-49.83,34.15-71.07.56-.97,1.42-2.99,2.19-3.55,4.62-3.34,10.85,1.42,8.69,7.11l-39.38,81.86c-.66,2.38-.1,5.62,1.04,7.78-1.82,3.14-3.07-.59-5.2-2-4.43-2.94-7.71-3.15-12.22-.26-2.33,1.49-3.85,5.33-5.64,2.26h0Z"/>
  <path class="st3" d="M181.89,203.67c-2.97-.74-6.12-.39-9.08-.78-16.71-2.22-30.73-11.81-47.64-13.95-12.4-1.57-24.52-.27-36.92-.4-7.11-.8-8.42-11.47-1.81-13.97,4.44-1.68,15.42-2.44,20.47-2.69,8.75-.43,33.95-.43,41.02,3.25,4.48,2.33,12.03,8.63,16.25,12.04,6.23,5.02,12.51,10.35,17.7,16.51h0Z"/>
  <path class="st3" d="M223.94,203.67c5.2-6.17,11.47-11.49,17.7-16.51,4.21-3.4,11.77-9.69,16.25-12.04,7.06-3.69,32.27-3.69,41.02-3.25,5.05.25,16.03,1.01,20.47,2.69,6.6,2.49,5.3,13.17-1.81,13.97-12.4.13-24.52-1.18-36.92.4-16.9,2.15-30.94,11.74-47.64,13.95-2.96.39-6.1.04-9.08.78h0Z"/>
  <path class="st1" d="M181.88,244.63l-51.54,87.9c-7.61,7.62-19.04,1.42-16.79-9.72.39-1.94,6.2-10.94,7.69-13.18,16.29-24.35,39.42-45.46,60.65-65.01Z"/>
  <path class="st1" d="M223.94,244.63c21.2,19.53,44.37,40.69,60.65,65.01,1.49,2.24,7.3,11.24,7.69,13.18,2.25,11.15-9.18,17.35-16.79,9.72l-51.54-87.9Z"/>
  <path class="st1" d="M120.84,159.21c.16,1.23-1.54.66-2.37.7-16.6.63-30.43,1.72-46.61,5.85-5.8,1.48-14.18,6.97-18.74.05s-1.65-16.8,4.32-21.44c8.21-6.38,17.27-2.23,26.11.35,12.8,3.73,25.06,9.18,37.3,14.49h0Z"/>
  <path class="st1" d="M284.98,159.9l9.71-5.07c9.22-4.02,33.74-13.69,42.85-14.03,10.36-.4,18.75,9.18,17,19.85-2.52,15.26-18.69,5.23-28.15,3.11-13.44-3-27.68-3.56-41.39-3.86h0Z"/>
  <path class="st0" d="M173.06,178.96c-12.05-8.96-24.25-17.7-37.28-25.08-4.04-2.29-14.73-6.39-17.32-8.8-3.1-2.89-9.6-17.32-9.13-21.48.57-5.11,5.63-7.04,9.98-5.53,2.46.86,11.94,9.46,14.43,11.8,11.89,11.15,23.81,25.42,33.1,38.97.76,1.11,6.66,9.63,6.22,10.11h0Z"/>
  <path class="st0" d="M232.76,178.96c-.43-.48,5.46-8.99,6.22-10.11,9.29-13.56,21.21-27.82,33.1-38.97,2.49-2.34,11.97-10.95,14.43-11.8,4.35-1.51,9.41.42,9.98,5.53.47,4.16-6.03,18.58-9.13,21.48-2.59,2.41-13.28,6.51-17.32,8.8-13.03,7.38-25.24,16.13-37.28,25.08h0Z"/>
  <path class="st3" d="M192.05,250.98c-2.76,11.28-6.42,22.44-10.33,33.36-4.34,12.09-17.08,46.06-26.26,53.15-6.43,4.96-12.17-1.72-9.66-8.65,14.27-23.62,27.73-47.78,41.91-71.45,1.26-2.1,2.65-4.74,4.35-6.41h0Z"/>
  <path class="st3" d="M213.77,250.98c1.7,1.67,3.09,4.32,4.35,6.41,14.19,23.66,27.65,47.82,41.91,71.45,2.51,6.93-3.24,13.61-9.66,8.65-9.18-7.09-21.92-41.06-26.26-53.15-3.92-10.91-7.58-22.07-10.33-33.36h0Z"/>
  <path class="st1" d="M110.67,242.52c-2.38,6.21-5.56,12.09-9.22,17.58-3.17,4.77-13.8,18.94-18.97,19.79-6.35,1.03-13.2-1.83-14.37-8.95-1.91-11.55,6.54-14.35,14.78-18.16,8.96-4.15,18.45-7.16,27.78-10.26h0Z"/>
  <path class="st1" d="M295.15,242.52c9.33,3.1,18.82,6.1,27.78,10.26,8.25,3.82,16.68,6.62,14.78,18.16-1.18,7.12-8.02,9.98-14.37,8.95-5.17-.85-15.8-15.02-18.97-19.79-3.65-5.49-6.83-11.37-9.22-17.58h0Z"/>
  <path class="st0" d="M185.87,215.07c.13.11.89,3.32.76,3.43-13.93.86-27.86,1.75-41.63,4.08-12.59-12.19-31-12.48-47.21-12.89,4.02-2.65,11.14-8.02,15.57-9.21,14.4-3.85,44.31,12.94,62.08,14.49,1.77.15,9.95-.33,10.42.1h0Z"/>
  <path class="st0" d="M308.04,210.03c-13.34-.32-28.82.36-40.7,7.41-1.61.96-6.1,5.06-6.51,5.14-2.2.44-15.25-2.32-18.92-2.65-7.54-.69-15.18-.69-22.71-1.42.19-.77.46-3.39,1.09-3.56,2.01-.57,7.38.27,10.08.04,17.76-1.56,47.7-18.33,62.08-14.49,4.25,1.13,12.05,6.54,15.58,9.54h0Z"/>
  <path class="st0" d="M127.63,224.87c1.16,1.12-.25,1.2-.99,1.42-5.71,1.75-12.12,2.77-18,4.57-8.88,2.71-17.54,6.02-26.22,9.32-12.47-2.75-3.57-14.05,3.84-17.09s20.94-2.02,28.73-.98c1.6.21,12.16,2.29,12.63,2.74h0Z"/>
  <path class="st0" d="M278.19,226.27c-.28-1.82.18-1.1.96-1.48,7.51-3.62,32.27-4.81,39.92-1.89,7.56,2.88,17.05,14.41,4.32,17.29-14.74-5.59-29.64-11.27-45.21-13.92h0Z"/>
  <path class="st2" d="M196.81,274.28c0-1.05.7-2.42.7-3.85.03-8.83-.08-17.69-.03-26.51,3.19,2.1,7.65,2.1,10.83,0,.65,9.77-1.15,20.86.69,30.36-1.25,5.01-.67,10.99-.68,16.24l-1.6.19c-2.2-2.65-5.44-2.65-7.65,0l-1.6-.19c-.04-5.33-.69-11.22-.68-16.24h0Z"/>
  <path class="st0" d="M101.86,138.01c-1.08.81-22.32-7.25-25.57-7.61-4.45-2.34-4.91-8.06-.45-10.64,3.59-2.08,13.39-3.62,17-1.64,6.11,3.33,5.51,14.26,9.02,19.9Z"/>
  <path class="st0" d="M303.97,138.01c3.51-5.63,2.91-16.57,9.02-19.9,4.09-2.23,17.61-.33,19.63,4.55,1.4,3.4-.26,6.04-3.08,7.73-3.25.37-24.49,8.43-25.57,7.61Z"/>
  <path class="st0" d="M197.49,290.53c3.09-4.31,7.77-4.31,10.85,0,0,4.86.88,18.46-.14,22.1-1.32,4.71-9.76,4.57-10.7-.57s.03-15.71-.02-21.52Z"/>
</svg>