<?xml version="1.0" encoding="UTF-8"?>
<svg id="Layer_1" xmlns="http://www.w3.org/2000/svg" version="1.1" viewBox="0 0 1536 1024">
  <!-- Generator: Adobe Illustrator 29.5.1, SVG Export Plug-In . SVG Version: 2.1.0 Build 141)  -->
  <defs>
    <style>
      .st0 {
        fill: #f5e93c;
      }

      .st1 {
        fill: #f3d42a;
      }

      .st2 {
        fill: #f5ea3e;
      }

      .st3 {
        fill: #e6961a;
      }

      .st4 {
        fill: #f8ed3c;
      }

      .st5 {
        fill: #e55345;
      }

      .st6 {
        fill: #f7ed3e;
      }

      .st7 {
        fill: #f3b427;
      }

      .st8 {
        fill: #e59519;
      }

      .st9 {
        fill: #fbe52b;
      }

      .st10 {
        fill: #f8eb3b;
      }

      .st11 {
        fill: #f9ef41;
      }

      .st12 {
        fill: #020202;
      }

      .st13 {
        fill: #f6d828;
      }

      .st14 {
        fill: #e59619;
      }

      .st15 {
        fill: #e5951a;
      }

      .st16 {
        fill: #f8ec3e;
      }

      .st17 {
        fill: #020302;
      }

      .st18 {
        fill: #b2ed99;
      }

      .st19 {
        fill: #f7ed3f;
      }

      .st20 {
        fill: #faf343;
      }

      .st21 {
        fill: #e65445;
      }

      .st22 {
        fill: #f9ec3d;
      }

      .st23 {
        fill: #f6ec3f;
      }

      .st24 {
        fill: #f7ec3f;
      }

      .st25 {
        fill: #f2b326;
      }

      .st26 {
        fill: #f3d229;
      }

      .st27 {
        fill: #f9f040;
      }

      .st28 {
        fill: #f8e02e;
      }

      .st29 {
        fill: #f9ef3f;
      }

      .st30 {
        fill: #f7ee3f;
      }

      .st31 {
        fill: #759f64;
      }

      .st32 {
        fill: #f8ed3e;
      }

      .st33 {
        fill: #040504;
      }

      .st34 {
        fill: #fefefe;
      }

      .st35 {
        fill: #f7ec40;
      }

      .st36 {
        fill: #f9ec3b;
      }

      .st37 {
        fill: #f9ed3b;
      }

      .st38 {
        fill: #f7ec3c;
      }

      .st39 {
        fill: #e4951a;
      }

      .st40 {
        fill: #f7ed3d;
      }

      .st41 {
        fill: #e5961a;
      }
    </style>
  </defs>
  <path class="st12" d="M1208.34,385.41c-70.14-58.1-179.63-5.72-172.13,96.01,3.94,53.47,57.86,93.44,99.93,60.34,14.03-11.04,25.97-43.41,8.42-56.02-10.62-7.62-23.95,9.14-27.85-4.85-3.69-13.23,8.95-26.67,20.15-28.32,49.55-7.29,51.38,70.75,40.77,106.87-20.49,69.75-88.63,111.18-152.97,103.68-1.14-.42-9.23-20.39-10.92-23.64-11.94-22.97-29.53-42.51-48.51-58.3,4.68-20.04,15.35-70.59-7.5-80.52-22.32-9.7-49.12,17.08-66.01,30.7,1.61-20.69,8.06-68.96-13.86-78.95-26.43-12.04-56.25,31.32-71.41,50.25-.66.82.06,2.38-2.54,1.57,3.15-29.76,6.11-107.43-40.25-81.01-17.21,9.81-33.15,33.69-43.96,51.06-.52.83-.75,3.59-2.47,1.61-.6-.69-4.59-15.74-5.25-18.23-13.5-50.59-16.33-117.94-38.24-163.47-1.52-3.16-7.48-10.92-7.68-12.54-.44-3.43,6.53-27.83,8.13-32.87,14.97-47.25,44.17-72.61,87.68-83.96,36.3-9.47,108.76-3.57,84.46-71.95-16.04-45.13-57.47-36.42-90.19-21.93-53.97,23.9-105.39,54.43-137.2,110.4-6.06,10.66-10.53,21.97-15.78,33.12l-19.97-8.5c4.87-32.69,26.45-53.64,47.39-74.58,2.52-3.91.55-9.82-3.33-11.24-11.12-4.07-28.57,19.3-36.69,26.55,5.78-36.01,27.71-103.47,7.58-136-10.26-16.58-29.86-12.05-40.91,1.06-20.7,24.56-29.79,73.21-30.09,105.93-.07,7.93,1.38,15.04,1.15,22.87-14.58-14.02-32.72-25.43-52-29.22-11.21-2.2-51.75-6.22-48.01,16.23.99,5.93,22.77,15.21,28.52,18.95,15.31,9.97,27.46,23.91,39.26,38.42-27.23-10.29-59.81-16.18-87.27-3.71-6.66,3.02-16.4,8.23-11.51,17.76,5.18,10.1,19.32-1.85,27.4-3.83,18.79-4.61,49.79-.8,67.34,8.45,1.02.53,4.54,1.98,3.49,3.54-24.68,9.28-46.19,25.51-65.63,44.44-4.24-3.37-7.95-7.75-12.39-10.93-53.44-38.27-116.84,13.71-104.54,81.44,1.55,8.48,5.33,15.46,8.61,23.11-45.87,4.36-92.6,30.66-115.05,76.42-8.79,17.92-18.81,50.23,10.04,50.67,10.54.16,30.58-5.55,41.87-7.89,21.45-4.44,42.73-10.32,64.25-14.39-21.91,30.43-42.71,76.35-33.02,116.13,6.96,28.6,33.56,43.09,58.56,32.4,27.23-11.65,29.4-52.66,47.25-74.55,11.58,12.2,30.73,14.92,46.12,16.01-5.6,21.13-9.85,42.91-12.09,64.86-5.97,58.38-3.83,120.24,30.93,167.58-3.52,47.95-6.54,96.12-14.55,143.4-20.26.7-38.29,8.83-50.77,26.89-9.05,13.1-21.3,43.63-8.56,57.16,9.5,10.08,45.43,7.11,58.99,7.3,5.44.07,11.9,2.44,17.79,1.35l59.78-2.59c7.65,18.74,30.48,14.08,45.8,14.8,106.14,4.97,221.44,3.64,327.77,0,34.17-1.17,64.14-4.35,97.84-8.59,20.44-2.57,45.58-3.27,65.04-9.22,5.17-1.58,18.56-5.45,12.23-13.59-5.28-6.79-47.74-12.25-57.26-12.92-7.91-.55-15.98.38-23.89-.01,2.7-20,6.33-39.88,8.75-59.95,3.07-25.49,2.93-50.4,9.85-75.37,3.58-12.93,10.07-24.28,13.75-37.13,109.7,1.05,203.27-74.21,233.82-191.24,19.6-75.07,12.09-177.16-48.46-227.32ZM577.97,922.93c-3.02,9.4-14.64,22.43-25.51,16.32-3.01-1.69-4.98-4.17-6.19-7.1-.77-.95-1.22-2.21-1.12-3.71-1.79-8.65.89-19.61,2.3-26.62,3.58-17.84,9.36-35.27,9.56-53.62.07-6.44,10.07-6.44,10,0,0,.09,0,.18,0,.27,1.71.34,3.26,1.45,3.83,3.4,3.5,11.98,6.27,24.21,7.94,36.59,1.5,11.15,2.72,23.56-.79,34.47ZM773.82,906.53c-6.2,16.59-25.7,17.21-38.33,26.48-6.41,4.71-10.82,11.19-12.87,18.82-2.02,7.51-2.95,15.26-5.15,22.73-4.1,13.91-12.91,29.16-29.79,24.46-3.31-.92-4.37-4.47-2.99-7.34,18.2-37.97,20.28-82.08,20.32-123.48,0-1.68.68-2.92,1.69-3.72.52-.47,1.17-.86,1.98-1.1,7.44-2.25,16.02-1.55,23.64-.92,8.5.7,17.4,1.67,25.54,4.38,16.53,5.5,21.74,24.25,15.97,39.69ZM899.1,929.48c-8.26,9.69-22.09,10.8-32.58,17.03-3.34,1.99-7.41-.59-7.52-4.32-.79-26.04,9.73-50.93,9-77-.08-2.77,1.72-4.34,3.81-4.73,1.4-1.39,3.52-1.96,5.71-.59,7.69,4.79,16.05,9.88,21.02,17.71,4.59,7.24,5.21,16.21,5.4,24.55.21,9.21,1.56,19.81-4.85,27.34Z"/>
  <path class="st7" d="M631.63,192.34c2.54-1.26,3.57.16,2.87,3.04-5.09,9.97-9.36,20.51-13.39,31.15-1.71,4.53-9.4,30.38-9.24,34.4.7,17.58,16.46,27.52,30.86,28.29,3.91-18.08,8.93-35.82,14.79-53.39.99-2.96,5.62-16.63,6.89-17.19,2.37-1.05,3.08-1.01,2.78,2.05-5.26,11.32-10.3,27.43-13.63,39.74-2.2,8.13-8.88,33.64-6.98,40.46,2.74,9.83,12.2,1.9,12.81,2.4.68.56,5.86,14.93,6.68,17.26,9.09,33.91,15.36,69.99,21.15,105.39,3.11,22.8,9.03,43.56,17.75,62.28,6.65,13.14,20.16,25.26,32.23,32.05,13.27,9.42,36.83,15.06,55.41,18.65,49.84,7.12,99.91,18.01,144.64,42.99,39.46,24.74,72.23,68.12,81.13,118.35,5.45,39.08-.81,77.26-16.66,113.32v2.57c-.4.94-1.5,3.57-2.23,3.7-7.38,18.34-11.8,38.16-13.25,59.45-2.26,36.83-7.58,72.81-15.94,107.95-2.21,8.27-6.67,11.65-14.01,12.76-15.32,2.31-30.99,2.78-46.58,2.91-.46-3.36-.17-6.86.87-10.48,1.55-4.66,11.65-21.48,9.53-24.73-4.33-6.64-15.32,8.66-17.31,12.4-3.73,6.29-6.69,13.69-8.89,22.19-6.9,1-15.08.98-22.23,0,.48-5.1,1.96-10.44,4.45-16.03,1.72-3.32,15.49-20.52,5.09-19.74-9.89.74-22.29,25.29-22.98,35.63-12.17-1.29-19.36,2.4-13.76-13.41,7.81-22.08,20.72-37.68,42.35-41.79,11.99-2.28,17.69,2.86,22.97-12.74,4.73-13.99,8.12-40.7,5.86-55.28-4.17-26.83-38.76-35.04-56.93-46.57-48.12-30.53-56.82-94.73-24.16-143.11,8.02-11.88,18.25-18.24,25.63-27.66,4.74-6.06,1.32-11.38-4.9-9.87-12.45,3.03-36.39,33.56-42.49,46.05-15.71,29.28-18.03,72.99-3.33,103.56,4.88,10.72,13.35,20.7,21.09,28.97.02,1.89-21.52,6.23-24.43,6.78-33.07,3.95-67.5,7.12-101.63,4.31-.13-13-.33-25.94-.62-38.83-.34-1.11-.63-2.22-.73-3.36-2.71-30.84-5.81-56.76-10.98-87.24-.02-.12,1.5,1.73-.51.6-1.04-.23-1.52-2.92-2.96-3.51-3.16-1.29-7.69.03-8.15,4.18.9,14.2,3.3,28.33,4.44,42.47,4.18,71.13,5.62,144.7-11.11,213.28-1.95,7-7.95,28.75-13.34,32.05-18.78,2.03-37.63,3.02-56.55,3,1.41-5.92,2.84-11.85,4.32-17.79,2.24-5.51,16.99-27.9,1.16-21.51-6.26,2.53-13.27,21.27-14.5,21.51-1.91,5.32-3.77,10.66-5.56,16.03-.11.64-.22,1.14-.34,1.14-7.73.23-16.17-.13-23.56-1.14-2.13,1.73-2.18-1.36-1.63-3.7,1.91-5.88,3.75-11.63,5.52-17.26,1.77-3.92,13.03-18.91,4.02-18.47-7.6.38-14.13,11.27-17.19,18.03-2.1,4.63-5.14,18.56-6.24,20.2-1.94,2.88-15.17,1.44-16.14-4.4-2.32-14.04,13.08-38.99,23.44-46.68,8.35-6.21,23.74-7.93,28.02-11.74,1.55-1.38,1.58-5.23,3-5.01.72-26.59-.39-53.71-3.33-81.37-4.81-40.94-10.92-81.37-18.35-121.29-.88-3.67-1.99-7.01-3.88-6.93-1-.17-2.05-1.44-3.83-1.22s-2.65,1.68-3.95,2.45c-2,1.1-2.28,5.62-.84,13.56,3.79,27.04,7.03,54.15,9.73,81.34-10.62-4.51-20.99-8.6-31.11-12.29-30.88-15.48-62.68-41-76.69-76.44-14.83-47.44-13.42-97.19-6.43-146.73.58-4.12,7.31-41.86,10.26-44.95.88-.92,1.89-1.32,3.04-1.65,10.07-1.32,18.53-4.68,25.36-10.09,4.61-4.46,17.22-12.86,12.79-20.97-3.65-6.69-15.93,6.13-20.57,8.64-22.58,9.02-53.67,10.03-75.3-4.26-1.39-.92,5.29-9.28,6.39-10.53,5.72-5.69,12.82-11.09,20.02-14.16,16.02-6.81,34.96-1.25,33.32-28.35-.58-9.55-7.77-21.47-14.42-27.18-1.9-1.63-9.88-5.76-10.03-6.75-16.06-8.17-38.52-6.04-56.63-3.17-44.66,7.07-89.02,16.98-133.63,27.09-11.79,2.55-23.56,4.95-35.51,6.17-1.53.16-1.22-8.81-.95-10.36,5.47-23.42,30.27-50.13,48.9-61.64,17.68-8.15,36.7-16.1,56.32-19.31,25.57-3.78,50.41-9.81,75.3-17.1.11-.03-1.55,1.7-.48-.57.08-.47,4.43-4.06,5.78-6.53,2.77-5.07,4.11-12.86,6.6-18.57,16.32-37.44,43.84-72.7,78.75-89.56,35.38-14.08,72.45-14.54,107.8,0,.8.43,4.44,2.77,4.47,3.19-4.61,7.26-1.94,34.98,10,27.03,2.23-1.48,8.48-29.89,10.26-35.46,3.66-11.43,8.5-22.63,14.17-32.98l-.02.03Z"/>
  <path class="st25" d="M1182.88,389.59c21.32,10.55,38.41,31.46,48.9,54.24,29.07,72.7,20.14,154.28-13.34,223.14-20.54,39.32-49.35,68.95-85.58,90-31.64,15.58-66.39,29.15-102.15,27.97,8.45-33.55,8.93-68.72,1.3-102.53,11.46-.03,23.14-.86,34.49-2.46.08-.01-1.11.33-1.43-.65,14.56-3.58,28.92-7.03,42.63-13.74,58.58-28.67,100.78-98.97,89.32-171.47-6.12-38.76-34.41-71.94-71.92-55.79-18.93,8.15-32.33,35.88-19.4,55.99,7.99,12.42,20.08,8.93,31.6,6.24,2.9,27.39-25.03,39.57-45.6,33.95-55.55-15.18-47.64-98.64-9.97-132.57,29.3-24.18,66.25-27.08,101.14-12.33h.01Z"/>
  <path class="st15" d="M426.03,969.02c1.34-3.48,12.71-20.43,2.87-19.74-12.41.87-20,37.93-21.92,39.28-1.66,1.17-9.2.02-10.41-2.27-3.41-6.42,3.57-22.32,6.77-28.27,5.69-10.6,13.66-19.3,24.32-23.57,22.48-9,28.82,4.01,34.7-28.08,7.09-38.74,8.69-79.36,12.59-118.58,22.77,21.7,49.84,38.13,78.9,46.86-2.03,11.99-5.47,23.87-7.78,35.74-6.61,37.99-15.13,75.38-25.56,112.19-1.62,3.25-2.25,4.94-5.56,6.16-19.02,1.66-38.11,2.27-57.27,1.82,1.15-6.46,2.46-12.82,3.92-19.08,1.63-4.19,13.43-21.14,3.66-21.95-4.72-.39-8.04,5.67-10.33,9.62-5.57,8.77-9.65,18.64-12.23,29.59-.1.66-.21,1.17-.33,1.17-6.77.23-14.36-.17-20.79-1.17.98-6.47,2.46-13.04,4.45-19.73h0Z"/>
  <path class="st3" d="M667.2,220.69c-1.15-2.81-2.3,2.08-2.55,2.72-8.84,22.03-15.55,45.03-19.68,68.79-12.89-2.83-25.23-3.72-31.54-18.63-.56-1.32-3.75-11.86-3.73-12.59.08-2.7,5.76-23.77,6.99-27.91,3.69-12.49,8.75-24.32,14.44-35.76.59-1.18,2.69-4.29.52-4.97,28.16-51.44,79.71-82.68,128.96-104.14,21.56-9.39,51.49-20.61,67.56,5.11,6.35,10.17,9.81,31.3-.96,39.17-12.37,9.04-51.15,10.36-67.97,14.6-39.1,9.86-73.31,33.38-92.02,73.61h-.02Z"/>
  <path class="st8" d="M831.68,978.89c-3.62,5.34-7.01,7.06-13.22,7.55-11.85,1.39-23.78,1.73-35.72,1.85-.72,0-1.06-1.01-1.08-2,1.1-7.11,10.73-24.09,10.06-28.93-1.25-9.03-11.1,2.9-13.21,6.33-4.83,7.84-6.55,17.72-9.86,26.32-7.41,1.85-15.01,1.1-22.55,1.21-.92-.97,3.45-12.33,4.25-14.39,1.66-4.29,10.99-20.04,6.93-23.3-5.44-4.37-14.73,11.97-16.61,16.27-1.42,3.24-4.7,16.91-6.39,17.56-1.93.75-8.45.85-9.22-1.86s3.18-14.99,4.49-18.17c4.89-11.84,16.06-26.22,27.63-29.76,13.74-4.21,21.63,2.85,26.15-15.37,4.76-19.18,6.79-46.25-1.68-64.11,10.86-.94,21.77-2.96,32.44-5.33,6.24-1.39,29.64-9.02,33.4-8,.8.22,13.8,7.81,14.62,8.51,1.61,1.38,1.84,1.78,1.85,4.11-4.1,21.55-7.15,43.38-11.72,64.81-5.15,24.18-7.64,36.02-20.57,56.7h0Z"/>
  <path class="st5" d="M381.57,440.15c-5.76,7.35-12.21,14-17.75,21.6-7.2,9.87-25.04,38.62-25.64,50.55-.39,7.78,5.59,12.65,10.55,6.68,3.44-4.14,9.72-21.54,13.48-28.2,7.62-13.51,34.79-51.25,48.79-53.14,16.69-2.25,39.95,4.3,39.01,27.19-38.15,4.89-62.43,34.22-79.05,70.17-10.74,23.24-16.74,58.99-48.89,46.95-35.48-13.28-14.03-76.02-1.09-101.16,3.49-6.78,18.63-30.66,24-33.79,8.11-4.73,27.15-3.29,36.59-6.86h0Z"/>
  <path class="st31" d="M543.83,103.57c1.33-23.23,9.8-59.8,24.46-77.04,12.29-14.45,19.32-6.43,21.72,10.41,4.26,29.98-9.74,77.41-14.71,108.33-2.92,18.2-4.64,36.6-7.23,54.85-1.07,3.18-6.53,2.25-9.23,2.07-13.45-.89-26.85-4.56-40.45-1.35-8.28-32.76-33.15-57.68-60.15-71.99,26.8-1.58,52.51,13.93,70,35.79,3.29,4.11,8.08,15.26,12.8,15.28,3.87.02,5.87-4.38,6.07-8.07.52-9.67-2.85-25.48-3.29-36.21.55-10.62,1-21.64,0-32.05v-.02Z"/>
  <path class="st34" d="M371.3,245.66c12.26-1.72,24.52,1.74,35.06,8.56,3.8,2.46,12.84,8.48,11.69,13.61-.62,2.79-15.9,25.05-18.89,30.93-5.21,10.25-9.56,21.21-13.13,32.29-3.26,3.75-41.32,10.53-46.76,8.67-9.83-3.36-13.83-28.49-13.31-38.33,1.41-26.62,21.13-52.33,45.33-55.73h.01Z"/>
  <path class="st14" d="M788.34,454.93c1.26,16.34,1.31,32.91,1.11,49.31-.17,2.95-1.17,15.43-2.73,15.74-1.41.28-19.83-5.43-22.83-6.5-13.96-4.99-25.45-11.95-36.75-22.26,7.96-14.82,35.19-53.45,50.78-54.76,7.44-.63,9.46,12.19,10.41,18.47h.01Z"/>
  <path class="st41" d="M875,536.27l-64.43-14.74c1.45.08,2.31-.91,3.17-2.03,9.98-13.1,35.26-45.31,49.38-50.04,13.49-4.52,14.4,6.21,15.24,18.16,1.13,16.05-1.57,32.78-3.35,48.65h-.01Z"/>
  <path class="st39" d="M951.71,569.58l-48.89-25.26c8.5-8.63,37.76-32.61,48.87-27.11,4.48,2.22,4.61,12.61,4.52,17.29-.21,11.53-2.97,23.71-4.51,35.08h.01Z"/>
  <path class="st16" d="M213.75,443.84l1.11,9.87c35.21-5.96,70.16-15.25,105.32-21.86,25.72-4.84,57.54-11.76,83.07-13.87,6.24-.52,34.6.36,38.32,4.93.66.81-1.12,1.13-1.11,1.22-11.02-3.34-21.19-5.72-32.77-4.92-61.28,4.24-126.9,25.85-187.86,35.74-8.91,1.48-7.78-3.86-6.09-11.1h0Z"/>
  <path class="st0" d="M1065.07,679.31c1.23.05,3.62-.84,3.33,1.22-11.88,1.17-23.57,3.39-35.56,2.48,7.8,33.66,6.97,67.62-1.11,101.08,33.69.53,66.65-10.44,96.67-26.51,1.13-.6,3.8-3.08,4.46-.6-31.9,18.53-67.24,28.57-103.35,29.58,8.7-34.56,9.94-70.05,1.11-104.78,11.29,1.25,23.36-2.93,34.45-2.47h0Z"/>
  <path class="st32" d="M999.5,819.85c-18.23,50.35-11.98,108.61-26.38,159.98-3.38,12.05-4.1,18.74-16.53,21.12-7.46,1.43-19.87,2.3-27.62,2.65-6.64.3-13.35-.33-20-.04-1.95-.27,1.08-9.48,1.62-11.11l-.55,9.87c13.8-1.26,28.45-.33,42.07-2.65,5.51-.94,11.76-.97,15-6.79,4.92-8.85,8.07-29,9.84-39.63,3.21-19.26,12.07-131.64,22.55-133.4Z"/>
  <path class="st36" d="M456.03,731.09c-16.61-42.02-14.15-101.16-7.46-145.73.92-6.14,8.63-45.62,11.03-47.57,3.07-2.5,23.83-3.69,28.66-10.11-.06.06,1.15.76.09,1.76-5.89,5.63-25.57,8.16-27.96,11.09-1.87,2.3-3.85,13.24-4.72,16.96-11.79,50.54-15.54,118.72.21,168.23.5,1.58,2.5,4.19.15,5.38h0Z"/>
  <path class="st10" d="M1218.44,666.98c-2.17-.68-.07-3.79.52-4.97,33-66.3,40.19-142.61,12.96-212.78-.61-1.58-2.41-4.24-.14-5.39,31.32,68,20.31,158.71-13.34,223.14Z"/>
  <path class="st4" d="M937.26,581.91c-.66,2.47-3.33,0-4.46-.6-33.04-17.66-58.07-26.01-94.25-33.53-33.27-6.91-68.65-8.69-99.47-25.29-.85-.46-4.62-1.07-1.87-2.22,31.82,17.91,75.27,19.87,110.23,27.51,31.13,6.8,62.12,16.76,89.82,34.13h0Z"/>
  <path class="st27" d="M673.87,969.02c-1.73-5.37,1.89-12.81,3.01-18.24,12.95-62.99,11.22-123.07,6.95-186.98-.15-2.3-.63-6.48,1.16-8.07,5.54,68.55,7.35,147.06-11.11,213.28h-.01Z"/>
  <path class="st40" d="M704.98,488.22c-1.3,2.66-3.31-3.54-3.53-4.1-18.45-47.2-20.2-107.94-35.41-157.98-.49-1.61-2.05-4.52.05-5.59,15.04,42.58,18.2,94.58,29.44,139.32,2.38,9.46,5.12,19.78,9.45,28.35h0Z"/>
  <path class="st37" d="M703.87,802.59c.7,12.74,1.67,25.4,1.11,38.22,19.35-.82,39.07,1.06,58.4.04,12.29-.64,24.59-3.45,36.78-4.84,1.83-.21,4.81-1.03,5.96,1.09-26.36,5.03-60.49,7.74-87.23,6.15-4.73-.28-9.89-2.25-15.02-1.21-.04-3.69.06-7.41,0-11.1l-1.11-17.26c-.04-3.68.16-7.43,0-11.1.32-1.08.69-1.06,1.11,0h0Z"/>
  <path class="st6" d="M393.8,345.21c-.02.1.94.58,1.06,1.09-42.93,16.08-85.95,12.91-127.75,35.29-1.13.6-3.8,3.07-4.46.6,40.86-25.25,87.9-20.85,131.14-36.99h.01Z"/>
  <path class="st35" d="M584.95,851.91c-.32,1.08-.69,1.06-1.11,0-3.64-33.38-8.94-70.78-14.8-103.79-1.41-7.97-2.23-17.74-6.32-24.43.1.02.85-1.3,1.53-1.07,2.16.71,4.2,12.52,4.81,15.61,7.01,35.84,11.93,77.11,15.89,113.67h0Z"/>
  <path class="st19" d="M554.95,724.92c-1.29,2.05-1.18,4.21-1.02,6.58,2.06,29.9,9.56,59.52,11.02,89.57-10.97-3.75-21.78-8.32-32.22-13.56,1.09-2.59,3.42-.46,4.84.18,8.34,3.73,16.53,8.01,25.16,10.91-1.51-31.16-8.58-61.84-9.84-92.94.94-2.78,1.94-.67,2.07-.75h0Z"/>
  <path class="st2" d="M592.73,230.55c-1.09,2.63-3.44.37-4.85-.16-34.47-12.94-63.65-13.48-98.1,0-1.42.56-3.77,2.77-4.85.16,31.17-15.05,76.76-16.54,107.8,0Z"/>
  <path class="st38" d="M1001.72,816.15c-2.33-1.21-.41-3.79.16-5.37,11.62-31.95,19.44-54.46,17.67-90.23-.31-6.23-3.25-14.42-1.16-20.29,7.49,42.28-.75,77.68-16.67,115.89h0Z"/>
  <path class="st30" d="M1182.88,389.59c-1.07,2.61-3.43.4-4.85-.16-33.28-13.1-63.14-11.62-92.34,11.32-.96.75-3,4.12-3.94,1.18,28.32-25.5,68.17-28.65,101.14-12.33h-.01Z"/>
  <path class="st1" d="M546.06,870.4c-5.87,30.14-12.81,86.64-25.56,112.19l25.56-112.19Z"/>
  <path class="st19" d="M812.79,697.8c-14.4,29.47-17.08,73.35-3.33,103.56l-3.87-6.18c-10.21-31.24-8.19-65.01,4.37-94.97.24-.58,2.05-5.11,2.84-2.4h-.01Z"/>
  <path class="st23" d="M411.58,500.55l-5.55,9.85c23.51,12.38,44.88,14.85,69.61,5.11,1.42-.56,3.78-2.77,4.85-.16-18.46,9.97-41.57,9.54-60.86,2.79-5.57-1.95-10.21-5.29-15.82-6.5.31-5.2,4.71-8.03,7.78-11.08h-.01Z"/>
  <path class="st24" d="M703.87,802.59h-1.11c-1.34-29.79-5.3-60.94-11.11-90,.09.02.57-1.04,1.02-1.21,7.28,29.54,9.51,60.64,11.2,91.21h0Z"/>
  <path class="st26" d="M454.92,959.16c-5.13,8.9-9.62,21.53-11.16,32l-24.4-1.19c1.89-7.1,4.04-14.15,6.67-20.95,2.33,1.2.42,3.79-.16,5.37-1.71,4.72-3.76,9.2-4.29,14.35h21.12c1.16-9.57,5.4-18.75,9.41-27.17.56-1.17,1.18-4.08,2.81-2.42h0Z"/>
  <path class="st22" d="M608.29,986.28c2.81,3.07-5.14,15.38-3.33,17.25l55.56-2.46c-18.71,4.3-38.61,3.22-57.79,3.69-.76-.73,4.62-16.2,5.55-18.48h.01Z"/>
  <path class="st11" d="M584.95,851.91c2.96,27.41,5.63,55,4.42,82.62-.58-.09-.93-1.23-1.09-1.25.23-27.12-1.51-54.45-4.45-81.37h1.12Z"/>
  <path class="st28" d="M461.59,971.49c2.37,1.2.33,3.81-.15,5.38-1.32,4.29-3.03,8.47-3.18,13.11l56.68-1.23c-3.66,1.35-11.95,2.26-16.07,2.52-13.99.88-28.76-.75-42.83-.06,1.98-6.5,3.1-13.37,5.56-19.71h0Z"/>
  <path class="st29" d="M569.4,981.35c2.3.8-.08,3.63-.57,4.92-1.34,3.52-4.04,10.04-4.55,13.49-.2,1.34.76,2.55,1.23,2.55h23.89c.78-2.6,3.55-16.34,4.46-17.26.73-.74,1.02,1.24,1.1,1.23l-4.56,18.36-27.67-1.1c.24-7.85,3.57-15.31,6.67-22.19h0Z"/>
  <path class="st20" d="M902.81,980.12c-3.76,7.1-5.55,15.63-7.78,23.42h-24.45c-.41-5.9,2.94-12.19,5.56-17.26,2.23.73,0,3.7-.54,4.95-1.56,3.55-3.99,7.07-3.9,11.08h22.23c1.63-6.04,3.2-12.24,5.35-18.09.44-1.19,1.67-5.83,3.54-4.1h0Z"/>
  <path class="st13" d="M831.68,978.89c-1.15,1.83-1.25,3.98-3.39,5.49-9.19,6.48-35.73,1.95-46.61,5.61.09-1.19-.19-2.57-.01-3.7,4.45,1.9,10.31,1.51,15.05,1.28,5.31-.25,27.25-2.07,30.46-4.43,1.5-1.1,3.03-6.34,4.5-4.25Z"/>
  <path class="st9" d="M789.45,504.24l-1.11-49.31c2.05,13.48,1.9,35.42,1.11,49.31Z"/>
  <path class="st18" d="M543.83,135.63c-.4-9.83-.56-22.3,0-32.05,1.84,1.28,1.11,4.68,1.13,6.76.08,8.07.84,17.68-1.13,25.29Z"/>
  <path class="st7" d="M703.87,830.95c-2.09-4.67-1.05-11.79-1.11-17.26,2.11,4.68,1.02,11.77,1.11,17.26Z"/>
  <path class="st17" d="M522.47,259.25c94.04-11.9,106.26,144,14.12,152.51-94.94,8.77-100.19-141.62-14.12-152.51Z"/>
  <path class="st33" d="M365.69,285.06c19.33-4.87,21.72,36.56,3.08,38.04-17.81,1.41-17.44-34.42-3.08-38.04Z"/>
  <path class="st21" d="M522.47,275.28c78.52-10.5,85.4,115.38,11.9,121.68-73.69,6.32-77.96-112.85-11.9-121.68Z"/>
  <path class="st12" d="M524.65,315.88c21.21-4.66,24.46,40.93,2.96,41.54-20.13.56-22.07-37.34-2.96-41.54Z"/>
</svg>