<?xml version="1.0" encoding="UTF-8"?>
<svg id="Layer_1" xmlns="http://www.w3.org/2000/svg" version="1.1" viewBox="0 0 1024 1024">
  <!-- Generator: Adobe Illustrator 29.5.1, SVG Export Plug-In . SVG Version: 2.1.0 Build 141)  -->
  <defs>
    <style>
      .st0 {
        fill: #a5521e;
      }

      .st1 {
        fill: #853e13;
      }

      .st2 {
        fill: #ca8245;
      }

      .st3 {
        fill: #cfa263;
      }

      .st4 {
        fill: #d1a465;
      }

      .st5 {
        fill: #d0a364;
      }

      .st6 {
        fill: #db824f;
      }

      .st7 {
        fill: #813b13;
      }

      .st8 {
        fill: #42200c;
      }

      .st9 {
        fill: #753612;
      }

      .st10 {
        fill: #f7c183;
      }

      .st11 {
        fill: #43210c;
      }

      .st12 {
        fill: #7f3a12;
      }

      .st13 {
        fill: #703310;
      }

      .st14 {
        fill: #a6511e;
      }

      .st15 {
        fill: #863f15;
      }

      .st16 {
        fill: #743410;
      }

      .st17 {
        fill: #5f2b0d;
      }

      .st18 {
        fill: #efcc93;
      }

      .st19 {
        fill: #843c13;
      }

      .st20 {
        fill: #b48241;
      }

      .st21 {
        fill: #eecb92;
      }

      .st22 {
        fill: #f5a263;
      }

      .st23 {
        fill: #883f15;
      }

      .st24 {
        fill: #d1a566;
      }

      .st25 {
        fill: #41200c;
      }

      .st26 {
        fill: #753511;
      }

      .st27 {
        fill: #a7531e;
      }

      .st28 {
        fill: #42210d;
      }

      .st29 {
        fill: #411f0c;
      }

      .st30 {
        fill: #de9357;
      }

      .st31 {
        fill: #b78442;
      }

      .st32 {
        fill: #f8ebd4;
      }

      .st33 {
        fill: #823c14;
      }

      .st34 {
        fill: #873f15;
      }

      .st35 {
        fill: #b98644;
      }

      .st36 {
        fill: #cda162;
      }

      .st37 {
        fill: #b88542;
      }

      .st38 {
        fill: #a6521e;
      }

      .st39 {
        fill: #42210c;
      }

      .st40 {
        fill: #723511;
      }

      .st41 {
        fill: #f8ecd6;
      }

      .st42 {
        fill: #bc8744;
      }

      .st43 {
        fill: #a7531f;
      }

      .st44 {
        fill: #723410;
      }

      .st45 {
        fill: #733410;
      }
    </style>
  </defs>
  <path class="st39" d="M286,837c7.09-23.28,18.02-53.66,12.53-78.03-1.7-7.57-5.14-12.95-5.48-21.45-.59-14.67,3.29-24.8.68-40.74-5.84-35.62-18.46-72.34-23.59-107.44-3-20.54-3.46-42.57-4.14-63.32-20.6-3-41.07-14.14-56.49-28.01-1.66-1.5-2.48-4.43-4.55-5.45-4.24-2.09-18.05-2.6-24.94-5.07-61.94-22.23-68.35-117.96-14.94-150.9,2.09-1.29,10.57-4.73,10.99-5.25,1.35-1.65,6.45-11.57,7.64-14.11,7.23-15.48,10.47-33.28,11.28-50.21-22.44,10.79-48.8,10.95-71.68,1.19-19.59-8.35-43.56-34.65-51.79-54.21s-11.31-36.57,7.77-49.2c23.15-15.32,55.2-19.6,81.67-11.24,22.65,7.15,39.68,26.89,63.04,32.45.45-2.07-1.07-2.27-2.27-3.22-5.92-4.66-14.77-7.61-21.2-12.8-27.8-22.38-36.15-60.86-18.32-92.28,5.73-10.1,18.79-24.19,31.31-23.78,15.45.5,11.61,25.42,13.96,36.12,4.75,21.63,23.98,36.49,43.47,44.48,13.54-6.36,26.84-15.16,42.07-16.52-2.89-9.11-8.33-19.84,2.09-26.41,24.47-15.41,53.47,9.33,71.41,24.4,1.99-5.77,4.31-17.03,11.96-17.49,15.51-.93,17.12,19.26,19.71,30.32,3.88.76,8.04,1.39,11.78,2.72s17.31,9.21,18.34,9.21c2.69.01,10.23-3.51,13.2-4.75,17.77-7.42,42.35-22.78,49.72-41.28,4.58-11.51,2.61-39.75,20.83-36.3,13.19,2.5,25.35,23.32,28.67,35.37,11.23,40.76-7.53,76.35-43.04,96.38-5.4,3.04-11.79,5.04-16.67,8.82,19.26-2.23,34.49-15.18,51.64-22.85,33.67-15.06,68.05-13.54,100.38,4.34,27.62,15.27,33.27,29.25,17.15,58.19-18.84,33.83-61.66,62.47-100.68,64.32-19.14.9-37.55-4.65-54.48-12.98.16,4.14-.25,8.35,0,12.49.75,12.1,1.34,21.19,9.03,30.74,15.49,19.22,45.65,28.1,69.47,29.76,74.1,5.16,145.8-35.61,210,23.04,21.73,19.86,30.49,47.35,53.01,66.94,13.73,11.94,40.42,26.9,54.3,7.35,12.21-17.19.71-44.4-9.41-60.24-1.33-2.08-8.06-11.93-9.4-12.59-1.85-.91-11.51-.29-15.22-.79-68.43-9.24-78.75-96.05-28.27-134.68,5.7-4.36,15.95-6.86,20.96,0,3.74,5.13.25,12.55.55,17.43.51,8.33,31.42,29.11,38.48,37.54,15.28,18.24,18.43,42.45,6.65,63.37,16.2,15.55,29.71,32.4,35.35,54.63,12.26,48.29-24.42,94.99-75.5,81.5-5.94-1.57-11.3-4.38-17-6.49,1.3,15.85,3.38,30.52,3.02,46.54-.82,36.13-16.22,76.18-5.54,111.47,2.58,8.53,7.72,17.2,9.82,26.18,4.53,19.37-1.48,40.73-3.29,60.31-2.62,28.38-4.28,67.45-1.01,95.49.5,7.46.64,15.12.42,23,.25,4.17-.89,6.83-3.42,8,2.88,3.42-2.02,9.09-4.73,11.97-19.11,20.32-72.7,22.84-96.16,9.5-6.36-3.61-9.78-7.73-11.1-14.88-.55-2.99-.05-12.66,2.99-13.59.71-11.03,2.36-22.78,9-32-.63-1.48-.88-3.02-.73-4.62,12-42.68,26.99-97.48-6.82-133.6-10.33,16.79-15.26,31.86-16.8,51.89-8.99,25.71-14.59,52.38-18.63,79.5-.65,1.83-1.66,3.44-3.02,4.83.84.27,1.83.9,1.69,1.63-1.29,6.64-3.21,13.24-5.25,19.69l-2.44.68c2.66,4.29-5.93,9.54-9.59,11.7-22.44,13.2-65.62,17.69-89.44,6.3-5.84-2.79-16.12-10.81-10.96-16.99-2.09-2.95-2.05-6.7.13-11.23l6.45-16.12,2.42-.65-.66-3.69c2.66-5.97,17.64-40.59,14.92-43.89-24.31,5.41-36.67-22.06-27.17-41.7-.82-1.61-2.27-3.01-3.92-3.79-14.52,1.47-29.02,2.06-43.5,1.77-3.32,24.4-6.56,49-9.73,73.78.62,5.87-.03,11.04-1.95,15.52,2.96,6.92,4.7,18.83,4.47,26.6-.36,2.72-.86,5.52-1.47,8.4l1.93,1.43c2.36,21.43,3.94,46.49-13.94,62.19-3.94,3.46-9.83,8.61-14.99,7.38l-.17,2.27c-21.91,7.96-50.33,10.44-72.36,1.28-8.55-3.56-20.05-10.68-19.47-20.55l-1.82-3.18c1.25-14.96,5.09-30.38,10.09-44.53l2.74-2.29c-.3-.78-.57-1.57-.71-2.38-.49-2.95,5.23-21.47,6.84-25.99.53-1.48,1.73-2.6,2.87-3.63l-1.5-2.63c4.3-19.21,5.57-37.63-1.52-56.29-2.36-13.01-2.86-26.96-1.16-39.95-13.41.52-29.62,1.11-41.91-3.92l1.01,2.16c-.47,33.48-1.33,67.02-2.58,100.62l-1.35,3.01,1.98,2.65c-.06,8.63-.19,17.29-.78,25.9l-2.2,2.44c3.57,6.47-2,17.63-6.18,23.5-9.08,12.75-29.77,21.87-44.82,18.5l-2.06,2.14c-16.73,1.53-60.29-2.81-61.92-24.28-.32-4.2.27-8.17,1.09-12.3,1.28-6.43,7.17-27.99,10.23-32.77l2.67-1.79Z"/>
  <path class="st0" d="M565,375l2.3,2.36c2.47,20.49,8.03,42.31,26.04,54.51,20.26,11.28,34.9,23.2,45.23,44.05,24.09,29.92,84.08,17.64,91.26-21.43v-23.87c.15-3.82.45-7.68,4.5-9.22,25.3-7.5,31.68-21.3,18.61-45.18l1.06-2.21c64.84,20.01,92.17,101.74,93,163.5.45,33.2-11.3,66.46-8.72,99.97,1.55,20.12,7.69,30.79,12.99,48.77,7.1,24.08-1.36,46.84-3.3,71.22-.56,7.06-.87,15.85-.99,23-.3,16.66.88,33.31.95,49.88-.55,1.65-8.35,3.24-10.52,3.56-17.41,2.56-39.08.28-55.36-6.43-1.36-.56-7.82-3.16-7.9-3.94,8.38-26.52,13.52-57.16,11.91-85.08-2.75-47.71-34.38-59.09-51.22-97.78-17.64-40.52-11.78-80.93-10.84-123.67l-8.72,31.77c-5.88,30.02-5.6,56.65,2.73,86.23-.54,2.86-2.4,5.39-5.58,7.6-34.85,44.55-105.44,51.44-153.46,26.11-2.83-.28-4.81-1.18-5.95-2.7.26-9.74-1.81-19.72-2.04-29.45l-1.95-7.54c-2.83,29.06-12.75,57.07-17.74,85.77-6.22,35.81-11.26,75.61-11.26,111.72l2.84,39.37c-18.62,6.49-39.02,6.64-58.06,1.85-4.03-1.01-20.25-6.31-20.85-10.23,5.38-23.84,14.34-50.84,9.4-75.32-1.42-7.04-5.65-14.94-6.33-21.67-1.42-14.02,1.11-30.37.03-45.03-2.18-29.67-12.95-58.99-17.05-88.45l-2,12.49c-1.92,20.16,3.11,39.21,4.99,59.02.49,5.11-.31,10.4,1.02,15.48-59.88,2.92-119.63-37.04-140.76-92.73-8.59-22.63-12.07-48.14-12.24-72.26.77-.31,1.77-.45,2.15.15,5.5,8.73,20.78,14.91,31,16.92,53.42,10.5,122.26-39.86,152.7-80.53,11.43-15.27,18.71-31.11,25.15-48.54,19.07-23.79,26.49-56.9,25.01-86.99l24.32,16.17c7.73,3.19,15.64,6.5,23.68,8.82Z"/>
  <path class="st14" d="M473,199c5.77,16.26,17.55,24.03,32.9,12.77,4.7-.1,6.4-.68,5.1-1.77,14.11-1.7,41.41-21.41,58.79-26.71,27.96-8.53,69.82-3.09,91.25,18.17,8.46,8.39,4.53,17.54.14,27.21-25.92,57.07-122.63,86.57-162.58,27.23l-2.59-7.9,6.03,89.45c-.06,25.89,2.38,49.25-8.86,73.22-17.66,37.66-62.98,55.73-101.17,64.32,3.06-6.7,7.99-12.67,11.17-19.32,9.13-19.15,12.14-41.65,9.83-62.67l15.99,2.99c-3.67-14.76-21.16-16.29-33.87-14.11-22.68-45.16-77.78-58.75-124.57-60.93-26.01-1.21-53.27-.02-78.54,6.04,2.42-7.73,6.64-14.74,8.93-22.56,6.45-22,6.97-45.96,13.56-68.44,11.55-39.38,40.77-85.78,82.02-98.99.65-.21,1.69-.2,1.47.48-17.26,20-3.65,48.72,24,40.5,3.4,26.14,30.68,10.35,40.98-2.52,2.39-2.99,6.98-8.66,5.53-12.47-9.42,3.85-16.98,14.1-26.78,17.21-16.56,5.24-5.65-20.28,1.27-25.21-13.39-.89-19.87,15.23-34.03,11.52-10.54-2.76-7.29-17.52-2.4-24.46,8.52-12.11,24.61-14.93,38.43-15.07l-16.91-11.58c-5.47-4.15-9.65-10.49-2.41-15.24,14.41-9.45,42.38,14.19,52.85,23.8,3.27,3,11.23,14.75,15.54,11.6,3.31-2.41.62-22.13,6.44-25.56,4.65.05,5.8,23.44,6.97,28.02,5.95,2.59,12.27,4.16,18.21,6.79,2.59,1.15,14.29,7.02,15.41,8.59,1.3,1.81,2.84,14.42,4.44,18.56,4.64,12.05,15.17,22.85,27.48,27.02Z"/>
  <path class="st10" d="M307,493c26.01-4.97,46.62-16.6,58.9-40.61.6-1.17,1.04-4.13,1.2-4.28,1.33-1.17,13.62,2.76,7.34-7.07-4.01-6.27-10.44-9.2-17.9-7.99-3.98.65-8.89,5.28-5.31,8.7,3.01,2.88,6.75-2.07,3.53,7.51-8.05,23.91-45.69,34.51-68.28,34.8-17.83.23-37.67-7.03-55.92-7.07-13.78-.03-25.74,3.04-39.8-.27-60.77-14.32-67.58-111.16-10.03-134.5,53.47-21.69,156.28-14.85,196.24,31.3,2.68,3.1,13,19.39,14.04,20.02,1.64,1,7.63-1.93,9.98-1.55,8.59,42.53-14.34,82.32-49.99,104-10.48,1.67-21.3,1.4-32.48-.8-4.56.41-8.4-.32-11.52-2.2Z"/>
  <path class="st26" d="M754,374c6.68,11.76,12.78,30.74-.07,40.43-3.85,2.9-19.91,8.46-20.98,10.27-2.55,4.32.05,23.11-1.21,30.54-5.52,32.52-48.45,47.05-76.73,35.25-19.68-8.21-20.41-19.46-31.18-33.82-8.46-11.29-29.03-18.48-40.34-30.66-12.53-13.49-16.44-33.28-18.49-51.01,13.91,4.01,34.55,4.95,49.34,4.63,44.97-.98,95.7-19.2,139.66-5.63Z"/>
  <path class="st7" d="M492,437c-.58,10.35-6.55,21.92-11.49,31.01-11.61,21.38-30.33,41.9-49.31,56.93-35.1,27.81-87.71,57.93-132.93,38.27-1.97-.86-14.53-8.84-15.6-10.14-.47-.57-1.42-3.19-1.68-4.07-1.89-6.45-.78-14.14-2.01-21,32.27,1.18,59.77-7.79,86.49-25.01,4.16-2.68,8.71-7.72,13.12-9.88,12.57-6.16,33.12-8.68,47.35-13.65,22.59-7.9,50.92-23.58,66.05-42.45Z"/>
  <path class="st43" d="M179,238c-3.76,1.24-9.03,1.8-12.99,3.01l9.49,2.08c3.49-.99,7.24-.71,10.75-1.34,5.79-1.04,11.21-4.23,16.74-4.26-3.07,11.23-3.29,12.7-13.72,17.28-40.09,17.62-76.8,1.03-99.68-33.85-5.5-8.39-16.01-30.51-9.61-39.4,9.07-12.6,40.72-19.99,55.52-19.5,32.44,1.06,47.46,21.03,73.82,32.18,3.06,1.3,9.17.91,8.54,5.08-.16,1.09-8.28,19.24-8.94,20.15-1.38,1.91-3.16,1.88-5.43,1.65-5.92-.57-18.01-14.76-23.28-19.02-23.57-19.04-56.23-31-84.2-13.55,1.07,1.04,3.49.37,5,.5,17.71.02,34,8.93,46.61,21.73l19.35,20.66,4.43,2.52c4.22.26,6.75,1.63,7.61,4.09Z"/>
  <path class="st19" d="M718,635c1.17,4.15,6.83,12.65,5.6,17.02-1.99,7.07-33.36,27.85-40.93,32.15-30.73,17.45-61.88,27.31-97.18,30.82-5.53.55-37.44,2.04-39.55.57-2.64-1.83,2.16-15.75,2.78-19.34,1.53-8.94,4.05-21.48,4.28-30.22,5.98-1.33,12.53,4.42,18.03,6.47,39.55,14.77,86.47,11.17,121.58-12.87,9.84-6.74,15.85-17.76,25.4-24.6Z"/>
  <path class="st23" d="M313,765c-.75-11.19-7.09-18.81-7.55-29.04s2.7-22.36,2.63-32.45c-.07-11.36-5.45-24.02-5.59-35.5,21.03,23,45.68,42.64,75.06,53.95-.44,6.88.73,13.69.49,20.59-.44,12.45-2.4,24.95-3.04,37.46l-2.06,1.5c-7.28-4.5-14.01-9.9-20.19-16.21l-15.94,8.55c-8.53,3.99-20.55.65-23.82-8.84Z"/>
  <path class="st38" d="M313,765c3.19.39,5.6,5.92,7.7,6.78.5.21,10.11,2,10.65,1.95,4.34-.39,19.85-10.99,22.01-10.62,7.91,4.7,12.35,14.76,21.65,16.88-.2,3.92-.93,7.93-1.04,11.46-.51,16.57,1.06,33.07.6,49.6-23.4,7.65-51.36,4.34-72.64-7.7,4.86-21.86,12.6-45.71,11.08-68.36Z"/>
  <path class="st44" d="M859.99,260c.63.68-2.97,12.88-3.03,15.55-.28,12.84,7.84,29.23,17.56,37.42.93.78,3.26,2.84,4.48,2.52-2.52-7.9-7.76-14.88-10.19-22.81-.3-.99-1.7-2.99-.32-3.68,2.88,2.21,5.76,5.31,8.59,7.41,10.25,7.62,19.02,11.74,25.93,23.07,5.13,8.41,8.18,16.95,8,27.01l-5.01,14.5c-2.26-12.12-9.95-23.9-19-31.99,3.3,12.48,9.82,24.34,9.99,37.5-.42,3.1-5.27-5.08-6.04-5.97-11.5-13.22-26.02-23.66-37.96-36.53,2.39,10.48,5.92,18.39,12.97,26.52,1.92,2.22,25.7,22.48,23.02,24.47-32.77,1.44-62.7-25.94-60.98-59.48.59-11.47,7.78-31.13,14.55-40.44,1.53-2.1,15.48-17.15,17.43-15.06Z"/>
  <path class="st12" d="M641.13,753.13l22.26-.2c5.22,13.93,16.11,21.46,31.27,17.23,7.11-1.98,14.95-12.9,16.1-19.9.57-3.48-.57-9.88.74-12.26,1-1.81,8.69-4.58,10.48-7.01l-21.48,83.01c-23.38,7.03-52.06,3.44-73.08-8.99l13.7-51.89Z"/>
  <path class="st44" d="M523,875v15.5c0,3.6-3.49,11.21-5.57,14.42-11.07,17.13-45.45,20.64-63.99,17.1l6.56-40.02c-2.15-.46-3.3,2.57-4.39,4.09-1.84,2.56-4.73,7.1-6.14,9.86-3.56,7-5.18,14.74-7.95,22.02-.83.04-9.61-6.17-10.14-7.3-4.25-9.02,7.21-31.72,8.65-41.68.52-.47,11.21,4.89,12.99,5.5,15.04,5.19,35.62,6.63,51.36,4.36,6.38-.92,12.27-3.19,18.64-3.86Z"/>
  <path class="st21" d="M461,176c-3.19-4.35-10.62-20.4-6.76-24.76.8-.9,18.85-7.76,22.12-9.38,22.92-11.38,40.93-24.52,47.35-50.65,1.02-4.17,2.13-19.24,5.27-20.77,2.48-1.21,9.78,7.78,11.24,9.85,4.41,6.24,5.93,10.41,7.78,17.72,1.69,9.48-1.33,12.62-9.04,9.44,9,3.8,7.14,8.1,3.49,15.97-1.93,4.71-6.55,15.25-11.46,11.59-1.29,1.38-3.02.93-5.19-1.34,2,1.94,3.37,3.4,3.19,6.34.57,3.64-1.35,7.09-5.77,10.36-3.59,3.64-10.49,10.06-15.23,9.64-1.07,2.05-1.96,1.61-3.63.6-10.54-10.67-11.16-10.68-1.84-.01l-.52,2.41c-1.23,4.07-8.76,6.83-12.98,8.31-4.03,2.29-7.37,2.52-10.02.69-4.71-2.57-5.77-2.76-3.16-.57l-.84,2.57c-.97,3.63-11.06,4.39-14,2Z"/>
  <path class="st6" d="M728,672c4.48-5.34,12.82,4.48,9,8,.49,3.78-2.9,13.15-4.52,16.98-6.54,15.44-18.22,27.25-33.48,34.02l-2.2.23c-6.38-11.44-19-14.6-26.45-2.5l-2.35.27c-2.81,6.43.48,10.46-7.59,11.9-14.33,2.56-40.51-2.45-52.14-11.61-.81-.64-1.83.02-1.27-2.28,33.24-3.29,66.53-18.06,94.31-36.2,5.2-3.39,22.65-18.25,26.69-18.81Z"/>
  <path class="st13" d="M847,841v16.5c0,5.34-6.64,15.67-11.07,18.93-5.47,4.02-22.89,9.57-29.43,9.57h-19c-.5,0-1.64-1.65-1.53-2.48,2.28-11.7,4.59-23.54,4.02-35.52-9.81,8.83-11.77,22.68-15.96,34.59-25.92-3.69-4.71-31.83-3.08-47.15,6.74,1.31,13.01,4.02,19.82,5.28,18.65,3.44,37.53,2.92,56.22.28Z"/>
  <path class="st40" d="M375,850.01c-1.55,8.99-.58,19.17-4.97,27.52-8.59,16.36-46.87,18.26-62.93,15.39l6.9-35.92c-2.47-3.3-18.71,27.69-18.01,30.99-1.66,1.15-7.85-3.88-8.54-5.93-2.82-8.35,8.41-30.62,12.05-39.04,23.07,13.2,50.26,12.4,75.5,6.98Z"/>
  <path class="st17" d="M699,826.01c-2.69,14.54-1.66,21.66-15.81,28.77-2.23,1.12-9.39,4.03-11.96,4.95-12.1,4.33-24.88,2.44-37.23,3.28-1.97-1.99,9-28.81,6.99-34-5.71,3.5-9.32,8.36-12.18,14.31-1.44,2.99-5.65,19.09-9.81,17.21-3.61-1.63-8.55-5.54-9.33-9.72-.96-5.2,10.54-29.69,14.82-34.68,9.52,6.76,22.86,8.92,34.32,10.56,12.69,1.82,27.63,1.35,40.18-.66Z"/>
  <path class="st18" d="M188,98c2.94-12.39,12.25-30.21,25.95-31.96,1.9,6.64.56,13.54,1.17,20.33,2.55,28.02,21.49,44.7,44.85,57.13-6.7,7.07-14.52,13.21-20.98,20.5-3.5,1.29-16.06-2.39-10-6l-.41-2.11c4.27-2.47,2.74-2.44-4.59.11-6.57,5.48-20.2-16.48-19.33-18.87.3-.81.66-1.54,1.33-2.13-.55-1.98.44-3.69,2.96-5.13-2.05,1.74-4.23,2.7-6.96,2.13l-2.65-1.58c-1.81-3.75-7.95-23.11-5.92-25.69l4.04-2.73c-4.03,2.01-8.37-.96-9.48-4Z"/>
  <path class="st27" d="M850,463.01l13.08,9.41c38.56,23.68,71.88-.64,62.64-45.64-2.67-13.03-11.29-26.35-18.91-37.09-1.26-1.78-7.61-8.73-7.71-9.32-.59-3.76,4.42-5.34,7.88-3.84,2.01.87,15.72,17.21,17.84,20.14,19.39,26.77,24.93,65.52-2.82,88.84-17.17,14.43-41.08,13.12-59.35,1.33-10.37-6.69-8.46-13.41-12.66-23.83Z"/>
  <path class="st30" d="M307,493c11.47-.79,23.65,2.13,35.96,2.47,2.08.06,4.9-2.04,8.04.53-39.83,24.23-94.5,25.99-130-6.99,5.82.94,11.93-1.22,17.46-1.02,14.23.51,30.78,6.61,46,7.05,7.8.23,14.93-1.51,22.54-2.04Z"/>
  <path class="st34" d="M101,189c8.96-2.48,20.05-1.29,29.22.28s20.07,5.15,28.1,9.9c13.29,7.87,21.8,22.72,35.68,29.84-3.68,5-9.37,7.13-15,8.98-2.42-1.5-5.37-1.15-8.29-2.21-6.24-2.26-8.15-6.55-12.15-10.86-13-13.97-29.2-31.51-49.92-32.88-.44-.03-1.48-2.55-7.64-3.05Z"/>
  <path class="st22" d="M699,731c0,.13-1.2.99-1.04,2.42.82,7.61,3.61,18.99-3.43,24.61-15.53,12.39-25.2-18.33-26.52-29.02,4.06-9.3,15.69-13.49,24.04-6.54.75.63,6.94,7.99,6.96,8.54Z"/>
  <path class="st24" d="M542,149c-5.35,9.31-9.84,14.7-18,22l-3.14.98c-2.74-.44-13.95-8.49-12.86-11.98,7.58-5.95,16.17-11.38,21-20,3.76-.82,13.6,4.79,13,9Z"/>
  <path class="st5" d="M502,163l2.31-.44,11.33,10.81c1.96.03,2.87.31,2.36,2.63-7.84,5.48-15.71,9.5-25,12-6.09-3.36-10.76-7.49-14.61-13.45l.61-2.55c8.06-1.04,15.74-5.56,23-9Z"/>
  <path class="st3" d="M188,98l.97.61,3.02-2.62c-.07,1.44-.13,4.53,1.48,4.84,1.96.37,14.93-5.38,15.52-4.83,1.81,1.68-1.44,2.12-1.98,2.47-3.92,2.58-7.92,5.01-12.06,7.19.51,9.1,4.23,17.8,7.05,26.33.84,3.49-8.8,9.52-11,6-6.09-13.37-6.38-25.75-3-40Z"/>
  <path class="st36" d="M545,144l-1.75,1.23-9.79-6.88c-3.79,5.18-9.14-4.27-2.46-3.35,3.32.81,3.77-2.2,5.15-4.34,3.6-5.55,6.45-11.59,7.88-18.09-4.89-2.27-9.51-5.38-13.03-9.56l14.99,3.99,2.01-9c4.42,17.42,4.51,29.51-3,46Z"/>
  <path class="st33" d="M511,210l1.49,2c-6.06.02-10.27,5.32-15.48,6.51-11.91,2.73-20.11-4.37-23.93-15.16-.58-1.63-1.53-2.64-.08-4.35,6.45,2.19,10.9.9,15.3,2.2,2.07.61,6.02,6.02,10.47,7.53,3.59,1.22,8.48,1.72,12.24,1.26Z"/>
  <path class="st4" d="M224,156c-.85,4.49-7.71,8.44-12,7-9.06-6.6-12.35-10.25-18-20,.71-3.87,8.16-8.66,12-8,3.16,8.55,8.49,18.71,18,21Z"/>
  <path class="st2" d="M605.5,741.02c2.04,4.4,16.99,7.38,18.07,8.94,1.85,2.67-2.36,12.78-5.82,14.28-14.18,6.15-18.43-14.28-12.25-23.22Z"/>
  <path class="st20" d="M508,160c4.98,4.06,9.51,9.1,16,11-2.26,2.02-3.36,3.15-6,5-.7-1.23-2.06.08-3.44-1-3.64-2.85-9.39-8.47-12.56-12-4.59-5.12-10.75-12.18-11.99-19,5.61,4.09,9.76,10.09,14.96,14.57,1.18,1.02,2.66,1.13,3.03,1.43Z"/>
  <path class="st24" d="M475,174c2.75.64,5.11,2.7,7.1,6.18,3.59,2.75,5.55,5.7,5.9,8.82-1.65.24-2.36,1.22-5.45,1.01-8.62-.57-16.64-7.33-21.55-14.01l14-2Z"/>
  <path class="st5" d="M229,158c-1.7,2.56-1.09,1.6,1,2.46,3.03,1.24,6.71,1.16,9,3.54-.23.26-.23,1.67-.96,2.5-2.19,2.49-4.74,4.65-6.64,7.42-5.4-1.54-9.8-5.06-14.4-7.92-.58-.68-.75-1.42-.43-2.22l7.97-3.49c-.73-3.82,3-6.19,4.46-2.29Z"/>
  <path class="st31" d="M479,172c3.08,4.18,5.38,7.5,9.5,11,1.62,1.38,6.8,2.24,4.5,5-2.19.59-2.76.67-5,1-4.63-4.25-9.83-9.68-13-15s-5.89-12.08-6.99-18c4.27,4.85,7.19,10.84,10.99,16Z"/>
  <path class="st35" d="M531,135c.09.54-3.51,3.32-.5,4,.8.18.76-2.69,2.03-3,1.76-.43,10.32,6.65,12.47,8.01-.93,2.04-2.02,3.3-3,5-3.68-3.6-9.18-5.74-13-9-1.36-1.16-15.84-17.17-15-17.99l17,12.99Z"/>
  <path class="st42" d="M229,158c-.73.25-2.73-.26-3.01,0-.13.13.87,1.59.75,2.35-.51,2.98-7.68,3.45-9.74,5.64-1.73-1.08-3.16-1.66-5-3,4.27-1.92,8.12-4.4,12-7,5.15-3.45,10.02-7.31,14.99-11,.92,1.03-8.08,12.35-9.99,13Z"/>
  <path class="st37" d="M206,135c-4.03,3.22-7.61,5.39-12,8-.99-1.7-2.06-2.95-3-5,4.23-.75,7.49-3.81,11-6,5.34-3.33,10.5-6.93,15.99-10,.44,1.88-1.05,2.38-1.99,3.5-2.68,3.19-6.72,6.88-10,9.5Z"/>
  <path class="st1" d="M728,672c.68-1.27,4.54-5.99,5.98-4.99.48,3.31,8.71,10.82,6.01,13.99-2.03,2.4-1.87-3.87-2.99-1-.65-4.98-3.57-8.75-9-8Z"/>
  <path class="st16" d="M540.78,459.28c51.42-6.15,47.39,62.86,2.49,71.49-21.75,4.18-38.3-5.24-40.25-28.28-1.91-22.48,16.3-40.64,37.76-43.2Z"/>
  <path class="st45" d="M808.41,524.42c-.47.34-.54,1.42-1.64,1.88-11.37,4.74-21.01-.66-28.19-9.39-13.79-16.77-21.61-49.69-2.08-64.91,16.81-13.11,35.18,13.43,39.54,27.45,4.1,13.19,4.6,36.21-7.63,44.96Z"/>
  <path class="st8" d="M400.75,264.23c9.01-1.42,18.08,4.86,21.45,13.07,7.58,18.4-.29,58.15-25.71,55.7-31.44-3.03-21.32-64.75,4.25-68.77Z"/>
  <path class="st8" d="M240.73,254.23c25.09-5.24,22.99,30.71,18,46-2.24,6.85-6.95,13.77-14.18,15.82-36.9,10.48-25.46-57.3-3.82-61.82Z"/>
  <path class="st15" d="M639,210c-18.36,1.57-42.04,16.22-56.56,28.38-5.68,4.75-10.87,12.3-17.51,16.12-.89.51-2.18-.35-2.41-.25-.73.31-.38,1.38-1.17,1.64-4.52,1.51-13.91,2.88-18.79,2.06-3.29-.55-5.83-4.87-8.55-2.95-3.77,2.18-10.68-5.21-6.78-7.74,7.82-1.7,14.73-5.72,20.79-10.86,22.16-23.06,55.14-36.16,87.42-30.34,2.29.41,5.08,1.53,3.57,3.94Z"/>
  <path class="st11" d="M534,255c5.53,3.47,11.45,6.04,18,7.01-3.02,3.84-12.68,1.58-17.03.52-7.95-1.93-29.63-14.78-34-21.25-.43-.64-4.27-8.89-3.96-9.28,5.13,2.74,13,7.36,18.78,7.8,19.04,1.45,36.35-20.9,52.54-29.97,24.74-13.85,53.13-15.86,77.66-.32,2.21,2.37.44,1.27-1.1,1.1-2.07-.24-3.44-.82-5.89-.61-1.04-1.69-2.71-1.86-4.47-2.03-22.98-2.2-46.01.46-65.47,13.59-13.36,9.01-25.39,25.55-42.06,27.45,2,2.43,4.33,4.32,7,5.99Z"/>
  <path class="st25" d="M438.99,233.99c-5.08-1.7-6.81-7.64-10.98-11.51-4.88-4.52-13.89-8.97-20.51-9.51-5.49-.45-13.82,4.11-15.35-3.72-1.75-8.96,16.65-8.91,22.27-8.17,14.37,1.89,27.44,18.23,24.58,32.91Z"/>
  <path class="st29" d="M265.78,210.79c-2.14,1.52-13.44-.29-18.27,1.13-6.95,2.05-12.7,7.06-18.5,11.08-.45-14.99,18.48-30.44,32.53-23.04,3.25,1.71,7.28,8.67,4.24,10.83Z"/>
  <path class="st28" d="M317.8,377.26c28.39-2.49,17.24,39.4-6.54,43.5-29.27,5.05-18.83-41.28,6.54-43.5Z"/>
  <path class="st28" d="M179.71,369.21c16.64-3.83,22.51,21.95,19.02,34.02-5.32,18.43-22.62,3.85-26.45-8.02-2.53-7.85-2.78-23.66,7.43-26.01Z"/>
  <path class="st32" d="M401.71,278.21c11.63-3.49,13.74,14.56,4.65,19.66-10.41,5.84-13.4-17.03-4.65-19.66Z"/>
  <path class="st41" d="M243.71,267.16c11.28-3.38,11.1,18.33,1.62,18.59-8.67.24-7.61-16.79-1.62-18.59Z"/>
  <path class="st9" d="M314.71,389.21c11.21-2.6,9.5,9.21,4.7,15.7-7.28,9.84-21.1,12.04-15.93-3.93,1.13-3.5,7.72-10.96,11.22-11.77Z"/>
  <path class="st26" d="M182.63,381.14c6.51-1.22,11.72,19.09,5.73,20.8s-13.02-19.43-5.73-20.8Z"/>
</svg>