<?xml version="1.0" encoding="UTF-8"?>
<svg id="Layer_1" xmlns="http://www.w3.org/2000/svg" version="1.1" viewBox="0 0 133.44 133.44">
  <!-- Generator: Adobe Illustrator 29.5.1, SVG Export Plug-In . SVG Version: 2.1.0 Build 141)  -->
  <defs>
    <style>
      .st0 {
        fill: #f6bcbc;
      }

      .st1 {
        fill: #f6bbba;
      }

      .st2 {
        fill: #e41e22;
      }

      .st3 {
        fill: #e41d22;
      }

      .st4 {
        fill: #f6bbbb;
      }

      .st5 {
        fill: #591440;
      }

      .st6 {
        fill: #fce3dc;
      }

      .st7 {
        fill: #fce2db;
      }

      .st8 {
        fill: #e31e21;
      }

      .st9 {
        fill: #d87cb0;
      }

      .st10 {
        fill: #8c1a5e;
      }

      .st11 {
        fill: #bba782;
      }

      .st12 {
        fill: #baa782;
      }

      .st13 {
        fill: #f1db4c;
      }

      .st14 {
        fill: #227346;
      }

      .st15 {
        fill: #65b5d5;
      }

      .st16 {
        fill: #fce3db;
      }

      .st17 {
        fill: #e49657;
      }

      .st18 {
        fill: #eb635a;
      }

      .st19 {
        fill: #2fab66;
      }

      .st20 {
        fill: #aa886f;
      }
    </style>
  </defs>
  <path class="st9" d="M38.53,40.82c14.71-.41,29.43-.41,44.14,0l.29.5c-.44,3.48,1.37,6.44,4.22,7.72.43-.29,1-.31,1.71-.06.69-.12,1.25-.03,1.68.27.16.06.16.13,0,.21l.38.2v50.1l-.38.26c-.13.59-1.45.71-1.69.21-3.41,1.35-4.35,3.29-4.75,7.09-.02.22-.16.38-.32.5l-.29-.86c-15.8.02-31.61.01-47.41.01,0,.62-.63.59-.75,0l-.39-.38c-.15-2.38-1.42-4.59-3.37-5.6l-.19-.55.38-1.78c-.53-16.43.67-33.37,0-49.74-.03-.62-.18-1.17-.2-1.78l.31-.44c2.67-.26,5.02-2.56,5.47-5.55l.42-.33c0-.62.63-.59.75,0Z"/>
  <path class="st14" d="M102.01,36.19v52.04c-.13.61-.69.54-.94,0-5.11.53-7.44,7.63-4.08,11.88l-.05.34-1.5,1.69c-.05.18-.12.18-.19,0h-.57c-1.06-.96-2.37-1.52-3.73-1.65l-.4-.45v-50.56c2.22-.89,3.98-2.4,4.75-4.98.87-2.91.17-4.49-1.15-6.9-.1-.17-.1-.35-.03-.55l-.12-.47c.3-.54,1.83-2.3,2.37-2.06l.53-.07c1.35,1.11,3.06,1.44,4.71,1.36l.4.39Z"/>
  <path class="st19" d="M94.31,28.18l.35.45c-.06,1.92.46,3.89,1.69,5.27l.03.6-2.25,2.53-.28.09c-.87-.78-1.82-1.46-2.91-1.77-.92.44-2.65.43-3.57,0-2.06.98-3.74,2.6-4.27,5.17l-.43.31h-44.14l-.35-.47c.05-1.83-.6-3.48-1.51-4.96l.17-.48,1.69-1.69.36-.14,1.52,1.19c.35-.28.84-.25,1.48.11.67-.05,1.11.13,1.34.53,3.21-.24,5.88-2.64,6.18-6.33l.4-.41h44.51Z"/>
  <path class="st18" d="M102.95,22.28c6.34,2.46,5.57,12.48-.94,13.9-1.97.18-4.1-.21-5.63-1.69-1.61-1.55-2.24-4.01-2.07-6.32.38-5,4.64-7.03,8.64-5.9Z"/>
  <path class="st18" d="M90.55,100.02c1.76.08,3.4.77,4.7,2.11,3.11,4.69,1.34,11.21-4.13,12.22-1.18.08-1.89-.01-3.01-.42-5.68-2.86-5.23-11.68.75-13.69.65-.15.94-.24,1.69-.21Z"/>
  <path class="st18" d="M34.02,33.45c1.78.87,3.07,2.14,3.74,4.21.28.88.77,2.61.02,3.16-.31,3.51-3.13,6.23-6.2,6.32-1.04.03-1.32-.07-2.25-.42-5.79-3.1-5.06-11.84,1.13-13.69,1.63-.3,2.01-.15,3.57.42Z"/>
  <path class="st18" d="M102.01,88.23c.53,0,.83.11,1.31.21,6.62,2.02,6.33,12.32-.38,13.9-1.74.27-2.12.27-3.76-.42-5.87-3-4.55-12.88,1.88-13.69.26-.05.65,0,.94,0Z"/>
  <path class="st18" d="M31.39,100.44c2.4,1.05,3.91,3.7,3.94,6.53.7.71.17,2.39-.19,3.3-.9,2.27-2.92,3.7-5.07,4.07-1.18.08-1.89-.01-3.01-.42-5.72-2.92-5.27-11.64.75-13.69,1.28-.26,2.28-.35,3.57.21Z"/>
  <path class="st18" d="M44.54,20.81c2.01.6,3.72,2.08,4.46,4.3.29.88.74,2.45.05,3.07.68.62-.02,2.39-.42,3.18-1.15,2.3-3.15,3.3-5.4,3.56-1.3,0-1.64-.11-2.82-.63-5.78-3.33-4.22-11.69.94-13.48,1.28-.28,1.9-.25,3.19,0Z"/>
  <path class="st8" d="M101.07,88.23c-5.02.89-6.98,8.2-3.48,12.23l1.6,1.47c-.95-.4-1.51-.68-2.25-1.47-3.95-4.23-1.38-12.12,4.13-12.22Z"/>
  <path class="st4" d="M102.01,36.19c6.09-2.06,6.75-10.89.94-13.9,7.08,2.01,5.83,13.29-.94,13.9Z"/>
  <path class="st0" d="M102.95,102.34c6.22-2.06,6.49-11.47.38-13.9,7.04,1.5,6.99,12.76-.38,13.9Z"/>
  <path class="st2" d="M27.82,100.23l-2.05,1.39c-3.13,2.86-3.18,8.3-.02,11.15l1.32,1.16c-6.32-2.33-5.69-12.38.75-13.69Z"/>
  <path class="st2" d="M41.35,20.81l.12.23c-4.03,1.38-5.64,6.89-3.28,10.79l2.22,2.46c-.59-.26-1.39-.6-1.88-1.05-3.99-3.73-2.24-11.31,2.82-12.43Z"/>
  <path class="st2" d="M30.45,33.03l-2.13,1.3c-2.96,2.45-3.48,7.24-1.07,10.4l2.07,2c-6.3-2.39-5.56-12.47,1.13-13.69Z"/>
  <path class="st3" d="M88.86,100.23l-2.05,1.39c-3.13,2.86-3.18,8.3-.02,11.15l1.32,1.16c-2.51-.92-4.17-3.11-4.32-6.11-.2-3.92,1.63-6.79,5.07-7.58Z"/>
  <path class="st4" d="M91.12,114.35c3.57-.99,5.76-4.35,5.24-8.51-.13-1.07-.75-1.89-1.1-2.79-.13-.35-.27-.57-.02-.92.03.03.16-.04.19,0,3.76,4.29,1.22,11.87-4.32,12.22Z"/>
  <path class="st1" d="M36.09,106.98c.2,4-2.5,7.15-6.01,7.37,3.23-.97,5.31-3.54,5.26-7.37h.75Z"/>
  <path class="st12" d="M36.84,34.92c.1.09,1.12,2.21,1.23,2.52.37,1.08.54,2.22.46,3.38h-.75c.27-3.07-1.39-5.98-3.76-7.37,1.42.52,1.33.6,2.44,1.56.12.11.36-.1.38-.08Z"/>
  <path class="st4" d="M49.8,28.18c0,.62-.63.59-.75,0,.16-3.55-1.61-6.14-4.51-7.37,3.34.65,5.35,3.55,5.26,7.37Z"/>
  <path d="M35.52,61.26c11.86-.04,23.74-.13,35.65-.28l.22.42v39.1s-.38.57-.38.57h-35.5s0-39.82,0-39.82Z"/>
  <path class="st17" d="M71.02,101.08v-39.82s-35.5,0-35.5,0v-.21l.79-.42,34.47.04c2.51-2.58,5-5.15,7.46-7.74l.48-.1v39.92c-.14.81-2.65,2.98-3.29,3.69-.74.82-3.76,4.52-4.41,4.64Z"/>
  <path class="st13" d="M78.72,52.83c-2.66,2.66-4.95,5.78-7.8,8.21h-35.4c2.46-2.86,4.93-5.85,7.61-8.42h35.13s.46.21.46.21Z"/>
  <path class="st18" d="M90.93,35.35c6.59,2.03,6,12.43-.38,13.9-1.15.34-2.27.14-3.38-.21-6.2-2.82-5.2-11.66.19-13.69,1.11-.25,2.37-.23,3.57,0Z"/>
  <path class="st20" d="M94.12,37.03c3.8,4.07,1.56,11.53-3.57,12.43v-.21c1.06-.31,2.7-1.65,3.38-2.64,2.72-3.97,1.06-9.56-3-11.27,1.12.22,2.36.8,3.19,1.69Z"/>
  <path class="st2" d="M87.36,35.35l.12.23c-4.65,1.88-5.78,8.79-1.81,12.3l1.5,1.16c-3.32-1.06-5.14-4.41-4.51-8.22.45-2.75,2.24-4.93,4.7-5.48Z"/>
  <path class="st11" d="M49.8,28.18c-.1,4.12-3.01,6.74-6.57,6.74.79-.32,1.61-.4,2.38-.8,2-1.05,3.33-3.48,3.44-5.94h.75Z"/>
  <path class="st16" d="M104.45,27.76c-.41-2.14-2.88-3.66-4.7-3.9,1.56-1.53,4.68.17,5.03,2.37.08.5.2,1.32-.33,1.53Z"/>
  <path class="st6" d="M94.12,105.92c-.37-.28-.43-.92-.75-1.37-.64-.92-2.02-1.93-3-2.33-.21-.08-1.59-.01-1.13-.52.12-.14,1.25-.41,1.54-.38,1.92.19,4.08,2.3,3.34,4.59Z"/>
  <path class="st6" d="M35.52,38.72l-1.13-1.79c-1.14-1.02-2.45-1.97-3.94-2.11,2.26-1.73,5.64.84,5.07,3.9Z"/>
  <path class="st6" d="M105.2,94.12c-.16-1.87-1.78-2.83-3.13-3.55l-1.57-.66c2.07-1.3,5.49.91,5.06,3.67-.04.25-.11.5-.37.54Z"/>
  <path class="st6" d="M33.08,105.92c-.37-.28-.43-.92-.75-1.37-.64-.92-2.02-1.93-3-2.33-.21-.08-1.59-.01-1.13-.52.12-.14,1.25-.41,1.54-.38,1.92.19,4.08,2.3,3.34,4.59Z"/>
  <path class="st7" d="M46.79,26.5c-.37-.28-.43-.92-.75-1.37-1.02-1.45-2.6-2.23-4.13-2.74,2.14-1.6,5.76,1.2,4.88,4.11Z"/>
  <rect class="st15" x="39.28" y="65.47" width="27.98" height="31.39"/>
  <path class="st6" d="M92.99,40.82c-1.18-1.97-2.73-3.47-4.88-3.9,2-1.7,5.68,1.14,4.88,3.9Z"/>
  <path class="st10" d="M44.16,91.6l-.19-20.86h18.59c0,1.89,0,3.8,0,5.69l-.32.79-16.98,13.99-1.1.39Z"/>
  <path class="st5" d="M62.57,76.43c.01,5.05-.01,10.12,0,15.17h-18.41s18.41-15.17,18.41-15.17Z"/>
</svg>