<?xml version="1.0" encoding="UTF-8"?>
<svg id="Layer_1" xmlns="http://www.w3.org/2000/svg" version="1.1" viewBox="0 0 1024 1024">
  <!-- Generator: Adobe Illustrator 29.5.1, SVG Export Plug-In . SVG Version: 2.1.0 Build 141)  -->
  <defs>
    <style>
      .st0 {
        fill: #f0b448;
      }

      .st1 {
        fill: #b67b32;
      }

      .st2 {
        fill: #ba7f34;
      }

      .st3 {
        fill: #e9ae46;
      }

      .st4 {
        fill: #c68132;
      }

      .st5 {
        fill: #e9ac46;
      }

      .st6 {
        fill: #ecab44;
      }

      .st7 {
        fill: #e7ab43;
      }

      .st8 {
        fill: #efb449;
      }

      .st9 {
        fill: #e6a842;
      }

      .st10 {
        fill: #e8ab44;
      }

      .st11 {
        fill: #eaae46;
      }

      .st12 {
        fill: #8e5c23;
      }

      .st13 {
        fill: #e9ac45;
      }

      .st14 {
        fill: #a66d29;
      }

      .st15 {
        fill: #0e100a;
      }

      .st16 {
        fill: #ca8534;
      }

      .st17 {
        fill: #e49436;
      }

      .st18 {
        fill: #c58231;
      }

      .st19 {
        fill: #b0772f;
      }

      .st20 {
        fill: #e7aa44;
      }

      .st21 {
        fill: #e7ad46;
      }

      .st22 {
        fill: #925f25;
      }

      .st23 {
        fill: #edb449;
      }

      .st24 {
        fill: #c27e2f;
      }

      .st25 {
        fill: #e9ad46;
      }

      .st26 {
        fill: #ba7f33;
      }

      .st27 {
        fill: #e6aa45;
      }

      .st28 {
        fill: #956226;
      }

      .st29 {
        fill: #e7aa43;
      }

      .st30 {
        fill: #b97e33;
      }

      .st31 {
        fill: #e8ad46;
      }

      .st32 {
        fill: #bb7f35;
      }

      .st33 {
        fill: #e9ab43;
      }

      .st34 {
        fill: #8e5d24;
      }

      .st35 {
        fill: #e7a843;
      }

      .st36 {
        fill: #d8943a;
      }

      .st37 {
        fill: #f0b045;
      }

      .st38 {
        fill: none;
      }

      .st39 {
        fill: #ebad44;
      }

      .st40 {
        fill: #e8ad47;
      }

      .st41 {
        fill: #eeb247;
      }

      .st42 {
        fill: #ba7e34;
      }

      .st43 {
        fill: #bb7e34;
      }

      .st44 {
        fill: #e8ac45;
      }

      .st45 {
        fill: #f2b648;
      }

      .st46 {
        fill: #c58131;
      }

      .st47 {
        fill: #df9f3e;
      }

      .st48 {
        fill: #c37f30;
      }

      .st49 {
        fill: #ecb148;
      }

      .st50 {
        fill: #e9ae45;
      }

      .st51 {
        fill: #ebac45;
      }

      .st52 {
        fill: #c27e2e;
      }

      .st53 {
        fill: #c68131;
      }

      .st54 {
        fill: #e8ac43;
      }

      .st55 {
        fill: #eeac44;
      }

      .st56 {
        fill: #e8ad45;
      }

      .st57 {
        fill: #edac44;
      }

      .st58 {
        fill: #b97f33;
      }

      .st59 {
        fill: #e09c3d;
      }

      .st60 {
        fill: #b0742c;
      }

      .st61 {
        fill: #986527;
      }

      .st62 {
        fill: #e9af46;
      }

      .st63 {
        fill: #ecad45;
      }

      .st64 {
        fill: #e9af47;
      }

      .st65 {
        fill: #cd8633;
      }

      .st66 {
        fill: #e9af45;
      }

      .st67 {
        fill: #e5a742;
      }

      .st68 {
        fill: #e6a942;
      }

      .st69 {
        fill: #9c6728;
      }

      .st70 {
        fill: #e8ab42;
      }

      .st71 {
        fill: #ce8835;
      }

      .st72 {
        fill: #edaf47;
      }

      .st73 {
        fill: #e8aa44;
      }

      .st74 {
        fill: #ac752f;
      }

      .st75 {
        fill: #ebae46;
      }

      .st76 {
        fill: #f3b547;
      }

      .st77 {
        fill: #e7ac44;
      }

      .st78 {
        fill: #ebb348;
      }

      .st79 {
        fill: #b97e34;
      }

      .st80 {
        fill: #ecb047;
      }

      .st81 {
        fill: #e4a541;
      }

      .st82 {
        fill: #ebb047;
      }

      .st83 {
        fill: #f6b143;
      }

      .st84 {
        fill: #e9aa43;
      }

      .st85 {
        fill: #c88231;
      }

      .st86 {
        fill: #ce8631;
      }

      .st87 {
        fill: #ebaf47;
      }

      .st88 {
        fill: #e7ad44;
      }

      .st89 {
        fill: #8f5d24;
      }

      .st90 {
        fill: #c48031;
      }

      .st91 {
        fill: #eaad45;
      }

      .st92 {
        fill: #b97d33;
      }

      .st93 {
        fill: #e9ac43;
      }

      .st94 {
        fill: #e8ac44;
      }

      .st95 {
        fill: #e7aa42;
      }

      .st96 {
        fill: #ca8433;
      }

      .st97 {
        fill: #eaaf46;
      }

      .st98 {
        fill: #ecac44;
      }

      .st99 {
        fill: #e8aa42;
      }

      .st100 {
        fill: #e8ab43;
      }

      .st101 {
        fill: #edb247;
      }

      .st102 {
        fill: #ca8331;
      }

      .st103 {
        fill: #cd8533;
      }

      .st104 {
        fill: #e5ab45;
      }

      .st105 {
        fill: #edb147;
      }

      .st106 {
        fill: #e8aa45;
      }

      .st107 {
        fill: #e7a841;
      }

      .st108 {
        fill: #edaf45;
      }

      .st109 {
        fill: #e3a341;
      }

      .st110 {
        fill: #eaad44;
      }

      .st111 {
        fill: #e8a941;
      }

      .st112 {
        fill: #c88431;
      }
    </style>
  </defs>
  <line class="st38" x1="2327.88" y1="624" x2="2327.88" y2="623"/>
  <path class="st15" d="M973.9,447.03c-4.01-3.1-23.06-11.38-28.21-12.72-16.56-4.33-27.39,10.89-41.39,16.94v-75.48c14.24-12.15,45.22-22.68,55.3-38.18,7.27-11.18,9.23-46.23-2.45-55.24-7.04-5.43-58.12-27.59-65.84-27.35-3.26.1-7.23,2.36-10.49,3.01-3.4-8.2-3.27-10.55-11.05-15.27-6.57-3.99-53.86-24.84-59.06-24.7-2.52.07-8.78,3.02-9.55,2.94-.73-.08-3.27-6.17-4.69-7.77-5.71-6.45-63.44-31.93-72.82-33.17-5.2-.69-12.95,1.99-14.62,1.71-1.07-.18-2.26-3.36-3.56-4.49-10.37-9.02-59.56-30.67-72.83-31.11-7.31-.24-15.6,2.98-22.12,6.16-40.61,19.78-82.99,46.95-123.14,68.99-76.11,41.77-153.12,82.24-228.53,125.26-10.63,6.07-32.87,16.43-38.24,26.88-5.77,11.22-1.55,46.68,6.03,56.64,6.38,8.38,29.64,15.19,38.95,21.42.6,5.41,4.12,27.74,1.3,30.91-1.17,1.32-13.26,7.55-16.06,9.14-14.43,8.18-31.31,17.18-46.38,23.95-19.08,8.56-43.26,18.94-63.89,10.9-2.5-.98-20.47-10.93-21.08-11.98-1.36-2.31,1.35-5.28,2.53-7.11,13.78-21.27,37.67-30.68,55.34-46.58,22.65-20.39,12.58-49.75-11.3-63.49-56.53-32.54-107.79,24.12-132.76,70.2-28.9,53.34-40.92,134.29,10.1,178.09,49.1,42.16,105.51,9.87,150.55-19.92l89.59,52.73c-14.92,58.89-.49,127.91,59.04,154.21,62.03,27.4,128.16-9.48,181.43-40.12,78.76-45.3,156.07-99.18,232.79-148.42,47.59-30.54,95.82-60.11,143.21-90.97,16.73-10.89,62.87-37.33,73.33-50.61,9.51-12.08,13.77-45.18.54-55.4h.03ZM122,590.51c-.78,2.4-2.99,4.19-6.04,3.07-8.45-3.1-12.7-10.07-15.17-18.47-1.41-4.81,5.35-9.31,8.75-5.14,3.8,4.66,8.4,9.03,14.44,10.26,6.33,1.28,4.01,10.67-1.98,10.28h0ZM529.5,686.59c-3.13,8.46-8.64,14.93-15.4,20.71-16.84,14.41-37.35,24.92-58.05,32.38-17.8,6.41-40.89,12.78-59.14,4.62-21.14-9.45-20.93-39.83-14.58-58.69,8.91-26.46,30.53-46.13,50.36-64.51,9.26-8.58,20.26-17.17,26.8-28.18,3.96-6.68,5.5-14.29.48-20.83-5.41-7.03-14.66-10.87-22.78-13.55-10.08-3.33-20.64-5.26-31.21-6.13-10.14-.83-20.5-.97-30.41,1.62-16.85,4.4-31.87,14.72-43.12,27.99-5.5,6.48-6.94,13.92-9.59,21.79-2.09,6.22-5.28,12.86-11.4,15.92-10.13,5.06-19.29-2.26-24.24-11.12-4.88-.99-9.73-2.15-14.55-3.43-6.23-1.65-12.46-3.46-18.43-5.9-3.8-1.55-8.37-3.32-10.57-7.06-1.42-2.4-.59-5.86,1.88-7.22,1.63-.9,3.29-1.64,4.98-2.23.1-1.42.69-2.8,1.91-3.75.99-1.61,2.75-2.64,5.03-2.08,17.27-6.62,30.87-19.43,44.93-31.22,14.26-11.94,29.2-21.95,47.16-27.21,16.44-4.81,33.38-4.9,49.68.51,17.13,5.69,32,16.02,48.52,23.01,13.33,5.64,27.24,11,35.83,22.99,1.86.72,3.7,1.47,5.53,2.28,13.08,5.77,25.7,14.29,33.6,26.54,8.31,12.87,7.38,28.8,8.89,43.53,1.64,16.06,3.62,33.73-2.12,49.23h0ZM820.96,491.28c-1.5,13.62-6.62,26.17-15.97,36.24-10.54,11.37-25.22,19.43-38.67,26.74-14.6,7.94-29.74,14.81-44.81,21.79-30.02,13.89-60.68,28.34-84.46,52.06-2.27,2.27-6.68,2.01-8.22-1.07-10.71-21.44-5.22-47.14-4.92-70.16-4.52-.02-7.49-6.96-2.63-9.9,40.69-24.64,80.96-50,122.06-73.95,16.01-9.33,31.74-21.51,49.32-27.62,8.92-3.09,19.61-4.4,24.36,5.72,2.51,5.35,2.98,11.54,3.6,17.34.8,7.59,1.17,15.21.33,22.81h0Z"/>
  <path class="st34" d="M956.64,468.14c6.2-2.63,4.19,10.4,2.97,14.81-.62,2.26-1.58,4.42-2.97,6.31-.54,1.15-.16,1.67-1.53,3.17-5.86,6.43-27.69,19.04-36.24,24.72-108.29,71.9-219.02,141.29-328.65,211.14-46.7,29.75-132.1,87.32-185.17,94.57-3.36-.32-6.68-.32-9.94,0-4.55,1.07-10.93,1.02-15.7,0-3.22-.45-6.54-.8-9.94-1.06-11.21-4.23-23.34-19.89-28.26-30.62-5.73-15.3-9.22-31.13-10.47-47.51-1.98-17.74-.73-36.71,4.19-53.84,2.35-11.92,5.84-23.53,10.47-34.84,6.82-14.21,15.87-27.25,26.17-39.06,4.9-3.94,10.14-9.22,15.7-15.84,7.25-6.36,14.91-12.26,23.11-17.33,5.08-3.14,18.5-11.16,23.73-12.05,7.28-1.23,13.62,10.08,12.41,16.74s-21.47,17.16-27.74,21.72c-16.62,12.1-30.43,24.95-41.78,42.31-2.64,4.04-12.38,25.43-13.8,25.66-10.56,23.53-11.93,53.22-4.19,78.12,12.87,29.88,35.27,40.53,66.99,34.84,21.18-2.6,42.8-14.43,60.71-25.34,36.45-19.86,71.11-44.34,106.76-65.45,8.6-5.24,16.62-10.51,24.07-15.84,70.88-46.24,142.99-90.42,214.47-135.75,41.06-26.04,82.48-55.95,124.64-79.62v.04Z"/>
  <path class="st32" d="M768.24,221.11c1.58.07,6.28,2.06,4.63,3.43-12.82,6.2-24.48,12.79-34.99,19.79-115.93,66.17-230.88,134.62-347.49,199.53-4.29,1.7-8.69,3.73-13.22,6.07-15.72-7.03-30.85-15.04-45.4-24.02-1.17.57-6.97-2.7-5.45-3.67,11.22-5.86,21.75-12.03,31.62-18.5,10.47-5.94,20.9-12.04,31.4-17.95,19.52-9.2,38.01-19.4,55.47-30.62,42.27-23.78,84.4-47.96,126.64-71.79,13-5.63,28.99-14.99,39.77-22.17,35.01-19.79,69.74-40.22,104.66-60.17l6.33-.18c15.8,4.94,31.86,12.17,46,20.24h.03Z"/>
  <path class="st32" d="M922.1,286.56c1.79.85,21.81,10.43,20.93,11.6-10.31,4.3-20.02,10.32-29.63,16.05-98.24,58.58-195.34,119.21-293.47,178-17.85,10.7-47.24,31.5-65.21,38.22-1.97,1.61-4.24,2.85-6.79,3.04-17.01-7.19-33.24-15.59-48.68-25.21,27.42-16.75,55.09-33.18,82.68-49.62,21.46-10.59,45.15-24.65,64.89-38.01,46.82-27.99,93.44-56.44,140.25-84.46,11.93-4.99,25.13-13.66,35.59-21.11,19.12-11.43,37.69-24.79,57.57-34.84,8.44-3.53,14.82-5.67,23.76-1.11,5.96,3.24,12,5.73,18.1,7.44h.01Z"/>
  <path class="st43" d="M826.85,246.44l26.66,11.39c2.19.95,1.33,2.78-2.59,5.5-24.01,15.84-49.59,29.66-74.31,44.34-17.4,8.29-36.15,20.09-52.33,30.62-85.4,50.86-170.41,102.55-255.38,154.13l-2.55-.03c-17.24-8.07-34.32-16.52-51.24-25.33l-.35-1.44c19.68-10.37,39.12-21.15,58.32-32.33,10.45-6.89,21.25-13.39,32.45-19,8.1-4.46,15.77-9.03,23.03-13.72,3.5-2.03,6.95-4.3,10.47-6.33,13.79-7.14,27.74-14.89,41.87-23.23,10.37-5.76,20.14-11.74,29.31-17.95,15.45-8.91,30.55-18.64,46.05-27.45,8.63-3.43,17-8,25.12-13.72,12.06-6.38,23.23-13.07,33.49-20.06,26.91-16.12,56.97-35.92,84.78-49.62,9.45-5.17,18.77-1.48,27.21,4.22h0Z"/>
  <path class="st32" d="M682.41,187.32l.42.86c-10.14,6.12-19.7,11.82-28.68,17.09-34.11,19.13-68.37,38.05-102.57,57.01-11.93,4.69-27.05,13.59-36.63,20.06-4.91,2.72-9.71,5.72-14.65,8.45-13.48,5.74-29.69,14.81-40.82,22.17-23.42,12.9-46.64,26.27-70.13,39.06-15.68,7.24-31.38,15.69-47.1,25.34-9.06,4.43-17.43,9.36-25.12,14.78-5.36,3.03-21.19,13.8-25.91,14.61-4.31.74-8.26-3.32-11.77-5.11-7.73-4.97-16.1-9.54-25.12-13.72-4.18-2.55-8.46-4.8-13.07-6.53,3.03-2.67,6.34-5.07,9.93-7.19.96-.56,1.89-1.41,3.14-2.11,15.36-7.48,30.71-15.57,46.05-24.28,15.46-8.48,29.76-16.57,42.91-24.28.9-.49,1.89-1.42,3.14-2.11,11.11-3.76,24.95-12.1,33.49-17.95,5.6-3.08,11.14-6.41,16.75-9.5,14.35-5.45,31.03-15.8,42.91-23.23,13.67-7.52,27.13-15.69,40.82-23.23,14.14-5.72,31.17-15.6,42.91-23.23,6.29-3.45,12.53-7.1,18.84-10.56,12.59-5,28.49-14.33,38.73-21.11,4.23-2.3,8.29-5.07,12.56-7.39,11.32-5.89,22.82-11.77,34.49-17.63,7.8-1.77,20.16,3.52,27.56,6.85,9.08,4.09,18.08,8.28,26.91,12.9v-.02Z"/>
  <path class="st12" d="M553.68,539.4l389.9-235.93c2.51-.78,1.67,5.21,1.6,6.9-.29,7.47-.93,17.55-7.45,22.04-127.98,77.68-256.52,154.44-384.05,232.85v-25.86h0Z"/>
  <path class="st34" d="M75.36,529.37c-1.05,13.7,1.11,27.79,6.5,42.26.54,5.57,1.16,8.02,1.88,7.36.5-.05.82.03,1.03.54,3.43,16.32,12.15,31.5,29.33,35.35,12.94-.72,25.75-4.99,38.42-12.81,3.55,1.78,7.14,3.24,10.77,4.36l11,7.4c-14.48,8.96-29.72,20.06-45.54,26.39l-2.19-.14c-13.67,5.31-27.92,9.1-41.77,2.25-31.98-20.19-28.17-85.18-19.89-116.13,4.2-12.9,8.96-25.67,14.65-38.01,13.69-25.22,37.1-49.56,62.1-63.52,9.1-5.08,17.32-11.71,24.77-1.4,4.11,5.69,4.6,12.79.87,18.82-4.51,7.28-35.01,25.85-44.33,34.46-9.96,9.2-18.31,25-26.08,31.76-4.94,4.3-10.41,3.91-15.77,10.48-1.95,2.38-5.16,10.65-5.75,10.57h0Z"/>
  <path class="st79" d="M346.44,596.94l1.11-.33c18.18-24.19,47.82-48.02,78.14-31.02-5.76,2.63-10.89,5.69-15.41,9.18-22.48,16.91-40.73,29.03-57.57,52.78-15.21,19.43-25.27,44.25-31.4,68.62-2.72,25.99-2.87,52.51,3.14,78.12,4.03,11.21,8.56,22.12,13.59,32.72-3.03-.98-5.82-2.74-8.36-5.27-6.41-4.16-11.67-11.31-15.7-17.95-27.87-52.42-13.75-110.27,13.61-159.41,5.88-9.95,11.58-18.45,18.84-27.45h.01Z"/>
  <path class="st2" d="M101.53,417.47c13.95-7.89,29.82-13.59,46.76-6.86l.24,1.2c-3.65,1.59-6.76,3.47-9.33,5.65-29.5,23.25-49.33,35.49-68.03,70.73-12.6,19.86-18.18,45.17-21.98,68.62-.87,27.25,2.11,53.89,13.9,78.06-2.29-.39-4.48-1.42-6.57-3.1-4.96-4.12-8.97-8.34-12.56-13.72-30.15-52.2-10.41-112.94,18.84-160.47,2.26-3.3,4.84-6.38,7.33-9.5,5.67-5.35,15.36-15.9,21.98-23.23,3.43-2.98,5.55-4.83,9.42-7.39h0Z"/>
  <path class="st92" d="M153.86,557.87c13.38,7.94,26.64,15.33,39.77,22.17,18.56,10.75,36.95,21.91,55.47,32.73,15.44,8.64,30.44,17.79,45.01,27.45.71-.34,1.52-.28,1.8.43.51,1.27-7.08,17.48-8.55,17.07-6.38-4.21-12.86-7.58-19.41-10.11-11.27-6.45-22.27-13.55-33.49-20.06-8.06-5.98-22.31-14.78-33.49-19-21.67-12.56-43.3-25.3-64.89-38.01-9.89-6.58-20.36-12.91-31.4-19-11.61-2.07-11.3-26.84-.49-21.61,17.07,8.26,33.91,18.37,49.68,27.95h0Z"/>
  <path class="st12" d="M255.38,537.82c28.68-15.12,56.49-32.26,84.78-48.13,1.1-.58,2.03-.28,3.13,0,1.33.33,15.87,8.89,17.14,10.03.81.73,1.08,1.72.65,2.18l-131.94,76.54c-1.42.94-2.67.5-4.13.09-7.05-1.96-17.09-11.66-25.1-13.29-.42-2.69.23-1.64,1.46-2.2,5.69-2.58,11.63-4.63,17.37-7.29,12.14-3.43,27.12-11.7,36.63-17.95v.02Z"/>
  <path class="st1" d="M632.18,664.5c-1.07.54-1.65,1.42-3.13,1.05.82-5.2-1.89-15.27,1.68-18.88l193.08-120.99c2.11-1.1,4.2.38,6.18,1.09,3.76,1.34,9.4,4.3,12.58,6.82l-194.67,120.36c-3.02,2.04-3.41-.72-1.32-3.28l11.39-6.66c-.05-.4-5.71-4.85-6.06-5.04-.91-.51-17.62,9.12-18.27,9.93-.99,1.23-.57,11.34.09,13.59l-1.53,2.02h-.02Z"/>
  <path class="st34" d="M603.92,676.11c-3.95,3.65-9.69,6.58-14.65,8.45l-6.08,3.38c-1.02-39.2-.77-79.73-.22-117.81,3.87-2.19,7.37-4.52,10.48-6.97,1.04-.67,1.93-1.38,3.14-2.11,3.5-1.77,7.33-3.53,11.51-5.28l1.05.18c.03,38.22.01,76.45-.06,114.69l-.98.73c-.64,1.77-2.04,3.36-4.19,4.75h0Z"/>
  <path class="st34" d="M881.28,391.07l2.14-.49c.98,30.29.71,61.32.26,91.86-.05,3.39-.21,9.43-.9,12.56-.25,1.14-.72,1.86-1.5,2.7-3.94,3.9-13.93,10.91-18.84,13.72-.59-.06-1.05-.12-1.05-.18-.46-35.43-.33-71.9.08-107.27l.97-1.28c4.93-4.24,13.07-7.87,18.84-11.61h0Z"/>
  <path class="st26" d="M689.74,366.79c55.17-32.85,110-66.33,165.43-98.77,11.68,1.72-.66,7.25-5.29,10.09-17.52,8.11-36.24,19.9-52.33,30.62-13.97,8.37-27.87,16.98-41.87,25.34-15.01,6.93-31.3,17.31-45.01,26.39-11.56,6.9-22.98,14.2-34.54,21.11-17.5,7.92-36.25,19.95-52.33,30.62-29.71,17.8-59.35,35.87-88.96,53.84-19.43,9.6-39.33,21.68-57.25,34.33-3.39,8.56-6.71-1.96-.92-5.17,2.64-.92,4.59-2.19,5.84-3.82,55.94-36.41,115.34-70.17,172.7-104.51,12.23-5.23,23.74-11.91,34.54-20.06h0Z"/>
  <path class="st19" d="M536.93,703.56c2.96-.72,5.86-2.24,8.7-4.55,3.42-2.84,19.36,7.11,19.01,8.48-1.5.73-2.37,1.54-2.59,2.4-36.3,22.11-71.61,46.91-110.94,63.34-1.56-1.42-1.25-2.51.5-3.43l17.92-8.58c-2-1.21-3.32-3.16-4.38-5.19-2.3,1.13-4.79.71-7.48-1.25l-15.64,7.77c-2.48.4-3.37-.64-2.44-3.03,34.43-14.6,65.27-37,97.34-55.95h0Z"/>
  <path class="st58" d="M766.15,241.16c-35.44,21.45-71.9,41.61-107.8,62.29-16.63,7.67-35.04,18.43-50.24,28.5-4.19,2.41-8.35,4.97-12.56,7.39-13.55,5.88-28.7,14.93-40.82,23.23-5.95,3.43-11.83,7.12-17.79,10.56-16.58,7.57-35.03,18.62-50.24,28.5-32.52,18.86-65.33,37.98-97.16,57.72l-.17,6.68c-3.1,1.79-4.28,1.97-3.55.53-.9-4.94-1.53-12.33,2.5-14.26,2.77-1.77,5.56-3.59,8.37-5.28,14.14-6.26,30.14-15.76,42.91-24.28,31.05-17.92,62.01-36.07,93.15-53.84,11.57-5.88,23.43-12.22,35.59-19,12.5-8.62,26.16-15.52,39.77-22.17,13.99-8.91,28.19-17.68,42.91-25.34,12.85-7.41,25.06-14.8,36.63-22.17,10.86-6.2,21.55-12.85,32.45-19,14.97-7.31,29.97-15.4,45.01-24.28l11.88-6.34c4.24,2.33-8.27,8.69-10.35,9.49l-.48,1.07h-.01Z"/>
  <path class="st32" d="M335.97,438.58c7.49,3.62,14.68,7.65,21.98,11.61,5.36,3.1,10.71,6.43,16.07,9.99l1.68,24.36c-3.09-.27-6.22-1.16-9.37-2.68-5.39-2.55-10.42-5.76-15.7-8.45-10.39-5.82-21.04-11.59-31.95-17.31-3.16-1.2-4.11-26.38-2.77-26.54,6.71,4,13.39,7,20.06,9.01h0Z"/>
  <path class="st30" d="M284.69,513.53c-22.89,11.33-44.87,22.6-65.94,33.78-8.51,3.99-16.66,9.72-26.17,11.61-2.16,2.29-3.73-.39-1.92-2.87l15.93-5.95c-4.41-.98-7.96-2.48-9.94-6.77l-23.5,6.87c-3.78.7-5.68-.27-5.7-2.89,13.21-1.45,25.54-6.63,37.68-11.61,15.98-4.64,35.16-15.08,48.15-23.23,3.49-1.86,24.01-14.84,25.45-14.62,1.68.26,12.71,8.46,15.34,9.87.01.67-7.95,4.96-9.4,5.81h.02Z"/>
  <path class="st89" d="M842.55,414.3c1.79-.44,3.02-.41,3.69.09,1.34,33.51,2.01,69.16,1.37,103.92.04,1.16-15.01-5.97-16.32-7.26.03-29.46-.21-58.71-.7-87.75,2.88-2.36,5.82-4.65,8.83-6.89.89-.52,1.77-1.38,3.14-2.11h-.01Z"/>
  <path class="st58" d="M664.62,206.33c4.41-1.31,8.8-3.45,13.18-6.41,11.84-3.93,10.58-1.8-3.76,6.41-.57,1.22-16.11,9.03-18.84,10.56-18.07,8.51-39.57,20.71-55.47,30.62-26.18,14.71-52.26,29.71-78.5,44.34-15.03,6.45-33.26,17.21-46.05,25.34-10.51,5.83-20.85,12.13-31.4,17.95-21.87,11.06-43.85,23.02-65.94,35.89-11.07,5.44-20.84,11.07-29.31,16.89-5.56,3.2-11.17,6.34-16.75,9.5-11.2,5.13-22.01,11.11-32.45,17.95.31,3.99-.97,13.11-2.86,5.81-1.47-5.71.71-11.69,6.62-13.51,5.13-2.34,9.8-5.05,14.03-8.14,2.8-1.61,5.55-3.68,8.37-5.28,33.98-17.63,68.52-36.28,103.62-55.95,17.32-9.42,33.37-18.57,48.15-27.45,3.51-1.96,6.89-4.34,10.47-6.33,26.22-13.78,52.74-28.21,79.55-43.28,15.79-8.86,30.44-17.31,43.96-25.34,1.64-.91,3.38-2.15,5.23-3.17,14.91-6.26,32.48-16.36,45.01-24.28.87-.46,1.84-1.43,3.14-2.11h0Z"/>
  <path class="st34" d="M439.59,759.51c.98,2.17,3.23.44,4.57-.14,5.56-2.41,10.8-5.85,16.35-8.32-.08,7.44,4.51,1.59,5.22,2.12,1.54,1.14,3.04,8.69,9.44,6.34-.09,1.33-1.5,1.72-2.42,2.3-5.01,3.2-21.26,8.89-21.66,11.41-.24,1.52-14.26,6.16-16.75,6.86-16.64,4.67-32.26,6.28-46.05-6.34,7.21-2.32,14.8-2.33,22.19-4,9.86-2.23,19.81-6.32,29.09-10.25l.02.02Z"/>
  <path class="st32" d="M238.64,406.91c-.86-5.6-1.02-11.21-.46-16.83,16.67,8.02,33.01,16.58,49,25.68.44,1.17,2.39,24.31,1.3,24.9-2.34,1.28-41.67-21.24-47.02-24.54-.28-2.38-.87-4.4-1.77-6.04-.24-.89-.73-1.66-1.05-3.17h0Z"/>
  <path class="st74" d="M568.33,611.71c1.27,23.45,2.46,48.37,1.09,70.98l1.01,1.86c-.15,5.73,2.11,9.08-4.94,6.57-1.57-.56-11.77-5.83-11.81-6.57.47-19.98.81-40.39,1.05-61.23.4-2.87,1.38-3.55,3.93-4.26-.34-4.34,6.93-12.1,9.67-7.35Z"/>
  <path class="st22" d="M903.26,477.11c.33-1.18,4.44-3.85,5.73-4.78,3.65-2.62,25.94-17.1,28.5-17.69,5.6-1.29,14.24,1.93,18.1,6.09l-52.33,32.74c.78-4.42-1.07-12.53,0-16.36h0Z"/>
  <path class="st89" d="M167.47,547.32c.29-.02,2.15,1.21,5.48.8,4.25-.52,23.02-7.3,24.24-7s2.23,3.4,3.78,4.6c2.73,2.11,6.94,1.64,9.38,4.24-.03,2.3-17.75,6.75-18.82,7.93-.63.69,1.05.97,1.04,1.04-.92,6.84-25.82-3.37-29.7-5.41-2.34-1.23-5.5-2.84-6.93-5.14,3.98.86,7.98-.81,11.51-1.07h.02Z"/>
  <path class="st28" d="M562.05,581.1l6.08-2.28c2,.72.63,25.66.2,32.89-2.09-.66-6.14,3.3-7.01,4.53-.74,1.04.11,3.09-1.36,4.43-1.01.91-4.04,1.18-5.23,2.65-.86-12.28-.88-24.68,0-36.95,1.21-2.04,5.14-3.98,7.33-5.28h-.01Z"/>
  <path class="st61" d="M632.18,664.5c-2.04-5.25-.86-11.25-.88-16.72l22.85-12.83c-2.66,5.07,4.49,6.15,7.31,8.96-.02,1.51-13.27,7.56-14.52,9.15-.18.23.96.82.93.88-.38.87-13.83,9.62-15.7,10.56h.01Z"/>
  <path class="st69" d="M294.11,491.37c-4.46-2.37-6.55-5.01-6.28-7.92-.71-5.51-1.27-13.06,0-18.47,4.48.52,14.21,2.86,13.68,9.15-.03,6.16.29,12.26.98,18.3.28,1.04,2.13,3.24.53,4.22-3.04-1.66-5.96-3.47-8.9-5.27h-.01Z"/>
  <path class="st60" d="M596.59,561.04c4.54-2.73,8.96-5.87,13.61-8.45v116.65c0,4.24-2.84,5.57-6.28,6.86.04-.04-.81-.66-.46-1.06.88-1.01,4.65-2.8,4.65-3.69v-115.6l-10.94,6.31-.57-1.03h0Z"/>
  <path class="st57" d="M43.96,618.05c-31.92-47.9-11.01-116.83,18.84-160.47,2.3.67-.25,2.98-.83,3.91-27.78,44.52-46.43,103.1-18.62,152.42.58,1.02,2.83,3.44.62,4.13h0Z"/>
  <path class="st6" d="M314,783.79c-30.23-49.73-13.98-112.71,13.61-159.41,2.22.69-.05,3.11-.62,4.13-27.27,48.94-38.61,98.09-13.5,151.04.51,1.08,2.61,3.6.51,4.24Z"/>
  <path class="st47" d="M534.84,466.03c-19.04,11.55-38.31,22.76-57.04,34.85l-.57,10.07,2.13,23.7h-4.18c1.22-7.2-4.68-34.14-1.04-38.52,1.65-1.99,6.23-3.37,8.37-4.76,1.43,1.58-1.09,2.08-2.06,2.66-3.24,1.91-6.62,2.72-6.33,7.36,2.13,1.95,2.38-1.68,4.87-3.53,13.8-10.24,36.34-22.38,51.75-31.2,1.01-.58,3.41-2.86,4.1-.62h0Z"/>
  <path class="st105" d="M238.64,406.91c-1.01-4.81-2.76-11.61-2.09-16.38.2-1.44-.59-1.84,1.54-1.54,5.58,4.16,48.7,23.21,49.59,26,.67,8.43,1.09,16.85,2.21,25.24.22,1.68.18,1.69-1.52,1.53l-45.93-23.36c-2.95-1.88-2.06-5.78-2.73-8.33l1.19-.69c.93,2.65.14,6.3,2.57,7.98l42.84,22.25c2.34.7,1.58-2.12,1.59-3.71.03-6.13-2.02-13.34-1.23-19.88l-47.49-24.94-.52,15.83h-.02Z"/>
  <path class="st75" d="M417.61,505.09c-4.08-2.22-7.86-5.08-12.36-6.54l-2.29-26.18c2.35-2.48,54.49,26.85,61.24,29.54l1.55,27.46-5.23-3.16h1.05c0-.5.04-.99.23-1.4.49-1.05-.42-20.1-1.05-21.07l-53.61-26.16c.39,6.22.83,12.46,1.31,18.72,3.35.23,6.4,2.46,9.15,6.69,1.79,1.47,1.79,2.18,0,2.11h.01Z"/>
  <path class="st36" d="M570.42,684.56c-4.06.64-.87-6.46-.96-8.97-.75-21.24-1.05-42.5-1.14-63.87-.04-10.54.03-21.13,0-31.67l-6.27,1.05c2.41-1.43,5.1-2.39,7.32-4.22.06,35.87,1.98,71.73,1.06,107.68h0Z"/>
  <path class="st103" d="M842.55,414.3c1.37-.73,2.79-1.43,4.18-2.11,1.01,27.93,2.83,55.96,2.15,83.98-.18,7.55-2.88,16.18-.05,23.69-.97.72-15.46-6.16-17.16-7.49-.92-.72-1.68-1.16-1.68-2.52v-86.58c.49-2.64,6.8-5.32,9.42-6.86.67,3.45-7.58,4.56-8.27,7.02-.35,1.24.94,4.18.99,6.13.7,27.01-.59,54.14-.09,81.15l14.69,7.04c-.63-26.17.85-52.52.05-78.69-.08-2.49-1.02-4.8-1.13-7.3-.24-5.04.87-12.44.05-16.93-.21-1.16-2.8,1.32-3.14-.53h0Z"/>
  <path class="st93" d="M428.08,338.29h1.05c-31.79,17.64-63.26,35.98-95.22,53.34-1.74.94-6.73,4.45-8.4,2.62,33.85-19.17,68.33-37.61,102.57-55.95h0Z"/>
  <path class="st110" d="M346.44,596.94c17.47-21.66,38.6-43.49,69.11-36.46,1.41.32,11.05,3.32,11.48,3.74,1.63,1.59-.56,1.84-1.35,2.35-4.38,2.88-10.86,5.09-15.4,8.19.1-.08-1.4-.4.57-1.93,3.24-2.52,9.07-5.15,13.03-6.53,1.61-2.16-11.8-4.99-13.21-5.14-27.47-2.91-44.98,14.73-61.07,34.21-.35.42-2.8,3.64-3.17,1.56h.01Z"/>
  <path class="st104" d="M473.09,433.3c-19.09,10.99-37.43,23.63-57.56,32.74l53.38,26.38-2.67,1.03-2.57-.43c-15.08-9.26-34.1-15.37-48.87-24.67-.6-.38-2.93-1.6-2.41-2.31,20.69-10.33,40.65-22.26,60.7-33.8.67.31.65.66,0,1.06Z"/>
  <path class="st48" d="M593.45,563.15c2.34.84-1.56,2.33-2.08,2.65-1.48.9-6.77,3.55-7.35,4.2-3.12,3.5.11,21.11.11,26.41,0,8.2-1.14,17.11-1.19,25.29-.12,21.65.18,43.32.05,64.96.28.31,5.21-1.71,6.27-2.11-.76,1.7-7.69,5.8-8.37,5.27-.27-.77,1.05-1.25,1.05-1.57v-118.24c3.34-2.9,7.9-4.55,11.51-6.86h0Z"/>
  <path class="st109" d="M317.14,399.52c2.32.83-1.55,2.38-2.07,2.67-2.77,1.54-15.93,8.11-16.85,9.39-1.14,1.58-.84,2.58-1.03,4.24-.14,1.19-.69,6.71,1.1,6.92-.5-3.16.09-4.77,1.06-7.38,1.76,10.8,1.16,22.12,3.14,32.72l-4.22-1.77c.64-9.35-4.39-25.93-1.86-34.44.89-2.99,17.06-10.23,20.73-12.34h0Z"/>
  <path class="st5" d="M682.41,187.32c-9.52-2.96-18.04-8.4-27.23-12.13-4.76-1.93-19.34-7.82-23.55-7.77-5.91.08-27.2,13.78-33.98,17.27-1.04.53-3.61,2.61-4.2.51,8.88-4.82,25.1-15.56,33.78-18.18,6.83-2.06,10.75.23,17,2.32,11.6,3.88,28.49,11,38.18,17.97h0Z"/>
  <path class="st100" d="M567.28,261.22c-24.98,13.95-50.04,28.92-75.32,42.79-1.01.55-3.64,2.56-4.22.5,26.51-14.75,53.01-29.64,79.55-44.34.7.31.68.66,0,1.06h-.01Z"/>
  <path class="st64" d="M153.86,556.82c.53.32.52.67,0,1.06-.91-.52-2.77-.69-4.21-1.52-15.14-8.74-30.05-17.91-45.61-25.91-13.44.79-7.08,16.24.63,21.1h-1.05c-4.5-3.28-7.62-4.3-8.39-11.06-1.56-13.6,6.29-13.22,15.74-8.5,13.97,6.97,29.08,16.91,42.89,24.83h0Z"/>
  <path class="st63" d="M505.53,523.04c.91.3.9.65,0,1.06-3.13.67-6.42-.11-9.88-2.36-.45.89.35,17.65,1.41,18.82l42.87,22.26.14,2.45h-1.05c-15.3-6.98-30.38-14.44-45.09-22.61-2.34-8.81-2.09-17.96-2-27,.63-.72,12.04,6.64,13.6,7.38h0Z"/>
  <path class="st102" d="M881.28,497.7l2.14-15.26c-1.61-28.66,1.98-59.36.03-87.77-.15-2.13-.18-2.59-2.17-3.59.68-.44,2.93-2.39,3.13-2.11l-.53,106.65c-.53,1.19-1.95,1.44-2.6,2.09h0Z"/>
  <path class="st55" d="M50.24,556.82c-1.58,19.78,1.1,46.59,8.07,65.23,3.53,9.44,15.35,23.97-1.79,9.73l4.71,2.11c.79.17.67-1.02.5-1.56-1.44-4.6-5.33-10.63-7.02-16.15-5.56-18.16-6.84-40.42-5.53-59.35.3-.92.65-.91,1.05,0h.01Z"/>
  <path class="st8" d="M335.97,438.58c-.98,2.17-3.23.44-4.57-.14-5.26-2.28-10.42-5.32-15.3-8.31,1.01,5.46-.26,19.24,1.21,23.58.95,2.79,26.65,14.64,31.26,17.03.52.27,4.38,1.87,2.06,2.67-4.51-2.29-33.1-15.94-34.03-17.94-1.8-8.71-1.7-17.54-1.55-26.4,1.49-.29,2.58.27,3.88.82,4.99,2.13,11.64,6.06,17.04,8.67v.02Z"/>
  <path class="st17" d="M862.44,511.42c-.52.3-2.11,1.69-2.1.52l-.63-106.68c.19-1.45,1.84-1.82,2.72-2.58v108.74h.01Z"/>
  <path class="st56" d="M581.94,458.64c21.52-12.82,43.4-25.16,64.89-38.01,2.03,1.11-3.37,3.72-3.87,4.01-18.67,10.99-37.26,22.54-56.13,33.11-1.08.6-4.11,3.01-4.89.88h0Z"/>
  <path class="st7" d="M443.78,335.12c-21.94,12.08-43.72,24.43-65.94,35.89,20.31-11.71,40.93-24,61.72-35.4,1.01-.55,3.64-2.56,4.22-.5h0Z"/>
  <path class="st73" d="M388.31,452.3c2.43,1.04-1.8,1.63-2.12,2.85-.84,3.23.63,9.3.03,12.98l1.05-9.49h1.03c-1.08,2.65.94,6,1.06,7.38.74,8.7.3,18.59,1.04,27.45l-3.17-1.77-2.87-36.64c.43-2.34,2.91-2.09,3.95-2.76h0Z"/>
  <path class="st67" d="M284.69,513.53c-21.38,12.51-43.55,23.29-65.94,33.78-2.59-.99.97-1.52,1.76-1.9,19.82-9.69,38.58-19.63,57.88-30.31,1.25-.69,5.2-3.62,6.3-1.57h0Z"/>
  <path class="st80" d="M352.72,627.55c-12.42,17.52-26.78,47.4-30.35,68.62-.3.92-.65.91-1.05,0,4.06-23.83,15.56-46.68,28.66-66.63.34-.51,2.05-4.3,2.74-1.99Z"/>
  <path class="st4" d="M363.19,677.17c-9.11,25.19-11.28,52.08-4.19,78.12-7.71-17.91-6.45-44.66-1.79-63.57,1.14-4.63,3.71-14.19,5.98-14.56h0Z"/>
  <path class="st14" d="M317.14,490.3l-1.05-13.71,13.58,6.86c-1.66,1.49-11.35,8.11-12.53,6.86h0Z"/>
  <path class="st83" d="M554.72,623.33c-.02,19.2.14,38.44.07,57.65,0,2.12-1.13,3.39-1.12,3.58l-.06-95.65c-.28-1.28.69-1.83,1.11-2.53.03,12.24.02,24.66,0,36.95Z"/>
  <path class="st76" d="M324.46,774.29c-6.1-24.56-7.41-53.06-3.14-78.12h1.05c-3.59,21.28-2.91,57.11,2.09,78.12h0Z"/>
  <path class="st98" d="M71.17,488.2c-10.14,19.11-19.2,46.99-20.93,68.62h-1.05c1.45-20.93,9.66-47.96,19.33-66.54.27-.52,1.85-4.42,2.65-2.08Z"/>
  <path class="st110" d="M101.53,417.47c16.67-11.04,31.03-14.26,50.23-6.32l-12.55,6.32c.06-.05-1.08-.65-.09-1.51,2.23-1.93,6.82-2.3,8.45-4.81-15-4.73-29-3.06-42.17,5.48-.92.6-3.22,3.15-3.88.84h.01Z"/>
  <path class="st59" d="M302.48,492.42c-.1-.39-.88-.95-1.11-2.52-.45-3.01-.47-18.38-1.15-19.48-.36-.58-10.57-4.89-12.39-5.45v18.47c0,4.79,4.45,4.4,6.83,6.85.83.86.52,1.1-.55,1.07-2.16-1.32-6.35-2.35-7.12-4.95l-.73-24.6c2.5,2.85,13.13,5.21,14.62,7.42,3.1,4.57.93,17.47,1.61,23.19h0Z"/>
  <path class="st49" d="M505.53,523.04c.68.33,2.43.14,3.85.82,10.92,5.25,21.51,11.28,32.52,16.34,2.97,3.11.49,21.96,1.31,27.18-2.12.65-3.02-1.58-4.18-2.11h1.05c.83-5.34.2-14.96-1.26-22.08-10.55-6.29-21.52-11.82-32.9-16.59l-.38-2.5v-1.06h-.01Z"/>
  <path class="st94" d="M444.83,355.18c2.32.8-1.55,2.41-2.06,2.67-15.77,8.18-30.9,17.42-46.43,26.01-1.4.78-5.63,3.94-6.98,1.93,18.39-10.36,37.09-20.27,55.47-30.62h0Z"/>
  <path class="st72" d="M390.4,443.86c-4.29,2.39-8.43,5.14-12.9,7.2-15.06-8.21-31.62-14.57-45.71-24.09-.57-.32-.56-.67,0-1.06,14.39,8.61,29.92,15.21,44.73,23.05,2.83.43,7.23-3.01,9.79-4.48,1.01-.58,3.41-2.86,4.1-.62h-.01Z"/>
  <path class="st107" d="M655.2,216.88c-18.41,10.32-37.08,20.28-55.47,30.62-2.32-.8,1.55-2.41,2.06-2.67,16.6-8.64,33.08-18,49.32-27.32,1.01-.58,3.41-2.85,4.1-.62h0Z"/>
  <path class="st24" d="M425.99,790.13c20.11-3.61,42.69-15.52,60.71-25.34,2.32.8-1.55,2.4-2.06,2.67-16.2,8.44-35.81,19.2-53.59,23.03-1.53.33-4.04,1.64-5.06-.36Z"/>
  <path class="st54" d="M676.13,381.57c-17.33,10.36-35.02,20.24-52.33,30.62-1.44-1.61,1.11-2.06,2.07-2.65,14.9-9.13,30.15-18.56,45.37-27.09,1.08-.6,4.11-3.01,4.89-.88Z"/>
  <path class="st91" d="M554.72,530.43c-1.61,2.54-5.48,4.68-8.37,3.78-13.93-8.38-31.03-14.14-44.69-22.58-.72-.44-4.71-2.65-2.41-3.37l46.03,23.8c3.22,1.33,6.44-.51,9.44-1.63h0Z"/>
  <path class="st21" d="M776.61,307.67c-17.36,10.31-34.99,20.29-52.33,30.62-1.42-1.58,1.07-2.11,2.06-2.67,15.59-8.78,30.68-18.42,46.18-27.32,1.01-.58,3.41-2.86,4.09-.62h0Z"/>
  <path class="st68" d="M849.88,278.11c-17.19,10.53-35.03,20.25-52.33,30.62-1.44-1.61,1.1-2.06,2.07-2.65,15.2-9.25,30.46-18.92,46.04-27.47,1.01-.55,3.64-2.56,4.22-.5h0Z"/>
  <path class="st99" d="M658.34,303.45c-16.68,9.6-33.57,18.9-50.24,28.5-2.33-.85,1.56-2.34,2.08-2.65,14.45-8.75,29.39-16.85,44.06-25.23,1.01-.58,3.41-2.86,4.1-.62Z"/>
  <path class="st110" d="M477.27,310.84c2.32.8-1.55,2.4-2.06,2.67-15.43,8.04-30.88,16.34-46.08,24.78h-1.05l49.19-27.45h0Z"/>
  <path class="st33" d="M536.93,373.13c-16.66,9.61-33.6,18.85-50.24,28.5-2.32-.83,1.55-2.38,2.07-2.67,14.79-8.22,29.38-16.82,44.08-25.21,1.01-.58,3.41-2.86,4.1-.62h-.01Z"/>
  <path class="st5" d="M357.95,450.19c3.03,1.65,15.8,7.15,16.55,9.17l2.28,26.72c-.74.85-8.91-3.49-10.46-4.22l8.36,2.11-1.2-23.59c-.61-1.86-10.89-6.17-13.47-7.52-.52-.27-4.38-1.87-2.06-2.67h0Z"/>
  <path class="st80" d="M769.29,221.11h-1.05c-9.92-5.07-35.21-16.83-45.21-19.37-2.94-.75-4.75.31-7.12-.69,1.73-1.12,3.63-1.26,5.63-1.01,7.87.99,31.28,12.76,40.08,16.66,2.51,1.11,6.15,2.11,7.67,4.4h0Z"/>
  <path class="st62" d="M300.39,347.79c-13.75,7.59-27.48,16.87-41.85,23.76-1.07.51-3.56,2.64-4.2.52,15.24-8.59,30.74-16.87,46.05-25.34.71.31.69.66,0,1.06Z"/>
  <path class="st44" d="M294.11,639.16c.91.3.9.65,0,1.06l-45.01-27.45c15.01,8.77,30.55,16.68,45.01,26.39Z"/>
  <path class="st9" d="M661.48,208.44c2.32.8-1.55,2.4-2.06,2.67-13.08,6.81-25.8,14.03-38.72,21.11-1.01.55-3.64,2.56-4.22.5,14.95-8.23,29.92-16.3,45.01-24.28h-.01Z"/>
  <path class="st108" d="M253.29,512.48c2.32.8-1.55,2.4-2.06,2.67-13.59,7.08-27.47,14.32-41.51,20.42-1.34.58-3.6,2.29-4.58.13,16.37-6.72,32.52-14.89,48.15-23.23h0Z"/>
  <path class="st31" d="M389.35,352.01c-15.69,8.55-31.2,17.15-47.1,25.34,13.12-7.73,26.56-15.92,40.12-23.41,1.41-.78,5.63-3.94,6.98-1.93Z"/>
  <path class="st70" d="M521.23,291.84c-15.29,8.53-30.74,16.85-46.05,25.34-2.32-.8,1.55-2.41,2.06-2.67,13.48-6.99,26.46-14.87,39.77-22.17,1.01-.55,3.64-2.56,4.22-.5h0Z"/>
  <path class="st10" d="M324.46,774.29c1.44,6.02,7.79,19.56,10.97,25.36,2.18,3.98,4.44,8.07,7.87,11.07-.8,1.56-2.53-.22-3.45-.75-3.53-2.01-7.94-4.8-10.16-8.23,1.94,1.26,4.99,2.29,6.81,4.22.7.22.76-.94.5-1.56-4.89-11.75-9.08-16.13-12.55-30.1h.01Z"/>
  <path class="st68" d="M755.68,334.07c-14.92,8.9-30.09,17.49-45.01,26.39-2.32-.83,1.55-2.38,2.07-2.67,13.17-7.32,25.76-15.63,38.84-23.1,1.01-.58,3.41-2.86,4.1-.62Z"/>
  <path class="st27" d="M461.57,526.2c-.33,0-.72.05-1.05,0-6.88-1.17-34.92-16.76-42.91-21.11v-2.11c12.76,3.4,26.86,10.51,38.28,17.64,2.27,1.42,4.05,3.47,5.68,5.58h0Z"/>
  <path class="st51" d="M439.59,270.72c2.32.8-1.55,2.4-2.06,2.67-11,5.73-21.57,12.04-32.45,17.94-1.74.94-6.72,4.45-8.4,2.62,14.23-7.85,28.68-15.39,42.91-23.23Z"/>
  <path class="st93" d="M567.28,261.22v-1.06c14.63-8.11,29.31-16.2,43.96-24.28,2.32.8-1.55,2.41-2.06,2.67-13.99,7.28-28.13,14.98-41.9,22.66h0Z"/>
  <path class="st93" d="M439.59,422.74c2.32.83-1.55,2.38-2.07,2.67-12.32,6.85-24.53,13.97-36.75,20.99-1.01.58-3.41,2.85-4.1.62,14.08-8.43,28.7-16.08,42.91-24.28h.01Z"/>
  <path class="st97" d="M343.3,323.51c2.32.8-1.55,2.41-2.06,2.67-13.61,7.06-27.44,14.21-40.85,21.61v-1.06c14.23-7.86,28.68-15.39,42.91-23.23h0Z"/>
  <path class="st87" d="M523.32,224.27c2.32.8-1.55,2.41-2.06,2.67-12.27,6.39-24.3,14.08-36.65,20.04-1.07.51-3.57,2.64-4.2.52,14.24-7.83,28.67-15.4,42.91-23.23h0Z"/>
  <path class="st44" d="M580.89,371.02c-12.65,7.37-25.03,15.32-37.77,22.6-1.01.58-3.41,2.86-4.1.62,13.95-8.08,27.9-16.22,41.87-24.28.67.31.66.66,0,1.06Z"/>
  <path class="st111" d="M651.02,302.4c-14.35,8.28-28.53,17.09-42.91,25.34-.69-.31-.68-.66,0-1.06,14.29-8.18,28.55-17.07,42.91-25.34.67.31.66.66,0,1.06Z"/>
  <path class="st16" d="M75.36,529.37c-2.02,17.46,6.35,32.67,8.37,49.62-.17.02-.58.9-1.03,1.07-1.98-17.56-11.75-33.81-8.37-51.76.52.11.87,1.05,1.03,1.07Z"/>
  <path class="st90" d="M341.21,791.18c-6.18-13.49-10.66-32.67-11.51-47.51.3-.92.65-.91,1.05,0,1.05,14.63,5.32,29.23,10.34,42.89.5,1.36,2.31,3.62.13,4.62h0Z"/>
  <path class="st29" d="M595.54,339.34c-13.55,7.81-27.27,15.41-40.82,23.23-2.33-.85,1.56-2.34,2.08-2.65,11.37-6.89,23.11-13.33,34.64-19.95,1.01-.58,3.41-2.85,4.1-.62h0Z"/>
  <path class="st77" d="M769.29,221.11l5.23,1.07-1.09,2.58c-11.78,6.62-23.82,12.88-35.54,19.57-2.32-.8,1.55-2.41,2.06-2.67,10.91-5.68,21.08-12.8,32.48-17.4-.51-1.52-2.8-2.45-4.18-3.15h1.05,0Z"/>
  <path class="st3" d="M500.3,290.78c-13.55,7.48-27.27,14.71-40.82,22.17-2.32-.8,1.55-2.41,2.06-2.67,11.7-6.06,23.24-12.31,34.66-18.88,1.01-.58,3.41-2.85,4.1-.62Z"/>
  <path class="st11" d="M580.89,192.6c2.32.8-1.55,2.41-2.06,2.67-10.96,5.71-21.61,12-32.44,17.94-1.01.55-3.64,2.56-4.22.5,12.88-7.07,25.82-14.09,38.73-21.11h-.01Z"/>
  <path class="st23" d="M357.95,403.74c2.32.83-1.55,2.38-2.07,2.67-9.65,5.36-19.31,10.73-28.82,16.33-.87,1.47,3.62,2.51,4.72,3.17v1.06l-7.86-4.23c11.14-6.68,22.74-12.59,34.03-19Z"/>
  <path class="st85" d="M334.93,689.84c-3.76,17.12-5.45,36.18-4.19,53.84h-1.05c-1.09-18.91.07-36.51,4.19-54.9.73-1.05,1.08-.69,1.05,1.06Z"/>
  <path class="st13" d="M193.63,580.04c-.69,2.24-3.08-.05-4.1-.62-12.07-6.84-23.92-14.76-35.68-21.55v-1.06c13.3,7.63,26.5,15.54,39.77,23.23h0Z"/>
  <path class="st3" d="M571.47,283.39c13.21-7.45,26.57-14.71,39.77-22.17,2.32.8-1.55,2.41-2.06,2.67-11.34,5.91-22.52,12.5-33.62,18.87-1.01.58-3.41,2.85-4.1.62h0Z"/>
  <path class="st93" d="M608.1,326.68v1.06c-13.15,7.54-26.6,14.66-39.77,22.17h-1.05c5.04-4.13,11.4-7.52,17.09-10.74,7.74-4.38,16.06-8.1,23.73-12.49h0Z"/>
  <path class="st53" d="M128.74,640.22c-13.53,5.41-30.86,10.38-43.96,2.11l12.15,3.05c10.03,1.14,17.8-2.44,26.89-5.38,1.53-.49,3.81-1.92,4.92.22h0Z"/>
  <path class="st95" d="M651.02,302.4v-1.06c12.21-7.02,24.39-14.12,36.63-21.11,2.32.83-1.55,2.38-2.07,2.67-11.53,6.41-23.15,12.91-34.57,19.5h.01Z"/>
  <path class="st25" d="M294.11,639.16c.58.39,2.53.08,3.12,1.58l-8.37,18.48c-7.05-3.69-14.01-7.66-20.92-11.61.58-2.06,3.22-.06,4.22.5,5.1,2.84,10.01,6.13,15.16,8.89.82-.06,7.02-13.31,7.42-14.72.28-.99.31-1.48-.64-2.05v-1.06h.01Z"/>
  <path class="st50" d="M822.66,315.06c2.33.84-1.56,2.34-2.08,2.65-9.75,5.98-19.51,12.14-29.41,17.83-1.01.58-3.41,2.86-4.09.62,11.82-7.08,23.76-14.05,35.59-21.11h-.01Z"/>
  <path class="st88" d="M664.62,206.33c8.21-4.28,14.92-10.09,24.58-9.51,1.29.8-1.73,2.67-2.25,3-3.87,2.5-8.91,4.1-12.91,6.51.02-.05-1.25.06-1.03-.52.66-1.68,8.15-4.36,10.14-5.55,1.15-.69,2.91-.76.81-2.38-5.41,1.98-9.99,5.44-15.15,7.94-1.06.52-3.57,2.64-4.2.52h.01Z"/>
  <path class="st25" d="M551.58,262.28c-12.16,6.74-24.47,13.32-36.63,20.06-2.32-.8,1.55-2.41,2.06-2.67,10.27-5.35,20.2-11.32,30.35-16.89,1.01-.55,3.64-2.56,4.22-.5h0Z"/>
  <path class="st0" d="M922.1,286.56c-.98,2.17-3.23.44-4.57-.14-12.02-5.2-19.67-13.04-33.09-6.71-1.07.51-3.57,2.63-4.2.51,2.4-1.21,7.36-4.33,9.42-4.83,6.39-1.57,25.7,7.97,32.44,11.17h0Z"/>
  <path class="st52" d="M255.38,537.82c2.32.8-1.55,2.4-2.06,2.67-9.51,4.95-20.29,10.94-30,15.14-1.34.58-3.59,2.3-4.57.14,12.34-5.71,24.61-11.61,36.63-17.95Z"/>
  <path class="st46" d="M163.28,606.44c-2.56,2.49-8.26-3.75-9.95-3.86-1.3-.08-11.82,6.12-14.47,7.21-9.09,3.74-17.81,7.32-27.91,6.14-.27-1.79,1.96-.97,3.13-1.04,6.69-.45,9.85-.99,16.24-3.15,4.97-1.68,19.59-10.12,22.13-10.34s8.05,4.26,10.82,5.04h.01Z"/>
  <path class="st95" d="M655.2,386.85c11.4-6.82,23.12-13.26,34.54-20.06,2.33.84-1.56,2.34-2.08,2.65-8.48,5.1-16.86,10.64-25.48,15.47-1.38.78-5.64,3.94-6.98,1.93h0Z"/>
  <path class="st84" d="M765.1,236.94c-12.5,6.68-25.29,15.32-38.02,22.35-1.41.78-5.63,3.94-6.98,1.93,14.56-8.22,29.3-16.23,43.96-24.28h1.05-.01Z"/>
  <path class="st95" d="M567.28,349.9h1.05c-10.54,6.01-20.95,12.35-31.49,18.38-1.01.58-3.41,2.86-4.1.62,11.38-6.5,22.48-13.9,34.54-19Z"/>
  <path class="st82" d="M714.86,291.84c2.32.83-1.55,2.38-2.07,2.67-10.47,5.82-20.99,11.65-31.43,17.39,10.92-6.95,22.27-13.33,33.49-20.06h.01Z"/>
  <path class="st40" d="M850.92,263.33c-1.73-2.31,4.94-2.54,2.1-4.76-8.93-3.53-17.36-8.41-26.17-12.14h1.05c7.13,2.81,22.71,7.56,28.24,12.16,2.54,2.11-3.8,3.8-5.22,4.73h0Z"/>
  <path class="st62" d="M346.44,321.4c11.08-6.1,22.42-11.84,33.49-17.95,2.32.8-1.55,2.41-2.06,2.67-8.47,4.41-16.78,9.09-25.13,13.71-1.25.69-5.2,3.62-6.3,1.57Z"/>
  <path class="st18" d="M79.55,488.2l-14.65,38.01c3.51-13.13,8.16-26.05,14.65-38.01Z"/>
  <path class="st20" d="M136.07,570.54c-10.63-6.26-22.49-11.76-32.45-19h1.05c9.44,4.36,18.46,9.87,27.53,14.99.47.26,5.91,2.92,3.87,4.01Z"/>
  <path class="st35" d="M234.45,627.55c-11.08-6.43-22.4-12.57-33.49-19,.58-2.06,3.22-.06,4.22.5,9.1,5.07,18.27,10.46,27.19,15.86.52.31,4.42,1.81,2.08,2.65h0Z"/>
  <path class="st50" d="M505.53,414.3c-10.75,6.18-21.62,12.77-32.45,19v-1.06c10.85-6.24,21.61-12.75,32.45-19,.69.31.67.66,0,1.06Z"/>
  <path class="st106" d="M331.79,397.41c-10.74,6.09-21.27,12.65-32.45,17.95.19-.52-.4-1.7.69-2.17,9.73-4.06,18.34-10.24,27.54-15.28,1.01-.55,3.64-2.56,4.22-.5Z"/>
  <path class="st81" d="M536.93,703.56c2.27-1.34,7.76-5.24,9.5-5.81,4.21-1.36,15.77,7.17,20.34,8.97l-4.72,3.17c-2.91-1.53,4.09-1.39,1.01-3.65-1.32-.97-13.6-7.34-14.56-7.49-1.29-.21-5.87,3.26-7.47,4.19-1.01.59-3.41,2.86-4.09.63h-.01Z"/>
  <path class="st97" d="M580.89,371.02v-1.06c9.75-5.63,19.55-11.27,29.31-16.89,2.05,1.09-3.42,3.76-3.87,4.01-8.42,4.7-17.11,9.09-25.43,13.94h-.01Z"/>
  <path class="st96" d="M334.93,689.84l-1.05-1.06c2.76-12.32,6.04-22.38,11.51-33.78,1.82.66.21,3.36-.25,4.49-4.5,10.95-7.63,18.59-10.21,30.35h0Z"/>
  <path class="st3" d="M682.41,187.32c.39.28,2.15-.58,2.09.52-9.24,7-20.22,11.74-30.35,17.42-2.32-.8,1.55-2.41,2.06-2.67,2.16-1.12,27.11-14.04,26.2-15.27h0Z"/>
  <path class="st39" d="M377.84,371.02c-9.52,5.49-19.58,11.28-29.31,16.89-2.32-.82,1.55-2.38,2.07-2.67,9.04-4.95,18.1-9.51,27.24-14.22h0Z"/>
  <path class="st37" d="M70.13,448.08c6.86-8.59,13.64-15.98,21.98-23.23,2.09.45-1.09,2.68-1.57,3.17-5.98,6.03-12.01,11.73-17.3,18.44-.37.47-2.65,3.75-3.11,1.62Z"/>
  <path class="st70" d="M764.05,236.94c1.76-.97,12.84-7.98,13.6-7.38.14.11.94,3.1.86,3.54-.46,2.63-9.8,6.51-12.36,8.06-1.45-1.62,1.1-2.06,2.07-2.65,1.14-.7,10.12-5.11,8.38-6.85-3.36,2.35-8.13,3.48-11.5,5.28h-1.05Z"/>
  <path class="st71" d="M405.05,822.85c-9.88,1.35-26.3,2.45-35.59-1.06,2.21-2.83,7.77,1.06,9.94,1.06h15.7c1.96,0,7.42-3.06,9.94,0h0Z"/>
  <path class="st112" d="M617.52,683.5c1.44,1.61-1.1,2.06-2.07,2.65-7.32,4.49-14.74,8.88-22,13.18,7.03-6.57,16.1-10.64,24.07-15.84h0Z"/>
  <path class="st3" d="M342.25,377.35c-8.19,4.83-16.62,9.97-25.12,14.78-2.33-.84,1.56-2.34,2.08-2.65,7.49-4.54,15.28-8.14,23.04-12.13Z"/>
  <path class="st45" d="M827.9,246.44h-1.05c-5.37-2.27-10.57-5.13-16.37-6.26l-10.84,2.04c1.9-.94,3.95-2.76,5.8-3.12,7.88-1.5,16.14,3.03,22.46,7.34Z"/>
  <path class="st66" d="M681.37,311.9c-5.91,3.76-11.83,8.25-18.14,11.79-1.38.78-5.64,3.94-6.98,1.93,8.3-4.72,16.76-9.13,25.12-13.72Z"/>
  <path class="st78" d="M251.2,374.18c2.32.8-1.55,2.4-2.06,2.67-1.11.57-8.04,2.84-6.31,4.71,4.65.6,8.14,4.22,11.51,6.35-4.78-2.22-9.75-4.39-14.65-6.35-1.24-1.65,10.44-6.75,11.51-7.38Z"/>
  <path class="st41" d="M279.46,401.63c-8.7-4.42-16.99-8.59-25.12-13.72,7.75,3.59,15.48,7.08,23.06,11.05.51.27,4.38,1.87,2.06,2.67Z"/>
  <path class="st101" d="M528.56,400.58c2.32.83-1.55,2.38-2.07,2.67-6.86,3.81-14.22,7.18-20.96,11.06v-1.06c7.57-4.37,15.47-8.3,23.03-12.67Z"/>
  <path class="st65" d="M956.64,489.25c2.67-5.72,4.29-14.34,3.14-20.58-.21-1.16-2.8,1.32-3.14-.53,1.34-.75,2.8-1.42,4.18-2.11.45,7.39,1.92,17.65-4.18,23.23h0Z"/>
  <path class="st86" d="M371.56,615.94c4.94-5.67,10.05-10.88,15.7-15.84l-4.19,5.81c-2.79,2.82-5.58,5.63-8.37,8.44-.48.49-2.7,3.69-3.14,1.59Z"/>
  <path class="st32" d="M417.61,502.98c-3.69-1.96-7.47-3.88-11.34-5.45.67-2.07-2.43-23.09-.68-23.07l56.42,27.61,1.28,1.39.39,22.1c.13,1.1-1.36.63-2.11.64-14.38-8.22-29.34-15.45-43.96-23.23h0Z"/>
  <path class="st42" d="M505.53,524.09c5.3,2.47,33.17,14.85,35.02,17.99,1.6,2.71,2.36,19.39,1.63,22.55-.28,1.19-1.17.54-2.11.64l-44.45-23.26c-3.11-3.7-1.02-18.56-2.64-24.25,4.21,2.02,8.32,4.37,12.55,6.33h0Z"/>
  <path class="st58" d="M388.3,481.86c-1.83.25-.98-2.39-1.04-3.68-.11-2.63.07-5.3.01-7.92,1.83-.25.98,2.39,1.04,3.68.11,2.63-.07,5.3-.01,7.92Z"/>
</svg>