<?xml version="1.0" encoding="UTF-8"?>
<svg id="Layer_1" xmlns="http://www.w3.org/2000/svg" version="1.1" viewBox="0 0 1024 1024">
  <!-- Generator: Adobe Illustrator 29.5.1, SVG Export Plug-In . SVG Version: 2.1.0 Build 141)  -->
  <defs>
    <style>
      .st0 {
        fill: #81b93f;
      }

      .st1 {
        fill: #f2a333;
      }

      .st2 {
        fill: #ce661e;
      }

      .st3 {
        fill: #7bb03c;
      }

      .st4 {
        fill: #f6ba3a;
      }

      .st5 {
        fill: #7db13c;
      }

      .st6 {
        fill: #d0681e;
      }

      .st7 {
        fill: #84bd3f;
      }

      .st8 {
        fill: #86bf41;
      }

      .st9 {
        fill: #86bf40;
      }

      .st10 {
        fill: #88c742;
      }

      .st11 {
        fill: #7db13d;
      }

      .st12 {
        fill: #82b940;
      }

      .st13 {
        fill: #82ba3f;
      }

      .st14 {
        fill: #7bb23c;
      }

      .st15 {
        fill: #82b73f;
      }

      .st16 {
        fill: #587e2b;
      }

      .st17 {
        fill: #f1bd3c;
      }

      .st18 {
        fill: #f1b439;
      }

      .st19 {
        fill: #f6bd3c;
      }

      .st20 {
        fill: #f6bb3b;
      }

      .st21 {
        fill: #cf661d;
      }

      .st22 {
        fill: #81ba40;
      }

      .st23 {
        fill: #86c041;
      }

      .st24 {
        fill: #84bd40;
      }

      .st25 {
        fill: #7db23c;
      }

      .st26 {
        fill: #80b63f;
      }

      .st27 {
        fill: #f5c13c;
      }

      .st28 {
        fill: #eb7d24;
      }

      .st29 {
        fill: #8ac344;
      }

      .st30 {
        fill: #80b83e;
      }

      .st31 {
        fill: #f5ba3a;
      }

      .st32 {
        fill: #84bb3e;
      }

      .st33 {
        fill: #85bc41;
      }

      .st34 {
        fill: #7fb43d;
      }

      .st35 {
        fill: #050901;
      }

      .st36 {
        fill: #f5b93a;
      }

      .st37 {
        fill: #d1681e;
      }

      .st38 {
        fill: #577e2b;
      }

      .st39 {
        fill: #d46b1f;
      }
    </style>
  </defs>
  <path class="st35" d="M533,109c10.95-2.54,22.23-4.6,29.99,5.5,16.9,22,2.88,71.99.94,97.88,18.74,7.24,14.58,29.19,10.78,44.84-7.96,32.74-23.78,65.1-29.71,98.78l27.16-43.32c25.38-50.05,11.2-119.53,38.31-168.69,10.48-19,31.62-31.1,48.02-11,8.34-10.79,17.53-20.39,30.52-25.46,18.78-7.33,43.29-3.96,60.28,6.68,39.13,24.51,1.95,63.52-13.3,89.79,32.88,15.65,4.71,45.05-13.69,58.83-19.19,14.37-40.64,20.54-60.99,32.01-29.66,16.73-51.66,40.36-71.14,67.86l-9.18,14.31c9.62-7.96,23.28-13.24,32.92-20.57,4.77-3.63,8.11-9.26,12.54-13.46,12.27-11.65,34.59-26.91,51.47-29.53,4.32-.67,9.45.24,13.11-.89,3.18-.98,16.8-11.36,21.92-14.08,18.53-9.82,43.31-18.13,64.56-16.51,19.45,1.48,33.16,13.98,18.47,32.02,30.92,3.27,87.99,36.88,72.79,74.3-9.45,23.26-43.36,22.41-63.79,18.72,5.03,15.79-4.73,27.3-20.63,28.87-17.25,1.71-34.92-7.49-49.37-15.88-1.96,22.82-23.61,25.58-41.04,15.53-24.46-14.09-25.71-40.76-61.75-31.82-19,4.71-37.1,18.86-51.73,31.3-.69.58-1.56,1.01-2.48,1,22.67,20.64,37.64,45.74,36.04,77.52-2.45,48.81-47.68,102.73-78.53,138.47-76.55,88.68-171.23,183.82-261.04,258.96-13.86,11.6-44.22,38-60.46,42.54s-30.36-5.68-32.01-22.03c-3.83-37.96,17.61-104.04,29.97-141.01,25.55-76.43,57.78-153.68,90.84-227.16,22.9-50.89,59.98-139.59,108.26-168.74,26.18-15.81,54.15-17.14,82.91-7.58,7.31-32.28,6.89-66.9-15.02-93.47-16.13-19.57-60.08-40.2-32.45-69.5l10.47-6.51c-15.34-18.12-46.13-43.98-43.86-69.89,1.77-20.22,20.19-30.47,38.86-23.62-9.8-27.46-2.72-65.28,28.99-73.52,35.67-9.27,50.78,30.03,52.03,58.53h.02Z"/>
  <path class="st28" d="M516,423c21.74,9.98,42.52,24.66,58,43,1.84,2.03-.09,3.05-2.54,1.84l-11.64-11.56c-7.39,12.15-14.86,24.27-22.4,36.38l-3.42,2.34c-7.41-5.71-16.78-12.01-24.98-16.52-7.62-4.19-17.33-9.55-26.02-9.98,22.85,21.35,49.17,37.85,70,61.5,1.51,1.7.95,2.19-1.27,2.33-1.59.1-14.98-13.87-16.33-16.93-1.75,7.17-5.06,14.05-9.94,20.65-13.49,20.24-26.95,40.17-40.38,59.8,5.1,3.85,6.08,6.23,2.92,7.13-10.64-9.52-22.65-17.76-35.64-23.86-4.2-1.97-31.32-12.69-33.73-12.06-4.81,1.27,1,5.92,2.64,7.14,8.38,6.24,19.94,10.85,29.04,16.96,14.02,9.42,27.61,22.07,38.69,34.81,1.84,2.03-.09,3.05-2.54,1.84l-9.34-9.35c-16.64,25.52-34.63,48.89-53.96,70.13l-5.79,8.64c3.22,1.69,4.88,6.97.64,4.75-12.03-9.22-23.61-19.19-36.98-26.52-3.85-2.11-18.69-10.4-22.07-8.04-1.01.77-1.12,1.85-.99,3.02.43,3.75,19.79,15.89,23.93,19.14,14.54,11.4,28.8,23.55,41.1,37.4,1.73,2.19.64,2.87-2.05,2.17-5.12-5.22-10.33-10.16-15.63-14.84l-58.3,68.99c-2.01,2.3-4.35,4.34-7.17,5.58,5.38,4.59,6.1,6.62,2.15,6.09-4.17-3.4-32.89-21.11-35.94-18.96-.29,1.42-1.23,2.98-1.08,4.43.29,2.92,17.43,15.54,21.02,18.53l-.27,1.33c-17.23,19.21-33.71,38.89-49.44,59.04,6.38,5.2,7.61,7.74,3.71,7.63-7.93-5.84-16.07-12.82-25.99-14.99-2.1,2.1,10.2,13.93,11.99,15.99-1.62,1.42-3.73.73-6.33-2.05-14.8,18.03-31.11,36.7-49.24,51.81-2.32.68-3.46-1.24-3.43-5.76l.73,4.86c1.91,2.39,2.49,10.45-.73,12.14l1.52-2.61c8.15-3.64,15.74-8.23,22.78-13.77,2.42-.94,3.75-.04,2.7,2.38-3.63,2.56-26.29,18.65-29,16-.94-31.13,6.93-61.33,15-91,4.21-14.91,8.82-29.7,13.84-44.38,14.03,4.61,28.08,8.07,42.16,10.38.25-1.39-.2-2.41-.95-3.54-2.51-3.78-17.39-12.89-22.05-15.46-2.85-1.95-7.09-4.27-12.74-6.97,9.91-29.41,20.68-58.64,32.29-87.7,1.32-.79,5.3.56,6.45,1.67,14.28,1.71,28.28,5.04,41.99,9.99-1.57-.47-2.24-1.14-1.99-1.99,1.58.01,4.16.75,2.51-2.01-1.48-2.5-10.58-8.29-13.51-9.99-9.02-5.47-18.61-9.84-28.75-13.12l39.33-92.51c8.89.84,17.7,1.72,26.42,2.63,7.65,1.31,15.14,4.34,23,3.99,1.4-1.23-4.07-5.09-5-5.99-9.22-7.55-25.08-11.53-38.07-13.77,4.03-9.89,8.06-19.64,12.07-29.23,6.24-13.1,12.77-26.41,20-39l3.69-5.63c20.49,2.06,40.93,5.6,61.31,10.63,8.62,2.11,24.27,6.3,6.53-5.03-16.79-10.72-41.04-15.64-60.53-18.98,9.96-18.18,21.3-42.21,38-54.99,8.1-5.21,18.02-5.37,27.28-4.16,8.64,1.87,17.22,2.92,25.72,3.16,1.63-1.39-.37-1.52-1.45-2.05-7.63-3.84-15.72-6.92-24.04-8.96-.48-.2-.56-.5-.51-.98-1.64-1.05-4.04-1.64-7.21-1.79-1.35-1.29,7.52-5.33,9.48-5.83,29.96-7.55,53.93.97,80.73,14.61v.03Z"/>
  <path class="st38" d="M548,147c-1.24,13.71-2.24,27.38-3,41-1.28,9.59-6.6,28.24-6.03,36.47.92,13.34,13.94,6.71,15.82,13.24,1.99,6.93-2.01,15.73-3.79,22.29-4.76,12.22-8.76,24.88-12,38-.81,2.53-2.6,11.54-3.01,12-1.79,2.05-2.93-3.31-2.99-4,.88-13.98-.94-30.23-3-43-2.44-17.69-7.26-35.8-12-53-2.25-11.55-5.56-23.1-9.95-34.65.17-1.57-.18-2.02-1.05-1.35-6.97-15.66-13.51-31.57-22.01-46.49-1.38-1.65-.87.82-.99,1.49.83,8.46,4.34,20.23,7,26,14.18,43.74,29,84.97,34,132,.63,38-.52,75.85-3.45,113.55-7.43-.09-7.17-7.49-3.55-11.55l-.65-2.95c3.42-19.3,3.55-38.32,2.23-57.75,0-.05-.26.28-.58.7-4.37-23.38-16.25-45.57-33.99-61.51-5.37-4.83-20.33-13.93-23.01-19.49-1.88-6.12,2.3-8.36,12.55-6.7l4.45-1.3c14.04-10.18,1.81-27.43-6.03-37.47-8.18-10.49-37.43-38.24-37.65-50.2-.07-3.98,3.37-7.68,7.24-8.28,10.88-1.68,22.07,13.22,31.96,3.97,7.5-7.01,1.06-18.07-.52-26.02-2.57-12.49-2.9-24.83-1-37,3.82-9.23,16.78-16.27,25.51-9.01,14.59,12.13,10.3,43.72,20.03,55.97,10.18,12.83,27.91-18.97,30.33,6.66.37,3.89-.84,6.37-.87,8.38Z"/>
  <path class="st16" d="M732,129c3.51,1.43,11.42,6.3,12.57,9.96,2.3,7.28-9.39,25.92-13.55,32.56-7.19,11.48-21.74,26.52-26.84,37.16-4.9,10.23-1.99,17.81,10.24,16.23,4.45-.57,17.46-7.03,12.41,4.43-9.31,21.15-56.74,36.72-76.51,47.49-56.82,30.96-72.8,75.05-103.33,127.17-4.33,8.23-7.6,9.68-9.79,4.33,4.06-9.72,8.66-19.16,13.79-28.33,13.02-25.86,32.31-46.9,46.81-71.69,6.2-10.6,10.89-22.31,17.02-32.98,22.32-38.81,56.96-69.6,84.16-104.84-.89-1.57-2.26.34-3.11.89-30.83,20.09-59.73,56.11-79.89,86.61-.29.76-8.88,16.36-8.55,13.08.99-9.82,3.11-20.67,5.55-30.08.52-13.65,1.94-27.18,4.27-40.59l-.27-3.41c.86-4.83,2.2-9.63,3.02-14.49.2-.48.5-.56.98-.51,2.84-10.46,6.04-21.46,12-31,1.51-1.99,1.79-5.5,6.46-5.03,8.15.81,3.37,30.24,18.57,25.62,6.68-2.03,16.91-24.02,22.46-30.61,4.05-4.81,10.61-10.75,16.51-12.99,11.79-3.19,23.42-2.27,35,1l.02.02Z"/>
  <path class="st38" d="M810,387c-8.83-1.09-18.14-1.86-27.19-2.51l1.19.51c-10.26,2.32-11.4,6.49-4.98,14.48,3.64,4.53,12.68,7.86,6.98,13.52-9.09,2.24-18.54.85-28.33-4.18l-1.67.18c-9.53-3.75-26.48-14.48-34.99-16.51-20.99-5.01-4.88,19.69-5.98,25.98-1.33,7.58-13.42-2.72-16.05-4.96-11.28-9.58-16.15-20.93-30.99-27.51-15.76-8.52-38.33-5.25-54,2-14.96,6.02-29.61,17.41-42.47,27.03-2.27,1.7-12.19,12.77-13.47,5.35-.44-2.58,25.55-22.33,29.63-25.19,8.73-6.12,16.52-10.92,26.31-15.19,12-5.79,24.79-11.31,38-13,23.13-3.9,46.46-5.57,70-5,5.72,0,12.68-.85,18,1-.71.28-1.25.5-1.19.5,16.12.17,32.46.16,48.5-.01.07,0-1.12.12-1.31-.49l3.01-3.51c-3.08-.45-7.18-2.07-10.01-2.49-15.74-2.59-32.11-4.22-49.13-4.87l-2.87-1.13-1.94.92c-19.02-1.37-37.7-1.01-56.06,1.08l-23.44,3.92c-2.24.23,5.5-8.23,6.44-8.92,8.29-6.98,18.24-13.8,28.99-16.01-.57,11.71,10.2,4.68,15.73,1.23,17.15-10.69,42.15-31.23,63.77-31.23h18c.28,0,1.4.9,1.01,1.98-1.71,4.74-8.71,9.53-10.57,15.45-4.79,15.21,9.28,11.41,18.43,12.69,17.92,2.51,36.98,11.47,50.64,23.36,30.25,26.32-2.4,37.56-28.01,31.51l.02.02Z"/>
  <path class="st6" d="M553,530c5.21,5.92,21.81,25.81,20.81,33.27-.38,2.82-8.81,14.8-10.99,18.04-7.52,11.18-16.72,21.23-23.83,32.68-1.5.36-1.6-.21-2.43-1.05-2.19-2.21-4.61-7.14-7.04-9.96-3.77-4.36-23.5-23.98-28.5-21.54-2.15,1.05-2.66,4.46-1.5,6.53l29.31,35.77c.47,1.18.21,2.12-.31,3.22-.33.71-9.29,11.49-9.98,12.05-1.03.83-1.07,1.51-2.56.51-.9-.61-9.38-15.57-11.55-18.45-5.03-6.67-11.27-11.74-16.41-18.09-.05-.06.91-.42.12-1.46-.91-1.2-6.1-5.52-6.1-6.04,4.72-5.73,10.32-12.46,14.42-18.57,1.91-2.84,2.89-6.48,4.74-9.26,11.71-17.56,25.58-34.03,33.83-53.68,5.34,4.45,10.08,9.59,14.99,14.5.46.46,2.58,3.5,3,1.5l-.02.03Z"/>
  <path class="st6" d="M489,626c6.8,7.81,13.19,16.08,17.64,25.5-16.93,19.87-34.84,38.96-53.28,57.43-1.77.31-22-22.07-27.35-22.93l20.89,27.7c.91,1.96-7.85,10.11-8.53,10.23-1.66.3-10.79-12.62-12.86-14.94-1.83-2.05-6.75-5.43-7.51-6.99-.02-.05,1.14.08.98-.5-.34-1.22-4.07-2.72-3.59-4.55.27-1.02,6.04-9.5,7.16-10.9,1.33-1.66,3.34-2.2,4.44-3.56,17.42-21.51,33.98-43.99,50.02-66.49.51-.35,7.95,7.46,8.98,8.5.46.46,2.58,3.5,3,1.5h0Z"/>
  <path class="st2" d="M423,727c1.73,1.36,6.57,6.03,5.56,7.99l-73.06,71.99c-3.95-4.62-9.08-7.91-13.5-11.98-.04-.04,1.58.12.54-1.01-2.22-2.42-5.8-3.21-7.54-5.98,4.34-.14,7.8-2.91,10.51-6l59.99-70.99c5.73,5.22,10.74,11.33,16.5,16.51,1.14,1.03.95-.57,1-.53Z"/>
  <path class="st39" d="M574,466c3.02,3.58,5.77,6.83,8,11,4.07,10.06,7.51,20.72,7.25,31.72l-4.25-2.72c-6.96-3.49-13.74-11.78-21.72-15.79-1.01-.51-2.9-1.93-3.28.31-.25,1.51,17.07,20.51,19.41,23.57,8.36,10.91,10.36,11.83,5.6,25.43s-3.51,8.75-8.6.56c-10.21-16.43-27.11-33.3-42.42-45.08l-1-2.99,3.1-.63c6.23-13.75,17.19-24.42,22.91-38.38,4.32,3.44,8.08,7.6,11.98,11.5.46.46,2.58,3.5,3,1.5h.02Z"/>
  <path class="st21" d="M326,799c3.22,2.68,19.04,14.55,19.04,17.5,0,.54-.19,1.04-.5,1.48l-57.54,53.58c-1.87.97-5.64-3.04-6.99-4.56-.04-.04,1.39.27.53-1-1.67-2.48-5.75-3.83-7.51-6.5,5.43-3.98,8.06-10.18,12.01-14.97,11.18-13.58,23.27-26.86,34.95-40.05,2.52-2.84,1.81-5.47,6.03-5.48h-.02Z"/>
  <path class="st37" d="M266,868c2.47,2.85,8.08,8.14,9.55,11.03.48.95.52.99.02,1.96-.89,1.73-15.26,13.61-18.09,15.98-7.39,6.22-15.59,12.45-23.47,18.03-.58-2.13-2.89.18-3.73.78-7.17,5.06-14.74,10.68-23.27,13.22v-17l1.5,5c2.32-3.1,5.83-5.02,8.52-7.48,11.3-10.32,24.18-24.91,34.5-36.5,2.15-2.42,5.27-9.82,8.79-8.9l5.7,3.89h-.02Z"/>
  <path class="st36" d="M345,587c-1,1.78-3.62.98-5.22.74-4.14-.63-18.76-4.37-21.32-1.76l-38.47,91.02c8.92,2.83,17.73,6.16,26.03,10.48.49.26,4.18,1.77,1.97,2.53-9.32-5.38-19.7-8.97-30-12.01l40.1-94.92c8.94,1.27,18,2.41,26.9,3.93h.01Z"/>
  <path class="st34" d="M525,287c3.37,31.65.03,56.44-1.99,87.51-.59,9.13.26,18.36-1.02,27.49-9.35-3.07-7.2-5.45-5.99-14,1.46-2.5,1.89-1.5,2,1-.9,6.05-5.18,8.68,2.99,11-.83-4.59.79-9.29,1-13.51,1.54-31.34,4.14-59.48,1.97-90.94-.17-2.42-.62-6.63,1.04-8.55h0Z"/>
  <path class="st18" d="M279,693c.87.28.86.62,0,1-1.68-.23-4.88-2.02-6.11-.39l-31.72,83.14c-1.25,4.98,6.26,6.06,9.88,7.69.47.21,4.15,1.84,1.95,2.55-4.23-2.33-9.5-3.99-13.93-6.09l.12-2.15,32.82-87.77c.61-.58,5.89,1.82,6.99,2.01h0Z"/>
  <path class="st31" d="M516,423c-23.9-10.98-54.09-22.9-80.54-14.04-3.28,1.1-6.03,3.36-9.45,4.05l8.01,2.01c-.13.45-1,.83-1.01.98l-11-1.01c27.77-21.02,66.69-7.23,94,8.01h-.01Z"/>
  <path class="st20" d="M276,806c-.34,1.84-3.99.93-5.24.74-11.87-1.78-24.76-8.42-36.74-10.75l-14.01,44c4.1-15.07,8.35-30.04,13.1-44.91l42.9,10.91h-.01Z"/>
  <path class="st4" d="M337,542c2.04.93.43,3.09-.13,4.37-1.37,3.12-12.41,23.18-10.88,24.63,10.79,1.38,27.5,5.96,36.47,12.17,1.89,1.31.45,1.75.54,1.83-12.13-6.33-25.14-12.03-39-13-1.19-1.13,11.44-26.71,13-30Z"/>
  <path class="st19" d="M422,508c-1.01,1.95-3.32.67-4.78.29-8.38-2.14-16.68-4.22-25.19-5.82-4.88-.92-28.45-5.58-31.04-3.99l-3.98,4.52c.77-1.35,3.05-7,3.62-7.08,20.74,2.82,41.1,7.11,61.38,12.08h0Z"/>
  <path class="st32" d="M518,389l-2-1c1.6-11.31,3.72-22.92,4.04-34.46.23-8.32-1.46-16.75-1.04-24.54.06-1.12-.69-3.26.99-3,2,20.71,1.06,42.4-1.99,63Z"/>
  <path class="st29" d="M722,362c-1.04,1.66-3.8,1-5.49,1.02-21.35.22-43.51-.39-64.51,3.98-.87-.28-.86-.62,0-1,23.11-4.76,46.52-4.03,70-4Z"/>
  <path class="st14" d="M614,388c-2.51-.96,1.1-1.5,1.76-1.73,17.05-5.76,31.62-8.79,49.21-2.74.27.09,5.66,1.66,3.03,2.47-16.11-7.15-37.96-4.45-54,2h0Z"/>
  <path class="st11" d="M613,241c-1.31,10.04-3.07,20.06-4.99,29.99l6.14-11.39c.21-.87,1.62-1.26,1.85-1.61-1.29,4.17-3.44,8.19-5.48,12.02-1.51,2.85-3.4,6.66-5.51,8.98,3.67-12.72,4.2-26,5.99-39,1.47-2.51,1.83-1.49,2,1h0Z"/>
  <path class="st23" d="M727,351c17.58.66,35.02,3.33,52.51,5.01l-.51.99c-17.06-2.47-34.75-3.22-52-4-2.66-.32-2.54-1.24,0-2Z"/>
  <path class="st27" d="M459,428c-1.68,1.43-2.38,1.12-4.34.91-16.17-1.72-33.06-8.21-48.66.09,14.15-10.83,36.64-2.31,53-1Z"/>
  <path class="st5" d="M551,380c-4.67,9.28-8.74,19.06-13.01,28.55-.27,1.89.19,1.19,1.28,1.69,3.69,1.7,3.76-1.55,5.19-4.27.26-.49,1.77-4.18,2.53-1.97-3.26,5.56-4.53,13.76-10.88,4.69,5.08-9.35,8.2-20.37,14.88-28.69h0Z"/>
  <path class="st10" d="M727,351v2c-19.14-.87-37.77-1.52-57,0h-1c3.13-1.1,8.14-1.87,11.46-2.04,14.45-.75,32.02-.5,46.54.04Z"/>
  <path class="st29" d="M740,363c15.08-.1,31.01-.59,46,0,.76.03,3.08-.31,1.5,1h-61.99c-1.62-1.42,1.11-.98,1.98-1.01,4.16-.12,8.36.03,12.52,0h-.01Z"/>
  <path class="st13" d="M613,241l-2-1c1.95-14.23,3.48-28.88,6-43,1.7,1.02,1.07,3.73.88,5.36-1.47,12.8-3.21,25.86-4.88,38.64Z"/>
  <path class="st15" d="M652,348l-6,7.99c7.77-1.13,15.22-2.32,23-2.99.33-.03.67.03,1,0l-29,5.99c3.16-4.13,7.04-7.66,11-10.99Z"/>
  <path class="st17" d="M319,702l1.99,1.99c-14.02-3.04-27.7-7.99-41.99-9.99v-1c1.51.26,3.36-.12,5.21.26,11.7,2.4,23.04,6.57,34.79,8.74Z"/>
  <path class="st1" d="M582,477c5.52,10.33,8.36,22.26,7.99,34l-4.99-5c1.09.55,2.65.47,3.5,2,.56-4.79-1.05-10.25-1.8-15.2l-4.7-15.8Z"/>
  <path class="st24" d="M533,306c-1.39-14.11-1.04-28.84-3-43l.97-.49c.78,10.3,2.47,20.69,3.02,31,.2,3.71.73,9.17-.99,12.49Z"/>
  <path class="st3" d="M551,260c-3.47,12.83-7.94,25.36-12,38-1.92-.89-.43-3.2-.03-4.52,3.5-11.41,8.15-22.47,10.9-34.12l1.13.64h0Z"/>
  <path class="st0" d="M518,210c-3.34-12.12-7.16-24.04-11-36l.99-1c3.01,10.85,7.37,21.33,10.32,32.2.4,1.46,1.61,3.81-.31,4.8Z"/>
  <path class="st7" d="M548,147c-.22,14.03-1.14,27.08-3,41-1.6-1.01-1.15-3.86-1-5.48,1.11-11.99,4.09-23.86,3-36.04l1,.52h0Z"/>
  <path class="st25" d="M732,129l-18.67-2.61-16.33,1.61c10.83-4.11,24.36-3.35,35,1Z"/>
  <path class="st9" d="M474,122c-2.19-11.02-5.4-26.37-1-37l-1.04,16.55c.02,6.5,3.98,14.29,2.04,20.45Z"/>
  <path class="st26" d="M633,151c-4.45,10.36-9.63,20.59-11.02,32.01-.46-.13-.83-1-.98-1.01,1.85-11.06,5.27-22.16,12-31Z"/>
  <path class="st30" d="M784,385c-1.13-.17-3.25.77-2.99-.99,11.4-.6,22.59,2.57,33.99,2,.06,1.81-3.72.96-4.99.99-7.9.21-18.15-.82-26-2h-.01Z"/>
  <path class="st22" d="M786,413c-.8.79-.43,1.61-2.48,1.98-7.5,1.36-20.33-3.15-27.52-5.98.97-2.11,3.09-.32,4.37.13,7.94,2.81,17.27,6.46,25.63,3.87Z"/>
  <path class="st33" d="M652,366v1c-12.53,2.61-26.42,7.96-38,13,11.18-6.67,25.24-11.37,38-14Z"/>
  <path class="st12" d="M491,155c-1.41,2.17-1.13-.92-1.48-2.01-2.01-6.32-4.77-13.77-5.9-20.22-.51-2.91.09-2.24.38-3.77,2.42,8.57,4.26,17.54,7,26Z"/>
  <path class="st8" d="M479,240c-5.73,4.15-12.91.37-16.05,2.46-2.21,1.47.96,4.14-.95,5.54-5.71-11.82,11.22-5.19,17-8Z"/>
</svg>