<?xml version="1.0" encoding="UTF-8"?>
<svg id="Layer_1" xmlns="http://www.w3.org/2000/svg" version="1.1" viewBox="0 0 1024 1024">
  <!-- Generator: Adobe Illustrator 29.5.1, SVG Export Plug-In . SVG Version: 2.1.0 Build 141)  -->
  <defs>
    <style>
      .st0 {
        fill: #91503a;
      }

      .st1 {
        fill: #a46046;
      }

      .st2 {
        fill: #e34943;
      }

      .st3 {
        fill: #69b77d;
      }

      .st4 {
        fill: #ef2f26;
      }

      .st5 {
        fill: #e44a43;
      }

      .st6 {
        fill: #e62b22;
      }

      .st7 {
        fill: #92513a;
      }

      .st8 {
        fill: #f3544a;
      }

      .st9 {
        fill: #e92c23;
      }

      .st10 {
        fill: #a96449;
      }

      .st11 {
        fill: #922317;
      }

      .st12 {
        fill: #ef3026;
      }

      .st13 {
        fill: #80c892;
      }

      .st14 {
        fill: #e44942;
      }

      .st15 {
        fill: #f7776e;
      }

      .st16 {
        fill: #c7463c;
      }

      .st17 {
        fill: #ea2c23;
      }

      .st18 {
        fill: #ef271f;
      }

      .st19 {
        fill: #e92921;
      }

      .st20 {
        fill: #e92d25;
      }
    </style>
  </defs>
  <path class="st8" d="M479,347c3.09,3.01,9.69,7.19,9.79,12.56l-1.6,11.5,19.76.86c.93-4.66,1.27-9.46,1.01-14.41l2.05-2.52c43.17-1.68,77.71-29.41,119.79-36.71,132.11-22.9,238.14,76.65,253.21,203.71,1.65,22.49,1.86,45.44,2,68-.03,1.6.6,4.16-1,5l-.52-1.06c-1.77,33.85-7.62,67.91-18.48,100.06-8.97,28.41-19.97,55.74-33,82-14.93,28.4-34.43,60.48-55,85-2.84,2.86-6.12,4.25-9.82,4.17-89.63,32.43-189.36,37.82-283.55,20.66-27.12-4.94-51.47-12.18-77.46-20.46-2.73-.87-5.1-2.4-7.18-4.37-1.32.06-2.63.09-3.94-.04s-2.55-.26-3.7-.68c-104.93-38.93-201.78-114.7-248-217.7l-2.36-.58-1.42-1.82c-7.53-34.22-7.3-70.17-6.58-104.18,10.27-130.32,112.58-240.61,250.25-218.75,32.61,5.18,58.36,24.72,90.75,29.75h5Z"/>
  <path class="st5" d="M141,642c0-.11.87-.67.86-1.46-.03-2-1.38-4.28-.85-6.54.99-1.34,5.93,12.48,6.61,13.88,50.32,103.61,145.03,174.1,251.38,213.12l3.61,3.18c7.12,1.14,13.07,3.56,17.86,7.26,4.69-.09,9.22,1.21,13.55,2.92,3.39,3.16,7.85,3.66,12.66,3.29,2.14,3.21,5.09,5.05,8.85,5.53.87,4.03,2.08,7.9,3.65,11.59,5.47-12.55,12.58,7.6,1.16,8.53-7.8-1.22-9.52.48-5.17,5.08-2.93,8.34-6.7,9.83-11.31,4.47.93,3.33-.68,5.49-2.87,7.62,0,.8,2.5,6.34,3.24,6.42,9.18-2.32,25.5,2.89,13.16,12.37-.01,5.18-3.9,7.3-8.6,7.65,2.15,4.62-.36,7.61-7.51,8.99-1.87,7.61-5.01,9.6-9.42,5.97-.34.06-5.52,2.57-6.12,2.87-4.54,2.33,17.03-.75,16.94-2.25,18.84-8,38.2-13.87,58.07-17.6,16.91,2.38,33.69,4.72,50.35,7.04,3.35,4.61,8.58,7.07,15.69,7.38,5.09,3.17,10.73,4.96,16.93,5.37-8.44-3.88-12.72-15.24-.4-15.62.09-10.14,9.82-6.67,9.06,2.07,13.22-6.22,17.16,2.78,10.17,13.42,5.87-.24,11.74-.27,17.62-.08,1.65-3.77,4.43-4.07,6.65-.45,10.26-2.68,20.64-4.98,31.14-6.88l5.7-4.7c14.25-5.67,27.16-13.03,38.71-22.06,8.69-.66-.17,6.29-3.66,8.85-22.01,16.11-48.42,30.59-75.66,33.77-16.76,2.95-36.48,1.68-52-5l-1.73.47-32.71-11.87c-15.06-5.73-30.74-6.22-46.57-4.6-14.54,4.54-28.86,9.86-42.97,15.96-18.97,6.33-35.51,6.61-55.03,6.04-16.37-2.31-31.68-9.29-46-17-30.84-18.97-64.31-45.4-88-76-24.1-28.14-45.43-58.14-64-90-.13-.27.13-.73,0-1-14.33-26.48-25.93-54.18-36.15-82.47-3.12-8.62-6.34-18.13-8.35-27.01-.02-.1,1.4,1.34-.5.48-.48.05-.79-.03-.99-.51-.19-.41.14-1.03,0-1.49-2.65-11.69-5.28-23.56-7.88-35.61l.88-1.39h-.05Z"/>
  <path class="st3" d="M769,73c22.1,16.13,8.21,62.53,1.27,84.77-25,80.07-78.63,127.99-156.5,155.5-32.94,11.64-68.75,20.39-103.78,21.73-.04,1,.04,2,0,3-.28.87-.62.86-1,0-.87-2.24-1.05-4.8,0-7,.24-4.31.76-8.59,1.54-12.83,43.3-73.08,112.35-133.67,180.58-186.47,25.06-19.4,50.56-38.79,78.25-54.2-1.55-1.68-1.68-3.18-.37-4.5h0Z"/>
  <path class="st13" d="M769,73l3,4.99c-24.78,13.93-48.2,31.32-70.91,48.6-58,44.13-122.18,98.75-165.5,157.5-6.08,8.25-22.01,30.39-25.05,38.95-1.01,2.85.37,5.85-1.54,7.96-2.15-23.34-4.82-46.67-8-70,17.58-83.81,57.51-146.81,138.33-181.17,32.9-13.99,98.76-29.39,129.67-6.83h0Z"/>
  <path class="st2" d="M777,861c-2.28,2.72-4.7,5.32-7,8-9.54,11.45-19.21,22.45-29,33-31.62,32.55-71.24,65.13-118,72-.87-.28-.86-.62,0-1,24.43-3.22,55.56-19.69,75.33-34.17l7.16-6.84c-4.84-.39-6.53,4.02-9.13,5.87-9.58,6.82-21.53,10.74-31.71,16.29-2.09,1.14-3.05,3.46-5.41,4.59-5.61,2.69-18.21,3.38-25.09,4.91-2.44.54-7.18,3.25-8.97,2.17-.49-.3-.91-2.78-1.67-2.79-.63,0-1.31,2.44-2.21,3.04-2.57,1.71-5.8-.24-8.8-.15-3.48.1-7.44,2.02-10.48.59-5.73-2.7,6.62-10.13.55-14.57-3.39-2.48-10.39.08-10.53,4.58-.03.99,3.82,6.83.47,5.49-4.46-1.79.78-18.36-6-16.99-2.57.52-.15,4.8-1.45,5.53-3.32,1.86-8.36-2-7.05,6.46l2.98-1c1.42,2.6-3.11,1.5-1.98,3.48,1.23,2.15,4.85.35,6.57,4.45,2.06,4.91-6.78,1.74-8.54,1.5-8.59-1.18-4.36-1.17-10.09-3.89-3.34-1.59-9.87-1.56-13.34-3.66-2.04-1.23-2.8-4.28-4.22-4.66-5.19-1.37-10.62-.53-15.93-1.17-10.41-1.25-22.33-5.64-33.95-5.14-4.55.19-29.22,7.43-34.74,9.34-10.36,3.58-16.96,7.56-28.22,9.8-2.85.57-8.91,3.44-11.62,1.5-1.47-1.05-1.77-10.04-9.92-7.57-1.53-1.27,7.03-7.92,8.55-8.06,3.4-.32,4.97,5.57,6.94-1.93l5.5,3.98c-1.85,1.26-13.47,4.64-10.99,8.01,1.78,2.41,4.96-1.9,6.55-2.06,2.31-.23,3.28,2.17,5.43,2.07.56-2.19,1.36-6.01,2.94-7.57,2.66-2.62,10.93-.54,6.57-7.43-2.26,2.65-4.83,4.46-8.5,3.99,3.27-10.83,20.05-.46,17.01-14.99l3.98,1c-.48-2.14,1.91-5.34.04-6.52-.46-.29-9.27-2.23-10.62-2.4-2.34-.3-4.12,2.25-6.46-.53-.61-.72-2.95-6.28-2.94-7.09.04-1.91,2.34-2.64,2.82-4.18,1.33-4.26-2.57-5.75-3.83-9.28,8.41-1.59,5.54,2.77,7.99,5.5.77.86,4.54,2.02,5.01,1.49.37-.41-.86-4.91,3.02-5.51-3.87-1.42-3.14-3.86-3.01-7.5,6.47-.21,15.77,3.21,12.86-7.36-1.35-4.9-2.75,2.06-2.97,2.25-5.29,4.47-6.27-11.2-6.95-11.83-.43-.4-3.32.4-4.95-.55-1.21-.7-1.71-3.97-3.6-4.29-1.14-.2-2.82.97-4.66.65-1.68-.29-2.78-2.26-4.73-1.85,1.1,2.37,2.03,5.13-.5,6.97-3-3.13-8.03-5.98-.5-6.99-2.6-3.82-9.24-4.23-13.7-4.61-1.04-.09-3.01.87-3.27.62-.21-.2.2-2.78-2.03-4.5-4.56-3.53-16.96-.25-17-8.49,97.39,35.73,217.2,42.12,318.01,17.51,17.19-4.2,33.11-10.53,49.72-15.28,2.09-.6,4.5.16,6.58-.42,1.37-.39,2.94-3.73,3.7-1.81h-.02Z"/>
  <path class="st10" d="M444.9,142.17c-.23.79,1.7,2.86,3.67,4.15,2,2.16,3.8,4.48,5.88,6.64l4.41,5.81c2.06,2.57,3.97,5.56,5.88,8.3l10.68,19.6c.99,4.66-3.97,1.96-5.8-.15l-2.55.41c1.25,2.24.65,4.24-1.79,5.99.13,2.89-1.92,3.87-3.59,1.7-1.66,3.13-4.17,3.39-6.06.32-3.2,3.27-5.94,2.42-7.65-1.89-2.23.38-4.48-.22-6.76-1.81l4.96,8.35c.57,1.59,1.28,5.12-.52,5.7-3.09-2.06-5.68-5.22-7.76-9.49-21.11-38.03-80-52.44-106.85-17.12-24.87,32.72-2.78,74.76,25.83,93.14.74.96.9,2.06.01,2.75-1.78,1.39-16.39-7.16-18.42-8.67-2.01-1.13-3.34-2.18-5.14-3.32l-7.35-5.81c-29.66-22.03-33.41-69.99-15.73-102.91,27.86-51.89,96.74-51.21,134.68-11.68h0Z"/>
  <path class="st0" d="M445.64,205.28c.76.53,1.51,1.1,2.18,1.75s1.32,1.29,1.75,2.07c23.4,42.72,36.1,92.03,44.06,140.94l.44-7.03c-4.44-14.57-.71-27.71,4.99-41.32.15-4.12,2.87-10.3,6.07-5.9.43.11.77.24.82.47,3.08,13.65,3.63,31.86,3.88,46.46-1.01,4.12-.87,4.81.44,2.07h.73c-.12,4.69.11,9.43,0,14.12-.12,5.29.1,10.53-.74,15.77l-22.76-.83c-.21-7.32-1.16-14.57-2.95-21.58-13.82-54.51-82.49-59.42-122.59-74.37-7.82-2.91-16.89-6.52-23.53-12.01,3.42,1.93,7.28,3.98,10.82,5.62,2.06.96,5.34,2.65,7.54,2.28-15.63-12.4-31.69-26.46-36.23-48.72-10.62-51.96,37.75-80.38,77.03-65.5,19.01,7.2,37.34,27.44,48.04,45.71h0Z"/>
  <path class="st1" d="M504.4,280.85c.18,4.77.64,9.5,1.39,14.21l-.65.74c-5.1-.17-3.61,3.13-4.76,6.66-2.99,9.17-5.9,13.58-6.81,23.84-.79,8.84,2.01,11.85,2.03,18.06,0,1.57-.88,9.93-1.29,11.02-.45,1.19-.19,1.25-1.66,1.03-.47-8.29-1.94-16.53-3.58-24.61-9.06-44.5-21.04-88.3-43.43-126.54l-.87-5.26-10.15-16.33c4.19-1.39,3.71,4.19,5.88,5.38.57.31,5.3,2.59,5.6,2.67.64.17,1.64-.66,2.46-.22,1.12.61,1.51,3.31,2.69,3.7,2,.68,3.52-2.42,5.02-2.44.51,0,.97,3.86,3.21,2.37.26-.17,2.84-5.71,3.79-.7h.72c-1.17-3.04,2.18-4.23,2.24-4.57.56-3.28-2.76-1.79-2.23-4.56,1.73.59,4.61-.78,5.97-.42,1.64.44,2.89,3.57,5.05,2.47l-10.29-20.34c20.7,29.76,33.64,76.69,39.66,113.77v.02Z"/>
  <path class="st19" d="M141,642c.71,10.24,4.74,22.18,7.29,32.22.37,1.46,1.66,3.77-.29,4.78-13.65-42.94-18.53-98.18-15-143,2.83,6.58.03,14.83-.05,21.45-.2,18.08.99,39.99,3.17,57.92,1.08,8.91,3.11,17.85,4.88,26.62h0Z"/>
  <path class="st14" d="M346,957c-34.13-18.38-62.71-45.02-88-74-.76-1.13-.76-1.8,0-2,25.23,29.06,52.87,53.72,86.01,73.49.5.3,4.22,1.71,1.99,2.51Z"/>
  <path class="st19" d="M194,790c-19.09-34.34-34.82-70.92-45-109,.16-.02.54-.87.98-1.01,10.67,37.92,26.56,74.99,44.02,110.01Z"/>
  <path class="st6" d="M258,881v2c-22.67-25.98-48.69-61.13-64-92,2.47-.15,2.54,1.53,3.52,2.98,20.77,30.87,35.41,58.15,60.48,87.02Z"/>
  <path class="st2" d="M491,953c-17.93,3-35.05,14.38-52.99,18.51-14.92,3.44-30.79,4.64-46.01,2.49,9.79-2.43,20.47-.2,30.48-1.02,24.41-2,44.69-17.19,67.52-20.98.82.03,1.22.1,1,1Z"/>
  <path class="st12" d="M866,694c-8.6,28.18-20.3,55.94-34,82-2.01-.6,0-2.99.49-4.01,12.09-25.26,24.27-51.15,32.51-77.99.28-.87.62-.86,1,0Z"/>
  <path class="st4" d="M884,595c.41,7.55-1.09,17.78-2.02,25.48-3.03,24.86-8.69,49.63-15.98,73.52h-1c10-32.54,16.27-68.03,18.01-101.99,1.69-.26.93,1.88.99,2.99Z"/>
  <path class="st9" d="M571,968c1.91.79,2.06,1.49,0,2-29.45-8.75-45.65-22.75-80-17l-1-1c34.08-5.66,51.07,6.93,81,16Z"/>
  <path class="st18" d="M885,590l-2-68c2.65,22.38,2.38,45.45,2,68Z"/>
  <path class="st20" d="M623,973v1c-16.4,2.41-36.08.73-52-4v-2c16.73,5.07,34.54,7.3,52,5Z"/>
  <path class="st17" d="M741,902c-.02-1.96,1.35-2.78,2.48-4.02,8.82-9.6,18.03-19.12,26.52-28.98-7.73,12.52-18.85,22.56-29,33Z"/>
  <path class="st0" d="M333.3,262.58c-2.54-1.61-5.78-2.8-7.35-5.81,2.25,1.68,5.94,2.72,7.35,5.81Z"/>
  <path class="st1" d="M458.86,158.78c-1.37-1.69-4.26-2.99-4.41-5.81,1.63,1.69,4.09,3.03,4.41,5.81Z"/>
  <path class="st1" d="M448.57,146.32c-2.03-.17-3.05-2.36-4.39-3.74l.72-.42c1.39,1.44,2.45,2.83,3.67,4.15Z"/>
  <path class="st15" d="M692.78,399.28c25.83-3.14,60.07,12.12,78.26,30.18,24.59,24.42,44.11,76.86,32.44,110.52-7.75,22.33-24.4,21.31-33.24.29-14.81-35.2-18.62-61.08-51.91-86.09-11.31-8.5-38.33-17.84-44.18-27.82-7.89-13.46,5.52-25.48,18.63-27.07h0Z"/>
  <path class="st16" d="M548.74,377.26c7.41,7.82-10.9,12.89-15.73,14.26-33.42,9.46-85.28,4.06-114.54-15.48-4.79-3.2-12.65-7.89-11.5-14.5,1.67-9.64,17.47,3.58,21.36,5.65,27.88,14.81,67.74,19.86,98.51,13.17,5.52-1.2,17.84-7.36,21.9-3.09h0Z"/>
  <path class="st14" d="M287,859.01c-1.18,3.82-3.08,4.51-7,4l1,2.98c-1.96,2-3.92-5.73-5.48-5.89-2.41.65-3.83,2.87-3.57,5.4.06.61,4,5.09,4.3,5.25,1.24.66,3.49,0,3.75.24.51.46-2.28,11.17,1.49,12.98,2.33-2.39,4.74-5.36,8.5-4.99-1.38,2.27,2.92,7.97,2,9-1.39,1.55-3.05-4.03-4.99-1.99-.13.14-.14,3.6.14,3.9.41.45,2.69-.5,2.92.63.48,2.27-.98,8.7-3.06,6.46-.82-.88,2.07-3.49-5.57-4.03-3.81-.27-7.97,2.58-8.35-3.53-.08-1.32.87-2.81.69-3.83-.66-3.79-6.57-1.6,1.5-6.84,4.97-3.23-2.94-1.85-3.56-1.95-1.47-.22-5.82-3.94-5.74.68.03,1.59,2.12,2.33,2.05,3.98-2.14,2.19-2.03-1.16-2.97-1.99-4.12-3.65-7.56-7.69-10.47-12.57-1.01-1.69-1.21-5.11-1.8-5.7-.93-.94-7.16-1.24-7.77-4.21,2.23.47,5.47-1.5,7.32-1.09,1.11.25,1.01,2.65,2.1,2.85,2.02.36,7.14-3.71,8.53-2.72.2,1.93,1.91,3.67,2.03,5.51.15,2.4-4.18,10.2,3.51,9.52,4.67-.41,1.05-3.56.72-4.85-1.15-4.56,2.43-12.02,7.93-10.71,2.62.63,5,5.4,9.86,3.49v.02Z"/>
  <path class="st14" d="M318.26,921.74c.15.25,3.7,3.9,3.95,4.05,2.07,1.22,6.79-1.52,5.61,4.48s-8.82,3.43-12.21.62c-2.26-1.87-2.14-5.35-2.76-5.75-.97-.62-3.68.42-5.47-1.03-1.29-1.04-2.18-6.56-4.96-9.04-1.43-1.27-4.2-1.51-5-3.07-1.06-2.07,3.28-6.49-2.88-4.96-3.17.79.87,3.69.45,3.94-3.67,2.22-8.3-9.13-2.5-10.97,1.7,3.19,4.86,5.09,8.46,5.54,3,.37,7.23-2.34,9.06-1.1,1.93,1.31-1.12,7.32.72,11.3,1.96,4.23,4.91.56,6.29,1.66,1.26,1,.55,3.23,1.22,4.32h.02Z"/>
  <path class="st14" d="M307.52,893.01c6.63-1.71,5.75,7.61,1.46,5.56-1.18-.56-4.15-4.86-1.46-5.56Z"/>
  <path class="st14" d="M282.33,869.68c-.36-.31-1.45-2.58-1.33-2.67,2.21-.65,8.65.3,7.99,3.48-.53,2.61-5.68.03-6.66-.8h0Z"/>
  <path class="st11" d="M509,331c.04,2.33-.03,4.67,0,7l-.99,1.99c-.78-17.79-2.06-35.68-4.14-53.36-.3-2.55-1.6-5.65-1.87-7.64-.76-5.68-2.06-12.95-1-18,4.01,21.85,7.65,47.83,8,70h0Z"/>
  <path class="st7" d="M369.29,238.49c3.16,1.65-.37,3.49-2.48,3.31-.37-.03-6.16-1.35-6.35-1.65-.17-.28.67-1.75.36-2.51-1.29-3.21-10.22-2.23-12.84-.81l.73-3.31c-3.72-.51-1.55.95-1.8,2.92-.18,1.36-1.26,2.23-1.03,3.94.13,1,3.71,5.6.27,4.75-1.98-.49-2.37-5.98-9.53-4.95-1.54.22-3.56,3.31-4.74-2.22-.35-1.61,1.51-.59,1.48-2.34-.01-1.03-.24-2.61-1.18-2.93-2.47-.86-2.07,1.77-2.58,2.77-.9,1.79-2.32-.96-2.59-1.92-1.04-3.69-3.59-14.45-3.94-17.97-.75-7.66,1.01-23.96,4.47-30.49.74-1.4,4.61-8.97,4.99-9.3.64-.54,2.1-.3,2.9-.87,13.57-9.58,21.74-16.92,39.35-17.04,11.86-.08,26.85,5.96,37.56,12.37,19.6,11.73,36.94,41.89,45.9,64.37.57,1.43,4.05,11.96,4.14,12.84.21,2.25-1.03,4.25-.51,6.25.42,1.61,2.06,1.72,2.59,2.52,2.05,3.11,7.43,15.86,6.82,19.19-.46,2.54-3.5.86-2.92-2.05l-.71.85c-5.2-12.75-10.01-25.76-15.78-38.22-11.36-24.54-29.06-51.23-51.75-63.94-3.14-1.72-6.32-2.55-9.55-2.49-7.49-1.4-13.86-1.29-21.3.83-1.92-.1-3.89.45-5.88,1.66-.43.22-1.01.57-1.47.83-16.59,9.68-22.85,30.87-12.49,49,3.73,5.95,6.9,8.86,12.49,12.46,1.45,1.26,3.39,2.82,5.14,2.49.35.17.54.91,2.2,1.66h.01Z"/>
  <path class="st0" d="M361.95,172.89c-1.55,2.33-4.22,3.11-6.23,5-12.2,11.45-13.61,28.53-6.26,44-11.54-18.38-4.52-39.38,12.49-49Z"/>
  <path class="st0" d="M400.14,172.06c-3.25-.64-6.28-1.88-9.55-2.49,2.84-2.01,7.05,1.09,9.55,2.49Z"/>
  <path class="st0" d="M369.29,170.4c-1.96.56-3.82,1.56-5.88,1.66,1.42-.71,4.2-3.86,5.88-1.66Z"/>
  <path class="st0" d="M367.09,236.83l-.41.79c-1.74-.55-3.73-1.39-4.73-3.28,1.1.71,3.69,1.75,5.14,2.49Z"/>
  <path class="st0" d="M345.05,229.38c-.59,2.52-.36,6.55-3.67,5.79,1.37-4.06.35-2.56-.65-3.82-3.06-3.91,1.82-3.01,4.32-1.97Z"/>
</svg>