<?xml version="1.0" encoding="UTF-8"?>
<svg id="Layer_1" xmlns="http://www.w3.org/2000/svg" version="1.1" viewBox="0 0 1024 1024">
  <!-- Generator: Adobe Illustrator 29.5.1, SVG Export Plug-In . SVG Version: 2.1.0 Build 141)  -->
  <defs>
    <style>
      .st0 {
        fill: #fea437;
      }

      .st1 {
        fill: #313131;
      }

      .st2 {
        fill: #f77434;
      }

      .st3 {
        fill: #0d0d0e;
      }

      .st4 {
        fill: #67c48d;
      }

      .st5 {
        fill: #68c58f;
      }

      .st6 {
        fill: #0b0a27;
      }

      .st7 {
        fill: #f79735;
      }

      .st8 {
        fill: #25bf8d;
      }

      .st9 {
        fill: #f4583c;
      }

      .st10 {
        fill: #eb652e;
      }

      .st11 {
        fill: #f26b2e;
      }

      .st12 {
        fill: #59bc84;
      }

      .st13 {
        fill: #47b175;
      }

      .st14 {
        fill: #f55a3c;
      }

      .st15 {
        fill: #23b690;
      }

      .st16 {
        fill: #f77231;
      }

      .st17 {
        fill: #df4132;
      }

      .st18 {
        fill: #fea438;
      }

      .st19 {
        fill: #fea538;
      }

      .st20 {
        fill: #45ac73;
      }

      .st21 {
        fill: #15b27e;
      }

      .st22 {
        fill: #0a0928;
      }

      .st23 {
        fill: #dc4331;
      }

      .st24 {
        fill: #fdfdfd;
      }

      .st25 {
        fill: #45ad73;
      }
    </style>
  </defs>
  <path class="st0" d="M389.96,315.01c61.04,21.16,66,80.97,80.06,144.97,19.79,88.59,9.99,203.43-34.35,282.39-28.81,51.5-25.01,93.21-83.66,88.64-48.25-4.63-117.67-45.63-157.07-90.35-51.24-58.16-59.12-147.27-46.3-223.41,12.55-76.32,63.04-146.05,128.9-184.3,28.07-16.64,67.8-31.56,99.77-28.67l12.64,10.72Z"/>
  <path class="st18" d="M593,315c1.18-.13,2.35-.22,3.52-.16s2.26.15,3.28.51c30.86,10.81,67.48,32.86,92.43,54.02.82.7,1.47,1.6,2.1,2.55s1.17,2.01,1.66,3.08c.15.24-.14.74,0,1,9.63,12.23,15.48,31.1,19.7,46.67,10.34,38.09,16.85,73.33,18.33,112.91.75,20.1,1.51,47.5-2.19,66.9-.51,2.67-1.51,5.16-2.85,7.51-.73,13.4-2.16,26.89-4.62,40.01-8.63,46.08-28.38,92.17-50.12,132.2l-6.26,5.79c-3.48,4.46-21.38,14.87-27.33,18.17-30.88,17.14-64.93,27.75-99.67,33.83-.41-1.53-.42-3.05,0-4.57,25.99-42.62,49.82-87.84,62.58-136.96l4.42-9.47-1.58-1.94,3.48-13.87,2.1-1.19.68-9.86c16.84-81.98,15.28-171.39-4.41-253.11-8.31-34.47-19.69-61.28-34.68-93.04-1.03-2.18-1.34-4.62-1.59-7,7.04.46,14.57,2.99,21,6l.02.02Z"/>
  <path class="st17" d="M949,476c-15.17,34.39-32.03,67.82-50.65,100.49,13.29,22.58,26.38,45.39,37.51,69.15,12.75,27.21,40,88.93,35.88,117.6s-45.81,9.07-60.76,1.28c-39.66-20.65-81.09-57.94-110.49-91.51-6.84-7.81-14.77-16.95-19.49-26.01l-.97-3.78c3.53-12.81,5.74-25.97,7.54-39.12l2.43-3.1c-1.28-6.98-1.27-14.31.05-22.01-.47-7.75.18-15.08,1.95-21.99,10.19-1.55,21.86-6.65,31.84-11.08,44.04-19.54,87.19-40.52,122.54-73.19,3.19-.78,3.16.48,2.63,3.27h-.01Z"/>
  <path class="st13" d="M678,124c1.52,2.17,2.52,2.51,3.77,5.73,11.17,28.84-20.93,64.43-39.77,83.27l.02,2.46c-7.76,6.61-16.65,14.28-22.17,22.95-10.72,16.83,6.3,27.29,21.81,18.43,23.94-11.99,47.02-25.62,69.24-40.88,12.46-7.18,25.93-14.84,40.49-15.92l2.6,1.97c19.24,34.93-30.19,68.35-56.01,82.5,23.73-4.24,59.65-.3,55.9,31.89-2.97,25.5-36.27,48.82-57.89,58.61-30.74-25.3-65.22-46.77-103-60-20.08-7.76-43.24-13.14-64.66-16.43-2.77-.6-2.92-1.34-.34-2.57.05-2.54.24-5.11,1.18-7.49,12.42-31.28,37.69-67.21,58.74-93.65,23-28.9,52.53-60.22,87.25-73.1l2.82,2.25.02-.02Z"/>
  <path class="st9" d="M949,476c-1.47-2.83-1.19-1.92-3-.5-10.89,8.5-18.86,16.84-31.08,24.92-31.43,20.78-78.06,43.97-113.67,56.33-2.78.96-7.8,4.1-9.24.25l-2.19-2.58c-1.86-19.38-6.06-38.61-11.84-57.19l1.03-3.24c35.65-47.73,85.43-95.59,140.64-119.86,18.27-8.03,60.61-23.55,59.4,10.4-1,28.01-18.72,65.78-30.04,91.46h-.01Z"/>
  <path class="st11" d="M541,840c-3.29.58-6.75,1.52-10,2-1.01.67-2.04,1.3-3.13,1.8s-2.14.96-3.24,1.12c-17.08,2.52-37.63,4.97-54.68,4.21-.72-.03-1.41-.68-2.1-1.49-5.67-.05-11.29-.26-16.85-.63-3.08-.73-4.86-.19-5.34,1.63-16.08-.99-32.41-2.39-48.86-4.9-.84-.13-1.64-.56-2.45-1.02s-1.6-1.07-2.34-1.71c-15.1-2.4-25.65-5.61-40-10,37.1-28.38,63.62-67,83.8-108.74.61-1.26,2.1-2.05,2.2-2.26l1.61.89c21.39,41.76,69.18,76.67,114.39,48.11.91-2.12,2.91-4.12,6-6l-.05-3.05c9.06-10.66,11.25-24.77,3.62-36.88l.42-3.07c-4.53-2.88-5.23-4.87-2.1-5.96,17.34-.9,32.81-10.41,43.04-24.19l3.05-.85c-9.06,38.89-25.38,77.04-44.48,112.02-7.2,13.19-16.2,25.43-22.52,38.98h.01Z"/>
  <path class="st14" d="M136,516c53.16,26.61,58.03,109.7,0,134-37.81,15.83-78.02-13.49-53-50l2.25-1c20.4,2.61,43.42-1.14,61.66-10.26-13.94.38-27.95.37-41.88.3-2.27-.01-5.67-.24-7.03-2.04-4.8-3.57-9.73-4.92-14.52-8.98-15.8-13.37-19.87-37.98-6.45-54.5s41-16.52,58.98-7.52h0Z"/>
  <path class="st2" d="M779,494c5.95,17.46,11.87,44.68,13,63,.91,14.87-.12,29.38-2,44l-1.65,3.24c-19.7,11.62-39.46,23.15-59.25,34.6-1.58.34-2.79.12-3.25-1.44,1.88-9.08,2.93-18.21,3.16-27.39,8.17-68.03,1.63-140.62-21.25-205.25-2.94-8.32-7.56-21.32-11.75-28.75,26.76,22.15,50.08,51.28,66.52,81.98,5.52,10.31,12.76,25.1,16.48,36.02h0Z"/>
  <path class="st4" d="M678,124c-2.53-1.6-6.88,1-9.36,2.14-35.8,16.46-72.43,59.23-95.03,90.97-17.6,24.71-33.39,51.07-45.61,78.89l-.15,1.68c-16.97-1.88-33.92-3.11-50.85-3.68-.19.89-.52.85-1,0-3.31-2.8.85-12.85,4-16,21.05-55.11,32-74.21,66-107,3.62-.4,4.77-4.17,6.97-6.53,23.66-25.33,78.01-68.26,114.35-50.3,5.43,2.68,7.45,5.21,10.67,9.83h.01Z"/>
  <path class="st7" d="M451,847c5.76.17,12.14.54,19.15,1.12,6.88,12.49,18.22,23.75,28.65,33.72,17.49,16.72,37.48,34.87,61.3,40.62l.9,2.54c-8.98,8.57-17.66,10.57-30,10-1.69,2.23-4.66,2.05-8.89-.55-19.91-11.71-37.17-27.29-51.78-46.75-15.91-19.64-25.26-9.94-18.13,10.83,8.45,24.6,30.16,53.83,53.39,66.04,4.48.66,11.84,2.62,6.41,7.43-32.19,14.32-63.61-21.26-79.81-44.69-14.94-21.6-26.31-46.47-34.65-71.35-1.56-4.67-2.23-11.5-5.54-14.96,10.11,1.61,20.38,2.41,30.5,4l28.5,2h0Z"/>
  <path class="st10" d="M790,601c-1.84,14.32-4.76,32.28-9,46-12.32,39.91-44.58,84.28-74.99,112.51-11.17,10.37-24.76,21.22-38.01,28.49,5.97-7.64,13.37-23.48,17.86-32.64,22.35-45.66,37.06-94.77,43.14-145.36,2.38,7.79-1.43,17.47-2.02,25.5-.11,1.56-.16,1.72,1.49,1.47l61.53-35.98h0Z"/>
  <path class="st19" d="M531,842c26.72,13.94,57.92,56.36,30,83-4.23-1.96-8.96-2.47-13.26-4.24-23.34-9.57-60.77-45.43-76.15-65.85-1.18-1.56-3.42-6.54-3.75-6.75-2.09-1.31-18.01.65-21.84-.17-.06-1.81,3.73-.96,4.99-.99,9.79-.26,19.7.43,29.49-.01,16.66-.76,34.03-2.56,50.51-4.99h.01Z"/>
  <path class="st5" d="M754,202c-8.84-.77-20.2,4.36-28.36,8.14-23.91,11.07-73.96,51.12-96.3,51.78-11.43.34-16.36-8.52-13.91-18.99,1.87-8.02,19.8-25.22,26.57-29.93,20.78-14.47,53.46-31.46,79.38-28.88,11.93,1.19,26.6,6.95,32.62,17.88h0Z"/>
  <path class="st19" d="M512,972c1.42-5.8-3.99-4.02-7.69-5.81-21.47-10.37-41.61-38.54-51.17-59.83-3.37-7.52-7.93-20.35-3.36-28.08,5.22-8.82,14.9.83,19.24,5.2,10.68,10.76,19.81,23.25,31.5,33.5,7.11,6.23,21.61,17.62,30.47,18.03,1.17,14.39-5.12,30.83-19,37h.01Z"/>
  <path class="st23" d="M98,587c3.95-1.07,4.16.08,7.46.04,14.84-.15,29.7.01,44.53-.04.33,1.55-.47,2.1-1.48,3.01-2.35,2.12-13.45,5.98-17,7-11.57,3.34-32.38,5.99-44.2,4.62-1.79-.21-2.84-.7-4.32-1.63,3.85-5.61,7.88-11.08,15-13h.01Z"/>
  <path class="st16" d="M455,293c8.66.5,16.17,1.23,21,1,.33.01,1,0,1,0,0,0,31.08,1.49,46.34,3.71,16.18,2.35,33.25,5.23,48.66,11.29,21.08,37.07,34.28,78.03,42.69,119.81,13.06,64.91,15.17,141.92,5.02,207.4-1.87,12.03-4.18,24.18-7.71,35.79-2.82-1.09-3.64-7.41-1-9l-2.46-2.45c-15.3-56.82-89.41-46.24-130.81-26.01l-3.73-.53c-4.02,2.94-8.02,4.61-12,5,21.58-106.73,2.98-235.81-69.49-320.01l-16.51-15.99c25.7-5.9,52.57-9.75,79-10h0Z"/>
  <path class="st1" d="M325,458c18.77,9.57,28.14,36.35,26.99,56.49-2.3,40.26-40.51,71.87-78.99,49.51-30.24-20.05-36.58-62.23-16-92,3.84-6.49,10.2-12.3,17-16,16.6-6.87,35.06-8.49,51,2Z"/>
  <path class="st21" d="M452,682c2.63.14,2.5,1.13,0,2,1.49,5.43-.62,12.44-5,16l1.28,1.67c-8.77,15.92-6.83,21.57,4.44,35.15,25.71,30.97,58.83,54.05,98.34,30.29,2.48.16,3.46.79,2.94,1.89-15.21,11.77-35.69,13.43-53.76,8.26-27.89-7.99-48.31-33.09-62.24-57.26,5.58-11.86,9.14-26.41,13-39,.86-1.22,1.19-.89,1,1Z"/>
  <path class="st22" d="M273,564c-25.21-14.65-33.33-45.37-26.15-72.65,1.62-6.16,5.49-15.09,10.15-19.35-14.61,24.68-15.96,55.89,2.49,79.01l13.51,12.99Z"/>
  <path class="st15" d="M474,634l.41,2.14-9.31,6.06c-1.87,6.57-3.4,13.23-4.58,19.99l-2.52,1.81c1.79,5.35-1.61,14.44-6,18l-1-1c4.36-14.22,8.04-27.36,11-42,4.02-1.49,8.1-3.24,12-5h0Z"/>
  <path class="st6" d="M325,458c-9.37-4.77-20.78-7.89-31.38-6.88l-19.62,4.88c15.1-8.21,37.12-9.17,51,2Z"/>
  <path class="st25" d="M612,672c-.19,5.01-2.81,11.89-4,17-10.51,15.46-28.04,26.66-47,27.01.79,1.48,2.05,2.57,3,3.99-1.33,1.62-3.28,1.26-5.86-1.06-37.1,2.18-73.45-15.38-105.02-32.96l-1.12-1.98c.17-.54-.17-1.45,0-2,1.81-5.92,4.36-12.02,6-18l4.71-.85c33.53,2.74,67.04,5.14,100.73,5.9,13.4.3,31.82-2.69,44.56-6.8l3,.75c.43,2.86,1.11,6.18,1,9h0Z"/>
  <path class="st8" d="M528,296c.08.06-.42,1.69.67,2,4.01,1.12,10.95,1.3,15.54,2.3,15.62,3.39,31.89,7.9,47.03,12.98.67.22,4.27.76,1.76,1.73-6.72-2.35-14.12-4.06-21-6-31.53-8.91-62.17-13.69-95-15-.34-3.54.84-1.15,2.57-1.08,15.44.63,29.13,3.14,43.99,4.13,1.82.12,4.26-1.19,4.44-1.05h0Z"/>
  <path class="st12" d="M564,720c10.07,15.06,7.47,29.95-4,43-3.62,4.39-7.62,5.6-11.99,3.65-33.28-17.4-65.61-36.84-95.42-59.76-1.13-.87-2.07-2.01-3.01-3.17s-1.78-2.43-2.57-3.72c1.75-5.21,3.36-10.74,5-16,2.07-.27,3.28.71,4.92,1.57,31.74,16.67,64.19,33.82,101.56,31.45l5.52,2.98h-.01Z"/>
  <path class="st20" d="M560,763c-2.17,2.47-3.28,3.89-6,6-1.51-1.62-2.46.03-3.7.77-38.7,23.46-78.99-2.39-101.53-35.05-1.91-2.76-7.09-10.33-8.01-13-2.28-6.59,4.15-15.5,6.24-21.73,32.66,25.94,68.61,47.74,105.74,66.86,3.12.78,4-3.88,7.26-3.86h0Z"/>
  <path class="st12" d="M611,663c-13.96,7.39-31.96,5.71-47.46,8.04-35.33-.08-70.49-3.38-105.54-7.04,2.07-7.53,2.58-15.62,5.55-22.95l10.45-7.05c32.92-14.84,74.34-26.6,108.69-9.19,16,8.11,25.6,20.33,28.31,38.19h0Z"/>
  <path class="st3" d="M312.73,469.23c23.79-4.95,24.09,32.73,1,28.53-14.96-2.72-15.36-25.55-1-28.53Z"/>
  <path class="st24" d="M314.77,470.2c16.43-2.25,20.32,22.46,6.52,25.59-21.33,4.83-22.6-23.39-6.52-25.59Z"/>
</svg>