<?xml version="1.0" encoding="UTF-8"?>
<svg id="Layer_1" xmlns="http://www.w3.org/2000/svg" version="1.1" viewBox="0 0 1024 1024">
  <!-- Generator: Adobe Illustrator 29.5.1, SVG Export Plug-In . SVG Version: 2.1.0 Build 141)  -->
  <defs>
    <style>
      .st0 {
        fill: #33b2bf;
      }

      .st1 {
        fill: #30160f;
      }

      .st2 {
        fill: #f8e6bc;
      }

      .st3 {
        fill: #aa2114;
      }

      .st4 {
        fill: #f6d3a5;
      }

      .st5 {
        fill: #f9d8ad;
      }

      .st6 {
        fill: #a51209;
      }

      .st7 {
        fill: #f2b78c;
      }

      .st8 {
        fill: #ed7d1e;
      }

      .st9 {
        fill: #2a120c;
      }

      .st10 {
        fill: #bb4d36;
      }

      .st11 {
        fill: #fcf5d3;
      }

      .st12 {
        fill: #6d4e3b;
      }

      .st13 {
        fill: #ec7b1e;
      }

      .st14 {
        fill: #250903;
      }

      .st15 {
        fill: #ed7c1e;
      }

      .st16 {
        fill: #f9f3da;
      }

      .st17 {
        fill: #f9f2d8;
      }

      .st18 {
        fill: #4f2f1c;
      }

      .st19 {
        fill: #fdf8ec;
      }

      .st20 {
        fill: #4c2e1c;
      }

      .st21 {
        fill: #fad6a9;
      }

      .st22 {
        fill: #f7d7ac;
      }

      .st23 {
        fill: #fee4bc;
      }

      .st24 {
        fill: #a61d12;
      }

      .st25 {
        fill: #6c4e3b;
      }

      .st26 {
        fill: #fee9cb;
      }

      .st27 {
        fill: #ec7a1d;
      }

      .st28 {
        fill: #fee8c3;
      }

      .st29 {
        fill: #6c4d3b;
      }

      .st30 {
        fill: #180a06;
      }

      .st31 {
        fill: #fefefe;
      }

      .st32 {
        fill: #3a1d13;
      }

      .st33 {
        fill: #ec7a1e;
      }

      .st34 {
        fill: #fcf5d4;
      }

      .st35 {
        fill: #200e08;
      }

      .st36 {
        fill: #190b06;
      }

      .st37 {
        fill: #4e2f1c;
      }

      .st38 {
        fill: #fc9912;
      }

      .st39 {
        fill: #fcd0a5;
      }
    </style>
  </defs>
  <path class="st28" d="M272,237c2.81.41,4.75.9,2.69,3.9-26.04,31.61-32.56,78.29-12.46,114.48,11.74,21.14,29.43,31.76,51.77,39.62l3.75-.59c14.6,5.94,30.41,6.24,45.73,3.24l3.52,1.34,6.81-3.75c64.9-17.64,76.69-97.63,39.61-146.27-1.86-2.9-4.49-7.24-.42-8.98l1.05-2.01c4.32-.95,8.34-1.79,12.72-2.32,3.7-.45,13.67-1.63,14.23,2.32,2.28,1.33,8.9,12.36,10.18,15.32,4.76,11.02,5.88,23.21,3.55,34.9-.58,2.94-4.7,12.45-4.57,13.13s7.55,8.46,9.04,10.95c10.8,18.08,8.46,39.63-3.91,56.19,8.29,13.4,10.91,29.89,2.88,44.17-2.7,4.81-6.42,7.36-9.2,11.83,14.67,15.74,16.59,34.51,8.02,53.99l4,.99c-10.48,37-8,76.11,4.99,112.04.09.25,1.97,6.92,3.02,4.48l3.23,2.27c13.77,28.2,36.58,52.11,64.55,66.46l2.22,3.27c36.26,17.65,84.86,16.47,120-3l1.98-3.35c19.67-11.39,36.2-27.86,48.56-46.86l3.46-1.78c22.92-34.81,26.95-84.72,18-126-2.49,1.76-3.51-.14-1-2,10.32,3.15,19.34,7.37,29,12,2.48-.22,2.47.05,1,2,22.36,12.3,34.34,38.74,42.95,62.44l-.95,3.56c8.24,26.39,14.35,65.05-9.52,85.03-.92.77-2.4.89-2.48,1-.34.46,4.55,8.5,5.19,10.29,7.15,20.17-6.11,32.34-19.96,44.31,3.87,16.57,6.18,34.81,4.76,51.86-.39,4.7-3.23,11.98-2.95,15.9.39,5.41,4.87,15.34,5.85,22.23,2.1,14.88,1.43,30.2-4.71,44.06-2.5,5.66-12.6,16.95-13.14,19.86-2.53,13.89-2.28,31.5-4.05,45.95-1.29,10.57-3.05,21.05-4.99,31.51l-.84.83c-4.32-1.36-9.04-1.92-14.18-1.7l.02-1.13h9.99s0-1,0-1h-47c8.39-24.35,8.95-48.83,7.73-74.37l-13.55-15.31-11.18-23.32-2.02-1.24c.12-4.69-.56-9.75-4.16-13.11-17.22-11.67-26.31-32.21-30.56-52.29-13.13,2.08-26.8-2.69-35.85-12.41-4.06,6.14-9.73,10.07-16.47,13.15-5.22,2.38-15.53,6.59-19.94,2.9-14.3.6-28.42-6.33-38.5-15.96-11.97,14.43-26.77,21.12-45.49,14.96-.22,16.43-1.39,32.97-5.02,49l-1.98-1.01c3.14,8.93-7.87,15.9-10.78,21.73s-3.62,14.27-7.04,20.96c-3.08,6.02-8.3,9.57-9.74,16.26-4.9,22.94-4.99,49.84-9.44,74.06-.21.22-.42.38-.63.38-1.59-.05-11.23-.45-11.57-.93-.21-.29-.06-.83.2-1.45h9.99s0-1,0-1h-49c2.98-8.79,5.89-18.25,6.98-27.52,1.06-9.05,1.83-37.04-1.59-44.38-1.3-2.8-3.91-4.47-5.23-6.77-10-17.45-9.2-35.49-17.16-53.34l-2.24-1.39c-5.25-16.54-8.31-33-9.68-50.54-23.79,8.97-43.38-13.58-47.9-35.08-9.75,6.15-21.79,6.87-32.64,2.74-4.83-1.84-10.34-4.29-11.54-9.74-5.67-5.65-10.27-15.53-10.99-23.51-.22-2.4.79-10.09.52-10.55-.66-1.13-6.31-2.67-8.22-3.76-24.58-13.98-29.89-31.75-17.45-57.59-24.68-16.39-25.5-43.66-7.94-65.96-13.04-11.99-19.35-29.56-12.42-46.62,2.9-7.14,8.53-11.97,12.45-18.41-22.26-17.4-17.43-45.11-.1-64.28-15.26-17.85-16.95-43.33.99-59.97-1.81-4.31-4.75-7.57-6.7-12-3.69-8.35-4.62-16.86-4.18-25.81.54-11.08,12.35-23.68,22.02-28.04-9.01-16.51-8.14-33.81,2.02-49.51,3.24-2.32,7.17-6.83,8.29-10.44,2.99-3.34,15.92-.48,15.71,4.44Z"/>
  <path class="st0" d="M691,477c.66.55,1.28,1.12,1.8,1.77,3.79,4.8,5.02,28.71,5.07,36.19.4,55.77-31.06,112.37-90.16,119.49-62.62,7.54-106.19-45.5-112.97-103.91-1.24-10.7-1.86-47.02,3.49-54.59.5-.71,1.12-1.34,1.76-1.95,66.05-7.97,125.29-8.2,191,3Z"/>
  <path class="st38" d="M500,474c-8.83,41.86-4.73,82.88,20.18,118.32,38.59,54.88,115.87,54.22,153.64-.99,22.75-33.25,26.8-75.76,17.17-114.33,13.24,2.26,26.08,4.06,39,8-.11,1,.57,1.39,1,2,8.63,41.79,5.56,89.52-18,126-12.33,20.5-32.72,40.86-54,52-35.67,19.51-83.16,20.65-120,3-29.57-13.52-57.01-42.31-70-72-15.72-35.93-16.2-78.67-7.06-116.36,12.44-3.01,25.35-4.1,38.06-5.64Z"/>
  <path class="st26" d="M301,150c6.05-1.04,16.64-.26,22.42,2.06,14.87-21.33,42.53-19.91,59.09-1.07,1.44,1.64,3.23,5.8,3.51,6.01.23.17,3.31-1.79,5.45-2.02,2.88-.31,7.78.14,10.52,1.02,1.07.47,1.86.16,2.5-1.09.79-.07,13.72,6.82,11.5,9.09.95-.29,1.28.04,1,1,.75-.43,1.56-.66,2.42-.53,1.56.24,7.96,9.42,8.69,11.72,2.5-1.14,4.46-1.2,5.89-.19,4.35,2.2-.71,4.64-3.78,5.46l1.02,5.99c2.79-.82,5.04-.63,6.76.55,1.27,4.46,5.88,6.36,8.21,10.29,6.87,11.6,4.97,30.54-5.21,39.71-2.24-1.3-15.1-.33-18.45.05-2.94.34-4.29,2.04-9.55,1.95-5.54,5.51-13.27-3.51-16.53-8.8-12.86,16.49-37.44,20.85-50.28,1.39-12.06,17.74-37.25,15.13-49.57-.97-3.04,3.83-6.22,5.16-10.84,6.3s-10.88,2.03-13.79-.92c-2.68-2.01-10.14-4.79-13.29-3.85-.9.27-6.13,6.77-7.71,8.35-.47.46-2.57,3.5-3,1.5,1.32-2.03,7.83-9.86,7.82-10.51s-3.43-3.27-4.26-4.55c-10.31-16-3.02-34.38,13.44-41.94,1.79-1.4,4.27-1.71,7.44-.91.12-4.14,1.31-6.84,3.56-8.09l-1.47-2.42c1.53-6.36,4.2-12.1,9.1-16.45l-5.16-13.25,1.53-1.88c-1.93-4.45-2.26-8.45-1-12-.98-5.96-.79-12.03,0-18l-1.01-.86c.18-4.79.18-9.51.01-14.14.81-3.11,2.8-3.75,4.03-.21-.91,5.33.21,57.29,6.2,57.02l10.76-6.29,2.01,1.48Z"/>
  <path class="st5" d="M278,709c8.48,8.46,20.47,11.61,32.26,9.76,4.94-.77,9.21-4.02,13.74-5.76,2.35,21.82,24.29,47.17,48,35,1.3,9.67,1.65,19.58,3.3,29.21,1.43,8.35,5.77,18.41,6.71,25.79,1.42,11.09-2.44,32.76-7.82,42.68-2.8,5.18-7.51,8.7-10.19,12.81-3.51,5.38-3.99,29.89-5,38-1.4,11.22-3,22.39-4.99,33.51-1.52,1.11-5.79.81-6-1l5.99-.99c-6.36,1.06-13.62-1.07-19.48-1.08-3.32,0-6.08,1.09-8.97,1.11-7.18.05-14.37-.11-21.54-.05,7.01-15.2,9.51-34.66,9.05-51.54-.09-3.45-.52-12.01-1.07-14.93-.43-2.3-9.53-10.53-11.8-14.2-7.4-11.93-10.73-37.57-13.01-51.99-4.51-28.52-7.45-57.53-9.17-86.33Z"/>
  <path class="st4" d="M578,758c10.47-.44,23.17-5.06,31.04-12.46,1.99-1.87,3.06-4.87,5.46-6.52,8.87,10.79,23.85,16.03,37.49,12.98,2.71,15.78,9.51,33.11,20.49,45.02,6.6,7.16,12.68,7.07,14.26,17.76.32,2.2.2,4.09.26,6.23.3,11.3-2.37,23.11-9.17,32.33-1.95,2.64-5.36,4.9-6.83,7.17-3.94,6.07-5.65,46.29-7.12,56.88-.25,1.8-1.34,10.06-2.01,10.49-11.52.84-22.87-1.31-34.4-.86-1.92.08-4.01-1.03-3.45,2h-2l-11.02-1.51,3.02-10.49,1.98,1.01c-1.11-7.47,2.06-15.8,2.88-23.63.77-7.29,2.62-30.92.92-36.67-.38-1.28-5.3-5.85-6.82-8.18-7.99-12.25-8.61-25.35-13.8-38.2-2.24-5.56-5.67-9.01-8.06-13.94-6.02-12.46-10.54-25.75-13.12-39.38Z"/>
  <path class="st23" d="M759,497c-1.35-9.76,5.55-19.05,11.47-26.03,1.75-2.06,4.56-3,5.76-5.24,3.48-6.49,3.4-20.06,7.58-28.42,12.46-24.89,47.84-12.64,44.07,19.07-.38,3.21-3.44,9.72-2.97,11.97.09.44,6.13,3.25,7.57,4.65,14.56,13.99,2.33,40.69-8.52,53.46-3.82,4.5-8.77,8.94-14.97,9.53l-1.37.26c-15.49-12.84-31.36-25.26-47.63-37.26-.47-.73-.83-.75-1-2Z"/>
  <path class="st21" d="M438,188c-2.88,1.06-5.94,1.7-8.99,2,1.05-1.97-1.29-9.54-.99-9.94.36-.48,7.48-1.48,5.98-4.06.11-2.37,1.82-4.51,5.14-6.43,2.2-3.14,4.49-4.66,6.86-4.57,11.47-19.9,10.89-41.99,0-62-3.09.41-6.49-4.15-6-7-8-7.68-15.51.93-14.93,10.09,2.32,20.29-.71,39.26-9.07,56.91.87.28.86.62,0,1-2.23-1.69-11.7-7.26-14-8,2.62.56,2.03-1.31,2.47-2.98,6.03-22.65-3.15-61.13,10.33-81.72,7.89-12.05,22.27-10.51,32.21-1.81,30.58,26.75,34.89,102.42-9.01,118.51Z"/>
  <path class="st21" d="M301,150c-3.5.6-11.06,6.65-12.66,6.9-3.23.5-6.38-13.13-6.89-15.85-2.81-14.95-.53-29.76-1.46-44.54l-1.99,1.49c-.73-.61-.73-1.61,0-3l-2.29-.42c-3.69-8.75-12,1.65-15.22,6.22l-2.5.2c-11.35,15.52-13.81,45.74,0,62,3.26,1.09,6.34,3.3,9.24,6.65,4.07,1.95,6.99,4.4,8.76,7.35-.74,3.26-1.23,6.63-1,10.01-3.53.25-6.61-.01-10-1.01-10.98-3.22-22.3-18.99-26.04-29.46-9.69-27.14-1.18-67.94,21.52-86.56,9.36-7.68,26.17-11.91,33.07.97,7.21,13.47,3.62,45.56,4.41,61.59.25,5.19.73,13.09,3.04,17.46Z"/>
  <path class="st12" d="M756,940c-1.57,7.84-3.36,20.64-10.65,24.85-7.05,4.07-39.89,4.61-47.08,1.38-10.84-4.87,3.03-30.15,4.73-30.23,16.33.1,32.87.26,49.64.47,1.96.58,2.99,1.48,3.36,3.53Z"/>
  <path class="st25" d="M612,929l48.47,1.33c-.46,5.05-.95,10.28-1.47,15.67-3.13,11.81-7.4,14.22-19.45,15.05-6.3.43-29.08.8-33.78-1.31-11.29-5.07.68-23.68,4.47-30.52.54-.46,1.21-.14,1.76-.21Z"/>
  <path class="st12" d="M450,939c-3.1,16.13-1.77,27.09-21.51,28.99-6.55.63-31.96.92-36.49-2.49-6.29-4.74,1.46-24.01,6-27.5,16.92-2.11,35.54-1.43,52,1Z"/>
  <path class="st29" d="M354,931c-3.32,18.07-1.96,28.44-23.46,30.04-6.44.48-29.92,1.01-34.09-2.99-6.12-5.87,2.26-20.96,6.55-26.05,3.32-2.14,7.48-2.8,12.5-2,8.48-.95,16.81-.95,25,0,4.22-.42,8.72-.09,13.5,1Z"/>
  <path class="st22" d="M809,536c7.01,12.93,4.31,20.41-7,29-6.03-19.33-17.68-42.76-32.01-57.49-2.53-2.6-8.12-5.57-9.99-8.51.33-1.85,2.84.54,3.51.99,15.15,9.99,28.13,21.64,42.99,32.01,1.32,1.05,1.74,2.61,2.49,4Z"/>
  <path class="st14" d="M438,936c.13,0,1.14.94,2.42,1.04,3.09.25,7.33-1.07,9.58.96-.06.32.06.68,0,1l-52-1c1.93-1.49,3.11-1.75,5.51-2,9.28-.97,24.93-.53,34.49,0Z"/>
  <path class="st1" d="M741,935c.13,0,1.13.96,2.42,1.04,4.05.25,9.33-1.09,12.58.96-.17.91.18,2.1,0,3l-3.49-3.01c-15.37-.1-30.75.13-46.12.08-2,0-3.21-1.07-3.39-1.07,12.69.1,25.28-1.58,38-1Z"/>
  <path class="st9" d="M622,929c.67-.01,1.33.01,2,0,5.25-.09,35.95-.6,38,1.01-1.58,5.17-1.62,10.78-3,15.99-2.9-2.47,2.54-13.5,1-15l-48-2c2.94-.39,6.86.05,10,0Z"/>
  <path class="st32" d="M348,929c1.17.12,3.81,1.99,6,1-.06.32.06.68,0,1-3.48-.19-7.05.28-10.54.04-1.29-.09-2.62-1.04-2.96-1.04h-25l-12.5,2c.54-.64-.5-2.47,2.48-3.01,13.63,1.04,29.14-1.36,42.52.01Z"/>
  <path class="st39" d="M413,240c-1.57,5.68,4.92,10.64,7.81,15.69,32.18,56.35,14.33,129.03-53.81,143.31l.56-3.12c32-26.63,3.34-111.96-41.46-95.06-30.62,11.55-47.31,74.1-13.37,91.35l1.28,2.83c-61.62-11.12-80.48-85.47-53.52-136.02,3.81-7.15,8.79-13.91,13.52-20.49.14-.35-1.41-1.05-1.99-1.49,5.75-.06,14.33-.22,19.35-3.15,1.76-1.03,4.51-5.13,6.04-4.81,11.78,17.74,39.33,19.41,49.1-1.04,5.53,16.12,26.28,19.62,39.44,10.43,2.25-1.57,9.5-10.66,10.54-10.43,5.91,6.98,6.24,11.81,16.52,11.99Z"/>
  <path class="st7" d="M367,399c-18.48,3.87-35.37,3.87-53-4-24.42-10.9-24.8-35.95-18.49-58.99,12.8-46.73,61.43-55,80.97-6.99,9.32,22.9,11.55,52.9-9.48,69.98Z"/>
  <path class="st19" d="M659,665c2.21.93-2.2,2.69-2.63,2.88-36.43,16.18-74.13,17.81-111.64,3.89l-5.73-3.77c35.78,16.36,85.13,15.26,120-3Z"/>
  <path class="st31" d="M713,613c22.86-38.02,25.07-83.08,18-126,6.32,8.92,5.19,52.12,3.87,64.37-2.43,22.51-8.69,40-19.35,59.65-.27.5-1.75,4.19-2.53,1.97Z"/>
  <path class="st15" d="M596.71,646.22c18.37-4.19,14.85,24.35-1.43,16-6.6-3.39-5.6-14.39,1.43-16Z"/>
  <path class="st33" d="M649.73,633.19c13.49-2.89,15.34,14.85,4.51,16.63-10.51,1.73-14.25-14.54-4.51-16.63Z"/>
  <path class="st33" d="M537.75,633.19c11.28-2.15,14.13,15.3,2.66,16.79s-13.2-14.78-2.66-16.79Z"/>
  <path class="st13" d="M492.72,593.21c15.07-3.39,15.12,18.95,0,15.58-7.29-1.63-7.8-13.82,0-15.58Z"/>
  <path class="st8" d="M474.75,539.19c8.35-1.61,14.64,10.1,7.17,14.22-13.19,7.28-20.03-11.75-7.17-14.22Z"/>
  <path class="st27" d="M709.73,538.2c11.43-2.48,12.6,12.95,5.33,15.36-10.45,3.47-15.42-13.17-5.33-15.36Z"/>
  <path class="st13" d="M688.7,593.21c10.98-3.28,15.69,10.54,7.04,14.02-12.57,5.07-15.16-11.6-7.04-14.02Z"/>
  <path class="st10" d="M278,95l-.52,2.82c1.41,4.12,1.25,7.02-.48,8.68.52.1.93.19.94.3.18,7.89.37,18.29.1,26.03,0,.23-.46.45-1.04.67,1.37,2.51,2.37,5.68,3,9.5.57,2.69,6,14.55,5.84,15.36-.18.94-3.9,4.07-5.04,5.95-2.45,4.04-3.77,8.13-4.8,12.7-7.06-3-13.53-7.71-18-14-13.47-16.75-11.83-44.8,0-62,4.02-6.66,15.53-19.45,20-6Z"/>
  <path class="st10" d="M440,96c2.11,1.37,4.57,4.84,6,7,10.7,19.78,11.55,42.17,0,62-2.82,3.92-7.88,8.54-12,11-1.1.66-6.35,3.49-6.99,3-1.53-5.15-5.95-10.55-10.01-14,1.89-4.2,3.82-8.58,5.78-13.14,3.67-17.3,5.08-34.92,4.22-52.86-.1-6.29,9.55-7.89,13-3Z"/>
  <path class="st3" d="M417,165c-.36-.3-.65-.74-1-1v-1c6.5-10.87,9-23.79,9.54-36.28-1.32-10.05-.83-19.29,1.46-27.72l1.04,25.55c-1.94,13.84-2.08,28.89-11.04,40.45Z"/>
  <path class="st6" d="M278,98c1.01,5.68.85,9.32,1,15-.79,5.95-.98,12.05,0,18,.18,3.69.25,8.45,1,12l-.99,1c.56-3-2.01-8.18-2.01-10.5v-27c0-.38,1.05-1.65,1.08-3,.07-2.85-2.5-6.49-.08-8.5.24.71-.16,2.09,0,3Z"/>
  <path class="st21" d="M279,131c-1.68-5.08-1.67-12.99,0-18,.16,5.97-.29,12.04,0,18Z"/>
  <path class="st11" d="M440,96c-4.94-3.22-10.52-2.81-13,3-2.66,6.21-.43,23.6-.96,31.54-.69,10.23-3.35,24.47-10.04,32.46,5.48-11.76,8.62-25.42,9.05-38.45.26-8.08-4.61-30.45,7.67-32.38,1.15-.18,8.6,1.29,7.29,3.83Z"/>
  <path class="st24" d="M446,165l5.71-15.79c2.68-10.05,2.98-17.87.63-28.05l-6.34-18.16c11.7,17.68,12.64,44.44,0,62Z"/>
  <path class="st34" d="M258,101c-10.81,17.92-12.39,44.55,0,62-1.59,1.23-3.73-3.41-4.18-4.32-8.95-18.29-7.31-37.83,1.65-55.71.25-.49,1.78-4.18,2.53-1.97Z"/>
  <path class="st18" d="M409,277c10.53,47.42-41.07,32.34-20-3,5.77-8.61,15.77-4.86,20,3Z"/>
  <path class="st30" d="M292,271c6.53,10.46,3.29,33.09-12.41,30.96-4.45-.6-9.22-5.26-10.63-9.41-.51-1.49-1.94-8.37-1.95-9.55-2.78-14.49,16.66-29.04,25-12Z"/>
  <path class="st36" d="M409,277c6.77,12.57-1.25,39.15-18,29-9.86-4.05-11.26-23.81-4-31,.67-.19,1.33-.74,2-1-16.07,23.97,14.93,50.81,21.03,16.54l-1.03-13.54Z"/>
  <path class="st17" d="M292,271c-9.58-15.34-25.19-3.25-25,12l-.99,5.99c-3.65-15.06,10.18-35.94,25.02-21.53.79.76,3.27,2.76.97,3.53Z"/>
  <path class="st16" d="M387,275c-5.57,8.72-5.51,25.24,4,31-.78,2.3-2.78-.15-3.53-.98-6.34-7.05-8.07-22.65-1.9-30.11.93-1.13,1.36.1,1.43.09Z"/>
  <path class="st20" d="M329,323c1.8.49,2.92,1.9,5.51,2.07,5.94.39,12.51-5.27,18-1.08s.4,10.58-3.51,14.01c-11.92,3.63-13.61,10.72-11,22,3.39,6.94,11.83,5.53,16.96,1.46,2.86-2.27,4.16-9.03,8.05-6.99,6.12,3.2-5.16,14.32-9,16.04-7.69,3.44-18.04,2.27-21.03-6.51-8.12,10.28-22.66,6.36-28.18-4.3-1.35-2.61-3.82-10.32.71-10.76,4-.39,4.16,5.42,6.05,8.01,1.09,1.49,4.34,3.36,4.45,4.06,4.31,3.56,11.92,1.28,13.96-4.94,3.28-9.98.37-15.25-8.64-20.27-9.82-9.85-6.41-20.75,7.67-12.79Z"/>
  <path class="st35" d="M329,323c-.07-.02-.72.91-1.32.74-2.17-.6-9.47-6.52-10.68-.24-2.55,13.19,14.58,13.54,14.93,23.08.06,1.53-.93,9.03-1.37,10.48-1.88,6.19-10.28,7.21-15.56,4.89.15-.4,1.01-.85,1-.94,11.56,4.39,15.35-5.91,14.05-15.55-.67-4.99-5.28-5.64-8.52-8.47-11.46-10.02-7.28-24.68,7.48-13.98Z"/>
  <path class="st2" d="M349,338c-3.32,2.91-8.99,4.32-10.25,7.25-2.17,5.08.67,10.04-.75,14.75-4.99-10.22-.44-20.3,11-22Z"/>
  <path class="st37" d="M277.71,266.21c22.01-5.04,20.67,39.34,1.27,34.34-13.56-3.5-12.85-31.69-1.27-34.34Z"/>
</svg>