<?xml version="1.0" encoding="UTF-8"?>
<svg id="Layer_1" xmlns="http://www.w3.org/2000/svg" version="1.1" viewBox="0 0 1024 1024">
  <!-- Generator: Adobe Illustrator 29.5.1, SVG Export Plug-In . SVG Version: 2.1.0 Build 141)  -->
  <defs>
    <style>
      .st0 {
        fill: #de4a36;
      }

      .st1 {
        fill: #d94531;
      }

      .st2 {
        fill: #343232;
      }

      .st3 {
        fill: #ef523a;
      }

      .st4 {
        fill: #e15340;
      }

      .st5 {
        fill: #f0533b;
      }

      .st6 {
        fill: #353232;
      }

      .st7 {
        fill: #e1503d;
      }

      .st8 {
        fill: #e2503c;
      }

      .st9 {
        fill: #e55846;
      }

      .st10 {
        fill: #e45644;
      }

      .st11 {
        fill: #de4b36;
      }

      .st12 {
        fill: #eb6352;
      }

      .st13 {
        fill: #f45a42;
      }

      .st14 {
        fill: #d94632;
      }

      .st15 {
        fill: #d94b38;
      }

      .st16 {
        fill: #da4c39;
      }

      .st17 {
        fill: #da4835;
      }

      .st18 {
        fill: #f35840;
      }

      .st19 {
        fill: #e25340;
      }
    </style>
  </defs>
  <path class="st18" d="M534,255c4.14-1.79,3,3.61,2.22,6.45.1,2.23,8.12,5.2,10.78,5.55-.64,3.19.36,2.41,1.95,3.52,58.36,40.97,92.46,124.43,103.05,193.48.7,1.18,1.37,2.39,1.89,3.64,3.41,8.17,6.45,45.85,4.4,54.45-.32,1.33-.78,2.62-1.29,3.9.14,18.38-.85,42.34-6,60l1.37,2.24c-3.67,9.64-7.95,19.18-12.78,28.32l-2.59.44c-1.79,2.78-11.61,12.49-15,15-.11.71-.26,1.4-.54,2.03-3.68,8.61-44.42,19.31-54.63,21.25-51.98,9.85-121.78,7.88-165.83-22.28l-14-17-2.44-1.07c-3.97-8.04-7.81-16.05-9.95-24.8-5.93-.88-4.46-3.01.39-4.14.21-1.14-3.2-12.91-3.68-15.82-2.48-14.95-3.34-29.02-3.32-44.18-.51-1.16-.98-2.32-1.31-3.53s-.64-2.36-.61-3.51c.36-16.19,1.68-32.29,3.93-48.33.16-1.14.65-2.24,1.16-3.36s1.16-2.21,1.84-3.27c9.43-60.8,38.34-141.44,85.99-182.51,2.86-2.47,16.3-10.8,16.82-11.68,1.21-2.05-1.55-7.16-.81-9.81,2.07-.02,3.37,1.75,3.9,5.31,2.27.05,10.12-2.1,8.13-6.18l1.98-1.13,1,5.01c14.57-3.91,28.45-3.94,42.99,0,.29-.28.69-6.65,1-8Z"/>
  <path class="st13" d="M835,385c-5.39,5.43-17.47,5.32-25.35,5.18-8.96-.16-17.93-1.5-26.5-4.12-7.48-2.29-19.06-6.05-22.15-13.07-1.72-1.28-10.54-10.61-12-13-19.12-23.73-7.44-58.39,2.98-83.72,8.23-14.95,15.64-30.25,22.23-45.9l2.79-2.39c9.58-35.23,1.03-70.86-14.82-102.68-6.98-14-34.44-47.15-4.23-51.87,78.09-12.21,149.57,91.75,157.93,160.17,6.97,57.02-20.82,134.11-80.88,151.38Z"/>
  <path class="st13" d="M247,230c3.5,3.88,6.16,8.7,7.97,14.46,11.68,22.08,23.32,44.13,26.82,69.1,2.76,19.68.77,40.87-14.79,54.44-1.67,1.36-3.22,2.77-5,4-4.05,7.28-15.74,11.6-23.86,14.27-7.56,2.48-15.46,3.92-23.41,4.12-8.12.21-19.95.13-25.73-5.39-48.24-13.98-79.25-70.85-82.04-118.46-4.35-74.2,46.72-161.64,117.52-187.56,18.52-6.78,67.43-15.38,51.69,19.69-5.29,11.8-13,22.75-18.35,34.65-13.51,30.01-20.89,64.44-10.82,96.68Z"/>
  <path class="st11" d="M591,830c26.02,12.96,62.32,30.45,75.53,57.97,22.66,47.21-48.55,83.44-86.44,54.44-3.34-2.55-5.06-5.75-7.65-8.35-.82-.82-.88-1.43-2.42-1.07-17.73,43.95-96.34,44.59-116.89,3.37-1-2-.91-6.29-3.2-3.74-.8.89-1.65,3.37-2.94,4.85-33.24,38.02-114.96-.05-90.34-49.35,13.59-27.22,49.25-45.28,75.37-58.13l3.07,1.06c34.19,40.2,118.73,40.36,152.86.02l3.07-1.07Z"/>
  <path class="st0" d="M373,464c-3.23,20.79-4.97,40.9-5,62-82.82-.54-162.22-58.5-179-141,26.2,7.59,50.97,2.24,73-13,16.59,48.26,58.98,87.15,111,92Z"/>
  <path class="st0" d="M835,385c-16.77,81-96.04,141.11-178,141-.15-20.65-1.87-41.61-5-62,51.56-4.35,92.45-43.66,109-91,19.83,14.69,50.29,18.82,74,12Z"/>
  <path class="st5" d="M396,671c-.47.06-.93.07-1.34-.06-1.99-.61-.39-26.78,3.48-28.75.51-.26,1.08-.41,1.67-.52,17.2,20.13,49.41,27.85,75.21,31.82,48.61,7.48,108.13,3.27,147.88-27.27,2.71-1.69,4.18-1.17,5.51,1.76.81,1.79,1.06,19.15.66,21.74l-2.06,1.28c-.64,9.21-4.54,20.55-10,28-1.98,9.34-14.41,15.91-22.86,19.88-40.72,19.14-119.19,20.69-160.12,1.47-8.85-4.16-21.25-10.52-25.02-19.34-1.94-.11-3.27-.77-4-2,1.6-3.23-2.46-7.33-3.76-10.74-1.62-4.22-4.72-13.13-5.24-17.26Z"/>
  <path class="st7" d="M267,368l5.41-7.09c13.72-25,8.59-51.68-.65-77.17-6.7-18.48-18.95-35.14-24.76-53.74,13.11-27.65,26.8-55.17,41.48-82.02,5.77-10.55,17.26-38.94,31.36-18.31,20.32,29.74,18.95,87.42,11.67,121.34-8.15,38.02-34.04,92.09-64.51,116.99Z"/>
  <path class="st8" d="M777,228c-4.75,17.48-17.36,34.98-24.47,52.03-10.14,24.32-18.28,55.89-3.53,79.97-48.09-50.1-72.36-128.57-57.69-197.19,2.03-9.5,10.33-38.18,21.26-39.78,11.29-1.65,13.63,10.03,18.6,17.29l45.83,87.67Z"/>
  <path class="st3" d="M613,728c2.62.71,3.18,3.73.79,4.81l-.79,9.19c-.99,15.32-8.27,31.21-21,40-.15,1.14-.4,2.39-1.27,3.22-2.77,2.63-11.41,5.85-15.41,7.3-36.03,13-89.21,11.99-125.63.62-4.66-1.46-13.66-4.28-17.24-7.04-.92-.71-1.21-1.98-1.45-3.1-14.4-8.43-22.59-38.3-21-54-4.34-4.49,2.69-12.56,8.01-6.95,24.69,20.88,61.71,25.12,93.53,24.99s70.4-4.78,95.34-26.58c5.27-4.3,10.83,4.59,6.12,7.54Z"/>
  <path class="st3" d="M591,830c-26.5,43.77-132.51,43.53-159,0-7.6-12.49-9.04-26.7-4-40,1.99-4.49,5.17-.64,2.57,2.64,38.73,23.2,97.23,24.47,140.32,11.63,7.22-2.15,24.02-7.42,20.63-16.92l2.48-.35c6.82,13.03,4.56,30.51-3,43Z"/>
  <path class="st17" d="M622,632c8.54,9.59,22.24,13.4,33,20,3.72,2.87,8.25,4.97,13.6,6.32,8.55,6.79,4.46,24.26-6.86,25.3l14.51,4.78c1.51,1.68,1,2.85-1.25,2.61-16.89-4.51-33.07-10.84-48-20,.23-3.32.3-22.78-1.01-24-3.65,1.15-6.43,4.74-9.67,6.82-51.63,33.3-145.77,31.34-199.7,4.05-6.98-3.53-13.3-7.89-17.12-14.86-1.41-.05-3.43,13.55-3.5,15.5-.07,2.13-.15,11.26,0,12.48-19.2,10.77-39.95,19.97-62,23-3.1.72-3.4-1.59-.27-2.97,6.54-.71,12.85-2.6,19.05-4.68-10.66,1.69-16.93-18.86-8.4-24.39-5.83,1.54-11.76,2.95-17.84,3.11-2.43.06-5.72-.15-5.54-3.06,28.85-2.01,56.03-13.46,80-29,1.02-.81,1.67-.96,2.92-.51,2.21.78,8.77,6.14,12.2,7.89,48.83,24.94,160.8,24.99,205.88-8.38Z"/>
  <path class="st10" d="M675,691c2.15-1.41-.92-1.13-2.01-1.48-8.4-2.63-16.63-5.81-24.98-8.54l7.3-.58c10.86,4.44,16.19-3.74,15.75-13.89s-14.21-9.25-19.06-14.5c.99-.06,2.01.05,3,0,3.38-.2,3.01,1.77,3.72,1.95,32.77,8.62,60.68,12.88,94.28,3.54,11.23-3.12,29.27-13.21,38.58-14.41,12.44-1.6,18.37,6.23,13.9,17.89-4.87,12.7-32.16,25.25-44.7,29.3-28.82,9.32-57.49,8.28-85.79.71Z"/>
  <path class="st19" d="M618,699c22.17,19.31,48.86,34.27,77.81,40.69,12.85,2.85,25.87,3.06,38.39,5.61,9.1,1.85,18.59,4.72,16.75,16.15-1.59,9.84-19.19,13.87-27.47,14.54-40.36,3.29-81.05-16.04-108.99-43.98l-1.5,10c.27-4.14.33-9.9,0-14l.9-2.03c8.79-4.48,8.3-11.37,2.7-18.49-1.89-3.19-1.36-6.11,1.4-8.47Z"/>
  <path class="st9" d="M720,624c-20.17,1.68-40.88,2.85-61.35-1.66-2.01-3.87,2.19-3.79,5.17-3.19,15.49,7.18,24.92-7.4,21.89-21.19l-10.11-3.58c-1.7-.55-1.91-1.9-.76-3.29l13.16-.08c.67.01,1.33,0,2,0,2.22.7,13.22,1.35,12.88.7-.09-.17,0-.42.12-.7,18.95-1.81,40.12-10.21,55.91-20.59,7.94-5.22,24.97-22.14,32.06-23.94,9.19-2.34,16.99,4.44,15.97,13.92-3.14,29.24-60.86,59.01-86.94,63.61Z"/>
  <path class="st10" d="M320,591c9.86.66,20.03.79,30.52.41l-1.02,2.84-12.98,4.01c-2,2.22-5.78,13.65-1.14,15.92-1.16,5.59,6.67,6.46,11.32,6.75,2.77-.61,15.24-2.83,12.21,2.38-13.87,1.83-27.93,2.63-41.91,2.69-32.27-2.25-86.43-26.6-99.02-58.48-4.32-10.94-.21-23.8,13.08-21.08,8.25,1.68,23.11,17.16,31.22,22.78,9.67,6.71,21.43,12.86,32.71,16.29,3.3,1,24.99,4.21,25.01,5.49Z"/>
  <path class="st10" d="M321,662c.28-.01,3.08,1.13,5.5,1.06,14.81-.41,31.24-8.46,45.49-12.05l-23.25,10.23c-.85.49-5.62,4.13-5.73,4.49-1.56,4.98.08,12.23,3.46,16.28,3.74,4.48,4.86,1.76,9.99,1.96,1.05.04,5.43.48,5.53,2.01-9.7,2.07-18.99,6.51-28.99,7.02-.17,1.14,1,.92,1,.99-.05.88-14.62,2.87-16.51,2.99-18.6,1.2-37.8-.81-55.5-6.48-13.87-4.44-55.56-22.58-44.41-42.43,7.23-12.86,30.38,2.05,40.17,5.66,23.31,8.61,38.78,9.29,63.25,8.25Z"/>
  <path class="st4" d="M409,701c-2.56,2.78-4.75,5.84-6.57,9.59-8.09,5.39-10.7,14.77,2.19,12.79,3.6.64,5.85,3.61,3.38,6.62-28.22,27.87-67.33,49.28-108.48,45.98-11.52-.92-30.41-4.79-27.28-20.26,2.41-11.9,26.74-11.27,36.12-12.87,37.36-6.38,67.66-19.2,96.64-43.86,2.88-.53,2.77.84,4,2Z"/>
  <path class="st14" d="M618,699c-3.49,5.9,5.29,13.17,4.99,17.42s-4.71,11.87-9.99,11.58c-.16-1.99-.27-7.16-3.33-6.89-1.04.09-13.52,10.26-16.98,12.08-40.06,20.96-126.73,21.91-165.61-1.77-3.25-1.98-12.42-10.86-14.96-9.28-1.04,2.38-1.85,4.19-2.12,6.86-.55.39-1.59.59-2,1-1.07-10.41-14.01,1.36-14.1-10.49-.05-6.62,4-6.5,6.96-10.15,2.48-3.06,2.7-8.77,8.14-8.36,22.56,21.27,48.91,27.01,79.51,29.99,34.95,3.4,105.81-1.03,128.49-31.99h1Z"/>
  <path class="st12" d="M475,260c-16.66-45.56-22.98-80.95-49.19-124.31-17.26-28.55-39.28-52.4-64.81-73.68,34.56,16.74,62.03,47.16,82.02,79.47,16.67,26.95,30.61,59.06,39.48,89.52,2.32,7.97,6.26,18.99,6.5,27,.26,8.93-1.61,5.66-8.25,9.05-.98.5-1.09,4.32-2.98.68-1-1.92-1.91-5.38-2.77-7.73Z"/>
  <path class="st12" d="M534,255c16.41-69.6,53.42-149.67,116.71-187.79,3.18-1.91,6.63-4.48,10.29-5.2-11.86,10.49-24.33,20.54-34.97,32.52-42.89,48.27-64.49,110.49-79.03,172.47-.43,4.38-11.21-2.29-12.1-3.44-2.18-2.86,1.9-6.08-.9-8.56Z"/>
  <path class="st1" d="M594,787c-1.81,2.02.09,4.24-.19,6.29-.46,3.39-8.93,7.4-12.14,8.88-37.38,17.2-100.27,14.89-138.19-.15-3.11-1.23-15.21-6.44-15.13-9.54.01-.51,4.08-5.04-.35-2.48.82-2.15.6-4.94,3-7,36.77,21.52,125.27,23.65,161-1,.21,1.86,1.16,3.4,2,5Z"/>
  <path class="st16" d="M375,586c-.31,1.64-3.32.06-3,1.99,1.06.17,3.28-.42,3.9.1.56.47,3.6,11.57,4.61,13.89,2.05,4.72,5.09,9.01,6.49,14.01-21.36,8.48-47.03,11.6-70,10l41-3.01c.19-1.7-3.44-1.09-4.54-1.04-2.43.1-4.88,1.03-6.87.97-1.08-.03-11.51-2.44-12.02-2.8-1.11-.78-.39-3.67-1.02-5.16-.72-1.7-2.81-3.55-3.1-4.88-.16-.71,3.91-11.62,4.56-13.58l14.99-4.5-30.99-.02c-.17-1.14,1-.92,1-.99,18.64.91,36.87-.87,55-5Z"/>
  <path class="st15" d="M688,591l-12.99,1.01,11.99,4.5c5.52,6.6-3.51,26.16-11.49,26.58-3.43.18-9.22-1.8-13.02-2.07-1.11-.08-3.72-.74-3.47.98,14.09,1.99,28.18,3.71,42.49,3,5.64-.28,13.22-3.24,18.51-.99-27.64,4.87-56.52,1.76-83-7,3.17-4.92,12.36-25.37,14-31,12.39,3.17,24.18,4.78,37,5Z"/>
  <path class="st15" d="M703,591l.52,1c-4.19-.61-8.09.43-12.14.89-2.64.3-3,.54-1.38-1.89,4.15,0,8.99.38,13,0Z"/>
  <path class="st6" d="M446.73,352.23c18.74-3.89,26.2,10.98,25.31,27.32-1.45,26.69-35.53,26.74-38.78,4.69-1.68-11.45-.61-29.09,13.47-32.01Z"/>
  <path class="st2" d="M565.73,352.23c9.85-2.01,22.09,2.78,24.04,13.51.75,4.09.76,17.37-.24,21.3-4.5,17.74-33.69,17.03-37.3-.75-.77-3.81-.7-17.57.25-21.3,1.37-5.38,7.81-11.63,13.25-12.75Z"/>
</svg>