<?xml version="1.0" encoding="UTF-8"?>
<svg id="Layer_1" xmlns="http://www.w3.org/2000/svg" version="1.1" viewBox="0 0 1024 1024">
  <!-- Generator: Adobe Illustrator 29.5.1, SVG Export Plug-In . SVG Version: 2.1.0 Build 141)  -->
  <defs>
    <style>
      .st0 {
        fill: #e61515;
      }

      .st1 {
        fill: #e41513;
      }

      .st2 {
        fill: #d70302;
      }

      .st3 {
        fill: #ea1213;
      }

      .st4 {
        fill: #e41516;
      }

      .st5 {
        fill: #4cbc73;
      }

      .st6 {
        fill: #e61514;
      }

      .st7 {
        fill: #74cbe5;
      }

      .st8 {
        fill: #0eb07f;
      }

      .st9 {
        fill: #e41716;
      }

      .st10 {
        fill: #e41817;
      }

      .st11 {
        fill: #e41514;
      }

      .st12 {
        fill: #f89438;
      }

      .st13 {
        fill: #76cae4;
      }

      .st14 {
        fill: #042e51;
      }

      .st15 {
        fill: #ced7da;
      }

      .st16 {
        fill: #e31817;
      }

      .st17 {
        fill: #336075;
      }

      .st18 {
        fill: #e91111;
      }

      .st19 {
        fill: #84d3eb;
      }

      .st20 {
        fill: #85d3eb;
      }

      .st21 {
        fill: #e51616;
      }

      .st22 {
        fill: #0ec07f;
      }

      .st23 {
        fill: #e61210;
      }

      .st24 {
        fill: #e41715;
      }

      .st25 {
        fill: #e91516;
      }

      .st26 {
        fill: #fdc857;
      }

      .st27 {
        fill: #e51a18;
      }

      .st28 {
        fill: #d54541;
      }

      .st29 {
        fill: #d84843;
      }

      .st30 {
        fill: #e21c1b;
      }

      .st31 {
        fill: #e11a19;
      }

      .st32 {
        fill: #e51718;
      }
    </style>
  </defs>
  <path class="st28" d="M183,522c6.84-.54,13.68-1.04,20.53-1.39s13.69-.68,20.54-.69c55.24-.1,110.51.09,165.69.36,16.19,3.93,29.04,13.87,38.53,29.83,11.85,16.39,30.57,17.98,49.66,17.48l28.98-.59,2.07,2c1-.74,2.04-.73,3,0h406c18.93,2.24,9.49,29.01,6.51,41.01-17.23,69.38-55.41,130.61-93.51,189.99l-2.52,1.72c-13.34-4.14-25.89-10.76-37.64-19.87-18.03-8.78-35.41-3.81-51.04,6.89l-2.8-.75c-16.31,12.6-37.25,15.67-55,4-2.22,2.58-9.14-1.97-8-5-12.85-11.77-39.68-17.83-55-6-.05,2.72-12.51,12.29-14.04,12.53-1.05.16-2.03,0-2.96-.53-18.36,8.95-37.78,8.97-54-5-17.59-11.55-40.21-20.43-58-7l-.75,2.77-13.67,10.13c-2.69,2.59-5.21,3.29-7.58,2.11-16.89,5.86-34.46,4.44-49-7-1.9,1.92-2.35,1.68-2-1-9.16-9.17-29.16-16.94-44-12l-1.33,2.36c-9.55,4.43-18.6,10.1-27.16,17-1.09.93-2.31.46-3.52-.35-16.6,6.54-32.17,5.36-48-3l-2.89.55c-12.48-8.87-24.35-17.08-40.56-14.73l-2.56-1.82.6-1.22c4.59-.1,9.05-.36,13.4-.78-4.19.77-10.84.97-14.5,0l-.55,1.06c-6.65,1.39-15.09,3.4-19.95,7.94-1.8,4.77-10.8,11.74-16,11-24.27-47.82-47.46-96.25-69.18-145.32-11.7-26.43-24.62-54.4-34.57-81.43-5.95-16.17-17.54-38.24,6.49-45.01l70.26-.24Z"/>
  <path class="st15" d="M509,568h42.99c-.39-2.31-6.34-.33-7-1-.89-.91,1.11-9.33,1.1-11.5-.51-72.84-1.89-146.02-1.1-219.01,1.63-14.98,18.25-31.25,33.51-31.58,3.04-.07,5.79,1.1,8.95,1.13,79.91.8,160.19.88,240.1,0,9.59-.11,13.2-2.48,23.44,1.47,9.66,3.73,24.01,18.24,24.01,28.99v231.5l43,1c-1.9-.22-4.05.16-6,0h-400c-1,0-2,0-3,0-.87-.28-.86-.62,0-1Z"/>
  <path class="st13" d="M547,788c17.18,12.83,35.72,14.77,55,5,6.02-3.44,10.99-8.77,17-12,16.49-11.64,40.4-6.27,55,6,2.89,1.69,4.43,3.32,8,5,17.7,11.65,38.71,8.59,55-4,16.58-8.99,21.16-14.37,42.39-11.89,19.32,2.25,30.44,22.09,51.61,23.89,10.06.86,19,.08,28.04-4.46,7.22-3.63,12.96-11.43,21.99-9.07,18.02,4.71-.7,28.52-7.06,35.99-14.7,17.3-37.31,32.61-60.49,34.51l-603.02.05c-26.77-3.44-50.32-19.71-65.28-41.72-4.55-6.69-13.38-18.58-6.25-25.87,9.57-9.77,22.63,4.82,32.8,8.32,15.3,5.26,24.81,4,38.26-3.76,6.17-3.56,10.41-7.63,16-11,5.05-4.04,14.82-8.4,21-7,24.23-1.99,27.98,4.83,46,16,15.7,8.23,31.17,9.76,48,3,10.64-5.33,20.17-16.77,32-19,.77-1.11,3.27-1.31,4,0,3.91-1.02,8.09-.99,12,0,9.73-1.32,20.69,5.77,28,12,.67.36,1.36.66,2,1,14.47,11.28,31.91,13.03,49,7,8.1-3.68,14.36-10.74,22-15,18.11-13.06,40.44-5.12,57,7Z"/>
  <path class="st5" d="M261,339c70.32-1.04,140.66-1.04,211,0,5.16-.09,10.68,6.56,10.91,11.59l.09,96.41c-.56,1.91-1.44,1.91-2,0-.81-.58-1.15-.58-1,0-8.44.87-16.9,1.67-25.39,1.66-72.41-.1-144.81-.12-217.23-.02-8.49.01-16.95-.78-25.39-1.64,2.83-5.84-.13-12.75-.09-18.5.11-19.01,1.04-38.09,1.19-57,.06-7.96-3.25-17.11.69-25.21,1.34-2.76,5.7-6.74,8.77-7.23,9.61-1.52,27.89-.19,38.44-.06Z"/>
  <path class="st12" d="M212,447c88.56-1.41,179.43-1.31,268,0,.22-.62.56-.58,1,0,.67.01,1.33-.01,2,0,10.3.23,21.83-2.7,25.77,9.73l.23,111.27v1c-16.97-.1-46.96,2.52-61.96-2.54-25.96-8.77-27.76-40.74-58.65-44.35-68.46-.02-136.94-.35-205.39-.11,1.41-19.77-1.87-42.07-.04-61.54,1.61-17.12,16.29-13.26,29.04-13.46Z"/>
  <path class="st26" d="M458,339c-66.2-1.12-131.87-1.12-197,0v-92.49c1-10.06,5.98-16.1,16.46-16.54,53.11,3.03,110.47-3.91,163.08,0,9.83.73,15.92,4.34,17.35,14.65l.11,94.39Z"/>
  <path class="st17" d="M798,232c.09,17.98.1,36.02,0,54-.4,6.01-.69,12.01-.85,18.01h-133.45s-.7-1.01-.7-1.01c-2.47-19.34-.11-50.37,0-71l.69-2h133.09l1.22,2Z"/>
  <path class="st29" d="M798,232h-135c.07-13.75-1.91-36.53.46-49.04,1.65-8.69,8.58-13.75,16.99-15.01,32.28,2.26,68.26-2.84,100.09.01,8.06.72,16.08,6.19,17.4,14.6,2,12.8-.01,35.42.06,49.44Z"/>
  <path class="st8" d="M458,339c4.63.24,9.36-.17,14,0-70.06,1.27-140.95.87-211,0,2.57-.26,4.78-.97,7.45-1.05,60.77-1.76,129.11-2.05,189.55,1.05Z"/>
  <path class="st14" d="M798,286c-.04,6.32.02,12.68,0,19.01h-134.41c-1.09.13-.5-1.28-.6-2.01h134.01c.94-.93-1.46-14.66.99-17Z"/>
  <path class="st19" d="M734,622c.81.7,1.37,2.63,3,3,13.31,13.63,12.03,38.64-1,52-1.61,2.02-3.99,4.42-6,6-13.62,13.37-38.38,13.36-52,0-1.7-1.36-4.66-4.3-6-6-11.3-11.79-13.45-35.01-3-48,3.7-4.38,6.55-8.18,11-12,16.34-11.76,40.5-9.75,54,5Z"/>
  <path class="st19" d="M345,618c2.51,1.78,6.86,5.74,9,8,11.88,15.15,10.93,38.83-3,52-.63.72-3.28,3.37-4,4-11.93,13.09-35.06,14.68-49,4-4.95-3.01-10.01-8.03-13-13-8.32-10.75-9.39-29.6-2-41,2.27-4.5,7.92-11.01,12-14,13.05-11.63,36.78-11.38,50,0Z"/>
  <path class="st20" d="M537,618c15,10.74,20.21,30.95,13.48,47.98-2.98,7.55-7.54,11.14-12.48,17.02-18.31,18.33-46.9,10.02-61-9-8.59-12.66-9.82-31.58-1-44,2.31-4.02,7.22-9.25,11-12,12.94-11.51,37.07-11.53,50,0Z"/>
  <path class="st2" d="M912,569h-400c133.31.75,266.69-.56,400,0Z"/>
  <path class="st21" d="M538,683c-.1.12,1.43.24-1.03,2.41-18.91,16.72-46.83,7.61-59.97-11.41,1.59,2.29,11.35,10.72,14.08,12.42,14.63,9.09,33.65,7.27,46.92-3.42Z"/>
  <path class="st9" d="M548,788h-1c-18.4-11.25-35.99-18.72-57-7-2.2-.72,1.48-2.33,1.95-2.55,23.74-10.99,36.92-2.44,56.05,9.55Z"/>
  <path class="st32" d="M730,683c2.11.57-1.19,2.49-1.67,2.83-15.6,10.79-33.03,10.56-48.66,0-.48-.33-3.78-2.27-1.67-2.83,15.53,12.44,36.48,12.2,52,0Z"/>
  <path class="st11" d="M737,788c-13.95,13.77-39.43,16.58-55,4,23.49,11.07,33.53,7.65,55-4Z"/>
  <path class="st4" d="M298,686c15.7,9.54,35.11,8.07,49-4,2.02.43-1.09,2.64-1.53,2.97-13.66,10.52-30.4,11.56-45.51,3.56-.95-.5-3.31-1.06-1.96-2.53Z"/>
  <path class="st27" d="M351,678c13.33-15.33,13.56-35.14,3-52,13.02,13.73,10.94,35.88-.03,50.47-.32.43-2.55,3.55-2.97,1.53Z"/>
  <path class="st25" d="M734,622c-16.2-13.94-35.32-15.84-54-5,14.53-12.47,37.38-10.05,52.01,1.49.36.28,3.96,3.05,1.99,3.51Z"/>
  <path class="st0" d="M736,677c12.52-15.7,13.05-35.91,1-52,.21-1.92,1.53-.13,2.44,1.06,11,14.43,9.37,34.85-.61,49.26-.34.49-2.26,3.78-2.83,1.67Z"/>
  <path class="st30" d="M674,787c-18.08-10.58-34.33-17.1-55-6-2.2-.72,1.48-2.33,1.95-2.55,17.9-8.27,35.56-4.9,51.38,5.72.48.32,3.78,2.27,1.67,2.83Z"/>
  <path class="st3" d="M537,618c-14.66-10.5-35.36-10.64-50,0-2.1-.56,1.19-2.56,1.67-2.84,14.5-8.4,32.11-8.66,46.66,0,.48.29,3.77,2.27,1.67,2.83Z"/>
  <path class="st18" d="M345,618c-14.66-10.39-35.38-10.72-50,0-2.1-.56,1.19-2.56,1.67-2.84,14.55-8.43,32.11-8.72,46.46.21.47.29,4.05,2.01,1.88,2.63Z"/>
  <path class="st31" d="M341,795c-16.3,8.17-32.87,6.39-48-3,.67-2.13,2.94.06,3.91.59,7.34,4.04,14.35,5.47,22.6,6.49l21.49-4.08Z"/>
  <path class="st24" d="M468,796c-15.51,7.05-36.72,5.28-49-7,9.78,5.26,19.92,10.51,31.47,10l17.53-3Z"/>
  <path class="st10" d="M476,630c-6.9,11.99-6.94,32.56,1,44-9.25-13.38-10.42-26.91-3.55-42.06.43-.95,1.16-3.26,2.55-1.94Z"/>
  <path class="st16" d="M602,793c-13.88,7.94-27.6,9.55-42.69,3.19-4.78-2.01-8.37-5.78-12.31-8.19h1c17.53,10.99,30.42,14.67,49.99,5.49,1.03-.48,3.41-2.5,4.01-.49Z"/>
  <path class="st23" d="M669,629c-9.32,14.78-7.73,34.39,3,48-.57,2.11-2.49-1.19-2.83-1.67-8.17-11.74-10.51-32.8-2.37-45.08,1.88-2.84,2.09-1.13,2.2-1.25Z"/>
  <path class="st1" d="M283,632c-6.34,12.6-5.17,29.06,2,41-1.46,1.35-2.03-1.01-2.53-1.96-6.14-11.72-6.33-23.12-2.51-35.58.15-.47,1.67-5.63,3.04-3.46Z"/>
  <path class="st6" d="M417,788c-10.87-5.78-14.03-10.94-28-12-3.93-.98-8.06-1.01-12,0-1.28.1-2.85-.22-4,0-2.44-1.25,4.38-1.86,4.62-1.88,15.48-.99,25.28,2.36,37.7,11.05.49.34,3.78,2.26,1.67,2.83Z"/>
  <path class="st6" d="M226,783c-2.21-.76,1.48-2.28,1.97-2.53,3.79-1.94,14.75-6.47,18.53-6.47h14.5v.99c-4.42.58-10.18-1.24-14,1.01-7,.58-15.03,3.4-21,7Z"/>
  <path class="st7" d="M620.74,357.24c9.88-1.65,41.23-1.28,51.75-.23,9.31.93,15.55,7.19,16.5,16.5,1.22,12.07,1.1,36.79,0,48.97-.82,9.09-5.86,16.44-15.48,17.52-11.15,1.25-39.86,1.25-51.01,0-6.54-.74-12.78-4.7-14.99-11.01-2.58-7.37-2.49-46.36-1.4-55.38,1-8.21,6.2-14.96,14.63-16.37Z"/>
  <path class="st7" d="M808.65,362.35c2.23,2.37,4,6.9,4.36,10.15.93,8.5,1.29,48.59-.47,55.53-1.23,4.84-6,9.78-10.81,11.19-6.59,1.94-45.88,1.68-54.22.78-7.91-.85-14.65-7.58-15.5-15.5-1.26-11.81-1.27-40.2,0-52.01.99-9.26,8.58-14.77,17.47-15.53,11.58-.99,35.67-1.19,47.04.03,3.76.4,9.56,2.62,12.14,5.36Z"/>
  <path class="st28" d="M389,776c-3.52-.27-8.49-.27-12,0,2.67-1.67,9.13-1.7,12,0Z"/>
  <path class="st22" d="M480,447c-1.04-1.66-3.79-1-5.49-1.02-85.32-1.06-170.71.83-256.03.02l-1.98-1.01h263.01s1.49,2,1.49,2c-.33,0-.67,0-1,0Z"/>
</svg>