<?xml version="1.0" encoding="UTF-8"?>
<svg id="Layer_1" xmlns="http://www.w3.org/2000/svg" version="1.1" viewBox="0 0 1024 1024">
  <!-- Generator: Adobe Illustrator 29.5.1, SVG Export Plug-In . SVG Version: 2.1.0 Build 141)  -->
  <defs>
    <style>
      .st0 {
        fill: #b6bec0;
      }

      .st1 {
        fill: #861110;
      }

      .st2 {
        fill: #a41310;
      }

      .st3 {
        fill: #d5dbdd;
      }

      .st4 {
        fill: #7d0f10;
      }

      .st5 {
        fill: #fdb569;
      }

      .st6 {
        fill: #a0e1df;
      }

      .st7 {
        fill: #fdb469;
      }

      .st8 {
        fill: #8d1311;
      }

      .st9 {
        fill: #a83e38;
      }

      .st10 {
        fill: #891f1e;
      }

      .st11 {
        fill: #851816;
      }

      .st12 {
        fill: #929697;
      }
    </style>
  </defs>
  <path class="st0" d="M571,64c.59.03,1.33-.24,1.82.14,2.16,1.7,1,28.39,1.14,33.4,4.34,155.71,7.23,311.8,9.04,467.46-2.01.49-4.02.93-6.06,1.22s-4.04.57-6.05.53c-32.34-.74-64.85-1.67-97.1-2.73-2.63-.09-7.98-.41-8.79-3.02l-2.19-2.71c1.81-77.02,7.06-154.36,15.76-232.04,9.83-83.28,37.22-160.72,77.22-233.55,4.06-10.4,9.13-19.96,15.2-28.7Z"/>
  <path class="st9" d="M508,581l1.82.73c22.56-.24,46.32.15,71.27,1.19.41,5.51.71,10.86.91,16.08.82,16.27.96,32.58.4,48.94l.6-1.94c1.66,1.04,1,3.79,1.02,5.49.09,7.5-.02,15.03-.02,22.51l-1.04,2.15c1.61,48.68,2.29,97.96,2.04,147.85,1.1,27.91,1.84,56.59,1.09,83.78-1.22,9.51-3.91,18.59-8.09,27.22-1.66,2.88-2.92,4.49-5,7-21.32,22.22-50.63,26.03-77,9-42.26-30.53-12.14-69.75-10.01-109.51.45-8.32-1-16.02-1.04-23.94-.2-49.17,2.25-94.22,7.06-143.04,3-30.48,8.46-60.79,8.99-91.51-.92-2.72-.26-3.39,2-2,1.49-.8,3.71-.98,5,0Z"/>
  <path class="st3" d="M571,64c-18.06,43.32-42.98,83.38-58.75,127.75-38.88,109.4-41.46,227.67-46.21,342.79-.36,8.68-1.87,17.59-1.04,26.46l-1.45,2.09c-12.19,2.57-24.37,4.54-36.55,5.91-8.28-4.54-4.11-13.46-3.96-20.46,1.61-75.87,6.32-152.19,15.97-227.54l1.98,1.99c-1.9-14.45,4.65-29.45,6.02-43.99l1.98,1.99c-.12-2.21-1-3.88-.8-6.21.61-7,5.07-20.54,7.09-28,7.99-29.52,19.02-58.05,31.78-85.75l1.93.97c-1.73-2.35,4.93-14.81,5.99-15.45.54-.33,1.95.52,2.01.44.18-.26-.71-2.18-.25-3.71.56-1.89,11.2-19.19,12.24-19.69.59-.29,1.93.51,2.01.4.14-.21-.81-2.12.11-4.29,2.04-4.81,6.2-5.27,6.44-5.65.55-.9-.35-2.54.54-4.37.75-1.55,9.71-12.47,10.92-13.05.61-.3,1.92.49,1.99.37.32-.51-1.13-1.84-.09-3.53,2.94-4.76,27.36-26.36,32.56-28.53,1.42-.59,5.96-1.02,7.54-.94Z"/>
  <path class="st12" d="M465,561c3.6-.14,6.37,1.03,9.46,1.04,36.21.13,72.36,2.39,108.54,2.96.07,6.32-.05,12.68,0,19-.28.87-.62.86-1,0-2.6-.55-2.54-1.24,0-2-2.25-.91-4.85-1.59-7.37-1.67-23.71-.77-48.35-.76-71.63.67-.63.17-1.34,1.55-2,2,.72-2.79-3.1-2.35-4.81-2.67-22.95-4.26-46.42-6.03-69.19-11.33,1.18-1.31,3.16-1.38,4.81-1.69,9.44-1.77,24.42-5.96,33.19-6.31Z"/>
  <path class="st10" d="M584,674c0,12.98-.01,26.02,0,39l1,20c.02,21.98-.02,44.02,0,66l1,22c0,1,0,2,0,3-.28.87-.62.86-1,0-.46-46.68-.24-94.72-1.96-141.54-.08-2.11-3.03-9.07.96-8.46Z"/>
  <path class="st11" d="M578,935c-2-.59,0-3,.49-4.01,8.49-17.49,6.56-23.11,6.47-41.45-.11-21.84.25-43.71.04-65.54h1c.02,26.92,3.18,58.37.98,84.48-.74,8.85-4.6,18.89-8.98,26.52Z"/>
  <path class="st2" d="M567,581l12,1c.85-1.21,1.85-.84,3,0,.16.42-.07,1.36,0,2,.29,3.93.63,7.93,1,12,0,1,0,2,0,3-.28.87-.62.86-1,0-.03-.58-.9-2-1.01-3.45-.23-3.06,1.2-11.48-1.63-12.41-15.96-.45-31.94.09-47.9-.1-6.75-.08-13.18-.07-19.97-.01-1.91.02-4.07.89-3.49-2.03,19.49-1.29,39.62-1.91,59,0Z"/>
  <path class="st1" d="M573,942c-19.56,23.63-52.23,26.9-77,9,.64-2.19,2.82.24,3.71.8,16.34,10.34,36.81,12.89,54.31,3.73l18.98-13.52Z"/>
  <path class="st8" d="M583,646c-.03,5.15.15,10.36,0,15.52-.03.86.41,3.6-1.01,1.98-.8-21.27,1.09-43.33,0-64.5h1c.07,15.65.08,31.35,0,47Z"/>
  <path class="st9" d="M586,821c-1.84-6.73-.99-14.92-1-22,1.84,6.73.99,14.92,1,22Z"/>
  <path class="st9" d="M585,733c-1.85-6.03-.99-13.6-1-20,1.85,6.03.99,13.6,1,20Z"/>
  <path class="st9" d="M583,596c-2.13-3.06-.59-8.17-1-12h1c.03,3.99-.02,8.01,0,12Z"/>
  <path class="st5" d="M534.73,870.23c30.12-5.58,30.52,40.97.85,36.68-18.99-2.75-19.05-33.31-.85-36.68Z"/>
  <path class="st7" d="M531,665c-6.82-4.38-10.18-13.42-8-21,.87.1,2.25-4.9,3.17-6.33,4.81-7.5,16.57-9.97,24.18-5.52,18.76,10.98,6,43.54-19.35,32.85Z"/>
  <path class="st6" d="M582,582c-1,0-2,0-3,0l-12-1c-19.19-.07-40.01-.99-59,0-1.47.08-3.88-.31-5,0,1.04-1.66,3.79-1,5.49-1.02,21.04-.26,47.61-1.75,68.06-.03,1.77.15,4.72.14,5.46,2.05Z"/>
  <path class="st4" d="M523,644c-1.08,8.7,2.04,15.1,8,21-8.8-3.71-9.72-13.31-8.98-22.01.49.1.83,1,.98,1.01Z"/>
  <path class="st12" d="M579,582c-3.77,0-9.03.84-12-1,3.78.01,9.02-.84,12,1Z"/>
</svg>