<?xml version="1.0" encoding="UTF-8"?>
<svg id="Ebene_1" xmlns="http://www.w3.org/2000/svg" version="1.1" viewBox="0 0 50.99 50.99">
  <!-- Generator: Adobe Illustrator 29.5.1, SVG Export Plug-In . SVG Version: 2.1.0 Build 141)  -->
  <defs>
    <style>
      .st0 {
        fill: #5e7598;
      }

      .st1 {
        fill: #4cc56e;
      }

      .st2 {
        fill: #435e87;
      }

      .st3 {
        fill: #14a042;
      }
    </style>
  </defs>
  <path class="st0" d="M23.66,32.1c.99-.2,1.99-.2,2.98,0,6.31,0,12.63,0,18.94,0,.6.05,1.22.38,1.64.8v.22c-12.88,5.29-25.75,10.57-38.63,15.85l-.33-.07c-.51-.37-.79-.73-1.04-1.29-1.69-3.75-2.66-8.28-4.28-12.12-.3-1.62.55-3.06,2.19-3.38,6.18,0,12.36,0,18.54,0Z"/>
  <path class="st2" d="M47.21,32.9c.79.79.94,1.74.67,2.8-1.01,3.96-3.18,8.11-4.3,12.1-.45.88-1.28,1.5-2.28,1.59H9.69c-.56,0-1-.19-1.44-.5l38.96-16Z"/>
  <path class="st1" d="M26.74,4.27c.32.23.31,1.25,0,1.49.02,3.37-.1,6.83-.1,10.24.2.49.2,1,0,1.49,0,4.87,0,9.74,0,14.61-.99,0-1.99,0-2.98,0,0-3.46,0-6.93,0-10.39,0-.18-.1-.37-.1-.44-.31-.29-.31-1.2,0-1.49,0-3.82.05-7.7,0-11.53l-.13-.16c.11-.44.08-.9-.07-1.33.35.01.27.06.3-.24.09-1.16-.17-2.68,0-3.78.25-1.59,2.66-1.66,2.95-.08.06.34.11,1.27.12,1.62Z"/>
  <path class="st1" d="M21.47,6.66l-.45.2c-2.92.12-6.5.62-8.99,2.15-.68.42-1.42,1.01-.18,1.33,1.81-.96,3.58-1.64,5.73-2.03.46-.08,2.99-.49,3.09-.24.19.5-1.48,1.86-1.92,2.18-1.73,1.26-3.87,2-6.02,1.92-2.8-.19-5.63-.36-8.47-.48l-.46-.16C7.63,4.69,13.48,2.15,20.74,6.15c.24.13.56.3.73.51Z"/>
  <path class="st1" d="M21.47,19.48l-.4.19c-3.39.02-7.19.47-10.14,2.11-.73.41-1.72,1.13-.27,1.39,2.02-.99,3.8-1.74,6.19-2.09.53-.08,3.5-.4,3.61-.08.17.49-1.44,1.82-1.87,2.14-1.85,1.35-4.03,1.98-6.32,1.9-2.69-.19-5.39-.33-8.11-.44l-.39-.14c1.31-2.31,2.83-4.42,5.14-5.84,4.04-2.5,8.76-1.61,12.55.88Z"/>
  <path class="st1" d="M46.22,20.28l-.34.14c-2.79.1-5.57.26-8.32.45-2.19.09-4.3-.4-6.16-1.61-.44-.28-2.01-1.46-1.87-1.94.2-.69,7.29.98,8.06,1.7.42.57,1.98.79,1.55-.21-.58-1.38-8.4-3.1-10.02-2.7l-.5-.19c.84-.57,1.74-1.06,2.69-1.44,6.56-2.66,11.52.12,14.91,5.81Z"/>
  <path class="st1" d="M47.01,8.05c-.1.06-.19.11-.3.16s-.2.08-.3.09c-3.11.15-6.22.3-9.3.35-1.74-.16-3.73-.87-5.07-2.01-.96-.82-1.08-1.12.42-.95,2.02.23,4.17.99,5.88,1.97,1.31.51,1.41-.59.11-1.25-2.63-1.32-5.4-1.92-8.33-2.05-.28-.08-.52-.21-.31-.49.19-.1.48-.38.73-.51,7-3.69,12.43-1.82,16.47,4.69Z"/>
  <path class="st3" d="M29.82,3.88c.07.16.17.26.35.3.73.13,1.67.1,2.47.22,1.68.25,3.56.75,5.1,1.46.62.28,2.7,1.2,1.52,2.05-.57.41-1.51-.4-2.12-.66-1.82-.79-3.76-1.29-5.73-1.47,1.1,1.24,2.96,2.18,4.59,2.52,2.07.43,3.75.06,5.8-.03,1.74-.08,3.49-.05,5.22-.2.43.7.95,1.38,1.19,2.19-2.23.07-4.48.09-6.71.2-1.76.08-3.49.44-5.25.19-2.09-.3-4.33-1.44-5.78-2.97-.29-.31-1.33-1.89-1.44-1.94-.52-.25-1.69.15-2.29.05,0-.45.01-1.05,0-1.49,1.03-.16,2.15.11,3.08-.4Z"/>
  <path class="st3" d="M28.62,15.9c3.03-.05,6,.37,8.78,1.6.45.2,1.83.81,1.93,1.25.09.39.03.72-.34.91-.58.3-.99-.25-1.49-.47-2.49-1.13-5.14-1.79-7.89-1.8.6.74,1.34,1.38,2.16,1.87,3.49,2.1,6.5,1.29,10.31,1.11,1.37-.07,2.76-.04,4.13-.1.36.61.68,1.25.99,1.89-2.07.14-4.15.11-6.22.2-1.22.05-2.46.27-3.67.31-3.71.12-6.81-1.38-8.92-4.4-.12-.18-.39-.77-.47-.82-.29-.18-.92.15-1.29.05,0-.5,0-1,0-1.49.66-.09,1.32-.09,1.99-.1Z"/>
  <path class="st3" d="M23.56,19.78c0,.47,0,1.03,0,1.49-.38.1-.99-.23-1.29-.05-.08.05-.86,1.32-1.09,1.59-3.93,4.62-8.38,3.35-13.66,3.12-1.5-.06-3.02.01-4.53-.1.2-.5.53-.93.8-1.39,1.44.02,2.89.02,4.33.1,2.4.12,4.75.59,7.12-.02,1.97-.51,3.98-1.78,5.15-3.45-2.3-.07-4.71.26-6.88,1.02-.65.23-2.41,1.23-2.8,1.27-.56.07-1.08-.33-.91-.9.2-.66,2.79-1.66,3.48-1.89,2.42-.8,5.68-1.19,8.2-1.09.17,0,.52.16.76.19.44.05.89.05,1.33.11Z"/>
  <path class="st3" d="M21.47,6.66c.56,0,1.35.02,1.89.1.47.07.29.82.3,1.25,0,.13-.1.23-.1.24-.29.06-1.08-.09-1.27.02-.06.04-.58,1-.73,1.2-3.44,4.58-8.17,4.17-13.35,3.64l-5.12-.1c-.14-.14.58-1.28.7-1.49,1.87.1,3.74.12,5.61.2,1.56.07,3.1.37,4.66.18,2.48-.29,5.06-1.74,6.52-3.76-2.24.15-4.47.52-6.56,1.34-.49.19-1.84,1-2.15,1.04-.56.07-.94-.4-.83-.94.09-.45,1.67-1.17,2.12-1.36,2.5-1.08,5.6-1.6,8.32-1.57Z"/>
</svg>